<?xml version="1.0" encoding="UTF-8" standalone="no"?>
<!DOCTYPE svg PUBLIC "-//W3C//DTD SVG 1.1//EN" "http://www.w3.org/Graphics/SVG/1.1/DTD/svg11.dtd">
<!-- Created with gpx2svg 0.1.5 -->
<svg xmlns="http://www.w3.org/2000/svg" version="1.1" width="2231.002449939872px" height="2999.9999999999995px">
<g>
<path d="M 440.76332712621013 109.56776654477368 425.3711114369903 97.52683043050604 410.1918980042142 107.13488972670339 408.123533987742 127.99223144045696 390.9936683117945 141.41292666948178 372.3671815181728 161.67462301753613 362.57468304439305 167.0704660839318 335.7083721200026 180.68713728994794 332.98418536655157 175.89407321050766 303.438530269085 186.27903963349624 305.35555057707774 168.39945480833646 283.66855767775024 115.26141994624605 266.0678449085993 69.16733491436722 155.72707074916553 0.0 266.0678449085993 69.16733491436722 252.28996211035465 104.81820892452139 249.9861745472807 106.49580547422423 236.66792819710193 115.66810923036354 200.4014913765818 155.559811393121 147.64980097201394 168.21063675985374 118.35078006616956 172.71321908433546 84.46660532427683 178.7626499868929 69.87595075800508 181.3915720810484 37.16328842661095 190.15705658315295 0.0 175.4365532202118 37.16328842661095 190.15705658315295 69.87595075800508 181.3915720810484 304.9351513867007 235.5165618709975 336.3641948569228 294.5138104267627 324.46409510892346 347.42483843406774 1820.9955275794332 2877.0597182844813 2231.002449939872 2999.9999999999995 2223.3343687080182 2980.1561398693325 2221.949854041135 2976.9480176400575 2204.3939838522415 2982.1085933517575" style="fill:none;stroke:black"/>
</g>
</svg>
