<?xml version="1.0" encoding="UTF-8" standalone="no"?>
<!DOCTYPE svg PUBLIC "-//W3C//DTD SVG 1.1//EN" "http://www.w3.org/Graphics/SVG/1.1/DTD/svg11.dtd">
<!-- Created with gpx2svg 0.1.5 -->
<svg xmlns="http://www.w3.org/2000/svg" version="1.1" width="1134.1118402527645px" height="1187.72584608756px">
<g>
<path d="M 0.0 0.0 14.215498974255752 7.304502178914845 148.16624224587576 92.4800803521648 167.49130584759405 104.99990741163492 276.0278093710076 190.6500895144418 290.18764859990915 195.5340728489682 373.45462771318853 249.30095368158072 389.75180116540287 269.05286256130785 408.25310053525027 296.9878446366638 432.14226325944765 326.9829271659255 468.6216603924404 380.79232488013804 533.9328056408558 443.5191679811105 554.3933280485799 460.8359720874578 488.7482243278646 510.91335079818964 500.2920555230812 521.6318367188796 622.5431203122716 490.75853247288615 647.6011376898387 488.4966954421252 665.790742485493 498.36521633528173 706.2331134906271 511.8929978366941 784.8580698379665 510.1353957327083 789.5112245531636 542.2908216705546 815.5599853987806 694.5378750506788 949.6331801101915 669.9174585286528 1022.079904718441 664.0252609560266 1028.3805878973217 740.1769662499428 1046.4700051512336 854.1441326048225 1080.4224498432013 1023.8751652278006 1105.8589534894563 1105.6279709525406 1134.1118402527645 1187.72584608756" style="fill:none;stroke:black"/>
</g>
</svg>
