<?xml version="1.0" encoding="UTF-8" standalone="no"?>
<!DOCTYPE svg PUBLIC "-//W3C//DTD SVG 1.1//EN" "http://www.w3.org/Graphics/SVG/1.1/DTD/svg11.dtd">
<!-- Created with gpx2svg 0.1.5 -->
<svg xmlns="http://www.w3.org/2000/svg" version="1.1" width="2231.002449939872px" height="2999.9999999999995px">
<g>
<path d="M 464.3000764630559 88.72487344635051 440.76332712621013 109.56776654477368 425.3711114369903 97.52683043050604 410.1918980042142 107.13488972670339 390.9936683117945 141.41292666948178 372.3671815181728 161.67462301753613 362.57468304439305 167.0704660839318 335.7083721200026 180.68713728994794 337.1377293672025 183.20712521582044 340.854058209887 189.74311109575115 332.2723094042947 214.7685966290777 351.18466764722746 226.38078648769235 323.39347850419506 245.7561632909191 304.9351513867007 235.5165618709975 69.87595075800508 181.3915720810484 37.16328842661095 190.15705658315295 0.0 175.4365532202118 37.16328842661095 190.15705658315295 69.87595075800508 181.3915720810484 304.9351513867007 235.5165618709975 323.39347850419506 245.7561632909191 351.18466764722746 226.38078648769235 332.2723094042947 214.7685966290777 340.854058209887 189.74311109575115 337.1377293672025 183.20712521582044 312.0875429451517 210.46213043998236 305.103311062828 209.48899929277067 302.4015455995938 193.23622897159777 303.438530269085 186.27903963349624 305.35555057707774 168.39945480833646 283.66855767775024 115.26141994624605 266.0678449085993 69.16733491436722 155.72707074916553 0.0 266.0678449085993 69.16733491436722 283.66855767775024 115.26141994624605 305.35555057707774 168.39945480833646 329.9573111960831 160.14228968272707 332.98418536655157 175.89407321050766 335.7083721200026 180.68713728994794 362.57468304439305 167.0704660839318 372.3671815181728 161.67462301753613 390.9936683117945 141.41292666948178 408.123533987742 127.99223144045696 363.70135287445817 220.4548692934543 338.95945919205246 290.05490901582016 336.3641948569228 294.5138104267627 324.46409510892346 347.42483843406774 1820.9955275794332 2877.0597182844813 2231.002449939872 2999.9999999999995 2223.3343687080182 2980.1561398693325 2221.949854041135 2976.9480176400575 2204.3939838522415 2982.1085933517575" style="fill:none;stroke:black"/>
</g>
</svg>
