<?xml version="1.0" encoding="utf-8" standalone="no"?>
<!DOCTYPE svg PUBLIC "-//W3C//DTD SVG 1.1//EN"
  "http://www.w3.org/Graphics/SVG/1.1/DTD/svg11.dtd">
<!-- Created with matplotlib (http://matplotlib.org/) -->
<svg height="432pt" version="1.1" viewBox="0 0 342.417491 432" width="342.417491pt" xmlns="http://www.w3.org/2000/svg" xmlns:xlink="http://www.w3.org/1999/xlink">
 <defs>
  <style type="text/css">
*{stroke-linecap:butt;stroke-linejoin:round;}
  </style>
 </defs>
 <g id="figure_1">
  <g id="patch_1">
   <path d="M 0 432 
L 342.417491 432 
L 342.417491 0 
L 0 0 
z
" style="fill:none;opacity:0;"/>
  </g>
  <g id="axes_1">
   <g id="PathCollection_1">
    <defs>
     <path d="M 0 1.936492 
C 0.513564 1.936492 1.006162 1.732451 1.369306 1.369306 
C 1.732451 1.006162 1.936492 0.513564 1.936492 0 
C 1.936492 -0.513564 1.732451 -1.006162 1.369306 -1.369306 
C 1.006162 -1.732451 0.513564 -1.936492 0 -1.936492 
C -0.513564 -1.936492 -1.006162 -1.732451 -1.369306 -1.369306 
C -1.732451 -1.006162 -1.936492 -0.513564 -1.936492 0 
C -1.936492 0.513564 -1.732451 1.006162 -1.369306 1.369306 
C -1.006162 1.732451 -0.513564 1.936492 0 1.936492 
z
" id="C0_0_7b249af82e"/>
    </defs>
    <g clip-path="url(#pbdb1f47587)">
     <use style="fill:#66ccff;" x="238.720074" xlink:href="#C0_0_7b249af82e" y="230.853639"/>
    </g>
    <g clip-path="url(#pbdb1f47587)">
     <use style="fill:#66ccff;" x="238.024552" xlink:href="#C0_0_7b249af82e" y="230.433599"/>
    </g>
    <g clip-path="url(#pbdb1f47587)">
     <use style="fill:#66ccff;" x="236.493844" xlink:href="#C0_0_7b249af82e" y="228.997343"/>
    </g>
    <g clip-path="url(#pbdb1f47587)">
     <use style="fill:#66ccff;" x="237.365731" xlink:href="#C0_0_7b249af82e" y="230.9476"/>
    </g>
    <g clip-path="url(#pbdb1f47587)">
     <use style="fill:#66ccff;" x="238.489932" xlink:href="#C0_0_7b249af82e" y="228.806148"/>
    </g>
    <g clip-path="url(#pbdb1f47587)">
     <use style="fill:#66ccff;" x="239.412537" xlink:href="#C0_0_7b249af82e" y="232.780323"/>
    </g>
    <g clip-path="url(#pbdb1f47587)">
     <use style="fill:#66ccff;" x="237.918019" xlink:href="#C0_0_7b249af82e" y="230.45226"/>
    </g>
    <g clip-path="url(#pbdb1f47587)">
     <use style="fill:#66ccff;" x="237.858636" xlink:href="#C0_0_7b249af82e" y="231.915361"/>
    </g>
    <g clip-path="url(#pbdb1f47587)">
     <use style="fill:#66ccff;" x="234.796201" xlink:href="#C0_0_7b249af82e" y="203.385374"/>
    </g>
    <g clip-path="url(#pbdb1f47587)">
     <use style="fill:#66ccff;" x="80.280339" xlink:href="#C0_0_7b249af82e" y="387.891338"/>
    </g>
    <g clip-path="url(#pbdb1f47587)">
     <use style="fill:#66ccff;" x="213.417009" xlink:href="#C0_0_7b249af82e" y="221.78791"/>
    </g>
    <g clip-path="url(#pbdb1f47587)">
     <use style="fill:#66ccff;" x="208.251443" xlink:href="#C0_0_7b249af82e" y="216.298906"/>
    </g>
    <g clip-path="url(#pbdb1f47587)">
     <use style="fill:#66ccff;" x="228.734537" xlink:href="#C0_0_7b249af82e" y="216.80505"/>
    </g>
    <g clip-path="url(#pbdb1f47587)">
     <use style="fill:#66ccff;" x="219.584696" xlink:href="#C0_0_7b249af82e" y="208.170165"/>
    </g>
    <g clip-path="url(#pbdb1f47587)">
     <use style="fill:#66ccff;" x="226.479508" xlink:href="#C0_0_7b249af82e" y="212.163656"/>
    </g>
    <g clip-path="url(#pbdb1f47587)">
     <use style="fill:#66ccff;" x="232.743534" xlink:href="#C0_0_7b249af82e" y="197.819761"/>
    </g>
    <g clip-path="url(#pbdb1f47587)">
     <use style="fill:#66ccff;" x="227.903938" xlink:href="#C0_0_7b249af82e" y="210.32864"/>
    </g>
    <g clip-path="url(#pbdb1f47587)">
     <use style="fill:#66ccff;" x="226.91303" xlink:href="#C0_0_7b249af82e" y="212.818434"/>
    </g>
    <g clip-path="url(#pbdb1f47587)">
     <use style="fill:#66ccff;" x="226.342137" xlink:href="#C0_0_7b249af82e" y="210.648827"/>
    </g>
    <g clip-path="url(#pbdb1f47587)">
     <use style="fill:#66ccff;" x="234.808689" xlink:href="#C0_0_7b249af82e" y="217.955167"/>
    </g>
    <g clip-path="url(#pbdb1f47587)">
     <use style="fill:#66ccff;" x="224.656982" xlink:href="#C0_0_7b249af82e" y="206.250683"/>
    </g>
    <g clip-path="url(#pbdb1f47587)">
     <use style="fill:#66ccff;" x="232.249609" xlink:href="#C0_0_7b249af82e" y="205.157531"/>
    </g>
    <g clip-path="url(#pbdb1f47587)">
     <use style="fill:#66ccff;" x="232.720596" xlink:href="#C0_0_7b249af82e" y="204.770557"/>
    </g>
    <g clip-path="url(#pbdb1f47587)">
     <use style="fill:#66ccff;" x="227.450282" xlink:href="#C0_0_7b249af82e" y="211.610696"/>
    </g>
    <g clip-path="url(#pbdb1f47587)">
     <use style="fill:#66ccff;" x="228.648648" xlink:href="#C0_0_7b249af82e" y="210.434714"/>
    </g>
    <g clip-path="url(#pbdb1f47587)">
     <use style="fill:#66ccff;" x="228.818132" xlink:href="#C0_0_7b249af82e" y="210.42522"/>
    </g>
    <g clip-path="url(#pbdb1f47587)">
     <use style="fill:#66ccff;" x="228.601243" xlink:href="#C0_0_7b249af82e" y="210.8027"/>
    </g>
    <g clip-path="url(#pbdb1f47587)">
     <use style="fill:#66ccff;" x="228.52351" xlink:href="#C0_0_7b249af82e" y="210.646862"/>
    </g>
    <g clip-path="url(#pbdb1f47587)">
     <use style="fill:#66ccff;" x="228.919822" xlink:href="#C0_0_7b249af82e" y="210.769961"/>
    </g>
    <g clip-path="url(#pbdb1f47587)">
     <use style="fill:#66ccff;" x="235.749389" xlink:href="#C0_0_7b249af82e" y="204.973866"/>
    </g>
    <g clip-path="url(#pbdb1f47587)">
     <use style="fill:#66ccff;" x="216.30002" xlink:href="#C0_0_7b249af82e" y="224.904326"/>
    </g>
    <g clip-path="url(#pbdb1f47587)">
     <use style="fill:#66ccff;" x="214.297815" xlink:href="#C0_0_7b249af82e" y="214.475022"/>
    </g>
    <g clip-path="url(#pbdb1f47587)">
     <use style="fill:#66ccff;" x="238.931355" xlink:href="#C0_0_7b249af82e" y="209.953453"/>
    </g>
    <g clip-path="url(#pbdb1f47587)">
     <use style="fill:#66ccff;" x="224.252259" xlink:href="#C0_0_7b249af82e" y="207.754053"/>
    </g>
    <g clip-path="url(#pbdb1f47587)">
     <use style="fill:#66ccff;" x="221.006068" xlink:href="#C0_0_7b249af82e" y="210.020895"/>
    </g>
    <g clip-path="url(#pbdb1f47587)">
     <use style="fill:#66ccff;" x="223.197636" xlink:href="#C0_0_7b249af82e" y="211.805165"/>
    </g>
    <g clip-path="url(#pbdb1f47587)">
     <use style="fill:#66ccff;" x="218.761743" xlink:href="#C0_0_7b249af82e" y="214.529696"/>
    </g>
    <g clip-path="url(#pbdb1f47587)">
     <use style="fill:#66ccff;" x="218.194418" xlink:href="#C0_0_7b249af82e" y="211.870643"/>
    </g>
    <g clip-path="url(#pbdb1f47587)">
     <use style="fill:#66ccff;" x="219.260765" xlink:href="#C0_0_7b249af82e" y="214.529696"/>
    </g>
    <g clip-path="url(#pbdb1f47587)">
     <use style="fill:#66ccff;" x="219.315306" xlink:href="#C0_0_7b249af82e" y="215.23391"/>
    </g>
    <g clip-path="url(#pbdb1f47587)">
     <use style="fill:#66ccff;" x="220.186428" xlink:href="#C0_0_7b249af82e" y="216.375843"/>
    </g>
    <g clip-path="url(#pbdb1f47587)">
     <use style="fill:#66ccff;" x="223.839381" xlink:href="#C0_0_7b249af82e" y="217.090533"/>
    </g>
    <g clip-path="url(#pbdb1f47587)">
     <use style="fill:#66ccff;" x="234.159808" xlink:href="#C0_0_7b249af82e" y="197.38237"/>
    </g>
    <g clip-path="url(#pbdb1f47587)">
     <use style="fill:#66ccff;" x="233.49589" xlink:href="#C0_0_7b249af82e" y="197.535588"/>
    </g>
    <g clip-path="url(#pbdb1f47587)">
     <use style="fill:#66ccff;" x="224.987794" xlink:href="#C0_0_7b249af82e" y="213.557351"/>
    </g>
    <g clip-path="url(#pbdb1f47587)">
     <use style="fill:#66ccff;" x="209.772721" xlink:href="#C0_0_7b249af82e" y="197.722854"/>
    </g>
    <g clip-path="url(#pbdb1f47587)">
     <use style="fill:#66ccff;" x="231.807421" xlink:href="#C0_0_7b249af82e" y="205.394888"/>
    </g>
    <g clip-path="url(#pbdb1f47587)">
     <use style="fill:#66ccff;" x="233.548901" xlink:href="#C0_0_7b249af82e" y="196.617916"/>
    </g>
    <g clip-path="url(#pbdb1f47587)">
     <use style="fill:#66ccff;" x="231.411874" xlink:href="#C0_0_7b249af82e" y="197.165638"/>
    </g>
    <g clip-path="url(#pbdb1f47587)">
     <use style="fill:#66ccff;" x="241.484064" xlink:href="#C0_0_7b249af82e" y="205.460039"/>
    </g>
    <g clip-path="url(#pbdb1f47587)">
     <use style="fill:#66ccff;" x="219.50314" xlink:href="#C0_0_7b249af82e" y="219.248681"/>
    </g>
    <g clip-path="url(#pbdb1f47587)">
     <use style="fill:#66ccff;" x="233.394454" xlink:href="#C0_0_7b249af82e" y="198.040422"/>
    </g>
    <g clip-path="url(#pbdb1f47587)">
     <use style="fill:#66ccff;" x="224.336364" xlink:href="#C0_0_7b249af82e" y="207.415206"/>
    </g>
    <g clip-path="url(#pbdb1f47587)">
     <use style="fill:#66ccff;" x="238.552629" xlink:href="#C0_0_7b249af82e" y="215.437873"/>
    </g>
    <g clip-path="url(#pbdb1f47587)">
     <use style="fill:#66ccff;" x="232.2937" xlink:href="#C0_0_7b249af82e" y="195.873761"/>
    </g>
    <g clip-path="url(#pbdb1f47587)">
     <use style="fill:#66ccff;" x="232.206792" xlink:href="#C0_0_7b249af82e" y="196.620863"/>
    </g>
    <g clip-path="url(#pbdb1f47587)">
     <use style="fill:#66ccff;" x="209.407247" xlink:href="#C0_0_7b249af82e" y="198.727284"/>
    </g>
    <g clip-path="url(#pbdb1f47587)">
     <use style="fill:#66ccff;" x="247.798298" xlink:href="#C0_0_7b249af82e" y="303.791652"/>
    </g>
    <g clip-path="url(#pbdb1f47587)">
     <use style="fill:#66ccff;" x="199.99974" xlink:href="#C0_0_7b249af82e" y="204.134113"/>
    </g>
    <g clip-path="url(#pbdb1f47587)">
     <use style="fill:#66ccff;" x="232.288093" xlink:href="#C0_0_7b249af82e" y="196.512497"/>
    </g>
    <g clip-path="url(#pbdb1f47587)">
     <use style="fill:#66ccff;" x="225.925945" xlink:href="#C0_0_7b249af82e" y="216.828622"/>
    </g>
    <g clip-path="url(#pbdb1f47587)">
     <use style="fill:#66ccff;" x="240.491372" xlink:href="#C0_0_7b249af82e" y="205.367715"/>
    </g>
    <g clip-path="url(#pbdb1f47587)">
     <use style="fill:#66ccff;" x="238.796278" xlink:href="#C0_0_7b249af82e" y="231.329008"/>
    </g>
    <g clip-path="url(#pbdb1f47587)">
     <use style="fill:#66ccff;" x="213.51717" xlink:href="#C0_0_7b249af82e" y="221.893002"/>
    </g>
    <g clip-path="url(#pbdb1f47587)">
     <use style="fill:#66ccff;" x="194.940197" xlink:href="#C0_0_7b249af82e" y="80.14044"/>
    </g>
    <g clip-path="url(#pbdb1f47587)">
     <use style="fill:#66ccff;" x="228.592833" xlink:href="#C0_0_7b249af82e" y="213.537707"/>
    </g>
    <g clip-path="url(#pbdb1f47587)">
     <use style="fill:#66ccff;" x="190.55859" xlink:href="#C0_0_7b249af82e" y="94.820236"/>
    </g>
    <g clip-path="url(#pbdb1f47587)">
     <use style="fill:#66ccff;" x="241.324775" xlink:href="#C0_0_7b249af82e" y="205.596232"/>
    </g>
    <g clip-path="url(#pbdb1f47587)">
     <use style="fill:#66ccff;" x="227.980142" xlink:href="#C0_0_7b249af82e" y="213.389073"/>
    </g>
    <g clip-path="url(#pbdb1f47587)">
     <use style="fill:#66ccff;" x="228.214361" xlink:href="#C0_0_7b249af82e" y="214.429515"/>
    </g>
    <g clip-path="url(#pbdb1f47587)">
     <use style="fill:#66ccff;" x="184.176053" xlink:href="#C0_0_7b249af82e" y="82.32347"/>
    </g>
    <g clip-path="url(#pbdb1f47587)">
     <use style="fill:#66ccff;" x="299.363733" xlink:href="#C0_0_7b249af82e" y="271.031144"/>
    </g>
    <g clip-path="url(#pbdb1f47587)">
     <use style="fill:#66ccff;" x="233.41051" xlink:href="#C0_0_7b249af82e" y="197.625947"/>
    </g>
    <g clip-path="url(#pbdb1f47587)">
     <use style="fill:#66ccff;" x="204.069394" xlink:href="#C0_0_7b249af82e" y="193.239262"/>
    </g>
    <g clip-path="url(#pbdb1f47587)">
     <use style="fill:#66ccff;" x="213.431026" xlink:href="#C0_0_7b249af82e" y="222.005951"/>
    </g>
    <g clip-path="url(#pbdb1f47587)">
     <use style="fill:#66ccff;" x="228.470499" xlink:href="#C0_0_7b249af82e" y="216.92029"/>
    </g>
    <g clip-path="url(#pbdb1f47587)">
     <use style="fill:#66ccff;" x="213.821986" xlink:href="#C0_0_7b249af82e" y="228.545874"/>
    </g>
    <g clip-path="url(#pbdb1f47587)">
     <use style="fill:#66ccff;" x="207.341582" xlink:href="#C0_0_7b249af82e" y="198.427395"/>
    </g>
    <g clip-path="url(#pbdb1f47587)">
     <use style="fill:#66ccff;" x="232.288858" xlink:href="#C0_0_7b249af82e" y="197.567672"/>
    </g>
    <g clip-path="url(#pbdb1f47587)">
     <use style="fill:#66ccff;" x="228.09636" xlink:href="#C0_0_7b249af82e" y="217.138004"/>
    </g>
    <g clip-path="url(#pbdb1f47587)">
     <use style="fill:#66ccff;" x="227.431931" xlink:href="#C0_0_7b249af82e" y="229.218658"/>
    </g>
    <g clip-path="url(#pbdb1f47587)">
     <use style="fill:#66ccff;" x="43.053758" xlink:href="#C0_0_7b249af82e" y="423.692308"/>
    </g>
    <g clip-path="url(#pbdb1f47587)">
     <use style="fill:#66ccff;" x="230.906225" xlink:href="#C0_0_7b249af82e" y="210.900589"/>
    </g>
    <g clip-path="url(#pbdb1f47587)">
     <use style="fill:#66ccff;" x="227.655701" xlink:href="#C0_0_7b249af82e" y="210.924488"/>
    </g>
    <g clip-path="url(#pbdb1f47587)">
     <use style="fill:#66ccff;" x="232.877846" xlink:href="#C0_0_7b249af82e" y="222.842757"/>
    </g>
    <g clip-path="url(#pbdb1f47587)">
     <use style="fill:#66ccff;" x="214.869473" xlink:href="#C0_0_7b249af82e" y="206.690039"/>
    </g>
    <g clip-path="url(#pbdb1f47587)">
     <use style="fill:#66ccff;" x="215.38812" xlink:href="#C0_0_7b249af82e" y="206.758463"/>
    </g>
    <g clip-path="url(#pbdb1f47587)">
     <use style="fill:#66ccff;" x="215.130198" xlink:href="#C0_0_7b249af82e" y="205.744867"/>
    </g>
    <g clip-path="url(#pbdb1f47587)">
     <use style="fill:#66ccff;" x="220.293725" xlink:href="#C0_0_7b249af82e" y="211.874244"/>
    </g>
    <g clip-path="url(#pbdb1f47587)">
     <use style="fill:#66ccff;" x="220.425744" xlink:href="#C0_0_7b249af82e" y="214.17055"/>
    </g>
    <g clip-path="url(#pbdb1f47587)">
     <use style="fill:#66ccff;" x="232.149703" xlink:href="#C0_0_7b249af82e" y="196.731193"/>
    </g>
    <g clip-path="url(#pbdb1f47587)">
     <use style="fill:#66ccff;" x="208.393911" xlink:href="#C0_0_7b249af82e" y="197.745772"/>
    </g>
    <g clip-path="url(#pbdb1f47587)">
     <use style="fill:#66ccff;" x="230.692905" xlink:href="#C0_0_7b249af82e" y="218.882005"/>
    </g>
    <g clip-path="url(#pbdb1f47587)">
     <use style="fill:#66ccff;" x="208.6108" xlink:href="#C0_0_7b249af82e" y="198.62743"/>
    </g>
    <g clip-path="url(#pbdb1f47587)">
     <use style="fill:#66ccff;" x="209.777308" xlink:href="#C0_0_7b249af82e" y="198.352423"/>
    </g>
    <g clip-path="url(#pbdb1f47587)">
     <use style="fill:#66ccff;" x="209.703143" xlink:href="#C0_0_7b249af82e" y="197.604012"/>
    </g>
    <g clip-path="url(#pbdb1f47587)">
     <use style="fill:#66ccff;" x="221.379952" xlink:href="#C0_0_7b249af82e" y="220.717675"/>
    </g>
    <g clip-path="url(#pbdb1f47587)">
     <use style="fill:#66ccff;" x="209.871353" xlink:href="#C0_0_7b249af82e" y="198.80553"/>
    </g>
    <g clip-path="url(#pbdb1f47587)">
     <use style="fill:#66ccff;" x="209.73653" xlink:href="#C0_0_7b249af82e" y="198.430669"/>
    </g>
    <g clip-path="url(#pbdb1f47587)">
     <use style="fill:#66ccff;" x="210.372414" xlink:href="#C0_0_7b249af82e" y="198.082327"/>
    </g>
    <g clip-path="url(#pbdb1f47587)">
     <use style="fill:#66ccff;" x="286.68098" xlink:href="#C0_0_7b249af82e" y="8.307692"/>
    </g>
    <g clip-path="url(#pbdb1f47587)">
     <use style="fill:#66ccff;" x="209.816048" xlink:href="#C0_0_7b249af82e" y="197.274659"/>
    </g>
    <g clip-path="url(#pbdb1f47587)">
     <use style="fill:#66ccff;" x="224.048878" xlink:href="#C0_0_7b249af82e" y="218.761854"/>
    </g>
    <g clip-path="url(#pbdb1f47587)">
     <use style="fill:#66ccff;" x="59.563026" xlink:href="#C0_0_7b249af82e" y="355.768257"/>
    </g>
    <g clip-path="url(#pbdb1f47587)">
     <use style="fill:#66ccff;" x="270.110799" xlink:href="#C0_0_7b249af82e" y="285.301049"/>
    </g>
    <g clip-path="url(#pbdb1f47587)">
     <use style="fill:#66ccff;" x="216.130281" xlink:href="#C0_0_7b249af82e" y="213.087547"/>
    </g>
    <g clip-path="url(#pbdb1f47587)">
     <use style="fill:#66ccff;" x="240.83085" xlink:href="#C0_0_7b249af82e" y="205.649269"/>
    </g>
    <g clip-path="url(#pbdb1f47587)">
     <use style="fill:#66ccff;" x="241.54727" xlink:href="#C0_0_7b249af82e" y="204.786599"/>
    </g>
    <g clip-path="url(#pbdb1f47587)">
     <use style="fill:#66ccff;" x="214.498902" xlink:href="#C0_0_7b249af82e" y="197.848244"/>
    </g>
    <g clip-path="url(#pbdb1f47587)">
     <use style="fill:#66ccff;" x="229.603365" xlink:href="#C0_0_7b249af82e" y="207.996976"/>
    </g>
    <g clip-path="url(#pbdb1f47587)">
     <use style="fill:#66ccff;" x="240.475826" xlink:href="#C0_0_7b249af82e" y="204.816719"/>
    </g>
    <g clip-path="url(#pbdb1f47587)">
     <use style="fill:#66ccff;" x="209.326201" xlink:href="#C0_0_7b249af82e" y="197.325731"/>
    </g>
    <g clip-path="url(#pbdb1f47587)">
     <use style="fill:#66ccff;" x="236.258606" xlink:href="#C0_0_7b249af82e" y="205.77335"/>
    </g>
    <g clip-path="url(#pbdb1f47587)">
     <use style="fill:#66ccff;" x="226.415028" xlink:href="#C0_0_7b249af82e" y="201.473095"/>
    </g>
    <g clip-path="url(#pbdb1f47587)">
     <use style="fill:#66ccff;" x="222.216667" xlink:href="#C0_0_7b249af82e" y="214.937623"/>
    </g>
    <g clip-path="url(#pbdb1f47587)">
     <use style="fill:#66ccff;" x="208.511403" xlink:href="#C0_0_7b249af82e" y="197.555231"/>
    </g>
    <g clip-path="url(#pbdb1f47587)">
     <use style="fill:#66ccff;" x="222.046164" xlink:href="#C0_0_7b249af82e" y="214.680622"/>
    </g>
    <g clip-path="url(#pbdb1f47587)">
     <use style="fill:#66ccff;" x="218.756391" xlink:href="#C0_0_7b249af82e" y="217.891981"/>
    </g>
    <g clip-path="url(#pbdb1f47587)">
     <use style="fill:#66ccff;" x="229.528181" xlink:href="#C0_0_7b249af82e" y="210.883237"/>
    </g>
    <g clip-path="url(#pbdb1f47587)">
     <use style="fill:#66ccff;" x="219.793684" xlink:href="#C0_0_7b249af82e" y="210.983091"/>
    </g>
    <g clip-path="url(#pbdb1f47587)">
     <use style="fill:#66ccff;" x="199.678102" xlink:href="#C0_0_7b249af82e" y="203.0737"/>
    </g>
    <g clip-path="url(#pbdb1f47587)">
     <use style="fill:#66ccff;" x="219.868868" xlink:href="#C0_0_7b249af82e" y="221.064708"/>
    </g>
    <g clip-path="url(#pbdb1f47587)">
     <use style="fill:#66ccff;" x="220.051605" xlink:href="#C0_0_7b249af82e" y="222.411259"/>
    </g>
    <g clip-path="url(#pbdb1f47587)">
     <use style="fill:#66ccff;" x="220.147434" xlink:href="#C0_0_7b249af82e" y="222.413551"/>
    </g>
    <g clip-path="url(#pbdb1f47587)">
     <use style="fill:#66ccff;" x="223.36712" xlink:href="#C0_0_7b249af82e" y="217.321997"/>
    </g>
    <g clip-path="url(#pbdb1f47587)">
     <use style="fill:#66ccff;" x="220.351069" xlink:href="#C0_0_7b249af82e" y="208.13939"/>
    </g>
    <g clip-path="url(#pbdb1f47587)">
     <use style="fill:#66ccff;" x="220.229245" xlink:href="#C0_0_7b249af82e" y="222.805435"/>
    </g>
    <g clip-path="url(#pbdb1f47587)">
     <use style="fill:#66ccff;" x="200.672324" xlink:href="#C0_0_7b249af82e" y="204.285039"/>
    </g>
    <g clip-path="url(#pbdb1f47587)">
     <use style="fill:#66ccff;" x="230.961786" xlink:href="#C0_0_7b249af82e" y="208.756846"/>
    </g>
    <g clip-path="url(#pbdb1f47587)">
     <use style="fill:#66ccff;" x="241.217477" xlink:href="#C0_0_7b249af82e" y="206.38393"/>
    </g>
    <g clip-path="url(#pbdb1f47587)">
     <use style="fill:#66ccff;" x="239.888111" xlink:href="#C0_0_7b249af82e" y="205.046874"/>
    </g>
    <g clip-path="url(#pbdb1f47587)">
     <use style="fill:#66ccff;" x="240.529347" xlink:href="#C0_0_7b249af82e" y="204.726032"/>
    </g>
    <g clip-path="url(#pbdb1f47587)">
     <use style="fill:#66ccff;" x="241.294956" xlink:href="#C0_0_7b249af82e" y="204.541058"/>
    </g>
    <g clip-path="url(#pbdb1f47587)">
     <use style="fill:#66ccff;" x="242.273885" xlink:href="#C0_0_7b249af82e" y="205.039998"/>
    </g>
    <g clip-path="url(#pbdb1f47587)">
     <use style="fill:#66ccff;" x="240.708516" xlink:href="#C0_0_7b249af82e" y="203.638774"/>
    </g>
    <g clip-path="url(#pbdb1f47587)">
     <use style="fill:#66ccff;" x="219.193736" xlink:href="#C0_0_7b249af82e" y="217.438547"/>
    </g>
    <g clip-path="url(#pbdb1f47587)">
     <use style="fill:#66ccff;" x="220.073778" xlink:href="#C0_0_7b249af82e" y="219.20121"/>
    </g>
    <g clip-path="url(#pbdb1f47587)">
     <use style="fill:#66ccff;" x="217.10131" xlink:href="#C0_0_7b249af82e" y="219.958788"/>
    </g>
    <g clip-path="url(#pbdb1f47587)">
     <use style="fill:#66ccff;" x="232.950992" xlink:href="#C0_0_7b249af82e" y="196.251241"/>
    </g>
    <g clip-path="url(#pbdb1f47587)">
     <use style="fill:#66ccff;" x="216.970565" xlink:href="#C0_0_7b249af82e" y="219.701133"/>
    </g>
    <g clip-path="url(#pbdb1f47587)">
     <use style="fill:#66ccff;" x="201.417543" xlink:href="#C0_0_7b249af82e" y="203.448233"/>
    </g>
    <g clip-path="url(#pbdb1f47587)">
     <use style="fill:#66ccff;" x="235.390287" xlink:href="#C0_0_7b249af82e" y="215.809132"/>
    </g>
    <g clip-path="url(#pbdb1f47587)">
     <use style="fill:#66ccff;" x="240.349923" xlink:href="#C0_0_7b249af82e" y="269.191873"/>
    </g>
    <g clip-path="url(#pbdb1f47587)">
     <use style="fill:#66ccff;" x="216.459819" xlink:href="#C0_0_7b249af82e" y="214.408562"/>
    </g>
    <g clip-path="url(#pbdb1f47587)">
     <use style="fill:#66ccff;" x="216.655044" xlink:href="#C0_0_7b249af82e" y="214.413473"/>
    </g>
    <g clip-path="url(#pbdb1f47587)">
     <use style="fill:#66ccff;" x="216.215915" xlink:href="#C0_0_7b249af82e" y="213.0296"/>
    </g>
    <g clip-path="url(#pbdb1f47587)">
     <use style="fill:#66ccff;" x="223.686973" xlink:href="#C0_0_7b249af82e" y="209.851307"/>
    </g>
    <g clip-path="url(#pbdb1f47587)">
     <use style="fill:#66ccff;" x="202.032528" xlink:href="#C0_0_7b249af82e" y="204.719812"/>
    </g>
    <g clip-path="url(#pbdb1f47587)">
     <use style="fill:#66ccff;" x="222.275796" xlink:href="#C0_0_7b249af82e" y="209.104205"/>
    </g>
    <g clip-path="url(#pbdb1f47587)">
     <use style="fill:#66ccff;" x="202.141864" xlink:href="#C0_0_7b249af82e" y="202.443476"/>
    </g>
    <g clip-path="url(#pbdb1f47587)">
     <use style="fill:#66ccff;" x="221.611877" xlink:href="#C0_0_7b249af82e" y="211.139256"/>
    </g>
    <g clip-path="url(#pbdb1f47587)">
     <use style="fill:#66ccff;" x="200.910875" xlink:href="#C0_0_7b249af82e" y="202.5872"/>
    </g>
    <g clip-path="url(#pbdb1f47587)">
     <use style="fill:#66ccff;" x="237.895592" xlink:href="#C0_0_7b249af82e" y="218.094307"/>
    </g>
    <g clip-path="url(#pbdb1f47587)">
     <use style="fill:#66ccff;" x="201.393076" xlink:href="#C0_0_7b249af82e" y="203.611273"/>
    </g>
    <g clip-path="url(#pbdb1f47587)">
     <use style="fill:#66ccff;" x="223.717556" xlink:href="#C0_0_7b249af82e" y="209.737703"/>
    </g>
    <g clip-path="url(#pbdb1f47587)">
     <use style="fill:#66ccff;" x="198.710387" xlink:href="#C0_0_7b249af82e" y="203.87875"/>
    </g>
    <g clip-path="url(#pbdb1f47587)">
     <use style="fill:#66ccff;" x="240.005603" xlink:href="#C0_0_7b249af82e" y="218.472769"/>
    </g>
   </g>
   <g id="LineCollection_1">
    <path clip-path="url(#pbdb1f47587)" d="M 238.720074 230.853639 
L 238.681844 230.755095 
L 238.500382 230.56881 
L 238.253164 230.45226 
L 238.024552 230.433599 
" style="fill:none;stroke:#999999;"/>
    <path clip-path="url(#pbdb1f47587)" d="M 238.720074 230.853639 
L 238.565117 229.913378 
L 238.489932 228.806148 
" style="fill:none;stroke:#999999;"/>
    <path clip-path="url(#pbdb1f47587)" d="M 238.024552 230.433599 
L 237.993714 230.43098 
L 237.918019 230.45226 
" style="fill:none;stroke:#999999;"/>
    <path clip-path="url(#pbdb1f47587)" d="M 236.493844 228.997343 
L 235.976472 228.171341 
L 234.745738 226.118939 
L 232.877846 222.842757 
" style="fill:none;stroke:#999999;"/>
    <path clip-path="url(#pbdb1f47587)" d="M 236.493844 228.997343 
L 237.136354 230.282673 
L 237.365731 230.9476 
" style="fill:none;stroke:#999999;"/>
    <path clip-path="url(#pbdb1f47587)" d="M 237.365731 230.9476 
L 237.316797 231.248143 
L 237.38612 231.498923 
L 237.487046 231.656397 
L 237.685839 231.824347 
L 237.858636 231.915361 
" style="fill:none;stroke:#999999;"/>
    <path clip-path="url(#pbdb1f47587)" d="M 238.489932 228.806148 
L 238.544473 226.726573 
L 239.107721 223.072585 
L 239.559338 220.120845 
L 240.005603 218.472769 
" style="fill:none;stroke:#999999;"/>
    <path clip-path="url(#pbdb1f47587)" d="M 238.489932 228.806148 
L 238.442018 229.441938 
L 238.30847 230.06856 
L 238.024552 230.433599 
" style="fill:none;stroke:#999999;"/>
    <path clip-path="url(#pbdb1f47587)" d="M 239.412537 232.780323 
L 240.428421 233.877076 
L 246.177369 238.920831 
L 262.843377 253.48604 
L 266.966808 257.468073 
L 270.318003 261.743118 
L 271.991434 263.061187 
L 274.113934 264.166124 
L 276.416368 264.902422 
L 290.650728 268.247356 
L 294.242004 269.152914 
L 296.868878 269.921296 
L 299.363733 271.031144 
" style="fill:none;stroke:#999999;"/>
    <path clip-path="url(#pbdb1f47587)" d="M 239.412537 232.780323 
L 239.180356 232.394986 
L 238.811315 231.5883 
L 238.796278 231.329008 
" style="fill:none;stroke:#999999;"/>
    <path clip-path="url(#pbdb1f47587)" d="M 237.918019 230.45226 
L 237.732734 230.504315 
L 237.606832 230.596311 
L 237.522727 230.657533 
L 237.37771 230.87361 
L 237.365731 230.9476 
" style="fill:none;stroke:#999999;"/>
    <path clip-path="url(#pbdb1f47587)" d="M 237.918019 230.45226 
L 237.300486 229.968052 
L 236.493844 228.997343 
" style="fill:none;stroke:#999999;"/>
    <path clip-path="url(#pbdb1f47587)" d="M 237.858636 231.915361 
L 238.023278 231.925183 
L 238.281454 231.893426 
L 238.482286 231.797501 
L 238.669101 231.616783 
L 238.796278 231.329008 
" style="fill:none;stroke:#999999;"/>
    <path clip-path="url(#pbdb1f47587)" d="M 237.858636 231.915361 
L 238.432078 232.185457 
L 239.412537 232.780323 
" style="fill:none;stroke:#999999;"/>
    <path clip-path="url(#pbdb1f47587)" d="M 234.796201 203.385374 
L 235.749389 204.973866 
" style="fill:none;stroke:#999999;"/>
    <path clip-path="url(#pbdb1f47587)" d="M 234.796201 203.385374 
L 233.052428 204.543677 
L 232.720596 204.770557 
" style="fill:none;stroke:#999999;"/>
    <path clip-path="url(#pbdb1f47587)" d="M 234.796201 203.385374 
L 234.752365 203.312694 
L 234.110365 201.945845 
L 233.940881 200.95713 
L 233.76579 199.180063 
L 233.394454 198.040422 
" style="fill:none;stroke:#999999;"/>
    <path clip-path="url(#pbdb1f47587)" d="M 80.280339 387.891338 
L 74.444483 381.660471 
L 72.605391 380.49955 
L 71.709292 379.384463 
L 68.457494 374.178323 
L 66.629616 369.973666 
L 62.926455 361.374466 
L 59.563026 355.768257 
" style="fill:none;stroke:#999999;"/>
    <path clip-path="url(#pbdb1f47587)" d="M 80.280339 387.891338 
L 79.981639 391.646163 
L 80.336919 393.726065 
L 80.785478 394.57564 
L 80.829059 395.162648 
L 80.077213 396.010913 
L 78.628061 397.338148 
L 74.717697 398.884406 
L 73.293267 399.72023 
L 72.172124 400.705344 
L 62.683825 406.493254 
L 59.293126 408.532233 
L 53.742462 411.870946 
L 51.841948 412.609863 
L 50.463903 413.497742 
L 50.203943 413.922038 
L 50.040066 414.469432 
L 49.541044 415.042036 
L 49.686825 415.454873 
L 49.834901 415.837263 
L 49.588703 416.213761 
L 48.27157 417.676207 
L 46.362136 420.599791 
L 45.131657 421.886103 
L 44.202171 422.323822 
L 43.532136 422.857466 
L 43.053758 423.692308 
" style="fill:none;stroke:#999999;"/>
    <path clip-path="url(#pbdb1f47587)" d="M 213.417009 221.78791 
L 213.378779 221.790857 
L 213.343863 221.806899 
L 213.324748 221.823596 
L 213.304359 221.856007 
L 213.296203 221.893657 
L 213.301301 221.931634 
L 213.327297 221.974849 
L 213.35839 221.997439 
L 213.395345 222.007916 
L 213.431026 222.005951 
" style="fill:none;stroke:#999999;"/>
    <path clip-path="url(#pbdb1f47587)" d="M 213.417009 221.78791 
L 213.693025 221.305339 
L 214.553443 220.802797 
L 216.276318 220.269807 
L 217.10131 219.958788 
" style="fill:none;stroke:#999999;"/>
    <path clip-path="url(#pbdb1f47587)" d="M 208.251443 216.298906 
L 208.928104 216.326407 
L 210.26792 216.176135 
L 210.937955 215.991488 
L 212.024946 215.51972 
L 213.180241 214.986404 
L 214.297815 214.475022 
" style="fill:none;stroke:#999999;"/>
    <path clip-path="url(#pbdb1f47587)" d="M 228.734537 216.80505 
L 228.470499 216.92029 
" style="fill:none;stroke:#999999;"/>
    <path clip-path="url(#pbdb1f47587)" d="M 228.734537 216.80505 
L 229.471856 217.346551 
L 230.156673 217.955494 
L 230.692905 218.882005 
" style="fill:none;stroke:#999999;"/>
    <path clip-path="url(#pbdb1f47587)" d="M 228.734537 216.80505 
L 228.608889 216.150926 
L 228.203147 215.13111 
L 228.137392 214.886223 
L 228.153449 214.593537 
L 228.214361 214.429515 
" style="fill:none;stroke:#999999;"/>
    <path clip-path="url(#pbdb1f47587)" d="M 219.584696 208.170165 
L 220.351069 208.13939 
" style="fill:none;stroke:#999999;"/>
    <path clip-path="url(#pbdb1f47587)" d="M 219.584696 208.170165 
L 220.4706 209.129414 
L 220.651553 209.341563 
L 220.764712 209.525883 
L 221.006068 210.020895 
" style="fill:none;stroke:#999999;"/>
    <path clip-path="url(#pbdb1f47587)" d="M 219.584696 208.170165 
L 217.971412 207.185706 
L 215.450816 205.794957 
L 215.130198 205.744867 
" style="fill:none;stroke:#999999;"/>
    <path clip-path="url(#pbdb1f47587)" d="M 226.479508 212.163656 
L 226.426751 211.606767 
L 226.342137 210.648827 
" style="fill:none;stroke:#999999;"/>
    <path clip-path="url(#pbdb1f47587)" d="M 232.743534 197.819761 
L 232.98234 197.824345 
L 233.211462 197.757885 
L 233.41051 197.625947 
" style="fill:none;stroke:#999999;"/>
    <path clip-path="url(#pbdb1f47587)" d="M 232.743534 197.819761 
L 233.134748 197.862649 
L 233.394454 198.040422 
" style="fill:none;stroke:#999999;"/>
    <path clip-path="url(#pbdb1f47587)" d="M 227.903938 210.32864 
L 228.52351 210.646862 
" style="fill:none;stroke:#999999;"/>
    <path clip-path="url(#pbdb1f47587)" d="M 227.903938 210.32864 
L 227.655701 210.924488 
" style="fill:none;stroke:#999999;"/>
    <path clip-path="url(#pbdb1f47587)" d="M 227.903938 210.32864 
L 228.697327 209.052478 
L 229.266691 208.329603 
L 229.603365 207.996976 
" style="fill:none;stroke:#999999;"/>
    <path clip-path="url(#pbdb1f47587)" d="M 226.91303 212.818434 
L 227.980142 213.389073 
" style="fill:none;stroke:#999999;"/>
    <path clip-path="url(#pbdb1f47587)" d="M 226.91303 212.818434 
L 226.943359 212.750009 
L 227.450282 211.610696 
" style="fill:none;stroke:#999999;"/>
    <path clip-path="url(#pbdb1f47587)" d="M 226.91303 212.818434 
L 226.91303 213.433598 
L 226.748898 214.513654 
L 226.489193 215.415938 
L 226.054396 216.415784 
L 225.925945 216.828622 
" style="fill:none;stroke:#999999;"/>
    <path clip-path="url(#pbdb1f47587)" d="M 226.342137 210.648827 
L 227.655701 210.924488 
" style="fill:none;stroke:#999999;"/>
    <path clip-path="url(#pbdb1f47587)" d="M 226.342137 210.648827 
L 226.426751 211.606767 
L 226.479508 212.163656 
" style="fill:none;stroke:#999999;"/>
    <path clip-path="url(#pbdb1f47587)" d="M 226.342137 210.648827 
L 225.317842 210.419 
L 224.722991 210.253668 
L 224.034096 209.996341 
L 223.686973 209.851307 
" style="fill:none;stroke:#999999;"/>
    <path clip-path="url(#pbdb1f47587)" d="M 234.808689 217.955167 
L 235.390287 215.809132 
" style="fill:none;stroke:#999999;"/>
    <path clip-path="url(#pbdb1f47587)" d="M 234.808689 217.955167 
L 236.25096 217.795074 
L 237.895592 218.094307 
" style="fill:none;stroke:#999999;"/>
    <path clip-path="url(#pbdb1f47587)" d="M 234.808689 217.955167 
L 234.405241 218.000019 
L 231.698085 218.547086 
L 230.692905 218.882005 
" style="fill:none;stroke:#999999;"/>
    <path clip-path="url(#pbdb1f47587)" d="M 224.656982 206.250683 
L 225.778889 206.03035 
L 226.612801 205.907252 
L 228.615771 205.845703 
L 229.627577 205.722605 
L 230.837412 205.45611 
L 231.605825 205.407656 
L 231.807421 205.394888 
" style="fill:none;stroke:#999999;"/>
    <path clip-path="url(#pbdb1f47587)" d="M 224.656982 206.250683 
L 224.554527 206.622924 
L 224.336364 207.415206 
" style="fill:none;stroke:#999999;"/>
    <path clip-path="url(#pbdb1f47587)" d="M 224.656982 206.250683 
L 224.722736 206.012344 
L 225.235266 204.214651 
L 225.932572 202.772175 
L 226.415028 201.473095 
" style="fill:none;stroke:#999999;"/>
    <path clip-path="url(#pbdb1f47587)" d="M 232.249609 205.157531 
L 232.720596 204.770557 
" style="fill:none;stroke:#999999;"/>
    <path clip-path="url(#pbdb1f47587)" d="M 232.249609 205.157531 
L 231.807421 205.394888 
" style="fill:none;stroke:#999999;"/>
    <path clip-path="url(#pbdb1f47587)" d="M 232.249609 205.157531 
L 232.560032 205.544832 
L 232.095162 206.720814 
L 231.582632 207.704945 
L 230.817023 208.450082 
L 229.668355 209.256769 
L 228.834443 210.145303 
L 228.648648 210.434714 
" style="fill:none;stroke:#999999;"/>
    <path clip-path="url(#pbdb1f47587)" d="M 232.720596 204.770557 
L 232.249609 205.157531 
" style="fill:none;stroke:#999999;"/>
    <path clip-path="url(#pbdb1f47587)" d="M 232.720596 204.770557 
L 233.052428 204.543677 
L 234.796201 203.385374 
" style="fill:none;stroke:#999999;"/>
    <path clip-path="url(#pbdb1f47587)" d="M 232.720596 204.770557 
L 233.14163 205.313368 
L 232.89008 205.810345 
L 232.886002 205.818202 
L 232.446873 206.654681 
L 232.075537 207.457439 
L 231.518661 208.176058 
L 230.961786 208.756846 
" style="fill:none;stroke:#999999;"/>
    <path clip-path="url(#pbdb1f47587)" d="M 227.450282 211.610696 
L 228.601243 210.8027 
" style="fill:none;stroke:#999999;"/>
    <path clip-path="url(#pbdb1f47587)" d="M 227.450282 211.610696 
L 227.655701 210.924488 
" style="fill:none;stroke:#999999;"/>
    <path clip-path="url(#pbdb1f47587)" d="M 227.450282 211.610696 
L 226.943359 212.750009 
L 226.91303 212.818434 
" style="fill:none;stroke:#999999;"/>
    <path clip-path="url(#pbdb1f47587)" d="M 228.648648 210.434714 
L 228.834443 210.145303 
L 229.668355 209.256769 
L 230.817023 208.450082 
L 231.582632 207.704945 
L 232.095162 206.720814 
L 232.560032 205.544832 
L 232.249609 205.157531 
" style="fill:none;stroke:#999999;"/>
    <path clip-path="url(#pbdb1f47587)" d="M 228.648648 210.434714 
L 228.594872 210.471055 
L 228.553839 210.5218 
L 228.529372 210.582039 
L 228.52351 210.646862 
" style="fill:none;stroke:#999999;"/>
    <path clip-path="url(#pbdb1f47587)" d="M 228.648648 210.434714 
L 228.703698 210.416381 
L 228.761552 210.413107 
L 228.818132 210.42522 
" style="fill:none;stroke:#999999;"/>
    <path clip-path="url(#pbdb1f47587)" d="M 228.818132 210.42522 
L 229.651279 209.847051 
L 230.961786 208.756846 
" style="fill:none;stroke:#999999;"/>
    <path clip-path="url(#pbdb1f47587)" d="M 228.818132 210.42522 
L 228.761552 210.413107 
L 228.703698 210.416381 
L 228.648648 210.434714 
" style="fill:none;stroke:#999999;"/>
    <path clip-path="url(#pbdb1f47587)" d="M 228.818132 210.42522 
L 228.879554 210.458286 
L 228.927468 210.508704 
L 228.957287 210.571563 
L 228.966462 210.640642 
L 228.953464 210.709066 
L 228.919822 210.769961 
" style="fill:none;stroke:#999999;"/>
    <path clip-path="url(#pbdb1f47587)" d="M 228.601243 210.8027 
L 227.450282 211.610696 
" style="fill:none;stroke:#999999;"/>
    <path clip-path="url(#pbdb1f47587)" d="M 228.601243 210.8027 
L 228.662156 210.839695 
L 228.731733 210.855409 
L 228.80284 210.848207 
L 228.867575 210.818742 
L 228.919822 210.769961 
" style="fill:none;stroke:#999999;"/>
    <path clip-path="url(#pbdb1f47587)" d="M 228.601243 210.8027 
L 228.57015 210.770616 
L 228.546448 210.732966 
L 228.530646 210.69106 
L 228.52351 210.646862 
" style="fill:none;stroke:#999999;"/>
    <path clip-path="url(#pbdb1f47587)" d="M 228.52351 210.646862 
L 227.903938 210.32864 
" style="fill:none;stroke:#999999;"/>
    <path clip-path="url(#pbdb1f47587)" d="M 228.52351 210.646862 
L 228.530646 210.69106 
L 228.546448 210.732966 
L 228.57015 210.770616 
L 228.601243 210.8027 
" style="fill:none;stroke:#999999;"/>
    <path clip-path="url(#pbdb1f47587)" d="M 228.52351 210.646862 
L 228.529372 210.582039 
L 228.553839 210.5218 
L 228.594872 210.471055 
L 228.648648 210.434714 
" style="fill:none;stroke:#999999;"/>
    <path clip-path="url(#pbdb1f47587)" d="M 228.919822 210.769961 
L 229.182586 210.877017 
L 229.528181 210.883237 
" style="fill:none;stroke:#999999;"/>
    <path clip-path="url(#pbdb1f47587)" d="M 228.919822 210.769961 
L 228.953464 210.709066 
L 228.966462 210.640642 
L 228.957287 210.571563 
L 228.927468 210.508704 
L 228.879554 210.458286 
L 228.818132 210.42522 
" style="fill:none;stroke:#999999;"/>
    <path clip-path="url(#pbdb1f47587)" d="M 228.919822 210.769961 
L 228.867575 210.818742 
L 228.80284 210.848207 
L 228.731733 210.855409 
L 228.662156 210.839695 
L 228.601243 210.8027 
" style="fill:none;stroke:#999999;"/>
    <path clip-path="url(#pbdb1f47587)" d="M 235.749389 204.973866 
L 239.888111 205.046874 
" style="fill:none;stroke:#999999;"/>
    <path clip-path="url(#pbdb1f47587)" d="M 235.749389 204.973866 
L 236.258606 205.77335 
" style="fill:none;stroke:#999999;"/>
    <path clip-path="url(#pbdb1f47587)" d="M 235.749389 204.973866 
L 234.796201 203.385374 
" style="fill:none;stroke:#999999;"/>
    <path clip-path="url(#pbdb1f47587)" d="M 216.30002 224.904326 
L 216.103011 224.041001 
L 216.024768 223.69888 
L 216.10505 223.360032 
L 216.817392 223.083061 
L 218.129428 223.124312 
L 218.826223 223.15836 
L 219.385648 223.119729 
L 219.873711 222.988773 
L 220.229245 222.805435 
" style="fill:none;stroke:#999999;"/>
    <path clip-path="url(#pbdb1f47587)" d="M 214.297815 214.475022 
L 216.459819 214.408562 
" style="fill:none;stroke:#999999;"/>
    <path clip-path="url(#pbdb1f47587)" d="M 214.297815 214.475022 
L 216.130281 213.087547 
" style="fill:none;stroke:#999999;"/>
    <path clip-path="url(#pbdb1f47587)" d="M 214.297815 214.475022 
L 213.180241 214.986404 
L 212.024946 215.51972 
L 210.937955 215.991488 
L 210.26792 216.176135 
L 208.928104 216.326407 
L 208.251443 216.298906 
" style="fill:none;stroke:#999999;"/>
    <path clip-path="url(#pbdb1f47587)" d="M 214.297815 214.475022 
L 214.441303 214.85774 
L 214.753766 215.422158 
L 215.614693 217.1511 
L 216.004124 217.933232 
L 216.200878 218.293033 
L 216.970565 219.701133 
" style="fill:none;stroke:#999999;"/>
    <path clip-path="url(#pbdb1f47587)" d="M 238.931355 209.953453 
L 239.34194 210.546681 
L 239.406675 211.04464 
L 239.363603 212.012729 
L 238.552629 215.437873 
" style="fill:none;stroke:#999999;"/>
    <path clip-path="url(#pbdb1f47587)" d="M 238.931355 209.953453 
L 238.480757 209.302276 
L 236.973752 206.896294 
L 236.258606 205.77335 
" style="fill:none;stroke:#999999;"/>
    <path clip-path="url(#pbdb1f47587)" d="M 238.931355 209.953453 
L 236.729338 210.179678 
L 233.824408 210.798771 
L 232.653822 210.876035 
L 231.590023 210.907791 
L 230.906225 210.900589 
" style="fill:none;stroke:#999999;"/>
    <path clip-path="url(#pbdb1f47587)" d="M 224.252259 207.754053 
L 223.717556 209.737703 
" style="fill:none;stroke:#999999;"/>
    <path clip-path="url(#pbdb1f47587)" d="M 224.252259 207.754053 
L 224.336364 207.415206 
" style="fill:none;stroke:#999999;"/>
    <path clip-path="url(#pbdb1f47587)" d="M 224.252259 207.754053 
L 222.412147 207.735065 
L 221.18855 207.967183 
L 220.351069 208.13939 
" style="fill:none;stroke:#999999;"/>
    <path clip-path="url(#pbdb1f47587)" d="M 221.006068 210.020895 
L 220.388534 210.462542 
L 219.793684 210.983091 
" style="fill:none;stroke:#999999;"/>
    <path clip-path="url(#pbdb1f47587)" d="M 221.006068 210.020895 
L 221.37307 210.824635 
L 221.611877 211.139256 
" style="fill:none;stroke:#999999;"/>
    <path clip-path="url(#pbdb1f47587)" d="M 221.006068 210.020895 
L 220.764712 209.525883 
L 220.651553 209.341563 
L 220.4706 209.129414 
L 219.584696 208.170165 
" style="fill:none;stroke:#999999;"/>
    <path clip-path="url(#pbdb1f47587)" d="M 223.197636 211.805165 
L 222.268659 211.583522 
L 221.783145 211.268902 
L 221.611877 211.139256 
" style="fill:none;stroke:#999999;"/>
    <path clip-path="url(#pbdb1f47587)" d="M 223.197636 211.805165 
L 222.653758 213.285618 
L 222.186339 214.475022 
L 222.046164 214.680622 
" style="fill:none;stroke:#999999;"/>
    <path clip-path="url(#pbdb1f47587)" d="M 223.197636 211.805165 
L 223.224651 211.721681 
L 223.686973 209.851307 
" style="fill:none;stroke:#999999;"/>
    <path clip-path="url(#pbdb1f47587)" d="M 218.761743 214.529696 
L 219.260765 214.529696 
" style="fill:none;stroke:#999999;"/>
    <path clip-path="url(#pbdb1f47587)" d="M 218.761743 214.529696 
L 219.315306 215.23391 
" style="fill:none;stroke:#999999;"/>
    <path clip-path="url(#pbdb1f47587)" d="M 218.761743 214.529696 
L 217.981862 214.518565 
L 217.784088 214.515946 
L 217.4729 214.48779 
L 216.655044 214.413473 
" style="fill:none;stroke:#999999;"/>
    <path clip-path="url(#pbdb1f47587)" d="M 218.194418 211.870643 
L 216.215915 213.0296 
" style="fill:none;stroke:#999999;"/>
    <path clip-path="url(#pbdb1f47587)" d="M 218.194418 211.870643 
L 219.793684 210.983091 
" style="fill:none;stroke:#999999;"/>
    <path clip-path="url(#pbdb1f47587)" d="M 218.194418 211.870643 
L 218.795895 212.820725 
L 219.164936 213.401841 
L 219.69811 214.433771 
L 219.260765 214.529696 
" style="fill:none;stroke:#999999;"/>
    <path clip-path="url(#pbdb1f47587)" d="M 219.260765 214.529696 
L 218.761743 214.529696 
" style="fill:none;stroke:#999999;"/>
    <path clip-path="url(#pbdb1f47587)" d="M 219.260765 214.529696 
L 219.69811 214.433771 
L 219.164936 213.401841 
L 218.795895 212.820725 
L 218.194418 211.870643 
" style="fill:none;stroke:#999999;"/>
    <path clip-path="url(#pbdb1f47587)" d="M 219.260765 214.529696 
L 219.307405 215.132092 
L 219.315306 215.23391 
" style="fill:none;stroke:#999999;"/>
    <path clip-path="url(#pbdb1f47587)" d="M 219.315306 215.23391 
L 218.761743 214.529696 
" style="fill:none;stroke:#999999;"/>
    <path clip-path="url(#pbdb1f47587)" d="M 219.315306 215.23391 
L 220.186428 216.375843 
" style="fill:none;stroke:#999999;"/>
    <path clip-path="url(#pbdb1f47587)" d="M 219.315306 215.23391 
L 219.307405 215.132092 
L 219.260765 214.529696 
" style="fill:none;stroke:#999999;"/>
    <path clip-path="url(#pbdb1f47587)" d="M 220.186428 216.375843 
L 219.315306 215.23391 
" style="fill:none;stroke:#999999;"/>
    <path clip-path="url(#pbdb1f47587)" d="M 220.186428 216.375843 
L 219.9675 216.578169 
L 219.193736 217.438547 
" style="fill:none;stroke:#999999;"/>
    <path clip-path="url(#pbdb1f47587)" d="M 220.186428 216.375843 
L 220.897241 215.785233 
L 222.216667 214.937623 
" style="fill:none;stroke:#999999;"/>
    <path clip-path="url(#pbdb1f47587)" d="M 223.839381 217.090533 
L 223.36712 217.321997 
" style="fill:none;stroke:#999999;"/>
    <path clip-path="url(#pbdb1f47587)" d="M 223.839381 217.090533 
L 224.107497 216.676058 
L 224.777277 215.44573 
L 224.961798 214.789643 
L 224.987794 213.557351 
" style="fill:none;stroke:#999999;"/>
    <path clip-path="url(#pbdb1f47587)" d="M 223.839381 217.090533 
L 224.438309 216.879039 
L 225.925945 216.828622 
" style="fill:none;stroke:#999999;"/>
    <path clip-path="url(#pbdb1f47587)" d="M 234.159808 197.38237 
L 234.842331 197.548356 
L 236.306265 198.156972 
L 237.387394 198.815679 
L 237.92643 199.144377 
L 239.190551 200.531525 
L 240.270406 202.189422 
L 240.708516 203.638774 
" style="fill:none;stroke:#999999;"/>
    <path clip-path="url(#pbdb1f47587)" d="M 234.159808 197.38237 
L 233.805548 197.131262 
L 233.548901 196.617916 
" style="fill:none;stroke:#999999;"/>
    <path clip-path="url(#pbdb1f47587)" d="M 233.49589 197.535588 
L 233.617714 197.323767 
L 233.669196 197.085101 
L 233.645494 196.842178 
L 233.548901 196.617916 
" style="fill:none;stroke:#999999;"/>
    <path clip-path="url(#pbdb1f47587)" d="M 233.49589 197.535588 
L 233.814468 197.379096 
L 234.159808 197.38237 
" style="fill:none;stroke:#999999;"/>
    <path clip-path="url(#pbdb1f47587)" d="M 224.987794 213.557351 
L 224.961798 214.789643 
L 224.777277 215.44573 
L 224.107497 216.676058 
L 223.839381 217.090533 
" style="fill:none;stroke:#999999;"/>
    <path clip-path="url(#pbdb1f47587)" d="M 209.772721 197.722854 
L 209.703143 197.604012 
" style="fill:none;stroke:#999999;"/>
    <path clip-path="url(#pbdb1f47587)" d="M 231.807421 205.394888 
L 232.249609 205.157531 
" style="fill:none;stroke:#999999;"/>
    <path clip-path="url(#pbdb1f47587)" d="M 231.807421 205.394888 
L 231.246977 206.42027 
L 230.617975 207.199456 
L 229.603365 207.996976 
" style="fill:none;stroke:#999999;"/>
    <path clip-path="url(#pbdb1f47587)" d="M 231.807421 205.394888 
L 231.605825 205.407656 
L 230.837412 205.45611 
L 229.627577 205.722605 
L 228.615771 205.845703 
L 226.612801 205.907252 
L 225.778889 206.03035 
L 224.656982 206.250683 
" style="fill:none;stroke:#999999;"/>
    <path clip-path="url(#pbdb1f47587)" d="M 233.548901 196.617916 
L 233.390631 196.435888 
L 233.184957 196.309516 
L 232.950992 196.251241 
" style="fill:none;stroke:#999999;"/>
    <path clip-path="url(#pbdb1f47587)" d="M 231.411874 197.165638 
L 229.28759 197.29954 
L 227.431422 197.607286 
L 225.111912 197.869525 
L 220.574584 198.401204 
L 218.320065 198.65002 
L 214.537897 198.497129 
L 210.372414 198.082327 
" style="fill:none;stroke:#999999;"/>
    <path clip-path="url(#pbdb1f47587)" d="M 231.411874 197.165638 
L 231.936892 197.268438 
L 232.288858 197.567672 
" style="fill:none;stroke:#999999;"/>
    <path clip-path="url(#pbdb1f47587)" d="M 241.484064 205.460039 
L 241.561543 205.339559 
L 241.608183 205.20402 
L 241.621435 205.061279 
L 241.600792 204.919519 
L 241.54727 204.786599 
" style="fill:none;stroke:#999999;"/>
    <path clip-path="url(#pbdb1f47587)" d="M 241.484064 205.460039 
L 241.877063 205.251164 
L 242.273885 205.039998 
" style="fill:none;stroke:#999999;"/>
    <path clip-path="url(#pbdb1f47587)" d="M 219.50314 219.248681 
L 220.073778 219.20121 
" style="fill:none;stroke:#999999;"/>
    <path clip-path="url(#pbdb1f47587)" d="M 219.50314 219.248681 
L 218.805579 219.403209 
L 217.862076 219.695567 
L 217.10131 219.958788 
" style="fill:none;stroke:#999999;"/>
    <path clip-path="url(#pbdb1f47587)" d="M 219.50314 219.248681 
L 219.844402 220.94652 
L 219.868868 221.064708 
" style="fill:none;stroke:#999999;"/>
    <path clip-path="url(#pbdb1f47587)" d="M 233.394454 198.040422 
L 233.76579 199.180063 
L 233.940881 200.95713 
L 234.110365 201.945845 
L 234.752365 203.312694 
L 234.796201 203.385374 
" style="fill:none;stroke:#999999;"/>
    <path clip-path="url(#pbdb1f47587)" d="M 233.394454 198.040422 
L 233.372536 197.799791 
L 233.41051 197.625947 
" style="fill:none;stroke:#999999;"/>
    <path clip-path="url(#pbdb1f47587)" d="M 224.336364 207.415206 
L 224.252259 207.754053 
" style="fill:none;stroke:#999999;"/>
    <path clip-path="url(#pbdb1f47587)" d="M 224.336364 207.415206 
L 225.105541 207.462022 
L 226.811085 207.565805 
L 227.978103 207.71313 
L 228.810996 207.844085 
L 229.603365 207.996976 
" style="fill:none;stroke:#999999;"/>
    <path clip-path="url(#pbdb1f47587)" d="M 224.336364 207.415206 
L 224.554527 206.622924 
L 224.656982 206.250683 
" style="fill:none;stroke:#999999;"/>
    <path clip-path="url(#pbdb1f47587)" d="M 238.552629 215.437873 
L 236.060067 215.90473 
L 235.390287 215.809132 
" style="fill:none;stroke:#999999;"/>
    <path clip-path="url(#pbdb1f47587)" d="M 238.552629 215.437873 
L 237.942486 218.014097 
L 237.895592 218.094307 
" style="fill:none;stroke:#999999;"/>
    <path clip-path="url(#pbdb1f47587)" d="M 238.552629 215.437873 
L 239.363603 212.012729 
L 239.406675 211.04464 
L 239.34194 210.546681 
L 238.931355 209.953453 
" style="fill:none;stroke:#999999;"/>
    <path clip-path="url(#pbdb1f47587)" d="M 232.2937 195.873761 
L 230.730115 192.139562 
L 228.783216 186.772347 
L 228.238828 185.244423 
L 227.739551 183.84287 
L 224.205619 173.923966 
L 223.255489 171.487537 
L 222.387681 170.131819 
L 220.787905 168.233945 
L 217.6694 164.085926 
L 216.801591 162.188052 
L 216.584702 160.181812 
L 216.747305 157.904495 
L 218.428637 152.102834 
L 224.85552 136.433997 
L 228.082342 128.789463 
L 231.282148 121.010046 
L 234.807415 108.649802 
L 237.275255 100.003458 
L 241.424171 90.707248 
L 242.481598 89.162299 
L 247.986387 81.92602 
L 253.762605 74.473009 
L 257.233585 70.326628 
L 262.006152 65.367339 
L 263.74177 63.524794 
L 264.555293 62.603194 
L 265.124657 61.709094 
L 266.046752 59.541124 
L 268.026274 54.90726 
L 271.120312 47.177606 
L 286.68098 8.307692 
" style="fill:none;stroke:#999999;"/>
    <path clip-path="url(#pbdb1f47587)" d="M 232.2937 195.873761 
L 232.30313 196.226687 
L 232.288093 196.512497 
" style="fill:none;stroke:#999999;"/>
    <path clip-path="url(#pbdb1f47587)" d="M 232.206792 196.620863 
L 232.149703 196.731193 
" style="fill:none;stroke:#999999;"/>
    <path clip-path="url(#pbdb1f47587)" d="M 232.206792 196.620863 
L 231.970789 196.526248 
L 231.066534 196.730211 
L 230.355721 196.853309 
L 227.470925 197.099506 
L 224.941664 197.386626 
L 221.591998 197.796517 
L 219.377237 198.056464 
L 217.586059 198.27516 
L 216.218974 198.261409 
L 214.824363 198.165812 
L 214.498902 197.848244 
" style="fill:none;stroke:#999999;"/>
    <path clip-path="url(#pbdb1f47587)" d="M 209.407247 198.727284 
L 209.594062 198.603531 
L 209.73653 198.430669 
" style="fill:none;stroke:#999999;"/>
    <path clip-path="url(#pbdb1f47587)" d="M 209.407247 198.727284 
L 209.604766 198.723682 
L 209.871353 198.80553 
" style="fill:none;stroke:#999999;"/>
    <path clip-path="url(#pbdb1f47587)" d="M 247.798298 303.791652 
L 247.142025 303.244585 
L 246.896083 302.615343 
L 246.841287 301.452785 
L 246.677155 300.700773 
L 246.600186 297.348964 
L 246.540548 294.751132 
L 246.485753 292.590365 
L 246.185014 290.238075 
L 245.132175 288.487526 
L 244.557968 287.53024 
L 243.915458 285.601919 
L 243.819885 283.563923 
L 243.163612 281.102285 
L 243.081546 278.914344 
L 242.780808 277.574014 
L 241.755239 275.358572 
L 241.468263 274.045742 
L 241.030663 272.787586 
L 240.907564 271.775627 
L 240.497489 270.599646 
L 240.349923 269.191873 
" style="fill:none;stroke:#999999;"/>
    <path clip-path="url(#pbdb1f47587)" d="M 199.99974 204.134113 
L 200.207963 204.243134 
L 200.43734 204.294534 
L 200.672324 204.285039 
" style="fill:none;stroke:#999999;"/>
    <path clip-path="url(#pbdb1f47587)" d="M 232.288093 196.512497 
L 232.206792 196.620863 
" style="fill:none;stroke:#999999;"/>
    <path clip-path="url(#pbdb1f47587)" d="M 225.925945 216.828622 
L 226.054396 216.415784 
L 226.489193 215.415938 
L 226.748898 214.513654 
L 226.91303 213.433598 
L 226.91303 212.818434 
" style="fill:none;stroke:#999999;"/>
    <path clip-path="url(#pbdb1f47587)" d="M 225.925945 216.828622 
L 226.218018 216.846301 
L 227.597338 216.930112 
L 228.470499 216.92029 
" style="fill:none;stroke:#999999;"/>
    <path clip-path="url(#pbdb1f47587)" d="M 225.925945 216.828622 
L 224.438309 216.879039 
L 223.839381 217.090533 
" style="fill:none;stroke:#999999;"/>
    <path clip-path="url(#pbdb1f47587)" d="M 225.925945 216.828622 
L 225.776341 217.207083 
L 224.747713 218.133922 
L 224.048878 218.761854 
" style="fill:none;stroke:#999999;"/>
    <path clip-path="url(#pbdb1f47587)" d="M 240.491372 205.367715 
L 240.57981 205.489176 
L 240.695263 205.585101 
L 240.83085 205.649269 
" style="fill:none;stroke:#999999;"/>
    <path clip-path="url(#pbdb1f47587)" d="M 238.796278 231.329008 
L 238.803924 231.068734 
L 238.720074 230.853639 
" style="fill:none;stroke:#999999;"/>
    <path clip-path="url(#pbdb1f47587)" d="M 213.51717 221.893002 
L 213.508759 221.85568 
L 213.485567 221.820322 
L 213.454219 221.798059 
L 213.417009 221.78791 
" style="fill:none;stroke:#999999;"/>
    <path clip-path="url(#pbdb1f47587)" d="M 213.51717 221.893002 
L 216.962664 221.278493 
L 219.868868 221.064708 
" style="fill:none;stroke:#999999;"/>
    <path clip-path="url(#pbdb1f47587)" d="M 194.940197 80.14044 
L 195.027615 80.297587 
L 195.16728 80.85644 
L 195.237368 81.590119 
L 195.184866 82.952384 
L 195.01003 84.698677 
L 194.905281 85.205148 
L 194.415944 86.025912 
L 190.728839 91.387562 
L 190.239757 92.138592 
L 190.169669 92.470237 
L 190.187255 92.994387 
L 190.397007 94.02468 
L 190.55859 94.820236 
" style="fill:none;stroke:#999999;"/>
    <path clip-path="url(#pbdb1f47587)" d="M 228.592833 213.537707 
L 227.980142 213.389073 
" style="fill:none;stroke:#999999;"/>
    <path clip-path="url(#pbdb1f47587)" d="M 228.592833 213.537707 
L 229.528181 210.883237 
" style="fill:none;stroke:#999999;"/>
    <path clip-path="url(#pbdb1f47587)" d="M 228.592833 213.537707 
L 230.891443 214.158109 
L 234.008674 215.101645 
L 235.390287 215.809132 
" style="fill:none;stroke:#999999;"/>
    <path clip-path="url(#pbdb1f47587)" d="M 228.592833 213.537707 
L 228.378493 214.048762 
L 228.214361 214.429515 
" style="fill:none;stroke:#999999;"/>
    <path clip-path="url(#pbdb1f47587)" d="M 190.55859 94.820236 
L 190.397007 94.02468 
L 190.187255 92.994387 
L 190.169669 92.470237 
L 190.239757 92.138592 
L 190.728839 91.387562 
L 194.415944 86.025912 
L 194.905281 85.205148 
L 195.01003 84.698677 
L 195.184866 82.952384 
L 195.237368 81.590119 
L 195.16728 80.85644 
L 195.027615 80.297587 
L 194.940197 80.14044 
" style="fill:none;stroke:#999999;"/>
    <path clip-path="url(#pbdb1f47587)" d="M 190.55859 94.820236 
L 190.62409 95.142386 
L 191.864764 99.019654 
L 192.738435 101.831598 
L 193.752025 104.905454 
L 194.293609 106.599692 
L 194.800532 107.770107 
L 196.145955 111.193287 
L 197.71846 115.420206 
L 199.099053 119.105624 
L 199.256304 120.74748 
L 199.902892 125.306372 
L 201.091064 129.166943 
L 201.2659 132.817658 
L 201.458067 135.332987 
L 201.68515 137.726201 
L 202.40157 141.097325 
L 203.327742 145.517077 
L 205.197418 153.605222 
L 205.616923 159.544713 
L 206.193423 163.091318 
L 206.490594 164.873297 
L 206.927429 166.550511 
L 208.09827 170.201553 
L 210.195029 175.215843 
L 210.929035 177.504619 
L 211.666354 180.612523 
L 213.957318 192.338287 
L 214.301384 195.747062 
L 214.498902 197.848244 
" style="fill:none;stroke:#999999;"/>
    <path clip-path="url(#pbdb1f47587)" d="M 190.55859 94.820236 
L 189.3485 93.308681 
L 188.49216 91.859002 
L 188.003078 90.653883 
L 187.880744 89.937883 
L 187.793326 89.134471 
L 187.548657 88.401119 
L 186.972157 86.811973 
L 185.766399 84.174855 
L 185.469229 83.511237 
L 185.154728 82.952384 
L 184.787725 82.532999 
L 184.176053 82.32347 
" style="fill:none;stroke:#999999;"/>
    <path clip-path="url(#pbdb1f47587)" d="M 241.324775 205.596232 
L 241.410409 205.535011 
L 241.484064 205.460039 
" style="fill:none;stroke:#999999;"/>
    <path clip-path="url(#pbdb1f47587)" d="M 227.980142 213.389073 
L 228.592833 213.537707 
" style="fill:none;stroke:#999999;"/>
    <path clip-path="url(#pbdb1f47587)" d="M 227.980142 213.389073 
L 226.91303 212.818434 
" style="fill:none;stroke:#999999;"/>
    <path clip-path="url(#pbdb1f47587)" d="M 227.980142 213.389073 
L 228.155488 213.832685 
L 228.214361 214.429515 
" style="fill:none;stroke:#999999;"/>
    <path clip-path="url(#pbdb1f47587)" d="M 228.214361 214.429515 
L 228.378493 214.048762 
L 228.592833 213.537707 
" style="fill:none;stroke:#999999;"/>
    <path clip-path="url(#pbdb1f47587)" d="M 228.214361 214.429515 
L 228.153449 214.593537 
L 228.137392 214.886223 
L 228.203147 215.13111 
L 228.608889 216.150926 
L 228.734537 216.80505 
" style="fill:none;stroke:#999999;"/>
    <path clip-path="url(#pbdb1f47587)" d="M 228.214361 214.429515 
L 228.155488 213.832685 
L 227.980142 213.389073 
" style="fill:none;stroke:#999999;"/>
    <path clip-path="url(#pbdb1f47587)" d="M 184.176053 82.32347 
L 184.787725 82.532999 
L 185.154728 82.952384 
L 185.469229 83.511237 
L 185.766399 84.174855 
L 186.972157 86.811973 
L 187.548657 88.401119 
L 187.793326 89.134471 
L 187.880744 89.937883 
L 188.003078 90.653883 
L 188.49216 91.859002 
L 189.3485 93.308681 
L 190.55859 94.820236 
" style="fill:none;stroke:#999999;"/>
    <path clip-path="url(#pbdb1f47587)" d="M 299.363733 271.031144 
L 296.868878 269.921296 
L 294.242004 269.152914 
L 290.650728 268.247356 
L 276.416368 264.902422 
L 274.113934 264.166124 
L 271.991434 263.061187 
L 270.318003 261.743118 
L 266.966808 257.468073 
L 262.843377 253.48604 
L 246.177369 238.920831 
L 240.428421 233.877076 
L 239.412537 232.780323 
" style="fill:none;stroke:#999999;"/>
    <path clip-path="url(#pbdb1f47587)" d="M 233.41051 197.625947 
L 233.49589 197.535588 
" style="fill:none;stroke:#999999;"/>
    <path clip-path="url(#pbdb1f47587)" d="M 204.069394 193.239262 
L 206.663136 195.741169 
L 207.969055 197.000307 
L 208.511403 197.555231 
" style="fill:none;stroke:#999999;"/>
    <path clip-path="url(#pbdb1f47587)" d="M 213.431026 222.005951 
L 213.466452 221.990891 
L 213.494742 221.965028 
L 213.512327 221.931307 
L 213.51717 221.893002 
" style="fill:none;stroke:#999999;"/>
    <path clip-path="url(#pbdb1f47587)" d="M 213.431026 222.005951 
L 213.46008 222.450545 
L 214.164267 223.722124 
L 214.191792 224.89123 
L 214.136997 226.251532 
L 213.821986 228.545874 
" style="fill:none;stroke:#999999;"/>
    <path clip-path="url(#pbdb1f47587)" d="M 228.470499 216.92029 
L 228.734537 216.80505 
" style="fill:none;stroke:#999999;"/>
    <path clip-path="url(#pbdb1f47587)" d="M 228.470499 216.92029 
L 228.09636 217.138004 
" style="fill:none;stroke:#999999;"/>
    <path clip-path="url(#pbdb1f47587)" d="M 228.470499 216.92029 
L 227.597338 216.930112 
L 226.218018 216.846301 
L 225.925945 216.828622 
" style="fill:none;stroke:#999999;"/>
    <path clip-path="url(#pbdb1f47587)" d="M 213.821986 228.545874 
L 214.136997 226.251532 
L 214.191792 224.89123 
L 214.164267 223.722124 
L 213.46008 222.450545 
L 213.431026 222.005951 
" style="fill:none;stroke:#999999;"/>
    <path clip-path="url(#pbdb1f47587)" d="M 213.821986 228.545874 
L 214.056205 228.083601 
L 214.252705 226.974734 
L 214.740258 224.553038 
L 215.38812 223.123002 
L 216.042354 222.425009 
L 216.764381 222.328757 
L 220.051605 222.411259 
" style="fill:none;stroke:#999999;"/>
    <path clip-path="url(#pbdb1f47587)" d="M 213.821986 228.545874 
L 213.319141 229.369585 
L 209.975592 233.418404 
L 202.987755 240.573164 
L 198.817939 245.739035 
L 194.883363 247.74462 
L 190.62511 250.001639 
L 183.481297 253.815066 
L 178.335355 256.127088 
L 176.670844 256.620463 
L 175.191109 256.805438 
L 168.820296 257.442537 
L 167.792688 257.812486 
L 161.958361 262.054793 
L 158.88828 264.145826 
L 157.27831 264.978377 
L 151.818632 267.716986 
L 151.621368 267.8869 
L 151.369563 268.144228 
L 151.041045 268.664449 
L 150.405671 269.694415 
L 149.293958 271.490799 
L 146.983114 275.106155 
L 146.402791 276.042488 
L 146.084976 276.371186 
L 145.618067 276.723784 
L 144.217849 277.800894 
L 144.05907 278.151528 
L 144.04811 278.485465 
L 144.091692 278.77062 
L 144.12355 279.160541 
L 143.998667 279.597605 
L 143.817969 279.893237 
L 143.544246 280.139761 
L 143.166284 280.375481 
L 141.472209 281.41003 
L 134.450475 283.708301 
L 129.970746 288.593273 
L 125.97857 293.954267 
L 120.783186 295.92384 
L 117.611414 298.221456 
L 98.889679 312.831517 
L 89.144478 320.761861 
L 81.408108 331.485815 
L 78.236337 336.574095 
L 74.936624 340.275882 
L 70.126847 342.560403 
L 66.31435 348.447839 
L 64.037913 351.725985 
L 62.874462 353.401889 
L 59.563026 355.768257 
" style="fill:none;stroke:#999999;"/>
    <path clip-path="url(#pbdb1f47587)" d="M 207.341582 198.427395 
L 206.014254 198.986576 
L 204.130051 200.675576 
L 202.141864 202.443476 
" style="fill:none;stroke:#999999;"/>
    <path clip-path="url(#pbdb1f47587)" d="M 207.341582 198.427395 
L 207.916298 198.361263 
L 208.326373 198.443437 
L 208.6108 198.62743 
" style="fill:none;stroke:#999999;"/>
    <path clip-path="url(#pbdb1f47587)" d="M 232.288858 197.567672 
L 232.420367 197.685205 
L 232.574559 197.770326 
L 232.743534 197.819761 
" style="fill:none;stroke:#999999;"/>
    <path clip-path="url(#pbdb1f47587)" d="M 228.09636 217.138004 
L 228.470499 216.92029 
" style="fill:none;stroke:#999999;"/>
    <path clip-path="url(#pbdb1f47587)" d="M 228.09636 217.138004 
L 227.871315 218.217733 
L 227.715339 219.636637 
L 227.802247 221.360013 
L 228.02041 222.785464 
L 227.596573 224.439761 
L 227.419953 227.044141 
L 227.431931 229.218658 
" style="fill:none;stroke:#999999;"/>
    <path clip-path="url(#pbdb1f47587)" d="M 228.09636 217.138004 
L 227.566499 217.535782 
L 226.659441 218.560509 
L 225.625971 219.941109 
L 224.950839 220.702288 
L 224.289469 221.038517 
L 222.911424 221.321708 
L 221.386323 221.968956 
L 220.147434 222.413551 
" style="fill:none;stroke:#999999;"/>
    <path clip-path="url(#pbdb1f47587)" d="M 227.431931 229.218658 
L 227.419953 227.044141 
L 227.596573 224.439761 
L 228.02041 222.785464 
L 227.802247 221.360013 
L 227.715339 219.636637 
L 227.871315 218.217733 
L 228.09636 217.138004 
" style="fill:none;stroke:#999999;"/>
    <path clip-path="url(#pbdb1f47587)" d="M 227.431931 229.218658 
L 228.581619 230.565864 
L 229.169588 232.425434 
L 230.851175 234.667721 
L 232.368885 237.128704 
L 233.558331 239.590014 
L 233.913865 240.642897 
L 234.159808 242.885185 
L 234.118775 245.114049 
L 233.954898 246.385628 
L 234.091505 247.766882 
L 234.939179 250.501562 
L 235.075786 252.77135 
L 235.985647 256.56939 
L 237.194973 259.020552 
L 237.776825 262.654569 
L 239.581511 267.112625 
L 240.224021 268.097084 
L 240.349923 269.191873 
" style="fill:none;stroke:#999999;"/>
    <path clip-path="url(#pbdb1f47587)" d="M 227.431931 229.218658 
L 225.956784 227.844934 
L 224.65163 226.857201 
L 223.202478 226.063938 
L 220.966564 224.440416 
L 220.229245 222.805435 
" style="fill:none;stroke:#999999;"/>
    <path clip-path="url(#pbdb1f47587)" d="M 43.053758 423.692308 
L 43.532136 422.857466 
L 44.202171 422.323822 
L 45.131657 421.886103 
L 46.362136 420.599791 
L 48.27157 417.676207 
L 49.588703 416.213761 
L 49.834901 415.837263 
L 49.686825 415.454873 
L 49.541044 415.042036 
L 50.040066 414.469432 
L 50.203943 413.922038 
L 50.463903 413.497742 
L 51.841948 412.609863 
L 53.742462 411.870946 
L 59.293126 408.532233 
L 62.683825 406.493254 
L 72.172124 400.705344 
L 73.293267 399.72023 
L 74.717697 398.884406 
L 78.628061 397.338148 
L 80.077213 396.010913 
L 80.829059 395.162648 
L 80.785478 394.57564 
L 80.336919 393.726065 
L 79.981639 391.646163 
L 80.280339 387.891338 
" style="fill:none;stroke:#999999;"/>
    <path clip-path="url(#pbdb1f47587)" d="M 230.906225 210.900589 
L 229.528181 210.883237 
" style="fill:none;stroke:#999999;"/>
    <path clip-path="url(#pbdb1f47587)" d="M 230.906225 210.900589 
L 231.137641 209.947232 
L 231.411109 209.687613 
L 234.11801 208.252012 
L 234.514577 207.964892 
L 236.258606 205.77335 
" style="fill:none;stroke:#999999;"/>
    <path clip-path="url(#pbdb1f47587)" d="M 230.906225 210.900589 
L 231.590023 210.907791 
L 232.653822 210.876035 
L 233.824408 210.798771 
L 236.729338 210.179678 
L 238.931355 209.953453 
" style="fill:none;stroke:#999999;"/>
    <path clip-path="url(#pbdb1f47587)" d="M 227.655701 210.924488 
L 227.903938 210.32864 
" style="fill:none;stroke:#999999;"/>
    <path clip-path="url(#pbdb1f47587)" d="M 227.655701 210.924488 
L 227.450282 211.610696 
" style="fill:none;stroke:#999999;"/>
    <path clip-path="url(#pbdb1f47587)" d="M 227.655701 210.924488 
L 226.342137 210.648827 
" style="fill:none;stroke:#999999;"/>
    <path clip-path="url(#pbdb1f47587)" d="M 232.877846 222.842757 
L 234.968489 220.901013 
L 237.68431 218.4564 
L 237.895592 218.094307 
" style="fill:none;stroke:#999999;"/>
    <path clip-path="url(#pbdb1f47587)" d="M 232.877846 222.842757 
L 231.684322 220.594577 
L 230.692905 218.882005 
" style="fill:none;stroke:#999999;"/>
    <path clip-path="url(#pbdb1f47587)" d="M 232.877846 222.842757 
L 234.745738 226.118939 
L 235.976472 228.171341 
L 236.493844 228.997343 
" style="fill:none;stroke:#999999;"/>
    <path clip-path="url(#pbdb1f47587)" d="M 214.869473 206.690039 
L 215.38812 206.758463 
" style="fill:none;stroke:#999999;"/>
    <path clip-path="url(#pbdb1f47587)" d="M 214.869473 206.690039 
L 203.715899 205.005295 
L 203.598917 204.985324 
L 202.032528 204.719812 
" style="fill:none;stroke:#999999;"/>
    <path clip-path="url(#pbdb1f47587)" d="M 214.869473 206.690039 
L 215.072345 208.065073 
L 215.24922 209.131379 
L 215.432976 210.178369 
L 215.472734 210.652428 
L 215.35983 211.22896 
L 215.398314 211.601529 
L 216.215915 213.0296 
" style="fill:none;stroke:#999999;"/>
    <path clip-path="url(#pbdb1f47587)" d="M 215.38812 206.758463 
L 214.869473 206.690039 
" style="fill:none;stroke:#999999;"/>
    <path clip-path="url(#pbdb1f47587)" d="M 215.38812 206.758463 
L 215.978638 207.296691 
L 217.127561 208.663213 
L 217.746113 209.255459 
L 219.793684 210.983091 
" style="fill:none;stroke:#999999;"/>
    <path clip-path="url(#pbdb1f47587)" d="M 215.38812 206.758463 
L 215.16435 206.29488 
L 215.130198 205.744867 
" style="fill:none;stroke:#999999;"/>
    <path clip-path="url(#pbdb1f47587)" d="M 215.130198 205.744867 
L 215.16435 206.29488 
L 215.38812 206.758463 
" style="fill:none;stroke:#999999;"/>
    <path clip-path="url(#pbdb1f47587)" d="M 215.130198 205.744867 
L 215.450816 205.794957 
L 217.971412 207.185706 
L 219.584696 208.170165 
" style="fill:none;stroke:#999999;"/>
    <path clip-path="url(#pbdb1f47587)" d="M 215.130198 205.744867 
L 214.991043 205.722932 
L 214.709165 205.427627 
L 213.672636 204.436948 
L 212.680454 203.3032 
L 211.901847 202.055193 
L 211.612833 201.538573 
L 211.0399 200.363901 
L 210.160623 199.039285 
L 209.871353 198.80553 
" style="fill:none;stroke:#999999;"/>
    <path clip-path="url(#pbdb1f47587)" d="M 220.293725 211.874244 
L 219.793684 210.983091 
" style="fill:none;stroke:#999999;"/>
    <path clip-path="url(#pbdb1f47587)" d="M 220.293725 211.874244 
L 220.541962 212.326368 
L 221.095525 212.948407 
L 221.378168 213.358953 
L 221.605251 213.71417 
L 221.881013 214.286773 
L 222.046164 214.680622 
" style="fill:none;stroke:#999999;"/>
    <path clip-path="url(#pbdb1f47587)" d="M 220.293725 211.874244 
L 220.384711 212.755575 
L 220.459896 213.88343 
L 220.425744 214.17055 
" style="fill:none;stroke:#999999;"/>
    <path clip-path="url(#pbdb1f47587)" d="M 220.425744 214.17055 
L 220.459896 213.88343 
L 220.384711 212.755575 
L 220.293725 211.874244 
" style="fill:none;stroke:#999999;"/>
    <path clip-path="url(#pbdb1f47587)" d="M 232.149703 196.731193 
L 232.092613 196.946615 
L 232.09771 197.169567 
L 232.164994 197.38237 
L 232.288858 197.567672 
" style="fill:none;stroke:#999999;"/>
    <path clip-path="url(#pbdb1f47587)" d="M 232.149703 196.731193 
L 231.910896 196.980991 
L 231.411874 197.165638 
" style="fill:none;stroke:#999999;"/>
    <path clip-path="url(#pbdb1f47587)" d="M 208.393911 197.745772 
L 208.335803 197.981164 
L 208.355172 198.222777 
L 208.449981 198.446057 
L 208.6108 198.62743 
" style="fill:none;stroke:#999999;"/>
    <path clip-path="url(#pbdb1f47587)" d="M 208.393911 197.745772 
L 208.196647 197.964795 
L 207.918337 198.191675 
L 207.341582 198.427395 
" style="fill:none;stroke:#999999;"/>
    <path clip-path="url(#pbdb1f47587)" d="M 230.692905 218.882005 
L 230.156673 217.955494 
L 229.471856 217.346551 
L 228.734537 216.80505 
" style="fill:none;stroke:#999999;"/>
    <path clip-path="url(#pbdb1f47587)" d="M 230.692905 218.882005 
L 231.684322 220.594577 
L 232.877846 222.842757 
" style="fill:none;stroke:#999999;"/>
    <path clip-path="url(#pbdb1f47587)" d="M 230.692905 218.882005 
L 231.698085 218.547086 
L 234.405241 218.000019 
L 234.808689 217.955167 
" style="fill:none;stroke:#999999;"/>
    <path clip-path="url(#pbdb1f47587)" d="M 208.6108 198.62743 
L 208.790988 198.736778 
L 208.994624 198.792107 
L 209.205396 198.788833 
L 209.407247 198.727284 
" style="fill:none;stroke:#999999;"/>
    <path clip-path="url(#pbdb1f47587)" d="M 209.777308 198.352423 
L 209.836691 198.144859 
L 209.835162 197.929109 
L 209.772721 197.722854 
" style="fill:none;stroke:#999999;"/>
    <path clip-path="url(#pbdb1f47587)" d="M 209.777308 198.352423 
L 210.002353 198.17727 
L 210.372414 198.082327 
" style="fill:none;stroke:#999999;"/>
    <path clip-path="url(#pbdb1f47587)" d="M 209.703143 197.604012 
L 209.816048 197.274659 
" style="fill:none;stroke:#999999;"/>
    <path clip-path="url(#pbdb1f47587)" d="M 209.703143 197.604012 
L 209.536718 197.434752 
L 209.326201 197.325731 
" style="fill:none;stroke:#999999;"/>
    <path clip-path="url(#pbdb1f47587)" d="M 221.379952 220.717675 
L 220.531003 220.976313 
L 219.868868 221.064708 
" style="fill:none;stroke:#999999;"/>
    <path clip-path="url(#pbdb1f47587)" d="M 221.379952 220.717675 
L 221.536183 220.670204 
L 222.651209 220.018373 
L 222.766662 219.91459 
L 224.048878 218.761854 
" style="fill:none;stroke:#999999;"/>
    <path clip-path="url(#pbdb1f47587)" d="M 221.379952 220.717675 
L 221.65393 220.882352 
L 223.108943 220.587047 
L 223.899783 220.426627 
L 224.480871 220.02623 
L 224.724266 219.680835 
L 224.629966 219.452972 
L 224.048878 218.761854 
" style="fill:none;stroke:#999999;"/>
    <path clip-path="url(#pbdb1f47587)" d="M 209.871353 198.80553 
L 210.160623 199.039285 
L 211.0399 200.363901 
L 211.612833 201.538573 
L 211.901847 202.055193 
L 212.680454 203.3032 
L 213.672636 204.436948 
L 214.709165 205.427627 
L 214.991043 205.722932 
L 215.130198 205.744867 
" style="fill:none;stroke:#999999;"/>
    <path clip-path="url(#pbdb1f47587)" d="M 209.871353 198.80553 
L 209.775524 198.579959 
L 209.73653 198.430669 
" style="fill:none;stroke:#999999;"/>
    <path clip-path="url(#pbdb1f47587)" d="M 209.73653 198.430669 
L 209.777308 198.352423 
" style="fill:none;stroke:#999999;"/>
    <path clip-path="url(#pbdb1f47587)" d="M 210.372414 198.082327 
L 214.537897 198.497129 
L 218.320065 198.65002 
L 220.574584 198.401204 
L 225.111912 197.869525 
L 227.431422 197.607286 
L 229.28759 197.29954 
L 231.411874 197.165638 
" style="fill:none;stroke:#999999;"/>
    <path clip-path="url(#pbdb1f47587)" d="M 210.372414 198.082327 
L 210.020703 197.958247 
L 209.772721 197.722854 
" style="fill:none;stroke:#999999;"/>
    <path clip-path="url(#pbdb1f47587)" d="M 286.68098 8.307692 
L 271.120312 47.177606 
L 268.026274 54.90726 
L 266.046752 59.541124 
L 265.124657 61.709094 
L 264.555293 62.603194 
L 263.74177 63.524794 
L 262.006152 65.367339 
L 257.233585 70.326628 
L 253.762605 74.473009 
L 247.986387 81.92602 
L 242.481598 89.162299 
L 241.424171 90.707248 
L 237.275255 100.003458 
L 234.807415 108.649802 
L 231.282148 121.010046 
L 228.082342 128.789463 
L 224.85552 136.433997 
L 218.428637 152.102834 
L 216.747305 157.904495 
L 216.584702 160.181812 
L 216.801591 162.188052 
L 217.6694 164.085926 
L 220.787905 168.233945 
L 222.387681 170.131819 
L 223.255489 171.487537 
L 224.205619 173.923966 
L 227.739551 183.84287 
L 228.238828 185.244423 
L 228.783216 186.772347 
L 230.730115 192.139562 
L 232.2937 195.873761 
" style="fill:none;stroke:#999999;"/>
    <path clip-path="url(#pbdb1f47587)" d="M 209.816048 197.274659 
L 209.326201 197.325731 
" style="fill:none;stroke:#999999;"/>
    <path clip-path="url(#pbdb1f47587)" d="M 209.816048 197.274659 
L 210.088496 197.30085 
L 211.062073 197.805356 
L 212.817316 197.985093 
L 214.403074 198.039767 
L 214.498902 197.848244 
" style="fill:none;stroke:#999999;"/>
    <path clip-path="url(#pbdb1f47587)" d="M 224.048878 218.761854 
L 222.766662 219.91459 
L 222.651209 220.018373 
L 221.536183 220.670204 
L 221.379952 220.717675 
" style="fill:none;stroke:#999999;"/>
    <path clip-path="url(#pbdb1f47587)" d="M 224.048878 218.761854 
L 224.629966 219.452972 
L 224.724266 219.680835 
L 224.480871 220.02623 
L 223.899783 220.426627 
L 223.108943 220.587047 
L 221.65393 220.882352 
L 221.379952 220.717675 
" style="fill:none;stroke:#999999;"/>
    <path clip-path="url(#pbdb1f47587)" d="M 224.048878 218.761854 
L 224.747713 218.133922 
L 225.776341 217.207083 
L 225.925945 216.828622 
" style="fill:none;stroke:#999999;"/>
    <path clip-path="url(#pbdb1f47587)" d="M 59.563026 355.768257 
L 62.874462 353.401889 
L 64.037913 351.725985 
L 66.31435 348.447839 
L 70.126847 342.560403 
L 74.936624 340.275882 
L 78.236337 336.574095 
L 81.408108 331.485815 
L 89.144478 320.761861 
L 98.889679 312.831517 
L 117.611414 298.221456 
L 120.783186 295.92384 
L 125.97857 293.954267 
L 129.970746 288.593273 
L 134.450475 283.708301 
L 141.472209 281.41003 
L 143.166284 280.375481 
L 143.544246 280.139761 
L 143.817969 279.893237 
L 143.998667 279.597605 
L 144.12355 279.160541 
L 144.091692 278.77062 
L 144.04811 278.485465 
L 144.05907 278.151528 
L 144.217849 277.800894 
L 145.618067 276.723784 
L 146.084976 276.371186 
L 146.402791 276.042488 
L 146.983114 275.106155 
L 149.293958 271.490799 
L 150.405671 269.694415 
L 151.041045 268.664449 
L 151.369563 268.144228 
L 151.621368 267.8869 
L 151.818632 267.716986 
L 157.27831 264.978377 
L 158.88828 264.145826 
L 161.958361 262.054793 
L 167.792688 257.812486 
L 168.820296 257.442537 
L 175.191109 256.805438 
L 176.670844 256.620463 
L 178.335355 256.127088 
L 183.481297 253.815066 
L 190.62511 250.001639 
L 194.883363 247.74462 
L 198.817939 245.739035 
L 202.987755 240.573164 
L 209.975592 233.418404 
L 213.319141 229.369585 
L 213.821986 228.545874 
" style="fill:none;stroke:#999999;"/>
    <path clip-path="url(#pbdb1f47587)" d="M 59.563026 355.768257 
L 62.926455 361.374466 
L 66.629616 369.973666 
L 68.457494 374.178323 
L 71.709292 379.384463 
L 72.605391 380.49955 
L 74.444483 381.660471 
L 80.280339 387.891338 
" style="fill:none;stroke:#999999;"/>
    <path clip-path="url(#pbdb1f47587)" d="M 270.110799 285.301049 
L 262.304342 285.697517 
L 261.114641 285.17795 
L 260.212426 284.576209 
L 259.624456 283.919795 
L 259.214382 283.755445 
L 256.384381 283.591423 
L 255.57774 283.112781 
L 254.552171 282.852834 
L 253.554127 282.374191 
L 251.093168 279.762282 
L 250.806192 279.338313 
L 249.24745 278.148581 
L 248.89217 277.943308 
L 246.745458 276.138085 
L 245.296307 275.19455 
L 243.58745 273.5671 
L 242.288412 271.488507 
L 240.349923 269.191873 
" style="fill:none;stroke:#999999;"/>
    <path clip-path="url(#pbdb1f47587)" d="M 216.130281 213.087547 
L 214.297815 214.475022 
" style="fill:none;stroke:#999999;"/>
    <path clip-path="url(#pbdb1f47587)" d="M 216.130281 213.087547 
L 216.286003 213.364191 
L 216.391771 213.819917 
L 216.452173 214.208527 
L 216.459819 214.408562 
" style="fill:none;stroke:#999999;"/>
    <path clip-path="url(#pbdb1f47587)" d="M 216.130281 213.087547 
L 216.173863 213.054154 
L 216.215915 213.0296 
" style="fill:none;stroke:#999999;"/>
    <path clip-path="url(#pbdb1f47587)" d="M 240.83085 205.649269 
L 241.217477 206.38393 
" style="fill:none;stroke:#999999;"/>
    <path clip-path="url(#pbdb1f47587)" d="M 240.83085 205.649269 
L 240.998295 205.679062 
L 241.167524 205.660728 
L 241.324775 205.596232 
" style="fill:none;stroke:#999999;"/>
    <path clip-path="url(#pbdb1f47587)" d="M 241.54727 204.786599 
L 241.439463 204.645167 
L 241.294956 204.541058 
" style="fill:none;stroke:#999999;"/>
    <path clip-path="url(#pbdb1f47587)" d="M 214.498902 197.848244 
L 214.403074 198.039767 
L 212.817316 197.985093 
L 211.062073 197.805356 
L 210.088496 197.30085 
L 209.816048 197.274659 
" style="fill:none;stroke:#999999;"/>
    <path clip-path="url(#pbdb1f47587)" d="M 214.498902 197.848244 
L 214.301384 195.747062 
L 213.957318 192.338287 
L 211.666354 180.612523 
L 210.929035 177.504619 
L 210.195029 175.215843 
L 208.09827 170.201553 
L 206.927429 166.550511 
L 206.490594 164.873297 
L 206.193423 163.091318 
L 205.616923 159.544713 
L 205.197418 153.605222 
L 203.327742 145.517077 
L 202.40157 141.097325 
L 201.68515 137.726201 
L 201.458067 135.332987 
L 201.2659 132.817658 
L 201.091064 129.166943 
L 199.902892 125.306372 
L 199.256304 120.74748 
L 199.099053 119.105624 
L 197.71846 115.420206 
L 196.145955 111.193287 
L 194.800532 107.770107 
L 194.293609 106.599692 
L 193.752025 104.905454 
L 192.738435 101.831598 
L 191.864764 99.019654 
L 190.62409 95.142386 
L 190.55859 94.820236 
" style="fill:none;stroke:#999999;"/>
    <path clip-path="url(#pbdb1f47587)" d="M 214.498902 197.848244 
L 214.824363 198.165812 
L 216.218974 198.261409 
L 217.586059 198.27516 
L 219.377237 198.056464 
L 221.591998 197.796517 
L 224.941664 197.386626 
L 227.470925 197.099506 
L 230.355721 196.853309 
L 231.066534 196.730211 
L 231.970789 196.526248 
L 232.206792 196.620863 
" style="fill:none;stroke:#999999;"/>
    <path clip-path="url(#pbdb1f47587)" d="M 229.603365 207.996976 
L 230.617975 207.199456 
L 231.246977 206.42027 
L 231.807421 205.394888 
" style="fill:none;stroke:#999999;"/>
    <path clip-path="url(#pbdb1f47587)" d="M 229.603365 207.996976 
L 229.266691 208.329603 
L 228.697327 209.052478 
L 227.903938 210.32864 
" style="fill:none;stroke:#999999;"/>
    <path clip-path="url(#pbdb1f47587)" d="M 229.603365 207.996976 
L 228.810996 207.844085 
L 227.978103 207.71313 
L 226.811085 207.565805 
L 225.105541 207.462022 
L 224.336364 207.415206 
" style="fill:none;stroke:#999999;"/>
    <path clip-path="url(#pbdb1f47587)" d="M 240.475826 204.816719 
L 239.888111 205.046874 
" style="fill:none;stroke:#999999;"/>
    <path clip-path="url(#pbdb1f47587)" d="M 240.475826 204.816719 
L 240.429695 204.951931 
L 240.416952 205.094018 
L 240.437851 205.23545 
L 240.491372 205.367715 
" style="fill:none;stroke:#999999;"/>
    <path clip-path="url(#pbdb1f47587)" d="M 209.326201 197.325731 
L 209.105489 197.287754 
L 208.883503 197.31591 
L 208.679613 197.407579 
L 208.511403 197.555231 
" style="fill:none;stroke:#999999;"/>
    <path clip-path="url(#pbdb1f47587)" d="M 236.258606 205.77335 
L 235.749389 204.973866 
" style="fill:none;stroke:#999999;"/>
    <path clip-path="url(#pbdb1f47587)" d="M 236.258606 205.77335 
L 234.514577 207.964892 
L 234.11801 208.252012 
L 231.411109 209.687613 
L 231.137641 209.947232 
L 230.906225 210.900589 
" style="fill:none;stroke:#999999;"/>
    <path clip-path="url(#pbdb1f47587)" d="M 236.258606 205.77335 
L 236.973752 206.896294 
L 238.480757 209.302276 
L 238.931355 209.953453 
" style="fill:none;stroke:#999999;"/>
    <path clip-path="url(#pbdb1f47587)" d="M 226.415028 201.473095 
L 225.932572 202.772175 
L 225.235266 204.214651 
L 224.722736 206.012344 
L 224.656982 206.250683 
" style="fill:none;stroke:#999999;"/>
    <path clip-path="url(#pbdb1f47587)" d="M 222.216667 214.937623 
L 222.533972 215.743 
L 222.950163 216.563109 
L 223.36712 217.321997 
" style="fill:none;stroke:#999999;"/>
    <path clip-path="url(#pbdb1f47587)" d="M 222.216667 214.937623 
L 222.073179 214.739552 
L 222.046164 214.680622 
" style="fill:none;stroke:#999999;"/>
    <path clip-path="url(#pbdb1f47587)" d="M 222.216667 214.937623 
L 220.897241 215.785233 
L 220.186428 216.375843 
" style="fill:none;stroke:#999999;"/>
    <path clip-path="url(#pbdb1f47587)" d="M 208.511403 197.555231 
L 208.393911 197.745772 
" style="fill:none;stroke:#999999;"/>
    <path clip-path="url(#pbdb1f47587)" d="M 208.511403 197.555231 
L 207.969055 197.000307 
L 206.663136 195.741169 
L 204.069394 193.239262 
" style="fill:none;stroke:#999999;"/>
    <path clip-path="url(#pbdb1f47587)" d="M 222.046164 214.680622 
L 222.073179 214.739552 
L 222.216667 214.937623 
" style="fill:none;stroke:#999999;"/>
    <path clip-path="url(#pbdb1f47587)" d="M 222.046164 214.680622 
L 221.881013 214.286773 
L 221.605251 213.71417 
L 221.378168 213.358953 
L 221.095525 212.948407 
L 220.541962 212.326368 
L 220.293725 211.874244 
" style="fill:none;stroke:#999999;"/>
    <path clip-path="url(#pbdb1f47587)" d="M 222.046164 214.680622 
L 222.186339 214.475022 
L 222.653758 213.285618 
L 223.197636 211.805165 
" style="fill:none;stroke:#999999;"/>
    <path clip-path="url(#pbdb1f47587)" d="M 218.756391 217.891981 
L 217.525912 219.099064 
L 217.232564 219.386839 
L 216.970565 219.701133 
" style="fill:none;stroke:#999999;"/>
    <path clip-path="url(#pbdb1f47587)" d="M 218.756391 217.891981 
L 219.079048 217.562628 
L 219.193736 217.438547 
" style="fill:none;stroke:#999999;"/>
    <path clip-path="url(#pbdb1f47587)" d="M 218.756391 217.891981 
L 217.588863 216.006548 
L 217.445375 215.764607 
L 217.348527 215.63005 
L 217.266206 215.515792 
L 216.973623 215.111139 
L 216.751128 214.843007 
L 216.686902 214.731368 
L 216.655044 214.413473 
" style="fill:none;stroke:#999999;"/>
    <path clip-path="url(#pbdb1f47587)" d="M 229.528181 210.883237 
L 230.906225 210.900589 
" style="fill:none;stroke:#999999;"/>
    <path clip-path="url(#pbdb1f47587)" d="M 229.528181 210.883237 
L 228.592833 213.537707 
" style="fill:none;stroke:#999999;"/>
    <path clip-path="url(#pbdb1f47587)" d="M 229.528181 210.883237 
L 229.182586 210.877017 
L 228.919822 210.769961 
" style="fill:none;stroke:#999999;"/>
    <path clip-path="url(#pbdb1f47587)" d="M 229.528181 210.883237 
L 230.851685 209.170993 
L 230.961786 208.756846 
" style="fill:none;stroke:#999999;"/>
    <path clip-path="url(#pbdb1f47587)" d="M 219.793684 210.983091 
L 220.293725 211.874244 
" style="fill:none;stroke:#999999;"/>
    <path clip-path="url(#pbdb1f47587)" d="M 219.793684 210.983091 
L 218.194418 211.870643 
" style="fill:none;stroke:#999999;"/>
    <path clip-path="url(#pbdb1f47587)" d="M 219.793684 210.983091 
L 217.746113 209.255459 
L 217.127561 208.663213 
L 215.978638 207.296691 
L 215.38812 206.758463 
" style="fill:none;stroke:#999999;"/>
    <path clip-path="url(#pbdb1f47587)" d="M 219.793684 210.983091 
L 220.388534 210.462542 
L 221.006068 210.020895 
" style="fill:none;stroke:#999999;"/>
    <path clip-path="url(#pbdb1f47587)" d="M 199.678102 203.0737 
L 199.61821 203.364749 
L 199.656439 203.659072 
L 199.788458 203.925239 
L 199.99974 204.134113 
" style="fill:none;stroke:#999999;"/>
    <path clip-path="url(#pbdb1f47587)" d="M 199.678102 203.0737 
L 199.467331 203.385374 
L 199.186981 203.638446 
L 198.710387 203.87875 
" style="fill:none;stroke:#999999;"/>
    <path clip-path="url(#pbdb1f47587)" d="M 219.868868 221.064708 
L 220.147434 222.413551 
" style="fill:none;stroke:#999999;"/>
    <path clip-path="url(#pbdb1f47587)" d="M 219.868868 221.064708 
L 216.962664 221.278493 
L 213.51717 221.893002 
" style="fill:none;stroke:#999999;"/>
    <path clip-path="url(#pbdb1f47587)" d="M 219.868868 221.064708 
L 219.844402 220.94652 
L 219.50314 219.248681 
" style="fill:none;stroke:#999999;"/>
    <path clip-path="url(#pbdb1f47587)" d="M 219.868868 221.064708 
L 220.531003 220.976313 
L 221.379952 220.717675 
" style="fill:none;stroke:#999999;"/>
    <path clip-path="url(#pbdb1f47587)" d="M 220.051605 222.411259 
L 220.147434 222.413551 
" style="fill:none;stroke:#999999;"/>
    <path clip-path="url(#pbdb1f47587)" d="M 220.051605 222.411259 
L 220.229245 222.805435 
" style="fill:none;stroke:#999999;"/>
    <path clip-path="url(#pbdb1f47587)" d="M 220.051605 222.411259 
L 216.764381 222.328757 
L 216.042354 222.425009 
L 215.38812 223.123002 
L 214.740258 224.553038 
L 214.252705 226.974734 
L 214.056205 228.083601 
L 213.821986 228.545874 
" style="fill:none;stroke:#999999;"/>
    <path clip-path="url(#pbdb1f47587)" d="M 220.147434 222.413551 
L 220.051605 222.411259 
" style="fill:none;stroke:#999999;"/>
    <path clip-path="url(#pbdb1f47587)" d="M 220.147434 222.413551 
L 219.868868 221.064708 
" style="fill:none;stroke:#999999;"/>
    <path clip-path="url(#pbdb1f47587)" d="M 220.147434 222.413551 
L 221.386323 221.968956 
L 222.911424 221.321708 
L 224.289469 221.038517 
L 224.950839 220.702288 
L 225.625971 219.941109 
L 226.659441 218.560509 
L 227.566499 217.535782 
L 228.09636 217.138004 
" style="fill:none;stroke:#999999;"/>
    <path clip-path="url(#pbdb1f47587)" d="M 223.36712 217.321997 
L 223.839381 217.090533 
" style="fill:none;stroke:#999999;"/>
    <path clip-path="url(#pbdb1f47587)" d="M 223.36712 217.321997 
L 222.950163 216.563109 
L 222.533972 215.743 
L 222.216667 214.937623 
" style="fill:none;stroke:#999999;"/>
    <path clip-path="url(#pbdb1f47587)" d="M 223.36712 217.321997 
L 222.838788 218.136868 
L 222.661658 218.29336 
L 222.40756 218.468513 
L 222.031892 218.66331 
L 221.573393 218.865636 
L 221.239012 218.984478 
L 220.785356 219.118053 
L 220.255496 219.18615 
L 220.073778 219.20121 
" style="fill:none;stroke:#999999;"/>
    <path clip-path="url(#pbdb1f47587)" d="M 220.351069 208.13939 
L 219.584696 208.170165 
" style="fill:none;stroke:#999999;"/>
    <path clip-path="url(#pbdb1f47587)" d="M 220.351069 208.13939 
L 221.02034 208.552882 
L 222.275796 209.104205 
" style="fill:none;stroke:#999999;"/>
    <path clip-path="url(#pbdb1f47587)" d="M 220.351069 208.13939 
L 221.18855 207.967183 
L 222.412147 207.735065 
L 224.252259 207.754053 
" style="fill:none;stroke:#999999;"/>
    <path clip-path="url(#pbdb1f47587)" d="M 220.229245 222.805435 
L 220.051605 222.411259 
" style="fill:none;stroke:#999999;"/>
    <path clip-path="url(#pbdb1f47587)" d="M 220.229245 222.805435 
L 219.873711 222.988773 
L 219.385648 223.119729 
L 218.826223 223.15836 
L 218.129428 223.124312 
L 216.817392 223.083061 
L 216.10505 223.360032 
L 216.024768 223.69888 
L 216.103011 224.041001 
L 216.30002 224.904326 
" style="fill:none;stroke:#999999;"/>
    <path clip-path="url(#pbdb1f47587)" d="M 220.229245 222.805435 
L 220.966564 224.440416 
L 223.202478 226.063938 
L 224.65163 226.857201 
L 225.956784 227.844934 
L 227.431931 229.218658 
" style="fill:none;stroke:#999999;"/>
    <path clip-path="url(#pbdb1f47587)" d="M 200.672324 204.285039 
L 200.872136 204.225782 
L 201.052834 204.122327 
L 201.205242 203.98024 
L 201.320695 203.806724 
L 201.393076 203.611273 
" style="fill:none;stroke:#999999;"/>
    <path clip-path="url(#pbdb1f47587)" d="M 200.672324 204.285039 
L 201.066852 204.369833 
L 201.676994 204.644513 
L 202.032528 204.719812 
" style="fill:none;stroke:#999999;"/>
    <path clip-path="url(#pbdb1f47587)" d="M 230.961786 208.756846 
L 231.518661 208.176058 
L 232.075537 207.457439 
L 232.446873 206.654681 
L 232.886002 205.818202 
L 232.89008 205.810345 
L 233.14163 205.313368 
L 232.720596 204.770557 
" style="fill:none;stroke:#999999;"/>
    <path clip-path="url(#pbdb1f47587)" d="M 230.961786 208.756846 
L 230.851685 209.170993 
L 229.528181 210.883237 
" style="fill:none;stroke:#999999;"/>
    <path clip-path="url(#pbdb1f47587)" d="M 230.961786 208.756846 
L 229.651279 209.847051 
L 228.818132 210.42522 
" style="fill:none;stroke:#999999;"/>
    <path clip-path="url(#pbdb1f47587)" d="M 241.217477 206.38393 
L 241.324775 205.596232 
" style="fill:none;stroke:#999999;"/>
    <path clip-path="url(#pbdb1f47587)" d="M 241.217477 206.38393 
L 241.376767 207.500982 
L 241.771805 210.749008 
L 241.798056 212.339136 
L 241.429269 214.267785 
L 240.191398 217.786234 
L 240.005603 218.472769 
" style="fill:none;stroke:#999999;"/>
    <path clip-path="url(#pbdb1f47587)" d="M 239.888111 205.046874 
L 235.749389 204.973866 
" style="fill:none;stroke:#999999;"/>
    <path clip-path="url(#pbdb1f47587)" d="M 239.888111 205.046874 
L 240.491372 205.367715 
" style="fill:none;stroke:#999999;"/>
    <path clip-path="url(#pbdb1f47587)" d="M 240.529347 204.726032 
L 240.475826 204.816719 
" style="fill:none;stroke:#999999;"/>
    <path clip-path="url(#pbdb1f47587)" d="M 241.294956 204.541058 
L 240.708516 203.638774 
" style="fill:none;stroke:#999999;"/>
    <path clip-path="url(#pbdb1f47587)" d="M 241.294956 204.541058 
L 241.133373 204.485401 
L 240.962359 204.477217 
L 240.795934 204.517158 
L 240.647603 204.602607 
L 240.529347 204.726032 
" style="fill:none;stroke:#999999;"/>
    <path clip-path="url(#pbdb1f47587)" d="M 242.273885 205.039998 
L 241.948935 204.941454 
L 241.744279 204.862554 
L 241.54727 204.786599 
" style="fill:none;stroke:#999999;"/>
    <path clip-path="url(#pbdb1f47587)" d="M 240.708516 203.638774 
L 240.270406 202.189422 
L 239.190551 200.531525 
L 237.92643 199.144377 
L 237.387394 198.815679 
L 236.306265 198.156972 
L 234.842331 197.548356 
L 234.159808 197.38237 
" style="fill:none;stroke:#999999;"/>
    <path clip-path="url(#pbdb1f47587)" d="M 240.708516 203.638774 
L 240.629508 204.244443 
L 240.529347 204.726032 
" style="fill:none;stroke:#999999;"/>
    <path clip-path="url(#pbdb1f47587)" d="M 219.193736 217.438547 
L 220.073778 219.20121 
" style="fill:none;stroke:#999999;"/>
    <path clip-path="url(#pbdb1f47587)" d="M 219.193736 217.438547 
L 219.079048 217.562628 
L 218.756391 217.891981 
" style="fill:none;stroke:#999999;"/>
    <path clip-path="url(#pbdb1f47587)" d="M 219.193736 217.438547 
L 219.9675 216.578169 
L 220.186428 216.375843 
" style="fill:none;stroke:#999999;"/>
    <path clip-path="url(#pbdb1f47587)" d="M 220.073778 219.20121 
L 219.50314 219.248681 
" style="fill:none;stroke:#999999;"/>
    <path clip-path="url(#pbdb1f47587)" d="M 220.073778 219.20121 
L 219.193736 217.438547 
" style="fill:none;stroke:#999999;"/>
    <path clip-path="url(#pbdb1f47587)" d="M 220.073778 219.20121 
L 220.255496 219.18615 
L 220.785356 219.118053 
L 221.239012 218.984478 
L 221.573393 218.865636 
L 222.031892 218.66331 
L 222.40756 218.468513 
L 222.661658 218.29336 
L 222.838788 218.136868 
L 223.36712 217.321997 
" style="fill:none;stroke:#999999;"/>
    <path clip-path="url(#pbdb1f47587)" d="M 217.10131 219.958788 
L 216.970565 219.701133 
" style="fill:none;stroke:#999999;"/>
    <path clip-path="url(#pbdb1f47587)" d="M 217.10131 219.958788 
L 216.276318 220.269807 
L 214.553443 220.802797 
L 213.693025 221.305339 
L 213.417009 221.78791 
" style="fill:none;stroke:#999999;"/>
    <path clip-path="url(#pbdb1f47587)" d="M 217.10131 219.958788 
L 217.862076 219.695567 
L 218.805579 219.403209 
L 219.50314 219.248681 
" style="fill:none;stroke:#999999;"/>
    <path clip-path="url(#pbdb1f47587)" d="M 232.950992 196.251241 
L 232.706069 196.266955 
L 232.477711 196.356987 
L 232.288093 196.512497 
" style="fill:none;stroke:#999999;"/>
    <path clip-path="url(#pbdb1f47587)" d="M 232.950992 196.251241 
L 232.559268 196.118976 
L 232.2937 195.873761 
" style="fill:none;stroke:#999999;"/>
    <path clip-path="url(#pbdb1f47587)" d="M 216.970565 219.701133 
L 217.10131 219.958788 
" style="fill:none;stroke:#999999;"/>
    <path clip-path="url(#pbdb1f47587)" d="M 216.970565 219.701133 
L 217.232564 219.386839 
L 217.525912 219.099064 
L 218.756391 217.891981 
" style="fill:none;stroke:#999999;"/>
    <path clip-path="url(#pbdb1f47587)" d="M 216.970565 219.701133 
L 216.200878 218.293033 
L 216.004124 217.933232 
L 215.614693 217.1511 
L 214.753766 215.422158 
L 214.441303 214.85774 
L 214.297815 214.475022 
" style="fill:none;stroke:#999999;"/>
    <path clip-path="url(#pbdb1f47587)" d="M 201.417543 203.448233 
L 201.393586 203.185667 
L 201.294444 202.941108 
L 201.129038 202.735835 
L 200.910875 202.5872 
" style="fill:none;stroke:#999999;"/>
    <path clip-path="url(#pbdb1f47587)" d="M 201.417543 203.448233 
L 201.531722 203.11888 
L 202.141864 202.443476 
" style="fill:none;stroke:#999999;"/>
    <path clip-path="url(#pbdb1f47587)" d="M 235.390287 215.809132 
L 234.808689 217.955167 
" style="fill:none;stroke:#999999;"/>
    <path clip-path="url(#pbdb1f47587)" d="M 235.390287 215.809132 
L 236.060067 215.90473 
L 238.552629 215.437873 
" style="fill:none;stroke:#999999;"/>
    <path clip-path="url(#pbdb1f47587)" d="M 235.390287 215.809132 
L 234.008674 215.101645 
L 230.891443 214.158109 
L 228.592833 213.537707 
" style="fill:none;stroke:#999999;"/>
    <path clip-path="url(#pbdb1f47587)" d="M 240.349923 269.191873 
L 240.497489 270.599646 
L 240.907564 271.775627 
L 241.030663 272.787586 
L 241.468263 274.045742 
L 241.755239 275.358572 
L 242.780808 277.574014 
L 243.081546 278.914344 
L 243.163612 281.102285 
L 243.819885 283.563923 
L 243.915458 285.601919 
L 244.557968 287.53024 
L 245.132175 288.487526 
L 246.185014 290.238075 
L 246.485753 292.590365 
L 246.540548 294.751132 
L 246.600186 297.348964 
L 246.677155 300.700773 
L 246.841287 301.452785 
L 246.896083 302.615343 
L 247.142025 303.244585 
L 247.798298 303.791652 
" style="fill:none;stroke:#999999;"/>
    <path clip-path="url(#pbdb1f47587)" d="M 240.349923 269.191873 
L 240.224021 268.097084 
L 239.581511 267.112625 
L 237.776825 262.654569 
L 237.194973 259.020552 
L 235.985647 256.56939 
L 235.075786 252.77135 
L 234.939179 250.501562 
L 234.091505 247.766882 
L 233.954898 246.385628 
L 234.118775 245.114049 
L 234.159808 242.885185 
L 233.913865 240.642897 
L 233.558331 239.590014 
L 232.368885 237.128704 
L 230.851175 234.667721 
L 229.169588 232.425434 
L 228.581619 230.565864 
L 227.431931 229.218658 
" style="fill:none;stroke:#999999;"/>
    <path clip-path="url(#pbdb1f47587)" d="M 240.349923 269.191873 
L 242.288412 271.488507 
L 243.58745 273.5671 
L 245.296307 275.19455 
L 246.745458 276.138085 
L 248.89217 277.943308 
L 249.24745 278.148581 
L 250.806192 279.338313 
L 251.093168 279.762282 
L 253.554127 282.374191 
L 254.552171 282.852834 
L 255.57774 283.112781 
L 256.384381 283.591423 
L 259.214382 283.755445 
L 259.624456 283.919795 
L 260.212426 284.576209 
L 261.114641 285.17795 
L 262.304342 285.697517 
L 270.110799 285.301049 
" style="fill:none;stroke:#999999;"/>
    <path clip-path="url(#pbdb1f47587)" d="M 216.459819 214.408562 
L 214.297815 214.475022 
" style="fill:none;stroke:#999999;"/>
    <path clip-path="url(#pbdb1f47587)" d="M 216.459819 214.408562 
L 216.655044 214.413473 
" style="fill:none;stroke:#999999;"/>
    <path clip-path="url(#pbdb1f47587)" d="M 216.459819 214.408562 
L 216.452173 214.208527 
L 216.391771 213.819917 
L 216.286003 213.364191 
L 216.130281 213.087547 
" style="fill:none;stroke:#999999;"/>
    <path clip-path="url(#pbdb1f47587)" d="M 216.655044 214.413473 
L 216.459819 214.408562 
" style="fill:none;stroke:#999999;"/>
    <path clip-path="url(#pbdb1f47587)" d="M 216.655044 214.413473 
L 216.686902 214.731368 
L 216.751128 214.843007 
L 216.973623 215.111139 
L 217.266206 215.515792 
L 217.348527 215.63005 
L 217.445375 215.764607 
L 217.588863 216.006548 
L 218.756391 217.891981 
" style="fill:none;stroke:#999999;"/>
    <path clip-path="url(#pbdb1f47587)" d="M 216.655044 214.413473 
L 217.4729 214.48779 
L 217.784088 214.515946 
L 217.981862 214.518565 
L 218.761743 214.529696 
" style="fill:none;stroke:#999999;"/>
    <path clip-path="url(#pbdb1f47587)" d="M 216.215915 213.0296 
L 218.194418 211.870643 
" style="fill:none;stroke:#999999;"/>
    <path clip-path="url(#pbdb1f47587)" d="M 216.215915 213.0296 
L 216.173863 213.054154 
L 216.130281 213.087547 
" style="fill:none;stroke:#999999;"/>
    <path clip-path="url(#pbdb1f47587)" d="M 216.215915 213.0296 
L 215.398314 211.601529 
L 215.35983 211.22896 
L 215.472734 210.652428 
L 215.432976 210.178369 
L 215.24922 209.131379 
L 215.072345 208.065073 
L 214.869473 206.690039 
" style="fill:none;stroke:#999999;"/>
    <path clip-path="url(#pbdb1f47587)" d="M 223.686973 209.851307 
L 223.717556 209.737703 
" style="fill:none;stroke:#999999;"/>
    <path clip-path="url(#pbdb1f47587)" d="M 223.686973 209.851307 
L 224.034096 209.996341 
L 224.722991 210.253668 
L 225.317842 210.419 
L 226.342137 210.648827 
" style="fill:none;stroke:#999999;"/>
    <path clip-path="url(#pbdb1f47587)" d="M 223.686973 209.851307 
L 223.224651 211.721681 
L 223.197636 211.805165 
" style="fill:none;stroke:#999999;"/>
    <path clip-path="url(#pbdb1f47587)" d="M 202.032528 204.719812 
L 203.598917 204.985324 
L 203.715899 205.005295 
L 214.869473 206.690039 
" style="fill:none;stroke:#999999;"/>
    <path clip-path="url(#pbdb1f47587)" d="M 202.032528 204.719812 
L 201.682091 204.52698 
L 201.367845 204.123637 
L 201.393076 203.611273 
" style="fill:none;stroke:#999999;"/>
    <path clip-path="url(#pbdb1f47587)" d="M 222.275796 209.104205 
L 223.717556 209.737703 
" style="fill:none;stroke:#999999;"/>
    <path clip-path="url(#pbdb1f47587)" d="M 222.275796 209.104205 
L 221.02034 208.552882 
L 220.351069 208.13939 
" style="fill:none;stroke:#999999;"/>
    <path clip-path="url(#pbdb1f47587)" d="M 222.275796 209.104205 
L 222.199337 210.164946 
L 222.022971 210.658648 
L 221.855526 210.89666 
L 221.611877 211.139256 
" style="fill:none;stroke:#999999;"/>
    <path clip-path="url(#pbdb1f47587)" d="M 202.141864 202.443476 
L 204.130051 200.675576 
L 206.014254 198.986576 
L 207.341582 198.427395 
" style="fill:none;stroke:#999999;"/>
    <path clip-path="url(#pbdb1f47587)" d="M 202.141864 202.443476 
L 201.771038 202.606189 
L 201.237865 202.667738 
L 200.910875 202.5872 
" style="fill:none;stroke:#999999;"/>
    <path clip-path="url(#pbdb1f47587)" d="M 221.611877 211.139256 
L 221.783145 211.268902 
L 222.268659 211.583522 
L 223.197636 211.805165 
" style="fill:none;stroke:#999999;"/>
    <path clip-path="url(#pbdb1f47587)" d="M 221.611877 211.139256 
L 221.37307 210.824635 
L 221.006068 210.020895 
" style="fill:none;stroke:#999999;"/>
    <path clip-path="url(#pbdb1f47587)" d="M 221.611877 211.139256 
L 221.855526 210.89666 
L 222.022971 210.658648 
L 222.199337 210.164946 
L 222.275796 209.104205 
" style="fill:none;stroke:#999999;"/>
    <path clip-path="url(#pbdb1f47587)" d="M 200.910875 202.5872 
L 200.675637 202.510918 
L 200.428165 202.501752 
L 200.187829 202.560027 
L 199.972215 202.681488 
L 199.797888 202.857296 
L 199.678102 203.0737 
" style="fill:none;stroke:#999999;"/>
    <path clip-path="url(#pbdb1f47587)" d="M 237.895592 218.094307 
L 240.005603 218.472769 
" style="fill:none;stroke:#999999;"/>
    <path clip-path="url(#pbdb1f47587)" d="M 237.895592 218.094307 
L 237.68431 218.4564 
L 234.968489 220.901013 
L 232.877846 222.842757 
" style="fill:none;stroke:#999999;"/>
    <path clip-path="url(#pbdb1f47587)" d="M 237.895592 218.094307 
L 237.942486 218.014097 
L 238.552629 215.437873 
" style="fill:none;stroke:#999999;"/>
    <path clip-path="url(#pbdb1f47587)" d="M 237.895592 218.094307 
L 236.25096 217.795074 
L 234.808689 217.955167 
" style="fill:none;stroke:#999999;"/>
    <path clip-path="url(#pbdb1f47587)" d="M 201.393076 203.611273 
L 201.417543 203.448233 
" style="fill:none;stroke:#999999;"/>
    <path clip-path="url(#pbdb1f47587)" d="M 223.717556 209.737703 
L 222.275796 209.104205 
" style="fill:none;stroke:#999999;"/>
    <path clip-path="url(#pbdb1f47587)" d="M 223.717556 209.737703 
L 223.686973 209.851307 
" style="fill:none;stroke:#999999;"/>
    <path clip-path="url(#pbdb1f47587)" d="M 223.717556 209.737703 
L 224.252259 207.754053 
" style="fill:none;stroke:#999999;"/>
    <path clip-path="url(#pbdb1f47587)" d="M 198.710387 203.87875 
L 199.323843 203.925239 
L 199.99974 204.134113 
" style="fill:none;stroke:#999999;"/>
    <path clip-path="url(#pbdb1f47587)" d="M 240.005603 218.472769 
L 237.895592 218.094307 
" style="fill:none;stroke:#999999;"/>
    <path clip-path="url(#pbdb1f47587)" d="M 240.005603 218.472769 
L 240.191398 217.786234 
L 241.429269 214.267785 
L 241.798056 212.339136 
L 241.771805 210.749008 
L 241.376767 207.500982 
L 241.217477 206.38393 
" style="fill:none;stroke:#999999;"/>
    <path clip-path="url(#pbdb1f47587)" d="M 240.005603 218.472769 
L 239.559338 220.120845 
L 239.107721 223.072585 
L 238.544473 226.726573 
L 238.489932 228.806148 
" style="fill:none;stroke:#999999;"/>
   </g>
  </g>
 </g>
 <defs>
  <clipPath id="pbdb1f47587">
   <rect height="432" width="266.562374" x="37.927558" y="0"/>
  </clipPath>
 </defs>
</svg>
