<?xml version="1.0" encoding="utf-8" standalone="no"?>
<!DOCTYPE svg PUBLIC "-//W3C//DTD SVG 1.1//EN"
  "http://www.w3.org/Graphics/SVG/1.1/DTD/svg11.dtd">
<!-- Created with matplotlib (http://matplotlib.org/) -->
<svg height="432pt" version="1.1" viewBox="0 0 1258.613277 432" width="1258.613277pt" xmlns="http://www.w3.org/2000/svg" xmlns:xlink="http://www.w3.org/1999/xlink">
 <defs>
  <style type="text/css">
*{stroke-linecap:butt;stroke-linejoin:round;}
  </style>
 </defs>
 <g id="figure_1">
  <g id="patch_1">
   <path d="M 0 432 
L 1258.613277 432 
L 1258.613277 0 
L 0 0 
z
" style="fill:none;opacity:0;"/>
  </g>
  <g id="axes_1">
   <g id="PathCollection_1">
    <defs>
     <path d="M 0 1.936492 
C 0.513564 1.936492 1.006162 1.732451 1.369306 1.369306 
C 1.732451 1.006162 1.936492 0.513564 1.936492 0 
C 1.936492 -0.513564 1.732451 -1.006162 1.369306 -1.369306 
C 1.006162 -1.732451 0.513564 -1.936492 0 -1.936492 
C -0.513564 -1.936492 -1.006162 -1.732451 -1.369306 -1.369306 
C -1.732451 -1.006162 -1.936492 -0.513564 -1.936492 0 
C -1.936492 0.513564 -1.732451 1.006162 -1.369306 1.369306 
C -1.006162 1.732451 -0.513564 1.936492 0 1.936492 
z
" id="C0_0_65e1b04384"/>
    </defs>
    <g clip-path="url(#pcfa4c4ca06)">
     <use style="fill:#66ccff;" x="1101.682317" xlink:href="#C0_0_65e1b04384" y="423.692308"/>
    </g>
    <g clip-path="url(#pcfa4c4ca06)">
     <use style="fill:#66ccff;" x="156.930959" xlink:href="#C0_0_65e1b04384" y="8.307692"/>
    </g>
    <g clip-path="url(#pcfa4c4ca06)">
     <use style="fill:#66ccff;" x="772.670119" xlink:href="#C0_0_65e1b04384" y="200.417256"/>
    </g>
    <g clip-path="url(#pcfa4c4ca06)">
     <use style="fill:#66ccff;" x="786.151301" xlink:href="#C0_0_65e1b04384" y="203.387965"/>
    </g>
    <g clip-path="url(#pcfa4c4ca06)">
     <use style="fill:#66ccff;" x="796.276299" xlink:href="#C0_0_65e1b04384" y="213.559949"/>
    </g>
    <g clip-path="url(#pcfa4c4ca06)">
     <use style="fill:#66ccff;" x="766.141443" xlink:href="#C0_0_65e1b04384" y="198.854692"/>
    </g>
    <g clip-path="url(#pcfa4c4ca06)">
     <use style="fill:#66ccff;" x="822.574696" xlink:href="#C0_0_65e1b04384" y="246.104171"/>
    </g>
    <g clip-path="url(#pcfa4c4ca06)">
     <use style="fill:#66ccff;" x="758.722057" xlink:href="#C0_0_65e1b04384" y="189.558969"/>
    </g>
    <g clip-path="url(#pcfa4c4ca06)">
     <use style="fill:#66ccff;" x="803.246024" xlink:href="#C0_0_65e1b04384" y="236.237346"/>
    </g>
    <g clip-path="url(#pcfa4c4ca06)">
     <use style="fill:#66ccff;" x="788.788986" xlink:href="#C0_0_65e1b04384" y="204.460313"/>
    </g>
    <g clip-path="url(#pcfa4c4ca06)">
     <use style="fill:#66ccff;" x="812.221041" xlink:href="#C0_0_65e1b04384" y="231.670983"/>
    </g>
    <g clip-path="url(#pcfa4c4ca06)">
     <use style="fill:#66ccff;" x="792.349908" xlink:href="#C0_0_65e1b04384" y="215.61518"/>
    </g>
    <g clip-path="url(#pcfa4c4ca06)">
     <use style="fill:#66ccff;" x="803.206799" xlink:href="#C0_0_65e1b04384" y="255.843539"/>
    </g>
    <g clip-path="url(#pcfa4c4ca06)">
     <use style="fill:#66ccff;" x="832.905389" xlink:href="#C0_0_65e1b04384" y="276.968177"/>
    </g>
    <g clip-path="url(#pcfa4c4ca06)">
     <use style="fill:#66ccff;" x="763.706583" xlink:href="#C0_0_65e1b04384" y="191.655868"/>
    </g>
    <g clip-path="url(#pcfa4c4ca06)">
     <use style="fill:#66ccff;" x="804.505072" xlink:href="#C0_0_65e1b04384" y="236.807223"/>
    </g>
    <g clip-path="url(#pcfa4c4ca06)">
     <use style="fill:#66ccff;" x="820.593323" xlink:href="#C0_0_65e1b04384" y="239.698272"/>
    </g>
    <g clip-path="url(#pcfa4c4ca06)">
     <use style="fill:#66ccff;" x="786.302463" xlink:href="#C0_0_65e1b04384" y="204.088974"/>
    </g>
    <g clip-path="url(#pcfa4c4ca06)">
     <use style="fill:#66ccff;" x="798.866147" xlink:href="#C0_0_65e1b04384" y="229.229707"/>
    </g>
    <g clip-path="url(#pcfa4c4ca06)">
     <use style="fill:#66ccff;" x="795.529098" xlink:href="#C0_0_65e1b04384" y="251.641162"/>
    </g>
    <g clip-path="url(#pcfa4c4ca06)">
     <use style="fill:#66ccff;" x="790.795233" xlink:href="#C0_0_65e1b04384" y="247.72311"/>
    </g>
    <g clip-path="url(#pcfa4c4ca06)">
     <use style="fill:#66ccff;" x="797.485596" xlink:href="#C0_0_65e1b04384" y="215.037951"/>
    </g>
    <g clip-path="url(#pcfa4c4ca06)">
     <use style="fill:#66ccff;" x="782.26892" xlink:href="#C0_0_65e1b04384" y="234.943176"/>
    </g>
    <g clip-path="url(#pcfa4c4ca06)">
     <use style="fill:#66ccff;" x="790.528308" xlink:href="#C0_0_65e1b04384" y="221.46591"/>
    </g>
    <g clip-path="url(#pcfa4c4ca06)">
     <use style="fill:#66ccff;" x="786.47563" xlink:href="#C0_0_65e1b04384" y="220.736713"/>
    </g>
    <g clip-path="url(#pcfa4c4ca06)">
     <use style="fill:#66ccff;" x="774.928942" xlink:href="#C0_0_65e1b04384" y="234.288737"/>
    </g>
    <g clip-path="url(#pcfa4c4ca06)">
     <use style="fill:#66ccff;" x="790.597192" xlink:href="#C0_0_65e1b04384" y="235.443196"/>
    </g>
    <g clip-path="url(#pcfa4c4ca06)">
     <use style="fill:#66ccff;" x="789.326664" xlink:href="#C0_0_65e1b04384" y="247.465746"/>
    </g>
    <g clip-path="url(#pcfa4c4ca06)">
     <use style="fill:#66ccff;" x="790.446986" xlink:href="#C0_0_65e1b04384" y="232.682054"/>
    </g>
    <g clip-path="url(#pcfa4c4ca06)">
     <use style="fill:#66ccff;" x="795.875432" xlink:href="#C0_0_65e1b04384" y="248.47314"/>
    </g>
    <g clip-path="url(#pcfa4c4ca06)">
     <use style="fill:#66ccff;" x="789.112358" xlink:href="#C0_0_65e1b04384" y="245.892152"/>
    </g>
    <g clip-path="url(#pcfa4c4ca06)">
     <use style="fill:#66ccff;" x="774.601743" xlink:href="#C0_0_65e1b04384" y="238.062176"/>
    </g>
    <g clip-path="url(#pcfa4c4ca06)">
     <use style="fill:#66ccff;" x="777.015555" xlink:href="#C0_0_65e1b04384" y="201.596225"/>
    </g>
    <g clip-path="url(#pcfa4c4ca06)">
     <use style="fill:#66ccff;" x="782.814252" xlink:href="#C0_0_65e1b04384" y="220.60558"/>
    </g>
    <g clip-path="url(#pcfa4c4ca06)">
     <use style="fill:#66ccff;" x="783.345233" xlink:href="#C0_0_65e1b04384" y="202.936966"/>
    </g>
    <g clip-path="url(#pcfa4c4ca06)">
     <use style="fill:#66ccff;" x="786.146517" xlink:href="#C0_0_65e1b04384" y="235.162547"/>
    </g>
    <g clip-path="url(#pcfa4c4ca06)">
     <use style="fill:#66ccff;" x="814.30574" xlink:href="#C0_0_65e1b04384" y="263.096287"/>
    </g>
    <g clip-path="url(#pcfa4c4ca06)">
     <use style="fill:#66ccff;" x="815.692988" xlink:href="#C0_0_65e1b04384" y="263.851219"/>
    </g>
    <g clip-path="url(#pcfa4c4ca06)">
     <use style="fill:#66ccff;" x="795.90222" xlink:href="#C0_0_65e1b04384" y="269.454389"/>
    </g>
    <g clip-path="url(#pcfa4c4ca06)">
     <use style="fill:#66ccff;" x="887.364923" xlink:href="#C0_0_65e1b04384" y="339.170473"/>
    </g>
    <g clip-path="url(#pcfa4c4ca06)">
     <use style="fill:#66ccff;" x="753.312746" xlink:href="#C0_0_65e1b04384" y="198.754197"/>
    </g>
    <g clip-path="url(#pcfa4c4ca06)">
     <use style="fill:#66ccff;" x="789.127666" xlink:href="#C0_0_65e1b04384" y="244.01585"/>
    </g>
    <g clip-path="url(#pcfa4c4ca06)">
     <use style="fill:#66ccff;" x="790.869858" xlink:href="#C0_0_65e1b04384" y="243.781772"/>
    </g>
    <g clip-path="url(#pcfa4c4ca06)">
     <use style="fill:#66ccff;" x="810.479806" xlink:href="#C0_0_65e1b04384" y="243.322195"/>
    </g>
    <g clip-path="url(#pcfa4c4ca06)">
     <use style="fill:#66ccff;" x="787.642832" xlink:href="#C0_0_65e1b04384" y="242.735161"/>
    </g>
    <g clip-path="url(#pcfa4c4ca06)">
     <use style="fill:#66ccff;" x="836.021435" xlink:href="#C0_0_65e1b04384" y="243.420238"/>
    </g>
    <g clip-path="url(#pcfa4c4ca06)">
     <use style="fill:#66ccff;" x="757.005697" xlink:href="#C0_0_65e1b04384" y="197.339924"/>
    </g>
    <g clip-path="url(#pcfa4c4ca06)">
     <use style="fill:#66ccff;" x="761.940473" xlink:href="#C0_0_65e1b04384" y="196.909759"/>
    </g>
    <g clip-path="url(#pcfa4c4ca06)">
     <use style="fill:#66ccff;" x="764.891963" xlink:href="#C0_0_65e1b04384" y="192.528453"/>
    </g>
    <g clip-path="url(#pcfa4c4ca06)">
     <use style="fill:#66ccff;" x="754.481862" xlink:href="#C0_0_65e1b04384" y="187.947383"/>
    </g>
    <g clip-path="url(#pcfa4c4ca06)">
     <use style="fill:#66ccff;" x="767.080945" xlink:href="#C0_0_65e1b04384" y="180.725275"/>
    </g>
    <g clip-path="url(#pcfa4c4ca06)">
     <use style="fill:#66ccff;" x="789.396505" xlink:href="#C0_0_65e1b04384" y="177.562155"/>
    </g>
    <g clip-path="url(#pcfa4c4ca06)">
     <use style="fill:#66ccff;" x="781.184953" xlink:href="#C0_0_65e1b04384" y="170.905021"/>
    </g>
    <g clip-path="url(#pcfa4c4ca06)">
     <use style="fill:#66ccff;" x="791.01528" xlink:href="#C0_0_65e1b04384" y="125.16173"/>
    </g>
    <g clip-path="url(#pcfa4c4ca06)">
     <use style="fill:#66ccff;" x="756.507244" xlink:href="#C0_0_65e1b04384" y="182.927571"/>
    </g>
    <g clip-path="url(#pcfa4c4ca06)">
     <use style="fill:#66ccff;" x="793.078931" xlink:href="#C0_0_65e1b04384" y="250.905838"/>
    </g>
    <g clip-path="url(#pcfa4c4ca06)">
     <use style="fill:#66ccff;" x="794.558981" xlink:href="#C0_0_65e1b04384" y="262.277626"/>
    </g>
    <g clip-path="url(#pcfa4c4ca06)">
     <use style="fill:#66ccff;" x="781.747506" xlink:href="#C0_0_65e1b04384" y="195.933004"/>
    </g>
    <g clip-path="url(#pcfa4c4ca06)">
     <use style="fill:#66ccff;" x="784.195759" xlink:href="#C0_0_65e1b04384" y="203.073001"/>
    </g>
    <g clip-path="url(#pcfa4c4ca06)">
     <use style="fill:#66ccff;" x="822.062849" xlink:href="#C0_0_65e1b04384" y="224.220924"/>
    </g>
    <g clip-path="url(#pcfa4c4ca06)">
     <use style="fill:#66ccff;" x="822.473283" xlink:href="#C0_0_65e1b04384" y="245.117611"/>
    </g>
    <g clip-path="url(#pcfa4c4ca06)">
     <use style="fill:#66ccff;" x="824.022217" xlink:href="#C0_0_65e1b04384" y="239.513215"/>
    </g>
    <g clip-path="url(#pcfa4c4ca06)">
     <use style="fill:#66ccff;" x="822.321164" xlink:href="#C0_0_65e1b04384" y="243.922709"/>
    </g>
    <g clip-path="url(#pcfa4c4ca06)">
     <use style="fill:#66ccff;" x="790.96266" xlink:href="#C0_0_65e1b04384" y="212.611381"/>
    </g>
    <g clip-path="url(#pcfa4c4ca06)">
     <use style="fill:#66ccff;" x="793.174603" xlink:href="#C0_0_65e1b04384" y="255.897463"/>
    </g>
   </g>
   <g id="LineCollection_1">
    <path clip-path="url(#pcfa4c4ca06)" d="M 1101.682317 423.692308 
L 1058.981864 410.816782 
L 942.577397 349.548348 
L 933.975502 344.974631 
L 928.449471 342.382614 
L 921.289357 340.887455 
L 916.230207 340.588423 
L 906.609402 341.478165 
L 897.783634 341.386249 
L 889.923199 340.188897 
L 887.364923 339.170473 
" style="fill:none;stroke:#999999;"/>
    <path clip-path="url(#pcfa4c4ca06)" d="M 156.930959 8.307692 
L 305.244046 110.094939 
L 324.262739 119.150455 
L 571.792767 186.890968 
L 607.496706 193.664529 
L 652.891291 198.696597 
L 656.135538 199.05568 
L 679.148549 200.395196 
L 704.042477 200.118224 
L 725.503684 199.69051 
L 743.081552 199.507905 
L 746.293271 199.46256 
L 748.54731 199.41844 
L 753.312746 198.754197 
" style="fill:none;stroke:#999999;"/>
    <path clip-path="url(#pcfa4c4ca06)" d="M 772.670119 200.417256 
L 777.015555 201.596225 
" style="fill:none;stroke:#999999;"/>
    <path clip-path="url(#pcfa4c4ca06)" d="M 772.670119 200.417256 
L 771.94875 199.476041 
L 770.920273 198.053188 
L 768.716941 195.816577 
L 766.007502 193.349565 
L 764.891963 192.528453 
" style="fill:none;stroke:#999999;"/>
    <path clip-path="url(#pcfa4c4ca06)" d="M 772.670119 200.417256 
L 768.983866 199.55325 
L 766.141443 198.854692 
" style="fill:none;stroke:#999999;"/>
    <path clip-path="url(#pcfa4c4ca06)" d="M 786.151301 203.387965 
L 786.302463 204.088974 
" style="fill:none;stroke:#999999;"/>
    <path clip-path="url(#pcfa4c4ca06)" d="M 786.151301 203.387965 
L 784.195759 203.073001 
" style="fill:none;stroke:#999999;"/>
    <path clip-path="url(#pcfa4c4ca06)" d="M 786.151301 203.387965 
L 787.825566 203.696801 
L 788.788986 204.460313 
" style="fill:none;stroke:#999999;"/>
    <path clip-path="url(#pcfa4c4ca06)" d="M 796.276299 213.559949 
L 792.349908 215.61518 
" style="fill:none;stroke:#999999;"/>
    <path clip-path="url(#pcfa4c4ca06)" d="M 796.276299 213.559949 
L 788.788986 204.460313 
" style="fill:none;stroke:#999999;"/>
    <path clip-path="url(#pcfa4c4ca06)" d="M 796.276299 213.559949 
L 797.485596 215.037951 
" style="fill:none;stroke:#999999;"/>
    <path clip-path="url(#pcfa4c4ca06)" d="M 766.141443 198.854692 
L 763.978293 197.811757 
L 761.940473 196.909759 
" style="fill:none;stroke:#999999;"/>
    <path clip-path="url(#pcfa4c4ca06)" d="M 766.141443 198.854692 
L 763.848178 198.494383 
L 761.690768 198.266432 
L 759.259736 198.266432 
L 757.301324 198.320356 
L 755.176442 198.49806 
L 753.312746 198.754197 
" style="fill:none;stroke:#999999;"/>
    <path clip-path="url(#pcfa4c4ca06)" d="M 766.141443 198.854692 
L 768.983866 199.55325 
L 772.670119 200.417256 
" style="fill:none;stroke:#999999;"/>
    <path clip-path="url(#pcfa4c4ca06)" d="M 822.574696 246.104171 
L 822.473283 245.117611 
" style="fill:none;stroke:#999999;"/>
    <path clip-path="url(#pcfa4c4ca06)" d="M 822.574696 246.104171 
L 822.762213 248.52829 
L 823.227181 251.796805 
L 824.565636 256.410965 
L 826.669469 261.842559 
L 829.475538 267.682258 
L 831.866388 272.541525 
L 832.75901 275.605376 
L 832.905389 276.968177 
" style="fill:none;stroke:#999999;"/>
    <path clip-path="url(#pcfa4c4ca06)" d="M 822.574696 246.104171 
L 821.692597 247.437559 
L 817.847528 258.147555 
L 815.692988 263.851219 
" style="fill:none;stroke:#999999;"/>
    <path clip-path="url(#pcfa4c4ca06)" d="M 758.722057 189.558969 
L 754.481862 187.947383 
" style="fill:none;stroke:#999999;"/>
    <path clip-path="url(#pcfa4c4ca06)" d="M 758.722057 189.558969 
L 761.698422 190.610482 
L 763.706583 191.655868 
" style="fill:none;stroke:#999999;"/>
    <path clip-path="url(#pcfa4c4ca06)" d="M 758.722057 189.558969 
L 757.202781 193.001511 
L 756.71868 196.388905 
L 757.005697 197.339924 
" style="fill:none;stroke:#999999;"/>
    <path clip-path="url(#pcfa4c4ca06)" d="M 803.246024 236.237346 
L 798.866147 229.229707 
" style="fill:none;stroke:#999999;"/>
    <path clip-path="url(#pcfa4c4ca06)" d="M 803.246024 236.237346 
L 804.505072 236.807223 
" style="fill:none;stroke:#999999;"/>
    <path clip-path="url(#pcfa4c4ca06)" d="M 803.246024 236.237346 
L 799.340682 241.860125 
L 796.158622 247.379958 
L 795.875432 248.47314 
" style="fill:none;stroke:#999999;"/>
    <path clip-path="url(#pcfa4c4ca06)" d="M 788.788986 204.460313 
L 796.276299 213.559949 
" style="fill:none;stroke:#999999;"/>
    <path clip-path="url(#pcfa4c4ca06)" d="M 788.788986 204.460313 
L 789.552451 204.054659 
L 790.159013 203.494587 
L 790.486212 202.59259 
L 790.625894 200.75673 
L 790.688081 194.254014 
L 790.688081 188.699865 
L 790.486212 185.308795 
L 789.972452 181.871155 
L 789.396505 177.562155 
" style="fill:none;stroke:#999999;"/>
    <path clip-path="url(#pcfa4c4ca06)" d="M 788.788986 204.460313 
L 787.825566 203.696801 
L 786.151301 203.387965 
" style="fill:none;stroke:#999999;"/>
    <path clip-path="url(#pcfa4c4ca06)" d="M 812.221041 231.670983 
L 804.505072 236.807223 
" style="fill:none;stroke:#999999;"/>
    <path clip-path="url(#pcfa4c4ca06)" d="M 812.221041 231.670983 
L 818.443567 226.773724 
L 820.189586 225.452592 
L 822.062849 224.220924 
" style="fill:none;stroke:#999999;"/>
    <path clip-path="url(#pcfa4c4ca06)" d="M 812.221041 231.670983 
L 810.750558 230.101066 
L 800.286881 218.46211 
L 797.485596 215.037951 
" style="fill:none;stroke:#999999;"/>
    <path clip-path="url(#pcfa4c4ca06)" d="M 812.221041 231.670983 
L 814.29426 233.624494 
L 818.201516 237.269251 
L 818.588988 237.630786 
L 820.012592 239.052412 
L 820.593323 239.698272 
" style="fill:none;stroke:#999999;"/>
    <path clip-path="url(#pcfa4c4ca06)" d="M 792.349908 215.61518 
L 796.276299 213.559949 
" style="fill:none;stroke:#999999;"/>
    <path clip-path="url(#pcfa4c4ca06)" d="M 792.349908 215.61518 
L 790.96266 212.611381 
" style="fill:none;stroke:#999999;"/>
    <path clip-path="url(#pcfa4c4ca06)" d="M 792.349908 215.61518 
L 796.003633 222.639977 
L 798.866147 229.229707 
" style="fill:none;stroke:#999999;"/>
    <path clip-path="url(#pcfa4c4ca06)" d="M 803.206799 255.843539 
L 810.479806 243.322195 
" style="fill:none;stroke:#999999;"/>
    <path clip-path="url(#pcfa4c4ca06)" d="M 803.206799 255.843539 
L 801.614812 254.899873 
L 800.081185 254.513828 
L 796.436071 252.323788 
L 795.529098 251.641162 
" style="fill:none;stroke:#999999;"/>
    <path clip-path="url(#pcfa4c4ca06)" d="M 803.206799 255.843539 
L 809.8101 260.246906 
L 814.30574 263.096287 
" style="fill:none;stroke:#999999;"/>
    <path clip-path="url(#pcfa4c4ca06)" d="M 832.905389 276.968177 
L 828.040453 275.11516 
L 824.629736 273.031741 
L 820.931046 268.948241 
L 818.253179 265.926059 
L 815.692988 263.851219 
" style="fill:none;stroke:#999999;"/>
    <path clip-path="url(#pcfa4c4ca06)" d="M 832.905389 276.968177 
L 832.75901 275.605376 
L 831.866388 272.541525 
L 829.475538 267.682258 
L 826.669469 261.842559 
L 824.565636 256.410965 
L 823.227181 251.796805 
L 822.762213 248.52829 
L 822.574696 246.104171 
" style="fill:none;stroke:#999999;"/>
    <path clip-path="url(#pcfa4c4ca06)" d="M 832.905389 276.968177 
L 833.333044 280.954859 
L 834.097466 288.428204 
L 834.448583 290.387843 
L 835.468449 292.429593 
L 840.107598 297.041301 
L 850.046992 307.436333 
L 857.894032 315.376609 
L 865.795606 323.2409 
L 874.045427 331.016953 
L 880.661166 336.50002 
L 887.364923 339.170473 
" style="fill:none;stroke:#999999;"/>
    <path clip-path="url(#pcfa4c4ca06)" d="M 763.706583 191.655868 
L 764.891963 192.528453 
" style="fill:none;stroke:#999999;"/>
    <path clip-path="url(#pcfa4c4ca06)" d="M 763.706583 191.655868 
L 767.080945 180.725275 
" style="fill:none;stroke:#999999;"/>
    <path clip-path="url(#pcfa4c4ca06)" d="M 763.706583 191.655868 
L 761.698422 190.610482 
L 758.722057 189.558969 
" style="fill:none;stroke:#999999;"/>
    <path clip-path="url(#pcfa4c4ca06)" d="M 804.505072 236.807223 
L 803.246024 236.237346 
" style="fill:none;stroke:#999999;"/>
    <path clip-path="url(#pcfa4c4ca06)" d="M 804.505072 236.807223 
L 822.473283 245.117611 
" style="fill:none;stroke:#999999;"/>
    <path clip-path="url(#pcfa4c4ca06)" d="M 804.505072 236.807223 
L 812.221041 231.670983 
" style="fill:none;stroke:#999999;"/>
    <path clip-path="url(#pcfa4c4ca06)" d="M 820.593323 239.698272 
L 822.332645 239.586748 
L 824.022217 239.513215 
" style="fill:none;stroke:#999999;"/>
    <path clip-path="url(#pcfa4c4ca06)" d="M 820.593323 239.698272 
L 820.012592 239.052412 
L 818.588988 237.630786 
L 818.201516 237.269251 
L 814.29426 233.624494 
L 812.221041 231.670983 
" style="fill:none;stroke:#999999;"/>
    <path clip-path="url(#pcfa4c4ca06)" d="M 820.593323 239.698272 
L 821.743304 241.688549 
L 822.283852 243.627354 
L 822.321164 243.922709 
" style="fill:none;stroke:#999999;"/>
    <path clip-path="url(#pcfa4c4ca06)" d="M 786.302463 204.088974 
L 786.151301 203.387965 
" style="fill:none;stroke:#999999;"/>
    <path clip-path="url(#pcfa4c4ca06)" d="M 786.302463 204.088974 
L 785.826015 205.677274 
L 786.766474 209.869848 
L 786.798045 213.563626 
L 786.47563 220.736713 
" style="fill:none;stroke:#999999;"/>
    <path clip-path="url(#pcfa4c4ca06)" d="M 786.302463 204.088974 
L 787.074538 205.703011 
L 789.576369 210.00098 
L 790.96266 212.611381 
" style="fill:none;stroke:#999999;"/>
    <path clip-path="url(#pcfa4c4ca06)" d="M 798.866147 229.229707 
L 803.246024 236.237346 
" style="fill:none;stroke:#999999;"/>
    <path clip-path="url(#pcfa4c4ca06)" d="M 798.866147 229.229707 
L 790.446986 232.682054 
" style="fill:none;stroke:#999999;"/>
    <path clip-path="url(#pcfa4c4ca06)" d="M 798.866147 229.229707 
L 796.003633 222.639977 
L 792.349908 215.61518 
" style="fill:none;stroke:#999999;"/>
    <path clip-path="url(#pcfa4c4ca06)" d="M 795.529098 251.641162 
L 793.078931 250.905838 
" style="fill:none;stroke:#999999;"/>
    <path clip-path="url(#pcfa4c4ca06)" d="M 795.529098 251.641162 
L 796.709694 250.182769 
L 796.941221 248.873892 
L 795.875432 248.47314 
" style="fill:none;stroke:#999999;"/>
    <path clip-path="url(#pcfa4c4ca06)" d="M 795.529098 251.641162 
L 796.436071 252.323788 
L 800.081185 254.513828 
L 801.614812 254.899873 
L 803.206799 255.843539 
" style="fill:none;stroke:#999999;"/>
    <path clip-path="url(#pcfa4c4ca06)" d="M 790.795233 247.72311 
L 795.875432 248.47314 
" style="fill:none;stroke:#999999;"/>
    <path clip-path="url(#pcfa4c4ca06)" d="M 790.795233 247.72311 
L 789.326664 247.465746 
" style="fill:none;stroke:#999999;"/>
    <path clip-path="url(#pcfa4c4ca06)" d="M 790.795233 247.72311 
L 790.869858 243.781772 
" style="fill:none;stroke:#999999;"/>
    <path clip-path="url(#pcfa4c4ca06)" d="M 797.485596 215.037951 
L 796.276299 213.559949 
" style="fill:none;stroke:#999999;"/>
    <path clip-path="url(#pcfa4c4ca06)" d="M 797.485596 215.037951 
L 805.118331 213.92516 
L 811.91489 211.66649 
L 820.434507 208.708035 
L 827.380315 205.532661 
L 828.628838 205.413783 
L 832.957052 208.947016 
L 833.367486 211.654234 
L 831.878825 213.963152 
L 829.40474 221.535765 
L 824.316888 238.270518 
L 824.022217 239.513215 
" style="fill:none;stroke:#999999;"/>
    <path clip-path="url(#pcfa4c4ca06)" d="M 797.485596 215.037951 
L 800.286881 218.46211 
L 810.750558 230.101066 
L 812.221041 231.670983 
" style="fill:none;stroke:#999999;"/>
    <path clip-path="url(#pcfa4c4ca06)" d="M 782.26892 234.943176 
L 786.146517 235.162547 
" style="fill:none;stroke:#999999;"/>
    <path clip-path="url(#pcfa4c4ca06)" d="M 782.26892 234.943176 
L 774.928942 234.288737 
" style="fill:none;stroke:#999999;"/>
    <path clip-path="url(#pcfa4c4ca06)" d="M 782.26892 234.943176 
L 782.814252 220.60558 
" style="fill:none;stroke:#999999;"/>
    <path clip-path="url(#pcfa4c4ca06)" d="M 790.528308 221.46591 
L 786.47563 220.736713 
" style="fill:none;stroke:#999999;"/>
    <path clip-path="url(#pcfa4c4ca06)" d="M 790.528308 221.46591 
L 790.96266 212.611381 
" style="fill:none;stroke:#999999;"/>
    <path clip-path="url(#pcfa4c4ca06)" d="M 790.528308 221.46591 
L 790.446986 232.682054 
" style="fill:none;stroke:#999999;"/>
    <path clip-path="url(#pcfa4c4ca06)" d="M 786.47563 220.736713 
L 790.528308 221.46591 
" style="fill:none;stroke:#999999;"/>
    <path clip-path="url(#pcfa4c4ca06)" d="M 786.47563 220.736713 
L 782.814252 220.60558 
" style="fill:none;stroke:#999999;"/>
    <path clip-path="url(#pcfa4c4ca06)" d="M 786.47563 220.736713 
L 786.146517 235.162547 
" style="fill:none;stroke:#999999;"/>
    <path clip-path="url(#pcfa4c4ca06)" d="M 786.47563 220.736713 
L 786.798045 213.563626 
L 786.766474 209.869848 
L 785.826015 205.677274 
L 786.302463 204.088974 
" style="fill:none;stroke:#999999;"/>
    <path clip-path="url(#pcfa4c4ca06)" d="M 774.928942 234.288737 
L 782.26892 234.943176 
" style="fill:none;stroke:#999999;"/>
    <path clip-path="url(#pcfa4c4ca06)" d="M 774.928942 234.288737 
L 774.962427 233.424731 
L 777.015555 201.596225 
" style="fill:none;stroke:#999999;"/>
    <path clip-path="url(#pcfa4c4ca06)" d="M 774.928942 234.288737 
L 774.859101 235.786347 
L 774.601743 238.062176 
" style="fill:none;stroke:#999999;"/>
    <path clip-path="url(#pcfa4c4ca06)" d="M 790.597192 235.443196 
L 786.146517 235.162547 
" style="fill:none;stroke:#999999;"/>
    <path clip-path="url(#pcfa4c4ca06)" d="M 790.597192 235.443196 
L 790.446986 232.682054 
" style="fill:none;stroke:#999999;"/>
    <path clip-path="url(#pcfa4c4ca06)" d="M 790.597192 235.443196 
L 790.869858 243.781772 
" style="fill:none;stroke:#999999;"/>
    <path clip-path="url(#pcfa4c4ca06)" d="M 789.326664 247.465746 
L 790.795233 247.72311 
" style="fill:none;stroke:#999999;"/>
    <path clip-path="url(#pcfa4c4ca06)" d="M 789.326664 247.465746 
L 789.112358 245.892152 
" style="fill:none;stroke:#999999;"/>
    <path clip-path="url(#pcfa4c4ca06)" d="M 789.326664 247.465746 
L 789.359192 249.991585 
L 793.078931 250.905838 
" style="fill:none;stroke:#999999;"/>
    <path clip-path="url(#pcfa4c4ca06)" d="M 790.446986 232.682054 
L 790.528308 221.46591 
" style="fill:none;stroke:#999999;"/>
    <path clip-path="url(#pcfa4c4ca06)" d="M 790.446986 232.682054 
L 790.597192 235.443196 
" style="fill:none;stroke:#999999;"/>
    <path clip-path="url(#pcfa4c4ca06)" d="M 790.446986 232.682054 
L 798.866147 229.229707 
" style="fill:none;stroke:#999999;"/>
    <path clip-path="url(#pcfa4c4ca06)" d="M 795.875432 248.47314 
L 790.795233 247.72311 
" style="fill:none;stroke:#999999;"/>
    <path clip-path="url(#pcfa4c4ca06)" d="M 795.875432 248.47314 
L 796.941221 248.873892 
L 796.709694 250.182769 
L 795.529098 251.641162 
" style="fill:none;stroke:#999999;"/>
    <path clip-path="url(#pcfa4c4ca06)" d="M 795.875432 248.47314 
L 796.158622 247.379958 
L 799.340682 241.860125 
L 803.246024 236.237346 
" style="fill:none;stroke:#999999;"/>
    <path clip-path="url(#pcfa4c4ca06)" d="M 789.112358 245.892152 
L 789.326664 247.465746 
" style="fill:none;stroke:#999999;"/>
    <path clip-path="url(#pcfa4c4ca06)" d="M 789.112358 245.892152 
L 789.127666 244.01585 
" style="fill:none;stroke:#999999;"/>
    <path clip-path="url(#pcfa4c4ca06)" d="M 789.112358 245.892152 
L 786.98365 245.448507 
L 784.957311 244.759753 
L 782.984548 243.972956 
L 774.601743 238.062176 
" style="fill:none;stroke:#999999;"/>
    <path clip-path="url(#pcfa4c4ca06)" d="M 774.601743 238.062176 
L 774.859101 235.786347 
L 774.928942 234.288737 
" style="fill:none;stroke:#999999;"/>
    <path clip-path="url(#pcfa4c4ca06)" d="M 774.601743 238.062176 
L 773.217365 240.304914 
L 768.700676 243.53789 
L 766.032376 245.79656 
L 761.875416 251.377671 
L 755.972436 256.869317 
L 755.767697 257.551942 
L 756.522551 258.227215 
L 758.106885 258.97602 
L 759.000464 259.808162 
L 759.257822 262.566853 
L 760.848852 269.456841 
L 764.030912 273.294007 
L 766.442811 274.586952 
L 770.035305 271.035336 
L 774.346298 267.647943 
L 778.75966 267.196944 
L 784.815716 271.508395 
L 786.664104 272.329507 
L 791.898335 272.226562 
L 795.90222 269.454389 
" style="fill:none;stroke:#999999;"/>
    <path clip-path="url(#pcfa4c4ca06)" d="M 774.601743 238.062176 
L 782.984548 243.972956 
L 784.957311 244.759753 
L 786.98365 245.448507 
L 789.112358 245.892152 
" style="fill:none;stroke:#999999;"/>
    <path clip-path="url(#pcfa4c4ca06)" d="M 777.015555 201.596225 
L 772.670119 200.417256 
" style="fill:none;stroke:#999999;"/>
    <path clip-path="url(#pcfa4c4ca06)" d="M 777.015555 201.596225 
L 783.345233 202.936966 
" style="fill:none;stroke:#999999;"/>
    <path clip-path="url(#pcfa4c4ca06)" d="M 777.015555 201.596225 
L 774.962427 233.424731 
L 774.928942 234.288737 
" style="fill:none;stroke:#999999;"/>
    <path clip-path="url(#pcfa4c4ca06)" d="M 782.814252 220.60558 
L 786.47563 220.736713 
" style="fill:none;stroke:#999999;"/>
    <path clip-path="url(#pcfa4c4ca06)" d="M 782.814252 220.60558 
L 783.345233 202.936966 
" style="fill:none;stroke:#999999;"/>
    <path clip-path="url(#pcfa4c4ca06)" d="M 782.814252 220.60558 
L 782.26892 234.943176 
" style="fill:none;stroke:#999999;"/>
    <path clip-path="url(#pcfa4c4ca06)" d="M 783.345233 202.936966 
L 782.814252 220.60558 
" style="fill:none;stroke:#999999;"/>
    <path clip-path="url(#pcfa4c4ca06)" d="M 783.345233 202.936966 
L 777.015555 201.596225 
" style="fill:none;stroke:#999999;"/>
    <path clip-path="url(#pcfa4c4ca06)" d="M 783.345233 202.936966 
L 784.195759 203.073001 
" style="fill:none;stroke:#999999;"/>
    <path clip-path="url(#pcfa4c4ca06)" d="M 786.146517 235.162547 
L 790.597192 235.443196 
" style="fill:none;stroke:#999999;"/>
    <path clip-path="url(#pcfa4c4ca06)" d="M 786.146517 235.162547 
L 782.26892 234.943176 
" style="fill:none;stroke:#999999;"/>
    <path clip-path="url(#pcfa4c4ca06)" d="M 786.146517 235.162547 
L 786.47563 220.736713 
" style="fill:none;stroke:#999999;"/>
    <path clip-path="url(#pcfa4c4ca06)" d="M 814.30574 263.096287 
L 815.692988 263.851219 
" style="fill:none;stroke:#999999;"/>
    <path clip-path="url(#pcfa4c4ca06)" d="M 814.30574 263.096287 
L 813.762322 263.809551 
L 806.185077 269.536501 
L 805.858834 269.782834 
L 795.90222 269.454389 
" style="fill:none;stroke:#999999;"/>
    <path clip-path="url(#pcfa4c4ca06)" d="M 814.30574 263.096287 
L 809.8101 260.246906 
L 803.206799 255.843539 
" style="fill:none;stroke:#999999;"/>
    <path clip-path="url(#pcfa4c4ca06)" d="M 815.692988 263.851219 
L 814.30574 263.096287 
" style="fill:none;stroke:#999999;"/>
    <path clip-path="url(#pcfa4c4ca06)" d="M 815.692988 263.851219 
L 817.847528 258.147555 
L 821.692597 247.437559 
L 822.574696 246.104171 
" style="fill:none;stroke:#999999;"/>
    <path clip-path="url(#pcfa4c4ca06)" d="M 815.692988 263.851219 
L 818.253179 265.926059 
L 820.931046 268.948241 
L 824.629736 273.031741 
L 828.040453 275.11516 
L 832.905389 276.968177 
" style="fill:none;stroke:#999999;"/>
    <path clip-path="url(#pcfa4c4ca06)" d="M 795.90222 269.454389 
L 805.858834 269.782834 
L 806.185077 269.536501 
L 813.762322 263.809551 
L 814.30574 263.096287 
" style="fill:none;stroke:#999999;"/>
    <path clip-path="url(#pcfa4c4ca06)" d="M 795.90222 269.454389 
L 791.898335 272.226562 
L 786.664104 272.329507 
L 784.815716 271.508395 
L 778.75966 267.196944 
L 774.346298 267.647943 
L 770.035305 271.035336 
L 766.442811 274.586952 
L 764.030912 273.294007 
L 760.848852 269.456841 
L 759.257822 262.566853 
L 759.000464 259.808162 
L 758.106885 258.97602 
L 756.522551 258.227215 
L 755.767697 257.551942 
L 755.972436 256.869317 
L 761.875416 251.377671 
L 766.032376 245.79656 
L 768.700676 243.53789 
L 773.217365 240.304914 
L 774.601743 238.062176 
" style="fill:none;stroke:#999999;"/>
    <path clip-path="url(#pcfa4c4ca06)" d="M 795.90222 269.454389 
L 795.972061 268.258262 
L 796.073473 267.242289 
L 796.446595 265.684628 
L 796.242813 264.905184 
L 795.464041 264.126966 
L 794.558981 262.277626 
" style="fill:none;stroke:#999999;"/>
    <path clip-path="url(#pcfa4c4ca06)" d="M 887.364923 339.170473 
L 880.661166 336.50002 
L 874.045427 331.016953 
L 865.795606 323.2409 
L 857.894032 315.376609 
L 850.046992 307.436333 
L 840.107598 297.041301 
L 835.468449 292.429593 
L 834.448583 290.387843 
L 834.097466 288.428204 
L 833.333044 280.954859 
L 832.905389 276.968177 
" style="fill:none;stroke:#999999;"/>
    <path clip-path="url(#pcfa4c4ca06)" d="M 887.364923 339.170473 
L 889.923199 340.188897 
L 897.783634 341.386249 
L 906.609402 341.478165 
L 916.230207 340.588423 
L 921.289357 340.887455 
L 928.449471 342.382614 
L 933.975502 344.974631 
L 942.577397 349.548348 
L 1058.981864 410.816782 
L 1101.682317 423.692308 
" style="fill:none;stroke:#999999;"/>
    <path clip-path="url(#pcfa4c4ca06)" d="M 753.312746 198.754197 
L 755.064506 197.936762 
L 757.005697 197.339924 
" style="fill:none;stroke:#999999;"/>
    <path clip-path="url(#pcfa4c4ca06)" d="M 753.312746 198.754197 
L 748.54731 199.41844 
L 746.293271 199.46256 
L 743.081552 199.507905 
L 725.503684 199.69051 
L 704.042477 200.118224 
L 679.148549 200.395196 
L 656.135538 199.05568 
L 652.891291 198.696597 
L 607.496706 193.664529 
L 571.792767 186.890968 
L 324.262739 119.150455 
L 305.244046 110.094939 
L 156.930959 8.307692 
" style="fill:none;stroke:#999999;"/>
    <path clip-path="url(#pcfa4c4ca06)" d="M 753.312746 198.754197 
L 755.176442 198.49806 
L 757.301324 198.320356 
L 759.259736 198.266432 
L 761.690768 198.266432 
L 763.848178 198.494383 
L 766.141443 198.854692 
" style="fill:none;stroke:#999999;"/>
    <path clip-path="url(#pcfa4c4ca06)" d="M 789.127666 244.01585 
L 789.112358 245.892152 
" style="fill:none;stroke:#999999;"/>
    <path clip-path="url(#pcfa4c4ca06)" d="M 789.127666 244.01585 
L 790.869858 243.781772 
" style="fill:none;stroke:#999999;"/>
    <path clip-path="url(#pcfa4c4ca06)" d="M 789.127666 244.01585 
L 787.67536 244.073451 
L 787.642832 242.735161 
" style="fill:none;stroke:#999999;"/>
    <path clip-path="url(#pcfa4c4ca06)" d="M 790.869858 243.781772 
L 790.597192 235.443196 
" style="fill:none;stroke:#999999;"/>
    <path clip-path="url(#pcfa4c4ca06)" d="M 790.869858 243.781772 
L 790.795233 247.72311 
" style="fill:none;stroke:#999999;"/>
    <path clip-path="url(#pcfa4c4ca06)" d="M 790.869858 243.781772 
L 789.127666 244.01585 
" style="fill:none;stroke:#999999;"/>
    <path clip-path="url(#pcfa4c4ca06)" d="M 810.479806 243.322195 
L 803.206799 255.843539 
" style="fill:none;stroke:#999999;"/>
    <path clip-path="url(#pcfa4c4ca06)" d="M 787.642832 242.735161 
L 787.67536 244.073451 
L 789.127666 244.01585 
" style="fill:none;stroke:#999999;"/>
    <path clip-path="url(#pcfa4c4ca06)" d="M 836.021435 243.420238 
L 824.022217 239.513215 
" style="fill:none;stroke:#999999;"/>
    <path clip-path="url(#pcfa4c4ca06)" d="M 757.005697 197.339924 
L 759.371672 196.828874 
L 760.711084 196.707545 
L 761.940473 196.909759 
" style="fill:none;stroke:#999999;"/>
    <path clip-path="url(#pcfa4c4ca06)" d="M 757.005697 197.339924 
L 755.064506 197.936762 
L 753.312746 198.754197 
" style="fill:none;stroke:#999999;"/>
    <path clip-path="url(#pcfa4c4ca06)" d="M 757.005697 197.339924 
L 756.71868 196.388905 
L 757.202781 193.001511 
L 758.722057 189.558969 
" style="fill:none;stroke:#999999;"/>
    <path clip-path="url(#pcfa4c4ca06)" d="M 761.940473 196.909759 
L 763.978293 197.811757 
L 766.141443 198.854692 
" style="fill:none;stroke:#999999;"/>
    <path clip-path="url(#pcfa4c4ca06)" d="M 761.940473 196.909759 
L 760.711084 196.707545 
L 759.371672 196.828874 
L 757.005697 197.339924 
" style="fill:none;stroke:#999999;"/>
    <path clip-path="url(#pcfa4c4ca06)" d="M 761.940473 196.909759 
L 763.340158 196.179337 
L 764.149546 195.0739 
L 764.891963 192.528453 
" style="fill:none;stroke:#999999;"/>
    <path clip-path="url(#pcfa4c4ca06)" d="M 764.891963 192.528453 
L 763.706583 191.655868 
" style="fill:none;stroke:#999999;"/>
    <path clip-path="url(#pcfa4c4ca06)" d="M 764.891963 192.528453 
L 766.007502 193.349565 
L 768.716941 195.816577 
L 770.920273 198.053188 
L 771.94875 199.476041 
L 772.670119 200.417256 
" style="fill:none;stroke:#999999;"/>
    <path clip-path="url(#pcfa4c4ca06)" d="M 764.891963 192.528453 
L 764.149546 195.0739 
L 763.340158 196.179337 
L 761.940473 196.909759 
" style="fill:none;stroke:#999999;"/>
    <path clip-path="url(#pcfa4c4ca06)" d="M 754.481862 187.947383 
L 758.722057 189.558969 
" style="fill:none;stroke:#999999;"/>
    <path clip-path="url(#pcfa4c4ca06)" d="M 754.481862 187.947383 
L 756.507244 182.927571 
" style="fill:none;stroke:#999999;"/>
    <path clip-path="url(#pcfa4c4ca06)" d="M 767.080945 180.725275 
L 763.706583 191.655868 
" style="fill:none;stroke:#999999;"/>
    <path clip-path="url(#pcfa4c4ca06)" d="M 789.396505 177.562155 
L 788.709578 172.863434 
L 787.411305 163.777278 
L 787.235268 160.983047 
L 786.686109 158.343233 
L 786.290026 156.099269 
L 786.180003 154.053842 
L 786.35604 150.731402 
L 787.411305 140.567997 
L 788.29149 134.51873 
L 788.951629 131.899751 
L 789.897827 128.490298 
L 791.01528 125.16173 
" style="fill:none;stroke:#999999;"/>
    <path clip-path="url(#pcfa4c4ca06)" d="M 789.396505 177.562155 
L 789.972452 181.871155 
L 790.486212 185.308795 
L 790.688081 188.699865 
L 790.688081 194.254014 
L 790.625894 200.75673 
L 790.486212 202.59259 
L 790.159013 203.494587 
L 789.552451 204.054659 
L 788.788986 204.460313 
" style="fill:none;stroke:#999999;"/>
    <path clip-path="url(#pcfa4c4ca06)" d="M 789.396505 177.562155 
L 787.575861 177.763144 
L 780.216749 178.090363 
L 779.625494 177.841578 
L 779.423626 177.234936 
L 779.843627 175.912578 
L 780.503766 174.27158 
L 781.184953 170.905021 
" style="fill:none;stroke:#999999;"/>
    <path clip-path="url(#pcfa4c4ca06)" d="M 781.184953 170.905021 
L 780.503766 174.27158 
L 779.843627 175.912578 
L 779.423626 177.234936 
L 779.625494 177.841578 
L 780.216749 178.090363 
L 787.575861 177.763144 
L 789.396505 177.562155 
" style="fill:none;stroke:#999999;"/>
    <path clip-path="url(#pcfa4c4ca06)" d="M 791.01528 125.16173 
L 789.897827 128.490298 
L 788.951629 131.899751 
L 788.29149 134.51873 
L 787.411305 140.567997 
L 786.35604 150.731402 
L 786.180003 154.053842 
L 786.290026 156.099269 
L 786.686109 158.343233 
L 787.235268 160.983047 
L 787.411305 163.777278 
L 788.709578 172.863434 
L 789.396505 177.562155 
" style="fill:none;stroke:#999999;"/>
    <path clip-path="url(#pcfa4c4ca06)" d="M 756.507244 182.927571 
L 754.481862 187.947383 
" style="fill:none;stroke:#999999;"/>
    <path clip-path="url(#pcfa4c4ca06)" d="M 793.078931 250.905838 
L 795.529098 251.641162 
" style="fill:none;stroke:#999999;"/>
    <path clip-path="url(#pcfa4c4ca06)" d="M 793.078931 250.905838 
L 793.174603 255.897463 
" style="fill:none;stroke:#999999;"/>
    <path clip-path="url(#pcfa4c4ca06)" d="M 793.078931 250.905838 
L 789.359192 249.991585 
L 789.326664 247.465746 
" style="fill:none;stroke:#999999;"/>
    <path clip-path="url(#pcfa4c4ca06)" d="M 794.558981 262.277626 
L 795.464041 264.126966 
L 796.242813 264.905184 
L 796.446595 265.684628 
L 796.073473 267.242289 
L 795.972061 268.258262 
L 795.90222 269.454389 
" style="fill:none;stroke:#999999;"/>
    <path clip-path="url(#pcfa4c4ca06)" d="M 794.558981 262.277626 
L 793.647224 259.628008 
L 793.186084 256.523714 
L 793.174603 255.897463 
" style="fill:none;stroke:#999999;"/>
    <path clip-path="url(#pcfa4c4ca06)" d="M 794.558981 262.277626 
L 792.924898 261.485927 
L 791.299426 260.368234 
L 790.791407 259.555701 
L 790.723479 258.741942 
L 791.130086 257.794599 
L 791.840932 256.575187 
L 792.518291 256.507782 
L 793.174603 255.897463 
" style="fill:none;stroke:#999999;"/>
    <path clip-path="url(#pcfa4c4ca06)" d="M 781.747506 195.933004 
L 784.391888 200.327791 
L 784.353619 201.766575 
L 784.195759 203.073001 
" style="fill:none;stroke:#999999;"/>
    <path clip-path="url(#pcfa4c4ca06)" d="M 784.195759 203.073001 
L 783.345233 202.936966 
" style="fill:none;stroke:#999999;"/>
    <path clip-path="url(#pcfa4c4ca06)" d="M 784.195759 203.073001 
L 786.151301 203.387965 
" style="fill:none;stroke:#999999;"/>
    <path clip-path="url(#pcfa4c4ca06)" d="M 784.195759 203.073001 
L 784.353619 201.766575 
L 784.391888 200.327791 
L 781.747506 195.933004 
" style="fill:none;stroke:#999999;"/>
    <path clip-path="url(#pcfa4c4ca06)" d="M 822.062849 224.220924 
L 820.189586 225.452592 
L 818.443567 226.773724 
L 812.221041 231.670983 
" style="fill:none;stroke:#999999;"/>
    <path clip-path="url(#pcfa4c4ca06)" d="M 822.473283 245.117611 
L 822.574696 246.104171 
" style="fill:none;stroke:#999999;"/>
    <path clip-path="url(#pcfa4c4ca06)" d="M 822.473283 245.117611 
L 804.505072 236.807223 
" style="fill:none;stroke:#999999;"/>
    <path clip-path="url(#pcfa4c4ca06)" d="M 822.473283 245.117611 
L 822.321164 243.922709 
" style="fill:none;stroke:#999999;"/>
    <path clip-path="url(#pcfa4c4ca06)" d="M 824.022217 239.513215 
L 836.021435 243.420238 
" style="fill:none;stroke:#999999;"/>
    <path clip-path="url(#pcfa4c4ca06)" d="M 824.022217 239.513215 
L 822.973649 242.77928 
L 822.321164 243.922709 
" style="fill:none;stroke:#999999;"/>
    <path clip-path="url(#pcfa4c4ca06)" d="M 824.022217 239.513215 
L 822.332645 239.586748 
L 820.593323 239.698272 
" style="fill:none;stroke:#999999;"/>
    <path clip-path="url(#pcfa4c4ca06)" d="M 824.022217 239.513215 
L 824.316888 238.270518 
L 829.40474 221.535765 
L 831.878825 213.963152 
L 833.367486 211.654234 
L 832.957052 208.947016 
L 828.628838 205.413783 
L 827.380315 205.532661 
L 820.434507 208.708035 
L 811.91489 211.66649 
L 805.118331 213.92516 
L 797.485596 215.037951 
" style="fill:none;stroke:#999999;"/>
    <path clip-path="url(#pcfa4c4ca06)" d="M 822.321164 243.922709 
L 822.473283 245.117611 
" style="fill:none;stroke:#999999;"/>
    <path clip-path="url(#pcfa4c4ca06)" d="M 822.321164 243.922709 
L 822.973649 242.77928 
L 824.022217 239.513215 
" style="fill:none;stroke:#999999;"/>
    <path clip-path="url(#pcfa4c4ca06)" d="M 822.321164 243.922709 
L 822.283852 243.627354 
L 821.743304 241.688549 
L 820.593323 239.698272 
" style="fill:none;stroke:#999999;"/>
    <path clip-path="url(#pcfa4c4ca06)" d="M 790.96266 212.611381 
L 792.349908 215.61518 
" style="fill:none;stroke:#999999;"/>
    <path clip-path="url(#pcfa4c4ca06)" d="M 790.96266 212.611381 
L 790.528308 221.46591 
" style="fill:none;stroke:#999999;"/>
    <path clip-path="url(#pcfa4c4ca06)" d="M 790.96266 212.611381 
L 789.576369 210.00098 
L 787.074538 205.703011 
L 786.302463 204.088974 
" style="fill:none;stroke:#999999;"/>
    <path clip-path="url(#pcfa4c4ca06)" d="M 793.174603 255.897463 
L 793.078931 250.905838 
" style="fill:none;stroke:#999999;"/>
    <path clip-path="url(#pcfa4c4ca06)" d="M 793.174603 255.897463 
L 793.186084 256.523714 
L 793.647224 259.628008 
L 794.558981 262.277626 
" style="fill:none;stroke:#999999;"/>
    <path clip-path="url(#pcfa4c4ca06)" d="M 793.174603 255.897463 
L 792.518291 256.507782 
L 791.840932 256.575187 
L 791.130086 257.794599 
L 790.723479 258.741942 
L 790.791407 259.555701 
L 791.299426 260.368234 
L 792.924898 261.485927 
L 794.558981 262.277626 
" style="fill:none;stroke:#999999;"/>
   </g>
  </g>
 </g>
 <defs>
  <clipPath id="pcfa4c4ca06">
   <rect height="432" width="982.541412" x="138.035932" y="0"/>
  </clipPath>
 </defs>
</svg>
