<?xml version="1.0" encoding="utf-8" standalone="no"?>
<!DOCTYPE svg PUBLIC "-//W3C//DTD SVG 1.1//EN"
  "http://www.w3.org/Graphics/SVG/1.1/DTD/svg11.dtd">
<!-- Created with matplotlib (http://matplotlib.org/) -->
<svg height="432pt" version="1.1" viewBox="0 0 859.221777 432" width="859.221777pt" xmlns="http://www.w3.org/2000/svg" xmlns:xlink="http://www.w3.org/1999/xlink">
 <defs>
  <style type="text/css">
*{stroke-linecap:butt;stroke-linejoin:round;}
  </style>
 </defs>
 <g id="figure_1">
  <g id="patch_1">
   <path d="M 0 432 
L 859.221777 432 
L 859.221777 0 
L 0 0 
z
" style="fill:none;opacity:0;"/>
  </g>
  <g id="axes_1">
   <g id="PathCollection_1">
    <defs>
     <path d="M 0 1.936492 
C 0.513564 1.936492 1.006162 1.732451 1.369306 1.369306 
C 1.732451 1.006162 1.936492 0.513564 1.936492 0 
C 1.936492 -0.513564 1.732451 -1.006162 1.369306 -1.369306 
C 1.006162 -1.732451 0.513564 -1.936492 0 -1.936492 
C -0.513564 -1.936492 -1.006162 -1.732451 -1.369306 -1.369306 
C -1.732451 -1.006162 -1.936492 -0.513564 -1.936492 0 
C -1.936492 0.513564 -1.732451 1.006162 -1.369306 1.369306 
C -1.006162 1.732451 -0.513564 1.936492 0 1.936492 
z
" id="C0_0_0e113e2d52"/>
    </defs>
    <g clip-path="url(#pb86af8af9a)">
     <use style="fill:#66ccff;" x="435.271427" xlink:href="#C0_0_0e113e2d52" y="188.645636"/>
    </g>
    <g clip-path="url(#pb86af8af9a)">
     <use style="fill:#66ccff;" x="289.103918" xlink:href="#C0_0_0e113e2d52" y="104.781503"/>
    </g>
    <g clip-path="url(#pb86af8af9a)">
     <use style="fill:#66ccff;" x="416.364446" xlink:href="#C0_0_0e113e2d52" y="141.613401"/>
    </g>
    <g clip-path="url(#pb86af8af9a)">
     <use style="fill:#66ccff;" x="405.706904" xlink:href="#C0_0_0e113e2d52" y="190.63036"/>
    </g>
    <g clip-path="url(#pb86af8af9a)">
     <use style="fill:#66ccff;" x="481.271454" xlink:href="#C0_0_0e113e2d52" y="188.726743"/>
    </g>
    <g clip-path="url(#pb86af8af9a)">
     <use style="fill:#66ccff;" x="488.055898" xlink:href="#C0_0_0e113e2d52" y="183.917604"/>
    </g>
    <g clip-path="url(#pb86af8af9a)">
     <use style="fill:#66ccff;" x="293.569723" xlink:href="#C0_0_0e113e2d52" y="181.947192"/>
    </g>
    <g clip-path="url(#pb86af8af9a)">
     <use style="fill:#66ccff;" x="390.046765" xlink:href="#C0_0_0e113e2d52" y="180.635175"/>
    </g>
    <g clip-path="url(#pb86af8af9a)">
     <use style="fill:#66ccff;" x="431.603353" xlink:href="#C0_0_0e113e2d52" y="180.606549"/>
    </g>
    <g clip-path="url(#pb86af8af9a)">
     <use style="fill:#66ccff;" x="397.923431" xlink:href="#C0_0_0e113e2d52" y="351.493199"/>
    </g>
    <g clip-path="url(#pb86af8af9a)">
     <use style="fill:#66ccff;" x="498.773085" xlink:href="#C0_0_0e113e2d52" y="177.352747"/>
    </g>
    <g clip-path="url(#pb86af8af9a)">
     <use style="fill:#66ccff;" x="472.119908" xlink:href="#C0_0_0e113e2d52" y="176.389011"/>
    </g>
    <g clip-path="url(#pb86af8af9a)">
     <use style="fill:#66ccff;" x="416.953426" xlink:href="#C0_0_0e113e2d52" y="176.260195"/>
    </g>
    <g clip-path="url(#pb86af8af9a)">
     <use style="fill:#66ccff;" x="339.998437" xlink:href="#C0_0_0e113e2d52" y="174.003525"/>
    </g>
    <g clip-path="url(#pb86af8af9a)">
     <use style="fill:#66ccff;" x="335.070395" xlink:href="#C0_0_0e113e2d52" y="267.323724"/>
    </g>
    <g clip-path="url(#pb86af8af9a)">
     <use style="fill:#66ccff;" x="304.946715" xlink:href="#C0_0_0e113e2d52" y="175.167642"/>
    </g>
    <g clip-path="url(#pb86af8af9a)">
     <use style="fill:#66ccff;" x="376.392138" xlink:href="#C0_0_0e113e2d52" y="173.850854"/>
    </g>
    <g clip-path="url(#pb86af8af9a)">
     <use style="fill:#66ccff;" x="254.749279" xlink:href="#C0_0_0e113e2d52" y="286.002076"/>
    </g>
    <g clip-path="url(#pb86af8af9a)">
     <use style="fill:#66ccff;" x="226.608743" xlink:href="#C0_0_0e113e2d52" y="286.002076"/>
    </g>
    <g clip-path="url(#pb86af8af9a)">
     <use style="fill:#66ccff;" x="368.8286" xlink:href="#C0_0_0e113e2d52" y="172.977766"/>
    </g>
    <g clip-path="url(#pb86af8af9a)">
     <use style="fill:#66ccff;" x="204.328179" xlink:href="#C0_0_0e113e2d52" y="285.257805"/>
    </g>
    <g clip-path="url(#pb86af8af9a)">
     <use style="fill:#66ccff;" x="266.528864" xlink:href="#C0_0_0e113e2d52" y="282.609916"/>
    </g>
    <g clip-path="url(#pb86af8af9a)">
     <use style="fill:#66ccff;" x="323.980437" xlink:href="#C0_0_0e113e2d52" y="171.665749"/>
    </g>
    <g clip-path="url(#pb86af8af9a)">
     <use style="fill:#66ccff;" x="352.053874" xlink:href="#C0_0_0e113e2d52" y="173.841312"/>
    </g>
    <g clip-path="url(#pb86af8af9a)">
     <use style="fill:#66ccff;" x="490.024133" xlink:href="#C0_0_0e113e2d52" y="172.104679"/>
    </g>
    <g clip-path="url(#pb86af8af9a)">
     <use style="fill:#66ccff;" x="349.355007" xlink:href="#C0_0_0e113e2d52" y="265.954455"/>
    </g>
    <g clip-path="url(#pb86af8af9a)">
     <use style="fill:#66ccff;" x="385.733796" xlink:href="#C0_0_0e113e2d52" y="265.58709"/>
    </g>
    <g clip-path="url(#pb86af8af9a)">
     <use style="fill:#66ccff;" x="311.947367" xlink:href="#C0_0_0e113e2d52" y="163.569411"/>
    </g>
    <g clip-path="url(#pb86af8af9a)">
     <use style="fill:#66ccff;" x="405.796369" xlink:href="#C0_0_0e113e2d52" y="255.453547"/>
    </g>
    <g clip-path="url(#pb86af8af9a)">
     <use style="fill:#66ccff;" x="277.130491" xlink:href="#C0_0_0e113e2d52" y="251.894403"/>
    </g>
    <g clip-path="url(#pb86af8af9a)">
     <use style="fill:#66ccff;" x="495.272758" xlink:href="#C0_0_0e113e2d52" y="162.257394"/>
    </g>
    <g clip-path="url(#pb86af8af9a)">
     <use style="fill:#66ccff;" x="329.012855" xlink:href="#C0_0_0e113e2d52" y="249.547085"/>
    </g>
    <g clip-path="url(#pb86af8af9a)">
     <use style="fill:#66ccff;" x="185.48457" xlink:href="#C0_0_0e113e2d52" y="161.455871"/>
    </g>
    <g clip-path="url(#pb86af8af9a)">
     <use style="fill:#66ccff;" x="477.226881" xlink:href="#C0_0_0e113e2d52" y="159.304163"/>
    </g>
    <g clip-path="url(#pb86af8af9a)">
     <use style="fill:#66ccff;" x="270.036646" xlink:href="#C0_0_0e113e2d52" y="158.645769"/>
    </g>
    <g clip-path="url(#pb86af8af9a)">
     <use style="fill:#66ccff;" x="421.422958" xlink:href="#C0_0_0e113e2d52" y="241.927843"/>
    </g>
    <g clip-path="url(#pb86af8af9a)">
     <use style="fill:#66ccff;" x="295.057082" xlink:href="#C0_0_0e113e2d52" y="157.901497"/>
    </g>
    <g clip-path="url(#pb86af8af9a)">
     <use style="fill:#66ccff;" x="378.889708" xlink:href="#C0_0_0e113e2d52" y="239.027093"/>
    </g>
    <g clip-path="url(#pb86af8af9a)">
     <use style="fill:#66ccff;" x="468.80224" xlink:href="#C0_0_0e113e2d52" y="156.570396"/>
    </g>
    <g clip-path="url(#pb86af8af9a)">
     <use style="fill:#66ccff;" x="372.191001" xlink:href="#C0_0_0e113e2d52" y="237.500382"/>
    </g>
    <g clip-path="url(#pb86af8af9a)">
     <use style="fill:#66ccff;" x="305.211383" xlink:href="#C0_0_0e113e2d52" y="154.514107"/>
    </g>
    <g clip-path="url(#pb86af8af9a)">
     <use style="fill:#66ccff;" x="346.514486" xlink:href="#C0_0_0e113e2d52" y="152.634345"/>
    </g>
    <g clip-path="url(#pb86af8af9a)">
     <use style="fill:#66ccff;" x="473.834658" xlink:href="#C0_0_0e113e2d52" y="231.169303"/>
    </g>
    <g clip-path="url(#pb86af8af9a)">
     <use style="fill:#66ccff;" x="359.419842" xlink:href="#C0_0_0e113e2d52" y="149.571381"/>
    </g>
    <g clip-path="url(#pb86af8af9a)">
     <use style="fill:#66ccff;" x="524.80746" xlink:href="#C0_0_0e113e2d52" y="146.947347"/>
    </g>
    <g clip-path="url(#pb86af8af9a)">
     <use style="fill:#66ccff;" x="351.543176" xlink:href="#C0_0_0e113e2d52" y="230.730374"/>
    </g>
    <g clip-path="url(#pb86af8af9a)">
     <use style="fill:#66ccff;" x="278.662583" xlink:href="#C0_0_0e113e2d52" y="146.675402"/>
    </g>
    <g clip-path="url(#pb86af8af9a)">
     <use style="fill:#66ccff;" x="483.459623" xlink:href="#C0_0_0e113e2d52" y="229.198892"/>
    </g>
    <g clip-path="url(#pb86af8af9a)">
     <use style="fill:#66ccff;" x="343.450303" xlink:href="#C0_0_0e113e2d52" y="143.445454"/>
    </g>
    <g clip-path="url(#pb86af8af9a)">
     <use style="fill:#66ccff;" x="495.80955" xlink:href="#C0_0_0e113e2d52" y="226.937452"/>
    </g>
    <g clip-path="url(#pb86af8af9a)">
     <use style="fill:#66ccff;" x="288.485117" xlink:href="#C0_0_0e113e2d52" y="143.302325"/>
    </g>
    <g clip-path="url(#pb86af8af9a)">
     <use style="fill:#66ccff;" x="389.800735" xlink:href="#C0_0_0e113e2d52" y="226.799094"/>
    </g>
    <g clip-path="url(#pb86af8af9a)">
     <use style="fill:#66ccff;" x="358.118869" xlink:href="#C0_0_0e113e2d52" y="145.625788"/>
    </g>
    <g clip-path="url(#pb86af8af9a)">
     <use style="fill:#66ccff;" x="386.766374" xlink:href="#C0_0_0e113e2d52" y="141.694508"/>
    </g>
    <g clip-path="url(#pb86af8af9a)">
     <use style="fill:#66ccff;" x="495.052823" xlink:href="#C0_0_0e113e2d52" y="223.731359"/>
    </g>
    <g clip-path="url(#pb86af8af9a)">
     <use style="fill:#66ccff;" x="275.699048" xlink:href="#C0_0_0e113e2d52" y="138.273721"/>
    </g>
    <g clip-path="url(#pb86af8af9a)">
     <use style="fill:#66ccff;" x="492.648446" xlink:href="#C0_0_0e113e2d52" y="140.82142"/>
    </g>
    <g clip-path="url(#pb86af8af9a)">
     <use style="fill:#66ccff;" x="328.737004" xlink:href="#C0_0_0e113e2d52" y="222.796249"/>
    </g>
    <g clip-path="url(#pb86af8af9a)">
     <use style="fill:#66ccff;" x="354.383697" xlink:href="#C0_0_0e113e2d52" y="134.280418"/>
    </g>
    <g clip-path="url(#pb86af8af9a)">
     <use style="fill:#66ccff;" x="406.46363" xlink:href="#C0_0_0e113e2d52" y="133.94645"/>
    </g>
    <g clip-path="url(#pb86af8af9a)">
     <use style="fill:#66ccff;" x="188.269175" xlink:href="#C0_0_0e113e2d52" y="133.612482"/>
    </g>
    <g clip-path="url(#pb86af8af9a)">
     <use style="fill:#66ccff;" x="382.673341" xlink:href="#C0_0_0e113e2d52" y="218.254284"/>
    </g>
    <g clip-path="url(#pb86af8af9a)">
     <use style="fill:#66ccff;" x="320.040241" xlink:href="#C0_0_0e113e2d52" y="133.383476"/>
    </g>
    <g clip-path="url(#pb86af8af9a)">
     <use style="fill:#66ccff;" x="196.723637" xlink:href="#C0_0_0e113e2d52" y="214.213271"/>
    </g>
    <g clip-path="url(#pb86af8af9a)">
     <use style="fill:#66ccff;" x="340.415941" xlink:href="#C0_0_0e113e2d52" y="133.35485"/>
    </g>
    <g clip-path="url(#pb86af8af9a)">
     <use style="fill:#66ccff;" x="421.32231" xlink:href="#C0_0_0e113e2d52" y="165.406235"/>
    </g>
    <g clip-path="url(#pb86af8af9a)">
     <use style="fill:#66ccff;" x="372.545134" xlink:href="#C0_0_0e113e2d52" y="212.357363"/>
    </g>
    <g clip-path="url(#pb86af8af9a)">
     <use style="fill:#66ccff;" x="349.794877" xlink:href="#C0_0_0e113e2d52" y="211.26004"/>
    </g>
    <g clip-path="url(#pb86af8af9a)">
     <use style="fill:#66ccff;" x="450.040641" xlink:href="#C0_0_0e113e2d52" y="209.790581"/>
    </g>
    <g clip-path="url(#pb86af8af9a)">
     <use style="fill:#66ccff;" x="331.435871" xlink:href="#C0_0_0e113e2d52" y="208.984287"/>
    </g>
    <g clip-path="url(#pb86af8af9a)">
     <use style="fill:#66ccff;" x="353.295203" xlink:href="#C0_0_0e113e2d52" y="123.316726"/>
    </g>
    <g clip-path="url(#pb86af8af9a)">
     <use style="fill:#66ccff;" x="281.741677" xlink:href="#C0_0_0e113e2d52" y="122.982758"/>
    </g>
    <g clip-path="url(#pb86af8af9a)">
     <use style="fill:#66ccff;" x="221.371301" xlink:href="#C0_0_0e113e2d52" y="121.236583"/>
    </g>
    <g clip-path="url(#pb86af8af9a)">
     <use style="fill:#66ccff;" x="315.391778" xlink:href="#C0_0_0e113e2d52" y="120.201282"/>
    </g>
    <g clip-path="url(#pb86af8af9a)">
     <use style="fill:#66ccff;" x="469.573878" xlink:href="#C0_0_0e113e2d52" y="126.618238"/>
    </g>
    <g clip-path="url(#pb86af8af9a)">
     <use style="fill:#66ccff;" x="419.581466" xlink:href="#C0_0_0e113e2d52" y="206.011972"/>
    </g>
    <g clip-path="url(#pb86af8af9a)">
     <use style="fill:#66ccff;" x="253.239553" xlink:href="#C0_0_0e113e2d52" y="119.690788"/>
    </g>
    <g clip-path="url(#pb86af8af9a)">
     <use style="fill:#66ccff;" x="482.58361" xlink:href="#C0_0_0e113e2d52" y="120.039069"/>
    </g>
    <g clip-path="url(#pb86af8af9a)">
     <use style="fill:#66ccff;" x="233.885247" xlink:href="#C0_0_0e113e2d52" y="117.515225"/>
    </g>
    <g clip-path="url(#pb86af8af9a)">
     <use style="fill:#66ccff;" x="229.818308" xlink:href="#C0_0_0e113e2d52" y="115.406456"/>
    </g>
    <g clip-path="url(#pb86af8af9a)">
     <use style="fill:#66ccff;" x="411.507231" xlink:href="#C0_0_0e113e2d52" y="201.741952"/>
    </g>
    <g clip-path="url(#pb86af8af9a)">
     <use style="fill:#66ccff;" x="227.182812" xlink:href="#C0_0_0e113e2d52" y="201.684701"/>
    </g>
    <g clip-path="url(#pb86af8af9a)">
     <use style="fill:#66ccff;" x="190.125578" xlink:href="#C0_0_0e113e2d52" y="115.668859"/>
    </g>
    <g clip-path="url(#pb86af8af9a)">
     <use style="fill:#66ccff;" x="490.352172" xlink:href="#C0_0_0e113e2d52" y="199.189483"/>
    </g>
    <g clip-path="url(#pb86af8af9a)">
     <use style="fill:#66ccff;" x="245.19514" xlink:href="#C0_0_0e113e2d52" y="197.65323"/>
    </g>
    <g clip-path="url(#pb86af8af9a)">
     <use style="fill:#66ccff;" x="375.851619" xlink:href="#C0_0_0e113e2d52" y="274.5756"/>
    </g>
    <g clip-path="url(#pb86af8af9a)">
     <use style="fill:#66ccff;" x="264.534535" xlink:href="#C0_0_0e113e2d52" y="196.436632"/>
    </g>
    <g clip-path="url(#pb86af8af9a)">
     <use style="fill:#66ccff;" x="418.284221" xlink:href="#C0_0_0e113e2d52" y="194.299237"/>
    </g>
    <g clip-path="url(#pb86af8af9a)">
     <use style="fill:#66ccff;" x="752.369668" xlink:href="#C0_0_0e113e2d52" y="28.751304"/>
    </g>
    <g clip-path="url(#pb86af8af9a)">
     <use style="fill:#66ccff;" x="311.988372" xlink:href="#C0_0_0e113e2d52" y="110.559149"/>
    </g>
    <g clip-path="url(#pb86af8af9a)">
     <use style="fill:#66ccff;" x="326.023226" xlink:href="#C0_0_0e113e2d52" y="105.792949"/>
    </g>
    <g clip-path="url(#pb86af8af9a)">
     <use style="fill:#66ccff;" x="290.289332" xlink:href="#C0_0_0e113e2d52" y="101.852126"/>
    </g>
    <g clip-path="url(#pb86af8af9a)">
     <use style="fill:#66ccff;" x="228.692537" xlink:href="#C0_0_0e113e2d52" y="97.362642"/>
    </g>
    <g clip-path="url(#pb86af8af9a)">
     <use style="fill:#66ccff;" x="270.252853" xlink:href="#C0_0_0e113e2d52" y="94.013421"/>
    </g>
    <g clip-path="url(#pb86af8af9a)">
     <use style="fill:#66ccff;" x="322.08303" xlink:href="#C0_0_0e113e2d52" y="93.259607"/>
    </g>
    <g clip-path="url(#pb86af8af9a)">
     <use style="fill:#66ccff;" x="182.081165" xlink:href="#C0_0_0e113e2d52" y="90.611718"/>
    </g>
    <g clip-path="url(#pb86af8af9a)">
     <use style="fill:#66ccff;" x="398.210465" xlink:href="#C0_0_0e113e2d52" y="85.850289"/>
    </g>
    <g clip-path="url(#pb86af8af9a)">
     <use style="fill:#66ccff;" x="185.793971" xlink:href="#C0_0_0e113e2d52" y="74.524003"/>
    </g>
    <g clip-path="url(#pb86af8af9a)">
     <use style="fill:#66ccff;" x="222.292047" xlink:href="#C0_0_0e113e2d52" y="72.510653"/>
    </g>
    <g clip-path="url(#pb86af8af9a)">
     <use style="fill:#66ccff;" x="209.304681" xlink:href="#C0_0_0e113e2d52" y="63.078443"/>
    </g>
    <g clip-path="url(#pb86af8af9a)">
     <use style="fill:#66ccff;" x="393.386799" xlink:href="#C0_0_0e113e2d52" y="55.65004"/>
    </g>
    <g clip-path="url(#pb86af8af9a)">
     <use style="fill:#66ccff;" x="308.786263" xlink:href="#C0_0_0e113e2d52" y="55.292218"/>
    </g>
    <g clip-path="url(#pb86af8af9a)">
     <use style="fill:#66ccff;" x="334.615614" xlink:href="#C0_0_0e113e2d52" y="48.560377"/>
    </g>
    <g clip-path="url(#pb86af8af9a)">
     <use style="fill:#66ccff;" x="403.287615" xlink:href="#C0_0_0e113e2d52" y="42.658686"/>
    </g>
    <g clip-path="url(#pb86af8af9a)">
     <use style="fill:#66ccff;" x="370.185489" xlink:href="#C0_0_0e113e2d52" y="35.85051"/>
    </g>
    <g clip-path="url(#pb86af8af9a)">
     <use style="fill:#66ccff;" x="327.868446" xlink:href="#C0_0_0e113e2d52" y="33.269414"/>
    </g>
    <g clip-path="url(#pb86af8af9a)">
     <use style="fill:#66ccff;" x="355.953066" xlink:href="#C0_0_0e113e2d52" y="20.072908"/>
    </g>
    <g clip-path="url(#pb86af8af9a)">
     <use style="fill:#66ccff;" x="458.994617" xlink:href="#C0_0_0e113e2d52" y="133.378705"/>
    </g>
    <g clip-path="url(#pb86af8af9a)">
     <use style="fill:#66ccff;" x="361.634106" xlink:href="#C0_0_0e113e2d52" y="218.965159"/>
    </g>
    <g clip-path="url(#pb86af8af9a)">
     <use style="fill:#66ccff;" x="355.34172" xlink:href="#C0_0_0e113e2d52" y="110.678423"/>
    </g>
    <g clip-path="url(#pb86af8af9a)">
     <use style="fill:#66ccff;" x="200.123315" xlink:href="#C0_0_0e113e2d52" y="298.10603"/>
    </g>
    <g clip-path="url(#pb86af8af9a)">
     <use style="fill:#66ccff;" x="199.91829" xlink:href="#C0_0_0e113e2d52" y="285.024027"/>
    </g>
    <g clip-path="url(#pb86af8af9a)">
     <use style="fill:#66ccff;" x="210.922511" xlink:href="#C0_0_0e113e2d52" y="423.692308"/>
    </g>
    <g clip-path="url(#pb86af8af9a)">
     <use style="fill:#66ccff;" x="186.528331" xlink:href="#C0_0_0e113e2d52" y="360.295641"/>
    </g>
    <g clip-path="url(#pb86af8af9a)">
     <use style="fill:#66ccff;" x="127.585671" xlink:href="#C0_0_0e113e2d52" y="340.448401"/>
    </g>
    <g clip-path="url(#pb86af8af9a)">
     <use style="fill:#66ccff;" x="196.47388" xlink:href="#C0_0_0e113e2d52" y="73.937173"/>
    </g>
    <g clip-path="url(#pb86af8af9a)">
     <use style="fill:#66ccff;" x="203.616185" xlink:href="#C0_0_0e113e2d52" y="101.794875"/>
    </g>
    <g clip-path="url(#pb86af8af9a)">
     <use style="fill:#66ccff;" x="376.298945" xlink:href="#C0_0_0e113e2d52" y="241.660669"/>
    </g>
    <g clip-path="url(#pb86af8af9a)">
     <use style="fill:#66ccff;" x="534.380237" xlink:href="#C0_0_0e113e2d52" y="84.834072"/>
    </g>
    <g clip-path="url(#pb86af8af9a)">
     <use style="fill:#66ccff;" x="539.718327" xlink:href="#C0_0_0e113e2d52" y="66.203429"/>
    </g>
    <g clip-path="url(#pb86af8af9a)">
     <use style="fill:#66ccff;" x="106.852109" xlink:href="#C0_0_0e113e2d52" y="299.064996"/>
    </g>
    <g clip-path="url(#pb86af8af9a)">
     <use style="fill:#66ccff;" x="283.154482" xlink:href="#C0_0_0e113e2d52" y="119.986588"/>
    </g>
    <g clip-path="url(#pb86af8af9a)">
     <use style="fill:#66ccff;" x="284.146054" xlink:href="#C0_0_0e113e2d52" y="277.800777"/>
    </g>
    <g clip-path="url(#pb86af8af9a)">
     <use style="fill:#66ccff;" x="319.253692" xlink:href="#C0_0_0e113e2d52" y="83.798771"/>
    </g>
    <g clip-path="url(#pb86af8af9a)">
     <use style="fill:#66ccff;" x="297.923696" xlink:href="#C0_0_0e113e2d52" y="82.978164"/>
    </g>
    <g clip-path="url(#pb86af8af9a)">
     <use style="fill:#66ccff;" x="299.951574" xlink:href="#C0_0_0e113e2d52" y="77.968644"/>
    </g>
    <g clip-path="url(#pb86af8af9a)">
     <use style="fill:#66ccff;" x="275.441835" xlink:href="#C0_0_0e113e2d52" y="68.412389"/>
    </g>
    <g clip-path="url(#pb86af8af9a)">
     <use style="fill:#66ccff;" x="290.006025" xlink:href="#C0_0_0e113e2d52" y="62.620429"/>
    </g>
    <g clip-path="url(#pb86af8af9a)">
     <use style="fill:#66ccff;" x="306.426618" xlink:href="#C0_0_0e113e2d52" y="61.904784"/>
    </g>
    <g clip-path="url(#pb86af8af9a)">
     <use style="fill:#66ccff;" x="339.413186" xlink:href="#C0_0_0e113e2d52" y="58.05461"/>
    </g>
    <g clip-path="url(#pb86af8af9a)">
     <use style="fill:#66ccff;" x="291.84379" xlink:href="#C0_0_0e113e2d52" y="56.68057"/>
    </g>
    <g clip-path="url(#pb86af8af9a)">
     <use style="fill:#66ccff;" x="282.371661" xlink:href="#C0_0_0e113e2d52" y="289.785456"/>
    </g>
    <g clip-path="url(#pb86af8af9a)">
     <use style="fill:#66ccff;" x="670.494093" xlink:href="#C0_0_0e113e2d52" y="42.649144"/>
    </g>
    <g clip-path="url(#pb86af8af9a)">
     <use style="fill:#66ccff;" x="296.499708" xlink:href="#C0_0_0e113e2d52" y="42.859066"/>
    </g>
    <g clip-path="url(#pb86af8af9a)">
     <use style="fill:#66ccff;" x="280.101481" xlink:href="#C0_0_0e113e2d52" y="36.661575"/>
    </g>
    <g clip-path="url(#pb86af8af9a)">
     <use style="fill:#66ccff;" x="300.074589" xlink:href="#C0_0_0e113e2d52" y="34.748415"/>
    </g>
    <g clip-path="url(#pb86af8af9a)">
     <use style="fill:#66ccff;" x="688.912742" xlink:href="#C0_0_0e113e2d52" y="8.775247"/>
    </g>
    <g clip-path="url(#pb86af8af9a)">
     <use style="fill:#66ccff;" x="676.208683" xlink:href="#C0_0_0e113e2d52" y="8.617805"/>
    </g>
    <g clip-path="url(#pb86af8af9a)">
     <use style="fill:#66ccff;" x="651.0205" xlink:href="#C0_0_0e113e2d52" y="8.307692"/>
    </g>
   </g>
   <g id="LineCollection_1">
    <path clip-path="url(#pb86af8af9a)" d="M 435.271427 188.645636 
L 418.284221 194.299237 
" style="fill:none;stroke:#999999;"/>
    <path clip-path="url(#pb86af8af9a)" d="M 435.271427 188.645636 
L 431.603353 180.606549 
" style="fill:none;stroke:#999999;"/>
    <path clip-path="url(#pb86af8af9a)" d="M 435.271427 188.645636 
L 455.020871 180.415711 
L 460.925575 178.011141 
L 467.326065 177.228702 
L 470.673554 176.722979 
L 472.119908 176.389011 
" style="fill:none;stroke:#999999;"/>
    <path clip-path="url(#pb86af8af9a)" d="M 289.103918 104.781503 
L 283.154482 119.986588 
" style="fill:none;stroke:#999999;"/>
    <path clip-path="url(#pb86af8af9a)" d="M 289.103918 104.781503 
L 290.289332 101.852126 
" style="fill:none;stroke:#999999;"/>
    <path clip-path="url(#pb86af8af9a)" d="M 289.103918 104.781503 
L 297.480098 102.367391 
L 322.08303 93.259607 
" style="fill:none;stroke:#999999;"/>
    <path clip-path="url(#pb86af8af9a)" d="M 416.364446 141.613401 
L 421.32231 165.406235 
" style="fill:none;stroke:#999999;"/>
    <path clip-path="url(#pb86af8af9a)" d="M 416.364446 141.613401 
L 406.46363 133.94645 
" style="fill:none;stroke:#999999;"/>
    <path clip-path="url(#pb86af8af9a)" d="M 416.364446 141.613401 
L 417.203183 132.806188 
L 414.18746 116.885457 
L 402.478701 95.325438 
L 398.210465 85.850289 
" style="fill:none;stroke:#999999;"/>
    <path clip-path="url(#pb86af8af9a)" d="M 405.706904 190.63036 
L 390.046765 180.635175 
" style="fill:none;stroke:#999999;"/>
    <path clip-path="url(#pb86af8af9a)" d="M 405.706904 190.63036 
L 403.611927 193.540653 
L 394.859247 207.982383 
L 389.170751 213.888845 
L 382.673341 218.254284 
" style="fill:none;stroke:#999999;"/>
    <path clip-path="url(#pb86af8af9a)" d="M 405.706904 190.63036 
L 405.856012 190.420437 
L 410.392644 184.137068 
L 416.953426 176.260195 
" style="fill:none;stroke:#999999;"/>
    <path clip-path="url(#pb86af8af9a)" d="M 481.271454 188.726743 
L 472.119908 176.389011 
" style="fill:none;stroke:#999999;"/>
    <path clip-path="url(#pb86af8af9a)" d="M 481.271454 188.726743 
L 487.761409 184.127526 
L 488.055898 183.917604 
" style="fill:none;stroke:#999999;"/>
    <path clip-path="url(#pb86af8af9a)" d="M 481.271454 188.726743 
L 472.082631 197.915633 
L 471.113425 198.669447 
L 464.209693 204.04156 
L 450.040641 209.790581 
" style="fill:none;stroke:#999999;"/>
    <path clip-path="url(#pb86af8af9a)" d="M 488.055898 183.917604 
L 490.024133 172.104679 
" style="fill:none;stroke:#999999;"/>
    <path clip-path="url(#pb86af8af9a)" d="M 488.055898 183.917604 
L 490.352172 199.189483 
" style="fill:none;stroke:#999999;"/>
    <path clip-path="url(#pb86af8af9a)" d="M 488.055898 183.917604 
L 487.761409 184.127526 
L 481.271454 188.726743 
" style="fill:none;stroke:#999999;"/>
    <path clip-path="url(#pb86af8af9a)" d="M 293.569723 181.947192 
L 299.914297 176.913818 
L 304.946715 175.167642 
" style="fill:none;stroke:#999999;"/>
    <path clip-path="url(#pb86af8af9a)" d="M 293.569723 181.947192 
L 287.008941 170.353732 
L 278.662583 146.675402 
" style="fill:none;stroke:#999999;"/>
    <path clip-path="url(#pb86af8af9a)" d="M 293.569723 181.947192 
L 302.102467 195.511064 
L 315.447693 207.982383 
L 321.646887 218.893594 
L 328.737004 222.796249 
" style="fill:none;stroke:#999999;"/>
    <path clip-path="url(#pb86af8af9a)" d="M 390.046765 180.635175 
L 405.706904 190.63036 
" style="fill:none;stroke:#999999;"/>
    <path clip-path="url(#pb86af8af9a)" d="M 390.046765 180.635175 
L 400.767679 164.881428 
L 403.391991 154.599985 
L 406.46363 133.94645 
" style="fill:none;stroke:#999999;"/>
    <path clip-path="url(#pb86af8af9a)" d="M 390.046765 180.635175 
L 380.201864 174.289783 
L 376.392138 173.850854 
" style="fill:none;stroke:#999999;"/>
    <path clip-path="url(#pb86af8af9a)" d="M 431.603353 180.606549 
L 435.271427 188.645636 
" style="fill:none;stroke:#999999;"/>
    <path clip-path="url(#pb86af8af9a)" d="M 431.603353 180.606549 
L 426.936252 172.610402 
L 421.32231 165.406235 
" style="fill:none;stroke:#999999;"/>
    <path clip-path="url(#pb86af8af9a)" d="M 431.603353 180.606549 
L 444.519892 172.319372 
L 457.645184 162.476859 
L 468.80224 156.570396 
" style="fill:none;stroke:#999999;"/>
    <path clip-path="url(#pb86af8af9a)" d="M 397.923431 351.493199 
L 394.859247 335.305294 
L 390.702843 318.678459 
L 388.07853 303.144176 
L 381.297813 289.580305 
L 375.851619 274.5756 
" style="fill:none;stroke:#999999;"/>
    <path clip-path="url(#pb86af8af9a)" d="M 498.773085 177.352747 
L 490.024133 172.104679 
" style="fill:none;stroke:#999999;"/>
    <path clip-path="url(#pb86af8af9a)" d="M 498.773085 177.352747 
L 524.80746 146.947347 
" style="fill:none;stroke:#999999;"/>
    <path clip-path="url(#pb86af8af9a)" d="M 498.773085 177.352747 
L 498.99302 186.541638 
L 498.336942 195.511064 
L 490.352172 199.189483 
" style="fill:none;stroke:#999999;"/>
    <path clip-path="url(#pb86af8af9a)" d="M 472.119908 176.389011 
L 481.271454 188.726743 
" style="fill:none;stroke:#999999;"/>
    <path clip-path="url(#pb86af8af9a)" d="M 472.119908 176.389011 
L 472.164641 175.4539 
L 476.458971 171.47491 
L 473.678094 164.871886 
L 477.226881 159.304163 
" style="fill:none;stroke:#999999;"/>
    <path clip-path="url(#pb86af8af9a)" d="M 472.119908 176.389011 
L 470.673554 176.722979 
L 467.326065 177.228702 
L 460.925575 178.011141 
L 455.020871 180.415711 
L 435.271427 188.645636 
" style="fill:none;stroke:#999999;"/>
    <path clip-path="url(#pb86af8af9a)" d="M 416.953426 176.260195 
L 421.32231 165.406235 
" style="fill:none;stroke:#999999;"/>
    <path clip-path="url(#pb86af8af9a)" d="M 416.953426 176.260195 
L 418.284221 194.299237 
" style="fill:none;stroke:#999999;"/>
    <path clip-path="url(#pb86af8af9a)" d="M 416.953426 176.260195 
L 410.392644 184.137068 
L 405.856012 190.420437 
L 405.706904 190.63036 
" style="fill:none;stroke:#999999;"/>
    <path clip-path="url(#pb86af8af9a)" d="M 339.998437 174.003525 
L 352.053874 173.841312 
" style="fill:none;stroke:#999999;"/>
    <path clip-path="url(#pb86af8af9a)" d="M 339.998437 174.003525 
L 333.16926 169.90049 
L 323.980437 171.665749 
" style="fill:none;stroke:#999999;"/>
    <path clip-path="url(#pb86af8af9a)" d="M 339.998437 174.003525 
L 345.198602 192.4481 
L 349.355007 207.323989 
L 349.794877 211.26004 
" style="fill:none;stroke:#999999;"/>
    <path clip-path="url(#pb86af8af9a)" d="M 335.070395 267.323724 
L 349.355007 265.954455 
" style="fill:none;stroke:#999999;"/>
    <path clip-path="url(#pb86af8af9a)" d="M 335.070395 267.323724 
L 327.879629 263.731182 
L 316.614469 264.36095 
L 308.402308 267.218762 
L 284.146054 277.800777 
" style="fill:none;stroke:#999999;"/>
    <path clip-path="url(#pb86af8af9a)" d="M 335.070395 267.323724 
L 346.596496 277.805548 
L 354.033291 281.937209 
L 362.841887 282.13759 
L 370.420335 278.888558 
L 375.851619 274.5756 
" style="fill:none;stroke:#999999;"/>
    <path clip-path="url(#pb86af8af9a)" d="M 304.946715 175.167642 
L 323.980437 171.665749 
" style="fill:none;stroke:#999999;"/>
    <path clip-path="url(#pb86af8af9a)" d="M 304.946715 175.167642 
L 299.914297 176.913818 
L 293.569723 181.947192 
" style="fill:none;stroke:#999999;"/>
    <path clip-path="url(#pb86af8af9a)" d="M 304.946715 175.167642 
L 297.509919 163.349946 
L 295.057082 157.901497 
" style="fill:none;stroke:#999999;"/>
    <path clip-path="url(#pb86af8af9a)" d="M 376.392138 173.850854 
L 368.8286 172.977766 
" style="fill:none;stroke:#999999;"/>
    <path clip-path="url(#pb86af8af9a)" d="M 376.392138 173.850854 
L 372.325198 186.980567 
L 360.731999 201.417526 
L 372.545134 212.357363 
" style="fill:none;stroke:#999999;"/>
    <path clip-path="url(#pb86af8af9a)" d="M 376.392138 173.850854 
L 380.201864 174.289783 
L 390.046765 180.635175 
" style="fill:none;stroke:#999999;"/>
    <path clip-path="url(#pb86af8af9a)" d="M 254.749279 286.002076 
L 227.182812 201.684701 
" style="fill:none;stroke:#999999;"/>
    <path clip-path="url(#pb86af8af9a)" d="M 254.749279 286.002076 
L 266.528864 282.609916 
" style="fill:none;stroke:#999999;"/>
    <path clip-path="url(#pb86af8af9a)" d="M 254.749279 286.002076 
L 250.94328 287.066003 
L 226.608743 286.002076 
" style="fill:none;stroke:#999999;"/>
    <path clip-path="url(#pb86af8af9a)" d="M 226.608743 286.002076 
L 196.723637 214.213271 
" style="fill:none;stroke:#999999;"/>
    <path clip-path="url(#pb86af8af9a)" d="M 226.608743 286.002076 
L 204.328179 285.257805 
" style="fill:none;stroke:#999999;"/>
    <path clip-path="url(#pb86af8af9a)" d="M 226.608743 286.002076 
L 250.94328 287.066003 
L 254.749279 286.002076 
" style="fill:none;stroke:#999999;"/>
    <path clip-path="url(#pb86af8af9a)" d="M 368.8286 172.977766 
L 359.419842 149.571381 
" style="fill:none;stroke:#999999;"/>
    <path clip-path="url(#pb86af8af9a)" d="M 368.8286 172.977766 
L 376.392138 173.850854 
" style="fill:none;stroke:#999999;"/>
    <path clip-path="url(#pb86af8af9a)" d="M 368.8286 172.977766 
L 363.356311 171.885214 
L 352.053874 173.841312 
" style="fill:none;stroke:#999999;"/>
    <path clip-path="url(#pb86af8af9a)" d="M 204.328179 285.257805 
L 199.91829 285.024027 
" style="fill:none;stroke:#999999;"/>
    <path clip-path="url(#pb86af8af9a)" d="M 204.328179 285.257805 
L 226.608743 286.002076 
" style="fill:none;stroke:#999999;"/>
    <path clip-path="url(#pb86af8af9a)" d="M 204.328179 285.257805 
L 159.494928 231.069113 
L 196.723637 214.213271 
" style="fill:none;stroke:#999999;"/>
    <path clip-path="url(#pb86af8af9a)" d="M 266.528864 282.609916 
L 254.749279 286.002076 
" style="fill:none;stroke:#999999;"/>
    <path clip-path="url(#pb86af8af9a)" d="M 266.528864 282.609916 
L 284.146054 277.800777 
" style="fill:none;stroke:#999999;"/>
    <path clip-path="url(#pb86af8af9a)" d="M 266.528864 282.609916 
L 254.25722 236.345807 
L 245.19514 197.65323 
" style="fill:none;stroke:#999999;"/>
    <path clip-path="url(#pb86af8af9a)" d="M 323.980437 171.665749 
L 304.946715 175.167642 
" style="fill:none;stroke:#999999;"/>
    <path clip-path="url(#pb86af8af9a)" d="M 323.980437 171.665749 
L 333.16926 169.90049 
L 339.998437 174.003525 
" style="fill:none;stroke:#999999;"/>
    <path clip-path="url(#pb86af8af9a)" d="M 323.980437 171.665749 
L 333.16926 200.978597 
L 331.435871 208.984287 
" style="fill:none;stroke:#999999;"/>
    <path clip-path="url(#pb86af8af9a)" d="M 323.980437 171.665749 
L 316.782216 166.823213 
L 311.947367 163.569411 
" style="fill:none;stroke:#999999;"/>
    <path clip-path="url(#pb86af8af9a)" d="M 352.053874 173.841312 
L 339.998437 174.003525 
" style="fill:none;stroke:#999999;"/>
    <path clip-path="url(#pb86af8af9a)" d="M 352.053874 173.841312 
L 363.356311 171.885214 
L 368.8286 172.977766 
" style="fill:none;stroke:#999999;"/>
    <path clip-path="url(#pb86af8af9a)" d="M 352.053874 173.841312 
L 349.138799 162.257394 
L 346.514486 152.634345 
" style="fill:none;stroke:#999999;"/>
    <path clip-path="url(#pb86af8af9a)" d="M 490.024133 172.104679 
L 495.272758 162.257394 
" style="fill:none;stroke:#999999;"/>
    <path clip-path="url(#pb86af8af9a)" d="M 490.024133 172.104679 
L 488.055898 183.917604 
" style="fill:none;stroke:#999999;"/>
    <path clip-path="url(#pb86af8af9a)" d="M 490.024133 172.104679 
L 498.773085 177.352747 
" style="fill:none;stroke:#999999;"/>
    <path clip-path="url(#pb86af8af9a)" d="M 490.024133 172.104679 
L 481.271454 163.349946 
L 477.226881 159.304163 
" style="fill:none;stroke:#999999;"/>
    <path clip-path="url(#pb86af8af9a)" d="M 349.355007 265.954455 
L 335.070395 267.323724 
" style="fill:none;stroke:#999999;"/>
    <path clip-path="url(#pb86af8af9a)" d="M 349.355007 265.954455 
L 329.012855 249.547085 
" style="fill:none;stroke:#999999;"/>
    <path clip-path="url(#pb86af8af9a)" d="M 349.355007 265.954455 
L 358.763764 257.204494 
L 376.298945 241.660669 
" style="fill:none;stroke:#999999;"/>
    <path clip-path="url(#pb86af8af9a)" d="M 385.733796 265.58709 
L 375.851619 274.5756 
" style="fill:none;stroke:#999999;"/>
    <path clip-path="url(#pb86af8af9a)" d="M 385.733796 265.58709 
L 385.230554 252.008906 
L 382.949192 245.009891 
L 378.889708 239.027093 
" style="fill:none;stroke:#999999;"/>
    <path clip-path="url(#pb86af8af9a)" d="M 385.733796 265.58709 
L 394.639312 262.452562 
L 405.796369 255.453547 
" style="fill:none;stroke:#999999;"/>
    <path clip-path="url(#pb86af8af9a)" d="M 311.947367 163.569411 
L 307.790963 159.852824 
L 305.211383 154.514107 
" style="fill:none;stroke:#999999;"/>
    <path clip-path="url(#pb86af8af9a)" d="M 311.947367 163.569411 
L 316.782216 166.823213 
L 323.980437 171.665749 
" style="fill:none;stroke:#999999;"/>
    <path clip-path="url(#pb86af8af9a)" d="M 311.947367 163.569411 
L 316.979785 159.852824 
L 346.514486 152.634345 
" style="fill:none;stroke:#999999;"/>
    <path clip-path="url(#pb86af8af9a)" d="M 405.796369 255.453547 
L 401.423757 247.357209 
L 398.579509 238.607247 
L 389.800735 226.799094 
" style="fill:none;stroke:#999999;"/>
    <path clip-path="url(#pb86af8af9a)" d="M 405.796369 255.453547 
L 417.173361 250.639637 
L 421.422958 241.927843 
" style="fill:none;stroke:#999999;"/>
    <path clip-path="url(#pb86af8af9a)" d="M 405.796369 255.453547 
L 394.639312 262.452562 
L 385.733796 265.58709 
" style="fill:none;stroke:#999999;"/>
    <path clip-path="url(#pb86af8af9a)" d="M 277.130491 251.894403 
L 329.012855 249.547085 
" style="fill:none;stroke:#999999;"/>
    <path clip-path="url(#pb86af8af9a)" d="M 277.130491 251.894403 
L 281.607479 268.339941 
L 284.146054 277.800777 
" style="fill:none;stroke:#999999;"/>
    <path clip-path="url(#pb86af8af9a)" d="M 277.130491 251.894403 
L 272.556582 236.908782 
L 264.23259 202.786795 
L 264.534535 196.436632 
" style="fill:none;stroke:#999999;"/>
    <path clip-path="url(#pb86af8af9a)" d="M 495.272758 162.257394 
L 490.024133 172.104679 
" style="fill:none;stroke:#999999;"/>
    <path clip-path="url(#pb86af8af9a)" d="M 495.272758 162.257394 
L 517.806807 138.851009 
L 520.367749 132.615349 
L 524.274396 120.210824 
L 525.881042 108.264312 
L 526.801788 96.322571 
L 528.866943 90.578321 
L 534.380237 84.834072 
" style="fill:none;stroke:#999999;"/>
    <path clip-path="url(#pb86af8af9a)" d="M 495.272758 162.257394 
L 499.212955 146.508418 
L 492.648446 140.82142 
" style="fill:none;stroke:#999999;"/>
    <path clip-path="url(#pb86af8af9a)" d="M 329.012855 249.547085 
L 277.130491 251.894403 
" style="fill:none;stroke:#999999;"/>
    <path clip-path="url(#pb86af8af9a)" d="M 329.012855 249.547085 
L 349.355007 265.954455 
" style="fill:none;stroke:#999999;"/>
    <path clip-path="url(#pb86af8af9a)" d="M 329.012855 249.547085 
L 312.603445 236.636836 
L 298.165998 227.233252 
L 294.665671 224.170288 
L 285.040706 195.949993 
L 279.132275 177.791676 
L 274.755935 167.944392 
L 270.036646 158.645769 
" style="fill:none;stroke:#999999;"/>
    <path clip-path="url(#pb86af8af9a)" d="M 185.48457 161.455871 
L 215.183291 150.630537 
L 235.913125 134.848164 
L 253.239553 119.690788 
" style="fill:none;stroke:#999999;"/>
    <path clip-path="url(#pb86af8af9a)" d="M 477.226881 159.304163 
L 473.678094 164.871886 
L 476.458971 171.47491 
L 472.164641 175.4539 
L 472.119908 176.389011 
" style="fill:none;stroke:#999999;"/>
    <path clip-path="url(#pb86af8af9a)" d="M 477.226881 159.304163 
L 481.271454 163.349946 
L 490.024133 172.104679 
" style="fill:none;stroke:#999999;"/>
    <path clip-path="url(#pb86af8af9a)" d="M 477.226881 159.304163 
L 474.270801 156.350931 
L 468.80224 156.570396 
" style="fill:none;stroke:#999999;"/>
    <path clip-path="url(#pb86af8af9a)" d="M 477.226881 159.304163 
L 481.271454 151.975951 
L 492.648446 140.82142 
" style="fill:none;stroke:#999999;"/>
    <path clip-path="url(#pb86af8af9a)" d="M 270.036646 158.645769 
L 268.743128 165.091351 
L 267.252041 174.060777 
L 264.795476 190.883222 
L 264.534535 196.436632 
" style="fill:none;stroke:#999999;"/>
    <path clip-path="url(#pb86af8af9a)" d="M 270.036646 158.645769 
L 270.942481 154.118117 
L 274.11104 142.434008 
L 275.699048 138.273721 
" style="fill:none;stroke:#999999;"/>
    <path clip-path="url(#pb86af8af9a)" d="M 270.036646 158.645769 
L 274.755935 167.944392 
L 279.132275 177.791676 
L 285.040706 195.949993 
L 294.665671 224.170288 
L 298.165998 227.233252 
L 312.603445 236.636836 
L 329.012855 249.547085 
" style="fill:none;stroke:#999999;"/>
    <path clip-path="url(#pb86af8af9a)" d="M 421.422958 241.927843 
L 430.149544 242.586238 
L 437.739175 244.074781 
L 445.395906 243.640622 
L 455.020871 242.328605 
L 463.113744 235.983213 
L 473.834658 231.169303 
" style="fill:none;stroke:#999999;"/>
    <path clip-path="url(#pb86af8af9a)" d="M 421.422958 241.927843 
L 417.173361 250.639637 
L 405.796369 255.453547 
" style="fill:none;stroke:#999999;"/>
    <path clip-path="url(#pb86af8af9a)" d="M 421.422958 241.927843 
L 421.985843 230.949839 
L 421.113558 216.951809 
L 419.581466 206.011972 
" style="fill:none;stroke:#999999;"/>
    <path clip-path="url(#pb86af8af9a)" d="M 295.057082 157.901497 
L 288.485117 143.302325 
" style="fill:none;stroke:#999999;"/>
    <path clip-path="url(#pb86af8af9a)" d="M 295.057082 157.901497 
L 305.211383 154.514107 
" style="fill:none;stroke:#999999;"/>
    <path clip-path="url(#pb86af8af9a)" d="M 295.057082 157.901497 
L 297.509919 163.349946 
L 304.946715 175.167642 
" style="fill:none;stroke:#999999;"/>
    <path clip-path="url(#pb86af8af9a)" d="M 378.889708 239.027093 
L 376.298945 241.660669 
" style="fill:none;stroke:#999999;"/>
    <path clip-path="url(#pb86af8af9a)" d="M 378.889708 239.027093 
L 382.949192 245.009891 
L 385.230554 252.008906 
L 385.733796 265.58709 
" style="fill:none;stroke:#999999;"/>
    <path clip-path="url(#pb86af8af9a)" d="M 378.889708 239.027093 
L 385.044169 232.290481 
L 389.800735 226.799094 
" style="fill:none;stroke:#999999;"/>
    <path clip-path="url(#pb86af8af9a)" d="M 468.80224 156.570396 
L 474.270801 156.350931 
L 477.226881 159.304163 
" style="fill:none;stroke:#999999;"/>
    <path clip-path="url(#pb86af8af9a)" d="M 468.80224 156.570396 
L 463.88911 144.771784 
L 465.4883 143.469309 
L 458.994617 133.378705 
" style="fill:none;stroke:#999999;"/>
    <path clip-path="url(#pb86af8af9a)" d="M 468.80224 156.570396 
L 457.645184 162.476859 
L 444.519892 172.319372 
L 431.603353 180.606549 
" style="fill:none;stroke:#999999;"/>
    <path clip-path="url(#pb86af8af9a)" d="M 372.191001 237.500382 
L 372.325198 231.827697 
L 376.921473 222.858271 
L 382.673341 218.254284 
" style="fill:none;stroke:#999999;"/>
    <path clip-path="url(#pb86af8af9a)" d="M 372.191001 237.500382 
L 369.227466 236.498478 
L 351.543176 230.730374 
" style="fill:none;stroke:#999999;"/>
    <path clip-path="url(#pb86af8af9a)" d="M 372.191001 237.500382 
L 373.969122 239.494648 
L 376.298945 241.660669 
" style="fill:none;stroke:#999999;"/>
    <path clip-path="url(#pb86af8af9a)" d="M 305.211383 154.514107 
L 295.057082 157.901497 
" style="fill:none;stroke:#999999;"/>
    <path clip-path="url(#pb86af8af9a)" d="M 305.211383 154.514107 
L 307.790963 159.852824 
L 311.947367 163.569411 
" style="fill:none;stroke:#999999;"/>
    <path clip-path="url(#pb86af8af9a)" d="M 305.211383 154.514107 
L 308.883184 153.287968 
L 319.167955 150.444469 
L 331.197297 147.60097 
L 343.450303 143.445454 
" style="fill:none;stroke:#999999;"/>
    <path clip-path="url(#pb86af8af9a)" d="M 346.514486 152.634345 
L 359.419842 149.571381 
" style="fill:none;stroke:#999999;"/>
    <path clip-path="url(#pb86af8af9a)" d="M 346.514486 152.634345 
L 343.450303 143.445454 
" style="fill:none;stroke:#999999;"/>
    <path clip-path="url(#pb86af8af9a)" d="M 346.514486 152.634345 
L 316.979785 159.852824 
L 311.947367 163.569411 
" style="fill:none;stroke:#999999;"/>
    <path clip-path="url(#pb86af8af9a)" d="M 346.514486 152.634345 
L 349.138799 162.257394 
L 352.053874 173.841312 
" style="fill:none;stroke:#999999;"/>
    <path clip-path="url(#pb86af8af9a)" d="M 473.834658 231.169303 
L 483.459623 229.198892 
" style="fill:none;stroke:#999999;"/>
    <path clip-path="url(#pb86af8af9a)" d="M 473.834658 231.169303 
L 463.113744 235.983213 
L 455.020871 242.328605 
L 445.395906 243.640622 
L 437.739175 244.074781 
L 430.149544 242.586238 
L 421.422958 241.927843 
" style="fill:none;stroke:#999999;"/>
    <path clip-path="url(#pb86af8af9a)" d="M 473.834658 231.169303 
L 464.645836 222.419342 
L 457.865119 218.47852 
L 451.300609 213.230451 
L 450.040641 209.790581 
" style="fill:none;stroke:#999999;"/>
    <path clip-path="url(#pb86af8af9a)" d="M 359.419842 149.571381 
L 368.8286 172.977766 
" style="fill:none;stroke:#999999;"/>
    <path clip-path="url(#pb86af8af9a)" d="M 359.419842 149.571381 
L 358.118869 145.625788 
" style="fill:none;stroke:#999999;"/>
    <path clip-path="url(#pb86af8af9a)" d="M 359.419842 149.571381 
L 346.514486 152.634345 
" style="fill:none;stroke:#999999;"/>
    <path clip-path="url(#pb86af8af9a)" d="M 524.80746 146.947347 
L 498.773085 177.352747 
" style="fill:none;stroke:#999999;"/>
    <path clip-path="url(#pb86af8af9a)" d="M 524.80746 146.947347 
L 521.515886 159.256453 
L 517.926094 176.589392 
L 510.150077 199.447115 
L 503.805502 213.230451 
L 502.929489 221.980413 
L 498.773085 225.482305 
L 495.80955 226.937452 
" style="fill:none;stroke:#999999;"/>
    <path clip-path="url(#pb86af8af9a)" d="M 524.80746 146.947347 
L 530.935826 138.812841 
L 533.2321 129.399715 
L 534.152846 121.12685 
L 531.625454 105.277684 
L 532.083963 94.480976 
L 534.380237 84.834072 
" style="fill:none;stroke:#999999;"/>
    <path clip-path="url(#pb86af8af9a)" d="M 351.543176 230.730374 
L 361.634106 218.965159 
" style="fill:none;stroke:#999999;"/>
    <path clip-path="url(#pb86af8af9a)" d="M 351.543176 230.730374 
L 337.541872 226.355393 
L 328.737004 222.796249 
" style="fill:none;stroke:#999999;"/>
    <path clip-path="url(#pb86af8af9a)" d="M 351.543176 230.730374 
L 369.227466 236.498478 
L 372.191001 237.500382 
" style="fill:none;stroke:#999999;"/>
    <path clip-path="url(#pb86af8af9a)" d="M 278.662583 146.675402 
L 288.485117 143.302325 
" style="fill:none;stroke:#999999;"/>
    <path clip-path="url(#pb86af8af9a)" d="M 278.662583 146.675402 
L 275.699048 138.273721 
" style="fill:none;stroke:#999999;"/>
    <path clip-path="url(#pb86af8af9a)" d="M 278.662583 146.675402 
L 287.008941 170.353732 
L 293.569723 181.947192 
" style="fill:none;stroke:#999999;"/>
    <path clip-path="url(#pb86af8af9a)" d="M 483.459623 229.198892 
L 495.052823 223.731359 
" style="fill:none;stroke:#999999;"/>
    <path clip-path="url(#pb86af8af9a)" d="M 483.459623 229.198892 
L 473.834658 231.169303 
" style="fill:none;stroke:#999999;"/>
    <path clip-path="url(#pb86af8af9a)" d="M 483.459623 229.198892 
L 484.77178 232.700785 
L 489.584262 235.983213 
L 494.61668 236.417372 
L 496.80485 231.169303 
L 495.80955 226.937452 
" style="fill:none;stroke:#999999;"/>
    <path clip-path="url(#pb86af8af9a)" d="M 343.450303 143.445454 
L 340.415941 133.35485 
" style="fill:none;stroke:#999999;"/>
    <path clip-path="url(#pb86af8af9a)" d="M 343.450303 143.445454 
L 346.514486 152.634345 
" style="fill:none;stroke:#999999;"/>
    <path clip-path="url(#pb86af8af9a)" d="M 343.450303 143.445454 
L 331.197297 147.60097 
L 319.167955 150.444469 
L 308.883184 153.287968 
L 305.211383 154.514107 
" style="fill:none;stroke:#999999;"/>
    <path clip-path="url(#pb86af8af9a)" d="M 495.80955 226.937452 
L 495.052823 223.731359 
" style="fill:none;stroke:#999999;"/>
    <path clip-path="url(#pb86af8af9a)" d="M 495.80955 226.937452 
L 496.80485 231.169303 
L 494.61668 236.417372 
L 489.584262 235.983213 
L 484.77178 232.700785 
L 483.459623 229.198892 
" style="fill:none;stroke:#999999;"/>
    <path clip-path="url(#pb86af8af9a)" d="M 495.80955 226.937452 
L 498.773085 225.482305 
L 502.929489 221.980413 
L 503.805502 213.230451 
L 510.150077 199.447115 
L 517.926094 176.589392 
L 521.515886 159.256453 
L 524.80746 146.947347 
" style="fill:none;stroke:#999999;"/>
    <path clip-path="url(#pb86af8af9a)" d="M 288.485117 143.302325 
L 278.662583 146.675402 
" style="fill:none;stroke:#999999;"/>
    <path clip-path="url(#pb86af8af9a)" d="M 288.485117 143.302325 
L 295.057082 157.901497 
" style="fill:none;stroke:#999999;"/>
    <path clip-path="url(#pb86af8af9a)" d="M 288.485117 143.302325 
L 302.102467 138.631544 
L 320.040241 133.383476 
" style="fill:none;stroke:#999999;"/>
    <path clip-path="url(#pb86af8af9a)" d="M 389.800735 226.799094 
L 411.507231 201.741952 
" style="fill:none;stroke:#999999;"/>
    <path clip-path="url(#pb86af8af9a)" d="M 389.800735 226.799094 
L 385.044169 232.290481 
L 378.889708 239.027093 
" style="fill:none;stroke:#999999;"/>
    <path clip-path="url(#pb86af8af9a)" d="M 389.800735 226.799094 
L 398.579509 238.607247 
L 401.423757 247.357209 
L 405.796369 255.453547 
" style="fill:none;stroke:#999999;"/>
    <path clip-path="url(#pb86af8af9a)" d="M 358.118869 145.625788 
L 359.419842 149.571381 
" style="fill:none;stroke:#999999;"/>
    <path clip-path="url(#pb86af8af9a)" d="M 358.118869 145.625788 
L 354.383697 134.280418 
" style="fill:none;stroke:#999999;"/>
    <path clip-path="url(#pb86af8af9a)" d="M 358.118869 145.625788 
L 385.454217 151.537021 
L 386.766374 141.694508 
" style="fill:none;stroke:#999999;"/>
    <path clip-path="url(#pb86af8af9a)" d="M 386.766374 141.694508 
L 361.168142 135.788045 
L 354.383697 134.280418 
" style="fill:none;stroke:#999999;"/>
    <path clip-path="url(#pb86af8af9a)" d="M 386.766374 141.694508 
L 385.454217 151.537021 
L 358.118869 145.625788 
" style="fill:none;stroke:#999999;"/>
    <path clip-path="url(#pb86af8af9a)" d="M 386.766374 141.694508 
L 384.358269 134.037099 
L 379.325851 130.101047 
L 362.484026 124.633514 
L 353.295203 123.316726 
" style="fill:none;stroke:#999999;"/>
    <path clip-path="url(#pb86af8af9a)" d="M 495.052823 223.731359 
L 495.80955 226.937452 
" style="fill:none;stroke:#999999;"/>
    <path clip-path="url(#pb86af8af9a)" d="M 495.052823 223.731359 
L 483.459623 229.198892 
" style="fill:none;stroke:#999999;"/>
    <path clip-path="url(#pb86af8af9a)" d="M 495.052823 223.731359 
L 491.116354 204.261025 
L 490.352172 199.189483 
" style="fill:none;stroke:#999999;"/>
    <path clip-path="url(#pb86af8af9a)" d="M 275.699048 138.273721 
L 281.741677 122.982758 
" style="fill:none;stroke:#999999;"/>
    <path clip-path="url(#pb86af8af9a)" d="M 275.699048 138.273721 
L 253.239553 119.690788 
" style="fill:none;stroke:#999999;"/>
    <path clip-path="url(#pb86af8af9a)" d="M 275.699048 138.273721 
L 278.662583 146.675402 
" style="fill:none;stroke:#999999;"/>
    <path clip-path="url(#pb86af8af9a)" d="M 275.699048 138.273721 
L 274.11104 142.434008 
L 270.942481 154.118117 
L 270.036646 158.645769 
" style="fill:none;stroke:#999999;"/>
    <path clip-path="url(#pb86af8af9a)" d="M 492.648446 140.82142 
L 483.895766 132.505617 
L 473.398515 132.725082 
L 469.573878 126.618238 
" style="fill:none;stroke:#999999;"/>
    <path clip-path="url(#pb86af8af9a)" d="M 492.648446 140.82142 
L 481.271454 151.975951 
L 477.226881 159.304163 
" style="fill:none;stroke:#999999;"/>
    <path clip-path="url(#pb86af8af9a)" d="M 492.648446 140.82142 
L 499.212955 146.508418 
L 495.272758 162.257394 
" style="fill:none;stroke:#999999;"/>
    <path clip-path="url(#pb86af8af9a)" d="M 328.737004 222.796249 
L 331.435871 208.984287 
" style="fill:none;stroke:#999999;"/>
    <path clip-path="url(#pb86af8af9a)" d="M 328.737004 222.796249 
L 321.646887 218.893594 
L 315.447693 207.982383 
L 302.102467 195.511064 
L 293.569723 181.947192 
" style="fill:none;stroke:#999999;"/>
    <path clip-path="url(#pb86af8af9a)" d="M 328.737004 222.796249 
L 337.541872 226.355393 
L 351.543176 230.730374 
" style="fill:none;stroke:#999999;"/>
    <path clip-path="url(#pb86af8af9a)" d="M 354.383697 134.280418 
L 358.118869 145.625788 
" style="fill:none;stroke:#999999;"/>
    <path clip-path="url(#pb86af8af9a)" d="M 354.383697 134.280418 
L 353.295203 123.316726 
" style="fill:none;stroke:#999999;"/>
    <path clip-path="url(#pb86af8af9a)" d="M 354.383697 134.280418 
L 361.168142 135.788045 
L 386.766374 141.694508 
" style="fill:none;stroke:#999999;"/>
    <path clip-path="url(#pb86af8af9a)" d="M 354.383697 134.280418 
L 351.326969 133.60294 
L 340.415941 133.35485 
" style="fill:none;stroke:#999999;"/>
    <path clip-path="url(#pb86af8af9a)" d="M 406.46363 133.94645 
L 416.364446 141.613401 
" style="fill:none;stroke:#999999;"/>
    <path clip-path="url(#pb86af8af9a)" d="M 406.46363 133.94645 
L 387.590199 117.858735 
L 366.864093 112.596354 
L 355.34172 110.678423 
" style="fill:none;stroke:#999999;"/>
    <path clip-path="url(#pb86af8af9a)" d="M 406.46363 133.94645 
L 403.391991 154.599985 
L 400.767679 164.881428 
L 390.046765 180.635175 
" style="fill:none;stroke:#999999;"/>
    <path clip-path="url(#pb86af8af9a)" d="M 188.269175 133.612482 
L 221.371301 121.236583 
" style="fill:none;stroke:#999999;"/>
    <path clip-path="url(#pb86af8af9a)" d="M 382.673341 218.254284 
L 372.545134 212.357363 
" style="fill:none;stroke:#999999;"/>
    <path clip-path="url(#pb86af8af9a)" d="M 382.673341 218.254284 
L 376.921473 222.858271 
L 372.325198 231.827697 
L 372.191001 237.500382 
" style="fill:none;stroke:#999999;"/>
    <path clip-path="url(#pb86af8af9a)" d="M 382.673341 218.254284 
L 389.170751 213.888845 
L 394.859247 207.982383 
L 403.611927 193.540653 
L 405.706904 190.63036 
" style="fill:none;stroke:#999999;"/>
    <path clip-path="url(#pb86af8af9a)" d="M 320.040241 133.383476 
L 315.391778 120.201282 
" style="fill:none;stroke:#999999;"/>
    <path clip-path="url(#pb86af8af9a)" d="M 320.040241 133.383476 
L 331.857103 133.164011 
L 340.415941 133.35485 
" style="fill:none;stroke:#999999;"/>
    <path clip-path="url(#pb86af8af9a)" d="M 320.040241 133.383476 
L 302.102467 138.631544 
L 288.485117 143.302325 
" style="fill:none;stroke:#999999;"/>
    <path clip-path="url(#pb86af8af9a)" d="M 196.723637 214.213271 
L 226.608743 286.002076 
" style="fill:none;stroke:#999999;"/>
    <path clip-path="url(#pb86af8af9a)" d="M 196.723637 214.213271 
L 159.494928 231.069113 
L 204.328179 285.257805 
" style="fill:none;stroke:#999999;"/>
    <path clip-path="url(#pb86af8af9a)" d="M 196.723637 214.213271 
L 221.680702 202.915611 
L 227.182812 201.684701 
" style="fill:none;stroke:#999999;"/>
    <path clip-path="url(#pb86af8af9a)" d="M 340.415941 133.35485 
L 343.450303 143.445454 
" style="fill:none;stroke:#999999;"/>
    <path clip-path="url(#pb86af8af9a)" d="M 340.415941 133.35485 
L 351.326969 133.60294 
L 354.383697 134.280418 
" style="fill:none;stroke:#999999;"/>
    <path clip-path="url(#pb86af8af9a)" d="M 340.415941 133.35485 
L 331.857103 133.164011 
L 320.040241 133.383476 
" style="fill:none;stroke:#999999;"/>
    <path clip-path="url(#pb86af8af9a)" d="M 421.32231 165.406235 
L 416.364446 141.613401 
" style="fill:none;stroke:#999999;"/>
    <path clip-path="url(#pb86af8af9a)" d="M 421.32231 165.406235 
L 416.953426 176.260195 
" style="fill:none;stroke:#999999;"/>
    <path clip-path="url(#pb86af8af9a)" d="M 421.32231 165.406235 
L 426.936252 172.610402 
L 431.603353 180.606549 
" style="fill:none;stroke:#999999;"/>
    <path clip-path="url(#pb86af8af9a)" d="M 421.32231 165.406235 
L 438.175318 149.790846 
L 458.994617 133.378705 
" style="fill:none;stroke:#999999;"/>
    <path clip-path="url(#pb86af8af9a)" d="M 372.545134 212.357363 
L 382.673341 218.254284 
" style="fill:none;stroke:#999999;"/>
    <path clip-path="url(#pb86af8af9a)" d="M 372.545134 212.357363 
L 360.731999 201.417526 
L 372.325198 186.980567 
L 376.392138 173.850854 
" style="fill:none;stroke:#999999;"/>
    <path clip-path="url(#pb86af8af9a)" d="M 372.545134 212.357363 
L 363.576247 220.229466 
L 361.634106 218.965159 
" style="fill:none;stroke:#999999;"/>
    <path clip-path="url(#pb86af8af9a)" d="M 349.794877 211.26004 
L 361.634106 218.965159 
" style="fill:none;stroke:#999999;"/>
    <path clip-path="url(#pb86af8af9a)" d="M 349.794877 211.26004 
L 331.435871 208.984287 
" style="fill:none;stroke:#999999;"/>
    <path clip-path="url(#pb86af8af9a)" d="M 349.794877 211.26004 
L 349.355007 207.323989 
L 345.198602 192.4481 
L 339.998437 174.003525 
" style="fill:none;stroke:#999999;"/>
    <path clip-path="url(#pb86af8af9a)" d="M 450.040641 209.790581 
L 448.896232 206.665595 
L 445.17597 201.856456 
L 425.92604 206.665595 
L 419.581466 206.011972 
" style="fill:none;stroke:#999999;"/>
    <path clip-path="url(#pb86af8af9a)" d="M 450.040641 209.790581 
L 464.209693 204.04156 
L 471.113425 198.669447 
L 472.082631 197.915633 
L 481.271454 188.726743 
" style="fill:none;stroke:#999999;"/>
    <path clip-path="url(#pb86af8af9a)" d="M 450.040641 209.790581 
L 451.300609 213.230451 
L 457.865119 218.47852 
L 464.645836 222.419342 
L 473.834658 231.169303 
" style="fill:none;stroke:#999999;"/>
    <path clip-path="url(#pb86af8af9a)" d="M 331.435871 208.984287 
L 328.737004 222.796249 
" style="fill:none;stroke:#999999;"/>
    <path clip-path="url(#pb86af8af9a)" d="M 331.435871 208.984287 
L 349.794877 211.26004 
" style="fill:none;stroke:#999999;"/>
    <path clip-path="url(#pb86af8af9a)" d="M 331.435871 208.984287 
L 333.16926 200.978597 
L 323.980437 171.665749 
" style="fill:none;stroke:#999999;"/>
    <path clip-path="url(#pb86af8af9a)" d="M 353.295203 123.316726 
L 354.383697 134.280418 
" style="fill:none;stroke:#999999;"/>
    <path clip-path="url(#pb86af8af9a)" d="M 353.295203 123.316726 
L 355.34172 110.678423 
" style="fill:none;stroke:#999999;"/>
    <path clip-path="url(#pb86af8af9a)" d="M 353.295203 123.316726 
L 315.391778 120.201282 
" style="fill:none;stroke:#999999;"/>
    <path clip-path="url(#pb86af8af9a)" d="M 353.295203 123.316726 
L 362.484026 124.633514 
L 379.325851 130.101047 
L 384.358269 134.037099 
L 386.766374 141.694508 
" style="fill:none;stroke:#999999;"/>
    <path clip-path="url(#pb86af8af9a)" d="M 281.741677 122.982758 
L 275.699048 138.273721 
" style="fill:none;stroke:#999999;"/>
    <path clip-path="url(#pb86af8af9a)" d="M 281.741677 122.982758 
L 283.154482 119.986588 
" style="fill:none;stroke:#999999;"/>
    <path clip-path="url(#pb86af8af9a)" d="M 281.741677 122.982758 
L 253.239553 119.690788 
" style="fill:none;stroke:#999999;"/>
    <path clip-path="url(#pb86af8af9a)" d="M 221.371301 121.236583 
L 190.125578 115.668859 
" style="fill:none;stroke:#999999;"/>
    <path clip-path="url(#pb86af8af9a)" d="M 221.371301 121.236583 
L 229.818308 115.406456 
" style="fill:none;stroke:#999999;"/>
    <path clip-path="url(#pb86af8af9a)" d="M 221.371301 121.236583 
L 188.269175 133.612482 
" style="fill:none;stroke:#999999;"/>
    <path clip-path="url(#pb86af8af9a)" d="M 315.391778 120.201282 
L 320.040241 133.383476 
" style="fill:none;stroke:#999999;"/>
    <path clip-path="url(#pb86af8af9a)" d="M 315.391778 120.201282 
L 311.988372 110.559149 
" style="fill:none;stroke:#999999;"/>
    <path clip-path="url(#pb86af8af9a)" d="M 315.391778 120.201282 
L 353.295203 123.316726 
" style="fill:none;stroke:#999999;"/>
    <path clip-path="url(#pb86af8af9a)" d="M 469.573878 126.618238 
L 473.398515 132.725082 
L 483.895766 132.505617 
L 492.648446 140.82142 
" style="fill:none;stroke:#999999;"/>
    <path clip-path="url(#pb86af8af9a)" d="M 469.573878 126.618238 
L 463.989758 129.442653 
L 458.994617 133.378705 
" style="fill:none;stroke:#999999;"/>
    <path clip-path="url(#pb86af8af9a)" d="M 469.573878 126.618238 
L 480.593009 121.045744 
L 482.58361 120.039069 
" style="fill:none;stroke:#999999;"/>
    <path clip-path="url(#pb86af8af9a)" d="M 419.581466 206.011972 
L 411.507231 201.741952 
" style="fill:none;stroke:#999999;"/>
    <path clip-path="url(#pb86af8af9a)" d="M 419.581466 206.011972 
L 425.92604 206.665595 
L 445.17597 201.856456 
L 448.896232 206.665595 
L 450.040641 209.790581 
" style="fill:none;stroke:#999999;"/>
    <path clip-path="url(#pb86af8af9a)" d="M 419.581466 206.011972 
L 421.113558 216.951809 
L 421.985843 230.949839 
L 421.422958 241.927843 
" style="fill:none;stroke:#999999;"/>
    <path clip-path="url(#pb86af8af9a)" d="M 253.239553 119.690788 
L 275.699048 138.273721 
" style="fill:none;stroke:#999999;"/>
    <path clip-path="url(#pb86af8af9a)" d="M 253.239553 119.690788 
L 233.885247 117.515225 
" style="fill:none;stroke:#999999;"/>
    <path clip-path="url(#pb86af8af9a)" d="M 253.239553 119.690788 
L 281.741677 122.982758 
" style="fill:none;stroke:#999999;"/>
    <path clip-path="url(#pb86af8af9a)" d="M 253.239553 119.690788 
L 235.913125 134.848164 
L 215.183291 150.630537 
L 185.48457 161.455871 
" style="fill:none;stroke:#999999;"/>
    <path clip-path="url(#pb86af8af9a)" d="M 482.58361 120.039069 
L 480.593009 121.045744 
L 469.573878 126.618238 
" style="fill:none;stroke:#999999;"/>
    <path clip-path="url(#pb86af8af9a)" d="M 233.885247 117.515225 
L 228.692537 97.362642 
" style="fill:none;stroke:#999999;"/>
    <path clip-path="url(#pb86af8af9a)" d="M 233.885247 117.515225 
L 229.818308 115.406456 
" style="fill:none;stroke:#999999;"/>
    <path clip-path="url(#pb86af8af9a)" d="M 233.885247 117.515225 
L 253.239553 119.690788 
" style="fill:none;stroke:#999999;"/>
    <path clip-path="url(#pb86af8af9a)" d="M 229.818308 115.406456 
L 221.371301 121.236583 
" style="fill:none;stroke:#999999;"/>
    <path clip-path="url(#pb86af8af9a)" d="M 229.818308 115.406456 
L 203.616185 101.794875 
" style="fill:none;stroke:#999999;"/>
    <path clip-path="url(#pb86af8af9a)" d="M 229.818308 115.406456 
L 233.885247 117.515225 
" style="fill:none;stroke:#999999;"/>
    <path clip-path="url(#pb86af8af9a)" d="M 411.507231 201.741952 
L 389.800735 226.799094 
" style="fill:none;stroke:#999999;"/>
    <path clip-path="url(#pb86af8af9a)" d="M 411.507231 201.741952 
L 419.581466 206.011972 
" style="fill:none;stroke:#999999;"/>
    <path clip-path="url(#pb86af8af9a)" d="M 411.507231 201.741952 
L 415.376601 195.744841 
L 418.284221 194.299237 
" style="fill:none;stroke:#999999;"/>
    <path clip-path="url(#pb86af8af9a)" d="M 227.182812 201.684701 
L 254.749279 286.002076 
" style="fill:none;stroke:#999999;"/>
    <path clip-path="url(#pb86af8af9a)" d="M 227.182812 201.684701 
L 245.19514 197.65323 
" style="fill:none;stroke:#999999;"/>
    <path clip-path="url(#pb86af8af9a)" d="M 227.182812 201.684701 
L 221.680702 202.915611 
L 196.723637 214.213271 
" style="fill:none;stroke:#999999;"/>
    <path clip-path="url(#pb86af8af9a)" d="M 190.125578 115.668859 
L 221.371301 121.236583 
" style="fill:none;stroke:#999999;"/>
    <path clip-path="url(#pb86af8af9a)" d="M 490.352172 199.189483 
L 488.055898 183.917604 
" style="fill:none;stroke:#999999;"/>
    <path clip-path="url(#pb86af8af9a)" d="M 490.352172 199.189483 
L 491.116354 204.261025 
L 495.052823 223.731359 
" style="fill:none;stroke:#999999;"/>
    <path clip-path="url(#pb86af8af9a)" d="M 490.352172 199.189483 
L 498.336942 195.511064 
L 498.99302 186.541638 
L 498.773085 177.352747 
" style="fill:none;stroke:#999999;"/>
    <path clip-path="url(#pb86af8af9a)" d="M 245.19514 197.65323 
L 227.182812 201.684701 
" style="fill:none;stroke:#999999;"/>
    <path clip-path="url(#pb86af8af9a)" d="M 245.19514 197.65323 
L 264.534535 196.436632 
" style="fill:none;stroke:#999999;"/>
    <path clip-path="url(#pb86af8af9a)" d="M 245.19514 197.65323 
L 254.25722 236.345807 
L 266.528864 282.609916 
" style="fill:none;stroke:#999999;"/>
    <path clip-path="url(#pb86af8af9a)" d="M 375.851619 274.5756 
L 385.733796 265.58709 
" style="fill:none;stroke:#999999;"/>
    <path clip-path="url(#pb86af8af9a)" d="M 375.851619 274.5756 
L 370.420335 278.888558 
L 362.841887 282.13759 
L 354.033291 281.937209 
L 346.596496 277.805548 
L 335.070395 267.323724 
" style="fill:none;stroke:#999999;"/>
    <path clip-path="url(#pb86af8af9a)" d="M 375.851619 274.5756 
L 381.297813 289.580305 
L 388.07853 303.144176 
L 390.702843 318.678459 
L 394.859247 335.305294 
L 397.923431 351.493199 
" style="fill:none;stroke:#999999;"/>
    <path clip-path="url(#pb86af8af9a)" d="M 264.534535 196.436632 
L 245.19514 197.65323 
" style="fill:none;stroke:#999999;"/>
    <path clip-path="url(#pb86af8af9a)" d="M 264.534535 196.436632 
L 264.23259 202.786795 
L 272.556582 236.908782 
L 277.130491 251.894403 
" style="fill:none;stroke:#999999;"/>
    <path clip-path="url(#pb86af8af9a)" d="M 264.534535 196.436632 
L 264.795476 190.883222 
L 267.252041 174.060777 
L 268.743128 165.091351 
L 270.036646 158.645769 
" style="fill:none;stroke:#999999;"/>
    <path clip-path="url(#pb86af8af9a)" d="M 418.284221 194.299237 
L 435.271427 188.645636 
" style="fill:none;stroke:#999999;"/>
    <path clip-path="url(#pb86af8af9a)" d="M 418.284221 194.299237 
L 416.953426 176.260195 
" style="fill:none;stroke:#999999;"/>
    <path clip-path="url(#pb86af8af9a)" d="M 418.284221 194.299237 
L 415.376601 195.744841 
L 411.507231 201.741952 
" style="fill:none;stroke:#999999;"/>
    <path clip-path="url(#pb86af8af9a)" d="M 752.369668 28.751304 
L 670.494093 42.649144 
" style="fill:none;stroke:#999999;"/>
    <path clip-path="url(#pb86af8af9a)" d="M 311.988372 110.559149 
L 326.023226 105.792949 
" style="fill:none;stroke:#999999;"/>
    <path clip-path="url(#pb86af8af9a)" d="M 311.988372 110.559149 
L 315.391778 120.201282 
" style="fill:none;stroke:#999999;"/>
    <path clip-path="url(#pb86af8af9a)" d="M 311.988372 110.559149 
L 309.628727 111.360672 
L 283.154482 119.986588 
" style="fill:none;stroke:#999999;"/>
    <path clip-path="url(#pb86af8af9a)" d="M 326.023226 105.792949 
L 311.988372 110.559149 
" style="fill:none;stroke:#999999;"/>
    <path clip-path="url(#pb86af8af9a)" d="M 326.023226 105.792949 
L 355.34172 110.678423 
" style="fill:none;stroke:#999999;"/>
    <path clip-path="url(#pb86af8af9a)" d="M 326.023226 105.792949 
L 322.08303 93.259607 
" style="fill:none;stroke:#999999;"/>
    <path clip-path="url(#pb86af8af9a)" d="M 290.289332 101.852126 
L 289.103918 104.781503 
" style="fill:none;stroke:#999999;"/>
    <path clip-path="url(#pb86af8af9a)" d="M 290.289332 101.852126 
L 270.252853 94.013421 
" style="fill:none;stroke:#999999;"/>
    <path clip-path="url(#pb86af8af9a)" d="M 290.289332 101.852126 
L 292.477502 95.907496 
L 295.847358 87.949516 
L 297.923696 82.978164 
" style="fill:none;stroke:#999999;"/>
    <path clip-path="url(#pb86af8af9a)" d="M 228.692537 97.362642 
L 233.885247 117.515225 
" style="fill:none;stroke:#999999;"/>
    <path clip-path="url(#pb86af8af9a)" d="M 228.692537 97.362642 
L 222.292047 72.510653 
" style="fill:none;stroke:#999999;"/>
    <path clip-path="url(#pb86af8af9a)" d="M 228.692537 97.362642 
L 251.07375 94.013421 
L 260.441502 93.259607 
L 270.252853 94.013421 
" style="fill:none;stroke:#999999;"/>
    <path clip-path="url(#pb86af8af9a)" d="M 270.252853 94.013421 
L 290.289332 101.852126 
" style="fill:none;stroke:#999999;"/>
    <path clip-path="url(#pb86af8af9a)" d="M 270.252853 94.013421 
L 269.943453 69.881848 
L 222.292047 72.510653 
" style="fill:none;stroke:#999999;"/>
    <path clip-path="url(#pb86af8af9a)" d="M 270.252853 94.013421 
L 260.441502 93.259607 
L 251.07375 94.013421 
L 228.692537 97.362642 
" style="fill:none;stroke:#999999;"/>
    <path clip-path="url(#pb86af8af9a)" d="M 322.08303 93.259607 
L 319.253692 83.798771 
" style="fill:none;stroke:#999999;"/>
    <path clip-path="url(#pb86af8af9a)" d="M 322.08303 93.259607 
L 326.023226 105.792949 
" style="fill:none;stroke:#999999;"/>
    <path clip-path="url(#pb86af8af9a)" d="M 322.08303 93.259607 
L 297.480098 102.367391 
L 289.103918 104.781503 
" style="fill:none;stroke:#999999;"/>
    <path clip-path="url(#pb86af8af9a)" d="M 322.08303 93.259607 
L 323.928249 91.141296 
L 349.653224 82.524922 
L 366.263931 74.232974 
L 393.386799 55.65004 
" style="fill:none;stroke:#999999;"/>
    <path clip-path="url(#pb86af8af9a)" d="M 182.081165 90.611718 
L 203.616185 101.794875 
" style="fill:none;stroke:#999999;"/>
    <path clip-path="url(#pb86af8af9a)" d="M 398.210465 85.850289 
L 402.478701 95.325438 
L 414.18746 116.885457 
L 417.203183 132.806188 
L 416.364446 141.613401 
" style="fill:none;stroke:#999999;"/>
    <path clip-path="url(#pb86af8af9a)" d="M 398.210465 85.850289 
L 409.408526 79.242493 
L 439.084881 71.136613 
L 464.657019 64.180537 
L 472.813264 62.82081 
L 480.156866 64.481108 
L 503.171791 69.524025 
L 510.746511 70.263525 
L 520.911995 69.700551 
L 539.718327 66.203429 
" style="fill:none;stroke:#999999;"/>
    <path clip-path="url(#pb86af8af9a)" d="M 398.210465 85.850289 
L 396.171404 78.545932 
L 393.386799 55.65004 
" style="fill:none;stroke:#999999;"/>
    <path clip-path="url(#pb86af8af9a)" d="M 185.793971 74.524003 
L 196.47388 73.937173 
" style="fill:none;stroke:#999999;"/>
    <path clip-path="url(#pb86af8af9a)" d="M 222.292047 72.510653 
L 196.47388 73.937173 
" style="fill:none;stroke:#999999;"/>
    <path clip-path="url(#pb86af8af9a)" d="M 222.292047 72.510653 
L 228.692537 97.362642 
" style="fill:none;stroke:#999999;"/>
    <path clip-path="url(#pb86af8af9a)" d="M 222.292047 72.510653 
L 209.304681 63.078443 
" style="fill:none;stroke:#999999;"/>
    <path clip-path="url(#pb86af8af9a)" d="M 222.292047 72.510653 
L 269.943453 69.881848 
L 270.252853 94.013421 
" style="fill:none;stroke:#999999;"/>
    <path clip-path="url(#pb86af8af9a)" d="M 209.304681 63.078443 
L 222.292047 72.510653 
" style="fill:none;stroke:#999999;"/>
    <path clip-path="url(#pb86af8af9a)" d="M 393.386799 55.65004 
L 403.287615 42.658686 
" style="fill:none;stroke:#999999;"/>
    <path clip-path="url(#pb86af8af9a)" d="M 393.386799 55.65004 
L 366.263931 74.232974 
L 349.653224 82.524922 
L 323.928249 91.141296 
L 322.08303 93.259607 
" style="fill:none;stroke:#999999;"/>
    <path clip-path="url(#pb86af8af9a)" d="M 393.386799 55.65004 
L 396.171404 78.545932 
L 398.210465 85.850289 
" style="fill:none;stroke:#999999;"/>
    <path clip-path="url(#pb86af8af9a)" d="M 393.386799 55.65004 
L 386.270587 49.462091 
L 370.185489 35.85051 
" style="fill:none;stroke:#999999;"/>
    <path clip-path="url(#pb86af8af9a)" d="M 308.786263 55.292218 
L 306.426618 61.904784 
" style="fill:none;stroke:#999999;"/>
    <path clip-path="url(#pb86af8af9a)" d="M 308.786263 55.292218 
L 334.615614 48.560377 
" style="fill:none;stroke:#999999;"/>
    <path clip-path="url(#pb86af8af9a)" d="M 308.786263 55.292218 
L 315.425327 73.903777 
L 316.718845 77.019221 
L 319.253692 83.798771 
" style="fill:none;stroke:#999999;"/>
    <path clip-path="url(#pb86af8af9a)" d="M 334.615614 48.560377 
L 370.185489 35.85051 
" style="fill:none;stroke:#999999;"/>
    <path clip-path="url(#pb86af8af9a)" d="M 334.615614 48.560377 
L 308.786263 55.292218 
" style="fill:none;stroke:#999999;"/>
    <path clip-path="url(#pb86af8af9a)" d="M 334.615614 48.560377 
L 339.413186 58.05461 
" style="fill:none;stroke:#999999;"/>
    <path clip-path="url(#pb86af8af9a)" d="M 334.615614 48.560377 
L 327.868446 33.269414 
" style="fill:none;stroke:#999999;"/>
    <path clip-path="url(#pb86af8af9a)" d="M 403.287615 42.658686 
L 393.386799 55.65004 
" style="fill:none;stroke:#999999;"/>
    <path clip-path="url(#pb86af8af9a)" d="M 370.185489 35.85051 
L 334.615614 48.560377 
" style="fill:none;stroke:#999999;"/>
    <path clip-path="url(#pb86af8af9a)" d="M 370.185489 35.85051 
L 355.953066 20.072908 
" style="fill:none;stroke:#999999;"/>
    <path clip-path="url(#pb86af8af9a)" d="M 370.185489 35.85051 
L 386.270587 49.462091 
L 393.386799 55.65004 
" style="fill:none;stroke:#999999;"/>
    <path clip-path="url(#pb86af8af9a)" d="M 327.868446 33.269414 
L 334.615614 48.560377 
" style="fill:none;stroke:#999999;"/>
    <path clip-path="url(#pb86af8af9a)" d="M 355.953066 20.072908 
L 370.185489 35.85051 
" style="fill:none;stroke:#999999;"/>
    <path clip-path="url(#pb86af8af9a)" d="M 458.994617 133.378705 
L 465.4883 143.469309 
L 463.88911 144.771784 
L 468.80224 156.570396 
" style="fill:none;stroke:#999999;"/>
    <path clip-path="url(#pb86af8af9a)" d="M 458.994617 133.378705 
L 438.175318 149.790846 
L 421.32231 165.406235 
" style="fill:none;stroke:#999999;"/>
    <path clip-path="url(#pb86af8af9a)" d="M 458.994617 133.378705 
L 463.989758 129.442653 
L 469.573878 126.618238 
" style="fill:none;stroke:#999999;"/>
    <path clip-path="url(#pb86af8af9a)" d="M 361.634106 218.965159 
L 349.794877 211.26004 
" style="fill:none;stroke:#999999;"/>
    <path clip-path="url(#pb86af8af9a)" d="M 361.634106 218.965159 
L 351.543176 230.730374 
" style="fill:none;stroke:#999999;"/>
    <path clip-path="url(#pb86af8af9a)" d="M 361.634106 218.965159 
L 363.576247 220.229466 
L 372.545134 212.357363 
" style="fill:none;stroke:#999999;"/>
    <path clip-path="url(#pb86af8af9a)" d="M 355.34172 110.678423 
L 326.023226 105.792949 
" style="fill:none;stroke:#999999;"/>
    <path clip-path="url(#pb86af8af9a)" d="M 355.34172 110.678423 
L 353.295203 123.316726 
" style="fill:none;stroke:#999999;"/>
    <path clip-path="url(#pb86af8af9a)" d="M 355.34172 110.678423 
L 366.864093 112.596354 
L 387.590199 117.858735 
L 406.46363 133.94645 
" style="fill:none;stroke:#999999;"/>
    <path clip-path="url(#pb86af8af9a)" d="M 200.123315 298.10603 
L 199.91829 285.024027 
" style="fill:none;stroke:#999999;"/>
    <path clip-path="url(#pb86af8af9a)" d="M 199.91829 285.024027 
L 204.328179 285.257805 
" style="fill:none;stroke:#999999;"/>
    <path clip-path="url(#pb86af8af9a)" d="M 199.91829 285.024027 
L 200.123315 298.10603 
" style="fill:none;stroke:#999999;"/>
    <path clip-path="url(#pb86af8af9a)" d="M 199.91829 285.024027 
L 180.109202 285.544063 
L 106.852109 299.064996 
" style="fill:none;stroke:#999999;"/>
    <path clip-path="url(#pb86af8af9a)" d="M 210.922511 423.692308 
L 206.322508 406.492956 
L 205.32348 388.296472 
L 209.923482 376.69347 
L 232.319606 363.897725 
L 247.118642 349.899695 
L 259.714597 335.901665 
L 264.3146 319.503837 
L 276.112824 295.30547 
L 282.371661 289.785456 
" style="fill:none;stroke:#999999;"/>
    <path clip-path="url(#pb86af8af9a)" d="M 186.528331 360.295641 
L 202.326395 346.297611 
L 222.922031 329.899783 
L 251.517348 306.302559 
L 284.146054 277.800777 
" style="fill:none;stroke:#999999;"/>
    <path clip-path="url(#pb86af8af9a)" d="M 127.585671 340.448401 
L 106.852109 299.064996 
" style="fill:none;stroke:#999999;"/>
    <path clip-path="url(#pb86af8af9a)" d="M 196.47388 73.937173 
L 222.292047 72.510653 
" style="fill:none;stroke:#999999;"/>
    <path clip-path="url(#pb86af8af9a)" d="M 196.47388 73.937173 
L 185.793971 74.524003 
" style="fill:none;stroke:#999999;"/>
    <path clip-path="url(#pb86af8af9a)" d="M 196.47388 73.937173 
L 203.616185 101.794875 
" style="fill:none;stroke:#999999;"/>
    <path clip-path="url(#pb86af8af9a)" d="M 203.616185 101.794875 
L 182.081165 90.611718 
" style="fill:none;stroke:#999999;"/>
    <path clip-path="url(#pb86af8af9a)" d="M 203.616185 101.794875 
L 229.818308 115.406456 
" style="fill:none;stroke:#999999;"/>
    <path clip-path="url(#pb86af8af9a)" d="M 203.616185 101.794875 
L 196.47388 73.937173 
" style="fill:none;stroke:#999999;"/>
    <path clip-path="url(#pb86af8af9a)" d="M 376.298945 241.660669 
L 378.889708 239.027093 
" style="fill:none;stroke:#999999;"/>
    <path clip-path="url(#pb86af8af9a)" d="M 376.298945 241.660669 
L 358.763764 257.204494 
L 349.355007 265.954455 
" style="fill:none;stroke:#999999;"/>
    <path clip-path="url(#pb86af8af9a)" d="M 376.298945 241.660669 
L 373.969122 239.494648 
L 372.191001 237.500382 
" style="fill:none;stroke:#999999;"/>
    <path clip-path="url(#pb86af8af9a)" d="M 534.380237 84.834072 
L 539.718327 66.203429 
" style="fill:none;stroke:#999999;"/>
    <path clip-path="url(#pb86af8af9a)" d="M 534.380237 84.834072 
L 528.866943 90.578321 
L 526.801788 96.322571 
L 525.881042 108.264312 
L 524.274396 120.210824 
L 520.367749 132.615349 
L 517.806807 138.851009 
L 495.272758 162.257394 
" style="fill:none;stroke:#999999;"/>
    <path clip-path="url(#pb86af8af9a)" d="M 534.380237 84.834072 
L 532.083963 94.480976 
L 531.625454 105.277684 
L 534.152846 121.12685 
L 533.2321 129.399715 
L 530.935826 138.812841 
L 524.80746 146.947347 
" style="fill:none;stroke:#999999;"/>
    <path clip-path="url(#pb86af8af9a)" d="M 539.718327 66.203429 
L 534.380237 84.834072 
" style="fill:none;stroke:#999999;"/>
    <path clip-path="url(#pb86af8af9a)" d="M 539.718327 66.203429 
L 520.911995 69.700551 
L 510.746511 70.263525 
L 503.171791 69.524025 
L 480.156866 64.481108 
L 472.813264 62.82081 
L 464.657019 64.180537 
L 439.084881 71.136613 
L 409.408526 79.242493 
L 398.210465 85.850289 
" style="fill:none;stroke:#999999;"/>
    <path clip-path="url(#pb86af8af9a)" d="M 539.718327 66.203429 
L 623.953547 50.549872 
L 670.494093 42.649144 
" style="fill:none;stroke:#999999;"/>
    <path clip-path="url(#pb86af8af9a)" d="M 106.852109 299.064996 
L 127.585671 340.448401 
" style="fill:none;stroke:#999999;"/>
    <path clip-path="url(#pb86af8af9a)" d="M 106.852109 299.064996 
L 180.109202 285.544063 
L 199.91829 285.024027 
" style="fill:none;stroke:#999999;"/>
    <path clip-path="url(#pb86af8af9a)" d="M 283.154482 119.986588 
L 281.741677 122.982758 
" style="fill:none;stroke:#999999;"/>
    <path clip-path="url(#pb86af8af9a)" d="M 283.154482 119.986588 
L 289.103918 104.781503 
" style="fill:none;stroke:#999999;"/>
    <path clip-path="url(#pb86af8af9a)" d="M 283.154482 119.986588 
L 309.628727 111.360672 
L 311.988372 110.559149 
" style="fill:none;stroke:#999999;"/>
    <path clip-path="url(#pb86af8af9a)" d="M 284.146054 277.800777 
L 282.371661 289.785456 
" style="fill:none;stroke:#999999;"/>
    <path clip-path="url(#pb86af8af9a)" d="M 284.146054 277.800777 
L 266.528864 282.609916 
" style="fill:none;stroke:#999999;"/>
    <path clip-path="url(#pb86af8af9a)" d="M 284.146054 277.800777 
L 281.607479 268.339941 
L 277.130491 251.894403 
" style="fill:none;stroke:#999999;"/>
    <path clip-path="url(#pb86af8af9a)" d="M 284.146054 277.800777 
L 308.402308 267.218762 
L 316.614469 264.36095 
L 327.879629 263.731182 
L 335.070395 267.323724 
" style="fill:none;stroke:#999999;"/>
    <path clip-path="url(#pb86af8af9a)" d="M 284.146054 277.800777 
L 251.517348 306.302559 
L 222.922031 329.899783 
L 202.326395 346.297611 
L 186.528331 360.295641 
" style="fill:none;stroke:#999999;"/>
    <path clip-path="url(#pb86af8af9a)" d="M 319.253692 83.798771 
L 322.08303 93.259607 
" style="fill:none;stroke:#999999;"/>
    <path clip-path="url(#pb86af8af9a)" d="M 319.253692 83.798771 
L 297.923696 82.978164 
" style="fill:none;stroke:#999999;"/>
    <path clip-path="url(#pb86af8af9a)" d="M 319.253692 83.798771 
L 316.718845 77.019221 
L 315.425327 73.903777 
L 308.786263 55.292218 
" style="fill:none;stroke:#999999;"/>
    <path clip-path="url(#pb86af8af9a)" d="M 297.923696 82.978164 
L 319.253692 83.798771 
" style="fill:none;stroke:#999999;"/>
    <path clip-path="url(#pb86af8af9a)" d="M 297.923696 82.978164 
L 295.847358 87.949516 
L 292.477502 95.907496 
L 290.289332 101.852126 
" style="fill:none;stroke:#999999;"/>
    <path clip-path="url(#pb86af8af9a)" d="M 297.923696 82.978164 
L 299.571347 78.884671 
L 299.951574 77.968644 
" style="fill:none;stroke:#999999;"/>
    <path clip-path="url(#pb86af8af9a)" d="M 299.951574 77.968644 
L 275.441835 68.412389 
" style="fill:none;stroke:#999999;"/>
    <path clip-path="url(#pb86af8af9a)" d="M 299.951574 77.968644 
L 299.571347 78.884671 
L 297.923696 82.978164 
" style="fill:none;stroke:#999999;"/>
    <path clip-path="url(#pb86af8af9a)" d="M 299.951574 77.968644 
L 305.423863 64.710115 
L 306.426618 61.904784 
" style="fill:none;stroke:#999999;"/>
    <path clip-path="url(#pb86af8af9a)" d="M 275.441835 68.412389 
L 299.951574 77.968644 
" style="fill:none;stroke:#999999;"/>
    <path clip-path="url(#pb86af8af9a)" d="M 290.006025 62.620429 
L 291.50084 58.293159 
L 291.84379 56.68057 
" style="fill:none;stroke:#999999;"/>
    <path clip-path="url(#pb86af8af9a)" d="M 306.426618 61.904784 
L 308.786263 55.292218 
" style="fill:none;stroke:#999999;"/>
    <path clip-path="url(#pb86af8af9a)" d="M 306.426618 61.904784 
L 291.84379 56.68057 
" style="fill:none;stroke:#999999;"/>
    <path clip-path="url(#pb86af8af9a)" d="M 306.426618 61.904784 
L 305.423863 64.710115 
L 299.951574 77.968644 
" style="fill:none;stroke:#999999;"/>
    <path clip-path="url(#pb86af8af9a)" d="M 339.413186 58.05461 
L 334.615614 48.560377 
" style="fill:none;stroke:#999999;"/>
    <path clip-path="url(#pb86af8af9a)" d="M 291.84379 56.68057 
L 306.426618 61.904784 
" style="fill:none;stroke:#999999;"/>
    <path clip-path="url(#pb86af8af9a)" d="M 291.84379 56.68057 
L 291.50084 58.293159 
L 290.006025 62.620429 
" style="fill:none;stroke:#999999;"/>
    <path clip-path="url(#pb86af8af9a)" d="M 291.84379 56.68057 
L 292.168101 55.134776 
L 296.499708 42.859066 
" style="fill:none;stroke:#999999;"/>
    <path clip-path="url(#pb86af8af9a)" d="M 282.371661 289.785456 
L 284.146054 277.800777 
" style="fill:none;stroke:#999999;"/>
    <path clip-path="url(#pb86af8af9a)" d="M 282.371661 289.785456 
L 276.112824 295.30547 
L 264.3146 319.503837 
L 259.714597 335.901665 
L 247.118642 349.899695 
L 232.319606 363.897725 
L 209.923482 376.69347 
L 205.32348 388.296472 
L 206.322508 406.492956 
L 210.922511 423.692308 
" style="fill:none;stroke:#999999;"/>
    <path clip-path="url(#pb86af8af9a)" d="M 670.494093 42.649144 
L 752.369668 28.751304 
" style="fill:none;stroke:#999999;"/>
    <path clip-path="url(#pb86af8af9a)" d="M 670.494093 42.649144 
L 676.208683 8.617805 
" style="fill:none;stroke:#999999;"/>
    <path clip-path="url(#pb86af8af9a)" d="M 670.494093 42.649144 
L 623.953547 50.549872 
L 539.718327 66.203429 
" style="fill:none;stroke:#999999;"/>
    <path clip-path="url(#pb86af8af9a)" d="M 296.499708 42.859066 
L 300.074589 34.748415 
" style="fill:none;stroke:#999999;"/>
    <path clip-path="url(#pb86af8af9a)" d="M 296.499708 42.859066 
L 280.101481 36.661575 
" style="fill:none;stroke:#999999;"/>
    <path clip-path="url(#pb86af8af9a)" d="M 296.499708 42.859066 
L 292.168101 55.134776 
L 291.84379 56.68057 
" style="fill:none;stroke:#999999;"/>
    <path clip-path="url(#pb86af8af9a)" d="M 280.101481 36.661575 
L 296.499708 42.859066 
" style="fill:none;stroke:#999999;"/>
    <path clip-path="url(#pb86af8af9a)" d="M 300.074589 34.748415 
L 296.499708 42.859066 
" style="fill:none;stroke:#999999;"/>
    <path clip-path="url(#pb86af8af9a)" d="M 688.912742 8.775247 
L 676.208683 8.617805 
" style="fill:none;stroke:#999999;"/>
    <path clip-path="url(#pb86af8af9a)" d="M 676.208683 8.617805 
L 670.494093 42.649144 
" style="fill:none;stroke:#999999;"/>
    <path clip-path="url(#pb86af8af9a)" d="M 676.208683 8.617805 
L 688.912742 8.775247 
" style="fill:none;stroke:#999999;"/>
    <path clip-path="url(#pb86af8af9a)" d="M 676.208683 8.617805 
L 651.0205 8.307692 
" style="fill:none;stroke:#999999;"/>
    <path clip-path="url(#pb86af8af9a)" d="M 651.0205 8.307692 
L 676.208683 8.617805 
" style="fill:none;stroke:#999999;"/>
   </g>
  </g>
 </g>
 <defs>
  <clipPath id="pb86af8af9a">
   <rect height="432" width="671.338261" x="93.941758" y="0"/>
  </clipPath>
 </defs>
</svg>
