<?xml version="1.0" encoding="utf-8" standalone="no"?>
<!DOCTYPE svg PUBLIC "-//W3C//DTD SVG 1.1//EN"
  "http://www.w3.org/Graphics/SVG/1.1/DTD/svg11.dtd">
<!-- Created with matplotlib (http://matplotlib.org/) -->
<svg height="432pt" version="1.1" viewBox="0 0 1311.551683 432" width="1311.551683pt" xmlns="http://www.w3.org/2000/svg" xmlns:xlink="http://www.w3.org/1999/xlink">
 <defs>
  <style type="text/css">
*{stroke-linecap:butt;stroke-linejoin:round;}
  </style>
 </defs>
 <g id="figure_1">
  <g id="patch_1">
   <path d="M 0 432 
L 1311.551683 432 
L 1311.551683 0 
L 0 0 
z
" style="fill:none;opacity:0;"/>
  </g>
  <g id="axes_1">
   <g id="PathCollection_1">
    <defs>
     <path d="M 0 1.936492 
C 0.513564 1.936492 1.006162 1.732451 1.369306 1.369306 
C 1.732451 1.006162 1.936492 0.513564 1.936492 0 
C 1.936492 -0.513564 1.732451 -1.006162 1.369306 -1.369306 
C 1.006162 -1.732451 0.513564 -1.936492 0 -1.936492 
C -0.513564 -1.936492 -1.006162 -1.732451 -1.369306 -1.369306 
C -1.732451 -1.006162 -1.936492 -0.513564 -1.936492 0 
C -1.936492 0.513564 -1.732451 1.006162 -1.369306 1.369306 
C -1.006162 1.732451 -0.513564 1.936492 0 1.936492 
z
" id="C0_0_fcfbd2471a"/>
    </defs>
    <g clip-path="url(#p507f83ade5)">
     <use style="fill:#66ccff;" x="921.26025" xlink:href="#C0_0_fcfbd2471a" y="423.692308"/>
    </g>
    <g clip-path="url(#p507f83ade5)">
     <use style="fill:#66ccff;" x="167.599667" xlink:href="#C0_0_fcfbd2471a" y="92.546268"/>
    </g>
    <g clip-path="url(#p507f83ade5)">
     <use style="fill:#66ccff;" x="1038.744831" xlink:href="#C0_0_fcfbd2471a" y="288.598886"/>
    </g>
    <g clip-path="url(#p507f83ade5)">
     <use style="fill:#66ccff;" x="1010.998473" xlink:href="#C0_0_fcfbd2471a" y="282.571287"/>
    </g>
    <g clip-path="url(#p507f83ade5)">
     <use style="fill:#66ccff;" x="1039.741536" xlink:href="#C0_0_fcfbd2471a" y="285.195122"/>
    </g>
    <g clip-path="url(#p507f83ade5)">
     <use style="fill:#66ccff;" x="1021.622078" xlink:href="#C0_0_fcfbd2471a" y="280.484208"/>
    </g>
    <g clip-path="url(#p507f83ade5)">
     <use style="fill:#66ccff;" x="1026.018126" xlink:href="#C0_0_fcfbd2471a" y="285.106571"/>
    </g>
    <g clip-path="url(#p507f83ade5)">
     <use style="fill:#66ccff;" x="1016.789907" xlink:href="#C0_0_fcfbd2471a" y="284.79528"/>
    </g>
    <g clip-path="url(#p507f83ade5)">
     <use style="fill:#66ccff;" x="1022.117794" xlink:href="#C0_0_fcfbd2471a" y="284.956034"/>
    </g>
    <g clip-path="url(#p507f83ade5)">
     <use style="fill:#66ccff;" x="1036.727691" xlink:href="#C0_0_fcfbd2471a" y="284.561641"/>
    </g>
    <g clip-path="url(#p507f83ade5)">
     <use style="fill:#66ccff;" x="1040.722947" xlink:href="#C0_0_fcfbd2471a" y="282.225257"/>
    </g>
    <g clip-path="url(#p507f83ade5)">
     <use style="fill:#66ccff;" x="1016.03315" xlink:href="#C0_0_fcfbd2471a" y="281.63469"/>
    </g>
    <g clip-path="url(#p507f83ade5)">
     <use style="fill:#66ccff;" x="1027.067566" xlink:href="#C0_0_fcfbd2471a" y="281.48211"/>
    </g>
    <g clip-path="url(#p507f83ade5)">
     <use style="fill:#66ccff;" x="1037.822484" xlink:href="#C0_0_fcfbd2471a" y="281.385385"/>
    </g>
    <g clip-path="url(#p507f83ade5)">
     <use style="fill:#66ccff;" x="1019.703027" xlink:href="#C0_0_fcfbd2471a" y="280.879282"/>
    </g>
    <g clip-path="url(#p507f83ade5)">
     <use style="fill:#66ccff;" x="1028.437112" xlink:href="#C0_0_fcfbd2471a" y="277.331792"/>
    </g>
    <g clip-path="url(#p507f83ade5)">
     <use style="fill:#66ccff;" x="1023.14614" xlink:href="#C0_0_fcfbd2471a" y="275.587337"/>
    </g>
    <g clip-path="url(#p507f83ade5)">
     <use style="fill:#66ccff;" x="1020.782526" xlink:href="#C0_0_fcfbd2471a" y="274.7209"/>
    </g>
    <g clip-path="url(#p507f83ade5)">
     <use style="fill:#66ccff;" x="463.850871" xlink:href="#C0_0_fcfbd2471a" y="278.587854"/>
    </g>
    <g clip-path="url(#p507f83ade5)">
     <use style="fill:#66ccff;" x="452.808544" xlink:href="#C0_0_fcfbd2471a" y="276.993255"/>
    </g>
    <g clip-path="url(#p507f83ade5)">
     <use style="fill:#66ccff;" x="451.479077" xlink:href="#C0_0_fcfbd2471a" y="275.058756"/>
    </g>
    <g clip-path="url(#p507f83ade5)">
     <use style="fill:#66ccff;" x="448.852312" xlink:href="#C0_0_fcfbd2471a" y="275.40751"/>
    </g>
    <g clip-path="url(#p507f83ade5)">
     <use style="fill:#66ccff;" x="446.521922" xlink:href="#C0_0_fcfbd2471a" y="274.437536"/>
    </g>
    <g clip-path="url(#p507f83ade5)">
     <use style="fill:#66ccff;" x="448.987843" xlink:href="#C0_0_fcfbd2471a" y="274.62758"/>
    </g>
    <g clip-path="url(#p507f83ade5)">
     <use style="fill:#66ccff;" x="440.852308" xlink:href="#C0_0_fcfbd2471a" y="272.059601"/>
    </g>
    <g clip-path="url(#p507f83ade5)">
     <use style="fill:#66ccff;" x="449.679736" xlink:href="#C0_0_fcfbd2471a" y="270.56922"/>
    </g>
    <g clip-path="url(#p507f83ade5)">
     <use style="fill:#66ccff;" x="452.140383" xlink:href="#C0_0_fcfbd2471a" y="268.371792"/>
    </g>
    <g clip-path="url(#p507f83ade5)">
     <use style="fill:#66ccff;" x="430.080514" xlink:href="#C0_0_fcfbd2471a" y="267.949472"/>
    </g>
    <g clip-path="url(#p507f83ade5)">
     <use style="fill:#66ccff;" x="424.825402" xlink:href="#C0_0_fcfbd2471a" y="267.583007"/>
    </g>
    <g clip-path="url(#p507f83ade5)">
     <use style="fill:#66ccff;" x="430.52244" xlink:href="#C0_0_fcfbd2471a" y="264.485765"/>
    </g>
    <g clip-path="url(#p507f83ade5)">
     <use style="fill:#66ccff;" x="465.220945" xlink:href="#C0_0_fcfbd2471a" y="248.620149"/>
    </g>
    <g clip-path="url(#p507f83ade5)">
     <use style="fill:#66ccff;" x="439.878807" xlink:href="#C0_0_fcfbd2471a" y="279.155262"/>
    </g>
    <g clip-path="url(#p507f83ade5)">
     <use style="fill:#66ccff;" x="457.01738" xlink:href="#C0_0_fcfbd2471a" y="268.391546"/>
    </g>
    <g clip-path="url(#p507f83ade5)">
     <use style="fill:#66ccff;" x="451.034516" xlink:href="#C0_0_fcfbd2471a" y="260.922609"/>
    </g>
    <g clip-path="url(#p507f83ade5)">
     <use style="fill:#66ccff;" x="461.755155" xlink:href="#C0_0_fcfbd2471a" y="252.30932"/>
    </g>
    <g clip-path="url(#p507f83ade5)">
     <use style="fill:#66ccff;" x="454.768203" xlink:href="#C0_0_fcfbd2471a" y="257.215727"/>
    </g>
    <g clip-path="url(#p507f83ade5)">
     <use style="fill:#66ccff;" x="451.789691" xlink:href="#C0_0_fcfbd2471a" y="260.415143"/>
    </g>
    <g clip-path="url(#p507f83ade5)">
     <use style="fill:#66ccff;" x="435.602996" xlink:href="#C0_0_fcfbd2471a" y="261.194392"/>
    </g>
    <g clip-path="url(#p507f83ade5)">
     <use style="fill:#66ccff;" x="441.656527" xlink:href="#C0_0_fcfbd2471a" y="266.688642"/>
    </g>
    <g clip-path="url(#p507f83ade5)">
     <use style="fill:#66ccff;" x="448.527988" xlink:href="#C0_0_fcfbd2471a" y="258.402311"/>
    </g>
    <g clip-path="url(#p507f83ade5)">
     <use style="fill:#66ccff;" x="439.87406" xlink:href="#C0_0_fcfbd2471a" y="250.793735"/>
    </g>
    <g clip-path="url(#p507f83ade5)">
     <use style="fill:#66ccff;" x="450.283559" xlink:href="#C0_0_fcfbd2471a" y="267.303731"/>
    </g>
    <g clip-path="url(#p507f83ade5)">
     <use style="fill:#66ccff;" x="769.060815" xlink:href="#C0_0_fcfbd2471a" y="8.307692"/>
    </g>
    <g clip-path="url(#p507f83ade5)">
     <use style="fill:#66ccff;" x="452.279078" xlink:href="#C0_0_fcfbd2471a" y="260.101809"/>
    </g>
    <g clip-path="url(#p507f83ade5)">
     <use style="fill:#66ccff;" x="439.146835" xlink:href="#C0_0_fcfbd2471a" y="247.593638"/>
    </g>
    <g clip-path="url(#p507f83ade5)">
     <use style="fill:#66ccff;" x="464.033337" xlink:href="#C0_0_fcfbd2471a" y="268.843837"/>
    </g>
    <g clip-path="url(#p507f83ade5)">
     <use style="fill:#66ccff;" x="458.41804" xlink:href="#C0_0_fcfbd2471a" y="255.23559"/>
    </g>
    <g clip-path="url(#p507f83ade5)">
     <use style="fill:#66ccff;" x="441.166612" xlink:href="#C0_0_fcfbd2471a" y="259.977838"/>
    </g>
    <g clip-path="url(#p507f83ade5)">
     <use style="fill:#66ccff;" x="452.009599" xlink:href="#C0_0_fcfbd2471a" y="264.824302"/>
    </g>
    <g clip-path="url(#p507f83ade5)">
     <use style="fill:#66ccff;" x="441.200363" xlink:href="#C0_0_fcfbd2471a" y="264.139735"/>
    </g>
    <g clip-path="url(#p507f83ade5)">
     <use style="fill:#66ccff;" x="449.436097" xlink:href="#C0_0_fcfbd2471a" y="261.996801"/>
    </g>
    <g clip-path="url(#p507f83ade5)">
     <use style="fill:#66ccff;" x="448.2622" xlink:href="#C0_0_fcfbd2471a" y="266.651178"/>
    </g>
    <g clip-path="url(#p507f83ade5)">
     <use style="fill:#66ccff;" x="441.22093" xlink:href="#C0_0_fcfbd2471a" y="262.072409"/>
    </g>
    <g clip-path="url(#p507f83ade5)">
     <use style="fill:#66ccff;" x="1143.776405" xlink:href="#C0_0_fcfbd2471a" y="307.267483"/>
    </g>
    <g clip-path="url(#p507f83ade5)">
     <use style="fill:#66ccff;" x="446.320999" xlink:href="#C0_0_fcfbd2471a" y="274.34013"/>
    </g>
    <g clip-path="url(#p507f83ade5)">
     <use style="fill:#66ccff;" x="445.268395" xlink:href="#C0_0_fcfbd2471a" y="269.174201"/>
    </g>
    <g clip-path="url(#p507f83ade5)">
     <use style="fill:#66ccff;" x="444.030688" xlink:href="#C0_0_fcfbd2471a" y="273.351084"/>
    </g>
    <g clip-path="url(#p507f83ade5)">
     <use style="fill:#66ccff;" x="455.752251" xlink:href="#C0_0_fcfbd2471a" y="268.512111"/>
    </g>
    <g clip-path="url(#p507f83ade5)">
     <use style="fill:#66ccff;" x="445.769911" xlink:href="#C0_0_fcfbd2471a" y="263.581182"/>
    </g>
    <g clip-path="url(#p507f83ade5)">
     <use style="fill:#66ccff;" x="467.420023" xlink:href="#C0_0_fcfbd2471a" y="255.471953"/>
    </g>
    <g clip-path="url(#p507f83ade5)">
     <use style="fill:#66ccff;" x="478.120096" xlink:href="#C0_0_fcfbd2471a" y="256.064564"/>
    </g>
    <g clip-path="url(#p507f83ade5)">
     <use style="fill:#66ccff;" x="471.176387" xlink:href="#C0_0_fcfbd2471a" y="249.607833"/>
    </g>
    <g clip-path="url(#p507f83ade5)">
     <use style="fill:#66ccff;" x="441.323765" xlink:href="#C0_0_fcfbd2471a" y="268.88062"/>
    </g>
    <g clip-path="url(#p507f83ade5)">
     <use style="fill:#66ccff;" x="435.205897" xlink:href="#C0_0_fcfbd2471a" y="268.549575"/>
    </g>
    <g clip-path="url(#p507f83ade5)">
     <use style="fill:#66ccff;" x="435.519674" xlink:href="#C0_0_fcfbd2471a" y="267.529876"/>
    </g>
    <g clip-path="url(#p507f83ade5)">
     <use style="fill:#66ccff;" x="435.409984" xlink:href="#C0_0_fcfbd2471a" y="265.194173"/>
    </g>
    <g clip-path="url(#p507f83ade5)">
     <use style="fill:#66ccff;" x="455.964776" xlink:href="#C0_0_fcfbd2471a" y="261.067696"/>
    </g>
    <g clip-path="url(#p507f83ade5)">
     <use style="fill:#66ccff;" x="444.581776" xlink:href="#C0_0_fcfbd2471a" y="271.584831"/>
    </g>
    <g clip-path="url(#p507f83ade5)">
     <use style="fill:#66ccff;" x="441.134443" xlink:href="#C0_0_fcfbd2471a" y="270.250436"/>
    </g>
    <g clip-path="url(#p507f83ade5)">
     <use style="fill:#66ccff;" x="437.438726" xlink:href="#C0_0_fcfbd2471a" y="255.763491"/>
    </g>
    <g clip-path="url(#p507f83ade5)">
     <use style="fill:#66ccff;" x="437.953426" xlink:href="#C0_0_fcfbd2471a" y="260.664448"/>
    </g>
    <g clip-path="url(#p507f83ade5)">
     <use style="fill:#66ccff;" x="459.098331" xlink:href="#C0_0_fcfbd2471a" y="268.391546"/>
    </g>
    <g clip-path="url(#p507f83ade5)">
     <use style="fill:#66ccff;" x="459.905187" xlink:href="#C0_0_fcfbd2471a" y="260.879014"/>
    </g>
    <g clip-path="url(#p507f83ade5)">
     <use style="fill:#66ccff;" x="457.923907" xlink:href="#C0_0_fcfbd2471a" y="260.780246"/>
    </g>
    <g clip-path="url(#p507f83ade5)">
     <use style="fill:#66ccff;" x="457.499912" xlink:href="#C0_0_fcfbd2471a" y="268.391546"/>
    </g>
    <g clip-path="url(#p507f83ade5)">
     <use style="fill:#66ccff;" x="432.599171" xlink:href="#C0_0_fcfbd2471a" y="256.035274"/>
    </g>
    <g clip-path="url(#p507f83ade5)">
     <use style="fill:#66ccff;" x="432.560147" xlink:href="#C0_0_fcfbd2471a" y="261.875554"/>
    </g>
    <g clip-path="url(#p507f83ade5)">
     <use style="fill:#66ccff;" x="434.89792" xlink:href="#C0_0_fcfbd2471a" y="251.222867"/>
    </g>
    <g clip-path="url(#p507f83ade5)">
     <use style="fill:#66ccff;" x="448.311244" xlink:href="#C0_0_fcfbd2471a" y="266.082408"/>
    </g>
    <g clip-path="url(#p507f83ade5)">
     <use style="fill:#66ccff;" x="448.125615" xlink:href="#C0_0_fcfbd2471a" y="267.201556"/>
    </g>
    <g clip-path="url(#p507f83ade5)">
     <use style="fill:#66ccff;" x="454.495559" xlink:href="#C0_0_fcfbd2471a" y="265.278637"/>
    </g>
    <g clip-path="url(#p507f83ade5)">
     <use style="fill:#66ccff;" x="450.694898" xlink:href="#C0_0_fcfbd2471a" y="257.872367"/>
    </g>
    <g clip-path="url(#p507f83ade5)">
     <use style="fill:#66ccff;" x="450.780857" xlink:href="#C0_0_fcfbd2471a" y="257.859425"/>
    </g>
    <g clip-path="url(#p507f83ade5)">
     <use style="fill:#66ccff;" x="428.688819" xlink:href="#C0_0_fcfbd2471a" y="262.831224"/>
    </g>
    <g clip-path="url(#p507f83ade5)">
     <use style="fill:#66ccff;" x="429.074317" xlink:href="#C0_0_fcfbd2471a" y="262.733817"/>
    </g>
    <g clip-path="url(#p507f83ade5)">
     <use style="fill:#66ccff;" x="446.743412" xlink:href="#C0_0_fcfbd2471a" y="251.379534"/>
    </g>
    <g clip-path="url(#p507f83ade5)">
     <use style="fill:#66ccff;" x="447.076702" xlink:href="#C0_0_fcfbd2471a" y="257.450047"/>
    </g>
    <g clip-path="url(#p507f83ade5)">
     <use style="fill:#66ccff;" x="449.132339" xlink:href="#C0_0_fcfbd2471a" y="245.705458"/>
    </g>
    <g clip-path="url(#p507f83ade5)">
     <use style="fill:#66ccff;" x="452.174661" xlink:href="#C0_0_fcfbd2471a" y="253.507483"/>
    </g>
    <g clip-path="url(#p507f83ade5)">
     <use style="fill:#66ccff;" x="452.767938" xlink:href="#C0_0_fcfbd2471a" y="257.538598"/>
    </g>
    <g clip-path="url(#p507f83ade5)">
     <use style="fill:#66ccff;" x="471.711127" xlink:href="#C0_0_fcfbd2471a" y="249.696384"/>
    </g>
    <g clip-path="url(#p507f83ade5)">
     <use style="fill:#66ccff;" x="461.094377" xlink:href="#C0_0_fcfbd2471a" y="270.931597"/>
    </g>
    <g clip-path="url(#p507f83ade5)">
     <use style="fill:#66ccff;" x="451.934714" xlink:href="#C0_0_fcfbd2471a" y="275.028103"/>
    </g>
    <g clip-path="url(#p507f83ade5)">
     <use style="fill:#66ccff;" x="459.104659" xlink:href="#C0_0_fcfbd2471a" y="271.960833"/>
    </g>
    <g clip-path="url(#p507f83ade5)">
     <use style="fill:#66ccff;" x="440.074456" xlink:href="#C0_0_fcfbd2471a" y="277.485053"/>
    </g>
    <g clip-path="url(#p507f83ade5)">
     <use style="fill:#66ccff;" x="434.635824" xlink:href="#C0_0_fcfbd2471a" y="268.072081"/>
    </g>
    <g clip-path="url(#p507f83ade5)">
     <use style="fill:#66ccff;" x="433.272606" xlink:href="#C0_0_fcfbd2471a" y="271.306236"/>
    </g>
   </g>
   <g id="LineCollection_1">
    <path clip-path="url(#p507f83ade5)" d="M 921.26025 423.692308 
L 937.547669 360.676684 
L 955.508392 346.318478 
L 956.771412 344.031819 
L 957.069896 342.516915 
L 957.479125 340.059284 
L 958.770095 334.868152 
L 959.61914 332.66255 
L 975.189881 311.972266 
L 983.679273 304.611634 
L 986.064509 302.20509 
L 997.212307 286.455952 
L 998.517516 285.024831 
L 1007.638682 283.284463 
L 1010.998473 282.571287 
" style="fill:none;stroke:#999999;"/>
    <path clip-path="url(#p507f83ade5)" d="M 921.26025 423.692308 
L 910.129327 423.049972 
L 903.978763 421.530301 
L 899.845866 419.048148 
L 813.172115 359.609985 
L 807.11542 355.076854 
L 803.239347 350.713333 
L 791.949162 332.611463 
L 785.50486 327.634215 
L 719.886889 295.499054 
L 646.141821 286.842171 
L 566.564185 277.50072 
L 559.217575 276.658123 
L 531.898903 273.698476 
L 524.835484 273.846969 
L 516.168372 274.558102 
L 508.82229 275.145263 
L 494.999737 276.295064 
L 492.063941 276.516442 
L 487.961631 276.825689 
L 466.80407 278.371926 
L 463.850871 278.587854 
" style="fill:none;stroke:#999999;"/>
    <path clip-path="url(#p507f83ade5)" d="M 167.599667 92.546268 
L 177.672185 97.041935 
L 213.848872 111.550678 
L 219.122441 113.730395 
L 223.18309 115.841996 
L 227.454681 118.907223 
L 248.216197 139.167694 
L 256.142899 146.902966 
L 259.096098 149.627612 
L 262.893068 152.556607 
L 345.844207 206.190592 
L 423.053483 258.832805 
L 425.906484 260.690333 
L 428.688819 262.831224 
" style="fill:none;stroke:#999999;"/>
    <path clip-path="url(#p507f83ade5)" d="M 1038.744831 288.598886 
L 1039.741536 285.195122 
" style="fill:none;stroke:#999999;"/>
    <path clip-path="url(#p507f83ade5)" d="M 1038.744831 288.598886 
L 1036.735601 288.64793 
L 1026.018126 285.106571 
" style="fill:none;stroke:#999999;"/>
    <path clip-path="url(#p507f83ade5)" d="M 1038.744831 288.598886 
L 1043.410358 290.027282 
L 1044.48142 286.979765 
L 1045.390584 283.031071 
L 1045.218138 282.544722 
L 1041.175419 281.291385 
L 1040.722947 282.225257 
" style="fill:none;stroke:#999999;"/>
    <path clip-path="url(#p507f83ade5)" d="M 1010.998473 282.571287 
L 1016.03315 281.63469 
" style="fill:none;stroke:#999999;"/>
    <path clip-path="url(#p507f83ade5)" d="M 1010.998473 282.571287 
L 1011.387135 285.01257 
L 1011.697221 285.843588 
L 1016.789907 284.79528 
" style="fill:none;stroke:#999999;"/>
    <path clip-path="url(#p507f83ade5)" d="M 1010.998473 282.571287 
L 1007.638682 283.284463 
L 998.517516 285.024831 
L 997.212307 286.455952 
L 986.064509 302.20509 
L 983.679273 304.611634 
L 975.189881 311.972266 
L 959.61914 332.66255 
L 958.770095 334.868152 
L 957.479125 340.059284 
L 957.069896 342.516915 
L 956.771412 344.031819 
L 955.508392 346.318478 
L 937.547669 360.676684 
L 921.26025 423.692308 
" style="fill:none;stroke:#999999;"/>
    <path clip-path="url(#p507f83ade5)" d="M 1039.741536 285.195122 
L 1038.744831 288.598886 
" style="fill:none;stroke:#999999;"/>
    <path clip-path="url(#p507f83ade5)" d="M 1039.741536 285.195122 
L 1037.827758 284.565047 
L 1036.934942 284.627714 
L 1036.727691 284.561641 
" style="fill:none;stroke:#999999;"/>
    <path clip-path="url(#p507f83ade5)" d="M 1039.741536 285.195122 
L 1040.592163 282.494997 
L 1040.722947 282.225257 
" style="fill:none;stroke:#999999;"/>
    <path clip-path="url(#p507f83ade5)" d="M 1021.622078 280.484208 
L 1019.703027 280.879282 
" style="fill:none;stroke:#999999;"/>
    <path clip-path="url(#p507f83ade5)" d="M 1021.622078 280.484208 
L 1022.220629 280.322092 
L 1022.862949 280.141584 
L 1027.067566 281.48211 
" style="fill:none;stroke:#999999;"/>
    <path clip-path="url(#p507f83ade5)" d="M 1021.622078 280.484208 
L 1021.95695 279.409335 
L 1023.14614 275.587337 
" style="fill:none;stroke:#999999;"/>
    <path clip-path="url(#p507f83ade5)" d="M 1021.622078 280.484208 
L 1021.336251 280.90176 
L 1022.117794 284.956034 
" style="fill:none;stroke:#999999;"/>
    <path clip-path="url(#p507f83ade5)" d="M 1026.018126 285.106571 
L 1027.067566 281.48211 
" style="fill:none;stroke:#999999;"/>
    <path clip-path="url(#p507f83ade5)" d="M 1026.018126 285.106571 
L 1025.775542 285.552732 
L 1023.041196 284.746236 
L 1022.117794 284.956034 
" style="fill:none;stroke:#999999;"/>
    <path clip-path="url(#p507f83ade5)" d="M 1026.018126 285.106571 
L 1036.735601 288.64793 
L 1038.744831 288.598886 
" style="fill:none;stroke:#999999;"/>
    <path clip-path="url(#p507f83ade5)" d="M 1016.789907 284.79528 
L 1016.03315 281.63469 
" style="fill:none;stroke:#999999;"/>
    <path clip-path="url(#p507f83ade5)" d="M 1016.789907 284.79528 
L 1017.059386 285.92124 
L 1022.117794 284.956034 
" style="fill:none;stroke:#999999;"/>
    <path clip-path="url(#p507f83ade5)" d="M 1016.789907 284.79528 
L 1011.697221 285.843588 
L 1011.387135 285.01257 
L 1010.998473 282.571287 
" style="fill:none;stroke:#999999;"/>
    <path clip-path="url(#p507f83ade5)" d="M 1022.117794 284.956034 
L 1021.336251 280.90176 
L 1021.622078 280.484208 
" style="fill:none;stroke:#999999;"/>
    <path clip-path="url(#p507f83ade5)" d="M 1022.117794 284.956034 
L 1017.059386 285.92124 
L 1016.789907 284.79528 
" style="fill:none;stroke:#999999;"/>
    <path clip-path="url(#p507f83ade5)" d="M 1022.117794 284.956034 
L 1023.041196 284.746236 
L 1025.775542 285.552732 
L 1026.018126 285.106571 
" style="fill:none;stroke:#999999;"/>
    <path clip-path="url(#p507f83ade5)" d="M 1036.727691 284.561641 
L 1027.067566 281.48211 
" style="fill:none;stroke:#999999;"/>
    <path clip-path="url(#p507f83ade5)" d="M 1036.727691 284.561641 
L 1037.822484 281.385385 
" style="fill:none;stroke:#999999;"/>
    <path clip-path="url(#p507f83ade5)" d="M 1036.727691 284.561641 
L 1036.934942 284.627714 
L 1037.827758 284.565047 
L 1039.741536 285.195122 
" style="fill:none;stroke:#999999;"/>
    <path clip-path="url(#p507f83ade5)" d="M 1040.722947 282.225257 
L 1037.822484 281.385385 
" style="fill:none;stroke:#999999;"/>
    <path clip-path="url(#p507f83ade5)" d="M 1040.722947 282.225257 
L 1040.592163 282.494997 
L 1039.741536 285.195122 
" style="fill:none;stroke:#999999;"/>
    <path clip-path="url(#p507f83ade5)" d="M 1040.722947 282.225257 
L 1041.175419 281.291385 
L 1045.218138 282.544722 
L 1045.390584 283.031071 
L 1044.48142 286.979765 
L 1043.410358 290.027282 
L 1038.744831 288.598886 
" style="fill:none;stroke:#999999;"/>
    <path clip-path="url(#p507f83ade5)" d="M 1016.03315 281.63469 
L 1019.703027 280.879282 
" style="fill:none;stroke:#999999;"/>
    <path clip-path="url(#p507f83ade5)" d="M 1016.03315 281.63469 
L 1010.998473 282.571287 
" style="fill:none;stroke:#999999;"/>
    <path clip-path="url(#p507f83ade5)" d="M 1016.03315 281.63469 
L 1016.789907 284.79528 
" style="fill:none;stroke:#999999;"/>
    <path clip-path="url(#p507f83ade5)" d="M 1016.03315 281.63469 
L 1015.718845 279.871163 
L 1014.128336 279.067392 
L 1014.065581 278.487723 
L 1015.946136 273.316344 
L 1020.782526 274.7209 
" style="fill:none;stroke:#999999;"/>
    <path clip-path="url(#p507f83ade5)" d="M 1027.067566 281.48211 
L 1036.727691 284.561641 
" style="fill:none;stroke:#999999;"/>
    <path clip-path="url(#p507f83ade5)" d="M 1027.067566 281.48211 
L 1026.018126 285.106571 
" style="fill:none;stroke:#999999;"/>
    <path clip-path="url(#p507f83ade5)" d="M 1027.067566 281.48211 
L 1028.437112 277.331792 
" style="fill:none;stroke:#999999;"/>
    <path clip-path="url(#p507f83ade5)" d="M 1027.067566 281.48211 
L 1022.862949 280.141584 
L 1022.220629 280.322092 
L 1021.622078 280.484208 
" style="fill:none;stroke:#999999;"/>
    <path clip-path="url(#p507f83ade5)" d="M 1037.822484 281.385385 
L 1040.722947 282.225257 
" style="fill:none;stroke:#999999;"/>
    <path clip-path="url(#p507f83ade5)" d="M 1037.822484 281.385385 
L 1036.727691 284.561641 
" style="fill:none;stroke:#999999;"/>
    <path clip-path="url(#p507f83ade5)" d="M 1037.822484 281.385385 
L 1038.079834 279.98083 
L 1031.698288 277.853562 
L 1028.437112 277.331792 
" style="fill:none;stroke:#999999;"/>
    <path clip-path="url(#p507f83ade5)" d="M 1019.703027 280.879282 
L 1021.622078 280.484208 
" style="fill:none;stroke:#999999;"/>
    <path clip-path="url(#p507f83ade5)" d="M 1019.703027 280.879282 
L 1016.03315 281.63469 
" style="fill:none;stroke:#999999;"/>
    <path clip-path="url(#p507f83ade5)" d="M 1019.703027 280.879282 
L 1019.292215 279.301711 
L 1020.782526 274.7209 
" style="fill:none;stroke:#999999;"/>
    <path clip-path="url(#p507f83ade5)" d="M 1028.437112 277.331792 
L 1027.067566 281.48211 
" style="fill:none;stroke:#999999;"/>
    <path clip-path="url(#p507f83ade5)" d="M 1028.437112 277.331792 
L 1025.371059 276.436746 
L 1023.300128 275.77057 
L 1023.14614 275.587337 
" style="fill:none;stroke:#999999;"/>
    <path clip-path="url(#p507f83ade5)" d="M 1028.437112 277.331792 
L 1031.698288 277.853562 
L 1038.079834 279.98083 
L 1037.822484 281.385385 
" style="fill:none;stroke:#999999;"/>
    <path clip-path="url(#p507f83ade5)" d="M 1028.437112 277.331792 
L 1032.490905 275.374134 
L 1036.615364 274.898683 
L 1038.544963 275.374134 
L 1040.129143 274.412333 
L 1041.317278 273.054097 
L 1043.01484 272.771415 
L 1052.571076 280.217874 
L 1054.494347 282.198692 
L 1056.418145 283.952683 
L 1059.196261 284.823889 
L 1063.722566 284.994179 
L 1066.602462 284.235365 
L 1069.827777 282.990883 
L 1072.37913 281.598588 
L 1074.812355 281.428979 
L 1077.641098 282.164634 
L 1082.953692 285.310919 
L 1089.630031 286.782228 
L 1099.13564 285.423992 
L 1103.379281 284.575265 
L 1115.436243 282.843752 
L 1124.904937 281.116326 
L 1134.384706 279.538756 
L 1136.483586 281.202834 
L 1139.708374 283.239507 
L 1139.425711 285.276861 
L 1139.476337 291.025865 
L 1141.405936 295.80217 
L 1143.952015 298.009134 
L 1143.607124 302.173756 
L 1143.103498 304.856171 
L 1143.776405 307.267483 
" style="fill:none;stroke:#999999;"/>
    <path clip-path="url(#p507f83ade5)" d="M 1023.14614 275.587337 
L 1021.95695 279.409335 
L 1021.622078 280.484208 
" style="fill:none;stroke:#999999;"/>
    <path clip-path="url(#p507f83ade5)" d="M 1023.14614 275.587337 
L 1022.945744 275.348931 
L 1020.782526 274.7209 
" style="fill:none;stroke:#999999;"/>
    <path clip-path="url(#p507f83ade5)" d="M 1023.14614 275.587337 
L 1023.300128 275.77057 
L 1025.371059 276.436746 
L 1028.437112 277.331792 
" style="fill:none;stroke:#999999;"/>
    <path clip-path="url(#p507f83ade5)" d="M 1020.782526 274.7209 
L 1019.292215 279.301711 
L 1019.703027 280.879282 
" style="fill:none;stroke:#999999;"/>
    <path clip-path="url(#p507f83ade5)" d="M 1020.782526 274.7209 
L 1015.946136 273.316344 
L 1014.065581 278.487723 
L 1014.128336 279.067392 
L 1015.718845 279.871163 
L 1016.03315 281.63469 
" style="fill:none;stroke:#999999;"/>
    <path clip-path="url(#p507f83ade5)" d="M 1020.782526 274.7209 
L 1022.945744 275.348931 
L 1023.14614 275.587337 
" style="fill:none;stroke:#999999;"/>
    <path clip-path="url(#p507f83ade5)" d="M 463.850871 278.587854 
L 461.09965 274.951813 
L 459.676841 272.749618 
L 459.317184 272.257819 
L 459.104659 271.960833 
" style="fill:none;stroke:#999999;"/>
    <path clip-path="url(#p507f83ade5)" d="M 463.850871 278.587854 
L 458.628983 278.364433 
L 455.899911 278.038838 
L 454.365829 277.59472 
L 452.808544 276.993255 
" style="fill:none;stroke:#999999;"/>
    <path clip-path="url(#p507f83ade5)" d="M 463.850871 278.587854 
L 466.80407 278.371926 
L 487.961631 276.825689 
L 492.063941 276.516442 
L 494.999737 276.295064 
L 508.82229 275.145263 
L 516.168372 274.558102 
L 524.835484 273.846969 
L 531.898903 273.698476 
L 559.217575 276.658123 
L 566.564185 277.50072 
L 646.141821 286.842171 
L 719.886889 295.499054 
L 785.50486 327.634215 
L 791.949162 332.611463 
L 803.239347 350.713333 
L 807.11542 355.076854 
L 813.172115 359.609985 
L 899.845866 419.048148 
L 903.978763 421.530301 
L 910.129327 423.049972 
L 921.26025 423.692308 
" style="fill:none;stroke:#999999;"/>
    <path clip-path="url(#p507f83ade5)" d="M 452.808544 276.993255 
L 452.330232 275.942222 
L 452.077628 275.344844 
L 451.934714 275.028103 
" style="fill:none;stroke:#999999;"/>
    <path clip-path="url(#p507f83ade5)" d="M 452.808544 276.993255 
L 451.438998 276.487833 
L 450.606302 276.160875 
L 448.852312 275.40751 
" style="fill:none;stroke:#999999;"/>
    <path clip-path="url(#p507f83ade5)" d="M 452.808544 276.993255 
L 454.365829 277.59472 
L 455.899911 278.038838 
L 458.628983 278.364433 
L 463.850871 278.587854 
" style="fill:none;stroke:#999999;"/>
    <path clip-path="url(#p507f83ade5)" d="M 451.479077 275.058756 
L 448.987843 274.62758 
" style="fill:none;stroke:#999999;"/>
    <path clip-path="url(#p507f83ade5)" d="M 451.479077 275.058756 
L 451.934714 275.028103 
" style="fill:none;stroke:#999999;"/>
    <path clip-path="url(#p507f83ade5)" d="M 451.479077 275.058756 
L 451.951589 270.475219 
L 452.140383 268.371792 
" style="fill:none;stroke:#999999;"/>
    <path clip-path="url(#p507f83ade5)" d="M 448.852312 275.40751 
L 448.987843 274.62758 
" style="fill:none;stroke:#999999;"/>
    <path clip-path="url(#p507f83ade5)" d="M 448.852312 275.40751 
L 446.521922 274.437536 
" style="fill:none;stroke:#999999;"/>
    <path clip-path="url(#p507f83ade5)" d="M 448.852312 275.40751 
L 450.606302 276.160875 
L 451.438998 276.487833 
L 452.808544 276.993255 
" style="fill:none;stroke:#999999;"/>
    <path clip-path="url(#p507f83ade5)" d="M 446.521922 274.437536 
L 446.320999 274.34013 
" style="fill:none;stroke:#999999;"/>
    <path clip-path="url(#p507f83ade5)" d="M 446.521922 274.437536 
L 448.852312 275.40751 
" style="fill:none;stroke:#999999;"/>
    <path clip-path="url(#p507f83ade5)" d="M 446.521922 274.437536 
L 445.398124 277.012327 
L 444.300695 277.012327 
L 442.343673 277.051835 
L 440.074456 277.485053 
" style="fill:none;stroke:#999999;"/>
    <path clip-path="url(#p507f83ade5)" d="M 448.987843 274.62758 
L 448.852312 275.40751 
" style="fill:none;stroke:#999999;"/>
    <path clip-path="url(#p507f83ade5)" d="M 448.987843 274.62758 
L 449.679736 270.56922 
" style="fill:none;stroke:#999999;"/>
    <path clip-path="url(#p507f83ade5)" d="M 448.987843 274.62758 
L 451.479077 275.058756 
" style="fill:none;stroke:#999999;"/>
    <path clip-path="url(#p507f83ade5)" d="M 440.852308 272.059601 
L 444.030688 273.351084 
" style="fill:none;stroke:#999999;"/>
    <path clip-path="url(#p507f83ade5)" d="M 440.852308 272.059601 
L 441.134443 270.250436 
" style="fill:none;stroke:#999999;"/>
    <path clip-path="url(#p507f83ade5)" d="M 440.852308 272.059601 
L 440.074456 277.485053 
" style="fill:none;stroke:#999999;"/>
    <path clip-path="url(#p507f83ade5)" d="M 440.852308 272.059601 
L 439.200626 272.262587 
L 434.875244 271.764658 
L 433.272606 271.306236 
" style="fill:none;stroke:#999999;"/>
    <path clip-path="url(#p507f83ade5)" d="M 440.852308 272.059601 
L 439.300823 271.409773 
L 437.728245 270.595104 
L 436.93721 270.023609 
L 435.205897 268.549575 
" style="fill:none;stroke:#999999;"/>
    <path clip-path="url(#p507f83ade5)" d="M 449.679736 270.56922 
L 448.987843 274.62758 
" style="fill:none;stroke:#999999;"/>
    <path clip-path="url(#p507f83ade5)" d="M 452.140383 268.371792 
L 450.283559 267.303731 
" style="fill:none;stroke:#999999;"/>
    <path clip-path="url(#p507f83ade5)" d="M 452.140383 268.371792 
L 451.951589 270.475219 
L 451.479077 275.058756 
" style="fill:none;stroke:#999999;"/>
    <path clip-path="url(#p507f83ade5)" d="M 452.140383 268.371792 
L 452.027529 265.305884 
L 452.009599 264.824302 
" style="fill:none;stroke:#999999;"/>
    <path clip-path="url(#p507f83ade5)" d="M 452.140383 268.371792 
L 452.472618 268.54072 
L 455.752251 268.512111 
" style="fill:none;stroke:#999999;"/>
    <path clip-path="url(#p507f83ade5)" d="M 430.080514 267.949472 
L 430.52244 264.485765 
" style="fill:none;stroke:#999999;"/>
    <path clip-path="url(#p507f83ade5)" d="M 430.080514 267.949472 
L 427.014989 267.690631 
L 424.825402 267.583007 
" style="fill:none;stroke:#999999;"/>
    <path clip-path="url(#p507f83ade5)" d="M 430.080514 267.949472 
L 429.801015 270.320596 
L 431.914662 270.917974 
L 433.272606 271.306236 
" style="fill:none;stroke:#999999;"/>
    <path clip-path="url(#p507f83ade5)" d="M 424.825402 267.583007 
L 427.014989 267.690631 
L 430.080514 267.949472 
" style="fill:none;stroke:#999999;"/>
    <path clip-path="url(#p507f83ade5)" d="M 430.52244 264.485765 
L 430.080514 267.949472 
" style="fill:none;stroke:#999999;"/>
    <path clip-path="url(#p507f83ade5)" d="M 430.52244 264.485765 
L 428.688819 262.831224 
" style="fill:none;stroke:#999999;"/>
    <path clip-path="url(#p507f83ade5)" d="M 430.52244 264.485765 
L 433.743536 267.324847 
L 434.635824 268.072081 
" style="fill:none;stroke:#999999;"/>
    <path clip-path="url(#p507f83ade5)" d="M 465.220945 248.620149 
L 471.176387 249.607833 
" style="fill:none;stroke:#999999;"/>
    <path clip-path="url(#p507f83ade5)" d="M 465.220945 248.620149 
L 471.22754 241.59601 
L 491.765457 232.769518 
L 504.609235 224.112635 
L 528.824939 207.421451 
L 556.039722 190.788165 
L 558.019947 189.034174 
L 567.581983 180.547581 
L 606.734545 145.642135 
L 638.871678 117.583726 
L 648.934176 112.240694 
L 656.976897 101.914965 
L 660.711111 98.464201 
L 667.614214 88.282878 
L 673.215272 83.870994 
L 678.873285 80.25062 
L 694.31957 69.56047 
L 700.647853 63.312855 
L 705.740012 58.731362 
L 714.008969 54.628045 
L 717.225319 49.964812 
L 725.995265 41.989772 
L 729.333434 41.198262 
L 741.894022 31.074157 
L 749.136215 26.493345 
L 763.289421 10.230612 
L 769.060815 8.307692 
" style="fill:none;stroke:#999999;"/>
    <path clip-path="url(#p507f83ade5)" d="M 465.220945 248.620149 
L 463.854036 250.175922 
L 461.755155 252.30932 
" style="fill:none;stroke:#999999;"/>
    <path clip-path="url(#p507f83ade5)" d="M 439.878807 279.155262 
L 440.026467 277.820866 
L 440.074456 277.485053 
" style="fill:none;stroke:#999999;"/>
    <path clip-path="url(#p507f83ade5)" d="M 457.01738 268.391546 
L 459.104659 271.960833 
" style="fill:none;stroke:#999999;"/>
    <path clip-path="url(#p507f83ade5)" d="M 457.01738 268.391546 
L 457.499912 268.391546 
" style="fill:none;stroke:#999999;"/>
    <path clip-path="url(#p507f83ade5)" d="M 457.01738 268.391546 
L 455.752251 268.512111 
" style="fill:none;stroke:#999999;"/>
    <path clip-path="url(#p507f83ade5)" d="M 451.034516 260.922609 
L 449.436097 261.996801 
" style="fill:none;stroke:#999999;"/>
    <path clip-path="url(#p507f83ade5)" d="M 451.034516 260.922609 
L 450.780857 257.859425 
" style="fill:none;stroke:#999999;"/>
    <path clip-path="url(#p507f83ade5)" d="M 451.034516 260.922609 
L 451.789691 260.415143 
" style="fill:none;stroke:#999999;"/>
    <path clip-path="url(#p507f83ade5)" d="M 461.755155 252.30932 
L 467.420023 255.471953 
" style="fill:none;stroke:#999999;"/>
    <path clip-path="url(#p507f83ade5)" d="M 461.755155 252.30932 
L 458.41804 255.23559 
" style="fill:none;stroke:#999999;"/>
    <path clip-path="url(#p507f83ade5)" d="M 461.755155 252.30932 
L 463.854036 250.175922 
L 465.220945 248.620149 
" style="fill:none;stroke:#999999;"/>
    <path clip-path="url(#p507f83ade5)" d="M 454.768203 257.215727 
L 452.767938 257.538598 
" style="fill:none;stroke:#999999;"/>
    <path clip-path="url(#p507f83ade5)" d="M 454.768203 257.215727 
L 457.803669 255.493069 
L 458.41804 255.23559 
" style="fill:none;stroke:#999999;"/>
    <path clip-path="url(#p507f83ade5)" d="M 454.768203 257.215727 
L 453.941834 257.954106 
L 453.438736 258.48405 
L 452.279078 260.101809 
" style="fill:none;stroke:#999999;"/>
    <path clip-path="url(#p507f83ade5)" d="M 451.789691 260.415143 
L 452.009599 264.824302 
" style="fill:none;stroke:#999999;"/>
    <path clip-path="url(#p507f83ade5)" d="M 451.789691 260.415143 
L 452.279078 260.101809 
" style="fill:none;stroke:#999999;"/>
    <path clip-path="url(#p507f83ade5)" d="M 451.789691 260.415143 
L 451.034516 260.922609 
" style="fill:none;stroke:#999999;"/>
    <path clip-path="url(#p507f83ade5)" d="M 435.602996 261.194392 
L 437.953426 260.664448 
" style="fill:none;stroke:#999999;"/>
    <path clip-path="url(#p507f83ade5)" d="M 435.602996 261.194392 
L 432.560147 261.875554 
" style="fill:none;stroke:#999999;"/>
    <path clip-path="url(#p507f83ade5)" d="M 435.602996 261.194392 
L 434.89792 251.222867 
" style="fill:none;stroke:#999999;"/>
    <path clip-path="url(#p507f83ade5)" d="M 441.656527 266.688642 
L 441.323765 268.88062 
" style="fill:none;stroke:#999999;"/>
    <path clip-path="url(#p507f83ade5)" d="M 441.656527 266.688642 
L 441.200363 264.139735 
" style="fill:none;stroke:#999999;"/>
    <path clip-path="url(#p507f83ade5)" d="M 441.656527 266.688642 
L 442.230291 266.604859 
L 445.40498 266.7227 
L 447.600894 266.667526 
L 448.2622 266.651178 
" style="fill:none;stroke:#999999;"/>
    <path clip-path="url(#p507f83ade5)" d="M 441.656527 266.688642 
L 437.356458 265.675073 
L 435.409984 265.194173 
" style="fill:none;stroke:#999999;"/>
    <path clip-path="url(#p507f83ade5)" d="M 448.527988 258.402311 
L 447.076702 257.450047 
" style="fill:none;stroke:#999999;"/>
    <path clip-path="url(#p507f83ade5)" d="M 448.527988 258.402311 
L 450.694898 257.872367 
" style="fill:none;stroke:#999999;"/>
    <path clip-path="url(#p507f83ade5)" d="M 448.527988 258.402311 
L 441.166612 259.977838 
" style="fill:none;stroke:#999999;"/>
    <path clip-path="url(#p507f83ade5)" d="M 439.87406 250.793735 
L 441.166612 259.977838 
" style="fill:none;stroke:#999999;"/>
    <path clip-path="url(#p507f83ade5)" d="M 439.87406 250.793735 
L 442.06101 252.545002 
L 444.663516 255.762128 
L 446.717044 257.214365 
L 447.076702 257.450047 
" style="fill:none;stroke:#999999;"/>
    <path clip-path="url(#p507f83ade5)" d="M 439.87406 250.793735 
L 439.23174 248.527511 
L 439.146835 247.593638 
" style="fill:none;stroke:#999999;"/>
    <path clip-path="url(#p507f83ade5)" d="M 450.283559 267.303731 
L 452.140383 268.371792 
" style="fill:none;stroke:#999999;"/>
    <path clip-path="url(#p507f83ade5)" d="M 450.283559 267.303731 
L 450.054159 267.556442 
L 448.125615 267.201556 
" style="fill:none;stroke:#999999;"/>
    <path clip-path="url(#p507f83ade5)" d="M 450.283559 267.303731 
L 450.221858 266.51154 
L 450.209729 266.354191 
L 449.042161 266.181858 
L 448.311244 266.082408 
" style="fill:none;stroke:#999999;"/>
    <path clip-path="url(#p507f83ade5)" d="M 769.060815 8.307692 
L 763.289421 10.230612 
L 749.136215 26.493345 
L 741.894022 31.074157 
L 729.333434 41.198262 
L 725.995265 41.989772 
L 717.225319 49.964812 
L 714.008969 54.628045 
L 705.740012 58.731362 
L 700.647853 63.312855 
L 694.31957 69.56047 
L 678.873285 80.25062 
L 673.215272 83.870994 
L 667.614214 88.282878 
L 660.711111 98.464201 
L 656.976897 101.914965 
L 648.934176 112.240694 
L 638.871678 117.583726 
L 606.734545 145.642135 
L 567.581983 180.547581 
L 558.019947 189.034174 
L 556.039722 190.788165 
L 528.824939 207.421451 
L 504.609235 224.112635 
L 491.765457 232.769518 
L 471.22754 241.59601 
L 465.220945 248.620149 
" style="fill:none;stroke:#999999;"/>
    <path clip-path="url(#p507f83ade5)" d="M 452.279078 260.101809 
L 451.789691 260.415143 
" style="fill:none;stroke:#999999;"/>
    <path clip-path="url(#p507f83ade5)" d="M 452.279078 260.101809 
L 453.745658 260.389259 
L 455.964776 261.067696 
" style="fill:none;stroke:#999999;"/>
    <path clip-path="url(#p507f83ade5)" d="M 452.279078 260.101809 
L 453.438736 258.48405 
L 453.941834 257.954106 
L 454.768203 257.215727 
" style="fill:none;stroke:#999999;"/>
    <path clip-path="url(#p507f83ade5)" d="M 439.146835 247.593638 
L 439.23174 248.527511 
L 439.87406 250.793735 
" style="fill:none;stroke:#999999;"/>
    <path clip-path="url(#p507f83ade5)" d="M 464.033337 268.843837 
L 461.091213 268.391546 
L 459.098331 268.391546 
" style="fill:none;stroke:#999999;"/>
    <path clip-path="url(#p507f83ade5)" d="M 458.41804 255.23559 
L 455.964776 261.067696 
" style="fill:none;stroke:#999999;"/>
    <path clip-path="url(#p507f83ade5)" d="M 458.41804 255.23559 
L 461.755155 252.30932 
" style="fill:none;stroke:#999999;"/>
    <path clip-path="url(#p507f83ade5)" d="M 458.41804 255.23559 
L 457.803669 255.493069 
L 454.768203 257.215727 
" style="fill:none;stroke:#999999;"/>
    <path clip-path="url(#p507f83ade5)" d="M 441.166612 259.977838 
L 441.22093 262.072409 
" style="fill:none;stroke:#999999;"/>
    <path clip-path="url(#p507f83ade5)" d="M 441.166612 259.977838 
L 439.87406 250.793735 
" style="fill:none;stroke:#999999;"/>
    <path clip-path="url(#p507f83ade5)" d="M 441.166612 259.977838 
L 448.527988 258.402311 
" style="fill:none;stroke:#999999;"/>
    <path clip-path="url(#p507f83ade5)" d="M 441.166612 259.977838 
L 437.953426 260.664448 
" style="fill:none;stroke:#999999;"/>
    <path clip-path="url(#p507f83ade5)" d="M 452.009599 264.824302 
L 451.789691 260.415143 
" style="fill:none;stroke:#999999;"/>
    <path clip-path="url(#p507f83ade5)" d="M 452.009599 264.824302 
L 454.495559 265.278637 
" style="fill:none;stroke:#999999;"/>
    <path clip-path="url(#p507f83ade5)" d="M 452.009599 264.824302 
L 452.027529 265.305884 
L 452.140383 268.371792 
" style="fill:none;stroke:#999999;"/>
    <path clip-path="url(#p507f83ade5)" d="M 441.200363 264.139735 
L 441.656527 266.688642 
" style="fill:none;stroke:#999999;"/>
    <path clip-path="url(#p507f83ade5)" d="M 441.200363 264.139735 
L 441.22093 262.072409 
" style="fill:none;stroke:#999999;"/>
    <path clip-path="url(#p507f83ade5)" d="M 441.200363 264.139735 
L 445.769911 263.581182 
" style="fill:none;stroke:#999999;"/>
    <path clip-path="url(#p507f83ade5)" d="M 449.436097 261.996801 
L 451.034516 260.922609 
" style="fill:none;stroke:#999999;"/>
    <path clip-path="url(#p507f83ade5)" d="M 449.436097 261.996801 
L 448.629768 261.3749 
L 447.257585 261.346291 
L 441.22093 262.072409 
" style="fill:none;stroke:#999999;"/>
    <path clip-path="url(#p507f83ade5)" d="M 449.436097 261.996801 
L 448.739458 263.186109 
L 448.425153 264.045054 
L 448.348687 265.318145 
L 448.311244 266.082408 
" style="fill:none;stroke:#999999;"/>
    <path clip-path="url(#p507f83ade5)" d="M 448.2622 266.651178 
L 448.125615 267.201556 
" style="fill:none;stroke:#999999;"/>
    <path clip-path="url(#p507f83ade5)" d="M 448.2622 266.651178 
L 448.311244 266.082408 
" style="fill:none;stroke:#999999;"/>
    <path clip-path="url(#p507f83ade5)" d="M 448.2622 266.651178 
L 447.600894 266.667526 
L 445.40498 266.7227 
L 442.230291 266.604859 
L 441.656527 266.688642 
" style="fill:none;stroke:#999999;"/>
    <path clip-path="url(#p507f83ade5)" d="M 441.22093 262.072409 
L 441.200363 264.139735 
" style="fill:none;stroke:#999999;"/>
    <path clip-path="url(#p507f83ade5)" d="M 441.22093 262.072409 
L 441.166612 259.977838 
" style="fill:none;stroke:#999999;"/>
    <path clip-path="url(#p507f83ade5)" d="M 441.22093 262.072409 
L 447.257585 261.346291 
L 448.629768 261.3749 
L 449.436097 261.996801 
" style="fill:none;stroke:#999999;"/>
    <path clip-path="url(#p507f83ade5)" d="M 1143.776405 307.267483 
L 1143.103498 304.856171 
L 1143.607124 302.173756 
L 1143.952015 298.009134 
L 1141.405936 295.80217 
L 1139.476337 291.025865 
L 1139.425711 285.276861 
L 1139.708374 283.239507 
L 1136.483586 281.202834 
L 1134.384706 279.538756 
L 1124.904937 281.116326 
L 1115.436243 282.843752 
L 1103.379281 284.575265 
L 1099.13564 285.423992 
L 1089.630031 286.782228 
L 1082.953692 285.310919 
L 1077.641098 282.164634 
L 1074.812355 281.428979 
L 1072.37913 281.598588 
L 1069.827777 282.990883 
L 1066.602462 284.235365 
L 1063.722566 284.994179 
L 1059.196261 284.823889 
L 1056.418145 283.952683 
L 1054.494347 282.198692 
L 1052.571076 280.217874 
L 1043.01484 272.771415 
L 1041.317278 273.054097 
L 1040.129143 274.412333 
L 1038.544963 275.374134 
L 1036.615364 274.898683 
L 1032.490905 275.374134 
L 1028.437112 277.331792 
" style="fill:none;stroke:#999999;"/>
    <path clip-path="url(#p507f83ade5)" d="M 446.320999 274.34013 
L 444.030688 273.351084 
" style="fill:none;stroke:#999999;"/>
    <path clip-path="url(#p507f83ade5)" d="M 446.320999 274.34013 
L 446.521922 274.437536 
" style="fill:none;stroke:#999999;"/>
    <path clip-path="url(#p507f83ade5)" d="M 446.320999 274.34013 
L 446.824098 272.350457 
L 448.125615 267.201556 
" style="fill:none;stroke:#999999;"/>
    <path clip-path="url(#p507f83ade5)" d="M 445.268395 269.174201 
L 444.581776 271.584831 
" style="fill:none;stroke:#999999;"/>
    <path clip-path="url(#p507f83ade5)" d="M 444.030688 273.351084 
L 440.852308 272.059601 
" style="fill:none;stroke:#999999;"/>
    <path clip-path="url(#p507f83ade5)" d="M 444.030688 273.351084 
L 446.320999 274.34013 
" style="fill:none;stroke:#999999;"/>
    <path clip-path="url(#p507f83ade5)" d="M 444.030688 273.351084 
L 444.581776 271.584831 
" style="fill:none;stroke:#999999;"/>
    <path clip-path="url(#p507f83ade5)" d="M 455.752251 268.512111 
L 457.01738 268.391546 
" style="fill:none;stroke:#999999;"/>
    <path clip-path="url(#p507f83ade5)" d="M 455.752251 268.512111 
L 452.472618 268.54072 
L 452.140383 268.371792 
" style="fill:none;stroke:#999999;"/>
    <path clip-path="url(#p507f83ade5)" d="M 455.752251 268.512111 
L 455.513885 267.598674 
L 455.202745 266.396423 
L 454.835177 265.816074 
L 454.495559 265.278637 
" style="fill:none;stroke:#999999;"/>
    <path clip-path="url(#p507f83ade5)" d="M 445.769911 263.581182 
L 441.200363 264.139735 
" style="fill:none;stroke:#999999;"/>
    <path clip-path="url(#p507f83ade5)" d="M 467.420023 255.471953 
L 461.755155 252.30932 
" style="fill:none;stroke:#999999;"/>
    <path clip-path="url(#p507f83ade5)" d="M 478.120096 256.064564 
L 475.03664 254.692705 
L 472.49056 253.645759 
L 471.118378 252.137667 
L 470.914818 251.552549 
L 471.176387 249.607833 
" style="fill:none;stroke:#999999;"/>
    <path clip-path="url(#p507f83ade5)" d="M 471.176387 249.607833 
L 471.711127 249.696384 
" style="fill:none;stroke:#999999;"/>
    <path clip-path="url(#p507f83ade5)" d="M 471.176387 249.607833 
L 465.220945 248.620149 
" style="fill:none;stroke:#999999;"/>
    <path clip-path="url(#p507f83ade5)" d="M 471.176387 249.607833 
L 470.914818 251.552549 
L 471.118378 252.137667 
L 472.49056 253.645759 
L 475.03664 254.692705 
L 478.120096 256.064564 
" style="fill:none;stroke:#999999;"/>
    <path clip-path="url(#p507f83ade5)" d="M 441.323765 268.88062 
L 441.134443 270.250436 
" style="fill:none;stroke:#999999;"/>
    <path clip-path="url(#p507f83ade5)" d="M 441.323765 268.88062 
L 441.656527 266.688642 
" style="fill:none;stroke:#999999;"/>
    <path clip-path="url(#p507f83ade5)" d="M 441.323765 268.88062 
L 435.519674 267.529876 
" style="fill:none;stroke:#999999;"/>
    <path clip-path="url(#p507f83ade5)" d="M 435.205897 268.549575 
L 434.635824 268.072081 
" style="fill:none;stroke:#999999;"/>
    <path clip-path="url(#p507f83ade5)" d="M 435.205897 268.549575 
L 435.519674 267.529876 
" style="fill:none;stroke:#999999;"/>
    <path clip-path="url(#p507f83ade5)" d="M 435.205897 268.549575 
L 436.93721 270.023609 
L 437.728245 270.595104 
L 439.300823 271.409773 
L 440.852308 272.059601 
" style="fill:none;stroke:#999999;"/>
    <path clip-path="url(#p507f83ade5)" d="M 435.519674 267.529876 
L 441.323765 268.88062 
" style="fill:none;stroke:#999999;"/>
    <path clip-path="url(#p507f83ade5)" d="M 435.519674 267.529876 
L 435.205897 268.549575 
" style="fill:none;stroke:#999999;"/>
    <path clip-path="url(#p507f83ade5)" d="M 435.519674 267.529876 
L 435.409984 265.194173 
" style="fill:none;stroke:#999999;"/>
    <path clip-path="url(#p507f83ade5)" d="M 435.409984 265.194173 
L 429.074317 262.733817 
" style="fill:none;stroke:#999999;"/>
    <path clip-path="url(#p507f83ade5)" d="M 435.409984 265.194173 
L 435.519674 267.529876 
" style="fill:none;stroke:#999999;"/>
    <path clip-path="url(#p507f83ade5)" d="M 435.409984 265.194173 
L 437.356458 265.675073 
L 441.656527 266.688642 
" style="fill:none;stroke:#999999;"/>
    <path clip-path="url(#p507f83ade5)" d="M 455.964776 261.067696 
L 458.41804 255.23559 
" style="fill:none;stroke:#999999;"/>
    <path clip-path="url(#p507f83ade5)" d="M 455.964776 261.067696 
L 454.479211 264.653331 
L 454.396416 265.01026 
L 454.495559 265.278637 
" style="fill:none;stroke:#999999;"/>
    <path clip-path="url(#p507f83ade5)" d="M 455.964776 261.067696 
L 453.745658 260.389259 
L 452.279078 260.101809 
" style="fill:none;stroke:#999999;"/>
    <path clip-path="url(#p507f83ade5)" d="M 444.581776 271.584831 
L 445.268395 269.174201 
" style="fill:none;stroke:#999999;"/>
    <path clip-path="url(#p507f83ade5)" d="M 444.581776 271.584831 
L 444.030688 273.351084 
" style="fill:none;stroke:#999999;"/>
    <path clip-path="url(#p507f83ade5)" d="M 444.581776 271.584831 
L 441.134443 270.250436 
" style="fill:none;stroke:#999999;"/>
    <path clip-path="url(#p507f83ade5)" d="M 441.134443 270.250436 
L 440.852308 272.059601 
" style="fill:none;stroke:#999999;"/>
    <path clip-path="url(#p507f83ade5)" d="M 441.134443 270.250436 
L 441.323765 268.88062 
" style="fill:none;stroke:#999999;"/>
    <path clip-path="url(#p507f83ade5)" d="M 441.134443 270.250436 
L 444.581776 271.584831 
" style="fill:none;stroke:#999999;"/>
    <path clip-path="url(#p507f83ade5)" d="M 437.438726 255.763491 
L 437.953426 260.664448 
" style="fill:none;stroke:#999999;"/>
    <path clip-path="url(#p507f83ade5)" d="M 437.953426 260.664448 
L 441.166612 259.977838 
" style="fill:none;stroke:#999999;"/>
    <path clip-path="url(#p507f83ade5)" d="M 437.953426 260.664448 
L 435.602996 261.194392 
" style="fill:none;stroke:#999999;"/>
    <path clip-path="url(#p507f83ade5)" d="M 437.953426 260.664448 
L 437.438726 255.763491 
" style="fill:none;stroke:#999999;"/>
    <path clip-path="url(#p507f83ade5)" d="M 459.098331 268.391546 
L 457.499912 268.391546 
" style="fill:none;stroke:#999999;"/>
    <path clip-path="url(#p507f83ade5)" d="M 459.098331 268.391546 
L 459.905187 260.879014 
" style="fill:none;stroke:#999999;"/>
    <path clip-path="url(#p507f83ade5)" d="M 459.098331 268.391546 
L 461.091213 268.391546 
L 464.033337 268.843837 
" style="fill:none;stroke:#999999;"/>
    <path clip-path="url(#p507f83ade5)" d="M 459.905187 260.879014 
L 459.098331 268.391546 
" style="fill:none;stroke:#999999;"/>
    <path clip-path="url(#p507f83ade5)" d="M 457.923907 260.780246 
L 457.216721 264.443533 
L 457.259437 265.971379 
L 457.499912 268.391546 
" style="fill:none;stroke:#999999;"/>
    <path clip-path="url(#p507f83ade5)" d="M 457.499912 268.391546 
L 459.098331 268.391546 
" style="fill:none;stroke:#999999;"/>
    <path clip-path="url(#p507f83ade5)" d="M 457.499912 268.391546 
L 457.01738 268.391546 
" style="fill:none;stroke:#999999;"/>
    <path clip-path="url(#p507f83ade5)" d="M 457.499912 268.391546 
L 457.259437 265.971379 
L 457.216721 264.443533 
L 457.923907 260.780246 
" style="fill:none;stroke:#999999;"/>
    <path clip-path="url(#p507f83ade5)" d="M 432.599171 256.035274 
L 432.560147 261.875554 
" style="fill:none;stroke:#999999;"/>
    <path clip-path="url(#p507f83ade5)" d="M 432.560147 261.875554 
L 435.602996 261.194392 
" style="fill:none;stroke:#999999;"/>
    <path clip-path="url(#p507f83ade5)" d="M 432.560147 261.875554 
L 429.074317 262.733817 
" style="fill:none;stroke:#999999;"/>
    <path clip-path="url(#p507f83ade5)" d="M 432.560147 261.875554 
L 432.599171 256.035274 
" style="fill:none;stroke:#999999;"/>
    <path clip-path="url(#p507f83ade5)" d="M 434.89792 251.222867 
L 435.602996 261.194392 
" style="fill:none;stroke:#999999;"/>
    <path clip-path="url(#p507f83ade5)" d="M 448.311244 266.082408 
L 448.2622 266.651178 
" style="fill:none;stroke:#999999;"/>
    <path clip-path="url(#p507f83ade5)" d="M 448.311244 266.082408 
L 448.348687 265.318145 
L 448.425153 264.045054 
L 448.739458 263.186109 
L 449.436097 261.996801 
" style="fill:none;stroke:#999999;"/>
    <path clip-path="url(#p507f83ade5)" d="M 448.311244 266.082408 
L 449.042161 266.181858 
L 450.209729 266.354191 
L 450.221858 266.51154 
L 450.283559 267.303731 
" style="fill:none;stroke:#999999;"/>
    <path clip-path="url(#p507f83ade5)" d="M 448.125615 267.201556 
L 448.2622 266.651178 
" style="fill:none;stroke:#999999;"/>
    <path clip-path="url(#p507f83ade5)" d="M 448.125615 267.201556 
L 446.824098 272.350457 
L 446.320999 274.34013 
" style="fill:none;stroke:#999999;"/>
    <path clip-path="url(#p507f83ade5)" d="M 448.125615 267.201556 
L 450.054159 267.556442 
L 450.283559 267.303731 
" style="fill:none;stroke:#999999;"/>
    <path clip-path="url(#p507f83ade5)" d="M 454.495559 265.278637 
L 452.009599 264.824302 
" style="fill:none;stroke:#999999;"/>
    <path clip-path="url(#p507f83ade5)" d="M 454.495559 265.278637 
L 454.396416 265.01026 
L 454.479211 264.653331 
L 455.964776 261.067696 
" style="fill:none;stroke:#999999;"/>
    <path clip-path="url(#p507f83ade5)" d="M 454.495559 265.278637 
L 454.835177 265.816074 
L 455.202745 266.396423 
L 455.513885 267.598674 
L 455.752251 268.512111 
" style="fill:none;stroke:#999999;"/>
    <path clip-path="url(#p507f83ade5)" d="M 450.694898 257.872367 
L 448.527988 258.402311 
" style="fill:none;stroke:#999999;"/>
    <path clip-path="url(#p507f83ade5)" d="M 450.694898 257.872367 
L 450.780857 257.859425 
" style="fill:none;stroke:#999999;"/>
    <path clip-path="url(#p507f83ade5)" d="M 450.694898 257.872367 
L 449.451917 248.630366 
L 449.261014 248.190336 
L 449.095951 247.808885 
L 448.908212 247.124318 
L 449.132339 245.705458 
" style="fill:none;stroke:#999999;"/>
    <path clip-path="url(#p507f83ade5)" d="M 450.780857 257.859425 
L 452.767938 257.538598 
" style="fill:none;stroke:#999999;"/>
    <path clip-path="url(#p507f83ade5)" d="M 450.780857 257.859425 
L 450.694898 257.872367 
" style="fill:none;stroke:#999999;"/>
    <path clip-path="url(#p507f83ade5)" d="M 450.780857 257.859425 
L 451.034516 260.922609 
" style="fill:none;stroke:#999999;"/>
    <path clip-path="url(#p507f83ade5)" d="M 428.688819 262.831224 
L 430.52244 264.485765 
" style="fill:none;stroke:#999999;"/>
    <path clip-path="url(#p507f83ade5)" d="M 428.688819 262.831224 
L 429.074317 262.733817 
" style="fill:none;stroke:#999999;"/>
    <path clip-path="url(#p507f83ade5)" d="M 428.688819 262.831224 
L 425.906484 260.690333 
L 423.053483 258.832805 
L 345.844207 206.190592 
L 262.893068 152.556607 
L 259.096098 149.627612 
L 256.142899 146.902966 
L 248.216197 139.167694 
L 227.454681 118.907223 
L 223.18309 115.841996 
L 219.122441 113.730395 
L 213.848872 111.550678 
L 177.672185 97.041935 
L 167.599667 92.546268 
" style="fill:none;stroke:#999999;"/>
    <path clip-path="url(#p507f83ade5)" d="M 429.074317 262.733817 
L 435.409984 265.194173 
" style="fill:none;stroke:#999999;"/>
    <path clip-path="url(#p507f83ade5)" d="M 429.074317 262.733817 
L 432.560147 261.875554 
" style="fill:none;stroke:#999999;"/>
    <path clip-path="url(#p507f83ade5)" d="M 429.074317 262.733817 
L 428.688819 262.831224 
" style="fill:none;stroke:#999999;"/>
    <path clip-path="url(#p507f83ade5)" d="M 446.743412 251.379534 
L 447.076702 257.450047 
" style="fill:none;stroke:#999999;"/>
    <path clip-path="url(#p507f83ade5)" d="M 447.076702 257.450047 
L 448.527988 258.402311 
" style="fill:none;stroke:#999999;"/>
    <path clip-path="url(#p507f83ade5)" d="M 447.076702 257.450047 
L 446.743412 251.379534 
" style="fill:none;stroke:#999999;"/>
    <path clip-path="url(#p507f83ade5)" d="M 447.076702 257.450047 
L 446.717044 257.214365 
L 444.663516 255.762128 
L 442.06101 252.545002 
L 439.87406 250.793735 
" style="fill:none;stroke:#999999;"/>
    <path clip-path="url(#p507f83ade5)" d="M 449.132339 245.705458 
L 448.908212 247.124318 
L 449.095951 247.808885 
L 449.261014 248.190336 
L 449.451917 248.630366 
L 450.694898 257.872367 
" style="fill:none;stroke:#999999;"/>
    <path clip-path="url(#p507f83ade5)" d="M 452.174661 253.507483 
L 452.767938 257.538598 
" style="fill:none;stroke:#999999;"/>
    <path clip-path="url(#p507f83ade5)" d="M 452.767938 257.538598 
L 454.768203 257.215727 
" style="fill:none;stroke:#999999;"/>
    <path clip-path="url(#p507f83ade5)" d="M 452.767938 257.538598 
L 450.780857 257.859425 
" style="fill:none;stroke:#999999;"/>
    <path clip-path="url(#p507f83ade5)" d="M 452.767938 257.538598 
L 452.174661 253.507483 
" style="fill:none;stroke:#999999;"/>
    <path clip-path="url(#p507f83ade5)" d="M 471.711127 249.696384 
L 471.176387 249.607833 
" style="fill:none;stroke:#999999;"/>
    <path clip-path="url(#p507f83ade5)" d="M 461.094377 270.931597 
L 460.215273 271.360729 
L 459.104659 271.960833 
" style="fill:none;stroke:#999999;"/>
    <path clip-path="url(#p507f83ade5)" d="M 451.934714 275.028103 
L 451.479077 275.058756 
" style="fill:none;stroke:#999999;"/>
    <path clip-path="url(#p507f83ade5)" d="M 451.934714 275.028103 
L 452.582836 274.983828 
L 454.319422 274.641204 
L 456.442034 273.955274 
L 457.878554 273.075894 
L 459.104659 271.960833 
" style="fill:none;stroke:#999999;"/>
    <path clip-path="url(#p507f83ade5)" d="M 451.934714 275.028103 
L 452.077628 275.344844 
L 452.330232 275.942222 
L 452.808544 276.993255 
" style="fill:none;stroke:#999999;"/>
    <path clip-path="url(#p507f83ade5)" d="M 459.104659 271.960833 
L 457.01738 268.391546 
" style="fill:none;stroke:#999999;"/>
    <path clip-path="url(#p507f83ade5)" d="M 459.104659 271.960833 
L 459.317184 272.257819 
L 459.676841 272.749618 
L 461.09965 274.951813 
L 463.850871 278.587854 
" style="fill:none;stroke:#999999;"/>
    <path clip-path="url(#p507f83ade5)" d="M 459.104659 271.960833 
L 460.215273 271.360729 
L 461.094377 270.931597 
" style="fill:none;stroke:#999999;"/>
    <path clip-path="url(#p507f83ade5)" d="M 459.104659 271.960833 
L 457.878554 273.075894 
L 456.442034 273.955274 
L 454.319422 274.641204 
L 452.582836 274.983828 
L 451.934714 275.028103 
" style="fill:none;stroke:#999999;"/>
    <path clip-path="url(#p507f83ade5)" d="M 440.074456 277.485053 
L 440.852308 272.059601 
" style="fill:none;stroke:#999999;"/>
    <path clip-path="url(#p507f83ade5)" d="M 440.074456 277.485053 
L 440.026467 277.820866 
L 439.878807 279.155262 
" style="fill:none;stroke:#999999;"/>
    <path clip-path="url(#p507f83ade5)" d="M 440.074456 277.485053 
L 442.343673 277.051835 
L 444.300695 277.012327 
L 445.398124 277.012327 
L 446.521922 274.437536 
" style="fill:none;stroke:#999999;"/>
    <path clip-path="url(#p507f83ade5)" d="M 434.635824 268.072081 
L 435.205897 268.549575 
" style="fill:none;stroke:#999999;"/>
    <path clip-path="url(#p507f83ade5)" d="M 434.635824 268.072081 
L 433.272606 271.306236 
" style="fill:none;stroke:#999999;"/>
    <path clip-path="url(#p507f83ade5)" d="M 434.635824 268.072081 
L 433.743536 267.324847 
L 430.52244 264.485765 
" style="fill:none;stroke:#999999;"/>
    <path clip-path="url(#p507f83ade5)" d="M 433.272606 271.306236 
L 434.635824 268.072081 
" style="fill:none;stroke:#999999;"/>
    <path clip-path="url(#p507f83ade5)" d="M 433.272606 271.306236 
L 434.875244 271.764658 
L 439.200626 272.262587 
L 440.852308 272.059601 
" style="fill:none;stroke:#999999;"/>
    <path clip-path="url(#p507f83ade5)" d="M 433.272606 271.306236 
L 431.914662 270.917974 
L 429.801015 270.320596 
L 430.080514 267.949472 
" style="fill:none;stroke:#999999;"/>
   </g>
  </g>
 </g>
 <defs>
  <clipPath id="p507f83ade5">
   <rect height="432" width="1015.406442" x="148.07262" y="0"/>
  </clipPath>
 </defs>
</svg>
