<?xml version="1.0" encoding="utf-8" standalone="no"?>
<!DOCTYPE svg PUBLIC "-//W3C//DTD SVG 1.1//EN"
  "http://www.w3.org/Graphics/SVG/1.1/DTD/svg11.dtd">
<!-- Created with matplotlib (http://matplotlib.org/) -->
<svg height="432pt" version="1.1" viewBox="0 0 1064.076549 432" width="1064.076549pt" xmlns="http://www.w3.org/2000/svg" xmlns:xlink="http://www.w3.org/1999/xlink">
 <defs>
  <style type="text/css">
*{stroke-linecap:butt;stroke-linejoin:round;}
  </style>
 </defs>
 <g id="figure_1">
  <g id="patch_1">
   <path d="M 0 432 
L 1064.076549 432 
L 1064.076549 0 
L 0 0 
z
" style="fill:none;opacity:0;"/>
  </g>
  <g id="axes_1">
   <g id="PathCollection_1">
    <defs>
     <path d="M 0 1.936492 
C 0.513564 1.936492 1.006162 1.732451 1.369306 1.369306 
C 1.732451 1.006162 1.936492 0.513564 1.936492 0 
C 1.936492 -0.513564 1.732451 -1.006162 1.369306 -1.369306 
C 1.006162 -1.732451 0.513564 -1.936492 0 -1.936492 
C -0.513564 -1.936492 -1.006162 -1.732451 -1.369306 -1.369306 
C -1.732451 -1.006162 -1.936492 -0.513564 -1.936492 0 
C -1.936492 0.513564 -1.732451 1.006162 -1.369306 1.369306 
C -1.006162 1.732451 -0.513564 1.936492 0 1.936492 
z
" id="C0_0_8827259270"/>
    </defs>
    <g clip-path="url(#p219e5bff88)">
     <use style="fill:#66ccff;" x="931.016716" xlink:href="#C0_0_8827259270" y="81.036187"/>
    </g>
    <g clip-path="url(#p219e5bff88)">
     <use style="fill:#66ccff;" x="573.646711" xlink:href="#C0_0_8827259270" y="86.269639"/>
    </g>
    <g clip-path="url(#p219e5bff88)">
     <use style="fill:#66ccff;" x="526.094744" xlink:href="#C0_0_8827259270" y="73.550274"/>
    </g>
    <g clip-path="url(#p219e5bff88)">
     <use style="fill:#66ccff;" x="497.540464" xlink:href="#C0_0_8827259270" y="169.254839"/>
    </g>
    <g clip-path="url(#p219e5bff88)">
     <use style="fill:#66ccff;" x="437.192349" xlink:href="#C0_0_8827259270" y="48.641815"/>
    </g>
    <g clip-path="url(#p219e5bff88)">
     <use style="fill:#66ccff;" x="515.360809" xlink:href="#C0_0_8827259270" y="134.648611"/>
    </g>
    <g clip-path="url(#p219e5bff88)">
     <use style="fill:#66ccff;" x="525.895416" xlink:href="#C0_0_8827259270" y="138.737917"/>
    </g>
    <g clip-path="url(#p219e5bff88)">
     <use style="fill:#66ccff;" x="605.207686" xlink:href="#C0_0_8827259270" y="30.915916"/>
    </g>
    <g clip-path="url(#p219e5bff88)">
     <use style="fill:#66ccff;" x="520.113025" xlink:href="#C0_0_8827259270" y="91.636853"/>
    </g>
    <g clip-path="url(#p219e5bff88)">
     <use style="fill:#66ccff;" x="524.721799" xlink:href="#C0_0_8827259270" y="76.906275"/>
    </g>
    <g clip-path="url(#p219e5bff88)">
     <use style="fill:#66ccff;" x="469.820756" xlink:href="#C0_0_8827259270" y="151.333074"/>
    </g>
    <g clip-path="url(#p219e5bff88)">
     <use style="fill:#66ccff;" x="503.365701" xlink:href="#C0_0_8827259270" y="129.579974"/>
    </g>
    <g clip-path="url(#p219e5bff88)">
     <use style="fill:#66ccff;" x="496.687263" xlink:href="#C0_0_8827259270" y="128.509875"/>
    </g>
    <g clip-path="url(#p219e5bff88)">
     <use style="fill:#66ccff;" x="512.173415" xlink:href="#C0_0_8827259270" y="125.34974"/>
    </g>
    <g clip-path="url(#p219e5bff88)">
     <use style="fill:#66ccff;" x="459.375567" xlink:href="#C0_0_8827259270" y="125.543218"/>
    </g>
    <g clip-path="url(#p219e5bff88)">
     <use style="fill:#66ccff;" x="519.852221" xlink:href="#C0_0_8827259270" y="124.860074"/>
    </g>
    <g clip-path="url(#p219e5bff88)">
     <use style="fill:#66ccff;" x="505.113086" xlink:href="#C0_0_8827259270" y="124.078998"/>
    </g>
    <g clip-path="url(#p219e5bff88)">
     <use style="fill:#66ccff;" x="468.460851" xlink:href="#C0_0_8827259270" y="121.826535"/>
    </g>
    <g clip-path="url(#p219e5bff88)">
     <use style="fill:#66ccff;" x="424.111181" xlink:href="#C0_0_8827259270" y="121.692773"/>
    </g>
    <g clip-path="url(#p219e5bff88)">
     <use style="fill:#66ccff;" x="515.524743" xlink:href="#C0_0_8827259270" y="115.224408"/>
    </g>
    <g clip-path="url(#p219e5bff88)">
     <use style="fill:#66ccff;" x="490.679464" xlink:href="#C0_0_8827259270" y="109.854806"/>
    </g>
    <g clip-path="url(#p219e5bff88)">
     <use style="fill:#66ccff;" x="481.25141" xlink:href="#C0_0_8827259270" y="108.648556"/>
    </g>
    <g clip-path="url(#p219e5bff88)">
     <use style="fill:#66ccff;" x="474.392272" xlink:href="#C0_0_8827259270" y="105.591131"/>
    </g>
    <g clip-path="url(#p219e5bff88)">
     <use style="fill:#66ccff;" x="474.949274" xlink:href="#C0_0_8827259270" y="103.723236"/>
    </g>
    <g clip-path="url(#p219e5bff88)">
     <use style="fill:#66ccff;" x="500.208113" xlink:href="#C0_0_8827259270" y="97.852025"/>
    </g>
    <g clip-path="url(#p219e5bff88)">
     <use style="fill:#66ccff;" x="467.318903" xlink:href="#C0_0_8827259270" y="102.588645"/>
    </g>
    <g clip-path="url(#p219e5bff88)">
     <use style="fill:#66ccff;" x="498.915272" xlink:href="#C0_0_8827259270" y="97.295478"/>
    </g>
    <g clip-path="url(#p219e5bff88)">
     <use style="fill:#66ccff;" x="494.118347" xlink:href="#C0_0_8827259270" y="96.137"/>
    </g>
    <g clip-path="url(#p219e5bff88)">
     <use style="fill:#66ccff;" x="494.639954" xlink:href="#C0_0_8827259270" y="94.121011"/>
    </g>
    <g clip-path="url(#p219e5bff88)">
     <use style="fill:#66ccff;" x="487.758462" xlink:href="#C0_0_8827259270" y="91.472039"/>
    </g>
    <g clip-path="url(#p219e5bff88)">
     <use style="fill:#66ccff;" x="463.95081" xlink:href="#C0_0_8827259270" y="89.398722"/>
    </g>
    <g clip-path="url(#p219e5bff88)">
     <use style="fill:#66ccff;" x="584.39555" xlink:href="#C0_0_8827259270" y="88.414614"/>
    </g>
    <g clip-path="url(#p219e5bff88)">
     <use style="fill:#66ccff;" x="571.178391" xlink:href="#C0_0_8827259270" y="85.617548"/>
    </g>
    <g clip-path="url(#p219e5bff88)">
     <use style="fill:#66ccff;" x="501.663026" xlink:href="#C0_0_8827259270" y="84.404132"/>
    </g>
    <g clip-path="url(#p219e5bff88)">
     <use style="fill:#66ccff;" x="562.884833" xlink:href="#C0_0_8827259270" y="83.353142"/>
    </g>
    <g clip-path="url(#p219e5bff88)">
     <use style="fill:#66ccff;" x="537.197531" xlink:href="#C0_0_8827259270" y="81.248774"/>
    </g>
    <g clip-path="url(#p219e5bff88)">
     <use style="fill:#66ccff;" x="515.202464" xlink:href="#C0_0_8827259270" y="74.964333"/>
    </g>
    <g clip-path="url(#p219e5bff88)">
     <use style="fill:#66ccff;" x="527.670744" xlink:href="#C0_0_8827259270" y="73.973058"/>
    </g>
    <g clip-path="url(#p219e5bff88)">
     <use style="fill:#66ccff;" x="504.187233" xlink:href="#C0_0_8827259270" y="72.355967"/>
    </g>
    <g clip-path="url(#p219e5bff88)">
     <use style="fill:#66ccff;" x="500.565787" xlink:href="#C0_0_8827259270" y="71.235707"/>
    </g>
    <g clip-path="url(#p219e5bff88)">
     <use style="fill:#66ccff;" x="488.98424" xlink:href="#C0_0_8827259270" y="66.811996"/>
    </g>
    <g clip-path="url(#p219e5bff88)">
     <use style="fill:#66ccff;" x="501.653711" xlink:href="#C0_0_8827259270" y="66.656736"/>
    </g>
    <g clip-path="url(#p219e5bff88)">
     <use style="fill:#66ccff;" x="490.137365" xlink:href="#C0_0_8827259270" y="63.36045"/>
    </g>
    <g clip-path="url(#p219e5bff88)">
     <use style="fill:#66ccff;" x="481.273764" xlink:href="#C0_0_8827259270" y="63.13592"/>
    </g>
    <g clip-path="url(#p219e5bff88)">
     <use style="fill:#66ccff;" x="461.182565" xlink:href="#C0_0_8827259270" y="55.630897"/>
    </g>
    <g clip-path="url(#p219e5bff88)">
     <use style="fill:#66ccff;" x="497.171613" xlink:href="#C0_0_8827259270" y="41.060357"/>
    </g>
    <g clip-path="url(#p219e5bff88)">
     <use style="fill:#66ccff;" x="508.902191" xlink:href="#C0_0_8827259270" y="40.582634"/>
    </g>
    <g clip-path="url(#p219e5bff88)">
     <use style="fill:#66ccff;" x="497.840388" xlink:href="#C0_0_8827259270" y="38.358835"/>
    </g>
    <g clip-path="url(#p219e5bff88)">
     <use style="fill:#66ccff;" x="592.944323" xlink:href="#C0_0_8827259270" y="30.889642"/>
    </g>
    <g clip-path="url(#p219e5bff88)">
     <use style="fill:#66ccff;" x="565.854269" xlink:href="#C0_0_8827259270" y="72.76442"/>
    </g>
    <g clip-path="url(#p219e5bff88)">
     <use style="fill:#66ccff;" x="535.690458" xlink:href="#C0_0_8827259270" y="28.305162"/>
    </g>
    <g clip-path="url(#p219e5bff88)">
     <use style="fill:#66ccff;" x="622.994499" xlink:href="#C0_0_8827259270" y="23.716636"/>
    </g>
    <g clip-path="url(#p219e5bff88)">
     <use style="fill:#66ccff;" x="618.585053" xlink:href="#C0_0_8827259270" y="23.568542"/>
    </g>
    <g clip-path="url(#p219e5bff88)">
     <use style="fill:#66ccff;" x="606.353359" xlink:href="#C0_0_8827259270" y="23.470609"/>
    </g>
    <g clip-path="url(#p219e5bff88)">
     <use style="fill:#66ccff;" x="592.990895" xlink:href="#C0_0_8827259270" y="23.188753"/>
    </g>
    <g clip-path="url(#p219e5bff88)">
     <use style="fill:#66ccff;" x="618.922235" xlink:href="#C0_0_8827259270" y="17.140784"/>
    </g>
    <g clip-path="url(#p219e5bff88)">
     <use style="fill:#66ccff;" x="593.076588" xlink:href="#C0_0_8827259270" y="15.693284"/>
    </g>
    <g clip-path="url(#p219e5bff88)">
     <use style="fill:#66ccff;" x="593.436124" xlink:href="#C0_0_8827259270" y="8.307692"/>
    </g>
    <g clip-path="url(#p219e5bff88)">
     <use style="fill:#66ccff;" x="568.063649" xlink:href="#C0_0_8827259270" y="159.631117"/>
    </g>
    <g clip-path="url(#p219e5bff88)">
     <use style="fill:#66ccff;" x="556.811832" xlink:href="#C0_0_8827259270" y="151.813186"/>
    </g>
    <g clip-path="url(#p219e5bff88)">
     <use style="fill:#66ccff;" x="502.635451" xlink:href="#C0_0_8827259270" y="177.008278"/>
    </g>
    <g clip-path="url(#p219e5bff88)">
     <use style="fill:#66ccff;" x="508.596678" xlink:href="#C0_0_8827259270" y="162.645547"/>
    </g>
    <g clip-path="url(#p219e5bff88)">
     <use style="fill:#66ccff;" x="519.054907" xlink:href="#C0_0_8827259270" y="158.670894"/>
    </g>
    <g clip-path="url(#p219e5bff88)">
     <use style="fill:#66ccff;" x="485.031201" xlink:href="#C0_0_8827259270" y="160.450411"/>
    </g>
    <g clip-path="url(#p219e5bff88)">
     <use style="fill:#66ccff;" x="534.664009" xlink:href="#C0_0_8827259270" y="153.478049"/>
    </g>
    <g clip-path="url(#p219e5bff88)">
     <use style="fill:#66ccff;" x="521.100353" xlink:href="#C0_0_8827259270" y="152.895227"/>
    </g>
    <g clip-path="url(#p219e5bff88)">
     <use style="fill:#66ccff;" x="511.275505" xlink:href="#C0_0_8827259270" y="151.856181"/>
    </g>
    <g clip-path="url(#p219e5bff88)">
     <use style="fill:#66ccff;" x="504.002807" xlink:href="#C0_0_8827259270" y="151.337852"/>
    </g>
    <g clip-path="url(#p219e5bff88)">
     <use style="fill:#66ccff;" x="488.157119" xlink:href="#C0_0_8827259270" y="150.260587"/>
    </g>
    <g clip-path="url(#p219e5bff88)">
     <use style="fill:#66ccff;" x="541.711298" xlink:href="#C0_0_8827259270" y="145.550242"/>
    </g>
    <g clip-path="url(#p219e5bff88)">
     <use style="fill:#66ccff;" x="468.241031" xlink:href="#C0_0_8827259270" y="130.146075"/>
    </g>
    <g clip-path="url(#p219e5bff88)">
     <use style="fill:#66ccff;" x="578.860923" xlink:href="#C0_0_8827259270" y="108.729769"/>
    </g>
    <g clip-path="url(#p219e5bff88)">
     <use style="fill:#66ccff;" x="575.721964" xlink:href="#C0_0_8827259270" y="108.049014"/>
    </g>
    <g clip-path="url(#p219e5bff88)">
     <use style="fill:#66ccff;" x="589.142177" xlink:href="#C0_0_8827259270" y="106.787827"/>
    </g>
    <g clip-path="url(#p219e5bff88)">
     <use style="fill:#66ccff;" x="565.772302" xlink:href="#C0_0_8827259270" y="157.877875"/>
    </g>
    <g clip-path="url(#p219e5bff88)">
     <use style="fill:#66ccff;" x="571.301341" xlink:href="#C0_0_8827259270" y="137.985504"/>
    </g>
    <g clip-path="url(#p219e5bff88)">
     <use style="fill:#66ccff;" x="562.111736" xlink:href="#C0_0_8827259270" y="132.035468"/>
    </g>
    <g clip-path="url(#p219e5bff88)">
     <use style="fill:#66ccff;" x="555.543208" xlink:href="#C0_0_8827259270" y="128.182635"/>
    </g>
    <g clip-path="url(#p219e5bff88)">
     <use style="fill:#66ccff;" x="529.710601" xlink:href="#C0_0_8827259270" y="126.816348"/>
    </g>
    <g clip-path="url(#p219e5bff88)">
     <use style="fill:#66ccff;" x="555.144551" xlink:href="#C0_0_8827259270" y="125.359294"/>
    </g>
    <g clip-path="url(#p219e5bff88)">
     <use style="fill:#66ccff;" x="545.643845" xlink:href="#C0_0_8827259270" y="122.942018"/>
    </g>
    <g clip-path="url(#p219e5bff88)">
     <use style="fill:#66ccff;" x="532.070875" xlink:href="#C0_0_8827259270" y="119.738887"/>
    </g>
    <g clip-path="url(#p219e5bff88)">
     <use style="fill:#66ccff;" x="532.614837" xlink:href="#C0_0_8827259270" y="111.534001"/>
    </g>
    <g clip-path="url(#p219e5bff88)">
     <use style="fill:#66ccff;" x="560.401609" xlink:href="#C0_0_8827259270" y="101.654697"/>
    </g>
    <g clip-path="url(#p219e5bff88)">
     <use style="fill:#66ccff;" x="535.217285" xlink:href="#C0_0_8827259270" y="94.868647"/>
    </g>
    <g clip-path="url(#p219e5bff88)">
     <use style="fill:#66ccff;" x="590.297165" xlink:href="#C0_0_8827259270" y="89.009378"/>
    </g>
    <g clip-path="url(#p219e5bff88)">
     <use style="fill:#66ccff;" x="457.061866" xlink:href="#C0_0_8827259270" y="219.012041"/>
    </g>
    <g clip-path="url(#p219e5bff88)">
     <use style="fill:#66ccff;" x="409.275175" xlink:href="#C0_0_8827259270" y="246.208791"/>
    </g>
    <g clip-path="url(#p219e5bff88)">
     <use style="fill:#66ccff;" x="133.059833" xlink:href="#C0_0_8827259270" y="302.572897"/>
    </g>
    <g clip-path="url(#p219e5bff88)">
     <use style="fill:#66ccff;" x="354.910643" xlink:href="#C0_0_8827259270" y="423.692308"/>
    </g>
    <g clip-path="url(#p219e5bff88)">
     <use style="fill:#66ccff;" x="509.123874" xlink:href="#C0_0_8827259270" y="131.041805"/>
    </g>
    <g clip-path="url(#p219e5bff88)">
     <use style="fill:#66ccff;" x="510.981169" xlink:href="#C0_0_8827259270" y="86.952782"/>
    </g>
    <g clip-path="url(#p219e5bff88)">
     <use style="fill:#66ccff;" x="509.192801" xlink:href="#C0_0_8827259270" y="93.488028"/>
    </g>
    <g clip-path="url(#p219e5bff88)">
     <use style="fill:#66ccff;" x="637.135648" xlink:href="#C0_0_8827259270" y="88.553153"/>
    </g>
    <g clip-path="url(#p219e5bff88)">
     <use style="fill:#66ccff;" x="469.51338" xlink:href="#C0_0_8827259270" y="96.552619"/>
    </g>
    <g clip-path="url(#p219e5bff88)">
     <use style="fill:#66ccff;" x="466.398639" xlink:href="#C0_0_8827259270" y="102.23513"/>
    </g>
    <g clip-path="url(#p219e5bff88)">
     <use style="fill:#66ccff;" x="469.392293" xlink:href="#C0_0_8827259270" y="121.473021"/>
    </g>
    <g clip-path="url(#p219e5bff88)">
     <use style="fill:#66ccff;" x="605.92117" xlink:href="#C0_0_8827259270" y="30.918305"/>
    </g>
    <g clip-path="url(#p219e5bff88)">
     <use style="fill:#66ccff;" x="577.445131" xlink:href="#C0_0_8827259270" y="30.958911"/>
    </g>
    <g clip-path="url(#p219e5bff88)">
     <use style="fill:#66ccff;" x="714.622292" xlink:href="#C0_0_8827259270" y="205.392169"/>
    </g>
   </g>
   <g id="LineCollection_1">
    <path clip-path="url(#p219e5bff88)" d="M 931.016716 81.036187 
L 637.135648 88.553153 
" style="fill:none;stroke:#999999;"/>
    <path clip-path="url(#p219e5bff88)" d="M 573.646711 86.269639 
L 584.39555 88.414614 
" style="fill:none;stroke:#999999;"/>
    <path clip-path="url(#p219e5bff88)" d="M 573.646711 86.269639 
L 571.178391 85.617548 
" style="fill:none;stroke:#999999;"/>
    <path clip-path="url(#p219e5bff88)" d="M 573.646711 86.269639 
L 586.349715 65.500647 
L 593.208852 53.774945 
L 600.414486 40.389156 
L 605.207686 30.915916 
" style="fill:none;stroke:#999999;"/>
    <path clip-path="url(#p219e5bff88)" d="M 526.094744 73.550274 
L 524.721799 76.906275 
" style="fill:none;stroke:#999999;"/>
    <path clip-path="url(#p219e5bff88)" d="M 526.094744 73.550274 
L 527.670744 73.973058 
" style="fill:none;stroke:#999999;"/>
    <path clip-path="url(#p219e5bff88)" d="M 526.094744 73.550274 
L 501.653711 66.656736 
" style="fill:none;stroke:#999999;"/>
    <path clip-path="url(#p219e5bff88)" d="M 497.540464 169.254839 
L 508.596678 162.645547 
" style="fill:none;stroke:#999999;"/>
    <path clip-path="url(#p219e5bff88)" d="M 497.540464 169.254839 
L 493.134744 174.571892 
L 475.23057 199.941353 
L 468.934023 210.233888 
L 465.536124 215.030223 
L 457.061866 219.012041 
" style="fill:none;stroke:#999999;"/>
    <path clip-path="url(#p219e5bff88)" d="M 497.540464 169.254839 
L 501.292312 161.575448 
L 504.002807 151.337852 
" style="fill:none;stroke:#999999;"/>
    <path clip-path="url(#p219e5bff88)" d="M 437.192349 48.641815 
L 461.182565 55.630897 
" style="fill:none;stroke:#999999;"/>
    <path clip-path="url(#p219e5bff88)" d="M 437.192349 48.641815 
L 435.82313 43.580344 
L 433.945343 39.901879 
L 431.39133 36.123093 
L 436.946449 35.953502 
L 484.360563 39.813501 
L 497.171613 41.060357 
" style="fill:none;stroke:#999999;"/>
    <path clip-path="url(#p219e5bff88)" d="M 437.192349 48.641815 
L 440.081682 54.341046 
L 448.190814 68.601067 
L 463.95081 89.398722 
" style="fill:none;stroke:#999999;"/>
    <path clip-path="url(#p219e5bff88)" d="M 515.360809 134.648611 
L 509.123874 131.041805 
" style="fill:none;stroke:#999999;"/>
    <path clip-path="url(#p219e5bff88)" d="M 515.360809 134.648611 
L 511.275505 151.856181 
" style="fill:none;stroke:#999999;"/>
    <path clip-path="url(#p219e5bff88)" d="M 515.360809 134.648611 
L 516.178615 135.06423 
L 525.895416 138.737917 
" style="fill:none;stroke:#999999;"/>
    <path clip-path="url(#p219e5bff88)" d="M 525.895416 138.737917 
L 521.100353 152.895227 
" style="fill:none;stroke:#999999;"/>
    <path clip-path="url(#p219e5bff88)" d="M 525.895416 138.737917 
L 528.069401 131.789441 
L 529.710601 126.816348 
" style="fill:none;stroke:#999999;"/>
    <path clip-path="url(#p219e5bff88)" d="M 525.895416 138.737917 
L 516.178615 135.06423 
L 515.360809 134.648611 
" style="fill:none;stroke:#999999;"/>
    <path clip-path="url(#p219e5bff88)" d="M 525.895416 138.737917 
L 537.618542 143.83044 
L 541.711298 145.550242 
" style="fill:none;stroke:#999999;"/>
    <path clip-path="url(#p219e5bff88)" d="M 605.207686 30.915916 
L 605.92117 30.918305 
" style="fill:none;stroke:#999999;"/>
    <path clip-path="url(#p219e5bff88)" d="M 605.207686 30.915916 
L 592.944323 30.889642 
" style="fill:none;stroke:#999999;"/>
    <path clip-path="url(#p219e5bff88)" d="M 605.207686 30.915916 
L 600.414486 40.389156 
L 593.208852 53.774945 
L 586.349715 65.500647 
L 573.646711 86.269639 
" style="fill:none;stroke:#999999;"/>
    <path clip-path="url(#p219e5bff88)" d="M 520.113025 91.636853 
L 518.835087 98.179265 
L 517.065347 110.332529 
L 515.524743 115.224408 
" style="fill:none;stroke:#999999;"/>
    <path clip-path="url(#p219e5bff88)" d="M 520.113025 91.636853 
L 522.085819 84.079281 
L 524.721799 76.906275 
" style="fill:none;stroke:#999999;"/>
    <path clip-path="url(#p219e5bff88)" d="M 520.113025 91.636853 
L 533.015357 94.453028 
L 535.217285 94.868647 
" style="fill:none;stroke:#999999;"/>
    <path clip-path="url(#p219e5bff88)" d="M 524.721799 76.906275 
L 526.094744 73.550274 
" style="fill:none;stroke:#999999;"/>
    <path clip-path="url(#p219e5bff88)" d="M 524.721799 76.906275 
L 522.085819 84.079281 
L 520.113025 91.636853 
" style="fill:none;stroke:#999999;"/>
    <path clip-path="url(#p219e5bff88)" d="M 524.721799 76.906275 
L 534.470269 80.422314 
L 537.197531 81.248774 
" style="fill:none;stroke:#999999;"/>
    <path clip-path="url(#p219e5bff88)" d="M 524.721799 76.906275 
L 522.765771 76.215966 
L 517.305659 75.267687 
L 515.202464 74.964333 
" style="fill:none;stroke:#999999;"/>
    <path clip-path="url(#p219e5bff88)" d="M 469.820756 151.333074 
L 488.157119 150.260587 
" style="fill:none;stroke:#999999;"/>
    <path clip-path="url(#p219e5bff88)" d="M 469.820756 151.333074 
L 469.498477 143.078027 
L 468.680671 134.533958 
L 468.241031 130.146075 
" style="fill:none;stroke:#999999;"/>
    <path clip-path="url(#p219e5bff88)" d="M 469.820756 151.333074 
L 460.673997 152.40795 
L 462.25186 139.805627 
L 463.695595 130.592746 
L 468.241031 130.146075 
" style="fill:none;stroke:#999999;"/>
    <path clip-path="url(#p219e5bff88)" d="M 469.820756 151.333074 
L 467.492151 165.743578 
L 465.280909 179.148475 
L 459.24144 214.631325 
L 457.061866 219.012041 
" style="fill:none;stroke:#999999;"/>
    <path clip-path="url(#p219e5bff88)" d="M 503.365701 129.579974 
L 496.687263 128.509875 
" style="fill:none;stroke:#999999;"/>
    <path clip-path="url(#p219e5bff88)" d="M 503.365701 129.579974 
L 509.123874 131.041805 
" style="fill:none;stroke:#999999;"/>
    <path clip-path="url(#p219e5bff88)" d="M 503.365701 129.579974 
L 505.113086 124.078998 
" style="fill:none;stroke:#999999;"/>
    <path clip-path="url(#p219e5bff88)" d="M 496.687263 128.509875 
L 503.365701 129.579974 
" style="fill:none;stroke:#999999;"/>
    <path clip-path="url(#p219e5bff88)" d="M 496.687263 128.509875 
L 491.458149 127.616534 
L 484.30095 125.801188 
L 478.503656 123.589332 
L 470.955252 120.883033 
L 469.392293 121.473021 
" style="fill:none;stroke:#999999;"/>
    <path clip-path="url(#p219e5bff88)" d="M 496.687263 128.509875 
L 490.567691 142.285008 
L 488.157119 150.260587 
" style="fill:none;stroke:#999999;"/>
    <path clip-path="url(#p219e5bff88)" d="M 512.173415 125.34974 
L 513.488611 121.050236 
L 514.749783 116.934656 
L 515.524743 115.224408 
" style="fill:none;stroke:#999999;"/>
    <path clip-path="url(#p219e5bff88)" d="M 512.173415 125.34974 
L 508.667468 124.719146 
L 505.113086 124.078998 
" style="fill:none;stroke:#999999;"/>
    <path clip-path="url(#p219e5bff88)" d="M 512.173415 125.34974 
L 518.471824 126.056769 
L 519.852221 124.860074 
" style="fill:none;stroke:#999999;"/>
    <path clip-path="url(#p219e5bff88)" d="M 459.375567 125.543218 
L 461.666914 118.42515 
L 465.128152 108.218606 
L 467.318903 102.588645 
" style="fill:none;stroke:#999999;"/>
    <path clip-path="url(#p219e5bff88)" d="M 459.375567 125.543218 
L 450.946019 129.491595 
L 424.111181 121.692773 
" style="fill:none;stroke:#999999;"/>
    <path clip-path="url(#p219e5bff88)" d="M 459.375567 125.543218 
L 462.428834 124.186485 
L 468.460851 121.826535 
" style="fill:none;stroke:#999999;"/>
    <path clip-path="url(#p219e5bff88)" d="M 519.852221 124.860074 
L 529.710601 126.816348 
" style="fill:none;stroke:#999999;"/>
    <path clip-path="url(#p219e5bff88)" d="M 519.852221 124.860074 
L 518.471824 126.056769 
L 512.173415 125.34974 
" style="fill:none;stroke:#999999;"/>
    <path clip-path="url(#p219e5bff88)" d="M 519.852221 124.860074 
L 520.256467 122.858416 
L 521.16928 117.985645 
L 522.439767 114.003827 
L 525.535879 113.25858 
L 528.963585 112.042776 
L 532.614837 111.534001 
" style="fill:none;stroke:#999999;"/>
    <path clip-path="url(#p219e5bff88)" d="M 505.113086 124.078998 
L 503.365701 129.579974 
" style="fill:none;stroke:#999999;"/>
    <path clip-path="url(#p219e5bff88)" d="M 505.113086 124.078998 
L 499.557967 121.418083 
L 495.135481 118.812105 
L 489.537516 116.053257 
L 482.987617 110.987009 
L 481.25141 108.648556 
" style="fill:none;stroke:#999999;"/>
    <path clip-path="url(#p219e5bff88)" d="M 505.113086 124.078998 
L 508.667468 124.719146 
L 512.173415 125.34974 
" style="fill:none;stroke:#999999;"/>
    <path clip-path="url(#p219e5bff88)" d="M 468.460851 121.826535 
L 469.392293 121.473021 
" style="fill:none;stroke:#999999;"/>
    <path clip-path="url(#p219e5bff88)" d="M 468.460851 121.826535 
L 468.241031 130.146075 
" style="fill:none;stroke:#999999;"/>
    <path clip-path="url(#p219e5bff88)" d="M 468.460851 121.826535 
L 462.428834 124.186485 
L 459.375567 125.543218 
" style="fill:none;stroke:#999999;"/>
    <path clip-path="url(#p219e5bff88)" d="M 424.111181 121.692773 
L 450.946019 129.491595 
L 459.375567 125.543218 
" style="fill:none;stroke:#999999;"/>
    <path clip-path="url(#p219e5bff88)" d="M 515.524743 115.224408 
L 514.749783 116.934656 
L 513.488611 121.050236 
L 512.173415 125.34974 
" style="fill:none;stroke:#999999;"/>
    <path clip-path="url(#p219e5bff88)" d="M 515.524743 115.224408 
L 517.065347 110.332529 
L 518.835087 98.179265 
L 520.113025 91.636853 
" style="fill:none;stroke:#999999;"/>
    <path clip-path="url(#p219e5bff88)" d="M 515.524743 115.224408 
L 512.233027 113.927391 
L 508.395487 113.184533 
L 504.071734 112.014112 
L 498.641428 110.731427 
L 490.679464 109.854806 
" style="fill:none;stroke:#999999;"/>
    <path clip-path="url(#p219e5bff88)" d="M 490.679464 109.854806 
L 494.118347 96.137 
" style="fill:none;stroke:#999999;"/>
    <path clip-path="url(#p219e5bff88)" d="M 490.679464 109.854806 
L 489.951076 109.742541 
L 481.25141 108.648556 
" style="fill:none;stroke:#999999;"/>
    <path clip-path="url(#p219e5bff88)" d="M 490.679464 109.854806 
L 498.641428 110.731427 
L 504.071734 112.014112 
L 508.395487 113.184533 
L 512.233027 113.927391 
L 515.524743 115.224408 
" style="fill:none;stroke:#999999;"/>
    <path clip-path="url(#p219e5bff88)" d="M 481.25141 108.648556 
L 482.987617 110.987009 
L 489.537516 116.053257 
L 495.135481 118.812105 
L 499.557967 121.418083 
L 505.113086 124.078998 
" style="fill:none;stroke:#999999;"/>
    <path clip-path="url(#p219e5bff88)" d="M 481.25141 108.648556 
L 476.566257 105.158792 
L 474.949274 103.723236 
" style="fill:none;stroke:#999999;"/>
    <path clip-path="url(#p219e5bff88)" d="M 481.25141 108.648556 
L 489.951076 109.742541 
L 490.679464 109.854806 
" style="fill:none;stroke:#999999;"/>
    <path clip-path="url(#p219e5bff88)" d="M 474.392272 105.591131 
L 467.318903 102.588645 
" style="fill:none;stroke:#999999;"/>
    <path clip-path="url(#p219e5bff88)" d="M 474.392272 105.591131 
L 474.949274 103.723236 
" style="fill:none;stroke:#999999;"/>
    <path clip-path="url(#p219e5bff88)" d="M 474.392272 105.591131 
L 471.344595 115.207688 
L 469.392293 121.473021 
" style="fill:none;stroke:#999999;"/>
    <path clip-path="url(#p219e5bff88)" d="M 474.949274 103.723236 
L 474.392272 105.591131 
" style="fill:none;stroke:#999999;"/>
    <path clip-path="url(#p219e5bff88)" d="M 474.949274 103.723236 
L 471.998467 99.829796 
L 469.51338 96.552619 
" style="fill:none;stroke:#999999;"/>
    <path clip-path="url(#p219e5bff88)" d="M 474.949274 103.723236 
L 476.566257 105.158792 
L 481.25141 108.648556 
" style="fill:none;stroke:#999999;"/>
    <path clip-path="url(#p219e5bff88)" d="M 500.208113 97.852025 
L 498.915272 97.295478 
" style="fill:none;stroke:#999999;"/>
    <path clip-path="url(#p219e5bff88)" d="M 467.318903 102.588645 
L 466.398639 102.23513 
" style="fill:none;stroke:#999999;"/>
    <path clip-path="url(#p219e5bff88)" d="M 467.318903 102.588645 
L 474.392272 105.591131 
" style="fill:none;stroke:#999999;"/>
    <path clip-path="url(#p219e5bff88)" d="M 467.318903 102.588645 
L 465.128152 108.218606 
L 461.666914 118.42515 
L 459.375567 125.543218 
" style="fill:none;stroke:#999999;"/>
    <path clip-path="url(#p219e5bff88)" d="M 498.915272 97.295478 
L 500.208113 97.852025 
" style="fill:none;stroke:#999999;"/>
    <path clip-path="url(#p219e5bff88)" d="M 498.915272 97.295478 
L 494.118347 96.137 
" style="fill:none;stroke:#999999;"/>
    <path clip-path="url(#p219e5bff88)" d="M 498.915272 97.295478 
L 499.135093 96.132223 
L 499.885835 92.148016 
L 500.128009 90.865331 
L 501.663026 84.404132 
" style="fill:none;stroke:#999999;"/>
    <path clip-path="url(#p219e5bff88)" d="M 494.118347 96.137 
L 494.639954 94.121011 
" style="fill:none;stroke:#999999;"/>
    <path clip-path="url(#p219e5bff88)" d="M 494.118347 96.137 
L 490.679464 109.854806 
" style="fill:none;stroke:#999999;"/>
    <path clip-path="url(#p219e5bff88)" d="M 494.118347 96.137 
L 498.915272 97.295478 
" style="fill:none;stroke:#999999;"/>
    <path clip-path="url(#p219e5bff88)" d="M 494.639954 94.121011 
L 487.758462 91.472039 
" style="fill:none;stroke:#999999;"/>
    <path clip-path="url(#p219e5bff88)" d="M 494.639954 94.121011 
L 500.565787 71.235707 
" style="fill:none;stroke:#999999;"/>
    <path clip-path="url(#p219e5bff88)" d="M 494.639954 94.121011 
L 494.118347 96.137 
" style="fill:none;stroke:#999999;"/>
    <path clip-path="url(#p219e5bff88)" d="M 487.758462 91.472039 
L 494.639954 94.121011 
" style="fill:none;stroke:#999999;"/>
    <path clip-path="url(#p219e5bff88)" d="M 463.95081 89.398722 
L 469.51338 96.552619 
" style="fill:none;stroke:#999999;"/>
    <path clip-path="url(#p219e5bff88)" d="M 463.95081 89.398722 
L 462.337552 94.285825 
L 461.121089 95.578065 
L 459.662452 95.726159 
L 446.320479 94.082793 
L 445.664744 99.700811 
L 466.398639 102.23513 
" style="fill:none;stroke:#999999;"/>
    <path clip-path="url(#p219e5bff88)" d="M 463.95081 89.398722 
L 448.190814 68.601067 
L 440.081682 54.341046 
L 437.192349 48.641815 
" style="fill:none;stroke:#999999;"/>
    <path clip-path="url(#p219e5bff88)" d="M 584.39555 88.414614 
L 590.297165 89.009378 
" style="fill:none;stroke:#999999;"/>
    <path clip-path="url(#p219e5bff88)" d="M 584.39555 88.414614 
L 573.646711 86.269639 
" style="fill:none;stroke:#999999;"/>
    <path clip-path="url(#p219e5bff88)" d="M 584.39555 88.414614 
L 583.408222 92.131296 
L 583.048685 93.488028 
L 582.843768 94.261939 
L 580.837442 101.530489 
L 578.860923 108.729769 
" style="fill:none;stroke:#999999;"/>
    <path clip-path="url(#p219e5bff88)" d="M 571.178391 85.617548 
L 573.646711 86.269639 
" style="fill:none;stroke:#999999;"/>
    <path clip-path="url(#p219e5bff88)" d="M 571.178391 85.617548 
L 562.884833 83.353142 
" style="fill:none;stroke:#999999;"/>
    <path clip-path="url(#p219e5bff88)" d="M 571.178391 85.617548 
L 570.04762 90.289675 
L 563.290941 88.340567 
L 555.587918 86.21709 
L 550.684808 85.001285 
L 545.260091 82.818093 
L 542.326049 82.357091 
L 537.197531 81.248774 
" style="fill:none;stroke:#999999;"/>
    <path clip-path="url(#p219e5bff88)" d="M 501.663026 84.404132 
L 510.981169 86.952782 
" style="fill:none;stroke:#999999;"/>
    <path clip-path="url(#p219e5bff88)" d="M 501.663026 84.404132 
L 502.162278 81.719331 
L 504.187233 72.355967 
" style="fill:none;stroke:#999999;"/>
    <path clip-path="url(#p219e5bff88)" d="M 501.663026 84.404132 
L 500.128009 90.865331 
L 499.885835 92.148016 
L 499.135093 96.132223 
L 498.915272 97.295478 
" style="fill:none;stroke:#999999;"/>
    <path clip-path="url(#p219e5bff88)" d="M 562.884833 83.353142 
L 571.178391 85.617548 
" style="fill:none;stroke:#999999;"/>
    <path clip-path="url(#p219e5bff88)" d="M 562.884833 83.353142 
L 565.854269 72.76442 
" style="fill:none;stroke:#999999;"/>
    <path clip-path="url(#p219e5bff88)" d="M 562.884833 83.353142 
L 539.94901 77.360112 
L 536.266089 76.344951 
L 527.670744 73.973058 
" style="fill:none;stroke:#999999;"/>
    <path clip-path="url(#p219e5bff88)" d="M 537.197531 81.248774 
L 535.513484 92.585132 
L 535.217285 94.868647 
" style="fill:none;stroke:#999999;"/>
    <path clip-path="url(#p219e5bff88)" d="M 537.197531 81.248774 
L 542.326049 82.357091 
L 545.260091 82.818093 
L 550.684808 85.001285 
L 555.587918 86.21709 
L 563.290941 88.340567 
L 570.04762 90.289675 
L 571.178391 85.617548 
" style="fill:none;stroke:#999999;"/>
    <path clip-path="url(#p219e5bff88)" d="M 537.197531 81.248774 
L 534.470269 80.422314 
L 524.721799 76.906275 
" style="fill:none;stroke:#999999;"/>
    <path clip-path="url(#p219e5bff88)" d="M 515.202464 74.964333 
L 517.305659 75.267687 
L 522.765771 76.215966 
L 524.721799 76.906275 
" style="fill:none;stroke:#999999;"/>
    <path clip-path="url(#p219e5bff88)" d="M 515.202464 74.964333 
L 512.49942 74.467501 
L 504.187233 72.355967 
" style="fill:none;stroke:#999999;"/>
    <path clip-path="url(#p219e5bff88)" d="M 515.202464 74.964333 
L 512.132432 87.268079 
L 510.981169 86.952782 
" style="fill:none;stroke:#999999;"/>
    <path clip-path="url(#p219e5bff88)" d="M 527.670744 73.973058 
L 526.094744 73.550274 
" style="fill:none;stroke:#999999;"/>
    <path clip-path="url(#p219e5bff88)" d="M 527.670744 73.973058 
L 536.266089 76.344951 
L 539.94901 77.360112 
L 562.884833 83.353142 
" style="fill:none;stroke:#999999;"/>
    <path clip-path="url(#p219e5bff88)" d="M 527.670744 73.973058 
L 530.764993 55.000303 
L 533.665503 37.396224 
L 535.690458 28.305162 
" style="fill:none;stroke:#999999;"/>
    <path clip-path="url(#p219e5bff88)" d="M 504.187233 72.355967 
L 500.565787 71.235707 
" style="fill:none;stroke:#999999;"/>
    <path clip-path="url(#p219e5bff88)" d="M 504.187233 72.355967 
L 512.49942 74.467501 
L 515.202464 74.964333 
" style="fill:none;stroke:#999999;"/>
    <path clip-path="url(#p219e5bff88)" d="M 504.187233 72.355967 
L 502.162278 81.719331 
L 501.663026 84.404132 
" style="fill:none;stroke:#999999;"/>
    <path clip-path="url(#p219e5bff88)" d="M 500.565787 71.235707 
L 501.653711 66.656736 
" style="fill:none;stroke:#999999;"/>
    <path clip-path="url(#p219e5bff88)" d="M 500.565787 71.235707 
L 494.639954 94.121011 
" style="fill:none;stroke:#999999;"/>
    <path clip-path="url(#p219e5bff88)" d="M 500.565787 71.235707 
L 504.187233 72.355967 
" style="fill:none;stroke:#999999;"/>
    <path clip-path="url(#p219e5bff88)" d="M 500.565787 71.235707 
L 495.726015 69.425139 
L 488.98424 66.811996 
" style="fill:none;stroke:#999999;"/>
    <path clip-path="url(#p219e5bff88)" d="M 488.98424 66.811996 
L 481.273764 63.13592 
" style="fill:none;stroke:#999999;"/>
    <path clip-path="url(#p219e5bff88)" d="M 488.98424 66.811996 
L 490.137365 63.36045 
" style="fill:none;stroke:#999999;"/>
    <path clip-path="url(#p219e5bff88)" d="M 488.98424 66.811996 
L 495.726015 69.425139 
L 500.565787 71.235707 
" style="fill:none;stroke:#999999;"/>
    <path clip-path="url(#p219e5bff88)" d="M 501.653711 66.656736 
L 526.094744 73.550274 
" style="fill:none;stroke:#999999;"/>
    <path clip-path="url(#p219e5bff88)" d="M 501.653711 66.656736 
L 490.137365 63.36045 
" style="fill:none;stroke:#999999;"/>
    <path clip-path="url(#p219e5bff88)" d="M 501.653711 66.656736 
L 508.902191 40.582634 
" style="fill:none;stroke:#999999;"/>
    <path clip-path="url(#p219e5bff88)" d="M 501.653711 66.656736 
L 500.565787 71.235707 
" style="fill:none;stroke:#999999;"/>
    <path clip-path="url(#p219e5bff88)" d="M 490.137365 63.36045 
L 501.653711 66.656736 
" style="fill:none;stroke:#999999;"/>
    <path clip-path="url(#p219e5bff88)" d="M 490.137365 63.36045 
L 497.171613 41.060357 
" style="fill:none;stroke:#999999;"/>
    <path clip-path="url(#p219e5bff88)" d="M 490.137365 63.36045 
L 488.98424 66.811996 
" style="fill:none;stroke:#999999;"/>
    <path clip-path="url(#p219e5bff88)" d="M 490.137365 63.36045 
L 461.182565 55.630897 
" style="fill:none;stroke:#999999;"/>
    <path clip-path="url(#p219e5bff88)" d="M 481.273764 63.13592 
L 488.98424 66.811996 
" style="fill:none;stroke:#999999;"/>
    <path clip-path="url(#p219e5bff88)" d="M 481.273764 63.13592 
L 469.51338 96.552619 
" style="fill:none;stroke:#999999;"/>
    <path clip-path="url(#p219e5bff88)" d="M 481.273764 63.13592 
L 477.363572 61.800685 
L 471.875517 60.491725 
L 463.684417 58.198657 
L 461.182565 55.630897 
" style="fill:none;stroke:#999999;"/>
    <path clip-path="url(#p219e5bff88)" d="M 461.182565 55.630897 
L 490.137365 63.36045 
" style="fill:none;stroke:#999999;"/>
    <path clip-path="url(#p219e5bff88)" d="M 461.182565 55.630897 
L 437.192349 48.641815 
" style="fill:none;stroke:#999999;"/>
    <path clip-path="url(#p219e5bff88)" d="M 461.182565 55.630897 
L 463.684417 58.198657 
L 471.875517 60.491725 
L 477.363572 61.800685 
L 481.273764 63.13592 
" style="fill:none;stroke:#999999;"/>
    <path clip-path="url(#p219e5bff88)" d="M 497.171613 41.060357 
L 497.840388 38.358835 
" style="fill:none;stroke:#999999;"/>
    <path clip-path="url(#p219e5bff88)" d="M 497.171613 41.060357 
L 490.137365 63.36045 
" style="fill:none;stroke:#999999;"/>
    <path clip-path="url(#p219e5bff88)" d="M 497.171613 41.060357 
L 484.360563 39.813501 
L 436.946449 35.953502 
L 431.39133 36.123093 
L 433.945343 39.901879 
L 435.82313 43.580344 
L 437.192349 48.641815 
" style="fill:none;stroke:#999999;"/>
    <path clip-path="url(#p219e5bff88)" d="M 508.902191 40.582634 
L 501.653711 66.656736 
" style="fill:none;stroke:#999999;"/>
    <path clip-path="url(#p219e5bff88)" d="M 497.840388 38.358835 
L 497.171613 41.060357 
" style="fill:none;stroke:#999999;"/>
    <path clip-path="url(#p219e5bff88)" d="M 592.944323 30.889642 
L 605.207686 30.915916 
" style="fill:none;stroke:#999999;"/>
    <path clip-path="url(#p219e5bff88)" d="M 592.944323 30.889642 
L 577.445131 30.958911 
" style="fill:none;stroke:#999999;"/>
    <path clip-path="url(#p219e5bff88)" d="M 592.944323 30.889642 
L 592.990895 23.188753 
" style="fill:none;stroke:#999999;"/>
    <path clip-path="url(#p219e5bff88)" d="M 565.854269 72.76442 
L 562.884833 83.353142 
" style="fill:none;stroke:#999999;"/>
    <path clip-path="url(#p219e5bff88)" d="M 535.690458 28.305162 
L 533.665503 37.396224 
L 530.764993 55.000303 
L 527.670744 73.973058 
" style="fill:none;stroke:#999999;"/>
    <path clip-path="url(#p219e5bff88)" d="M 622.994499 23.716636 
L 618.585053 23.568542 
" style="fill:none;stroke:#999999;"/>
    <path clip-path="url(#p219e5bff88)" d="M 618.585053 23.568542 
L 606.353359 23.470609 
" style="fill:none;stroke:#999999;"/>
    <path clip-path="url(#p219e5bff88)" d="M 618.585053 23.568542 
L 622.994499 23.716636 
" style="fill:none;stroke:#999999;"/>
    <path clip-path="url(#p219e5bff88)" d="M 618.585053 23.568542 
L 618.922235 17.140784 
" style="fill:none;stroke:#999999;"/>
    <path clip-path="url(#p219e5bff88)" d="M 618.585053 23.568542 
L 618.091389 31.052067 
L 605.92117 30.918305 
" style="fill:none;stroke:#999999;"/>
    <path clip-path="url(#p219e5bff88)" d="M 606.353359 23.470609 
L 618.585053 23.568542 
" style="fill:none;stroke:#999999;"/>
    <path clip-path="url(#p219e5bff88)" d="M 606.353359 23.470609 
L 605.92117 30.918305 
" style="fill:none;stroke:#999999;"/>
    <path clip-path="url(#p219e5bff88)" d="M 606.353359 23.470609 
L 592.990895 23.188753 
" style="fill:none;stroke:#999999;"/>
    <path clip-path="url(#p219e5bff88)" d="M 606.353359 23.470609 
L 606.507979 19.902021 
L 606.478172 19.484014 
L 604.410372 16.123235 
L 593.076588 15.693284 
" style="fill:none;stroke:#999999;"/>
    <path clip-path="url(#p219e5bff88)" d="M 592.990895 23.188753 
L 606.353359 23.470609 
" style="fill:none;stroke:#999999;"/>
    <path clip-path="url(#p219e5bff88)" d="M 592.990895 23.188753 
L 593.076588 15.693284 
" style="fill:none;stroke:#999999;"/>
    <path clip-path="url(#p219e5bff88)" d="M 592.990895 23.188753 
L 592.944323 30.889642 
" style="fill:none;stroke:#999999;"/>
    <path clip-path="url(#p219e5bff88)" d="M 618.922235 17.140784 
L 618.585053 23.568542 
" style="fill:none;stroke:#999999;"/>
    <path clip-path="url(#p219e5bff88)" d="M 593.076588 15.693284 
L 593.436124 8.307692 
" style="fill:none;stroke:#999999;"/>
    <path clip-path="url(#p219e5bff88)" d="M 593.076588 15.693284 
L 592.990895 23.188753 
" style="fill:none;stroke:#999999;"/>
    <path clip-path="url(#p219e5bff88)" d="M 593.076588 15.693284 
L 604.410372 16.123235 
L 606.478172 19.484014 
L 606.507979 19.902021 
L 606.353359 23.470609 
" style="fill:none;stroke:#999999;"/>
    <path clip-path="url(#p219e5bff88)" d="M 593.436124 8.307692 
L 593.076588 15.693284 
" style="fill:none;stroke:#999999;"/>
    <path clip-path="url(#p219e5bff88)" d="M 568.063649 159.631117 
L 565.772302 157.877875 
" style="fill:none;stroke:#999999;"/>
    <path clip-path="url(#p219e5bff88)" d="M 556.811832 151.813186 
L 541.711298 145.550242 
" style="fill:none;stroke:#999999;"/>
    <path clip-path="url(#p219e5bff88)" d="M 556.811832 151.813186 
L 565.772302 157.877875 
" style="fill:none;stroke:#999999;"/>
    <path clip-path="url(#p219e5bff88)" d="M 556.811832 151.813186 
L 562.111736 132.035468 
" style="fill:none;stroke:#999999;"/>
    <path clip-path="url(#p219e5bff88)" d="M 502.635451 177.008278 
L 508.596678 162.645547 
" style="fill:none;stroke:#999999;"/>
    <path clip-path="url(#p219e5bff88)" d="M 508.596678 162.645547 
L 502.635451 177.008278 
" style="fill:none;stroke:#999999;"/>
    <path clip-path="url(#p219e5bff88)" d="M 508.596678 162.645547 
L 511.275505 151.856181 
" style="fill:none;stroke:#999999;"/>
    <path clip-path="url(#p219e5bff88)" d="M 508.596678 162.645547 
L 519.054907 158.670894 
" style="fill:none;stroke:#999999;"/>
    <path clip-path="url(#p219e5bff88)" d="M 508.596678 162.645547 
L 497.540464 169.254839 
" style="fill:none;stroke:#999999;"/>
    <path clip-path="url(#p219e5bff88)" d="M 519.054907 158.670894 
L 521.100353 152.895227 
" style="fill:none;stroke:#999999;"/>
    <path clip-path="url(#p219e5bff88)" d="M 519.054907 158.670894 
L 534.664009 153.478049 
" style="fill:none;stroke:#999999;"/>
    <path clip-path="url(#p219e5bff88)" d="M 519.054907 158.670894 
L 508.596678 162.645547 
" style="fill:none;stroke:#999999;"/>
    <path clip-path="url(#p219e5bff88)" d="M 485.031201 160.450411 
L 488.157119 150.260587 
" style="fill:none;stroke:#999999;"/>
    <path clip-path="url(#p219e5bff88)" d="M 534.664009 153.478049 
L 521.100353 152.895227 
" style="fill:none;stroke:#999999;"/>
    <path clip-path="url(#p219e5bff88)" d="M 534.664009 153.478049 
L 519.054907 158.670894 
" style="fill:none;stroke:#999999;"/>
    <path clip-path="url(#p219e5bff88)" d="M 534.664009 153.478049 
L 536.301484 152.646812 
L 541.711298 145.550242 
" style="fill:none;stroke:#999999;"/>
    <path clip-path="url(#p219e5bff88)" d="M 521.100353 152.895227 
L 519.054907 158.670894 
" style="fill:none;stroke:#999999;"/>
    <path clip-path="url(#p219e5bff88)" d="M 521.100353 152.895227 
L 525.895416 138.737917 
" style="fill:none;stroke:#999999;"/>
    <path clip-path="url(#p219e5bff88)" d="M 521.100353 152.895227 
L 511.275505 151.856181 
" style="fill:none;stroke:#999999;"/>
    <path clip-path="url(#p219e5bff88)" d="M 521.100353 152.895227 
L 534.664009 153.478049 
" style="fill:none;stroke:#999999;"/>
    <path clip-path="url(#p219e5bff88)" d="M 511.275505 151.856181 
L 504.002807 151.337852 
" style="fill:none;stroke:#999999;"/>
    <path clip-path="url(#p219e5bff88)" d="M 511.275505 151.856181 
L 521.100353 152.895227 
" style="fill:none;stroke:#999999;"/>
    <path clip-path="url(#p219e5bff88)" d="M 511.275505 151.856181 
L 508.596678 162.645547 
" style="fill:none;stroke:#999999;"/>
    <path clip-path="url(#p219e5bff88)" d="M 511.275505 151.856181 
L 515.360809 134.648611 
" style="fill:none;stroke:#999999;"/>
    <path clip-path="url(#p219e5bff88)" d="M 504.002807 151.337852 
L 488.157119 150.260587 
" style="fill:none;stroke:#999999;"/>
    <path clip-path="url(#p219e5bff88)" d="M 504.002807 151.337852 
L 511.275505 151.856181 
" style="fill:none;stroke:#999999;"/>
    <path clip-path="url(#p219e5bff88)" d="M 504.002807 151.337852 
L 501.292312 161.575448 
L 497.540464 169.254839 
" style="fill:none;stroke:#999999;"/>
    <path clip-path="url(#p219e5bff88)" d="M 504.002807 151.337852 
L 507.866428 136.229873 
L 509.123874 131.041805 
" style="fill:none;stroke:#999999;"/>
    <path clip-path="url(#p219e5bff88)" d="M 488.157119 150.260587 
L 469.820756 151.333074 
" style="fill:none;stroke:#999999;"/>
    <path clip-path="url(#p219e5bff88)" d="M 488.157119 150.260587 
L 504.002807 151.337852 
" style="fill:none;stroke:#999999;"/>
    <path clip-path="url(#p219e5bff88)" d="M 488.157119 150.260587 
L 485.031201 160.450411 
" style="fill:none;stroke:#999999;"/>
    <path clip-path="url(#p219e5bff88)" d="M 488.157119 150.260587 
L 490.567691 142.285008 
L 496.687263 128.509875 
" style="fill:none;stroke:#999999;"/>
    <path clip-path="url(#p219e5bff88)" d="M 541.711298 145.550242 
L 556.811832 151.813186 
" style="fill:none;stroke:#999999;"/>
    <path clip-path="url(#p219e5bff88)" d="M 541.711298 145.550242 
L 555.543208 128.182635 
" style="fill:none;stroke:#999999;"/>
    <path clip-path="url(#p219e5bff88)" d="M 541.711298 145.550242 
L 537.618542 143.83044 
L 525.895416 138.737917 
" style="fill:none;stroke:#999999;"/>
    <path clip-path="url(#p219e5bff88)" d="M 541.711298 145.550242 
L 536.301484 152.646812 
L 534.664009 153.478049 
" style="fill:none;stroke:#999999;"/>
    <path clip-path="url(#p219e5bff88)" d="M 468.241031 130.146075 
L 468.460851 121.826535 
" style="fill:none;stroke:#999999;"/>
    <path clip-path="url(#p219e5bff88)" d="M 468.241031 130.146075 
L 468.680671 134.533958 
L 469.498477 143.078027 
L 469.820756 151.333074 
" style="fill:none;stroke:#999999;"/>
    <path clip-path="url(#p219e5bff88)" d="M 468.241031 130.146075 
L 463.695595 130.592746 
L 462.25186 139.805627 
L 460.673997 152.40795 
L 469.820756 151.333074 
" style="fill:none;stroke:#999999;"/>
    <path clip-path="url(#p219e5bff88)" d="M 578.860923 108.729769 
L 575.721964 108.049014 
" style="fill:none;stroke:#999999;"/>
    <path clip-path="url(#p219e5bff88)" d="M 578.860923 108.729769 
L 581.325518 107.917641 
L 589.142177 106.787827 
" style="fill:none;stroke:#999999;"/>
    <path clip-path="url(#p219e5bff88)" d="M 578.860923 108.729769 
L 574.790522 124.707203 
L 571.301341 137.985504 
" style="fill:none;stroke:#999999;"/>
    <path clip-path="url(#p219e5bff88)" d="M 578.860923 108.729769 
L 580.837442 101.530489 
L 582.843768 94.261939 
L 583.048685 93.488028 
L 583.408222 92.131296 
L 584.39555 88.414614 
" style="fill:none;stroke:#999999;"/>
    <path clip-path="url(#p219e5bff88)" d="M 575.721964 108.049014 
L 578.860923 108.729769 
" style="fill:none;stroke:#999999;"/>
    <path clip-path="url(#p219e5bff88)" d="M 575.721964 108.049014 
L 570.457455 109.24571 
L 564.904199 111.600882 
L 557.499236 117.517477 
L 555.491048 122.872748 
L 555.144551 125.359294 
" style="fill:none;stroke:#999999;"/>
    <path clip-path="url(#p219e5bff88)" d="M 575.721964 108.049014 
L 573.037549 106.510747 
L 568.436226 104.501924 
L 565.962317 103.422271 
L 561.180294 101.915056 
L 560.401609 101.654697 
" style="fill:none;stroke:#999999;"/>
    <path clip-path="url(#p219e5bff88)" d="M 589.142177 106.787827 
L 597.333277 105.311664 
L 598.378354 105.206565 
L 602.815743 104.755117 
L 607.636886 104.19857 
L 611.12793 103.534535 
L 612.409594 103.290897 
L 617.482226 101.926999 
L 624.147624 99.201591 
L 630.131206 95.945911 
L 634.978429 91.249898 
L 637.135648 88.553153 
" style="fill:none;stroke:#999999;"/>
    <path clip-path="url(#p219e5bff88)" d="M 589.142177 106.787827 
L 581.325518 107.917641 
L 578.860923 108.729769 
" style="fill:none;stroke:#999999;"/>
    <path clip-path="url(#p219e5bff88)" d="M 589.142177 106.787827 
L 589.647019 102.973211 
L 589.818404 101.678583 
L 590.081071 94.706221 
L 590.146272 93.007917 
L 590.297165 89.009378 
" style="fill:none;stroke:#999999;"/>
    <path clip-path="url(#p219e5bff88)" d="M 565.772302 157.877875 
L 556.811832 151.813186 
" style="fill:none;stroke:#999999;"/>
    <path clip-path="url(#p219e5bff88)" d="M 565.772302 157.877875 
L 568.063649 159.631117 
" style="fill:none;stroke:#999999;"/>
    <path clip-path="url(#p219e5bff88)" d="M 565.772302 157.877875 
L 571.301341 137.985504 
" style="fill:none;stroke:#999999;"/>
    <path clip-path="url(#p219e5bff88)" d="M 571.301341 137.985504 
L 565.772302 157.877875 
" style="fill:none;stroke:#999999;"/>
    <path clip-path="url(#p219e5bff88)" d="M 571.301341 137.985504 
L 562.111736 132.035468 
" style="fill:none;stroke:#999999;"/>
    <path clip-path="url(#p219e5bff88)" d="M 571.301341 137.985504 
L 574.790522 124.707203 
L 578.860923 108.729769 
" style="fill:none;stroke:#999999;"/>
    <path clip-path="url(#p219e5bff88)" d="M 571.301341 137.985504 
L 589.542697 149.902295 
L 598.570231 155.995647 
L 603.106353 159.241773 
L 611.563845 162.473566 
L 630.773901 169.825718 
L 663.678014 182.294279 
L 687.170839 191.676752 
L 688.655557 192.732519 
L 691.353013 194.45232 
L 692.291906 196.48503 
L 692.942053 197.989856 
L 693.722601 198.536849 
L 694.909258 198.20722 
L 697.809768 195.567803 
L 700.645076 193.129028 
L 703.085454 192.338397 
L 705.523969 192.997655 
L 708.821273 195.305055 
L 711.392052 197.942084 
L 713.105905 201.040115 
L 714.227361 203.94228 
L 714.622292 205.392169 
" style="fill:none;stroke:#999999;"/>
    <path clip-path="url(#p219e5bff88)" d="M 562.111736 132.035468 
L 556.811832 151.813186 
" style="fill:none;stroke:#999999;"/>
    <path clip-path="url(#p219e5bff88)" d="M 562.111736 132.035468 
L 555.543208 128.182635 
" style="fill:none;stroke:#999999;"/>
    <path clip-path="url(#p219e5bff88)" d="M 562.111736 132.035468 
L 571.301341 137.985504 
" style="fill:none;stroke:#999999;"/>
    <path clip-path="url(#p219e5bff88)" d="M 555.543208 128.182635 
L 541.711298 145.550242 
" style="fill:none;stroke:#999999;"/>
    <path clip-path="url(#p219e5bff88)" d="M 555.543208 128.182635 
L 562.111736 132.035468 
" style="fill:none;stroke:#999999;"/>
    <path clip-path="url(#p219e5bff88)" d="M 555.543208 128.182635 
L 555.254462 127.005049 
L 555.144551 125.359294 
" style="fill:none;stroke:#999999;"/>
    <path clip-path="url(#p219e5bff88)" d="M 529.710601 126.816348 
L 532.070875 119.738887 
" style="fill:none;stroke:#999999;"/>
    <path clip-path="url(#p219e5bff88)" d="M 529.710601 126.816348 
L 519.852221 124.860074 
" style="fill:none;stroke:#999999;"/>
    <path clip-path="url(#p219e5bff88)" d="M 529.710601 126.816348 
L 528.069401 131.789441 
L 525.895416 138.737917 
" style="fill:none;stroke:#999999;"/>
    <path clip-path="url(#p219e5bff88)" d="M 555.144551 125.359294 
L 555.491048 122.872748 
L 557.499236 117.517477 
L 564.904199 111.600882 
L 570.457455 109.24571 
L 575.721964 108.049014 
" style="fill:none;stroke:#999999;"/>
    <path clip-path="url(#p219e5bff88)" d="M 555.144551 125.359294 
L 555.254462 127.005049 
L 555.543208 128.182635 
" style="fill:none;stroke:#999999;"/>
    <path clip-path="url(#p219e5bff88)" d="M 555.144551 125.359294 
L 552.871833 124.628379 
L 545.643845 122.942018 
" style="fill:none;stroke:#999999;"/>
    <path clip-path="url(#p219e5bff88)" d="M 545.643845 122.942018 
L 549.280194 117.82322 
L 554.596864 110.084113 
L 558.23135 104.494758 
L 560.401609 101.654697 
" style="fill:none;stroke:#999999;"/>
    <path clip-path="url(#p219e5bff88)" d="M 545.643845 122.942018 
L 552.871833 124.628379 
L 555.144551 125.359294 
" style="fill:none;stroke:#999999;"/>
    <path clip-path="url(#p219e5bff88)" d="M 545.643845 122.942018 
L 541.389019 121.962686 
L 532.070875 119.738887 
" style="fill:none;stroke:#999999;"/>
    <path clip-path="url(#p219e5bff88)" d="M 532.070875 119.738887 
L 529.710601 126.816348 
" style="fill:none;stroke:#999999;"/>
    <path clip-path="url(#p219e5bff88)" d="M 532.070875 119.738887 
L 531.933022 118.128962 
L 531.687121 116.593084 
L 532.614837 111.534001 
" style="fill:none;stroke:#999999;"/>
    <path clip-path="url(#p219e5bff88)" d="M 532.070875 119.738887 
L 541.389019 121.962686 
L 545.643845 122.942018 
" style="fill:none;stroke:#999999;"/>
    <path clip-path="url(#p219e5bff88)" d="M 532.614837 111.534001 
L 531.687121 116.593084 
L 531.933022 118.128962 
L 532.070875 119.738887 
" style="fill:none;stroke:#999999;"/>
    <path clip-path="url(#p219e5bff88)" d="M 532.614837 111.534001 
L 533.604028 107.353928 
L 535.217285 94.868647 
" style="fill:none;stroke:#999999;"/>
    <path clip-path="url(#p219e5bff88)" d="M 532.614837 111.534001 
L 528.963585 112.042776 
L 525.535879 113.25858 
L 522.439767 114.003827 
L 521.16928 117.985645 
L 520.256467 122.858416 
L 519.852221 124.860074 
" style="fill:none;stroke:#999999;"/>
    <path clip-path="url(#p219e5bff88)" d="M 560.401609 101.654697 
L 558.23135 104.494758 
L 554.596864 110.084113 
L 549.280194 117.82322 
L 545.643845 122.942018 
" style="fill:none;stroke:#999999;"/>
    <path clip-path="url(#p219e5bff88)" d="M 560.401609 101.654697 
L 561.180294 101.915056 
L 565.962317 103.422271 
L 568.436226 104.501924 
L 573.037549 106.510747 
L 575.721964 108.049014 
" style="fill:none;stroke:#999999;"/>
    <path clip-path="url(#p219e5bff88)" d="M 560.401609 101.654697 
L 554.296939 99.621987 
L 546.696374 97.436406 
L 535.217285 94.868647 
" style="fill:none;stroke:#999999;"/>
    <path clip-path="url(#p219e5bff88)" d="M 535.217285 94.868647 
L 533.604028 107.353928 
L 532.614837 111.534001 
" style="fill:none;stroke:#999999;"/>
    <path clip-path="url(#p219e5bff88)" d="M 535.217285 94.868647 
L 535.513484 92.585132 
L 537.197531 81.248774 
" style="fill:none;stroke:#999999;"/>
    <path clip-path="url(#p219e5bff88)" d="M 535.217285 94.868647 
L 546.696374 97.436406 
L 554.296939 99.621987 
L 560.401609 101.654697 
" style="fill:none;stroke:#999999;"/>
    <path clip-path="url(#p219e5bff88)" d="M 535.217285 94.868647 
L 533.015357 94.453028 
L 520.113025 91.636853 
" style="fill:none;stroke:#999999;"/>
    <path clip-path="url(#p219e5bff88)" d="M 590.297165 89.009378 
L 584.39555 88.414614 
" style="fill:none;stroke:#999999;"/>
    <path clip-path="url(#p219e5bff88)" d="M 590.297165 89.009378 
L 592.079945 89.188524 
L 596.56018 89.45366 
L 601.48937 89.714019 
L 608.490087 89.594589 
L 637.135648 88.553153 
" style="fill:none;stroke:#999999;"/>
    <path clip-path="url(#p219e5bff88)" d="M 590.297165 89.009378 
L 590.146272 93.007917 
L 590.081071 94.706221 
L 589.818404 101.678583 
L 589.647019 102.973211 
L 589.142177 106.787827 
" style="fill:none;stroke:#999999;"/>
    <path clip-path="url(#p219e5bff88)" d="M 457.061866 219.012041 
L 465.536124 215.030223 
L 468.934023 210.233888 
L 475.23057 199.941353 
L 493.134744 174.571892 
L 497.540464 169.254839 
" style="fill:none;stroke:#999999;"/>
    <path clip-path="url(#p219e5bff88)" d="M 457.061866 219.012041 
L 459.24144 214.631325 
L 465.280909 179.148475 
L 467.492151 165.743578 
L 469.820756 151.333074 
" style="fill:none;stroke:#999999;"/>
    <path clip-path="url(#p219e5bff88)" d="M 457.061866 219.012041 
L 449.047741 221.025642 
L 441.853284 221.725506 
L 433.757192 220.626744 
L 431.169647 220.617189 
L 429.286271 223.294825 
L 419.163362 230.20986 
L 414.470758 235.01575 
L 413.772176 238.61539 
L 411.667118 241.30258 
L 409.968168 242.30102 
L 409.275175 246.208791 
" style="fill:none;stroke:#999999;"/>
    <path clip-path="url(#p219e5bff88)" d="M 409.275175 246.208791 
L 409.673832 271.294007 
L 408.075478 286.972864 
L 404.47825 307.95922 
L 390.286803 345.536883 
L 385.691069 364.727002 
L 382.893018 388.512812 
L 381.292801 393.309148 
L 376.697067 398.707413 
L 369.301419 411.099539 
L 354.910643 423.692308 
" style="fill:none;stroke:#999999;"/>
    <path clip-path="url(#p219e5bff88)" d="M 409.275175 246.208791 
L 409.968168 242.30102 
L 411.667118 241.30258 
L 413.772176 238.61539 
L 414.470758 235.01575 
L 419.163362 230.20986 
L 429.286271 223.294825 
L 431.169647 220.617189 
L 433.757192 220.626744 
L 441.853284 221.725506 
L 449.047741 221.025642 
L 457.061866 219.012041 
" style="fill:none;stroke:#999999;"/>
    <path clip-path="url(#p219e5bff88)" d="M 409.275175 246.208791 
L 402.578109 256.202749 
L 392.386273 266.996892 
L 383.787202 272.882435 
L 377.095724 276.388919 
L 324.230812 263.497574 
L 317.036356 260.800829 
L 296.350896 249.407144 
L 285.257424 245.910215 
L 275.764169 240.712592 
L 268.064871 238.003905 
L 263.072343 238.913967 
L 247.778069 248.39915 
L 239.788161 255.003665 
L 227.396259 260.999084 
L 218.502853 263.996794 
L 195.013753 266.786694 
L 183.726541 269.094095 
L 152.247534 281.48622 
L 145.945399 286.674288 
L 136.951396 296.166637 
L 133.059833 302.572897 
" style="fill:none;stroke:#999999;"/>
    <path clip-path="url(#p219e5bff88)" d="M 133.059833 302.572897 
L 136.951396 296.166637 
L 145.945399 286.674288 
L 152.247534 281.48622 
L 183.726541 269.094095 
L 195.013753 266.786694 
L 218.502853 263.996794 
L 227.396259 260.999084 
L 239.788161 255.003665 
L 247.778069 248.39915 
L 263.072343 238.913967 
L 268.064871 238.003905 
L 275.764169 240.712592 
L 285.257424 245.910215 
L 296.350896 249.407144 
L 317.036356 260.800829 
L 324.230812 263.497574 
L 377.095724 276.388919 
L 383.787202 272.882435 
L 392.386273 266.996892 
L 402.578109 256.202749 
L 409.275175 246.208791 
" style="fill:none;stroke:#999999;"/>
    <path clip-path="url(#p219e5bff88)" d="M 354.910643 423.692308 
L 369.301419 411.099539 
L 376.697067 398.707413 
L 381.292801 393.309148 
L 382.893018 388.512812 
L 385.691069 364.727002 
L 390.286803 345.536883 
L 404.47825 307.95922 
L 408.075478 286.972864 
L 409.673832 271.294007 
L 409.275175 246.208791 
" style="fill:none;stroke:#999999;"/>
    <path clip-path="url(#p219e5bff88)" d="M 509.123874 131.041805 
L 503.365701 129.579974 
" style="fill:none;stroke:#999999;"/>
    <path clip-path="url(#p219e5bff88)" d="M 509.123874 131.041805 
L 515.360809 134.648611 
" style="fill:none;stroke:#999999;"/>
    <path clip-path="url(#p219e5bff88)" d="M 509.123874 131.041805 
L 507.866428 136.229873 
L 504.002807 151.337852 
" style="fill:none;stroke:#999999;"/>
    <path clip-path="url(#p219e5bff88)" d="M 510.981169 86.952782 
L 501.663026 84.404132 
" style="fill:none;stroke:#999999;"/>
    <path clip-path="url(#p219e5bff88)" d="M 510.981169 86.952782 
L 509.192801 93.488028 
" style="fill:none;stroke:#999999;"/>
    <path clip-path="url(#p219e5bff88)" d="M 510.981169 86.952782 
L 512.132432 87.268079 
L 515.202464 74.964333 
" style="fill:none;stroke:#999999;"/>
    <path clip-path="url(#p219e5bff88)" d="M 509.192801 93.488028 
L 510.981169 86.952782 
" style="fill:none;stroke:#999999;"/>
    <path clip-path="url(#p219e5bff88)" d="M 637.135648 88.553153 
L 931.016716 81.036187 
" style="fill:none;stroke:#999999;"/>
    <path clip-path="url(#p219e5bff88)" d="M 637.135648 88.553153 
L 608.490087 89.594589 
L 601.48937 89.714019 
L 596.56018 89.45366 
L 592.079945 89.188524 
L 590.297165 89.009378 
" style="fill:none;stroke:#999999;"/>
    <path clip-path="url(#p219e5bff88)" d="M 637.135648 88.553153 
L 634.978429 91.249898 
L 630.131206 95.945911 
L 624.147624 99.201591 
L 617.482226 101.926999 
L 612.409594 103.290897 
L 611.12793 103.534535 
L 607.636886 104.19857 
L 602.815743 104.755117 
L 598.378354 105.206565 
L 597.333277 105.311664 
L 589.142177 106.787827 
" style="fill:none;stroke:#999999;"/>
    <path clip-path="url(#p219e5bff88)" d="M 469.51338 96.552619 
L 481.273764 63.13592 
" style="fill:none;stroke:#999999;"/>
    <path clip-path="url(#p219e5bff88)" d="M 469.51338 96.552619 
L 463.95081 89.398722 
" style="fill:none;stroke:#999999;"/>
    <path clip-path="url(#p219e5bff88)" d="M 469.51338 96.552619 
L 471.998467 99.829796 
L 474.949274 103.723236 
" style="fill:none;stroke:#999999;"/>
    <path clip-path="url(#p219e5bff88)" d="M 469.51338 96.552619 
L 467.656085 99.165762 
L 466.398639 102.23513 
" style="fill:none;stroke:#999999;"/>
    <path clip-path="url(#p219e5bff88)" d="M 466.398639 102.23513 
L 467.318903 102.588645 
" style="fill:none;stroke:#999999;"/>
    <path clip-path="url(#p219e5bff88)" d="M 466.398639 102.23513 
L 467.656085 99.165762 
L 469.51338 96.552619 
" style="fill:none;stroke:#999999;"/>
    <path clip-path="url(#p219e5bff88)" d="M 466.398639 102.23513 
L 445.664744 99.700811 
L 446.320479 94.082793 
L 459.662452 95.726159 
L 461.121089 95.578065 
L 462.337552 94.285825 
L 463.95081 89.398722 
" style="fill:none;stroke:#999999;"/>
    <path clip-path="url(#p219e5bff88)" d="M 469.392293 121.473021 
L 468.460851 121.826535 
" style="fill:none;stroke:#999999;"/>
    <path clip-path="url(#p219e5bff88)" d="M 469.392293 121.473021 
L 470.955252 120.883033 
L 478.503656 123.589332 
L 484.30095 125.801188 
L 491.458149 127.616534 
L 496.687263 128.509875 
" style="fill:none;stroke:#999999;"/>
    <path clip-path="url(#p219e5bff88)" d="M 469.392293 121.473021 
L 471.344595 115.207688 
L 474.392272 105.591131 
" style="fill:none;stroke:#999999;"/>
    <path clip-path="url(#p219e5bff88)" d="M 605.92117 30.918305 
L 606.353359 23.470609 
" style="fill:none;stroke:#999999;"/>
    <path clip-path="url(#p219e5bff88)" d="M 605.92117 30.918305 
L 605.207686 30.915916 
" style="fill:none;stroke:#999999;"/>
    <path clip-path="url(#p219e5bff88)" d="M 605.92117 30.918305 
L 618.091389 31.052067 
L 618.585053 23.568542 
" style="fill:none;stroke:#999999;"/>
    <path clip-path="url(#p219e5bff88)" d="M 577.445131 30.958911 
L 592.944323 30.889642 
" style="fill:none;stroke:#999999;"/>
    <path clip-path="url(#p219e5bff88)" d="M 714.622292 205.392169 
L 714.227361 203.94228 
L 713.105905 201.040115 
L 711.392052 197.942084 
L 708.821273 195.305055 
L 705.523969 192.997655 
L 703.085454 192.338397 
L 700.645076 193.129028 
L 697.809768 195.567803 
L 694.909258 198.20722 
L 693.722601 198.536849 
L 692.942053 197.989856 
L 692.291906 196.48503 
L 691.353013 194.45232 
L 688.655557 192.732519 
L 687.170839 191.676752 
L 663.678014 182.294279 
L 630.773901 169.825718 
L 611.563845 162.473566 
L 603.106353 159.241773 
L 598.570231 155.995647 
L 589.542697 149.902295 
L 571.301341 137.985504 
" style="fill:none;stroke:#999999;"/>
   </g>
  </g>
 </g>
 <defs>
  <clipPath id="p219e5bff88">
   <rect height="432" width="829.875159" x="117.100695" y="0"/>
  </clipPath>
 </defs>
</svg>
