<?xml version="1.0" encoding="utf-8" standalone="no"?>
<!DOCTYPE svg PUBLIC "-//W3C//DTD SVG 1.1//EN"
  "http://www.w3.org/Graphics/SVG/1.1/DTD/svg11.dtd">
<!-- Created with matplotlib (http://matplotlib.org/) -->
<svg height="432pt" version="1.1" viewBox="0 0 695.694268 432" width="695.694268pt" xmlns="http://www.w3.org/2000/svg" xmlns:xlink="http://www.w3.org/1999/xlink">
 <defs>
  <style type="text/css">
*{stroke-linecap:butt;stroke-linejoin:round;}
  </style>
 </defs>
 <g id="figure_1">
  <g id="patch_1">
   <path d="M 0 432 
L 695.694268 432 
L 695.694268 0 
L 0 0 
z
" style="fill:none;opacity:0;"/>
  </g>
  <g id="axes_1">
   <g id="PathCollection_1">
    <defs>
     <path d="M 0 1.936492 
C 0.513564 1.936492 1.006162 1.732451 1.369306 1.369306 
C 1.732451 1.006162 1.936492 0.513564 1.936492 0 
C 1.936492 -0.513564 1.732451 -1.006162 1.369306 -1.369306 
C 1.006162 -1.732451 0.513564 -1.936492 0 -1.936492 
C -0.513564 -1.936492 -1.006162 -1.732451 -1.369306 -1.369306 
C -1.732451 -1.006162 -1.936492 -0.513564 -1.936492 0 
C -1.936492 0.513564 -1.732451 1.006162 -1.369306 1.369306 
C -1.006162 1.732451 -0.513564 1.936492 0 1.936492 
z
" id="C0_0_273b7c93bc"/>
    </defs>
    <g clip-path="url(#p6e05cc5cbb)">
     <use style="fill:#66ccff;" x="563.034475" xlink:href="#C0_0_273b7c93bc" y="179.005148"/>
    </g>
    <g clip-path="url(#p6e05cc5cbb)">
     <use style="fill:#66ccff;" x="553.63244" xlink:href="#C0_0_273b7c93bc" y="166.421553"/>
    </g>
    <g clip-path="url(#p6e05cc5cbb)">
     <use style="fill:#66ccff;" x="550.56494" xlink:href="#C0_0_273b7c93bc" y="166.988502"/>
    </g>
    <g clip-path="url(#p6e05cc5cbb)">
     <use style="fill:#66ccff;" x="547.814614" xlink:href="#C0_0_273b7c93bc" y="170.985779"/>
    </g>
    <g clip-path="url(#p6e05cc5cbb)">
     <use style="fill:#66ccff;" x="554.494615" xlink:href="#C0_0_273b7c93bc" y="176.622817"/>
    </g>
    <g clip-path="url(#p6e05cc5cbb)">
     <use style="fill:#66ccff;" x="558.007349" xlink:href="#C0_0_273b7c93bc" y="173.129495"/>
    </g>
    <g clip-path="url(#p6e05cc5cbb)">
     <use style="fill:#66ccff;" x="557.484683" xlink:href="#C0_0_273b7c93bc" y="168.918419"/>
    </g>
    <g clip-path="url(#p6e05cc5cbb)">
     <use style="fill:#66ccff;" x="544.410582" xlink:href="#C0_0_273b7c93bc" y="164.905871"/>
    </g>
    <g clip-path="url(#p6e05cc5cbb)">
     <use style="fill:#66ccff;" x="559.207546" xlink:href="#C0_0_273b7c93bc" y="163.539085"/>
    </g>
    <g clip-path="url(#p6e05cc5cbb)">
     <use style="fill:#66ccff;" x="597.883357" xlink:href="#C0_0_273b7c93bc" y="136.884848"/>
    </g>
    <g clip-path="url(#p6e05cc5cbb)">
     <use style="fill:#66ccff;" x="545.886258" xlink:href="#C0_0_273b7c93bc" y="180.726993"/>
    </g>
    <g clip-path="url(#p6e05cc5cbb)">
     <use style="fill:#66ccff;" x="235.558029" xlink:href="#C0_0_273b7c93bc" y="56.233015"/>
    </g>
    <g clip-path="url(#p6e05cc5cbb)">
     <use style="fill:#66ccff;" x="350.237848" xlink:href="#C0_0_273b7c93bc" y="140.759953"/>
    </g>
    <g clip-path="url(#p6e05cc5cbb)">
     <use style="fill:#66ccff;" x="324.201327" xlink:href="#C0_0_273b7c93bc" y="149.850226"/>
    </g>
    <g clip-path="url(#p6e05cc5cbb)">
     <use style="fill:#66ccff;" x="356.682575" xlink:href="#C0_0_273b7c93bc" y="36.616963"/>
    </g>
    <g clip-path="url(#p6e05cc5cbb)">
     <use style="fill:#66ccff;" x="377.770892" xlink:href="#C0_0_273b7c93bc" y="20.007458"/>
    </g>
    <g clip-path="url(#p6e05cc5cbb)">
     <use style="fill:#66ccff;" x="287.653407" xlink:href="#C0_0_273b7c93bc" y="214.518679"/>
    </g>
    <g clip-path="url(#p6e05cc5cbb)">
     <use style="fill:#66ccff;" x="344.318765" xlink:href="#C0_0_273b7c93bc" y="49.985123"/>
    </g>
    <g clip-path="url(#p6e05cc5cbb)">
     <use style="fill:#66ccff;" x="365.587259" xlink:href="#C0_0_273b7c93bc" y="141.96639"/>
    </g>
    <g clip-path="url(#p6e05cc5cbb)">
     <use style="fill:#66ccff;" x="366.32882" xlink:href="#C0_0_273b7c93bc" y="75.778438"/>
    </g>
    <g clip-path="url(#p6e05cc5cbb)">
     <use style="fill:#66ccff;" x="334.927152" xlink:href="#C0_0_273b7c93bc" y="80.350299"/>
    </g>
    <g clip-path="url(#p6e05cc5cbb)">
     <use style="fill:#66ccff;" x="299.625591" xlink:href="#C0_0_273b7c93bc" y="188.188958"/>
    </g>
    <g clip-path="url(#p6e05cc5cbb)">
     <use style="fill:#66ccff;" x="295.098795" xlink:href="#C0_0_273b7c93bc" y="197.451033"/>
    </g>
    <g clip-path="url(#p6e05cc5cbb)">
     <use style="fill:#66ccff;" x="608.753623" xlink:href="#C0_0_273b7c93bc" y="423.692308"/>
    </g>
    <g clip-path="url(#p6e05cc5cbb)">
     <use style="fill:#66ccff;" x="304.183657" xlink:href="#C0_0_273b7c93bc" y="178.856252"/>
    </g>
    <g clip-path="url(#p6e05cc5cbb)">
     <use style="fill:#66ccff;" x="380.804143" xlink:href="#C0_0_273b7c93bc" y="142.615423"/>
    </g>
    <g clip-path="url(#p6e05cc5cbb)">
     <use style="fill:#66ccff;" x="350.800719" xlink:href="#C0_0_273b7c93bc" y="79.720356"/>
    </g>
    <g clip-path="url(#p6e05cc5cbb)">
     <use style="fill:#66ccff;" x="388.194435" xlink:href="#C0_0_273b7c93bc" y="68.096948"/>
    </g>
    <g clip-path="url(#p6e05cc5cbb)">
     <use style="fill:#66ccff;" x="323.797787" xlink:href="#C0_0_273b7c93bc" y="131.243992"/>
    </g>
    <g clip-path="url(#p6e05cc5cbb)">
     <use style="fill:#66ccff;" x="264.16172" xlink:href="#C0_0_273b7c93bc" y="264.152484"/>
    </g>
    <g clip-path="url(#p6e05cc5cbb)">
     <use style="fill:#66ccff;" x="308.933815" xlink:href="#C0_0_273b7c93bc" y="207.942452"/>
    </g>
    <g clip-path="url(#p6e05cc5cbb)">
     <use style="fill:#66ccff;" x="351.850519" xlink:href="#C0_0_273b7c93bc" y="166.02068"/>
    </g>
    <g clip-path="url(#p6e05cc5cbb)">
     <use style="fill:#66ccff;" x="461.256025" xlink:href="#C0_0_273b7c93bc" y="273.48519"/>
    </g>
    <g clip-path="url(#p6e05cc5cbb)">
     <use style="fill:#66ccff;" x="381.377438" xlink:href="#C0_0_273b7c93bc" y="142.665055"/>
    </g>
    <g clip-path="url(#p6e05cc5cbb)">
     <use style="fill:#66ccff;" x="519.688917" xlink:href="#C0_0_273b7c93bc" y="136.201455"/>
    </g>
    <g clip-path="url(#p6e05cc5cbb)">
     <use style="fill:#66ccff;" x="108.11086" xlink:href="#C0_0_273b7c93bc" y="237.63378"/>
    </g>
    <g clip-path="url(#p6e05cc5cbb)">
     <use style="fill:#66ccff;" x="295.10773" xlink:href="#C0_0_273b7c93bc" y="92.139784"/>
    </g>
    <g clip-path="url(#p6e05cc5cbb)">
     <use style="fill:#66ccff;" x="328.606018" xlink:href="#C0_0_273b7c93bc" y="89.291676"/>
    </g>
    <g clip-path="url(#p6e05cc5cbb)">
     <use style="fill:#66ccff;" x="316.313683" xlink:href="#C0_0_273b7c93bc" y="172.793525"/>
    </g>
    <g clip-path="url(#p6e05cc5cbb)">
     <use style="fill:#66ccff;" x="133.837653" xlink:href="#C0_0_273b7c93bc" y="255.890683"/>
    </g>
    <g clip-path="url(#p6e05cc5cbb)">
     <use style="fill:#66ccff;" x="314.84992" xlink:href="#C0_0_273b7c93bc" y="203.21406"/>
    </g>
    <g clip-path="url(#p6e05cc5cbb)">
     <use style="fill:#66ccff;" x="408.079576" xlink:href="#C0_0_273b7c93bc" y="61.474907"/>
    </g>
    <g clip-path="url(#p6e05cc5cbb)">
     <use style="fill:#66ccff;" x="319.065498" xlink:href="#C0_0_273b7c93bc" y="87.701547"/>
    </g>
    <g clip-path="url(#p6e05cc5cbb)">
     <use style="fill:#66ccff;" x="297.085225" xlink:href="#C0_0_273b7c93bc" y="193.020432"/>
    </g>
    <g clip-path="url(#p6e05cc5cbb)">
     <use style="fill:#66ccff;" x="302.766055" xlink:href="#C0_0_273b7c93bc" y="26.450059"/>
    </g>
    <g clip-path="url(#p6e05cc5cbb)">
     <use style="fill:#66ccff;" x="507.427852" xlink:href="#C0_0_273b7c93bc" y="136.49161"/>
    </g>
    <g clip-path="url(#p6e05cc5cbb)">
     <use style="fill:#66ccff;" x="278.072682" xlink:href="#C0_0_273b7c93bc" y="107.789103"/>
    </g>
    <g clip-path="url(#p6e05cc5cbb)">
     <use style="fill:#66ccff;" x="370.599494" xlink:href="#C0_0_273b7c93bc" y="156.81969"/>
    </g>
    <g clip-path="url(#p6e05cc5cbb)">
     <use style="fill:#66ccff;" x="361.280847" xlink:href="#C0_0_273b7c93bc" y="151.314367"/>
    </g>
    <g clip-path="url(#p6e05cc5cbb)">
     <use style="fill:#66ccff;" x="107.877075" xlink:href="#C0_0_273b7c93bc" y="245.445077"/>
    </g>
    <g clip-path="url(#p6e05cc5cbb)">
     <use style="fill:#66ccff;" x="86.940644" xlink:href="#C0_0_273b7c93bc" y="242.793589"/>
    </g>
    <g clip-path="url(#p6e05cc5cbb)">
     <use style="fill:#66ccff;" x="114.573456" xlink:href="#C0_0_273b7c93bc" y="234.117551"/>
    </g>
    <g clip-path="url(#p6e05cc5cbb)">
     <use style="fill:#66ccff;" x="112.908668" xlink:href="#C0_0_273b7c93bc" y="238.740953"/>
    </g>
    <g clip-path="url(#p6e05cc5cbb)">
     <use style="fill:#66ccff;" x="322.907318" xlink:href="#C0_0_273b7c93bc" y="133.784763"/>
    </g>
    <g clip-path="url(#p6e05cc5cbb)">
     <use style="fill:#66ccff;" x="309.329909" xlink:href="#C0_0_273b7c93bc" y="127.271531"/>
    </g>
    <g clip-path="url(#p6e05cc5cbb)">
     <use style="fill:#66ccff;" x="295.694426" xlink:href="#C0_0_273b7c93bc" y="113.7812"/>
    </g>
    <g clip-path="url(#p6e05cc5cbb)">
     <use style="fill:#66ccff;" x="285.302154" xlink:href="#C0_0_273b7c93bc" y="101.235783"/>
    </g>
    <g clip-path="url(#p6e05cc5cbb)">
     <use style="fill:#66ccff;" x="293.082584" xlink:href="#C0_0_273b7c93bc" y="126.357159"/>
    </g>
    <g clip-path="url(#p6e05cc5cbb)">
     <use style="fill:#66ccff;" x="278.112888" xlink:href="#C0_0_273b7c93bc" y="73.791253"/>
    </g>
    <g clip-path="url(#p6e05cc5cbb)">
     <use style="fill:#66ccff;" x="290.993408" xlink:href="#C0_0_273b7c93bc" y="74.816343"/>
    </g>
    <g clip-path="url(#p6e05cc5cbb)">
     <use style="fill:#66ccff;" x="289.528156" xlink:href="#C0_0_273b7c93bc" y="39.896486"/>
    </g>
    <g clip-path="url(#p6e05cc5cbb)">
     <use style="fill:#66ccff;" x="291.502673" xlink:href="#C0_0_273b7c93bc" y="89.072151"/>
    </g>
    <g clip-path="url(#p6e05cc5cbb)">
     <use style="fill:#66ccff;" x="328.6358" xlink:href="#C0_0_273b7c93bc" y="13.673664"/>
    </g>
    <g clip-path="url(#p6e05cc5cbb)">
     <use style="fill:#66ccff;" x="341.273601" xlink:href="#C0_0_273b7c93bc" y="21.673944"/>
    </g>
    <g clip-path="url(#p6e05cc5cbb)">
     <use style="fill:#66ccff;" x="395.050148" xlink:href="#C0_0_273b7c93bc" y="8.307692"/>
    </g>
    <g clip-path="url(#p6e05cc5cbb)">
     <use style="fill:#66ccff;" x="359.255701" xlink:href="#C0_0_273b7c93bc" y="46.747596"/>
    </g>
    <g clip-path="url(#p6e05cc5cbb)">
     <use style="fill:#66ccff;" x="385.856583" xlink:href="#C0_0_273b7c93bc" y="38.810311"/>
    </g>
    <g clip-path="url(#p6e05cc5cbb)">
     <use style="fill:#66ccff;" x="327.164591" xlink:href="#C0_0_273b7c93bc" y="166.652532"/>
    </g>
    <g clip-path="url(#p6e05cc5cbb)">
     <use style="fill:#66ccff;" x="316.303259" xlink:href="#C0_0_273b7c93bc" y="162.483453"/>
    </g>
    <g clip-path="url(#p6e05cc5cbb)">
     <use style="fill:#66ccff;" x="336.840617" xlink:href="#C0_0_273b7c93bc" y="160.38746"/>
    </g>
    <g clip-path="url(#p6e05cc5cbb)">
     <use style="fill:#66ccff;" x="340.028732" xlink:href="#C0_0_273b7c93bc" y="157.823781"/>
    </g>
    <g clip-path="url(#p6e05cc5cbb)">
     <use style="fill:#66ccff;" x="345.244971" xlink:href="#C0_0_273b7c93bc" y="160.519175"/>
    </g>
    <g clip-path="url(#p6e05cc5cbb)">
     <use style="fill:#66ccff;" x="315.021164" xlink:href="#C0_0_273b7c93bc" y="191.336765"/>
    </g>
    <g clip-path="url(#p6e05cc5cbb)">
     <use style="fill:#66ccff;" x="359.891538" xlink:href="#C0_0_273b7c93bc" y="171.737893"/>
    </g>
    <g clip-path="url(#p6e05cc5cbb)">
     <use style="fill:#66ccff;" x="430.606341" xlink:href="#C0_0_273b7c93bc" y="168.004047"/>
    </g>
    <g clip-path="url(#p6e05cc5cbb)">
     <use style="fill:#66ccff;" x="434.524104" xlink:href="#C0_0_273b7c93bc" y="145.642968"/>
    </g>
    <g clip-path="url(#p6e05cc5cbb)">
     <use style="fill:#66ccff;" x="406.340334" xlink:href="#C0_0_273b7c93bc" y="129.344617"/>
    </g>
    <g clip-path="url(#p6e05cc5cbb)">
     <use style="fill:#66ccff;" x="383.018401" xlink:href="#C0_0_273b7c93bc" y="127.179903"/>
    </g>
    <g clip-path="url(#p6e05cc5cbb)">
     <use style="fill:#66ccff;" x="366.775543" xlink:href="#C0_0_273b7c93bc" y="113.384145"/>
    </g>
    <g clip-path="url(#p6e05cc5cbb)">
     <use style="fill:#66ccff;" x="384.147122" xlink:href="#C0_0_273b7c93bc" y="113.811742"/>
    </g>
    <g clip-path="url(#p6e05cc5cbb)">
     <use style="fill:#66ccff;" x="426.792814" xlink:href="#C0_0_273b7c93bc" y="113.3746"/>
    </g>
    <g clip-path="url(#p6e05cc5cbb)">
     <use style="fill:#66ccff;" x="427.531396" xlink:href="#C0_0_273b7c93bc" y="121.995279"/>
    </g>
    <g clip-path="url(#p6e05cc5cbb)">
     <use style="fill:#66ccff;" x="443.588119" xlink:href="#C0_0_273b7c93bc" y="88.379213"/>
    </g>
    <g clip-path="url(#p6e05cc5cbb)">
     <use style="fill:#66ccff;" x="412.074771" xlink:href="#C0_0_273b7c93bc" y="113.487226"/>
    </g>
    <g clip-path="url(#p6e05cc5cbb)">
     <use style="fill:#66ccff;" x="410.356376" xlink:href="#C0_0_273b7c93bc" y="72.752801"/>
    </g>
    <g clip-path="url(#p6e05cc5cbb)">
     <use style="fill:#66ccff;" x="407.281431" xlink:href="#C0_0_273b7c93bc" y="61.768881"/>
    </g>
    <g clip-path="url(#p6e05cc5cbb)">
     <use style="fill:#66ccff;" x="316.764874" xlink:href="#C0_0_273b7c93bc" y="84.906889"/>
    </g>
    <g clip-path="url(#p6e05cc5cbb)">
     <use style="fill:#66ccff;" x="308.461777" xlink:href="#C0_0_273b7c93bc" y="97.965805"/>
    </g>
    <g clip-path="url(#p6e05cc5cbb)">
     <use style="fill:#66ccff;" x="305.301955" xlink:href="#C0_0_273b7c93bc" y="99.534936"/>
    </g>
    <g clip-path="url(#p6e05cc5cbb)">
     <use style="fill:#66ccff;" x="326.588318" xlink:href="#C0_0_273b7c93bc" y="145.65824"/>
    </g>
    <g clip-path="url(#p6e05cc5cbb)">
     <use style="fill:#66ccff;" x="319.8696" xlink:href="#C0_0_273b7c93bc" y="142.153464"/>
    </g>
    <g clip-path="url(#p6e05cc5cbb)">
     <use style="fill:#66ccff;" x="304.664629" xlink:href="#C0_0_273b7c93bc" y="154.819143"/>
    </g>
    <g clip-path="url(#p6e05cc5cbb)">
     <use style="fill:#66ccff;" x="313.683972" xlink:href="#C0_0_273b7c93bc" y="157.835235"/>
    </g>
    <g clip-path="url(#p6e05cc5cbb)">
     <use style="fill:#66ccff;" x="313.264052" xlink:href="#C0_0_273b7c93bc" y="158.799239"/>
    </g>
    <g clip-path="url(#p6e05cc5cbb)">
     <use style="fill:#66ccff;" x="317.037375" xlink:href="#C0_0_273b7c93bc" y="160.639437"/>
    </g>
    <g clip-path="url(#p6e05cc5cbb)">
     <use style="fill:#66ccff;" x="344.586798" xlink:href="#C0_0_273b7c93bc" y="50.912858"/>
    </g>
    <g clip-path="url(#p6e05cc5cbb)">
     <use style="fill:#66ccff;" x="335.409614" xlink:href="#C0_0_273b7c93bc" y="52.067754"/>
    </g>
    <g clip-path="url(#p6e05cc5cbb)">
     <use style="fill:#66ccff;" x="348.383946" xlink:href="#C0_0_273b7c93bc" y="65.529451"/>
    </g>
    <g clip-path="url(#p6e05cc5cbb)">
     <use style="fill:#66ccff;" x="366.791923" xlink:href="#C0_0_273b7c93bc" y="100.521848"/>
    </g>
    <g clip-path="url(#p6e05cc5cbb)">
     <use style="fill:#66ccff;" x="354.69019" xlink:href="#C0_0_273b7c93bc" y="99.874724"/>
    </g>
    <g clip-path="url(#p6e05cc5cbb)">
     <use style="fill:#66ccff;" x="354.795914" xlink:href="#C0_0_273b7c93bc" y="101.835184"/>
    </g>
    <g clip-path="url(#p6e05cc5cbb)">
     <use style="fill:#66ccff;" x="335.190719" xlink:href="#C0_0_273b7c93bc" y="106.952996"/>
    </g>
    <g clip-path="url(#p6e05cc5cbb)">
     <use style="fill:#66ccff;" x="352.907764" xlink:href="#C0_0_273b7c93bc" y="88.20741"/>
    </g>
    <g clip-path="url(#p6e05cc5cbb)">
     <use style="fill:#66ccff;" x="346.786166" xlink:href="#C0_0_273b7c93bc" y="147.880222"/>
    </g>
    <g clip-path="url(#p6e05cc5cbb)">
     <use style="fill:#66ccff;" x="337.440715" xlink:href="#C0_0_273b7c93bc" y="147.973759"/>
    </g>
    <g clip-path="url(#p6e05cc5cbb)">
     <use style="fill:#66ccff;" x="338.582838" xlink:href="#C0_0_273b7c93bc" y="144.318179"/>
    </g>
    <g clip-path="url(#p6e05cc5cbb)">
     <use style="fill:#66ccff;" x="330.826233" xlink:href="#C0_0_273b7c93bc" y="137.16355"/>
    </g>
    <g clip-path="url(#p6e05cc5cbb)">
     <use style="fill:#66ccff;" x="334.635293" xlink:href="#C0_0_273b7c93bc" y="138.226818"/>
    </g>
    <g clip-path="url(#p6e05cc5cbb)">
     <use style="fill:#66ccff;" x="335.034366" xlink:href="#C0_0_273b7c93bc" y="135.831124"/>
    </g>
    <g clip-path="url(#p6e05cc5cbb)">
     <use style="fill:#66ccff;" x="399.952191" xlink:href="#C0_0_273b7c93bc" y="72.920786"/>
    </g>
    <g clip-path="url(#p6e05cc5cbb)">
     <use style="fill:#66ccff;" x="326.205625" xlink:href="#C0_0_273b7c93bc" y="121.537138"/>
    </g>
    <g clip-path="url(#p6e05cc5cbb)">
     <use style="fill:#66ccff;" x="317.009082" xlink:href="#C0_0_273b7c93bc" y="121.231711"/>
    </g>
    <g clip-path="url(#p6e05cc5cbb)">
     <use style="fill:#66ccff;" x="313.846282" xlink:href="#C0_0_273b7c93bc" y="120.859472"/>
    </g>
    <g clip-path="url(#p6e05cc5cbb)">
     <use style="fill:#66ccff;" x="332.09046" xlink:href="#C0_0_273b7c93bc" y="135.514244"/>
    </g>
    <g clip-path="url(#p6e05cc5cbb)">
     <use style="fill:#66ccff;" x="308.86085" xlink:href="#C0_0_273b7c93bc" y="130.390705"/>
    </g>
    <g clip-path="url(#p6e05cc5cbb)">
     <use style="fill:#66ccff;" x="309.032094" xlink:href="#C0_0_273b7c93bc" y="128.957107"/>
    </g>
    <g clip-path="url(#p6e05cc5cbb)">
     <use style="fill:#66ccff;" x="316.370268" xlink:href="#C0_0_273b7c93bc" y="106.548305"/>
    </g>
    <g clip-path="url(#p6e05cc5cbb)">
     <use style="fill:#66ccff;" x="315.791017" xlink:href="#C0_0_273b7c93bc" y="107.817736"/>
    </g>
    <g clip-path="url(#p6e05cc5cbb)">
     <use style="fill:#66ccff;" x="319.863644" xlink:href="#C0_0_273b7c93bc" y="90.702368"/>
    </g>
    <g clip-path="url(#p6e05cc5cbb)">
     <use style="fill:#66ccff;" x="319.533069" xlink:href="#C0_0_273b7c93bc" y="92.689552"/>
    </g>
    <g clip-path="url(#p6e05cc5cbb)">
     <use style="fill:#66ccff;" x="334.945021" xlink:href="#C0_0_273b7c93bc" y="79.989514"/>
    </g>
    <g clip-path="url(#p6e05cc5cbb)">
     <use style="fill:#66ccff;" x="335.22199" xlink:href="#C0_0_273b7c93bc" y="75.509281"/>
    </g>
    <g clip-path="url(#p6e05cc5cbb)">
     <use style="fill:#66ccff;" x="548.524904" xlink:href="#C0_0_273b7c93bc" y="174.309207"/>
    </g>
    <g clip-path="url(#p6e05cc5cbb)">
     <use style="fill:#66ccff;" x="552.205903" xlink:href="#C0_0_273b7c93bc" y="176.714445"/>
    </g>
    <g clip-path="url(#p6e05cc5cbb)">
     <use style="fill:#66ccff;" x="519.744013" xlink:href="#C0_0_273b7c93bc" y="146.049568"/>
    </g>
    <g clip-path="url(#p6e05cc5cbb)">
     <use style="fill:#66ccff;" x="498.90884" xlink:href="#C0_0_273b7c93bc" y="137.386893"/>
    </g>
    <g clip-path="url(#p6e05cc5cbb)">
     <use style="fill:#66ccff;" x="512.027613" xlink:href="#C0_0_273b7c93bc" y="140.061289"/>
    </g>
    <g clip-path="url(#p6e05cc5cbb)">
     <use style="fill:#66ccff;" x="514.569468" xlink:href="#C0_0_273b7c93bc" y="136.321717"/>
    </g>
    <g clip-path="url(#p6e05cc5cbb)">
     <use style="fill:#66ccff;" x="502.801288" xlink:href="#C0_0_273b7c93bc" y="133.005924"/>
    </g>
    <g clip-path="url(#p6e05cc5cbb)">
     <use style="fill:#66ccff;" x="496.127243" xlink:href="#C0_0_273b7c93bc" y="127.975922"/>
    </g>
    <g clip-path="url(#p6e05cc5cbb)">
     <use style="fill:#66ccff;" x="496.917943" xlink:href="#C0_0_273b7c93bc" y="137.598783"/>
    </g>
    <g clip-path="url(#p6e05cc5cbb)">
     <use style="fill:#66ccff;" x="334.246644" xlink:href="#C0_0_273b7c93bc" y="85.773539"/>
    </g>
    <g clip-path="url(#p6e05cc5cbb)">
     <use style="fill:#66ccff;" x="333.645057" xlink:href="#C0_0_273b7c93bc" y="90.396941"/>
    </g>
   </g>
   <g id="LineCollection_1">
    <path clip-path="url(#p6e05cc5cbb)" d="M 563.034475 179.005148 
L 560.872335 176.708718 
L 559.122668 174.643268 
L 558.007349 173.129495 
" style="fill:none;stroke:#999999;"/>
    <path clip-path="url(#p6e05cc5cbb)" d="M 553.63244 166.421553 
L 552.055506 166.471185 
L 550.56494 166.988502 
" style="fill:none;stroke:#999999;"/>
    <path clip-path="url(#p6e05cc5cbb)" d="M 550.56494 166.988502 
L 549.296246 167.92769 
L 548.300053 169.332655 
L 547.814614 170.985779 
" style="fill:none;stroke:#999999;"/>
    <path clip-path="url(#p6e05cc5cbb)" d="M 550.56494 166.988502 
L 547.936718 166.541815 
L 546.565277 165.978684 
L 544.410582 164.905871 
" style="fill:none;stroke:#999999;"/>
    <path clip-path="url(#p6e05cc5cbb)" d="M 547.814614 170.985779 
L 547.892046 172.705715 
L 548.524904 174.309207 
" style="fill:none;stroke:#999999;"/>
    <path clip-path="url(#p6e05cc5cbb)" d="M 554.494615 176.622817 
L 556.034322 175.872611 
L 557.24792 174.664266 
L 558.007349 173.129495 
" style="fill:none;stroke:#999999;"/>
    <path clip-path="url(#p6e05cc5cbb)" d="M 554.494615 176.622817 
L 556.808642 176.357477 
L 559.486003 176.983602 
L 563.034475 179.005148 
" style="fill:none;stroke:#999999;"/>
    <path clip-path="url(#p6e05cc5cbb)" d="M 558.007349 173.129495 
L 558.2322 171.695896 
L 558.053511 170.254663 
L 557.484683 168.918419 
" style="fill:none;stroke:#999999;"/>
    <path clip-path="url(#p6e05cc5cbb)" d="M 557.484683 168.918419 
L 557.783988 167.377921 
L 558.373662 165.709526 
L 559.207546 163.539085 
" style="fill:none;stroke:#999999;"/>
    <path clip-path="url(#p6e05cc5cbb)" d="M 557.484683 168.918419 
L 556.476578 167.704347 
L 555.152788 166.845333 
L 553.63244 166.421553 
" style="fill:none;stroke:#999999;"/>
    <path clip-path="url(#p6e05cc5cbb)" d="M 544.410582 164.905871 
L 545.820739 166.413917 
L 547.315773 168.674078 
L 547.814614 170.985779 
" style="fill:none;stroke:#999999;"/>
    <path clip-path="url(#p6e05cc5cbb)" d="M 544.410582 164.905871 
L 531.652166 155.288737 
L 519.744013 146.049568 
" style="fill:none;stroke:#999999;"/>
    <path clip-path="url(#p6e05cc5cbb)" d="M 559.207546 163.539085 
L 562.666673 159.066488 
L 567.550847 153.797871 
L 571.511794 150.361817 
L 576.008808 147.135743 
L 580.937655 144.176919 
L 589.11269 140.263634 
L 597.883357 136.884848 
" style="fill:none;stroke:#999999;"/>
    <path clip-path="url(#p6e05cc5cbb)" d="M 559.207546 163.539085 
L 557.920983 164.779883 
L 555.800536 165.997773 
L 553.63244 166.421553 
" style="fill:none;stroke:#999999;"/>
    <path clip-path="url(#p6e05cc5cbb)" d="M 597.883357 136.884848 
L 570.298195 138.366169 
L 519.688917 136.201455 
" style="fill:none;stroke:#999999;"/>
    <path clip-path="url(#p6e05cc5cbb)" d="M 597.883357 136.884848 
L 589.11269 140.263634 
L 580.937655 144.176919 
L 576.008808 147.135743 
L 571.511794 150.361817 
L 567.550847 153.797871 
L 562.666673 159.066488 
L 559.207546 163.539085 
" style="fill:none;stroke:#999999;"/>
    <path clip-path="url(#p6e05cc5cbb)" d="M 545.886258 180.726993 
L 505.523322 233.386435 
L 487.128747 255.092754 
L 461.256025 273.48519 
" style="fill:none;stroke:#999999;"/>
    <path clip-path="url(#p6e05cc5cbb)" d="M 545.886258 180.726993 
L 547.880133 178.659633 
L 550.000579 177.373022 
L 552.205903 176.714445 
" style="fill:none;stroke:#999999;"/>
    <path clip-path="url(#p6e05cc5cbb)" d="M 235.558029 56.233015 
L 246.87353 64.143576 
L 253.053201 69.085768 
L 257.194326 72.495097 
L 260.238001 74.948058 
L 263.053846 76.335843 
L 272.647973 80.449563 
L 280.973405 83.984881 
L 291.502673 89.072151 
" style="fill:none;stroke:#999999;"/>
    <path clip-path="url(#p6e05cc5cbb)" d="M 350.237848 140.759953 
L 365.587259 141.96639 
" style="fill:none;stroke:#999999;"/>
    <path clip-path="url(#p6e05cc5cbb)" d="M 350.237848 140.759953 
L 348.750259 144.537704 
L 348.21717 145.444441 
L 346.786166 147.880222 
" style="fill:none;stroke:#999999;"/>
    <path clip-path="url(#p6e05cc5cbb)" d="M 350.237848 140.759953 
L 350.818588 138.362351 
L 351.482717 132.935294 
L 352.431259 126.687402 
L 352.953925 123.216987 
L 353.491482 119.654944 
L 354.288139 110.894914 
L 354.617225 106.422317 
L 354.795914 101.835184 
" style="fill:none;stroke:#999999;"/>
    <path clip-path="url(#p6e05cc5cbb)" d="M 324.201327 149.850226 
L 326.588318 145.65824 
" style="fill:none;stroke:#999999;"/>
    <path clip-path="url(#p6e05cc5cbb)" d="M 324.201327 149.850226 
L 326.554069 151.428902 
L 328.988711 153.41036 
L 336.840617 160.38746 
" style="fill:none;stroke:#999999;"/>
    <path clip-path="url(#p6e05cc5cbb)" d="M 324.201327 149.850226 
L 321.620755 154.475537 
L 320.7422 154.800053 
L 319.844286 155.120752 
L 319.151865 155.712517 
L 317.037375 160.639437 
" style="fill:none;stroke:#999999;"/>
    <path clip-path="url(#p6e05cc5cbb)" d="M 356.682575 36.616963 
L 359.255701 46.747596 
" style="fill:none;stroke:#999999;"/>
    <path clip-path="url(#p6e05cc5cbb)" d="M 356.682575 36.616963 
L 369.497577 26.675312 
L 377.770892 20.007458 
" style="fill:none;stroke:#999999;"/>
    <path clip-path="url(#p6e05cc5cbb)" d="M 356.682575 36.616963 
L 354.332811 38.768314 
L 351.607799 41.6546 
L 345.870383 48.341544 
L 344.318765 49.985123 
" style="fill:none;stroke:#999999;"/>
    <path clip-path="url(#p6e05cc5cbb)" d="M 377.770892 20.007458 
L 385.856583 38.810311 
" style="fill:none;stroke:#999999;"/>
    <path clip-path="url(#p6e05cc5cbb)" d="M 377.770892 20.007458 
L 389.416967 11.734202 
L 395.050148 8.307692 
" style="fill:none;stroke:#999999;"/>
    <path clip-path="url(#p6e05cc5cbb)" d="M 377.770892 20.007458 
L 369.497577 26.675312 
L 356.682575 36.616963 
" style="fill:none;stroke:#999999;"/>
    <path clip-path="url(#p6e05cc5cbb)" d="M 287.653407 214.518679 
L 291.093177 206.512672 
L 295.098795 197.451033 
" style="fill:none;stroke:#999999;"/>
    <path clip-path="url(#p6e05cc5cbb)" d="M 287.653407 214.518679 
L 280.108251 232.787035 
L 275.262793 243.912215 
L 272.256346 251.210013 
L 270.430736 255.11757 
L 268.323692 258.545989 
L 264.16172 264.152484 
" style="fill:none;stroke:#999999;"/>
    <path clip-path="url(#p6e05cc5cbb)" d="M 287.653407 214.518679 
L 282.481841 214.289608 
L 279.652594 214.953912 
L 277.621492 215.881647 
L 274.667162 218.838563 
L 272.4261 221.329702 
L 269.903603 223.8762 
L 266.786964 226.87893 
L 263.598849 229.326164 
L 255.922654 233.518151 
L 238.542141 239.882487 
L 227.269824 240.584969 
L 218.210276 238.313355 
L 198.395121 232.880572 
L 167.714167 221.373607 
L 134.477956 225.848114 
L 114.573456 234.117551 
" style="fill:none;stroke:#999999;"/>
    <path clip-path="url(#p6e05cc5cbb)" d="M 344.318765 49.985123 
L 344.586798 50.912858 
" style="fill:none;stroke:#999999;"/>
    <path clip-path="url(#p6e05cc5cbb)" d="M 344.318765 49.985123 
L 343.64868 48.887495 
L 343.236205 47.495893 
L 341.273601 21.673944 
" style="fill:none;stroke:#999999;"/>
    <path clip-path="url(#p6e05cc5cbb)" d="M 344.318765 49.985123 
L 345.870383 48.341544 
L 351.607799 41.6546 
L 354.332811 38.768314 
L 356.682575 36.616963 
" style="fill:none;stroke:#999999;"/>
    <path clip-path="url(#p6e05cc5cbb)" d="M 365.587259 141.96639 
L 380.804143 142.615423 
" style="fill:none;stroke:#999999;"/>
    <path clip-path="url(#p6e05cc5cbb)" d="M 365.587259 141.96639 
L 350.237848 140.759953 
" style="fill:none;stroke:#999999;"/>
    <path clip-path="url(#p6e05cc5cbb)" d="M 365.587259 141.96639 
L 365.95655 140.27127 
L 366.775543 113.384145 
" style="fill:none;stroke:#999999;"/>
    <path clip-path="url(#p6e05cc5cbb)" d="M 366.32882 75.778438 
L 388.194435 68.096948 
" style="fill:none;stroke:#999999;"/>
    <path clip-path="url(#p6e05cc5cbb)" d="M 366.32882 75.778438 
L 356.334131 78.624637 
L 350.800719 79.720356 
" style="fill:none;stroke:#999999;"/>
    <path clip-path="url(#p6e05cc5cbb)" d="M 366.32882 75.778438 
L 364.159234 66.871422 
L 363.920981 65.897873 
L 359.255701 46.747596 
" style="fill:none;stroke:#999999;"/>
    <path clip-path="url(#p6e05cc5cbb)" d="M 366.32882 75.778438 
L 366.797879 77.759896 
L 367.080804 79.544736 
L 366.884246 90.200322 
L 366.791923 100.521848 
" style="fill:none;stroke:#999999;"/>
    <path clip-path="url(#p6e05cc5cbb)" d="M 334.927152 80.350299 
L 334.945021 79.989514 
" style="fill:none;stroke:#999999;"/>
    <path clip-path="url(#p6e05cc5cbb)" d="M 334.927152 80.350299 
L 334.246644 85.773539 
" style="fill:none;stroke:#999999;"/>
    <path clip-path="url(#p6e05cc5cbb)" d="M 334.927152 80.350299 
L 330.724976 80.697723 
L 328.336495 81.253218 
L 325.965884 82.642911 
L 322.810528 84.601462 
L 319.065498 87.701547 
" style="fill:none;stroke:#999999;"/>
    <path clip-path="url(#p6e05cc5cbb)" d="M 299.625591 188.188958 
L 301.174232 184.646004 
L 304.183657 178.856252 
" style="fill:none;stroke:#999999;"/>
    <path clip-path="url(#p6e05cc5cbb)" d="M 299.625591 188.188958 
L 298.434329 190.292586 
L 297.085225 193.020432 
" style="fill:none;stroke:#999999;"/>
    <path clip-path="url(#p6e05cc5cbb)" d="M 295.098795 197.451033 
L 291.093177 206.512672 
L 287.653407 214.518679 
" style="fill:none;stroke:#999999;"/>
    <path clip-path="url(#p6e05cc5cbb)" d="M 295.098795 197.451033 
L 307.182659 207.110164 
L 308.933815 207.942452 
" style="fill:none;stroke:#999999;"/>
    <path clip-path="url(#p6e05cc5cbb)" d="M 608.753623 423.692308 
L 605.556574 415.380874 
L 604.597608 407.071349 
L 591.495214 390.76918 
L 577.432366 378.943426 
L 565.288939 368.07595 
L 536.844579 342.824768 
L 525.97878 337.071285 
L 518.627204 332.27799 
L 511.915932 320.771025 
L 499.132201 316.296519 
L 492.897433 308.426045 
L 487.788408 297.056523 
L 482.515585 287.992975 
L 461.256025 273.48519 
" style="fill:none;stroke:#999999;"/>
    <path clip-path="url(#p6e05cc5cbb)" d="M 304.183657 178.856252 
L 301.174232 184.646004 
L 299.625591 188.188958 
" style="fill:none;stroke:#999999;"/>
    <path clip-path="url(#p6e05cc5cbb)" d="M 304.183657 178.856252 
L 306.805923 173.163855 
L 313.264052 158.799239 
" style="fill:none;stroke:#999999;"/>
    <path clip-path="url(#p6e05cc5cbb)" d="M 304.183657 178.856252 
L 313.972853 167.776886 
L 316.303259 162.483453 
" style="fill:none;stroke:#999999;"/>
    <path clip-path="url(#p6e05cc5cbb)" d="M 380.804143 142.615423 
L 365.587259 141.96639 
" style="fill:none;stroke:#999999;"/>
    <path clip-path="url(#p6e05cc5cbb)" d="M 380.804143 142.615423 
L 381.377438 142.665055 
" style="fill:none;stroke:#999999;"/>
    <path clip-path="url(#p6e05cc5cbb)" d="M 380.804143 142.615423 
L 370.599494 156.81969 
" style="fill:none;stroke:#999999;"/>
    <path clip-path="url(#p6e05cc5cbb)" d="M 350.800719 79.720356 
L 334.945021 79.989514 
" style="fill:none;stroke:#999999;"/>
    <path clip-path="url(#p6e05cc5cbb)" d="M 350.800719 79.720356 
L 348.383946 65.529451 
" style="fill:none;stroke:#999999;"/>
    <path clip-path="url(#p6e05cc5cbb)" d="M 350.800719 79.720356 
L 356.334131 78.624637 
L 366.32882 75.778438 
" style="fill:none;stroke:#999999;"/>
    <path clip-path="url(#p6e05cc5cbb)" d="M 350.800719 79.720356 
L 352.566765 86.443569 
L 352.907764 88.20741 
" style="fill:none;stroke:#999999;"/>
    <path clip-path="url(#p6e05cc5cbb)" d="M 388.194435 68.096948 
L 366.32882 75.778438 
" style="fill:none;stroke:#999999;"/>
    <path clip-path="url(#p6e05cc5cbb)" d="M 388.194435 68.096948 
L 407.281431 61.768881 
" style="fill:none;stroke:#999999;"/>
    <path clip-path="url(#p6e05cc5cbb)" d="M 388.194435 68.096948 
L 387.872794 73.336931 
L 385.307113 102.073799 
L 384.147122 113.811742 
" style="fill:none;stroke:#999999;"/>
    <path clip-path="url(#p6e05cc5cbb)" d="M 323.797787 131.243992 
L 322.907318 133.784763 
" style="fill:none;stroke:#999999;"/>
    <path clip-path="url(#p6e05cc5cbb)" d="M 323.797787 131.243992 
L 326.205625 121.537138 
" style="fill:none;stroke:#999999;"/>
    <path clip-path="url(#p6e05cc5cbb)" d="M 323.797787 131.243992 
L 330.841124 132.635594 
L 331.503763 134.092099 
L 332.09046 135.514244 
" style="fill:none;stroke:#999999;"/>
    <path clip-path="url(#p6e05cc5cbb)" d="M 264.16172 264.152484 
L 268.323692 258.545989 
L 270.430736 255.11757 
L 272.256346 251.210013 
L 275.262793 243.912215 
L 280.108251 232.787035 
L 287.653407 214.518679 
" style="fill:none;stroke:#999999;"/>
    <path clip-path="url(#p6e05cc5cbb)" d="M 308.933815 207.942452 
L 310.260583 206.367594 
L 314.84992 203.21406 
" style="fill:none;stroke:#999999;"/>
    <path clip-path="url(#p6e05cc5cbb)" d="M 308.933815 207.942452 
L 307.182659 207.110164 
L 295.098795 197.451033 
" style="fill:none;stroke:#999999;"/>
    <path clip-path="url(#p6e05cc5cbb)" d="M 351.850519 166.02068 
L 359.891538 171.737893 
" style="fill:none;stroke:#999999;"/>
    <path clip-path="url(#p6e05cc5cbb)" d="M 351.850519 166.02068 
L 345.244971 160.519175 
" style="fill:none;stroke:#999999;"/>
    <path clip-path="url(#p6e05cc5cbb)" d="M 351.850519 166.02068 
L 359.927275 153.931495 
L 361.280847 151.314367 
" style="fill:none;stroke:#999999;"/>
    <path clip-path="url(#p6e05cc5cbb)" d="M 461.256025 273.48519 
L 482.515585 287.992975 
L 487.788408 297.056523 
L 492.897433 308.426045 
L 499.132201 316.296519 
L 511.915932 320.771025 
L 518.627204 332.27799 
L 525.97878 337.071285 
L 536.844579 342.824768 
L 565.288939 368.07595 
L 577.432366 378.943426 
L 591.495214 390.76918 
L 604.597608 407.071349 
L 605.556574 415.380874 
L 608.753623 423.692308 
" style="fill:none;stroke:#999999;"/>
    <path clip-path="url(#p6e05cc5cbb)" d="M 461.256025 273.48519 
L 450.217493 265.41428 
L 438.188724 247.94767 
L 399.79286 199.993713 
L 359.891538 171.737893 
" style="fill:none;stroke:#999999;"/>
    <path clip-path="url(#p6e05cc5cbb)" d="M 461.256025 273.48519 
L 331.375702 334.022742 
L 319.556894 336.704773 
L 307.298808 338.188003 
L 286.185177 336.030924 
L 263.068737 329.553962 
L 208.06519 316.5065 
L 177.941152 299.037981 
L 133.837653 255.890683 
" style="fill:none;stroke:#999999;"/>
    <path clip-path="url(#p6e05cc5cbb)" d="M 461.256025 273.48519 
L 487.128747 255.092754 
L 505.523322 233.386435 
L 545.886258 180.726993 
" style="fill:none;stroke:#999999;"/>
    <path clip-path="url(#p6e05cc5cbb)" d="M 381.377438 142.665055 
L 380.804143 142.615423 
" style="fill:none;stroke:#999999;"/>
    <path clip-path="url(#p6e05cc5cbb)" d="M 381.377438 142.665055 
L 382.069859 136.128916 
L 383.018401 127.179903 
" style="fill:none;stroke:#999999;"/>
    <path clip-path="url(#p6e05cc5cbb)" d="M 381.377438 142.665055 
L 407.510749 144.243731 
L 434.524104 145.642968 
" style="fill:none;stroke:#999999;"/>
    <path clip-path="url(#p6e05cc5cbb)" d="M 519.688917 136.201455 
L 514.569468 136.321717 
" style="fill:none;stroke:#999999;"/>
    <path clip-path="url(#p6e05cc5cbb)" d="M 519.688917 136.201455 
L 570.298195 138.366169 
L 597.883357 136.884848 
" style="fill:none;stroke:#999999;"/>
    <path clip-path="url(#p6e05cc5cbb)" d="M 108.11086 237.63378 
L 106.449049 240.571607 
L 107.877075 245.445077 
" style="fill:none;stroke:#999999;"/>
    <path clip-path="url(#p6e05cc5cbb)" d="M 108.11086 237.63378 
L 113.703835 234.478337 
L 114.573456 234.117551 
" style="fill:none;stroke:#999999;"/>
    <path clip-path="url(#p6e05cc5cbb)" d="M 108.11086 237.63378 
L 103.592999 240.693778 
L 97.770705 242.215186 
L 86.940644 242.793589 
" style="fill:none;stroke:#999999;"/>
    <path clip-path="url(#p6e05cc5cbb)" d="M 295.10773 92.139784 
L 285.302154 101.235783 
" style="fill:none;stroke:#999999;"/>
    <path clip-path="url(#p6e05cc5cbb)" d="M 295.10773 92.139784 
L 293.544198 90.683279 
L 291.502673 89.072151 
" style="fill:none;stroke:#999999;"/>
    <path clip-path="url(#p6e05cc5cbb)" d="M 295.10773 92.139784 
L 300.78856 96.463486 
L 305.301955 99.534936 
" style="fill:none;stroke:#999999;"/>
    <path clip-path="url(#p6e05cc5cbb)" d="M 328.606018 89.291676 
L 333.645057 90.396941 
" style="fill:none;stroke:#999999;"/>
    <path clip-path="url(#p6e05cc5cbb)" d="M 328.606018 89.291676 
L 328.516674 102.174972 
L 327.946357 108.157524 
L 327.499634 111.589761 
L 327.105028 114.626851 
L 326.205625 121.537138 
" style="fill:none;stroke:#999999;"/>
    <path clip-path="url(#p6e05cc5cbb)" d="M 328.606018 89.291676 
L 322.112151 90.288132 
L 319.863644 90.702368 
" style="fill:none;stroke:#999999;"/>
    <path clip-path="url(#p6e05cc5cbb)" d="M 328.606018 89.291676 
L 331.479938 86.748996 
L 334.246644 85.773539 
" style="fill:none;stroke:#999999;"/>
    <path clip-path="url(#p6e05cc5cbb)" d="M 316.313683 172.793525 
L 316.43132 177.468468 
L 316.233273 181.502014 
L 315.399389 187.429208 
L 315.021164 191.336765 
" style="fill:none;stroke:#999999;"/>
    <path clip-path="url(#p6e05cc5cbb)" d="M 316.313683 172.793525 
L 311.451845 176.531189 
L 307.34348 180.005421 
L 302.311887 185.95934 
L 299.625591 188.188958 
" style="fill:none;stroke:#999999;"/>
    <path clip-path="url(#p6e05cc5cbb)" d="M 133.837653 255.890683 
L 107.877075 245.445077 
" style="fill:none;stroke:#999999;"/>
    <path clip-path="url(#p6e05cc5cbb)" d="M 133.837653 255.890683 
L 116.223354 245.849768 
L 113.187125 242.574063 
L 112.908668 238.740953 
" style="fill:none;stroke:#999999;"/>
    <path clip-path="url(#p6e05cc5cbb)" d="M 133.837653 255.890683 
L 177.941152 299.037981 
L 208.06519 316.5065 
L 263.068737 329.553962 
L 286.185177 336.030924 
L 307.298808 338.188003 
L 319.556894 336.704773 
L 331.375702 334.022742 
L 461.256025 273.48519 
" style="fill:none;stroke:#999999;"/>
    <path clip-path="url(#p6e05cc5cbb)" d="M 314.84992 203.21406 
L 315.021164 191.336765 
" style="fill:none;stroke:#999999;"/>
    <path clip-path="url(#p6e05cc5cbb)" d="M 314.84992 203.21406 
L 310.260583 206.367594 
L 308.933815 207.942452 
" style="fill:none;stroke:#999999;"/>
    <path clip-path="url(#p6e05cc5cbb)" d="M 314.84992 203.21406 
L 317.62556 201.650655 
L 320.664768 199.753189 
L 323.339151 197.210509 
L 331.506741 189.110965 
L 342.199807 177.745261 
L 351.850519 166.02068 
" style="fill:none;stroke:#999999;"/>
    <path clip-path="url(#p6e05cc5cbb)" d="M 408.079576 61.474907 
L 407.281431 61.768881 
" style="fill:none;stroke:#999999;"/>
    <path clip-path="url(#p6e05cc5cbb)" d="M 408.079576 61.474907 
L 443.588119 88.379213 
" style="fill:none;stroke:#999999;"/>
    <path clip-path="url(#p6e05cc5cbb)" d="M 408.079576 61.474907 
L 396.872779 53.014578 
L 391.26938 48.144925 
L 388.998536 45.413262 
L 387.37842 42.213913 
L 385.856583 38.810311 
" style="fill:none;stroke:#999999;"/>
    <path clip-path="url(#p6e05cc5cbb)" d="M 319.065498 87.701547 
L 319.863644 90.702368 
" style="fill:none;stroke:#999999;"/>
    <path clip-path="url(#p6e05cc5cbb)" d="M 319.065498 87.701547 
L 316.764874 84.906889 
" style="fill:none;stroke:#999999;"/>
    <path clip-path="url(#p6e05cc5cbb)" d="M 319.065498 87.701547 
L 322.810528 84.601462 
L 325.965884 82.642911 
L 328.336495 81.253218 
L 330.724976 80.697723 
L 334.927152 80.350299 
" style="fill:none;stroke:#999999;"/>
    <path clip-path="url(#p6e05cc5cbb)" d="M 297.085225 193.020432 
L 295.098795 197.451033 
" style="fill:none;stroke:#999999;"/>
    <path clip-path="url(#p6e05cc5cbb)" d="M 297.085225 193.020432 
L 294.690788 190.750727 
L 294.099624 189.504203 
L 293.932847 187.721272 
L 294.451046 184.88271 
L 300.755801 167.164123 
L 302.386341 162.737339 
L 304.664629 154.819143 
" style="fill:none;stroke:#999999;"/>
    <path clip-path="url(#p6e05cc5cbb)" d="M 302.766055 26.450059 
L 302.675222 36.067194 
L 302.989417 39.644508 
L 303.887331 45.008571 
L 309.093146 70.208212 
L 310.896419 75.791801 
L 313.771828 80.413294 
L 316.764874 84.906889 
" style="fill:none;stroke:#999999;"/>
    <path clip-path="url(#p6e05cc5cbb)" d="M 507.427852 136.49161 
L 498.90884 137.386893 
" style="fill:none;stroke:#999999;"/>
    <path clip-path="url(#p6e05cc5cbb)" d="M 507.427852 136.49161 
L 514.569468 136.321717 
" style="fill:none;stroke:#999999;"/>
    <path clip-path="url(#p6e05cc5cbb)" d="M 507.427852 136.49161 
L 502.801288 133.005924 
" style="fill:none;stroke:#999999;"/>
    <path clip-path="url(#p6e05cc5cbb)" d="M 507.427852 136.49161 
L 512.027613 140.061289 
" style="fill:none;stroke:#999999;"/>
    <path clip-path="url(#p6e05cc5cbb)" d="M 278.072682 107.789103 
L 285.302154 101.235783 
" style="fill:none;stroke:#999999;"/>
    <path clip-path="url(#p6e05cc5cbb)" d="M 370.599494 156.81969 
L 361.280847 151.314367 
" style="fill:none;stroke:#999999;"/>
    <path clip-path="url(#p6e05cc5cbb)" d="M 370.599494 156.81969 
L 359.891538 171.737893 
" style="fill:none;stroke:#999999;"/>
    <path clip-path="url(#p6e05cc5cbb)" d="M 370.599494 156.81969 
L 380.804143 142.615423 
" style="fill:none;stroke:#999999;"/>
    <path clip-path="url(#p6e05cc5cbb)" d="M 361.280847 151.314367 
L 365.587259 141.96639 
" style="fill:none;stroke:#999999;"/>
    <path clip-path="url(#p6e05cc5cbb)" d="M 361.280847 151.314367 
L 370.599494 156.81969 
" style="fill:none;stroke:#999999;"/>
    <path clip-path="url(#p6e05cc5cbb)" d="M 107.877075 245.445077 
L 86.940644 242.793589 
" style="fill:none;stroke:#999999;"/>
    <path clip-path="url(#p6e05cc5cbb)" d="M 107.877075 245.445077 
L 133.837653 255.890683 
" style="fill:none;stroke:#999999;"/>
    <path clip-path="url(#p6e05cc5cbb)" d="M 107.877075 245.445077 
L 106.449049 240.571607 
L 108.11086 237.63378 
" style="fill:none;stroke:#999999;"/>
    <path clip-path="url(#p6e05cc5cbb)" d="M 107.877075 245.445077 
L 110.950531 242.533976 
L 112.908668 238.740953 
" style="fill:none;stroke:#999999;"/>
    <path clip-path="url(#p6e05cc5cbb)" d="M 86.940644 242.793589 
L 107.877075 245.445077 
" style="fill:none;stroke:#999999;"/>
    <path clip-path="url(#p6e05cc5cbb)" d="M 86.940644 242.793589 
L 97.770705 242.215186 
L 103.592999 240.693778 
L 108.11086 237.63378 
" style="fill:none;stroke:#999999;"/>
    <path clip-path="url(#p6e05cc5cbb)" d="M 114.573456 234.117551 
L 112.908668 238.740953 
" style="fill:none;stroke:#999999;"/>
    <path clip-path="url(#p6e05cc5cbb)" d="M 114.573456 234.117551 
L 134.477956 225.848114 
L 167.714167 221.373607 
L 198.395121 232.880572 
L 218.210276 238.313355 
L 227.269824 240.584969 
L 238.542141 239.882487 
L 255.922654 233.518151 
L 263.598849 229.326164 
L 266.786964 226.87893 
L 269.903603 223.8762 
L 272.4261 221.329702 
L 274.667162 218.838563 
L 277.621492 215.881647 
L 279.652594 214.953912 
L 282.481841 214.289608 
L 287.653407 214.518679 
" style="fill:none;stroke:#999999;"/>
    <path clip-path="url(#p6e05cc5cbb)" d="M 114.573456 234.117551 
L 113.703835 234.478337 
L 108.11086 237.63378 
" style="fill:none;stroke:#999999;"/>
    <path clip-path="url(#p6e05cc5cbb)" d="M 112.908668 238.740953 
L 114.573456 234.117551 
" style="fill:none;stroke:#999999;"/>
    <path clip-path="url(#p6e05cc5cbb)" d="M 112.908668 238.740953 
L 113.187125 242.574063 
L 116.223354 245.849768 
L 133.837653 255.890683 
" style="fill:none;stroke:#999999;"/>
    <path clip-path="url(#p6e05cc5cbb)" d="M 112.908668 238.740953 
L 110.950531 242.533976 
L 107.877075 245.445077 
" style="fill:none;stroke:#999999;"/>
    <path clip-path="url(#p6e05cc5cbb)" d="M 322.907318 133.784763 
L 319.8696 142.153464 
" style="fill:none;stroke:#999999;"/>
    <path clip-path="url(#p6e05cc5cbb)" d="M 322.907318 133.784763 
L 323.797787 131.243992 
" style="fill:none;stroke:#999999;"/>
    <path clip-path="url(#p6e05cc5cbb)" d="M 322.907318 133.784763 
L 318.309047 132.347347 
L 308.86085 130.390705 
" style="fill:none;stroke:#999999;"/>
    <path clip-path="url(#p6e05cc5cbb)" d="M 309.329909 127.271531 
L 309.032094 128.957107 
" style="fill:none;stroke:#999999;"/>
    <path clip-path="url(#p6e05cc5cbb)" d="M 309.329909 127.271531 
L 311.294003 117.662032 
L 315.791017 107.817736 
" style="fill:none;stroke:#999999;"/>
    <path clip-path="url(#p6e05cc5cbb)" d="M 309.329909 127.271531 
L 305.240902 125.200354 
L 300.995542 120.099722 
L 295.694426 113.7812 
" style="fill:none;stroke:#999999;"/>
    <path clip-path="url(#p6e05cc5cbb)" d="M 295.694426 113.7812 
L 285.302154 101.235783 
" style="fill:none;stroke:#999999;"/>
    <path clip-path="url(#p6e05cc5cbb)" d="M 295.694426 113.7812 
L 300.995542 120.099722 
L 305.240902 125.200354 
L 309.329909 127.271531 
" style="fill:none;stroke:#999999;"/>
    <path clip-path="url(#p6e05cc5cbb)" d="M 295.694426 113.7812 
L 297.323477 111.442774 
L 299.722381 108.87146 
L 305.301955 99.534936 
" style="fill:none;stroke:#999999;"/>
    <path clip-path="url(#p6e05cc5cbb)" d="M 295.694426 113.7812 
L 295.192607 115.821834 
L 294.991582 117.411964 
L 294.902237 120.250527 
L 294.783111 121.863563 
L 294.241086 123.402152 
L 293.082584 126.357159 
" style="fill:none;stroke:#999999;"/>
    <path clip-path="url(#p6e05cc5cbb)" d="M 285.302154 101.235783 
L 295.694426 113.7812 
" style="fill:none;stroke:#999999;"/>
    <path clip-path="url(#p6e05cc5cbb)" d="M 285.302154 101.235783 
L 295.10773 92.139784 
" style="fill:none;stroke:#999999;"/>
    <path clip-path="url(#p6e05cc5cbb)" d="M 285.302154 101.235783 
L 278.072682 107.789103 
" style="fill:none;stroke:#999999;"/>
    <path clip-path="url(#p6e05cc5cbb)" d="M 293.082584 126.357159 
L 294.241086 123.402152 
L 294.783111 121.863563 
L 294.902237 120.250527 
L 294.991582 117.411964 
L 295.192607 115.821834 
L 295.694426 113.7812 
" style="fill:none;stroke:#999999;"/>
    <path clip-path="url(#p6e05cc5cbb)" d="M 278.112888 73.791253 
L 284.745239 74.862157 
L 290.993408 74.816343 
" style="fill:none;stroke:#999999;"/>
    <path clip-path="url(#p6e05cc5cbb)" d="M 290.993408 74.816343 
L 291.502673 89.072151 
" style="fill:none;stroke:#999999;"/>
    <path clip-path="url(#p6e05cc5cbb)" d="M 290.993408 74.816343 
L 284.745239 74.862157 
L 278.112888 73.791253 
" style="fill:none;stroke:#999999;"/>
    <path clip-path="url(#p6e05cc5cbb)" d="M 290.993408 74.816343 
L 289.943609 51.98567 
L 289.528156 39.896486 
" style="fill:none;stroke:#999999;"/>
    <path clip-path="url(#p6e05cc5cbb)" d="M 289.528156 39.896486 
L 289.943609 51.98567 
L 290.993408 74.816343 
" style="fill:none;stroke:#999999;"/>
    <path clip-path="url(#p6e05cc5cbb)" d="M 291.502673 89.072151 
L 290.993408 74.816343 
" style="fill:none;stroke:#999999;"/>
    <path clip-path="url(#p6e05cc5cbb)" d="M 291.502673 89.072151 
L 280.973405 83.984881 
L 272.647973 80.449563 
L 263.053846 76.335843 
L 260.238001 74.948058 
L 257.194326 72.495097 
L 253.053201 69.085768 
L 246.87353 64.143576 
L 235.558029 56.233015 
" style="fill:none;stroke:#999999;"/>
    <path clip-path="url(#p6e05cc5cbb)" d="M 291.502673 89.072151 
L 293.544198 90.683279 
L 295.10773 92.139784 
" style="fill:none;stroke:#999999;"/>
    <path clip-path="url(#p6e05cc5cbb)" d="M 328.6358 13.673664 
L 328.915746 17.037179 
L 328.71621 21.232984 
L 328.196522 25.69031 
L 327.74831 28.756034 
L 327.396887 32.570054 
L 327.303075 35.857213 
L 327.462407 37.349988 
L 328.020811 39.138645 
L 333.999457 50.544436 
L 335.409614 52.067754 
" style="fill:none;stroke:#999999;"/>
    <path clip-path="url(#p6e05cc5cbb)" d="M 341.273601 21.673944 
L 343.236205 47.495893 
L 343.64868 48.887495 
L 344.318765 49.985123 
" style="fill:none;stroke:#999999;"/>
    <path clip-path="url(#p6e05cc5cbb)" d="M 395.050148 8.307692 
L 389.416967 11.734202 
L 377.770892 20.007458 
" style="fill:none;stroke:#999999;"/>
    <path clip-path="url(#p6e05cc5cbb)" d="M 359.255701 46.747596 
L 385.856583 38.810311 
" style="fill:none;stroke:#999999;"/>
    <path clip-path="url(#p6e05cc5cbb)" d="M 359.255701 46.747596 
L 356.682575 36.616963 
" style="fill:none;stroke:#999999;"/>
    <path clip-path="url(#p6e05cc5cbb)" d="M 359.255701 46.747596 
L 363.920981 65.897873 
L 364.159234 66.871422 
L 366.32882 75.778438 
" style="fill:none;stroke:#999999;"/>
    <path clip-path="url(#p6e05cc5cbb)" d="M 385.856583 38.810311 
L 359.255701 46.747596 
" style="fill:none;stroke:#999999;"/>
    <path clip-path="url(#p6e05cc5cbb)" d="M 385.856583 38.810311 
L 377.770892 20.007458 
" style="fill:none;stroke:#999999;"/>
    <path clip-path="url(#p6e05cc5cbb)" d="M 385.856583 38.810311 
L 387.37842 42.213913 
L 388.998536 45.413262 
L 391.26938 48.144925 
L 396.872779 53.014578 
L 408.079576 61.474907 
" style="fill:none;stroke:#999999;"/>
    <path clip-path="url(#p6e05cc5cbb)" d="M 327.164591 166.652532 
L 325.200498 165.520543 
L 316.303259 162.483453 
" style="fill:none;stroke:#999999;"/>
    <path clip-path="url(#p6e05cc5cbb)" d="M 327.164591 166.652532 
L 320.115298 170.603995 
L 316.313683 172.793525 
" style="fill:none;stroke:#999999;"/>
    <path clip-path="url(#p6e05cc5cbb)" d="M 316.303259 162.483453 
L 317.037375 160.639437 
" style="fill:none;stroke:#999999;"/>
    <path clip-path="url(#p6e05cc5cbb)" d="M 316.303259 162.483453 
L 325.200498 165.520543 
L 327.164591 166.652532 
" style="fill:none;stroke:#999999;"/>
    <path clip-path="url(#p6e05cc5cbb)" d="M 316.303259 162.483453 
L 313.972853 167.776886 
L 304.183657 178.856252 
" style="fill:none;stroke:#999999;"/>
    <path clip-path="url(#p6e05cc5cbb)" d="M 336.840617 160.38746 
L 327.164591 166.652532 
" style="fill:none;stroke:#999999;"/>
    <path clip-path="url(#p6e05cc5cbb)" d="M 336.840617 160.38746 
L 328.988711 153.41036 
L 326.554069 151.428902 
L 324.201327 149.850226 
" style="fill:none;stroke:#999999;"/>
    <path clip-path="url(#p6e05cc5cbb)" d="M 340.028732 157.823781 
L 345.244971 160.519175 
" style="fill:none;stroke:#999999;"/>
    <path clip-path="url(#p6e05cc5cbb)" d="M 340.028732 157.823781 
L 336.840617 160.38746 
" style="fill:none;stroke:#999999;"/>
    <path clip-path="url(#p6e05cc5cbb)" d="M 345.244971 160.519175 
L 351.850519 166.02068 
" style="fill:none;stroke:#999999;"/>
    <path clip-path="url(#p6e05cc5cbb)" d="M 345.244971 160.519175 
L 340.028732 157.823781 
" style="fill:none;stroke:#999999;"/>
    <path clip-path="url(#p6e05cc5cbb)" d="M 315.021164 191.336765 
L 314.84992 203.21406 
" style="fill:none;stroke:#999999;"/>
    <path clip-path="url(#p6e05cc5cbb)" d="M 315.021164 191.336765 
L 315.399389 187.429208 
L 316.233273 181.502014 
L 316.43132 177.468468 
L 316.313683 172.793525 
" style="fill:none;stroke:#999999;"/>
    <path clip-path="url(#p6e05cc5cbb)" d="M 315.021164 191.336765 
L 317.728307 190.195232 
L 319.78919 188.954434 
L 321.501629 187.42539 
L 322.798616 185.840987 
L 325.315157 182.166318 
L 330.467365 177.254669 
L 339.573074 167.828426 
L 345.244971 160.519175 
" style="fill:none;stroke:#999999;"/>
    <path clip-path="url(#p6e05cc5cbb)" d="M 359.891538 171.737893 
L 351.850519 166.02068 
" style="fill:none;stroke:#999999;"/>
    <path clip-path="url(#p6e05cc5cbb)" d="M 359.891538 171.737893 
L 370.599494 156.81969 
" style="fill:none;stroke:#999999;"/>
    <path clip-path="url(#p6e05cc5cbb)" d="M 359.891538 171.737893 
L 399.79286 199.993713 
L 438.188724 247.94767 
L 450.217493 265.41428 
L 461.256025 273.48519 
" style="fill:none;stroke:#999999;"/>
    <path clip-path="url(#p6e05cc5cbb)" d="M 430.606341 168.004047 
L 439.193852 163.68989 
L 436.562652 154.71797 
L 434.85468 147.082294 
L 434.524104 145.642968 
" style="fill:none;stroke:#999999;"/>
    <path clip-path="url(#p6e05cc5cbb)" d="M 434.524104 145.642968 
L 407.510749 144.243731 
L 381.377438 142.665055 
" style="fill:none;stroke:#999999;"/>
    <path clip-path="url(#p6e05cc5cbb)" d="M 434.524104 145.642968 
L 438.913905 145.791864 
L 442.542787 145.673511 
L 448.831161 144.787773 
L 474.48499 140.691232 
L 484.756646 138.925482 
L 492.307759 137.883212 
L 496.917943 137.598783 
" style="fill:none;stroke:#999999;"/>
    <path clip-path="url(#p6e05cc5cbb)" d="M 434.524104 145.642968 
L 434.85468 147.082294 
L 436.562652 154.71797 
L 439.193852 163.68989 
L 430.606341 168.004047 
" style="fill:none;stroke:#999999;"/>
    <path clip-path="url(#p6e05cc5cbb)" d="M 406.340334 129.344617 
L 394.192439 128.216446 
L 383.018401 127.179903 
" style="fill:none;stroke:#999999;"/>
    <path clip-path="url(#p6e05cc5cbb)" d="M 383.018401 127.179903 
L 384.147122 113.811742 
" style="fill:none;stroke:#999999;"/>
    <path clip-path="url(#p6e05cc5cbb)" d="M 383.018401 127.179903 
L 382.069859 136.128916 
L 381.377438 142.665055 
" style="fill:none;stroke:#999999;"/>
    <path clip-path="url(#p6e05cc5cbb)" d="M 383.018401 127.179903 
L 394.192439 128.216446 
L 406.340334 129.344617 
" style="fill:none;stroke:#999999;"/>
    <path clip-path="url(#p6e05cc5cbb)" d="M 366.775543 113.384145 
L 384.147122 113.811742 
" style="fill:none;stroke:#999999;"/>
    <path clip-path="url(#p6e05cc5cbb)" d="M 366.775543 113.384145 
L 366.717469 107.057987 
L 366.791923 100.521848 
" style="fill:none;stroke:#999999;"/>
    <path clip-path="url(#p6e05cc5cbb)" d="M 366.775543 113.384145 
L 365.95655 140.27127 
L 365.587259 141.96639 
" style="fill:none;stroke:#999999;"/>
    <path clip-path="url(#p6e05cc5cbb)" d="M 384.147122 113.811742 
L 383.018401 127.179903 
" style="fill:none;stroke:#999999;"/>
    <path clip-path="url(#p6e05cc5cbb)" d="M 384.147122 113.811742 
L 366.775543 113.384145 
" style="fill:none;stroke:#999999;"/>
    <path clip-path="url(#p6e05cc5cbb)" d="M 384.147122 113.811742 
L 412.074771 113.487226 
" style="fill:none;stroke:#999999;"/>
    <path clip-path="url(#p6e05cc5cbb)" d="M 384.147122 113.811742 
L 385.307113 102.073799 
L 387.872794 73.336931 
L 388.194435 68.096948 
" style="fill:none;stroke:#999999;"/>
    <path clip-path="url(#p6e05cc5cbb)" d="M 426.792814 113.3746 
L 412.074771 113.487226 
" style="fill:none;stroke:#999999;"/>
    <path clip-path="url(#p6e05cc5cbb)" d="M 426.792814 113.3746 
L 427.531396 121.995279 
" style="fill:none;stroke:#999999;"/>
    <path clip-path="url(#p6e05cc5cbb)" d="M 426.792814 113.3746 
L 425.921703 103.665837 
L 426.332689 90.683279 
L 426.579876 89.925438 
L 427.051913 89.564652 
L 428.051084 89.44439 
L 440.912247 90.522929 
L 441.784847 90.312948 
L 442.755725 89.745999 
L 443.588119 88.379213 
" style="fill:none;stroke:#999999;"/>
    <path clip-path="url(#p6e05cc5cbb)" d="M 427.531396 121.995279 
L 426.792814 113.3746 
" style="fill:none;stroke:#999999;"/>
    <path clip-path="url(#p6e05cc5cbb)" d="M 443.588119 88.379213 
L 408.079576 61.474907 
" style="fill:none;stroke:#999999;"/>
    <path clip-path="url(#p6e05cc5cbb)" d="M 443.588119 88.379213 
L 442.755725 89.745999 
L 441.784847 90.312948 
L 440.912247 90.522929 
L 428.051084 89.44439 
L 427.051913 89.564652 
L 426.579876 89.925438 
L 426.332689 90.683279 
L 425.921703 103.665837 
L 426.792814 113.3746 
" style="fill:none;stroke:#999999;"/>
    <path clip-path="url(#p6e05cc5cbb)" d="M 443.588119 88.379213 
L 457.094053 98.55757 
L 496.127243 127.975922 
" style="fill:none;stroke:#999999;"/>
    <path clip-path="url(#p6e05cc5cbb)" d="M 412.074771 113.487226 
L 384.147122 113.811742 
" style="fill:none;stroke:#999999;"/>
    <path clip-path="url(#p6e05cc5cbb)" d="M 412.074771 113.487226 
L 426.792814 113.3746 
" style="fill:none;stroke:#999999;"/>
    <path clip-path="url(#p6e05cc5cbb)" d="M 412.074771 113.487226 
L 411.471695 102.841184 
L 410.716732 90.164053 
L 410.356376 72.752801 
" style="fill:none;stroke:#999999;"/>
    <path clip-path="url(#p6e05cc5cbb)" d="M 410.356376 72.752801 
L 399.952191 72.920786 
" style="fill:none;stroke:#999999;"/>
    <path clip-path="url(#p6e05cc5cbb)" d="M 410.356376 72.752801 
L 410.716732 90.164053 
L 411.471695 102.841184 
L 412.074771 113.487226 
" style="fill:none;stroke:#999999;"/>
    <path clip-path="url(#p6e05cc5cbb)" d="M 410.356376 72.752801 
L 409.101083 67.295202 
L 407.281431 61.768881 
" style="fill:none;stroke:#999999;"/>
    <path clip-path="url(#p6e05cc5cbb)" d="M 407.281431 61.768881 
L 388.194435 68.096948 
" style="fill:none;stroke:#999999;"/>
    <path clip-path="url(#p6e05cc5cbb)" d="M 407.281431 61.768881 
L 408.079576 61.474907 
" style="fill:none;stroke:#999999;"/>
    <path clip-path="url(#p6e05cc5cbb)" d="M 407.281431 61.768881 
L 409.101083 67.295202 
L 410.356376 72.752801 
" style="fill:none;stroke:#999999;"/>
    <path clip-path="url(#p6e05cc5cbb)" d="M 316.764874 84.906889 
L 319.065498 87.701547 
" style="fill:none;stroke:#999999;"/>
    <path clip-path="url(#p6e05cc5cbb)" d="M 316.764874 84.906889 
L 313.771828 80.413294 
L 310.896419 75.791801 
L 309.093146 70.208212 
L 303.887331 45.008571 
L 302.989417 39.644508 
L 302.675222 36.067194 
L 302.766055 26.450059 
" style="fill:none;stroke:#999999;"/>
    <path clip-path="url(#p6e05cc5cbb)" d="M 316.764874 84.906889 
L 312.851578 89.482568 
L 311.009589 92.141693 
L 308.461777 97.965805 
" style="fill:none;stroke:#999999;"/>
    <path clip-path="url(#p6e05cc5cbb)" d="M 308.461777 97.965805 
L 305.301955 99.534936 
" style="fill:none;stroke:#999999;"/>
    <path clip-path="url(#p6e05cc5cbb)" d="M 308.461777 97.965805 
L 317.239889 93.836813 
L 319.533069 92.689552 
" style="fill:none;stroke:#999999;"/>
    <path clip-path="url(#p6e05cc5cbb)" d="M 308.461777 97.965805 
L 311.009589 92.141693 
L 312.851578 89.482568 
L 316.764874 84.906889 
" style="fill:none;stroke:#999999;"/>
    <path clip-path="url(#p6e05cc5cbb)" d="M 305.301955 99.534936 
L 308.461777 97.965805 
" style="fill:none;stroke:#999999;"/>
    <path clip-path="url(#p6e05cc5cbb)" d="M 305.301955 99.534936 
L 300.78856 96.463486 
L 295.10773 92.139784 
" style="fill:none;stroke:#999999;"/>
    <path clip-path="url(#p6e05cc5cbb)" d="M 305.301955 99.534936 
L 307.651719 101.1537 
L 316.370268 106.548305 
" style="fill:none;stroke:#999999;"/>
    <path clip-path="url(#p6e05cc5cbb)" d="M 305.301955 99.534936 
L 299.722381 108.87146 
L 297.323477 111.442774 
L 295.694426 113.7812 
" style="fill:none;stroke:#999999;"/>
    <path clip-path="url(#p6e05cc5cbb)" d="M 326.588318 145.65824 
L 330.826233 137.16355 
" style="fill:none;stroke:#999999;"/>
    <path clip-path="url(#p6e05cc5cbb)" d="M 326.588318 145.65824 
L 324.201327 149.850226 
" style="fill:none;stroke:#999999;"/>
    <path clip-path="url(#p6e05cc5cbb)" d="M 326.588318 145.65824 
L 319.8696 142.153464 
" style="fill:none;stroke:#999999;"/>
    <path clip-path="url(#p6e05cc5cbb)" d="M 319.8696 142.153464 
L 313.683972 157.835235 
" style="fill:none;stroke:#999999;"/>
    <path clip-path="url(#p6e05cc5cbb)" d="M 319.8696 142.153464 
L 322.907318 133.784763 
" style="fill:none;stroke:#999999;"/>
    <path clip-path="url(#p6e05cc5cbb)" d="M 319.8696 142.153464 
L 326.588318 145.65824 
" style="fill:none;stroke:#999999;"/>
    <path clip-path="url(#p6e05cc5cbb)" d="M 304.664629 154.819143 
L 313.683972 157.835235 
" style="fill:none;stroke:#999999;"/>
    <path clip-path="url(#p6e05cc5cbb)" d="M 304.664629 154.819143 
L 302.386341 162.737339 
L 300.755801 167.164123 
L 294.451046 184.88271 
L 293.932847 187.721272 
L 294.099624 189.504203 
L 294.690788 190.750727 
L 297.085225 193.020432 
" style="fill:none;stroke:#999999;"/>
    <path clip-path="url(#p6e05cc5cbb)" d="M 304.664629 154.819143 
L 306.251986 146.267185 
L 307.340502 140.223547 
L 308.86085 130.390705 
" style="fill:none;stroke:#999999;"/>
    <path clip-path="url(#p6e05cc5cbb)" d="M 313.683972 157.835235 
L 313.264052 158.799239 
" style="fill:none;stroke:#999999;"/>
    <path clip-path="url(#p6e05cc5cbb)" d="M 313.683972 157.835235 
L 319.8696 142.153464 
" style="fill:none;stroke:#999999;"/>
    <path clip-path="url(#p6e05cc5cbb)" d="M 313.683972 157.835235 
L 304.664629 154.819143 
" style="fill:none;stroke:#999999;"/>
    <path clip-path="url(#p6e05cc5cbb)" d="M 313.264052 158.799239 
L 313.683972 157.835235 
" style="fill:none;stroke:#999999;"/>
    <path clip-path="url(#p6e05cc5cbb)" d="M 313.264052 158.799239 
L 317.037375 160.639437 
" style="fill:none;stroke:#999999;"/>
    <path clip-path="url(#p6e05cc5cbb)" d="M 313.264052 158.799239 
L 306.805923 173.163855 
L 304.183657 178.856252 
" style="fill:none;stroke:#999999;"/>
    <path clip-path="url(#p6e05cc5cbb)" d="M 317.037375 160.639437 
L 316.303259 162.483453 
" style="fill:none;stroke:#999999;"/>
    <path clip-path="url(#p6e05cc5cbb)" d="M 317.037375 160.639437 
L 313.264052 158.799239 
" style="fill:none;stroke:#999999;"/>
    <path clip-path="url(#p6e05cc5cbb)" d="M 317.037375 160.639437 
L 319.151865 155.712517 
L 319.844286 155.120752 
L 320.7422 154.800053 
L 321.620755 154.475537 
L 324.201327 149.850226 
" style="fill:none;stroke:#999999;"/>
    <path clip-path="url(#p6e05cc5cbb)" d="M 344.586798 50.912858 
L 344.318765 49.985123 
" style="fill:none;stroke:#999999;"/>
    <path clip-path="url(#p6e05cc5cbb)" d="M 344.586798 50.912858 
L 337.074402 51.220194 
L 335.409614 52.067754 
" style="fill:none;stroke:#999999;"/>
    <path clip-path="url(#p6e05cc5cbb)" d="M 344.586798 50.912858 
L 345.009696 54.093117 
L 345.559166 56.704518 
L 347.768957 63.055492 
L 348.383946 65.529451 
" style="fill:none;stroke:#999999;"/>
    <path clip-path="url(#p6e05cc5cbb)" d="M 335.409614 52.067754 
L 333.999457 50.544436 
L 328.020811 39.138645 
L 327.462407 37.349988 
L 327.303075 35.857213 
L 327.396887 32.570054 
L 327.74831 28.756034 
L 328.196522 25.69031 
L 328.71621 21.232984 
L 328.915746 17.037179 
L 328.6358 13.673664 
" style="fill:none;stroke:#999999;"/>
    <path clip-path="url(#p6e05cc5cbb)" d="M 335.409614 52.067754 
L 335.716363 55.303372 
L 335.640421 58.317555 
L 335.22199 75.509281 
" style="fill:none;stroke:#999999;"/>
    <path clip-path="url(#p6e05cc5cbb)" d="M 335.409614 52.067754 
L 337.074402 51.220194 
L 344.586798 50.912858 
" style="fill:none;stroke:#999999;"/>
    <path clip-path="url(#p6e05cc5cbb)" d="M 348.383946 65.529451 
L 350.800719 79.720356 
" style="fill:none;stroke:#999999;"/>
    <path clip-path="url(#p6e05cc5cbb)" d="M 348.383946 65.529451 
L 341.292959 60.442182 
L 340.828367 60.106212 
L 340.362285 60.11003 
L 339.930453 60.344827 
L 338.036346 69.62981 
L 336.955276 74.085227 
L 336.390916 74.907971 
L 335.22199 75.509281 
" style="fill:none;stroke:#999999;"/>
    <path clip-path="url(#p6e05cc5cbb)" d="M 348.383946 65.529451 
L 347.768957 63.055492 
L 345.559166 56.704518 
L 345.009696 54.093117 
L 344.586798 50.912858 
" style="fill:none;stroke:#999999;"/>
    <path clip-path="url(#p6e05cc5cbb)" d="M 366.791923 100.521848 
L 354.69019 99.874724 
" style="fill:none;stroke:#999999;"/>
    <path clip-path="url(#p6e05cc5cbb)" d="M 366.791923 100.521848 
L 366.884246 90.200322 
L 367.080804 79.544736 
L 366.797879 77.759896 
L 366.32882 75.778438 
" style="fill:none;stroke:#999999;"/>
    <path clip-path="url(#p6e05cc5cbb)" d="M 366.791923 100.521848 
L 366.717469 107.057987 
L 366.775543 113.384145 
" style="fill:none;stroke:#999999;"/>
    <path clip-path="url(#p6e05cc5cbb)" d="M 354.69019 99.874724 
L 366.791923 100.521848 
" style="fill:none;stroke:#999999;"/>
    <path clip-path="url(#p6e05cc5cbb)" d="M 354.69019 99.874724 
L 354.795914 101.835184 
" style="fill:none;stroke:#999999;"/>
    <path clip-path="url(#p6e05cc5cbb)" d="M 354.69019 99.874724 
L 354.152633 96.341315 
L 353.781852 92.865173 
L 352.907764 88.20741 
" style="fill:none;stroke:#999999;"/>
    <path clip-path="url(#p6e05cc5cbb)" d="M 354.795914 101.835184 
L 354.69019 99.874724 
" style="fill:none;stroke:#999999;"/>
    <path clip-path="url(#p6e05cc5cbb)" d="M 354.795914 101.835184 
L 351.521433 101.777916 
L 349.81495 101.997442 
L 347.422002 102.51285 
L 345.340272 103.161883 
L 335.190719 106.952996 
" style="fill:none;stroke:#999999;"/>
    <path clip-path="url(#p6e05cc5cbb)" d="M 354.795914 101.835184 
L 354.617225 106.422317 
L 354.288139 110.894914 
L 353.491482 119.654944 
L 352.953925 123.216987 
L 352.431259 126.687402 
L 351.482717 132.935294 
L 350.818588 138.362351 
L 350.237848 140.759953 
" style="fill:none;stroke:#999999;"/>
    <path clip-path="url(#p6e05cc5cbb)" d="M 335.190719 106.952996 
L 334.861633 105.685474 
L 334.361303 102.148247 
L 334.22133 97.994439 
L 333.645057 90.396941 
" style="fill:none;stroke:#999999;"/>
    <path clip-path="url(#p6e05cc5cbb)" d="M 335.190719 106.952996 
L 335.694027 109.314329 
L 336.407295 111.269062 
L 336.885289 112.288425 
L 337.603025 113.387962 
L 338.288 114.876919 
L 338.41755 115.871466 
L 338.101866 125.40079 
L 338.057193 127.097819 
L 337.871059 129.111729 
L 337.54644 130.188359 
L 336.483238 132.559237 
L 335.034366 135.831124 
" style="fill:none;stroke:#999999;"/>
    <path clip-path="url(#p6e05cc5cbb)" d="M 335.190719 106.952996 
L 345.340272 103.161883 
L 347.422002 102.51285 
L 349.81495 101.997442 
L 351.521433 101.777916 
L 354.795914 101.835184 
" style="fill:none;stroke:#999999;"/>
    <path clip-path="url(#p6e05cc5cbb)" d="M 352.907764 88.20741 
L 346.401984 89.127509 
L 343.017311 90.370216 
L 340.118077 90.87417 
L 333.645057 90.396941 
" style="fill:none;stroke:#999999;"/>
    <path clip-path="url(#p6e05cc5cbb)" d="M 352.907764 88.20741 
L 352.566765 86.443569 
L 350.800719 79.720356 
" style="fill:none;stroke:#999999;"/>
    <path clip-path="url(#p6e05cc5cbb)" d="M 352.907764 88.20741 
L 353.781852 92.865173 
L 354.152633 96.341315 
L 354.69019 99.874724 
" style="fill:none;stroke:#999999;"/>
    <path clip-path="url(#p6e05cc5cbb)" d="M 346.786166 147.880222 
L 343.137926 146.295819 
L 338.582838 144.318179 
" style="fill:none;stroke:#999999;"/>
    <path clip-path="url(#p6e05cc5cbb)" d="M 346.786166 147.880222 
L 341.553547 156.273739 
L 340.028732 157.823781 
" style="fill:none;stroke:#999999;"/>
    <path clip-path="url(#p6e05cc5cbb)" d="M 337.440715 147.973759 
L 336.946342 147.452624 
L 338.582838 144.318179 
" style="fill:none;stroke:#999999;"/>
    <path clip-path="url(#p6e05cc5cbb)" d="M 338.582838 144.318179 
L 338.824068 142.9743 
L 338.949151 140.742773 
L 334.635293 138.226818 
" style="fill:none;stroke:#999999;"/>
    <path clip-path="url(#p6e05cc5cbb)" d="M 338.582838 144.318179 
L 336.946342 147.452624 
L 337.440715 147.973759 
" style="fill:none;stroke:#999999;"/>
    <path clip-path="url(#p6e05cc5cbb)" d="M 330.826233 137.16355 
L 332.09046 135.514244 
" style="fill:none;stroke:#999999;"/>
    <path clip-path="url(#p6e05cc5cbb)" d="M 330.826233 137.16355 
L 334.635293 138.226818 
" style="fill:none;stroke:#999999;"/>
    <path clip-path="url(#p6e05cc5cbb)" d="M 330.826233 137.16355 
L 326.588318 145.65824 
" style="fill:none;stroke:#999999;"/>
    <path clip-path="url(#p6e05cc5cbb)" d="M 334.635293 138.226818 
L 330.826233 137.16355 
" style="fill:none;stroke:#999999;"/>
    <path clip-path="url(#p6e05cc5cbb)" d="M 334.635293 138.226818 
L 335.034366 135.831124 
" style="fill:none;stroke:#999999;"/>
    <path clip-path="url(#p6e05cc5cbb)" d="M 335.034366 135.831124 
L 334.635293 138.226818 
" style="fill:none;stroke:#999999;"/>
    <path clip-path="url(#p6e05cc5cbb)" d="M 335.034366 135.831124 
L 332.09046 135.514244 
" style="fill:none;stroke:#999999;"/>
    <path clip-path="url(#p6e05cc5cbb)" d="M 335.034366 135.831124 
L 336.483238 132.559237 
L 337.54644 130.188359 
L 337.871059 129.111729 
L 338.057193 127.097819 
L 338.101866 125.40079 
L 338.41755 115.871466 
L 338.288 114.876919 
L 337.603025 113.387962 
L 336.885289 112.288425 
L 336.407295 111.269062 
L 335.694027 109.314329 
L 335.190719 106.952996 
" style="fill:none;stroke:#999999;"/>
    <path clip-path="url(#p6e05cc5cbb)" d="M 399.952191 72.920786 
L 410.356376 72.752801 
" style="fill:none;stroke:#999999;"/>
    <path clip-path="url(#p6e05cc5cbb)" d="M 326.205625 121.537138 
L 323.797787 131.243992 
" style="fill:none;stroke:#999999;"/>
    <path clip-path="url(#p6e05cc5cbb)" d="M 326.205625 121.537138 
L 327.105028 114.626851 
L 327.499634 111.589761 
L 327.946357 108.157524 
L 328.516674 102.174972 
L 328.606018 89.291676 
" style="fill:none;stroke:#999999;"/>
    <path clip-path="url(#p6e05cc5cbb)" d="M 317.009082 121.231711 
L 313.846282 120.859472 
" style="fill:none;stroke:#999999;"/>
    <path clip-path="url(#p6e05cc5cbb)" d="M 317.009082 121.231711 
L 317.055244 126.099455 
L 310.970873 128.464605 
L 309.032094 128.957107 
" style="fill:none;stroke:#999999;"/>
    <path clip-path="url(#p6e05cc5cbb)" d="M 317.009082 121.231711 
L 321.961754 121.447419 
L 326.205625 121.537138 
" style="fill:none;stroke:#999999;"/>
    <path clip-path="url(#p6e05cc5cbb)" d="M 313.846282 120.859472 
L 317.009082 121.231711 
" style="fill:none;stroke:#999999;"/>
    <path clip-path="url(#p6e05cc5cbb)" d="M 332.09046 135.514244 
L 335.034366 135.831124 
" style="fill:none;stroke:#999999;"/>
    <path clip-path="url(#p6e05cc5cbb)" d="M 332.09046 135.514244 
L 330.826233 137.16355 
" style="fill:none;stroke:#999999;"/>
    <path clip-path="url(#p6e05cc5cbb)" d="M 332.09046 135.514244 
L 331.503763 134.092099 
L 330.841124 132.635594 
L 323.797787 131.243992 
" style="fill:none;stroke:#999999;"/>
    <path clip-path="url(#p6e05cc5cbb)" d="M 308.86085 130.390705 
L 309.032094 128.957107 
" style="fill:none;stroke:#999999;"/>
    <path clip-path="url(#p6e05cc5cbb)" d="M 308.86085 130.390705 
L 307.340502 140.223547 
L 306.251986 146.267185 
L 304.664629 154.819143 
" style="fill:none;stroke:#999999;"/>
    <path clip-path="url(#p6e05cc5cbb)" d="M 308.86085 130.390705 
L 318.309047 132.347347 
L 322.907318 133.784763 
" style="fill:none;stroke:#999999;"/>
    <path clip-path="url(#p6e05cc5cbb)" d="M 309.032094 128.957107 
L 308.86085 130.390705 
" style="fill:none;stroke:#999999;"/>
    <path clip-path="url(#p6e05cc5cbb)" d="M 309.032094 128.957107 
L 309.329909 127.271531 
" style="fill:none;stroke:#999999;"/>
    <path clip-path="url(#p6e05cc5cbb)" d="M 309.032094 128.957107 
L 310.970873 128.464605 
L 317.055244 126.099455 
L 317.009082 121.231711 
" style="fill:none;stroke:#999999;"/>
    <path clip-path="url(#p6e05cc5cbb)" d="M 316.370268 106.548305 
L 315.791017 107.817736 
" style="fill:none;stroke:#999999;"/>
    <path clip-path="url(#p6e05cc5cbb)" d="M 316.370268 106.548305 
L 307.651719 101.1537 
L 305.301955 99.534936 
" style="fill:none;stroke:#999999;"/>
    <path clip-path="url(#p6e05cc5cbb)" d="M 316.370268 106.548305 
L 318.898722 96.555114 
L 319.17569 95.152058 
L 319.533069 92.689552 
" style="fill:none;stroke:#999999;"/>
    <path clip-path="url(#p6e05cc5cbb)" d="M 315.791017 107.817736 
L 316.370268 106.548305 
" style="fill:none;stroke:#999999;"/>
    <path clip-path="url(#p6e05cc5cbb)" d="M 315.791017 107.817736 
L 311.294003 117.662032 
L 309.329909 127.271531 
" style="fill:none;stroke:#999999;"/>
    <path clip-path="url(#p6e05cc5cbb)" d="M 315.791017 107.817736 
L 317.056733 108.287331 
L 317.655342 109.57776 
L 317.524303 111.946728 
L 317.009082 121.231711 
" style="fill:none;stroke:#999999;"/>
    <path clip-path="url(#p6e05cc5cbb)" d="M 319.863644 90.702368 
L 319.533069 92.689552 
" style="fill:none;stroke:#999999;"/>
    <path clip-path="url(#p6e05cc5cbb)" d="M 319.863644 90.702368 
L 319.065498 87.701547 
" style="fill:none;stroke:#999999;"/>
    <path clip-path="url(#p6e05cc5cbb)" d="M 319.863644 90.702368 
L 322.112151 90.288132 
L 328.606018 89.291676 
" style="fill:none;stroke:#999999;"/>
    <path clip-path="url(#p6e05cc5cbb)" d="M 319.533069 92.689552 
L 319.863644 90.702368 
" style="fill:none;stroke:#999999;"/>
    <path clip-path="url(#p6e05cc5cbb)" d="M 319.533069 92.689552 
L 319.17569 95.152058 
L 318.898722 96.555114 
L 316.370268 106.548305 
" style="fill:none;stroke:#999999;"/>
    <path clip-path="url(#p6e05cc5cbb)" d="M 319.533069 92.689552 
L 317.239889 93.836813 
L 308.461777 97.965805 
" style="fill:none;stroke:#999999;"/>
    <path clip-path="url(#p6e05cc5cbb)" d="M 334.945021 79.989514 
L 335.22199 75.509281 
" style="fill:none;stroke:#999999;"/>
    <path clip-path="url(#p6e05cc5cbb)" d="M 334.945021 79.989514 
L 334.927152 80.350299 
" style="fill:none;stroke:#999999;"/>
    <path clip-path="url(#p6e05cc5cbb)" d="M 334.945021 79.989514 
L 350.800719 79.720356 
" style="fill:none;stroke:#999999;"/>
    <path clip-path="url(#p6e05cc5cbb)" d="M 335.22199 75.509281 
L 334.945021 79.989514 
" style="fill:none;stroke:#999999;"/>
    <path clip-path="url(#p6e05cc5cbb)" d="M 335.22199 75.509281 
L 335.640421 58.317555 
L 335.716363 55.303372 
L 335.409614 52.067754 
" style="fill:none;stroke:#999999;"/>
    <path clip-path="url(#p6e05cc5cbb)" d="M 335.22199 75.509281 
L 336.390916 74.907971 
L 336.955276 74.085227 
L 338.036346 69.62981 
L 339.930453 60.344827 
L 340.362285 60.11003 
L 340.828367 60.106212 
L 341.292959 60.442182 
L 348.383946 65.529451 
" style="fill:none;stroke:#999999;"/>
    <path clip-path="url(#p6e05cc5cbb)" d="M 548.524904 174.309207 
L 549.64469 175.616816 
L 551.118877 176.489192 
L 552.205903 176.714445 
" style="fill:none;stroke:#999999;"/>
    <path clip-path="url(#p6e05cc5cbb)" d="M 548.524904 174.309207 
L 548.026063 176.58082 
L 547.140061 178.703538 
L 545.886258 180.726993 
" style="fill:none;stroke:#999999;"/>
    <path clip-path="url(#p6e05cc5cbb)" d="M 552.205903 176.714445 
L 552.795578 176.836616 
L 554.494615 176.622817 
" style="fill:none;stroke:#999999;"/>
    <path clip-path="url(#p6e05cc5cbb)" d="M 519.744013 146.049568 
L 512.027613 140.061289 
" style="fill:none;stroke:#999999;"/>
    <path clip-path="url(#p6e05cc5cbb)" d="M 519.744013 146.049568 
L 531.652166 155.288737 
L 544.410582 164.905871 
" style="fill:none;stroke:#999999;"/>
    <path clip-path="url(#p6e05cc5cbb)" d="M 519.744013 146.049568 
L 517.456789 142.812041 
L 517.108345 140.065107 
L 517.942229 137.354442 
L 519.688917 136.201455 
" style="fill:none;stroke:#999999;"/>
    <path clip-path="url(#p6e05cc5cbb)" d="M 498.90884 137.386893 
L 507.427852 136.49161 
" style="fill:none;stroke:#999999;"/>
    <path clip-path="url(#p6e05cc5cbb)" d="M 498.90884 137.386893 
L 497.297658 137.556787 
L 496.917943 137.598783 
" style="fill:none;stroke:#999999;"/>
    <path clip-path="url(#p6e05cc5cbb)" d="M 498.90884 137.386893 
L 504.034244 137.631235 
L 508.068156 138.467342 
L 512.027613 140.061289 
" style="fill:none;stroke:#999999;"/>
    <path clip-path="url(#p6e05cc5cbb)" d="M 512.027613 140.061289 
L 507.427852 136.49161 
" style="fill:none;stroke:#999999;"/>
    <path clip-path="url(#p6e05cc5cbb)" d="M 512.027613 140.061289 
L 519.744013 146.049568 
" style="fill:none;stroke:#999999;"/>
    <path clip-path="url(#p6e05cc5cbb)" d="M 514.569468 136.321717 
L 507.427852 136.49161 
" style="fill:none;stroke:#999999;"/>
    <path clip-path="url(#p6e05cc5cbb)" d="M 514.569468 136.321717 
L 519.688917 136.201455 
" style="fill:none;stroke:#999999;"/>
    <path clip-path="url(#p6e05cc5cbb)" d="M 514.569468 136.321717 
L 510.188602 135.684138 
L 506.503135 134.433796 
L 502.801288 133.005924 
" style="fill:none;stroke:#999999;"/>
    <path clip-path="url(#p6e05cc5cbb)" d="M 502.801288 133.005924 
L 496.127243 127.975922 
" style="fill:none;stroke:#999999;"/>
    <path clip-path="url(#p6e05cc5cbb)" d="M 502.801288 133.005924 
L 507.427852 136.49161 
" style="fill:none;stroke:#999999;"/>
    <path clip-path="url(#p6e05cc5cbb)" d="M 496.127243 127.975922 
L 502.801288 133.005924 
" style="fill:none;stroke:#999999;"/>
    <path clip-path="url(#p6e05cc5cbb)" d="M 496.127243 127.975922 
L 457.094053 98.55757 
L 443.588119 88.379213 
" style="fill:none;stroke:#999999;"/>
    <path clip-path="url(#p6e05cc5cbb)" d="M 496.127243 127.975922 
L 497.949874 130.121547 
L 499.202188 132.278626 
L 499.236437 135.094282 
L 498.785246 136.483975 
L 496.917943 137.598783 
" style="fill:none;stroke:#999999;"/>
    <path clip-path="url(#p6e05cc5cbb)" d="M 496.917943 137.598783 
L 492.307759 137.883212 
L 484.756646 138.925482 
L 474.48499 140.691232 
L 448.831161 144.787773 
L 442.542787 145.673511 
L 438.913905 145.791864 
L 434.524104 145.642968 
" style="fill:none;stroke:#999999;"/>
    <path clip-path="url(#p6e05cc5cbb)" d="M 496.917943 137.598783 
L 497.297658 137.556787 
L 498.90884 137.386893 
" style="fill:none;stroke:#999999;"/>
    <path clip-path="url(#p6e05cc5cbb)" d="M 334.246644 85.773539 
L 333.645057 90.396941 
" style="fill:none;stroke:#999999;"/>
    <path clip-path="url(#p6e05cc5cbb)" d="M 334.246644 85.773539 
L 334.927152 80.350299 
" style="fill:none;stroke:#999999;"/>
    <path clip-path="url(#p6e05cc5cbb)" d="M 334.246644 85.773539 
L 331.479938 86.748996 
L 328.606018 89.291676 
" style="fill:none;stroke:#999999;"/>
    <path clip-path="url(#p6e05cc5cbb)" d="M 333.645057 90.396941 
L 328.606018 89.291676 
" style="fill:none;stroke:#999999;"/>
    <path clip-path="url(#p6e05cc5cbb)" d="M 333.645057 90.396941 
L 334.246644 85.773539 
" style="fill:none;stroke:#999999;"/>
    <path clip-path="url(#p6e05cc5cbb)" d="M 333.645057 90.396941 
L 334.22133 97.994439 
L 334.361303 102.148247 
L 334.861633 105.685474 
L 335.190719 106.952996 
" style="fill:none;stroke:#999999;"/>
    <path clip-path="url(#p6e05cc5cbb)" d="M 333.645057 90.396941 
L 340.118077 90.87417 
L 343.017311 90.370216 
L 346.401984 89.127509 
L 352.907764 88.20741 
" style="fill:none;stroke:#999999;"/>
   </g>
  </g>
 </g>
 <defs>
  <clipPath id="p6e05cc5cbb">
   <rect height="432" width="542.685498" x="76.504385" y="0"/>
  </clipPath>
 </defs>
</svg>
