<?xml version="1.0" encoding="utf-8" standalone="no"?>
<!DOCTYPE svg PUBLIC "-//W3C//DTD SVG 1.1//EN"
  "http://www.w3.org/Graphics/SVG/1.1/DTD/svg11.dtd">
<!-- Created with matplotlib (http://matplotlib.org/) -->
<svg height="432pt" version="1.1" viewBox="0 0 665.195708 432" width="665.195708pt" xmlns="http://www.w3.org/2000/svg" xmlns:xlink="http://www.w3.org/1999/xlink">
 <defs>
  <style type="text/css">
*{stroke-linecap:butt;stroke-linejoin:round;}
  </style>
 </defs>
 <g id="figure_1">
  <g id="patch_1">
   <path d="M 0 432 
L 665.195708 432 
L 665.195708 0 
L 0 0 
z
" style="fill:none;opacity:0;"/>
  </g>
  <g id="axes_1">
   <g id="PathCollection_1">
    <defs>
     <path d="M 0 1.936492 
C 0.513564 1.936492 1.006162 1.732451 1.369306 1.369306 
C 1.732451 1.006162 1.936492 0.513564 1.936492 0 
C 1.936492 -0.513564 1.732451 -1.006162 1.369306 -1.369306 
C 1.006162 -1.732451 0.513564 -1.936492 0 -1.936492 
C -0.513564 -1.936492 -1.006162 -1.732451 -1.369306 -1.369306 
C -1.732451 -1.006162 -1.936492 -0.513564 -1.936492 0 
C -1.936492 0.513564 -1.732451 1.006162 -1.369306 1.369306 
C -1.006162 1.732451 -0.513564 1.936492 0 1.936492 
z
" id="C0_0_119639801d"/>
    </defs>
    <g clip-path="url(#pc66e56f170)">
     <use style="fill:#66ccff;" x="160.501169" xlink:href="#C0_0_119639801d" y="295.432669"/>
    </g>
    <g clip-path="url(#pc66e56f170)">
     <use style="fill:#66ccff;" x="458.844537" xlink:href="#C0_0_119639801d" y="358.491562"/>
    </g>
    <g clip-path="url(#pc66e56f170)">
     <use style="fill:#66ccff;" x="359.617728" xlink:href="#C0_0_119639801d" y="355.734234"/>
    </g>
    <g clip-path="url(#pc66e56f170)">
     <use style="fill:#66ccff;" x="180.177464" xlink:href="#C0_0_119639801d" y="335.471191"/>
    </g>
    <g clip-path="url(#pc66e56f170)">
     <use style="fill:#66ccff;" x="179.061873" xlink:href="#C0_0_119639801d" y="336.00264"/>
    </g>
    <g clip-path="url(#pc66e56f170)">
     <use style="fill:#66ccff;" x="352.556066" xlink:href="#C0_0_119639801d" y="355.604716"/>
    </g>
    <g clip-path="url(#pc66e56f170)">
     <use style="fill:#66ccff;" x="171.752857" xlink:href="#C0_0_119639801d" y="295.181662"/>
    </g>
    <g clip-path="url(#pc66e56f170)">
     <use style="fill:#66ccff;" x="107.250955" xlink:href="#C0_0_119639801d" y="406.026569"/>
    </g>
    <g clip-path="url(#pc66e56f170)">
     <use style="fill:#66ccff;" x="106.652142" xlink:href="#C0_0_119639801d" y="414.369735"/>
    </g>
    <g clip-path="url(#pc66e56f170)">
     <use style="fill:#66ccff;" x="192.21119" xlink:href="#C0_0_119639801d" y="333.150047"/>
    </g>
    <g clip-path="url(#pc66e56f170)">
     <use style="fill:#66ccff;" x="173.849951" xlink:href="#C0_0_119639801d" y="333.039797"/>
    </g>
    <g clip-path="url(#pc66e56f170)">
     <use style="fill:#66ccff;" x="346.852768" xlink:href="#C0_0_119639801d" y="354.987636"/>
    </g>
    <g clip-path="url(#pc66e56f170)">
     <use style="fill:#66ccff;" x="340.812169" xlink:href="#C0_0_119639801d" y="354.928229"/>
    </g>
    <g clip-path="url(#pc66e56f170)">
     <use style="fill:#66ccff;" x="179.007322" xlink:href="#C0_0_119639801d" y="330.181317"/>
    </g>
    <g clip-path="url(#pc66e56f170)">
     <use style="fill:#66ccff;" x="183.155289" xlink:href="#C0_0_119639801d" y="309.465499"/>
    </g>
    <g clip-path="url(#pc66e56f170)">
     <use style="fill:#66ccff;" x="160.425797" xlink:href="#C0_0_119639801d" y="297.242701"/>
    </g>
    <g clip-path="url(#pc66e56f170)">
     <use style="fill:#66ccff;" x="187.530621" xlink:href="#C0_0_119639801d" y="332.522798"/>
    </g>
    <g clip-path="url(#pc66e56f170)">
     <use style="fill:#66ccff;" x="338.591397" xlink:href="#C0_0_119639801d" y="354.700771"/>
    </g>
    <g clip-path="url(#pc66e56f170)">
     <use style="fill:#66ccff;" x="175.670959" xlink:href="#C0_0_119639801d" y="327.038113"/>
    </g>
    <g clip-path="url(#pc66e56f170)">
     <use style="fill:#66ccff;" x="174.647397" xlink:href="#C0_0_119639801d" y="326.568746"/>
    </g>
    <g clip-path="url(#pc66e56f170)">
     <use style="fill:#66ccff;" x="520.658027" xlink:href="#C0_0_119639801d" y="294.113412"/>
    </g>
    <g clip-path="url(#pc66e56f170)">
     <use style="fill:#66ccff;" x="174.064825" xlink:href="#C0_0_119639801d" y="325.199716"/>
    </g>
    <g clip-path="url(#pc66e56f170)">
     <use style="fill:#66ccff;" x="177.718083" xlink:href="#C0_0_119639801d" y="299.988789"/>
    </g>
    <g clip-path="url(#pc66e56f170)">
     <use style="fill:#66ccff;" x="180.585973" xlink:href="#C0_0_119639801d" y="298.172871"/>
    </g>
    <g clip-path="url(#pc66e56f170)">
     <use style="fill:#66ccff;" x="163.187083" xlink:href="#C0_0_119639801d" y="297.828205"/>
    </g>
    <g clip-path="url(#pc66e56f170)">
     <use style="fill:#66ccff;" x="170.790509" xlink:href="#C0_0_119639801d" y="310.383895"/>
    </g>
    <g clip-path="url(#pc66e56f170)">
     <use style="fill:#66ccff;" x="249.82466" xlink:href="#C0_0_119639801d" y="336.968133"/>
    </g>
    <g clip-path="url(#pc66e56f170)">
     <use style="fill:#66ccff;" x="425.065322" xlink:href="#C0_0_119639801d" y="359.52556"/>
    </g>
    <g clip-path="url(#pc66e56f170)">
     <use style="fill:#66ccff;" x="182.382412" xlink:href="#C0_0_119639801d" y="288.712752"/>
    </g>
    <g clip-path="url(#pc66e56f170)">
     <use style="fill:#66ccff;" x="147.650426" xlink:href="#C0_0_119639801d" y="307.468684"/>
    </g>
    <g clip-path="url(#pc66e56f170)">
     <use style="fill:#66ccff;" x="453.141655" xlink:href="#C0_0_119639801d" y="361.01608"/>
    </g>
    <g clip-path="url(#pc66e56f170)">
     <use style="fill:#66ccff;" x="427.48306" xlink:href="#C0_0_119639801d" y="359.982082"/>
    </g>
    <g clip-path="url(#pc66e56f170)">
     <use style="fill:#66ccff;" x="183.261059" xlink:href="#C0_0_119639801d" y="312.353415"/>
    </g>
    <g clip-path="url(#pc66e56f170)">
     <use style="fill:#66ccff;" x="181.156469" xlink:href="#C0_0_119639801d" y="312.782642"/>
    </g>
    <g clip-path="url(#pc66e56f170)">
     <use style="fill:#66ccff;" x="177.765139" xlink:href="#C0_0_119639801d" y="311.978778"/>
    </g>
    <g clip-path="url(#pc66e56f170)">
     <use style="fill:#66ccff;" x="186.464584" xlink:href="#C0_0_119639801d" y="311.796276"/>
    </g>
    <g clip-path="url(#pc66e56f170)">
     <use style="fill:#66ccff;" x="180.90745" xlink:href="#C0_0_119639801d" y="311.665153"/>
    </g>
    <g clip-path="url(#pc66e56f170)">
     <use style="fill:#66ccff;" x="180.851649" xlink:href="#C0_0_119639801d" y="311.413076"/>
    </g>
    <g clip-path="url(#pc66e56f170)">
     <use style="fill:#66ccff;" x="183.05743" xlink:href="#C0_0_119639801d" y="311.250376"/>
    </g>
    <g clip-path="url(#pc66e56f170)">
     <use style="fill:#66ccff;" x="462.174653" xlink:href="#C0_0_119639801d" y="350.168199"/>
    </g>
    <g clip-path="url(#pc66e56f170)">
     <use style="fill:#66ccff;" x="177.88715" xlink:href="#C0_0_119639801d" y="310.451865"/>
    </g>
    <g clip-path="url(#pc66e56f170)">
     <use style="fill:#66ccff;" x="180.554325" xlink:href="#C0_0_119639801d" y="310.078833"/>
    </g>
    <g clip-path="url(#pc66e56f170)">
     <use style="fill:#66ccff;" x="476.235098" xlink:href="#C0_0_119639801d" y="340.471524"/>
    </g>
    <g clip-path="url(#pc66e56f170)">
     <use style="fill:#66ccff;" x="478.310539" xlink:href="#C0_0_119639801d" y="337.968414"/>
    </g>
    <g clip-path="url(#pc66e56f170)">
     <use style="fill:#66ccff;" x="182.735537" xlink:href="#C0_0_119639801d" y="309.506709"/>
    </g>
    <g clip-path="url(#pc66e56f170)">
     <use style="fill:#66ccff;" x="98.103441" xlink:href="#C0_0_119639801d" y="402.00725"/>
    </g>
    <g clip-path="url(#pc66e56f170)">
     <use style="fill:#66ccff;" x="173.842872" xlink:href="#C0_0_119639801d" y="303.480406"/>
    </g>
    <g clip-path="url(#pc66e56f170)">
     <use style="fill:#66ccff;" x="177.494882" xlink:href="#C0_0_119639801d" y="310.475413"/>
    </g>
    <g clip-path="url(#pc66e56f170)">
     <use style="fill:#66ccff;" x="170.832567" xlink:href="#C0_0_119639801d" y="303.291482"/>
    </g>
    <g clip-path="url(#pc66e56f170)">
     <use style="fill:#66ccff;" x="178.824513" xlink:href="#C0_0_119639801d" y="303.153937"/>
    </g>
    <g clip-path="url(#pc66e56f170)">
     <use style="fill:#66ccff;" x="170.750949" xlink:href="#C0_0_119639801d" y="308.634875"/>
    </g>
    <g clip-path="url(#pc66e56f170)">
     <use style="fill:#66ccff;" x="156.683008" xlink:href="#C0_0_119639801d" y="308.403671"/>
    </g>
    <g clip-path="url(#pc66e56f170)">
     <use style="fill:#66ccff;" x="171.816153" xlink:href="#C0_0_119639801d" y="301.998449"/>
    </g>
    <g clip-path="url(#pc66e56f170)">
     <use style="fill:#66ccff;" x="168.20412" xlink:href="#C0_0_119639801d" y="297.813754"/>
    </g>
    <g clip-path="url(#pc66e56f170)">
     <use style="fill:#66ccff;" x="178.636708" xlink:href="#C0_0_119639801d" y="297.752742"/>
    </g>
    <g clip-path="url(#pc66e56f170)">
     <use style="fill:#66ccff;" x="165.399942" xlink:href="#C0_0_119639801d" y="301.067744"/>
    </g>
    <g clip-path="url(#pc66e56f170)">
     <use style="fill:#66ccff;" x="157.789438" xlink:href="#C0_0_119639801d" y="300.776597"/>
    </g>
    <g clip-path="url(#pc66e56f170)">
     <use style="fill:#66ccff;" x="176.813618" xlink:href="#C0_0_119639801d" y="304.030587"/>
    </g>
    <g clip-path="url(#pc66e56f170)">
     <use style="fill:#66ccff;" x="186.329247" xlink:href="#C0_0_119639801d" y="301.985069"/>
    </g>
    <g clip-path="url(#pc66e56f170)">
     <use style="fill:#66ccff;" x="169.066527" xlink:href="#C0_0_119639801d" y="300.439959"/>
    </g>
    <g clip-path="url(#pc66e56f170)">
     <use style="fill:#66ccff;" x="173.172851" xlink:href="#C0_0_119639801d" y="299.725473"/>
    </g>
    <g clip-path="url(#pc66e56f170)">
     <use style="fill:#66ccff;" x="169.26391" xlink:href="#C0_0_119639801d" y="297.957187"/>
    </g>
    <g clip-path="url(#pc66e56f170)">
     <use style="fill:#66ccff;" x="168.352782" xlink:href="#C0_0_119639801d" y="297.830881"/>
    </g>
    <g clip-path="url(#pc66e56f170)">
     <use style="fill:#66ccff;" x="164.672872" xlink:href="#C0_0_119639801d" y="297.872626"/>
    </g>
    <g clip-path="url(#pc66e56f170)">
     <use style="fill:#66ccff;" x="157.36802" xlink:href="#C0_0_119639801d" y="297.13245"/>
    </g>
    <g clip-path="url(#pc66e56f170)">
     <use style="fill:#66ccff;" x="168.446476" xlink:href="#C0_0_119639801d" y="296.31039"/>
    </g>
    <g clip-path="url(#pc66e56f170)">
     <use style="fill:#66ccff;" x="168.083774" xlink:href="#C0_0_119639801d" y="8.307692"/>
    </g>
    <g clip-path="url(#pc66e56f170)">
     <use style="fill:#66ccff;" x="96.810871" xlink:href="#C0_0_119639801d" y="405.703311"/>
    </g>
    <g clip-path="url(#pc66e56f170)">
     <use style="fill:#66ccff;" x="183.523821" xlink:href="#C0_0_119639801d" y="292.614328"/>
    </g>
    <g clip-path="url(#pc66e56f170)">
     <use style="fill:#66ccff;" x="163.142526" xlink:href="#C0_0_119639801d" y="293.694889"/>
    </g>
    <g clip-path="url(#pc66e56f170)">
     <use style="fill:#66ccff;" x="160.220085" xlink:href="#C0_0_119639801d" y="293.368419"/>
    </g>
    <g clip-path="url(#pc66e56f170)">
     <use style="fill:#66ccff;" x="108.316159" xlink:href="#C0_0_119639801d" y="411.004959"/>
    </g>
    <g clip-path="url(#pc66e56f170)">
     <use style="fill:#66ccff;" x="154.837431" xlink:href="#C0_0_119639801d" y="310.118973"/>
    </g>
    <g clip-path="url(#pc66e56f170)">
     <use style="fill:#66ccff;" x="167.590315" xlink:href="#C0_0_119639801d" y="293.36949"/>
    </g>
    <g clip-path="url(#pc66e56f170)">
     <use style="fill:#66ccff;" x="352.410318" xlink:href="#C0_0_119639801d" y="355.598294"/>
    </g>
    <g clip-path="url(#pc66e56f170)">
     <use style="fill:#66ccff;" x="167.909294" xlink:href="#C0_0_119639801d" y="293.26031"/>
    </g>
    <g clip-path="url(#pc66e56f170)">
     <use style="fill:#66ccff;" x="186.828952" xlink:href="#C0_0_119639801d" y="299.492663"/>
    </g>
    <g clip-path="url(#pc66e56f170)">
     <use style="fill:#66ccff;" x="148.201767" xlink:href="#C0_0_119639801d" y="306.219002"/>
    </g>
    <g clip-path="url(#pc66e56f170)">
     <use style="fill:#66ccff;" x="171.137803" xlink:href="#C0_0_119639801d" y="290.595035"/>
    </g>
    <g clip-path="url(#pc66e56f170)">
     <use style="fill:#66ccff;" x="95.921813" xlink:href="#C0_0_119639801d" y="409.141943"/>
    </g>
    <g clip-path="url(#pc66e56f170)">
     <use style="fill:#66ccff;" x="163.568524" xlink:href="#C0_0_119639801d" y="302.364523"/>
    </g>
    <g clip-path="url(#pc66e56f170)">
     <use style="fill:#66ccff;" x="161.687135" xlink:href="#C0_0_119639801d" y="301.259344"/>
    </g>
    <g clip-path="url(#pc66e56f170)">
     <use style="fill:#66ccff;" x="150.33509" xlink:href="#C0_0_119639801d" y="308.97633"/>
    </g>
    <g clip-path="url(#pc66e56f170)">
     <use style="fill:#66ccff;" x="163.623492" xlink:href="#C0_0_119639801d" y="301.154981"/>
    </g>
    <g clip-path="url(#pc66e56f170)">
     <use style="fill:#66ccff;" x="171.531321" xlink:href="#C0_0_119639801d" y="300.594096"/>
    </g>
    <g clip-path="url(#pc66e56f170)">
     <use style="fill:#66ccff;" x="154.479309" xlink:href="#C0_0_119639801d" y="297.578803"/>
    </g>
    <g clip-path="url(#pc66e56f170)">
     <use style="fill:#66ccff;" x="156.450229" xlink:href="#C0_0_119639801d" y="300.651897"/>
    </g>
    <g clip-path="url(#pc66e56f170)">
     <use style="fill:#66ccff;" x="167.403342" xlink:href="#C0_0_119639801d" y="296.24349"/>
    </g>
    <g clip-path="url(#pc66e56f170)">
     <use style="fill:#66ccff;" x="581.429632" xlink:href="#C0_0_119639801d" y="230.787991"/>
    </g>
    <g clip-path="url(#pc66e56f170)">
     <use style="fill:#66ccff;" x="167.522439" xlink:href="#C0_0_119639801d" y="294.704803"/>
    </g>
    <g clip-path="url(#pc66e56f170)">
     <use style="fill:#66ccff;" x="181.61828" xlink:href="#C0_0_119639801d" y="301.371735"/>
    </g>
    <g clip-path="url(#pc66e56f170)">
     <use style="fill:#66ccff;" x="166.68585" xlink:href="#C0_0_119639801d" y="294.631481"/>
    </g>
    <g clip-path="url(#pc66e56f170)">
     <use style="fill:#66ccff;" x="175.34865" xlink:href="#C0_0_119639801d" y="291.914293"/>
    </g>
    <g clip-path="url(#pc66e56f170)">
     <use style="fill:#66ccff;" x="177.803033" xlink:href="#C0_0_119639801d" y="300.006986"/>
    </g>
    <g clip-path="url(#pc66e56f170)">
     <use style="fill:#66ccff;" x="184.941733" xlink:href="#C0_0_119639801d" y="299.121772"/>
    </g>
    <g clip-path="url(#pc66e56f170)">
     <use style="fill:#66ccff;" x="169.923937" xlink:href="#C0_0_119639801d" y="298.042818"/>
    </g>
    <g clip-path="url(#pc66e56f170)">
     <use style="fill:#66ccff;" x="105.597765" xlink:href="#C0_0_119639801d" y="409.752066"/>
    </g>
    <g clip-path="url(#pc66e56f170)">
     <use style="fill:#66ccff;" x="162.031932" xlink:href="#C0_0_119639801d" y="297.790206"/>
    </g>
    <g clip-path="url(#pc66e56f170)">
     <use style="fill:#66ccff;" x="183.821978" xlink:href="#C0_0_119639801d" y="308.75797"/>
    </g>
    <g clip-path="url(#pc66e56f170)">
     <use style="fill:#66ccff;" x="109.768218" xlink:href="#C0_0_119639801d" y="407.030061"/>
    </g>
    <g clip-path="url(#pc66e56f170)">
     <use style="fill:#66ccff;" x="146.770113" xlink:href="#C0_0_119639801d" y="280.396347"/>
    </g>
    <g clip-path="url(#pc66e56f170)">
     <use style="fill:#66ccff;" x="163.535211" xlink:href="#C0_0_119639801d" y="295.666014"/>
    </g>
    <g clip-path="url(#pc66e56f170)">
     <use style="fill:#66ccff;" x="104.100316" xlink:href="#C0_0_119639801d" y="413.126475"/>
    </g>
    <g clip-path="url(#pc66e56f170)">
     <use style="fill:#66ccff;" x="171.590453" xlink:href="#C0_0_119639801d" y="296.457033"/>
    </g>
    <g clip-path="url(#pc66e56f170)">
     <use style="fill:#66ccff;" x="187.154177" xlink:href="#C0_0_119639801d" y="297.06341"/>
    </g>
    <g clip-path="url(#pc66e56f170)">
     <use style="fill:#66ccff;" x="352.395327" xlink:href="#C0_0_119639801d" y="356.637109"/>
    </g>
    <g clip-path="url(#pc66e56f170)">
     <use style="fill:#66ccff;" x="352.474447" xlink:href="#C0_0_119639801d" y="356.564322"/>
    </g>
    <g clip-path="url(#pc66e56f170)">
     <use style="fill:#66ccff;" x="170.927927" xlink:href="#C0_0_119639801d" y="296.324305"/>
    </g>
    <g clip-path="url(#pc66e56f170)">
     <use style="fill:#66ccff;" x="185.422699" xlink:href="#C0_0_119639801d" y="296.668971"/>
    </g>
    <g clip-path="url(#pc66e56f170)">
     <use style="fill:#66ccff;" x="352.478195" xlink:href="#C0_0_119639801d" y="355.650208"/>
    </g>
    <g clip-path="url(#pc66e56f170)">
     <use style="fill:#66ccff;" x="182.81424" xlink:href="#C0_0_119639801d" y="296.178196"/>
    </g>
    <g clip-path="url(#pc66e56f170)">
     <use style="fill:#66ccff;" x="354.439537" xlink:href="#C0_0_119639801d" y="391.902756"/>
    </g>
    <g clip-path="url(#pc66e56f170)">
     <use style="fill:#66ccff;" x="163.066737" xlink:href="#C0_0_119639801d" y="295.480836"/>
    </g>
    <g clip-path="url(#pc66e56f170)">
     <use style="fill:#66ccff;" x="168.788358" xlink:href="#C0_0_119639801d" y="301.080053"/>
    </g>
    <g clip-path="url(#pc66e56f170)">
     <use style="fill:#66ccff;" x="181.500433" xlink:href="#C0_0_119639801d" y="292.440925"/>
    </g>
    <g clip-path="url(#pc66e56f170)">
     <use style="fill:#66ccff;" x="352.464037" xlink:href="#C0_0_119639801d" y="388.601134"/>
    </g>
    <g clip-path="url(#pc66e56f170)">
     <use style="fill:#66ccff;" x="351.391753" xlink:href="#C0_0_119639801d" y="388.576515"/>
    </g>
    <g clip-path="url(#pc66e56f170)">
     <use style="fill:#66ccff;" x="350.391094" xlink:href="#C0_0_119639801d" y="388.453955"/>
    </g>
    <g clip-path="url(#pc66e56f170)">
     <use style="fill:#66ccff;" x="178.991914" xlink:href="#C0_0_119639801d" y="295.850657"/>
    </g>
    <g clip-path="url(#pc66e56f170)">
     <use style="fill:#66ccff;" x="352.408653" xlink:href="#C0_0_119639801d" y="356.838878"/>
    </g>
    <g clip-path="url(#pc66e56f170)">
     <use style="fill:#66ccff;" x="369.733004" xlink:href="#C0_0_119639801d" y="356.58573"/>
    </g>
    <g clip-path="url(#pc66e56f170)">
     <use style="fill:#66ccff;" x="351.978907" xlink:href="#C0_0_119639801d" y="387.609417"/>
    </g>
    <g clip-path="url(#pc66e56f170)">
     <use style="fill:#66ccff;" x="365.007461" xlink:href="#C0_0_119639801d" y="356.349709"/>
    </g>
    <g clip-path="url(#pc66e56f170)">
     <use style="fill:#66ccff;" x="155.070627" xlink:href="#C0_0_119639801d" y="294.466105"/>
    </g>
    <g clip-path="url(#pc66e56f170)">
     <use style="fill:#66ccff;" x="155.41001" xlink:href="#C0_0_119639801d" y="297.41878"/>
    </g>
    <g clip-path="url(#pc66e56f170)">
     <use style="fill:#66ccff;" x="182.322031" xlink:href="#C0_0_119639801d" y="298.530381"/>
    </g>
   </g>
   <g id="LineCollection_1">
    <path clip-path="url(#pc66e56f170)" d="M 160.501169 295.432669 
L 160.425797 297.242701 
" style="fill:none;stroke:#999999;"/>
    <path clip-path="url(#pc66e56f170)" d="M 160.501169 295.432669 
L 162.714862 295.327235 
L 163.066737 295.480836 
" style="fill:none;stroke:#999999;"/>
    <path clip-path="url(#pc66e56f170)" d="M 160.501169 295.432669 
L 160.337516 294.268618 
L 160.220085 293.368419 
" style="fill:none;stroke:#999999;"/>
    <path clip-path="url(#pc66e56f170)" d="M 458.844537 358.491562 
L 462.302078 354.973186 
L 464.919698 352.180535 
L 470.315678 346.688357 
L 474.58399 342.176657 
L 476.235098 340.471524 
" style="fill:none;stroke:#999999;"/>
    <path clip-path="url(#pc66e56f170)" d="M 458.844537 358.491562 
L 457.17469 359.471505 
L 454.704898 360.559558 
L 453.141655 361.01608 
" style="fill:none;stroke:#999999;"/>
    <path clip-path="url(#pc66e56f170)" d="M 359.617728 355.734234 
L 358.801543 355.670545 
L 346.852768 354.987636 
" style="fill:none;stroke:#999999;"/>
    <path clip-path="url(#pc66e56f170)" d="M 359.617728 355.734234 
L 357.95496 355.777049 
L 355.027523 355.602576 
L 353.007466 355.494466 
L 352.870463 355.479481 
L 352.767191 355.476269 
L 352.675995 355.528183 
L 352.556066 355.604716 
" style="fill:none;stroke:#999999;"/>
    <path clip-path="url(#pc66e56f170)" d="M 180.177464 335.471191 
L 179.061873 336.00264 
" style="fill:none;stroke:#999999;"/>
    <path clip-path="url(#pc66e56f170)" d="M 180.177464 335.471191 
L 182.518581 334.275029 
L 185.347744 333.477052 
L 188.151504 333.091176 
L 192.21119 333.150047 
" style="fill:none;stroke:#999999;"/>
    <path clip-path="url(#pc66e56f170)" d="M 179.061873 336.00264 
L 180.177464 335.471191 
" style="fill:none;stroke:#999999;"/>
    <path clip-path="url(#pc66e56f170)" d="M 179.061873 336.00264 
L 178.85283 336.101651 
L 177.669779 336.371925 
L 176.653712 336.243478 
L 175.406116 335.406968 
L 174.531632 334.429165 
L 173.849951 333.039797 
" style="fill:none;stroke:#999999;"/>
    <path clip-path="url(#pc66e56f170)" d="M 179.061873 336.00264 
L 181.039455 337.028075 
L 182.11965 337.144213 
L 183.148626 336.552286 
L 184.781828 335.432657 
L 187.045491 334.596681 
L 188.936041 334.519613 
L 191.109757 335.458346 
L 191.855566 336.179255 
L 191.980493 336.609552 
L 192.541828 344.553461 
L 193.255989 346.050404 
L 198.22139 353.195266 
L 202.761625 358.043068 
L 205.142302 360.067713 
L 206.575622 360.628598 
L 246.46706 367.425048 
L 267.92397 376.012262 
L 284.033622 379.185972 
L 285.844635 379.518864 
L 328.362023 388.538516 
L 331.263226 389.104218 
L 333.312015 389.251932 
L 336.039155 389.033037 
L 339.427986 388.425055 
L 344.711116 387.638852 
L 347.390783 387.523785 
L 349.181809 388.005461 
L 350.391094 388.453955 
" style="fill:none;stroke:#999999;"/>
    <path clip-path="url(#pc66e56f170)" d="M 352.556066 355.604716 
L 352.478195 355.650208 
" style="fill:none;stroke:#999999;"/>
    <path clip-path="url(#pc66e56f170)" d="M 352.556066 355.604716 
L 360.274007 356.113687 
L 365.007461 356.349709 
" style="fill:none;stroke:#999999;"/>
    <path clip-path="url(#pc66e56f170)" d="M 171.752857 295.181662 
L 171.590453 296.457033 
" style="fill:none;stroke:#999999;"/>
    <path clip-path="url(#pc66e56f170)" d="M 171.752857 295.181662 
L 172.711041 295.164536 
L 173.586357 294.87553 
L 173.976127 294.782941 
L 175.899158 295.371121 
L 178.065378 295.689563 
L 178.991914 295.850657 
" style="fill:none;stroke:#999999;"/>
    <path clip-path="url(#pc66e56f170)" d="M 171.752857 295.181662 
L 171.921507 294.165861 
L 171.866956 294.007443 
L 171.234413 293.80835 
L 170.573553 293.665453 
L 170.023045 293.50864 
L 168.869143 293.033387 
L 168.217029 293.218029 
L 167.909294 293.26031 
" style="fill:none;stroke:#999999;"/>
    <path clip-path="url(#pc66e56f170)" d="M 107.250955 406.026569 
L 105.597765 409.752066 
" style="fill:none;stroke:#999999;"/>
    <path clip-path="url(#pc66e56f170)" d="M 106.652142 414.369735 
L 104.100316 413.126475 
" style="fill:none;stroke:#999999;"/>
    <path clip-path="url(#pc66e56f170)" d="M 106.652142 414.369735 
L 108.316159 411.004959 
" style="fill:none;stroke:#999999;"/>
    <path clip-path="url(#pc66e56f170)" d="M 106.652142 414.369735 
L 108.841265 415.186443 
L 111.887799 416.323199 
L 110.030979 418.617047 
L 111.735806 421.012583 
L 114.103157 422.356995 
L 123.523427 423.692308 
L 125.436463 422.491864 
L 129.682705 416.553333 
L 132.70592 413.539646 
L 137.245738 410.995861 
L 141.729757 409.080931 
L 145.689501 407.99823 
L 148.903853 408.731448 
L 149.775421 408.543059 
L 150.456685 407.543849 
L 152.397622 405.948966 
L 154.769555 401.048715 
L 154.996504 397.324288 
L 158.945838 395.007961 
L 160.943408 388.240412 
L 165.755982 380.110255 
L 169.713645 365.001682 
L 171.203598 362.488403 
L 172.314608 351.340813 
L 172.728947 347.134175 
L 172.337928 342.807653 
L 173.061251 336.006922 
L 173.216576 334.17013 
L 173.849951 333.039797 
" style="fill:none;stroke:#999999;"/>
    <path clip-path="url(#pc66e56f170)" d="M 192.21119 333.150047 
L 187.530621 332.522798 
" style="fill:none;stroke:#999999;"/>
    <path clip-path="url(#pc66e56f170)" d="M 192.21119 333.150047 
L 194.095493 333.314353 
L 198.043162 333.357168 
L 202.873642 333.137738 
L 210.756486 332.436632 
L 216.219926 332.10481 
L 218.281208 332.120866 
L 224.86482 332.725637 
L 228.40856 333.405336 
L 239.914264 336.295392 
L 243.399705 336.868052 
L 249.82466 336.968133 
" style="fill:none;stroke:#999999;"/>
    <path clip-path="url(#pc66e56f170)" d="M 173.849951 333.039797 
L 173.216576 334.17013 
L 173.061251 336.006922 
L 172.337928 342.807653 
L 172.728947 347.134175 
L 172.314608 351.340813 
L 171.203598 362.488403 
L 169.713645 365.001682 
L 165.755982 380.110255 
L 160.943408 388.240412 
L 158.945838 395.007961 
L 154.996504 397.324288 
L 154.769555 401.048715 
L 152.397622 405.948966 
L 150.456685 407.543849 
L 149.775421 408.543059 
L 148.903853 408.731448 
L 145.689501 407.99823 
L 141.729757 409.080931 
L 137.245738 410.995861 
L 132.70592 413.539646 
L 129.682705 416.553333 
L 125.436463 422.491864 
L 123.523427 423.692308 
L 114.103157 422.356995 
L 111.735806 421.012583 
L 110.030979 418.617047 
L 111.887799 416.323199 
L 108.841265 415.186443 
L 106.652142 414.369735 
" style="fill:none;stroke:#999999;"/>
    <path clip-path="url(#pc66e56f170)" d="M 173.849951 333.039797 
L 174.531632 334.429165 
L 175.406116 335.406968 
L 176.653712 336.243478 
L 177.669779 336.371925 
L 178.85283 336.101651 
L 179.061873 336.00264 
" style="fill:none;stroke:#999999;"/>
    <path clip-path="url(#pc66e56f170)" d="M 173.849951 333.039797 
L 173.554293 331.431534 
L 173.605513 329.952253 
L 174.029845 328.704177 
L 174.505814 327.610772 
L 174.66572 327.011888 
L 174.647397 326.568746 
" style="fill:none;stroke:#999999;"/>
    <path clip-path="url(#pc66e56f170)" d="M 346.852768 354.987636 
L 345.709276 354.922342 
L 339.936853 354.65849 
L 338.591397 354.700771 
" style="fill:none;stroke:#999999;"/>
    <path clip-path="url(#pc66e56f170)" d="M 340.812169 354.928229 
L 341.936088 354.990312 
L 345.416533 355.194757 
L 352.410318 355.598294 
" style="fill:none;stroke:#999999;"/>
    <path clip-path="url(#pc66e56f170)" d="M 340.812169 354.928229 
L 343.004624 355.223657 
L 349.346711 355.620772 
L 350.879556 355.698911 
L 351.558738 355.76474 
L 352.015968 356.125997 
L 352.196278 356.411791 
L 352.242917 356.482972 
L 352.395327 356.637109 
" style="fill:none;stroke:#999999;"/>
    <path clip-path="url(#pc66e56f170)" d="M 179.007322 330.181317 
L 180.331956 331.238864 
L 180.846652 332.615387 
L 180.92369 333.387139 
L 180.782107 334.159426 
L 180.46063 334.841266 
L 180.177464 335.471191 
" style="fill:none;stroke:#999999;"/>
    <path clip-path="url(#pc66e56f170)" d="M 179.007322 330.181317 
L 173.774163 327.866061 
L 169.110251 325.056284 
L 165.562347 322.412417 
L 159.34935 317.081868 
L 153.556938 311.703152 
L 152.208567 310.54927 
L 151.974539 310.349107 
L 150.33509 308.97633 
" style="fill:none;stroke:#999999;"/>
    <path clip-path="url(#pc66e56f170)" d="M 179.007322 330.181317 
L 182.464863 331.425112 
L 186.287605 332.356352 
L 187.530621 332.522798 
" style="fill:none;stroke:#999999;"/>
    <path clip-path="url(#pc66e56f170)" d="M 183.155289 309.465499 
L 183.821978 308.75797 
" style="fill:none;stroke:#999999;"/>
    <path clip-path="url(#pc66e56f170)" d="M 183.155289 309.465499 
L 182.735537 309.506709 
" style="fill:none;stroke:#999999;"/>
    <path clip-path="url(#pc66e56f170)" d="M 183.155289 309.465499 
L 183.467188 309.551665 
L 184.360827 309.797855 
L 185.322758 310.71197 
L 186.271781 311.613239 
L 186.464584 311.796276 
" style="fill:none;stroke:#999999;"/>
    <path clip-path="url(#pc66e56f170)" d="M 160.425797 297.242701 
L 160.501169 295.432669 
" style="fill:none;stroke:#999999;"/>
    <path clip-path="url(#pc66e56f170)" d="M 160.425797 297.242701 
L 161.614678 297.640351 
L 162.031932 297.790206 
" style="fill:none;stroke:#999999;"/>
    <path clip-path="url(#pc66e56f170)" d="M 160.425797 297.242701 
L 159.980227 297.124422 
L 159.305209 297.09017 
L 157.36802 297.13245 
" style="fill:none;stroke:#999999;"/>
    <path clip-path="url(#pc66e56f170)" d="M 187.530621 332.522798 
L 192.21119 333.150047 
" style="fill:none;stroke:#999999;"/>
    <path clip-path="url(#pc66e56f170)" d="M 187.530621 332.522798 
L 185.383972 331.820621 
L 180.262414 329.868228 
L 177.587327 328.513112 
L 176.377625 327.675531 
L 175.670959 327.038113 
" style="fill:none;stroke:#999999;"/>
    <path clip-path="url(#pc66e56f170)" d="M 187.530621 332.522798 
L 186.287605 332.356352 
L 182.464863 331.425112 
L 179.007322 330.181317 
" style="fill:none;stroke:#999999;"/>
    <path clip-path="url(#pc66e56f170)" d="M 338.591397 354.700771 
L 324.85576 353.935441 
L 321.240396 353.540467 
L 320.004459 353.405597 
L 315.781953 352.559988 
L 311.192997 351.216647 
L 307.041282 349.530781 
L 280.865077 337.558454 
L 278.374881 336.643269 
L 275.872192 335.974275 
L 273.773432 335.60499 
L 272.463789 335.456741 
L 271.549745 335.353448 
L 268.963773 335.273169 
L 259.872476 336.310913 
L 253.577027 336.894811 
L 249.82466 336.968133 
" style="fill:none;stroke:#999999;"/>
    <path clip-path="url(#pc66e56f170)" d="M 338.591397 354.700771 
L 340.081351 354.888625 
L 340.812169 354.928229 
" style="fill:none;stroke:#999999;"/>
    <path clip-path="url(#pc66e56f170)" d="M 175.670959 327.038113 
L 174.66447 325.707081 
L 174.064825 325.199716 
" style="fill:none;stroke:#999999;"/>
    <path clip-path="url(#pc66e56f170)" d="M 175.670959 327.038113 
L 174.990528 326.692377 
L 174.647397 326.568746 
" style="fill:none;stroke:#999999;"/>
    <path clip-path="url(#pc66e56f170)" d="M 174.647397 326.568746 
L 174.506231 326.019101 
L 174.064825 325.199716 
" style="fill:none;stroke:#999999;"/>
    <path clip-path="url(#pc66e56f170)" d="M 174.647397 326.568746 
L 174.66572 327.011888 
L 174.505814 327.610772 
L 174.029845 328.704177 
L 173.605513 329.952253 
L 173.554293 331.431534 
L 173.849951 333.039797 
" style="fill:none;stroke:#999999;"/>
    <path clip-path="url(#pc66e56f170)" d="M 520.658027 294.113412 
L 482.404371 333.945883 
L 478.310539 337.968414 
" style="fill:none;stroke:#999999;"/>
    <path clip-path="url(#pc66e56f170)" d="M 520.658027 294.113412 
L 544.159562 269.643731 
L 552.917722 260.415887 
L 561.582605 251.504345 
L 567.412494 245.41917 
L 573.883672 238.665001 
L 579.651099 232.692217 
L 581.429632 230.787991 
" style="fill:none;stroke:#999999;"/>
    <path clip-path="url(#pc66e56f170)" d="M 520.658027 294.113412 
L 521.820257 294.00102 
L 524.364171 292.350477 
L 534.316209 282.121818 
L 545.88521 270.062789 
L 555.543255 259.980238 
L 562.332578 252.966499 
L 567.024807 247.878394 
L 573.986112 240.727645 
L 579.808506 234.627485 
L 581.169369 231.953647 
L 581.429632 230.787991 
" style="fill:none;stroke:#999999;"/>
    <path clip-path="url(#pc66e56f170)" d="M 174.064825 325.199716 
L 173.257385 323.644437 
L 172.563211 321.607483 
L 171.659579 319.035868 
L 171.252319 317.665232 
L 170.964989 316.372734 
L 170.860884 315.52766 
L 170.832151 314.803005 
L 170.713887 313.286796 
L 170.790509 310.383895 
" style="fill:none;stroke:#999999;"/>
    <path clip-path="url(#pc66e56f170)" d="M 174.064825 325.199716 
L 174.506231 326.019101 
L 174.647397 326.568746 
" style="fill:none;stroke:#999999;"/>
    <path clip-path="url(#pc66e56f170)" d="M 177.718083 299.988789 
L 177.803033 300.006986 
" style="fill:none;stroke:#999999;"/>
    <path clip-path="url(#pc66e56f170)" d="M 177.718083 299.988789 
L 177.266683 300.964451 
L 176.726586 302.131178 
L 177.895062 302.749329 
L 178.824513 303.153937 
" style="fill:none;stroke:#999999;"/>
    <path clip-path="url(#pc66e56f170)" d="M 177.718083 299.988789 
L 176.687859 299.550464 
L 175.824618 299.499085 
L 174.770241 299.679446 
L 173.970713 300.020901 
L 173.172851 299.725473 
" style="fill:none;stroke:#999999;"/>
    <path clip-path="url(#pc66e56f170)" d="M 180.585973 298.172871 
L 182.322031 298.530381 
" style="fill:none;stroke:#999999;"/>
    <path clip-path="url(#pc66e56f170)" d="M 180.585973 298.172871 
L 178.636708 297.752742 
" style="fill:none;stroke:#999999;"/>
    <path clip-path="url(#pc66e56f170)" d="M 180.585973 298.172871 
L 181.500433 292.440925 
" style="fill:none;stroke:#999999;"/>
    <path clip-path="url(#pc66e56f170)" d="M 163.187083 297.828205 
L 164.672872 297.872626 
" style="fill:none;stroke:#999999;"/>
    <path clip-path="url(#pc66e56f170)" d="M 163.187083 297.828205 
L 163.236637 297.397372 
L 163.335329 296.696801 
L 163.535211 295.666014 
" style="fill:none;stroke:#999999;"/>
    <path clip-path="url(#pc66e56f170)" d="M 163.187083 297.828205 
L 162.355491 297.804121 
L 162.031932 297.790206 
" style="fill:none;stroke:#999999;"/>
    <path clip-path="url(#pc66e56f170)" d="M 170.790509 310.383895 
L 170.750949 308.634875 
" style="fill:none;stroke:#999999;"/>
    <path clip-path="url(#pc66e56f170)" d="M 170.790509 310.383895 
L 176.543777 310.4524 
L 177.494882 310.475413 
" style="fill:none;stroke:#999999;"/>
    <path clip-path="url(#pc66e56f170)" d="M 170.790509 310.383895 
L 162.914327 310.267222 
L 154.837431 310.118973 
" style="fill:none;stroke:#999999;"/>
    <path clip-path="url(#pc66e56f170)" d="M 170.790509 310.383895 
L 170.713887 313.286796 
L 170.832151 314.803005 
L 170.860884 315.52766 
L 170.964989 316.372734 
L 171.252319 317.665232 
L 171.659579 319.035868 
L 172.563211 321.607483 
L 173.257385 323.644437 
L 174.064825 325.199716 
" style="fill:none;stroke:#999999;"/>
    <path clip-path="url(#pc66e56f170)" d="M 249.82466 336.968133 
L 248.877303 334.552795 
L 244.452417 330.391114 
L 240.974471 327.574379 
L 235.67177 324.740518 
L 231.749503 320.126596 
L 229.86978 316.48352 
L 225.151734 311.800022 
L 217.646167 311.442512 
L 210.958866 311.484257 
L 205.123147 313.488565 
L 200.3772 314.262458 
L 194.579791 314.560026 
L 192.540995 314.775175 
L 190.904878 314.805146 
L 190.24735 314.618898 
L 189.959603 314.537548 
L 189.076791 313.947763 
L 186.464584 311.796276 
" style="fill:none;stroke:#999999;"/>
    <path clip-path="url(#pc66e56f170)" d="M 249.82466 336.968133 
L 243.399705 336.868052 
L 239.914264 336.295392 
L 228.40856 333.405336 
L 224.86482 332.725637 
L 218.281208 332.120866 
L 216.219926 332.10481 
L 210.756486 332.436632 
L 202.873642 333.137738 
L 198.043162 333.357168 
L 194.095493 333.314353 
L 192.21119 333.150047 
" style="fill:none;stroke:#999999;"/>
    <path clip-path="url(#pc66e56f170)" d="M 249.82466 336.968133 
L 253.577027 336.894811 
L 259.872476 336.310913 
L 268.963773 335.273169 
L 271.549745 335.353448 
L 272.463789 335.456741 
L 273.773432 335.60499 
L 275.872192 335.974275 
L 278.374881 336.643269 
L 280.865077 337.558454 
L 307.041282 349.530781 
L 311.192997 351.216647 
L 315.781953 352.559988 
L 320.004459 353.405597 
L 321.240396 353.540467 
L 324.85576 353.935441 
L 338.591397 354.700771 
" style="fill:none;stroke:#999999;"/>
    <path clip-path="url(#pc66e56f170)" d="M 425.065322 359.52556 
L 427.48306 359.982082 
" style="fill:none;stroke:#999999;"/>
    <path clip-path="url(#pc66e56f170)" d="M 425.065322 359.52556 
L 419.200036 359.506828 
L 388.797576 357.711246 
L 369.733004 356.58573 
" style="fill:none;stroke:#999999;"/>
    <path clip-path="url(#pc66e56f170)" d="M 425.065322 359.52556 
L 431.334535 359.394437 
L 435.278039 359.003744 
L 441.345289 358.03504 
L 445.051433 357.151967 
L 449.64039 355.776514 
L 453.817089 354.272614 
L 458.193671 352.29239 
L 461.395946 350.62258 
L 462.174653 350.168199 
" style="fill:none;stroke:#999999;"/>
    <path clip-path="url(#pc66e56f170)" d="M 182.382412 288.712752 
L 180.86206 289.203527 
L 179.108096 290.063051 
L 178.475969 290.600387 
L 177.140508 291.343239 
L 175.34865 291.914293 
" style="fill:none;stroke:#999999;"/>
    <path clip-path="url(#pc66e56f170)" d="M 147.650426 307.468684 
L 147.127402 307.70524 
L 139.774661 309.788222 
L 135.956083 311.269643 
L 132.516032 312.603886 
L 128.923987 315.139108 
L 127.693047 316.411268 
L 124.134732 320.089668 
L 123.113669 321.145074 
L 120.82627 324.231012 
L 119.718174 328.174869 
L 117.231726 331.616177 
L 116.363073 335.041964 
L 115.891684 341.571351 
L 114.356758 344.384875 
L 113.400656 348.782577 
L 112.679415 350.786885 
L 112.391252 352.74249 
L 109.507122 358.809468 
L 105.962133 364.651129 
L 104.777832 367.262348 
L 98.853831 378.967612 
L 90.454625 392.51502 
L 88.287988 393.377755 
L 86.456154 395.490173 
L 85.88649 396.602844 
L 85.251865 398.76664 
L 83.766076 402.381352 
L 85.765728 403.379492 
L 88.797271 404.391547 
L 89.663426 405.241973 
L 90.37842 406.314505 
L 93.237565 407.83446 
L 95.921813 409.141943 
" style="fill:none;stroke:#999999;"/>
    <path clip-path="url(#pc66e56f170)" d="M 453.141655 361.01608 
L 454.704898 360.559558 
L 457.17469 359.471505 
L 458.844537 358.491562 
" style="fill:none;stroke:#999999;"/>
    <path clip-path="url(#pc66e56f170)" d="M 453.141655 361.01608 
L 452.865985 361.096359 
L 452.713575 361.120443 
L 451.684599 361.284748 
L 448.503145 361.217313 
L 443.389082 360.948645 
L 433.268393 360.357789 
L 427.48306 359.982082 
" style="fill:none;stroke:#999999;"/>
    <path clip-path="url(#pc66e56f170)" d="M 453.141655 361.01608 
L 453.02006 359.256892 
L 452.59073 355.134279 
L 452.402508 354.35557 
L 452.349206 353.818233 
L 457.691468 351.737393 
L 461.557101 349.84387 
L 461.95978 349.84387 
L 462.174653 350.168199 
" style="fill:none;stroke:#999999;"/>
    <path clip-path="url(#pc66e56f170)" d="M 427.48306 359.982082 
L 433.268393 360.357789 
L 443.389082 360.948645 
L 448.503145 361.217313 
L 451.684599 361.284748 
L 452.713575 361.120443 
L 452.865985 361.096359 
L 453.141655 361.01608 
" style="fill:none;stroke:#999999;"/>
    <path clip-path="url(#pc66e56f170)" d="M 183.261059 312.353415 
L 183.05743 311.250376 
" style="fill:none;stroke:#999999;"/>
    <path clip-path="url(#pc66e56f170)" d="M 183.261059 312.353415 
L 181.156469 312.782642 
" style="fill:none;stroke:#999999;"/>
    <path clip-path="url(#pc66e56f170)" d="M 183.261059 312.353415 
L 183.369329 312.331472 
L 186.464584 311.796276 
" style="fill:none;stroke:#999999;"/>
    <path clip-path="url(#pc66e56f170)" d="M 181.156469 312.782642 
L 180.90745 311.665153 
" style="fill:none;stroke:#999999;"/>
    <path clip-path="url(#pc66e56f170)" d="M 181.156469 312.782642 
L 183.261059 312.353415 
" style="fill:none;stroke:#999999;"/>
    <path clip-path="url(#pc66e56f170)" d="M 181.156469 312.782642 
L 177.642295 313.509972 
L 177.765139 311.978778 
" style="fill:none;stroke:#999999;"/>
    <path clip-path="url(#pc66e56f170)" d="M 177.765139 311.978778 
L 180.851649 311.413076 
" style="fill:none;stroke:#999999;"/>
    <path clip-path="url(#pc66e56f170)" d="M 177.765139 311.978778 
L 177.88715 310.451865 
" style="fill:none;stroke:#999999;"/>
    <path clip-path="url(#pc66e56f170)" d="M 177.765139 311.978778 
L 177.642295 313.509972 
L 181.156469 312.782642 
" style="fill:none;stroke:#999999;"/>
    <path clip-path="url(#pc66e56f170)" d="M 186.464584 311.796276 
L 189.076791 313.947763 
L 189.959603 314.537548 
L 190.24735 314.618898 
L 190.904878 314.805146 
L 192.540995 314.775175 
L 194.579791 314.560026 
L 200.3772 314.262458 
L 205.123147 313.488565 
L 210.958866 311.484257 
L 217.646167 311.442512 
L 225.151734 311.800022 
L 229.86978 316.48352 
L 231.749503 320.126596 
L 235.67177 324.740518 
L 240.974471 327.574379 
L 244.452417 330.391114 
L 248.877303 334.552795 
L 249.82466 336.968133 
" style="fill:none;stroke:#999999;"/>
    <path clip-path="url(#pc66e56f170)" d="M 186.464584 311.796276 
L 186.271781 311.613239 
L 185.322758 310.71197 
L 184.360827 309.797855 
L 183.467188 309.551665 
L 183.155289 309.465499 
" style="fill:none;stroke:#999999;"/>
    <path clip-path="url(#pc66e56f170)" d="M 186.464584 311.796276 
L 183.369329 312.331472 
L 183.261059 312.353415 
" style="fill:none;stroke:#999999;"/>
    <path clip-path="url(#pc66e56f170)" d="M 180.90745 311.665153 
L 183.05743 311.250376 
" style="fill:none;stroke:#999999;"/>
    <path clip-path="url(#pc66e56f170)" d="M 180.90745 311.665153 
L 181.156469 312.782642 
" style="fill:none;stroke:#999999;"/>
    <path clip-path="url(#pc66e56f170)" d="M 180.90745 311.665153 
L 180.851649 311.413076 
" style="fill:none;stroke:#999999;"/>
    <path clip-path="url(#pc66e56f170)" d="M 180.851649 311.413076 
L 177.765139 311.978778 
" style="fill:none;stroke:#999999;"/>
    <path clip-path="url(#pc66e56f170)" d="M 180.851649 311.413076 
L 180.90745 311.665153 
" style="fill:none;stroke:#999999;"/>
    <path clip-path="url(#pc66e56f170)" d="M 180.851649 311.413076 
L 180.554325 310.078833 
" style="fill:none;stroke:#999999;"/>
    <path clip-path="url(#pc66e56f170)" d="M 183.05743 311.250376 
L 180.90745 311.665153 
" style="fill:none;stroke:#999999;"/>
    <path clip-path="url(#pc66e56f170)" d="M 183.05743 311.250376 
L 183.261059 312.353415 
" style="fill:none;stroke:#999999;"/>
    <path clip-path="url(#pc66e56f170)" d="M 183.05743 311.250376 
L 182.735537 309.506709 
" style="fill:none;stroke:#999999;"/>
    <path clip-path="url(#pc66e56f170)" d="M 462.174653 350.168199 
L 461.95978 349.84387 
L 461.557101 349.84387 
L 457.691468 351.737393 
L 452.349206 353.818233 
L 452.402508 354.35557 
L 452.59073 355.134279 
L 453.02006 359.256892 
L 453.141655 361.01608 
" style="fill:none;stroke:#999999;"/>
    <path clip-path="url(#pc66e56f170)" d="M 462.174653 350.168199 
L 461.395946 350.62258 
L 458.193671 352.29239 
L 453.817089 354.272614 
L 449.64039 355.776514 
L 445.051433 357.151967 
L 441.345289 358.03504 
L 435.278039 359.003744 
L 431.334535 359.394437 
L 425.065322 359.52556 
" style="fill:none;stroke:#999999;"/>
    <path clip-path="url(#pc66e56f170)" d="M 462.174653 350.168199 
L 465.118747 348.449686 
L 468.500084 346.201864 
L 470.811219 344.419662 
L 473.996837 341.861427 
L 477.540577 338.725181 
L 478.310539 337.968414 
" style="fill:none;stroke:#999999;"/>
    <path clip-path="url(#pc66e56f170)" d="M 177.88715 310.451865 
L 177.494882 310.475413 
" style="fill:none;stroke:#999999;"/>
    <path clip-path="url(#pc66e56f170)" d="M 177.88715 310.451865 
L 177.765139 311.978778 
" style="fill:none;stroke:#999999;"/>
    <path clip-path="url(#pc66e56f170)" d="M 177.88715 310.451865 
L 178.601312 310.409049 
L 178.836589 310.396204 
L 179.534927 310.358205 
L 180.554325 310.078833 
" style="fill:none;stroke:#999999;"/>
    <path clip-path="url(#pc66e56f170)" d="M 180.554325 310.078833 
L 180.851649 311.413076 
" style="fill:none;stroke:#999999;"/>
    <path clip-path="url(#pc66e56f170)" d="M 180.554325 310.078833 
L 182.589789 309.521159 
L 182.735537 309.506709 
" style="fill:none;stroke:#999999;"/>
    <path clip-path="url(#pc66e56f170)" d="M 180.554325 310.078833 
L 179.534927 310.358205 
L 178.836589 310.396204 
L 178.601312 310.409049 
L 177.88715 310.451865 
" style="fill:none;stroke:#999999;"/>
    <path clip-path="url(#pc66e56f170)" d="M 476.235098 340.471524 
L 478.310539 337.968414 
" style="fill:none;stroke:#999999;"/>
    <path clip-path="url(#pc66e56f170)" d="M 476.235098 340.471524 
L 474.58399 342.176657 
L 470.315678 346.688357 
L 464.919698 352.180535 
L 462.302078 354.973186 
L 458.844537 358.491562 
" style="fill:none;stroke:#999999;"/>
    <path clip-path="url(#pc66e56f170)" d="M 478.310539 337.968414 
L 477.540577 338.725181 
L 473.996837 341.861427 
L 470.811219 344.419662 
L 468.500084 346.201864 
L 465.118747 348.449686 
L 462.174653 350.168199 
" style="fill:none;stroke:#999999;"/>
    <path clip-path="url(#pc66e56f170)" d="M 478.310539 337.968414 
L 482.404371 333.945883 
L 520.658027 294.113412 
" style="fill:none;stroke:#999999;"/>
    <path clip-path="url(#pc66e56f170)" d="M 182.735537 309.506709 
L 183.155289 309.465499 
" style="fill:none;stroke:#999999;"/>
    <path clip-path="url(#pc66e56f170)" d="M 182.735537 309.506709 
L 183.05743 311.250376 
" style="fill:none;stroke:#999999;"/>
    <path clip-path="url(#pc66e56f170)" d="M 182.735537 309.506709 
L 182.589789 309.521159 
L 180.554325 310.078833 
" style="fill:none;stroke:#999999;"/>
    <path clip-path="url(#pc66e56f170)" d="M 98.103441 402.00725 
L 96.810871 405.703311 
" style="fill:none;stroke:#999999;"/>
    <path clip-path="url(#pc66e56f170)" d="M 173.842872 303.480406 
L 171.816153 301.998449 
" style="fill:none;stroke:#999999;"/>
    <path clip-path="url(#pc66e56f170)" d="M 177.494882 310.475413 
L 177.88715 310.451865 
" style="fill:none;stroke:#999999;"/>
    <path clip-path="url(#pc66e56f170)" d="M 177.494882 310.475413 
L 176.543777 310.4524 
L 170.790509 310.383895 
" style="fill:none;stroke:#999999;"/>
    <path clip-path="url(#pc66e56f170)" d="M 177.494882 310.475413 
L 173.956555 305.945517 
L 173.071661 305.136301 
L 170.832567 303.291482 
" style="fill:none;stroke:#999999;"/>
    <path clip-path="url(#pc66e56f170)" d="M 170.832567 303.291482 
L 171.816153 301.998449 
" style="fill:none;stroke:#999999;"/>
    <path clip-path="url(#pc66e56f170)" d="M 170.832567 303.291482 
L 169.520009 304.908843 
L 168.925777 306.059514 
L 169.014058 306.388124 
L 170.075931 306.86873 
L 170.505677 307.19734 
L 170.708057 307.905404 
L 170.750949 308.634875 
" style="fill:none;stroke:#999999;"/>
    <path clip-path="url(#pc66e56f170)" d="M 170.832567 303.291482 
L 173.071661 305.136301 
L 173.956555 305.945517 
L 177.494882 310.475413 
" style="fill:none;stroke:#999999;"/>
    <path clip-path="url(#pc66e56f170)" d="M 178.824513 303.153937 
L 177.895062 302.749329 
L 176.726586 302.131178 
L 177.266683 300.964451 
L 177.718083 299.988789 
" style="fill:none;stroke:#999999;"/>
    <path clip-path="url(#pc66e56f170)" d="M 170.750949 308.634875 
L 170.790509 310.383895 
" style="fill:none;stroke:#999999;"/>
    <path clip-path="url(#pc66e56f170)" d="M 170.750949 308.634875 
L 170.708057 307.905404 
L 170.505677 307.19734 
L 170.075931 306.86873 
L 169.014058 306.388124 
L 168.925777 306.059514 
L 169.520009 304.908843 
L 170.832567 303.291482 
" style="fill:none;stroke:#999999;"/>
    <path clip-path="url(#pc66e56f170)" d="M 170.750949 308.634875 
L 169.447552 308.882136 
L 166.144086 309.388966 
L 163.927479 309.258913 
L 163.376971 309.200042 
L 159.221925 308.747802 
L 156.683008 308.403671 
" style="fill:none;stroke:#999999;"/>
    <path clip-path="url(#pc66e56f170)" d="M 156.683008 308.403671 
L 159.221925 308.747802 
L 163.376971 309.200042 
L 163.927479 309.258913 
L 166.144086 309.388966 
L 169.447552 308.882136 
L 170.750949 308.634875 
" style="fill:none;stroke:#999999;"/>
    <path clip-path="url(#pc66e56f170)" d="M 171.816153 301.998449 
L 170.832567 303.291482 
" style="fill:none;stroke:#999999;"/>
    <path clip-path="url(#pc66e56f170)" d="M 171.816153 301.998449 
L 173.842872 303.480406 
" style="fill:none;stroke:#999999;"/>
    <path clip-path="url(#pc66e56f170)" d="M 171.816153 301.998449 
L 171.073675 301.38565 
L 170.517753 300.916284 
L 169.168133 301.078983 
L 168.788358 301.080053 
" style="fill:none;stroke:#999999;"/>
    <path clip-path="url(#pc66e56f170)" d="M 168.20412 297.813754 
L 168.352782 297.830881 
" style="fill:none;stroke:#999999;"/>
    <path clip-path="url(#pc66e56f170)" d="M 168.20412 297.813754 
L 168.073363 299.968987 
L 167.990496 300.299738 
L 167.90388 300.644939 
L 167.625711 300.982113 
L 167.257179 301.022252 
L 166.490548 301.022787 
L 165.399942 301.067744 
" style="fill:none;stroke:#999999;"/>
    <path clip-path="url(#pc66e56f170)" d="M 168.20412 297.813754 
L 167.933446 297.786995 
L 166.054972 297.849077 
L 164.672872 297.872626 
" style="fill:none;stroke:#999999;"/>
    <path clip-path="url(#pc66e56f170)" d="M 178.636708 297.752742 
L 177.803033 300.006986 
" style="fill:none;stroke:#999999;"/>
    <path clip-path="url(#pc66e56f170)" d="M 178.636708 297.752742 
L 178.991914 295.850657 
" style="fill:none;stroke:#999999;"/>
    <path clip-path="url(#pc66e56f170)" d="M 178.636708 297.752742 
L 180.585973 298.172871 
" style="fill:none;stroke:#999999;"/>
    <path clip-path="url(#pc66e56f170)" d="M 178.636708 297.752742 
L 178.173231 297.651055 
L 176.168998 297.520467 
L 175.419441 297.497454 
L 174.832704 297.418245 
L 173.744181 297.105155 
L 173.279039 297.032904 
L 172.554883 296.850937 
L 171.829062 296.578523 
L 171.590453 296.457033 
" style="fill:none;stroke:#999999;"/>
    <path clip-path="url(#pc66e56f170)" d="M 165.399942 301.067744 
L 165.387033 302.002195 
L 163.568524 302.364523 
" style="fill:none;stroke:#999999;"/>
    <path clip-path="url(#pc66e56f170)" d="M 165.399942 301.067744 
L 164.818619 299.859807 
L 164.672872 297.872626 
" style="fill:none;stroke:#999999;"/>
    <path clip-path="url(#pc66e56f170)" d="M 165.399942 301.067744 
L 166.490548 301.022787 
L 167.257179 301.022252 
L 167.625711 300.982113 
L 167.90388 300.644939 
L 167.990496 300.299738 
L 168.073363 299.968987 
L 168.20412 297.813754 
" style="fill:none;stroke:#999999;"/>
    <path clip-path="url(#pc66e56f170)" d="M 157.789438 300.776597 
L 157.36802 297.13245 
" style="fill:none;stroke:#999999;"/>
    <path clip-path="url(#pc66e56f170)" d="M 157.789438 300.776597 
L 156.450229 300.651897 
" style="fill:none;stroke:#999999;"/>
    <path clip-path="url(#pc66e56f170)" d="M 157.789438 300.776597 
L 161.687135 301.259344 
" style="fill:none;stroke:#999999;"/>
    <path clip-path="url(#pc66e56f170)" d="M 176.813618 304.030587 
L 177.815109 304.580233 
L 178.772877 304.933997 
L 179.569073 305.009995 
L 185.965296 305.123992 
L 186.597006 305.237453 
L 186.981362 305.565528 
L 187.020506 305.705214 
L 187.061315 305.849717 
L 186.875175 306.248973 
L 186.005688 307.041063 
L 185.139533 307.753408 
L 184.816391 308.018865 
L 183.821978 308.75797 
" style="fill:none;stroke:#999999;"/>
    <path clip-path="url(#pc66e56f170)" d="M 176.813618 304.030587 
L 176.846098 304.298185 
L 177.34497 304.914195 
L 178.840337 306.434151 
L 179.039803 306.63699 
L 180.669673 307.377165 
L 183.186104 308.304124 
L 183.314361 308.351222 
L 183.45178 308.419191 
L 183.821978 308.75797 
" style="fill:none;stroke:#999999;"/>
    <path clip-path="url(#pc66e56f170)" d="M 176.813618 304.030587 
L 176.035744 303.3541 
L 174.589931 302.167036 
L 173.429367 301.482521 
L 172.087659 300.764288 
L 171.531321 300.594096 
" style="fill:none;stroke:#999999;"/>
    <path clip-path="url(#pc66e56f170)" d="M 186.329247 301.985069 
L 182.241662 301.273259 
L 181.868965 301.362637 
L 181.61828 301.371735 
" style="fill:none;stroke:#999999;"/>
    <path clip-path="url(#pc66e56f170)" d="M 169.066527 300.439959 
L 170.712638 300.535224 
L 171.531321 300.594096 
" style="fill:none;stroke:#999999;"/>
    <path clip-path="url(#pc66e56f170)" d="M 169.066527 300.439959 
L 168.930357 300.753049 
L 168.788358 301.080053 
" style="fill:none;stroke:#999999;"/>
    <path clip-path="url(#pc66e56f170)" d="M 169.066527 300.439959 
L 169.242673 299.955072 
L 169.350109 298.962284 
L 169.26391 297.957187 
" style="fill:none;stroke:#999999;"/>
    <path clip-path="url(#pc66e56f170)" d="M 173.172851 299.725473 
L 173.970713 300.020901 
L 174.770241 299.679446 
L 175.824618 299.499085 
L 176.687859 299.550464 
L 177.718083 299.988789 
" style="fill:none;stroke:#999999;"/>
    <path clip-path="url(#pc66e56f170)" d="M 173.172851 299.725473 
L 172.8926 299.552605 
L 171.3127 298.671138 
L 169.923937 298.042818 
" style="fill:none;stroke:#999999;"/>
    <path clip-path="url(#pc66e56f170)" d="M 173.172851 299.725473 
L 172.851791 300.248895 
L 172.07475 300.469395 
L 171.531321 300.594096 
" style="fill:none;stroke:#999999;"/>
    <path clip-path="url(#pc66e56f170)" d="M 169.26391 297.957187 
L 169.923937 298.042818 
" style="fill:none;stroke:#999999;"/>
    <path clip-path="url(#pc66e56f170)" d="M 169.26391 297.957187 
L 168.352782 297.830881 
" style="fill:none;stroke:#999999;"/>
    <path clip-path="url(#pc66e56f170)" d="M 169.26391 297.957187 
L 169.350109 298.962284 
L 169.242673 299.955072 
L 169.066527 300.439959 
" style="fill:none;stroke:#999999;"/>
    <path clip-path="url(#pc66e56f170)" d="M 168.352782 297.830881 
L 169.26391 297.957187 
" style="fill:none;stroke:#999999;"/>
    <path clip-path="url(#pc66e56f170)" d="M 168.352782 297.830881 
L 168.20412 297.813754 
" style="fill:none;stroke:#999999;"/>
    <path clip-path="url(#pc66e56f170)" d="M 168.352782 297.830881 
L 168.385679 297.300502 
L 168.425239 296.658267 
L 168.446476 296.31039 
" style="fill:none;stroke:#999999;"/>
    <path clip-path="url(#pc66e56f170)" d="M 164.672872 297.872626 
L 163.187083 297.828205 
" style="fill:none;stroke:#999999;"/>
    <path clip-path="url(#pc66e56f170)" d="M 164.672872 297.872626 
L 164.818619 299.859807 
L 165.399942 301.067744 
" style="fill:none;stroke:#999999;"/>
    <path clip-path="url(#pc66e56f170)" d="M 164.672872 297.872626 
L 166.054972 297.849077 
L 167.933446 297.786995 
L 168.20412 297.813754 
" style="fill:none;stroke:#999999;"/>
    <path clip-path="url(#pc66e56f170)" d="M 157.36802 297.13245 
L 157.789438 300.776597 
" style="fill:none;stroke:#999999;"/>
    <path clip-path="url(#pc66e56f170)" d="M 157.36802 297.13245 
L 159.305209 297.09017 
L 159.980227 297.124422 
L 160.425797 297.242701 
" style="fill:none;stroke:#999999;"/>
    <path clip-path="url(#pc66e56f170)" d="M 157.36802 297.13245 
L 156.126253 297.295685 
L 155.41001 297.41878 
" style="fill:none;stroke:#999999;"/>
    <path clip-path="url(#pc66e56f170)" d="M 157.36802 297.13245 
L 156.94452 293.680438 
L 158.042621 293.238902 
L 159.168623 292.82252 
L 160.128056 292.661426 
L 160.220085 293.368419 
" style="fill:none;stroke:#999999;"/>
    <path clip-path="url(#pc66e56f170)" d="M 168.446476 296.31039 
L 168.680505 296.242955 
L 169.215189 296.111832 
L 170.534826 296.245096 
L 170.927927 296.324305 
" style="fill:none;stroke:#999999;"/>
    <path clip-path="url(#pc66e56f170)" d="M 168.446476 296.31039 
L 167.808103 296.31039 
L 167.403342 296.24349 
" style="fill:none;stroke:#999999;"/>
    <path clip-path="url(#pc66e56f170)" d="M 168.446476 296.31039 
L 168.425239 296.658267 
L 168.385679 297.300502 
L 168.352782 297.830881 
" style="fill:none;stroke:#999999;"/>
    <path clip-path="url(#pc66e56f170)" d="M 168.083774 8.307692 
L 170.358264 9.361493 
L 172.771005 10.608498 
L 173.588856 11.303182 
L 173.588856 12.242986 
L 172.777668 15.652182 
L 172.198427 18.087323 
L 171.441791 21.193063 
L 170.665166 24.381759 
L 169.377177 30.67566 
L 169.417986 32.147448 
L 169.602044 36.336959 
L 169.356772 37.624105 
L 166.249024 45.246896 
L 165.656041 47.106701 
L 164.49048 53.3808 
L 162.939312 60.945791 
L 161.985293 64.962969 
L 157.821502 72.709391 
L 156.231191 75.802287 
L 156.289074 79.502094 
L 155.913046 85.600649 
L 155.797281 91.78644 
L 156.491454 94.301325 
L 158.052615 100.776122 
L 163.084643 120.841142 
L 164.309753 126.838545 
L 163.929561 132.033689 
L 163.295769 143.395357 
L 162.873518 152.181129 
L 163.633902 155.64438 
L 164.605412 159.572716 
L 164.774479 170.006356 
L 165.534863 175.24378 
L 166.886564 184.114648 
L 168.491866 196.787546 
L 166.908218 206.109584 
L 166.954441 209.25707 
L 167.726069 215.861384 
L 167.710661 217.559025 
L 165.53403 233.296453 
L 163.030509 251.281168 
L 162.60576 252.40936 
L 161.707124 253.573946 
L 157.417574 256.475242 
L 150.967634 262.987503 
L 147.423477 266.49571 
L 146.801344 267.679563 
L 146.616037 268.328755 
L 146.726389 274.147938 
L 146.731802 274.877944 
L 146.767198 279.994415 
L 146.770113 280.396347 
" style="fill:none;stroke:#999999;"/>
    <path clip-path="url(#pc66e56f170)" d="M 96.810871 405.703311 
L 98.103441 402.00725 
" style="fill:none;stroke:#999999;"/>
    <path clip-path="url(#pc66e56f170)" d="M 96.810871 405.703311 
L 105.597765 409.752066 
" style="fill:none;stroke:#999999;"/>
    <path clip-path="url(#pc66e56f170)" d="M 96.810871 405.703311 
L 96.365301 407.119439 
L 95.921813 409.141943 
" style="fill:none;stroke:#999999;"/>
    <path clip-path="url(#pc66e56f170)" d="M 183.523821 292.614328 
L 182.81424 296.178196 
" style="fill:none;stroke:#999999;"/>
    <path clip-path="url(#pc66e56f170)" d="M 163.142526 293.694889 
L 163.066737 295.480836 
" style="fill:none;stroke:#999999;"/>
    <path clip-path="url(#pc66e56f170)" d="M 163.142526 293.694889 
L 164.458415 293.702916 
L 165.192981 293.584638 
L 165.950034 293.310618 
L 167.590315 293.36949 
" style="fill:none;stroke:#999999;"/>
    <path clip-path="url(#pc66e56f170)" d="M 163.142526 293.694889 
L 162.543296 293.448699 
L 161.796238 293.208931 
L 160.668154 293.293492 
L 160.220085 293.368419 
" style="fill:none;stroke:#999999;"/>
    <path clip-path="url(#pc66e56f170)" d="M 160.220085 293.368419 
L 160.668154 293.293492 
L 161.796238 293.208931 
L 162.543296 293.448699 
L 163.142526 293.694889 
" style="fill:none;stroke:#999999;"/>
    <path clip-path="url(#pc66e56f170)" d="M 160.220085 293.368419 
L 160.128056 292.661426 
L 159.168623 292.82252 
L 158.042621 293.238902 
L 156.94452 293.680438 
L 157.36802 297.13245 
" style="fill:none;stroke:#999999;"/>
    <path clip-path="url(#pc66e56f170)" d="M 160.220085 293.368419 
L 160.337516 294.268618 
L 160.501169 295.432669 
" style="fill:none;stroke:#999999;"/>
    <path clip-path="url(#pc66e56f170)" d="M 108.316159 411.004959 
L 105.597765 409.752066 
" style="fill:none;stroke:#999999;"/>
    <path clip-path="url(#pc66e56f170)" d="M 108.316159 411.004959 
L 109.768218 407.030061 
" style="fill:none;stroke:#999999;"/>
    <path clip-path="url(#pc66e56f170)" d="M 108.316159 411.004959 
L 106.652142 414.369735 
" style="fill:none;stroke:#999999;"/>
    <path clip-path="url(#pc66e56f170)" d="M 154.837431 310.118973 
L 152.550032 309.82301 
L 150.33509 308.97633 
" style="fill:none;stroke:#999999;"/>
    <path clip-path="url(#pc66e56f170)" d="M 154.837431 310.118973 
L 162.914327 310.267222 
L 170.790509 310.383895 
" style="fill:none;stroke:#999999;"/>
    <path clip-path="url(#pc66e56f170)" d="M 154.837431 310.118973 
L 154.707092 309.582707 
L 154.308577 309.431246 
L 153.455747 309.239646 
L 152.116538 308.546033 
L 149.510161 307.055513 
L 148.201767 306.219002 
" style="fill:none;stroke:#999999;"/>
    <path clip-path="url(#pc66e56f170)" d="M 167.590315 293.36949 
L 167.909294 293.26031 
" style="fill:none;stroke:#999999;"/>
    <path clip-path="url(#pc66e56f170)" d="M 167.590315 293.36949 
L 167.522439 294.704803 
" style="fill:none;stroke:#999999;"/>
    <path clip-path="url(#pc66e56f170)" d="M 167.590315 293.36949 
L 165.950034 293.310618 
L 165.192981 293.584638 
L 164.458415 293.702916 
L 163.142526 293.694889 
" style="fill:none;stroke:#999999;"/>
    <path clip-path="url(#pc66e56f170)" d="M 352.410318 355.598294 
L 352.556066 355.604716 
" style="fill:none;stroke:#999999;"/>
    <path clip-path="url(#pc66e56f170)" d="M 352.410318 355.598294 
L 352.274149 355.446298 
L 351.895622 355.392244 
L 349.725238 355.295908 
L 348.239449 355.142843 
L 346.852768 354.987636 
" style="fill:none;stroke:#999999;"/>
    <path clip-path="url(#pc66e56f170)" d="M 167.909294 293.26031 
L 167.590315 293.36949 
" style="fill:none;stroke:#999999;"/>
    <path clip-path="url(#pc66e56f170)" d="M 167.909294 293.26031 
L 168.206202 292.116061 
L 168.585561 291.616724 
L 169.470455 291.123809 
L 171.137803 290.595035 
" style="fill:none;stroke:#999999;"/>
    <path clip-path="url(#pc66e56f170)" d="M 167.909294 293.26031 
L 168.217029 293.218029 
L 168.869143 293.033387 
L 170.023045 293.50864 
L 170.573553 293.665453 
L 171.234413 293.80835 
L 171.866956 294.007443 
L 171.921507 294.165861 
L 171.752857 295.181662 
" style="fill:none;stroke:#999999;"/>
    <path clip-path="url(#pc66e56f170)" d="M 186.828952 299.492663 
L 184.941733 299.121772 
" style="fill:none;stroke:#999999;"/>
    <path clip-path="url(#pc66e56f170)" d="M 148.201767 306.219002 
L 150.364656 303.38086 
L 151.139199 302.803383 
L 151.540628 302.731667 
L 152.315587 303.577276 
L 152.655803 304.012926 
L 153.819699 304.501559 
L 155.005249 304.792706 
L 156.533929 305.439757 
L 157.296812 305.621724 
L 158.640185 305.497558 
L 160.061845 305.566599 
L 161.441031 305.760339 
L 162.103973 305.667751 
L 162.836873 305.25565 
L 165.796375 303.47773 
L 167.583653 302.468351 
L 168.10751 301.997379 
L 168.640945 301.351398 
L 168.788358 301.080053 
" style="fill:none;stroke:#999999;"/>
    <path clip-path="url(#pc66e56f170)" d="M 148.201767 306.219002 
L 149.510161 307.055513 
L 152.116538 308.546033 
L 153.455747 309.239646 
L 154.308577 309.431246 
L 154.707092 309.582707 
L 154.837431 310.118973 
" style="fill:none;stroke:#999999;"/>
    <path clip-path="url(#pc66e56f170)" d="M 148.201767 306.219002 
L 147.5813 305.907518 
L 147.231923 305.235848 
L 146.434894 301.72764 
L 144.96826 297.996256 
L 143.597403 294.265407 
L 144.521857 291.682018 
L 146.849233 288.301722 
L 146.912945 284.69825 
L 146.82633 282.094523 
L 146.770113 280.396347 
" style="fill:none;stroke:#999999;"/>
    <path clip-path="url(#pc66e56f170)" d="M 171.137803 290.595035 
L 171.785338 290.825169 
L 173.2603 291.260283 
L 175.34865 291.914293 
" style="fill:none;stroke:#999999;"/>
    <path clip-path="url(#pc66e56f170)" d="M 171.137803 290.595035 
L 170.354932 289.970997 
L 169.188122 289.673428 
L 165.08846 289.244201 
L 162.655314 287.791145 
L 158.889621 286.825652 
L 156.989493 285.394004 
L 151.657643 282.491638 
L 146.770113 280.396347 
" style="fill:none;stroke:#999999;"/>
    <path clip-path="url(#pc66e56f170)" d="M 171.137803 290.595035 
L 169.470455 291.123809 
L 168.585561 291.616724 
L 168.206202 292.116061 
L 167.909294 293.26031 
" style="fill:none;stroke:#999999;"/>
    <path clip-path="url(#pc66e56f170)" d="M 95.921813 409.141943 
L 104.100316 413.126475 
" style="fill:none;stroke:#999999;"/>
    <path clip-path="url(#pc66e56f170)" d="M 95.921813 409.141943 
L 96.365301 407.119439 
L 96.810871 405.703311 
" style="fill:none;stroke:#999999;"/>
    <path clip-path="url(#pc66e56f170)" d="M 95.921813 409.141943 
L 93.237565 407.83446 
L 90.37842 406.314505 
L 89.663426 405.241973 
L 88.797271 404.391547 
L 85.765728 403.379492 
L 83.766076 402.381352 
L 85.251865 398.76664 
L 85.88649 396.602844 
L 86.456154 395.490173 
L 88.287988 393.377755 
L 90.454625 392.51502 
L 98.853831 378.967612 
L 104.777832 367.262348 
L 105.962133 364.651129 
L 109.507122 358.809468 
L 112.391252 352.74249 
L 112.679415 350.786885 
L 113.400656 348.782577 
L 114.356758 344.384875 
L 115.891684 341.571351 
L 116.363073 335.041964 
L 117.231726 331.616177 
L 119.718174 328.174869 
L 120.82627 324.231012 
L 123.113669 321.145074 
L 124.134732 320.089668 
L 127.693047 316.411268 
L 128.923987 315.139108 
L 132.516032 312.603886 
L 135.956083 311.269643 
L 139.774661 309.788222 
L 147.127402 307.70524 
L 147.650426 307.468684 
" style="fill:none;stroke:#999999;"/>
    <path clip-path="url(#pc66e56f170)" d="M 163.568524 302.364523 
L 163.623492 301.154981 
" style="fill:none;stroke:#999999;"/>
    <path clip-path="url(#pc66e56f170)" d="M 163.568524 302.364523 
L 163.003441 302.567362 
L 161.621757 303.623838 
L 161.282791 303.759778 
L 161.163695 303.575136 
L 161.687135 301.259344 
" style="fill:none;stroke:#999999;"/>
    <path clip-path="url(#pc66e56f170)" d="M 163.568524 302.364523 
L 165.387033 302.002195 
L 165.399942 301.067744 
" style="fill:none;stroke:#999999;"/>
    <path clip-path="url(#pc66e56f170)" d="M 161.687135 301.259344 
L 157.789438 300.776597 
" style="fill:none;stroke:#999999;"/>
    <path clip-path="url(#pc66e56f170)" d="M 161.687135 301.259344 
L 162.010694 300.078167 
L 162.041093 298.806007 
L 162.031932 297.790206 
" style="fill:none;stroke:#999999;"/>
    <path clip-path="url(#pc66e56f170)" d="M 161.687135 301.259344 
L 161.163695 303.575136 
L 161.282791 303.759778 
L 161.621757 303.623838 
L 163.003441 302.567362 
L 163.568524 302.364523 
" style="fill:none;stroke:#999999;"/>
    <path clip-path="url(#pc66e56f170)" d="M 150.33509 308.97633 
L 151.974539 310.349107 
L 152.208567 310.54927 
L 153.556938 311.703152 
L 159.34935 317.081868 
L 165.562347 322.412417 
L 169.110251 325.056284 
L 173.774163 327.866061 
L 179.007322 330.181317 
" style="fill:none;stroke:#999999;"/>
    <path clip-path="url(#pc66e56f170)" d="M 163.623492 301.154981 
L 163.568524 302.364523 
" style="fill:none;stroke:#999999;"/>
    <path clip-path="url(#pc66e56f170)" d="M 171.531321 300.594096 
L 172.087659 300.764288 
L 173.429367 301.482521 
L 174.589931 302.167036 
L 176.035744 303.3541 
L 176.813618 304.030587 
" style="fill:none;stroke:#999999;"/>
    <path clip-path="url(#pc66e56f170)" d="M 171.531321 300.594096 
L 170.712638 300.535224 
L 169.066527 300.439959 
" style="fill:none;stroke:#999999;"/>
    <path clip-path="url(#pc66e56f170)" d="M 171.531321 300.594096 
L 172.07475 300.469395 
L 172.851791 300.248895 
L 173.172851 299.725473 
" style="fill:none;stroke:#999999;"/>
    <path clip-path="url(#pc66e56f170)" d="M 154.479309 297.578803 
L 155.41001 297.41878 
" style="fill:none;stroke:#999999;"/>
    <path clip-path="url(#pc66e56f170)" d="M 156.450229 300.651897 
L 157.789438 300.776597 
" style="fill:none;stroke:#999999;"/>
    <path clip-path="url(#pc66e56f170)" d="M 167.403342 296.24349 
L 167.522439 294.704803 
" style="fill:none;stroke:#999999;"/>
    <path clip-path="url(#pc66e56f170)" d="M 167.403342 296.24349 
L 167.808103 296.31039 
L 168.446476 296.31039 
" style="fill:none;stroke:#999999;"/>
    <path clip-path="url(#pc66e56f170)" d="M 167.403342 296.24349 
L 166.675439 296.013356 
L 165.448247 295.956625 
L 163.535211 295.666014 
" style="fill:none;stroke:#999999;"/>
    <path clip-path="url(#pc66e56f170)" d="M 581.429632 230.787991 
L 579.651099 232.692217 
L 573.883672 238.665001 
L 567.412494 245.41917 
L 561.582605 251.504345 
L 552.917722 260.415887 
L 544.159562 269.643731 
L 520.658027 294.113412 
" style="fill:none;stroke:#999999;"/>
    <path clip-path="url(#pc66e56f170)" d="M 581.429632 230.787991 
L 581.169369 231.953647 
L 579.808506 234.627485 
L 573.986112 240.727645 
L 567.024807 247.878394 
L 562.332578 252.966499 
L 555.543255 259.980238 
L 545.88521 270.062789 
L 534.316209 282.121818 
L 524.364171 292.350477 
L 521.820257 294.00102 
L 520.658027 294.113412 
" style="fill:none;stroke:#999999;"/>
    <path clip-path="url(#pc66e56f170)" d="M 167.522439 294.704803 
L 166.68585 294.631481 
" style="fill:none;stroke:#999999;"/>
    <path clip-path="url(#pc66e56f170)" d="M 167.522439 294.704803 
L 167.590315 293.36949 
" style="fill:none;stroke:#999999;"/>
    <path clip-path="url(#pc66e56f170)" d="M 167.522439 294.704803 
L 167.403342 296.24349 
" style="fill:none;stroke:#999999;"/>
    <path clip-path="url(#pc66e56f170)" d="M 181.61828 301.371735 
L 182.322031 298.530381 
" style="fill:none;stroke:#999999;"/>
    <path clip-path="url(#pc66e56f170)" d="M 181.61828 301.371735 
L 181.868965 301.362637 
L 182.241662 301.273259 
L 186.329247 301.985069 
" style="fill:none;stroke:#999999;"/>
    <path clip-path="url(#pc66e56f170)" d="M 181.61828 301.371735 
L 177.906306 300.160052 
L 177.803033 300.006986 
" style="fill:none;stroke:#999999;"/>
    <path clip-path="url(#pc66e56f170)" d="M 166.68585 294.631481 
L 167.522439 294.704803 
" style="fill:none;stroke:#999999;"/>
    <path clip-path="url(#pc66e56f170)" d="M 175.34865 291.914293 
L 177.836763 293.440135 
L 179.190547 293.867757 
L 179.251761 293.86187 
L 179.06687 295.505991 
L 178.991914 295.850657 
" style="fill:none;stroke:#999999;"/>
    <path clip-path="url(#pc66e56f170)" d="M 175.34865 291.914293 
L 173.2603 291.260283 
L 171.785338 290.825169 
L 171.137803 290.595035 
" style="fill:none;stroke:#999999;"/>
    <path clip-path="url(#pc66e56f170)" d="M 175.34865 291.914293 
L 177.140508 291.343239 
L 178.475969 290.600387 
L 179.108096 290.063051 
L 180.86206 289.203527 
L 182.382412 288.712752 
" style="fill:none;stroke:#999999;"/>
    <path clip-path="url(#pc66e56f170)" d="M 177.803033 300.006986 
L 178.636708 297.752742 
" style="fill:none;stroke:#999999;"/>
    <path clip-path="url(#pc66e56f170)" d="M 177.803033 300.006986 
L 177.718083 299.988789 
" style="fill:none;stroke:#999999;"/>
    <path clip-path="url(#pc66e56f170)" d="M 177.803033 300.006986 
L 177.906306 300.160052 
L 181.61828 301.371735 
" style="fill:none;stroke:#999999;"/>
    <path clip-path="url(#pc66e56f170)" d="M 184.941733 299.121772 
L 186.828952 299.492663 
" style="fill:none;stroke:#999999;"/>
    <path clip-path="url(#pc66e56f170)" d="M 184.941733 299.121772 
L 182.322031 298.530381 
" style="fill:none;stroke:#999999;"/>
    <path clip-path="url(#pc66e56f170)" d="M 184.941733 299.121772 
L 185.422699 296.668971 
" style="fill:none;stroke:#999999;"/>
    <path clip-path="url(#pc66e56f170)" d="M 169.923937 298.042818 
L 169.26391 297.957187 
" style="fill:none;stroke:#999999;"/>
    <path clip-path="url(#pc66e56f170)" d="M 169.923937 298.042818 
L 171.3127 298.671138 
L 172.8926 299.552605 
L 173.172851 299.725473 
" style="fill:none;stroke:#999999;"/>
    <path clip-path="url(#pc66e56f170)" d="M 169.923937 298.042818 
L 170.257074 297.472835 
L 170.927927 296.324305 
" style="fill:none;stroke:#999999;"/>
    <path clip-path="url(#pc66e56f170)" d="M 105.597765 409.752066 
L 108.316159 411.004959 
" style="fill:none;stroke:#999999;"/>
    <path clip-path="url(#pc66e56f170)" d="M 105.597765 409.752066 
L 96.810871 405.703311 
" style="fill:none;stroke:#999999;"/>
    <path clip-path="url(#pc66e56f170)" d="M 105.597765 409.752066 
L 107.250955 406.026569 
" style="fill:none;stroke:#999999;"/>
    <path clip-path="url(#pc66e56f170)" d="M 105.597765 409.752066 
L 104.100316 413.126475 
" style="fill:none;stroke:#999999;"/>
    <path clip-path="url(#pc66e56f170)" d="M 162.031932 297.790206 
L 162.041093 298.806007 
L 162.010694 300.078167 
L 161.687135 301.259344 
" style="fill:none;stroke:#999999;"/>
    <path clip-path="url(#pc66e56f170)" d="M 162.031932 297.790206 
L 162.355491 297.804121 
L 163.187083 297.828205 
" style="fill:none;stroke:#999999;"/>
    <path clip-path="url(#pc66e56f170)" d="M 162.031932 297.790206 
L 161.614678 297.640351 
L 160.425797 297.242701 
" style="fill:none;stroke:#999999;"/>
    <path clip-path="url(#pc66e56f170)" d="M 183.821978 308.75797 
L 183.155289 309.465499 
" style="fill:none;stroke:#999999;"/>
    <path clip-path="url(#pc66e56f170)" d="M 183.821978 308.75797 
L 184.816391 308.018865 
L 185.139533 307.753408 
L 186.005688 307.041063 
L 186.875175 306.248973 
L 187.061315 305.849717 
L 187.020506 305.705214 
L 186.981362 305.565528 
L 186.597006 305.237453 
L 185.965296 305.123992 
L 179.569073 305.009995 
L 178.772877 304.933997 
L 177.815109 304.580233 
L 176.813618 304.030587 
" style="fill:none;stroke:#999999;"/>
    <path clip-path="url(#pc66e56f170)" d="M 183.821978 308.75797 
L 183.45178 308.419191 
L 183.314361 308.351222 
L 183.186104 308.304124 
L 180.669673 307.377165 
L 179.039803 306.63699 
L 178.840337 306.434151 
L 177.34497 304.914195 
L 176.846098 304.298185 
L 176.813618 304.030587 
" style="fill:none;stroke:#999999;"/>
    <path clip-path="url(#pc66e56f170)" d="M 109.768218 407.030061 
L 108.316159 411.004959 
" style="fill:none;stroke:#999999;"/>
    <path clip-path="url(#pc66e56f170)" d="M 146.770113 280.396347 
L 151.657643 282.491638 
L 156.989493 285.394004 
L 158.889621 286.825652 
L 162.655314 287.791145 
L 165.08846 289.244201 
L 169.188122 289.673428 
L 170.354932 289.970997 
L 171.137803 290.595035 
" style="fill:none;stroke:#999999;"/>
    <path clip-path="url(#pc66e56f170)" d="M 146.770113 280.396347 
L 146.82633 282.094523 
L 146.912945 284.69825 
L 146.849233 288.301722 
L 144.521857 291.682018 
L 143.597403 294.265407 
L 144.96826 297.996256 
L 146.434894 301.72764 
L 147.231923 305.235848 
L 147.5813 305.907518 
L 148.201767 306.219002 
" style="fill:none;stroke:#999999;"/>
    <path clip-path="url(#pc66e56f170)" d="M 146.770113 280.396347 
L 146.767198 279.994415 
L 146.731802 274.877944 
L 146.726389 274.147938 
L 146.616037 268.328755 
L 146.801344 267.679563 
L 147.423477 266.49571 
L 150.967634 262.987503 
L 157.417574 256.475242 
L 161.707124 253.573946 
L 162.60576 252.40936 
L 163.030509 251.281168 
L 165.53403 233.296453 
L 167.710661 217.559025 
L 167.726069 215.861384 
L 166.954441 209.25707 
L 166.908218 206.109584 
L 168.491866 196.787546 
L 166.886564 184.114648 
L 165.534863 175.24378 
L 164.774479 170.006356 
L 164.605412 159.572716 
L 163.633902 155.64438 
L 162.873518 152.181129 
L 163.295769 143.395357 
L 163.929561 132.033689 
L 164.309753 126.838545 
L 163.084643 120.841142 
L 158.052615 100.776122 
L 156.491454 94.301325 
L 155.797281 91.78644 
L 155.913046 85.600649 
L 156.289074 79.502094 
L 156.231191 75.802287 
L 157.821502 72.709391 
L 161.985293 64.962969 
L 162.939312 60.945791 
L 164.49048 53.3808 
L 165.656041 47.106701 
L 166.249024 45.246896 
L 169.356772 37.624105 
L 169.602044 36.336959 
L 169.417986 32.147448 
L 169.377177 30.67566 
L 170.665166 24.381759 
L 171.441791 21.193063 
L 172.198427 18.087323 
L 172.777668 15.652182 
L 173.588856 12.242986 
L 173.588856 11.303182 
L 172.771005 10.608498 
L 170.358264 9.361493 
L 168.083774 8.307692 
" style="fill:none;stroke:#999999;"/>
    <path clip-path="url(#pc66e56f170)" d="M 163.535211 295.666014 
L 163.066737 295.480836 
" style="fill:none;stroke:#999999;"/>
    <path clip-path="url(#pc66e56f170)" d="M 163.535211 295.666014 
L 165.448247 295.956625 
L 166.675439 296.013356 
L 167.403342 296.24349 
" style="fill:none;stroke:#999999;"/>
    <path clip-path="url(#pc66e56f170)" d="M 163.535211 295.666014 
L 163.335329 296.696801 
L 163.236637 297.397372 
L 163.187083 297.828205 
" style="fill:none;stroke:#999999;"/>
    <path clip-path="url(#pc66e56f170)" d="M 104.100316 413.126475 
L 106.652142 414.369735 
" style="fill:none;stroke:#999999;"/>
    <path clip-path="url(#pc66e56f170)" d="M 104.100316 413.126475 
L 95.921813 409.141943 
" style="fill:none;stroke:#999999;"/>
    <path clip-path="url(#pc66e56f170)" d="M 104.100316 413.126475 
L 105.597765 409.752066 
" style="fill:none;stroke:#999999;"/>
    <path clip-path="url(#pc66e56f170)" d="M 171.590453 296.457033 
L 170.927927 296.324305 
" style="fill:none;stroke:#999999;"/>
    <path clip-path="url(#pc66e56f170)" d="M 171.590453 296.457033 
L 171.752857 295.181662 
" style="fill:none;stroke:#999999;"/>
    <path clip-path="url(#pc66e56f170)" d="M 171.590453 296.457033 
L 171.829062 296.578523 
L 172.554883 296.850937 
L 173.279039 297.032904 
L 173.744181 297.105155 
L 174.832704 297.418245 
L 175.419441 297.497454 
L 176.168998 297.520467 
L 178.173231 297.651055 
L 178.636708 297.752742 
" style="fill:none;stroke:#999999;"/>
    <path clip-path="url(#pc66e56f170)" d="M 187.154177 297.06341 
L 185.422699 296.668971 
" style="fill:none;stroke:#999999;"/>
    <path clip-path="url(#pc66e56f170)" d="M 352.395327 356.637109 
L 352.394911 356.686347 
L 352.408653 356.838878 
" style="fill:none;stroke:#999999;"/>
    <path clip-path="url(#pc66e56f170)" d="M 352.474447 356.564322 
L 352.525667 356.349709 
L 352.568142 356.081576 
L 352.578969 355.81933 
L 352.568558 355.706939 
L 352.478195 355.650208 
" style="fill:none;stroke:#999999;"/>
    <path clip-path="url(#pc66e56f170)" d="M 352.474447 356.564322 
L 352.743039 356.288161 
L 353.218175 355.927439 
L 353.602947 355.861075 
L 358.207728 356.155968 
L 361.140995 356.318132 
L 363.082765 356.341681 
L 365.007461 356.349709 
" style="fill:none;stroke:#999999;"/>
    <path clip-path="url(#pc66e56f170)" d="M 170.927927 296.324305 
L 171.590453 296.457033 
" style="fill:none;stroke:#999999;"/>
    <path clip-path="url(#pc66e56f170)" d="M 170.927927 296.324305 
L 170.534826 296.245096 
L 169.215189 296.111832 
L 168.680505 296.242955 
L 168.446476 296.31039 
" style="fill:none;stroke:#999999;"/>
    <path clip-path="url(#pc66e56f170)" d="M 170.927927 296.324305 
L 170.257074 297.472835 
L 169.923937 298.042818 
" style="fill:none;stroke:#999999;"/>
    <path clip-path="url(#pc66e56f170)" d="M 185.422699 296.668971 
L 184.941733 299.121772 
" style="fill:none;stroke:#999999;"/>
    <path clip-path="url(#pc66e56f170)" d="M 185.422699 296.668971 
L 187.154177 297.06341 
" style="fill:none;stroke:#999999;"/>
    <path clip-path="url(#pc66e56f170)" d="M 185.422699 296.668971 
L 182.81424 296.178196 
" style="fill:none;stroke:#999999;"/>
    <path clip-path="url(#pc66e56f170)" d="M 352.478195 355.650208 
L 352.410318 355.598294 
" style="fill:none;stroke:#999999;"/>
    <path clip-path="url(#pc66e56f170)" d="M 352.478195 355.650208 
L 352.364512 355.715502 
L 352.364512 356.170418 
L 352.395327 356.637109 
" style="fill:none;stroke:#999999;"/>
    <path clip-path="url(#pc66e56f170)" d="M 182.81424 296.178196 
L 182.322031 298.530381 
" style="fill:none;stroke:#999999;"/>
    <path clip-path="url(#pc66e56f170)" d="M 182.81424 296.178196 
L 183.523821 292.614328 
" style="fill:none;stroke:#999999;"/>
    <path clip-path="url(#pc66e56f170)" d="M 182.81424 296.178196 
L 185.422699 296.668971 
" style="fill:none;stroke:#999999;"/>
    <path clip-path="url(#pc66e56f170)" d="M 354.439537 391.902756 
L 351.738632 389.290466 
L 350.391094 388.453955 
" style="fill:none;stroke:#999999;"/>
    <path clip-path="url(#pc66e56f170)" d="M 354.439537 391.902756 
L 353.623352 389.326859 
L 353.455951 388.990757 
L 353.198603 388.680343 
L 352.812164 388.638598 
L 352.464037 388.601134 
" style="fill:none;stroke:#999999;"/>
    <path clip-path="url(#pc66e56f170)" d="M 354.439537 391.902756 
L 353.622103 390.751015 
L 352.464037 388.601134 
" style="fill:none;stroke:#999999;"/>
    <path clip-path="url(#pc66e56f170)" d="M 163.066737 295.480836 
L 163.535211 295.666014 
" style="fill:none;stroke:#999999;"/>
    <path clip-path="url(#pc66e56f170)" d="M 163.066737 295.480836 
L 163.142526 293.694889 
" style="fill:none;stroke:#999999;"/>
    <path clip-path="url(#pc66e56f170)" d="M 163.066737 295.480836 
L 162.714862 295.327235 
L 160.501169 295.432669 
" style="fill:none;stroke:#999999;"/>
    <path clip-path="url(#pc66e56f170)" d="M 168.788358 301.080053 
L 168.930357 300.753049 
L 169.066527 300.439959 
" style="fill:none;stroke:#999999;"/>
    <path clip-path="url(#pc66e56f170)" d="M 168.788358 301.080053 
L 168.640945 301.351398 
L 168.10751 301.997379 
L 167.583653 302.468351 
L 165.796375 303.47773 
L 162.836873 305.25565 
L 162.103973 305.667751 
L 161.441031 305.760339 
L 160.061845 305.566599 
L 158.640185 305.497558 
L 157.296812 305.621724 
L 156.533929 305.439757 
L 155.005249 304.792706 
L 153.819699 304.501559 
L 152.655803 304.012926 
L 152.315587 303.577276 
L 151.540628 302.731667 
L 151.139199 302.803383 
L 150.364656 303.38086 
L 148.201767 306.219002 
" style="fill:none;stroke:#999999;"/>
    <path clip-path="url(#pc66e56f170)" d="M 168.788358 301.080053 
L 169.168133 301.078983 
L 170.517753 300.916284 
L 171.073675 301.38565 
L 171.816153 301.998449 
" style="fill:none;stroke:#999999;"/>
    <path clip-path="url(#pc66e56f170)" d="M 181.500433 292.440925 
L 180.585973 298.172871 
" style="fill:none;stroke:#999999;"/>
    <path clip-path="url(#pc66e56f170)" d="M 352.464037 388.601134 
L 351.978907 387.609417 
" style="fill:none;stroke:#999999;"/>
    <path clip-path="url(#pc66e56f170)" d="M 352.464037 388.601134 
L 352.063024 388.592036 
L 351.391753 388.576515 
" style="fill:none;stroke:#999999;"/>
    <path clip-path="url(#pc66e56f170)" d="M 352.464037 388.601134 
L 353.622103 390.751015 
L 354.439537 391.902756 
" style="fill:none;stroke:#999999;"/>
    <path clip-path="url(#pc66e56f170)" d="M 351.391753 388.576515 
L 350.391094 388.453955 
" style="fill:none;stroke:#999999;"/>
    <path clip-path="url(#pc66e56f170)" d="M 350.391094 388.453955 
L 351.391753 388.576515 
" style="fill:none;stroke:#999999;"/>
    <path clip-path="url(#pc66e56f170)" d="M 350.391094 388.453955 
L 349.181809 388.005461 
L 347.390783 387.523785 
L 344.711116 387.638852 
L 339.427986 388.425055 
L 336.039155 389.033037 
L 333.312015 389.251932 
L 331.263226 389.104218 
L 328.362023 388.538516 
L 285.844635 379.518864 
L 284.033622 379.185972 
L 267.92397 376.012262 
L 246.46706 367.425048 
L 206.575622 360.628598 
L 205.142302 360.067713 
L 202.761625 358.043068 
L 198.22139 353.195266 
L 193.255989 346.050404 
L 192.541828 344.553461 
L 191.980493 336.609552 
L 191.855566 336.179255 
L 191.109757 335.458346 
L 188.936041 334.519613 
L 187.045491 334.596681 
L 184.781828 335.432657 
L 183.148626 336.552286 
L 182.11965 337.144213 
L 181.039455 337.028075 
L 179.061873 336.00264 
" style="fill:none;stroke:#999999;"/>
    <path clip-path="url(#pc66e56f170)" d="M 178.991914 295.850657 
L 178.636708 297.752742 
" style="fill:none;stroke:#999999;"/>
    <path clip-path="url(#pc66e56f170)" d="M 178.991914 295.850657 
L 179.06687 295.505991 
L 179.251761 293.86187 
L 179.190547 293.867757 
L 177.836763 293.440135 
L 175.34865 291.914293 
" style="fill:none;stroke:#999999;"/>
    <path clip-path="url(#pc66e56f170)" d="M 178.991914 295.850657 
L 178.065378 295.689563 
L 175.899158 295.371121 
L 173.976127 294.782941 
L 173.586357 294.87553 
L 172.711041 295.164536 
L 171.752857 295.181662 
" style="fill:none;stroke:#999999;"/>
    <path clip-path="url(#pc66e56f170)" d="M 352.408653 356.838878 
L 352.152554 360.451448 
L 351.761535 365.937204 
L 351.565817 368.582141 
L 351.253502 372.853537 
L 350.793773 379.869952 
L 350.730894 381.92992 
L 350.977831 384.033774 
L 351.405912 385.814906 
L 351.978907 387.609417 
" style="fill:none;stroke:#999999;"/>
    <path clip-path="url(#pc66e56f170)" d="M 352.408653 356.838878 
L 352.466119 356.632292 
L 352.474447 356.564322 
" style="fill:none;stroke:#999999;"/>
    <path clip-path="url(#pc66e56f170)" d="M 369.733004 356.58573 
L 388.797576 357.711246 
L 419.200036 359.506828 
L 425.065322 359.52556 
" style="fill:none;stroke:#999999;"/>
    <path clip-path="url(#pc66e56f170)" d="M 369.733004 356.58573 
L 367.63466 356.359877 
L 359.617728 355.734234 
" style="fill:none;stroke:#999999;"/>
    <path clip-path="url(#pc66e56f170)" d="M 351.978907 387.609417 
L 352.464037 388.601134 
" style="fill:none;stroke:#999999;"/>
    <path clip-path="url(#pc66e56f170)" d="M 351.978907 387.609417 
L 352.007223 387.967998 
L 351.898954 388.190639 
L 351.391753 388.576515 
" style="fill:none;stroke:#999999;"/>
    <path clip-path="url(#pc66e56f170)" d="M 351.978907 387.609417 
L 351.405912 385.814906 
L 350.977831 384.033774 
L 350.730894 381.92992 
L 350.793773 379.869952 
L 351.253502 372.853537 
L 351.565817 368.582141 
L 351.761535 365.937204 
L 352.152554 360.451448 
L 352.408653 356.838878 
" style="fill:none;stroke:#999999;"/>
    <path clip-path="url(#pc66e56f170)" d="M 365.007461 356.349709 
L 367.461845 356.502239 
L 369.733004 356.58573 
" style="fill:none;stroke:#999999;"/>
    <path clip-path="url(#pc66e56f170)" d="M 155.070627 294.466105 
L 155.093114 294.660381 
L 155.134339 295.018427 
L 155.152662 295.178451 
L 155.211377 295.691168 
L 155.41001 297.41878 
" style="fill:none;stroke:#999999;"/>
    <path clip-path="url(#pc66e56f170)" d="M 155.41001 297.41878 
L 154.479309 297.578803 
" style="fill:none;stroke:#999999;"/>
    <path clip-path="url(#pc66e56f170)" d="M 155.41001 297.41878 
L 156.126253 297.295685 
L 157.36802 297.13245 
" style="fill:none;stroke:#999999;"/>
    <path clip-path="url(#pc66e56f170)" d="M 155.41001 297.41878 
L 155.211377 295.691168 
L 155.152662 295.178451 
L 155.134339 295.018427 
L 155.093114 294.660381 
L 155.070627 294.466105 
" style="fill:none;stroke:#999999;"/>
    <path clip-path="url(#pc66e56f170)" d="M 182.322031 298.530381 
L 181.61828 301.371735 
" style="fill:none;stroke:#999999;"/>
    <path clip-path="url(#pc66e56f170)" d="M 182.322031 298.530381 
L 182.81424 296.178196 
" style="fill:none;stroke:#999999;"/>
    <path clip-path="url(#pc66e56f170)" d="M 182.322031 298.530381 
L 184.941733 299.121772 
" style="fill:none;stroke:#999999;"/>
    <path clip-path="url(#pc66e56f170)" d="M 182.322031 298.530381 
L 180.585973 298.172871 
" style="fill:none;stroke:#999999;"/>
   </g>
  </g>
 </g>
 <defs>
  <clipPath id="pc66e56f170">
   <rect height="432" width="517.570098" x="73.812805" y="0"/>
  </clipPath>
 </defs>
</svg>
