<?xml version="1.0" encoding="utf-8" standalone="no"?>
<!DOCTYPE svg PUBLIC "-//W3C//DTD SVG 1.1//EN"
  "http://www.w3.org/Graphics/SVG/1.1/DTD/svg11.dtd">
<!-- Created with matplotlib (http://matplotlib.org/) -->
<svg height="432pt" version="1.1" viewBox="0 0 571.905511 432" width="571.905511pt" xmlns="http://www.w3.org/2000/svg" xmlns:xlink="http://www.w3.org/1999/xlink">
 <defs>
  <style type="text/css">
*{stroke-linecap:butt;stroke-linejoin:round;}
  </style>
 </defs>
 <g id="figure_1">
  <g id="patch_1">
   <path d="M 0 432 
L 571.905511 432 
L 571.905511 0 
L 0 0 
z
" style="fill:none;opacity:0;"/>
  </g>
  <g id="axes_1">
   <g id="PathCollection_1">
    <defs>
     <path d="M 0 1.936492 
C 0.513564 1.936492 1.006162 1.732451 1.369306 1.369306 
C 1.732451 1.006162 1.936492 0.513564 1.936492 0 
C 1.936492 -0.513564 1.732451 -1.006162 1.369306 -1.369306 
C 1.006162 -1.732451 0.513564 -1.936492 0 -1.936492 
C -0.513564 -1.936492 -1.006162 -1.732451 -1.369306 -1.369306 
C -1.732451 -1.006162 -1.936492 -0.513564 -1.936492 0 
C -1.936492 0.513564 -1.732451 1.006162 -1.369306 1.369306 
C -1.006162 1.732451 -0.513564 1.936492 0 1.936492 
z
" id="C0_0_07798372d7"/>
    </defs>
    <g clip-path="url(#p0596d65053)">
     <use style="fill:#66ccff;" x="171.784066" xlink:href="#C0_0_07798372d7" y="409.564229"/>
    </g>
    <g clip-path="url(#p0596d65053)">
     <use style="fill:#66ccff;" x="166.304971" xlink:href="#C0_0_07798372d7" y="412.030455"/>
    </g>
    <g clip-path="url(#p0596d65053)">
     <use style="fill:#66ccff;" x="157.348415" xlink:href="#C0_0_07798372d7" y="412.195061"/>
    </g>
    <g clip-path="url(#p0596d65053)">
     <use style="fill:#66ccff;" x="154.537571" xlink:href="#C0_0_07798372d7" y="411.860706"/>
    </g>
    <g clip-path="url(#p0596d65053)">
     <use style="fill:#66ccff;" x="150.100288" xlink:href="#C0_0_07798372d7" y="412.029884"/>
    </g>
    <g clip-path="url(#p0596d65053)">
     <use style="fill:#66ccff;" x="158.030628" xlink:href="#C0_0_07798372d7" y="409.946022"/>
    </g>
    <g clip-path="url(#p0596d65053)">
     <use style="fill:#66ccff;" x="163.17686" xlink:href="#C0_0_07798372d7" y="404.570619"/>
    </g>
    <g clip-path="url(#p0596d65053)">
     <use style="fill:#66ccff;" x="140.563115" xlink:href="#C0_0_07798372d7" y="412.005879"/>
    </g>
    <g clip-path="url(#p0596d65053)">
     <use style="fill:#66ccff;" x="190.034944" xlink:href="#C0_0_07798372d7" y="406.715065"/>
    </g>
    <g clip-path="url(#p0596d65053)">
     <use style="fill:#66ccff;" x="187.441107" xlink:href="#C0_0_07798372d7" y="405.507385"/>
    </g>
    <g clip-path="url(#p0596d65053)">
     <use style="fill:#66ccff;" x="156.248229" xlink:href="#C0_0_07798372d7" y="416.089013"/>
    </g>
    <g clip-path="url(#p0596d65053)">
     <use style="fill:#66ccff;" x="152.200846" xlink:href="#C0_0_07798372d7" y="415.706076"/>
    </g>
    <g clip-path="url(#p0596d65053)">
     <use style="fill:#66ccff;" x="154.534897" xlink:href="#C0_0_07798372d7" y="416.060436"/>
    </g>
    <g clip-path="url(#p0596d65053)">
     <use style="fill:#66ccff;" x="162.389485" xlink:href="#C0_0_07798372d7" y="418.047134"/>
    </g>
    <g clip-path="url(#p0596d65053)">
     <use style="fill:#66ccff;" x="170.183472" xlink:href="#C0_0_07798372d7" y="410.228367"/>
    </g>
    <g clip-path="url(#p0596d65053)">
     <use style="fill:#66ccff;" x="144.075779" xlink:href="#C0_0_07798372d7" y="419.348548"/>
    </g>
    <g clip-path="url(#p0596d65053)">
     <use style="fill:#66ccff;" x="160.642734" xlink:href="#C0_0_07798372d7" y="404.627774"/>
    </g>
    <g clip-path="url(#p0596d65053)">
     <use style="fill:#66ccff;" x="167.664942" xlink:href="#C0_0_07798372d7" y="415.833532"/>
    </g>
    <g clip-path="url(#p0596d65053)">
     <use style="fill:#66ccff;" x="155.829365" xlink:href="#C0_0_07798372d7" y="406.198386"/>
    </g>
    <g clip-path="url(#p0596d65053)">
     <use style="fill:#66ccff;" x="161.859222" xlink:href="#C0_0_07798372d7" y="415.57062"/>
    </g>
    <g clip-path="url(#p0596d65053)">
     <use style="fill:#66ccff;" x="169.556513" xlink:href="#C0_0_07798372d7" y="416.089585"/>
    </g>
    <g clip-path="url(#p0596d65053)">
     <use style="fill:#66ccff;" x="155.27593" xlink:href="#C0_0_07798372d7" y="407.295757"/>
    </g>
    <g clip-path="url(#p0596d65053)">
     <use style="fill:#66ccff;" x="149.347224" xlink:href="#C0_0_07798372d7" y="408.792068"/>
    </g>
    <g clip-path="url(#p0596d65053)">
     <use style="fill:#66ccff;" x="168.364979" xlink:href="#C0_0_07798372d7" y="417.516167"/>
    </g>
    <g clip-path="url(#p0596d65053)">
     <use style="fill:#66ccff;" x="126.098945" xlink:href="#C0_0_07798372d7" y="392.860757"/>
    </g>
    <g clip-path="url(#p0596d65053)">
     <use style="fill:#66ccff;" x="137.529026" xlink:href="#C0_0_07798372d7" y="409.207011"/>
    </g>
    <g clip-path="url(#p0596d65053)">
     <use style="fill:#66ccff;" x="152.632632" xlink:href="#C0_0_07798372d7" y="409.397908"/>
    </g>
    <g clip-path="url(#p0596d65053)">
     <use style="fill:#66ccff;" x="134.949003" xlink:href="#C0_0_07798372d7" y="406.904247"/>
    </g>
    <g clip-path="url(#p0596d65053)">
     <use style="fill:#66ccff;" x="161.52725" xlink:href="#C0_0_07798372d7" y="414.192048"/>
    </g>
    <g clip-path="url(#p0596d65053)">
     <use style="fill:#66ccff;" x="155.165421" xlink:href="#C0_0_07798372d7" y="406.449867"/>
    </g>
    <g clip-path="url(#p0596d65053)">
     <use style="fill:#66ccff;" x="129.174921" xlink:href="#C0_0_07798372d7" y="401.74146"/>
    </g>
    <g clip-path="url(#p0596d65053)">
     <use style="fill:#66ccff;" x="197.264801" xlink:href="#C0_0_07798372d7" y="398.225301"/>
    </g>
    <g clip-path="url(#p0596d65053)">
     <use style="fill:#66ccff;" x="134.530139" xlink:href="#C0_0_07798372d7" y="406.534456"/>
    </g>
    <g clip-path="url(#p0596d65053)">
     <use style="fill:#66ccff;" x="129.721226" xlink:href="#C0_0_07798372d7" y="407.843871"/>
    </g>
    <g clip-path="url(#p0596d65053)">
     <use style="fill:#66ccff;" x="160.248378" xlink:href="#C0_0_07798372d7" y="419.992682"/>
    </g>
    <g clip-path="url(#p0596d65053)">
     <use style="fill:#66ccff;" x="169.400107" xlink:href="#C0_0_07798372d7" y="407.791289"/>
    </g>
    <g clip-path="url(#p0596d65053)">
     <use style="fill:#66ccff;" x="147.368761" xlink:href="#C0_0_07798372d7" y="410.14092"/>
    </g>
    <g clip-path="url(#p0596d65053)">
     <use style="fill:#66ccff;" x="147.252905" xlink:href="#C0_0_07798372d7" y="412.016738"/>
    </g>
    <g clip-path="url(#p0596d65053)">
     <use style="fill:#66ccff;" x="148.65298" xlink:href="#C0_0_07798372d7" y="412.037314"/>
    </g>
    <g clip-path="url(#p0596d65053)">
     <use style="fill:#66ccff;" x="71.587828" xlink:href="#C0_0_07798372d7" y="396.263179"/>
    </g>
    <g clip-path="url(#p0596d65053)">
     <use style="fill:#66ccff;" x="142.40166" xlink:href="#C0_0_07798372d7" y="391.533053"/>
    </g>
    <g clip-path="url(#p0596d65053)">
     <use style="fill:#66ccff;" x="152.030626" xlink:href="#C0_0_07798372d7" y="418.07514"/>
    </g>
    <g clip-path="url(#p0596d65053)">
     <use style="fill:#66ccff;" x="151.985175" xlink:href="#C0_0_07798372d7" y="420.042406"/>
    </g>
    <g clip-path="url(#p0596d65053)">
     <use style="fill:#66ccff;" x="152.297986" xlink:href="#C0_0_07798372d7" y="412.030455"/>
    </g>
    <g clip-path="url(#p0596d65053)">
     <use style="fill:#66ccff;" x="173.352578" xlink:href="#C0_0_07798372d7" y="8.307692"/>
    </g>
    <g clip-path="url(#p0596d65053)">
     <use style="fill:#66ccff;" x="152.281054" xlink:href="#C0_0_07798372d7" y="415.706076"/>
    </g>
    <g clip-path="url(#p0596d65053)">
     <use style="fill:#66ccff;" x="150.106081" xlink:href="#C0_0_07798372d7" y="415.634062"/>
    </g>
    <g clip-path="url(#p0596d65053)">
     <use style="fill:#66ccff;" x="182.992684" xlink:href="#C0_0_07798372d7" y="11.600948"/>
    </g>
    <g clip-path="url(#p0596d65053)">
     <use style="fill:#66ccff;" x="190.501041" xlink:href="#C0_0_07798372d7" y="404.479172"/>
    </g>
    <g clip-path="url(#p0596d65053)">
     <use style="fill:#66ccff;" x="173.839173" xlink:href="#C0_0_07798372d7" y="9.185589"/>
    </g>
    <g clip-path="url(#p0596d65053)">
     <use style="fill:#66ccff;" x="178.189564" xlink:href="#C0_0_07798372d7" y="11.69411"/>
    </g>
    <g clip-path="url(#p0596d65053)">
     <use style="fill:#66ccff;" x="184.378945" xlink:href="#C0_0_07798372d7" y="11.696397"/>
    </g>
    <g clip-path="url(#p0596d65053)">
     <use style="fill:#66ccff;" x="175.098883" xlink:href="#C0_0_07798372d7" y="12.325099"/>
    </g>
    <g clip-path="url(#p0596d65053)">
     <use style="fill:#66ccff;" x="174.819047" xlink:href="#C0_0_07798372d7" y="10.714478"/>
    </g>
    <g clip-path="url(#p0596d65053)">
     <use style="fill:#66ccff;" x="326.94326" xlink:href="#C0_0_07798372d7" y="358.37016"/>
    </g>
    <g clip-path="url(#p0596d65053)">
     <use style="fill:#66ccff;" x="331.254438" xlink:href="#C0_0_07798372d7" y="397.662326"/>
    </g>
    <g clip-path="url(#p0596d65053)">
     <use style="fill:#66ccff;" x="500.317683" xlink:href="#C0_0_07798372d7" y="202.564065"/>
    </g>
    <g clip-path="url(#p0596d65053)">
     <use style="fill:#66ccff;" x="147.448078" xlink:href="#C0_0_07798372d7" y="408.723482"/>
    </g>
    <g clip-path="url(#p0596d65053)">
     <use style="fill:#66ccff;" x="147.389259" xlink:href="#C0_0_07798372d7" y="409.81228"/>
    </g>
    <g clip-path="url(#p0596d65053)">
     <use style="fill:#66ccff;" x="150.105635" xlink:href="#C0_0_07798372d7" y="415.445451"/>
    </g>
    <g clip-path="url(#p0596d65053)">
     <use style="fill:#66ccff;" x="152.316256" xlink:href="#C0_0_07798372d7" y="413.13297"/>
    </g>
    <g clip-path="url(#p0596d65053)">
     <use style="fill:#66ccff;" x="152.848302" xlink:href="#C0_0_07798372d7" y="407.031702"/>
    </g>
    <g clip-path="url(#p0596d65053)">
     <use style="fill:#66ccff;" x="154.587478" xlink:href="#C0_0_07798372d7" y="409.836857"/>
    </g>
    <g clip-path="url(#p0596d65053)">
     <use style="fill:#66ccff;" x="154.534006" xlink:href="#C0_0_07798372d7" y="412.013309"/>
    </g>
    <g clip-path="url(#p0596d65053)">
     <use style="fill:#66ccff;" x="169.75124" xlink:href="#C0_0_07798372d7" y="410.115772"/>
    </g>
    <g clip-path="url(#p0596d65053)">
     <use style="fill:#66ccff;" x="158.065385" xlink:href="#C0_0_07798372d7" y="409.721976"/>
    </g>
    <g clip-path="url(#p0596d65053)">
     <use style="fill:#66ccff;" x="156.824835" xlink:href="#C0_0_07798372d7" y="408.279962"/>
    </g>
    <g clip-path="url(#p0596d65053)">
     <use style="fill:#66ccff;" x="156.367204" xlink:href="#C0_0_07798372d7" y="410.714182"/>
    </g>
    <g clip-path="url(#p0596d65053)">
     <use style="fill:#66ccff;" x="162.361413" xlink:href="#C0_0_07798372d7" y="409.924303"/>
    </g>
    <g clip-path="url(#p0596d65053)">
     <use style="fill:#66ccff;" x="165.559483" xlink:href="#C0_0_07798372d7" y="405.94119"/>
    </g>
    <g clip-path="url(#p0596d65053)">
     <use style="fill:#66ccff;" x="159.547895" xlink:href="#C0_0_07798372d7" y="404.906689"/>
    </g>
    <g clip-path="url(#p0596d65053)">
     <use style="fill:#66ccff;" x="160.292047" xlink:href="#C0_0_07798372d7" y="407.059708"/>
    </g>
    <g clip-path="url(#p0596d65053)">
     <use style="fill:#66ccff;" x="165.485513" xlink:href="#C0_0_07798372d7" y="409.910015"/>
    </g>
    <g clip-path="url(#p0596d65053)">
     <use style="fill:#66ccff;" x="165.744852" xlink:href="#C0_0_07798372d7" y="411.358887"/>
    </g>
    <g clip-path="url(#p0596d65053)">
     <use style="fill:#66ccff;" x="165.927102" xlink:href="#C0_0_07798372d7" y="412.192775"/>
    </g>
    <g clip-path="url(#p0596d65053)">
     <use style="fill:#66ccff;" x="144.693825" xlink:href="#C0_0_07798372d7" y="414.640712"/>
    </g>
    <g clip-path="url(#p0596d65053)">
     <use style="fill:#66ccff;" x="140.502514" xlink:href="#C0_0_07798372d7" y="409.588234"/>
    </g>
    <g clip-path="url(#p0596d65053)">
     <use style="fill:#66ccff;" x="140.729769" xlink:href="#C0_0_07798372d7" y="407.748994"/>
    </g>
    <g clip-path="url(#p0596d65053)">
     <use style="fill:#66ccff;" x="139.389405" xlink:href="#C0_0_07798372d7" y="409.445347"/>
    </g>
    <g clip-path="url(#p0596d65053)">
     <use style="fill:#66ccff;" x="139.119372" xlink:href="#C0_0_07798372d7" y="410.674174"/>
    </g>
    <g clip-path="url(#p0596d65053)">
     <use style="fill:#66ccff;" x="160.476525" xlink:href="#C0_0_07798372d7" y="423.692308"/>
    </g>
    <g clip-path="url(#p0596d65053)">
     <use style="fill:#66ccff;" x="144.549006" xlink:href="#C0_0_07798372d7" y="417.640193"/>
    </g>
    <g clip-path="url(#p0596d65053)">
     <use style="fill:#66ccff;" x="143.69078" xlink:href="#C0_0_07798372d7" y="417.582466"/>
    </g>
    <g clip-path="url(#p0596d65053)">
     <use style="fill:#66ccff;" x="145.376039" xlink:href="#C0_0_07798372d7" y="414.88362"/>
    </g>
    <g clip-path="url(#p0596d65053)">
     <use style="fill:#66ccff;" x="155.166312" xlink:href="#C0_0_07798372d7" y="416.070724"/>
    </g>
    <g clip-path="url(#p0596d65053)">
     <use style="fill:#66ccff;" x="155.372625" xlink:href="#C0_0_07798372d7" y="418.382633"/>
    </g>
    <g clip-path="url(#p0596d65053)">
     <use style="fill:#66ccff;" x="149.294644" xlink:href="#C0_0_07798372d7" y="409.887724"/>
    </g>
    <g clip-path="url(#p0596d65053)">
     <use style="fill:#66ccff;" x="139.570764" xlink:href="#C0_0_07798372d7" y="385.583816"/>
    </g>
    <g clip-path="url(#p0596d65053)">
     <use style="fill:#66ccff;" x="172.226101" xlink:href="#C0_0_07798372d7" y="12.676029"/>
    </g>
   </g>
   <g id="LineCollection_1">
    <path clip-path="url(#p0596d65053)" d="M 171.784066 409.564229 
L 170.183472 410.228367 
" style="fill:none;stroke:#999999;"/>
    <path clip-path="url(#p0596d65053)" d="M 171.784066 409.564229 
L 172.067914 409.456206 
L 172.465389 409.288743 
L 181.822985 406.181811 
L 186.878315 405.863459 
L 187.441107 405.507385 
" style="fill:none;stroke:#999999;"/>
    <path clip-path="url(#p0596d65053)" d="M 171.784066 409.564229 
L 171.429369 408.914379 
L 171.054174 408.586311 
L 169.400107 407.791289 
" style="fill:none;stroke:#999999;"/>
    <path clip-path="url(#p0596d65053)" d="M 171.784066 409.564229 
L 171.717672 413.233563 
L 169.556513 416.089585 
" style="fill:none;stroke:#999999;"/>
    <path clip-path="url(#p0596d65053)" d="M 166.304971 412.030455 
L 170.183472 410.228367 
" style="fill:none;stroke:#999999;"/>
    <path clip-path="url(#p0596d65053)" d="M 166.304971 412.030455 
L 165.927102 412.192775 
" style="fill:none;stroke:#999999;"/>
    <path clip-path="url(#p0596d65053)" d="M 166.304971 412.030455 
L 167.664942 415.833532 
" style="fill:none;stroke:#999999;"/>
    <path clip-path="url(#p0596d65053)" d="M 157.348415 412.195061 
L 158.030628 409.946022 
" style="fill:none;stroke:#999999;"/>
    <path clip-path="url(#p0596d65053)" d="M 157.348415 412.195061 
L 156.248229 416.089013 
" style="fill:none;stroke:#999999;"/>
    <path clip-path="url(#p0596d65053)" d="M 157.348415 412.195061 
L 154.537571 411.860706 
" style="fill:none;stroke:#999999;"/>
    <path clip-path="url(#p0596d65053)" d="M 157.348415 412.195061 
L 157.945073 412.230497 
L 158.822013 412.283079 
L 160.245705 412.288223 
L 161.1525 412.252216 
L 161.831149 412.213351 
L 162.496429 412.129905 
L 163.71158 411.870994 
L 164.805082 411.650948 
L 165.744852 411.358887 
" style="fill:none;stroke:#999999;"/>
    <path clip-path="url(#p0596d65053)" d="M 154.537571 411.860706 
L 157.348415 412.195061 
" style="fill:none;stroke:#999999;"/>
    <path clip-path="url(#p0596d65053)" d="M 154.537571 411.860706 
L 154.587478 409.836857 
" style="fill:none;stroke:#999999;"/>
    <path clip-path="url(#p0596d65053)" d="M 154.537571 411.860706 
L 154.534006 412.013309 
" style="fill:none;stroke:#999999;"/>
    <path clip-path="url(#p0596d65053)" d="M 150.100288 412.029884 
L 150.105635 415.445451 
" style="fill:none;stroke:#999999;"/>
    <path clip-path="url(#p0596d65053)" d="M 150.100288 412.029884 
L 152.297986 412.030455 
" style="fill:none;stroke:#999999;"/>
    <path clip-path="url(#p0596d65053)" d="M 150.100288 412.029884 
L 148.927915 412.035599 
L 148.65298 412.037314 
" style="fill:none;stroke:#999999;"/>
    <path clip-path="url(#p0596d65053)" d="M 158.030628 409.946022 
L 158.065385 409.721976 
" style="fill:none;stroke:#999999;"/>
    <path clip-path="url(#p0596d65053)" d="M 158.030628 409.946022 
L 157.348415 412.195061 
" style="fill:none;stroke:#999999;"/>
    <path clip-path="url(#p0596d65053)" d="M 158.030628 409.946022 
L 160.781761 409.931734 
L 162.361413 409.924303 
" style="fill:none;stroke:#999999;"/>
    <path clip-path="url(#p0596d65053)" d="M 163.17686 404.570619 
L 160.642734 404.627774 
" style="fill:none;stroke:#999999;"/>
    <path clip-path="url(#p0596d65053)" d="M 163.17686 404.570619 
L 165.559483 405.94119 
" style="fill:none;stroke:#999999;"/>
    <path clip-path="url(#p0596d65053)" d="M 163.17686 404.570619 
L 160.597283 406.747643 
L 160.292047 407.059708 
" style="fill:none;stroke:#999999;"/>
    <path clip-path="url(#p0596d65053)" d="M 163.17686 404.570619 
L 167.408722 403.941346 
L 168.364979 403.973352 
L 168.86717 404.451737 
L 169.400107 407.791289 
" style="fill:none;stroke:#999999;"/>
    <path clip-path="url(#p0596d65053)" d="M 140.563115 412.005879 
L 147.252905 412.016738 
" style="fill:none;stroke:#999999;"/>
    <path clip-path="url(#p0596d65053)" d="M 140.563115 412.005879 
L 141.275184 412.61572 
L 142.666792 413.807396 
L 143.949674 414.363512 
L 144.693825 414.640712 
" style="fill:none;stroke:#999999;"/>
    <path clip-path="url(#p0596d65053)" d="M 140.563115 412.005879 
L 139.246368 410.791341 
L 139.119372 410.674174 
" style="fill:none;stroke:#999999;"/>
    <path clip-path="url(#p0596d65053)" d="M 190.034944 406.715065 
L 190.427072 407.598677 
L 191.885074 411.27487 
L 193.3863 413.039808 
L 194.497626 413.892557 
L 195.788083 414.443528 
L 201.280101 416.364499 
L 205.907209 418.262036 
L 206.581847 418.576959 
L 207.279211 419.049629 
L 209.595439 420.894583 
L 210.360088 421.187216 
L 211.147463 421.344963 
L 212.132239 421.243227 
L 212.92407 421.097483 
L 213.913747 420.872293 
L 214.856636 420.558514 
L 217.534691 419.56745 
L 225.097411 416.631983 
L 228.862284 415.268843 
L 230.21869 414.77274 
L 231.527416 414.384087 
L 233.009481 414.025156 
L 235.387648 413.534768 
L 248.775249 411.35603 
L 252.006739 410.830206 
L 253.910341 410.600444 
L 255.109004 410.490135 
L 256.244393 410.46613 
L 258.097197 410.501566 
L 260.618846 410.729042 
L 266.822041 411.589792 
L 275.570948 412.893492 
L 277.757952 413.23985 
L 279.98105 413.53934 
L 282.192116 413.778247 
L 284.020857 413.885698 
L 286.435117 413.826257 
L 288.467052 413.658794 
L 290.462894 413.323867 
L 292.004669 412.94093 
L 294.072253 412.307656 
L 295.697801 411.745253 
L 297.358997 411.051966 
L 299.247449 410.191216 
L 300.514289 409.46135 
L 301.948675 408.588597 
L 304.410614 406.675628 
L 310.73323 401.330517 
L 311.904712 400.4932 
L 312.705455 399.931369 
L 313.541845 399.464987 
L 314.868842 398.867148 
L 316.362047 398.348755 
L 317.82094 397.886945 
L 318.824877 397.683474 
L 319.804751 397.540015 
L 322.694466 397.314254 
L 331.254438 397.662326 
" style="fill:none;stroke:#999999;"/>
    <path clip-path="url(#p0596d65053)" d="M 190.034944 406.715065 
L 189.44898 406.260685 
L 188.947235 405.997773 
L 188.158077 405.734861 
L 187.441107 405.507385 
" style="fill:none;stroke:#999999;"/>
    <path clip-path="url(#p0596d65053)" d="M 190.034944 406.715065 
L 189.963202 405.698854 
L 190.130302 405.220469 
L 190.501041 404.479172 
" style="fill:none;stroke:#999999;"/>
    <path clip-path="url(#p0596d65053)" d="M 187.441107 405.507385 
L 190.501041 404.479172 
" style="fill:none;stroke:#999999;"/>
    <path clip-path="url(#p0596d65053)" d="M 187.441107 405.507385 
L 186.878315 405.863459 
L 181.822985 406.181811 
L 172.465389 409.288743 
L 172.067914 409.456206 
L 171.784066 409.564229 
" style="fill:none;stroke:#999999;"/>
    <path clip-path="url(#p0596d65053)" d="M 187.441107 405.507385 
L 188.158077 405.734861 
L 188.947235 405.997773 
L 189.44898 406.260685 
L 190.034944 406.715065 
" style="fill:none;stroke:#999999;"/>
    <path clip-path="url(#p0596d65053)" d="M 187.441107 405.507385 
L 186.903268 405.507385 
L 185.947011 405.411937 
L 184.76127 405.244474 
L 183.485518 404.977561 
L 182.113961 404.501462 
L 180.533419 403.681863 
L 178.838803 402.595923 
L 170.707052 397.375981 
L 163.718264 393.108237 
L 162.213919 392.232055 
L 160.644962 391.482185 
L 159.552797 391.102677 
L 158.799733 390.863771 
L 158.062711 390.707738 
L 157.281575 390.552849 
L 156.516925 390.445398 
L 155.668058 390.397388 
L 154.413249 390.349378 
L 153.074667 390.433395 
L 151.676375 390.564851 
L 150.349824 390.70831 
L 142.40166 391.533053 
" style="fill:none;stroke:#999999;"/>
    <path clip-path="url(#p0596d65053)" d="M 156.248229 416.089013 
L 157.348415 412.195061 
" style="fill:none;stroke:#999999;"/>
    <path clip-path="url(#p0596d65053)" d="M 156.248229 416.089013 
L 155.166312 416.070724 
" style="fill:none;stroke:#999999;"/>
    <path clip-path="url(#p0596d65053)" d="M 156.248229 416.089013 
L 157.269989 415.886685 
L 159.026544 415.23455 
L 161.52725 414.192048 
" style="fill:none;stroke:#999999;"/>
    <path clip-path="url(#p0596d65053)" d="M 152.200846 415.706076 
L 152.281054 415.706076 
" style="fill:none;stroke:#999999;"/>
    <path clip-path="url(#p0596d65053)" d="M 152.200846 415.706076 
L 150.106081 415.634062 
" style="fill:none;stroke:#999999;"/>
    <path clip-path="url(#p0596d65053)" d="M 152.200846 415.706076 
L 152.030626 418.07514 
" style="fill:none;stroke:#999999;"/>
    <path clip-path="url(#p0596d65053)" d="M 154.534897 416.060436 
L 155.166312 416.070724 
" style="fill:none;stroke:#999999;"/>
    <path clip-path="url(#p0596d65053)" d="M 154.534897 416.060436 
L 152.281054 415.706076 
" style="fill:none;stroke:#999999;"/>
    <path clip-path="url(#p0596d65053)" d="M 154.534897 416.060436 
L 154.534006 412.013309 
" style="fill:none;stroke:#999999;"/>
    <path clip-path="url(#p0596d65053)" d="M 162.389485 418.047134 
L 161.859222 415.57062 
" style="fill:none;stroke:#999999;"/>
    <path clip-path="url(#p0596d65053)" d="M 162.389485 418.047134 
L 166.702001 417.617902 
L 168.364979 417.516167 
" style="fill:none;stroke:#999999;"/>
    <path clip-path="url(#p0596d65053)" d="M 162.389485 418.047134 
L 161.064272 418.161444 
L 155.372625 418.382633 
" style="fill:none;stroke:#999999;"/>
    <path clip-path="url(#p0596d65053)" d="M 170.183472 410.228367 
L 166.304971 412.030455 
" style="fill:none;stroke:#999999;"/>
    <path clip-path="url(#p0596d65053)" d="M 170.183472 410.228367 
L 171.784066 409.564229 
" style="fill:none;stroke:#999999;"/>
    <path clip-path="url(#p0596d65053)" d="M 170.183472 410.228367 
L 169.75124 410.115772 
" style="fill:none;stroke:#999999;"/>
    <path clip-path="url(#p0596d65053)" d="M 144.075779 419.348548 
L 144.549006 417.640193 
" style="fill:none;stroke:#999999;"/>
    <path clip-path="url(#p0596d65053)" d="M 144.075779 419.348548 
L 148.486771 419.8075 
L 151.985175 420.042406 
" style="fill:none;stroke:#999999;"/>
    <path clip-path="url(#p0596d65053)" d="M 144.075779 419.348548 
L 143.869466 419.048485 
L 143.738014 418.655261 
L 143.63107 418.028845 
L 143.69078 417.582466 
" style="fill:none;stroke:#999999;"/>
    <path clip-path="url(#p0596d65053)" d="M 160.642734 404.627774 
L 159.547895 404.906689 
" style="fill:none;stroke:#999999;"/>
    <path clip-path="url(#p0596d65053)" d="M 160.642734 404.627774 
L 163.17686 404.570619 
" style="fill:none;stroke:#999999;"/>
    <path clip-path="url(#p0596d65053)" d="M 160.642734 404.627774 
L 159.325541 404.46374 
L 158.05469 404.353431 
L 155.673405 405.065008 
L 155.518336 405.295341 
L 155.829365 406.198386 
" style="fill:none;stroke:#999999;"/>
    <path clip-path="url(#p0596d65053)" d="M 167.664942 415.833532 
L 169.556513 416.089585 
" style="fill:none;stroke:#999999;"/>
    <path clip-path="url(#p0596d65053)" d="M 167.664942 415.833532 
L 166.304971 412.030455 
" style="fill:none;stroke:#999999;"/>
    <path clip-path="url(#p0596d65053)" d="M 167.664942 415.833532 
L 165.744852 415.651779 
L 163.723611 415.580908 
L 161.859222 415.57062 
" style="fill:none;stroke:#999999;"/>
    <path clip-path="url(#p0596d65053)" d="M 155.829365 406.198386 
L 159.547895 404.906689 
" style="fill:none;stroke:#999999;"/>
    <path clip-path="url(#p0596d65053)" d="M 155.829365 406.198386 
L 155.518336 405.295341 
L 155.673405 405.065008 
L 158.05469 404.353431 
L 159.325541 404.46374 
L 160.642734 404.627774 
" style="fill:none;stroke:#999999;"/>
    <path clip-path="url(#p0596d65053)" d="M 155.829365 406.198386 
L 155.593197 406.303551 
L 155.165421 406.449867 
" style="fill:none;stroke:#999999;"/>
    <path clip-path="url(#p0596d65053)" d="M 161.859222 415.57062 
L 161.52725 414.192048 
" style="fill:none;stroke:#999999;"/>
    <path clip-path="url(#p0596d65053)" d="M 161.859222 415.57062 
L 162.389485 418.047134 
" style="fill:none;stroke:#999999;"/>
    <path clip-path="url(#p0596d65053)" d="M 161.859222 415.57062 
L 163.723611 415.580908 
L 165.744852 415.651779 
L 167.664942 415.833532 
" style="fill:none;stroke:#999999;"/>
    <path clip-path="url(#p0596d65053)" d="M 169.556513 416.089585 
L 167.664942 415.833532 
" style="fill:none;stroke:#999999;"/>
    <path clip-path="url(#p0596d65053)" d="M 169.556513 416.089585 
L 168.364979 417.516167 
" style="fill:none;stroke:#999999;"/>
    <path clip-path="url(#p0596d65053)" d="M 169.556513 416.089585 
L 171.717672 413.233563 
L 171.784066 409.564229 
" style="fill:none;stroke:#999999;"/>
    <path clip-path="url(#p0596d65053)" d="M 155.27593 407.295757 
L 155.165421 406.449867 
" style="fill:none;stroke:#999999;"/>
    <path clip-path="url(#p0596d65053)" d="M 155.27593 407.295757 
L 156.582874 407.998189 
L 156.727694 408.166795 
L 156.824835 408.279962 
" style="fill:none;stroke:#999999;"/>
    <path clip-path="url(#p0596d65053)" d="M 155.27593 407.295757 
L 154.861077 407.962753 
L 154.587478 409.836857 
" style="fill:none;stroke:#999999;"/>
    <path clip-path="url(#p0596d65053)" d="M 149.347224 408.792068 
L 149.294644 409.887724 
" style="fill:none;stroke:#999999;"/>
    <path clip-path="url(#p0596d65053)" d="M 149.347224 408.792068 
L 148.478305 408.760633 
L 147.448078 408.723482 
" style="fill:none;stroke:#999999;"/>
    <path clip-path="url(#p0596d65053)" d="M 149.347224 408.792068 
L 149.574926 407.699841 
L 150.37255 407.586103 
L 152.848302 407.031702 
" style="fill:none;stroke:#999999;"/>
    <path clip-path="url(#p0596d65053)" d="M 168.364979 417.516167 
L 169.556513 416.089585 
" style="fill:none;stroke:#999999;"/>
    <path clip-path="url(#p0596d65053)" d="M 168.364979 417.516167 
L 166.702001 417.617902 
L 162.389485 418.047134 
" style="fill:none;stroke:#999999;"/>
    <path clip-path="url(#p0596d65053)" d="M 168.364979 417.516167 
L 166.690861 419.219378 
L 166.044741 419.385127 
L 162.643477 419.668043 
L 160.248378 419.992682 
" style="fill:none;stroke:#999999;"/>
    <path clip-path="url(#p0596d65053)" d="M 126.098945 392.860757 
L 128.525236 392.705296 
L 131.178783 392.561838 
L 136.760366 392.083453 
L 142.40166 391.533053 
" style="fill:none;stroke:#999999;"/>
    <path clip-path="url(#p0596d65053)" d="M 126.098945 392.860757 
L 85.279774 395.396141 
L 78.352925 395.79451 
L 72.940224 396.105431 
L 71.587828 396.263179 
" style="fill:none;stroke:#999999;"/>
    <path clip-path="url(#p0596d65053)" d="M 126.098945 392.860757 
L 124.908302 394.122734 
L 125.05134 395.325841 
L 125.840052 396.498656 
L 126.338232 396.69584 
L 127.416584 396.849586 
L 128.009231 397.349118 
L 129.401731 401.005307 
L 129.174921 401.74146 
" style="fill:none;stroke:#999999;"/>
    <path clip-path="url(#p0596d65053)" d="M 137.529026 409.207011 
L 139.119372 410.674174 
" style="fill:none;stroke:#999999;"/>
    <path clip-path="url(#p0596d65053)" d="M 137.529026 409.207011 
L 134.949003 406.904247 
" style="fill:none;stroke:#999999;"/>
    <path clip-path="url(#p0596d65053)" d="M 137.529026 409.207011 
L 139.389405 409.445347 
" style="fill:none;stroke:#999999;"/>
    <path clip-path="url(#p0596d65053)" d="M 152.632632 409.397908 
L 154.587478 409.836857 
" style="fill:none;stroke:#999999;"/>
    <path clip-path="url(#p0596d65053)" d="M 152.632632 409.397908 
L 152.429438 410.519284 
L 151.666571 410.365538 
L 151.338164 410.299238 
L 150.072661 410.044328 
L 150.011168 410.031754 
L 149.294644 409.887724 
" style="fill:none;stroke:#999999;"/>
    <path clip-path="url(#p0596d65053)" d="M 152.632632 409.397908 
L 152.829141 408.407988 
L 152.90623 407.374631 
L 152.848302 407.031702 
" style="fill:none;stroke:#999999;"/>
    <path clip-path="url(#p0596d65053)" d="M 134.949003 406.904247 
L 137.529026 409.207011 
" style="fill:none;stroke:#999999;"/>
    <path clip-path="url(#p0596d65053)" d="M 134.949003 406.904247 
L 134.530139 406.534456 
" style="fill:none;stroke:#999999;"/>
    <path clip-path="url(#p0596d65053)" d="M 134.949003 406.904247 
L 135.13972 406.941398 
L 140.729769 407.748994 
" style="fill:none;stroke:#999999;"/>
    <path clip-path="url(#p0596d65053)" d="M 161.52725 414.192048 
L 165.927102 412.192775 
" style="fill:none;stroke:#999999;"/>
    <path clip-path="url(#p0596d65053)" d="M 161.52725 414.192048 
L 161.859222 415.57062 
" style="fill:none;stroke:#999999;"/>
    <path clip-path="url(#p0596d65053)" d="M 161.52725 414.192048 
L 159.026544 415.23455 
L 157.269989 415.886685 
L 156.248229 416.089013 
" style="fill:none;stroke:#999999;"/>
    <path clip-path="url(#p0596d65053)" d="M 155.165421 406.449867 
L 155.27593 407.295757 
" style="fill:none;stroke:#999999;"/>
    <path clip-path="url(#p0596d65053)" d="M 155.165421 406.449867 
L 154.853056 406.546459 
L 152.848302 407.031702 
" style="fill:none;stroke:#999999;"/>
    <path clip-path="url(#p0596d65053)" d="M 155.165421 406.449867 
L 155.593197 406.303551 
L 155.829365 406.198386 
" style="fill:none;stroke:#999999;"/>
    <path clip-path="url(#p0596d65053)" d="M 129.174921 401.74146 
L 129.540312 402.060383 
L 134.530139 406.534456 
" style="fill:none;stroke:#999999;"/>
    <path clip-path="url(#p0596d65053)" d="M 129.174921 401.74146 
L 129.401731 401.005307 
L 128.009231 397.349118 
L 127.416584 396.849586 
L 126.338232 396.69584 
L 125.840052 396.498656 
L 125.05134 395.325841 
L 124.908302 394.122734 
L 126.098945 392.860757 
" style="fill:none;stroke:#999999;"/>
    <path clip-path="url(#p0596d65053)" d="M 129.174921 401.74146 
L 127.408563 400.931006 
L 116.039084 399.443268 
L 114.663963 399.434123 
L 108.133697 400.276584 
L 106.312085 400.541782 
L 104.330057 400.830985 
L 100.536666 401.265933 
L 99.494854 401.308799 
L 98.472202 401.280221 
L 96.446505 401.069892 
L 93.02519 400.782975 
L 85.53332 400.114265 
L 85.120249 399.949659 
L 84.593104 399.654169 
L 83.877025 398.971741 
L 83.656454 398.709973 
L 83.488462 398.547082 
L 83.121734 398.252163 
L 82.731834 398.032118 
L 82.299157 397.897232 
L 81.737701 397.803499 
L 80.731536 397.822931 
L 78.65014 397.910378 
L 77.878361 397.926953 
L 77.285267 397.863511 
L 76.656972 397.74863 
L 75.089351 397.356549 
L 72.337327 396.648401 
L 71.587828 396.263179 
" style="fill:none;stroke:#999999;"/>
    <path clip-path="url(#p0596d65053)" d="M 197.264801 398.225301 
L 201.639254 390.024168 
L 203.320948 387.950594 
L 206.491836 385.374058 
L 212.491392 382.567761 
L 214.642748 381.443527 
L 220.0452 374.675263 
L 227.70417 364.420561 
L 230.805545 361.425652 
L 232.087981 360.793521 
L 234.166259 360.396867 
L 236.847878 359.133748 
L 239.670308 356.978443 
L 249.924896 352.926743 
L 252.666672 351.591037 
L 253.773542 350.542819 
L 255.073802 348.291494 
L 257.431025 346.292222 
L 259.127869 346.025881 
L 260.514576 345.28344 
L 261.733291 344.08662 
L 263.207336 341.231741 
L 266.882197 336.830827 
L 273.917327 333.69989 
L 274.928393 333.082619 
L 279.266753 328.005564 
L 284.045811 326.469816 
L 286.198058 325.308432 
L 290.154985 321.216153 
L 295.651904 319.670117 
L 301.221456 317.072435 
L 310.526026 313.642579 
L 321.096099 311.586151 
L 324.581581 312.002238 
L 326.498551 311.623302 
L 330.736651 308.632395 
L 338.380025 303.371301 
L 340.649465 303.06038 
L 344.118014 303.725089 
L 346.134353 303.506186 
L 353.567403 298.111351 
L 363.643752 292.202123 
L 365.990281 291.390526 
L 366.912672 290.522917 
L 365.803575 286.419778 
L 364.859348 284.550247 
L 363.826894 281.906269 
L 364.065735 280.113325 
L 365.5478 278.200356 
L 366.312895 276.95724 
L 366.504057 275.188301 
L 363.755152 267.107765 
L 362.822957 265.936093 
L 360.815085 263.832227 
L 360.16941 262.422219 
L 359.117795 255.943159 
L 358.113858 250.468878 
L 358.1856 247.839189 
L 358.878508 246.309156 
L 362.344829 243.321107 
L 363.802831 241.791074 
L 365.404317 240.499949 
L 366.742899 240.04614 
L 377.045612 240.380496 
L 378.790581 240.093579 
L 379.98568 239.352853 
L 383.007292 236.932922 
L 385.507553 234.93022 
L 387.443684 234.786762 
L 390.69478 234.906215 
L 394.854009 238.396655 
L 396.24027 238.611557 
L 400.495303 237.942275 
L 409.602472 239.209395 
L 413.857505 239.424297 
L 434.016886 232.804635 
L 439.410872 231.033982 
L 440.510166 229.336486 
L 441.131778 229.193028 
L 444.191267 230.26868 
L 446.366685 230.67505 
L 448.088037 230.173231 
L 450.788817 227.902474 
L 457.840435 225.272784 
L 461.067468 223.695314 
L 469.457667 218.722852 
L 471.800631 218.340486 
L 473.080394 218.406214 
L 476.198701 216.045724 
L 479.545156 214.205341 
L 485.783999 209.806713 
L 490.780064 206.173958 
L 494.652327 204.070092 
L 500.317683 202.564065 
" style="fill:none;stroke:#999999;"/>
    <path clip-path="url(#p0596d65053)" d="M 197.264801 398.225301 
L 196.859305 384.427004 
L 196.883367 383.410793 
L 196.966695 382.549471 
L 197.110178 381.664716 
L 197.313371 380.827971 
L 197.612369 379.991225 
L 197.982662 378.915002 
L 198.986599 376.404194 
L 200.827371 371.573476 
L 201.950729 368.476832 
L 202.464505 366.982236 
L 202.751471 365.94202 
L 202.906986 365.272738 
L 203.0625 364.578879 
L 203.16989 363.670119 
L 203.325404 362.140087 
L 203.432794 360.095662 
L 203.576277 357.237925 
L 203.803533 351.606469 
L 203.970633 347.2187 
L 204.126147 342.676041 
L 204.412668 333.625589 
L 204.448761 331.880083 
L 204.389051 331.043338 
L 204.317309 330.290039 
L 204.126147 329.369276 
L 203.791501 328.37707 
L 203.397146 327.492314 
L 203.050469 326.775022 
L 202.596403 326.033726 
L 201.998408 325.19698 
L 201.508694 324.695162 
L 201.054182 324.216776 
L 200.480695 323.726389 
L 199.787341 323.22457 
L 198.914857 322.72218 
L 198.221949 322.411258 
L 197.510772 322.166636 
L 196.058562 321.646528 
L 194.779691 321.132135 
L 193.811402 320.689758 
L 192.987043 320.163934 
L 192.269181 319.553522 
L 191.659601 318.83623 
L 191.169441 318.107507 
L 190.810733 317.342205 
L 190.547829 316.50546 
L 190.416377 315.847609 
L 190.404346 315.226337 
L 190.420388 314.633642 
L 190.712701 312.33545 
L 190.951543 311.086619 
L 191.230488 310.156712 
L 191.668513 309.306821 
L 192.319534 308.376913 
L 193.177314 307.432717 
L 200.53996 301.328019 
L 207.62767 295.485091 
L 210.530307 292.698226 
L 213.375017 289.388395 
L 225.170489 268.172557 
L 220.989872 217.371142 
L 217.559645 203.026447 
L 216.864954 172.442948 
L 216.925556 170.41224 
L 217.12875 169.432608 
L 219.637477 161.441232 
L 220.236363 159.020158 
L 219.137068 145.141273 
L 219.203908 138.176397 
L 219.229307 135.545565 
L 219.256489 132.719835 
L 218.754298 130.098147 
L 210.577095 108.206169 
L 204.412222 92.579492 
L 196.810735 74.772363 
L 195.44809 72.302707 
L 193.655442 70.163977 
L 190.616006 67.548576 
L 181.139435 60.049303 
L 179.695691 57.992304 
L 178.47653 54.957388 
L 178.340177 52.068787 
L 178.47653 25.753604 
L 178.237243 22.319176 
L 177.137948 17.332425 
L 175.990529 13.908856 
L 175.098883 12.325099 
" style="fill:none;stroke:#999999;"/>
    <path clip-path="url(#p0596d65053)" d="M 197.264801 398.225301 
L 197.169888 399.146063 
L 197.062499 399.755904 
L 196.859305 400.365745 
L 196.608432 400.939579 
L 196.273787 401.489979 
L 195.819275 402.063813 
L 195.31753 402.518193 
L 194.71998 402.924563 
L 194.062721 403.235485 
L 193.237915 403.594416 
L 191.815561 404.060799 
L 190.871335 404.371721 
L 190.501041 404.479172 
" style="fill:none;stroke:#999999;"/>
    <path clip-path="url(#p0596d65053)" d="M 134.530139 406.534456 
L 134.949003 406.904247 
" style="fill:none;stroke:#999999;"/>
    <path clip-path="url(#p0596d65053)" d="M 134.530139 406.534456 
L 129.540312 402.060383 
L 129.174921 401.74146 
" style="fill:none;stroke:#999999;"/>
    <path clip-path="url(#p0596d65053)" d="M 134.530139 406.534456 
L 134.066715 406.84995 
L 132.830176 407.690125 
L 132.474142 407.685552 
L 132.051267 407.522661 
L 130.167271 405.87832 
L 129.733257 405.742863 
L 129.721226 407.843871 
" style="fill:none;stroke:#999999;"/>
    <path clip-path="url(#p0596d65053)" d="M 129.721226 407.843871 
L 129.733257 405.742863 
L 130.167271 405.87832 
L 132.051267 407.522661 
L 132.474142 407.685552 
L 132.830176 407.690125 
L 134.066715 406.84995 
L 134.530139 406.534456 
" style="fill:none;stroke:#999999;"/>
    <path clip-path="url(#p0596d65053)" d="M 160.248378 419.992682 
L 160.476525 423.692308 
" style="fill:none;stroke:#999999;"/>
    <path clip-path="url(#p0596d65053)" d="M 160.248378 419.992682 
L 154.853501 420.197296 
L 151.985175 420.042406 
" style="fill:none;stroke:#999999;"/>
    <path clip-path="url(#p0596d65053)" d="M 160.248378 419.992682 
L 162.643477 419.668043 
L 166.044741 419.385127 
L 166.690861 419.219378 
L 168.364979 417.516167 
" style="fill:none;stroke:#999999;"/>
    <path clip-path="url(#p0596d65053)" d="M 169.400107 407.791289 
L 165.559483 405.94119 
" style="fill:none;stroke:#999999;"/>
    <path clip-path="url(#p0596d65053)" d="M 169.400107 407.791289 
L 168.86717 404.451737 
L 168.364979 403.973352 
L 167.408722 403.941346 
L 163.17686 404.570619 
" style="fill:none;stroke:#999999;"/>
    <path clip-path="url(#p0596d65053)" d="M 169.400107 407.791289 
L 171.054174 408.586311 
L 171.429369 408.914379 
L 171.784066 409.564229 
" style="fill:none;stroke:#999999;"/>
    <path clip-path="url(#p0596d65053)" d="M 147.368761 410.14092 
L 147.389259 409.81228 
" style="fill:none;stroke:#999999;"/>
    <path clip-path="url(#p0596d65053)" d="M 147.368761 410.14092 
L 147.252905 412.016738 
" style="fill:none;stroke:#999999;"/>
    <path clip-path="url(#p0596d65053)" d="M 147.368761 410.14092 
L 148.353091 410.941658 
L 148.579901 411.288587 
L 148.65298 412.037314 
" style="fill:none;stroke:#999999;"/>
    <path clip-path="url(#p0596d65053)" d="M 147.252905 412.016738 
L 148.65298 412.037314 
" style="fill:none;stroke:#999999;"/>
    <path clip-path="url(#p0596d65053)" d="M 147.252905 412.016738 
L 140.563115 412.005879 
" style="fill:none;stroke:#999999;"/>
    <path clip-path="url(#p0596d65053)" d="M 147.252905 412.016738 
L 147.368761 410.14092 
" style="fill:none;stroke:#999999;"/>
    <path clip-path="url(#p0596d65053)" d="M 148.65298 412.037314 
L 147.252905 412.016738 
" style="fill:none;stroke:#999999;"/>
    <path clip-path="url(#p0596d65053)" d="M 148.65298 412.037314 
L 148.927915 412.035599 
L 150.100288 412.029884 
" style="fill:none;stroke:#999999;"/>
    <path clip-path="url(#p0596d65053)" d="M 148.65298 412.037314 
L 148.579901 411.288587 
L 148.353091 410.941658 
L 147.368761 410.14092 
" style="fill:none;stroke:#999999;"/>
    <path clip-path="url(#p0596d65053)" d="M 71.587828 396.263179 
L 72.940224 396.105431 
L 78.352925 395.79451 
L 85.279774 395.396141 
L 126.098945 392.860757 
" style="fill:none;stroke:#999999;"/>
    <path clip-path="url(#p0596d65053)" d="M 71.587828 396.263179 
L 72.337327 396.648401 
L 75.089351 397.356549 
L 76.656972 397.74863 
L 77.285267 397.863511 
L 77.878361 397.926953 
L 78.65014 397.910378 
L 80.731536 397.822931 
L 81.737701 397.803499 
L 82.299157 397.897232 
L 82.731834 398.032118 
L 83.121734 398.252163 
L 83.488462 398.547082 
L 83.656454 398.709973 
L 83.877025 398.971741 
L 84.593104 399.654169 
L 85.120249 399.949659 
L 85.53332 400.114265 
L 93.02519 400.782975 
L 96.446505 401.069892 
L 98.472202 401.280221 
L 99.494854 401.308799 
L 100.536666 401.265933 
L 104.330057 400.830985 
L 106.312085 400.541782 
L 108.133697 400.276584 
L 114.663963 399.434123 
L 116.039084 399.443268 
L 127.408563 400.931006 
L 129.174921 401.74146 
" style="fill:none;stroke:#999999;"/>
    <path clip-path="url(#p0596d65053)" d="M 142.40166 391.533053 
L 150.349824 390.70831 
L 151.676375 390.564851 
L 153.074667 390.433395 
L 154.413249 390.349378 
L 155.668058 390.397388 
L 156.516925 390.445398 
L 157.281575 390.552849 
L 158.062711 390.707738 
L 158.799733 390.863771 
L 159.552797 391.102677 
L 160.644962 391.482185 
L 162.213919 392.232055 
L 163.718264 393.108237 
L 170.707052 397.375981 
L 178.838803 402.595923 
L 180.533419 403.681863 
L 182.113961 404.501462 
L 183.485518 404.977561 
L 184.76127 405.244474 
L 185.947011 405.411937 
L 186.903268 405.507385 
L 187.441107 405.507385 
" style="fill:none;stroke:#999999;"/>
    <path clip-path="url(#p0596d65053)" d="M 142.40166 391.533053 
L 136.760366 392.083453 
L 131.178783 392.561838 
L 128.525236 392.705296 
L 126.098945 392.860757 
" style="fill:none;stroke:#999999;"/>
    <path clip-path="url(#p0596d65053)" d="M 142.40166 391.533053 
L 142.596833 389.002812 
L 139.570764 385.583816 
" style="fill:none;stroke:#999999;"/>
    <path clip-path="url(#p0596d65053)" d="M 152.030626 418.07514 
L 144.549006 417.640193 
" style="fill:none;stroke:#999999;"/>
    <path clip-path="url(#p0596d65053)" d="M 152.030626 418.07514 
L 152.200846 415.706076 
" style="fill:none;stroke:#999999;"/>
    <path clip-path="url(#p0596d65053)" d="M 152.030626 418.07514 
L 151.985175 420.042406 
" style="fill:none;stroke:#999999;"/>
    <path clip-path="url(#p0596d65053)" d="M 152.030626 418.07514 
L 153.081796 418.223171 
L 154.768392 418.406066 
L 155.372625 418.382633 
" style="fill:none;stroke:#999999;"/>
    <path clip-path="url(#p0596d65053)" d="M 151.985175 420.042406 
L 152.030626 418.07514 
" style="fill:none;stroke:#999999;"/>
    <path clip-path="url(#p0596d65053)" d="M 151.985175 420.042406 
L 154.853501 420.197296 
L 160.248378 419.992682 
" style="fill:none;stroke:#999999;"/>
    <path clip-path="url(#p0596d65053)" d="M 151.985175 420.042406 
L 148.486771 419.8075 
L 144.075779 419.348548 
" style="fill:none;stroke:#999999;"/>
    <path clip-path="url(#p0596d65053)" d="M 152.297986 412.030455 
L 152.316256 413.13297 
" style="fill:none;stroke:#999999;"/>
    <path clip-path="url(#p0596d65053)" d="M 152.297986 412.030455 
L 150.100288 412.029884 
" style="fill:none;stroke:#999999;"/>
    <path clip-path="url(#p0596d65053)" d="M 152.297986 412.030455 
L 154.534006 412.013309 
" style="fill:none;stroke:#999999;"/>
    <path clip-path="url(#p0596d65053)" d="M 173.352578 8.307692 
L 174.530744 8.351701 
L 178.450685 9.355339 
L 182.992684 11.600948 
" style="fill:none;stroke:#999999;"/>
    <path clip-path="url(#p0596d65053)" d="M 173.352578 8.307692 
L 173.69569 8.830658 
L 173.839173 9.185589 
" style="fill:none;stroke:#999999;"/>
    <path clip-path="url(#p0596d65053)" d="M 152.281054 415.706076 
L 154.534897 416.060436 
" style="fill:none;stroke:#999999;"/>
    <path clip-path="url(#p0596d65053)" d="M 152.281054 415.706076 
L 152.200846 415.706076 
" style="fill:none;stroke:#999999;"/>
    <path clip-path="url(#p0596d65053)" d="M 152.281054 415.706076 
L 152.343438 414.75445 
L 152.316256 413.13297 
" style="fill:none;stroke:#999999;"/>
    <path clip-path="url(#p0596d65053)" d="M 150.106081 415.634062 
L 152.200846 415.706076 
" style="fill:none;stroke:#999999;"/>
    <path clip-path="url(#p0596d65053)" d="M 150.106081 415.634062 
L 150.105635 415.445451 
" style="fill:none;stroke:#999999;"/>
    <path clip-path="url(#p0596d65053)" d="M 150.106081 415.634062 
L 148.60129 415.620344 
L 148.00686 415.573477 
L 147.301476 415.416302 
L 146.416069 415.194542 
L 145.656321 414.983069 
L 145.376039 414.88362 
" style="fill:none;stroke:#999999;"/>
    <path clip-path="url(#p0596d65053)" d="M 182.992684 11.600948 
L 184.378945 11.696397 
" style="fill:none;stroke:#999999;"/>
    <path clip-path="url(#p0596d65053)" d="M 182.992684 11.600948 
L 180.483066 11.928445 
L 178.189564 11.69411 
" style="fill:none;stroke:#999999;"/>
    <path clip-path="url(#p0596d65053)" d="M 182.992684 11.600948 
L 178.450685 9.355339 
L 174.530744 8.351701 
L 173.352578 8.307692 
" style="fill:none;stroke:#999999;"/>
    <path clip-path="url(#p0596d65053)" d="M 190.501041 404.479172 
L 187.441107 405.507385 
" style="fill:none;stroke:#999999;"/>
    <path clip-path="url(#p0596d65053)" d="M 190.501041 404.479172 
L 190.871335 404.371721 
L 191.815561 404.060799 
L 193.237915 403.594416 
L 194.062721 403.235485 
L 194.71998 402.924563 
L 195.31753 402.518193 
L 195.819275 402.063813 
L 196.273787 401.489979 
L 196.608432 400.939579 
L 196.859305 400.365745 
L 197.062499 399.755904 
L 197.169888 399.146063 
L 197.264801 398.225301 
" style="fill:none;stroke:#999999;"/>
    <path clip-path="url(#p0596d65053)" d="M 190.501041 404.479172 
L 190.130302 405.220469 
L 189.963202 405.698854 
L 190.034944 406.715065 
" style="fill:none;stroke:#999999;"/>
    <path clip-path="url(#p0596d65053)" d="M 173.839173 9.185589 
L 174.819047 10.714478 
" style="fill:none;stroke:#999999;"/>
    <path clip-path="url(#p0596d65053)" d="M 173.839173 9.185589 
L 173.69569 8.830658 
L 173.352578 8.307692 
" style="fill:none;stroke:#999999;"/>
    <path clip-path="url(#p0596d65053)" d="M 173.839173 9.185589 
L 177.998401 11.003681 
L 178.189564 11.69411 
" style="fill:none;stroke:#999999;"/>
    <path clip-path="url(#p0596d65053)" d="M 178.189564 11.69411 
L 180.483066 11.928445 
L 182.992684 11.600948 
" style="fill:none;stroke:#999999;"/>
    <path clip-path="url(#p0596d65053)" d="M 178.189564 11.69411 
L 175.871108 11.097987 
L 174.819047 10.714478 
" style="fill:none;stroke:#999999;"/>
    <path clip-path="url(#p0596d65053)" d="M 178.189564 11.69411 
L 177.998401 11.003681 
L 173.839173 9.185589 
" style="fill:none;stroke:#999999;"/>
    <path clip-path="url(#p0596d65053)" d="M 184.378945 11.696397 
L 182.992684 11.600948 
" style="fill:none;stroke:#999999;"/>
    <path clip-path="url(#p0596d65053)" d="M 175.098883 12.325099 
L 172.226101 12.676029 
" style="fill:none;stroke:#999999;"/>
    <path clip-path="url(#p0596d65053)" d="M 175.098883 12.325099 
L 174.819047 10.714478 
" style="fill:none;stroke:#999999;"/>
    <path clip-path="url(#p0596d65053)" d="M 175.098883 12.325099 
L 175.990529 13.908856 
L 177.137948 17.332425 
L 178.237243 22.319176 
L 178.47653 25.753604 
L 178.340177 52.068787 
L 178.47653 54.957388 
L 179.695691 57.992304 
L 181.139435 60.049303 
L 190.616006 67.548576 
L 193.655442 70.163977 
L 195.44809 72.302707 
L 196.810735 74.772363 
L 204.412222 92.579492 
L 210.577095 108.206169 
L 218.754298 130.098147 
L 219.256489 132.719835 
L 219.229307 135.545565 
L 219.203908 138.176397 
L 219.137068 145.141273 
L 220.236363 159.020158 
L 219.637477 161.441232 
L 217.12875 169.432608 
L 216.925556 170.41224 
L 216.864954 172.442948 
L 217.559645 203.026447 
L 220.989872 217.371142 
L 225.170489 268.172557 
L 213.375017 289.388395 
L 210.530307 292.698226 
L 207.62767 295.485091 
L 200.53996 301.328019 
L 193.177314 307.432717 
L 192.319534 308.376913 
L 191.668513 309.306821 
L 191.230488 310.156712 
L 190.951543 311.086619 
L 190.712701 312.33545 
L 190.420388 314.633642 
L 190.404346 315.226337 
L 190.416377 315.847609 
L 190.547829 316.50546 
L 190.810733 317.342205 
L 191.169441 318.107507 
L 191.659601 318.83623 
L 192.269181 319.553522 
L 192.987043 320.163934 
L 193.811402 320.689758 
L 194.779691 321.132135 
L 196.058562 321.646528 
L 197.510772 322.166636 
L 198.221949 322.411258 
L 198.914857 322.72218 
L 199.787341 323.22457 
L 200.480695 323.726389 
L 201.054182 324.216776 
L 201.508694 324.695162 
L 201.998408 325.19698 
L 202.596403 326.033726 
L 203.050469 326.775022 
L 203.397146 327.492314 
L 203.791501 328.37707 
L 204.126147 329.369276 
L 204.317309 330.290039 
L 204.389051 331.043338 
L 204.448761 331.880083 
L 204.412668 333.625589 
L 204.126147 342.676041 
L 203.970633 347.2187 
L 203.803533 351.606469 
L 203.576277 357.237925 
L 203.432794 360.095662 
L 203.325404 362.140087 
L 203.16989 363.670119 
L 203.0625 364.578879 
L 202.906986 365.272738 
L 202.751471 365.94202 
L 202.464505 366.982236 
L 201.950729 368.476832 
L 200.827371 371.573476 
L 198.986599 376.404194 
L 197.982662 378.915002 
L 197.612369 379.991225 
L 197.313371 380.827971 
L 197.110178 381.664716 
L 196.966695 382.549471 
L 196.883367 383.410793 
L 196.859305 384.427004 
L 197.264801 398.225301 
" style="fill:none;stroke:#999999;"/>
    <path clip-path="url(#p0596d65053)" d="M 174.819047 10.714478 
L 173.839173 9.185589 
" style="fill:none;stroke:#999999;"/>
    <path clip-path="url(#p0596d65053)" d="M 174.819047 10.714478 
L 175.098883 12.325099 
" style="fill:none;stroke:#999999;"/>
    <path clip-path="url(#p0596d65053)" d="M 174.819047 10.714478 
L 175.871108 11.097987 
L 178.189564 11.69411 
" style="fill:none;stroke:#999999;"/>
    <path clip-path="url(#p0596d65053)" d="M 326.94326 358.37016 
L 328.500631 358.298717 
L 330.494245 358.749096 
L 332.775716 359.924769 
L 336.193912 361.861172 
L 340.735466 363.894166 
L 343.986562 364.874369 
L 347.357079 366.356963 
L 348.839144 367.720104 
L 349.484372 369.226702 
L 349.317272 370.111458 
L 347.59592 372.741719 
L 346.903013 374.200307 
L 345.707468 375.754916 
L 343.651916 378.313734 
L 343.030305 380.91999 
L 342.623918 382.307135 
L 342.022803 383.920042 
L 341.146754 384.340701 
L 338.799334 385.075139 
L 336.00275 387.257307 
L 335.094172 388.739901 
L 335.022876 390.031026 
L 334.401264 393.163677 
L 333.564428 394.239901 
L 331.556555 396.535807 
L 331.254438 397.662326 
" style="fill:none;stroke:#999999;"/>
    <path clip-path="url(#p0596d65053)" d="M 331.254438 397.662326 
L 322.694466 397.314254 
L 319.804751 397.540015 
L 318.824877 397.683474 
L 317.82094 397.886945 
L 316.362047 398.348755 
L 314.868842 398.867148 
L 313.541845 399.464987 
L 312.705455 399.931369 
L 311.904712 400.4932 
L 310.73323 401.330517 
L 304.410614 406.675628 
L 301.948675 408.588597 
L 300.514289 409.46135 
L 299.247449 410.191216 
L 297.358997 411.051966 
L 295.697801 411.745253 
L 294.072253 412.307656 
L 292.004669 412.94093 
L 290.462894 413.323867 
L 288.467052 413.658794 
L 286.435117 413.826257 
L 284.020857 413.885698 
L 282.192116 413.778247 
L 279.98105 413.53934 
L 277.757952 413.23985 
L 275.570948 412.893492 
L 266.822041 411.589792 
L 260.618846 410.729042 
L 258.097197 410.501566 
L 256.244393 410.46613 
L 255.109004 410.490135 
L 253.910341 410.600444 
L 252.006739 410.830206 
L 248.775249 411.35603 
L 235.387648 413.534768 
L 233.009481 414.025156 
L 231.527416 414.384087 
L 230.21869 414.77274 
L 228.862284 415.268843 
L 225.097411 416.631983 
L 217.534691 419.56745 
L 214.856636 420.558514 
L 213.913747 420.872293 
L 212.92407 421.097483 
L 212.132239 421.243227 
L 211.147463 421.344963 
L 210.360088 421.187216 
L 209.595439 420.894583 
L 207.279211 419.049629 
L 206.581847 418.576959 
L 205.907209 418.262036 
L 201.280101 416.364499 
L 195.788083 414.443528 
L 194.497626 413.892557 
L 193.3863 413.039808 
L 191.885074 411.27487 
L 190.427072 407.598677 
L 190.034944 406.715065 
" style="fill:none;stroke:#999999;"/>
    <path clip-path="url(#p0596d65053)" d="M 331.254438 397.662326 
L 331.556555 396.535807 
L 333.564428 394.239901 
L 334.401264 393.163677 
L 335.022876 390.031026 
L 335.094172 388.739901 
L 336.00275 387.257307 
L 338.799334 385.075139 
L 341.146754 384.340701 
L 342.022803 383.920042 
L 342.623918 382.307135 
L 343.030305 380.91999 
L 343.651916 378.313734 
L 345.707468 375.754916 
L 346.903013 374.200307 
L 347.59592 372.741719 
L 349.317272 370.111458 
L 349.484372 369.226702 
L 348.839144 367.720104 
L 347.357079 366.356963 
L 343.986562 364.874369 
L 340.735466 363.894166 
L 336.193912 361.861172 
L 332.775716 359.924769 
L 330.494245 358.749096 
L 328.500631 358.298717 
L 326.94326 358.37016 
" style="fill:none;stroke:#999999;"/>
    <path clip-path="url(#p0596d65053)" d="M 500.317683 202.564065 
L 494.652327 204.070092 
L 490.780064 206.173958 
L 485.783999 209.806713 
L 479.545156 214.205341 
L 476.198701 216.045724 
L 473.080394 218.406214 
L 471.800631 218.340486 
L 469.457667 218.722852 
L 461.067468 223.695314 
L 457.840435 225.272784 
L 450.788817 227.902474 
L 448.088037 230.173231 
L 446.366685 230.67505 
L 444.191267 230.26868 
L 441.131778 229.193028 
L 440.510166 229.336486 
L 439.410872 231.033982 
L 434.016886 232.804635 
L 413.857505 239.424297 
L 409.602472 239.209395 
L 400.495303 237.942275 
L 396.24027 238.611557 
L 394.854009 238.396655 
L 390.69478 234.906215 
L 387.443684 234.786762 
L 385.507553 234.93022 
L 383.007292 236.932922 
L 379.98568 239.352853 
L 378.790581 240.093579 
L 377.045612 240.380496 
L 366.742899 240.04614 
L 365.404317 240.499949 
L 363.802831 241.791074 
L 362.344829 243.321107 
L 358.878508 246.309156 
L 358.1856 247.839189 
L 358.113858 250.468878 
L 359.117795 255.943159 
L 360.16941 262.422219 
L 360.815085 263.832227 
L 362.822957 265.936093 
L 363.755152 267.107765 
L 366.504057 275.188301 
L 366.312895 276.95724 
L 365.5478 278.200356 
L 364.065735 280.113325 
L 363.826894 281.906269 
L 364.859348 284.550247 
L 365.803575 286.419778 
L 366.912672 290.522917 
L 365.990281 291.390526 
L 363.643752 292.202123 
L 353.567403 298.111351 
L 346.134353 303.506186 
L 344.118014 303.725089 
L 340.649465 303.06038 
L 338.380025 303.371301 
L 330.736651 308.632395 
L 326.498551 311.623302 
L 324.581581 312.002238 
L 321.096099 311.586151 
L 310.526026 313.642579 
L 301.221456 317.072435 
L 295.651904 319.670117 
L 290.154985 321.216153 
L 286.198058 325.308432 
L 284.045811 326.469816 
L 279.266753 328.005564 
L 274.928393 333.082619 
L 273.917327 333.69989 
L 266.882197 336.830827 
L 263.207336 341.231741 
L 261.733291 344.08662 
L 260.514576 345.28344 
L 259.127869 346.025881 
L 257.431025 346.292222 
L 255.073802 348.291494 
L 253.773542 350.542819 
L 252.666672 351.591037 
L 249.924896 352.926743 
L 239.670308 356.978443 
L 236.847878 359.133748 
L 234.166259 360.396867 
L 232.087981 360.793521 
L 230.805545 361.425652 
L 227.70417 364.420561 
L 220.0452 374.675263 
L 214.642748 381.443527 
L 212.491392 382.567761 
L 206.491836 385.374058 
L 203.320948 387.950594 
L 201.639254 390.024168 
L 197.264801 398.225301 
" style="fill:none;stroke:#999999;"/>
    <path clip-path="url(#p0596d65053)" d="M 147.448078 408.723482 
L 147.389259 409.81228 
" style="fill:none;stroke:#999999;"/>
    <path clip-path="url(#p0596d65053)" d="M 147.448078 408.723482 
L 148.478305 408.760633 
L 149.347224 408.792068 
" style="fill:none;stroke:#999999;"/>
    <path clip-path="url(#p0596d65053)" d="M 147.448078 408.723482 
L 146.917369 408.642894 
L 140.729769 407.748994 
" style="fill:none;stroke:#999999;"/>
    <path clip-path="url(#p0596d65053)" d="M 147.389259 409.81228 
L 147.448078 408.723482 
" style="fill:none;stroke:#999999;"/>
    <path clip-path="url(#p0596d65053)" d="M 147.389259 409.81228 
L 147.368761 410.14092 
" style="fill:none;stroke:#999999;"/>
    <path clip-path="url(#p0596d65053)" d="M 147.389259 409.81228 
L 145.028917 409.759126 
L 143.704594 409.792276 
L 142.097761 409.744838 
L 140.502514 409.588234 
" style="fill:none;stroke:#999999;"/>
    <path clip-path="url(#p0596d65053)" d="M 147.389259 409.81228 
L 148.435973 409.853432 
L 149.294644 409.887724 
" style="fill:none;stroke:#999999;"/>
    <path clip-path="url(#p0596d65053)" d="M 150.105635 415.445451 
L 150.100288 412.029884 
" style="fill:none;stroke:#999999;"/>
    <path clip-path="url(#p0596d65053)" d="M 150.105635 415.445451 
L 150.106081 415.634062 
" style="fill:none;stroke:#999999;"/>
    <path clip-path="url(#p0596d65053)" d="M 150.105635 415.445451 
L 150.520934 414.87276 
L 150.905933 413.404455 
L 150.937125 413.133542 
L 152.316256 413.13297 
" style="fill:none;stroke:#999999;"/>
    <path clip-path="url(#p0596d65053)" d="M 152.316256 413.13297 
L 152.297986 412.030455 
" style="fill:none;stroke:#999999;"/>
    <path clip-path="url(#p0596d65053)" d="M 152.316256 413.13297 
L 152.343438 414.75445 
L 152.281054 415.706076 
" style="fill:none;stroke:#999999;"/>
    <path clip-path="url(#p0596d65053)" d="M 152.316256 413.13297 
L 150.937125 413.133542 
L 150.905933 413.404455 
L 150.520934 414.87276 
L 150.105635 415.445451 
" style="fill:none;stroke:#999999;"/>
    <path clip-path="url(#p0596d65053)" d="M 152.848302 407.031702 
L 150.37255 407.586103 
L 149.574926 407.699841 
L 149.347224 408.792068 
" style="fill:none;stroke:#999999;"/>
    <path clip-path="url(#p0596d65053)" d="M 152.848302 407.031702 
L 154.853056 406.546459 
L 155.165421 406.449867 
" style="fill:none;stroke:#999999;"/>
    <path clip-path="url(#p0596d65053)" d="M 152.848302 407.031702 
L 152.90623 407.374631 
L 152.829141 408.407988 
L 152.632632 409.397908 
" style="fill:none;stroke:#999999;"/>
    <path clip-path="url(#p0596d65053)" d="M 154.587478 409.836857 
L 152.632632 409.397908 
" style="fill:none;stroke:#999999;"/>
    <path clip-path="url(#p0596d65053)" d="M 154.587478 409.836857 
L 154.537571 411.860706 
" style="fill:none;stroke:#999999;"/>
    <path clip-path="url(#p0596d65053)" d="M 154.587478 409.836857 
L 154.861077 407.962753 
L 155.27593 407.295757 
" style="fill:none;stroke:#999999;"/>
    <path clip-path="url(#p0596d65053)" d="M 154.534006 412.013309 
L 154.534897 416.060436 
" style="fill:none;stroke:#999999;"/>
    <path clip-path="url(#p0596d65053)" d="M 154.534006 412.013309 
L 154.537571 411.860706 
" style="fill:none;stroke:#999999;"/>
    <path clip-path="url(#p0596d65053)" d="M 154.534006 412.013309 
L 152.297986 412.030455 
" style="fill:none;stroke:#999999;"/>
    <path clip-path="url(#p0596d65053)" d="M 169.75124 410.115772 
L 165.744852 411.358887 
" style="fill:none;stroke:#999999;"/>
    <path clip-path="url(#p0596d65053)" d="M 169.75124 410.115772 
L 170.183472 410.228367 
" style="fill:none;stroke:#999999;"/>
    <path clip-path="url(#p0596d65053)" d="M 169.75124 410.115772 
L 168.605603 409.895155 
L 165.485513 409.910015 
" style="fill:none;stroke:#999999;"/>
    <path clip-path="url(#p0596d65053)" d="M 158.065385 409.721976 
L 158.030628 409.946022 
" style="fill:none;stroke:#999999;"/>
    <path clip-path="url(#p0596d65053)" d="M 158.065385 409.721976 
L 156.824835 408.279962 
" style="fill:none;stroke:#999999;"/>
    <path clip-path="url(#p0596d65053)" d="M 158.065385 409.721976 
L 158.105489 409.461922 
L 159.258701 408.115928 
L 160.292047 407.059708 
" style="fill:none;stroke:#999999;"/>
    <path clip-path="url(#p0596d65053)" d="M 156.824835 408.279962 
L 158.065385 409.721976 
" style="fill:none;stroke:#999999;"/>
    <path clip-path="url(#p0596d65053)" d="M 156.824835 408.279962 
L 156.727694 408.166795 
L 156.582874 407.998189 
L 155.27593 407.295757 
" style="fill:none;stroke:#999999;"/>
    <path clip-path="url(#p0596d65053)" d="M 156.824835 408.279962 
L 156.583765 408.660612 
L 156.521827 409.011542 
L 156.129699 410.02261 
L 156.367204 410.714182 
" style="fill:none;stroke:#999999;"/>
    <path clip-path="url(#p0596d65053)" d="M 156.367204 410.714182 
L 156.129699 410.02261 
L 156.521827 409.011542 
L 156.583765 408.660612 
L 156.824835 408.279962 
" style="fill:none;stroke:#999999;"/>
    <path clip-path="url(#p0596d65053)" d="M 162.361413 409.924303 
L 165.485513 409.910015 
" style="fill:none;stroke:#999999;"/>
    <path clip-path="url(#p0596d65053)" d="M 162.361413 409.924303 
L 160.781761 409.931734 
L 158.030628 409.946022 
" style="fill:none;stroke:#999999;"/>
    <path clip-path="url(#p0596d65053)" d="M 162.361413 409.924303 
L 162.611394 409.18072 
L 165.559483 405.94119 
" style="fill:none;stroke:#999999;"/>
    <path clip-path="url(#p0596d65053)" d="M 165.559483 405.94119 
L 169.400107 407.791289 
" style="fill:none;stroke:#999999;"/>
    <path clip-path="url(#p0596d65053)" d="M 165.559483 405.94119 
L 163.17686 404.570619 
" style="fill:none;stroke:#999999;"/>
    <path clip-path="url(#p0596d65053)" d="M 165.559483 405.94119 
L 162.611394 409.18072 
L 162.361413 409.924303 
" style="fill:none;stroke:#999999;"/>
    <path clip-path="url(#p0596d65053)" d="M 159.547895 404.906689 
L 155.829365 406.198386 
" style="fill:none;stroke:#999999;"/>
    <path clip-path="url(#p0596d65053)" d="M 159.547895 404.906689 
L 160.642734 404.627774 
" style="fill:none;stroke:#999999;"/>
    <path clip-path="url(#p0596d65053)" d="M 159.547895 404.906689 
L 160.292047 407.059708 
" style="fill:none;stroke:#999999;"/>
    <path clip-path="url(#p0596d65053)" d="M 160.292047 407.059708 
L 159.547895 404.906689 
" style="fill:none;stroke:#999999;"/>
    <path clip-path="url(#p0596d65053)" d="M 160.292047 407.059708 
L 160.597283 406.747643 
L 163.17686 404.570619 
" style="fill:none;stroke:#999999;"/>
    <path clip-path="url(#p0596d65053)" d="M 160.292047 407.059708 
L 159.258701 408.115928 
L 158.105489 409.461922 
L 158.065385 409.721976 
" style="fill:none;stroke:#999999;"/>
    <path clip-path="url(#p0596d65053)" d="M 165.485513 409.910015 
L 162.361413 409.924303 
" style="fill:none;stroke:#999999;"/>
    <path clip-path="url(#p0596d65053)" d="M 165.485513 409.910015 
L 165.744852 411.358887 
" style="fill:none;stroke:#999999;"/>
    <path clip-path="url(#p0596d65053)" d="M 165.485513 409.910015 
L 168.605603 409.895155 
L 169.75124 410.115772 
" style="fill:none;stroke:#999999;"/>
    <path clip-path="url(#p0596d65053)" d="M 165.744852 411.358887 
L 169.75124 410.115772 
" style="fill:none;stroke:#999999;"/>
    <path clip-path="url(#p0596d65053)" d="M 165.744852 411.358887 
L 165.927102 412.192775 
" style="fill:none;stroke:#999999;"/>
    <path clip-path="url(#p0596d65053)" d="M 165.744852 411.358887 
L 165.485513 409.910015 
" style="fill:none;stroke:#999999;"/>
    <path clip-path="url(#p0596d65053)" d="M 165.744852 411.358887 
L 164.805082 411.650948 
L 163.71158 411.870994 
L 162.496429 412.129905 
L 161.831149 412.213351 
L 161.1525 412.252216 
L 160.245705 412.288223 
L 158.822013 412.283079 
L 157.945073 412.230497 
L 157.348415 412.195061 
" style="fill:none;stroke:#999999;"/>
    <path clip-path="url(#p0596d65053)" d="M 165.927102 412.192775 
L 166.304971 412.030455 
" style="fill:none;stroke:#999999;"/>
    <path clip-path="url(#p0596d65053)" d="M 165.927102 412.192775 
L 161.52725 414.192048 
" style="fill:none;stroke:#999999;"/>
    <path clip-path="url(#p0596d65053)" d="M 165.927102 412.192775 
L 165.744852 411.358887 
" style="fill:none;stroke:#999999;"/>
    <path clip-path="url(#p0596d65053)" d="M 144.693825 414.640712 
L 145.376039 414.88362 
" style="fill:none;stroke:#999999;"/>
    <path clip-path="url(#p0596d65053)" d="M 144.693825 414.640712 
L 143.69078 417.582466 
" style="fill:none;stroke:#999999;"/>
    <path clip-path="url(#p0596d65053)" d="M 144.693825 414.640712 
L 143.949674 414.363512 
L 142.666792 413.807396 
L 141.275184 412.61572 
L 140.563115 412.005879 
" style="fill:none;stroke:#999999;"/>
    <path clip-path="url(#p0596d65053)" d="M 140.502514 409.588234 
L 139.389405 409.445347 
" style="fill:none;stroke:#999999;"/>
    <path clip-path="url(#p0596d65053)" d="M 140.502514 409.588234 
L 140.729769 407.748994 
" style="fill:none;stroke:#999999;"/>
    <path clip-path="url(#p0596d65053)" d="M 140.502514 409.588234 
L 142.097761 409.744838 
L 143.704594 409.792276 
L 145.028917 409.759126 
L 147.389259 409.81228 
" style="fill:none;stroke:#999999;"/>
    <path clip-path="url(#p0596d65053)" d="M 140.729769 407.748994 
L 140.502514 409.588234 
" style="fill:none;stroke:#999999;"/>
    <path clip-path="url(#p0596d65053)" d="M 140.729769 407.748994 
L 135.13972 406.941398 
L 134.949003 406.904247 
" style="fill:none;stroke:#999999;"/>
    <path clip-path="url(#p0596d65053)" d="M 140.729769 407.748994 
L 146.917369 408.642894 
L 147.448078 408.723482 
" style="fill:none;stroke:#999999;"/>
    <path clip-path="url(#p0596d65053)" d="M 139.389405 409.445347 
L 137.529026 409.207011 
" style="fill:none;stroke:#999999;"/>
    <path clip-path="url(#p0596d65053)" d="M 139.389405 409.445347 
L 140.502514 409.588234 
" style="fill:none;stroke:#999999;"/>
    <path clip-path="url(#p0596d65053)" d="M 139.389405 409.445347 
L 139.119372 410.674174 
" style="fill:none;stroke:#999999;"/>
    <path clip-path="url(#p0596d65053)" d="M 139.119372 410.674174 
L 137.529026 409.207011 
" style="fill:none;stroke:#999999;"/>
    <path clip-path="url(#p0596d65053)" d="M 139.119372 410.674174 
L 139.389405 409.445347 
" style="fill:none;stroke:#999999;"/>
    <path clip-path="url(#p0596d65053)" d="M 139.119372 410.674174 
L 139.246368 410.791341 
L 140.563115 412.005879 
" style="fill:none;stroke:#999999;"/>
    <path clip-path="url(#p0596d65053)" d="M 160.476525 423.692308 
L 160.248378 419.992682 
" style="fill:none;stroke:#999999;"/>
    <path clip-path="url(#p0596d65053)" d="M 144.549006 417.640193 
L 152.030626 418.07514 
" style="fill:none;stroke:#999999;"/>
    <path clip-path="url(#p0596d65053)" d="M 144.549006 417.640193 
L 143.69078 417.582466 
" style="fill:none;stroke:#999999;"/>
    <path clip-path="url(#p0596d65053)" d="M 144.549006 417.640193 
L 144.075779 419.348548 
" style="fill:none;stroke:#999999;"/>
    <path clip-path="url(#p0596d65053)" d="M 144.549006 417.640193 
L 145.376039 414.88362 
" style="fill:none;stroke:#999999;"/>
    <path clip-path="url(#p0596d65053)" d="M 143.69078 417.582466 
L 144.549006 417.640193 
" style="fill:none;stroke:#999999;"/>
    <path clip-path="url(#p0596d65053)" d="M 143.69078 417.582466 
L 144.693825 414.640712 
" style="fill:none;stroke:#999999;"/>
    <path clip-path="url(#p0596d65053)" d="M 143.69078 417.582466 
L 143.63107 418.028845 
L 143.738014 418.655261 
L 143.869466 419.048485 
L 144.075779 419.348548 
" style="fill:none;stroke:#999999;"/>
    <path clip-path="url(#p0596d65053)" d="M 145.376039 414.88362 
L 144.693825 414.640712 
" style="fill:none;stroke:#999999;"/>
    <path clip-path="url(#p0596d65053)" d="M 145.376039 414.88362 
L 144.549006 417.640193 
" style="fill:none;stroke:#999999;"/>
    <path clip-path="url(#p0596d65053)" d="M 145.376039 414.88362 
L 145.656321 414.983069 
L 146.416069 415.194542 
L 147.301476 415.416302 
L 148.00686 415.573477 
L 148.60129 415.620344 
L 150.106081 415.634062 
" style="fill:none;stroke:#999999;"/>
    <path clip-path="url(#p0596d65053)" d="M 155.166312 416.070724 
L 156.248229 416.089013 
" style="fill:none;stroke:#999999;"/>
    <path clip-path="url(#p0596d65053)" d="M 155.166312 416.070724 
L 154.534897 416.060436 
" style="fill:none;stroke:#999999;"/>
    <path clip-path="url(#p0596d65053)" d="M 155.166312 416.070724 
L 155.372625 418.382633 
" style="fill:none;stroke:#999999;"/>
    <path clip-path="url(#p0596d65053)" d="M 155.372625 418.382633 
L 155.166312 416.070724 
" style="fill:none;stroke:#999999;"/>
    <path clip-path="url(#p0596d65053)" d="M 155.372625 418.382633 
L 161.064272 418.161444 
L 162.389485 418.047134 
" style="fill:none;stroke:#999999;"/>
    <path clip-path="url(#p0596d65053)" d="M 155.372625 418.382633 
L 154.768392 418.406066 
L 153.081796 418.223171 
L 152.030626 418.07514 
" style="fill:none;stroke:#999999;"/>
    <path clip-path="url(#p0596d65053)" d="M 149.294644 409.887724 
L 149.347224 408.792068 
" style="fill:none;stroke:#999999;"/>
    <path clip-path="url(#p0596d65053)" d="M 149.294644 409.887724 
L 148.435973 409.853432 
L 147.389259 409.81228 
" style="fill:none;stroke:#999999;"/>
    <path clip-path="url(#p0596d65053)" d="M 149.294644 409.887724 
L 150.011168 410.031754 
L 150.072661 410.044328 
L 151.338164 410.299238 
L 151.666571 410.365538 
L 152.429438 410.519284 
L 152.632632 409.397908 
" style="fill:none;stroke:#999999;"/>
    <path clip-path="url(#p0596d65053)" d="M 139.570764 385.583816 
L 142.596833 389.002812 
L 142.40166 391.533053 
" style="fill:none;stroke:#999999;"/>
    <path clip-path="url(#p0596d65053)" d="M 172.226101 12.676029 
L 175.098883 12.325099 
" style="fill:none;stroke:#999999;"/>
   </g>
  </g>
 </g>
 <defs>
  <clipPath id="p0596d65053">
   <rect height="432" width="445.879049" x="63.013231" y="0"/>
  </clipPath>
 </defs>
</svg>
