<?xml version="1.0" encoding="utf-8" standalone="no"?>
<!DOCTYPE svg PUBLIC "-//W3C//DTD SVG 1.1//EN"
  "http://www.w3.org/Graphics/SVG/1.1/DTD/svg11.dtd">
<!-- Created with matplotlib (http://matplotlib.org/) -->
<svg height="432pt" version="1.1" viewBox="0 0 1236.400799 432" width="1236.400799pt" xmlns="http://www.w3.org/2000/svg" xmlns:xlink="http://www.w3.org/1999/xlink">
 <defs>
  <style type="text/css">
*{stroke-linecap:butt;stroke-linejoin:round;}
  </style>
 </defs>
 <g id="figure_1">
  <g id="patch_1">
   <path d="M 0 432 
L 1236.400799 432 
L 1236.400799 0 
L 0 0 
z
" style="fill:none;opacity:0;"/>
  </g>
  <g id="axes_1">
   <g id="PathCollection_1">
    <defs>
     <path d="M 0 1.936492 
C 0.513564 1.936492 1.006162 1.732451 1.369306 1.369306 
C 1.732451 1.006162 1.936492 0.513564 1.936492 0 
C 1.936492 -0.513564 1.732451 -1.006162 1.369306 -1.369306 
C 1.006162 -1.732451 0.513564 -1.936492 0 -1.936492 
C -0.513564 -1.936492 -1.006162 -1.732451 -1.369306 -1.369306 
C -1.732451 -1.006162 -1.936492 -0.513564 -1.936492 0 
C -1.936492 0.513564 -1.732451 1.006162 -1.369306 1.369306 
C -1.006162 1.732451 -0.513564 1.936492 0 1.936492 
z
" id="C0_0_bb7f919e60"/>
    </defs>
    <g clip-path="url(#pef20be1992)">
     <use style="fill:#66ccff;" x="920.59112" xlink:href="#C0_0_bb7f919e60" y="321.435664"/>
    </g>
    <g clip-path="url(#pef20be1992)">
     <use style="fill:#66ccff;" x="728.494492" xlink:href="#C0_0_bb7f919e60" y="257.004628"/>
    </g>
    <g clip-path="url(#pef20be1992)">
     <use style="fill:#66ccff;" x="920.155775" xlink:href="#C0_0_bb7f919e60" y="318.516314"/>
    </g>
    <g clip-path="url(#pef20be1992)">
     <use style="fill:#66ccff;" x="972.348737" xlink:href="#C0_0_bb7f919e60" y="306.002099"/>
    </g>
    <g clip-path="url(#pef20be1992)">
     <use style="fill:#66ccff;" x="917.845612" xlink:href="#C0_0_bb7f919e60" y="320.543641"/>
    </g>
    <g clip-path="url(#pef20be1992)">
     <use style="fill:#66ccff;" x="928.005476" xlink:href="#C0_0_bb7f919e60" y="319.37383"/>
    </g>
    <g clip-path="url(#pef20be1992)">
     <use style="fill:#66ccff;" x="919.617995" xlink:href="#C0_0_bb7f919e60" y="318.392086"/>
    </g>
    <g clip-path="url(#pef20be1992)">
     <use style="fill:#66ccff;" x="1082.546461" xlink:href="#C0_0_bb7f919e60" y="235.718558"/>
    </g>
    <g clip-path="url(#pef20be1992)">
     <use style="fill:#66ccff;" x="153.854338" xlink:href="#C0_0_bb7f919e60" y="20.811554"/>
    </g>
    <g clip-path="url(#pef20be1992)">
     <use style="fill:#66ccff;" x="902.286384" xlink:href="#C0_0_bb7f919e60" y="369.863759"/>
    </g>
    <g clip-path="url(#pef20be1992)">
     <use style="fill:#66ccff;" x="914.841322" xlink:href="#C0_0_bb7f919e60" y="358.87651"/>
    </g>
    <g clip-path="url(#pef20be1992)">
     <use style="fill:#66ccff;" x="923.692453" xlink:href="#C0_0_bb7f919e60" y="351.296896"/>
    </g>
    <g clip-path="url(#pef20be1992)">
     <use style="fill:#66ccff;" x="938.212513" xlink:href="#C0_0_bb7f919e60" y="347.702919"/>
    </g>
    <g clip-path="url(#pef20be1992)">
     <use style="fill:#66ccff;" x="962.833132" xlink:href="#C0_0_bb7f919e60" y="322.988511"/>
    </g>
    <g clip-path="url(#pef20be1992)">
     <use style="fill:#66ccff;" x="963.428868" xlink:href="#C0_0_bb7f919e60" y="322.143072"/>
    </g>
    <g clip-path="url(#pef20be1992)">
     <use style="fill:#66ccff;" x="991.545731" xlink:href="#C0_0_bb7f919e60" y="300.266921"/>
    </g>
    <g clip-path="url(#pef20be1992)">
     <use style="fill:#66ccff;" x="912.283161" xlink:href="#C0_0_bb7f919e60" y="423.692308"/>
    </g>
    <g clip-path="url(#pef20be1992)">
     <use style="fill:#66ccff;" x="915.763231" xlink:href="#C0_0_bb7f919e60" y="420.857501"/>
    </g>
    <g clip-path="url(#pef20be1992)">
     <use style="fill:#66ccff;" x="908.595527" xlink:href="#C0_0_bb7f919e60" y="414.095719"/>
    </g>
    <g clip-path="url(#pef20be1992)">
     <use style="fill:#66ccff;" x="933.749882" xlink:href="#C0_0_bb7f919e60" y="400.642895"/>
    </g>
    <g clip-path="url(#pef20be1992)">
     <use style="fill:#66ccff;" x="931.163417" xlink:href="#C0_0_bb7f919e60" y="393.30656"/>
    </g>
    <g clip-path="url(#pef20be1992)">
     <use style="fill:#66ccff;" x="903.516943" xlink:href="#C0_0_bb7f919e60" y="392.3645"/>
    </g>
    <g clip-path="url(#pef20be1992)">
     <use style="fill:#66ccff;" x="907.247707" xlink:href="#C0_0_bb7f919e60" y="391.510434"/>
    </g>
    <g clip-path="url(#pef20be1992)">
     <use style="fill:#66ccff;" x="919.927993" xlink:href="#C0_0_bb7f919e60" y="389.836811"/>
    </g>
    <g clip-path="url(#pef20be1992)">
     <use style="fill:#66ccff;" x="905.744888" xlink:href="#C0_0_bb7f919e60" y="389.439973"/>
    </g>
    <g clip-path="url(#pef20be1992)">
     <use style="fill:#66ccff;" x="917.399484" xlink:href="#C0_0_bb7f919e60" y="387.5455"/>
    </g>
    <g clip-path="url(#pef20be1992)">
     <use style="fill:#66ccff;" x="902.969728" xlink:href="#C0_0_bb7f919e60" y="386.101354"/>
    </g>
    <g clip-path="url(#pef20be1992)">
     <use style="fill:#66ccff;" x="899.826613" xlink:href="#C0_0_bb7f919e60" y="382.999112"/>
    </g>
    <g clip-path="url(#pef20be1992)">
     <use style="fill:#66ccff;" x="925.458097" xlink:href="#C0_0_bb7f919e60" y="381.456618"/>
    </g>
    <g clip-path="url(#pef20be1992)">
     <use style="fill:#66ccff;" x="921.153161" xlink:href="#C0_0_bb7f919e60" y="381.832752"/>
    </g>
    <g clip-path="url(#pef20be1992)">
     <use style="fill:#66ccff;" x="930.540724" xlink:href="#C0_0_bb7f919e60" y="371.910065"/>
    </g>
    <g clip-path="url(#pef20be1992)">
     <use style="fill:#66ccff;" x="925.613096" xlink:href="#C0_0_bb7f919e60" y="371.856578"/>
    </g>
    <g clip-path="url(#pef20be1992)">
     <use style="fill:#66ccff;" x="928.773733" xlink:href="#C0_0_bb7f919e60" y="369.877562"/>
    </g>
    <g clip-path="url(#pef20be1992)">
     <use style="fill:#66ccff;" x="931.89663" xlink:href="#C0_0_bb7f919e60" y="365.745266"/>
    </g>
    <g clip-path="url(#pef20be1992)">
     <use style="fill:#66ccff;" x="931.067721" xlink:href="#C0_0_bb7f919e60" y="365.008527"/>
    </g>
    <g clip-path="url(#pef20be1992)">
     <use style="fill:#66ccff;" x="935.822829" xlink:href="#C0_0_bb7f919e60" y="361.271344"/>
    </g>
    <g clip-path="url(#pef20be1992)">
     <use style="fill:#66ccff;" x="936.273" xlink:href="#C0_0_bb7f919e60" y="361.706141"/>
    </g>
    <g clip-path="url(#pef20be1992)">
     <use style="fill:#66ccff;" x="956.468728" xlink:href="#C0_0_bb7f919e60" y="342.823532"/>
    </g>
    <g clip-path="url(#pef20be1992)">
     <use style="fill:#66ccff;" x="940.308372" xlink:href="#C0_0_bb7f919e60" y="375.04854"/>
    </g>
    <g clip-path="url(#pef20be1992)">
     <use style="fill:#66ccff;" x="950.71893" xlink:href="#C0_0_bb7f919e60" y="363.341805"/>
    </g>
    <g clip-path="url(#pef20be1992)">
     <use style="fill:#66ccff;" x="950.563931" xlink:href="#C0_0_bb7f919e60" y="355.605181"/>
    </g>
    <g clip-path="url(#pef20be1992)">
     <use style="fill:#66ccff;" x="958.672413" xlink:href="#C0_0_bb7f919e60" y="344.54374"/>
    </g>
    <g clip-path="url(#pef20be1992)">
     <use style="fill:#66ccff;" x="1009.703555" xlink:href="#C0_0_bb7f919e60" y="322.105114"/>
    </g>
    <g clip-path="url(#pef20be1992)">
     <use style="fill:#66ccff;" x="977.369365" xlink:href="#C0_0_bb7f919e60" y="303.350183"/>
    </g>
    <g clip-path="url(#pef20be1992)">
     <use style="fill:#66ccff;" x="997.689092" xlink:href="#C0_0_bb7f919e60" y="295.91205"/>
    </g>
    <g clip-path="url(#pef20be1992)">
     <use style="fill:#66ccff;" x="921.620854" xlink:href="#C0_0_bb7f919e60" y="378.783998"/>
    </g>
    <g clip-path="url(#pef20be1992)">
     <use style="fill:#66ccff;" x="936.864693" xlink:href="#C0_0_bb7f919e60" y="374.46536"/>
    </g>
    <g clip-path="url(#pef20be1992)">
     <use style="fill:#66ccff;" x="912.369421" xlink:href="#C0_0_bb7f919e60" y="374.480888"/>
    </g>
    <g clip-path="url(#pef20be1992)">
     <use style="fill:#66ccff;" x="922.777284" xlink:href="#C0_0_bb7f919e60" y="370.824798"/>
    </g>
    <g clip-path="url(#pef20be1992)">
     <use style="fill:#66ccff;" x="945.926084" xlink:href="#C0_0_bb7f919e60" y="365.886748"/>
    </g>
    <g clip-path="url(#pef20be1992)">
     <use style="fill:#66ccff;" x="917.721613" xlink:href="#C0_0_bb7f919e60" y="367.900271"/>
    </g>
    <g clip-path="url(#pef20be1992)">
     <use style="fill:#66ccff;" x="923.271933" xlink:href="#C0_0_bb7f919e60" y="361.980477"/>
    </g>
    <g clip-path="url(#pef20be1992)">
     <use style="fill:#66ccff;" x="918.438653" xlink:href="#C0_0_bb7f919e60" y="357.30641"/>
    </g>
    <g clip-path="url(#pef20be1992)">
     <use style="fill:#66ccff;" x="942.730404" xlink:href="#C0_0_bb7f919e60" y="356.619707"/>
    </g>
    <g clip-path="url(#pef20be1992)">
     <use style="fill:#66ccff;" x="945.454347" xlink:href="#C0_0_bb7f919e60" y="354.040257"/>
    </g>
    <g clip-path="url(#pef20be1992)">
     <use style="fill:#66ccff;" x="947.841335" xlink:href="#C0_0_bb7f919e60" y="351.465983"/>
    </g>
    <g clip-path="url(#pef20be1992)">
     <use style="fill:#66ccff;" x="934.775573" xlink:href="#C0_0_bb7f919e60" y="351.007031"/>
    </g>
    <g clip-path="url(#pef20be1992)">
     <use style="fill:#66ccff;" x="924.251798" xlink:href="#C0_0_bb7f919e60" y="349.947645"/>
    </g>
    <g clip-path="url(#pef20be1992)">
     <use style="fill:#66ccff;" x="930.581159" xlink:href="#C0_0_bb7f919e60" y="347.03347"/>
    </g>
    <g clip-path="url(#pef20be1992)">
     <use style="fill:#66ccff;" x="938.793423" xlink:href="#C0_0_bb7f919e60" y="346.973082"/>
    </g>
    <g clip-path="url(#pef20be1992)">
     <use style="fill:#66ccff;" x="931.22946" xlink:href="#C0_0_bb7f919e60" y="346.558989"/>
    </g>
    <g clip-path="url(#pef20be1992)">
     <use style="fill:#66ccff;" x="929.3196" xlink:href="#C0_0_bb7f919e60" y="343.855312"/>
    </g>
    <g clip-path="url(#pef20be1992)">
     <use style="fill:#66ccff;" x="964.67021" xlink:href="#C0_0_bb7f919e60" y="343.4671"/>
    </g>
    <g clip-path="url(#pef20be1992)">
     <use style="fill:#66ccff;" x="931.083895" xlink:href="#C0_0_bb7f919e60" y="342.173062"/>
    </g>
    <g clip-path="url(#pef20be1992)">
     <use style="fill:#66ccff;" x="947.705206" xlink:href="#C0_0_bb7f919e60" y="335.695968"/>
    </g>
    <g clip-path="url(#pef20be1992)">
     <use style="fill:#66ccff;" x="941.976973" xlink:href="#C0_0_bb7f919e60" y="329.17574"/>
    </g>
    <g clip-path="url(#pef20be1992)">
     <use style="fill:#66ccff;" x="936.696216" xlink:href="#C0_0_bb7f919e60" y="324.073777"/>
    </g>
    <g clip-path="url(#pef20be1992)">
     <use style="fill:#66ccff;" x="1025.661738" xlink:href="#C0_0_bb7f919e60" y="312.058199"/>
    </g>
    <g clip-path="url(#pef20be1992)">
     <use style="fill:#66ccff;" x="1006.018617" xlink:href="#C0_0_bb7f919e60" y="311.319735"/>
    </g>
    <g clip-path="url(#pef20be1992)">
     <use style="fill:#66ccff;" x="1024.332788" xlink:href="#C0_0_bb7f919e60" y="306.631865"/>
    </g>
    <g clip-path="url(#pef20be1992)">
     <use style="fill:#66ccff;" x="1030.435715" xlink:href="#C0_0_bb7f919e60" y="305.213598"/>
    </g>
    <g clip-path="url(#pef20be1992)">
     <use style="fill:#66ccff;" x="1022.13719" xlink:href="#C0_0_bb7f919e60" y="297.673668"/>
    </g>
    <g clip-path="url(#pef20be1992)">
     <use style="fill:#66ccff;" x="1005.797574" xlink:href="#C0_0_bb7f919e60" y="290.163069"/>
    </g>
    <g clip-path="url(#pef20be1992)">
     <use style="fill:#66ccff;" x="1018.103166" xlink:href="#C0_0_bb7f919e60" y="281.439524"/>
    </g>
    <g clip-path="url(#pef20be1992)">
     <use style="fill:#66ccff;" x="752.925069" xlink:href="#C0_0_bb7f919e60" y="10.888868"/>
    </g>
    <g clip-path="url(#pef20be1992)">
     <use style="fill:#66ccff;" x="381.007752" xlink:href="#C0_0_bb7f919e60" y="14.524253"/>
    </g>
    <g clip-path="url(#pef20be1992)">
     <use style="fill:#66ccff;" x="917.392745" xlink:href="#C0_0_bb7f919e60" y="368.260877"/>
    </g>
    <g clip-path="url(#pef20be1992)">
     <use style="fill:#66ccff;" x="930.655289" xlink:href="#C0_0_bb7f919e60" y="377.721161"/>
    </g>
    <g clip-path="url(#pef20be1992)">
     <use style="fill:#66ccff;" x="937.100562" xlink:href="#C0_0_bb7f919e60" y="372.750328"/>
    </g>
    <g clip-path="url(#pef20be1992)">
     <use style="fill:#66ccff;" x="943.737225" xlink:href="#C0_0_bb7f919e60" y="367.612132"/>
    </g>
    <g clip-path="url(#pef20be1992)">
     <use style="fill:#66ccff;" x="930.157943" xlink:href="#C0_0_bb7f919e60" y="355.304964"/>
    </g>
    <g clip-path="url(#pef20be1992)">
     <use style="fill:#66ccff;" x="930.502985" xlink:href="#C0_0_bb7f919e60" y="355.808776"/>
    </g>
    <g clip-path="url(#pef20be1992)">
     <use style="fill:#66ccff;" x="900.739087" xlink:href="#C0_0_bb7f919e60" y="415.184436"/>
    </g>
   </g>
   <g id="LineCollection_1">
    <path clip-path="url(#pef20be1992)" d="M 920.59112 321.435664 
L 920.921336 321.076784 
L 921.136987 320.640262 
L 921.2219 320.162331 
L 921.167987 319.677498 
L 920.98064 319.228898 
L 920.626164 318.804453 
L 920.155775 318.516314 
" style="fill:none;stroke:#999999;"/>
    <path clip-path="url(#pef20be1992)" d="M 920.59112 321.435664 
L 922.116852 323.984057 
L 922.58185 325.875079 
L 922.542763 327.735044 
L 922.407981 329.576029 
L 921.705767 332.978487 
L 916.372445 343.353225 
L 916.082664 344.317715 
L 914.412716 350.385892 
L 914.098674 351.379714 
L 909.272132 361.535328 
L 907.670923 363.505717 
L 904.654502 366.899548 
L 902.286384 369.863759 
" style="fill:none;stroke:#999999;"/>
    <path clip-path="url(#pef20be1992)" d="M 728.494492 257.004628 
L 742.393207 255.320652 
L 787.450813 261.566544 
L 799.783362 265.051821 
L 807.506368 268.847667 
L 856.863518 305.857167 
L 869.263458 313.379844 
L 878.65776 317.244705 
L 898.516532 322.143072 
L 905.568324 322.443289 
L 912.632246 321.197561 
L 917.845612 320.543641 
" style="fill:none;stroke:#999999;"/>
    <path clip-path="url(#pef20be1992)" d="M 728.494492 257.004628 
L 729.853094 254.856524 
L 735.203938 253.988655 
L 723.924036 247.480505 
L 681.785807 225.920099 
L 666.226578 216.680664 
L 637.88463 204.533957 
L 624.956345 203.65056 
L 620.329281 199.602808 
L 615.412435 194.540529 
L 604.480271 188.915775 
L 580.765387 157.248067 
L 572.898164 152.606782 
L 569.775266 147.416825 
L 529.083247 115.012377 
L 505.656796 100.26379 
L 488.737618 94.045504 
L 477.603281 85.949999 
L 458.659678 80.744514 
L 445.645133 73.37022 
L 429.797471 61.528905 
L 420.975992 50.394999 
L 415.856973 38.091281 
L 392.200045 24.51423 
L 381.007752 14.524253 
" style="fill:none;stroke:#999999;"/>
    <path clip-path="url(#pef20be1992)" d="M 920.155775 318.516314 
L 919.617995 318.392086 
" style="fill:none;stroke:#999999;"/>
    <path clip-path="url(#pef20be1992)" d="M 920.155775 318.516314 
L 920.964466 317.701932 
L 922.053505 317.210198 
L 925.02949 317.596684 
L 928.005476 319.37383 
" style="fill:none;stroke:#999999;"/>
    <path clip-path="url(#pef20be1992)" d="M 972.348737 306.002099 
L 969.724533 305.648395 
L 966.565244 306.557673 
L 962.756306 308.671269 
L 940.406763 313.845698 
L 928.481256 319.161608 
L 928.005476 319.37383 
" style="fill:none;stroke:#999999;"/>
    <path clip-path="url(#pef20be1992)" d="M 972.348737 306.002099 
L 969.545273 307.837908 
L 966.187854 309.777241 
L 964.648645 312.763881 
L 964.094691 315.443404 
L 964.066387 315.709113 
L 963.955865 320.597127 
L 963.428868 322.143072 
" style="fill:none;stroke:#999999;"/>
    <path clip-path="url(#pef20be1992)" d="M 972.348737 306.002099 
L 972.762518 305.791602 
L 976.595717 303.835016 
L 977.369365 303.350183 
" style="fill:none;stroke:#999999;"/>
    <path clip-path="url(#pef20be1992)" d="M 917.845612 320.543641 
L 912.632246 321.197561 
L 905.568324 322.443289 
L 898.516532 322.143072 
L 878.65776 317.244705 
L 869.263458 313.379844 
L 856.863518 305.857167 
L 807.506368 268.847667 
L 799.783362 265.051821 
L 787.450813 261.566544 
L 742.393207 255.320652 
L 728.494492 257.004628 
" style="fill:none;stroke:#999999;"/>
    <path clip-path="url(#pef20be1992)" d="M 917.845612 320.543641 
L 918.080133 321.061256 
L 918.471 321.475348 
L 918.975085 321.737607 
L 919.537125 321.822151 
L 920.096471 321.716902 
L 920.59112 321.435664 
" style="fill:none;stroke:#999999;"/>
    <path clip-path="url(#pef20be1992)" d="M 928.005476 319.37383 
L 928.481256 319.161608 
L 940.406763 313.845698 
L 962.756306 308.671269 
L 966.565244 306.557673 
L 969.724533 305.648395 
L 972.348737 306.002099 
" style="fill:none;stroke:#999999;"/>
    <path clip-path="url(#pef20be1992)" d="M 928.005476 319.37383 
L 925.02949 317.596684 
L 922.053505 317.210198 
L 920.964466 317.701932 
L 920.155775 318.516314 
" style="fill:none;stroke:#999999;"/>
    <path clip-path="url(#pef20be1992)" d="M 928.005476 319.37383 
L 928.346474 322.833226 
L 928.217083 325.628349 
L 927.458261 328.88415 
L 924.571231 337.136664 
L 922.354068 342.92533 
L 918.937346 350.408322 
L 918.663738 351.051891 
L 917.181137 354.535442 
L 915.334624 357.644585 
L 914.841322 358.87651 
" style="fill:none;stroke:#999999;"/>
    <path clip-path="url(#pef20be1992)" d="M 919.617995 318.392086 
L 919.080215 318.442122 
L 918.585565 318.65607 
L 918.181219 319.013224 
L 917.907612 319.479078 
L 917.791699 320.007046 
L 917.845612 320.543641 
" style="fill:none;stroke:#999999;"/>
    <path clip-path="url(#pef20be1992)" d="M 919.617995 318.392086 
L 919.072128 315.424424 
L 916.542271 311.059201 
L 894.260118 277.117436 
L 861.273584 227.926721 
L 843.950059 202.361697 
L 828.560656 177.16073 
L 810.571309 138.484509 
L 802.628609 123.014711 
L 758.552215 23.520408 
L 752.925069 10.888868 
" style="fill:none;stroke:#999999;"/>
    <path clip-path="url(#pef20be1992)" d="M 1082.546461 235.718558 
L 1036.065557 268.695834 
L 1018.103166 281.439524 
" style="fill:none;stroke:#999999;"/>
    <path clip-path="url(#pef20be1992)" d="M 153.854338 20.811554 
L 165.025066 16.851797 
L 212.396879 8.307692 
L 264.224583 15.11606 
L 279.060032 12.788516 
L 299.305629 17.126133 
L 320.128093 17.126133 
L 335.890842 14.812392 
L 356.569089 18.282141 
L 381.007752 14.524253 
" style="fill:none;stroke:#999999;"/>
    <path clip-path="url(#pef20be1992)" d="M 902.286384 369.863759 
L 904.654502 366.899548 
L 907.670923 363.505717 
L 909.272132 361.535328 
L 914.098674 351.379714 
L 914.412716 350.385892 
L 916.082664 344.317715 
L 916.372445 343.353225 
L 921.705767 332.978487 
L 922.407981 329.576029 
L 922.542763 327.735044 
L 922.58185 325.875079 
L 922.116852 323.984057 
L 920.59112 321.435664 
" style="fill:none;stroke:#999999;"/>
    <path clip-path="url(#pef20be1992)" d="M 902.286384 369.863759 
L 897.85071 376.817059 
L 891.19922 385.131687 
L 890.817787 386.211778 
L 890.306964 387.378138 
L 890.118269 396.867753 
L 890.530702 400.944837 
L 891.630522 406.348742 
L 893.435253 409.535527 
L 900.739087 415.184436 
" style="fill:none;stroke:#999999;"/>
    <path clip-path="url(#pef20be1992)" d="M 902.286384 369.863759 
L 902.174515 372.011863 
L 901.496561 374.228982 
L 897.89384 380.511107 
L 895.000071 385.25419 
L 894.415118 388.302944 
L 894.54316 390.602882 
L 895.078245 392.357598 
L 895.508199 392.5888 
L 895.913893 392.806198 
L 897.339886 392.430064 
L 898.23349 391.783045 
L 899.679701 390.489007 
L 902.249992 387.221128 
L 902.969728 386.101354 
" style="fill:none;stroke:#999999;"/>
    <path clip-path="url(#pef20be1992)" d="M 902.286384 369.863759 
L 906.036017 367.715655 
L 909.664348 364.82046 
L 912.156466 362.265165 
L 913.76711 360.234388 
L 914.841322 358.87651 
" style="fill:none;stroke:#999999;"/>
    <path clip-path="url(#pef20be1992)" d="M 914.841322 358.87651 
L 915.334624 357.644585 
L 917.181137 354.535442 
L 918.663738 351.051891 
L 918.937346 350.408322 
L 922.354068 342.92533 
L 924.571231 337.136664 
L 927.458261 328.88415 
L 928.217083 325.628349 
L 928.346474 322.833226 
L 928.005476 319.37383 
" style="fill:none;stroke:#999999;"/>
    <path clip-path="url(#pef20be1992)" d="M 914.841322 358.87651 
L 913.76711 360.234388 
L 912.156466 362.265165 
L 909.664348 364.82046 
L 906.036017 367.715655 
L 902.286384 369.863759 
" style="fill:none;stroke:#999999;"/>
    <path clip-path="url(#pef20be1992)" d="M 914.841322 358.87651 
L 916.178359 357.730855 
L 917.643439 356.474775 
L 920.568207 353.118902 
L 923.692453 351.296896 
" style="fill:none;stroke:#999999;"/>
    <path clip-path="url(#pef20be1992)" d="M 923.692453 351.296896 
L 924.251798 349.947645 
" style="fill:none;stroke:#999999;"/>
    <path clip-path="url(#pef20be1992)" d="M 923.692453 351.296896 
L 920.568207 353.118902 
L 917.643439 356.474775 
L 916.178359 357.730855 
L 914.841322 358.87651 
" style="fill:none;stroke:#999999;"/>
    <path clip-path="url(#pef20be1992)" d="M 923.692453 351.296896 
L 923.200499 352.409769 
L 921.703071 353.981594 
L 920.752859 354.487132 
L 920.05334 355.244576 
L 918.438653 357.30641 
" style="fill:none;stroke:#999999;"/>
    <path clip-path="url(#pef20be1992)" d="M 938.212513 347.702919 
L 938.793423 346.973082 
" style="fill:none;stroke:#999999;"/>
    <path clip-path="url(#pef20be1992)" d="M 938.212513 347.702919 
L 931.083895 342.173062 
" style="fill:none;stroke:#999999;"/>
    <path clip-path="url(#pef20be1992)" d="M 938.212513 347.702919 
L 935.089615 350.732695 
L 934.775573 351.007031 
" style="fill:none;stroke:#999999;"/>
    <path clip-path="url(#pef20be1992)" d="M 962.833132 322.988511 
L 963.428868 322.143072 
" style="fill:none;stroke:#999999;"/>
    <path clip-path="url(#pef20be1992)" d="M 962.833132 322.988511 
L 958.398806 325.636976 
L 955.627689 328.068043 
L 951.409014 331.794873 
L 947.705206 335.695968 
" style="fill:none;stroke:#999999;"/>
    <path clip-path="url(#pef20be1992)" d="M 962.833132 322.988511 
L 963.377651 325.046894 
L 963.767171 327.355459 
L 963.788736 329.710609 
L 962.706437 335.21286 
L 960.865315 338.014885 
L 957.979634 341.339701 
L 956.468728 342.823532 
" style="fill:none;stroke:#999999;"/>
    <path clip-path="url(#pef20be1992)" d="M 963.428868 322.143072 
L 962.833132 322.988511 
" style="fill:none;stroke:#999999;"/>
    <path clip-path="url(#pef20be1992)" d="M 963.428868 322.143072 
L 963.955865 320.597127 
L 964.066387 315.709113 
L 964.094691 315.443404 
L 964.648645 312.763881 
L 966.187854 309.777241 
L 969.545273 307.837908 
L 972.348737 306.002099 
" style="fill:none;stroke:#999999;"/>
    <path clip-path="url(#pef20be1992)" d="M 963.428868 322.143072 
L 961.38153 320.526387 
L 958.127894 320.205465 
L 952.731224 320.003595 
L 950.154194 320.062258 
L 949.354937 320.36075 
L 948.47481 321.270027 
L 945.83578 324.527554 
L 941.976973 329.17574 
" style="fill:none;stroke:#999999;"/>
    <path clip-path="url(#pef20be1992)" d="M 991.545731 300.266921 
L 997.689092 295.91205 
" style="fill:none;stroke:#999999;"/>
    <path clip-path="url(#pef20be1992)" d="M 991.545731 300.266921 
L 989.189742 299.647508 
L 988.666788 299.678565 
L 982.631253 300.047797 
L 979.834527 301.802513 
L 977.369365 303.350183 
" style="fill:none;stroke:#999999;"/>
    <path clip-path="url(#pef20be1992)" d="M 991.545731 300.266921 
L 985.557369 304.513092 
L 974.933855 312.044396 
L 971.413351 315.296746 
L 970.453703 317.22055 
L 970.212444 318.899349 
L 970.045314 320.065709 
L 969.793272 323.086857 
L 969.938836 326.751574 
L 971.402568 334.260448 
L 971.696393 339.679881 
L 971.32709 345.142449 
L 969.149014 350.927663 
L 965.798335 358.798868 
L 961.248096 366.428518 
L 956.608901 372.237888 
L 955.541428 373.537103 
L 947.143165 383.922193 
L 941.169629 391.434517 
L 933.749882 400.642895 
" style="fill:none;stroke:#999999;"/>
    <path clip-path="url(#pef20be1992)" d="M 912.283161 423.692308 
L 901.576083 415.833181 
L 900.739087 415.184436 
" style="fill:none;stroke:#999999;"/>
    <path clip-path="url(#pef20be1992)" d="M 912.283161 423.692308 
L 913.134983 422.976273 
L 915.763231 420.857501 
" style="fill:none;stroke:#999999;"/>
    <path clip-path="url(#pef20be1992)" d="M 915.763231 420.857501 
L 915.079886 419.975829 
L 913.347938 417.739731 
L 911.055297 415.213768 
L 908.595527 414.095719 
" style="fill:none;stroke:#999999;"/>
    <path clip-path="url(#pef20be1992)" d="M 915.763231 420.857501 
L 913.134983 422.976273 
L 912.283161 423.692308 
" style="fill:none;stroke:#999999;"/>
    <path clip-path="url(#pef20be1992)" d="M 915.763231 420.857501 
L 919.507473 417.724202 
L 926.683265 409.356087 
L 930.932939 404.116094 
L 933.749882 400.642895 
" style="fill:none;stroke:#999999;"/>
    <path clip-path="url(#pef20be1992)" d="M 908.595527 414.095719 
L 908.743787 410.512095 
L 910.628039 406.120991 
L 912.337074 401.069065 
L 913.847979 395.473643 
L 914.329151 393.64646 
L 915.02193 392.411085 
L 915.989665 391.120497 
L 917.003225 388.927534 
L 917.399484 387.5455 
" style="fill:none;stroke:#999999;"/>
    <path clip-path="url(#pef20be1992)" d="M 908.595527 414.095719 
L 906.936361 414.009449 
L 902.895598 414.630588 
L 900.739087 415.184436 
" style="fill:none;stroke:#999999;"/>
    <path clip-path="url(#pef20be1992)" d="M 908.595527 414.095719 
L 911.055297 415.213768 
L 913.347938 417.739731 
L 915.079886 419.975829 
L 915.763231 420.857501 
" style="fill:none;stroke:#999999;"/>
    <path clip-path="url(#pef20be1992)" d="M 933.749882 400.642895 
L 933.375188 399.668053 
L 931.892587 395.444311 
L 931.163417 393.30656 
" style="fill:none;stroke:#999999;"/>
    <path clip-path="url(#pef20be1992)" d="M 933.749882 400.642895 
L 930.932939 404.116094 
L 926.683265 409.356087 
L 919.507473 417.724202 
L 915.763231 420.857501 
" style="fill:none;stroke:#999999;"/>
    <path clip-path="url(#pef20be1992)" d="M 933.749882 400.642895 
L 941.169629 391.434517 
L 947.143165 383.922193 
L 955.541428 373.537103 
L 956.608901 372.237888 
L 961.248096 366.428518 
L 965.798335 358.798868 
L 969.149014 350.927663 
L 971.32709 345.142449 
L 971.696393 339.679881 
L 971.402568 334.260448 
L 969.938836 326.751574 
L 969.793272 323.086857 
L 970.045314 320.065709 
L 970.212444 318.899349 
L 970.453703 317.22055 
L 971.413351 315.296746 
L 974.933855 312.044396 
L 985.557369 304.513092 
L 991.545731 300.266921 
" style="fill:none;stroke:#999999;"/>
    <path clip-path="url(#pef20be1992)" d="M 931.163417 393.30656 
L 919.927993 389.836811 
" style="fill:none;stroke:#999999;"/>
    <path clip-path="url(#pef20be1992)" d="M 931.163417 393.30656 
L 931.892587 395.444311 
L 933.375188 399.668053 
L 933.749882 400.642895 
" style="fill:none;stroke:#999999;"/>
    <path clip-path="url(#pef20be1992)" d="M 931.163417 393.30656 
L 933.09619 389.524517 
L 933.950707 387.076196 
L 935.387483 381.363447 
L 938.690989 376.934385 
L 940.308372 375.04854 
" style="fill:none;stroke:#999999;"/>
    <path clip-path="url(#pef20be1992)" d="M 903.516943 392.3645 
L 905.744888 389.439973 
" style="fill:none;stroke:#999999;"/>
    <path clip-path="url(#pef20be1992)" d="M 907.247707 391.510434 
L 905.744888 389.439973 
" style="fill:none;stroke:#999999;"/>
    <path clip-path="url(#pef20be1992)" d="M 907.247707 391.510434 
L 908.684483 393.258249 
L 910.005346 392.481826 
L 912.337074 391.821003 
L 915.290146 389.29504 
L 917.399484 387.5455 
" style="fill:none;stroke:#999999;"/>
    <path clip-path="url(#pef20be1992)" d="M 907.247707 391.510434 
L 912.997505 386.496467 
L 916.844182 383.582292 
L 918.709564 382.571217 
L 921.153161 381.832752 
" style="fill:none;stroke:#999999;"/>
    <path clip-path="url(#pef20be1992)" d="M 919.927993 389.836811 
L 931.163417 393.30656 
" style="fill:none;stroke:#999999;"/>
    <path clip-path="url(#pef20be1992)" d="M 905.744888 389.439973 
L 903.516943 392.3645 
" style="fill:none;stroke:#999999;"/>
    <path clip-path="url(#pef20be1992)" d="M 905.744888 389.439973 
L 907.247707 391.510434 
" style="fill:none;stroke:#999999;"/>
    <path clip-path="url(#pef20be1992)" d="M 905.744888 389.439973 
L 902.969728 386.101354 
" style="fill:none;stroke:#999999;"/>
    <path clip-path="url(#pef20be1992)" d="M 917.399484 387.5455 
L 917.003225 388.927534 
L 915.989665 391.120497 
L 915.02193 392.411085 
L 914.329151 393.64646 
L 913.847979 395.473643 
L 912.337074 401.069065 
L 910.628039 406.120991 
L 908.743787 410.512095 
L 908.595527 414.095719 
" style="fill:none;stroke:#999999;"/>
    <path clip-path="url(#pef20be1992)" d="M 917.399484 387.5455 
L 915.290146 389.29504 
L 912.337074 391.821003 
L 910.005346 392.481826 
L 908.684483 393.258249 
L 907.247707 391.510434 
" style="fill:none;stroke:#999999;"/>
    <path clip-path="url(#pef20be1992)" d="M 917.399484 387.5455 
L 917.659613 387.234931 
L 922.422807 384.272446 
L 925.458097 381.456618 
" style="fill:none;stroke:#999999;"/>
    <path clip-path="url(#pef20be1992)" d="M 902.969728 386.101354 
L 905.744888 389.439973 
" style="fill:none;stroke:#999999;"/>
    <path clip-path="url(#pef20be1992)" d="M 902.969728 386.101354 
L 899.826613 382.999112 
" style="fill:none;stroke:#999999;"/>
    <path clip-path="url(#pef20be1992)" d="M 902.969728 386.101354 
L 902.249992 387.221128 
L 899.679701 390.489007 
L 898.23349 391.783045 
L 897.339886 392.430064 
L 895.913893 392.806198 
L 895.508199 392.5888 
L 895.078245 392.357598 
L 894.54316 390.602882 
L 894.415118 388.302944 
L 895.000071 385.25419 
L 897.89384 380.511107 
L 901.496561 374.228982 
L 902.174515 372.011863 
L 902.286384 369.863759 
" style="fill:none;stroke:#999999;"/>
    <path clip-path="url(#pef20be1992)" d="M 902.969728 386.101354 
L 905.808236 382.267549 
L 910.734516 376.939561 
L 912.369421 374.480888 
" style="fill:none;stroke:#999999;"/>
    <path clip-path="url(#pef20be1992)" d="M 899.826613 382.999112 
L 902.969728 386.101354 
" style="fill:none;stroke:#999999;"/>
    <path clip-path="url(#pef20be1992)" d="M 925.458097 381.456618 
L 923.305629 382.583294 
L 921.858071 383.339013 
L 921.446986 383.043972 
L 921.174726 382.403854 
L 921.153161 381.832752 
" style="fill:none;stroke:#999999;"/>
    <path clip-path="url(#pef20be1992)" d="M 925.458097 381.456618 
L 922.422807 384.272446 
L 917.659613 387.234931 
L 917.399484 387.5455 
" style="fill:none;stroke:#999999;"/>
    <path clip-path="url(#pef20be1992)" d="M 925.458097 381.456618 
L 930.132335 377.947186 
L 930.655289 377.721161 
" style="fill:none;stroke:#999999;"/>
    <path clip-path="url(#pef20be1992)" d="M 921.153161 381.832752 
L 921.601985 379.46725 
L 921.620854 378.783998 
" style="fill:none;stroke:#999999;"/>
    <path clip-path="url(#pef20be1992)" d="M 921.153161 381.832752 
L 921.174726 382.403854 
L 921.446986 383.043972 
L 921.858071 383.339013 
L 923.305629 382.583294 
L 925.458097 381.456618 
" style="fill:none;stroke:#999999;"/>
    <path clip-path="url(#pef20be1992)" d="M 921.153161 381.832752 
L 918.709564 382.571217 
L 916.844182 383.582292 
L 912.997505 386.496467 
L 907.247707 391.510434 
" style="fill:none;stroke:#999999;"/>
    <path clip-path="url(#pef20be1992)" d="M 930.540724 371.910065 
L 928.773733 369.877562 
" style="fill:none;stroke:#999999;"/>
    <path clip-path="url(#pef20be1992)" d="M 930.540724 371.910065 
L 930.970678 372.405251 
L 933.252537 374.851846 
L 933.314537 375.376363 
L 932.779452 375.911232 
L 930.655289 377.721161 
" style="fill:none;stroke:#999999;"/>
    <path clip-path="url(#pef20be1992)" d="M 930.540724 371.910065 
L 927.756129 373.642351 
L 926.795134 372.213733 
L 926.053833 372.543281 
L 925.613096 371.856578 
" style="fill:none;stroke:#999999;"/>
    <path clip-path="url(#pef20be1992)" d="M 925.613096 371.856578 
L 926.053833 372.543281 
L 926.795134 372.213733 
L 927.756129 373.642351 
L 930.540724 371.910065 
" style="fill:none;stroke:#999999;"/>
    <path clip-path="url(#pef20be1992)" d="M 928.773733 369.877562 
L 930.540724 371.910065 
" style="fill:none;stroke:#999999;"/>
    <path clip-path="url(#pef20be1992)" d="M 928.773733 369.877562 
L 931.89663 365.745266 
" style="fill:none;stroke:#999999;"/>
    <path clip-path="url(#pef20be1992)" d="M 928.773733 369.877562 
L 927.372 368.997616 
L 924.982316 369.025222 
L 923.058978 370.400354 
L 922.777284 370.824798 
" style="fill:none;stroke:#999999;"/>
    <path clip-path="url(#pef20be1992)" d="M 931.89663 365.745266 
L 928.773733 369.877562 
" style="fill:none;stroke:#999999;"/>
    <path clip-path="url(#pef20be1992)" d="M 931.89663 365.745266 
L 934.841616 369.491076 
L 935.91448 370.968005 
L 937.100562 372.750328 
" style="fill:none;stroke:#999999;"/>
    <path clip-path="url(#pef20be1992)" d="M 931.89663 365.745266 
L 931.499024 365.294941 
L 931.067721 365.008527 
" style="fill:none;stroke:#999999;"/>
    <path clip-path="url(#pef20be1992)" d="M 931.067721 365.008527 
L 935.822829 361.271344 
" style="fill:none;stroke:#999999;"/>
    <path clip-path="url(#pef20be1992)" d="M 931.067721 365.008527 
L 931.499024 365.294941 
L 931.89663 365.745266 
" style="fill:none;stroke:#999999;"/>
    <path clip-path="url(#pef20be1992)" d="M 931.067721 365.008527 
L 930.709201 364.858418 
L 928.95434 364.123405 
L 927.304609 363.797307 
L 924.590101 362.775879 
L 923.271933 361.980477 
" style="fill:none;stroke:#999999;"/>
    <path clip-path="url(#pef20be1992)" d="M 935.822829 361.271344 
L 931.067721 365.008527 
" style="fill:none;stroke:#999999;"/>
    <path clip-path="url(#pef20be1992)" d="M 935.822829 361.271344 
L 936.273 361.706141 
" style="fill:none;stroke:#999999;"/>
    <path clip-path="url(#pef20be1992)" d="M 935.822829 361.271344 
L 935.240571 360.708869 
L 931.118939 356.474775 
L 930.502985 355.808776 
" style="fill:none;stroke:#999999;"/>
    <path clip-path="url(#pef20be1992)" d="M 936.273 361.706141 
L 935.822829 361.271344 
" style="fill:none;stroke:#999999;"/>
    <path clip-path="url(#pef20be1992)" d="M 936.273 361.706141 
L 942.127928 356.809499 
L 942.730404 356.619707 
" style="fill:none;stroke:#999999;"/>
    <path clip-path="url(#pef20be1992)" d="M 936.273 361.706141 
L 936.414521 361.844172 
L 937.805471 363.417722 
L 939.66681 365.700406 
L 941.017325 367.441319 
L 941.587453 368.036577 
L 941.839495 368.179784 
L 942.307188 368.179784 
L 943.229097 367.693225 
L 943.737225 367.612132 
" style="fill:none;stroke:#999999;"/>
    <path clip-path="url(#pef20be1992)" d="M 956.468728 342.823532 
L 958.672413 344.54374 
" style="fill:none;stroke:#999999;"/>
    <path clip-path="url(#pef20be1992)" d="M 956.468728 342.823532 
L 957.979634 341.339701 
L 960.865315 338.014885 
L 962.706437 335.21286 
L 963.788736 329.710609 
L 963.767171 327.355459 
L 963.377651 325.046894 
L 962.833132 322.988511 
" style="fill:none;stroke:#999999;"/>
    <path clip-path="url(#pef20be1992)" d="M 956.468728 342.823532 
L 954.052088 345.627282 
L 950.287628 349.611195 
L 947.841335 351.465983 
" style="fill:none;stroke:#999999;"/>
    <path clip-path="url(#pef20be1992)" d="M 956.468728 342.823532 
L 955.058909 341.686503 
L 948.749766 336.803665 
L 947.705206 335.695968 
" style="fill:none;stroke:#999999;"/>
    <path clip-path="url(#pef20be1992)" d="M 940.308372 375.04854 
L 938.690989 376.934385 
L 935.387483 381.363447 
L 933.950707 387.076196 
L 933.09619 389.524517 
L 931.163417 393.30656 
" style="fill:none;stroke:#999999;"/>
    <path clip-path="url(#pef20be1992)" d="M 940.308372 375.04854 
L 943.490574 372.752053 
L 945.500173 370.731628 
L 947.395207 368.533488 
L 949.593501 366.116224 
L 952.450878 364.247632 
L 954.127565 363.202049 
L 953.522395 362.323828 
L 951.983185 362.653377 
L 950.71893 363.341805 
" style="fill:none;stroke:#999999;"/>
    <path clip-path="url(#pef20be1992)" d="M 940.308372 375.04854 
L 939.51855 374.853571 
L 937.96721 375.022659 
L 936.864693 374.46536 
" style="fill:none;stroke:#999999;"/>
    <path clip-path="url(#pef20be1992)" d="M 950.71893 363.341805 
L 951.983185 362.653377 
L 953.522395 362.323828 
L 954.127565 363.202049 
L 952.450878 364.247632 
L 949.593501 366.116224 
L 947.395207 368.533488 
L 945.500173 370.731628 
L 943.490574 372.752053 
L 940.308372 375.04854 
" style="fill:none;stroke:#999999;"/>
    <path clip-path="url(#pef20be1992)" d="M 950.563931 355.605181 
L 947.841335 351.465983 
" style="fill:none;stroke:#999999;"/>
    <path clip-path="url(#pef20be1992)" d="M 950.563931 355.605181 
L 954.661302 351.742045 
L 956.114251 349.607744 
L 957.095464 347.209459 
L 958.672413 344.54374 
" style="fill:none;stroke:#999999;"/>
    <path clip-path="url(#pef20be1992)" d="M 950.563931 355.605181 
L 953.500829 358.819572 
L 952.151662 360.287875 
L 950.085455 362.772428 
L 948.736287 363.740369 
L 945.926084 365.886748 
" style="fill:none;stroke:#999999;"/>
    <path clip-path="url(#pef20be1992)" d="M 958.672413 344.54374 
L 956.468728 342.823532 
" style="fill:none;stroke:#999999;"/>
    <path clip-path="url(#pef20be1992)" d="M 958.672413 344.54374 
L 957.095464 347.209459 
L 956.114251 349.607744 
L 954.661302 351.742045 
L 950.563931 355.605181 
" style="fill:none;stroke:#999999;"/>
    <path clip-path="url(#pef20be1992)" d="M 958.672413 344.54374 
L 962.214483 347.043823 
L 963.45852 345.17178 
L 964.67021 343.4671 
" style="fill:none;stroke:#999999;"/>
    <path clip-path="url(#pef20be1992)" d="M 1009.703555 322.105114 
L 1006.018617 311.319735 
" style="fill:none;stroke:#999999;"/>
    <path clip-path="url(#pef20be1992)" d="M 977.369365 303.350183 
L 976.595717 303.835016 
L 972.762518 305.791602 
L 972.348737 306.002099 
" style="fill:none;stroke:#999999;"/>
    <path clip-path="url(#pef20be1992)" d="M 977.369365 303.350183 
L 979.834527 301.802513 
L 982.631253 300.047797 
L 988.666788 299.678565 
L 989.189742 299.647508 
L 991.545731 300.266921 
" style="fill:none;stroke:#999999;"/>
    <path clip-path="url(#pef20be1992)" d="M 977.369365 303.350183 
L 977.237279 301.31768 
L 979.354703 298.161952 
L 980.011091 297.63916 
L 983.829464 294.605934 
L 991.219558 285.816825 
L 995.046018 281.405016 
L 1000.018124 279.115431 
L 1004.424146 276.460064 
L 1008.888124 272.167307 
L 1009.826207 272.277732 
L 1010.90581 273.331942 
L 1017.131389 280.119605 
L 1018.103166 281.439524 
" style="fill:none;stroke:#999999;"/>
    <path clip-path="url(#pef20be1992)" d="M 997.689092 295.91205 
L 991.545731 300.266921 
" style="fill:none;stroke:#999999;"/>
    <path clip-path="url(#pef20be1992)" d="M 997.689092 295.91205 
L 1005.797574 290.163069 
" style="fill:none;stroke:#999999;"/>
    <path clip-path="url(#pef20be1992)" d="M 997.689092 295.91205 
L 998.474871 297.161229 
L 1000.402253 300.334211 
L 1004.372929 307.201242 
L 1006.018617 311.319735 
" style="fill:none;stroke:#999999;"/>
    <path clip-path="url(#pef20be1992)" d="M 921.620854 378.783998 
L 921.519768 374.960545 
L 921.394421 373.105757 
L 921.38229 372.928042 
L 921.496855 372.755504 
L 922.777284 370.824798 
" style="fill:none;stroke:#999999;"/>
    <path clip-path="url(#pef20be1992)" d="M 921.620854 378.783998 
L 921.601985 379.46725 
L 921.153161 381.832752 
" style="fill:none;stroke:#999999;"/>
    <path clip-path="url(#pef20be1992)" d="M 921.620854 378.783998 
L 919.797255 378.176662 
L 916.88866 377.208721 
L 916.183751 376.974069 
L 915.011148 376.332226 
L 913.958501 375.757673 
L 912.369421 374.480888 
" style="fill:none;stroke:#999999;"/>
    <path clip-path="url(#pef20be1992)" d="M 936.864693 374.46536 
L 935.882133 375.343581 
L 934.322706 376.142434 
L 930.655289 377.721161 
" style="fill:none;stroke:#999999;"/>
    <path clip-path="url(#pef20be1992)" d="M 936.864693 374.46536 
L 938.131644 372.952198 
L 939.774635 370.462468 
L 942.419057 368.668068 
L 943.737225 367.612132 
" style="fill:none;stroke:#999999;"/>
    <path clip-path="url(#pef20be1992)" d="M 936.864693 374.46536 
L 937.96721 375.022659 
L 939.51855 374.853571 
L 940.308372 375.04854 
" style="fill:none;stroke:#999999;"/>
    <path clip-path="url(#pef20be1992)" d="M 912.369421 374.480888 
L 910.734516 376.939561 
L 905.808236 382.267549 
L 902.969728 386.101354 
" style="fill:none;stroke:#999999;"/>
    <path clip-path="url(#pef20be1992)" d="M 912.369421 374.480888 
L 914.675541 371.242341 
L 915.926317 369.870661 
L 917.392745 368.260877 
" style="fill:none;stroke:#999999;"/>
    <path clip-path="url(#pef20be1992)" d="M 912.369421 374.480888 
L 913.958501 375.757673 
L 915.011148 376.332226 
L 916.183751 376.974069 
L 916.88866 377.208721 
L 919.797255 378.176662 
L 921.620854 378.783998 
" style="fill:none;stroke:#999999;"/>
    <path clip-path="url(#pef20be1992)" d="M 922.777284 370.824798 
L 917.721613 367.900271 
" style="fill:none;stroke:#999999;"/>
    <path clip-path="url(#pef20be1992)" d="M 922.777284 370.824798 
L 923.058978 370.400354 
L 924.982316 369.025222 
L 927.372 368.997616 
L 928.773733 369.877562 
" style="fill:none;stroke:#999999;"/>
    <path clip-path="url(#pef20be1992)" d="M 922.777284 370.824798 
L 921.496855 372.755504 
L 921.38229 372.928042 
L 921.394421 373.105757 
L 921.519768 374.960545 
L 921.620854 378.783998 
" style="fill:none;stroke:#999999;"/>
    <path clip-path="url(#pef20be1992)" d="M 945.926084 365.886748 
L 943.737225 367.612132 
" style="fill:none;stroke:#999999;"/>
    <path clip-path="url(#pef20be1992)" d="M 945.926084 365.886748 
L 948.736287 363.740369 
L 950.085455 362.772428 
L 952.151662 360.287875 
L 953.500829 358.819572 
L 950.563931 355.605181 
" style="fill:none;stroke:#999999;"/>
    <path clip-path="url(#pef20be1992)" d="M 945.926084 365.886748 
L 944.164484 361.54568 
L 944.071484 359.766809 
L 944.316787 358.619428 
L 942.730404 356.619707 
" style="fill:none;stroke:#999999;"/>
    <path clip-path="url(#pef20be1992)" d="M 917.721613 367.900271 
L 922.777284 370.824798 
" style="fill:none;stroke:#999999;"/>
    <path clip-path="url(#pef20be1992)" d="M 917.721613 367.900271 
L 917.392745 368.260877 
" style="fill:none;stroke:#999999;"/>
    <path clip-path="url(#pef20be1992)" d="M 917.721613 367.900271 
L 921.634333 363.605789 
L 923.271933 361.980477 
" style="fill:none;stroke:#999999;"/>
    <path clip-path="url(#pef20be1992)" d="M 923.271933 361.980477 
L 921.634333 363.605789 
L 917.721613 367.900271 
" style="fill:none;stroke:#999999;"/>
    <path clip-path="url(#pef20be1992)" d="M 923.271933 361.980477 
L 926.973046 358.76436 
L 930.502985 355.808776 
" style="fill:none;stroke:#999999;"/>
    <path clip-path="url(#pef20be1992)" d="M 923.271933 361.980477 
L 924.590101 362.775879 
L 927.304609 363.797307 
L 928.95434 364.123405 
L 930.709201 364.858418 
L 931.067721 365.008527 
" style="fill:none;stroke:#999999;"/>
    <path clip-path="url(#pef20be1992)" d="M 923.271933 361.980477 
L 922.506372 361.430079 
L 918.438653 357.30641 
" style="fill:none;stroke:#999999;"/>
    <path clip-path="url(#pef20be1992)" d="M 918.438653 357.30641 
L 917.297049 358.87651 
L 915.09606 362.273792 
L 913.2482 364.682429 
L 914.116195 365.617588 
L 917.392745 368.260877 
" style="fill:none;stroke:#999999;"/>
    <path clip-path="url(#pef20be1992)" d="M 918.438653 357.30641 
L 920.05334 355.244576 
L 920.752859 354.487132 
L 921.703071 353.981594 
L 923.200499 352.409769 
L 923.692453 351.296896 
" style="fill:none;stroke:#999999;"/>
    <path clip-path="url(#pef20be1992)" d="M 918.438653 357.30641 
L 922.506372 361.430079 
L 923.271933 361.980477 
" style="fill:none;stroke:#999999;"/>
    <path clip-path="url(#pef20be1992)" d="M 942.730404 356.619707 
L 943.808659 355.634512 
L 945.454347 354.040257 
" style="fill:none;stroke:#999999;"/>
    <path clip-path="url(#pef20be1992)" d="M 942.730404 356.619707 
L 942.127928 356.809499 
L 936.273 361.706141 
" style="fill:none;stroke:#999999;"/>
    <path clip-path="url(#pef20be1992)" d="M 942.730404 356.619707 
L 944.316787 358.619428 
L 944.071484 359.766809 
L 944.164484 361.54568 
L 945.926084 365.886748 
" style="fill:none;stroke:#999999;"/>
    <path clip-path="url(#pef20be1992)" d="M 945.454347 354.040257 
L 947.678249 351.588486 
L 947.841335 351.465983 
" style="fill:none;stroke:#999999;"/>
    <path clip-path="url(#pef20be1992)" d="M 945.454347 354.040257 
L 943.808659 355.634512 
L 942.730404 356.619707 
" style="fill:none;stroke:#999999;"/>
    <path clip-path="url(#pef20be1992)" d="M 945.454347 354.040257 
L 943.273575 351.643698 
L 938.793423 346.973082 
" style="fill:none;stroke:#999999;"/>
    <path clip-path="url(#pef20be1992)" d="M 947.841335 351.465983 
L 950.563931 355.605181 
" style="fill:none;stroke:#999999;"/>
    <path clip-path="url(#pef20be1992)" d="M 947.841335 351.465983 
L 950.287628 349.611195 
L 954.052088 345.627282 
L 956.468728 342.823532 
" style="fill:none;stroke:#999999;"/>
    <path clip-path="url(#pef20be1992)" d="M 947.841335 351.465983 
L 947.678249 351.588486 
L 945.454347 354.040257 
" style="fill:none;stroke:#999999;"/>
    <path clip-path="url(#pef20be1992)" d="M 934.775573 351.007031 
L 930.157943 355.304964 
" style="fill:none;stroke:#999999;"/>
    <path clip-path="url(#pef20be1992)" d="M 934.775573 351.007031 
L 931.22946 346.558989 
" style="fill:none;stroke:#999999;"/>
    <path clip-path="url(#pef20be1992)" d="M 934.775573 351.007031 
L 935.089615 350.732695 
L 938.212513 347.702919 
" style="fill:none;stroke:#999999;"/>
    <path clip-path="url(#pef20be1992)" d="M 924.251798 349.947645 
L 923.692453 351.296896 
" style="fill:none;stroke:#999999;"/>
    <path clip-path="url(#pef20be1992)" d="M 924.251798 349.947645 
L 925.668356 349.809614 
L 926.338223 350.058069 
L 926.897568 350.544628 
L 928.640298 353.087845 
L 929.423382 354.231775 
L 930.157943 355.304964 
" style="fill:none;stroke:#999999;"/>
    <path clip-path="url(#pef20be1992)" d="M 924.251798 349.947645 
L 925.149446 347.920318 
L 926.712917 346.027571 
L 929.3196 343.855312 
" style="fill:none;stroke:#999999;"/>
    <path clip-path="url(#pef20be1992)" d="M 930.581159 347.03347 
L 931.22946 346.558989 
" style="fill:none;stroke:#999999;"/>
    <path clip-path="url(#pef20be1992)" d="M 938.793423 346.973082 
L 938.212513 347.702919 
" style="fill:none;stroke:#999999;"/>
    <path clip-path="url(#pef20be1992)" d="M 938.793423 346.973082 
L 939.665462 345.834328 
L 940.704631 344.47645 
L 941.568583 343.384282 
L 947.37499 336.044496 
L 947.705206 335.695968 
" style="fill:none;stroke:#999999;"/>
    <path clip-path="url(#pef20be1992)" d="M 938.793423 346.973082 
L 943.273575 351.643698 
L 945.454347 354.040257 
" style="fill:none;stroke:#999999;"/>
    <path clip-path="url(#pef20be1992)" d="M 931.22946 346.558989 
L 930.581159 347.03347 
" style="fill:none;stroke:#999999;"/>
    <path clip-path="url(#pef20be1992)" d="M 931.22946 346.558989 
L 934.775573 351.007031 
" style="fill:none;stroke:#999999;"/>
    <path clip-path="url(#pef20be1992)" d="M 931.22946 346.558989 
L 929.3196 343.855312 
" style="fill:none;stroke:#999999;"/>
    <path clip-path="url(#pef20be1992)" d="M 929.3196 343.855312 
L 931.22946 346.558989 
" style="fill:none;stroke:#999999;"/>
    <path clip-path="url(#pef20be1992)" d="M 929.3196 343.855312 
L 931.083895 342.173062 
" style="fill:none;stroke:#999999;"/>
    <path clip-path="url(#pef20be1992)" d="M 929.3196 343.855312 
L 926.712917 346.027571 
L 925.149446 347.920318 
L 924.251798 349.947645 
" style="fill:none;stroke:#999999;"/>
    <path clip-path="url(#pef20be1992)" d="M 964.67021 343.4671 
L 963.45852 345.17178 
L 962.214483 347.043823 
L 958.672413 344.54374 
" style="fill:none;stroke:#999999;"/>
    <path clip-path="url(#pef20be1992)" d="M 931.083895 342.173062 
L 938.212513 347.702919 
" style="fill:none;stroke:#999999;"/>
    <path clip-path="url(#pef20be1992)" d="M 931.083895 342.173062 
L 929.3196 343.855312 
" style="fill:none;stroke:#999999;"/>
    <path clip-path="url(#pef20be1992)" d="M 931.083895 342.173062 
L 931.486893 341.833161 
L 938.014383 333.949879 
L 941.976973 329.17574 
" style="fill:none;stroke:#999999;"/>
    <path clip-path="url(#pef20be1992)" d="M 947.705206 335.695968 
L 947.37499 336.044496 
L 941.568583 343.384282 
L 940.704631 344.47645 
L 939.665462 345.834328 
L 938.793423 346.973082 
" style="fill:none;stroke:#999999;"/>
    <path clip-path="url(#pef20be1992)" d="M 947.705206 335.695968 
L 951.409014 331.794873 
L 955.627689 328.068043 
L 958.398806 325.636976 
L 962.833132 322.988511 
" style="fill:none;stroke:#999999;"/>
    <path clip-path="url(#pef20be1992)" d="M 947.705206 335.695968 
L 948.749766 336.803665 
L 955.058909 341.686503 
L 956.468728 342.823532 
" style="fill:none;stroke:#999999;"/>
    <path clip-path="url(#pef20be1992)" d="M 947.705206 335.695968 
L 947.1216 334.990286 
L 941.976973 329.17574 
" style="fill:none;stroke:#999999;"/>
    <path clip-path="url(#pef20be1992)" d="M 941.976973 329.17574 
L 947.1216 334.990286 
L 947.705206 335.695968 
" style="fill:none;stroke:#999999;"/>
    <path clip-path="url(#pef20be1992)" d="M 941.976973 329.17574 
L 937.151779 324.513751 
L 936.696216 324.073777 
" style="fill:none;stroke:#999999;"/>
    <path clip-path="url(#pef20be1992)" d="M 941.976973 329.17574 
L 945.83578 324.527554 
L 948.47481 321.270027 
L 949.354937 320.36075 
L 950.154194 320.062258 
L 952.731224 320.003595 
L 958.127894 320.205465 
L 961.38153 320.526387 
L 963.428868 322.143072 
" style="fill:none;stroke:#999999;"/>
    <path clip-path="url(#pef20be1992)" d="M 941.976973 329.17574 
L 938.014383 333.949879 
L 931.486893 341.833161 
L 931.083895 342.173062 
" style="fill:none;stroke:#999999;"/>
    <path clip-path="url(#pef20be1992)" d="M 936.696216 324.073777 
L 937.151779 324.513751 
L 941.976973 329.17574 
" style="fill:none;stroke:#999999;"/>
    <path clip-path="url(#pef20be1992)" d="M 1025.661738 312.058199 
L 1024.332788 306.631865 
" style="fill:none;stroke:#999999;"/>
    <path clip-path="url(#pef20be1992)" d="M 1006.018617 311.319735 
L 1009.703555 322.105114 
" style="fill:none;stroke:#999999;"/>
    <path clip-path="url(#pef20be1992)" d="M 1006.018617 311.319735 
L 1024.332788 306.631865 
" style="fill:none;stroke:#999999;"/>
    <path clip-path="url(#pef20be1992)" d="M 1006.018617 311.319735 
L 1004.372929 307.201242 
L 1000.402253 300.334211 
L 998.474871 297.161229 
L 997.689092 295.91205 
" style="fill:none;stroke:#999999;"/>
    <path clip-path="url(#pef20be1992)" d="M 1024.332788 306.631865 
L 1030.435715 305.213598 
" style="fill:none;stroke:#999999;"/>
    <path clip-path="url(#pef20be1992)" d="M 1024.332788 306.631865 
L 1006.018617 311.319735 
" style="fill:none;stroke:#999999;"/>
    <path clip-path="url(#pef20be1992)" d="M 1024.332788 306.631865 
L 1025.661738 312.058199 
" style="fill:none;stroke:#999999;"/>
    <path clip-path="url(#pef20be1992)" d="M 1024.332788 306.631865 
L 1022.13719 297.673668 
" style="fill:none;stroke:#999999;"/>
    <path clip-path="url(#pef20be1992)" d="M 1030.435715 305.213598 
L 1024.332788 306.631865 
" style="fill:none;stroke:#999999;"/>
    <path clip-path="url(#pef20be1992)" d="M 1022.13719 297.673668 
L 1024.332788 306.631865 
" style="fill:none;stroke:#999999;"/>
    <path clip-path="url(#pef20be1992)" d="M 1022.13719 297.673668 
L 1013.024583 299.699269 
L 1011.888371 299.54571 
L 1006.688483 291.391542 
L 1005.797574 290.163069 
" style="fill:none;stroke:#999999;"/>
    <path clip-path="url(#pef20be1992)" d="M 1022.13719 297.673668 
L 1018.604555 283.259805 
L 1018.103166 281.439524 
" style="fill:none;stroke:#999999;"/>
    <path clip-path="url(#pef20be1992)" d="M 1005.797574 290.163069 
L 997.689092 295.91205 
" style="fill:none;stroke:#999999;"/>
    <path clip-path="url(#pef20be1992)" d="M 1005.797574 290.163069 
L 1006.688483 291.391542 
L 1011.888371 299.54571 
L 1013.024583 299.699269 
L 1022.13719 297.673668 
" style="fill:none;stroke:#999999;"/>
    <path clip-path="url(#pef20be1992)" d="M 1005.797574 290.163069 
L 1016.58687 282.514439 
L 1018.103166 281.439524 
" style="fill:none;stroke:#999999;"/>
    <path clip-path="url(#pef20be1992)" d="M 1018.103166 281.439524 
L 1016.58687 282.514439 
L 1005.797574 290.163069 
" style="fill:none;stroke:#999999;"/>
    <path clip-path="url(#pef20be1992)" d="M 1018.103166 281.439524 
L 1036.065557 268.695834 
L 1082.546461 235.718558 
" style="fill:none;stroke:#999999;"/>
    <path clip-path="url(#pef20be1992)" d="M 1018.103166 281.439524 
L 1018.604555 283.259805 
L 1022.13719 297.673668 
" style="fill:none;stroke:#999999;"/>
    <path clip-path="url(#pef20be1992)" d="M 1018.103166 281.439524 
L 1017.131389 280.119605 
L 1010.90581 273.331942 
L 1009.826207 272.277732 
L 1008.888124 272.167307 
L 1004.424146 276.460064 
L 1000.018124 279.115431 
L 995.046018 281.405016 
L 991.219558 285.816825 
L 983.829464 294.605934 
L 980.011091 297.63916 
L 979.354703 298.161952 
L 977.237279 301.31768 
L 977.369365 303.350183 
" style="fill:none;stroke:#999999;"/>
    <path clip-path="url(#pef20be1992)" d="M 752.925069 10.888868 
L 758.552215 23.520408 
L 802.628609 123.014711 
L 810.571309 138.484509 
L 828.560656 177.16073 
L 843.950059 202.361697 
L 861.273584 227.926721 
L 894.260118 277.117436 
L 916.542271 311.059201 
L 919.072128 315.424424 
L 919.617995 318.392086 
" style="fill:none;stroke:#999999;"/>
    <path clip-path="url(#pef20be1992)" d="M 752.925069 10.888868 
L 746.338275 10.200439 
L 737.516796 14.538056 
L 719.673013 11.487576 
L 693.643923 22.331618 
L 684.100013 23.487626 
L 670.941251 22.476551 
L 644.622379 26.524303 
L 640.717746 27.247239 
L 634.992209 23.503154 
L 625.390343 20.450949 
L 601.095896 19.439874 
L 586.346707 13.36652 
L 553.000305 15.838996 
L 531.454062 16.418725 
L 519.163296 26.249967 
L 492.121993 31.020655 
L 473.902169 28.996779 
L 460.597842 30.73079 
L 424.012629 21.767418 
L 403.998857 12.788516 
L 381.007752 14.524253 
" style="fill:none;stroke:#999999;"/>
    <path clip-path="url(#pef20be1992)" d="M 381.007752 14.524253 
L 403.998857 12.788516 
L 424.012629 21.767418 
L 460.597842 30.73079 
L 473.902169 28.996779 
L 492.121993 31.020655 
L 519.163296 26.249967 
L 531.454062 16.418725 
L 553.000305 15.838996 
L 586.346707 13.36652 
L 601.095896 19.439874 
L 625.390343 20.450949 
L 634.992209 23.503154 
L 640.717746 27.247239 
L 644.622379 26.524303 
L 670.941251 22.476551 
L 684.100013 23.487626 
L 693.643923 22.331618 
L 719.673013 11.487576 
L 737.516796 14.538056 
L 746.338275 10.200439 
L 752.925069 10.888868 
" style="fill:none;stroke:#999999;"/>
    <path clip-path="url(#pef20be1992)" d="M 381.007752 14.524253 
L 356.569089 18.282141 
L 335.890842 14.812392 
L 320.128093 17.126133 
L 299.305629 17.126133 
L 279.060032 12.788516 
L 264.224583 15.11606 
L 212.396879 8.307692 
L 165.025066 16.851797 
L 153.854338 20.811554 
" style="fill:none;stroke:#999999;"/>
    <path clip-path="url(#pef20be1992)" d="M 381.007752 14.524253 
L 392.200045 24.51423 
L 415.856973 38.091281 
L 420.975992 50.394999 
L 429.797471 61.528905 
L 445.645133 73.37022 
L 458.659678 80.744514 
L 477.603281 85.949999 
L 488.737618 94.045504 
L 505.656796 100.26379 
L 529.083247 115.012377 
L 569.775266 147.416825 
L 572.898164 152.606782 
L 580.765387 157.248067 
L 604.480271 188.915775 
L 615.412435 194.540529 
L 620.329281 199.602808 
L 624.956345 203.65056 
L 637.88463 204.533957 
L 666.226578 216.680664 
L 681.785807 225.920099 
L 723.924036 247.480505 
L 735.203938 253.988655 
L 729.853094 254.856524 
L 728.494492 257.004628 
" style="fill:none;stroke:#999999;"/>
    <path clip-path="url(#pef20be1992)" d="M 917.392745 368.260877 
L 917.721613 367.900271 
" style="fill:none;stroke:#999999;"/>
    <path clip-path="url(#pef20be1992)" d="M 917.392745 368.260877 
L 915.926317 369.870661 
L 914.675541 371.242341 
L 912.369421 374.480888 
" style="fill:none;stroke:#999999;"/>
    <path clip-path="url(#pef20be1992)" d="M 917.392745 368.260877 
L 914.116195 365.617588 
L 913.2482 364.682429 
L 915.09606 362.273792 
L 917.297049 358.87651 
L 918.438653 357.30641 
" style="fill:none;stroke:#999999;"/>
    <path clip-path="url(#pef20be1992)" d="M 930.655289 377.721161 
L 932.779452 375.911232 
L 933.314537 375.376363 
L 933.252537 374.851846 
L 930.970678 372.405251 
L 930.540724 371.910065 
" style="fill:none;stroke:#999999;"/>
    <path clip-path="url(#pef20be1992)" d="M 930.655289 377.721161 
L 930.132335 377.947186 
L 925.458097 381.456618 
" style="fill:none;stroke:#999999;"/>
    <path clip-path="url(#pef20be1992)" d="M 930.655289 377.721161 
L 934.322706 376.142434 
L 935.882133 375.343581 
L 936.864693 374.46536 
" style="fill:none;stroke:#999999;"/>
    <path clip-path="url(#pef20be1992)" d="M 937.100562 372.750328 
L 935.91448 370.968005 
L 934.841616 369.491076 
L 931.89663 365.745266 
" style="fill:none;stroke:#999999;"/>
    <path clip-path="url(#pef20be1992)" d="M 943.737225 367.612132 
L 945.926084 365.886748 
" style="fill:none;stroke:#999999;"/>
    <path clip-path="url(#pef20be1992)" d="M 943.737225 367.612132 
L 942.419057 368.668068 
L 939.774635 370.462468 
L 938.131644 372.952198 
L 936.864693 374.46536 
" style="fill:none;stroke:#999999;"/>
    <path clip-path="url(#pef20be1992)" d="M 943.737225 367.612132 
L 943.229097 367.693225 
L 942.307188 368.179784 
L 941.839495 368.179784 
L 941.587453 368.036577 
L 941.017325 367.441319 
L 939.66681 365.700406 
L 937.805471 363.417722 
L 936.414521 361.844172 
L 936.273 361.706141 
" style="fill:none;stroke:#999999;"/>
    <path clip-path="url(#pef20be1992)" d="M 930.157943 355.304964 
L 934.775573 351.007031 
" style="fill:none;stroke:#999999;"/>
    <path clip-path="url(#pef20be1992)" d="M 930.157943 355.304964 
L 930.502985 355.808776 
" style="fill:none;stroke:#999999;"/>
    <path clip-path="url(#pef20be1992)" d="M 930.157943 355.304964 
L 929.423382 354.231775 
L 928.640298 353.087845 
L 926.897568 350.544628 
L 926.338223 350.058069 
L 925.668356 349.809614 
L 924.251798 349.947645 
" style="fill:none;stroke:#999999;"/>
    <path clip-path="url(#pef20be1992)" d="M 930.502985 355.808776 
L 930.157943 355.304964 
" style="fill:none;stroke:#999999;"/>
    <path clip-path="url(#pef20be1992)" d="M 930.502985 355.808776 
L 926.973046 358.76436 
L 923.271933 361.980477 
" style="fill:none;stroke:#999999;"/>
    <path clip-path="url(#pef20be1992)" d="M 930.502985 355.808776 
L 931.118939 356.474775 
L 935.240571 360.708869 
L 935.822829 361.271344 
" style="fill:none;stroke:#999999;"/>
    <path clip-path="url(#pef20be1992)" d="M 900.739087 415.184436 
L 893.435253 409.535527 
L 891.630522 406.348742 
L 890.530702 400.944837 
L 890.118269 396.867753 
L 890.306964 387.378138 
L 890.817787 386.211778 
L 891.19922 385.131687 
L 897.85071 376.817059 
L 902.286384 369.863759 
" style="fill:none;stroke:#999999;"/>
    <path clip-path="url(#pef20be1992)" d="M 900.739087 415.184436 
L 901.576083 415.833181 
L 912.283161 423.692308 
" style="fill:none;stroke:#999999;"/>
    <path clip-path="url(#pef20be1992)" d="M 900.739087 415.184436 
L 902.895598 414.630588 
L 906.936361 414.009449 
L 908.595527 414.095719 
" style="fill:none;stroke:#999999;"/>
   </g>
  </g>
 </g>
 <defs>
  <clipPath id="pef20be1992">
   <rect height="432" width="965.839807" x="135.280496" y="0"/>
  </clipPath>
 </defs>
</svg>
