<?xml version="1.0" encoding="utf-8" standalone="no"?>
<!DOCTYPE svg PUBLIC "-//W3C//DTD SVG 1.1//EN"
  "http://www.w3.org/Graphics/SVG/1.1/DTD/svg11.dtd">
<!-- Created with matplotlib (http://matplotlib.org/) -->
<svg height="432pt" version="1.1" viewBox="0 0 253.625905 432" width="253.625905pt" xmlns="http://www.w3.org/2000/svg" xmlns:xlink="http://www.w3.org/1999/xlink">
 <defs>
  <style type="text/css">
*{stroke-linecap:butt;stroke-linejoin:round;}
  </style>
 </defs>
 <g id="figure_1">
  <g id="patch_1">
   <path d="M 0 432 
L 253.625905 432 
L 253.625905 0 
L 0 0 
z
" style="fill:none;opacity:0;"/>
  </g>
  <g id="axes_1">
   <g id="PathCollection_1">
    <defs>
     <path d="M 0 1.936492 
C 0.513564 1.936492 1.006162 1.732451 1.369306 1.369306 
C 1.732451 1.006162 1.936492 0.513564 1.936492 0 
C 1.936492 -0.513564 1.732451 -1.006162 1.369306 -1.369306 
C 1.006162 -1.732451 0.513564 -1.936492 0 -1.936492 
C -0.513564 -1.936492 -1.006162 -1.732451 -1.369306 -1.369306 
C -1.732451 -1.006162 -1.936492 -0.513564 -1.936492 0 
C -1.936492 0.513564 -1.732451 1.006162 -1.369306 1.369306 
C -1.006162 1.732451 -0.513564 1.936492 0 1.936492 
z
" id="C0_0_e7be2e98e3"/>
    </defs>
    <g clip-path="url(#p52feb55f58)">
     <use style="fill:#66ccff;" x="146.010535" xlink:href="#C0_0_e7be2e98e3" y="168.401919"/>
    </g>
    <g clip-path="url(#p52feb55f58)">
     <use style="fill:#66ccff;" x="144.162609" xlink:href="#C0_0_e7be2e98e3" y="172.905234"/>
    </g>
    <g clip-path="url(#p52feb55f58)">
     <use style="fill:#66ccff;" x="142.560434" xlink:href="#C0_0_e7be2e98e3" y="173.910716"/>
    </g>
    <g clip-path="url(#p52feb55f58)">
     <use style="fill:#66ccff;" x="141.826744" xlink:href="#C0_0_e7be2e98e3" y="173.50379"/>
    </g>
    <g clip-path="url(#p52feb55f58)">
     <use style="fill:#66ccff;" x="47.013001" xlink:href="#C0_0_e7be2e98e3" y="406.324647"/>
    </g>
    <g clip-path="url(#p52feb55f58)">
     <use style="fill:#66ccff;" x="36.167405" xlink:href="#C0_0_e7be2e98e3" y="419.893754"/>
    </g>
    <g clip-path="url(#p52feb55f58)">
     <use style="fill:#66ccff;" x="59.810127" xlink:href="#C0_0_e7be2e98e3" y="414.847294"/>
    </g>
    <g clip-path="url(#p52feb55f58)">
     <use style="fill:#66ccff;" x="45.882053" xlink:href="#C0_0_e7be2e98e3" y="405.435759"/>
    </g>
    <g clip-path="url(#p52feb55f58)">
     <use style="fill:#66ccff;" x="143.075999" xlink:href="#C0_0_e7be2e98e3" y="175.848377"/>
    </g>
    <g clip-path="url(#p52feb55f58)">
     <use style="fill:#66ccff;" x="202.087779" xlink:href="#C0_0_e7be2e98e3" y="278.507158"/>
    </g>
    <g clip-path="url(#p52feb55f58)">
     <use style="fill:#66ccff;" x="103.379442" xlink:href="#C0_0_e7be2e98e3" y="10.850836"/>
    </g>
    <g clip-path="url(#p52feb55f58)">
     <use style="fill:#66ccff;" x="100.906777" xlink:href="#C0_0_e7be2e98e3" y="9.403218"/>
    </g>
    <g clip-path="url(#p52feb55f58)">
     <use style="fill:#66ccff;" x="109.668721" xlink:href="#C0_0_e7be2e98e3" y="13.139723"/>
    </g>
    <g clip-path="url(#p52feb55f58)">
     <use style="fill:#66ccff;" x="102.094761" xlink:href="#C0_0_e7be2e98e3" y="10.212452"/>
    </g>
    <g clip-path="url(#p52feb55f58)">
     <use style="fill:#66ccff;" x="100.614237" xlink:href="#C0_0_e7be2e98e3" y="9.285758"/>
    </g>
    <g clip-path="url(#p52feb55f58)">
     <use style="fill:#66ccff;" x="102.495361" xlink:href="#C0_0_e7be2e98e3" y="9.789365"/>
    </g>
    <g clip-path="url(#p52feb55f58)">
     <use style="fill:#66ccff;" x="109.451265" xlink:href="#C0_0_e7be2e98e3" y="14.6719"/>
    </g>
    <g clip-path="url(#p52feb55f58)">
     <use style="fill:#66ccff;" x="102.911556" xlink:href="#C0_0_e7be2e98e3" y="9.696147"/>
    </g>
    <g clip-path="url(#p52feb55f58)">
     <use style="fill:#66ccff;" x="100.501498" xlink:href="#C0_0_e7be2e98e3" y="11.396578"/>
    </g>
    <g clip-path="url(#p52feb55f58)">
     <use style="fill:#66ccff;" x="101.324755" xlink:href="#C0_0_e7be2e98e3" y="10.757618"/>
    </g>
    <g clip-path="url(#p52feb55f58)">
     <use style="fill:#66ccff;" x="102.187447" xlink:href="#C0_0_e7be2e98e3" y="10.311442"/>
    </g>
    <g clip-path="url(#p52feb55f58)">
     <use style="fill:#66ccff;" x="32.677198" xlink:href="#C0_0_e7be2e98e3" y="109.603993"/>
    </g>
    <g clip-path="url(#p52feb55f58)">
     <use style="fill:#66ccff;" x="102.043071" xlink:href="#C0_0_e7be2e98e3" y="8.581574"/>
    </g>
    <g clip-path="url(#p52feb55f58)">
     <use style="fill:#66ccff;" x="105.477131" xlink:href="#C0_0_e7be2e98e3" y="10.946362"/>
    </g>
    <g clip-path="url(#p52feb55f58)">
     <use style="fill:#66ccff;" x="105.027961" xlink:href="#C0_0_e7be2e98e3" y="11.694991"/>
    </g>
    <g clip-path="url(#p52feb55f58)">
     <use style="fill:#66ccff;" x="178.16388" xlink:href="#C0_0_e7be2e98e3" y="122.574544"/>
    </g>
    <g clip-path="url(#p52feb55f58)">
     <use style="fill:#66ccff;" x="176.574627" xlink:href="#C0_0_e7be2e98e3" y="121.608022"/>
    </g>
    <g clip-path="url(#p52feb55f58)">
     <use style="fill:#66ccff;" x="177.677501" xlink:href="#C0_0_e7be2e98e3" y="122.938757"/>
    </g>
    <g clip-path="url(#p52feb55f58)">
     <use style="fill:#66ccff;" x="179.284133" xlink:href="#C0_0_e7be2e98e3" y="124.354629"/>
    </g>
    <g clip-path="url(#p52feb55f58)">
     <use style="fill:#66ccff;" x="179.23623" xlink:href="#C0_0_e7be2e98e3" y="122.976564"/>
    </g>
    <g clip-path="url(#p52feb55f58)">
     <use style="fill:#66ccff;" x="178.053147" xlink:href="#C0_0_e7be2e98e3" y="124.462565"/>
    </g>
    <g clip-path="url(#p52feb55f58)">
     <use style="fill:#66ccff;" x="183.870306" xlink:href="#C0_0_e7be2e98e3" y="122.296911"/>
    </g>
    <g clip-path="url(#p52feb55f58)">
     <use style="fill:#66ccff;" x="182.769437" xlink:href="#C0_0_e7be2e98e3" y="122.554342"/>
    </g>
    <g clip-path="url(#p52feb55f58)">
     <use style="fill:#66ccff;" x="179.332035" xlink:href="#C0_0_e7be2e98e3" y="122.890272"/>
    </g>
    <g clip-path="url(#p52feb55f58)">
     <use style="fill:#66ccff;" x="179.904416" xlink:href="#C0_0_e7be2e98e3" y="122.40629"/>
    </g>
    <g clip-path="url(#p52feb55f58)">
     <use style="fill:#66ccff;" x="180.037875" xlink:href="#C0_0_e7be2e98e3" y="122.018412"/>
    </g>
    <g clip-path="url(#p52feb55f58)">
     <use style="fill:#66ccff;" x="180.559233" xlink:href="#C0_0_e7be2e98e3" y="122.380605"/>
    </g>
    <g clip-path="url(#p52feb55f58)">
     <use style="fill:#66ccff;" x="142.602989" xlink:href="#C0_0_e7be2e98e3" y="177.951117"/>
    </g>
    <g clip-path="url(#p52feb55f58)">
     <use style="fill:#66ccff;" x="145.928321" xlink:href="#C0_0_e7be2e98e3" y="169.230778"/>
    </g>
    <g clip-path="url(#p52feb55f58)">
     <use style="fill:#66ccff;" x="146.613886" xlink:href="#C0_0_e7be2e98e3" y="168.020101"/>
    </g>
    <g clip-path="url(#p52feb55f58)">
     <use style="fill:#66ccff;" x="143.906386" xlink:href="#C0_0_e7be2e98e3" y="172.142753"/>
    </g>
    <g clip-path="url(#p52feb55f58)">
     <use style="fill:#66ccff;" x="143.254464" xlink:href="#C0_0_e7be2e98e3" y="171.684744"/>
    </g>
    <g clip-path="url(#p52feb55f58)">
     <use style="fill:#66ccff;" x="140.893423" xlink:href="#C0_0_e7be2e98e3" y="166.66397"/>
    </g>
    <g clip-path="url(#p52feb55f58)">
     <use style="fill:#66ccff;" x="144.117825" xlink:href="#C0_0_e7be2e98e3" y="171.437991"/>
    </g>
    <g clip-path="url(#p52feb55f58)">
     <use style="fill:#66ccff;" x="141.89715" xlink:href="#C0_0_e7be2e98e3" y="168.101775"/>
    </g>
    <g clip-path="url(#p52feb55f58)">
     <use style="fill:#66ccff;" x="141.705762" xlink:href="#C0_0_e7be2e98e3" y="168.241169"/>
    </g>
    <g clip-path="url(#p52feb55f58)">
     <use style="fill:#66ccff;" x="143.179157" xlink:href="#C0_0_e7be2e98e3" y="175.671177"/>
    </g>
    <g clip-path="url(#p52feb55f58)">
     <use style="fill:#66ccff;" x="139.308404" xlink:href="#C0_0_e7be2e98e3" y="171.973344"/>
    </g>
    <g clip-path="url(#p52feb55f58)">
     <use style="fill:#66ccff;" x="135.574897" xlink:href="#C0_0_e7be2e98e3" y="170.829045"/>
    </g>
    <g clip-path="url(#p52feb55f58)">
     <use style="fill:#66ccff;" x="133.063463" xlink:href="#C0_0_e7be2e98e3" y="171.248381"/>
    </g>
    <g clip-path="url(#p52feb55f58)">
     <use style="fill:#66ccff;" x="132.804343" xlink:href="#C0_0_e7be2e98e3" y="168.850404"/>
    </g>
    <g clip-path="url(#p52feb55f58)">
     <use style="fill:#66ccff;" x="134.410306" xlink:href="#C0_0_e7be2e98e3" y="171.007977"/>
    </g>
    <g clip-path="url(#p52feb55f58)">
     <use style="fill:#66ccff;" x="130.333237" xlink:href="#C0_0_e7be2e98e3" y="171.855596"/>
    </g>
    <g clip-path="url(#p52feb55f58)">
     <use style="fill:#66ccff;" x="131.18323" xlink:href="#C0_0_e7be2e98e3" y="171.701195"/>
    </g>
    <g clip-path="url(#p52feb55f58)">
     <use style="fill:#66ccff;" x="132.483507" xlink:href="#C0_0_e7be2e98e3" y="171.352854"/>
    </g>
    <g clip-path="url(#p52feb55f58)">
     <use style="fill:#66ccff;" x="137.671694" xlink:href="#C0_0_e7be2e98e3" y="170.326304"/>
    </g>
    <g clip-path="url(#p52feb55f58)">
     <use style="fill:#66ccff;" x="140.281829" xlink:href="#C0_0_e7be2e98e3" y="166.893118"/>
    </g>
    <g clip-path="url(#p52feb55f58)">
     <use style="fill:#66ccff;" x="137.810723" xlink:href="#C0_0_e7be2e98e3" y="166.347664"/>
    </g>
    <g clip-path="url(#p52feb55f58)">
     <use style="fill:#66ccff;" x="139.642608" xlink:href="#C0_0_e7be2e98e3" y="168.376522"/>
    </g>
    <g clip-path="url(#p52feb55f58)">
     <use style="fill:#66ccff;" x="137.660999" xlink:href="#C0_0_e7be2e98e3" y="166.850405"/>
    </g>
    <g clip-path="url(#p52feb55f58)">
     <use style="fill:#66ccff;" x="139.113228" xlink:href="#C0_0_e7be2e98e3" y="168.741024"/>
    </g>
    <g clip-path="url(#p52feb55f58)">
     <use style="fill:#66ccff;" x="135.895955" xlink:href="#C0_0_e7be2e98e3" y="164.144492"/>
    </g>
    <g clip-path="url(#p52feb55f58)">
     <use style="fill:#66ccff;" x="142.239598" xlink:href="#C0_0_e7be2e98e3" y="166.636553"/>
    </g>
    <g clip-path="url(#p52feb55f58)">
     <use style="fill:#66ccff;" x="141.726037" xlink:href="#C0_0_e7be2e98e3" y="171.823561"/>
    </g>
    <g clip-path="url(#p52feb55f58)">
     <use style="fill:#66ccff;" x="142.11104" xlink:href="#C0_0_e7be2e98e3" y="172.50812"/>
    </g>
    <g clip-path="url(#p52feb55f58)">
     <use style="fill:#66ccff;" x="142.109035" xlink:href="#C0_0_e7be2e98e3" y="173.377672"/>
    </g>
    <g clip-path="url(#p52feb55f58)">
     <use style="fill:#66ccff;" x="142.110372" xlink:href="#C0_0_e7be2e98e3" y="172.786042"/>
    </g>
    <g clip-path="url(#p52feb55f58)">
     <use style="fill:#66ccff;" x="142.913353" xlink:href="#C0_0_e7be2e98e3" y="172.67926"/>
    </g>
    <g clip-path="url(#p52feb55f58)">
     <use style="fill:#66ccff;" x="143.66509" xlink:href="#C0_0_e7be2e98e3" y="173.140732"/>
    </g>
    <g clip-path="url(#p52feb55f58)">
     <use style="fill:#66ccff;" x="138.976873" xlink:href="#C0_0_e7be2e98e3" y="171.117645"/>
    </g>
    <g clip-path="url(#p52feb55f58)">
     <use style="fill:#66ccff;" x="140.271135" xlink:href="#C0_0_e7be2e98e3" y="171.374499"/>
    </g>
    <g clip-path="url(#p52feb55f58)">
     <use style="fill:#66ccff;" x="141.073448" xlink:href="#C0_0_e7be2e98e3" y="171.705812"/>
    </g>
    <g clip-path="url(#p52feb55f58)">
     <use style="fill:#66ccff;" x="138.534387" xlink:href="#C0_0_e7be2e98e3" y="170.849536"/>
    </g>
    <g clip-path="url(#p52feb55f58)">
     <use style="fill:#66ccff;" x="140.163744" xlink:href="#C0_0_e7be2e98e3" y="169.189797"/>
    </g>
    <g clip-path="url(#p52feb55f58)">
     <use style="fill:#66ccff;" x="140.98143" xlink:href="#C0_0_e7be2e98e3" y="168.724863"/>
    </g>
    <g clip-path="url(#p52feb55f58)">
     <use style="fill:#66ccff;" x="142.678074" xlink:href="#C0_0_e7be2e98e3" y="166.946509"/>
    </g>
    <g clip-path="url(#p52feb55f58)">
     <use style="fill:#66ccff;" x="139.73418" xlink:href="#C0_0_e7be2e98e3" y="168.309856"/>
    </g>
    <g clip-path="url(#p52feb55f58)">
     <use style="fill:#66ccff;" x="140.463636" xlink:href="#C0_0_e7be2e98e3" y="169.78085"/>
    </g>
    <g clip-path="url(#p52feb55f58)">
     <use style="fill:#66ccff;" x="139.702542" xlink:href="#C0_0_e7be2e98e3" y="169.577098"/>
    </g>
    <g clip-path="url(#p52feb55f58)">
     <use style="fill:#66ccff;" x="140.948232" xlink:href="#C0_0_e7be2e98e3" y="172.614614"/>
    </g>
    <g clip-path="url(#p52feb55f58)">
     <use style="fill:#66ccff;" x="140.803633" xlink:href="#C0_0_e7be2e98e3" y="172.73294"/>
    </g>
    <g clip-path="url(#p52feb55f58)">
     <use style="fill:#66ccff;" x="141.833428" xlink:href="#C0_0_e7be2e98e3" y="172.469448"/>
    </g>
    <g clip-path="url(#p52feb55f58)">
     <use style="fill:#66ccff;" x="143.106746" xlink:href="#C0_0_e7be2e98e3" y="171.425004"/>
    </g>
    <g clip-path="url(#p52feb55f58)">
     <use style="fill:#66ccff;" x="143.049931" xlink:href="#C0_0_e7be2e98e3" y="171.32486"/>
    </g>
    <g clip-path="url(#p52feb55f58)">
     <use style="fill:#66ccff;" x="144.117825" xlink:href="#C0_0_e7be2e98e3" y="170.783735"/>
    </g>
    <g clip-path="url(#p52feb55f58)">
     <use style="fill:#66ccff;" x="141.767256" xlink:href="#C0_0_e7be2e98e3" y="171.547082"/>
    </g>
    <g clip-path="url(#p52feb55f58)">
     <use style="fill:#66ccff;" x="142.941649" xlink:href="#C0_0_e7be2e98e3" y="171.134384"/>
    </g>
    <g clip-path="url(#p52feb55f58)">
     <use style="fill:#66ccff;" x="144.507062" xlink:href="#C0_0_e7be2e98e3" y="170.569305"/>
    </g>
    <g clip-path="url(#p52feb55f58)">
     <use style="fill:#66ccff;" x="145.247436" xlink:href="#C0_0_e7be2e98e3" y="169.764111"/>
    </g>
    <g clip-path="url(#p52feb55f58)">
     <use style="fill:#66ccff;" x="147.225702" xlink:href="#C0_0_e7be2e98e3" y="168.4986"/>
    </g>
    <g clip-path="url(#p52feb55f58)">
     <use style="fill:#66ccff;" x="148.161251" xlink:href="#C0_0_e7be2e98e3" y="167.670318"/>
    </g>
    <g clip-path="url(#p52feb55f58)">
     <use style="fill:#66ccff;" x="149.332303" xlink:href="#C0_0_e7be2e98e3" y="170.241167"/>
    </g>
    <g clip-path="url(#p52feb55f58)">
     <use style="fill:#66ccff;" x="150.533878" xlink:href="#C0_0_e7be2e98e3" y="172.315913"/>
    </g>
    <g clip-path="url(#p52feb55f58)">
     <use style="fill:#66ccff;" x="149.044442" xlink:href="#C0_0_e7be2e98e3" y="164.943336"/>
    </g>
    <g clip-path="url(#p52feb55f58)">
     <use style="fill:#66ccff;" x="149.647346" xlink:href="#C0_0_e7be2e98e3" y="167.071762"/>
    </g>
    <g clip-path="url(#p52feb55f58)">
     <use style="fill:#66ccff;" x="142.821336" xlink:href="#C0_0_e7be2e98e3" y="170.508411"/>
    </g>
    <g clip-path="url(#p52feb55f58)">
     <use style="fill:#66ccff;" x="141.843454" xlink:href="#C0_0_e7be2e98e3" y="170.836549"/>
    </g>
    <g clip-path="url(#p52feb55f58)">
     <use style="fill:#66ccff;" x="137.894051" xlink:href="#C0_0_e7be2e98e3" y="168.756897"/>
    </g>
    <g clip-path="url(#p52feb55f58)">
     <use style="fill:#66ccff;" x="138.693691" xlink:href="#C0_0_e7be2e98e3" y="168.194704"/>
    </g>
    <g clip-path="url(#p52feb55f58)">
     <use style="fill:#66ccff;" x="129.706047" xlink:href="#C0_0_e7be2e98e3" y="171.116202"/>
    </g>
    <g clip-path="url(#p52feb55f58)">
     <use style="fill:#66ccff;" x="132.379013" xlink:href="#C0_0_e7be2e98e3" y="169.291384"/>
    </g>
    <g clip-path="url(#p52feb55f58)">
     <use style="fill:#66ccff;" x="178.124667" xlink:href="#C0_0_e7be2e98e3" y="125.821005"/>
    </g>
    <g clip-path="url(#p52feb55f58)">
     <use style="fill:#66ccff;" x="180.601566" xlink:href="#C0_0_e7be2e98e3" y="121.143665"/>
    </g>
    <g clip-path="url(#p52feb55f58)">
     <use style="fill:#66ccff;" x="180.765771" xlink:href="#C0_0_e7be2e98e3" y="125.57887"/>
    </g>
    <g clip-path="url(#p52feb55f58)">
     <use style="fill:#66ccff;" x="179.240909" xlink:href="#C0_0_e7be2e98e3" y="124.68421"/>
    </g>
    <g clip-path="url(#p52feb55f58)">
     <use style="fill:#66ccff;" x="46.413215" xlink:href="#C0_0_e7be2e98e3" y="404.503869"/>
    </g>
    <g clip-path="url(#p52feb55f58)">
     <use style="fill:#66ccff;" x="46.454211" xlink:href="#C0_0_e7be2e98e3" y="404.031719"/>
    </g>
    <g clip-path="url(#p52feb55f58)">
     <use style="fill:#66ccff;" x="45.882053" xlink:href="#C0_0_e7be2e98e3" y="404.661733"/>
    </g>
    <g clip-path="url(#p52feb55f58)">
     <use style="fill:#66ccff;" x="45.882053" xlink:href="#C0_0_e7be2e98e3" y="404.45827"/>
    </g>
    <g clip-path="url(#p52feb55f58)">
     <use style="fill:#66ccff;" x="47.849402" xlink:href="#C0_0_e7be2e98e3" y="404.02739"/>
    </g>
    <g clip-path="url(#p52feb55f58)">
     <use style="fill:#66ccff;" x="45.882053" xlink:href="#C0_0_e7be2e98e3" y="404.03374"/>
    </g>
    <g clip-path="url(#p52feb55f58)">
     <use style="fill:#66ccff;" x="45.882053" xlink:href="#C0_0_e7be2e98e3" y="403.411518"/>
    </g>
    <g clip-path="url(#p52feb55f58)">
     <use style="fill:#66ccff;" x="218.290224" xlink:href="#C0_0_e7be2e98e3" y="284.279159"/>
    </g>
    <g clip-path="url(#p52feb55f58)">
     <use style="fill:#66ccff;" x="218.773483" xlink:href="#C0_0_e7be2e98e3" y="283.748135"/>
    </g>
    <g clip-path="url(#p52feb55f58)">
     <use style="fill:#66ccff;" x="218.344142" xlink:href="#C0_0_e7be2e98e3" y="283.776129"/>
    </g>
    <g clip-path="url(#p52feb55f58)">
     <use style="fill:#66ccff;" x="218.767467" xlink:href="#C0_0_e7be2e98e3" y="282.22981"/>
    </g>
    <g clip-path="url(#p52feb55f58)">
     <use style="fill:#66ccff;" x="218.025088" xlink:href="#C0_0_e7be2e98e3" y="282.478872"/>
    </g>
    <g clip-path="url(#p52feb55f58)">
     <use style="fill:#66ccff;" x="217.32727" xlink:href="#C0_0_e7be2e98e3" y="282.684066"/>
    </g>
    <g clip-path="url(#p52feb55f58)">
     <use style="fill:#66ccff;" x="217.147913" xlink:href="#C0_0_e7be2e98e3" y="278.517259"/>
    </g>
    <g clip-path="url(#p52feb55f58)">
     <use style="fill:#66ccff;" x="218.080121" xlink:href="#C0_0_e7be2e98e3" y="282.606433"/>
    </g>
    <g clip-path="url(#p52feb55f58)">
     <use style="fill:#66ccff;" x="220.165778" xlink:href="#C0_0_e7be2e98e3" y="284.364007"/>
    </g>
    <g clip-path="url(#p52feb55f58)">
     <use style="fill:#66ccff;" x="220.948707" xlink:href="#C0_0_e7be2e98e3" y="283.915523"/>
    </g>
    <g clip-path="url(#p52feb55f58)">
     <use style="fill:#66ccff;" x="219.08407" xlink:href="#C0_0_e7be2e98e3" y="283.228077"/>
    </g>
    <g clip-path="url(#p52feb55f58)">
     <use style="fill:#66ccff;" x="217.488579" xlink:href="#C0_0_e7be2e98e3" y="285.51783"/>
    </g>
    <g clip-path="url(#p52feb55f58)">
     <use style="fill:#66ccff;" x="218.384915" xlink:href="#C0_0_e7be2e98e3" y="283.395465"/>
    </g>
   </g>
   <g id="LineCollection_1">
    <path clip-path="url(#p52feb55f58)" d="M 146.010535 168.401919 
L 146.613886 168.020101 
" style="fill:none;stroke:#999999;"/>
    <path clip-path="url(#p52feb55f58)" d="M 146.010535 168.401919 
L 146.015214 168.567576 
L 146.024795 168.905238 
L 145.928321 169.230778 
" style="fill:none;stroke:#999999;"/>
    <path clip-path="url(#p52feb55f58)" d="M 146.010535 168.401919 
L 145.442165 167.809712 
L 145.208445 167.647519 
L 145.013716 167.699467 
L 144.922812 167.86166 
L 145.247436 169.764111 
" style="fill:none;stroke:#999999;"/>
    <path clip-path="url(#p52feb55f58)" d="M 144.162609 172.905234 
L 143.826622 172.998163 
L 143.66509 173.140732 
" style="fill:none;stroke:#999999;"/>
    <path clip-path="url(#p52feb55f58)" d="M 144.162609 172.905234 
L 144.135427 172.424715 
L 143.906386 172.142753 
" style="fill:none;stroke:#999999;"/>
    <path clip-path="url(#p52feb55f58)" d="M 144.162609 172.905234 
L 144.012217 173.217499 
L 143.83598 174.168725 
L 143.853581 174.591524 
L 143.179157 175.671177 
" style="fill:none;stroke:#999999;"/>
    <path clip-path="url(#p52feb55f58)" d="M 144.162609 172.905234 
L 144.707585 172.956605 
L 145.520815 172.871756 
L 145.968203 171.905523 
L 146.104113 171.597299 
L 146.027246 171.061946 
L 145.953498 169.992682 
L 145.928321 169.230778 
" style="fill:none;stroke:#999999;"/>
    <path clip-path="url(#p52feb55f58)" d="M 142.560434 173.910716 
L 142.218877 173.659634 
L 141.826744 173.50379 
" style="fill:none;stroke:#999999;"/>
    <path clip-path="url(#p52feb55f58)" d="M 142.560434 173.910716 
L 142.791035 173.912448 
L 143.66509 173.140732 
" style="fill:none;stroke:#999999;"/>
    <path clip-path="url(#p52feb55f58)" d="M 142.560434 173.910716 
L 142.453488 173.609707 
L 142.109035 173.377672 
" style="fill:none;stroke:#999999;"/>
    <path clip-path="url(#p52feb55f58)" d="M 142.560434 173.910716 
L 142.731546 174.347657 
L 143.179157 175.671177 
" style="fill:none;stroke:#999999;"/>
    <path clip-path="url(#p52feb55f58)" d="M 141.826744 173.50379 
L 142.218877 173.659634 
L 142.560434 173.910716 
" style="fill:none;stroke:#999999;"/>
    <path clip-path="url(#p52feb55f58)" d="M 141.826744 173.50379 
L 140.480569 172.768438 
L 139.904624 172.418943 
L 139.243122 172.154874 
L 138.338097 172.03193 
L 137.732742 171.738135 
L 136.71431 171.214615 
L 135.811513 171.066275 
L 134.472468 171.234528 
L 133.882932 171.417212 
L 133.269779 171.439434 
L 132.483507 171.352854 
" style="fill:none;stroke:#999999;"/>
    <path clip-path="url(#p52feb55f58)" d="M 141.826744 173.50379 
L 142.428089 174.078104 
L 143.075999 175.848377 
" style="fill:none;stroke:#999999;"/>
    <path clip-path="url(#p52feb55f58)" d="M 47.013001 406.324647 
L 45.882053 405.435759 
" style="fill:none;stroke:#999999;"/>
    <path clip-path="url(#p52feb55f58)" d="M 47.013001 406.324647 
L 47.897528 406.546003 
L 51.347407 407.409494 
L 55.37234 409.010647 
L 58.262093 411.076735 
L 60.016442 412.574569 
L 58.31356 413.50415 
L 58.158712 414.279041 
L 59.810127 414.847294 
" style="fill:none;stroke:#999999;"/>
    <path clip-path="url(#p52feb55f58)" d="M 47.013001 406.324647 
L 47.380625 405.870102 
L 47.978182 404.667794 
L 47.849402 404.02739 
" style="fill:none;stroke:#999999;"/>
    <path clip-path="url(#p52feb55f58)" d="M 36.167405 419.893754 
L 37.861374 419.729829 
L 38.960906 420.39967 
L 39.494074 422.221313 
L 40.550605 423.560706 
L 42.809602 423.692308 
L 46.09639 422.855945 
L 49.652323 421.180622 
L 52.323283 419.363596 
L 54.030176 419.326655 
L 55.369889 418.840653 
L 56.899876 419.407752 
L 59.272281 418.809772 
L 60.939737 418.014102 
L 61.363954 417.107032 
L 61.05448 416.177452 
L 59.810127 414.847294 
" style="fill:none;stroke:#999999;"/>
    <path clip-path="url(#p52feb55f58)" d="M 36.167405 419.893754 
L 37.006703 418.34859 
L 40.205929 415.300973 
L 42.889143 413.75148 
L 45.624048 409.877602 
L 45.778673 409.154659 
L 45.572358 408.328108 
L 45.773548 406.448456 
L 45.882053 405.435759 
" style="fill:none;stroke:#999999;"/>
    <path clip-path="url(#p52feb55f58)" d="M 59.810127 414.847294 
L 58.158712 414.279041 
L 58.31356 413.50415 
L 60.016442 412.574569 
L 58.262093 411.076735 
L 55.37234 409.010647 
L 51.347407 407.409494 
L 47.897528 406.546003 
L 47.013001 406.324647 
" style="fill:none;stroke:#999999;"/>
    <path clip-path="url(#p52feb55f58)" d="M 59.810127 414.847294 
L 61.05448 416.177452 
L 61.363954 417.107032 
L 60.939737 418.014102 
L 59.272281 418.809772 
L 56.899876 419.407752 
L 55.369889 418.840653 
L 54.030176 419.326655 
L 52.323283 419.363596 
L 49.652323 421.180622 
L 46.09639 422.855945 
L 42.809602 423.692308 
L 40.550605 423.560706 
L 39.494074 422.221313 
L 38.960906 420.39967 
L 37.861374 419.729829 
L 36.167405 419.893754 
" style="fill:none;stroke:#999999;"/>
    <path clip-path="url(#p52feb55f58)" d="M 45.882053 405.435759 
L 45.882053 404.661733 
" style="fill:none;stroke:#999999;"/>
    <path clip-path="url(#p52feb55f58)" d="M 45.882053 405.435759 
L 47.013001 406.324647 
" style="fill:none;stroke:#999999;"/>
    <path clip-path="url(#p52feb55f58)" d="M 45.882053 405.435759 
L 45.773548 406.448456 
L 45.572358 408.328108 
L 45.778673 409.154659 
L 45.624048 409.877602 
L 42.889143 413.75148 
L 40.205929 415.300973 
L 37.006703 418.34859 
L 36.167405 419.893754 
" style="fill:none;stroke:#999999;"/>
    <path clip-path="url(#p52feb55f58)" d="M 143.075999 175.848377 
L 143.179157 175.671177 
" style="fill:none;stroke:#999999;"/>
    <path clip-path="url(#p52feb55f58)" d="M 143.075999 175.848377 
L 142.602989 177.951117 
" style="fill:none;stroke:#999999;"/>
    <path clip-path="url(#p52feb55f58)" d="M 143.075999 175.848377 
L 142.428089 174.078104 
L 141.826744 173.50379 
" style="fill:none;stroke:#999999;"/>
    <path clip-path="url(#p52feb55f58)" d="M 202.087779 278.507158 
L 200.671199 276.217983 
L 200.671199 273.820005 
L 198.818593 271.639921 
L 198.491742 268.697066 
L 197.293062 266.626072 
L 198.16489 264.555079 
L 195.767531 264.445988 
L 193.697025 264.445988 
L 192.280444 260.086107 
L 190.09408 259.293611 
L 185.293125 258.342097 
L 181.785317 257.511795 
L 178.423891 255.110931 
L 175.1527 257.30054 
L 171.367725 258.051477 
L 168.725507 258.474276 
L 167.87997 256.571536 
L 166.823216 252.66014 
L 165.554799 248.220606 
L 164.498046 243.886699 
L 162.067267 241.772704 
L 161.961435 239.024366 
L 162.489924 237.755969 
L 160.79885 236.1704 
L 160.79885 234.584832 
L 161.855827 233.210807 
L 162.384315 231.413983 
L 162.489924 226.657855 
L 162.489924 223.487006 
L 160.270585 224.649487 
L 159.213608 228.45439 
L 155.831684 230.885556 
L 152.660977 236.064773 
L 150.864295 236.698827 
L 149.8345 235.80763 
L 149.219342 231.809365 
L 150.449436 228.016584 
L 152.294466 224.018607 
L 152.294466 222.378493 
L 154.652166 214.895383 
L 158.752406 208.950223 
L 157.522312 208.745317 
L 151.679531 213.460464 
L 149.52681 216.843145 
L 147.066844 220.328279 
L 143.991719 222.9935 
L 143.684028 219.815725 
L 141.63402 218.380806 
L 141.224062 215.305484 
L 139.6865 212.025256 
L 140.096457 209.462777 
L 139.071341 207.72021 
L 138.148938 202.18515 
L 139.173831 198.90521 
L 139.6865 196.137825 
L 141.019084 195.215459 
L 142.608336 193.996124 
L 142.749816 192.628737 
L 142.325154 192.439993 
L 141.617755 191.119647 
L 141.476275 189.987758 
L 141.429041 187.016909 
L 141.910072 183.968139 
L 142.970614 181.532643 
L 143.99417 180.533221 
L 144.102898 180.315905 
L 143.99417 180.097724 
L 142.602989 177.951117 
" style="fill:none;stroke:#999999;"/>
    <path clip-path="url(#p52feb55f58)" d="M 202.087779 278.507158 
L 202.596215 278.218558 
L 205.106089 278.11091 
L 206.576365 278.254345 
L 207.38915 278.732555 
L 208.129969 279.36632 
L 208.906882 279.772669 
L 209.910832 280.274833 
L 210.819199 281.052033 
L 211.847211 281.398642 
L 212.659996 281.697632 
L 213.580172 282.313504 
L 214.488539 282.878294 
L 214.918771 283.168337 
L 216.251578 283.245971 
L 218.384915 283.395465 
" style="fill:none;stroke:#999999;"/>
    <path clip-path="url(#p52feb55f58)" d="M 103.379442 10.850836 
L 105.027961 11.694991 
" style="fill:none;stroke:#999999;"/>
    <path clip-path="url(#p52feb55f58)" d="M 103.379442 10.850836 
L 103.020953 10.313751 
L 102.911556 9.696147 
" style="fill:none;stroke:#999999;"/>
    <path clip-path="url(#p52feb55f58)" d="M 103.379442 10.850836 
L 102.59072 10.743477 
L 102.187447 10.311442 
" style="fill:none;stroke:#999999;"/>
    <path clip-path="url(#p52feb55f58)" d="M 100.906777 9.403218 
L 100.614237 9.285758 
" style="fill:none;stroke:#999999;"/>
    <path clip-path="url(#p52feb55f58)" d="M 100.906777 9.403218 
L 100.54695 10.098744 
L 101.324755 10.757618 
" style="fill:none;stroke:#999999;"/>
    <path clip-path="url(#p52feb55f58)" d="M 100.906777 9.403218 
L 101.598579 9.680851 
L 102.094761 10.212452 
" style="fill:none;stroke:#999999;"/>
    <path clip-path="url(#p52feb55f58)" d="M 109.668721 13.139723 
L 109.429653 13.677096 
L 109.451265 14.6719 
" style="fill:none;stroke:#999999;"/>
    <path clip-path="url(#p52feb55f58)" d="M 102.094761 10.212452 
L 102.187447 10.311442 
" style="fill:none;stroke:#999999;"/>
    <path clip-path="url(#p52feb55f58)" d="M 102.094761 10.212452 
L 102.339622 9.823997 
L 102.495361 9.789365 
" style="fill:none;stroke:#999999;"/>
    <path clip-path="url(#p52feb55f58)" d="M 102.094761 10.212452 
L 101.598579 9.680851 
L 100.906777 9.403218 
" style="fill:none;stroke:#999999;"/>
    <path clip-path="url(#p52feb55f58)" d="M 100.614237 9.285758 
L 100.906777 9.403218 
" style="fill:none;stroke:#999999;"/>
    <path clip-path="url(#p52feb55f58)" d="M 100.614237 9.285758 
L 101.419446 8.701631 
L 102.043071 8.581574 
" style="fill:none;stroke:#999999;"/>
    <path clip-path="url(#p52feb55f58)" d="M 102.495361 9.789365 
L 102.911556 9.696147 
" style="fill:none;stroke:#999999;"/>
    <path clip-path="url(#p52feb55f58)" d="M 102.495361 9.789365 
L 102.040843 8.976379 
L 102.043071 8.581574 
" style="fill:none;stroke:#999999;"/>
    <path clip-path="url(#p52feb55f58)" d="M 102.495361 9.789365 
L 102.339622 9.823997 
L 102.094761 10.212452 
" style="fill:none;stroke:#999999;"/>
    <path clip-path="url(#p52feb55f58)" d="M 109.451265 14.6719 
L 109.429653 13.677096 
L 109.668721 13.139723 
" style="fill:none;stroke:#999999;"/>
    <path clip-path="url(#p52feb55f58)" d="M 109.451265 14.6719 
L 109.620818 15.121828 
L 109.501396 15.874208 
L 110.481505 18.094985 
L 109.322039 18.739717 
L 108.210476 20.208403 
L 107.792275 21.247363 
L 107.816115 22.477088 
L 109.082972 24.984733 
L 111.088643 25.692958 
L 111.055223 27.767126 
L 111.581037 28.578958 
L 112.773924 29.573762 
L 112.463114 32.535087 
L 113.084511 34.875634 
L 112.608827 36.651389 
L 112.271949 39.150666 
L 110.887898 40.830895 
L 110.98348 42.431182 
L 107.206527 50.241276 
L 103.788286 54.540551 
L 102.662463 55.463494 
L 101.828066 57.406638 
L 98.983543 58.863779 
L 98.072725 59.763057 
L 94.680774 59.866953 
L 92.574842 60.861757 
L 90.686365 62.939966 
L 89.515091 69.078777 
L 87.483352 70.750637 
L 85.788491 71.212974 
L 84.351858 72.231732 
L 82.178862 72.598543 
L 80.457933 73.768816 
L 77.565507 74.533318 
L 76.896207 75.942551 
L 76.202845 76.778626 
L 76.128874 77.391324 
L 76.941436 78.251352 
L 77.778283 79.063761 
L 78.856204 81.890887 
L 76.872144 85.569671 
L 76.65714 86.787852 
L 73.16827 88.531862 
L 72.713975 91.159565 
L 71.757928 91.900401 
L 68.267945 91.804586 
L 65.494941 91.70906 
L 61.192173 93.477023 
L 59.850008 94.615262 
L 56.65056 94.719158 
L 56.220327 95.125507 
L 54.785923 97.896644 
L 54.423868 98.461723 
L 51.917559 98.80458 
L 50.841867 99.831707 
L 47.280141 100.405156 
L 45.152597 102.961575 
L 45.029387 103.932714 
L 42.331913 106.760128 
L 40.989749 107.731267 
L 41.252656 108.280762 
L 42.686838 109.26027 
L 41.973423 110.391582 
L 40.921571 109.459981 
L 39.296002 108.122032 
L 37.643028 109.141078 
L 34.061027 109.770515 
L 32.677198 109.603993 
" style="fill:none;stroke:#999999;"/>
    <path clip-path="url(#p52feb55f58)" d="M 109.451265 14.6719 
L 108.843905 14.453141 
L 108.60506 14.154729 
L 107.768212 13.748669 
L 106.334031 12.363677 
L 105.027961 11.694991 
" style="fill:none;stroke:#999999;"/>
    <path clip-path="url(#p52feb55f58)" d="M 102.911556 9.696147 
L 102.495361 9.789365 
" style="fill:none;stroke:#999999;"/>
    <path clip-path="url(#p52feb55f58)" d="M 102.911556 9.696147 
L 103.140375 9.645065 
L 103.355602 9.418225 
L 103.355602 8.773493 
L 103.463216 8.307692 
L 102.043071 8.581574 
" style="fill:none;stroke:#999999;"/>
    <path clip-path="url(#p52feb55f58)" d="M 102.911556 9.696147 
L 103.020953 10.313751 
L 103.379442 10.850836 
" style="fill:none;stroke:#999999;"/>
    <path clip-path="url(#p52feb55f58)" d="M 100.501498 11.396578 
L 101.084796 10.839003 
L 101.324755 10.757618 
" style="fill:none;stroke:#999999;"/>
    <path clip-path="url(#p52feb55f58)" d="M 101.324755 10.757618 
L 101.718225 10.623996 
L 102.187447 10.311442 
" style="fill:none;stroke:#999999;"/>
    <path clip-path="url(#p52feb55f58)" d="M 101.324755 10.757618 
L 101.084796 10.839003 
L 100.501498 11.396578 
" style="fill:none;stroke:#999999;"/>
    <path clip-path="url(#p52feb55f58)" d="M 101.324755 10.757618 
L 100.54695 10.098744 
L 100.906777 9.403218 
" style="fill:none;stroke:#999999;"/>
    <path clip-path="url(#p52feb55f58)" d="M 102.187447 10.311442 
L 102.094761 10.212452 
" style="fill:none;stroke:#999999;"/>
    <path clip-path="url(#p52feb55f58)" d="M 102.187447 10.311442 
L 101.718225 10.623996 
L 101.324755 10.757618 
" style="fill:none;stroke:#999999;"/>
    <path clip-path="url(#p52feb55f58)" d="M 102.187447 10.311442 
L 102.59072 10.743477 
L 103.379442 10.850836 
" style="fill:none;stroke:#999999;"/>
    <path clip-path="url(#p52feb55f58)" d="M 32.677198 109.603993 
L 33.95876 112.27412 
L 34.877822 114.12953 
L 35.333231 114.828519 
L 36.230235 115.955502 
L 37.484838 117.421302 
L 38.405013 118.347131 
L 40.354761 119.820145 
L 42.22675 121.094603 
L 42.905185 121.774256 
L 44.44698 123.779449 
L 44.825968 124.520574 
L 45.291849 126.640052 
L 45.591296 127.536155 
L 46.306047 128.492576 
L 47.481555 129.659674 
L 48.037225 130.506715 
L 48.594901 131.76126 
L 49.087295 132.256497 
L 49.827669 132.577132 
L 51.830221 133.038892 
L 55.210362 134.458804 
L 55.778064 134.862267 
L 56.474323 135.427923 
L 58.705025 136.418976 
L 61.832954 136.420707 
L 66.067098 137.715078 
L 67.696678 138.069479 
L 68.493867 138.273808 
L 71.403672 139.338742 
L 73.638607 139.526909 
L 77.332455 140.747976 
L 78.127193 140.841771 
L 79.514363 140.750573 
L 81.352486 140.85851 
L 82.07214 140.88737 
L 85.514889 141.573661 
L 86.172157 141.832824 
L 86.88936 142.435709 
L 88.227959 144.193283 
L 89.738116 145.782892 
L 90.964869 146.980005 
L 91.654666 147.291982 
L 95.129722 148.302659 
L 100.777105 151.140463 
L 101.488069 151.679279 
L 102.080502 152.392698 
L 102.624141 153.654458 
L 103.264922 155.328338 
L 103.820592 157.392983 
L 104.42216 158.704958 
L 104.894502 159.5621 
L 106.108777 161.158058 
L 106.835114 161.816067 
L 109.502064 162.742473 
L 110.446748 162.670323 
L 111.280031 162.344205 
L 112.240311 162.312459 
L 113.897964 162.883887 
L 116.571598 163.261953 
L 118.541175 163.031073 
L 119.708662 163.492833 
L 120.52412 164.520249 
L 123.68792 167.143623 
L 124.630376 167.663103 
L 127.453288 168.338427 
L 128.097188 168.765555 
L 129.184466 170.251845 
L 129.544961 170.454443 
L 130.062309 170.745351 
L 132.483507 171.352854 
" style="fill:none;stroke:#999999;"/>
    <path clip-path="url(#p52feb55f58)" d="M 32.677198 109.603993 
L 34.061027 109.770515 
L 37.643028 109.141078 
L 39.296002 108.122032 
L 40.921571 109.459981 
L 41.973423 110.391582 
L 42.686838 109.26027 
L 41.252656 108.280762 
L 40.989749 107.731267 
L 42.331913 106.760128 
L 45.029387 103.932714 
L 45.152597 102.961575 
L 47.280141 100.405156 
L 50.841867 99.831707 
L 51.917559 98.80458 
L 54.423868 98.461723 
L 54.785923 97.896644 
L 56.220327 95.125507 
L 56.65056 94.719158 
L 59.850008 94.615262 
L 61.192173 93.477023 
L 65.494941 91.70906 
L 68.267945 91.804586 
L 71.757928 91.900401 
L 72.713975 91.159565 
L 73.16827 88.531862 
L 76.65714 86.787852 
L 76.872144 85.569671 
L 78.856204 81.890887 
L 77.778283 79.063761 
L 76.941436 78.251352 
L 76.128874 77.391324 
L 76.202845 76.778626 
L 76.896207 75.942551 
L 77.565507 74.533318 
L 80.457933 73.768816 
L 82.178862 72.598543 
L 84.351858 72.231732 
L 85.788491 71.212974 
L 87.483352 70.750637 
L 89.515091 69.078777 
L 90.686365 62.939966 
L 92.574842 60.861757 
L 94.680774 59.866953 
L 98.072725 59.763057 
L 98.983543 58.863779 
L 101.828066 57.406638 
L 102.662463 55.463494 
L 103.788286 54.540551 
L 107.206527 50.241276 
L 110.98348 42.431182 
L 110.887898 40.830895 
L 112.271949 39.150666 
L 112.608827 36.651389 
L 113.084511 34.875634 
L 112.463114 32.535087 
L 112.773924 29.573762 
L 111.581037 28.578958 
L 111.055223 27.767126 
L 111.088643 25.692958 
L 109.082972 24.984733 
L 107.816115 22.477088 
L 107.792275 21.247363 
L 108.210476 20.208403 
L 109.322039 18.739717 
L 110.481505 18.094985 
L 109.501396 15.874208 
L 109.620818 15.121828 
L 109.451265 14.6719 
" style="fill:none;stroke:#999999;"/>
    <path clip-path="url(#p52feb55f58)" d="M 102.043071 8.581574 
L 102.040843 8.976379 
L 102.495361 9.789365 
" style="fill:none;stroke:#999999;"/>
    <path clip-path="url(#p52feb55f58)" d="M 102.043071 8.581574 
L 101.419446 8.701631 
L 100.614237 9.285758 
" style="fill:none;stroke:#999999;"/>
    <path clip-path="url(#p52feb55f58)" d="M 102.043071 8.581574 
L 103.463216 8.307692 
L 103.355602 8.773493 
L 103.355602 9.418225 
L 103.140375 9.645065 
L 102.911556 9.696147 
" style="fill:none;stroke:#999999;"/>
    <path clip-path="url(#p52feb55f58)" d="M 105.477131 10.946362 
L 105.027961 11.694991 
" style="fill:none;stroke:#999999;"/>
    <path clip-path="url(#p52feb55f58)" d="M 105.027961 11.694991 
L 105.477131 10.946362 
" style="fill:none;stroke:#999999;"/>
    <path clip-path="url(#p52feb55f58)" d="M 105.027961 11.694991 
L 103.379442 10.850836 
" style="fill:none;stroke:#999999;"/>
    <path clip-path="url(#p52feb55f58)" d="M 105.027961 11.694991 
L 106.334031 12.363677 
L 107.768212 13.748669 
L 108.60506 14.154729 
L 108.843905 14.453141 
L 109.451265 14.6719 
" style="fill:none;stroke:#999999;"/>
    <path clip-path="url(#p52feb55f58)" d="M 178.16388 122.574544 
L 178.039556 122.660547 
L 177.732979 122.880748 
L 177.677501 122.938757 
" style="fill:none;stroke:#999999;"/>
    <path clip-path="url(#p52feb55f58)" d="M 178.16388 122.574544 
L 178.307588 122.603404 
L 178.556459 122.603404 
L 178.700166 122.804269 
L 178.891554 122.880748 
L 179.23623 122.976564 
" style="fill:none;stroke:#999999;"/>
    <path clip-path="url(#p52feb55f58)" d="M 176.574627 121.608022 
L 177.277793 122.456506 
L 177.456927 122.672668 
L 177.677501 122.938757 
" style="fill:none;stroke:#999999;"/>
    <path clip-path="url(#p52feb55f58)" d="M 177.677501 122.938757 
L 177.522431 123.10095 
L 177.369142 123.464586 
L 177.464947 123.742219 
L 177.991653 124.335581 
L 178.053147 124.462565 
" style="fill:none;stroke:#999999;"/>
    <path clip-path="url(#p52feb55f58)" d="M 177.677501 122.938757 
L 177.456927 122.672668 
L 177.277793 122.456506 
L 176.574627 121.608022 
" style="fill:none;stroke:#999999;"/>
    <path clip-path="url(#p52feb55f58)" d="M 177.677501 122.938757 
L 177.732979 122.880748 
L 178.039556 122.660547 
L 178.16388 122.574544 
" style="fill:none;stroke:#999999;"/>
    <path clip-path="url(#p52feb55f58)" d="M 179.284133 124.354629 
L 179.240909 124.68421 
" style="fill:none;stroke:#999999;"/>
    <path clip-path="url(#p52feb55f58)" d="M 179.284133 124.354629 
L 179.590486 123.971656 
L 180.471449 123.655928 
L 180.96919 123.522018 
L 181.79267 123.110474 
L 182.606568 122.641499 
L 182.769437 122.554342 
" style="fill:none;stroke:#999999;"/>
    <path clip-path="url(#p52feb55f58)" d="M 179.284133 124.354629 
L 178.949037 124.459968 
L 178.230944 124.536447 
L 178.053147 124.462565 
" style="fill:none;stroke:#999999;"/>
    <path clip-path="url(#p52feb55f58)" d="M 179.284133 124.354629 
L 179.226649 123.885654 
L 179.255391 123.139045 
L 179.23623 122.976564 
" style="fill:none;stroke:#999999;"/>
    <path clip-path="url(#p52feb55f58)" d="M 179.23623 122.976564 
L 179.332035 122.890272 
" style="fill:none;stroke:#999999;"/>
    <path clip-path="url(#p52feb55f58)" d="M 179.23623 122.976564 
L 179.255391 123.139045 
L 179.226649 123.885654 
L 179.284133 124.354629 
" style="fill:none;stroke:#999999;"/>
    <path clip-path="url(#p52feb55f58)" d="M 179.23623 122.976564 
L 178.891554 122.880748 
L 178.700166 122.804269 
L 178.556459 122.603404 
L 178.307588 122.603404 
L 178.16388 122.574544 
" style="fill:none;stroke:#999999;"/>
    <path clip-path="url(#p52feb55f58)" d="M 178.053147 124.462565 
L 177.991653 124.335581 
L 177.464947 123.742219 
L 177.369142 123.464586 
L 177.522431 123.10095 
L 177.677501 122.938757 
" style="fill:none;stroke:#999999;"/>
    <path clip-path="url(#p52feb55f58)" d="M 178.053147 124.462565 
L 178.144719 124.65131 
L 178.124667 125.821005 
" style="fill:none;stroke:#999999;"/>
    <path clip-path="url(#p52feb55f58)" d="M 178.053147 124.462565 
L 178.230944 124.536447 
L 178.949037 124.459968 
L 179.284133 124.354629 
" style="fill:none;stroke:#999999;"/>
    <path clip-path="url(#p52feb55f58)" d="M 183.870306 122.296911 
L 183.189198 122.396478 
L 183.018085 122.421297 
L 182.769437 122.554342 
" style="fill:none;stroke:#999999;"/>
    <path clip-path="url(#p52feb55f58)" d="M 182.769437 122.554342 
L 180.559233 122.380605 
" style="fill:none;stroke:#999999;"/>
    <path clip-path="url(#p52feb55f58)" d="M 182.769437 122.554342 
L 183.018085 122.421297 
L 183.189198 122.396478 
L 183.870306 122.296911 
" style="fill:none;stroke:#999999;"/>
    <path clip-path="url(#p52feb55f58)" d="M 182.769437 122.554342 
L 182.606568 122.641499 
L 181.79267 123.110474 
L 180.96919 123.522018 
L 180.471449 123.655928 
L 179.590486 123.971656 
L 179.284133 124.354629 
" style="fill:none;stroke:#999999;"/>
    <path clip-path="url(#p52feb55f58)" d="M 179.332035 122.890272 
L 179.23623 122.976564 
" style="fill:none;stroke:#999999;"/>
    <path clip-path="url(#p52feb55f58)" d="M 179.332035 122.890272 
L 179.533003 122.679883 
L 179.810838 122.411773 
L 179.904416 122.40629 
" style="fill:none;stroke:#999999;"/>
    <path clip-path="url(#p52feb55f58)" d="M 179.332035 122.890272 
L 179.906421 122.794746 
L 179.904416 122.40629 
" style="fill:none;stroke:#999999;"/>
    <path clip-path="url(#p52feb55f58)" d="M 179.904416 122.40629 
L 179.810838 122.411773 
L 179.533003 122.679883 
L 179.332035 122.890272 
" style="fill:none;stroke:#999999;"/>
    <path clip-path="url(#p52feb55f58)" d="M 179.904416 122.40629 
L 179.906421 122.794746 
L 179.332035 122.890272 
" style="fill:none;stroke:#999999;"/>
    <path clip-path="url(#p52feb55f58)" d="M 179.904416 122.40629 
L 180.471449 122.373678 
L 180.559233 122.380605 
" style="fill:none;stroke:#999999;"/>
    <path clip-path="url(#p52feb55f58)" d="M 179.904416 122.40629 
L 179.963904 122.163 
L 180.037875 122.018412 
" style="fill:none;stroke:#999999;"/>
    <path clip-path="url(#p52feb55f58)" d="M 180.037875 122.018412 
L 180.559233 122.380605 
" style="fill:none;stroke:#999999;"/>
    <path clip-path="url(#p52feb55f58)" d="M 180.037875 122.018412 
L 180.164427 121.770504 
L 180.425106 121.308167 
L 180.601566 121.143665 
" style="fill:none;stroke:#999999;"/>
    <path clip-path="url(#p52feb55f58)" d="M 180.037875 122.018412 
L 179.963904 122.163 
L 179.904416 122.40629 
" style="fill:none;stroke:#999999;"/>
    <path clip-path="url(#p52feb55f58)" d="M 180.559233 122.380605 
L 182.769437 122.554342 
" style="fill:none;stroke:#999999;"/>
    <path clip-path="url(#p52feb55f58)" d="M 180.559233 122.380605 
L 180.037875 122.018412 
" style="fill:none;stroke:#999999;"/>
    <path clip-path="url(#p52feb55f58)" d="M 180.559233 122.380605 
L 180.471449 122.373678 
L 179.904416 122.40629 
" style="fill:none;stroke:#999999;"/>
    <path clip-path="url(#p52feb55f58)" d="M 142.602989 177.951117 
L 143.075999 175.848377 
" style="fill:none;stroke:#999999;"/>
    <path clip-path="url(#p52feb55f58)" d="M 142.602989 177.951117 
L 142.292847 178.638273 
L 141.984934 178.934089 
L 141.256814 181.029902 
L 140.021373 182.857317 
L 138.882405 183.945917 
L 137.509271 188.048366 
L 137.174175 188.517341 
L 133.439554 190.627296 
L 132.887003 191.112721 
L 130.793548 195.181981 
L 130.073226 195.918777 
L 129.403481 196.387752 
L 128.314866 198.748789 
L 128.147319 199.469135 
L 127.795736 200.239408 
L 128.030124 200.89251 
L 128.046835 202.399579 
L 129.118739 203.504918 
L 129.420191 204.040848 
L 129.436902 204.576778 
L 129.16887 206.854409 
L 130.224064 210.119919 
L 130.324548 212.213423 
L 130.039806 213.904908 
L 129.336417 215.177634 
L 128.331577 215.864214 
L 127.829156 216.768686 
L 126.857736 217.756853 
L 126.305185 218.577343 
L 124.563312 223.417742 
L 123.324083 224.891623 
L 121.783402 227.08556 
L 120.56066 229.966365 
L 119.522398 231.976176 
L 119.572529 233.483534 
L 120.091883 235.074874 
L 119.539109 237.821769 
L 118.634752 238.676026 
L 118.685105 239.161739 
L 119.053399 239.362605 
L 119.80714 239.613976 
L 120.091883 240.2336 
L 119.873981 240.719314 
L 118.735236 241.70748 
L 118.618042 242.059284 
L 118.751946 242.478042 
L 119.505688 243.44947 
L 119.555819 243.96895 
L 118.986558 245.124505 
L 118.567688 245.409353 
L 118.115621 246.548457 
L 116.859459 247.251775 
L 114.062615 247.352497 
L 113.928711 247.653795 
L 114.163099 248.156248 
L 115.553166 250.38424 
L 115.60352 251.389145 
L 113.89529 253.533444 
L 113.275453 253.98568 
L 113.141548 254.588565 
L 112.806676 254.940369 
L 112.43816 255.107757 
L 110.461899 254.555088 
L 110.160446 254.638782 
L 110.093606 254.990585 
L 110.478609 256.2636 
L 110.19409 257.151622 
L 110.311284 257.503425 
L 110.947609 258.223483 
L 111.048093 258.642241 
L 111.031383 259.061288 
L 110.160446 260.38452 
L 109.524122 260.451475 
L 109.004991 260.317564 
L 108.653185 260.417997 
L 107.748829 261.054649 
L 107.447376 261.021171 
L 106.157794 260.417997 
L 105.504759 260.367781 
L 105.353921 260.719584 
L 105.982002 261.749886 
L 106.115907 262.662728 
L 105.881518 263.282641 
L 105.873052 263.793463 
L 106.291921 264.664458 
L 106.216391 265.133433 
L 105.546646 266.281195 
L 104.918564 267.889275 
L 104.524872 268.081771 
L 102.858529 268.701684 
L 101.836978 268.701684 
L 101.552236 268.886099 
L 101.384911 269.388552 
L 100.949332 270.242808 
L 100.396781 270.99692 
L 98.236262 271.851176 
L 98.068714 272.102546 
L 98.085647 272.571521 
L 100.832138 277.982483 
L 101.1503 278.970938 
L 101.083459 280.864155 
L 101.887332 283.929953 
L 102.004526 284.851453 
L 101.376445 287.171797 
L 100.848848 287.967467 
L 100.882491 288.260685 
L 102.565544 290.815661 
L 103.260466 293.152744 
L 103.026077 294.208443 
L 102.372819 295.665873 
L 102.322689 296.461832 
L 102.063123 297.274529 
L 102.431639 298.17929 
L 102.272335 299.192854 
L 102.892173 300.524743 
L 102.523657 302.225463 
L 102.624141 302.602374 
L 102.992657 302.937439 
L 104.273773 303.725029 
L 104.70913 304.177265 
L 104.767727 304.50396 
L 104.72584 304.914638 
L 102.959013 308.416511 
L 102.456593 309.136856 
L 102.406462 309.48866 
L 102.439883 310.510881 
L 102.222205 311.532814 
L 102.372819 311.926753 
L 103.101384 313.174948 
L 103.871837 315.344931 
L 103.687579 315.856042 
L 102.783222 315.88952 
L 99.927781 316.995435 
L 99.458781 316.970327 
L 98.42052 316.735695 
L 98.093891 316.844497 
L 97.993407 317.221697 
L 98.294859 318.126458 
L 98.278149 318.511739 
L 97.46581 319.500483 
L 96.645227 319.961089 
L 95.414241 320.019963 
L 95.305514 320.313181 
L 95.489771 321.594854 
L 95.171386 322.206686 
L 93.195348 323.58071 
L 92.826832 323.815054 
L 92.207217 323.756468 
L 90.825394 323.144924 
L 90.557585 323.270465 
L 89.586165 324.426886 
L 89.418617 324.845644 
L 89.318133 325.624864 
L 88.757116 326.228038 
L 88.028773 328.415049 
L 87.258321 330.149247 
L 85.692463 332.101626 
L 85.742593 332.344627 
L 86.328788 332.805233 
L 86.496335 333.257758 
L 85.617378 335.088925 
L 84.006737 336.060641 
L 80.667368 337.529904 
L 79.885775 338.16973 
L 76.664492 338.6439 
L 76.427653 338.975502 
L 73.372358 342.577807 
L 72.519691 343.241587 
L 71.785556 344.687185 
L 70.956507 345.682566 
L 70.057943 347.35356 
L 68.911399 348.589346 
L 67.323706 349.207238 
L 65.648006 349.207238 
L 61.14984 354.50276 
L 59.385687 360.23984 
L 59.209005 361.941426 
L 60.267764 365.359316 
L 61.14984 367.47764 
L 60.510396 375.419624 
L 60.236126 376.326983 
L 58.365696 378.094947 
L 54.446594 385.220481 
L 52.329745 387.780363 
L 48.801662 389.281084 
L 46.707538 392.058859 
L 45.211194 399.341103 
L 45.159504 401.148894 
L 45.882053 403.411518 
L 45.882053 403.411518 
" style="fill:none;stroke:#999999;"/>
    <path clip-path="url(#p52feb55f58)" d="M 142.602989 177.951117 
L 143.99417 180.097724 
L 144.102898 180.315905 
L 143.99417 180.533221 
L 142.970614 181.532643 
L 141.910072 183.968139 
L 141.429041 187.016909 
L 141.476275 189.987758 
L 141.617755 191.119647 
L 142.325154 192.439993 
L 142.749816 192.628737 
L 142.608336 193.996124 
L 141.019084 195.215459 
L 139.6865 196.137825 
L 139.173831 198.90521 
L 138.148938 202.18515 
L 139.071341 207.72021 
L 140.096457 209.462777 
L 139.6865 212.025256 
L 141.224062 215.305484 
L 141.63402 218.380806 
L 143.684028 219.815725 
L 143.991719 222.9935 
L 147.066844 220.328279 
L 149.52681 216.843145 
L 151.679531 213.460464 
L 157.522312 208.745317 
L 158.752406 208.950223 
L 154.652166 214.895383 
L 152.294466 222.378493 
L 152.294466 224.018607 
L 150.449436 228.016584 
L 149.219342 231.809365 
L 149.8345 235.80763 
L 150.864295 236.698827 
L 152.660977 236.064773 
L 155.831684 230.885556 
L 159.213608 228.45439 
L 160.270585 224.649487 
L 162.489924 223.487006 
L 162.489924 226.657855 
L 162.384315 231.413983 
L 161.855827 233.210807 
L 160.79885 234.584832 
L 160.79885 236.1704 
L 162.489924 237.755969 
L 161.961435 239.024366 
L 162.067267 241.772704 
L 164.498046 243.886699 
L 165.554799 248.220606 
L 166.823216 252.66014 
L 167.87997 256.571536 
L 168.725507 258.474276 
L 171.367725 258.051477 
L 175.1527 257.30054 
L 178.423891 255.110931 
L 181.785317 257.511795 
L 185.293125 258.342097 
L 190.09408 259.293611 
L 192.280444 260.086107 
L 193.697025 264.445988 
L 195.767531 264.445988 
L 198.16489 264.555079 
L 197.293062 266.626072 
L 198.491742 268.697066 
L 198.818593 271.639921 
L 200.671199 273.820005 
L 200.671199 276.217983 
L 202.087779 278.507158 
" style="fill:none;stroke:#999999;"/>
    <path clip-path="url(#p52feb55f58)" d="M 145.928321 169.230778 
L 145.953498 169.992682 
L 146.027246 171.061946 
L 146.104113 171.597299 
L 145.968203 171.905523 
L 145.520815 172.871756 
L 144.707585 172.956605 
L 144.162609 172.905234 
" style="fill:none;stroke:#999999;"/>
    <path clip-path="url(#p52feb55f58)" d="M 145.928321 169.230778 
L 146.024795 168.905238 
L 146.015214 168.567576 
L 146.010535 168.401919 
" style="fill:none;stroke:#999999;"/>
    <path clip-path="url(#p52feb55f58)" d="M 145.928321 169.230778 
L 145.591666 169.634241 
L 145.442165 169.738137 
L 145.247436 169.764111 
" style="fill:none;stroke:#999999;"/>
    <path clip-path="url(#p52feb55f58)" d="M 146.613886 168.020101 
L 146.010535 168.401919 
" style="fill:none;stroke:#999999;"/>
    <path clip-path="url(#p52feb55f58)" d="M 146.613886 168.020101 
L 147.225702 168.4986 
" style="fill:none;stroke:#999999;"/>
    <path clip-path="url(#p52feb55f58)" d="M 146.613886 168.020101 
L 146.570662 167.841746 
L 146.440322 167.569308 
L 146.878575 166.693407 
L 148.062772 165.615774 
L 148.946408 165.01058 
L 149.044442 164.943336 
" style="fill:none;stroke:#999999;"/>
    <path clip-path="url(#p52feb55f58)" d="M 143.906386 172.142753 
L 143.254464 171.684744 
" style="fill:none;stroke:#999999;"/>
    <path clip-path="url(#p52feb55f58)" d="M 143.906386 172.142753 
L 144.117825 171.437991 
" style="fill:none;stroke:#999999;"/>
    <path clip-path="url(#p52feb55f58)" d="M 143.906386 172.142753 
L 144.135427 172.424715 
L 144.162609 172.905234 
" style="fill:none;stroke:#999999;"/>
    <path clip-path="url(#p52feb55f58)" d="M 143.254464 171.684744 
L 143.106746 171.425004 
" style="fill:none;stroke:#999999;"/>
    <path clip-path="url(#p52feb55f58)" d="M 143.254464 171.684744 
L 143.906386 172.142753 
" style="fill:none;stroke:#999999;"/>
    <path clip-path="url(#p52feb55f58)" d="M 143.254464 171.684744 
L 142.913353 172.67926 
" style="fill:none;stroke:#999999;"/>
    <path clip-path="url(#p52feb55f58)" d="M 140.893423 166.66397 
L 140.281829 166.893118 
" style="fill:none;stroke:#999999;"/>
    <path clip-path="url(#p52feb55f58)" d="M 140.893423 166.66397 
L 141.474715 167.897158 
L 141.705762 168.241169 
" style="fill:none;stroke:#999999;"/>
    <path clip-path="url(#p52feb55f58)" d="M 140.893423 166.66397 
L 141.822288 166.807693 
L 142.239598 166.636553 
" style="fill:none;stroke:#999999;"/>
    <path clip-path="url(#p52feb55f58)" d="M 144.117825 171.437991 
L 144.117825 170.783735 
" style="fill:none;stroke:#999999;"/>
    <path clip-path="url(#p52feb55f58)" d="M 144.117825 171.437991 
L 143.906386 172.142753 
" style="fill:none;stroke:#999999;"/>
    <path clip-path="url(#p52feb55f58)" d="M 144.117825 171.437991 
L 144.57212 171.302927 
L 145.007032 171.114759 
L 144.96158 170.991239 
L 144.740782 170.926304 
L 144.507062 170.569305 
" style="fill:none;stroke:#999999;"/>
    <path clip-path="url(#p52feb55f58)" d="M 141.89715 168.101775 
L 141.705762 168.241169 
" style="fill:none;stroke:#999999;"/>
    <path clip-path="url(#p52feb55f58)" d="M 141.89715 168.101775 
L 142.400016 168.647229 
L 142.859881 168.914473 
L 143.395499 169.482726 
L 144.117825 170.592393 
L 144.117825 170.783735 
" style="fill:none;stroke:#999999;"/>
    <path clip-path="url(#p52feb55f58)" d="M 141.89715 168.101775 
L 142.442794 167.374503 
L 142.678074 166.946509 
" style="fill:none;stroke:#999999;"/>
    <path clip-path="url(#p52feb55f58)" d="M 141.705762 168.241169 
L 141.89715 168.101775 
" style="fill:none;stroke:#999999;"/>
    <path clip-path="url(#p52feb55f58)" d="M 141.705762 168.241169 
L 140.98143 168.724863 
" style="fill:none;stroke:#999999;"/>
    <path clip-path="url(#p52feb55f58)" d="M 141.705762 168.241169 
L 141.474715 167.897158 
L 140.893423 166.66397 
" style="fill:none;stroke:#999999;"/>
    <path clip-path="url(#p52feb55f58)" d="M 141.705762 168.241169 
L 142.214866 169.006825 
L 142.831585 169.958339 
L 142.821336 170.508411 
" style="fill:none;stroke:#999999;"/>
    <path clip-path="url(#p52feb55f58)" d="M 143.179157 175.671177 
L 143.075999 175.848377 
" style="fill:none;stroke:#999999;"/>
    <path clip-path="url(#p52feb55f58)" d="M 143.179157 175.671177 
L 142.731546 174.347657 
L 142.560434 173.910716 
" style="fill:none;stroke:#999999;"/>
    <path clip-path="url(#p52feb55f58)" d="M 143.179157 175.671177 
L 143.853581 174.591524 
L 143.83598 174.168725 
L 144.012217 173.217499 
L 144.162609 172.905234 
" style="fill:none;stroke:#999999;"/>
    <path clip-path="url(#p52feb55f58)" d="M 139.308404 171.973344 
L 140.046549 172.294268 
L 140.602888 172.593546 
L 140.803633 172.73294 
" style="fill:none;stroke:#999999;"/>
    <path clip-path="url(#p52feb55f58)" d="M 139.308404 171.973344 
L 139.083818 171.684456 
L 138.976873 171.117645 
" style="fill:none;stroke:#999999;"/>
    <path clip-path="url(#p52feb55f58)" d="M 139.308404 171.973344 
L 138.837621 171.909275 
L 138.548869 171.876952 
L 137.832112 171.59903 
L 136.837297 171.106967 
L 136.420211 170.925149 
L 135.574897 170.829045 
" style="fill:none;stroke:#999999;"/>
    <path clip-path="url(#p52feb55f58)" d="M 135.574897 170.829045 
L 134.410306 171.007977 
" style="fill:none;stroke:#999999;"/>
    <path clip-path="url(#p52feb55f58)" d="M 135.574897 170.829045 
L 136.997715 170.647227 
L 137.671694 170.326304 
" style="fill:none;stroke:#999999;"/>
    <path clip-path="url(#p52feb55f58)" d="M 135.574897 170.829045 
L 136.420211 170.925149 
L 136.837297 171.106967 
L 137.832112 171.59903 
L 138.548869 171.876952 
L 138.837621 171.909275 
L 139.308404 171.973344 
" style="fill:none;stroke:#999999;"/>
    <path clip-path="url(#p52feb55f58)" d="M 133.063463 171.248381 
L 132.483507 171.352854 
" style="fill:none;stroke:#999999;"/>
    <path clip-path="url(#p52feb55f58)" d="M 133.063463 171.248381 
L 132.379013 169.291384 
" style="fill:none;stroke:#999999;"/>
    <path clip-path="url(#p52feb55f58)" d="M 133.063463 171.248381 
L 134.323413 171.021542 
L 134.410306 171.007977 
" style="fill:none;stroke:#999999;"/>
    <path clip-path="url(#p52feb55f58)" d="M 132.804343 168.850404 
L 133.031825 168.975367 
L 133.563878 169.267431 
L 133.820547 169.898599 
L 134.216468 170.443764 
L 134.410306 171.007977 
" style="fill:none;stroke:#999999;"/>
    <path clip-path="url(#p52feb55f58)" d="M 134.410306 171.007977 
L 135.574897 170.829045 
" style="fill:none;stroke:#999999;"/>
    <path clip-path="url(#p52feb55f58)" d="M 134.410306 171.007977 
L 134.216468 170.443764 
L 133.820547 169.898599 
L 133.563878 169.267431 
L 133.031825 168.975367 
L 132.804343 168.850404 
" style="fill:none;stroke:#999999;"/>
    <path clip-path="url(#p52feb55f58)" d="M 134.410306 171.007977 
L 134.323413 171.021542 
L 133.063463 171.248381 
" style="fill:none;stroke:#999999;"/>
    <path clip-path="url(#p52feb55f58)" d="M 130.333237 171.855596 
L 131.18323 171.701195 
" style="fill:none;stroke:#999999;"/>
    <path clip-path="url(#p52feb55f58)" d="M 131.18323 171.701195 
L 130.333237 171.855596 
" style="fill:none;stroke:#999999;"/>
    <path clip-path="url(#p52feb55f58)" d="M 131.18323 171.701195 
L 132.215921 171.513316 
L 132.483507 171.352854 
" style="fill:none;stroke:#999999;"/>
    <path clip-path="url(#p52feb55f58)" d="M 131.18323 171.701195 
L 130.450877 171.459925 
L 129.706047 171.116202 
" style="fill:none;stroke:#999999;"/>
    <path clip-path="url(#p52feb55f58)" d="M 132.483507 171.352854 
L 133.063463 171.248381 
" style="fill:none;stroke:#999999;"/>
    <path clip-path="url(#p52feb55f58)" d="M 132.483507 171.352854 
L 132.215921 171.513316 
L 131.18323 171.701195 
" style="fill:none;stroke:#999999;"/>
    <path clip-path="url(#p52feb55f58)" d="M 132.483507 171.352854 
L 130.062309 170.745351 
L 129.544961 170.454443 
L 129.184466 170.251845 
L 128.097188 168.765555 
L 127.453288 168.338427 
L 124.630376 167.663103 
L 123.68792 167.143623 
L 120.52412 164.520249 
L 119.708662 163.492833 
L 118.541175 163.031073 
L 116.571598 163.261953 
L 113.897964 162.883887 
L 112.240311 162.312459 
L 111.280031 162.344205 
L 110.446748 162.670323 
L 109.502064 162.742473 
L 106.835114 161.816067 
L 106.108777 161.158058 
L 104.894502 159.5621 
L 104.42216 158.704958 
L 103.820592 157.392983 
L 103.264922 155.328338 
L 102.624141 153.654458 
L 102.080502 152.392698 
L 101.488069 151.679279 
L 100.777105 151.140463 
L 95.129722 148.302659 
L 91.654666 147.291982 
L 90.964869 146.980005 
L 89.738116 145.782892 
L 88.227959 144.193283 
L 86.88936 142.435709 
L 86.172157 141.832824 
L 85.514889 141.573661 
L 82.07214 140.88737 
L 81.352486 140.85851 
L 79.514363 140.750573 
L 78.127193 140.841771 
L 77.332455 140.747976 
L 73.638607 139.526909 
L 71.403672 139.338742 
L 68.493867 138.273808 
L 67.696678 138.069479 
L 66.067098 137.715078 
L 61.832954 136.420707 
L 58.705025 136.418976 
L 56.474323 135.427923 
L 55.778064 134.862267 
L 55.210362 134.458804 
L 51.830221 133.038892 
L 49.827669 132.577132 
L 49.087295 132.256497 
L 48.594901 131.76126 
L 48.037225 130.506715 
L 47.481555 129.659674 
L 46.306047 128.492576 
L 45.591296 127.536155 
L 45.291849 126.640052 
L 44.825968 124.520574 
L 44.44698 123.779449 
L 42.905185 121.774256 
L 42.22675 121.094603 
L 40.354761 119.820145 
L 38.405013 118.347131 
L 37.484838 117.421302 
L 36.230235 115.955502 
L 35.333231 114.828519 
L 34.877822 114.12953 
L 33.95876 112.27412 
L 32.677198 109.603993 
" style="fill:none;stroke:#999999;"/>
    <path clip-path="url(#p52feb55f58)" d="M 132.483507 171.352854 
L 133.269779 171.439434 
L 133.882932 171.417212 
L 134.472468 171.234528 
L 135.811513 171.066275 
L 136.71431 171.214615 
L 137.732742 171.738135 
L 138.338097 172.03193 
L 139.243122 172.154874 
L 139.904624 172.418943 
L 140.480569 172.768438 
L 141.826744 173.50379 
" style="fill:none;stroke:#999999;"/>
    <path clip-path="url(#p52feb55f58)" d="M 137.671694 170.326304 
L 138.534387 170.849536 
" style="fill:none;stroke:#999999;"/>
    <path clip-path="url(#p52feb55f58)" d="M 137.671694 170.326304 
L 138.013919 169.930633 
L 138.634425 169.0429 
L 139.113228 168.741024 
" style="fill:none;stroke:#999999;"/>
    <path clip-path="url(#p52feb55f58)" d="M 137.671694 170.326304 
L 136.997715 170.647227 
L 135.574897 170.829045 
" style="fill:none;stroke:#999999;"/>
    <path clip-path="url(#p52feb55f58)" d="M 140.281829 166.893118 
L 140.893423 166.66397 
" style="fill:none;stroke:#999999;"/>
    <path clip-path="url(#p52feb55f58)" d="M 140.281829 166.893118 
L 140.26044 167.502641 
L 140.078633 168.058774 
L 139.73418 168.309856 
" style="fill:none;stroke:#999999;"/>
    <path clip-path="url(#p52feb55f58)" d="M 140.281829 166.893118 
L 140.014466 166.508126 
L 139.639934 166.219526 
L 139.147986 165.898603 
L 137.980053 165.486193 
L 137.104661 164.978834 
L 135.895955 164.144492 
" style="fill:none;stroke:#999999;"/>
    <path clip-path="url(#p52feb55f58)" d="M 140.281829 166.893118 
L 140.388775 167.385181 
L 140.98143 168.724863 
" style="fill:none;stroke:#999999;"/>
    <path clip-path="url(#p52feb55f58)" d="M 137.810723 166.347664 
L 138.826927 167.182007 
L 139.642608 168.376522 
" style="fill:none;stroke:#999999;"/>
    <path clip-path="url(#p52feb55f58)" d="M 139.642608 168.376522 
L 139.73418 168.309856 
" style="fill:none;stroke:#999999;"/>
    <path clip-path="url(#p52feb55f58)" d="M 139.642608 168.376522 
L 139.329793 168.604228 
L 139.113228 168.741024 
" style="fill:none;stroke:#999999;"/>
    <path clip-path="url(#p52feb55f58)" d="M 139.642608 168.376522 
L 138.826927 167.182007 
L 137.810723 166.347664 
" style="fill:none;stroke:#999999;"/>
    <path clip-path="url(#p52feb55f58)" d="M 137.660999 166.850405 
L 138.693691 168.194704 
" style="fill:none;stroke:#999999;"/>
    <path clip-path="url(#p52feb55f58)" d="M 139.113228 168.741024 
L 138.693691 168.194704 
" style="fill:none;stroke:#999999;"/>
    <path clip-path="url(#p52feb55f58)" d="M 139.113228 168.741024 
L 139.329793 168.604228 
L 139.642608 168.376522 
" style="fill:none;stroke:#999999;"/>
    <path clip-path="url(#p52feb55f58)" d="M 139.113228 168.741024 
L 138.634425 169.0429 
L 138.013919 169.930633 
L 137.671694 170.326304 
" style="fill:none;stroke:#999999;"/>
    <path clip-path="url(#p52feb55f58)" d="M 135.895955 164.144492 
L 137.104661 164.978834 
L 137.980053 165.486193 
L 139.147986 165.898603 
L 139.639934 166.219526 
L 140.014466 166.508126 
L 140.281829 166.893118 
" style="fill:none;stroke:#999999;"/>
    <path clip-path="url(#p52feb55f58)" d="M 142.239598 166.636553 
L 141.822288 166.807693 
L 140.893423 166.66397 
" style="fill:none;stroke:#999999;"/>
    <path clip-path="url(#p52feb55f58)" d="M 141.726037 171.823561 
L 141.767256 171.547082 
" style="fill:none;stroke:#999999;"/>
    <path clip-path="url(#p52feb55f58)" d="M 141.726037 171.823561 
L 141.073448 171.705812 
" style="fill:none;stroke:#999999;"/>
    <path clip-path="url(#p52feb55f58)" d="M 141.726037 171.823561 
L 141.726037 172.272911 
L 141.833428 172.469448 
" style="fill:none;stroke:#999999;"/>
    <path clip-path="url(#p52feb55f58)" d="M 142.11104 172.50812 
L 142.110372 172.786042 
" style="fill:none;stroke:#999999;"/>
    <path clip-path="url(#p52feb55f58)" d="M 142.11104 172.50812 
L 141.833428 172.469448 
" style="fill:none;stroke:#999999;"/>
    <path clip-path="url(#p52feb55f58)" d="M 142.11104 172.50812 
L 142.305547 172.309564 
L 142.337854 172.140732 
L 143.106746 171.425004 
" style="fill:none;stroke:#999999;"/>
    <path clip-path="url(#p52feb55f58)" d="M 142.109035 173.377672 
L 142.110372 172.786042 
" style="fill:none;stroke:#999999;"/>
    <path clip-path="url(#p52feb55f58)" d="M 142.109035 173.377672 
L 141.961317 173.278105 
L 141.372895 173.128322 
L 140.803633 172.73294 
" style="fill:none;stroke:#999999;"/>
    <path clip-path="url(#p52feb55f58)" d="M 142.109035 173.377672 
L 142.453488 173.609707 
L 142.560434 173.910716 
" style="fill:none;stroke:#999999;"/>
    <path clip-path="url(#p52feb55f58)" d="M 142.110372 172.786042 
L 142.109035 173.377672 
" style="fill:none;stroke:#999999;"/>
    <path clip-path="url(#p52feb55f58)" d="M 142.110372 172.786042 
L 142.11104 172.50812 
" style="fill:none;stroke:#999999;"/>
    <path clip-path="url(#p52feb55f58)" d="M 142.110372 172.786042 
L 142.913353 172.67926 
" style="fill:none;stroke:#999999;"/>
    <path clip-path="url(#p52feb55f58)" d="M 142.913353 172.67926 
L 143.66509 173.140732 
" style="fill:none;stroke:#999999;"/>
    <path clip-path="url(#p52feb55f58)" d="M 142.913353 172.67926 
L 142.110372 172.786042 
" style="fill:none;stroke:#999999;"/>
    <path clip-path="url(#p52feb55f58)" d="M 142.913353 172.67926 
L 143.254464 171.684744 
" style="fill:none;stroke:#999999;"/>
    <path clip-path="url(#p52feb55f58)" d="M 143.66509 173.140732 
L 142.913353 172.67926 
" style="fill:none;stroke:#999999;"/>
    <path clip-path="url(#p52feb55f58)" d="M 143.66509 173.140732 
L 142.791035 173.912448 
L 142.560434 173.910716 
" style="fill:none;stroke:#999999;"/>
    <path clip-path="url(#p52feb55f58)" d="M 143.66509 173.140732 
L 143.826622 172.998163 
L 144.162609 172.905234 
" style="fill:none;stroke:#999999;"/>
    <path clip-path="url(#p52feb55f58)" d="M 138.976873 171.117645 
L 140.271135 171.374499 
" style="fill:none;stroke:#999999;"/>
    <path clip-path="url(#p52feb55f58)" d="M 138.976873 171.117645 
L 138.534387 170.849536 
" style="fill:none;stroke:#999999;"/>
    <path clip-path="url(#p52feb55f58)" d="M 138.976873 171.117645 
L 139.083818 171.684456 
L 139.308404 171.973344 
" style="fill:none;stroke:#999999;"/>
    <path clip-path="url(#p52feb55f58)" d="M 140.271135 171.374499 
L 141.073448 171.705812 
" style="fill:none;stroke:#999999;"/>
    <path clip-path="url(#p52feb55f58)" d="M 140.271135 171.374499 
L 138.976873 171.117645 
" style="fill:none;stroke:#999999;"/>
    <path clip-path="url(#p52feb55f58)" d="M 140.271135 171.374499 
L 140.26044 171.106967 
L 139.800575 170.369017 
L 139.702542 169.577098 
" style="fill:none;stroke:#999999;"/>
    <path clip-path="url(#p52feb55f58)" d="M 141.073448 171.705812 
L 141.726037 171.823561 
" style="fill:none;stroke:#999999;"/>
    <path clip-path="url(#p52feb55f58)" d="M 141.073448 171.705812 
L 140.271135 171.374499 
" style="fill:none;stroke:#999999;"/>
    <path clip-path="url(#p52feb55f58)" d="M 141.073448 171.705812 
L 140.948232 172.614614 
" style="fill:none;stroke:#999999;"/>
    <path clip-path="url(#p52feb55f58)" d="M 138.534387 170.849536 
L 138.976873 171.117645 
" style="fill:none;stroke:#999999;"/>
    <path clip-path="url(#p52feb55f58)" d="M 138.534387 170.849536 
L 137.671694 170.326304 
" style="fill:none;stroke:#999999;"/>
    <path clip-path="url(#p52feb55f58)" d="M 138.534387 170.849536 
L 138.955484 170.229912 
L 139.702542 169.577098 
" style="fill:none;stroke:#999999;"/>
    <path clip-path="url(#p52feb55f58)" d="M 140.163744 169.189797 
L 140.98143 168.724863 
" style="fill:none;stroke:#999999;"/>
    <path clip-path="url(#p52feb55f58)" d="M 140.163744 169.189797 
L 139.702542 169.577098 
" style="fill:none;stroke:#999999;"/>
    <path clip-path="url(#p52feb55f58)" d="M 140.163744 169.189797 
L 140.463636 169.78085 
" style="fill:none;stroke:#999999;"/>
    <path clip-path="url(#p52feb55f58)" d="M 140.163744 169.189797 
L 139.73418 168.309856 
" style="fill:none;stroke:#999999;"/>
    <path clip-path="url(#p52feb55f58)" d="M 140.98143 168.724863 
L 141.705762 168.241169 
" style="fill:none;stroke:#999999;"/>
    <path clip-path="url(#p52feb55f58)" d="M 140.98143 168.724863 
L 140.163744 169.189797 
" style="fill:none;stroke:#999999;"/>
    <path clip-path="url(#p52feb55f58)" d="M 140.98143 168.724863 
L 141.822288 170.625582 
L 141.843454 170.836549 
" style="fill:none;stroke:#999999;"/>
    <path clip-path="url(#p52feb55f58)" d="M 140.98143 168.724863 
L 140.388775 167.385181 
L 140.281829 166.893118 
" style="fill:none;stroke:#999999;"/>
    <path clip-path="url(#p52feb55f58)" d="M 142.678074 166.946509 
L 142.442794 167.374503 
L 141.89715 168.101775 
" style="fill:none;stroke:#999999;"/>
    <path clip-path="url(#p52feb55f58)" d="M 139.73418 168.309856 
L 139.642608 168.376522 
" style="fill:none;stroke:#999999;"/>
    <path clip-path="url(#p52feb55f58)" d="M 139.73418 168.309856 
L 140.163744 169.189797 
" style="fill:none;stroke:#999999;"/>
    <path clip-path="url(#p52feb55f58)" d="M 139.73418 168.309856 
L 140.078633 168.058774 
L 140.26044 167.502641 
L 140.281829 166.893118 
" style="fill:none;stroke:#999999;"/>
    <path clip-path="url(#p52feb55f58)" d="M 140.463636 169.78085 
L 140.163744 169.189797 
" style="fill:none;stroke:#999999;"/>
    <path clip-path="url(#p52feb55f58)" d="M 139.702542 169.577098 
L 140.163744 169.189797 
" style="fill:none;stroke:#999999;"/>
    <path clip-path="url(#p52feb55f58)" d="M 139.702542 169.577098 
L 138.955484 170.229912 
L 138.534387 170.849536 
" style="fill:none;stroke:#999999;"/>
    <path clip-path="url(#p52feb55f58)" d="M 139.702542 169.577098 
L 139.800575 170.369017 
L 140.26044 171.106967 
L 140.271135 171.374499 
" style="fill:none;stroke:#999999;"/>
    <path clip-path="url(#p52feb55f58)" d="M 140.948232 172.614614 
L 140.803633 172.73294 
" style="fill:none;stroke:#999999;"/>
    <path clip-path="url(#p52feb55f58)" d="M 140.948232 172.614614 
L 141.073448 171.705812 
" style="fill:none;stroke:#999999;"/>
    <path clip-path="url(#p52feb55f58)" d="M 140.948232 172.614614 
L 141.623548 172.653575 
L 141.77951 172.556317 
L 141.833428 172.469448 
" style="fill:none;stroke:#999999;"/>
    <path clip-path="url(#p52feb55f58)" d="M 140.803633 172.73294 
L 140.948232 172.614614 
" style="fill:none;stroke:#999999;"/>
    <path clip-path="url(#p52feb55f58)" d="M 140.803633 172.73294 
L 140.602888 172.593546 
L 140.046549 172.294268 
L 139.308404 171.973344 
" style="fill:none;stroke:#999999;"/>
    <path clip-path="url(#p52feb55f58)" d="M 140.803633 172.73294 
L 141.372895 173.128322 
L 141.961317 173.278105 
L 142.109035 173.377672 
" style="fill:none;stroke:#999999;"/>
    <path clip-path="url(#p52feb55f58)" d="M 141.833428 172.469448 
L 142.11104 172.50812 
" style="fill:none;stroke:#999999;"/>
    <path clip-path="url(#p52feb55f58)" d="M 141.833428 172.469448 
L 141.726037 172.272911 
L 141.726037 171.823561 
" style="fill:none;stroke:#999999;"/>
    <path clip-path="url(#p52feb55f58)" d="M 141.833428 172.469448 
L 141.77951 172.556317 
L 141.623548 172.653575 
L 140.948232 172.614614 
" style="fill:none;stroke:#999999;"/>
    <path clip-path="url(#p52feb55f58)" d="M 143.106746 171.425004 
L 143.049931 171.32486 
" style="fill:none;stroke:#999999;"/>
    <path clip-path="url(#p52feb55f58)" d="M 143.106746 171.425004 
L 143.254464 171.684744 
" style="fill:none;stroke:#999999;"/>
    <path clip-path="url(#p52feb55f58)" d="M 143.106746 171.425004 
L 142.337854 172.140732 
L 142.305547 172.309564 
L 142.11104 172.50812 
" style="fill:none;stroke:#999999;"/>
    <path clip-path="url(#p52feb55f58)" d="M 143.049931 171.32486 
L 142.941649 171.134384 
" style="fill:none;stroke:#999999;"/>
    <path clip-path="url(#p52feb55f58)" d="M 143.049931 171.32486 
L 143.106746 171.425004 
" style="fill:none;stroke:#999999;"/>
    <path clip-path="url(#p52feb55f58)" d="M 143.049931 171.32486 
L 144.117825 170.783735 
" style="fill:none;stroke:#999999;"/>
    <path clip-path="url(#p52feb55f58)" d="M 144.117825 170.783735 
L 143.049931 171.32486 
" style="fill:none;stroke:#999999;"/>
    <path clip-path="url(#p52feb55f58)" d="M 144.117825 170.783735 
L 144.507062 170.569305 
" style="fill:none;stroke:#999999;"/>
    <path clip-path="url(#p52feb55f58)" d="M 144.117825 170.783735 
L 144.117825 171.437991 
" style="fill:none;stroke:#999999;"/>
    <path clip-path="url(#p52feb55f58)" d="M 144.117825 170.783735 
L 144.117825 170.592393 
L 143.395499 169.482726 
L 142.859881 168.914473 
L 142.400016 168.647229 
L 141.89715 168.101775 
" style="fill:none;stroke:#999999;"/>
    <path clip-path="url(#p52feb55f58)" d="M 141.767256 171.547082 
L 141.726037 171.823561 
" style="fill:none;stroke:#999999;"/>
    <path clip-path="url(#p52feb55f58)" d="M 141.767256 171.547082 
L 142.941649 171.134384 
" style="fill:none;stroke:#999999;"/>
    <path clip-path="url(#p52feb55f58)" d="M 141.767256 171.547082 
L 141.854372 170.946506 
L 141.843454 170.836549 
" style="fill:none;stroke:#999999;"/>
    <path clip-path="url(#p52feb55f58)" d="M 142.941649 171.134384 
L 143.049931 171.32486 
" style="fill:none;stroke:#999999;"/>
    <path clip-path="url(#p52feb55f58)" d="M 142.941649 171.134384 
L 141.767256 171.547082 
" style="fill:none;stroke:#999999;"/>
    <path clip-path="url(#p52feb55f58)" d="M 142.941649 171.134384 
L 142.813983 170.909565 
L 142.821336 170.508411 
" style="fill:none;stroke:#999999;"/>
    <path clip-path="url(#p52feb55f58)" d="M 144.507062 170.569305 
L 144.117825 170.783735 
" style="fill:none;stroke:#999999;"/>
    <path clip-path="url(#p52feb55f58)" d="M 144.507062 170.569305 
L 144.740782 170.926304 
L 144.96158 170.991239 
L 145.007032 171.114759 
L 144.57212 171.302927 
L 144.117825 171.437991 
" style="fill:none;stroke:#999999;"/>
    <path clip-path="url(#p52feb55f58)" d="M 144.507062 170.569305 
L 144.96158 170.153721 
L 145.247436 169.764111 
" style="fill:none;stroke:#999999;"/>
    <path clip-path="url(#p52feb55f58)" d="M 145.247436 169.764111 
L 145.442165 169.738137 
L 145.591666 169.634241 
L 145.928321 169.230778 
" style="fill:none;stroke:#999999;"/>
    <path clip-path="url(#p52feb55f58)" d="M 145.247436 169.764111 
L 144.96158 170.153721 
L 144.507062 170.569305 
" style="fill:none;stroke:#999999;"/>
    <path clip-path="url(#p52feb55f58)" d="M 145.247436 169.764111 
L 144.922812 167.86166 
L 145.013716 167.699467 
L 145.208445 167.647519 
L 145.442165 167.809712 
L 146.010535 168.401919 
" style="fill:none;stroke:#999999;"/>
    <path clip-path="url(#p52feb55f58)" d="M 147.225702 168.4986 
L 146.613886 168.020101 
" style="fill:none;stroke:#999999;"/>
    <path clip-path="url(#p52feb55f58)" d="M 147.225702 168.4986 
L 148.161251 167.670318 
" style="fill:none;stroke:#999999;"/>
    <path clip-path="url(#p52feb55f58)" d="M 147.225702 168.4986 
L 148.819411 169.744775 
L 149.079199 170.082437 
L 149.332303 170.241167 
" style="fill:none;stroke:#999999;"/>
    <path clip-path="url(#p52feb55f58)" d="M 148.161251 167.670318 
L 147.225702 168.4986 
" style="fill:none;stroke:#999999;"/>
    <path clip-path="url(#p52feb55f58)" d="M 148.161251 167.670318 
L 149.332303 170.241167 
" style="fill:none;stroke:#999999;"/>
    <path clip-path="url(#p52feb55f58)" d="M 148.161251 167.670318 
L 148.377815 167.478688 
L 148.624458 167.309857 
L 149.647346 167.071762 
" style="fill:none;stroke:#999999;"/>
    <path clip-path="url(#p52feb55f58)" d="M 149.332303 170.241167 
L 148.161251 167.670318 
" style="fill:none;stroke:#999999;"/>
    <path clip-path="url(#p52feb55f58)" d="M 149.332303 170.241167 
L 149.410284 170.290229 
L 149.69614 170.874644 
L 149.709062 171.341888 
L 150.085822 172.056173 
L 150.364994 172.28359 
L 150.533878 172.315913 
" style="fill:none;stroke:#999999;"/>
    <path clip-path="url(#p52feb55f58)" d="M 149.332303 170.241167 
L 149.079199 170.082437 
L 148.819411 169.744775 
L 147.225702 168.4986 
" style="fill:none;stroke:#999999;"/>
    <path clip-path="url(#p52feb55f58)" d="M 150.533878 172.315913 
L 150.364994 172.28359 
L 150.085822 172.056173 
L 149.709062 171.341888 
L 149.69614 170.874644 
L 149.410284 170.290229 
L 149.332303 170.241167 
" style="fill:none;stroke:#999999;"/>
    <path clip-path="url(#p52feb55f58)" d="M 149.044442 164.943336 
L 149.647346 167.071762 
" style="fill:none;stroke:#999999;"/>
    <path clip-path="url(#p52feb55f58)" d="M 149.044442 164.943336 
L 148.946408 165.01058 
L 148.062772 165.615774 
L 146.878575 166.693407 
L 146.440322 167.569308 
L 146.570662 167.841746 
L 146.613886 168.020101 
" style="fill:none;stroke:#999999;"/>
    <path clip-path="url(#p52feb55f58)" d="M 149.044442 164.943336 
L 149.981105 164.301779 
L 150.952302 163.662241 
L 152.112882 162.32458 
L 152.621987 161.460223 
L 152.787752 160.868304 
L 153.616801 157.221843 
L 154.19698 155.28043 
L 154.433819 154.842336 
L 157.430072 152.498326 
L 158.543195 151.835123 
L 159.064108 151.539308 
L 159.585243 151.006553 
L 161.562841 148.579715 
L 163.505013 146.709298 
L 163.860384 146.413195 
L 164.405137 146.176543 
L 164.760285 145.927769 
L 164.807742 145.004538 
L 164.724859 143.986357 
L 164.878816 143.240614 
L 165.530068 142.364713 
L 169.319722 138.931527 
L 170.065666 138.541052 
L 171.439468 138.091124 
L 172.114338 137.735858 
L 172.955195 136.978282 
L 173.2513 136.552309 
L 173.417066 136.007721 
L 173.334183 135.285643 
L 173.120961 133.829656 
L 173.061695 133.166742 
L 173.458953 132.663423 
L 173.926393 131.805416 
L 174.897368 130.668909 
L 175.359238 130.088823 
L 176.200096 128.703831 
L 176.969657 127.425622 
L 177.739441 126.265449 
L 178.124667 125.821005 
" style="fill:none;stroke:#999999;"/>
    <path clip-path="url(#p52feb55f58)" d="M 149.647346 167.071762 
L 149.044442 164.943336 
" style="fill:none;stroke:#999999;"/>
    <path clip-path="url(#p52feb55f58)" d="M 149.647346 167.071762 
L 148.624458 167.309857 
L 148.377815 167.478688 
L 148.161251 167.670318 
" style="fill:none;stroke:#999999;"/>
    <path clip-path="url(#p52feb55f58)" d="M 142.821336 170.508411 
L 141.843454 170.836549 
" style="fill:none;stroke:#999999;"/>
    <path clip-path="url(#p52feb55f58)" d="M 142.821336 170.508411 
L 142.831585 169.958339 
L 142.214866 169.006825 
L 141.705762 168.241169 
" style="fill:none;stroke:#999999;"/>
    <path clip-path="url(#p52feb55f58)" d="M 142.821336 170.508411 
L 142.813983 170.909565 
L 142.941649 171.134384 
" style="fill:none;stroke:#999999;"/>
    <path clip-path="url(#p52feb55f58)" d="M 141.843454 170.836549 
L 142.821336 170.508411 
" style="fill:none;stroke:#999999;"/>
    <path clip-path="url(#p52feb55f58)" d="M 141.843454 170.836549 
L 141.854372 170.946506 
L 141.767256 171.547082 
" style="fill:none;stroke:#999999;"/>
    <path clip-path="url(#p52feb55f58)" d="M 141.843454 170.836549 
L 141.822288 170.625582 
L 140.98143 168.724863 
" style="fill:none;stroke:#999999;"/>
    <path clip-path="url(#p52feb55f58)" d="M 137.894051 168.756897 
L 138.693691 168.194704 
" style="fill:none;stroke:#999999;"/>
    <path clip-path="url(#p52feb55f58)" d="M 138.693691 168.194704 
L 139.113228 168.741024 
" style="fill:none;stroke:#999999;"/>
    <path clip-path="url(#p52feb55f58)" d="M 138.693691 168.194704 
L 137.660999 166.850405 
" style="fill:none;stroke:#999999;"/>
    <path clip-path="url(#p52feb55f58)" d="M 138.693691 168.194704 
L 137.894051 168.756897 
" style="fill:none;stroke:#999999;"/>
    <path clip-path="url(#p52feb55f58)" d="M 129.706047 171.116202 
L 130.450877 171.459925 
L 131.18323 171.701195 
" style="fill:none;stroke:#999999;"/>
    <path clip-path="url(#p52feb55f58)" d="M 132.379013 169.291384 
L 133.063463 171.248381 
" style="fill:none;stroke:#999999;"/>
    <path clip-path="url(#p52feb55f58)" d="M 178.124667 125.821005 
L 179.240909 124.68421 
" style="fill:none;stroke:#999999;"/>
    <path clip-path="url(#p52feb55f58)" d="M 178.124667 125.821005 
L 177.739441 126.265449 
L 176.969657 127.425622 
L 176.200096 128.703831 
L 175.359238 130.088823 
L 174.897368 130.668909 
L 173.926393 131.805416 
L 173.458953 132.663423 
L 173.061695 133.166742 
L 173.120961 133.829656 
L 173.334183 135.285643 
L 173.417066 136.007721 
L 173.2513 136.552309 
L 172.955195 136.978282 
L 172.114338 137.735858 
L 171.439468 138.091124 
L 170.065666 138.541052 
L 169.319722 138.931527 
L 165.530068 142.364713 
L 164.878816 143.240614 
L 164.724859 143.986357 
L 164.807742 145.004538 
L 164.760285 145.927769 
L 164.405137 146.176543 
L 163.860384 146.413195 
L 163.505013 146.709298 
L 161.562841 148.579715 
L 159.585243 151.006553 
L 159.064108 151.539308 
L 158.543195 151.835123 
L 157.430072 152.498326 
L 154.433819 154.842336 
L 154.19698 155.28043 
L 153.616801 157.221843 
L 152.787752 160.868304 
L 152.621987 161.460223 
L 152.112882 162.32458 
L 150.952302 163.662241 
L 149.981105 164.301779 
L 149.044442 164.943336 
" style="fill:none;stroke:#999999;"/>
    <path clip-path="url(#p52feb55f58)" d="M 178.124667 125.821005 
L 178.144719 124.65131 
L 178.053147 124.462565 
" style="fill:none;stroke:#999999;"/>
    <path clip-path="url(#p52feb55f58)" d="M 180.601566 121.143665 
L 180.425106 121.308167 
L 180.164427 121.770504 
L 180.037875 122.018412 
" style="fill:none;stroke:#999999;"/>
    <path clip-path="url(#p52feb55f58)" d="M 180.765771 125.57887 
L 180.281844 125.584931 
L 179.240909 124.68421 
" style="fill:none;stroke:#999999;"/>
    <path clip-path="url(#p52feb55f58)" d="M 179.240909 124.68421 
L 178.124667 125.821005 
" style="fill:none;stroke:#999999;"/>
    <path clip-path="url(#p52feb55f58)" d="M 179.240909 124.68421 
L 179.284133 124.354629 
" style="fill:none;stroke:#999999;"/>
    <path clip-path="url(#p52feb55f58)" d="M 179.240909 124.68421 
L 180.281844 125.584931 
L 180.765771 125.57887 
" style="fill:none;stroke:#999999;"/>
    <path clip-path="url(#p52feb55f58)" d="M 46.413215 404.503869 
L 46.454211 404.031719 
" style="fill:none;stroke:#999999;"/>
    <path clip-path="url(#p52feb55f58)" d="M 46.413215 404.503869 
L 45.882053 404.45827 
" style="fill:none;stroke:#999999;"/>
    <path clip-path="url(#p52feb55f58)" d="M 46.413215 404.503869 
L 46.998073 404.554086 
L 46.914522 404.799396 
L 46.585888 404.697808 
L 45.882053 404.661733 
" style="fill:none;stroke:#999999;"/>
    <path clip-path="url(#p52feb55f58)" d="M 46.454211 404.031719 
L 46.413215 404.503869 
" style="fill:none;stroke:#999999;"/>
    <path clip-path="url(#p52feb55f58)" d="M 46.454211 404.031719 
L 47.849402 404.02739 
" style="fill:none;stroke:#999999;"/>
    <path clip-path="url(#p52feb55f58)" d="M 46.454211 404.031719 
L 45.882053 404.03374 
" style="fill:none;stroke:#999999;"/>
    <path clip-path="url(#p52feb55f58)" d="M 45.882053 404.661733 
L 45.882053 404.45827 
" style="fill:none;stroke:#999999;"/>
    <path clip-path="url(#p52feb55f58)" d="M 45.882053 404.661733 
L 45.882053 405.435759 
" style="fill:none;stroke:#999999;"/>
    <path clip-path="url(#p52feb55f58)" d="M 45.882053 404.661733 
L 46.585888 404.697808 
L 46.914522 404.799396 
L 46.998073 404.554086 
L 46.413215 404.503869 
" style="fill:none;stroke:#999999;"/>
    <path clip-path="url(#p52feb55f58)" d="M 45.882053 404.45827 
L 45.882053 404.03374 
" style="fill:none;stroke:#999999;"/>
    <path clip-path="url(#p52feb55f58)" d="M 45.882053 404.45827 
L 45.882053 404.661733 
" style="fill:none;stroke:#999999;"/>
    <path clip-path="url(#p52feb55f58)" d="M 45.882053 404.45827 
L 46.413215 404.503869 
" style="fill:none;stroke:#999999;"/>
    <path clip-path="url(#p52feb55f58)" d="M 47.849402 404.02739 
L 46.454211 404.031719 
" style="fill:none;stroke:#999999;"/>
    <path clip-path="url(#p52feb55f58)" d="M 47.849402 404.02739 
L 47.978182 404.667794 
L 47.380625 405.870102 
L 47.013001 406.324647 
" style="fill:none;stroke:#999999;"/>
    <path clip-path="url(#p52feb55f58)" d="M 47.849402 404.02739 
L 47.816873 403.866352 
L 47.410481 403.453365 
L 46.872635 403.351778 
L 45.882053 403.411518 
" style="fill:none;stroke:#999999;"/>
    <path clip-path="url(#p52feb55f58)" d="M 45.882053 404.03374 
L 45.882053 403.411518 
" style="fill:none;stroke:#999999;"/>
    <path clip-path="url(#p52feb55f58)" d="M 45.882053 404.03374 
L 45.882053 404.45827 
" style="fill:none;stroke:#999999;"/>
    <path clip-path="url(#p52feb55f58)" d="M 45.882053 404.03374 
L 46.454211 404.031719 
" style="fill:none;stroke:#999999;"/>
    <path clip-path="url(#p52feb55f58)" d="M 45.882053 403.411518 
L 45.882053 404.03374 
" style="fill:none;stroke:#999999;"/>
    <path clip-path="url(#p52feb55f58)" d="M 45.882053 403.411518 
L 45.882053 403.214693 
L 45.159504 401.148894 
L 45.211194 399.341103 
L 46.707538 392.058859 
L 48.801662 389.281084 
L 52.329745 387.780363 
L 54.446594 385.220481 
L 55.857827 382.748622 
L 58.365696 378.094947 
L 60.236126 376.326983 
L 60.510396 375.419624 
L 61.14984 367.47764 
L 60.267764 365.359316 
L 59.209005 361.941426 
L 59.385687 360.23984 
L 61.14984 354.50276 
L 65.648006 349.207238 
L 67.323706 349.207238 
L 68.911399 348.589346 
L 70.057943 347.35356 
L 70.956507 345.682566 
L 71.785556 344.687185 
L 72.519691 343.241587 
L 73.372358 342.577807 
L 76.664492 338.6439 
L 77.162011 338.548951 
L 79.885775 338.16973 
L 80.667368 337.529904 
L 82.01733 336.984739 
L 84.006737 336.060641 
L 85.617378 335.088925 
L 86.496335 333.257758 
L 86.328788 332.805233 
L 85.742593 332.344627 
L 85.692463 332.101626 
L 87.258321 330.149247 
L 88.028773 328.415049 
L 88.363646 327.853722 
L 88.46413 327.166566 
L 88.757116 326.228038 
L 89.318133 325.624864 
L 89.418617 324.845644 
L 89.586165 324.426886 
L 90.557585 323.270465 
L 90.825394 323.144924 
L 91.110136 323.220249 
L 92.207217 323.756468 
L 92.826832 323.815054 
L 95.171386 322.206686 
L 95.489771 321.594854 
L 95.305514 320.313181 
L 95.414241 320.019963 
L 95.623676 319.935981 
L 96.645227 319.961089 
L 97.46581 319.500483 
L 98.278149 318.511739 
L 98.294859 318.126458 
L 97.993407 317.221697 
L 98.093891 316.844497 
L 98.42052 316.735695 
L 99.927781 316.995435 
L 101.284427 316.459216 
L 102.783222 315.88952 
L 103.687579 315.856042 
L 103.871837 315.344931 
L 103.101384 313.174948 
L 102.222205 311.532814 
L 102.49848 310.226033 
L 102.456593 309.136856 
L 102.959013 308.416511 
L 104.72584 304.914638 
L 104.70913 304.177265 
L 104.273773 303.725029 
L 102.624141 302.602374 
L 102.523657 302.225463 
L 102.892173 300.524743 
L 102.799932 300.047398 
L 102.582254 299.821136 
L 102.272335 299.192854 
L 102.431639 298.17929 
L 102.063123 297.274529 
L 102.322689 296.461832 
L 102.372819 295.665873 
L 103.026077 294.208443 
L 103.260466 293.152744 
L 102.565544 290.815661 
L 100.882491 288.260685 
L 100.848848 287.967467 
L 101.376445 287.171797 
L 101.65272 286.325622 
L 102.004526 284.851453 
L 101.887332 283.929953 
L 101.083459 280.864155 
L 101.1503 278.970938 
L 100.832138 277.982483 
L 98.085647 272.571521 
L 98.068714 272.102546 
L 98.236262 271.851176 
L 100.396781 270.99692 
L 100.949332 270.242808 
L 101.836978 268.701684 
L 102.858529 268.701684 
L 104.918564 267.889275 
L 105.546646 266.281195 
L 106.216391 265.133433 
L 106.291921 264.664458 
L 106.224857 264.362871 
L 105.873052 263.793463 
L 105.881518 263.282641 
L 106.115907 262.662728 
L 105.982002 261.749886 
L 105.353921 260.719584 
L 105.504759 260.367781 
L 106.157794 260.417997 
L 107.748829 261.054649 
L 108.653185 260.417997 
L 109.004991 260.317564 
L 109.524122 260.451475 
L 110.160446 260.38452 
L 111.031383 259.061288 
L 111.048093 258.642241 
L 110.947609 258.223483 
L 110.311284 257.503425 
L 110.19409 257.151622 
L 110.478609 256.2636 
L 110.093606 254.990585 
L 110.160446 254.638782 
L 110.461899 254.555088 
L 112.43816 255.107757 
L 112.806676 254.940369 
L 113.141548 254.588565 
L 113.275453 253.98568 
L 113.89529 253.533444 
L 115.60352 251.389145 
L 115.553166 250.38424 
L 113.928711 247.653795 
L 114.062615 247.352497 
L 116.859459 247.251775 
L 118.115621 246.548457 
L 118.567688 245.409353 
L 118.986558 245.124505 
L 119.555819 243.96895 
L 119.505688 243.44947 
L 118.751946 242.478042 
L 118.618042 242.059284 
L 118.735236 241.70748 
L 119.873981 240.719314 
L 120.091883 240.2336 
L 119.80714 239.613976 
L 118.685105 239.161739 
L 118.634752 238.676026 
L 119.539109 237.821769 
L 120.091883 235.074874 
L 119.488978 232.880648 
L 119.522398 231.976176 
L 120.56066 229.966365 
L 121.783402 227.08556 
L 123.324083 224.891623 
L 124.563312 223.417742 
L 126.305185 218.577343 
L 126.857736 217.756853 
L 127.829156 216.768686 
L 128.331577 215.864214 
L 129.336417 215.177634 
L 130.039806 213.904908 
L 130.324548 212.213423 
L 130.224064 210.119919 
L 129.16887 206.854409 
L 129.420191 204.040848 
L 129.118739 203.504918 
L 128.046835 202.399579 
L 128.030124 200.89251 
L 127.795736 200.239408 
L 128.147319 199.469135 
L 128.314866 198.748789 
L 129.403481 196.387752 
L 130.073226 195.918777 
L 130.793548 195.181981 
L 132.887003 191.112721 
L 133.439554 190.627296 
L 137.174175 188.517341 
L 137.509271 188.048366 
L 138.882405 183.945917 
L 140.021373 182.857317 
L 141.256814 181.029902 
L 141.984934 178.934089 
L 142.292847 178.638273 
L 142.602989 177.951117 
L 142.602989 177.951117 
" style="fill:none;stroke:#999999;"/>
    <path clip-path="url(#p52feb55f58)" d="M 45.882053 403.411518 
L 46.872635 403.351778 
L 47.410481 403.453365 
L 47.816873 403.866352 
L 47.849402 404.02739 
" style="fill:none;stroke:#999999;"/>
    <path clip-path="url(#p52feb55f58)" d="M 218.290224 284.279159 
L 218.344142 283.776129 
" style="fill:none;stroke:#999999;"/>
    <path clip-path="url(#p52feb55f58)" d="M 218.290224 284.279159 
L 218.713549 284.292146 
L 218.773483 283.748135 
" style="fill:none;stroke:#999999;"/>
    <path clip-path="url(#p52feb55f58)" d="M 218.290224 284.279159 
L 218.199766 285.123025 
L 218.109976 285.266748 
L 217.488579 285.51783 
" style="fill:none;stroke:#999999;"/>
    <path clip-path="url(#p52feb55f58)" d="M 218.773483 283.748135 
L 219.08407 283.228077 
" style="fill:none;stroke:#999999;"/>
    <path clip-path="url(#p52feb55f58)" d="M 218.773483 283.748135 
L 218.344142 283.776129 
" style="fill:none;stroke:#999999;"/>
    <path clip-path="url(#p52feb55f58)" d="M 218.773483 283.748135 
L 218.713549 284.292146 
L 218.290224 284.279159 
" style="fill:none;stroke:#999999;"/>
    <path clip-path="url(#p52feb55f58)" d="M 218.344142 283.776129 
L 218.773483 283.748135 
" style="fill:none;stroke:#999999;"/>
    <path clip-path="url(#p52feb55f58)" d="M 218.344142 283.776129 
L 218.290224 284.279159 
" style="fill:none;stroke:#999999;"/>
    <path clip-path="url(#p52feb55f58)" d="M 218.344142 283.776129 
L 218.384915 283.395465 
" style="fill:none;stroke:#999999;"/>
    <path clip-path="url(#p52feb55f58)" d="M 218.767467 282.22981 
L 218.080121 282.606433 
" style="fill:none;stroke:#999999;"/>
    <path clip-path="url(#p52feb55f58)" d="M 218.025088 282.478872 
L 217.32727 282.684066 
" style="fill:none;stroke:#999999;"/>
    <path clip-path="url(#p52feb55f58)" d="M 218.025088 282.478872 
L 218.080121 282.606433 
" style="fill:none;stroke:#999999;"/>
    <path clip-path="url(#p52feb55f58)" d="M 218.025088 282.478872 
L 217.829245 282.026347 
L 217.542274 281.482336 
L 217.315238 279.928225 
L 217.147913 278.517259 
" style="fill:none;stroke:#999999;"/>
    <path clip-path="url(#p52feb55f58)" d="M 217.32727 282.684066 
L 218.025088 282.478872 
" style="fill:none;stroke:#999999;"/>
    <path clip-path="url(#p52feb55f58)" d="M 217.147913 278.517259 
L 217.315238 279.928225 
L 217.542274 281.482336 
L 217.829245 282.026347 
L 218.025088 282.478872 
" style="fill:none;stroke:#999999;"/>
    <path clip-path="url(#p52feb55f58)" d="M 218.080121 282.606433 
L 218.767467 282.22981 
" style="fill:none;stroke:#999999;"/>
    <path clip-path="url(#p52feb55f58)" d="M 218.080121 282.606433 
L 218.384915 283.395465 
" style="fill:none;stroke:#999999;"/>
    <path clip-path="url(#p52feb55f58)" d="M 218.080121 282.606433 
L 218.025088 282.478872 
" style="fill:none;stroke:#999999;"/>
    <path clip-path="url(#p52feb55f58)" d="M 220.165778 284.364007 
L 219.08407 283.228077 
" style="fill:none;stroke:#999999;"/>
    <path clip-path="url(#p52feb55f58)" d="M 220.948707 283.915523 
L 220.171793 283.335725 
L 219.866999 283.222017 
L 219.08407 283.228077 
" style="fill:none;stroke:#999999;"/>
    <path clip-path="url(#p52feb55f58)" d="M 219.08407 283.228077 
L 218.384915 283.395465 
" style="fill:none;stroke:#999999;"/>
    <path clip-path="url(#p52feb55f58)" d="M 219.08407 283.228077 
L 218.773483 283.748135 
" style="fill:none;stroke:#999999;"/>
    <path clip-path="url(#p52feb55f58)" d="M 219.08407 283.228077 
L 220.165778 284.364007 
" style="fill:none;stroke:#999999;"/>
    <path clip-path="url(#p52feb55f58)" d="M 219.08407 283.228077 
L 219.866999 283.222017 
L 220.171793 283.335725 
L 220.948707 283.915523 
" style="fill:none;stroke:#999999;"/>
    <path clip-path="url(#p52feb55f58)" d="M 217.488579 285.51783 
L 218.109976 285.266748 
L 218.199766 285.123025 
L 218.290224 284.279159 
" style="fill:none;stroke:#999999;"/>
    <path clip-path="url(#p52feb55f58)" d="M 218.384915 283.395465 
L 219.08407 283.228077 
" style="fill:none;stroke:#999999;"/>
    <path clip-path="url(#p52feb55f58)" d="M 218.384915 283.395465 
L 218.344142 283.776129 
" style="fill:none;stroke:#999999;"/>
    <path clip-path="url(#p52feb55f58)" d="M 218.384915 283.395465 
L 218.080121 282.606433 
" style="fill:none;stroke:#999999;"/>
    <path clip-path="url(#p52feb55f58)" d="M 218.384915 283.395465 
L 216.251578 283.245971 
L 214.918771 283.168337 
L 214.488539 282.878294 
L 213.580172 282.313504 
L 212.659996 281.697632 
L 211.847211 281.398642 
L 210.819199 281.052033 
L 209.910832 280.274833 
L 208.906882 279.772669 
L 208.129969 279.36632 
L 207.38915 278.732555 
L 206.576365 278.254345 
L 205.106089 278.11091 
L 202.596215 278.218558 
L 202.087779 278.507158 
" style="fill:none;stroke:#999999;"/>
   </g>
  </g>
 </g>
 <defs>
  <clipPath id="p52feb55f58">
   <rect height="432" width="195.802369" x="28.911768" y="0"/>
  </clipPath>
 </defs>
</svg>
