<?xml version="1.0" encoding="utf-8" standalone="no"?>
<!DOCTYPE svg PUBLIC "-//W3C//DTD SVG 1.1//EN"
  "http://www.w3.org/Graphics/SVG/1.1/DTD/svg11.dtd">
<!-- Created with matplotlib (http://matplotlib.org/) -->
<svg height="432pt" version="1.1" viewBox="0 0 648.775404 432" width="648.775404pt" xmlns="http://www.w3.org/2000/svg" xmlns:xlink="http://www.w3.org/1999/xlink">
 <defs>
  <style type="text/css">
*{stroke-linecap:butt;stroke-linejoin:round;}
  </style>
 </defs>
 <g id="figure_1">
  <g id="patch_1">
   <path d="M 0 432 
L 648.775404 432 
L 648.775404 0 
L 0 0 
z
" style="fill:none;opacity:0;"/>
  </g>
  <g id="axes_1">
   <g id="PathCollection_1">
    <defs>
     <path d="M 0 1.936492 
C 0.513564 1.936492 1.006162 1.732451 1.369306 1.369306 
C 1.732451 1.006162 1.936492 0.513564 1.936492 0 
C 1.936492 -0.513564 1.732451 -1.006162 1.369306 -1.369306 
C 1.006162 -1.732451 0.513564 -1.936492 0 -1.936492 
C -0.513564 -1.936492 -1.006162 -1.732451 -1.369306 -1.369306 
C -1.732451 -1.006162 -1.936492 -0.513564 -1.936492 0 
C -1.936492 0.513564 -1.732451 1.006162 -1.369306 1.369306 
C -1.006162 1.732451 -0.513564 1.936492 0 1.936492 
z
" id="C0_0_5e47a43dc4"/>
    </defs>
    <g clip-path="url(#p7202b0f8a0)">
     <use style="fill:#66ccff;" x="538.655162" xlink:href="#C0_0_5e47a43dc4" y="360.458176"/>
    </g>
    <g clip-path="url(#p7202b0f8a0)">
     <use style="fill:#66ccff;" x="524.630549" xlink:href="#C0_0_5e47a43dc4" y="336.451942"/>
    </g>
    <g clip-path="url(#p7202b0f8a0)">
     <use style="fill:#66ccff;" x="465.841663" xlink:href="#C0_0_5e47a43dc4" y="172.852264"/>
    </g>
    <g clip-path="url(#p7202b0f8a0)">
     <use style="fill:#66ccff;" x="311.427815" xlink:href="#C0_0_5e47a43dc4" y="403.480417"/>
    </g>
    <g clip-path="url(#p7202b0f8a0)">
     <use style="fill:#66ccff;" x="290.539729" xlink:href="#C0_0_5e47a43dc4" y="390.871977"/>
    </g>
    <g clip-path="url(#p7202b0f8a0)">
     <use style="fill:#66ccff;" x="338.481007" xlink:href="#C0_0_5e47a43dc4" y="306.422004"/>
    </g>
    <g clip-path="url(#p7202b0f8a0)">
     <use style="fill:#66ccff;" x="410.40151" xlink:href="#C0_0_5e47a43dc4" y="178.381376"/>
    </g>
    <g clip-path="url(#p7202b0f8a0)">
     <use style="fill:#66ccff;" x="438.238935" xlink:href="#C0_0_5e47a43dc4" y="69.615125"/>
    </g>
    <g clip-path="url(#p7202b0f8a0)">
     <use style="fill:#66ccff;" x="316.2706" xlink:href="#C0_0_5e47a43dc4" y="414.671515"/>
    </g>
    <g clip-path="url(#p7202b0f8a0)">
     <use style="fill:#66ccff;" x="423.441538" xlink:href="#C0_0_5e47a43dc4" y="328.789436"/>
    </g>
    <g clip-path="url(#p7202b0f8a0)">
     <use style="fill:#66ccff;" x="415.484717" xlink:href="#C0_0_5e47a43dc4" y="326.936556"/>
    </g>
    <g clip-path="url(#p7202b0f8a0)">
     <use style="fill:#66ccff;" x="408.266335" xlink:href="#C0_0_5e47a43dc4" y="196.253175"/>
    </g>
    <g clip-path="url(#p7202b0f8a0)">
     <use style="fill:#66ccff;" x="320.581022" xlink:href="#C0_0_5e47a43dc4" y="300.590231"/>
    </g>
    <g clip-path="url(#p7202b0f8a0)">
     <use style="fill:#66ccff;" x="278.547254" xlink:href="#C0_0_5e47a43dc4" y="299.763448"/>
    </g>
    <g clip-path="url(#p7202b0f8a0)">
     <use style="fill:#66ccff;" x="345.367378" xlink:href="#C0_0_5e47a43dc4" y="298.766879"/>
    </g>
    <g clip-path="url(#p7202b0f8a0)">
     <use style="fill:#66ccff;" x="325.921823" xlink:href="#C0_0_5e47a43dc4" y="279.950185"/>
    </g>
    <g clip-path="url(#p7202b0f8a0)">
     <use style="fill:#66ccff;" x="368.871484" xlink:href="#C0_0_5e47a43dc4" y="272.634632"/>
    </g>
    <g clip-path="url(#p7202b0f8a0)">
     <use style="fill:#66ccff;" x="406.680695" xlink:href="#C0_0_5e47a43dc4" y="269.703982"/>
    </g>
    <g clip-path="url(#p7202b0f8a0)">
     <use style="fill:#66ccff;" x="275.221417" xlink:href="#C0_0_5e47a43dc4" y="397.146669"/>
    </g>
    <g clip-path="url(#p7202b0f8a0)">
     <use style="fill:#66ccff;" x="282.594356" xlink:href="#C0_0_5e47a43dc4" y="363.064018"/>
    </g>
    <g clip-path="url(#p7202b0f8a0)">
     <use style="fill:#66ccff;" x="358.49327" xlink:href="#C0_0_5e47a43dc4" y="350.662274"/>
    </g>
    <g clip-path="url(#p7202b0f8a0)">
     <use style="fill:#66ccff;" x="381.957306" xlink:href="#C0_0_5e47a43dc4" y="331.446952"/>
    </g>
    <g clip-path="url(#p7202b0f8a0)">
     <use style="fill:#66ccff;" x="317.157871" xlink:href="#C0_0_5e47a43dc4" y="329.490725"/>
    </g>
    <g clip-path="url(#p7202b0f8a0)">
     <use style="fill:#66ccff;" x="300.29399" xlink:href="#C0_0_5e47a43dc4" y="322.758349"/>
    </g>
    <g clip-path="url(#p7202b0f8a0)">
     <use style="fill:#66ccff;" x="239.484414" xlink:href="#C0_0_5e47a43dc4" y="304.192643"/>
    </g>
    <g clip-path="url(#p7202b0f8a0)">
     <use style="fill:#66ccff;" x="303.064567" xlink:href="#C0_0_5e47a43dc4" y="303.085344"/>
    </g>
    <g clip-path="url(#p7202b0f8a0)">
     <use style="fill:#66ccff;" x="344.760599" xlink:href="#C0_0_5e47a43dc4" y="264.019849"/>
    </g>
    <g clip-path="url(#p7202b0f8a0)">
     <use style="fill:#66ccff;" x="486.002759" xlink:href="#C0_0_5e47a43dc4" y="263.938647"/>
    </g>
    <g clip-path="url(#p7202b0f8a0)">
     <use style="fill:#66ccff;" x="82.517515" xlink:href="#C0_0_5e47a43dc4" y="260.771773"/>
    </g>
    <g clip-path="url(#p7202b0f8a0)">
     <use style="fill:#66ccff;" x="379.003551" xlink:href="#C0_0_5e47a43dc4" y="255.23528"/>
    </g>
    <g clip-path="url(#p7202b0f8a0)">
     <use style="fill:#66ccff;" x="348.361203" xlink:href="#C0_0_5e47a43dc4" y="227.589725"/>
    </g>
    <g clip-path="url(#p7202b0f8a0)">
     <use style="fill:#66ccff;" x="352.082019" xlink:href="#C0_0_5e47a43dc4" y="218.111249"/>
    </g>
    <g clip-path="url(#p7202b0f8a0)">
     <use style="fill:#66ccff;" x="319.401809" xlink:href="#C0_0_5e47a43dc4" y="194.762013"/>
    </g>
    <g clip-path="url(#p7202b0f8a0)">
     <use style="fill:#66ccff;" x="566.25789" xlink:href="#C0_0_5e47a43dc4" y="91.008134"/>
    </g>
    <g clip-path="url(#p7202b0f8a0)">
     <use style="fill:#66ccff;" x="442.148654" xlink:href="#C0_0_5e47a43dc4" y="42.862791"/>
    </g>
    <g clip-path="url(#p7202b0f8a0)">
     <use style="fill:#66ccff;" x="448.903365" xlink:href="#C0_0_5e47a43dc4" y="8.307692"/>
    </g>
    <g clip-path="url(#p7202b0f8a0)">
     <use style="fill:#66ccff;" x="243.193781" xlink:href="#C0_0_5e47a43dc4" y="423.692308"/>
    </g>
    <g clip-path="url(#p7202b0f8a0)">
     <use style="fill:#66ccff;" x="533.079663" xlink:href="#C0_0_5e47a43dc4" y="312.52691"/>
    </g>
    <g clip-path="url(#p7202b0f8a0)">
     <use style="fill:#66ccff;" x="389.7195" xlink:href="#C0_0_5e47a43dc4" y="288.380419"/>
    </g>
    <g clip-path="url(#p7202b0f8a0)">
     <use style="fill:#66ccff;" x="528.116667" xlink:href="#C0_0_5e47a43dc4" y="326.589602"/>
    </g>
    <g clip-path="url(#p7202b0f8a0)">
     <use style="fill:#66ccff;" x="480.593266" xlink:href="#C0_0_5e47a43dc4" y="239.858594"/>
    </g>
   </g>
   <g id="LineCollection_1">
    <path clip-path="url(#p7202b0f8a0)" d="M 538.655162 360.458176 
L 423.441538 328.789436 
" style="fill:none;stroke:#999999;"/>
    <path clip-path="url(#p7202b0f8a0)" d="M 538.655162 360.458176 
L 524.630549 336.451942 
" style="fill:none;stroke:#999999;"/>
    <path clip-path="url(#p7202b0f8a0)" d="M 524.630549 336.451942 
L 528.116667 326.589602 
" style="fill:none;stroke:#999999;"/>
    <path clip-path="url(#p7202b0f8a0)" d="M 524.630549 336.451942 
L 538.655162 360.458176 
" style="fill:none;stroke:#999999;"/>
    <path clip-path="url(#p7202b0f8a0)" d="M 524.630549 336.451942 
L 490.965755 286.04771 
L 486.002759 263.938647 
" style="fill:none;stroke:#999999;"/>
    <path clip-path="url(#p7202b0f8a0)" d="M 465.841663 172.852264 
L 461.044673 180.042323 
L 455.165784 184.161474 
L 447.523801 187.682684 
L 435.966376 190.229471 
L 423.624717 191.410589 
L 408.266335 196.253175 
" style="fill:none;stroke:#999999;"/>
    <path clip-path="url(#p7202b0f8a0)" d="M 465.841663 172.852264 
L 449.304069 112.246121 
L 438.238935 69.615125 
" style="fill:none;stroke:#999999;"/>
    <path clip-path="url(#p7202b0f8a0)" d="M 465.841663 172.852264 
L 476.946866 223.618214 
L 480.593266 239.858594 
" style="fill:none;stroke:#999999;"/>
    <path clip-path="url(#p7202b0f8a0)" d="M 311.427815 403.480417 
L 302.251711 401.221528 
L 290.539729 390.871977 
" style="fill:none;stroke:#999999;"/>
    <path clip-path="url(#p7202b0f8a0)" d="M 311.427815 403.480417 
L 311.376296 394.821342 
L 315.160079 390.244508 
L 358.49327 350.662274 
" style="fill:none;stroke:#999999;"/>
    <path clip-path="url(#p7202b0f8a0)" d="M 311.427815 403.480417 
L 312.566957 409.120258 
L 316.2706 414.671515 
" style="fill:none;stroke:#999999;"/>
    <path clip-path="url(#p7202b0f8a0)" d="M 290.539729 390.871977 
L 292.445931 379.156758 
L 284.826846 366.090634 
L 282.594356 363.064018 
" style="fill:none;stroke:#999999;"/>
    <path clip-path="url(#p7202b0f8a0)" d="M 290.539729 390.871977 
L 302.251711 401.221528 
L 311.427815 403.480417 
" style="fill:none;stroke:#999999;"/>
    <path clip-path="url(#p7202b0f8a0)" d="M 290.539729 390.871977 
L 279.795158 396.866154 
L 275.221417 397.146669 
" style="fill:none;stroke:#999999;"/>
    <path clip-path="url(#p7202b0f8a0)" d="M 338.481007 306.422004 
L 345.367378 298.766879 
" style="fill:none;stroke:#999999;"/>
    <path clip-path="url(#p7202b0f8a0)" d="M 338.481007 306.422004 
L 317.157871 329.490725 
" style="fill:none;stroke:#999999;"/>
    <path clip-path="url(#p7202b0f8a0)" d="M 338.481007 306.422004 
L 331.875128 302.671953 
L 323.013863 300.590231 
L 320.581022 300.590231 
" style="fill:none;stroke:#999999;"/>
    <path clip-path="url(#p7202b0f8a0)" d="M 410.40151 178.381376 
L 438.238935 69.615125 
" style="fill:none;stroke:#999999;"/>
    <path clip-path="url(#p7202b0f8a0)" d="M 410.40151 178.381376 
L 408.266335 196.253175 
" style="fill:none;stroke:#999999;"/>
    <path clip-path="url(#p7202b0f8a0)" d="M 410.40151 178.381376 
L 393.932608 190.192561 
L 372.048488 204.321691 
L 355.705521 213.741111 
L 352.082019 218.111249 
" style="fill:none;stroke:#999999;"/>
    <path clip-path="url(#p7202b0f8a0)" d="M 438.238935 69.615125 
L 410.40151 178.381376 
" style="fill:none;stroke:#999999;"/>
    <path clip-path="url(#p7202b0f8a0)" d="M 438.238935 69.615125 
L 439.853197 54.585392 
L 442.148654 42.862791 
" style="fill:none;stroke:#999999;"/>
    <path clip-path="url(#p7202b0f8a0)" d="M 438.238935 69.615125 
L 449.304069 112.246121 
L 465.841663 172.852264 
" style="fill:none;stroke:#999999;"/>
    <path clip-path="url(#p7202b0f8a0)" d="M 316.2706 414.671515 
L 345.315859 411.829449 
L 361.24095 396.725896 
L 379.112313 375.118809 
L 410.418683 338.548427 
L 415.484717 326.936556 
" style="fill:none;stroke:#999999;"/>
    <path clip-path="url(#p7202b0f8a0)" d="M 316.2706 414.671515 
L 312.566957 409.120258 
L 311.427815 403.480417 
" style="fill:none;stroke:#999999;"/>
    <path clip-path="url(#p7202b0f8a0)" d="M 423.441538 328.789436 
L 415.484717 326.936556 
" style="fill:none;stroke:#999999;"/>
    <path clip-path="url(#p7202b0f8a0)" d="M 423.441538 328.789436 
L 538.655162 360.458176 
" style="fill:none;stroke:#999999;"/>
    <path clip-path="url(#p7202b0f8a0)" d="M 423.441538 328.789436 
L 412.221848 314.859619 
L 391.162031 289.790379 
L 389.7195 288.380419 
" style="fill:none;stroke:#999999;"/>
    <path clip-path="url(#p7202b0f8a0)" d="M 415.484717 326.936556 
L 423.441538 328.789436 
" style="fill:none;stroke:#999999;"/>
    <path clip-path="url(#p7202b0f8a0)" d="M 415.484717 326.936556 
L 410.418683 338.548427 
L 379.112313 375.118809 
L 361.24095 396.725896 
L 345.315859 411.829449 
L 316.2706 414.671515 
" style="fill:none;stroke:#999999;"/>
    <path clip-path="url(#p7202b0f8a0)" d="M 415.484717 326.936556 
L 407.338993 326.752006 
L 401.047952 326.936556 
L 394.195927 327.859305 
L 385.128586 329.712184 
L 381.957306 331.446952 
" style="fill:none;stroke:#999999;"/>
    <path clip-path="url(#p7202b0f8a0)" d="M 408.266335 196.253175 
L 410.40151 178.381376 
" style="fill:none;stroke:#999999;"/>
    <path clip-path="url(#p7202b0f8a0)" d="M 408.266335 196.253175 
L 423.624717 191.410589 
L 435.966376 190.229471 
L 447.523801 187.682684 
L 455.165784 184.161474 
L 461.044673 180.042323 
L 465.841663 172.852264 
" style="fill:none;stroke:#999999;"/>
    <path clip-path="url(#p7202b0f8a0)" d="M 408.266335 196.253175 
L 388.414352 237.260133 
L 379.003551 255.23528 
" style="fill:none;stroke:#999999;"/>
    <path clip-path="url(#p7202b0f8a0)" d="M 320.581022 300.590231 
L 321.170628 295.230906 
L 325.921823 279.950185 
" style="fill:none;stroke:#999999;"/>
    <path clip-path="url(#p7202b0f8a0)" d="M 320.581022 300.590231 
L 315.669545 300.590231 
L 308.187843 302.671953 
L 303.064567 303.085344 
" style="fill:none;stroke:#999999;"/>
    <path clip-path="url(#p7202b0f8a0)" d="M 320.581022 300.590231 
L 323.013863 300.590231 
L 331.875128 302.671953 
L 338.481007 306.422004 
" style="fill:none;stroke:#999999;"/>
    <path clip-path="url(#p7202b0f8a0)" d="M 278.547254 299.763448 
L 303.064567 303.085344 
" style="fill:none;stroke:#999999;"/>
    <path clip-path="url(#p7202b0f8a0)" d="M 278.547254 299.763448 
L 286.166339 261.524737 
L 291.844876 249.750461 
L 297.660797 240.198165 
L 305.417267 219.690995 
L 311.51368 207.089937 
L 319.401809 194.762013 
" style="fill:none;stroke:#999999;"/>
    <path clip-path="url(#p7202b0f8a0)" d="M 278.547254 299.763448 
L 264.139111 301.69753 
L 239.484414 304.192643 
" style="fill:none;stroke:#999999;"/>
    <path clip-path="url(#p7202b0f8a0)" d="M 345.367378 298.766879 
L 368.871484 272.634632 
" style="fill:none;stroke:#999999;"/>
    <path clip-path="url(#p7202b0f8a0)" d="M 345.367378 298.766879 
L 338.481007 306.422004 
" style="fill:none;stroke:#999999;"/>
    <path clip-path="url(#p7202b0f8a0)" d="M 345.367378 298.766879 
L 375.093832 323.444874 
L 381.957306 331.446952 
" style="fill:none;stroke:#999999;"/>
    <path clip-path="url(#p7202b0f8a0)" d="M 325.921823 279.950185 
L 321.170628 295.230906 
L 320.581022 300.590231 
" style="fill:none;stroke:#999999;"/>
    <path clip-path="url(#p7202b0f8a0)" d="M 325.921823 279.950185 
L 339.082062 268.729559 
L 344.760599 264.019849 
" style="fill:none;stroke:#999999;"/>
    <path clip-path="url(#p7202b0f8a0)" d="M 325.921823 279.950185 
L 321.960586 273.424505 
L 329.178968 249.698787 
L 337.696773 237.267515 
L 348.361203 227.589725 
" style="fill:none;stroke:#999999;"/>
    <path clip-path="url(#p7202b0f8a0)" d="M 368.871484 272.634632 
L 345.367378 298.766879 
" style="fill:none;stroke:#999999;"/>
    <path clip-path="url(#p7202b0f8a0)" d="M 368.871484 272.634632 
L 356.947701 266.514962 
L 349.471724 264.019849 
L 344.760599 264.019849 
" style="fill:none;stroke:#999999;"/>
    <path clip-path="url(#p7202b0f8a0)" d="M 368.871484 272.634632 
L 380.360218 279.256278 
L 389.7195 288.380419 
" style="fill:none;stroke:#999999;"/>
    <path clip-path="url(#p7202b0f8a0)" d="M 368.871484 272.634632 
L 371.315773 269.91806 
L 379.003551 255.23528 
" style="fill:none;stroke:#999999;"/>
    <path clip-path="url(#p7202b0f8a0)" d="M 406.680695 269.703982 
L 379.003551 255.23528 
" style="fill:none;stroke:#999999;"/>
    <path clip-path="url(#p7202b0f8a0)" d="M 406.680695 269.703982 
L 464.164434 272.88562 
L 486.002759 263.938647 
" style="fill:none;stroke:#999999;"/>
    <path clip-path="url(#p7202b0f8a0)" d="M 406.680695 269.703982 
L 400.029021 280.142117 
L 389.7195 288.380419 
" style="fill:none;stroke:#999999;"/>
    <path clip-path="url(#p7202b0f8a0)" d="M 275.221417 397.146669 
L 269.960756 389.388197 
L 269.125004 384.678487 
L 276.744089 371.796913 
L 282.594356 363.064018 
" style="fill:none;stroke:#999999;"/>
    <path clip-path="url(#p7202b0f8a0)" d="M 275.221417 397.146669 
L 279.795158 396.866154 
L 290.539729 390.871977 
" style="fill:none;stroke:#999999;"/>
    <path clip-path="url(#p7202b0f8a0)" d="M 275.221417 397.146669 
L 262.542022 410.79597 
L 243.193781 423.692308 
" style="fill:none;stroke:#999999;"/>
    <path clip-path="url(#p7202b0f8a0)" d="M 282.594356 363.064018 
L 285.113062 358.752936 
L 293.642317 349.075146 
L 311.788448 335.292969 
L 317.157871 329.490725 
" style="fill:none;stroke:#999999;"/>
    <path clip-path="url(#p7202b0f8a0)" d="M 282.594356 363.064018 
L 284.826846 366.090634 
L 292.445931 379.156758 
L 290.539729 390.871977 
" style="fill:none;stroke:#999999;"/>
    <path clip-path="url(#p7202b0f8a0)" d="M 282.594356 363.064018 
L 276.744089 371.796913 
L 269.125004 384.678487 
L 269.960756 389.388197 
L 275.221417 397.146669 
" style="fill:none;stroke:#999999;"/>
    <path clip-path="url(#p7202b0f8a0)" d="M 358.49327 350.662274 
L 345.035367 339.655726 
L 330.077688 334.252109 
L 317.157871 329.490725 
" style="fill:none;stroke:#999999;"/>
    <path clip-path="url(#p7202b0f8a0)" d="M 358.49327 350.662274 
L 373.14756 337.278725 
L 379.387081 332.856912 
L 381.957306 331.446952 
" style="fill:none;stroke:#999999;"/>
    <path clip-path="url(#p7202b0f8a0)" d="M 358.49327 350.662274 
L 315.160079 390.244508 
L 311.376296 394.821342 
L 311.427815 403.480417 
" style="fill:none;stroke:#999999;"/>
    <path clip-path="url(#p7202b0f8a0)" d="M 381.957306 331.446952 
L 375.093832 323.444874 
L 345.367378 298.766879 
" style="fill:none;stroke:#999999;"/>
    <path clip-path="url(#p7202b0f8a0)" d="M 381.957306 331.446952 
L 385.128586 329.712184 
L 394.195927 327.859305 
L 401.047952 326.936556 
L 407.338993 326.752006 
L 415.484717 326.936556 
" style="fill:none;stroke:#999999;"/>
    <path clip-path="url(#p7202b0f8a0)" d="M 381.957306 331.446952 
L 379.387081 332.856912 
L 373.14756 337.278725 
L 358.49327 350.662274 
" style="fill:none;stroke:#999999;"/>
    <path clip-path="url(#p7202b0f8a0)" d="M 317.157871 329.490725 
L 338.481007 306.422004 
" style="fill:none;stroke:#999999;"/>
    <path clip-path="url(#p7202b0f8a0)" d="M 317.157871 329.490725 
L 300.29399 322.758349 
" style="fill:none;stroke:#999999;"/>
    <path clip-path="url(#p7202b0f8a0)" d="M 317.157871 329.490725 
L 311.788448 335.292969 
L 293.642317 349.075146 
L 285.113062 358.752936 
L 282.594356 363.064018 
" style="fill:none;stroke:#999999;"/>
    <path clip-path="url(#p7202b0f8a0)" d="M 317.157871 329.490725 
L 330.077688 334.252109 
L 345.035367 339.655726 
L 358.49327 350.662274 
" style="fill:none;stroke:#999999;"/>
    <path clip-path="url(#p7202b0f8a0)" d="M 300.29399 322.758349 
L 317.157871 329.490725 
" style="fill:none;stroke:#999999;"/>
    <path clip-path="url(#p7202b0f8a0)" d="M 300.29399 322.758349 
L 302.366198 314.239532 
L 303.064567 303.085344 
" style="fill:none;stroke:#999999;"/>
    <path clip-path="url(#p7202b0f8a0)" d="M 300.29399 322.758349 
L 291.844876 336.053314 
L 279.795158 328.848491 
L 258.87845 317.627866 
L 243.502895 308.902353 
L 239.484414 304.192643 
" style="fill:none;stroke:#999999;"/>
    <path clip-path="url(#p7202b0f8a0)" d="M 239.484414 304.192643 
L 243.502895 308.902353 
L 258.87845 317.627866 
L 279.795158 328.848491 
L 291.844876 336.053314 
L 300.29399 322.758349 
" style="fill:none;stroke:#999999;"/>
    <path clip-path="url(#p7202b0f8a0)" d="M 239.484414 304.192643 
L 264.139111 301.69753 
L 278.547254 299.763448 
" style="fill:none;stroke:#999999;"/>
    <path clip-path="url(#p7202b0f8a0)" d="M 239.484414 304.192643 
L 220.508255 303.779251 
L 208.590196 301.003623 
L 181.302307 289.369605 
L 152.491745 278.289237 
L 128.941845 270.944157 
L 114.12155 266.514962 
L 82.517515 260.771773 
" style="fill:none;stroke:#999999;"/>
    <path clip-path="url(#p7202b0f8a0)" d="M 303.064567 303.085344 
L 278.547254 299.763448 
" style="fill:none;stroke:#999999;"/>
    <path clip-path="url(#p7202b0f8a0)" d="M 303.064567 303.085344 
L 302.366198 314.239532 
L 300.29399 322.758349 
" style="fill:none;stroke:#999999;"/>
    <path clip-path="url(#p7202b0f8a0)" d="M 303.064567 303.085344 
L 308.187843 302.671953 
L 315.669545 300.590231 
L 320.581022 300.590231 
" style="fill:none;stroke:#999999;"/>
    <path clip-path="url(#p7202b0f8a0)" d="M 344.760599 264.019849 
L 339.082062 268.729559 
L 325.921823 279.950185 
" style="fill:none;stroke:#999999;"/>
    <path clip-path="url(#p7202b0f8a0)" d="M 344.760599 264.019849 
L 349.471724 264.019849 
L 356.947701 266.514962 
L 368.871484 272.634632 
" style="fill:none;stroke:#999999;"/>
    <path clip-path="url(#p7202b0f8a0)" d="M 344.760599 264.019849 
L 347.668559 252.658966 
L 353.209712 243.800577 
L 349.471724 236.868888 
L 348.361203 227.589725 
" style="fill:none;stroke:#999999;"/>
    <path clip-path="url(#p7202b0f8a0)" d="M 486.002759 263.938647 
L 480.593266 239.858594 
" style="fill:none;stroke:#999999;"/>
    <path clip-path="url(#p7202b0f8a0)" d="M 486.002759 263.938647 
L 464.164434 272.88562 
L 406.680695 269.703982 
" style="fill:none;stroke:#999999;"/>
    <path clip-path="url(#p7202b0f8a0)" d="M 486.002759 263.938647 
L 490.965755 286.04771 
L 524.630549 336.451942 
" style="fill:none;stroke:#999999;"/>
    <path clip-path="url(#p7202b0f8a0)" d="M 82.517515 260.771773 
L 114.12155 266.514962 
L 128.941845 270.944157 
L 152.491745 278.289237 
L 181.302307 289.369605 
L 208.590196 301.003623 
L 220.508255 303.779251 
L 239.484414 304.192643 
" style="fill:none;stroke:#999999;"/>
    <path clip-path="url(#p7202b0f8a0)" d="M 379.003551 255.23528 
L 406.680695 269.703982 
" style="fill:none;stroke:#999999;"/>
    <path clip-path="url(#p7202b0f8a0)" d="M 379.003551 255.23528 
L 371.315773 269.91806 
L 368.871484 272.634632 
" style="fill:none;stroke:#999999;"/>
    <path clip-path="url(#p7202b0f8a0)" d="M 379.003551 255.23528 
L 388.414352 237.260133 
L 408.266335 196.253175 
" style="fill:none;stroke:#999999;"/>
    <path clip-path="url(#p7202b0f8a0)" d="M 348.361203 227.589725 
L 349.053847 221.772717 
L 352.082019 218.111249 
" style="fill:none;stroke:#999999;"/>
    <path clip-path="url(#p7202b0f8a0)" d="M 348.361203 227.589725 
L 349.471724 236.868888 
L 353.209712 243.800577 
L 347.668559 252.658966 
L 344.760599 264.019849 
" style="fill:none;stroke:#999999;"/>
    <path clip-path="url(#p7202b0f8a0)" d="M 348.361203 227.589725 
L 337.696773 237.267515 
L 329.178968 249.698787 
L 321.960586 273.424505 
L 325.921823 279.950185 
" style="fill:none;stroke:#999999;"/>
    <path clip-path="url(#p7202b0f8a0)" d="M 352.082019 218.111249 
L 319.401809 194.762013 
" style="fill:none;stroke:#999999;"/>
    <path clip-path="url(#p7202b0f8a0)" d="M 352.082019 218.111249 
L 349.053847 221.772717 
L 348.361203 227.589725 
" style="fill:none;stroke:#999999;"/>
    <path clip-path="url(#p7202b0f8a0)" d="M 352.082019 218.111249 
L 355.705521 213.741111 
L 372.048488 204.321691 
L 393.932608 190.192561 
L 410.40151 178.381376 
" style="fill:none;stroke:#999999;"/>
    <path clip-path="url(#p7202b0f8a0)" d="M 319.401809 194.762013 
L 352.082019 218.111249 
" style="fill:none;stroke:#999999;"/>
    <path clip-path="url(#p7202b0f8a0)" d="M 319.401809 194.762013 
L 329.24766 179.385326 
L 342.957434 162.207434 
L 356.255057 142.541811 
L 371.77372 120.927342 
L 385.620878 107.905511 
L 389.919851 98.48609 
L 392.965196 82.142363 
L 399.616869 58.593813 
L 410.000807 43.224508 
L 416.732621 33.84938 
L 448.903365 8.307692 
" style="fill:none;stroke:#999999;"/>
    <path clip-path="url(#p7202b0f8a0)" d="M 319.401809 194.762013 
L 311.51368 207.089937 
L 305.417267 219.690995 
L 297.660797 240.198165 
L 291.844876 249.750461 
L 286.166339 261.524737 
L 278.547254 299.763448 
" style="fill:none;stroke:#999999;"/>
    <path clip-path="url(#p7202b0f8a0)" d="M 566.25789 91.008134 
L 537.85948 64.277946 
L 524.699241 59.701111 
L 487.02169 49.454908 
L 442.148654 42.862791 
" style="fill:none;stroke:#999999;"/>
    <path clip-path="url(#p7202b0f8a0)" d="M 442.148654 42.862791 
L 448.903365 8.307692 
" style="fill:none;stroke:#999999;"/>
    <path clip-path="url(#p7202b0f8a0)" d="M 442.148654 42.862791 
L 487.02169 49.454908 
L 524.699241 59.701111 
L 537.85948 64.277946 
L 566.25789 91.008134 
" style="fill:none;stroke:#999999;"/>
    <path clip-path="url(#p7202b0f8a0)" d="M 442.148654 42.862791 
L 439.853197 54.585392 
L 438.238935 69.615125 
" style="fill:none;stroke:#999999;"/>
    <path clip-path="url(#p7202b0f8a0)" d="M 448.903365 8.307692 
L 442.148654 42.862791 
" style="fill:none;stroke:#999999;"/>
    <path clip-path="url(#p7202b0f8a0)" d="M 448.903365 8.307692 
L 416.732621 33.84938 
L 410.000807 43.224508 
L 399.616869 58.593813 
L 392.965196 82.142363 
L 389.919851 98.48609 
L 385.620878 107.905511 
L 371.77372 120.927342 
L 356.255057 142.541811 
L 342.957434 162.207434 
L 329.24766 179.385326 
L 319.401809 194.762013 
" style="fill:none;stroke:#999999;"/>
    <path clip-path="url(#p7202b0f8a0)" d="M 243.193781 423.692308 
L 262.542022 410.79597 
L 275.221417 397.146669 
" style="fill:none;stroke:#999999;"/>
    <path clip-path="url(#p7202b0f8a0)" d="M 533.079663 312.52691 
L 528.116667 326.589602 
" style="fill:none;stroke:#999999;"/>
    <path clip-path="url(#p7202b0f8a0)" d="M 389.7195 288.380419 
L 400.029021 280.142117 
L 406.680695 269.703982 
" style="fill:none;stroke:#999999;"/>
    <path clip-path="url(#p7202b0f8a0)" d="M 389.7195 288.380419 
L 380.360218 279.256278 
L 368.871484 272.634632 
" style="fill:none;stroke:#999999;"/>
    <path clip-path="url(#p7202b0f8a0)" d="M 389.7195 288.380419 
L 391.162031 289.790379 
L 412.221848 314.859619 
L 423.441538 328.789436 
" style="fill:none;stroke:#999999;"/>
    <path clip-path="url(#p7202b0f8a0)" d="M 528.116667 326.589602 
L 533.079663 312.52691 
" style="fill:none;stroke:#999999;"/>
    <path clip-path="url(#p7202b0f8a0)" d="M 528.116667 326.589602 
L 524.630549 336.451942 
" style="fill:none;stroke:#999999;"/>
    <path clip-path="url(#p7202b0f8a0)" d="M 528.116667 326.589602 
L 501.218033 284.37938 
L 480.593266 239.858594 
" style="fill:none;stroke:#999999;"/>
    <path clip-path="url(#p7202b0f8a0)" d="M 480.593266 239.858594 
L 486.002759 263.938647 
" style="fill:none;stroke:#999999;"/>
    <path clip-path="url(#p7202b0f8a0)" d="M 480.593266 239.858594 
L 476.946866 223.618214 
L 465.841663 172.852264 
" style="fill:none;stroke:#999999;"/>
    <path clip-path="url(#p7202b0f8a0)" d="M 480.593266 239.858594 
L 501.218033 284.37938 
L 528.116667 326.589602 
" style="fill:none;stroke:#999999;"/>
   </g>
  </g>
 </g>
 <defs>
  <clipPath id="p7202b0f8a0">
   <rect height="432" width="503.08999" x="72.842707" y="0"/>
  </clipPath>
 </defs>
</svg>
