<?xml version="1.0" encoding="utf-8" standalone="no"?>
<!DOCTYPE svg PUBLIC "-//W3C//DTD SVG 1.1//EN"
  "http://www.w3.org/Graphics/SVG/1.1/DTD/svg11.dtd">
<!-- Created with matplotlib (http://matplotlib.org/) -->
<svg height="432pt" version="1.1" viewBox="0 0 471.435319 432" width="471.435319pt" xmlns="http://www.w3.org/2000/svg" xmlns:xlink="http://www.w3.org/1999/xlink">
 <defs>
  <style type="text/css">
*{stroke-linecap:butt;stroke-linejoin:round;}
  </style>
 </defs>
 <g id="figure_1">
  <g id="patch_1">
   <path d="M 0 432 
L 471.435319 432 
L 471.435319 0 
L 0 0 
z
" style="fill:none;opacity:0;"/>
  </g>
  <g id="axes_1">
   <g id="PathCollection_1">
    <defs>
     <path d="M 0 1.936492 
C 0.513564 1.936492 1.006162 1.732451 1.369306 1.369306 
C 1.732451 1.006162 1.936492 0.513564 1.936492 0 
C 1.936492 -0.513564 1.732451 -1.006162 1.369306 -1.369306 
C 1.006162 -1.732451 0.513564 -1.936492 0 -1.936492 
C -0.513564 -1.936492 -1.006162 -1.732451 -1.369306 -1.369306 
C -1.732451 -1.006162 -1.936492 -0.513564 -1.936492 0 
C -1.936492 0.513564 -1.732451 1.006162 -1.369306 1.369306 
C -1.006162 1.732451 -0.513564 1.936492 0 1.936492 
z
" id="C0_0_60bad6a05c"/>
    </defs>
    <g clip-path="url(#p5ea95a1e35)">
     <use style="fill:#66ccff;" x="252.202988" xlink:href="#C0_0_60bad6a05c" y="110.661203"/>
    </g>
    <g clip-path="url(#p5ea95a1e35)">
     <use style="fill:#66ccff;" x="257.495274" xlink:href="#C0_0_60bad6a05c" y="193.570999"/>
    </g>
    <g clip-path="url(#p5ea95a1e35)">
     <use style="fill:#66ccff;" x="290.314993" xlink:href="#C0_0_60bad6a05c" y="133.641241"/>
    </g>
    <g clip-path="url(#p5ea95a1e35)">
     <use style="fill:#66ccff;" x="291.390431" xlink:href="#C0_0_60bad6a05c" y="234.529358"/>
    </g>
    <g clip-path="url(#p5ea95a1e35)">
     <use style="fill:#66ccff;" x="361.237284" xlink:href="#C0_0_60bad6a05c" y="52.838706"/>
    </g>
    <g clip-path="url(#p5ea95a1e35)">
     <use style="fill:#66ccff;" x="356.204424" xlink:href="#C0_0_60bad6a05c" y="48.957229"/>
    </g>
    <g clip-path="url(#p5ea95a1e35)">
     <use style="fill:#66ccff;" x="352.59133" xlink:href="#C0_0_60bad6a05c" y="48.176089"/>
    </g>
    <g clip-path="url(#p5ea95a1e35)">
     <use style="fill:#66ccff;" x="361.605197" xlink:href="#C0_0_60bad6a05c" y="46.759139"/>
    </g>
    <g clip-path="url(#p5ea95a1e35)">
     <use style="fill:#66ccff;" x="352.449825" xlink:href="#C0_0_60bad6a05c" y="42.574895"/>
    </g>
    <g clip-path="url(#p5ea95a1e35)">
     <use style="fill:#66ccff;" x="362.279704" xlink:href="#C0_0_60bad6a05c" y="41.521264"/>
    </g>
    <g clip-path="url(#p5ea95a1e35)">
     <use style="fill:#66ccff;" x="350.98289" xlink:href="#C0_0_60bad6a05c" y="40.322306"/>
    </g>
    <g clip-path="url(#p5ea95a1e35)">
     <use style="fill:#66ccff;" x="363.303256" xlink:href="#C0_0_60bad6a05c" y="38.069717"/>
    </g>
    <g clip-path="url(#p5ea95a1e35)">
     <use style="fill:#66ccff;" x="352.558312" xlink:href="#C0_0_60bad6a05c" y="33.431322"/>
    </g>
    <g clip-path="url(#p5ea95a1e35)">
     <use style="fill:#66ccff;" x="356.949683" xlink:href="#C0_0_60bad6a05c" y="31.687383"/>
    </g>
    <g clip-path="url(#p5ea95a1e35)">
     <use style="fill:#66ccff;" x="325.733687" xlink:href="#C0_0_60bad6a05c" y="25.074945"/>
    </g>
    <g clip-path="url(#p5ea95a1e35)">
     <use style="fill:#66ccff;" x="388.231715" xlink:href="#C0_0_60bad6a05c" y="8.307692"/>
    </g>
    <g clip-path="url(#p5ea95a1e35)">
     <use style="fill:#66ccff;" x="115.212028" xlink:href="#C0_0_60bad6a05c" y="186.76479"/>
    </g>
    <g clip-path="url(#p5ea95a1e35)">
     <use style="fill:#66ccff;" x="273.518353" xlink:href="#C0_0_60bad6a05c" y="211.767313"/>
    </g>
    <g clip-path="url(#p5ea95a1e35)">
     <use style="fill:#66ccff;" x="303.088175" xlink:href="#C0_0_60bad6a05c" y="153.23634"/>
    </g>
    <g clip-path="url(#p5ea95a1e35)">
     <use style="fill:#66ccff;" x="233.505465" xlink:href="#C0_0_60bad6a05c" y="143.747613"/>
    </g>
    <g clip-path="url(#p5ea95a1e35)">
     <use style="fill:#66ccff;" x="245.420183" xlink:href="#C0_0_60bad6a05c" y="158.080617"/>
    </g>
    <g clip-path="url(#p5ea95a1e35)">
     <use style="fill:#66ccff;" x="302.941953" xlink:href="#C0_0_60bad6a05c" y="111.908605"/>
    </g>
    <g clip-path="url(#p5ea95a1e35)">
     <use style="fill:#66ccff;" x="277.574829" xlink:href="#C0_0_60bad6a05c" y="125.963062"/>
    </g>
    <g clip-path="url(#p5ea95a1e35)">
     <use style="fill:#66ccff;" x="221.930359" xlink:href="#C0_0_60bad6a05c" y="179.577095"/>
    </g>
    <g clip-path="url(#p5ea95a1e35)">
     <use style="fill:#66ccff;" x="182.011807" xlink:href="#C0_0_60bad6a05c" y="235.595099"/>
    </g>
    <g clip-path="url(#p5ea95a1e35)">
     <use style="fill:#66ccff;" x="156.163566" xlink:href="#C0_0_60bad6a05c" y="277.025776"/>
    </g>
    <g clip-path="url(#p5ea95a1e35)">
     <use style="fill:#66ccff;" x="192.766185" xlink:href="#C0_0_60bad6a05c" y="216.496538"/>
    </g>
    <g clip-path="url(#p5ea95a1e35)">
     <use style="fill:#66ccff;" x="247.670112" xlink:href="#C0_0_60bad6a05c" y="222.691157"/>
    </g>
    <g clip-path="url(#p5ea95a1e35)">
     <use style="fill:#66ccff;" x="220.977558" xlink:href="#C0_0_60bad6a05c" y="237.496478"/>
    </g>
    <g clip-path="url(#p5ea95a1e35)">
     <use style="fill:#66ccff;" x="185.709803" xlink:href="#C0_0_60bad6a05c" y="294.737662"/>
    </g>
    <g clip-path="url(#p5ea95a1e35)">
     <use style="fill:#66ccff;" x="59.166627" xlink:href="#C0_0_60bad6a05c" y="265.962659"/>
    </g>
    <g clip-path="url(#p5ea95a1e35)">
     <use style="fill:#66ccff;" x="140.513116" xlink:href="#C0_0_60bad6a05c" y="279.496357"/>
    </g>
    <g clip-path="url(#p5ea95a1e35)">
     <use style="fill:#66ccff;" x="190.884168" xlink:href="#C0_0_60bad6a05c" y="351.215873"/>
    </g>
    <g clip-path="url(#p5ea95a1e35)">
     <use style="fill:#66ccff;" x="138.999013" xlink:href="#C0_0_60bad6a05c" y="324.160588"/>
    </g>
    <g clip-path="url(#p5ea95a1e35)">
     <use style="fill:#66ccff;" x="148.234571" xlink:href="#C0_0_60bad6a05c" y="276.589791"/>
    </g>
    <g clip-path="url(#p5ea95a1e35)">
     <use style="fill:#66ccff;" x="213.822124" xlink:href="#C0_0_60bad6a05c" y="311.607856"/>
    </g>
    <g clip-path="url(#p5ea95a1e35)">
     <use style="fill:#66ccff;" x="230.972526" xlink:href="#C0_0_60bad6a05c" y="423.601478"/>
    </g>
    <g clip-path="url(#p5ea95a1e35)">
     <use style="fill:#66ccff;" x="227.052838" xlink:href="#C0_0_60bad6a05c" y="318.971156"/>
    </g>
    <g clip-path="url(#p5ea95a1e35)">
     <use style="fill:#66ccff;" x="266.273299" xlink:href="#C0_0_60bad6a05c" y="339.722827"/>
    </g>
    <g clip-path="url(#p5ea95a1e35)">
     <use style="fill:#66ccff;" x="304.097577" xlink:href="#C0_0_60bad6a05c" y="264.315605"/>
    </g>
    <g clip-path="url(#p5ea95a1e35)">
     <use style="fill:#66ccff;" x="412.268692" xlink:href="#C0_0_60bad6a05c" y="166.01312"/>
    </g>
    <g clip-path="url(#p5ea95a1e35)">
     <use style="fill:#66ccff;" x="354.680887" xlink:href="#C0_0_60bad6a05c" y="142.391216"/>
    </g>
   </g>
   <g id="LineCollection_1">
    <path clip-path="url(#p5ea95a1e35)" d="M 252.202988 110.661203 
L 261.377227 116.19579 
L 277.574829 125.963062 
" style="fill:none;stroke:#999999;"/>
    <path clip-path="url(#p5ea95a1e35)" d="M 257.495274 193.570999 
L 273.518353 211.767313 
" style="fill:none;stroke:#999999;"/>
    <path clip-path="url(#p5ea95a1e35)" d="M 257.495274 193.570999 
L 221.930359 179.577095 
" style="fill:none;stroke:#999999;"/>
    <path clip-path="url(#p5ea95a1e35)" d="M 257.495274 193.570999 
L 247.670112 222.691157 
" style="fill:none;stroke:#999999;"/>
    <path clip-path="url(#p5ea95a1e35)" d="M 257.495274 193.570999 
L 265.183711 170.778677 
L 290.314993 133.641241 
" style="fill:none;stroke:#999999;"/>
    <path clip-path="url(#p5ea95a1e35)" d="M 290.314993 133.641241 
L 302.941953 111.908605 
" style="fill:none;stroke:#999999;"/>
    <path clip-path="url(#p5ea95a1e35)" d="M 290.314993 133.641241 
L 303.088175 153.23634 
" style="fill:none;stroke:#999999;"/>
    <path clip-path="url(#p5ea95a1e35)" d="M 290.314993 133.641241 
L 265.183711 170.778677 
L 257.495274 193.570999 
" style="fill:none;stroke:#999999;"/>
    <path clip-path="url(#p5ea95a1e35)" d="M 291.390431 234.529358 
L 281.57942 220.922996 
L 273.518353 211.767313 
" style="fill:none;stroke:#999999;"/>
    <path clip-path="url(#p5ea95a1e35)" d="M 291.390431 234.529358 
L 299.795826 250.654744 
L 304.097577 264.315605 
" style="fill:none;stroke:#999999;"/>
    <path clip-path="url(#p5ea95a1e35)" d="M 291.390431 234.529358 
L 353.879025 144.153321 
L 354.680887 142.391216 
" style="fill:none;stroke:#999999;"/>
    <path clip-path="url(#p5ea95a1e35)" d="M 291.390431 234.529358 
L 255.896268 277.092384 
L 243.118369 293.665866 
L 227.052838 318.971156 
" style="fill:none;stroke:#999999;"/>
    <path clip-path="url(#p5ea95a1e35)" d="M 361.237284 52.838706 
L 361.605197 46.759139 
" style="fill:none;stroke:#999999;"/>
    <path clip-path="url(#p5ea95a1e35)" d="M 361.237284 52.838706 
L 358.265679 83.769412 
L 357.652491 103.576449 
L 359.959022 121.403387 
L 359.855252 131.049553 
L 354.680887 142.391216 
" style="fill:none;stroke:#999999;"/>
    <path clip-path="url(#p5ea95a1e35)" d="M 356.204424 48.957229 
L 361.237284 52.838706 
" style="fill:none;stroke:#999999;"/>
    <path clip-path="url(#p5ea95a1e35)" d="M 356.204424 48.957229 
L 359.996757 47.74616 
L 361.605197 46.759139 
" style="fill:none;stroke:#999999;"/>
    <path clip-path="url(#p5ea95a1e35)" d="M 352.59133 48.176089 
L 356.204424 48.957229 
" style="fill:none;stroke:#999999;"/>
    <path clip-path="url(#p5ea95a1e35)" d="M 352.59133 48.176089 
L 342.935974 61.473629 
L 326.328008 71.652665 
L 302.941953 111.908605 
" style="fill:none;stroke:#999999;"/>
    <path clip-path="url(#p5ea95a1e35)" d="M 361.605197 46.759139 
L 361.628781 45.003088 
L 362.279704 41.521264 
" style="fill:none;stroke:#999999;"/>
    <path clip-path="url(#p5ea95a1e35)" d="M 352.449825 42.574895 
L 352.59133 48.176089 
" style="fill:none;stroke:#999999;"/>
    <path clip-path="url(#p5ea95a1e35)" d="M 352.449825 42.574895 
L 354.515798 43.949458 
L 356.949683 44.421775 
L 359.378852 43.937347 
L 360.949557 42.998769 
L 362.279704 41.521264 
" style="fill:none;stroke:#999999;"/>
    <path clip-path="url(#p5ea95a1e35)" d="M 362.279704 41.521264 
L 362.817422 40.503966 
L 363.303256 38.069717 
" style="fill:none;stroke:#999999;"/>
    <path clip-path="url(#p5ea95a1e35)" d="M 350.98289 40.322306 
L 351.05836 40.510022 
L 352.449825 42.574895 
" style="fill:none;stroke:#999999;"/>
    <path clip-path="url(#p5ea95a1e35)" d="M 363.303256 38.069717 
L 362.826856 35.635468 
L 361.454258 33.56454 
L 359.393002 32.177866 
L 356.949683 31.687383 
" style="fill:none;stroke:#999999;"/>
    <path clip-path="url(#p5ea95a1e35)" d="M 363.303256 38.069717 
L 366.317312 33.425267 
L 371.713368 25.571483 
L 376.977353 19.715964 
L 388.231715 8.307692 
" style="fill:none;stroke:#999999;"/>
    <path clip-path="url(#p5ea95a1e35)" d="M 352.558312 33.431322 
L 352.430958 33.552429 
L 351.048926 35.629413 
L 350.567809 38.069717 
L 350.98289 40.322306 
" style="fill:none;stroke:#999999;"/>
    <path clip-path="url(#p5ea95a1e35)" d="M 352.558312 33.431322 
L 350.011223 34.333569 
L 346.044367 34.636336 
L 342.685982 34.478897 
L 339.124774 33.273883 
L 334.667367 30.439981 
L 330.139208 27.285146 
L 325.733687 25.074945 
" style="fill:none;stroke:#999999;"/>
    <path clip-path="url(#p5ea95a1e35)" d="M 356.949683 31.687383 
L 354.506364 32.165755 
L 352.558312 33.431322 
" style="fill:none;stroke:#999999;"/>
    <path clip-path="url(#p5ea95a1e35)" d="M 325.733687 25.074945 
L 329.375081 29.483237 
L 332.931573 32.414024 
L 337.973867 35.562804 
L 342.605796 37.343076 
L 349.53954 39.529056 
L 350.98289 40.322306 
" style="fill:none;stroke:#999999;"/>
    <path clip-path="url(#p5ea95a1e35)" d="M 388.231715 8.307692 
L 375.312311 17.89936 
L 368.637993 23.458168 
L 358.996788 30.41576 
L 356.949683 31.687383 
" style="fill:none;stroke:#999999;"/>
    <path clip-path="url(#p5ea95a1e35)" d="M 115.212028 186.76479 
L 182.011807 235.595099 
" style="fill:none;stroke:#999999;"/>
    <path clip-path="url(#p5ea95a1e35)" d="M 273.518353 211.767313 
L 257.495274 193.570999 
" style="fill:none;stroke:#999999;"/>
    <path clip-path="url(#p5ea95a1e35)" d="M 273.518353 211.767313 
L 281.57942 220.922996 
L 291.390431 234.529358 
" style="fill:none;stroke:#999999;"/>
    <path clip-path="url(#p5ea95a1e35)" d="M 273.518353 211.767313 
L 287.527345 199.032921 
L 303.21553 177.021739 
L 307.517281 165.001877 
L 303.088175 153.23634 
" style="fill:none;stroke:#999999;"/>
    <path clip-path="url(#p5ea95a1e35)" d="M 303.088175 153.23634 
L 290.314993 133.641241 
" style="fill:none;stroke:#999999;"/>
    <path clip-path="url(#p5ea95a1e35)" d="M 303.088175 153.23634 
L 307.517281 165.001877 
L 303.21553 177.021739 
L 287.527345 199.032921 
L 273.518353 211.767313 
" style="fill:none;stroke:#999999;"/>
    <path clip-path="url(#p5ea95a1e35)" d="M 303.088175 153.23634 
L 335.346591 131.600589 
L 354.680887 142.391216 
" style="fill:none;stroke:#999999;"/>
    <path clip-path="url(#p5ea95a1e35)" d="M 233.505465 143.747613 
L 245.420183 158.080617 
" style="fill:none;stroke:#999999;"/>
    <path clip-path="url(#p5ea95a1e35)" d="M 245.420183 158.080617 
L 233.505465 143.747613 
" style="fill:none;stroke:#999999;"/>
    <path clip-path="url(#p5ea95a1e35)" d="M 245.420183 158.080617 
L 221.930359 179.577095 
" style="fill:none;stroke:#999999;"/>
    <path clip-path="url(#p5ea95a1e35)" d="M 245.420183 158.080617 
L 250.707752 153.23634 
L 277.574829 125.963062 
" style="fill:none;stroke:#999999;"/>
    <path clip-path="url(#p5ea95a1e35)" d="M 302.941953 111.908605 
L 290.314993 133.641241 
" style="fill:none;stroke:#999999;"/>
    <path clip-path="url(#p5ea95a1e35)" d="M 302.941953 111.908605 
L 326.328008 71.652665 
L 342.935974 61.473629 
L 352.59133 48.176089 
" style="fill:none;stroke:#999999;"/>
    <path clip-path="url(#p5ea95a1e35)" d="M 302.941953 111.908605 
L 289.928213 114.778839 
L 277.574829 125.963062 
" style="fill:none;stroke:#999999;"/>
    <path clip-path="url(#p5ea95a1e35)" d="M 277.574829 125.963062 
L 289.928213 114.778839 
L 302.941953 111.908605 
" style="fill:none;stroke:#999999;"/>
    <path clip-path="url(#p5ea95a1e35)" d="M 277.574829 125.963062 
L 261.377227 116.19579 
L 252.202988 110.661203 
" style="fill:none;stroke:#999999;"/>
    <path clip-path="url(#p5ea95a1e35)" d="M 277.574829 125.963062 
L 250.707752 153.23634 
L 245.420183 158.080617 
" style="fill:none;stroke:#999999;"/>
    <path clip-path="url(#p5ea95a1e35)" d="M 221.930359 179.577095 
L 257.495274 193.570999 
" style="fill:none;stroke:#999999;"/>
    <path clip-path="url(#p5ea95a1e35)" d="M 221.930359 179.577095 
L 245.420183 158.080617 
" style="fill:none;stroke:#999999;"/>
    <path clip-path="url(#p5ea95a1e35)" d="M 221.930359 179.577095 
L 217.831431 177.960317 
L 209.71848 190.682599 
L 192.766185 216.496538 
" style="fill:none;stroke:#999999;"/>
    <path clip-path="url(#p5ea95a1e35)" d="M 182.011807 235.595099 
L 115.212028 186.76479 
" style="fill:none;stroke:#999999;"/>
    <path clip-path="url(#p5ea95a1e35)" d="M 182.011807 235.595099 
L 192.766185 216.496538 
" style="fill:none;stroke:#999999;"/>
    <path clip-path="url(#p5ea95a1e35)" d="M 182.011807 235.595099 
L 156.163566 277.025776 
" style="fill:none;stroke:#999999;"/>
    <path clip-path="url(#p5ea95a1e35)" d="M 156.163566 277.025776 
L 148.234571 276.589791 
" style="fill:none;stroke:#999999;"/>
    <path clip-path="url(#p5ea95a1e35)" d="M 156.163566 277.025776 
L 182.011807 235.595099 
" style="fill:none;stroke:#999999;"/>
    <path clip-path="url(#p5ea95a1e35)" d="M 156.163566 277.025776 
L 157.470128 277.092384 
L 166.196268 281.270573 
L 179.606222 290.377813 
L 185.709803 294.737662 
" style="fill:none;stroke:#999999;"/>
    <path clip-path="url(#p5ea95a1e35)" d="M 192.766185 216.496538 
L 182.011807 235.595099 
" style="fill:none;stroke:#999999;"/>
    <path clip-path="url(#p5ea95a1e35)" d="M 192.766185 216.496538 
L 220.977558 237.496478 
" style="fill:none;stroke:#999999;"/>
    <path clip-path="url(#p5ea95a1e35)" d="M 192.766185 216.496538 
L 209.71848 190.682599 
L 217.831431 177.960317 
L 221.930359 179.577095 
" style="fill:none;stroke:#999999;"/>
    <path clip-path="url(#p5ea95a1e35)" d="M 247.670112 222.691157 
L 257.495274 193.570999 
" style="fill:none;stroke:#999999;"/>
    <path clip-path="url(#p5ea95a1e35)" d="M 247.670112 222.691157 
L 220.977558 237.496478 
" style="fill:none;stroke:#999999;"/>
    <path clip-path="url(#p5ea95a1e35)" d="M 247.670112 222.691157 
L 227.354716 282.923682 
L 213.822124 311.607856 
" style="fill:none;stroke:#999999;"/>
    <path clip-path="url(#p5ea95a1e35)" d="M 220.977558 237.496478 
L 192.766185 216.496538 
" style="fill:none;stroke:#999999;"/>
    <path clip-path="url(#p5ea95a1e35)" d="M 220.977558 237.496478 
L 247.670112 222.691157 
" style="fill:none;stroke:#999999;"/>
    <path clip-path="url(#p5ea95a1e35)" d="M 220.977558 237.496478 
L 205.039382 262.293119 
L 185.709803 294.737662 
" style="fill:none;stroke:#999999;"/>
    <path clip-path="url(#p5ea95a1e35)" d="M 185.709803 294.737662 
L 195.549116 301.767919 
L 213.822124 311.607856 
" style="fill:none;stroke:#999999;"/>
    <path clip-path="url(#p5ea95a1e35)" d="M 185.709803 294.737662 
L 179.606222 290.377813 
L 166.196268 281.270573 
L 157.470128 277.092384 
L 156.163566 277.025776 
" style="fill:none;stroke:#999999;"/>
    <path clip-path="url(#p5ea95a1e35)" d="M 185.709803 294.737662 
L 205.039382 262.293119 
L 220.977558 237.496478 
" style="fill:none;stroke:#999999;"/>
    <path clip-path="url(#p5ea95a1e35)" d="M 59.166627 265.962659 
L 90.033577 266.465252 
L 140.513116 279.496357 
" style="fill:none;stroke:#999999;"/>
    <path clip-path="url(#p5ea95a1e35)" d="M 140.513116 279.496357 
L 148.234571 276.589791 
" style="fill:none;stroke:#999999;"/>
    <path clip-path="url(#p5ea95a1e35)" d="M 140.513116 279.496357 
L 90.033577 266.465252 
L 59.166627 265.962659 
" style="fill:none;stroke:#999999;"/>
    <path clip-path="url(#p5ea95a1e35)" d="M 140.513116 279.496357 
L 134.06049 320.872535 
L 138.999013 324.160588 
" style="fill:none;stroke:#999999;"/>
    <path clip-path="url(#p5ea95a1e35)" d="M 190.884168 351.215873 
L 138.999013 324.160588 
" style="fill:none;stroke:#999999;"/>
    <path clip-path="url(#p5ea95a1e35)" d="M 190.884168 351.215873 
L 186.695621 358.252185 
L 174.431857 392.707103 
L 167.866027 423.692308 
L 172.479089 417.655128 
L 181.757098 405.514159 
L 200.987623 368.061845 
L 217.562572 336.307612 
L 227.052838 318.971156 
" style="fill:none;stroke:#999999;"/>
    <path clip-path="url(#p5ea95a1e35)" d="M 190.884168 351.215873 
L 211.411823 316.712512 
L 213.822124 311.607856 
" style="fill:none;stroke:#999999;"/>
    <path clip-path="url(#p5ea95a1e35)" d="M 138.999013 324.160588 
L 148.234571 276.589791 
" style="fill:none;stroke:#999999;"/>
    <path clip-path="url(#p5ea95a1e35)" d="M 138.999013 324.160588 
L 190.884168 351.215873 
" style="fill:none;stroke:#999999;"/>
    <path clip-path="url(#p5ea95a1e35)" d="M 138.999013 324.160588 
L 134.06049 320.872535 
L 140.513116 279.496357 
" style="fill:none;stroke:#999999;"/>
    <path clip-path="url(#p5ea95a1e35)" d="M 148.234571 276.589791 
L 156.163566 277.025776 
" style="fill:none;stroke:#999999;"/>
    <path clip-path="url(#p5ea95a1e35)" d="M 148.234571 276.589791 
L 138.999013 324.160588 
" style="fill:none;stroke:#999999;"/>
    <path clip-path="url(#p5ea95a1e35)" d="M 148.234571 276.589791 
L 140.513116 279.496357 
" style="fill:none;stroke:#999999;"/>
    <path clip-path="url(#p5ea95a1e35)" d="M 213.822124 311.607856 
L 227.052838 318.971156 
" style="fill:none;stroke:#999999;"/>
    <path clip-path="url(#p5ea95a1e35)" d="M 213.822124 311.607856 
L 195.549116 301.767919 
L 185.709803 294.737662 
" style="fill:none;stroke:#999999;"/>
    <path clip-path="url(#p5ea95a1e35)" d="M 213.822124 311.607856 
L 211.411823 316.712512 
L 190.884168 351.215873 
" style="fill:none;stroke:#999999;"/>
    <path clip-path="url(#p5ea95a1e35)" d="M 213.822124 311.607856 
L 227.354716 282.923682 
L 247.670112 222.691157 
" style="fill:none;stroke:#999999;"/>
    <path clip-path="url(#p5ea95a1e35)" d="M 230.972526 423.601478 
L 237.425153 411.460509 
L 251.721871 375.903518 
L 266.273299 339.722827 
" style="fill:none;stroke:#999999;"/>
    <path clip-path="url(#p5ea95a1e35)" d="M 227.052838 318.971156 
L 213.822124 311.607856 
" style="fill:none;stroke:#999999;"/>
    <path clip-path="url(#p5ea95a1e35)" d="M 227.052838 318.971156 
L 240.462793 326.055911 
L 266.273299 339.722827 
" style="fill:none;stroke:#999999;"/>
    <path clip-path="url(#p5ea95a1e35)" d="M 227.052838 318.971156 
L 243.118369 293.665866 
L 255.896268 277.092384 
L 291.390431 234.529358 
" style="fill:none;stroke:#999999;"/>
    <path clip-path="url(#p5ea95a1e35)" d="M 227.052838 318.971156 
L 217.562572 336.307612 
L 200.987623 368.061845 
L 181.757098 405.514159 
L 172.479089 417.655128 
L 167.866027 423.692308 
L 174.431857 392.707103 
L 186.695621 358.252185 
L 190.884168 351.215873 
" style="fill:none;stroke:#999999;"/>
    <path clip-path="url(#p5ea95a1e35)" d="M 266.273299 339.722827 
L 276.140912 343.640635 
L 322.950756 363.126738 
L 334.587181 366.541953 
L 340.492655 354.098218 
L 346.355678 341.745312 
L 344.332157 333.140666 
L 337.87953 316.948671 
L 319.658407 292.781786 
L 310.804913 282.281816 
L 304.097577 264.315605 
" style="fill:none;stroke:#999999;"/>
    <path clip-path="url(#p5ea95a1e35)" d="M 266.273299 339.722827 
L 273.480619 320.491048 
L 279.805891 304.674485 
L 290.942332 285.569869 
L 304.097577 264.315605 
" style="fill:none;stroke:#999999;"/>
    <path clip-path="url(#p5ea95a1e35)" d="M 266.273299 339.722827 
L 240.462793 326.055911 
L 227.052838 318.971156 
" style="fill:none;stroke:#999999;"/>
    <path clip-path="url(#p5ea95a1e35)" d="M 266.273299 339.722827 
L 251.721871 375.903518 
L 237.425153 411.460509 
L 230.972526 423.601478 
" style="fill:none;stroke:#999999;"/>
    <path clip-path="url(#p5ea95a1e35)" d="M 304.097577 264.315605 
L 299.795826 250.654744 
L 291.390431 234.529358 
" style="fill:none;stroke:#999999;"/>
    <path clip-path="url(#p5ea95a1e35)" d="M 304.097577 264.315605 
L 310.804913 282.281816 
L 319.658407 292.781786 
L 337.87953 316.948671 
L 344.332157 333.140666 
L 346.355678 341.745312 
L 340.492655 354.098218 
L 334.587181 366.541953 
L 322.950756 363.126738 
L 276.140912 343.640635 
L 266.273299 339.722827 
" style="fill:none;stroke:#999999;"/>
    <path clip-path="url(#p5ea95a1e35)" d="M 304.097577 264.315605 
L 290.942332 285.569869 
L 279.805891 304.674485 
L 273.480619 320.491048 
L 266.273299 339.722827 
" style="fill:none;stroke:#999999;"/>
    <path clip-path="url(#p5ea95a1e35)" d="M 412.268692 166.01312 
L 354.680887 142.391216 
" style="fill:none;stroke:#999999;"/>
    <path clip-path="url(#p5ea95a1e35)" d="M 354.680887 142.391216 
L 412.268692 166.01312 
" style="fill:none;stroke:#999999;"/>
    <path clip-path="url(#p5ea95a1e35)" d="M 354.680887 142.391216 
L 353.879025 144.153321 
L 291.390431 234.529358 
" style="fill:none;stroke:#999999;"/>
    <path clip-path="url(#p5ea95a1e35)" d="M 354.680887 142.391216 
L 359.855252 131.049553 
L 359.959022 121.403387 
L 357.652491 103.576449 
L 358.265679 83.769412 
L 361.237284 52.838706 
" style="fill:none;stroke:#999999;"/>
    <path clip-path="url(#p5ea95a1e35)" d="M 354.680887 142.391216 
L 335.346591 131.600589 
L 303.088175 153.23634 
" style="fill:none;stroke:#999999;"/>
   </g>
  </g>
 </g>
 <defs>
  <clipPath id="p5ea95a1e35">
   <rect height="432" width="367.226148" x="52.104585" y="0"/>
  </clipPath>
 </defs>
</svg>
