<?xml version="1.0" encoding="utf-8" standalone="no"?>
<!DOCTYPE svg PUBLIC "-//W3C//DTD SVG 1.1//EN"
  "http://www.w3.org/Graphics/SVG/1.1/DTD/svg11.dtd">
<!-- Created with matplotlib (http://matplotlib.org/) -->
<svg height="432pt" version="1.1" viewBox="0 0 632.224448 432" width="632.224448pt" xmlns="http://www.w3.org/2000/svg" xmlns:xlink="http://www.w3.org/1999/xlink">
 <defs>
  <style type="text/css">
*{stroke-linecap:butt;stroke-linejoin:round;}
  </style>
 </defs>
 <g id="figure_1">
  <g id="patch_1">
   <path d="M 0 432 
L 632.224448 432 
L 632.224448 0 
L 0 0 
z
" style="fill:none;opacity:0;"/>
  </g>
  <g id="axes_1">
   <g id="PathCollection_1">
    <defs>
     <path d="M 0 1.936492 
C 0.513564 1.936492 1.006162 1.732451 1.369306 1.369306 
C 1.732451 1.006162 1.936492 0.513564 1.936492 0 
C 1.936492 -0.513564 1.732451 -1.006162 1.369306 -1.369306 
C 1.006162 -1.732451 0.513564 -1.936492 0 -1.936492 
C -0.513564 -1.936492 -1.006162 -1.732451 -1.369306 -1.369306 
C -1.732451 -1.006162 -1.936492 -0.513564 -1.936492 0 
C -1.936492 0.513564 -1.732451 1.006162 -1.369306 1.369306 
C -1.006162 1.732451 -0.513564 1.936492 0 1.936492 
z
" id="C0_0_9ea676509c"/>
    </defs>
    <g clip-path="url(#pa945fa9139)">
     <use style="fill:#66ccff;" x="331.109332" xlink:href="#C0_0_9ea676509c" y="88.169834"/>
    </g>
    <g clip-path="url(#pa945fa9139)">
     <use style="fill:#66ccff;" x="78.70716" xlink:href="#C0_0_9ea676509c" y="423.692308"/>
    </g>
    <g clip-path="url(#pa945fa9139)">
     <use style="fill:#66ccff;" x="338.745857" xlink:href="#C0_0_9ea676509c" y="81.845519"/>
    </g>
    <g clip-path="url(#pa945fa9139)">
     <use style="fill:#66ccff;" x="410.962506" xlink:href="#C0_0_9ea676509c" y="111.136693"/>
    </g>
    <g clip-path="url(#pa945fa9139)">
     <use style="fill:#66ccff;" x="339.207865" xlink:href="#C0_0_9ea676509c" y="80.509728"/>
    </g>
    <g clip-path="url(#pa945fa9139)">
     <use style="fill:#66ccff;" x="336.278664" xlink:href="#C0_0_9ea676509c" y="79.281607"/>
    </g>
    <g clip-path="url(#pa945fa9139)">
     <use style="fill:#66ccff;" x="361.714827" xlink:href="#C0_0_9ea676509c" y="107.35341"/>
    </g>
    <g clip-path="url(#pa945fa9139)">
     <use style="fill:#66ccff;" x="523.485228" xlink:href="#C0_0_9ea676509c" y="30.72745"/>
    </g>
    <g clip-path="url(#pa945fa9139)">
     <use style="fill:#66ccff;" x="340.900841" xlink:href="#C0_0_9ea676509c" y="79.758724"/>
    </g>
    <g clip-path="url(#pa945fa9139)">
     <use style="fill:#66ccff;" x="361.148224" xlink:href="#C0_0_9ea676509c" y="128.230782"/>
    </g>
    <g clip-path="url(#pa945fa9139)">
     <use style="fill:#66ccff;" x="341.444317" xlink:href="#C0_0_9ea676509c" y="83.050086"/>
    </g>
    <g clip-path="url(#pa945fa9139)">
     <use style="fill:#66ccff;" x="360.002403" xlink:href="#C0_0_9ea676509c" y="113.696567"/>
    </g>
    <g clip-path="url(#pa945fa9139)">
     <use style="fill:#66ccff;" x="254.623188" xlink:href="#C0_0_9ea676509c" y="54.00319"/>
    </g>
    <g clip-path="url(#pa945fa9139)">
     <use style="fill:#66ccff;" x="337.751937" xlink:href="#C0_0_9ea676509c" y="78.762769"/>
    </g>
    <g clip-path="url(#pa945fa9139)">
     <use style="fill:#66ccff;" x="348.459051" xlink:href="#C0_0_9ea676509c" y="84.360305"/>
    </g>
    <g clip-path="url(#pa945fa9139)">
     <use style="fill:#66ccff;" x="366.503095" xlink:href="#C0_0_9ea676509c" y="138.35655"/>
    </g>
    <g clip-path="url(#pa945fa9139)">
     <use style="fill:#66ccff;" x="497.0378" xlink:href="#C0_0_9ea676509c" y="27.195846"/>
    </g>
    <g clip-path="url(#pa945fa9139)">
     <use style="fill:#66ccff;" x="333.023062" xlink:href="#C0_0_9ea676509c" y="72.410863"/>
    </g>
    <g clip-path="url(#pa945fa9139)">
     <use style="fill:#66ccff;" x="398.320637" xlink:href="#C0_0_9ea676509c" y="116.302874"/>
    </g>
    <g clip-path="url(#pa945fa9139)">
     <use style="fill:#66ccff;" x="366.327543" xlink:href="#C0_0_9ea676509c" y="123.903088"/>
    </g>
    <g clip-path="url(#pa945fa9139)">
     <use style="fill:#66ccff;" x="366.61137" xlink:href="#C0_0_9ea676509c" y="109.599019"/>
    </g>
    <g clip-path="url(#pa945fa9139)">
     <use style="fill:#66ccff;" x="369.659357" xlink:href="#C0_0_9ea676509c" y="121.118452"/>
    </g>
    <g clip-path="url(#pa945fa9139)">
     <use style="fill:#66ccff;" x="499.85347" xlink:href="#C0_0_9ea676509c" y="22.616472"/>
    </g>
    <g clip-path="url(#pa945fa9139)">
     <use style="fill:#66ccff;" x="337.808702" xlink:href="#C0_0_9ea676509c" y="77.067626"/>
    </g>
    <g clip-path="url(#pa945fa9139)">
     <use style="fill:#66ccff;" x="304.030125" xlink:href="#C0_0_9ea676509c" y="54.376673"/>
    </g>
    <g clip-path="url(#pa945fa9139)">
     <use style="fill:#66ccff;" x="360.408171" xlink:href="#C0_0_9ea676509c" y="93.593752"/>
    </g>
    <g clip-path="url(#pa945fa9139)">
     <use style="fill:#66ccff;" x="510.801311" xlink:href="#C0_0_9ea676509c" y="27.574713"/>
    </g>
    <g clip-path="url(#pa945fa9139)">
     <use style="fill:#66ccff;" x="372.933881" xlink:href="#C0_0_9ea676509c" y="113.504779"/>
    </g>
    <g clip-path="url(#pa945fa9139)">
     <use style="fill:#66ccff;" x="281.106883" xlink:href="#C0_0_9ea676509c" y="54.167388"/>
    </g>
    <g clip-path="url(#pa945fa9139)">
     <use style="fill:#66ccff;" x="367.696746" xlink:href="#C0_0_9ea676509c" y="117.52763"/>
    </g>
    <g clip-path="url(#pa945fa9139)">
     <use style="fill:#66ccff;" x="553.517287" xlink:href="#C0_0_9ea676509c" y="33.969014"/>
    </g>
    <g clip-path="url(#pa945fa9139)">
     <use style="fill:#66ccff;" x="546.352756" xlink:href="#C0_0_9ea676509c" y="33.604279"/>
    </g>
    <g clip-path="url(#pa945fa9139)">
     <use style="fill:#66ccff;" x="257.64437" xlink:href="#C0_0_9ea676509c" y="51.532817"/>
    </g>
    <g clip-path="url(#pa945fa9139)">
     <use style="fill:#66ccff;" x="372.779353" xlink:href="#C0_0_9ea676509c" y="117.671639"/>
    </g>
    <g clip-path="url(#pa945fa9139)">
     <use style="fill:#66ccff;" x="524.105443" xlink:href="#C0_0_9ea676509c" y="31.656783"/>
    </g>
    <g clip-path="url(#pa945fa9139)">
     <use style="fill:#66ccff;" x="539.569814" xlink:href="#C0_0_9ea676509c" y="29.574699"/>
    </g>
    <g clip-path="url(#pa945fa9139)">
     <use style="fill:#66ccff;" x="364.839553" xlink:href="#C0_0_9ea676509c" y="97.018357"/>
    </g>
    <g clip-path="url(#pa945fa9139)">
     <use style="fill:#66ccff;" x="390.827602" xlink:href="#C0_0_9ea676509c" y="124.240233"/>
    </g>
    <g clip-path="url(#pa945fa9139)">
     <use style="fill:#66ccff;" x="524.915401" xlink:href="#C0_0_9ea676509c" y="30.932024"/>
    </g>
    <g clip-path="url(#pa945fa9139)">
     <use style="fill:#66ccff;" x="368.631798" xlink:href="#C0_0_9ea676509c" y="105.875628"/>
    </g>
    <g clip-path="url(#pa945fa9139)">
     <use style="fill:#66ccff;" x="384.637018" xlink:href="#C0_0_9ea676509c" y="111.422021"/>
    </g>
    <g clip-path="url(#pa945fa9139)">
     <use style="fill:#66ccff;" x="363.126604" xlink:href="#C0_0_9ea676509c" y="102.031779"/>
    </g>
    <g clip-path="url(#pa945fa9139)">
     <use style="fill:#66ccff;" x="350.995624" xlink:href="#C0_0_9ea676509c" y="57.613527"/>
    </g>
    <g clip-path="url(#pa945fa9139)">
     <use style="fill:#66ccff;" x="524.339337" xlink:href="#C0_0_9ea676509c" y="30.219378"/>
    </g>
    <g clip-path="url(#pa945fa9139)">
     <use style="fill:#66ccff;" x="274.470586" xlink:href="#C0_0_9ea676509c" y="155.585901"/>
    </g>
    <g clip-path="url(#pa945fa9139)">
     <use style="fill:#66ccff;" x="524.339337" xlink:href="#C0_0_9ea676509c" y="29.600271"/>
    </g>
    <g clip-path="url(#pa945fa9139)">
     <use style="fill:#66ccff;" x="255.385316" xlink:href="#C0_0_9ea676509c" y="61.923725"/>
    </g>
    <g clip-path="url(#pa945fa9139)">
     <use style="fill:#66ccff;" x="399.033358" xlink:href="#C0_0_9ea676509c" y="116.01149"/>
    </g>
    <g clip-path="url(#pa945fa9139)">
     <use style="fill:#66ccff;" x="388.047148" xlink:href="#C0_0_9ea676509c" y="120.501363"/>
    </g>
    <g clip-path="url(#pa945fa9139)">
     <use style="fill:#66ccff;" x="488.064133" xlink:href="#C0_0_9ea676509c" y="27.000693"/>
    </g>
    <g clip-path="url(#pa945fa9139)">
     <use style="fill:#66ccff;" x="380.878937" xlink:href="#C0_0_9ea676509c" y="115.778652"/>
    </g>
    <g clip-path="url(#pa945fa9139)">
     <use style="fill:#66ccff;" x="369.802848" xlink:href="#C0_0_9ea676509c" y="132.695084"/>
    </g>
    <g clip-path="url(#pa945fa9139)">
     <use style="fill:#66ccff;" x="379.897105" xlink:href="#C0_0_9ea676509c" y="117.368142"/>
    </g>
    <g clip-path="url(#pa945fa9139)">
     <use style="fill:#66ccff;" x="374.725145" xlink:href="#C0_0_9ea676509c" y="124.297433"/>
    </g>
    <g clip-path="url(#pa945fa9139)">
     <use style="fill:#66ccff;" x="345.384783" xlink:href="#C0_0_9ea676509c" y="86.607934"/>
    </g>
    <g clip-path="url(#pa945fa9139)">
     <use style="fill:#66ccff;" x="374.786115" xlink:href="#C0_0_9ea676509c" y="114.728188"/>
    </g>
    <g clip-path="url(#pa945fa9139)">
     <use style="fill:#66ccff;" x="481.177122" xlink:href="#C0_0_9ea676509c" y="23.350652"/>
    </g>
    <g clip-path="url(#pa945fa9139)">
     <use style="fill:#66ccff;" x="255.810531" xlink:href="#C0_0_9ea676509c" y="54.047604"/>
    </g>
    <g clip-path="url(#pa945fa9139)">
     <use style="fill:#66ccff;" x="366.390615" xlink:href="#C0_0_9ea676509c" y="109.487984"/>
    </g>
    <g clip-path="url(#pa945fa9139)">
     <use style="fill:#66ccff;" x="412.049984" xlink:href="#C0_0_9ea676509c" y="110.764556"/>
    </g>
    <g clip-path="url(#pa945fa9139)">
     <use style="fill:#66ccff;" x="365.025617" xlink:href="#C0_0_9ea676509c" y="103.695967"/>
    </g>
    <g clip-path="url(#pa945fa9139)">
     <use style="fill:#66ccff;" x="376.45176" xlink:href="#C0_0_9ea676509c" y="112.330494"/>
    </g>
    <g clip-path="url(#pa945fa9139)">
     <use style="fill:#66ccff;" x="331.904573" xlink:href="#C0_0_9ea676509c" y="87.065535"/>
    </g>
    <g clip-path="url(#pa945fa9139)">
     <use style="fill:#66ccff;" x="363.693207" xlink:href="#C0_0_9ea676509c" y="100.81981"/>
    </g>
    <g clip-path="url(#pa945fa9139)">
     <use style="fill:#66ccff;" x="489.42335" xlink:href="#C0_0_9ea676509c" y="24.503403"/>
    </g>
    <g clip-path="url(#pa945fa9139)">
     <use style="fill:#66ccff;" x="363.310566" xlink:href="#C0_0_9ea676509c" y="100.10178"/>
    </g>
    <g clip-path="url(#pa945fa9139)">
     <use style="fill:#66ccff;" x="358.538066" xlink:href="#C0_0_9ea676509c" y="119.122504"/>
    </g>
    <g clip-path="url(#pa945fa9139)">
     <use style="fill:#66ccff;" x="376.667258" xlink:href="#C0_0_9ea676509c" y="121.714679"/>
    </g>
    <g clip-path="url(#pa945fa9139)">
     <use style="fill:#66ccff;" x="498.331315" xlink:href="#C0_0_9ea676509c" y="23.543787"/>
    </g>
    <g clip-path="url(#pa945fa9139)">
     <use style="fill:#66ccff;" x="501.741971" xlink:href="#C0_0_9ea676509c" y="21.357396"/>
    </g>
    <g clip-path="url(#pa945fa9139)">
     <use style="fill:#66ccff;" x="273.283242" xlink:href="#C0_0_9ea676509c" y="76.60195"/>
    </g>
    <g clip-path="url(#pa945fa9139)">
     <use style="fill:#66ccff;" x="380.271337" xlink:href="#C0_0_9ea676509c" y="109.629302"/>
    </g>
    <g clip-path="url(#pa945fa9139)">
     <use style="fill:#66ccff;" x="255.919332" xlink:href="#C0_0_9ea676509c" y="48.452086"/>
    </g>
    <g clip-path="url(#pa945fa9139)">
     <use style="fill:#66ccff;" x="266.611203" xlink:href="#C0_0_9ea676509c" y="58.065745"/>
    </g>
    <g clip-path="url(#pa945fa9139)">
     <use style="fill:#66ccff;" x="373.268692" xlink:href="#C0_0_9ea676509c" y="105.967148"/>
    </g>
    <g clip-path="url(#pa945fa9139)">
     <use style="fill:#66ccff;" x="261.383003" xlink:href="#C0_0_9ea676509c" y="54.256889"/>
    </g>
    <g clip-path="url(#pa945fa9139)">
     <use style="fill:#66ccff;" x="344.903328" xlink:href="#C0_0_9ea676509c" y="95.621328"/>
    </g>
    <g clip-path="url(#pa945fa9139)">
     <use style="fill:#66ccff;" x="365.514431" xlink:href="#C0_0_9ea676509c" y="105.771322"/>
    </g>
    <g clip-path="url(#pa945fa9139)">
     <use style="fill:#66ccff;" x="346.792881" xlink:href="#C0_0_9ea676509c" y="92.479358"/>
    </g>
    <g clip-path="url(#pa945fa9139)">
     <use style="fill:#66ccff;" x="276.224006" xlink:href="#C0_0_9ea676509c" y="65.069732"/>
    </g>
    <g clip-path="url(#pa945fa9139)">
     <use style="fill:#66ccff;" x="349.089252" xlink:href="#C0_0_9ea676509c" y="89.331333"/>
    </g>
    <g clip-path="url(#pa945fa9139)">
     <use style="fill:#66ccff;" x="371.737602" xlink:href="#C0_0_9ea676509c" y="115.827777"/>
    </g>
    <g clip-path="url(#pa945fa9139)">
     <use style="fill:#66ccff;" x="391.335337" xlink:href="#C0_0_9ea676509c" y="105.316412"/>
    </g>
    <g clip-path="url(#pa945fa9139)">
     <use style="fill:#66ccff;" x="357.894725" xlink:href="#C0_0_9ea676509c" y="91.651639"/>
    </g>
    <g clip-path="url(#pa945fa9139)">
     <use style="fill:#66ccff;" x="355.7471" xlink:href="#C0_0_9ea676509c" y="94.261311"/>
    </g>
    <g clip-path="url(#pa945fa9139)">
     <use style="fill:#66ccff;" x="367.050251" xlink:href="#C0_0_9ea676509c" y="94.863594"/>
    </g>
    <g clip-path="url(#pa945fa9139)">
     <use style="fill:#66ccff;" x="269.256577" xlink:href="#C0_0_9ea676509c" y="53.578563"/>
    </g>
    <g clip-path="url(#pa945fa9139)">
     <use style="fill:#66ccff;" x="370.781525" xlink:href="#C0_0_9ea676509c" y="114.930744"/>
    </g>
    <g clip-path="url(#pa945fa9139)">
     <use style="fill:#66ccff;" x="264.998645" xlink:href="#C0_0_9ea676509c" y="80.387252"/>
    </g>
    <g clip-path="url(#pa945fa9139)">
     <use style="fill:#66ccff;" x="370.651175" xlink:href="#C0_0_9ea676509c" y="111.997387"/>
    </g>
    <g clip-path="url(#pa945fa9139)">
     <use style="fill:#66ccff;" x="370.0215" xlink:href="#C0_0_9ea676509c" y="114.611096"/>
    </g>
    <g clip-path="url(#pa945fa9139)">
     <use style="fill:#66ccff;" x="372.067683" xlink:href="#C0_0_9ea676509c" y="115.471117"/>
    </g>
    <g clip-path="url(#pa945fa9139)">
     <use style="fill:#66ccff;" x="363.120822" xlink:href="#C0_0_9ea676509c" y="121.823023"/>
    </g>
    <g clip-path="url(#pa945fa9139)">
     <use style="fill:#66ccff;" x="335.755686" xlink:href="#C0_0_9ea676509c" y="76.189436"/>
    </g>
    <g clip-path="url(#pa945fa9139)">
     <use style="fill:#66ccff;" x="354.24229" xlink:href="#C0_0_9ea676509c" y="79.331405"/>
    </g>
    <g clip-path="url(#pa945fa9139)">
     <use style="fill:#66ccff;" x="352.691754" xlink:href="#C0_0_9ea676509c" y="82.20016"/>
    </g>
    <g clip-path="url(#pa945fa9139)">
     <use style="fill:#66ccff;" x="406.701946" xlink:href="#C0_0_9ea676509c" y="111.669664"/>
    </g>
    <g clip-path="url(#pa945fa9139)">
     <use style="fill:#66ccff;" x="325.338707" xlink:href="#C0_0_9ea676509c" y="78.86371"/>
    </g>
    <g clip-path="url(#pa945fa9139)">
     <use style="fill:#66ccff;" x="405.581354" xlink:href="#C0_0_9ea676509c" y="112.224842"/>
    </g>
    <g clip-path="url(#pa945fa9139)">
     <use style="fill:#66ccff;" x="349.787782" xlink:href="#C0_0_9ea676509c" y="63.275666"/>
    </g>
    <g clip-path="url(#pa945fa9139)">
     <use style="fill:#66ccff;" x="275.460301" xlink:href="#C0_0_9ea676509c" y="43.940678"/>
    </g>
    <g clip-path="url(#pa945fa9139)">
     <use style="fill:#66ccff;" x="358.150695" xlink:href="#C0_0_9ea676509c" y="99.639468"/>
    </g>
    <g clip-path="url(#pa945fa9139)">
     <use style="fill:#66ccff;" x="359.920409" xlink:href="#C0_0_9ea676509c" y="97.410009"/>
    </g>
    <g clip-path="url(#pa945fa9139)">
     <use style="fill:#66ccff;" x="262.885184" xlink:href="#C0_0_9ea676509c" y="63.783738"/>
    </g>
    <g clip-path="url(#pa945fa9139)">
     <use style="fill:#66ccff;" x="345.760065" xlink:href="#C0_0_9ea676509c" y="86.88384"/>
    </g>
    <g clip-path="url(#pa945fa9139)">
     <use style="fill:#66ccff;" x="406.252027" xlink:href="#C0_0_9ea676509c" y="113.061982"/>
    </g>
    <g clip-path="url(#pa945fa9139)">
     <use style="fill:#66ccff;" x="403.297072" xlink:href="#C0_0_9ea676509c" y="98.111215"/>
    </g>
    <g clip-path="url(#pa945fa9139)">
     <use style="fill:#66ccff;" x="497.432004" xlink:href="#C0_0_9ea676509c" y="25.694511"/>
    </g>
    <g clip-path="url(#pa945fa9139)">
     <use style="fill:#66ccff;" x="386.262716" xlink:href="#C0_0_9ea676509c" y="106.46849"/>
    </g>
    <g clip-path="url(#pa945fa9139)">
     <use style="fill:#66ccff;" x="388.357255" xlink:href="#C0_0_9ea676509c" y="107.109805"/>
    </g>
    <g clip-path="url(#pa945fa9139)">
     <use style="fill:#66ccff;" x="386.467177" xlink:href="#C0_0_9ea676509c" y="128.250298"/>
    </g>
    <g clip-path="url(#pa945fa9139)">
     <use style="fill:#66ccff;" x="404.798727" xlink:href="#C0_0_9ea676509c" y="111.247056"/>
    </g>
   </g>
   <g id="LineCollection_1">
    <path clip-path="url(#pa945fa9139)" d="M 331.109332 88.169834 
L 331.904573 87.065535 
" style="fill:none;stroke:#999999;"/>
    <path clip-path="url(#pa945fa9139)" d="M 331.109332 88.169834 
L 337.068124 82.857625 
L 338.745857 81.845519 
" style="fill:none;stroke:#999999;"/>
    <path clip-path="url(#pa945fa9139)" d="M 331.109332 88.169834 
L 325.802291 94.377057 
L 300.88017 123.76177 
L 298.679985 125.911822 
L 296.209112 127.709252 
L 293.23471 129.135217 
L 287.952898 131.017438 
L 284.476542 132.612312 
L 281.939968 134.359271 
L 279.927424 136.150644 
L 278.021578 139.260312 
L 276.847375 141.526783 
L 275.962255 144.460813 
L 275.253212 149.604787 
L 274.878456 154.126288 
L 274.470586 155.585901 
" style="fill:none;stroke:#999999;"/>
    <path clip-path="url(#pa945fa9139)" d="M 78.70716 423.692308 
L 80.852683 414.316198 
L 96.333874 345.567704 
L 97.292578 341.083887 
L 97.794532 337.118236 
L 97.771931 333.525395 
L 97.433441 330.000522 
L 96.390113 324.106217 
L 94.614092 314.178967 
L 94.021734 310.96432 
L 93.090361 304.615106 
L 92.837544 302.927366 
L 92.809687 300.220118 
L 93.063029 297.484606 
L 93.570764 294.805622 
L 94.219362 292.183164 
L 95.121301 289.757879 
L 96.362256 287.163012 
L 98.082038 284.315119 
L 100.563423 280.931563 
L 108.85275 270.920868 
L 122.077516 254.649115 
L 127.180096 249.433809 
L 132.199105 244.38674 
L 136.943748 239.81073 
L 153.001002 226.486465 
L 156.080526 223.436689 
L 158.223421 220.899022 
L 160.704805 217.685048 
L 167.189729 209.564649 
L 169.868215 205.983922 
L 172.008482 203.589592 
L 173.562172 202.37493 
L 176.071414 201.190551 
L 178.298931 200.654889 
L 181.033658 200.175754 
L 183.543425 199.583564 
L 185.234824 199.076165 
L 186.813744 198.202013 
L 188.195561 197.30027 
L 189.774481 195.636756 
L 191.325018 192.957771 
L 192.650595 190.279459 
L 194.00403 188.108546 
L 195.780052 186.191333 
L 201.794558 180.984775 
L 206.472449 178.43836 
L 212.079085 177.821945 
L 217.632635 179.245891 
L 223.020093 181.455835 
L 228.933158 183.362282 
L 235.494819 184.326608 
L 242.204702 184.809108 
L 248.748493 184.730374 
L 254.766679 182.992163 
L 259.92655 179.526509 
L 263.807097 174.81591 
L 273.482447 158.349676 
L 274.470586 155.585901 
" style="fill:none;stroke:#999999;"/>
    <path clip-path="url(#pa945fa9139)" d="M 338.745857 81.845519 
L 339.5206 81.743904 
L 340.223335 82.068263 
L 341.444317 83.050086 
" style="fill:none;stroke:#999999;"/>
    <path clip-path="url(#pa945fa9139)" d="M 338.745857 81.845519 
L 339.057541 81.27419 
L 339.207865 80.509728 
" style="fill:none;stroke:#999999;"/>
    <path clip-path="url(#pa945fa9139)" d="M 410.962506 111.136693 
L 406.252027 113.061982 
" style="fill:none;stroke:#999999;"/>
    <path clip-path="url(#pa945fa9139)" d="M 339.207865 80.509728 
L 341.444317 83.050086 
" style="fill:none;stroke:#999999;"/>
    <path clip-path="url(#pa945fa9139)" d="M 339.207865 80.509728 
L 339.08645 80.372447 
L 337.960077 79.033964 
L 337.751937 78.762769 
" style="fill:none;stroke:#999999;"/>
    <path clip-path="url(#pa945fa9139)" d="M 339.207865 80.509728 
L 339.649899 80.61538 
L 340.146596 80.500979 
L 340.519251 80.262085 
L 340.900841 79.758724 
" style="fill:none;stroke:#999999;"/>
    <path clip-path="url(#pa945fa9139)" d="M 336.278664 79.281607 
L 335.737816 80.974058 
L 334.395419 83.365696 
L 331.904573 87.065535 
" style="fill:none;stroke:#999999;"/>
    <path clip-path="url(#pa945fa9139)" d="M 361.714827 107.35341 
L 360.002403 113.696567 
" style="fill:none;stroke:#999999;"/>
    <path clip-path="url(#pa945fa9139)" d="M 361.714827 107.35341 
L 363.126604 102.031779 
" style="fill:none;stroke:#999999;"/>
    <path clip-path="url(#pa945fa9139)" d="M 361.714827 107.35341 
L 366.390615 109.487984 
" style="fill:none;stroke:#999999;"/>
    <path clip-path="url(#pa945fa9139)" d="M 523.485228 30.72745 
L 523.455794 30.932024 
L 523.669716 31.448171 
L 524.105443 31.656783 
" style="fill:none;stroke:#999999;"/>
    <path clip-path="url(#pa945fa9139)" d="M 523.485228 30.72745 
L 522.370418 30.226107 
L 518.704844 29.5498 
L 513.46035 28.59153 
L 507.370157 27.689786 
L 501.392969 26.956952 
L 499.635869 26.71402 
L 498.4911 26.814961 
L 497.0378 27.195846 
" style="fill:none;stroke:#999999;"/>
    <path clip-path="url(#pa945fa9139)" d="M 340.900841 79.758724 
L 341.658238 78.005035 
L 342.688426 76.246636 
L 346.417073 71.360399 
L 348.121086 68.05154 
L 349.787782 63.275666 
" style="fill:none;stroke:#999999;"/>
    <path clip-path="url(#pa945fa9139)" d="M 361.148224 128.230782 
L 366.327543 123.903088 
" style="fill:none;stroke:#999999;"/>
    <path clip-path="url(#pa945fa9139)" d="M 361.148224 128.230782 
L 360.047606 129.236832 
L 359.258146 129.208568 
L 363.120822 121.823023 
" style="fill:none;stroke:#999999;"/>
    <path clip-path="url(#pa945fa9139)" d="M 361.148224 128.230782 
L 366.27761 130.901692 
L 367.096504 129.99793 
L 369.802848 132.695084 
" style="fill:none;stroke:#999999;"/>
    <path clip-path="url(#pa945fa9139)" d="M 341.444317 83.050086 
L 339.207865 80.509728 
" style="fill:none;stroke:#999999;"/>
    <path clip-path="url(#pa945fa9139)" d="M 341.444317 83.050086 
L 342.411431 84.09382 
L 344.114394 85.476044 
L 345.198719 86.471327 
L 345.384783 86.607934 
" style="fill:none;stroke:#999999;"/>
    <path clip-path="url(#pa945fa9139)" d="M 341.444317 83.050086 
L 340.993347 81.649692 
L 340.871407 80.825338 
L 340.900841 79.758724 
" style="fill:none;stroke:#999999;"/>
    <path clip-path="url(#pa945fa9139)" d="M 360.002403 113.696567 
L 358.538066 119.122504 
" style="fill:none;stroke:#999999;"/>
    <path clip-path="url(#pa945fa9139)" d="M 360.002403 113.696567 
L 361.714827 107.35341 
" style="fill:none;stroke:#999999;"/>
    <path clip-path="url(#pa945fa9139)" d="M 360.002403 113.696567 
L 367.096504 116.88968 
L 367.696746 117.52763 
" style="fill:none;stroke:#999999;"/>
    <path clip-path="url(#pa945fa9139)" d="M 254.623188 54.00319 
L 255.810531 54.047604 
" style="fill:none;stroke:#999999;"/>
    <path clip-path="url(#pa945fa9139)" d="M 254.623188 54.00319 
L 256.215773 51.788535 
L 256.870678 51.473598 
L 257.64437 51.532817 
" style="fill:none;stroke:#999999;"/>
    <path clip-path="url(#pa945fa9139)" d="M 337.751937 78.762769 
L 335.755686 76.189436 
" style="fill:none;stroke:#999999;"/>
    <path clip-path="url(#pa945fa9139)" d="M 337.751937 78.762769 
L 337.960077 79.033964 
L 339.08645 80.372447 
L 339.207865 80.509728 
" style="fill:none;stroke:#999999;"/>
    <path clip-path="url(#pa945fa9139)" d="M 337.751937 78.762769 
L 336.955644 78.818623 
L 336.278664 79.281607 
" style="fill:none;stroke:#999999;"/>
    <path clip-path="url(#pa945fa9139)" d="M 348.459051 84.360305 
L 357.894725 91.651639 
" style="fill:none;stroke:#999999;"/>
    <path clip-path="url(#pa945fa9139)" d="M 348.459051 84.360305 
L 345.384783 86.607934 
" style="fill:none;stroke:#999999;"/>
    <path clip-path="url(#pa945fa9139)" d="M 348.459051 84.360305 
L 352.29387 81.457231 
L 352.691754 82.20016 
" style="fill:none;stroke:#999999;"/>
    <path clip-path="url(#pa945fa9139)" d="M 366.503095 138.35655 
L 369.802848 132.695084 
" style="fill:none;stroke:#999999;"/>
    <path clip-path="url(#pa945fa9139)" d="M 497.0378 27.195846 
L 497.432004 25.694511 
" style="fill:none;stroke:#999999;"/>
    <path clip-path="url(#pa945fa9139)" d="M 497.0378 27.195846 
L 496.010766 27.410515 
L 495.027884 27.096251 
L 493.501525 26.52425 
L 491.450611 26.52425 
L 489.51901 26.833803 
L 488.064133 27.000693 
" style="fill:none;stroke:#999999;"/>
    <path clip-path="url(#pa945fa9139)" d="M 497.0378 27.195846 
L 498.4911 26.814961 
L 499.635869 26.71402 
L 501.392969 26.956952 
L 507.370157 27.689786 
L 513.46035 28.59153 
L 518.704844 29.5498 
L 522.370418 30.226107 
L 523.485228 30.72745 
" style="fill:none;stroke:#999999;"/>
    <path clip-path="url(#pa945fa9139)" d="M 333.023062 72.410863 
L 335.755686 76.189436 
" style="fill:none;stroke:#999999;"/>
    <path clip-path="url(#pa945fa9139)" d="M 333.023062 72.410863 
L 325.338707 78.86371 
" style="fill:none;stroke:#999999;"/>
    <path clip-path="url(#pa945fa9139)" d="M 333.023062 72.410863 
L 331.346906 70.560944 
L 328.675777 68.140369 
L 326.199123 66.11683 
L 322.978211 63.667319 
L 320.808511 62.240681 
L 317.75737 60.550922 
L 309.008137 56.108827 
L 306.581941 55.055672 
L 304.030125 54.376673 
" style="fill:none;stroke:#999999;"/>
    <path clip-path="url(#pa945fa9139)" d="M 398.320637 116.302874 
L 399.033358 116.01149 
" style="fill:none;stroke:#999999;"/>
    <path clip-path="url(#pa945fa9139)" d="M 398.320637 116.302874 
L 388.047148 120.501363 
" style="fill:none;stroke:#999999;"/>
    <path clip-path="url(#pa945fa9139)" d="M 398.320637 116.302874 
L 399.380784 118.609721 
L 390.827602 124.240233 
" style="fill:none;stroke:#999999;"/>
    <path clip-path="url(#pa945fa9139)" d="M 366.327543 123.903088 
L 369.659357 121.118452 
" style="fill:none;stroke:#999999;"/>
    <path clip-path="url(#pa945fa9139)" d="M 366.327543 123.903088 
L 361.148224 128.230782 
" style="fill:none;stroke:#999999;"/>
    <path clip-path="url(#pa945fa9139)" d="M 366.327543 123.903088 
L 365.038232 122.781293 
L 363.120822 121.823023 
" style="fill:none;stroke:#999999;"/>
    <path clip-path="url(#pa945fa9139)" d="M 366.61137 109.599019 
L 366.390615 109.487984 
" style="fill:none;stroke:#999999;"/>
    <path clip-path="url(#pa945fa9139)" d="M 366.61137 109.599019 
L 375.752704 111.646784 
L 376.45176 112.330494 
" style="fill:none;stroke:#999999;"/>
    <path clip-path="url(#pa945fa9139)" d="M 366.61137 109.599019 
L 368.308025 110.450292 
L 370.651175 111.997387 
" style="fill:none;stroke:#999999;"/>
    <path clip-path="url(#pa945fa9139)" d="M 369.659357 121.118452 
L 372.779353 117.671639 
" style="fill:none;stroke:#999999;"/>
    <path clip-path="url(#pa945fa9139)" d="M 369.659357 121.118452 
L 366.327543 123.903088 
" style="fill:none;stroke:#999999;"/>
    <path clip-path="url(#pa945fa9139)" d="M 369.659357 121.118452 
L 371.662966 123.092865 
L 374.725145 124.297433 
" style="fill:none;stroke:#999999;"/>
    <path clip-path="url(#pa945fa9139)" d="M 499.85347 22.616472 
L 501.741971 21.357396 
" style="fill:none;stroke:#999999;"/>
    <path clip-path="url(#pa945fa9139)" d="M 499.85347 22.616472 
L 498.331315 23.543787 
" style="fill:none;stroke:#999999;"/>
    <path clip-path="url(#pa945fa9139)" d="M 337.808702 77.067626 
L 337.208986 77.155109 
L 336.757491 77.130883 
L 335.755686 76.189436 
" style="fill:none;stroke:#999999;"/>
    <path clip-path="url(#pa945fa9139)" d="M 337.808702 77.067626 
L 337.62474 77.453895 
L 337.500172 77.865063 
L 337.751937 78.762769 
" style="fill:none;stroke:#999999;"/>
    <path clip-path="url(#pa945fa9139)" d="M 304.030125 54.376673 
L 306.581941 55.055672 
L 309.008137 56.108827 
L 317.75737 60.550922 
L 320.808511 62.240681 
L 322.978211 63.667319 
L 326.199123 66.11683 
L 328.675777 68.140369 
L 331.346906 70.560944 
L 333.023062 72.410863 
" style="fill:none;stroke:#999999;"/>
    <path clip-path="url(#pa945fa9139)" d="M 304.030125 54.376673 
L 301.744792 53.820822 
L 298.141239 53.114233 
L 295.495865 52.926482 
L 289.666898 52.773051 
L 287.454098 52.872646 
L 282.740466 53.68758 
L 281.106883 54.167388 
" style="fill:none;stroke:#999999;"/>
    <path clip-path="url(#pa945fa9139)" d="M 360.408171 93.593752 
L 364.839553 97.018357 
" style="fill:none;stroke:#999999;"/>
    <path clip-path="url(#pa945fa9139)" d="M 360.408171 93.593752 
L 357.894725 91.651639 
" style="fill:none;stroke:#999999;"/>
    <path clip-path="url(#pa945fa9139)" d="M 360.408171 93.593752 
L 361.3448 92.027141 
L 356.833527 88.476023 
L 354.013652 84.670532 
L 352.691754 82.20016 
" style="fill:none;stroke:#999999;"/>
    <path clip-path="url(#pa945fa9139)" d="M 510.801311 27.574713 
L 497.432004 25.694511 
" style="fill:none;stroke:#999999;"/>
    <path clip-path="url(#pa945fa9139)" d="M 510.801311 27.574713 
L 503.865944 26.140672 
L 502.230784 25.427353 
L 501.18115 24.402462 
L 499.85347 22.616472 
" style="fill:none;stroke:#999999;"/>
    <path clip-path="url(#pa945fa9139)" d="M 510.801311 27.574713 
L 519.927403 28.940114 
L 524.339337 29.600271 
" style="fill:none;stroke:#999999;"/>
    <path clip-path="url(#pa945fa9139)" d="M 372.933881 113.504779 
L 374.786115 114.728188 
" style="fill:none;stroke:#999999;"/>
    <path clip-path="url(#pa945fa9139)" d="M 372.933881 113.504779 
L 370.651175 111.997387 
" style="fill:none;stroke:#999999;"/>
    <path clip-path="url(#pa945fa9139)" d="M 372.933881 113.504779 
L 372.067683 115.471117 
" style="fill:none;stroke:#999999;"/>
    <path clip-path="url(#pa945fa9139)" d="M 281.106883 54.167388 
L 280.209149 54.79457 
L 279.477506 55.525386 
L 278.534043 56.698325 
L 277.8455 58.608136 
L 276.224006 65.069732 
" style="fill:none;stroke:#999999;"/>
    <path clip-path="url(#pa945fa9139)" d="M 281.106883 54.167388 
L 278.710121 54.461464 
L 276.824774 54.505205 
L 273.927635 53.975599 
L 272.181573 53.815439 
L 269.563531 53.570488 
L 269.256577 53.578563 
" style="fill:none;stroke:#999999;"/>
    <path clip-path="url(#pa945fa9139)" d="M 281.106883 54.167388 
L 282.740466 53.68758 
L 287.454098 52.872646 
L 289.666898 52.773051 
L 295.495865 52.926482 
L 298.141239 53.114233 
L 301.744792 53.820822 
L 304.030125 54.376673 
" style="fill:none;stroke:#999999;"/>
    <path clip-path="url(#pa945fa9139)" d="M 367.696746 117.52763 
L 367.096504 116.88968 
L 360.002403 113.696567 
" style="fill:none;stroke:#999999;"/>
    <path clip-path="url(#pa945fa9139)" d="M 367.696746 117.52763 
L 369.125342 116.863435 
L 370.172874 116.542442 
L 371.239854 116.214719 
L 371.737602 115.827777 
" style="fill:none;stroke:#999999;"/>
    <path clip-path="url(#pa945fa9139)" d="M 367.696746 117.52763 
L 367.068121 117.82036 
L 363.120822 121.823023 
" style="fill:none;stroke:#999999;"/>
    <path clip-path="url(#pa945fa9139)" d="M 553.517287 33.969014 
L 545.906517 32.826358 
L 524.339337 29.600271 
" style="fill:none;stroke:#999999;"/>
    <path clip-path="url(#pa945fa9139)" d="M 546.352756 33.604279 
L 553.517287 33.969014 
" style="fill:none;stroke:#999999;"/>
    <path clip-path="url(#pa945fa9139)" d="M 546.352756 33.604279 
L 525.674902 30.672268 
L 524.915401 30.932024 
" style="fill:none;stroke:#999999;"/>
    <path clip-path="url(#pa945fa9139)" d="M 257.64437 51.532817 
L 261.383003 54.256889 
" style="fill:none;stroke:#999999;"/>
    <path clip-path="url(#pa945fa9139)" d="M 257.64437 51.532817 
L 256.508536 50.446015 
L 255.919332 48.452086 
" style="fill:none;stroke:#999999;"/>
    <path clip-path="url(#pa945fa9139)" d="M 257.64437 51.532817 
L 256.870678 51.473598 
L 256.215773 51.788535 
L 254.623188 54.00319 
" style="fill:none;stroke:#999999;"/>
    <path clip-path="url(#pa945fa9139)" d="M 257.64437 51.532817 
L 260.245593 52.478975 
L 263.041815 52.980317 
L 266.47402 53.653933 
L 269.256577 53.578563 
" style="fill:none;stroke:#999999;"/>
    <path clip-path="url(#pa945fa9139)" d="M 372.779353 117.671639 
L 371.737602 115.827777 
" style="fill:none;stroke:#999999;"/>
    <path clip-path="url(#pa945fa9139)" d="M 372.779353 117.671639 
L 369.659357 121.118452 
" style="fill:none;stroke:#999999;"/>
    <path clip-path="url(#pa945fa9139)" d="M 372.779353 117.671639 
L 373.67919 116.854687 
L 374.786115 114.728188 
" style="fill:none;stroke:#999999;"/>
    <path clip-path="url(#pa945fa9139)" d="M 372.779353 117.671639 
L 374.172208 119.76651 
L 376.667258 121.714679 
" style="fill:none;stroke:#999999;"/>
    <path clip-path="url(#pa945fa9139)" d="M 524.105443 31.656783 
L 524.148543 32.491905 
L 524.178502 35.666849 
L 524.089149 37.444763 
L 523.776414 38.787957 
L 522.723625 40.44676 
L 521.298708 41.691031 
L 517.642069 44.981048 
L 515.676304 46.295978 
L 514.388044 46.812125 
L 513.010432 47.000549 
L 511.335326 46.979014 
L 509.696488 46.466905 
L 505.509513 44.149291 
L 503.241524 43.437317 
L 449.512005 39.421868 
L 447.65031 39.411101 
L 446.2317 39.654034 
L 444.50456 40.287273 
L 442.922487 41.52616 
L 433.850006 52.069826 
L 430.810429 56.080564 
L 427.181647 67.768905 
L 425.688401 72.511131 
L 424.983038 74.75203 
L 423.685317 78.874477 
L 422.455926 81.778225 
L 421.233367 83.530567 
L 419.582965 85.442397 
L 411.764054 91.982054 
L 406.655167 96.089023 
L 403.297072 98.111215 
" style="fill:none;stroke:#999999;"/>
    <path clip-path="url(#pa945fa9139)" d="M 524.105443 31.656783 
L 524.185861 31.661494 
L 524.70148 31.448171 
L 524.915401 30.932024 
" style="fill:none;stroke:#999999;"/>
    <path clip-path="url(#pa945fa9139)" d="M 539.569814 29.574699 
L 537.027459 30.553157 
L 534.117706 30.505378 
L 514.728111 27.644699 
L 513.821967 27.405805 
L 505.21202 24.282678 
L 504.162385 23.662898 
L 501.741971 21.357396 
" style="fill:none;stroke:#999999;"/>
    <path clip-path="url(#pa945fa9139)" d="M 364.839553 97.018357 
L 360.408171 93.593752 
" style="fill:none;stroke:#999999;"/>
    <path clip-path="url(#pa945fa9139)" d="M 364.839553 97.018357 
L 363.310566 100.10178 
" style="fill:none;stroke:#999999;"/>
    <path clip-path="url(#pa945fa9139)" d="M 364.839553 97.018357 
L 365.724673 94.613933 
L 367.050251 94.863594 
" style="fill:none;stroke:#999999;"/>
    <path clip-path="url(#pa945fa9139)" d="M 390.827602 124.240233 
L 390.239449 123.15343 
L 388.4834 120.590192 
L 388.047148 120.501363 
" style="fill:none;stroke:#999999;"/>
    <path clip-path="url(#pa945fa9139)" d="M 390.827602 124.240233 
L 391.556617 125.586791 
L 396.612418 133.920513 
L 394.728122 132.732769 
L 391.344798 130.561856 
L 386.467177 128.250298 
" style="fill:none;stroke:#999999;"/>
    <path clip-path="url(#pa945fa9139)" d="M 390.827602 124.240233 
L 387.707606 125.826358 
L 386.467177 128.250298 
" style="fill:none;stroke:#999999;"/>
    <path clip-path="url(#pa945fa9139)" d="M 390.827602 124.240233 
L 399.380784 118.609721 
L 398.320637 116.302874 
" style="fill:none;stroke:#999999;"/>
    <path clip-path="url(#pa945fa9139)" d="M 524.915401 30.932024 
L 524.70148 30.41655 
L 524.339337 30.219378 
" style="fill:none;stroke:#999999;"/>
    <path clip-path="url(#pa945fa9139)" d="M 524.915401 30.932024 
L 525.674902 30.672268 
L 546.352756 33.604279 
" style="fill:none;stroke:#999999;"/>
    <path clip-path="url(#pa945fa9139)" d="M 368.631798 105.875628 
L 365.514431 105.771322 
" style="fill:none;stroke:#999999;"/>
    <path clip-path="url(#pa945fa9139)" d="M 368.631798 105.875628 
L 366.692313 105.082901 
L 365.394593 104.002828 
L 365.025617 103.695967 
" style="fill:none;stroke:#999999;"/>
    <path clip-path="url(#pa945fa9139)" d="M 368.631798 105.875628 
L 372.359919 106.03175 
L 373.268692 105.967148 
" style="fill:none;stroke:#999999;"/>
    <path clip-path="url(#pa945fa9139)" d="M 384.637018 111.422021 
L 380.878937 115.778652 
" style="fill:none;stroke:#999999;"/>
    <path clip-path="url(#pa945fa9139)" d="M 384.637018 111.422021 
L 388.357255 107.109805 
" style="fill:none;stroke:#999999;"/>
    <path clip-path="url(#pa945fa9139)" d="M 384.637018 111.422021 
L 383.05547 110.434814 
L 380.271337 109.629302 
" style="fill:none;stroke:#999999;"/>
    <path clip-path="url(#pa945fa9139)" d="M 363.126604 102.031779 
L 361.714827 107.35341 
" style="fill:none;stroke:#999999;"/>
    <path clip-path="url(#pa945fa9139)" d="M 363.126604 102.031779 
L 363.693207 100.81981 
" style="fill:none;stroke:#999999;"/>
    <path clip-path="url(#pa945fa9139)" d="M 363.126604 102.031779 
L 358.777217 100.034486 
L 358.150695 99.639468 
" style="fill:none;stroke:#999999;"/>
    <path clip-path="url(#pa945fa9139)" d="M 350.995624 57.613527 
L 349.787782 63.275666 
" style="fill:none;stroke:#999999;"/>
    <path clip-path="url(#pa945fa9139)" d="M 350.995624 57.613527 
L 349.000425 63.244038 
L 348.005453 65.092612 
L 345.57295 69.506442 
L 342.673709 73.075057 
L 337.808702 77.067626 
" style="fill:none;stroke:#999999;"/>
    <path clip-path="url(#pa945fa9139)" d="M 350.995624 57.613527 
L 351.513346 51.869289 
L 350.155706 40.316882 
L 350.106299 39.896966 
L 349.801973 37.316904 
L 350.074763 35.650025 
L 350.234547 34.675604 
L 351.425569 29.191121 
L 352.487293 26.58145 
L 353.250998 24.889672 
L 356.909739 19.287425 
L 361.035744 15.13806 
L 366.107839 11.784114 
L 371.985688 9.339313 
L 378.669816 8.307692 
L 385.230952 8.745105 
L 398.432591 10.887081 
L 417.063211 13.693252 
L 449.008475 18.505465 
L 481.177122 23.350652 
" style="fill:none;stroke:#999999;"/>
    <path clip-path="url(#pa945fa9139)" d="M 524.339337 30.219378 
L 524.339337 29.600271 
" style="fill:none;stroke:#999999;"/>
    <path clip-path="url(#pa945fa9139)" d="M 524.339337 30.219378 
L 524.185861 30.202554 
L 523.669716 30.41655 
L 523.485228 30.72745 
" style="fill:none;stroke:#999999;"/>
    <path clip-path="url(#pa945fa9139)" d="M 274.470586 155.585901 
L 274.155222 153.715793 
L 273.609643 150.756192 
L 272.681424 141.204444 
L 270.140646 118.061273 
L 268.216403 98.980657 
L 268.189597 96.873674 
L 268.747265 94.389843 
L 273.283242 76.60195 
" style="fill:none;stroke:#999999;"/>
    <path clip-path="url(#pa945fa9139)" d="M 274.470586 155.585901 
L 274.878456 154.126288 
L 275.253212 149.604787 
L 275.962255 144.460813 
L 276.847375 141.526783 
L 278.021578 139.260312 
L 279.927424 136.150644 
L 281.939968 134.359271 
L 284.476542 132.612312 
L 287.952898 131.017438 
L 293.23471 129.135217 
L 296.209112 127.709252 
L 298.679985 125.911822 
L 300.88017 123.76177 
L 325.802291 94.377057 
L 331.109332 88.169834 
" style="fill:none;stroke:#999999;"/>
    <path clip-path="url(#pa945fa9139)" d="M 274.470586 155.585901 
L 273.482447 158.349676 
L 263.807097 174.81591 
L 259.92655 179.526509 
L 254.766679 182.992163 
L 248.748493 184.730374 
L 242.204702 184.809108 
L 235.494819 184.326608 
L 228.933158 183.362282 
L 223.020093 181.455835 
L 217.632635 179.245891 
L 212.079085 177.821945 
L 206.472449 178.43836 
L 201.794558 180.984775 
L 195.780052 186.191333 
L 194.00403 188.108546 
L 192.650595 190.279459 
L 191.325018 192.957771 
L 189.774481 195.636756 
L 188.195561 197.30027 
L 186.813744 198.202013 
L 185.234824 199.076165 
L 183.543425 199.583564 
L 181.033658 200.175754 
L 178.298931 200.654889 
L 176.071414 201.190551 
L 173.562172 202.37493 
L 172.008482 203.589592 
L 169.868215 205.983922 
L 167.189729 209.564649 
L 160.704805 217.685048 
L 158.223421 220.899022 
L 156.080526 223.436689 
L 153.001002 226.486465 
L 136.943748 239.81073 
L 132.199105 244.38674 
L 127.180096 249.433809 
L 122.077516 254.649115 
L 108.85275 270.920868 
L 100.563423 280.931563 
L 98.082038 284.315119 
L 96.362256 287.163012 
L 95.121301 289.757879 
L 94.219362 292.183164 
L 93.570764 294.805622 
L 93.063029 297.484606 
L 92.809687 300.220118 
L 92.837544 302.927366 
L 93.090361 304.615106 
L 94.021734 310.96432 
L 94.614092 314.178967 
L 96.390113 324.106217 
L 97.433441 330.000522 
L 97.771931 333.525395 
L 97.794532 337.118236 
L 97.292578 341.083887 
L 96.333874 345.567704 
L 80.852683 414.316198 
L 78.70716 423.692308 
" style="fill:none;stroke:#999999;"/>
    <path clip-path="url(#pa945fa9139)" d="M 524.339337 29.600271 
L 524.339337 30.219378 
" style="fill:none;stroke:#999999;"/>
    <path clip-path="url(#pa945fa9139)" d="M 524.339337 29.600271 
L 545.906517 32.826358 
L 553.517287 33.969014 
" style="fill:none;stroke:#999999;"/>
    <path clip-path="url(#pa945fa9139)" d="M 524.339337 29.600271 
L 519.927403 28.940114 
L 510.801311 27.574713 
" style="fill:none;stroke:#999999;"/>
    <path clip-path="url(#pa945fa9139)" d="M 255.385316 61.923725 
L 255.385316 60.288474 
L 255.810531 54.047604 
" style="fill:none;stroke:#999999;"/>
    <path clip-path="url(#pa945fa9139)" d="M 399.033358 116.01149 
L 406.252027 113.061982 
" style="fill:none;stroke:#999999;"/>
    <path clip-path="url(#pa945fa9139)" d="M 399.033358 116.01149 
L 398.320637 116.302874 
" style="fill:none;stroke:#999999;"/>
    <path clip-path="url(#pa945fa9139)" d="M 399.033358 116.01149 
L 395.26424 110.800895 
L 393.911856 108.378301 
L 391.335337 105.316412 
" style="fill:none;stroke:#999999;"/>
    <path clip-path="url(#pa945fa9139)" d="M 388.047148 120.501363 
L 398.320637 116.302874 
" style="fill:none;stroke:#999999;"/>
    <path clip-path="url(#pa945fa9139)" d="M 388.047148 120.501363 
L 380.878937 115.778652 
" style="fill:none;stroke:#999999;"/>
    <path clip-path="url(#pa945fa9139)" d="M 388.047148 120.501363 
L 388.4834 120.590192 
L 390.239449 123.15343 
L 390.827602 124.240233 
" style="fill:none;stroke:#999999;"/>
    <path clip-path="url(#pa945fa9139)" d="M 488.064133 27.000693 
L 489.51901 26.833803 
L 491.450611 26.52425 
L 493.501525 26.52425 
L 495.027884 27.096251 
L 496.010766 27.410515 
L 497.0378 27.195846 
" style="fill:none;stroke:#999999;"/>
    <path clip-path="url(#pa945fa9139)" d="M 380.878937 115.778652 
L 384.637018 111.422021 
" style="fill:none;stroke:#999999;"/>
    <path clip-path="url(#pa945fa9139)" d="M 380.878937 115.778652 
L 388.047148 120.501363 
" style="fill:none;stroke:#999999;"/>
    <path clip-path="url(#pa945fa9139)" d="M 380.878937 115.778652 
L 380.752266 115.983899 
L 379.897105 117.368142 
" style="fill:none;stroke:#999999;"/>
    <path clip-path="url(#pa945fa9139)" d="M 369.802848 132.695084 
L 366.503095 138.35655 
" style="fill:none;stroke:#999999;"/>
    <path clip-path="url(#pa945fa9139)" d="M 369.802848 132.695084 
L 374.602679 124.460285 
L 374.725145 124.297433 
" style="fill:none;stroke:#999999;"/>
    <path clip-path="url(#pa945fa9139)" d="M 369.802848 132.695084 
L 367.096504 129.99793 
L 366.27761 130.901692 
L 361.148224 128.230782 
" style="fill:none;stroke:#999999;"/>
    <path clip-path="url(#pa945fa9139)" d="M 379.897105 117.368142 
L 379.351001 116.882278 
L 378.940503 116.629251 
L 378.138429 116.135311 
L 377.476165 115.866134 
L 376.059132 115.289422 
L 374.786115 114.728188 
" style="fill:none;stroke:#999999;"/>
    <path clip-path="url(#pa945fa9139)" d="M 379.897105 117.368142 
L 377.738443 120.290059 
L 376.667258 121.714679 
" style="fill:none;stroke:#999999;"/>
    <path clip-path="url(#pa945fa9139)" d="M 379.897105 117.368142 
L 380.752266 115.983899 
L 380.878937 115.778652 
" style="fill:none;stroke:#999999;"/>
    <path clip-path="url(#pa945fa9139)" d="M 374.725145 124.297433 
L 376.667258 121.714679 
" style="fill:none;stroke:#999999;"/>
    <path clip-path="url(#pa945fa9139)" d="M 374.725145 124.297433 
L 374.602679 124.460285 
L 369.802848 132.695084 
" style="fill:none;stroke:#999999;"/>
    <path clip-path="url(#pa945fa9139)" d="M 374.725145 124.297433 
L 383.22419 126.728102 
L 386.467177 128.250298 
" style="fill:none;stroke:#999999;"/>
    <path clip-path="url(#pa945fa9139)" d="M 374.725145 124.297433 
L 371.662966 123.092865 
L 369.659357 121.118452 
" style="fill:none;stroke:#999999;"/>
    <path clip-path="url(#pa945fa9139)" d="M 345.384783 86.607934 
L 345.760065 86.88384 
" style="fill:none;stroke:#999999;"/>
    <path clip-path="url(#pa945fa9139)" d="M 345.384783 86.607934 
L 348.459051 84.360305 
" style="fill:none;stroke:#999999;"/>
    <path clip-path="url(#pa945fa9139)" d="M 345.384783 86.607934 
L 345.198719 86.471327 
L 344.114394 85.476044 
L 342.411431 84.09382 
L 341.444317 83.050086 
" style="fill:none;stroke:#999999;"/>
    <path clip-path="url(#pa945fa9139)" d="M 374.786115 114.728188 
L 372.933881 113.504779 
" style="fill:none;stroke:#999999;"/>
    <path clip-path="url(#pa945fa9139)" d="M 374.786115 114.728188 
L 376.059132 115.289422 
L 377.476165 115.866134 
L 378.138429 116.135311 
L 378.940503 116.629251 
L 379.351001 116.882278 
L 379.897105 117.368142 
" style="fill:none;stroke:#999999;"/>
    <path clip-path="url(#pa945fa9139)" d="M 374.786115 114.728188 
L 376.298283 112.430089 
L 376.45176 112.330494 
" style="fill:none;stroke:#999999;"/>
    <path clip-path="url(#pa945fa9139)" d="M 374.786115 114.728188 
L 373.67919 116.854687 
L 372.779353 117.671639 
" style="fill:none;stroke:#999999;"/>
    <path clip-path="url(#pa945fa9139)" d="M 481.177122 23.350652 
L 489.42335 24.503403 
" style="fill:none;stroke:#999999;"/>
    <path clip-path="url(#pa945fa9139)" d="M 481.177122 23.350652 
L 485.941212 24.330457 
L 487.563231 25.045795 
L 487.896991 25.856691 
L 488.064133 27.000693 
" style="fill:none;stroke:#999999;"/>
    <path clip-path="url(#pa945fa9139)" d="M 481.177122 23.350652 
L 449.008475 18.505465 
L 417.063211 13.693252 
L 398.432591 10.887081 
L 385.230952 8.745105 
L 378.669816 8.307692 
L 371.985688 9.339313 
L 366.107839 11.784114 
L 361.035744 15.13806 
L 356.909739 19.287425 
L 353.250998 24.889672 
L 352.487293 26.58145 
L 351.425569 29.191121 
L 350.234547 34.675604 
L 350.074763 35.650025 
L 349.801973 37.316904 
L 350.106299 39.896966 
L 350.155706 40.316882 
L 351.513346 51.869289 
L 350.995624 57.613527 
" style="fill:none;stroke:#999999;"/>
    <path clip-path="url(#pa945fa9139)" d="M 255.810531 54.047604 
L 254.623188 54.00319 
" style="fill:none;stroke:#999999;"/>
    <path clip-path="url(#pa945fa9139)" d="M 255.810531 54.047604 
L 261.383003 54.256889 
" style="fill:none;stroke:#999999;"/>
    <path clip-path="url(#pa945fa9139)" d="M 255.810531 54.047604 
L 255.385316 60.288474 
L 255.385316 61.923725 
" style="fill:none;stroke:#999999;"/>
    <path clip-path="url(#pa945fa9139)" d="M 366.390615 109.487984 
L 361.714827 107.35341 
" style="fill:none;stroke:#999999;"/>
    <path clip-path="url(#pa945fa9139)" d="M 366.390615 109.487984 
L 366.61137 109.599019 
" style="fill:none;stroke:#999999;"/>
    <path clip-path="url(#pa945fa9139)" d="M 366.390615 109.487984 
L 365.514431 105.771322 
" style="fill:none;stroke:#999999;"/>
    <path clip-path="url(#pa945fa9139)" d="M 412.049984 110.764556 
L 408.77073 105.981953 
L 408.629867 105.277382 
L 407.332672 103.642804 
L 406.430733 102.430161 
L 406.00762 101.35951 
L 405.302783 100.175131 
L 404.626329 99.273387 
L 403.921491 98.652934 
L 403.297072 98.111215 
" style="fill:none;stroke:#999999;"/>
    <path clip-path="url(#pa945fa9139)" d="M 365.025617 103.695967 
L 363.693207 100.81981 
" style="fill:none;stroke:#999999;"/>
    <path clip-path="url(#pa945fa9139)" d="M 365.025617 103.695967 
L 365.514431 105.771322 
" style="fill:none;stroke:#999999;"/>
    <path clip-path="url(#pa945fa9139)" d="M 365.025617 103.695967 
L 365.394593 104.002828 
L 366.692313 105.082901 
L 368.631798 105.875628 
" style="fill:none;stroke:#999999;"/>
    <path clip-path="url(#pa945fa9139)" d="M 376.45176 112.330494 
L 378.902134 110.741676 
L 380.271337 109.629302 
" style="fill:none;stroke:#999999;"/>
    <path clip-path="url(#pa945fa9139)" d="M 376.45176 112.330494 
L 376.298283 112.430089 
L 374.786115 114.728188 
" style="fill:none;stroke:#999999;"/>
    <path clip-path="url(#pa945fa9139)" d="M 376.45176 112.330494 
L 375.752704 111.646784 
L 366.61137 109.599019 
" style="fill:none;stroke:#999999;"/>
    <path clip-path="url(#pa945fa9139)" d="M 331.904573 87.065535 
L 331.109332 88.169834 
" style="fill:none;stroke:#999999;"/>
    <path clip-path="url(#pa945fa9139)" d="M 331.904573 87.065535 
L 343.217711 74.009102 
L 345.458368 71.291759 
L 347.115603 68.838883 
L 349.787782 63.275666 
" style="fill:none;stroke:#999999;"/>
    <path clip-path="url(#pa945fa9139)" d="M 363.693207 100.81981 
L 363.126604 102.031779 
" style="fill:none;stroke:#999999;"/>
    <path clip-path="url(#pa945fa9139)" d="M 363.693207 100.81981 
L 363.310566 100.10178 
" style="fill:none;stroke:#999999;"/>
    <path clip-path="url(#pa945fa9139)" d="M 363.693207 100.81981 
L 365.025617 103.695967 
" style="fill:none;stroke:#999999;"/>
    <path clip-path="url(#pa945fa9139)" d="M 489.42335 24.503403 
L 481.177122 23.350652 
" style="fill:none;stroke:#999999;"/>
    <path clip-path="url(#pa945fa9139)" d="M 489.42335 24.503403 
L 492.953843 24.99667 
L 497.432004 25.694511 
" style="fill:none;stroke:#999999;"/>
    <path clip-path="url(#pa945fa9139)" d="M 363.310566 100.10178 
L 363.693207 100.81981 
" style="fill:none;stroke:#999999;"/>
    <path clip-path="url(#pa945fa9139)" d="M 363.310566 100.10178 
L 364.839553 97.018357 
" style="fill:none;stroke:#999999;"/>
    <path clip-path="url(#pa945fa9139)" d="M 363.310566 100.10178 
L 362.690351 99.500169 
L 359.920409 97.410009 
" style="fill:none;stroke:#999999;"/>
    <path clip-path="url(#pa945fa9139)" d="M 358.538066 119.122504 
L 360.002403 113.696567 
" style="fill:none;stroke:#999999;"/>
    <path clip-path="url(#pa945fa9139)" d="M 358.538066 119.122504 
L 359.906743 119.765164 
L 363.120822 121.823023 
" style="fill:none;stroke:#999999;"/>
    <path clip-path="url(#pa945fa9139)" d="M 376.667258 121.714679 
L 374.725145 124.297433 
" style="fill:none;stroke:#999999;"/>
    <path clip-path="url(#pa945fa9139)" d="M 376.667258 121.714679 
L 377.738443 120.290059 
L 379.897105 117.368142 
" style="fill:none;stroke:#999999;"/>
    <path clip-path="url(#pa945fa9139)" d="M 376.667258 121.714679 
L 374.172208 119.76651 
L 372.779353 117.671639 
" style="fill:none;stroke:#999999;"/>
    <path clip-path="url(#pa945fa9139)" d="M 498.331315 23.543787 
L 499.85347 22.616472 
" style="fill:none;stroke:#999999;"/>
    <path clip-path="url(#pa945fa9139)" d="M 498.331315 23.543787 
L 497.612812 24.533012 
L 497.432004 25.694511 
" style="fill:none;stroke:#999999;"/>
    <path clip-path="url(#pa945fa9139)" d="M 498.331315 23.543787 
L 496.626251 24.545125 
L 495.004231 24.759794 
L 492.237443 24.473793 
L 489.42335 24.503403 
" style="fill:none;stroke:#999999;"/>
    <path clip-path="url(#pa945fa9139)" d="M 501.741971 21.357396 
L 499.85347 22.616472 
" style="fill:none;stroke:#999999;"/>
    <path clip-path="url(#pa945fa9139)" d="M 501.741971 21.357396 
L 504.162385 23.662898 
L 505.21202 24.282678 
L 513.821967 27.405805 
L 514.728111 27.644699 
L 534.117706 30.505378 
L 537.027459 30.553157 
L 539.569814 29.574699 
" style="fill:none;stroke:#999999;"/>
    <path clip-path="url(#pa945fa9139)" d="M 273.283242 76.60195 
L 276.224006 65.069732 
" style="fill:none;stroke:#999999;"/>
    <path clip-path="url(#pa945fa9139)" d="M 273.283242 76.60195 
L 268.747265 94.389843 
L 268.189597 96.873674 
L 268.216403 98.980657 
L 270.140646 118.061273 
L 272.681424 141.204444 
L 273.609643 150.756192 
L 274.155222 153.715793 
L 274.470586 155.585901 
" style="fill:none;stroke:#999999;"/>
    <path clip-path="url(#pa945fa9139)" d="M 273.283242 76.60195 
L 265.111125 75.680018 
L 264.998645 80.387252 
" style="fill:none;stroke:#999999;"/>
    <path clip-path="url(#pa945fa9139)" d="M 380.271337 109.629302 
L 378.902134 110.741676 
L 376.45176 112.330494 
" style="fill:none;stroke:#999999;"/>
    <path clip-path="url(#pa945fa9139)" d="M 380.271337 109.629302 
L 377.160802 107.33524 
L 373.268692 105.967148 
" style="fill:none;stroke:#999999;"/>
    <path clip-path="url(#pa945fa9139)" d="M 380.271337 109.629302 
L 383.05547 110.434814 
L 384.637018 111.422021 
" style="fill:none;stroke:#999999;"/>
    <path clip-path="url(#pa945fa9139)" d="M 380.271337 109.629302 
L 380.481053 109.459047 
L 381.738302 108.226889 
L 383.131683 107.25516 
L 384.271722 106.751126 
L 386.262716 106.46849 
" style="fill:none;stroke:#999999;"/>
    <path clip-path="url(#pa945fa9139)" d="M 255.919332 48.452086 
L 256.508536 50.446015 
L 257.64437 51.532817 
" style="fill:none;stroke:#999999;"/>
    <path clip-path="url(#pa945fa9139)" d="M 266.611203 58.065745 
L 276.224006 65.069732 
" style="fill:none;stroke:#999999;"/>
    <path clip-path="url(#pa945fa9139)" d="M 266.611203 58.065745 
L 261.383003 54.256889 
" style="fill:none;stroke:#999999;"/>
    <path clip-path="url(#pa945fa9139)" d="M 266.611203 58.065745 
L 269.256577 53.578563 
" style="fill:none;stroke:#999999;"/>
    <path clip-path="url(#pa945fa9139)" d="M 266.611203 58.065745 
L 262.885184 63.783738 
" style="fill:none;stroke:#999999;"/>
    <path clip-path="url(#pa945fa9139)" d="M 373.268692 105.967148 
L 372.359919 106.03175 
L 368.631798 105.875628 
" style="fill:none;stroke:#999999;"/>
    <path clip-path="url(#pa945fa9139)" d="M 373.268692 105.967148 
L 377.999669 105.630004 
L 381.907022 105.472535 
L 384.382625 105.664324 
L 386.262716 106.46849 
" style="fill:none;stroke:#999999;"/>
    <path clip-path="url(#pa945fa9139)" d="M 373.268692 105.967148 
L 377.160802 107.33524 
L 380.271337 109.629302 
" style="fill:none;stroke:#999999;"/>
    <path clip-path="url(#pa945fa9139)" d="M 261.383003 54.256889 
L 266.611203 58.065745 
" style="fill:none;stroke:#999999;"/>
    <path clip-path="url(#pa945fa9139)" d="M 261.383003 54.256889 
L 257.64437 51.532817 
" style="fill:none;stroke:#999999;"/>
    <path clip-path="url(#pa945fa9139)" d="M 261.383003 54.256889 
L 255.810531 54.047604 
" style="fill:none;stroke:#999999;"/>
    <path clip-path="url(#pa945fa9139)" d="M 344.903328 95.621328 
L 346.792881 92.479358 
" style="fill:none;stroke:#999999;"/>
    <path clip-path="url(#pa945fa9139)" d="M 365.514431 105.771322 
L 368.631798 105.875628 
" style="fill:none;stroke:#999999;"/>
    <path clip-path="url(#pa945fa9139)" d="M 365.514431 105.771322 
L 365.025617 103.695967 
" style="fill:none;stroke:#999999;"/>
    <path clip-path="url(#pa945fa9139)" d="M 365.514431 105.771322 
L 366.390615 109.487984 
" style="fill:none;stroke:#999999;"/>
    <path clip-path="url(#pa945fa9139)" d="M 346.792881 92.479358 
L 358.150695 99.639468 
" style="fill:none;stroke:#999999;"/>
    <path clip-path="url(#pa945fa9139)" d="M 346.792881 92.479358 
L 344.903328 95.621328 
" style="fill:none;stroke:#999999;"/>
    <path clip-path="url(#pa945fa9139)" d="M 346.792881 92.479358 
L 349.089252 89.331333 
" style="fill:none;stroke:#999999;"/>
    <path clip-path="url(#pa945fa9139)" d="M 346.792881 92.479358 
L 344.018208 90.730381 
L 343.753828 90.291622 
L 343.838451 89.869014 
L 345.760065 86.88384 
" style="fill:none;stroke:#999999;"/>
    <path clip-path="url(#pa945fa9139)" d="M 276.224006 65.069732 
L 273.283242 76.60195 
" style="fill:none;stroke:#999999;"/>
    <path clip-path="url(#pa945fa9139)" d="M 276.224006 65.069732 
L 266.611203 58.065745 
" style="fill:none;stroke:#999999;"/>
    <path clip-path="url(#pa945fa9139)" d="M 276.224006 65.069732 
L 277.8455 58.608136 
L 278.534043 56.698325 
L 279.477506 55.525386 
L 280.209149 54.79457 
L 281.106883 54.167388 
" style="fill:none;stroke:#999999;"/>
    <path clip-path="url(#pa945fa9139)" d="M 349.089252 89.331333 
L 345.760065 86.88384 
" style="fill:none;stroke:#999999;"/>
    <path clip-path="url(#pa945fa9139)" d="M 349.089252 89.331333 
L 346.792881 92.479358 
" style="fill:none;stroke:#999999;"/>
    <path clip-path="url(#pa945fa9139)" d="M 349.089252 89.331333 
L 353.917466 92.881105 
L 355.7471 94.261311 
" style="fill:none;stroke:#999999;"/>
    <path clip-path="url(#pa945fa9139)" d="M 371.737602 115.827777 
L 372.779353 117.671639 
" style="fill:none;stroke:#999999;"/>
    <path clip-path="url(#pa945fa9139)" d="M 371.737602 115.827777 
L 372.000931 115.622529 
L 372.067683 115.471117 
" style="fill:none;stroke:#999999;"/>
    <path clip-path="url(#pa945fa9139)" d="M 371.737602 115.827777 
L 371.239854 116.214719 
L 370.172874 116.542442 
L 369.125342 116.863435 
L 367.696746 117.52763 
" style="fill:none;stroke:#999999;"/>
    <path clip-path="url(#pa945fa9139)" d="M 391.335337 105.316412 
L 403.297072 98.111215 
" style="fill:none;stroke:#999999;"/>
    <path clip-path="url(#pa945fa9139)" d="M 391.335337 105.316412 
L 388.357255 107.109805 
" style="fill:none;stroke:#999999;"/>
    <path clip-path="url(#pa945fa9139)" d="M 391.335337 105.316412 
L 393.911856 108.378301 
L 395.26424 110.800895 
L 399.033358 116.01149 
" style="fill:none;stroke:#999999;"/>
    <path clip-path="url(#pa945fa9139)" d="M 357.894725 91.651639 
L 360.408171 93.593752 
" style="fill:none;stroke:#999999;"/>
    <path clip-path="url(#pa945fa9139)" d="M 357.894725 91.651639 
L 348.459051 84.360305 
" style="fill:none;stroke:#999999;"/>
    <path clip-path="url(#pa945fa9139)" d="M 357.894725 91.651639 
L 355.7471 94.261311 
" style="fill:none;stroke:#999999;"/>
    <path clip-path="url(#pa945fa9139)" d="M 355.7471 94.261311 
L 359.920409 97.410009 
" style="fill:none;stroke:#999999;"/>
    <path clip-path="url(#pa945fa9139)" d="M 355.7471 94.261311 
L 357.894725 91.651639 
" style="fill:none;stroke:#999999;"/>
    <path clip-path="url(#pa945fa9139)" d="M 355.7471 94.261311 
L 353.917466 92.881105 
L 349.089252 89.331333 
" style="fill:none;stroke:#999999;"/>
    <path clip-path="url(#pa945fa9139)" d="M 367.050251 94.863594 
L 365.724673 94.613933 
L 364.839553 97.018357 
" style="fill:none;stroke:#999999;"/>
    <path clip-path="url(#pa945fa9139)" d="M 269.256577 53.578563 
L 266.611203 58.065745 
" style="fill:none;stroke:#999999;"/>
    <path clip-path="url(#pa945fa9139)" d="M 269.256577 53.578563 
L 266.47402 53.653933 
L 263.041815 52.980317 
L 260.245593 52.478975 
L 257.64437 51.532817 
" style="fill:none;stroke:#999999;"/>
    <path clip-path="url(#pa945fa9139)" d="M 269.256577 53.578563 
L 269.563531 53.570488 
L 272.181573 53.815439 
L 273.927635 53.975599 
L 276.824774 54.505205 
L 278.710121 54.461464 
L 281.106883 54.167388 
" style="fill:none;stroke:#999999;"/>
    <path clip-path="url(#pa945fa9139)" d="M 269.256577 53.578563 
L 272.922677 47.097452 
L 275.460301 43.940678 
" style="fill:none;stroke:#999999;"/>
    <path clip-path="url(#pa945fa9139)" d="M 370.781525 114.930744 
L 370.0215 114.611096 
" style="fill:none;stroke:#999999;"/>
    <path clip-path="url(#pa945fa9139)" d="M 370.781525 114.930744 
L 370.638035 115.415263 
L 369.894303 115.128589 
L 370.0215 114.611096 
" style="fill:none;stroke:#999999;"/>
    <path clip-path="url(#pa945fa9139)" d="M 370.781525 114.930744 
L 372.067683 115.471117 
" style="fill:none;stroke:#999999;"/>
    <path clip-path="url(#pa945fa9139)" d="M 264.998645 80.387252 
L 265.111125 75.680018 
L 273.283242 76.60195 
" style="fill:none;stroke:#999999;"/>
    <path clip-path="url(#pa945fa9139)" d="M 370.651175 111.997387 
L 372.933881 113.504779 
" style="fill:none;stroke:#999999;"/>
    <path clip-path="url(#pa945fa9139)" d="M 370.651175 111.997387 
L 370.0215 114.611096 
" style="fill:none;stroke:#999999;"/>
    <path clip-path="url(#pa945fa9139)" d="M 370.651175 111.997387 
L 368.308025 110.450292 
L 366.61137 109.599019 
" style="fill:none;stroke:#999999;"/>
    <path clip-path="url(#pa945fa9139)" d="M 370.0215 114.611096 
L 370.651175 111.997387 
" style="fill:none;stroke:#999999;"/>
    <path clip-path="url(#pa945fa9139)" d="M 370.0215 114.611096 
L 370.781525 114.930744 
" style="fill:none;stroke:#999999;"/>
    <path clip-path="url(#pa945fa9139)" d="M 370.0215 114.611096 
L 369.894303 115.128589 
L 370.638035 115.415263 
L 370.781525 114.930744 
" style="fill:none;stroke:#999999;"/>
    <path clip-path="url(#pa945fa9139)" d="M 372.067683 115.471117 
L 372.933881 113.504779 
" style="fill:none;stroke:#999999;"/>
    <path clip-path="url(#pa945fa9139)" d="M 372.067683 115.471117 
L 370.781525 114.930744 
" style="fill:none;stroke:#999999;"/>
    <path clip-path="url(#pa945fa9139)" d="M 372.067683 115.471117 
L 372.000931 115.622529 
L 371.737602 115.827777 
" style="fill:none;stroke:#999999;"/>
    <path clip-path="url(#pa945fa9139)" d="M 363.120822 121.823023 
L 365.038232 122.781293 
L 366.327543 123.903088 
" style="fill:none;stroke:#999999;"/>
    <path clip-path="url(#pa945fa9139)" d="M 363.120822 121.823023 
L 359.906743 119.765164 
L 358.538066 119.122504 
" style="fill:none;stroke:#999999;"/>
    <path clip-path="url(#pa945fa9139)" d="M 363.120822 121.823023 
L 367.068121 117.82036 
L 367.696746 117.52763 
" style="fill:none;stroke:#999999;"/>
    <path clip-path="url(#pa945fa9139)" d="M 363.120822 121.823023 
L 359.258146 129.208568 
L 360.047606 129.236832 
L 361.148224 128.230782 
" style="fill:none;stroke:#999999;"/>
    <path clip-path="url(#pa945fa9139)" d="M 335.755686 76.189436 
L 333.023062 72.410863 
" style="fill:none;stroke:#999999;"/>
    <path clip-path="url(#pa945fa9139)" d="M 335.755686 76.189436 
L 337.751937 78.762769 
" style="fill:none;stroke:#999999;"/>
    <path clip-path="url(#pa945fa9139)" d="M 335.755686 76.189436 
L 336.08892 77.50302 
L 336.278664 79.281607 
" style="fill:none;stroke:#999999;"/>
    <path clip-path="url(#pa945fa9139)" d="M 354.24229 79.331405 
L 352.691754 82.20016 
" style="fill:none;stroke:#999999;"/>
    <path clip-path="url(#pa945fa9139)" d="M 352.691754 82.20016 
L 354.24229 79.331405 
" style="fill:none;stroke:#999999;"/>
    <path clip-path="url(#pa945fa9139)" d="M 352.691754 82.20016 
L 354.013652 84.670532 
L 356.833527 88.476023 
L 361.3448 92.027141 
L 360.408171 93.593752 
" style="fill:none;stroke:#999999;"/>
    <path clip-path="url(#pa945fa9139)" d="M 352.691754 82.20016 
L 352.29387 81.457231 
L 348.459051 84.360305 
" style="fill:none;stroke:#999999;"/>
    <path clip-path="url(#pa945fa9139)" d="M 406.701946 111.669664 
L 405.581354 112.224842 
" style="fill:none;stroke:#999999;"/>
    <path clip-path="url(#pa945fa9139)" d="M 325.338707 78.86371 
L 333.023062 72.410863 
" style="fill:none;stroke:#999999;"/>
    <path clip-path="url(#pa945fa9139)" d="M 405.581354 112.224842 
L 406.701946 111.669664 
" style="fill:none;stroke:#999999;"/>
    <path clip-path="url(#pa945fa9139)" d="M 405.581354 112.224842 
L 404.798727 111.247056 
" style="fill:none;stroke:#999999;"/>
    <path clip-path="url(#pa945fa9139)" d="M 405.581354 112.224842 
L 406.252027 113.061982 
" style="fill:none;stroke:#999999;"/>
    <path clip-path="url(#pa945fa9139)" d="M 349.787782 63.275666 
L 350.995624 57.613527 
" style="fill:none;stroke:#999999;"/>
    <path clip-path="url(#pa945fa9139)" d="M 349.787782 63.275666 
L 347.115603 68.838883 
L 345.458368 71.291759 
L 343.217711 74.009102 
L 331.904573 87.065535 
" style="fill:none;stroke:#999999;"/>
    <path clip-path="url(#pa945fa9139)" d="M 275.460301 43.940678 
L 272.922677 47.097452 
L 269.256577 53.578563 
" style="fill:none;stroke:#999999;"/>
    <path clip-path="url(#pa945fa9139)" d="M 358.150695 99.639468 
L 346.792881 92.479358 
" style="fill:none;stroke:#999999;"/>
    <path clip-path="url(#pa945fa9139)" d="M 358.150695 99.639468 
L 359.920409 97.410009 
" style="fill:none;stroke:#999999;"/>
    <path clip-path="url(#pa945fa9139)" d="M 358.150695 99.639468 
L 358.777217 100.034486 
L 363.126604 102.031779 
" style="fill:none;stroke:#999999;"/>
    <path clip-path="url(#pa945fa9139)" d="M 359.920409 97.410009 
L 355.7471 94.261311 
" style="fill:none;stroke:#999999;"/>
    <path clip-path="url(#pa945fa9139)" d="M 359.920409 97.410009 
L 358.150695 99.639468 
" style="fill:none;stroke:#999999;"/>
    <path clip-path="url(#pa945fa9139)" d="M 359.920409 97.410009 
L 362.690351 99.500169 
L 363.310566 100.10178 
" style="fill:none;stroke:#999999;"/>
    <path clip-path="url(#pa945fa9139)" d="M 262.885184 63.783738 
L 266.611203 58.065745 
" style="fill:none;stroke:#999999;"/>
    <path clip-path="url(#pa945fa9139)" d="M 345.760065 86.88384 
L 345.384783 86.607934 
" style="fill:none;stroke:#999999;"/>
    <path clip-path="url(#pa945fa9139)" d="M 345.760065 86.88384 
L 349.089252 89.331333 
" style="fill:none;stroke:#999999;"/>
    <path clip-path="url(#pa945fa9139)" d="M 345.760065 86.88384 
L 343.838451 89.869014 
L 343.753828 90.291622 
L 344.018208 90.730381 
L 346.792881 92.479358 
" style="fill:none;stroke:#999999;"/>
    <path clip-path="url(#pa945fa9139)" d="M 406.252027 113.061982 
L 410.962506 111.136693 
" style="fill:none;stroke:#999999;"/>
    <path clip-path="url(#pa945fa9139)" d="M 406.252027 113.061982 
L 399.033358 116.01149 
" style="fill:none;stroke:#999999;"/>
    <path clip-path="url(#pa945fa9139)" d="M 406.252027 113.061982 
L 405.581354 112.224842 
" style="fill:none;stroke:#999999;"/>
    <path clip-path="url(#pa945fa9139)" d="M 403.297072 98.111215 
L 391.335337 105.316412 
" style="fill:none;stroke:#999999;"/>
    <path clip-path="url(#pa945fa9139)" d="M 403.297072 98.111215 
L 403.921491 98.652934 
L 404.626329 99.273387 
L 405.302783 100.175131 
L 406.00762 101.35951 
L 406.430733 102.430161 
L 407.332672 103.642804 
L 408.629867 105.277382 
L 408.77073 105.981953 
L 412.049984 110.764556 
" style="fill:none;stroke:#999999;"/>
    <path clip-path="url(#pa945fa9139)" d="M 403.297072 98.111215 
L 406.655167 96.089023 
L 411.764054 91.982054 
L 419.582965 85.442397 
L 421.233367 83.530567 
L 422.455926 81.778225 
L 423.685317 78.874477 
L 424.983038 74.75203 
L 425.688401 72.511131 
L 427.181647 67.768905 
L 430.810429 56.080564 
L 433.850006 52.069826 
L 442.922487 41.52616 
L 444.50456 40.287273 
L 446.2317 39.654034 
L 447.65031 39.411101 
L 449.512005 39.421868 
L 503.241524 43.437317 
L 505.509513 44.149291 
L 509.696488 46.466905 
L 511.335326 46.979014 
L 513.010432 47.000549 
L 514.388044 46.812125 
L 515.676304 46.295978 
L 517.642069 44.981048 
L 521.298708 41.691031 
L 522.723625 40.44676 
L 523.776414 38.787957 
L 524.089149 37.444763 
L 524.178502 35.666849 
L 524.148543 32.491905 
L 524.105443 31.656783 
" style="fill:none;stroke:#999999;"/>
    <path clip-path="url(#pa945fa9139)" d="M 497.432004 25.694511 
L 510.801311 27.574713 
" style="fill:none;stroke:#999999;"/>
    <path clip-path="url(#pa945fa9139)" d="M 497.432004 25.694511 
L 497.0378 27.195846 
" style="fill:none;stroke:#999999;"/>
    <path clip-path="url(#pa945fa9139)" d="M 497.432004 25.694511 
L 497.612812 24.533012 
L 498.331315 23.543787 
" style="fill:none;stroke:#999999;"/>
    <path clip-path="url(#pa945fa9139)" d="M 497.432004 25.694511 
L 492.953843 24.99667 
L 489.42335 24.503403 
" style="fill:none;stroke:#999999;"/>
    <path clip-path="url(#pa945fa9139)" d="M 386.262716 106.46849 
L 388.357255 107.109805 
" style="fill:none;stroke:#999999;"/>
    <path clip-path="url(#pa945fa9139)" d="M 386.262716 106.46849 
L 384.382625 105.664324 
L 381.907022 105.472535 
L 377.999669 105.630004 
L 373.268692 105.967148 
" style="fill:none;stroke:#999999;"/>
    <path clip-path="url(#pa945fa9139)" d="M 386.262716 106.46849 
L 384.271722 106.751126 
L 383.131683 107.25516 
L 381.738302 108.226889 
L 380.481053 109.459047 
L 380.271337 109.629302 
" style="fill:none;stroke:#999999;"/>
    <path clip-path="url(#pa945fa9139)" d="M 388.357255 107.109805 
L 384.637018 111.422021 
" style="fill:none;stroke:#999999;"/>
    <path clip-path="url(#pa945fa9139)" d="M 388.357255 107.109805 
L 386.262716 106.46849 
" style="fill:none;stroke:#999999;"/>
    <path clip-path="url(#pa945fa9139)" d="M 388.357255 107.109805 
L 391.335337 105.316412 
" style="fill:none;stroke:#999999;"/>
    <path clip-path="url(#pa945fa9139)" d="M 386.467177 128.250298 
L 383.22419 126.728102 
L 374.725145 124.297433 
" style="fill:none;stroke:#999999;"/>
    <path clip-path="url(#pa945fa9139)" d="M 386.467177 128.250298 
L 391.344798 130.561856 
L 394.728122 132.732769 
L 396.612418 133.920513 
L 391.556617 125.586791 
L 390.827602 124.240233 
" style="fill:none;stroke:#999999;"/>
    <path clip-path="url(#pa945fa9139)" d="M 386.467177 128.250298 
L 387.707606 125.826358 
L 390.827602 124.240233 
" style="fill:none;stroke:#999999;"/>
    <path clip-path="url(#pa945fa9139)" d="M 404.798727 111.247056 
L 405.581354 112.224842 
" style="fill:none;stroke:#999999;"/>
   </g>
  </g>
 </g>
 <defs>
  <clipPath id="pa945fa9139">
   <rect height="432" width="493.802532" x="69.210958" y="0"/>
  </clipPath>
 </defs>
</svg>
