<?xml version="1.0" encoding="utf-8" standalone="no"?>
<!DOCTYPE svg PUBLIC "-//W3C//DTD SVG 1.1//EN"
  "http://www.w3.org/Graphics/SVG/1.1/DTD/svg11.dtd">
<!-- Created with matplotlib (http://matplotlib.org/) -->
<svg height="432pt" version="1.1" viewBox="0 0 539.409895 432" width="539.409895pt" xmlns="http://www.w3.org/2000/svg" xmlns:xlink="http://www.w3.org/1999/xlink">
 <defs>
  <style type="text/css">
*{stroke-linecap:butt;stroke-linejoin:round;}
  </style>
 </defs>
 <g id="figure_1">
  <g id="patch_1">
   <path d="M 0 432 
L 539.409895 432 
L 539.409895 0 
L 0 0 
z
" style="fill:none;opacity:0;"/>
  </g>
  <g id="axes_1">
   <g id="PathCollection_1">
    <defs>
     <path d="M 0 1.936492 
C 0.513564 1.936492 1.006162 1.732451 1.369306 1.369306 
C 1.732451 1.006162 1.936492 0.513564 1.936492 0 
C 1.936492 -0.513564 1.732451 -1.006162 1.369306 -1.369306 
C 1.006162 -1.732451 0.513564 -1.936492 0 -1.936492 
C -0.513564 -1.936492 -1.006162 -1.732451 -1.369306 -1.369306 
C -1.732451 -1.006162 -1.936492 -0.513564 -1.936492 0 
C -1.936492 0.513564 -1.732451 1.006162 -1.369306 1.369306 
C -1.006162 1.732451 -0.513564 1.936492 0 1.936492 
z
" id="C0_0_d8b06d62f7"/>
    </defs>
    <g clip-path="url(#p6b04b173e6)">
     <use style="fill:#66ccff;" x="223.175791" xlink:href="#C0_0_d8b06d62f7" y="248.269728"/>
    </g>
    <g clip-path="url(#p6b04b173e6)">
     <use style="fill:#66ccff;" x="221.853465" xlink:href="#C0_0_d8b06d62f7" y="240.975797"/>
    </g>
    <g clip-path="url(#p6b04b173e6)">
     <use style="fill:#66ccff;" x="216.90791" xlink:href="#C0_0_d8b06d62f7" y="251.505123"/>
    </g>
    <g clip-path="url(#p6b04b173e6)">
     <use style="fill:#66ccff;" x="214.41263" xlink:href="#C0_0_d8b06d62f7" y="248.590625"/>
    </g>
    <g clip-path="url(#p6b04b173e6)">
     <use style="fill:#66ccff;" x="207.120689" xlink:href="#C0_0_d8b06d62f7" y="254.739903"/>
    </g>
    <g clip-path="url(#p6b04b173e6)">
     <use style="fill:#66ccff;" x="217.3814" xlink:href="#C0_0_d8b06d62f7" y="256.151969"/>
    </g>
    <g clip-path="url(#p6b04b173e6)">
     <use style="fill:#66ccff;" x="225.569095" xlink:href="#C0_0_d8b06d62f7" y="259.312365"/>
    </g>
    <g clip-path="url(#p6b04b173e6)">
     <use style="fill:#66ccff;" x="215.683729" xlink:href="#C0_0_d8b06d62f7" y="238.551864"/>
    </g>
    <g clip-path="url(#p6b04b173e6)">
     <use style="fill:#66ccff;" x="226.448571" xlink:href="#C0_0_d8b06d62f7" y="242.330077"/>
    </g>
    <g clip-path="url(#p6b04b173e6)">
     <use style="fill:#66ccff;" x="215.786662" xlink:href="#C0_0_d8b06d62f7" y="251.882576"/>
    </g>
    <g clip-path="url(#p6b04b173e6)">
     <use style="fill:#66ccff;" x="220.668064" xlink:href="#C0_0_d8b06d62f7" y="256.189468"/>
    </g>
    <g clip-path="url(#p6b04b173e6)">
     <use style="fill:#66ccff;" x="219.032631" xlink:href="#C0_0_d8b06d62f7" y="254.018809"/>
    </g>
    <g clip-path="url(#p6b04b173e6)">
     <use style="fill:#66ccff;" x="212.141409" xlink:href="#C0_0_d8b06d62f7" y="245.183102"/>
    </g>
    <g clip-path="url(#p6b04b173e6)">
     <use style="fill:#66ccff;" x="222.055501" xlink:href="#C0_0_d8b06d62f7" y="241.013911"/>
    </g>
    <g clip-path="url(#p6b04b173e6)">
     <use style="fill:#66ccff;" x="214.526574" xlink:href="#C0_0_d8b06d62f7" y="237.709051"/>
    </g>
    <g clip-path="url(#p6b04b173e6)">
     <use style="fill:#66ccff;" x="225.707456" xlink:href="#C0_0_d8b06d62f7" y="234.724471"/>
    </g>
    <g clip-path="url(#p6b04b173e6)">
     <use style="fill:#66ccff;" x="208.015963" xlink:href="#C0_0_d8b06d62f7" y="232.778808"/>
    </g>
    <g clip-path="url(#p6b04b173e6)">
     <use style="fill:#66ccff;" x="373.457008" xlink:href="#C0_0_d8b06d62f7" y="8.307692"/>
    </g>
    <g clip-path="url(#p6b04b173e6)">
     <use style="fill:#66ccff;" x="471.670093" xlink:href="#C0_0_d8b06d62f7" y="293.869554"/>
    </g>
    <g clip-path="url(#p6b04b173e6)">
     <use style="fill:#66ccff;" x="167.193825" xlink:href="#C0_0_d8b06d62f7" y="113.950741"/>
    </g>
    <g clip-path="url(#p6b04b173e6)">
     <use style="fill:#66ccff;" x="237.154047" xlink:href="#C0_0_d8b06d62f7" y="243.603211"/>
    </g>
    <g clip-path="url(#p6b04b173e6)">
     <use style="fill:#66ccff;" x="223.972921" xlink:href="#C0_0_d8b06d62f7" y="235.02631"/>
    </g>
    <g clip-path="url(#p6b04b173e6)">
     <use style="fill:#66ccff;" x="225.664847" xlink:href="#C0_0_d8b06d62f7" y="260.28366"/>
    </g>
    <g clip-path="url(#p6b04b173e6)">
     <use style="fill:#66ccff;" x="76.175015" xlink:href="#C0_0_d8b06d62f7" y="423.692308"/>
    </g>
    <g clip-path="url(#p6b04b173e6)">
     <use style="fill:#66ccff;" x="208.848521" xlink:href="#C0_0_d8b06d62f7" y="230.29463"/>
    </g>
   </g>
   <g id="LineCollection_1">
    <path clip-path="url(#p6b04b173e6)" d="M 223.175791 248.269728 
L 220.342988 250.136704 
L 217.998996 251.175621 
L 216.90791 251.505123 
" style="fill:none;stroke:#999999;"/>
    <path clip-path="url(#p6b04b173e6)" d="M 223.175791 248.269728 
L 222.877526 247.444128 
L 222.564419 246.20542 
L 222.044489 243.226988 
L 221.965016 241.999345 
L 221.853465 240.975797 
" style="fill:none;stroke:#999999;"/>
    <path clip-path="url(#p6b04b173e6)" d="M 223.175791 248.269728 
L 225.969815 243.504852 
L 226.448571 242.330077 
" style="fill:none;stroke:#999999;"/>
    <path clip-path="url(#p6b04b173e6)" d="M 223.175791 248.269728 
L 223.48794 250.01437 
L 223.875733 251.629916 
L 225.703626 256.838638 
L 225.569095 259.312365 
" style="fill:none;stroke:#999999;"/>
    <path clip-path="url(#p6b04b173e6)" d="M 221.853465 240.975797 
L 222.055501 241.013911 
" style="fill:none;stroke:#999999;"/>
    <path clip-path="url(#p6b04b173e6)" d="M 221.853465 240.975797 
L 221.718456 242.035615 
L 220.987395 243.607514 
L 216.90791 251.505123 
" style="fill:none;stroke:#999999;"/>
    <path clip-path="url(#p6b04b173e6)" d="M 221.853465 240.975797 
L 221.965016 241.999345 
L 222.044489 243.226988 
L 222.564419 246.20542 
L 222.877526 247.444128 
L 223.175791 248.269728 
" style="fill:none;stroke:#999999;"/>
    <path clip-path="url(#p6b04b173e6)" d="M 221.853465 240.975797 
L 219.343823 240.300194 
L 216.971106 239.27972 
L 215.683729 238.551864 
" style="fill:none;stroke:#999999;"/>
    <path clip-path="url(#p6b04b173e6)" d="M 216.90791 251.505123 
L 215.786662 251.882576 
" style="fill:none;stroke:#999999;"/>
    <path clip-path="url(#p6b04b173e6)" d="M 216.90791 251.505123 
L 220.987395 243.607514 
L 221.718456 242.035615 
L 221.853465 240.975797 
" style="fill:none;stroke:#999999;"/>
    <path clip-path="url(#p6b04b173e6)" d="M 216.90791 251.505123 
L 217.998996 251.175621 
L 220.342988 250.136704 
L 223.175791 248.269728 
" style="fill:none;stroke:#999999;"/>
    <path clip-path="url(#p6b04b173e6)" d="M 214.41263 248.590625 
L 215.786662 251.882576 
" style="fill:none;stroke:#999999;"/>
    <path clip-path="url(#p6b04b173e6)" d="M 214.41263 248.590625 
L 212.141409 245.183102 
" style="fill:none;stroke:#999999;"/>
    <path clip-path="url(#p6b04b173e6)" d="M 214.41263 248.590625 
L 215.758415 243.787634 
L 215.56404 242.885191 
L 215.683729 238.551864 
" style="fill:none;stroke:#999999;"/>
    <path clip-path="url(#p6b04b173e6)" d="M 207.120689 254.739903 
L 210.072223 255.401982 
L 217.3814 256.151969 
" style="fill:none;stroke:#999999;"/>
    <path clip-path="url(#p6b04b173e6)" d="M 207.120689 254.739903 
L 209.358876 254.032948 
L 213.287552 252.815756 
L 215.786662 251.882576 
" style="fill:none;stroke:#999999;"/>
    <path clip-path="url(#p6b04b173e6)" d="M 207.120689 254.739903 
L 207.237984 253.990531 
L 207.903456 253.215954 
L 208.732183 251.808807 
L 209.822791 249.768473 
L 210.913877 248.088994 
L 211.546315 247.390645 
L 212.113641 245.754813 
L 212.141409 245.183102 
" style="fill:none;stroke:#999999;"/>
    <path clip-path="url(#p6b04b173e6)" d="M 207.120689 254.739903 
L 205.765807 255.096455 
L 204.509071 255.732714 
L 199.372492 258.968724 
L 191.771752 265.210214 
L 187.662584 267.239482 
L 179.341795 273.198191 
L 177.928984 274.81681 
L 172.869484 277.025583 
L 169.454035 281.598045 
L 165.370241 285.861906 
L 163.72667 290.177405 
L 163.084657 294.132664 
L 163.058804 295.211539 
L 158.461783 299.424376 
L 156.227426 300.605913 
L 154.378468 301.119839 
L 151.193779 301.350982 
L 145.300764 303.426356 
L 143.759647 304.377364 
L 141.782382 306.047007 
L 137.570282 307.510712 
L 136.645803 308.076276 
L 133.960457 311.6006 
L 131.520713 313.963674 
L 126.332907 318.20233 
L 123.32823 321.95288 
L 116.008521 327.886998 
L 112.875538 332.793881 
L 106.171988 340.089656 
L 102.884845 344.559456 
L 101.292501 346.435038 
L 97.15748 352.549276 
L 93.870337 356.531585 
L 91.148127 360.975565 
L 88.528371 363.082291 
L 87.552186 364.264443 
L 85.16367 366.242687 
L 79.71925 372.459588 
L 76.534561 376.724678 
L 74.608523 380.887106 
L 69.626103 389.673634 
L 67.739802 394.370274 
L 67.956679 395.480501 
L 69.471944 396.739495 
L 74.288714 397.992957 
L 77.935403 399.689035 
L 81.762104 401.744122 
L 84.6131 404.211087 
L 85.717112 404.647555 
L 87.566549 405.392624 
L 91.059078 404.904518 
L 93.293914 405.289962 
L 95.154362 406.143226 
L 95.257295 406.682356 
L 94.717736 407.607545 
L 87.988812 412.129598 
L 85.189523 413.697194 
L 82.852233 415.470114 
L 81.029128 417.243034 
L 77.510267 419.863685 
L 76.175015 423.692308 
" style="fill:none;stroke:#999999;"/>
    <path clip-path="url(#p6b04b173e6)" d="M 217.3814 256.151969 
L 220.668064 256.189468 
" style="fill:none;stroke:#999999;"/>
    <path clip-path="url(#p6b04b173e6)" d="M 217.3814 256.151969 
L 215.786662 251.882576 
" style="fill:none;stroke:#999999;"/>
    <path clip-path="url(#p6b04b173e6)" d="M 217.3814 256.151969 
L 210.072223 255.401982 
L 207.120689 254.739903 
" style="fill:none;stroke:#999999;"/>
    <path clip-path="url(#p6b04b173e6)" d="M 225.569095 259.312365 
L 225.664847 260.28366 
" style="fill:none;stroke:#999999;"/>
    <path clip-path="url(#p6b04b173e6)" d="M 225.569095 259.312365 
L 224.489978 258.211974 
L 223.130309 256.988635 
L 221.044367 256.193772 
L 220.668064 256.189468 
" style="fill:none;stroke:#999999;"/>
    <path clip-path="url(#p6b04b173e6)" d="M 225.569095 259.312365 
L 225.703626 256.838638 
L 223.875733 251.629916 
L 223.48794 250.01437 
L 223.175791 248.269728 
" style="fill:none;stroke:#999999;"/>
    <path clip-path="url(#p6b04b173e6)" d="M 215.683729 238.551864 
L 214.526574 237.709051 
" style="fill:none;stroke:#999999;"/>
    <path clip-path="url(#p6b04b173e6)" d="M 215.683729 238.551864 
L 215.56404 242.885191 
L 215.758415 243.787634 
L 214.41263 248.590625 
" style="fill:none;stroke:#999999;"/>
    <path clip-path="url(#p6b04b173e6)" d="M 215.683729 238.551864 
L 216.971106 239.27972 
L 219.343823 240.300194 
L 221.853465 240.975797 
" style="fill:none;stroke:#999999;"/>
    <path clip-path="url(#p6b04b173e6)" d="M 226.448571 242.330077 
L 229.905194 243.208546 
L 231.743619 243.423091 
L 233.955953 243.539892 
L 237.154047 243.603211 
" style="fill:none;stroke:#999999;"/>
    <path clip-path="url(#p6b04b173e6)" d="M 226.448571 242.330077 
L 223.174834 241.353865 
L 222.055501 241.013911 
" style="fill:none;stroke:#999999;"/>
    <path clip-path="url(#p6b04b173e6)" d="M 226.448571 242.330077 
L 225.969815 243.504852 
L 223.175791 248.269728 
" style="fill:none;stroke:#999999;"/>
    <path clip-path="url(#p6b04b173e6)" d="M 215.786662 251.882576 
L 216.90791 251.505123 
" style="fill:none;stroke:#999999;"/>
    <path clip-path="url(#p6b04b173e6)" d="M 215.786662 251.882576 
L 214.41263 248.590625 
" style="fill:none;stroke:#999999;"/>
    <path clip-path="url(#p6b04b173e6)" d="M 215.786662 251.882576 
L 217.3814 256.151969 
" style="fill:none;stroke:#999999;"/>
    <path clip-path="url(#p6b04b173e6)" d="M 215.786662 251.882576 
L 213.287552 252.815756 
L 209.358876 254.032948 
L 207.120689 254.739903 
" style="fill:none;stroke:#999999;"/>
    <path clip-path="url(#p6b04b173e6)" d="M 220.668064 256.189468 
L 217.3814 256.151969 
" style="fill:none;stroke:#999999;"/>
    <path clip-path="url(#p6b04b173e6)" d="M 220.668064 256.189468 
L 221.044367 256.193772 
L 223.130309 256.988635 
L 224.489978 258.211974 
L 225.569095 259.312365 
" style="fill:none;stroke:#999999;"/>
    <path clip-path="url(#p6b04b173e6)" d="M 220.668064 256.189468 
L 220.799243 255.458539 
L 220.188829 255.044201 
L 219.032631 254.018809 
" style="fill:none;stroke:#999999;"/>
    <path clip-path="url(#p6b04b173e6)" d="M 219.032631 254.018809 
L 220.188829 255.044201 
L 220.799243 255.458539 
L 220.668064 256.189468 
" style="fill:none;stroke:#999999;"/>
    <path clip-path="url(#p6b04b173e6)" d="M 212.141409 245.183102 
L 214.41263 248.590625 
" style="fill:none;stroke:#999999;"/>
    <path clip-path="url(#p6b04b173e6)" d="M 212.141409 245.183102 
L 209.494364 241.922502 
L 209.620756 241.38829 
L 212.317113 240.810431 
L 213.704071 239.872948 
L 214.526574 237.709051 
" style="fill:none;stroke:#999999;"/>
    <path clip-path="url(#p6b04b173e6)" d="M 212.141409 245.183102 
L 212.113641 245.754813 
L 211.546315 247.390645 
L 210.913877 248.088994 
L 209.822791 249.768473 
L 208.732183 251.808807 
L 207.903456 253.215954 
L 207.237984 253.990531 
L 207.120689 254.739903 
" style="fill:none;stroke:#999999;"/>
    <path clip-path="url(#p6b04b173e6)" d="M 222.055501 241.013911 
L 221.853465 240.975797 
" style="fill:none;stroke:#999999;"/>
    <path clip-path="url(#p6b04b173e6)" d="M 222.055501 241.013911 
L 223.174834 241.353865 
L 226.448571 242.330077 
" style="fill:none;stroke:#999999;"/>
    <path clip-path="url(#p6b04b173e6)" d="M 222.055501 241.013911 
L 223.58417 235.216266 
L 223.972921 235.02631 
" style="fill:none;stroke:#999999;"/>
    <path clip-path="url(#p6b04b173e6)" d="M 214.526574 237.709051 
L 208.015963 232.778808 
" style="fill:none;stroke:#999999;"/>
    <path clip-path="url(#p6b04b173e6)" d="M 214.526574 237.709051 
L 215.683729 238.551864 
" style="fill:none;stroke:#999999;"/>
    <path clip-path="url(#p6b04b173e6)" d="M 214.526574 237.709051 
L 213.704071 239.872948 
L 212.317113 240.810431 
L 209.620756 241.38829 
L 209.494364 241.922502 
L 212.141409 245.183102 
" style="fill:none;stroke:#999999;"/>
    <path clip-path="url(#p6b04b173e6)" d="M 214.526574 237.709051 
L 218.842565 236.617881 
L 222.30972 235.090243 
L 222.797573 233.690473 
L 223.760832 234.011369 
L 223.972921 235.02631 
" style="fill:none;stroke:#999999;"/>
    <path clip-path="url(#p6b04b173e6)" d="M 225.707456 234.724471 
L 224.436357 234.800085 
L 223.972921 235.02631 
" style="fill:none;stroke:#999999;"/>
    <path clip-path="url(#p6b04b173e6)" d="M 208.015963 232.778808 
L 214.526574 237.709051 
" style="fill:none;stroke:#999999;"/>
    <path clip-path="url(#p6b04b173e6)" d="M 208.015963 232.778808 
L 208.848521 230.29463 
" style="fill:none;stroke:#999999;"/>
    <path clip-path="url(#p6b04b173e6)" d="M 373.457008 8.307692 
L 373.24827 22.213804 
L 373.222417 28.285625 
L 373.095068 28.923729 
L 372.992614 29.638061 
L 372.508112 30.913654 
L 371.818703 31.883104 
L 369.445027 35.633654 
L 362.042972 47.01317 
L 357.729375 53.774119 
L 350.786925 64.439918 
L 340.806765 79.850922 
L 332.158985 92.928359 
L 327.942576 99.626604 
L 322.939569 107.307823 
L 321.714431 109.068449 
L 316.124948 114.861176 
L 311.428346 119.913753 
L 300.86123 131.116223 
L 293.56115 138.593962 
L 289.375381 143.034254 
L 288.711824 143.570311 
L 286.925104 144.845903 
L 277.557753 150.537198 
L 276.536565 151.328373 
L 276.051585 152.093729 
L 276.000836 152.706628 
L 276.15356 153.727102 
L 276.230161 154.646144 
L 276.02621 155.513547 
L 275.592457 156.15165 
L 274.851821 156.891802 
L 273.422732 158.091166 
L 269.696091 160.949723 
L 268.190401 162.251135 
L 267.245814 163.2212 
L 266.65072 163.982253 
L 266.480761 164.182044 
L 265.500747 165.471776 
L 265.194342 166.10988 
L 264.785963 167.232401 
L 264.537967 168.238122 
L 264.180815 169.84629 
L 263.491405 172.628005 
L 262.827849 173.725322 
L 261.985716 174.618544 
L 260.479548 175.74168 
L 258.744055 177.14514 
L 258.284449 178.115205 
L 257.978044 179.46764 
L 257.595518 180.309839 
L 256.87451 180.901222 
L 254.781865 181.156341 
L 252.12716 181.360435 
L 249.932061 181.615554 
L 248.145341 182.279477 
L 245.337913 183.861827 
L 241.713246 185.954413 
L 237.323048 188.455804 
L 235.536329 189.732012 
L 234.167564 191.125021 
L 230.341341 194.373325 
L 217.972186 206.009189 
L 216.119398 207.512237 
L 215.397433 209.533514 
L 211.28252 223.033895 
L 208.848521 230.29463 
" style="fill:none;stroke:#999999;"/>
    <path clip-path="url(#p6b04b173e6)" d="M 471.670093 293.869554 
L 469.35339 294.131435 
L 467.195155 294.044141 
L 429.463869 287.45778 
L 377.91854 278.460395 
L 374.532295 277.941551 
L 357.222372 274.942218 
L 343.816229 272.657831 
L 341.580436 272.362139 
L 339.725254 272.254559 
L 318.775823 273.452694 
L 316.672645 273.426875 
L 314.255882 273.057414 
L 283.056751 262.229323 
L 251.034637 250.986895 
L 248.752405 249.843472 
L 242.365313 244.485982 
L 241.234969 243.80915 
L 239.826467 243.600137 
L 237.668711 243.613662 
L 237.154047 243.603211 
" style="fill:none;stroke:#999999;"/>
    <path clip-path="url(#p6b04b173e6)" d="M 167.193825 113.950741 
L 165.473174 119.291632 
L 165.550253 124.991534 
L 166.115186 130.127101 
L 166.320573 133.131352 
L 168.800053 150.50892 
L 167.002322 157.262492 
L 167.105255 159.393807 
L 167.78461 161.146441 
L 169.454035 163.5089 
L 171.380072 167.309859 
L 172.535791 168.69672 
L 175.309707 170.416772 
L 176.542026 172.342764 
L 179.855501 176.708672 
L 181.447366 184.849105 
L 181.499072 188.650063 
L 182.295244 191.321124 
L 187.79137 198.61444 
L 190.564807 200.848418 
L 194.364698 202.671747 
L 195.982416 203.80226 
L 197.831853 206.344839 
L 200.14329 209.066923 
L 202.916727 216.052253 
L 203.789979 221.317531 
L 206.152643 226.248388 
L 208.848521 230.29463 
" style="fill:none;stroke:#999999;"/>
    <path clip-path="url(#p6b04b173e6)" d="M 237.154047 243.603211 
L 237.668711 243.613662 
L 239.826467 243.600137 
L 241.234969 243.80915 
L 242.365313 244.485982 
L 248.752405 249.843472 
L 251.034637 250.986895 
L 283.056751 262.229323 
L 314.255882 273.057414 
L 316.672645 273.426875 
L 318.775823 273.452694 
L 339.725254 272.254559 
L 341.580436 272.362139 
L 343.816229 272.657831 
L 357.222372 274.942218 
L 374.532295 277.941551 
L 377.91854 278.460395 
L 429.463869 287.45778 
L 467.195155 294.044141 
L 469.35339 294.131435 
L 471.670093 293.869554 
" style="fill:none;stroke:#999999;"/>
    <path clip-path="url(#p6b04b173e6)" d="M 237.154047 243.603211 
L 233.955953 243.539892 
L 231.743619 243.423091 
L 229.905194 243.208546 
L 226.448571 242.330077 
" style="fill:none;stroke:#999999;"/>
    <path clip-path="url(#p6b04b173e6)" d="M 237.154047 243.603211 
L 235.765653 248.387144 
L 234.904849 250.120721 
L 233.659603 252.098966 
L 232.619265 253.421279 
L 230.528056 255.007932 
L 228.807405 258.051526 
L 228.422006 260.145343 
L 225.664847 260.28366 
" style="fill:none;stroke:#999999;"/>
    <path clip-path="url(#p6b04b173e6)" d="M 223.972921 235.02631 
L 223.58417 235.216266 
L 222.055501 241.013911 
" style="fill:none;stroke:#999999;"/>
    <path clip-path="url(#p6b04b173e6)" d="M 223.972921 235.02631 
L 224.436357 234.800085 
L 225.707456 234.724471 
" style="fill:none;stroke:#999999;"/>
    <path clip-path="url(#p6b04b173e6)" d="M 223.972921 235.02631 
L 223.760832 234.011369 
L 222.797573 233.690473 
L 222.30972 235.090243 
L 218.842565 236.617881 
L 214.526574 237.709051 
" style="fill:none;stroke:#999999;"/>
    <path clip-path="url(#p6b04b173e6)" d="M 225.664847 260.28366 
L 225.569095 259.312365 
" style="fill:none;stroke:#999999;"/>
    <path clip-path="url(#p6b04b173e6)" d="M 225.664847 260.28366 
L 228.422006 260.145343 
L 228.807405 258.051526 
L 230.528056 255.007932 
L 232.619265 253.421279 
L 233.659603 252.098966 
L 234.904849 250.120721 
L 235.765653 248.387144 
L 237.154047 243.603211 
" style="fill:none;stroke:#999999;"/>
    <path clip-path="url(#p6b04b173e6)" d="M 76.175015 423.692308 
L 77.510267 419.863685 
L 81.029128 417.243034 
L 82.852233 415.470114 
L 85.189523 413.697194 
L 87.988812 412.129598 
L 94.717736 407.607545 
L 95.257295 406.682356 
L 95.154362 406.143226 
L 93.293914 405.289962 
L 91.059078 404.904518 
L 87.566549 405.392624 
L 85.717112 404.647555 
L 84.6131 404.211087 
L 81.762104 401.744122 
L 77.935403 399.689035 
L 74.288714 397.992957 
L 69.471944 396.739495 
L 67.956679 395.480501 
L 67.739802 394.370274 
L 69.626103 389.673634 
L 74.608523 380.887106 
L 76.534561 376.724678 
L 79.71925 372.459588 
L 85.16367 366.242687 
L 87.552186 364.264443 
L 88.528371 363.082291 
L 91.148127 360.975565 
L 93.870337 356.531585 
L 97.15748 352.549276 
L 101.292501 346.435038 
L 102.884845 344.559456 
L 106.171988 340.089656 
L 112.875538 332.793881 
L 116.008521 327.886998 
L 123.32823 321.95288 
L 126.332907 318.20233 
L 131.520713 313.963674 
L 133.960457 311.6006 
L 136.645803 308.076276 
L 137.570282 307.510712 
L 141.782382 306.047007 
L 143.759647 304.377364 
L 145.300764 303.426356 
L 151.193779 301.350982 
L 154.378468 301.119839 
L 156.227426 300.605913 
L 158.461783 299.424376 
L 163.058804 295.211539 
L 163.084657 294.132664 
L 163.72667 290.177405 
L 165.370241 285.861906 
L 169.454035 281.598045 
L 172.869484 277.025583 
L 177.928984 274.81681 
L 179.341795 273.198191 
L 187.662584 267.239482 
L 191.771752 265.210214 
L 199.372492 258.968724 
L 204.509071 255.732714 
L 205.765807 255.096455 
L 207.120689 254.739903 
" style="fill:none;stroke:#999999;"/>
    <path clip-path="url(#p6b04b173e6)" d="M 208.848521 230.29463 
L 208.015963 232.778808 
" style="fill:none;stroke:#999999;"/>
    <path clip-path="url(#p6b04b173e6)" d="M 208.848521 230.29463 
L 211.28252 223.033895 
L 215.397433 209.533514 
L 216.119398 207.512237 
L 217.972186 206.009189 
L 230.341341 194.373325 
L 234.167564 191.125021 
L 235.536329 189.732012 
L 237.323048 188.455804 
L 241.713246 185.954413 
L 245.337913 183.861827 
L 248.145341 182.279477 
L 249.932061 181.615554 
L 252.12716 181.360435 
L 254.781865 181.156341 
L 256.87451 180.901222 
L 257.595518 180.309839 
L 257.978044 179.46764 
L 258.284449 178.115205 
L 258.744055 177.14514 
L 260.479548 175.74168 
L 261.985716 174.618544 
L 262.827849 173.725322 
L 263.491405 172.628005 
L 264.180815 169.84629 
L 264.537967 168.238122 
L 264.785963 167.232401 
L 265.194342 166.10988 
L 265.500747 165.471776 
L 266.480761 164.182044 
L 266.65072 163.982253 
L 267.245814 163.2212 
L 268.190401 162.251135 
L 269.696091 160.949723 
L 273.422732 158.091166 
L 274.851821 156.891802 
L 275.592457 156.15165 
L 276.02621 155.513547 
L 276.230161 154.646144 
L 276.15356 153.727102 
L 276.000836 152.706628 
L 276.051585 152.093729 
L 276.536565 151.328373 
L 277.557753 150.537198 
L 286.925104 144.845903 
L 288.711824 143.570311 
L 289.375381 143.034254 
L 293.56115 138.593962 
L 300.86123 131.116223 
L 311.428346 119.913753 
L 316.124948 114.861176 
L 321.714431 109.068449 
L 322.939569 107.307823 
L 327.942576 99.626604 
L 332.158985 92.928359 
L 340.806765 79.850922 
L 350.786925 64.439918 
L 357.729375 53.774119 
L 362.042972 47.01317 
L 369.445027 35.633654 
L 371.818703 31.883104 
L 372.508112 30.913654 
L 372.992614 29.638061 
L 373.095068 28.923729 
L 373.222417 28.285625 
L 373.24827 22.213804 
L 373.457008 8.307692 
" style="fill:none;stroke:#999999;"/>
    <path clip-path="url(#p6b04b173e6)" d="M 208.848521 230.29463 
L 206.152643 226.248388 
L 203.789979 221.317531 
L 202.916727 216.052253 
L 200.14329 209.066923 
L 197.831853 206.344839 
L 195.982416 203.80226 
L 194.364698 202.671747 
L 190.564807 200.848418 
L 187.79137 198.61444 
L 182.295244 191.321124 
L 181.499072 188.650063 
L 181.447366 184.849105 
L 179.855501 176.708672 
L 176.542026 172.342764 
L 175.309707 170.416772 
L 172.535791 168.69672 
L 171.380072 167.309859 
L 169.454035 163.5089 
L 167.78461 161.146441 
L 167.105255 159.393807 
L 167.002322 157.262492 
L 168.800053 150.50892 
L 166.320573 133.131352 
L 166.115186 130.127101 
L 165.550253 124.991534 
L 165.473174 119.291632 
L 167.193825 113.950741 
" style="fill:none;stroke:#999999;"/>
   </g>
  </g>
 </g>
 <defs>
  <clipPath id="p6b04b173e6">
   <rect height="432" width="420.087503" x="59.661196" y="0"/>
  </clipPath>
 </defs>
</svg>
