<?xml version="1.0" encoding="utf-8" standalone="no"?>
<!DOCTYPE svg PUBLIC "-//W3C//DTD SVG 1.1//EN"
  "http://www.w3.org/Graphics/SVG/1.1/DTD/svg11.dtd">
<!-- Created with matplotlib (http://matplotlib.org/) -->
<svg height="432pt" version="1.1" viewBox="0 0 1197.100141 432" width="1197.100141pt" xmlns="http://www.w3.org/2000/svg" xmlns:xlink="http://www.w3.org/1999/xlink">
 <defs>
  <style type="text/css">
*{stroke-linecap:butt;stroke-linejoin:round;}
  </style>
 </defs>
 <g id="figure_1">
  <g id="patch_1">
   <path d="M 0 432 
L 1197.100141 432 
L 1197.100141 0 
L 0 0 
z
" style="fill:none;opacity:0;"/>
  </g>
  <g id="axes_1">
   <g id="PathCollection_1">
    <defs>
     <path d="M 0 1.936492 
C 0.513564 1.936492 1.006162 1.732451 1.369306 1.369306 
C 1.732451 1.006162 1.936492 0.513564 1.936492 0 
C 1.936492 -0.513564 1.732451 -1.006162 1.369306 -1.369306 
C 1.006162 -1.732451 0.513564 -1.936492 0 -1.936492 
C -0.513564 -1.936492 -1.006162 -1.732451 -1.369306 -1.369306 
C -1.732451 -1.006162 -1.936492 -0.513564 -1.936492 0 
C -1.936492 0.513564 -1.732451 1.006162 -1.369306 1.369306 
C -1.006162 1.732451 -0.513564 1.936492 0 1.936492 
z
" id="C0_0_011b4874e1"/>
    </defs>
    <g clip-path="url(#pd2437f8ab0)">
     <use style="fill:#66ccff;" x="269.947637" xlink:href="#C0_0_011b4874e1" y="101.209227"/>
    </g>
    <g clip-path="url(#pd2437f8ab0)">
     <use style="fill:#66ccff;" x="959.055694" xlink:href="#C0_0_011b4874e1" y="179.916774"/>
    </g>
    <g clip-path="url(#pd2437f8ab0)">
     <use style="fill:#66ccff;" x="933.796244" xlink:href="#C0_0_011b4874e1" y="192.705129"/>
    </g>
    <g clip-path="url(#pd2437f8ab0)">
     <use style="fill:#66ccff;" x="919.509722" xlink:href="#C0_0_011b4874e1" y="156.394248"/>
    </g>
    <g clip-path="url(#pd2437f8ab0)">
     <use style="fill:#66ccff;" x="911.900033" xlink:href="#C0_0_011b4874e1" y="239.554291"/>
    </g>
    <g clip-path="url(#pd2437f8ab0)">
     <use style="fill:#66ccff;" x="649.867376" xlink:href="#C0_0_011b4874e1" y="423.692308"/>
    </g>
    <g clip-path="url(#pd2437f8ab0)">
     <use style="fill:#66ccff;" x="893.18504" xlink:href="#C0_0_011b4874e1" y="210.681887"/>
    </g>
    <g clip-path="url(#pd2437f8ab0)">
     <use style="fill:#66ccff;" x="936.458291" xlink:href="#C0_0_011b4874e1" y="188.488228"/>
    </g>
    <g clip-path="url(#pd2437f8ab0)">
     <use style="fill:#66ccff;" x="973.648341" xlink:href="#C0_0_011b4874e1" y="80.704446"/>
    </g>
    <g clip-path="url(#pd2437f8ab0)">
     <use style="fill:#66ccff;" x="935.217244" xlink:href="#C0_0_011b4874e1" y="210.73483"/>
    </g>
    <g clip-path="url(#pd2437f8ab0)">
     <use style="fill:#66ccff;" x="917.59644" xlink:href="#C0_0_011b4874e1" y="188.488228"/>
    </g>
    <g clip-path="url(#pd2437f8ab0)">
     <use style="fill:#66ccff;" x="918.918156" xlink:href="#C0_0_011b4874e1" y="242.106139"/>
    </g>
    <g clip-path="url(#pd2437f8ab0)">
     <use style="fill:#66ccff;" x="902.505305" xlink:href="#C0_0_011b4874e1" y="172.732424"/>
    </g>
    <g clip-path="url(#pd2437f8ab0)">
     <use style="fill:#66ccff;" x="893.983447" xlink:href="#C0_0_011b4874e1" y="151.515561"/>
    </g>
    <g clip-path="url(#pd2437f8ab0)">
     <use style="fill:#66ccff;" x="946.186033" xlink:href="#C0_0_011b4874e1" y="235.340037"/>
    </g>
    <g clip-path="url(#pd2437f8ab0)">
     <use style="fill:#66ccff;" x="918.572731" xlink:href="#C0_0_011b4874e1" y="133.951757"/>
    </g>
    <g clip-path="url(#pd2437f8ab0)">
     <use style="fill:#66ccff;" x="937.916521" xlink:href="#C0_0_011b4874e1" y="178.794385"/>
    </g>
    <g clip-path="url(#pd2437f8ab0)">
     <use style="fill:#66ccff;" x="923.58863" xlink:href="#C0_0_011b4874e1" y="174.731018"/>
    </g>
    <g clip-path="url(#pd2437f8ab0)">
     <use style="fill:#66ccff;" x="944.891207" xlink:href="#C0_0_011b4874e1" y="214.840551"/>
    </g>
    <g clip-path="url(#pd2437f8ab0)">
     <use style="fill:#66ccff;" x="903.392654" xlink:href="#C0_0_011b4874e1" y="194.703723"/>
    </g>
    <g clip-path="url(#pd2437f8ab0)">
     <use style="fill:#66ccff;" x="917.263426" xlink:href="#C0_0_011b4874e1" y="172.843604"/>
    </g>
    <g clip-path="url(#pd2437f8ab0)">
     <use style="fill:#66ccff;" x="900.995364" xlink:href="#C0_0_011b4874e1" y="185.168708"/>
    </g>
    <g clip-path="url(#pd2437f8ab0)">
     <use style="fill:#66ccff;" x="956.575667" xlink:href="#C0_0_011b4874e1" y="112.719011"/>
    </g>
    <g clip-path="url(#pd2437f8ab0)">
     <use style="fill:#66ccff;" x="960.625618" xlink:href="#C0_0_011b4874e1" y="123.966728"/>
    </g>
    <g clip-path="url(#pd2437f8ab0)">
     <use style="fill:#66ccff;" x="928.285994" xlink:href="#C0_0_011b4874e1" y="207.979152"/>
    </g>
    <g clip-path="url(#pd2437f8ab0)">
     <use style="fill:#66ccff;" x="912.928034" xlink:href="#C0_0_011b4874e1" y="225.10353"/>
    </g>
    <g clip-path="url(#pd2437f8ab0)">
     <use style="fill:#66ccff;" x="925.340576" xlink:href="#C0_0_011b4874e1" y="86.700229"/>
    </g>
    <g clip-path="url(#pd2437f8ab0)">
     <use style="fill:#66ccff;" x="917.234468" xlink:href="#C0_0_011b4874e1" y="114.039937"/>
    </g>
    <g clip-path="url(#pd2437f8ab0)">
     <use style="fill:#66ccff;" x="891.929514" xlink:href="#C0_0_011b4874e1" y="165.495131"/>
    </g>
    <g clip-path="url(#pd2437f8ab0)">
     <use style="fill:#66ccff;" x="890.636756" xlink:href="#C0_0_011b4874e1" y="183.861019"/>
    </g>
    <g clip-path="url(#pd2437f8ab0)">
     <use style="fill:#66ccff;" x="887.379007" xlink:href="#C0_0_011b4874e1" y="220.444556"/>
    </g>
    <g clip-path="url(#pd2437f8ab0)">
     <use style="fill:#66ccff;" x="940.508242" xlink:href="#C0_0_011b4874e1" y="151.319672"/>
    </g>
    <g clip-path="url(#pd2437f8ab0)">
     <use style="fill:#66ccff;" x="921.03621" xlink:href="#C0_0_011b4874e1" y="174.543071"/>
    </g>
    <g clip-path="url(#pd2437f8ab0)">
     <use style="fill:#66ccff;" x="915.583875" xlink:href="#C0_0_011b4874e1" y="204.270503"/>
    </g>
    <g clip-path="url(#pd2437f8ab0)">
     <use style="fill:#66ccff;" x="962.900872" xlink:href="#C0_0_011b4874e1" y="171.578269"/>
    </g>
    <g clip-path="url(#pd2437f8ab0)">
     <use style="fill:#66ccff;" x="943.577766" xlink:href="#C0_0_011b4874e1" y="180.642091"/>
    </g>
    <g clip-path="url(#pd2437f8ab0)">
     <use style="fill:#66ccff;" x="929.25608" xlink:href="#C0_0_011b4874e1" y="164.965702"/>
    </g>
    <g clip-path="url(#pd2437f8ab0)">
     <use style="fill:#66ccff;" x="925.609469" xlink:href="#C0_0_011b4874e1" y="229.227781"/>
    </g>
    <g clip-path="url(#pd2437f8ab0)">
     <use style="fill:#66ccff;" x="888.251877" xlink:href="#C0_0_011b4874e1" y="208.212101"/>
    </g>
    <g clip-path="url(#pd2437f8ab0)">
     <use style="fill:#66ccff;" x="898.65599" xlink:href="#C0_0_011b4874e1" y="136.781555"/>
    </g>
    <g clip-path="url(#pd2437f8ab0)">
     <use style="fill:#66ccff;" x="918.4962" xlink:href="#C0_0_011b4874e1" y="160.184959"/>
    </g>
    <g clip-path="url(#pd2437f8ab0)">
     <use style="fill:#66ccff;" x="1025.135257" xlink:href="#C0_0_011b4874e1" y="208.707117"/>
    </g>
    <g clip-path="url(#pd2437f8ab0)">
     <use style="fill:#66ccff;" x="148.846242" xlink:href="#C0_0_011b4874e1" y="18.904212"/>
    </g>
    <g clip-path="url(#pd2437f8ab0)">
     <use style="fill:#66ccff;" x="870.748974" xlink:href="#C0_0_011b4874e1" y="199.24887"/>
    </g>
    <g clip-path="url(#pd2437f8ab0)">
     <use style="fill:#66ccff;" x="887.099772" xlink:href="#C0_0_011b4874e1" y="221.712538"/>
    </g>
    <g clip-path="url(#pd2437f8ab0)">
     <use style="fill:#66ccff;" x="940.708878" xlink:href="#C0_0_011b4874e1" y="129.793093"/>
    </g>
    <g clip-path="url(#pd2437f8ab0)">
     <use style="fill:#66ccff;" x="928.269447" xlink:href="#C0_0_011b4874e1" y="132.614949"/>
    </g>
    <g clip-path="url(#pd2437f8ab0)">
     <use style="fill:#66ccff;" x="939.488515" xlink:href="#C0_0_011b4874e1" y="137.612758"/>
    </g>
    <g clip-path="url(#pd2437f8ab0)">
     <use style="fill:#66ccff;" x="943.24682" xlink:href="#C0_0_011b4874e1" y="147.523667"/>
    </g>
    <g clip-path="url(#pd2437f8ab0)">
     <use style="fill:#66ccff;" x="951.857619" xlink:href="#C0_0_011b4874e1" y="127.17242"/>
    </g>
    <g clip-path="url(#pd2437f8ab0)">
     <use style="fill:#66ccff;" x="960.348451" xlink:href="#C0_0_011b4874e1" y="160.746154"/>
    </g>
    <g clip-path="url(#pd2437f8ab0)">
     <use style="fill:#66ccff;" x="955.632472" xlink:href="#C0_0_011b4874e1" y="166.516928"/>
    </g>
    <g clip-path="url(#pd2437f8ab0)">
     <use style="fill:#66ccff;" x="949.950543" xlink:href="#C0_0_011b4874e1" y="175.548985"/>
    </g>
    <g clip-path="url(#pd2437f8ab0)">
     <use style="fill:#66ccff;" x="947.733206" xlink:href="#C0_0_011b4874e1" y="145.014174"/>
    </g>
    <g clip-path="url(#pd2437f8ab0)">
     <use style="fill:#66ccff;" x="937.823443" xlink:href="#C0_0_011b4874e1" y="151.594975"/>
    </g>
    <g clip-path="url(#pd2437f8ab0)">
     <use style="fill:#66ccff;" x="907.763209" xlink:href="#C0_0_011b4874e1" y="261.943839"/>
    </g>
    <g clip-path="url(#pd2437f8ab0)">
     <use style="fill:#66ccff;" x="946.303933" xlink:href="#C0_0_011b4874e1" y="182.047725"/>
    </g>
    <g clip-path="url(#pd2437f8ab0)">
     <use style="fill:#66ccff;" x="942.721443" xlink:href="#C0_0_011b4874e1" y="118.783619"/>
    </g>
    <g clip-path="url(#pd2437f8ab0)">
     <use style="fill:#66ccff;" x="917.269631" xlink:href="#C0_0_011b4874e1" y="119.32099"/>
    </g>
    <g clip-path="url(#pd2437f8ab0)">
     <use style="fill:#66ccff;" x="884.785218" xlink:href="#C0_0_011b4874e1" y="133.938522"/>
    </g>
    <g clip-path="url(#pd2437f8ab0)">
     <use style="fill:#66ccff;" x="1023.869389" xlink:href="#C0_0_011b4874e1" y="189.401492"/>
    </g>
    <g clip-path="url(#pd2437f8ab0)">
     <use style="fill:#66ccff;" x="1031.276372" xlink:href="#C0_0_011b4874e1" y="222.31344"/>
    </g>
    <g clip-path="url(#pd2437f8ab0)">
     <use style="fill:#66ccff;" x="1033.464753" xlink:href="#C0_0_011b4874e1" y="209.117424"/>
    </g>
    <g clip-path="url(#pd2437f8ab0)">
     <use style="fill:#66ccff;" x="908.84292" xlink:href="#C0_0_011b4874e1" y="257.989006"/>
    </g>
    <g clip-path="url(#pd2437f8ab0)">
     <use style="fill:#66ccff;" x="911.186431" xlink:href="#C0_0_011b4874e1" y="187.20701"/>
    </g>
    <g clip-path="url(#pd2437f8ab0)">
     <use style="fill:#66ccff;" x="909.240055" xlink:href="#C0_0_011b4874e1" y="172.782719"/>
    </g>
    <g clip-path="url(#pd2437f8ab0)">
     <use style="fill:#66ccff;" x="877.51475" xlink:href="#C0_0_011b4874e1" y="182.603625"/>
    </g>
    <g clip-path="url(#pd2437f8ab0)">
     <use style="fill:#66ccff;" x="945.462089" xlink:href="#C0_0_011b4874e1" y="195.508455"/>
    </g>
    <g clip-path="url(#pd2437f8ab0)">
     <use style="fill:#66ccff;" x="889.490856" xlink:href="#C0_0_011b4874e1" y="226.898294"/>
    </g>
    <g clip-path="url(#pd2437f8ab0)">
     <use style="fill:#66ccff;" x="907.473631" xlink:href="#C0_0_011b4874e1" y="223.303472"/>
    </g>
    <g clip-path="url(#pd2437f8ab0)">
     <use style="fill:#66ccff;" x="905.696865" xlink:href="#C0_0_011b4874e1" y="219.557762"/>
    </g>
    <g clip-path="url(#pd2437f8ab0)">
     <use style="fill:#66ccff;" x="909.490333" xlink:href="#C0_0_011b4874e1" y="201.808659"/>
    </g>
   </g>
   <g id="LineCollection_1">
    <path clip-path="url(#pd2437f8ab0)" d="M 269.947637 101.209227 
L 279.534727 93.91105 
L 293.151084 85.898144 
L 297.36444 84.966349 
L 311.431711 88.778237 
L 325.949896 89.307666 
L 360.250375 83.984258 
L 409.745409 94.713135 
L 469.878287 114.378771 
L 478.443582 115.564692 
L 496.142985 116.840615 
L 517.224242 118.561259 
L 517.83856 118.796855 
L 523.272279 120.890746 
L 533.146878 124.885287 
L 542.189976 127.325955 
L 549.956864 130.100162 
L 557.558279 135.759757 
L 575.31146 146.078326 
L 585.020587 156.950148 
L 598.36805 168.968184 
L 606.656178 176.644903 
L 614.923621 183.246882 
L 619.583754 185.356656 
L 633.425568 188.641762 
L 650.762999 194.343711 
L 682.88544 206.104974 
L 699.141091 212.818132 
L 704.744419 211.875749 
L 712.511307 209.877155 
L 735.145941 208.323281 
L 742.912829 200.834509 
L 763.162584 185.356656 
L 766.381033 184.136322 
L 770.31929 184.191912 
L 774.758102 184.911935 
L 784.911937 186.021089 
L 794.987173 185.833142 
L 812.92858 178.476727 
L 826.077476 172.650362 
L 838.115635 166.381924 
L 849.820779 157.950769 
L 852.263574 157.283689 
L 864.080413 159.446406 
L 868.295837 160.057896 
L 870.736563 159.779946 
L 876.174419 157.172509 
L 890.266511 151.182021 
L 893.983447 151.515561 
" style="fill:none;stroke:#999999;"/>
    <path clip-path="url(#pd2437f8ab0)" d="M 269.947637 101.209227 
L 165.461797 61.173814 
L 161.300152 59.453171 
L 158.360938 58.121657 
L 157.35569 56.869558 
L 157.194353 53.407093 
L 157.804535 50.357582 
L 158.249244 48.358988 
L 159.024898 45.751551 
L 160.301109 42.86881 
L 161.521472 41.370527 
L 166.599424 37.508343 
L 175.669411 31.051958 
L 179.053333 27.502137 
L 179.831056 25.614723 
L 179.940682 23.674366 
L 179.053333 18.737442 
L 176.945621 11.801923 
L 176.167898 10.083926 
L 174.227728 8.307692 
L 172.479919 8.474462 
L 170.260513 8.585642 
L 166.376035 10.139516 
L 160.495539 12.688716 
L 154.869458 15.243211 
L 151.344884 17.382104 
L 148.846242 18.904212 
" style="fill:none;stroke:#999999;"/>
    <path clip-path="url(#pd2437f8ab0)" d="M 959.055694 179.916774 
L 949.950543 175.548985 
" style="fill:none;stroke:#999999;"/>
    <path clip-path="url(#pd2437f8ab0)" d="M 959.055694 179.916774 
L 962.900872 171.578269 
" style="fill:none;stroke:#999999;"/>
    <path clip-path="url(#pd2437f8ab0)" d="M 959.055694 179.916774 
L 967.509294 182.029195 
L 973.561468 183.932492 
L 981.311808 188.657645 
L 990.874078 195.720226 
L 1000.332927 202.42809 
L 1004.147079 204.42139 
L 1007.512385 205.694667 
L 1010.222005 206.197624 
L 1015.978396 207.240599 
L 1025.135257 208.707117 
" style="fill:none;stroke:#999999;"/>
    <path clip-path="url(#pd2437f8ab0)" d="M 959.055694 179.916774 
L 956.2985 181.788305 
L 948.88738 181.830659 
L 946.303933 182.047725 
" style="fill:none;stroke:#999999;"/>
    <path clip-path="url(#pd2437f8ab0)" d="M 933.796244 192.705129 
L 917.59644 188.488228 
" style="fill:none;stroke:#999999;"/>
    <path clip-path="url(#pd2437f8ab0)" d="M 933.796244 192.705129 
L 928.285994 207.979152 
" style="fill:none;stroke:#999999;"/>
    <path clip-path="url(#pd2437f8ab0)" d="M 933.796244 192.705129 
L 936.458291 188.488228 
" style="fill:none;stroke:#999999;"/>
    <path clip-path="url(#pd2437f8ab0)" d="M 919.509722 156.394248 
L 918.4962 160.184959 
" style="fill:none;stroke:#999999;"/>
    <path clip-path="url(#pd2437f8ab0)" d="M 919.509722 156.394248 
L 920.819027 150.636709 
L 920.12404 148.804885 
L 919.875831 142.38556 
L 918.572731 133.951757 
" style="fill:none;stroke:#999999;"/>
    <path clip-path="url(#pd2437f8ab0)" d="M 919.509722 156.394248 
L 923.011543 156.087179 
L 926.50716 154.533305 
L 930.557111 153.204439 
L 933.663866 152.426178 
L 937.823443 151.594975 
" style="fill:none;stroke:#999999;"/>
    <path clip-path="url(#pd2437f8ab0)" d="M 911.900033 239.554291 
L 918.918156 242.106139 
" style="fill:none;stroke:#999999;"/>
    <path clip-path="url(#pd2437f8ab0)" d="M 911.900033 239.554291 
L 912.928034 225.10353 
" style="fill:none;stroke:#999999;"/>
    <path clip-path="url(#pd2437f8ab0)" d="M 911.900033 239.554291 
L 896.291795 235.424746 
L 890.63262 234.204412 
L 889.490856 226.898294 
" style="fill:none;stroke:#999999;"/>
    <path clip-path="url(#pd2437f8ab0)" d="M 911.900033 239.554291 
L 910.330109 252.530594 
L 908.84292 257.989006 
" style="fill:none;stroke:#999999;"/>
    <path clip-path="url(#pd2437f8ab0)" d="M 649.867376 423.692308 
L 689.200302 410.66571 
L 715.851792 397.829706 
L 726.206264 397.239393 
L 736.080863 395.685519 
L 747.80876 392.726012 
L 759.714541 385.697843 
L 783.571606 369.719679 
L 799.326702 361.285877 
L 809.42469 353.516508 
L 818.190621 344.418272 
L 825.624494 327.995388 
L 831.027186 310.72277 
L 838.46106 299.292401 
L 850.000731 286.533164 
L 852.809635 282.610096 
L 858.024102 271.957987 
L 862.483599 264.728635 
L 865.867521 257.351044 
L 878.21801 242.111433 
L 887.099772 221.712538 
" style="fill:none;stroke:#999999;"/>
    <path clip-path="url(#pd2437f8ab0)" d="M 893.18504 210.681887 
L 903.392654 194.703723 
" style="fill:none;stroke:#999999;"/>
    <path clip-path="url(#pd2437f8ab0)" d="M 893.18504 210.681887 
L 888.251877 208.212101 
" style="fill:none;stroke:#999999;"/>
    <path clip-path="url(#pd2437f8ab0)" d="M 893.18504 210.681887 
L 905.696865 219.557762 
" style="fill:none;stroke:#999999;"/>
    <path clip-path="url(#pd2437f8ab0)" d="M 936.458291 188.488228 
L 933.796244 192.705129 
" style="fill:none;stroke:#999999;"/>
    <path clip-path="url(#pd2437f8ab0)" d="M 936.458291 188.488228 
L 937.916521 178.794385 
" style="fill:none;stroke:#999999;"/>
    <path clip-path="url(#pd2437f8ab0)" d="M 936.458291 188.488228 
L 939.482309 194.086938 
L 945.462089 195.508455 
" style="fill:none;stroke:#999999;"/>
    <path clip-path="url(#pd2437f8ab0)" d="M 973.648341 80.704446 
L 956.575667 112.719011 
" style="fill:none;stroke:#999999;"/>
    <path clip-path="url(#pd2437f8ab0)" d="M 935.217244 210.73483 
L 925.609469 229.227781 
" style="fill:none;stroke:#999999;"/>
    <path clip-path="url(#pd2437f8ab0)" d="M 935.217244 210.73483 
L 928.285994 207.979152 
" style="fill:none;stroke:#999999;"/>
    <path clip-path="url(#pd2437f8ab0)" d="M 935.217244 210.73483 
L 944.891207 214.840551 
" style="fill:none;stroke:#999999;"/>
    <path clip-path="url(#pd2437f8ab0)" d="M 917.59644 188.488228 
L 911.186431 187.20701 
" style="fill:none;stroke:#999999;"/>
    <path clip-path="url(#pd2437f8ab0)" d="M 917.59644 188.488228 
L 933.796244 192.705129 
" style="fill:none;stroke:#999999;"/>
    <path clip-path="url(#pd2437f8ab0)" d="M 917.59644 188.488228 
L 915.583875 204.270503 
" style="fill:none;stroke:#999999;"/>
    <path clip-path="url(#pd2437f8ab0)" d="M 917.59644 188.488228 
L 921.03621 174.543071 
" style="fill:none;stroke:#999999;"/>
    <path clip-path="url(#pd2437f8ab0)" d="M 918.918156 242.106139 
L 911.900033 239.554291 
" style="fill:none;stroke:#999999;"/>
    <path clip-path="url(#pd2437f8ab0)" d="M 918.918156 242.106139 
L 925.609469 229.227781 
" style="fill:none;stroke:#999999;"/>
    <path clip-path="url(#pd2437f8ab0)" d="M 918.918156 242.106139 
L 934.683593 248.295162 
L 943.426771 243.591187 
L 945.534483 240.041366 
L 946.186033 235.340037 
" style="fill:none;stroke:#999999;"/>
    <path clip-path="url(#pd2437f8ab0)" d="M 918.918156 242.106139 
L 911.329152 258.777855 
L 908.84292 257.989006 
" style="fill:none;stroke:#999999;"/>
    <path clip-path="url(#pd2437f8ab0)" d="M 902.505305 172.732424 
L 900.995364 185.168708 
" style="fill:none;stroke:#999999;"/>
    <path clip-path="url(#pd2437f8ab0)" d="M 902.505305 172.732424 
L 909.240055 172.782719 
" style="fill:none;stroke:#999999;"/>
    <path clip-path="url(#pd2437f8ab0)" d="M 902.505305 172.732424 
L 899.843259 166.074855 
L 891.929514 165.495131 
" style="fill:none;stroke:#999999;"/>
    <path clip-path="url(#pd2437f8ab0)" d="M 893.983447 151.515561 
L 898.65599 136.781555 
" style="fill:none;stroke:#999999;"/>
    <path clip-path="url(#pd2437f8ab0)" d="M 893.983447 151.515561 
L 891.929514 165.495131 
" style="fill:none;stroke:#999999;"/>
    <path clip-path="url(#pd2437f8ab0)" d="M 893.983447 151.515561 
L 895.869839 152.402354 
L 918.4962 160.184959 
" style="fill:none;stroke:#999999;"/>
    <path clip-path="url(#pd2437f8ab0)" d="M 893.983447 151.515561 
L 890.266511 151.182021 
L 876.174419 157.172509 
L 870.736563 159.779946 
L 868.295837 160.057896 
L 864.080413 159.446406 
L 852.263574 157.283689 
L 849.820779 157.950769 
L 838.115635 166.381924 
L 826.077476 172.650362 
L 812.92858 178.476727 
L 794.987173 185.833142 
L 784.911937 186.021089 
L 774.758102 184.911935 
L 770.31929 184.191912 
L 766.381033 184.136322 
L 763.162584 185.356656 
L 742.912829 200.834509 
L 735.145941 208.323281 
L 712.511307 209.877155 
L 704.744419 211.875749 
L 699.141091 212.818132 
L 682.88544 206.104974 
L 650.762999 194.343711 
L 633.425568 188.641762 
L 619.583754 185.356656 
L 614.923621 183.246882 
L 606.656178 176.644903 
L 598.36805 168.968184 
L 585.020587 156.950148 
L 575.31146 146.078326 
L 557.558279 135.759757 
L 549.956864 130.100162 
L 542.189976 127.325955 
L 533.146878 124.885287 
L 523.272279 120.890746 
L 517.83856 118.796855 
L 517.224242 118.561259 
L 496.142985 116.840615 
L 478.443582 115.564692 
L 469.878287 114.378771 
L 409.745409 94.713135 
L 360.250375 83.984258 
L 325.949896 89.307666 
L 311.431711 88.778237 
L 297.36444 84.966349 
L 293.151084 85.898144 
L 279.534727 93.91105 
L 269.947637 101.209227 
" style="fill:none;stroke:#999999;"/>
    <path clip-path="url(#pd2437f8ab0)" d="M 946.186033 235.340037 
L 925.609469 229.227781 
" style="fill:none;stroke:#999999;"/>
    <path clip-path="url(#pd2437f8ab0)" d="M 946.186033 235.340037 
L 945.534483 240.041366 
L 943.426771 243.591187 
L 934.683593 248.295162 
L 918.918156 242.106139 
" style="fill:none;stroke:#999999;"/>
    <path clip-path="url(#pd2437f8ab0)" d="M 946.186033 235.340037 
L 946.533526 232.827897 
L 944.891207 214.840551 
" style="fill:none;stroke:#999999;"/>
    <path clip-path="url(#pd2437f8ab0)" d="M 918.572731 133.951757 
L 928.269447 132.614949 
" style="fill:none;stroke:#999999;"/>
    <path clip-path="url(#pd2437f8ab0)" d="M 918.572731 133.951757 
L 898.65599 136.781555 
" style="fill:none;stroke:#999999;"/>
    <path clip-path="url(#pd2437f8ab0)" d="M 918.572731 133.951757 
L 919.875831 142.38556 
L 920.12404 148.804885 
L 920.819027 150.636709 
L 919.509722 156.394248 
" style="fill:none;stroke:#999999;"/>
    <path clip-path="url(#pd2437f8ab0)" d="M 918.572731 133.951757 
L 917.32341 127.169773 
L 917.269631 119.32099 
" style="fill:none;stroke:#999999;"/>
    <path clip-path="url(#pd2437f8ab0)" d="M 937.916521 178.794385 
L 936.458291 188.488228 
" style="fill:none;stroke:#999999;"/>
    <path clip-path="url(#pd2437f8ab0)" d="M 937.916521 178.794385 
L 942.450481 180.390613 
L 943.577766 180.642091 
" style="fill:none;stroke:#999999;"/>
    <path clip-path="url(#pd2437f8ab0)" d="M 937.916521 178.794385 
L 932.354561 176.838145 
L 923.58863 174.731018 
" style="fill:none;stroke:#999999;"/>
    <path clip-path="url(#pd2437f8ab0)" d="M 923.58863 174.731018 
L 929.25608 164.965702 
" style="fill:none;stroke:#999999;"/>
    <path clip-path="url(#pd2437f8ab0)" d="M 923.58863 174.731018 
L 921.03621 174.543071 
" style="fill:none;stroke:#999999;"/>
    <path clip-path="url(#pd2437f8ab0)" d="M 923.58863 174.731018 
L 932.354561 176.838145 
L 937.916521 178.794385 
" style="fill:none;stroke:#999999;"/>
    <path clip-path="url(#pd2437f8ab0)" d="M 944.891207 214.840551 
L 935.217244 210.73483 
" style="fill:none;stroke:#999999;"/>
    <path clip-path="url(#pd2437f8ab0)" d="M 944.891207 214.840551 
L 946.533526 232.827897 
L 946.186033 235.340037 
" style="fill:none;stroke:#999999;"/>
    <path clip-path="url(#pd2437f8ab0)" d="M 944.891207 214.840551 
L 947.000988 203.357238 
L 945.462089 195.508455 
" style="fill:none;stroke:#999999;"/>
    <path clip-path="url(#pd2437f8ab0)" d="M 903.392654 194.703723 
L 893.18504 210.681887 
" style="fill:none;stroke:#999999;"/>
    <path clip-path="url(#pd2437f8ab0)" d="M 903.392654 194.703723 
L 900.995364 185.168708 
" style="fill:none;stroke:#999999;"/>
    <path clip-path="url(#pd2437f8ab0)" d="M 903.392654 194.703723 
L 907.610147 197.586463 
L 907.831467 201.138931 
L 909.490333 201.808659 
" style="fill:none;stroke:#999999;"/>
    <path clip-path="url(#pd2437f8ab0)" d="M 917.263426 172.843604 
L 921.03621 174.543071 
" style="fill:none;stroke:#999999;"/>
    <path clip-path="url(#pd2437f8ab0)" d="M 917.263426 172.843604 
L 909.240055 172.782719 
" style="fill:none;stroke:#999999;"/>
    <path clip-path="url(#pd2437f8ab0)" d="M 917.263426 172.843604 
L 916.930412 164.854522 
L 918.4962 160.184959 
" style="fill:none;stroke:#999999;"/>
    <path clip-path="url(#pd2437f8ab0)" d="M 900.995364 185.168708 
L 903.392654 194.703723 
" style="fill:none;stroke:#999999;"/>
    <path clip-path="url(#pd2437f8ab0)" d="M 900.995364 185.168708 
L 902.505305 172.732424 
" style="fill:none;stroke:#999999;"/>
    <path clip-path="url(#pd2437f8ab0)" d="M 900.995364 185.168708 
L 911.186431 187.20701 
" style="fill:none;stroke:#999999;"/>
    <path clip-path="url(#pd2437f8ab0)" d="M 900.995364 185.168708 
L 898.732522 184.716047 
L 890.636756 183.861019 
" style="fill:none;stroke:#999999;"/>
    <path clip-path="url(#pd2437f8ab0)" d="M 956.575667 112.719011 
L 960.625618 123.966728 
" style="fill:none;stroke:#999999;"/>
    <path clip-path="url(#pd2437f8ab0)" d="M 956.575667 112.719011 
L 973.648341 80.704446 
" style="fill:none;stroke:#999999;"/>
    <path clip-path="url(#pd2437f8ab0)" d="M 956.575667 112.719011 
L 953.162787 113.828165 
L 942.721443 118.783619 
" style="fill:none;stroke:#999999;"/>
    <path clip-path="url(#pd2437f8ab0)" d="M 960.625618 123.966728 
L 956.575667 112.719011 
" style="fill:none;stroke:#999999;"/>
    <path clip-path="url(#pd2437f8ab0)" d="M 960.625618 123.966728 
L 951.857619 127.17242 
" style="fill:none;stroke:#999999;"/>
    <path clip-path="url(#pd2437f8ab0)" d="M 960.625618 123.966728 
L 965.73046 142.83028 
L 966.894976 144.325916 
L 963.844068 152.592949 
L 960.348451 160.746154 
" style="fill:none;stroke:#999999;"/>
    <path clip-path="url(#pd2437f8ab0)" d="M 960.625618 123.966728 
L 965.229904 123.731132 
L 969.503243 127.752145 
L 973.052639 138.626614 
L 972.109443 147.862501 
L 970.113425 155.658342 
L 962.900872 171.578269 
" style="fill:none;stroke:#999999;"/>
    <path clip-path="url(#pd2437f8ab0)" d="M 928.285994 207.979152 
L 935.217244 210.73483 
" style="fill:none;stroke:#999999;"/>
    <path clip-path="url(#pd2437f8ab0)" d="M 928.285994 207.979152 
L 933.796244 192.705129 
" style="fill:none;stroke:#999999;"/>
    <path clip-path="url(#pd2437f8ab0)" d="M 928.285994 207.979152 
L 924.475979 206.464986 
L 915.583875 204.270503 
" style="fill:none;stroke:#999999;"/>
    <path clip-path="url(#pd2437f8ab0)" d="M 912.928034 225.10353 
L 907.473631 223.303472 
" style="fill:none;stroke:#999999;"/>
    <path clip-path="url(#pd2437f8ab0)" d="M 912.928034 225.10353 
L 925.609469 229.227781 
" style="fill:none;stroke:#999999;"/>
    <path clip-path="url(#pd2437f8ab0)" d="M 912.928034 225.10353 
L 915.583875 204.270503 
" style="fill:none;stroke:#999999;"/>
    <path clip-path="url(#pd2437f8ab0)" d="M 912.928034 225.10353 
L 911.900033 239.554291 
" style="fill:none;stroke:#999999;"/>
    <path clip-path="url(#pd2437f8ab0)" d="M 925.340576 86.700229 
L 917.234468 114.039937 
" style="fill:none;stroke:#999999;"/>
    <path clip-path="url(#pd2437f8ab0)" d="M 917.234468 114.039937 
L 925.340576 86.700229 
" style="fill:none;stroke:#999999;"/>
    <path clip-path="url(#pd2437f8ab0)" d="M 917.234468 114.039937 
L 917.269631 119.32099 
" style="fill:none;stroke:#999999;"/>
    <path clip-path="url(#pd2437f8ab0)" d="M 917.234468 114.039937 
L 908.38787 124.911759 
L 898.65599 136.781555 
" style="fill:none;stroke:#999999;"/>
    <path clip-path="url(#pd2437f8ab0)" d="M 891.929514 165.495131 
L 893.983447 151.515561 
" style="fill:none;stroke:#999999;"/>
    <path clip-path="url(#pd2437f8ab0)" d="M 891.929514 165.495131 
L 890.636756 183.861019 
" style="fill:none;stroke:#999999;"/>
    <path clip-path="url(#pd2437f8ab0)" d="M 891.929514 165.495131 
L 899.843259 166.074855 
L 902.505305 172.732424 
" style="fill:none;stroke:#999999;"/>
    <path clip-path="url(#pd2437f8ab0)" d="M 890.636756 183.861019 
L 891.929514 165.495131 
" style="fill:none;stroke:#999999;"/>
    <path clip-path="url(#pd2437f8ab0)" d="M 890.636756 183.861019 
L 877.51475 182.603625 
" style="fill:none;stroke:#999999;"/>
    <path clip-path="url(#pd2437f8ab0)" d="M 890.636756 183.861019 
L 888.735886 199.132395 
L 888.251877 208.212101 
" style="fill:none;stroke:#999999;"/>
    <path clip-path="url(#pd2437f8ab0)" d="M 890.636756 183.861019 
L 898.732522 184.716047 
L 900.995364 185.168708 
" style="fill:none;stroke:#999999;"/>
    <path clip-path="url(#pd2437f8ab0)" d="M 887.379007 220.444556 
L 887.099772 221.712538 
" style="fill:none;stroke:#999999;"/>
    <path clip-path="url(#pd2437f8ab0)" d="M 887.379007 220.444556 
L 889.246783 225.328537 
L 889.490856 226.898294 
" style="fill:none;stroke:#999999;"/>
    <path clip-path="url(#pd2437f8ab0)" d="M 887.379007 220.444556 
L 887.858879 212.233113 
L 888.251877 208.212101 
" style="fill:none;stroke:#999999;"/>
    <path clip-path="url(#pd2437f8ab0)" d="M 940.508242 151.319672 
L 937.823443 151.594975 
" style="fill:none;stroke:#999999;"/>
    <path clip-path="url(#pd2437f8ab0)" d="M 940.508242 151.319672 
L 950.08499 161.079694 
L 951.915535 163.245058 
L 955.632472 166.516928 
" style="fill:none;stroke:#999999;"/>
    <path clip-path="url(#pd2437f8ab0)" d="M 940.508242 151.319672 
L 940.897103 149.321078 
L 943.24682 147.523667 
" style="fill:none;stroke:#999999;"/>
    <path clip-path="url(#pd2437f8ab0)" d="M 921.03621 174.543071 
L 917.59644 188.488228 
" style="fill:none;stroke:#999999;"/>
    <path clip-path="url(#pd2437f8ab0)" d="M 921.03621 174.543071 
L 923.58863 174.731018 
" style="fill:none;stroke:#999999;"/>
    <path clip-path="url(#pd2437f8ab0)" d="M 921.03621 174.543071 
L 917.263426 172.843604 
" style="fill:none;stroke:#999999;"/>
    <path clip-path="url(#pd2437f8ab0)" d="M 915.583875 204.270503 
L 917.59644 188.488228 
" style="fill:none;stroke:#999999;"/>
    <path clip-path="url(#pd2437f8ab0)" d="M 915.583875 204.270503 
L 912.928034 225.10353 
" style="fill:none;stroke:#999999;"/>
    <path clip-path="url(#pd2437f8ab0)" d="M 915.583875 204.270503 
L 909.490333 201.808659 
" style="fill:none;stroke:#999999;"/>
    <path clip-path="url(#pd2437f8ab0)" d="M 915.583875 204.270503 
L 924.475979 206.464986 
L 928.285994 207.979152 
" style="fill:none;stroke:#999999;"/>
    <path clip-path="url(#pd2437f8ab0)" d="M 962.900872 171.578269 
L 959.055694 179.916774 
" style="fill:none;stroke:#999999;"/>
    <path clip-path="url(#pd2437f8ab0)" d="M 962.900872 171.578269 
L 955.632472 166.516928 
" style="fill:none;stroke:#999999;"/>
    <path clip-path="url(#pd2437f8ab0)" d="M 962.900872 171.578269 
L 970.113425 155.658342 
L 972.109443 147.862501 
L 973.052639 138.626614 
L 969.503243 127.752145 
L 965.229904 123.731132 
L 960.625618 123.966728 
" style="fill:none;stroke:#999999;"/>
    <path clip-path="url(#pd2437f8ab0)" d="M 943.577766 180.642091 
L 946.303933 182.047725 
" style="fill:none;stroke:#999999;"/>
    <path clip-path="url(#pd2437f8ab0)" d="M 943.577766 180.642091 
L 942.450481 180.390613 
L 937.916521 178.794385 
" style="fill:none;stroke:#999999;"/>
    <path clip-path="url(#pd2437f8ab0)" d="M 943.577766 180.642091 
L 943.782538 186.937001 
L 945.462089 195.508455 
" style="fill:none;stroke:#999999;"/>
    <path clip-path="url(#pd2437f8ab0)" d="M 929.25608 164.965702 
L 949.950543 175.548985 
" style="fill:none;stroke:#999999;"/>
    <path clip-path="url(#pd2437f8ab0)" d="M 929.25608 164.965702 
L 923.58863 174.731018 
" style="fill:none;stroke:#999999;"/>
    <path clip-path="url(#pd2437f8ab0)" d="M 929.25608 164.965702 
L 920.779727 161.055869 
L 918.4962 160.184959 
" style="fill:none;stroke:#999999;"/>
    <path clip-path="url(#pd2437f8ab0)" d="M 929.25608 164.965702 
L 936.325912 153.424152 
L 937.823443 151.594975 
" style="fill:none;stroke:#999999;"/>
    <path clip-path="url(#pd2437f8ab0)" d="M 925.609469 229.227781 
L 912.928034 225.10353 
" style="fill:none;stroke:#999999;"/>
    <path clip-path="url(#pd2437f8ab0)" d="M 925.609469 229.227781 
L 946.186033 235.340037 
" style="fill:none;stroke:#999999;"/>
    <path clip-path="url(#pd2437f8ab0)" d="M 925.609469 229.227781 
L 918.918156 242.106139 
" style="fill:none;stroke:#999999;"/>
    <path clip-path="url(#pd2437f8ab0)" d="M 925.609469 229.227781 
L 935.217244 210.73483 
" style="fill:none;stroke:#999999;"/>
    <path clip-path="url(#pd2437f8ab0)" d="M 888.251877 208.212101 
L 893.18504 210.681887 
" style="fill:none;stroke:#999999;"/>
    <path clip-path="url(#pd2437f8ab0)" d="M 888.251877 208.212101 
L 888.735886 199.132395 
L 890.636756 183.861019 
" style="fill:none;stroke:#999999;"/>
    <path clip-path="url(#pd2437f8ab0)" d="M 888.251877 208.212101 
L 887.858879 212.233113 
L 887.379007 220.444556 
" style="fill:none;stroke:#999999;"/>
    <path clip-path="url(#pd2437f8ab0)" d="M 898.65599 136.781555 
L 918.572731 133.951757 
" style="fill:none;stroke:#999999;"/>
    <path clip-path="url(#pd2437f8ab0)" d="M 898.65599 136.781555 
L 884.785218 133.938522 
" style="fill:none;stroke:#999999;"/>
    <path clip-path="url(#pd2437f8ab0)" d="M 898.65599 136.781555 
L 893.983447 151.515561 
" style="fill:none;stroke:#999999;"/>
    <path clip-path="url(#pd2437f8ab0)" d="M 898.65599 136.781555 
L 908.38787 124.911759 
L 917.234468 114.039937 
" style="fill:none;stroke:#999999;"/>
    <path clip-path="url(#pd2437f8ab0)" d="M 918.4962 160.184959 
L 919.509722 156.394248 
" style="fill:none;stroke:#999999;"/>
    <path clip-path="url(#pd2437f8ab0)" d="M 918.4962 160.184959 
L 920.779727 161.055869 
L 929.25608 164.965702 
" style="fill:none;stroke:#999999;"/>
    <path clip-path="url(#pd2437f8ab0)" d="M 918.4962 160.184959 
L 895.869839 152.402354 
L 893.983447 151.515561 
" style="fill:none;stroke:#999999;"/>
    <path clip-path="url(#pd2437f8ab0)" d="M 918.4962 160.184959 
L 916.930412 164.854522 
L 917.263426 172.843604 
" style="fill:none;stroke:#999999;"/>
    <path clip-path="url(#pd2437f8ab0)" d="M 1025.135257 208.707117 
L 1033.464753 209.117424 
" style="fill:none;stroke:#999999;"/>
    <path clip-path="url(#pd2437f8ab0)" d="M 1025.135257 208.707117 
L 1023.869389 189.401492 
" style="fill:none;stroke:#999999;"/>
    <path clip-path="url(#pd2437f8ab0)" d="M 1025.135257 208.707117 
L 1015.978396 207.240599 
L 1010.222005 206.197624 
L 1007.512385 205.694667 
L 1004.147079 204.42139 
L 1000.332927 202.42809 
L 990.874078 195.720226 
L 981.311808 188.657645 
L 973.561468 183.932492 
L 967.509294 182.029195 
L 959.055694 179.916774 
" style="fill:none;stroke:#999999;"/>
    <path clip-path="url(#pd2437f8ab0)" d="M 148.846242 18.904212 
L 151.344884 17.382104 
L 154.869458 15.243211 
L 160.495539 12.688716 
L 166.376035 10.139516 
L 170.260513 8.585642 
L 172.479919 8.474462 
L 174.227728 8.307692 
L 176.167898 10.083926 
L 176.945621 11.801923 
L 179.053333 18.737442 
L 179.940682 23.674366 
L 179.831056 25.614723 
L 179.053333 27.502137 
L 175.669411 31.051958 
L 166.599424 37.508343 
L 161.521472 41.370527 
L 160.301109 42.86881 
L 159.024898 45.751551 
L 158.249244 48.358988 
L 157.804535 50.357582 
L 157.194353 53.407093 
L 157.35569 56.869558 
L 158.360938 58.121657 
L 161.300152 59.453171 
L 165.461797 61.173814 
L 269.947637 101.209227 
" style="fill:none;stroke:#999999;"/>
    <path clip-path="url(#pd2437f8ab0)" d="M 870.748974 199.24887 
L 873.413088 222.106962 
L 887.099772 221.712538 
" style="fill:none;stroke:#999999;"/>
    <path clip-path="url(#pd2437f8ab0)" d="M 887.099772 221.712538 
L 887.379007 220.444556 
" style="fill:none;stroke:#999999;"/>
    <path clip-path="url(#pd2437f8ab0)" d="M 887.099772 221.712538 
L 878.21801 242.111433 
L 865.867521 257.351044 
L 862.483599 264.728635 
L 858.024102 271.957987 
L 852.809635 282.610096 
L 850.000731 286.533164 
L 838.46106 299.292401 
L 831.027186 310.72277 
L 825.624494 327.995388 
L 818.190621 344.418272 
L 809.42469 353.516508 
L 799.326702 361.285877 
L 783.571606 369.719679 
L 759.714541 385.697843 
L 747.80876 392.726012 
L 736.080863 395.685519 
L 726.206264 397.239393 
L 715.851792 397.829706 
L 689.200302 410.66571 
L 649.867376 423.692308 
" style="fill:none;stroke:#999999;"/>
    <path clip-path="url(#pd2437f8ab0)" d="M 887.099772 221.712538 
L 873.413088 222.106962 
L 870.748974 199.24887 
" style="fill:none;stroke:#999999;"/>
    <path clip-path="url(#pd2437f8ab0)" d="M 940.708878 129.793093 
L 951.857619 127.17242 
" style="fill:none;stroke:#999999;"/>
    <path clip-path="url(#pd2437f8ab0)" d="M 940.708878 129.793093 
L 928.269447 132.614949 
" style="fill:none;stroke:#999999;"/>
    <path clip-path="url(#pd2437f8ab0)" d="M 940.708878 129.793093 
L 939.488515 137.612758 
" style="fill:none;stroke:#999999;"/>
    <path clip-path="url(#pd2437f8ab0)" d="M 940.708878 129.793093 
L 942.721443 118.783619 
" style="fill:none;stroke:#999999;"/>
    <path clip-path="url(#pd2437f8ab0)" d="M 928.269447 132.614949 
L 940.708878 129.793093 
" style="fill:none;stroke:#999999;"/>
    <path clip-path="url(#pd2437f8ab0)" d="M 928.269447 132.614949 
L 918.572731 133.951757 
" style="fill:none;stroke:#999999;"/>
    <path clip-path="url(#pd2437f8ab0)" d="M 928.269447 132.614949 
L 939.488515 137.612758 
" style="fill:none;stroke:#999999;"/>
    <path clip-path="url(#pd2437f8ab0)" d="M 939.488515 137.612758 
L 943.24682 147.523667 
" style="fill:none;stroke:#999999;"/>
    <path clip-path="url(#pd2437f8ab0)" d="M 939.488515 137.612758 
L 940.708878 129.793093 
" style="fill:none;stroke:#999999;"/>
    <path clip-path="url(#pd2437f8ab0)" d="M 939.488515 137.612758 
L 928.269447 132.614949 
" style="fill:none;stroke:#999999;"/>
    <path clip-path="url(#pd2437f8ab0)" d="M 943.24682 147.523667 
L 947.733206 145.014174 
" style="fill:none;stroke:#999999;"/>
    <path clip-path="url(#pd2437f8ab0)" d="M 943.24682 147.523667 
L 939.488515 137.612758 
" style="fill:none;stroke:#999999;"/>
    <path clip-path="url(#pd2437f8ab0)" d="M 943.24682 147.523667 
L 940.897103 149.321078 
L 940.508242 151.319672 
" style="fill:none;stroke:#999999;"/>
    <path clip-path="url(#pd2437f8ab0)" d="M 951.857619 127.17242 
L 960.625618 123.966728 
" style="fill:none;stroke:#999999;"/>
    <path clip-path="url(#pd2437f8ab0)" d="M 951.857619 127.17242 
L 940.708878 129.793093 
" style="fill:none;stroke:#999999;"/>
    <path clip-path="url(#pd2437f8ab0)" d="M 951.857619 127.17242 
L 955.378057 138.782796 
L 947.733206 145.014174 
" style="fill:none;stroke:#999999;"/>
    <path clip-path="url(#pd2437f8ab0)" d="M 960.348451 160.746154 
L 955.632472 166.516928 
" style="fill:none;stroke:#999999;"/>
    <path clip-path="url(#pd2437f8ab0)" d="M 960.348451 160.746154 
L 963.844068 152.592949 
L 966.894976 144.325916 
L 965.73046 142.83028 
L 960.625618 123.966728 
" style="fill:none;stroke:#999999;"/>
    <path clip-path="url(#pd2437f8ab0)" d="M 960.348451 160.746154 
L 956.852835 157.140743 
L 953.026272 152.592949 
L 947.733206 145.014174 
" style="fill:none;stroke:#999999;"/>
    <path clip-path="url(#pd2437f8ab0)" d="M 955.632472 166.516928 
L 960.348451 160.746154 
" style="fill:none;stroke:#999999;"/>
    <path clip-path="url(#pd2437f8ab0)" d="M 955.632472 166.516928 
L 962.900872 171.578269 
" style="fill:none;stroke:#999999;"/>
    <path clip-path="url(#pd2437f8ab0)" d="M 955.632472 166.516928 
L 954.412108 168.070802 
L 952.248549 170.95619 
L 949.950543 175.548985 
" style="fill:none;stroke:#999999;"/>
    <path clip-path="url(#pd2437f8ab0)" d="M 955.632472 166.516928 
L 951.915535 163.245058 
L 950.08499 161.079694 
L 940.508242 151.319672 
" style="fill:none;stroke:#999999;"/>
    <path clip-path="url(#pd2437f8ab0)" d="M 949.950543 175.548985 
L 959.055694 179.916774 
" style="fill:none;stroke:#999999;"/>
    <path clip-path="url(#pd2437f8ab0)" d="M 949.950543 175.548985 
L 929.25608 164.965702 
" style="fill:none;stroke:#999999;"/>
    <path clip-path="url(#pd2437f8ab0)" d="M 949.950543 175.548985 
L 946.303933 182.047725 
" style="fill:none;stroke:#999999;"/>
    <path clip-path="url(#pd2437f8ab0)" d="M 949.950543 175.548985 
L 952.248549 170.95619 
L 954.412108 168.070802 
L 955.632472 166.516928 
" style="fill:none;stroke:#999999;"/>
    <path clip-path="url(#pd2437f8ab0)" d="M 947.733206 145.014174 
L 943.24682 147.523667 
" style="fill:none;stroke:#999999;"/>
    <path clip-path="url(#pd2437f8ab0)" d="M 947.733206 145.014174 
L 955.378057 138.782796 
L 951.857619 127.17242 
" style="fill:none;stroke:#999999;"/>
    <path clip-path="url(#pd2437f8ab0)" d="M 947.733206 145.014174 
L 953.026272 152.592949 
L 956.852835 157.140743 
L 960.348451 160.746154 
" style="fill:none;stroke:#999999;"/>
    <path clip-path="url(#pd2437f8ab0)" d="M 937.823443 151.594975 
L 940.508242 151.319672 
" style="fill:none;stroke:#999999;"/>
    <path clip-path="url(#pd2437f8ab0)" d="M 937.823443 151.594975 
L 936.325912 153.424152 
L 929.25608 164.965702 
" style="fill:none;stroke:#999999;"/>
    <path clip-path="url(#pd2437f8ab0)" d="M 937.823443 151.594975 
L 933.663866 152.426178 
L 930.557111 153.204439 
L 926.50716 154.533305 
L 923.011543 156.087179 
L 919.509722 156.394248 
" style="fill:none;stroke:#999999;"/>
    <path clip-path="url(#pd2437f8ab0)" d="M 907.763209 261.943839 
L 908.84292 257.989006 
" style="fill:none;stroke:#999999;"/>
    <path clip-path="url(#pd2437f8ab0)" d="M 946.303933 182.047725 
L 949.950543 175.548985 
" style="fill:none;stroke:#999999;"/>
    <path clip-path="url(#pd2437f8ab0)" d="M 946.303933 182.047725 
L 943.577766 180.642091 
" style="fill:none;stroke:#999999;"/>
    <path clip-path="url(#pd2437f8ab0)" d="M 946.303933 182.047725 
L 948.88738 181.830659 
L 956.2985 181.788305 
L 959.055694 179.916774 
" style="fill:none;stroke:#999999;"/>
    <path clip-path="url(#pd2437f8ab0)" d="M 942.721443 118.783619 
L 940.708878 129.793093 
" style="fill:none;stroke:#999999;"/>
    <path clip-path="url(#pd2437f8ab0)" d="M 942.721443 118.783619 
L 953.162787 113.828165 
L 956.575667 112.719011 
" style="fill:none;stroke:#999999;"/>
    <path clip-path="url(#pd2437f8ab0)" d="M 942.721443 118.783619 
L 935.630926 122.14814 
L 917.269631 119.32099 
" style="fill:none;stroke:#999999;"/>
    <path clip-path="url(#pd2437f8ab0)" d="M 917.269631 119.32099 
L 917.234468 114.039937 
" style="fill:none;stroke:#999999;"/>
    <path clip-path="url(#pd2437f8ab0)" d="M 917.269631 119.32099 
L 917.32341 127.169773 
L 918.572731 133.951757 
" style="fill:none;stroke:#999999;"/>
    <path clip-path="url(#pd2437f8ab0)" d="M 917.269631 119.32099 
L 935.630926 122.14814 
L 942.721443 118.783619 
" style="fill:none;stroke:#999999;"/>
    <path clip-path="url(#pd2437f8ab0)" d="M 884.785218 133.938522 
L 898.65599 136.781555 
" style="fill:none;stroke:#999999;"/>
    <path clip-path="url(#pd2437f8ab0)" d="M 1023.869389 189.401492 
L 1025.135257 208.707117 
" style="fill:none;stroke:#999999;"/>
    <path clip-path="url(#pd2437f8ab0)" d="M 1023.869389 189.401492 
L 1048.253899 185.698137 
L 1047.089383 178.707029 
L 1022.456663 182.092727 
L 1023.869389 189.401492 
" style="fill:none;stroke:#999999;"/>
    <path clip-path="url(#pd2437f8ab0)" d="M 1023.869389 189.401492 
L 1022.456663 182.092727 
L 1047.089383 178.707029 
L 1048.253899 185.698137 
L 1023.869389 189.401492 
" style="fill:none;stroke:#999999;"/>
    <path clip-path="url(#pd2437f8ab0)" d="M 1031.276372 222.31344 
L 1033.464753 209.117424 
" style="fill:none;stroke:#999999;"/>
    <path clip-path="url(#pd2437f8ab0)" d="M 1033.464753 209.117424 
L 1025.135257 208.707117 
" style="fill:none;stroke:#999999;"/>
    <path clip-path="url(#pd2437f8ab0)" d="M 1033.464753 209.117424 
L 1031.276372 222.31344 
" style="fill:none;stroke:#999999;"/>
    <path clip-path="url(#pd2437f8ab0)" d="M 908.84292 257.989006 
L 907.763209 261.943839 
" style="fill:none;stroke:#999999;"/>
    <path clip-path="url(#pd2437f8ab0)" d="M 908.84292 257.989006 
L 911.329152 258.777855 
L 918.918156 242.106139 
" style="fill:none;stroke:#999999;"/>
    <path clip-path="url(#pd2437f8ab0)" d="M 908.84292 257.989006 
L 910.330109 252.530594 
L 911.900033 239.554291 
" style="fill:none;stroke:#999999;"/>
    <path clip-path="url(#pd2437f8ab0)" d="M 911.186431 187.20701 
L 900.995364 185.168708 
" style="fill:none;stroke:#999999;"/>
    <path clip-path="url(#pd2437f8ab0)" d="M 911.186431 187.20701 
L 917.59644 188.488228 
" style="fill:none;stroke:#999999;"/>
    <path clip-path="url(#pd2437f8ab0)" d="M 911.186431 187.20701 
L 910.960974 180.072955 
L 909.240055 172.782719 
" style="fill:none;stroke:#999999;"/>
    <path clip-path="url(#pd2437f8ab0)" d="M 909.240055 172.782719 
L 917.263426 172.843604 
" style="fill:none;stroke:#999999;"/>
    <path clip-path="url(#pd2437f8ab0)" d="M 909.240055 172.782719 
L 902.505305 172.732424 
" style="fill:none;stroke:#999999;"/>
    <path clip-path="url(#pd2437f8ab0)" d="M 909.240055 172.782719 
L 910.960974 180.072955 
L 911.186431 187.20701 
" style="fill:none;stroke:#999999;"/>
    <path clip-path="url(#pd2437f8ab0)" d="M 877.51475 182.603625 
L 890.636756 183.861019 
" style="fill:none;stroke:#999999;"/>
    <path clip-path="url(#pd2437f8ab0)" d="M 945.462089 195.508455 
L 947.000988 203.357238 
L 944.891207 214.840551 
" style="fill:none;stroke:#999999;"/>
    <path clip-path="url(#pd2437f8ab0)" d="M 945.462089 195.508455 
L 943.782538 186.937001 
L 943.577766 180.642091 
" style="fill:none;stroke:#999999;"/>
    <path clip-path="url(#pd2437f8ab0)" d="M 945.462089 195.508455 
L 939.482309 194.086938 
L 936.458291 188.488228 
" style="fill:none;stroke:#999999;"/>
    <path clip-path="url(#pd2437f8ab0)" d="M 889.490856 226.898294 
L 907.473631 223.303472 
" style="fill:none;stroke:#999999;"/>
    <path clip-path="url(#pd2437f8ab0)" d="M 889.490856 226.898294 
L 889.246783 225.328537 
L 887.379007 220.444556 
" style="fill:none;stroke:#999999;"/>
    <path clip-path="url(#pd2437f8ab0)" d="M 889.490856 226.898294 
L 890.63262 234.204412 
L 896.291795 235.424746 
L 911.900033 239.554291 
" style="fill:none;stroke:#999999;"/>
    <path clip-path="url(#pd2437f8ab0)" d="M 907.473631 223.303472 
L 905.696865 219.557762 
" style="fill:none;stroke:#999999;"/>
    <path clip-path="url(#pd2437f8ab0)" d="M 907.473631 223.303472 
L 912.928034 225.10353 
" style="fill:none;stroke:#999999;"/>
    <path clip-path="url(#pd2437f8ab0)" d="M 907.473631 223.303472 
L 889.490856 226.898294 
" style="fill:none;stroke:#999999;"/>
    <path clip-path="url(#pd2437f8ab0)" d="M 905.696865 219.557762 
L 907.473631 223.303472 
" style="fill:none;stroke:#999999;"/>
    <path clip-path="url(#pd2437f8ab0)" d="M 905.696865 219.557762 
L 893.18504 210.681887 
" style="fill:none;stroke:#999999;"/>
    <path clip-path="url(#pd2437f8ab0)" d="M 905.696865 219.557762 
L 909.490333 201.808659 
" style="fill:none;stroke:#999999;"/>
    <path clip-path="url(#pd2437f8ab0)" d="M 909.490333 201.808659 
L 915.583875 204.270503 
" style="fill:none;stroke:#999999;"/>
    <path clip-path="url(#pd2437f8ab0)" d="M 909.490333 201.808659 
L 905.696865 219.557762 
" style="fill:none;stroke:#999999;"/>
    <path clip-path="url(#pd2437f8ab0)" d="M 909.490333 201.808659 
L 907.831467 201.138931 
L 907.610147 197.586463 
L 903.392654 194.703723 
" style="fill:none;stroke:#999999;"/>
   </g>
  </g>
 </g>
 <defs>
  <clipPath id="pd2437f8ab0">
   <rect height="432" width="935.383964" x="130.858089" y="0"/>
  </clipPath>
 </defs>
</svg>
