<?xml version="1.0" encoding="utf-8" standalone="no"?>
<!DOCTYPE svg PUBLIC "-//W3C//DTD SVG 1.1//EN"
  "http://www.w3.org/Graphics/SVG/1.1/DTD/svg11.dtd">
<!-- Created with matplotlib (http://matplotlib.org/) -->
<svg height="432pt" version="1.1" viewBox="0 0 151.476292 432" width="151.476292pt" xmlns="http://www.w3.org/2000/svg" xmlns:xlink="http://www.w3.org/1999/xlink">
 <defs>
  <style type="text/css">
*{stroke-linecap:butt;stroke-linejoin:round;}
  </style>
 </defs>
 <g id="figure_1">
  <g id="patch_1">
   <path d="M 0 432 
L 151.476292 432 
L 151.476292 0 
L 0 0 
z
" style="fill:none;opacity:0;"/>
  </g>
  <g id="axes_1">
   <g id="PathCollection_1">
    <defs>
     <path d="M 0 1.936492 
C 0.513564 1.936492 1.006162 1.732451 1.369306 1.369306 
C 1.732451 1.006162 1.936492 0.513564 1.936492 0 
C 1.936492 -0.513564 1.732451 -1.006162 1.369306 -1.369306 
C 1.006162 -1.732451 0.513564 -1.936492 0 -1.936492 
C -0.513564 -1.936492 -1.006162 -1.732451 -1.369306 -1.369306 
C -1.732451 -1.006162 -1.936492 -0.513564 -1.936492 0 
C -1.936492 0.513564 -1.732451 1.006162 -1.369306 1.369306 
C -1.006162 1.732451 -0.513564 1.936492 0 1.936492 
z
" id="C0_0_df6efd553a"/>
    </defs>
    <g clip-path="url(#pb4ae1d7397)">
     <use style="fill:#66ccff;" x="58.269152" xlink:href="#C0_0_df6efd553a" y="208.407987"/>
    </g>
    <g clip-path="url(#pb4ae1d7397)">
     <use style="fill:#66ccff;" x="47.786137" xlink:href="#C0_0_df6efd553a" y="136.436144"/>
    </g>
    <g clip-path="url(#pb4ae1d7397)">
     <use style="fill:#66ccff;" x="132.459521" xlink:href="#C0_0_df6efd553a" y="8.307692"/>
    </g>
    <g clip-path="url(#pb4ae1d7397)">
     <use style="fill:#66ccff;" x="70.416218" xlink:href="#C0_0_df6efd553a" y="95.454469"/>
    </g>
    <g clip-path="url(#pb4ae1d7397)">
     <use style="fill:#66ccff;" x="110.701423" xlink:href="#C0_0_df6efd553a" y="33.97936"/>
    </g>
    <g clip-path="url(#pb4ae1d7397)">
     <use style="fill:#66ccff;" x="48.634854" xlink:href="#C0_0_df6efd553a" y="403.26511"/>
    </g>
    <g clip-path="url(#pb4ae1d7397)">
     <use style="fill:#66ccff;" x="46.938432" xlink:href="#C0_0_df6efd553a" y="423.692308"/>
    </g>
    <g clip-path="url(#pb4ae1d7397)">
     <use style="fill:#66ccff;" x="49.36825" xlink:href="#C0_0_df6efd553a" y="423.479308"/>
    </g>
    <g clip-path="url(#pb4ae1d7397)">
     <use style="fill:#66ccff;" x="82.24767" xlink:href="#C0_0_df6efd553a" y="78.053427"/>
    </g>
    <g clip-path="url(#pb4ae1d7397)">
     <use style="fill:#66ccff;" x="52.896645" xlink:href="#C0_0_df6efd553a" y="191.357615"/>
    </g>
    <g clip-path="url(#pb4ae1d7397)">
     <use style="fill:#66ccff;" x="54.555638" xlink:href="#C0_0_df6efd553a" y="173.613695"/>
    </g>
    <g clip-path="url(#pb4ae1d7397)">
     <use style="fill:#66ccff;" x="77.156383" xlink:href="#C0_0_df6efd553a" y="91.867242"/>
    </g>
    <g clip-path="url(#pb4ae1d7397)">
     <use style="fill:#66ccff;" x="64.101929" xlink:href="#C0_0_df6efd553a" y="226.203858"/>
    </g>
    <g clip-path="url(#pb4ae1d7397)">
     <use style="fill:#66ccff;" x="67.596941" xlink:href="#C0_0_df6efd553a" y="249.168869"/>
    </g>
    <g clip-path="url(#pb4ae1d7397)">
     <use style="fill:#66ccff;" x="69.596837" xlink:href="#C0_0_df6efd553a" y="233.314673"/>
    </g>
    <g clip-path="url(#pb4ae1d7397)">
     <use style="fill:#66ccff;" x="40.401595" xlink:href="#C0_0_df6efd553a" y="208.315774"/>
    </g>
    <g clip-path="url(#pb4ae1d7397)">
     <use style="fill:#66ccff;" x="46.084658" xlink:href="#C0_0_df6efd553a" y="202.275152"/>
    </g>
    <g clip-path="url(#pb4ae1d7397)">
     <use style="fill:#66ccff;" x="55.712887" xlink:href="#C0_0_df6efd553a" y="211.147112"/>
    </g>
    <g clip-path="url(#pb4ae1d7397)">
     <use style="fill:#66ccff;" x="60.591742" xlink:href="#C0_0_df6efd553a" y="215.444772"/>
    </g>
    <g clip-path="url(#pb4ae1d7397)">
     <use style="fill:#66ccff;" x="43.790392" xlink:href="#C0_0_df6efd553a" y="210.882161"/>
    </g>
    <g clip-path="url(#pb4ae1d7397)">
     <use style="fill:#66ccff;" x="49.179084" xlink:href="#C0_0_df6efd553a" y="205.006485"/>
    </g>
    <g clip-path="url(#pb4ae1d7397)">
     <use style="fill:#66ccff;" x="32.140013" xlink:href="#C0_0_df6efd553a" y="178.363331"/>
    </g>
    <g clip-path="url(#pb4ae1d7397)">
     <use style="fill:#66ccff;" x="33.619956" xlink:href="#C0_0_df6efd553a" y="186.450828"/>
    </g>
    <g clip-path="url(#pb4ae1d7397)">
     <use style="fill:#66ccff;" x="46.539869" xlink:href="#C0_0_df6efd553a" y="175.322889"/>
    </g>
    <g clip-path="url(#pb4ae1d7397)">
     <use style="fill:#66ccff;" x="68.067327" xlink:href="#C0_0_df6efd553a" y="172.448691"/>
    </g>
    <g clip-path="url(#pb4ae1d7397)">
     <use style="fill:#66ccff;" x="54.341183" xlink:href="#C0_0_df6efd553a" y="212.626421"/>
    </g>
    <g clip-path="url(#pb4ae1d7397)">
     <use style="fill:#66ccff;" x="19.016771" xlink:href="#C0_0_df6efd553a" y="181.583004"/>
    </g>
    <g clip-path="url(#pb4ae1d7397)">
     <use style="fill:#66ccff;" x="24.281039" xlink:href="#C0_0_df6efd553a" y="180.616712"/>
    </g>
    <g clip-path="url(#pb4ae1d7397)">
     <use style="fill:#66ccff;" x="45.40791" xlink:href="#C0_0_df6efd553a" y="189.870513"/>
    </g>
    <g clip-path="url(#pb4ae1d7397)">
     <use style="fill:#66ccff;" x="29.738519" xlink:href="#C0_0_df6efd553a" y="190.210793"/>
    </g>
    <g clip-path="url(#pb4ae1d7397)">
     <use style="fill:#66ccff;" x="45.247069" xlink:href="#C0_0_df6efd553a" y="169.34331"/>
    </g>
    <g clip-path="url(#pb4ae1d7397)">
     <use style="fill:#66ccff;" x="29.32984" xlink:href="#C0_0_df6efd553a" y="190.583543"/>
    </g>
    <g clip-path="url(#pb4ae1d7397)">
     <use style="fill:#66ccff;" x="68.356639" xlink:href="#C0_0_df6efd553a" y="244.016613"/>
    </g>
   </g>
   <g id="LineCollection_1">
    <path clip-path="url(#pb4ae1d7397)" d="M 58.269152 208.407987 
L 55.712887 211.147112 
" style="fill:none;stroke:#999999;"/>
    <path clip-path="url(#pb4ae1d7397)" d="M 58.269152 208.407987 
L 59.047058 210.709423 
L 60.591742 215.444772 
" style="fill:none;stroke:#999999;"/>
    <path clip-path="url(#pb4ae1d7397)" d="M 58.269152 208.407987 
L 55.357822 201.697195 
L 53.596659 196.994316 
L 52.896645 191.357615 
" style="fill:none;stroke:#999999;"/>
    <path clip-path="url(#pb4ae1d7397)" d="M 47.786137 136.436144 
L 55.802917 114.630943 
L 58.19733 110.965788 
L 63.834871 104.861526 
L 69.117348 97.303931 
L 70.416218 95.454469 
" style="fill:none;stroke:#999999;"/>
    <path clip-path="url(#pb4ae1d7397)" d="M 47.786137 136.436144 
L 47.735558 139.092148 
L 49.898319 153.512492 
L 50.860332 158.756962 
L 50.90383 159.380376 
L 52.394901 165.04565 
L 53.662412 168.961469 
L 54.462573 172.85391 
L 54.555638 173.613695 
" style="fill:none;stroke:#999999;"/>
    <path clip-path="url(#pb4ae1d7397)" d="M 70.416218 95.454469 
L 72.690252 93.579033 
L 77.156383 91.867242 
" style="fill:none;stroke:#999999;"/>
    <path clip-path="url(#pb4ae1d7397)" d="M 70.416218 95.454469 
L 69.117348 97.303931 
L 63.834871 104.861526 
L 58.19733 110.965788 
L 55.802917 114.630943 
L 47.786137 136.436144 
" style="fill:none;stroke:#999999;"/>
    <path clip-path="url(#pb4ae1d7397)" d="M 110.701423 33.97936 
L 113.53992 30.08562 
L 118.289293 21.798111 
L 120.619976 18.017365 
L 122.643138 15.510721 
L 125.833665 12.662499 
L 129.961927 9.722063 
L 132.459521 8.307692 
" style="fill:none;stroke:#999999;"/>
    <path clip-path="url(#pb4ae1d7397)" d="M 110.701423 33.97936 
L 105.650599 42.624033 
L 91.40956 63.888943 
L 84.3204 74.490876 
L 82.24767 78.053427 
" style="fill:none;stroke:#999999;"/>
    <path clip-path="url(#pb4ae1d7397)" d="M 48.634854 403.26511 
L 47.658678 412.400722 
L 47.248988 418.384198 
L 46.938432 423.692308 
" style="fill:none;stroke:#999999;"/>
    <path clip-path="url(#pb4ae1d7397)" d="M 48.634854 403.26511 
L 48.99093 413.055307 
L 49.36825 423.479308 
" style="fill:none;stroke:#999999;"/>
    <path clip-path="url(#pb4ae1d7397)" d="M 48.634854 403.26511 
L 55.048278 338.046919 
L 61.760118 292.393536 
L 64.609742 269.575286 
L 66.758341 255.309497 
L 67.596941 249.168869 
" style="fill:none;stroke:#999999;"/>
    <path clip-path="url(#pb4ae1d7397)" d="M 46.938432 423.692308 
L 49.36825 423.479308 
" style="fill:none;stroke:#999999;"/>
    <path clip-path="url(#pb4ae1d7397)" d="M 46.938432 423.692308 
L 47.248988 418.384198 
L 47.658678 412.400722 
L 48.634854 403.26511 
" style="fill:none;stroke:#999999;"/>
    <path clip-path="url(#pb4ae1d7397)" d="M 49.36825 423.479308 
L 46.938432 423.692308 
" style="fill:none;stroke:#999999;"/>
    <path clip-path="url(#pb4ae1d7397)" d="M 49.36825 423.479308 
L 48.99093 413.055307 
L 48.634854 403.26511 
" style="fill:none;stroke:#999999;"/>
    <path clip-path="url(#pb4ae1d7397)" d="M 82.24767 78.053427 
L 80.531017 79.878212 
L 76.723426 85.508419 
L 73.415556 90.698341 
L 70.416218 95.454469 
" style="fill:none;stroke:#999999;"/>
    <path clip-path="url(#pb4ae1d7397)" d="M 82.24767 78.053427 
L 84.3204 74.490876 
L 91.40956 63.888943 
L 105.650599 42.624033 
L 110.701423 33.97936 
" style="fill:none;stroke:#999999;"/>
    <path clip-path="url(#pb4ae1d7397)" d="M 82.24767 78.053427 
L 81.552714 79.247005 
L 79.565969 83.942092 
L 78.269122 87.228003 
L 77.156383 91.867242 
" style="fill:none;stroke:#999999;"/>
    <path clip-path="url(#pb4ae1d7397)" d="M 52.896645 191.357615 
L 53.596659 196.994316 
L 55.357822 201.697195 
L 58.269152 208.407987 
" style="fill:none;stroke:#999999;"/>
    <path clip-path="url(#pb4ae1d7397)" d="M 52.896645 191.357615 
L 52.93205 190.260147 
L 53.371077 185.642987 
L 54.403901 179.256891 
L 54.709398 176.341132 
L 54.555638 173.613695 
" style="fill:none;stroke:#999999;"/>
    <path clip-path="url(#pb4ae1d7397)" d="M 52.896645 191.357615 
L 52.115704 191.308262 
L 49.47042 190.752384 
L 45.40791 189.870513 
" style="fill:none;stroke:#999999;"/>
    <path clip-path="url(#pb4ae1d7397)" d="M 54.555638 173.613695 
L 54.709398 176.341132 
L 54.403901 179.256891 
L 53.371077 185.642987 
L 52.93205 190.260147 
L 52.896645 191.357615 
" style="fill:none;stroke:#999999;"/>
    <path clip-path="url(#pb4ae1d7397)" d="M 54.555638 173.613695 
L 54.462573 172.85391 
L 53.662412 168.961469 
L 52.394901 165.04565 
L 50.90383 159.380376 
L 50.860332 158.756962 
L 49.898319 153.512492 
L 47.735558 139.092148 
L 47.786137 136.436144 
" style="fill:none;stroke:#999999;"/>
    <path clip-path="url(#pb4ae1d7397)" d="M 54.555638 173.613695 
L 55.283976 173.46044 
L 58.865985 173.026647 
L 61.836999 172.687666 
L 68.067327 172.448691 
" style="fill:none;stroke:#999999;"/>
    <path clip-path="url(#pb4ae1d7397)" d="M 54.555638 173.613695 
L 52.463688 173.995537 
L 49.504814 174.552713 
L 47.407806 174.772206 
L 46.539869 175.322889 
" style="fill:none;stroke:#999999;"/>
    <path clip-path="url(#pb4ae1d7397)" d="M 77.156383 91.867242 
L 78.269122 87.228003 
L 79.565969 83.942092 
L 81.552714 79.247005 
L 82.24767 78.053427 
" style="fill:none;stroke:#999999;"/>
    <path clip-path="url(#pb4ae1d7397)" d="M 77.156383 91.867242 
L 76.012284 99.839148 
L 75.106919 127.514831 
L 73.864698 140.36625 
L 70.981692 160.434984 
L 69.654497 176.933375 
L 69.338884 188.824996 
L 70.022713 205.644185 
L 70.145114 222.756898 
L 69.843663 228.497502 
L 69.596837 233.314673 
" style="fill:none;stroke:#999999;"/>
    <path clip-path="url(#pb4ae1d7397)" d="M 64.101929 226.203858 
L 60.591742 215.444772 
" style="fill:none;stroke:#999999;"/>
    <path clip-path="url(#pb4ae1d7397)" d="M 64.101929 226.203858 
L 65.326953 231.501578 
L 66.141276 235.271933 
L 66.765422 239.451404 
L 67.118463 242.978888 
L 67.596941 249.168869 
" style="fill:none;stroke:#999999;"/>
    <path clip-path="url(#pb4ae1d7397)" d="M 67.596941 249.168869 
L 66.758341 255.309497 
L 64.609742 269.575286 
L 61.760118 292.393536 
L 55.048278 338.046919 
L 48.634854 403.26511 
" style="fill:none;stroke:#999999;"/>
    <path clip-path="url(#pb4ae1d7397)" d="M 67.596941 249.168869 
L 68.266608 244.62574 
L 68.356639 244.016613 
" style="fill:none;stroke:#999999;"/>
    <path clip-path="url(#pb4ae1d7397)" d="M 69.596837 233.314673 
L 67.172077 230.769066 
L 65.707308 229.22222 
L 64.101929 226.203858 
" style="fill:none;stroke:#999999;"/>
    <path clip-path="url(#pb4ae1d7397)" d="M 69.596837 233.314673 
L 69.262004 236.709682 
L 68.822978 240.851488 
L 68.356639 244.016613 
" style="fill:none;stroke:#999999;"/>
    <path clip-path="url(#pb4ae1d7397)" d="M 69.596837 233.314673 
L 69.843663 228.497502 
L 70.145114 222.756898 
L 70.022713 205.644185 
L 69.338884 188.824996 
L 69.654497 176.933375 
L 70.981692 160.434984 
L 73.864698 140.36625 
L 75.106919 127.514831 
L 76.012284 99.839148 
L 77.156383 91.867242 
" style="fill:none;stroke:#999999;"/>
    <path clip-path="url(#pb4ae1d7397)" d="M 40.401595 208.315774 
L 46.084658 202.275152 
" style="fill:none;stroke:#999999;"/>
    <path clip-path="url(#pb4ae1d7397)" d="M 46.084658 202.275152 
L 40.401595 208.315774 
" style="fill:none;stroke:#999999;"/>
    <path clip-path="url(#pb4ae1d7397)" d="M 46.084658 202.275152 
L 49.179084 205.006485 
" style="fill:none;stroke:#999999;"/>
    <path clip-path="url(#pb4ae1d7397)" d="M 46.084658 202.275152 
L 46.351715 201.677714 
L 45.835809 196.495585 
L 45.429153 191.829072 
L 45.40791 189.870513 
" style="fill:none;stroke:#999999;"/>
    <path clip-path="url(#pb4ae1d7397)" d="M 55.712887 211.147112 
L 58.269152 208.407987 
" style="fill:none;stroke:#999999;"/>
    <path clip-path="url(#pb4ae1d7397)" d="M 55.712887 211.147112 
L 54.341183 212.626421 
" style="fill:none;stroke:#999999;"/>
    <path clip-path="url(#pb4ae1d7397)" d="M 55.712887 211.147112 
L 60.591742 215.444772 
" style="fill:none;stroke:#999999;"/>
    <path clip-path="url(#pb4ae1d7397)" d="M 55.712887 211.147112 
L 49.179084 205.006485 
" style="fill:none;stroke:#999999;"/>
    <path clip-path="url(#pb4ae1d7397)" d="M 60.591742 215.444772 
L 64.101929 226.203858 
" style="fill:none;stroke:#999999;"/>
    <path clip-path="url(#pb4ae1d7397)" d="M 60.591742 215.444772 
L 55.712887 211.147112 
" style="fill:none;stroke:#999999;"/>
    <path clip-path="url(#pb4ae1d7397)" d="M 60.591742 215.444772 
L 59.047058 210.709423 
L 58.269152 208.407987 
" style="fill:none;stroke:#999999;"/>
    <path clip-path="url(#pb4ae1d7397)" d="M 43.790392 210.882161 
L 49.179084 205.006485 
" style="fill:none;stroke:#999999;"/>
    <path clip-path="url(#pb4ae1d7397)" d="M 49.179084 205.006485 
L 43.790392 210.882161 
" style="fill:none;stroke:#999999;"/>
    <path clip-path="url(#pb4ae1d7397)" d="M 49.179084 205.006485 
L 55.712887 211.147112 
" style="fill:none;stroke:#999999;"/>
    <path clip-path="url(#pb4ae1d7397)" d="M 49.179084 205.006485 
L 46.084658 202.275152 
" style="fill:none;stroke:#999999;"/>
    <path clip-path="url(#pb4ae1d7397)" d="M 32.140013 178.363331 
L 32.468777 178.280209 
L 33.837446 177.968502 
L 39.842191 176.632058 
L 44.633039 175.973577 
L 46.539869 175.322889 
" style="fill:none;stroke:#999999;"/>
    <path clip-path="url(#pb4ae1d7397)" d="M 32.140013 178.363331 
L 29.113362 179.156885 
L 28.558004 179.319232 
L 26.55305 179.907579 
L 24.281039 180.616712 
" style="fill:none;stroke:#999999;"/>
    <path clip-path="url(#pb4ae1d7397)" d="M 32.140013 178.363331 
L 32.336259 179.382872 
L 32.472823 180.419298 
L 32.666035 181.688205 
L 32.994799 183.849373 
L 33.448999 186.040414 
L 33.619956 186.450828 
" style="fill:none;stroke:#999999;"/>
    <path clip-path="url(#pb4ae1d7397)" d="M 33.619956 186.450828 
L 29.738519 190.210793 
" style="fill:none;stroke:#999999;"/>
    <path clip-path="url(#pb4ae1d7397)" d="M 33.619956 186.450828 
L 34.361445 186.367706 
L 38.563553 187.687266 
L 41.35754 188.731484 
L 43.55874 189.430227 
L 45.40791 189.870513 
" style="fill:none;stroke:#999999;"/>
    <path clip-path="url(#pb4ae1d7397)" d="M 33.619956 186.450828 
L 33.448999 186.040414 
L 32.994799 183.849373 
L 32.666035 181.688205 
L 32.472823 180.419298 
L 32.336259 179.382872 
L 32.140013 178.363331 
" style="fill:none;stroke:#999999;"/>
    <path clip-path="url(#pb4ae1d7397)" d="M 46.539869 175.322889 
L 47.407806 174.772206 
L 49.504814 174.552713 
L 52.463688 173.995537 
L 54.555638 173.613695 
" style="fill:none;stroke:#999999;"/>
    <path clip-path="url(#pb4ae1d7397)" d="M 46.539869 175.322889 
L 44.633039 175.973577 
L 39.842191 176.632058 
L 33.837446 177.968502 
L 32.468777 178.280209 
L 32.140013 178.363331 
" style="fill:none;stroke:#999999;"/>
    <path clip-path="url(#pb4ae1d7397)" d="M 46.539869 175.322889 
L 46.467036 174.289061 
L 45.805462 170.344669 
L 45.247069 169.34331 
" style="fill:none;stroke:#999999;"/>
    <path clip-path="url(#pb4ae1d7397)" d="M 46.539869 175.322889 
L 46.569205 179.782896 
L 46.107924 184.15069 
L 45.619331 187.867796 
L 45.401841 189.387367 
L 45.40791 189.870513 
" style="fill:none;stroke:#999999;"/>
    <path clip-path="url(#pb4ae1d7397)" d="M 68.067327 172.448691 
L 61.836999 172.687666 
L 58.865985 173.026647 
L 55.283976 173.46044 
L 54.555638 173.613695 
" style="fill:none;stroke:#999999;"/>
    <path clip-path="url(#pb4ae1d7397)" d="M 54.341183 212.626421 
L 55.712887 211.147112 
" style="fill:none;stroke:#999999;"/>
    <path clip-path="url(#pb4ae1d7397)" d="M 19.016771 181.583004 
L 20.291363 181.953156 
L 20.744552 181.871333 
L 24.281039 180.616712 
" style="fill:none;stroke:#999999;"/>
    <path clip-path="url(#pb4ae1d7397)" d="M 24.281039 180.616712 
L 26.55305 179.907579 
L 28.558004 179.319232 
L 29.113362 179.156885 
L 32.140013 178.363331 
" style="fill:none;stroke:#999999;"/>
    <path clip-path="url(#pb4ae1d7397)" d="M 24.281039 180.616712 
L 20.744552 181.871333 
L 20.291363 181.953156 
L 19.016771 181.583004 
" style="fill:none;stroke:#999999;"/>
    <path clip-path="url(#pb4ae1d7397)" d="M 24.281039 180.616712 
L 25.181346 183.674038 
L 26.488309 187.880784 
L 27.418964 188.954874 
L 29.32984 190.583543 
" style="fill:none;stroke:#999999;"/>
    <path clip-path="url(#pb4ae1d7397)" d="M 45.40791 189.870513 
L 49.47042 190.752384 
L 52.115704 191.308262 
L 52.896645 191.357615 
" style="fill:none;stroke:#999999;"/>
    <path clip-path="url(#pb4ae1d7397)" d="M 45.40791 189.870513 
L 43.55874 189.430227 
L 41.35754 188.731484 
L 38.563553 187.687266 
L 34.361445 186.367706 
L 33.619956 186.450828 
" style="fill:none;stroke:#999999;"/>
    <path clip-path="url(#pb4ae1d7397)" d="M 45.40791 189.870513 
L 45.401841 189.387367 
L 45.619331 187.867796 
L 46.107924 184.15069 
L 46.569205 179.782896 
L 46.539869 175.322889 
" style="fill:none;stroke:#999999;"/>
    <path clip-path="url(#pb4ae1d7397)" d="M 45.40791 189.870513 
L 45.429153 191.829072 
L 45.835809 196.495585 
L 46.351715 201.677714 
L 46.084658 202.275152 
" style="fill:none;stroke:#999999;"/>
    <path clip-path="url(#pb4ae1d7397)" d="M 29.738519 190.210793 
L 33.619956 186.450828 
" style="fill:none;stroke:#999999;"/>
    <path clip-path="url(#pb4ae1d7397)" d="M 45.247069 169.34331 
L 45.805462 170.344669 
L 46.467036 174.289061 
L 46.539869 175.322889 
" style="fill:none;stroke:#999999;"/>
    <path clip-path="url(#pb4ae1d7397)" d="M 29.32984 190.583543 
L 27.418964 188.954874 
L 26.488309 187.880784 
L 25.181346 183.674038 
L 24.281039 180.616712 
" style="fill:none;stroke:#999999;"/>
    <path clip-path="url(#pb4ae1d7397)" d="M 68.356639 244.016613 
L 68.822978 240.851488 
L 69.262004 236.709682 
L 69.596837 233.314673 
" style="fill:none;stroke:#999999;"/>
    <path clip-path="url(#pb4ae1d7397)" d="M 68.356639 244.016613 
L 69.388451 241.920383 
L 69.804211 239.164374 
L 70.144103 235.575848 
L 70.370697 234.103032 
L 70.294828 233.4991 
L 69.596837 233.314673 
" style="fill:none;stroke:#999999;"/>
    <path clip-path="url(#pb4ae1d7397)" d="M 68.356639 244.016613 
L 68.266608 244.62574 
L 67.596941 249.168869 
" style="fill:none;stroke:#999999;"/>
   </g>
  </g>
 </g>
 <defs>
  <clipPath id="pb4ae1d7397">
   <rect height="432" width="117.980459" x="16.747916" y="0"/>
  </clipPath>
 </defs>
</svg>
