<?xml version="1.0" encoding="utf-8" standalone="no"?>
<!DOCTYPE svg PUBLIC "-//W3C//DTD SVG 1.1//EN"
  "http://www.w3.org/Graphics/SVG/1.1/DTD/svg11.dtd">
<!-- Created with matplotlib (http://matplotlib.org/) -->
<svg height="432pt" version="1.1" viewBox="0 0 1450.903796 432" width="1450.903796pt" xmlns="http://www.w3.org/2000/svg" xmlns:xlink="http://www.w3.org/1999/xlink">
 <defs>
  <style type="text/css">
*{stroke-linecap:butt;stroke-linejoin:round;}
  </style>
 </defs>
 <g id="figure_1">
  <g id="patch_1">
   <path d="M 0 432 
L 1450.903796 432 
L 1450.903796 0 
L 0 0 
z
" style="fill:none;opacity:0;"/>
  </g>
  <g id="axes_1">
   <g id="PathCollection_1">
    <defs>
     <path d="M 0 1.936492 
C 0.513564 1.936492 1.006162 1.732451 1.369306 1.369306 
C 1.732451 1.006162 1.936492 0.513564 1.936492 0 
C 1.936492 -0.513564 1.732451 -1.006162 1.369306 -1.369306 
C 1.006162 -1.732451 0.513564 -1.936492 0 -1.936492 
C -0.513564 -1.936492 -1.006162 -1.732451 -1.369306 -1.369306 
C -1.732451 -1.006162 -1.936492 -0.513564 -1.936492 0 
C -1.936492 0.513564 -1.732451 1.006162 -1.369306 1.369306 
C -1.006162 1.732451 -0.513564 1.936492 0 1.936492 
z
" id="C0_0_727343d634"/>
    </defs>
    <g clip-path="url(#p9c5dbbbb1a)">
     <use style="fill:#66ccff;" x="267.084734" xlink:href="#C0_0_727343d634" y="74.998228"/>
    </g>
    <g clip-path="url(#p9c5dbbbb1a)">
     <use style="fill:#66ccff;" x="357.630773" xlink:href="#C0_0_727343d634" y="8.307692"/>
    </g>
    <g clip-path="url(#p9c5dbbbb1a)">
     <use style="fill:#66ccff;" x="220.755515" xlink:href="#C0_0_727343d634" y="146.29278"/>
    </g>
    <g clip-path="url(#p9c5dbbbb1a)">
     <use style="fill:#66ccff;" x="369.306099" xlink:href="#C0_0_727343d634" y="62.416173"/>
    </g>
    <g clip-path="url(#p9c5dbbbb1a)">
     <use style="fill:#66ccff;" x="276.146663" xlink:href="#C0_0_727343d634" y="112.338157"/>
    </g>
    <g clip-path="url(#p9c5dbbbb1a)">
     <use style="fill:#66ccff;" x="313.862215" xlink:href="#C0_0_727343d634" y="128.41084"/>
    </g>
    <g clip-path="url(#p9c5dbbbb1a)">
     <use style="fill:#66ccff;" x="327.649941" xlink:href="#C0_0_727343d634" y="131.96165"/>
    </g>
    <g clip-path="url(#p9c5dbbbb1a)">
     <use style="fill:#66ccff;" x="315.508773" xlink:href="#C0_0_727343d634" y="116.434378"/>
    </g>
    <g clip-path="url(#p9c5dbbbb1a)">
     <use style="fill:#66ccff;" x="282.126422" xlink:href="#C0_0_727343d634" y="296.585338"/>
    </g>
    <g clip-path="url(#p9c5dbbbb1a)">
     <use style="fill:#66ccff;" x="336.020432" xlink:href="#C0_0_727343d634" y="55.961522"/>
    </g>
    <g clip-path="url(#p9c5dbbbb1a)">
     <use style="fill:#66ccff;" x="350.766208" xlink:href="#C0_0_727343d634" y="144.934896"/>
    </g>
    <g clip-path="url(#p9c5dbbbb1a)">
     <use style="fill:#66ccff;" x="223.064212" xlink:href="#C0_0_727343d634" y="55.137764"/>
    </g>
    <g clip-path="url(#p9c5dbbbb1a)">
     <use style="fill:#66ccff;" x="341.953314" xlink:href="#C0_0_727343d634" y="105.590113"/>
    </g>
    <g clip-path="url(#p9c5dbbbb1a)">
     <use style="fill:#66ccff;" x="263.431251" xlink:href="#C0_0_727343d634" y="64.808456"/>
    </g>
    <g clip-path="url(#p9c5dbbbb1a)">
     <use style="fill:#66ccff;" x="364.738512" xlink:href="#C0_0_727343d634" y="147.650664"/>
    </g>
    <g clip-path="url(#p9c5dbbbb1a)">
     <use style="fill:#66ccff;" x="386.498274" xlink:href="#C0_0_727343d634" y="88.761379"/>
    </g>
    <g clip-path="url(#p9c5dbbbb1a)">
     <use style="fill:#66ccff;" x="362.825341" xlink:href="#C0_0_727343d634" y="146.52599"/>
    </g>
    <g clip-path="url(#p9c5dbbbb1a)">
     <use style="fill:#66ccff;" x="345.747429" xlink:href="#C0_0_727343d634" y="144.107377"/>
    </g>
    <g clip-path="url(#p9c5dbbbb1a)">
     <use style="fill:#66ccff;" x="398.873827" xlink:href="#C0_0_727343d634" y="89.084864"/>
    </g>
    <g clip-path="url(#p9c5dbbbb1a)">
     <use style="fill:#66ccff;" x="322.314741" xlink:href="#C0_0_727343d634" y="219.422921"/>
    </g>
    <g clip-path="url(#p9c5dbbbb1a)">
     <use style="fill:#66ccff;" x="335.434468" xlink:href="#C0_0_727343d634" y="88.723765"/>
    </g>
    <g clip-path="url(#p9c5dbbbb1a)">
     <use style="fill:#66ccff;" x="182.125859" xlink:href="#C0_0_727343d634" y="65.252307"/>
    </g>
    <g clip-path="url(#p9c5dbbbb1a)">
     <use style="fill:#66ccff;" x="317.231506" xlink:href="#C0_0_727343d634" y="157.04677"/>
    </g>
    <g clip-path="url(#p9c5dbbbb1a)">
     <use style="fill:#66ccff;" x="264.56509" xlink:href="#C0_0_727343d634" y="37.793711"/>
    </g>
    <g clip-path="url(#p9c5dbbbb1a)">
     <use style="fill:#66ccff;" x="303.476009" xlink:href="#C0_0_727343d634" y="213.713037"/>
    </g>
    <g clip-path="url(#p9c5dbbbb1a)">
     <use style="fill:#66ccff;" x="300.683892" xlink:href="#C0_0_727343d634" y="368.402732"/>
    </g>
    <g clip-path="url(#p9c5dbbbb1a)">
     <use style="fill:#66ccff;" x="295.817464" xlink:href="#C0_0_727343d634" y="326.793555"/>
    </g>
    <g clip-path="url(#p9c5dbbbb1a)">
     <use style="fill:#66ccff;" x="316.167982" xlink:href="#C0_0_727343d634" y="238.832011"/>
    </g>
    <g clip-path="url(#p9c5dbbbb1a)">
     <use style="fill:#66ccff;" x="264.778967" xlink:href="#C0_0_727343d634" y="364.502106"/>
    </g>
    <g clip-path="url(#p9c5dbbbb1a)">
     <use style="fill:#66ccff;" x="275.080209" xlink:href="#C0_0_727343d634" y="199.434567"/>
    </g>
    <g clip-path="url(#p9c5dbbbb1a)">
     <use style="fill:#66ccff;" x="325.279718" xlink:href="#C0_0_727343d634" y="202.44749"/>
    </g>
    <g clip-path="url(#p9c5dbbbb1a)">
     <use style="fill:#66ccff;" x="334.748891" xlink:href="#C0_0_727343d634" y="58.282337"/>
    </g>
    <g clip-path="url(#p9c5dbbbb1a)">
     <use style="fill:#66ccff;" x="331.959704" xlink:href="#C0_0_727343d634" y="242.856764"/>
    </g>
    <g clip-path="url(#p9c5dbbbb1a)">
     <use style="fill:#66ccff;" x="376.777136" xlink:href="#C0_0_727343d634" y="78.225553"/>
    </g>
    <g clip-path="url(#p9c5dbbbb1a)">
     <use style="fill:#66ccff;" x="448.481513" xlink:href="#C0_0_727343d634" y="166.442876"/>
    </g>
    <g clip-path="url(#p9c5dbbbb1a)">
     <use style="fill:#66ccff;" x="267.869925" xlink:href="#C0_0_727343d634" y="195.808528"/>
    </g>
    <g clip-path="url(#p9c5dbbbb1a)">
     <use style="fill:#66ccff;" x="375.824945" xlink:href="#C0_0_727343d634" y="139.792992"/>
    </g>
    <g clip-path="url(#p9c5dbbbb1a)">
     <use style="fill:#66ccff;" x="387.262956" xlink:href="#C0_0_727343d634" y="83.961767"/>
    </g>
    <g clip-path="url(#p9c5dbbbb1a)">
     <use style="fill:#66ccff;" x="336.319274" xlink:href="#C0_0_727343d634" y="106.688457"/>
    </g>
    <g clip-path="url(#p9c5dbbbb1a)">
     <use style="fill:#66ccff;" x="243.549503" xlink:href="#C0_0_727343d634" y="111.217245"/>
    </g>
    <g clip-path="url(#p9c5dbbbb1a)">
     <use style="fill:#66ccff;" x="337.491201" xlink:href="#C0_0_727343d634" y="97.818954"/>
    </g>
    <g clip-path="url(#p9c5dbbbb1a)">
     <use style="fill:#66ccff;" x="223.735141" xlink:href="#C0_0_727343d634" y="22.097174"/>
    </g>
    <g clip-path="url(#p9c5dbbbb1a)">
     <use style="fill:#66ccff;" x="340.075301" xlink:href="#C0_0_727343d634" y="40.652414"/>
    </g>
    <g clip-path="url(#p9c5dbbbb1a)">
     <use style="fill:#66ccff;" x="342.064647" xlink:href="#C0_0_727343d634" y="215.232664"/>
    </g>
    <g clip-path="url(#p9c5dbbbb1a)">
     <use style="fill:#66ccff;" x="264.09046" xlink:href="#C0_0_727343d634" y="56.239869"/>
    </g>
    <g clip-path="url(#p9c5dbbbb1a)">
     <use style="fill:#66ccff;" x="270.785095" xlink:href="#C0_0_727343d634" y="88.580829"/>
    </g>
    <g clip-path="url(#p9c5dbbbb1a)">
     <use style="fill:#66ccff;" x="316.68656" xlink:href="#C0_0_727343d634" y="90.311097"/>
    </g>
    <g clip-path="url(#p9c5dbbbb1a)">
     <use style="fill:#66ccff;" x="303.473079" xlink:href="#C0_0_727343d634" y="301.682104"/>
    </g>
    <g clip-path="url(#p9c5dbbbb1a)">
     <use style="fill:#66ccff;" x="315.441387" xlink:href="#C0_0_727343d634" y="304.540808"/>
    </g>
    <g clip-path="url(#p9c5dbbbb1a)">
     <use style="fill:#66ccff;" x="452.290277" xlink:href="#C0_0_727343d634" y="10.639792"/>
    </g>
    <g clip-path="url(#p9c5dbbbb1a)">
     <use style="fill:#66ccff;" x="269.777237" xlink:href="#C0_0_727343d634" y="208.428198"/>
    </g>
    <g clip-path="url(#p9c5dbbbb1a)">
     <use style="fill:#66ccff;" x="324.904701" xlink:href="#C0_0_727343d634" y="306.80144"/>
    </g>
    <g clip-path="url(#p9c5dbbbb1a)">
     <use style="fill:#66ccff;" x="326.513171" xlink:href="#C0_0_727343d634" y="74.911715"/>
    </g>
    <g clip-path="url(#p9c5dbbbb1a)">
     <use style="fill:#66ccff;" x="291.727437" xlink:href="#C0_0_727343d634" y="256.898262"/>
    </g>
    <g clip-path="url(#p9c5dbbbb1a)">
     <use style="fill:#66ccff;" x="246.033989" xlink:href="#C0_0_727343d634" y="113.128062"/>
    </g>
    <g clip-path="url(#p9c5dbbbb1a)">
     <use style="fill:#66ccff;" x="304.170376" xlink:href="#C0_0_727343d634" y="115.475208"/>
    </g>
    <g clip-path="url(#p9c5dbbbb1a)">
     <use style="fill:#66ccff;" x="282.920403" xlink:href="#C0_0_727343d634" y="86.474417"/>
    </g>
    <g clip-path="url(#p9c5dbbbb1a)">
     <use style="fill:#66ccff;" x="297.276513" xlink:href="#C0_0_727343d634" y="235.506888"/>
    </g>
    <g clip-path="url(#p9c5dbbbb1a)">
     <use style="fill:#66ccff;" x="320.334184" xlink:href="#C0_0_727343d634" y="184.065277"/>
    </g>
    <g clip-path="url(#p9c5dbbbb1a)">
     <use style="fill:#66ccff;" x="300.672173" xlink:href="#C0_0_727343d634" y="222.973731"/>
    </g>
    <g clip-path="url(#p9c5dbbbb1a)">
     <use style="fill:#66ccff;" x="390.717212" xlink:href="#C0_0_727343d634" y="133.770908"/>
    </g>
    <g clip-path="url(#p9c5dbbbb1a)">
     <use style="fill:#66ccff;" x="260.993642" xlink:href="#C0_0_727343d634" y="113.440263"/>
    </g>
    <g clip-path="url(#p9c5dbbbb1a)">
     <use style="fill:#66ccff;" x="330.09048" xlink:href="#C0_0_727343d634" y="337.073602"/>
    </g>
    <g clip-path="url(#p9c5dbbbb1a)">
     <use style="fill:#66ccff;" x="377.969572" xlink:href="#C0_0_727343d634" y="42.882955"/>
    </g>
    <g clip-path="url(#p9c5dbbbb1a)">
     <use style="fill:#66ccff;" x="400.426631" xlink:href="#C0_0_727343d634" y="46.832479"/>
    </g>
    <g clip-path="url(#p9c5dbbbb1a)">
     <use style="fill:#66ccff;" x="403.215818" xlink:href="#C0_0_727343d634" y="131.416239"/>
    </g>
    <g clip-path="url(#p9c5dbbbb1a)">
     <use style="fill:#66ccff;" x="412.834412" xlink:href="#C0_0_727343d634" y="138.638226"/>
    </g>
    <g clip-path="url(#p9c5dbbbb1a)">
     <use style="fill:#66ccff;" x="311.283975" xlink:href="#C0_0_727343d634" y="200.897772"/>
    </g>
    <g clip-path="url(#p9c5dbbbb1a)">
     <use style="fill:#66ccff;" x="334.397313" xlink:href="#C0_0_727343d634" y="230.496634"/>
    </g>
    <g clip-path="url(#p9c5dbbbb1a)">
     <use style="fill:#66ccff;" x="378.300642" xlink:href="#C0_0_727343d634" y="161.741062"/>
    </g>
    <g clip-path="url(#p9c5dbbbb1a)">
     <use style="fill:#66ccff;" x="400.496946" xlink:href="#C0_0_727343d634" y="129.388817"/>
    </g>
    <g clip-path="url(#p9c5dbbbb1a)">
     <use style="fill:#66ccff;" x="406.116338" xlink:href="#C0_0_727343d634" y="155.053201"/>
    </g>
    <g clip-path="url(#p9c5dbbbb1a)">
     <use style="fill:#66ccff;" x="404.355517" xlink:href="#C0_0_727343d634" y="53.855109"/>
    </g>
    <g clip-path="url(#p9c5dbbbb1a)">
     <use style="fill:#66ccff;" x="358.615192" xlink:href="#C0_0_727343d634" y="98.5073"/>
    </g>
    <g clip-path="url(#p9c5dbbbb1a)">
     <use style="fill:#66ccff;" x="375.625718" xlink:href="#C0_0_727343d634" y="78.89133"/>
    </g>
    <g clip-path="url(#p9c5dbbbb1a)">
     <use style="fill:#66ccff;" x="262.455621" xlink:href="#C0_0_727343d634" y="220.833465"/>
    </g>
    <g clip-path="url(#p9c5dbbbb1a)">
     <use style="fill:#66ccff;" x="299.722911" xlink:href="#C0_0_727343d634" y="89.310551"/>
    </g>
    <g clip-path="url(#p9c5dbbbb1a)">
     <use style="fill:#66ccff;" x="223.41579" xlink:href="#C0_0_727343d634" y="36.338029"/>
    </g>
    <g clip-path="url(#p9c5dbbbb1a)">
     <use style="fill:#66ccff;" x="331.332723" xlink:href="#C0_0_727343d634" y="119.120054"/>
    </g>
    <g clip-path="url(#p9c5dbbbb1a)">
     <use style="fill:#66ccff;" x="988.511506" xlink:href="#C0_0_727343d634" y="181.609049"/>
    </g>
    <g clip-path="url(#p9c5dbbbb1a)">
     <use style="fill:#66ccff;" x="1165.982327" xlink:href="#C0_0_727343d634" y="173.172113"/>
    </g>
    <g clip-path="url(#p9c5dbbbb1a)">
     <use style="fill:#66ccff;" x="1236.092882" xlink:href="#C0_0_727343d634" y="168.082869"/>
    </g>
    <g clip-path="url(#p9c5dbbbb1a)">
     <use style="fill:#66ccff;" x="1254.858369" xlink:href="#C0_0_727343d634" y="164.840498"/>
    </g>
    <g clip-path="url(#p9c5dbbbb1a)">
     <use style="fill:#66ccff;" x="1150.720903" xlink:href="#C0_0_727343d634" y="163.358486"/>
    </g>
    <g clip-path="url(#p9c5dbbbb1a)">
     <use style="fill:#66ccff;" x="1161.329776" xlink:href="#C0_0_727343d634" y="159.672263"/>
    </g>
    <g clip-path="url(#p9c5dbbbb1a)">
     <use style="fill:#66ccff;" x="1173.614504" xlink:href="#C0_0_727343d634" y="155.835583"/>
    </g>
    <g clip-path="url(#p9c5dbbbb1a)">
     <use style="fill:#66ccff;" x="1260.079306" xlink:href="#C0_0_727343d634" y="146.55232"/>
    </g>
    <g clip-path="url(#p9c5dbbbb1a)">
     <use style="fill:#66ccff;" x="1244.486812" xlink:href="#C0_0_727343d634" y="145.950488"/>
    </g>
    <g clip-path="url(#p9c5dbbbb1a)">
     <use style="fill:#66ccff;" x="1263.07651" xlink:href="#C0_0_727343d634" y="137.773093"/>
    </g>
    <g clip-path="url(#p9c5dbbbb1a)">
     <use style="fill:#66ccff;" x="1232.550732" xlink:href="#C0_0_727343d634" y="136.738693"/>
    </g>
    <g clip-path="url(#p9c5dbbbb1a)">
     <use style="fill:#66ccff;" x="1221.514106" xlink:href="#C0_0_727343d634" y="129.659642"/>
    </g>
    <g clip-path="url(#p9c5dbbbb1a)">
     <use style="fill:#66ccff;" x="1266.185047" xlink:href="#C0_0_727343d634" y="129.433954"/>
    </g>
    <g clip-path="url(#p9c5dbbbb1a)">
     <use style="fill:#66ccff;" x="1150.726763" xlink:href="#C0_0_727343d634" y="128.922397"/>
    </g>
    <g clip-path="url(#p9c5dbbbb1a)">
     <use style="fill:#66ccff;" x="1218.634094" xlink:href="#C0_0_727343d634" y="122.069032"/>
    </g>
    <g clip-path="url(#p9c5dbbbb1a)">
     <use style="fill:#66ccff;" x="1268.777937" xlink:href="#C0_0_727343d634" y="120.797662"/>
    </g>
    <g clip-path="url(#p9c5dbbbb1a)">
     <use style="fill:#66ccff;" x="1267.395062" xlink:href="#C0_0_727343d634" y="120.451608"/>
    </g>
    <g clip-path="url(#p9c5dbbbb1a)">
     <use style="fill:#66ccff;" x="1254.187441" xlink:href="#C0_0_727343d634" y="91.838246"/>
    </g>
    <g clip-path="url(#p9c5dbbbb1a)">
     <use style="fill:#66ccff;" x="1232.380802" xlink:href="#C0_0_727343d634" y="81.592052"/>
    </g>
    <g clip-path="url(#p9c5dbbbb1a)">
     <use style="fill:#66ccff;" x="1248.954785" xlink:href="#C0_0_727343d634" y="81.48297"/>
    </g>
    <g clip-path="url(#p9c5dbbbb1a)">
     <use style="fill:#66ccff;" x="1264.107806" xlink:href="#C0_0_727343d634" y="81.264806"/>
    </g>
    <g clip-path="url(#p9c5dbbbb1a)">
     <use style="fill:#66ccff;" x="1232.925749" xlink:href="#C0_0_727343d634" y="71.451179"/>
    </g>
    <g clip-path="url(#p9c5dbbbb1a)">
     <use style="fill:#66ccff;" x="1248.673523" xlink:href="#C0_0_727343d634" y="70.913292"/>
    </g>
    <g clip-path="url(#p9c5dbbbb1a)">
     <use style="fill:#66ccff;" x="1267.160677" xlink:href="#C0_0_727343d634" y="70.578522"/>
    </g>
    <g clip-path="url(#p9c5dbbbb1a)">
     <use style="fill:#66ccff;" x="1233.907238" xlink:href="#C0_0_727343d634" y="60.550493"/>
    </g>
    <g clip-path="url(#p9c5dbbbb1a)">
     <use style="fill:#66ccff;" x="1248.383471" xlink:href="#C0_0_727343d634" y="60.008844"/>
    </g>
    <g clip-path="url(#p9c5dbbbb1a)">
     <use style="fill:#66ccff;" x="1267.814026" xlink:href="#C0_0_727343d634" y="59.896"/>
    </g>
    <g clip-path="url(#p9c5dbbbb1a)">
     <use style="fill:#66ccff;" x="1248.122717" xlink:href="#C0_0_727343d634" y="50.097419"/>
    </g>
    <g clip-path="url(#p9c5dbbbb1a)">
     <use style="fill:#66ccff;" x="1268.142166" xlink:href="#C0_0_727343d634" y="49.536963"/>
    </g>
    <g clip-path="url(#p9c5dbbbb1a)">
     <use style="fill:#66ccff;" x="1240.121383" xlink:href="#C0_0_727343d634" y="43.868455"/>
    </g>
    <g clip-path="url(#p9c5dbbbb1a)">
     <use style="fill:#66ccff;" x="1267.59722" xlink:href="#C0_0_727343d634" y="43.541209"/>
    </g>
    <g clip-path="url(#p9c5dbbbb1a)">
     <use style="fill:#66ccff;" x="1247.946928" xlink:href="#C0_0_727343d634" y="43.533686"/>
    </g>
    <g clip-path="url(#p9c5dbbbb1a)">
     <use style="fill:#66ccff;" x="1267.814026" xlink:href="#C0_0_727343d634" y="36.672798"/>
    </g>
    <g clip-path="url(#p9c5dbbbb1a)">
     <use style="fill:#66ccff;" x="346.591217" xlink:href="#C0_0_727343d634" y="341.275143"/>
    </g>
    <g clip-path="url(#p9c5dbbbb1a)">
     <use style="fill:#66ccff;" x="308.477209" xlink:href="#C0_0_727343d634" y="331.247113"/>
    </g>
    <g clip-path="url(#p9c5dbbbb1a)">
     <use style="fill:#66ccff;" x="275.414208" xlink:href="#C0_0_727343d634" y="321.583944"/>
    </g>
    <g clip-path="url(#p9c5dbbbb1a)">
     <use style="fill:#66ccff;" x="298.026547" xlink:href="#C0_0_727343d634" y="233.298916"/>
    </g>
    <g clip-path="url(#p9c5dbbbb1a)">
     <use style="fill:#66ccff;" x="292.052647" xlink:href="#C0_0_727343d634" y="160.533636"/>
    </g>
    <g clip-path="url(#p9c5dbbbb1a)">
     <use style="fill:#66ccff;" x="281.865668" xlink:href="#C0_0_727343d634" y="150.215974"/>
    </g>
    <g clip-path="url(#p9c5dbbbb1a)">
     <use style="fill:#66ccff;" x="301.398768" xlink:href="#C0_0_727343d634" y="150.129461"/>
    </g>
    <g clip-path="url(#p9c5dbbbb1a)">
     <use style="fill:#66ccff;" x="279.214182" xlink:href="#C0_0_727343d634" y="147.932773"/>
    </g>
    <g clip-path="url(#p9c5dbbbb1a)">
     <use style="fill:#66ccff;" x="313.78311" xlink:href="#C0_0_727343d634" y="133.018618"/>
    </g>
    <g clip-path="url(#p9c5dbbbb1a)">
     <use style="fill:#66ccff;" x="300.241489" xlink:href="#C0_0_727343d634" y="131.80743"/>
    </g>
    <g clip-path="url(#p9c5dbbbb1a)">
     <use style="fill:#66ccff;" x="236.148781" xlink:href="#C0_0_727343d634" y="126.097547"/>
    </g>
    <g clip-path="url(#p9c5dbbbb1a)">
     <use style="fill:#66ccff;" x="220.934234" xlink:href="#C0_0_727343d634" y="117.935197"/>
    </g>
    <g clip-path="url(#p9c5dbbbb1a)">
     <use style="fill:#66ccff;" x="278.138939" xlink:href="#C0_0_727343d634" y="117.867491"/>
    </g>
    <g clip-path="url(#p9c5dbbbb1a)">
     <use style="fill:#66ccff;" x="302.450572" xlink:href="#C0_0_727343d634" y="116.370433"/>
    </g>
    <g clip-path="url(#p9c5dbbbb1a)">
     <use style="fill:#66ccff;" x="302.567765" xlink:href="#C0_0_727343d634" y="113.989435"/>
    </g>
    <g clip-path="url(#p9c5dbbbb1a)">
     <use style="fill:#66ccff;" x="289.682424" xlink:href="#C0_0_727343d634" y="91.033296"/>
    </g>
    <g clip-path="url(#p9c5dbbbb1a)">
     <use style="fill:#66ccff;" x="303.707465" xlink:href="#C0_0_727343d634" y="89.848439"/>
    </g>
    <g clip-path="url(#p9c5dbbbb1a)">
     <use style="fill:#66ccff;" x="320.993393" xlink:href="#C0_0_727343d634" y="89.780732"/>
    </g>
    <g clip-path="url(#p9c5dbbbb1a)">
     <use style="fill:#66ccff;" x="289.949037" xlink:href="#C0_0_727343d634" y="87.80597"/>
    </g>
    <g clip-path="url(#p9c5dbbbb1a)">
     <use style="fill:#66ccff;" x="252.353607" xlink:href="#C0_0_727343d634" y="87.787163"/>
    </g>
    <g clip-path="url(#p9c5dbbbb1a)">
     <use style="fill:#66ccff;" x="274.391701" xlink:href="#C0_0_727343d634" y="86.688819"/>
    </g>
    <g clip-path="url(#p9c5dbbbb1a)">
     <use style="fill:#66ccff;" x="305.107918" xlink:href="#C0_0_727343d634" y="84.153601"/>
    </g>
    <g clip-path="url(#p9c5dbbbb1a)">
     <use style="fill:#66ccff;" x="336.454045" xlink:href="#C0_0_727343d634" y="83.329843"/>
    </g>
    <g clip-path="url(#p9c5dbbbb1a)">
     <use style="fill:#66ccff;" x="358.383736" xlink:href="#C0_0_727343d634" y="71.29696"/>
    </g>
    <g clip-path="url(#p9c5dbbbb1a)">
     <use style="fill:#66ccff;" x="249.649385" xlink:href="#C0_0_727343d634" y="64.037358"/>
    </g>
    <g clip-path="url(#p9c5dbbbb1a)">
     <use style="fill:#66ccff;" x="249.860332" xlink:href="#C0_0_727343d634" y="55.856201"/>
    </g>
    <g clip-path="url(#p9c5dbbbb1a)">
     <use style="fill:#66ccff;" x="403.01952" xlink:href="#C0_0_727343d634" y="51.884108"/>
    </g>
    <g clip-path="url(#p9c5dbbbb1a)">
     <use style="fill:#66ccff;" x="369.93601" xlink:href="#C0_0_727343d634" y="43.608915"/>
    </g>
    <g clip-path="url(#p9c5dbbbb1a)">
     <use style="fill:#66ccff;" x="341.250158" xlink:href="#C0_0_727343d634" y="37.560501"/>
    </g>
    <g clip-path="url(#p9c5dbbbb1a)">
     <use style="fill:#66ccff;" x="215.144913" xlink:href="#C0_0_727343d634" y="35.958123"/>
    </g>
    <g clip-path="url(#p9c5dbbbb1a)">
     <use style="fill:#66ccff;" x="264.611967" xlink:href="#C0_0_727343d634" y="29.379344"/>
    </g>
    <g clip-path="url(#p9c5dbbbb1a)">
     <use style="fill:#66ccff;" x="258.658576" xlink:href="#C0_0_727343d634" y="269.619492"/>
    </g>
    <g clip-path="url(#p9c5dbbbb1a)">
     <use style="fill:#66ccff;" x="253.812657" xlink:href="#C0_0_727343d634" y="267.005283"/>
    </g>
    <g clip-path="url(#p9c5dbbbb1a)">
     <use style="fill:#66ccff;" x="239.55616" xlink:href="#C0_0_727343d634" y="259.48238"/>
    </g>
    <g clip-path="url(#p9c5dbbbb1a)">
     <use style="fill:#66ccff;" x="250.226559" xlink:href="#C0_0_727343d634" y="240.942185"/>
    </g>
    <g clip-path="url(#p9c5dbbbb1a)">
     <use style="fill:#66ccff;" x="409.216086" xlink:href="#C0_0_727343d634" y="135.896128"/>
    </g>
    <g clip-path="url(#p9c5dbbbb1a)">
     <use style="fill:#66ccff;" x="413.610814" xlink:href="#C0_0_727343d634" y="128.474784"/>
    </g>
    <g clip-path="url(#p9c5dbbbb1a)">
     <use style="fill:#66ccff;" x="413.487761" xlink:href="#C0_0_727343d634" y="123.987373"/>
    </g>
    <g clip-path="url(#p9c5dbbbb1a)">
     <use style="fill:#66ccff;" x="405.946409" xlink:href="#C0_0_727343d634" y="123.923428"/>
    </g>
    <g clip-path="url(#p9c5dbbbb1a)">
     <use style="fill:#66ccff;" x="405.820426" xlink:href="#C0_0_727343d634" y="114.512276"/>
    </g>
    <g clip-path="url(#p9c5dbbbb1a)">
     <use style="fill:#66ccff;" x="419.997818" xlink:href="#C0_0_727343d634" y="65.745057"/>
    </g>
    <g clip-path="url(#p9c5dbbbb1a)">
     <use style="fill:#66ccff;" x="249.042912" xlink:href="#C0_0_727343d634" y="423.692308"/>
    </g>
    <g clip-path="url(#p9c5dbbbb1a)">
     <use style="fill:#66ccff;" x="243.713573" xlink:href="#C0_0_727343d634" y="385.99504"/>
    </g>
    <g clip-path="url(#p9c5dbbbb1a)">
     <use style="fill:#66ccff;" x="211.678938" xlink:href="#C0_0_727343d634" y="379.856352"/>
    </g>
    <g clip-path="url(#p9c5dbbbb1a)">
     <use style="fill:#66ccff;" x="263.27304" xlink:href="#C0_0_727343d634" y="370.324833"/>
    </g>
    <g clip-path="url(#p9c5dbbbb1a)">
     <use style="fill:#66ccff;" x="283.061034" xlink:href="#C0_0_727343d634" y="365.273204"/>
    </g>
    <g clip-path="url(#p9c5dbbbb1a)">
     <use style="fill:#66ccff;" x="240.52007" xlink:href="#C0_0_727343d634" y="364.498345"/>
    </g>
    <g clip-path="url(#p9c5dbbbb1a)">
     <use style="fill:#66ccff;" x="265.991912" xlink:href="#C0_0_727343d634" y="359.615981"/>
    </g>
    <g clip-path="url(#p9c5dbbbb1a)">
     <use style="fill:#66ccff;" x="244.864991" xlink:href="#C0_0_727343d634" y="358.826076"/>
    </g>
    <g clip-path="url(#p9c5dbbbb1a)">
     <use style="fill:#66ccff;" x="313.715724" xlink:href="#C0_0_727343d634" y="247.137296"/>
    </g>
    <g clip-path="url(#p9c5dbbbb1a)">
     <use style="fill:#66ccff;" x="295.662183" xlink:href="#C0_0_727343d634" y="241.728328"/>
    </g>
    <g clip-path="url(#p9c5dbbbb1a)">
     <use style="fill:#66ccff;" x="372.282795" xlink:href="#C0_0_727343d634" y="157.494383"/>
    </g>
    <g clip-path="url(#p9c5dbbbb1a)">
     <use style="fill:#66ccff;" x="364.926021" xlink:href="#C0_0_727343d634" y="174.473575"/>
    </g>
   </g>
   <g id="LineCollection_1">
    <path clip-path="url(#p9c5dbbbb1a)" d="M 267.084734 74.998228 
L 269.08287 79.478117 
L 271.576146 81.396457 
L 274.793086 83.578099 
L 282.920403 86.474417 
" style="fill:none;stroke:#999999;"/>
    <path clip-path="url(#p9c5dbbbb1a)" d="M 267.084734 74.998228 
L 263.454689 67.953029 
L 263.431251 64.808456 
" style="fill:none;stroke:#999999;"/>
    <path clip-path="url(#p9c5dbbbb1a)" d="M 267.084734 74.998228 
L 278.730762 72.508147 
L 295.969814 71.014851 
L 311.222449 72.51567 
L 326.513171 74.911715 
" style="fill:none;stroke:#999999;"/>
    <path clip-path="url(#p9c5dbbbb1a)" d="M 357.630773 8.307692 
L 355.7469 13.964915 
L 350.555261 19.941862 
L 345.659535 27.773204 
L 341.976753 35.653445 
L 341.250158 37.560501 
" style="fill:none;stroke:#999999;"/>
    <path clip-path="url(#p9c5dbbbb1a)" d="M 220.755515 146.29278 
L 223.445089 142.760777 
L 236.148781 126.097547 
" style="fill:none;stroke:#999999;"/>
    <path clip-path="url(#p9c5dbbbb1a)" d="M 369.306099 62.416173 
L 369.93601 43.608915 
" style="fill:none;stroke:#999999;"/>
    <path clip-path="url(#p9c5dbbbb1a)" d="M 369.306099 62.416173 
L 373.410775 54.03942 
L 376.867961 46.49771 
L 377.969572 42.882955 
" style="fill:none;stroke:#999999;"/>
    <path clip-path="url(#p9c5dbbbb1a)" d="M 369.306099 62.416173 
L 365.711212 62.055073 
L 359.904312 61.957275 
L 353.734114 61.641314 
L 347.637162 61.110949 
L 336.020432 55.961522 
" style="fill:none;stroke:#999999;"/>
    <path clip-path="url(#p9c5dbbbb1a)" d="M 276.146663 112.338157 
L 289.052513 112.390818 
L 292.509699 112.157608 
L 296.83704 112.409625 
L 301.539399 113.034026 
L 302.567765 113.989435 
" style="fill:none;stroke:#999999;"/>
    <path clip-path="url(#p9c5dbbbb1a)" d="M 276.146663 112.338157 
L 270.793884 112.180176 
L 264.805335 113.410171 
L 260.993642 113.440263 
" style="fill:none;stroke:#999999;"/>
    <path clip-path="url(#p9c5dbbbb1a)" d="M 276.146663 112.338157 
L 280.796284 108.524045 
L 290.70786 103.788378 
L 289.682424 91.033296 
" style="fill:none;stroke:#999999;"/>
    <path clip-path="url(#p9c5dbbbb1a)" d="M 313.862215 128.41084 
L 313.78311 133.018618 
" style="fill:none;stroke:#999999;"/>
    <path clip-path="url(#p9c5dbbbb1a)" d="M 313.862215 128.41084 
L 314.653266 128.681664 
L 327.649941 131.96165 
" style="fill:none;stroke:#999999;"/>
    <path clip-path="url(#p9c5dbbbb1a)" d="M 313.862215 128.41084 
L 314.325127 118.725102 
L 315.508773 116.434378 
" style="fill:none;stroke:#999999;"/>
    <path clip-path="url(#p9c5dbbbb1a)" d="M 327.649941 131.96165 
L 331.332723 119.120054 
" style="fill:none;stroke:#999999;"/>
    <path clip-path="url(#p9c5dbbbb1a)" d="M 327.649941 131.96165 
L 314.653266 128.681664 
L 313.862215 128.41084 
" style="fill:none;stroke:#999999;"/>
    <path clip-path="url(#p9c5dbbbb1a)" d="M 327.649941 131.96165 
L 326.475084 137.513552 
L 324.295299 141.064363 
L 320.826394 152.912935 
L 317.231506 157.04677 
" style="fill:none;stroke:#999999;"/>
    <path clip-path="url(#p9c5dbbbb1a)" d="M 315.508773 116.434378 
L 304.170376 115.475208 
" style="fill:none;stroke:#999999;"/>
    <path clip-path="url(#p9c5dbbbb1a)" d="M 315.508773 116.434378 
L 324.851964 117.231806 
L 331.332723 119.120054 
" style="fill:none;stroke:#999999;"/>
    <path clip-path="url(#p9c5dbbbb1a)" d="M 315.508773 116.434378 
L 314.325127 118.725102 
L 313.862215 128.41084 
" style="fill:none;stroke:#999999;"/>
    <path clip-path="url(#p9c5dbbbb1a)" d="M 315.508773 116.434378 
L 316.560578 104.811493 
L 316.592806 95.964559 
L 316.68656 90.311097 
" style="fill:none;stroke:#999999;"/>
    <path clip-path="url(#p9c5dbbbb1a)" d="M 282.126422 296.585338 
L 275.414208 321.583944 
" style="fill:none;stroke:#999999;"/>
    <path clip-path="url(#p9c5dbbbb1a)" d="M 282.126422 296.585338 
L 284.74568 297.209739 
L 303.473079 301.682104 
" style="fill:none;stroke:#999999;"/>
    <path clip-path="url(#p9c5dbbbb1a)" d="M 282.126422 296.585338 
L 289.732231 265.515748 
L 291.727437 256.898262 
" style="fill:none;stroke:#999999;"/>
    <path clip-path="url(#p9c5dbbbb1a)" d="M 336.020432 55.961522 
L 334.748891 58.282337 
" style="fill:none;stroke:#999999;"/>
    <path clip-path="url(#p9c5dbbbb1a)" d="M 336.020432 55.961522 
L 347.637162 61.110949 
L 353.734114 61.641314 
L 359.904312 61.957275 
L 365.711212 62.055073 
L 369.306099 62.416173 
" style="fill:none;stroke:#999999;"/>
    <path clip-path="url(#p9c5dbbbb1a)" d="M 336.020432 55.961522 
L 338.581093 48.811002 
L 340.075301 40.652414 
" style="fill:none;stroke:#999999;"/>
    <path clip-path="url(#p9c5dbbbb1a)" d="M 350.766208 144.934896 
L 345.747429 144.107377 
" style="fill:none;stroke:#999999;"/>
    <path clip-path="url(#p9c5dbbbb1a)" d="M 350.766208 144.934896 
L 350.41756 131.325965 
L 358.615192 98.5073 
" style="fill:none;stroke:#999999;"/>
    <path clip-path="url(#p9c5dbbbb1a)" d="M 350.766208 144.934896 
L 360.639696 145.815076 
L 362.825341 146.52599 
" style="fill:none;stroke:#999999;"/>
    <path clip-path="url(#p9c5dbbbb1a)" d="M 223.064212 55.137764 
L 223.41579 36.338029 
" style="fill:none;stroke:#999999;"/>
    <path clip-path="url(#p9c5dbbbb1a)" d="M 223.064212 55.137764 
L 249.860332 55.856201 
" style="fill:none;stroke:#999999;"/>
    <path clip-path="url(#p9c5dbbbb1a)" d="M 223.064212 55.137764 
L 222.818107 64.056165 
L 249.649385 64.037358 
" style="fill:none;stroke:#999999;"/>
    <path clip-path="url(#p9c5dbbbb1a)" d="M 341.953314 105.590113 
L 336.319274 106.688457 
" style="fill:none;stroke:#999999;"/>
    <path clip-path="url(#p9c5dbbbb1a)" d="M 341.953314 105.590113 
L 343.591083 98.97372 
L 337.491201 97.818954 
" style="fill:none;stroke:#999999;"/>
    <path clip-path="url(#p9c5dbbbb1a)" d="M 341.953314 105.590113 
L 341.086088 106.703503 
L 340.866352 110.066241 
L 341.481614 112.025957 
L 345.688833 124.235628 
L 345.636096 132.164768 
L 346.195691 140.827391 
L 345.747429 144.107377 
" style="fill:none;stroke:#999999;"/>
    <path clip-path="url(#p9c5dbbbb1a)" d="M 341.953314 105.590113 
L 342.395717 105.71048 
L 350.25642 105.913598 
L 358.615192 98.5073 
" style="fill:none;stroke:#999999;"/>
    <path clip-path="url(#p9c5dbbbb1a)" d="M 263.431251 64.808456 
L 264.09046 56.239869 
" style="fill:none;stroke:#999999;"/>
    <path clip-path="url(#p9c5dbbbb1a)" d="M 263.431251 64.808456 
L 249.649385 64.037358 
" style="fill:none;stroke:#999999;"/>
    <path clip-path="url(#p9c5dbbbb1a)" d="M 263.431251 64.808456 
L 263.454689 67.953029 
L 267.084734 74.998228 
" style="fill:none;stroke:#999999;"/>
    <path clip-path="url(#p9c5dbbbb1a)" d="M 364.738512 147.650664 
L 362.825341 146.52599 
" style="fill:none;stroke:#999999;"/>
    <path clip-path="url(#p9c5dbbbb1a)" d="M 364.738512 147.650664 
L 357.18837 179.446214 
L 353.608132 196.271187 
L 342.064647 215.232664 
" style="fill:none;stroke:#999999;"/>
    <path clip-path="url(#p9c5dbbbb1a)" d="M 364.738512 147.650664 
L 370.618658 156.170352 
L 372.282795 157.494383 
" style="fill:none;stroke:#999999;"/>
    <path clip-path="url(#p9c5dbbbb1a)" d="M 386.498274 88.761379 
L 387.262956 83.961767 
" style="fill:none;stroke:#999999;"/>
    <path clip-path="url(#p9c5dbbbb1a)" d="M 386.498274 88.761379 
L 379.384675 93.801724 
L 373.820949 100.263898 
L 372.121655 106.180661 
L 367.070648 117.510153 
L 364.580302 133.131461 
L 362.825341 146.52599 
" style="fill:none;stroke:#999999;"/>
    <path clip-path="url(#p9c5dbbbb1a)" d="M 386.498274 88.761379 
L 387.010992 92.244483 
L 383.955191 101.715818 
L 377.811362 120.831515 
L 375.824945 139.792992 
" style="fill:none;stroke:#999999;"/>
    <path clip-path="url(#p9c5dbbbb1a)" d="M 362.825341 146.52599 
L 364.738512 147.650664 
" style="fill:none;stroke:#999999;"/>
    <path clip-path="url(#p9c5dbbbb1a)" d="M 362.825341 146.52599 
L 360.639696 145.815076 
L 350.766208 144.934896 
" style="fill:none;stroke:#999999;"/>
    <path clip-path="url(#p9c5dbbbb1a)" d="M 362.825341 146.52599 
L 364.580302 133.131461 
L 367.070648 117.510153 
L 372.121655 106.180661 
L 373.820949 100.263898 
L 379.384675 93.801724 
L 386.498274 88.761379 
" style="fill:none;stroke:#999999;"/>
    <path clip-path="url(#p9c5dbbbb1a)" d="M 362.825341 146.52599 
L 365.520774 144.460953 
L 375.824945 139.792992 
" style="fill:none;stroke:#999999;"/>
    <path clip-path="url(#p9c5dbbbb1a)" d="M 345.747429 144.107377 
L 350.766208 144.934896 
" style="fill:none;stroke:#999999;"/>
    <path clip-path="url(#p9c5dbbbb1a)" d="M 345.747429 144.107377 
L 342.615453 151.724316 
L 336.943325 158.517498 
L 331.977283 161.248312 
L 317.231506 157.04677 
" style="fill:none;stroke:#999999;"/>
    <path clip-path="url(#p9c5dbbbb1a)" d="M 345.747429 144.107377 
L 347.607864 148.568458 
L 343.585223 167.62021 
L 340.552861 175.850266 
L 337.104465 182.120606 
L 330.362953 195.037431 
L 327.893116 199.972455 
L 325.279718 202.44749 
" style="fill:none;stroke:#999999;"/>
    <path clip-path="url(#p9c5dbbbb1a)" d="M 345.747429 144.107377 
L 346.195691 140.827391 
L 345.636096 132.164768 
L 345.688833 124.235628 
L 341.481614 112.025957 
L 340.866352 110.066241 
L 341.086088 106.703503 
L 341.953314 105.590113 
" style="fill:none;stroke:#999999;"/>
    <path clip-path="url(#p9c5dbbbb1a)" d="M 398.873827 89.084864 
L 404.355517 53.855109 
" style="fill:none;stroke:#999999;"/>
    <path clip-path="url(#p9c5dbbbb1a)" d="M 398.873827 89.084864 
L 390.717212 133.770908 
" style="fill:none;stroke:#999999;"/>
    <path clip-path="url(#p9c5dbbbb1a)" d="M 398.873827 89.084864 
L 387.262956 83.961767 
" style="fill:none;stroke:#999999;"/>
    <path clip-path="url(#p9c5dbbbb1a)" d="M 322.314741 219.422921 
L 316.167982 238.832011 
" style="fill:none;stroke:#999999;"/>
    <path clip-path="url(#p9c5dbbbb1a)" d="M 322.314741 219.422921 
L 326.261207 223.616939 
L 329.466428 226.558394 
L 334.397313 230.496634 
" style="fill:none;stroke:#999999;"/>
    <path clip-path="url(#p9c5dbbbb1a)" d="M 322.314741 219.422921 
L 321.558848 213.182673 
L 319.27652 207.506642 
L 313.331918 202.650609 
L 311.283975 200.897772 
" style="fill:none;stroke:#999999;"/>
    <path clip-path="url(#p9c5dbbbb1a)" d="M 335.434468 88.723765 
L 336.454045 83.329843 
" style="fill:none;stroke:#999999;"/>
    <path clip-path="url(#p9c5dbbbb1a)" d="M 335.434468 88.723765 
L 320.993393 89.780732 
" style="fill:none;stroke:#999999;"/>
    <path clip-path="url(#p9c5dbbbb1a)" d="M 335.434468 88.723765 
L 334.086752 91.932283 
L 334.523295 96.419694 
L 336.667922 97.348773 
L 337.491201 97.818954 
" style="fill:none;stroke:#999999;"/>
    <path clip-path="url(#p9c5dbbbb1a)" d="M 335.434468 88.723765 
L 337.482411 87.505054 
L 355.237111 87.10634 
L 363.32048 84.732864 
L 371.614796 80.136371 
L 375.625718 78.89133 
" style="fill:none;stroke:#999999;"/>
    <path clip-path="url(#p9c5dbbbb1a)" d="M 182.125859 65.252307 
L 213.351864 81.227192 
L 225.012541 84.157362 
L 252.353607 87.787163 
" style="fill:none;stroke:#999999;"/>
    <path clip-path="url(#p9c5dbbbb1a)" d="M 182.125859 65.252307 
L 196.443882 78.601699 
L 215.616614 97.378865 
L 235.225889 106.632035 
L 243.549503 111.217245 
" style="fill:none;stroke:#999999;"/>
    <path clip-path="url(#p9c5dbbbb1a)" d="M 317.231506 157.04677 
L 331.977283 161.248312 
L 336.943325 158.517498 
L 342.615453 151.724316 
L 345.747429 144.107377 
" style="fill:none;stroke:#999999;"/>
    <path clip-path="url(#p9c5dbbbb1a)" d="M 317.231506 157.04677 
L 315.839843 153.349263 
L 313.832917 135.542552 
L 313.78311 133.018618 
" style="fill:none;stroke:#999999;"/>
    <path clip-path="url(#p9c5dbbbb1a)" d="M 317.231506 157.04677 
L 320.826394 152.912935 
L 324.295299 141.064363 
L 326.475084 137.513552 
L 327.649941 131.96165 
" style="fill:none;stroke:#999999;"/>
    <path clip-path="url(#p9c5dbbbb1a)" d="M 317.231506 157.04677 
L 315.473615 168.869012 
L 320.334184 184.065277 
" style="fill:none;stroke:#999999;"/>
    <path clip-path="url(#p9c5dbbbb1a)" d="M 264.56509 37.793711 
L 223.41579 36.338029 
" style="fill:none;stroke:#999999;"/>
    <path clip-path="url(#p9c5dbbbb1a)" d="M 264.56509 37.793711 
L 264.09046 56.239869 
" style="fill:none;stroke:#999999;"/>
    <path clip-path="url(#p9c5dbbbb1a)" d="M 264.56509 37.793711 
L 264.611967 29.379344 
" style="fill:none;stroke:#999999;"/>
    <path clip-path="url(#p9c5dbbbb1a)" d="M 264.56509 37.793711 
L 327.588415 38.745358 
L 340.075301 40.652414 
" style="fill:none;stroke:#999999;"/>
    <path clip-path="url(#p9c5dbbbb1a)" d="M 303.476009 213.713037 
L 275.080209 199.434567 
" style="fill:none;stroke:#999999;"/>
    <path clip-path="url(#p9c5dbbbb1a)" d="M 303.476009 213.713037 
L 300.672173 222.973731 
" style="fill:none;stroke:#999999;"/>
    <path clip-path="url(#p9c5dbbbb1a)" d="M 303.476009 213.713037 
L 302.529678 210.628647 
L 308.043596 199.340531 
L 261.254395 168.496629 
L 263.935179 165.517559 
L 279.214182 147.932773 
" style="fill:none;stroke:#999999;"/>
    <path clip-path="url(#p9c5dbbbb1a)" d="M 303.476009 213.713037 
L 306.115775 208.706545 
L 308.263332 205.704907 
L 311.283975 200.897772 
" style="fill:none;stroke:#999999;"/>
    <path clip-path="url(#p9c5dbbbb1a)" d="M 300.683892 368.402732 
L 283.061034 365.273204 
" style="fill:none;stroke:#999999;"/>
    <path clip-path="url(#p9c5dbbbb1a)" d="M 300.683892 368.402732 
L 308.477209 331.247113 
" style="fill:none;stroke:#999999;"/>
    <path clip-path="url(#p9c5dbbbb1a)" d="M 300.683892 368.402732 
L 320.902569 373.281334 
L 330.09048 337.073602 
" style="fill:none;stroke:#999999;"/>
    <path clip-path="url(#p9c5dbbbb1a)" d="M 295.817464 326.793555 
L 283.061034 365.273204 
" style="fill:none;stroke:#999999;"/>
    <path clip-path="url(#p9c5dbbbb1a)" d="M 295.817464 326.793555 
L 303.473079 301.682104 
" style="fill:none;stroke:#999999;"/>
    <path clip-path="url(#p9c5dbbbb1a)" d="M 295.817464 326.793555 
L 279.759129 322.524307 
L 278.185816 322.185777 
L 275.414208 321.583944 
" style="fill:none;stroke:#999999;"/>
    <path clip-path="url(#p9c5dbbbb1a)" d="M 295.817464 326.793555 
L 297.926933 327.989696 
L 308.477209 331.247113 
" style="fill:none;stroke:#999999;"/>
    <path clip-path="url(#p9c5dbbbb1a)" d="M 316.167982 238.832011 
L 298.026547 233.298916 
" style="fill:none;stroke:#999999;"/>
    <path clip-path="url(#p9c5dbbbb1a)" d="M 316.167982 238.832011 
L 331.959704 242.856764 
" style="fill:none;stroke:#999999;"/>
    <path clip-path="url(#p9c5dbbbb1a)" d="M 316.167982 238.832011 
L 313.715724 247.137296 
" style="fill:none;stroke:#999999;"/>
    <path clip-path="url(#p9c5dbbbb1a)" d="M 316.167982 238.832011 
L 322.314741 219.422921 
" style="fill:none;stroke:#999999;"/>
    <path clip-path="url(#p9c5dbbbb1a)" d="M 264.778967 364.502106 
L 263.27304 370.324833 
" style="fill:none;stroke:#999999;"/>
    <path clip-path="url(#p9c5dbbbb1a)" d="M 264.778967 364.502106 
L 265.991912 359.615981 
" style="fill:none;stroke:#999999;"/>
    <path clip-path="url(#p9c5dbbbb1a)" d="M 264.778967 364.502106 
L 267.694136 364.626234 
L 283.061034 365.273204 
" style="fill:none;stroke:#999999;"/>
    <path clip-path="url(#p9c5dbbbb1a)" d="M 275.080209 199.434567 
L 269.777237 208.428198 
" style="fill:none;stroke:#999999;"/>
    <path clip-path="url(#p9c5dbbbb1a)" d="M 275.080209 199.434567 
L 267.869925 195.808528 
" style="fill:none;stroke:#999999;"/>
    <path clip-path="url(#p9c5dbbbb1a)" d="M 275.080209 199.434567 
L 303.476009 213.713037 
" style="fill:none;stroke:#999999;"/>
    <path clip-path="url(#p9c5dbbbb1a)" d="M 325.279718 202.44749 
L 320.334184 184.065277 
" style="fill:none;stroke:#999999;"/>
    <path clip-path="url(#p9c5dbbbb1a)" d="M 325.279718 202.44749 
L 327.893116 199.972455 
L 330.362953 195.037431 
L 337.104465 182.120606 
L 340.552861 175.850266 
L 343.585223 167.62021 
L 347.607864 148.568458 
L 345.747429 144.107377 
" style="fill:none;stroke:#999999;"/>
    <path clip-path="url(#p9c5dbbbb1a)" d="M 325.279718 202.44749 
L 324.887122 207.258387 
L 342.064647 215.232664 
" style="fill:none;stroke:#999999;"/>
    <path clip-path="url(#p9c5dbbbb1a)" d="M 334.748891 58.282337 
L 336.020432 55.961522 
" style="fill:none;stroke:#999999;"/>
    <path clip-path="url(#p9c5dbbbb1a)" d="M 334.748891 58.282337 
L 264.09046 56.239869 
" style="fill:none;stroke:#999999;"/>
    <path clip-path="url(#p9c5dbbbb1a)" d="M 334.748891 58.282337 
L 334.537944 59.899761 
L 330.702812 68.009451 
L 328.279852 73.907407 
L 326.513171 74.911715 
" style="fill:none;stroke:#999999;"/>
    <path clip-path="url(#p9c5dbbbb1a)" d="M 331.959704 242.856764 
L 316.167982 238.832011 
" style="fill:none;stroke:#999999;"/>
    <path clip-path="url(#p9c5dbbbb1a)" d="M 331.959704 242.856764 
L 315.441387 304.540808 
" style="fill:none;stroke:#999999;"/>
    <path clip-path="url(#p9c5dbbbb1a)" d="M 331.959704 242.856764 
L 334.397313 230.496634 
" style="fill:none;stroke:#999999;"/>
    <path clip-path="url(#p9c5dbbbb1a)" d="M 376.777136 78.225553 
L 387.262956 83.961767 
" style="fill:none;stroke:#999999;"/>
    <path clip-path="url(#p9c5dbbbb1a)" d="M 376.777136 78.225553 
L 375.625718 78.89133 
" style="fill:none;stroke:#999999;"/>
    <path clip-path="url(#p9c5dbbbb1a)" d="M 376.777136 78.225553 
L 382.504931 71.879985 
L 385.554872 68.735411 
L 388.300112 64.620383 
L 391.177194 54.29896 
L 397.238988 48.889993 
L 400.426631 46.832479 
" style="fill:none;stroke:#999999;"/>
    <path clip-path="url(#p9c5dbbbb1a)" d="M 448.481513 166.442876 
L 456.685004 170.708362 
L 464.255655 175.128068 
L 470.211976 179.525205 
L 477.557031 184.934172 
L 490.325179 196.756414 
L 507.321056 210.670023 
L 509.137544 211.967724 
L 542.054054 236.560094 
L 571.900114 268.186379 
L 588.014115 282.683013 
L 605.938745 296.912584 
L 610.822752 300.94486 
L 619.392471 308.2007 
L 629.339204 314.00462 
L 640.05355 317.912768 
L 648.353726 317.976712 
L 656.012271 317.683319 
L 664.086851 314.914891 
L 681.451885 308.430148 
L 690.935707 304.345212 
L 699.754461 298.947529 
L 707.972601 291.932422 
L 713.600782 284.962452 
L 734.308739 256.548447 
L 740.344165 250.342052 
L 760.319667 237.161926 
L 783.591215 223.786205 
L 801.026564 218.505127 
L 819.115263 215.616332 
L 834.948002 209.564156 
L 850.496549 202.635563 
L 872.41452 196.613479 
L 966.414815 177.926588 
L 974.641745 176.737969 
L 982.027817 177.618149 
L 988.511506 181.609049 
" style="fill:none;stroke:#999999;"/>
    <path clip-path="url(#p9c5dbbbb1a)" d="M 448.481513 166.442876 
L 438.001552 163.215551 
L 410.988626 155.263842 
L 408.398667 154.793661 
L 406.116338 155.053201 
" style="fill:none;stroke:#999999;"/>
    <path clip-path="url(#p9c5dbbbb1a)" d="M 448.481513 166.442876 
L 442.87091 161.259596 
L 412.834412 138.638226 
" style="fill:none;stroke:#999999;"/>
    <path clip-path="url(#p9c5dbbbb1a)" d="M 267.869925 195.808528 
L 275.080209 199.434567 
" style="fill:none;stroke:#999999;"/>
    <path clip-path="url(#p9c5dbbbb1a)" d="M 375.824945 139.792992 
L 390.717212 133.770908 
" style="fill:none;stroke:#999999;"/>
    <path clip-path="url(#p9c5dbbbb1a)" d="M 375.824945 139.792992 
L 377.811362 120.831515 
L 383.955191 101.715818 
L 387.010992 92.244483 
L 386.498274 88.761379 
" style="fill:none;stroke:#999999;"/>
    <path clip-path="url(#p9c5dbbbb1a)" d="M 375.824945 139.792992 
L 365.520774 144.460953 
L 362.825341 146.52599 
" style="fill:none;stroke:#999999;"/>
    <path clip-path="url(#p9c5dbbbb1a)" d="M 387.262956 83.961767 
L 398.873827 89.084864 
" style="fill:none;stroke:#999999;"/>
    <path clip-path="url(#p9c5dbbbb1a)" d="M 387.262956 83.961767 
L 376.777136 78.225553 
" style="fill:none;stroke:#999999;"/>
    <path clip-path="url(#p9c5dbbbb1a)" d="M 387.262956 83.961767 
L 386.498274 88.761379 
" style="fill:none;stroke:#999999;"/>
    <path clip-path="url(#p9c5dbbbb1a)" d="M 387.262956 83.961767 
L 385.639837 80.087472 
L 390.189845 72.109433 
L 394.426362 63.943322 
L 399.600422 56.093173 
L 403.01952 51.884108 
" style="fill:none;stroke:#999999;"/>
    <path clip-path="url(#p9c5dbbbb1a)" d="M 336.319274 106.688457 
L 341.953314 105.590113 
" style="fill:none;stroke:#999999;"/>
    <path clip-path="url(#p9c5dbbbb1a)" d="M 336.319274 106.688457 
L 337.491201 97.818954 
" style="fill:none;stroke:#999999;"/>
    <path clip-path="url(#p9c5dbbbb1a)" d="M 336.319274 106.688457 
L 335.551661 109.133401 
L 335.097539 110.291928 
L 331.332723 119.120054 
" style="fill:none;stroke:#999999;"/>
    <path clip-path="url(#p9c5dbbbb1a)" d="M 243.549503 111.217245 
L 246.033989 113.128062 
" style="fill:none;stroke:#999999;"/>
    <path clip-path="url(#p9c5dbbbb1a)" d="M 243.549503 111.217245 
L 260.993642 113.440263 
" style="fill:none;stroke:#999999;"/>
    <path clip-path="url(#p9c5dbbbb1a)" d="M 243.549503 111.217245 
L 235.225889 106.632035 
L 215.616614 97.378865 
L 196.443882 78.601699 
L 182.125859 65.252307 
" style="fill:none;stroke:#999999;"/>
    <path clip-path="url(#p9c5dbbbb1a)" d="M 337.491201 97.818954 
L 336.319274 106.688457 
" style="fill:none;stroke:#999999;"/>
    <path clip-path="url(#p9c5dbbbb1a)" d="M 337.491201 97.818954 
L 336.667922 97.348773 
L 334.523295 96.419694 
L 334.086752 91.932283 
L 335.434468 88.723765 
" style="fill:none;stroke:#999999;"/>
    <path clip-path="url(#p9c5dbbbb1a)" d="M 337.491201 97.818954 
L 343.591083 98.97372 
L 341.953314 105.590113 
" style="fill:none;stroke:#999999;"/>
    <path clip-path="url(#p9c5dbbbb1a)" d="M 223.735141 22.097174 
L 223.41579 36.338029 
" style="fill:none;stroke:#999999;"/>
    <path clip-path="url(#p9c5dbbbb1a)" d="M 340.075301 40.652414 
L 341.250158 37.560501 
" style="fill:none;stroke:#999999;"/>
    <path clip-path="url(#p9c5dbbbb1a)" d="M 340.075301 40.652414 
L 327.588415 38.745358 
L 264.56509 37.793711 
" style="fill:none;stroke:#999999;"/>
    <path clip-path="url(#p9c5dbbbb1a)" d="M 340.075301 40.652414 
L 338.581093 48.811002 
L 336.020432 55.961522 
" style="fill:none;stroke:#999999;"/>
    <path clip-path="url(#p9c5dbbbb1a)" d="M 342.064647 215.232664 
L 324.887122 207.258387 
L 325.279718 202.44749 
" style="fill:none;stroke:#999999;"/>
    <path clip-path="url(#p9c5dbbbb1a)" d="M 342.064647 215.232664 
L 336.957974 225.399867 
L 334.397313 230.496634 
" style="fill:none;stroke:#999999;"/>
    <path clip-path="url(#p9c5dbbbb1a)" d="M 342.064647 215.232664 
L 353.608132 196.271187 
L 357.18837 179.446214 
L 364.738512 147.650664 
" style="fill:none;stroke:#999999;"/>
    <path clip-path="url(#p9c5dbbbb1a)" d="M 264.09046 56.239869 
L 263.431251 64.808456 
" style="fill:none;stroke:#999999;"/>
    <path clip-path="url(#p9c5dbbbb1a)" d="M 264.09046 56.239869 
L 264.56509 37.793711 
" style="fill:none;stroke:#999999;"/>
    <path clip-path="url(#p9c5dbbbb1a)" d="M 264.09046 56.239869 
L 334.748891 58.282337 
" style="fill:none;stroke:#999999;"/>
    <path clip-path="url(#p9c5dbbbb1a)" d="M 264.09046 56.239869 
L 249.860332 55.856201 
" style="fill:none;stroke:#999999;"/>
    <path clip-path="url(#p9c5dbbbb1a)" d="M 270.785095 88.580829 
L 272.458021 86.760287 
L 274.391701 86.688819 
" style="fill:none;stroke:#999999;"/>
    <path clip-path="url(#p9c5dbbbb1a)" d="M 270.785095 88.580829 
L 268.936379 89.107433 
L 266.771244 89.701742 
L 252.353607 87.787163 
" style="fill:none;stroke:#999999;"/>
    <path clip-path="url(#p9c5dbbbb1a)" d="M 270.785095 88.580829 
L 263.393163 99.142985 
L 262.109902 101.106463 
L 262.127481 102.302605 
L 261.553237 104.676081 
L 260.993642 113.440263 
" style="fill:none;stroke:#999999;"/>
    <path clip-path="url(#p9c5dbbbb1a)" d="M 316.68656 90.311097 
L 317.849698 90.168162 
L 320.993393 89.780732 
" style="fill:none;stroke:#999999;"/>
    <path clip-path="url(#p9c5dbbbb1a)" d="M 316.68656 90.311097 
L 307.097264 90.303574 
L 303.707465 89.848439 
" style="fill:none;stroke:#999999;"/>
    <path clip-path="url(#p9c5dbbbb1a)" d="M 316.68656 90.311097 
L 316.592806 95.964559 
L 316.560578 104.811493 
L 315.508773 116.434378 
" style="fill:none;stroke:#999999;"/>
    <path clip-path="url(#p9c5dbbbb1a)" d="M 303.473079 301.682104 
L 295.817464 326.793555 
" style="fill:none;stroke:#999999;"/>
    <path clip-path="url(#p9c5dbbbb1a)" d="M 303.473079 301.682104 
L 315.441387 304.540808 
" style="fill:none;stroke:#999999;"/>
    <path clip-path="url(#p9c5dbbbb1a)" d="M 303.473079 301.682104 
L 307.384387 281.494394 
L 310.047592 259.572655 
L 313.715724 247.137296 
" style="fill:none;stroke:#999999;"/>
    <path clip-path="url(#p9c5dbbbb1a)" d="M 303.473079 301.682104 
L 284.74568 297.209739 
L 282.126422 296.585338 
" style="fill:none;stroke:#999999;"/>
    <path clip-path="url(#p9c5dbbbb1a)" d="M 315.441387 304.540808 
L 324.904701 306.80144 
" style="fill:none;stroke:#999999;"/>
    <path clip-path="url(#p9c5dbbbb1a)" d="M 315.441387 304.540808 
L 303.473079 301.682104 
" style="fill:none;stroke:#999999;"/>
    <path clip-path="url(#p9c5dbbbb1a)" d="M 315.441387 304.540808 
L 308.477209 331.247113 
" style="fill:none;stroke:#999999;"/>
    <path clip-path="url(#p9c5dbbbb1a)" d="M 315.441387 304.540808 
L 331.959704 242.856764 
" style="fill:none;stroke:#999999;"/>
    <path clip-path="url(#p9c5dbbbb1a)" d="M 452.290277 10.639792 
L 443.603365 15.627477 
L 426.622137 27.303023 
L 400.426631 46.832479 
" style="fill:none;stroke:#999999;"/>
    <path clip-path="url(#p9c5dbbbb1a)" d="M 452.290277 10.639792 
L 439.029918 9.199156 
L 435.429171 10.034199 
L 411.477906 25.967707 
L 377.969572 42.882955 
" style="fill:none;stroke:#999999;"/>
    <path clip-path="url(#p9c5dbbbb1a)" d="M 269.777237 208.428198 
L 262.455621 220.833465 
" style="fill:none;stroke:#999999;"/>
    <path clip-path="url(#p9c5dbbbb1a)" d="M 269.777237 208.428198 
L 275.080209 199.434567 
" style="fill:none;stroke:#999999;"/>
    <path clip-path="url(#p9c5dbbbb1a)" d="M 269.777237 208.428198 
L 284.499575 215.883395 
L 300.672173 222.973731 
" style="fill:none;stroke:#999999;"/>
    <path clip-path="url(#p9c5dbbbb1a)" d="M 324.904701 306.80144 
L 315.441387 304.540808 
" style="fill:none;stroke:#999999;"/>
    <path clip-path="url(#p9c5dbbbb1a)" d="M 326.513171 74.911715 
L 311.222449 72.51567 
L 295.969814 71.014851 
L 278.730762 72.508147 
L 267.084734 74.998228 
" style="fill:none;stroke:#999999;"/>
    <path clip-path="url(#p9c5dbbbb1a)" d="M 326.513171 74.911715 
L 353.701886 77.529685 
L 355.119918 74.426487 
L 358.383736 71.29696 
" style="fill:none;stroke:#999999;"/>
    <path clip-path="url(#p9c5dbbbb1a)" d="M 326.513171 74.911715 
L 324.796298 77.157301 
L 322.768863 82.581314 
L 320.993393 89.780732 
" style="fill:none;stroke:#999999;"/>
    <path clip-path="url(#p9c5dbbbb1a)" d="M 326.513171 74.911715 
L 328.279852 73.907407 
L 330.702812 68.009451 
L 334.537944 59.899761 
L 334.748891 58.282337 
" style="fill:none;stroke:#999999;"/>
    <path clip-path="url(#p9c5dbbbb1a)" d="M 291.727437 256.898262 
L 295.662183 241.728328 
" style="fill:none;stroke:#999999;"/>
    <path clip-path="url(#p9c5dbbbb1a)" d="M 291.727437 256.898262 
L 287.830778 259.2755 
L 280.145865 272.44058 
L 274.919069 280.854947 
L 270.345622 287.302075 
L 267.459751 290.202154 
L 231.431774 273.384705 
L 239.55616 259.48238 
" style="fill:none;stroke:#999999;"/>
    <path clip-path="url(#p9c5dbbbb1a)" d="M 291.727437 256.898262 
L 289.732231 265.515748 
L 282.126422 296.585338 
" style="fill:none;stroke:#999999;"/>
    <path clip-path="url(#p9c5dbbbb1a)" d="M 246.033989 113.128062 
L 243.549503 111.217245 
" style="fill:none;stroke:#999999;"/>
    <path clip-path="url(#p9c5dbbbb1a)" d="M 246.033989 113.128062 
L 236.148781 126.097547 
" style="fill:none;stroke:#999999;"/>
    <path clip-path="url(#p9c5dbbbb1a)" d="M 246.033989 113.128062 
L 250.994171 119.379595 
L 258.008157 126.586536 
L 279.214182 147.932773 
" style="fill:none;stroke:#999999;"/>
    <path clip-path="url(#p9c5dbbbb1a)" d="M 304.170376 115.475208 
L 315.508773 116.434378 
" style="fill:none;stroke:#999999;"/>
    <path clip-path="url(#p9c5dbbbb1a)" d="M 304.170376 115.475208 
L 302.567765 113.989435 
" style="fill:none;stroke:#999999;"/>
    <path clip-path="url(#p9c5dbbbb1a)" d="M 304.170376 115.475208 
L 305.163584 111.604674 
L 300.601857 99.710964 
L 299.722911 89.310551 
" style="fill:none;stroke:#999999;"/>
    <path clip-path="url(#p9c5dbbbb1a)" d="M 282.920403 86.474417 
L 274.391701 86.688819 
" style="fill:none;stroke:#999999;"/>
    <path clip-path="url(#p9c5dbbbb1a)" d="M 282.920403 86.474417 
L 288.176497 87.535146 
L 289.949037 87.80597 
" style="fill:none;stroke:#999999;"/>
    <path clip-path="url(#p9c5dbbbb1a)" d="M 282.920403 86.474417 
L 274.793086 83.578099 
L 271.576146 81.396457 
L 269.08287 79.478117 
L 267.084734 74.998228 
" style="fill:none;stroke:#999999;"/>
    <path clip-path="url(#p9c5dbbbb1a)" d="M 297.276513 235.506888 
L 262.455621 220.833465 
" style="fill:none;stroke:#999999;"/>
    <path clip-path="url(#p9c5dbbbb1a)" d="M 297.276513 235.506888 
L 295.662183 241.728328 
" style="fill:none;stroke:#999999;"/>
    <path clip-path="url(#p9c5dbbbb1a)" d="M 297.276513 235.506888 
L 298.026547 233.298916 
" style="fill:none;stroke:#999999;"/>
    <path clip-path="url(#p9c5dbbbb1a)" d="M 320.334184 184.065277 
L 325.279718 202.44749 
" style="fill:none;stroke:#999999;"/>
    <path clip-path="url(#p9c5dbbbb1a)" d="M 320.334184 184.065277 
L 314.632757 180.480613 
L 302.608783 172.664317 
L 294.188484 162.749131 
L 292.052647 160.533636 
" style="fill:none;stroke:#999999;"/>
    <path clip-path="url(#p9c5dbbbb1a)" d="M 320.334184 184.065277 
L 316.153333 193.893949 
L 313.484269 197.459805 
L 311.283975 200.897772 
" style="fill:none;stroke:#999999;"/>
    <path clip-path="url(#p9c5dbbbb1a)" d="M 320.334184 184.065277 
L 315.473615 168.869012 
L 317.231506 157.04677 
" style="fill:none;stroke:#999999;"/>
    <path clip-path="url(#p9c5dbbbb1a)" d="M 300.672173 222.973731 
L 303.476009 213.713037 
" style="fill:none;stroke:#999999;"/>
    <path clip-path="url(#p9c5dbbbb1a)" d="M 300.672173 222.973731 
L 284.499575 215.883395 
L 269.777237 208.428198 
" style="fill:none;stroke:#999999;"/>
    <path clip-path="url(#p9c5dbbbb1a)" d="M 300.672173 222.973731 
L 298.882054 229.917371 
L 298.026547 233.298916 
" style="fill:none;stroke:#999999;"/>
    <path clip-path="url(#p9c5dbbbb1a)" d="M 390.717212 133.770908 
L 398.873827 89.084864 
" style="fill:none;stroke:#999999;"/>
    <path clip-path="url(#p9c5dbbbb1a)" d="M 390.717212 133.770908 
L 400.496946 129.388817 
" style="fill:none;stroke:#999999;"/>
    <path clip-path="url(#p9c5dbbbb1a)" d="M 390.717212 133.770908 
L 375.824945 139.792992 
" style="fill:none;stroke:#999999;"/>
    <path clip-path="url(#p9c5dbbbb1a)" d="M 260.993642 113.440263 
L 243.549503 111.217245 
" style="fill:none;stroke:#999999;"/>
    <path clip-path="url(#p9c5dbbbb1a)" d="M 260.993642 113.440263 
L 264.805335 113.410171 
L 270.793884 112.180176 
L 276.146663 112.338157 
" style="fill:none;stroke:#999999;"/>
    <path clip-path="url(#p9c5dbbbb1a)" d="M 260.993642 113.440263 
L 261.553237 104.676081 
L 262.127481 102.302605 
L 262.109902 101.106463 
L 263.393163 99.142985 
L 270.785095 88.580829 
" style="fill:none;stroke:#999999;"/>
    <path clip-path="url(#p9c5dbbbb1a)" d="M 330.09048 337.073602 
L 308.477209 331.247113 
" style="fill:none;stroke:#999999;"/>
    <path clip-path="url(#p9c5dbbbb1a)" d="M 330.09048 337.073602 
L 346.591217 341.275143 
" style="fill:none;stroke:#999999;"/>
    <path clip-path="url(#p9c5dbbbb1a)" d="M 330.09048 337.073602 
L 320.902569 373.281334 
L 300.683892 368.402732 
" style="fill:none;stroke:#999999;"/>
    <path clip-path="url(#p9c5dbbbb1a)" d="M 330.09048 337.073602 
L 346.667392 270.984898 
L 350.376542 260.227147 
L 351.360961 236.466058 
L 343.810819 234.002307 
L 334.397313 230.496634 
" style="fill:none;stroke:#999999;"/>
    <path clip-path="url(#p9c5dbbbb1a)" d="M 377.969572 42.882955 
L 376.867961 46.49771 
L 373.410775 54.03942 
L 369.306099 62.416173 
" style="fill:none;stroke:#999999;"/>
    <path clip-path="url(#p9c5dbbbb1a)" d="M 377.969572 42.882955 
L 411.477906 25.967707 
L 435.429171 10.034199 
L 439.029918 9.199156 
L 452.290277 10.639792 
" style="fill:none;stroke:#999999;"/>
    <path clip-path="url(#p9c5dbbbb1a)" d="M 377.969572 42.882955 
L 374.263352 43.981299 
L 371.39799 43.917354 
L 369.93601 43.608915 
" style="fill:none;stroke:#999999;"/>
    <path clip-path="url(#p9c5dbbbb1a)" d="M 400.426631 46.832479 
L 403.01952 51.884108 
" style="fill:none;stroke:#999999;"/>
    <path clip-path="url(#p9c5dbbbb1a)" d="M 400.426631 46.832479 
L 426.622137 27.303023 
L 443.603365 15.627477 
L 452.290277 10.639792 
" style="fill:none;stroke:#999999;"/>
    <path clip-path="url(#p9c5dbbbb1a)" d="M 400.426631 46.832479 
L 397.238988 48.889993 
L 391.177194 54.29896 
L 388.300112 64.620383 
L 385.554872 68.735411 
L 382.504931 71.879985 
L 376.777136 78.225553 
" style="fill:none;stroke:#999999;"/>
    <path clip-path="url(#p9c5dbbbb1a)" d="M 403.215818 131.416239 
L 378.300642 161.741062 
" style="fill:none;stroke:#999999;"/>
    <path clip-path="url(#p9c5dbbbb1a)" d="M 403.215818 131.416239 
L 409.216086 135.896128 
" style="fill:none;stroke:#999999;"/>
    <path clip-path="url(#p9c5dbbbb1a)" d="M 403.215818 131.416239 
L 400.496946 129.388817 
" style="fill:none;stroke:#999999;"/>
    <path clip-path="url(#p9c5dbbbb1a)" d="M 412.834412 138.638226 
L 406.116338 155.053201 
" style="fill:none;stroke:#999999;"/>
    <path clip-path="url(#p9c5dbbbb1a)" d="M 412.834412 138.638226 
L 409.216086 135.896128 
" style="fill:none;stroke:#999999;"/>
    <path clip-path="url(#p9c5dbbbb1a)" d="M 412.834412 138.638226 
L 442.87091 161.259596 
L 448.481513 166.442876 
" style="fill:none;stroke:#999999;"/>
    <path clip-path="url(#p9c5dbbbb1a)" d="M 311.283975 200.897772 
L 313.331918 202.650609 
L 319.27652 207.506642 
L 321.558848 213.182673 
L 322.314741 219.422921 
" style="fill:none;stroke:#999999;"/>
    <path clip-path="url(#p9c5dbbbb1a)" d="M 311.283975 200.897772 
L 313.484269 197.459805 
L 316.153333 193.893949 
L 320.334184 184.065277 
" style="fill:none;stroke:#999999;"/>
    <path clip-path="url(#p9c5dbbbb1a)" d="M 311.283975 200.897772 
L 308.263332 205.704907 
L 306.115775 208.706545 
L 303.476009 213.713037 
" style="fill:none;stroke:#999999;"/>
    <path clip-path="url(#p9c5dbbbb1a)" d="M 334.397313 230.496634 
L 331.959704 242.856764 
" style="fill:none;stroke:#999999;"/>
    <path clip-path="url(#p9c5dbbbb1a)" d="M 334.397313 230.496634 
L 343.810819 234.002307 
L 351.360961 236.466058 
L 350.376542 260.227147 
L 346.667392 270.984898 
L 330.09048 337.073602 
" style="fill:none;stroke:#999999;"/>
    <path clip-path="url(#p9c5dbbbb1a)" d="M 334.397313 230.496634 
L 329.466428 226.558394 
L 326.261207 223.616939 
L 322.314741 219.422921 
" style="fill:none;stroke:#999999;"/>
    <path clip-path="url(#p9c5dbbbb1a)" d="M 334.397313 230.496634 
L 336.957974 225.399867 
L 342.064647 215.232664 
" style="fill:none;stroke:#999999;"/>
    <path clip-path="url(#p9c5dbbbb1a)" d="M 378.300642 161.741062 
L 403.215818 131.416239 
" style="fill:none;stroke:#999999;"/>
    <path clip-path="url(#p9c5dbbbb1a)" d="M 378.300642 161.741062 
L 383.126053 163.125276 
L 390.386143 161.695924 
L 402.436486 155.790445 
L 406.116338 155.053201 
" style="fill:none;stroke:#999999;"/>
    <path clip-path="url(#p9c5dbbbb1a)" d="M 378.300642 161.741062 
L 375.391332 159.965657 
L 372.282795 157.494383 
" style="fill:none;stroke:#999999;"/>
    <path clip-path="url(#p9c5dbbbb1a)" d="M 400.496946 129.388817 
L 390.717212 133.770908 
" style="fill:none;stroke:#999999;"/>
    <path clip-path="url(#p9c5dbbbb1a)" d="M 400.496946 129.388817 
L 403.215818 131.416239 
" style="fill:none;stroke:#999999;"/>
    <path clip-path="url(#p9c5dbbbb1a)" d="M 400.496946 129.388817 
L 404.261763 127.974511 
L 405.946409 123.923428 
" style="fill:none;stroke:#999999;"/>
    <path clip-path="url(#p9c5dbbbb1a)" d="M 406.116338 155.053201 
L 412.834412 138.638226 
" style="fill:none;stroke:#999999;"/>
    <path clip-path="url(#p9c5dbbbb1a)" d="M 406.116338 155.053201 
L 408.398667 154.793661 
L 410.988626 155.263842 
L 438.001552 163.215551 
L 448.481513 166.442876 
" style="fill:none;stroke:#999999;"/>
    <path clip-path="url(#p9c5dbbbb1a)" d="M 406.116338 155.053201 
L 402.436486 155.790445 
L 390.386143 161.695924 
L 383.126053 163.125276 
L 378.300642 161.741062 
" style="fill:none;stroke:#999999;"/>
    <path clip-path="url(#p9c5dbbbb1a)" d="M 404.355517 53.855109 
L 398.873827 89.084864 
" style="fill:none;stroke:#999999;"/>
    <path clip-path="url(#p9c5dbbbb1a)" d="M 404.355517 53.855109 
L 403.01952 51.884108 
" style="fill:none;stroke:#999999;"/>
    <path clip-path="url(#p9c5dbbbb1a)" d="M 404.355517 53.855109 
L 409.022718 57.236654 
L 418.940153 64.951391 
L 419.997818 65.745057 
" style="fill:none;stroke:#999999;"/>
    <path clip-path="url(#p9c5dbbbb1a)" d="M 358.615192 98.5073 
L 350.41756 131.325965 
L 350.766208 144.934896 
" style="fill:none;stroke:#999999;"/>
    <path clip-path="url(#p9c5dbbbb1a)" d="M 358.615192 98.5073 
L 362.321412 94.057503 
L 375.625718 78.89133 
" style="fill:none;stroke:#999999;"/>
    <path clip-path="url(#p9c5dbbbb1a)" d="M 358.615192 98.5073 
L 350.25642 105.913598 
L 342.395717 105.71048 
L 341.953314 105.590113 
" style="fill:none;stroke:#999999;"/>
    <path clip-path="url(#p9c5dbbbb1a)" d="M 375.625718 78.89133 
L 376.777136 78.225553 
" style="fill:none;stroke:#999999;"/>
    <path clip-path="url(#p9c5dbbbb1a)" d="M 375.625718 78.89133 
L 371.614796 80.136371 
L 363.32048 84.732864 
L 355.237111 87.10634 
L 337.482411 87.505054 
L 335.434468 88.723765 
" style="fill:none;stroke:#999999;"/>
    <path clip-path="url(#p9c5dbbbb1a)" d="M 375.625718 78.89133 
L 362.321412 94.057503 
L 358.615192 98.5073 
" style="fill:none;stroke:#999999;"/>
    <path clip-path="url(#p9c5dbbbb1a)" d="M 262.455621 220.833465 
L 250.226559 240.942185 
" style="fill:none;stroke:#999999;"/>
    <path clip-path="url(#p9c5dbbbb1a)" d="M 262.455621 220.833465 
L 269.777237 208.428198 
" style="fill:none;stroke:#999999;"/>
    <path clip-path="url(#p9c5dbbbb1a)" d="M 262.455621 220.833465 
L 297.276513 235.506888 
" style="fill:none;stroke:#999999;"/>
    <path clip-path="url(#p9c5dbbbb1a)" d="M 299.722911 89.310551 
L 303.707465 89.848439 
" style="fill:none;stroke:#999999;"/>
    <path clip-path="url(#p9c5dbbbb1a)" d="M 299.722911 89.310551 
L 289.949037 87.80597 
" style="fill:none;stroke:#999999;"/>
    <path clip-path="url(#p9c5dbbbb1a)" d="M 299.722911 89.310551 
L 300.601857 99.710964 
L 305.163584 111.604674 
L 304.170376 115.475208 
" style="fill:none;stroke:#999999;"/>
    <path clip-path="url(#p9c5dbbbb1a)" d="M 223.41579 36.338029 
L 264.56509 37.793711 
" style="fill:none;stroke:#999999;"/>
    <path clip-path="url(#p9c5dbbbb1a)" d="M 223.41579 36.338029 
L 215.144913 35.958123 
" style="fill:none;stroke:#999999;"/>
    <path clip-path="url(#p9c5dbbbb1a)" d="M 223.41579 36.338029 
L 223.064212 55.137764 
" style="fill:none;stroke:#999999;"/>
    <path clip-path="url(#p9c5dbbbb1a)" d="M 223.41579 36.338029 
L 223.735141 22.097174 
" style="fill:none;stroke:#999999;"/>
    <path clip-path="url(#p9c5dbbbb1a)" d="M 331.332723 119.120054 
L 327.649941 131.96165 
" style="fill:none;stroke:#999999;"/>
    <path clip-path="url(#p9c5dbbbb1a)" d="M 331.332723 119.120054 
L 324.851964 117.231806 
L 315.508773 116.434378 
" style="fill:none;stroke:#999999;"/>
    <path clip-path="url(#p9c5dbbbb1a)" d="M 331.332723 119.120054 
L 335.097539 110.291928 
L 335.551661 109.133401 
L 336.319274 106.688457 
" style="fill:none;stroke:#999999;"/>
    <path clip-path="url(#p9c5dbbbb1a)" d="M 988.511506 181.609049 
L 1014.26461 174.597703 
L 1029.136368 171.55845 
L 1055.958856 171.938357 
L 1076.819163 167.368193 
L 1089.824627 159.141899 
L 1118.422585 144.291688 
L 1146.663104 130.35551 
L 1150.726763 128.922397 
" style="fill:none;stroke:#999999;"/>
    <path clip-path="url(#p9c5dbbbb1a)" d="M 988.511506 181.609049 
L 982.027817 177.618149 
L 974.641745 176.737969 
L 966.414815 177.926588 
L 872.41452 196.613479 
L 850.496549 202.635563 
L 834.948002 209.564156 
L 819.115263 215.616332 
L 801.026564 218.505127 
L 783.591215 223.786205 
L 760.319667 237.161926 
L 740.344165 250.342052 
L 734.308739 256.548447 
L 713.600782 284.962452 
L 707.972601 291.932422 
L 699.754461 298.947529 
L 690.935707 304.345212 
L 681.451885 308.430148 
L 664.086851 314.914891 
L 656.012271 317.683319 
L 648.353726 317.976712 
L 640.05355 317.912768 
L 629.339204 314.00462 
L 619.392471 308.2007 
L 610.822752 300.94486 
L 605.938745 296.912584 
L 588.014115 282.683013 
L 571.900114 268.186379 
L 542.054054 236.560094 
L 509.137544 211.967724 
L 507.321056 210.670023 
L 490.325179 196.756414 
L 477.557031 184.934172 
L 470.211976 179.525205 
L 464.255655 175.128068 
L 456.685004 170.708362 
L 448.481513 166.442876 
" style="fill:none;stroke:#999999;"/>
    <path clip-path="url(#p9c5dbbbb1a)" d="M 1165.982327 173.172113 
L 1161.329776 159.672263 
" style="fill:none;stroke:#999999;"/>
    <path clip-path="url(#p9c5dbbbb1a)" d="M 1236.092882 168.082869 
L 1221.514106 129.659642 
" style="fill:none;stroke:#999999;"/>
    <path clip-path="url(#p9c5dbbbb1a)" d="M 1254.858369 164.840498 
L 1260.079306 146.55232 
" style="fill:none;stroke:#999999;"/>
    <path clip-path="url(#p9c5dbbbb1a)" d="M 1150.720903 163.358486 
L 1161.329776 159.672263 
" style="fill:none;stroke:#999999;"/>
    <path clip-path="url(#p9c5dbbbb1a)" d="M 1161.329776 159.672263 
L 1165.982327 173.172113 
" style="fill:none;stroke:#999999;"/>
    <path clip-path="url(#p9c5dbbbb1a)" d="M 1161.329776 159.672263 
L 1150.726763 128.922397 
" style="fill:none;stroke:#999999;"/>
    <path clip-path="url(#p9c5dbbbb1a)" d="M 1161.329776 159.672263 
L 1173.614504 155.835583 
" style="fill:none;stroke:#999999;"/>
    <path clip-path="url(#p9c5dbbbb1a)" d="M 1161.329776 159.672263 
L 1150.720903 163.358486 
" style="fill:none;stroke:#999999;"/>
    <path clip-path="url(#p9c5dbbbb1a)" d="M 1173.614504 155.835583 
L 1161.329776 159.672263 
" style="fill:none;stroke:#999999;"/>
    <path clip-path="url(#p9c5dbbbb1a)" d="M 1260.079306 146.55232 
L 1244.486812 145.950488 
" style="fill:none;stroke:#999999;"/>
    <path clip-path="url(#p9c5dbbbb1a)" d="M 1260.079306 146.55232 
L 1254.858369 164.840498 
" style="fill:none;stroke:#999999;"/>
    <path clip-path="url(#p9c5dbbbb1a)" d="M 1260.079306 146.55232 
L 1263.07651 137.773093 
" style="fill:none;stroke:#999999;"/>
    <path clip-path="url(#p9c5dbbbb1a)" d="M 1244.486812 145.950488 
L 1260.079306 146.55232 
" style="fill:none;stroke:#999999;"/>
    <path clip-path="url(#p9c5dbbbb1a)" d="M 1263.07651 137.773093 
L 1232.550732 136.738693 
" style="fill:none;stroke:#999999;"/>
    <path clip-path="url(#p9c5dbbbb1a)" d="M 1263.07651 137.773093 
L 1260.079306 146.55232 
" style="fill:none;stroke:#999999;"/>
    <path clip-path="url(#p9c5dbbbb1a)" d="M 1263.07651 137.773093 
L 1266.185047 129.433954 
" style="fill:none;stroke:#999999;"/>
    <path clip-path="url(#p9c5dbbbb1a)" d="M 1232.550732 136.738693 
L 1263.07651 137.773093 
" style="fill:none;stroke:#999999;"/>
    <path clip-path="url(#p9c5dbbbb1a)" d="M 1221.514106 129.659642 
L 1236.092882 168.082869 
" style="fill:none;stroke:#999999;"/>
    <path clip-path="url(#p9c5dbbbb1a)" d="M 1221.514106 129.659642 
L 1218.634094 122.069032 
" style="fill:none;stroke:#999999;"/>
    <path clip-path="url(#p9c5dbbbb1a)" d="M 1221.514106 129.659642 
L 1227.09834 128.181391 
L 1266.185047 129.433954 
" style="fill:none;stroke:#999999;"/>
    <path clip-path="url(#p9c5dbbbb1a)" d="M 1266.185047 129.433954 
L 1263.07651 137.773093 
" style="fill:none;stroke:#999999;"/>
    <path clip-path="url(#p9c5dbbbb1a)" d="M 1266.185047 129.433954 
L 1268.777937 120.797662 
" style="fill:none;stroke:#999999;"/>
    <path clip-path="url(#p9c5dbbbb1a)" d="M 1266.185047 129.433954 
L 1227.09834 128.181391 
L 1221.514106 129.659642 
" style="fill:none;stroke:#999999;"/>
    <path clip-path="url(#p9c5dbbbb1a)" d="M 1150.726763 128.922397 
L 1161.329776 159.672263 
" style="fill:none;stroke:#999999;"/>
    <path clip-path="url(#p9c5dbbbb1a)" d="M 1150.726763 128.922397 
L 1156.776838 126.789654 
L 1171.118299 121.162523 
L 1179.919474 119.902436 
L 1188.407158 119.902436 
L 1199.408626 119.902436 
L 1208.444186 122.053987 
L 1216.553923 122.565544 
L 1218.634094 122.069032 
" style="fill:none;stroke:#999999;"/>
    <path clip-path="url(#p9c5dbbbb1a)" d="M 1150.726763 128.922397 
L 1146.663104 130.35551 
L 1118.422585 144.291688 
L 1089.824627 159.141899 
L 1076.819163 167.368193 
L 1055.958856 171.938357 
L 1029.136368 171.55845 
L 1014.26461 174.597703 
L 988.511506 181.609049 
" style="fill:none;stroke:#999999;"/>
    <path clip-path="url(#p9c5dbbbb1a)" d="M 1218.634094 122.069032 
L 1221.514106 129.659642 
" style="fill:none;stroke:#999999;"/>
    <path clip-path="url(#p9c5dbbbb1a)" d="M 1218.634094 122.069032 
L 1228.601337 119.680511 
L 1238.580298 118.815377 
L 1250.525168 119.511245 
L 1256.484419 120.154454 
L 1265.856908 120.064179 
L 1267.395062 120.451608 
" style="fill:none;stroke:#999999;"/>
    <path clip-path="url(#p9c5dbbbb1a)" d="M 1218.634094 122.069032 
L 1216.553923 122.565544 
L 1208.444186 122.053987 
L 1199.408626 119.902436 
L 1188.407158 119.902436 
L 1179.919474 119.902436 
L 1171.118299 121.162523 
L 1156.776838 126.789654 
L 1150.726763 128.922397 
" style="fill:none;stroke:#999999;"/>
    <path clip-path="url(#p9c5dbbbb1a)" d="M 1268.777937 120.797662 
L 1267.395062 120.451608 
" style="fill:none;stroke:#999999;"/>
    <path clip-path="url(#p9c5dbbbb1a)" d="M 1268.777937 120.797662 
L 1266.185047 129.433954 
" style="fill:none;stroke:#999999;"/>
    <path clip-path="url(#p9c5dbbbb1a)" d="M 1267.395062 120.451608 
L 1268.777937 120.797662 
" style="fill:none;stroke:#999999;"/>
    <path clip-path="url(#p9c5dbbbb1a)" d="M 1267.395062 120.451608 
L 1265.856908 120.064179 
L 1256.484419 120.154454 
L 1250.525168 119.511245 
L 1238.580298 118.815377 
L 1228.601337 119.680511 
L 1218.634094 122.069032 
" style="fill:none;stroke:#999999;"/>
    <path clip-path="url(#p9c5dbbbb1a)" d="M 1267.395062 120.451608 
L 1267.052274 99.470232 
L 1264.435946 91.947329 
L 1254.187441 91.838246 
" style="fill:none;stroke:#999999;"/>
    <path clip-path="url(#p9c5dbbbb1a)" d="M 1254.187441 91.838246 
L 1248.954785 81.48297 
" style="fill:none;stroke:#999999;"/>
    <path clip-path="url(#p9c5dbbbb1a)" d="M 1254.187441 91.838246 
L 1232.817345 91.947329 
L 1231.727453 91.183754 
L 1232.380802 81.592052 
" style="fill:none;stroke:#999999;"/>
    <path clip-path="url(#p9c5dbbbb1a)" d="M 1254.187441 91.838246 
L 1264.435946 91.947329 
L 1267.052274 99.470232 
L 1267.395062 120.451608 
" style="fill:none;stroke:#999999;"/>
    <path clip-path="url(#p9c5dbbbb1a)" d="M 1232.380802 81.592052 
L 1232.925749 71.451179 
" style="fill:none;stroke:#999999;"/>
    <path clip-path="url(#p9c5dbbbb1a)" d="M 1232.380802 81.592052 
L 1248.954785 81.48297 
" style="fill:none;stroke:#999999;"/>
    <path clip-path="url(#p9c5dbbbb1a)" d="M 1232.380802 81.592052 
L 1231.727453 91.183754 
L 1232.817345 91.947329 
L 1254.187441 91.838246 
" style="fill:none;stroke:#999999;"/>
    <path clip-path="url(#p9c5dbbbb1a)" d="M 1248.954785 81.48297 
L 1264.107806 81.264806 
" style="fill:none;stroke:#999999;"/>
    <path clip-path="url(#p9c5dbbbb1a)" d="M 1248.954785 81.48297 
L 1232.380802 81.592052 
" style="fill:none;stroke:#999999;"/>
    <path clip-path="url(#p9c5dbbbb1a)" d="M 1248.954785 81.48297 
L 1254.187441 91.838246 
" style="fill:none;stroke:#999999;"/>
    <path clip-path="url(#p9c5dbbbb1a)" d="M 1248.954785 81.48297 
L 1248.673523 70.913292 
" style="fill:none;stroke:#999999;"/>
    <path clip-path="url(#p9c5dbbbb1a)" d="M 1264.107806 81.264806 
L 1248.954785 81.48297 
" style="fill:none;stroke:#999999;"/>
    <path clip-path="url(#p9c5dbbbb1a)" d="M 1232.925749 71.451179 
L 1233.907238 60.550493 
" style="fill:none;stroke:#999999;"/>
    <path clip-path="url(#p9c5dbbbb1a)" d="M 1232.925749 71.451179 
L 1232.380802 81.592052 
" style="fill:none;stroke:#999999;"/>
    <path clip-path="url(#p9c5dbbbb1a)" d="M 1232.925749 71.451179 
L 1248.673523 70.913292 
" style="fill:none;stroke:#999999;"/>
    <path clip-path="url(#p9c5dbbbb1a)" d="M 1248.673523 70.913292 
L 1267.160677 70.578522 
" style="fill:none;stroke:#999999;"/>
    <path clip-path="url(#p9c5dbbbb1a)" d="M 1248.673523 70.913292 
L 1232.925749 71.451179 
" style="fill:none;stroke:#999999;"/>
    <path clip-path="url(#p9c5dbbbb1a)" d="M 1248.673523 70.913292 
L 1248.954785 81.48297 
" style="fill:none;stroke:#999999;"/>
    <path clip-path="url(#p9c5dbbbb1a)" d="M 1248.673523 70.913292 
L 1248.383471 60.008844 
" style="fill:none;stroke:#999999;"/>
    <path clip-path="url(#p9c5dbbbb1a)" d="M 1267.160677 70.578522 
L 1248.673523 70.913292 
" style="fill:none;stroke:#999999;"/>
    <path clip-path="url(#p9c5dbbbb1a)" d="M 1233.907238 60.550493 
L 1232.925749 71.451179 
" style="fill:none;stroke:#999999;"/>
    <path clip-path="url(#p9c5dbbbb1a)" d="M 1233.907238 60.550493 
L 1248.383471 60.008844 
" style="fill:none;stroke:#999999;"/>
    <path clip-path="url(#p9c5dbbbb1a)" d="M 1233.907238 60.550493 
L 1234.126974 50.082373 
L 1248.122717 50.097419 
" style="fill:none;stroke:#999999;"/>
    <path clip-path="url(#p9c5dbbbb1a)" d="M 1248.383471 60.008844 
L 1267.814026 59.896 
" style="fill:none;stroke:#999999;"/>
    <path clip-path="url(#p9c5dbbbb1a)" d="M 1248.383471 60.008844 
L 1233.907238 60.550493 
" style="fill:none;stroke:#999999;"/>
    <path clip-path="url(#p9c5dbbbb1a)" d="M 1248.383471 60.008844 
L 1248.673523 70.913292 
" style="fill:none;stroke:#999999;"/>
    <path clip-path="url(#p9c5dbbbb1a)" d="M 1248.383471 60.008844 
L 1248.122717 50.097419 
" style="fill:none;stroke:#999999;"/>
    <path clip-path="url(#p9c5dbbbb1a)" d="M 1267.814026 59.896 
L 1248.383471 60.008844 
" style="fill:none;stroke:#999999;"/>
    <path clip-path="url(#p9c5dbbbb1a)" d="M 1248.122717 50.097419 
L 1268.142166 49.536963 
" style="fill:none;stroke:#999999;"/>
    <path clip-path="url(#p9c5dbbbb1a)" d="M 1248.122717 50.097419 
L 1248.383471 60.008844 
" style="fill:none;stroke:#999999;"/>
    <path clip-path="url(#p9c5dbbbb1a)" d="M 1248.122717 50.097419 
L 1247.946928 43.533686 
" style="fill:none;stroke:#999999;"/>
    <path clip-path="url(#p9c5dbbbb1a)" d="M 1248.122717 50.097419 
L 1234.126974 50.082373 
L 1233.907238 60.550493 
" style="fill:none;stroke:#999999;"/>
    <path clip-path="url(#p9c5dbbbb1a)" d="M 1268.142166 49.536963 
L 1248.122717 50.097419 
" style="fill:none;stroke:#999999;"/>
    <path clip-path="url(#p9c5dbbbb1a)" d="M 1240.121383 43.868455 
L 1247.946928 43.533686 
" style="fill:none;stroke:#999999;"/>
    <path clip-path="url(#p9c5dbbbb1a)" d="M 1267.59722 43.541209 
L 1247.946928 43.533686 
" style="fill:none;stroke:#999999;"/>
    <path clip-path="url(#p9c5dbbbb1a)" d="M 1247.946928 43.533686 
L 1267.59722 43.541209 
" style="fill:none;stroke:#999999;"/>
    <path clip-path="url(#p9c5dbbbb1a)" d="M 1247.946928 43.533686 
L 1240.121383 43.868455 
" style="fill:none;stroke:#999999;"/>
    <path clip-path="url(#p9c5dbbbb1a)" d="M 1247.946928 43.533686 
L 1248.122717 50.097419 
" style="fill:none;stroke:#999999;"/>
    <path clip-path="url(#p9c5dbbbb1a)" d="M 1247.946928 43.533686 
L 1247.75356 36.23647 
L 1267.814026 36.672798 
" style="fill:none;stroke:#999999;"/>
    <path clip-path="url(#p9c5dbbbb1a)" d="M 1267.814026 36.672798 
L 1247.75356 36.23647 
L 1247.946928 43.533686 
" style="fill:none;stroke:#999999;"/>
    <path clip-path="url(#p9c5dbbbb1a)" d="M 346.591217 341.275143 
L 330.09048 337.073602 
" style="fill:none;stroke:#999999;"/>
    <path clip-path="url(#p9c5dbbbb1a)" d="M 308.477209 331.247113 
L 330.09048 337.073602 
" style="fill:none;stroke:#999999;"/>
    <path clip-path="url(#p9c5dbbbb1a)" d="M 308.477209 331.247113 
L 300.683892 368.402732 
" style="fill:none;stroke:#999999;"/>
    <path clip-path="url(#p9c5dbbbb1a)" d="M 308.477209 331.247113 
L 315.441387 304.540808 
" style="fill:none;stroke:#999999;"/>
    <path clip-path="url(#p9c5dbbbb1a)" d="M 308.477209 331.247113 
L 297.926933 327.989696 
L 295.817464 326.793555 
" style="fill:none;stroke:#999999;"/>
    <path clip-path="url(#p9c5dbbbb1a)" d="M 275.414208 321.583944 
L 265.991912 359.615981 
" style="fill:none;stroke:#999999;"/>
    <path clip-path="url(#p9c5dbbbb1a)" d="M 275.414208 321.583944 
L 282.126422 296.585338 
" style="fill:none;stroke:#999999;"/>
    <path clip-path="url(#p9c5dbbbb1a)" d="M 275.414208 321.583944 
L 278.185816 322.185777 
L 279.759129 322.524307 
L 295.817464 326.793555 
" style="fill:none;stroke:#999999;"/>
    <path clip-path="url(#p9c5dbbbb1a)" d="M 298.026547 233.298916 
L 316.167982 238.832011 
" style="fill:none;stroke:#999999;"/>
    <path clip-path="url(#p9c5dbbbb1a)" d="M 298.026547 233.298916 
L 297.276513 235.506888 
" style="fill:none;stroke:#999999;"/>
    <path clip-path="url(#p9c5dbbbb1a)" d="M 298.026547 233.298916 
L 298.882054 229.917371 
L 300.672173 222.973731 
" style="fill:none;stroke:#999999;"/>
    <path clip-path="url(#p9c5dbbbb1a)" d="M 292.052647 160.533636 
L 301.398768 150.129461 
" style="fill:none;stroke:#999999;"/>
    <path clip-path="url(#p9c5dbbbb1a)" d="M 292.052647 160.533636 
L 294.188484 162.749131 
L 302.608783 172.664317 
L 314.632757 180.480613 
L 320.334184 184.065277 
" style="fill:none;stroke:#999999;"/>
    <path clip-path="url(#p9c5dbbbb1a)" d="M 292.052647 160.533636 
L 290.280107 158.694286 
L 282.568825 150.806522 
L 281.865668 150.215974 
" style="fill:none;stroke:#999999;"/>
    <path clip-path="url(#p9c5dbbbb1a)" d="M 281.865668 150.215974 
L 279.214182 147.932773 
" style="fill:none;stroke:#999999;"/>
    <path clip-path="url(#p9c5dbbbb1a)" d="M 281.865668 150.215974 
L 282.568825 150.806522 
L 290.280107 158.694286 
L 292.052647 160.533636 
" style="fill:none;stroke:#999999;"/>
    <path clip-path="url(#p9c5dbbbb1a)" d="M 281.865668 150.215974 
L 284.335505 147.067639 
L 290.860211 131.198075 
L 300.241489 131.80743 
" style="fill:none;stroke:#999999;"/>
    <path clip-path="url(#p9c5dbbbb1a)" d="M 301.398768 150.129461 
L 292.052647 160.533636 
" style="fill:none;stroke:#999999;"/>
    <path clip-path="url(#p9c5dbbbb1a)" d="M 279.214182 147.932773 
L 281.865668 150.215974 
" style="fill:none;stroke:#999999;"/>
    <path clip-path="url(#p9c5dbbbb1a)" d="M 279.214182 147.932773 
L 258.008157 126.586536 
L 250.994171 119.379595 
L 246.033989 113.128062 
" style="fill:none;stroke:#999999;"/>
    <path clip-path="url(#p9c5dbbbb1a)" d="M 279.214182 147.932773 
L 263.935179 165.517559 
L 261.254395 168.496629 
L 308.043596 199.340531 
L 302.529678 210.628647 
L 303.476009 213.713037 
" style="fill:none;stroke:#999999;"/>
    <path clip-path="url(#p9c5dbbbb1a)" d="M 313.78311 133.018618 
L 313.862215 128.41084 
" style="fill:none;stroke:#999999;"/>
    <path clip-path="url(#p9c5dbbbb1a)" d="M 313.78311 133.018618 
L 313.832917 135.542552 
L 315.839843 153.349263 
L 317.231506 157.04677 
" style="fill:none;stroke:#999999;"/>
    <path clip-path="url(#p9c5dbbbb1a)" d="M 313.78311 133.018618 
L 301.615574 133.20669 
L 302.113643 121.019587 
L 302.16052 119.733171 
L 302.359748 118.006665 
L 302.450572 116.370433 
" style="fill:none;stroke:#999999;"/>
    <path clip-path="url(#p9c5dbbbb1a)" d="M 300.241489 131.80743 
L 290.860211 131.198075 
L 284.335505 147.067639 
L 281.865668 150.215974 
" style="fill:none;stroke:#999999;"/>
    <path clip-path="url(#p9c5dbbbb1a)" d="M 236.148781 126.097547 
L 246.033989 113.128062 
" style="fill:none;stroke:#999999;"/>
    <path clip-path="url(#p9c5dbbbb1a)" d="M 236.148781 126.097547 
L 220.934234 117.935197 
" style="fill:none;stroke:#999999;"/>
    <path clip-path="url(#p9c5dbbbb1a)" d="M 236.148781 126.097547 
L 223.445089 142.760777 
L 220.755515 146.29278 
" style="fill:none;stroke:#999999;"/>
    <path clip-path="url(#p9c5dbbbb1a)" d="M 220.934234 117.935197 
L 236.148781 126.097547 
" style="fill:none;stroke:#999999;"/>
    <path clip-path="url(#p9c5dbbbb1a)" d="M 278.138939 117.867491 
L 288.762461 116.897037 
L 294.756869 115.794931 
L 302.450572 116.370433 
" style="fill:none;stroke:#999999;"/>
    <path clip-path="url(#p9c5dbbbb1a)" d="M 302.450572 116.370433 
L 302.567765 113.989435 
" style="fill:none;stroke:#999999;"/>
    <path clip-path="url(#p9c5dbbbb1a)" d="M 302.450572 116.370433 
L 294.756869 115.794931 
L 288.762461 116.897037 
L 278.138939 117.867491 
" style="fill:none;stroke:#999999;"/>
    <path clip-path="url(#p9c5dbbbb1a)" d="M 302.450572 116.370433 
L 302.359748 118.006665 
L 302.16052 119.733171 
L 302.113643 121.019587 
L 301.615574 133.20669 
L 313.78311 133.018618 
" style="fill:none;stroke:#999999;"/>
    <path clip-path="url(#p9c5dbbbb1a)" d="M 302.567765 113.989435 
L 304.170376 115.475208 
" style="fill:none;stroke:#999999;"/>
    <path clip-path="url(#p9c5dbbbb1a)" d="M 302.567765 113.989435 
L 302.450572 116.370433 
" style="fill:none;stroke:#999999;"/>
    <path clip-path="url(#p9c5dbbbb1a)" d="M 302.567765 113.989435 
L 301.539399 113.034026 
L 296.83704 112.409625 
L 292.509699 112.157608 
L 289.052513 112.390818 
L 276.146663 112.338157 
" style="fill:none;stroke:#999999;"/>
    <path clip-path="url(#p9c5dbbbb1a)" d="M 289.682424 91.033296 
L 289.949037 87.80597 
" style="fill:none;stroke:#999999;"/>
    <path clip-path="url(#p9c5dbbbb1a)" d="M 289.682424 91.033296 
L 290.70786 103.788378 
L 280.796284 108.524045 
L 276.146663 112.338157 
" style="fill:none;stroke:#999999;"/>
    <path clip-path="url(#p9c5dbbbb1a)" d="M 289.682424 91.033296 
L 284.968346 91.119809 
L 277.916273 91.913475 
L 274.608508 92.44384 
L 274.391701 86.688819 
" style="fill:none;stroke:#999999;"/>
    <path clip-path="url(#p9c5dbbbb1a)" d="M 303.707465 89.848439 
L 299.722911 89.310551 
" style="fill:none;stroke:#999999;"/>
    <path clip-path="url(#p9c5dbbbb1a)" d="M 303.707465 89.848439 
L 307.097264 90.303574 
L 316.68656 90.311097 
" style="fill:none;stroke:#999999;"/>
    <path clip-path="url(#p9c5dbbbb1a)" d="M 303.707465 89.848439 
L 304.296358 87.5201 
L 305.107918 84.153601 
" style="fill:none;stroke:#999999;"/>
    <path clip-path="url(#p9c5dbbbb1a)" d="M 320.993393 89.780732 
L 335.434468 88.723765 
" style="fill:none;stroke:#999999;"/>
    <path clip-path="url(#p9c5dbbbb1a)" d="M 320.993393 89.780732 
L 317.849698 90.168162 
L 316.68656 90.311097 
" style="fill:none;stroke:#999999;"/>
    <path clip-path="url(#p9c5dbbbb1a)" d="M 320.993393 89.780732 
L 322.768863 82.581314 
L 324.796298 77.157301 
L 326.513171 74.911715 
" style="fill:none;stroke:#999999;"/>
    <path clip-path="url(#p9c5dbbbb1a)" d="M 289.949037 87.80597 
L 299.722911 89.310551 
" style="fill:none;stroke:#999999;"/>
    <path clip-path="url(#p9c5dbbbb1a)" d="M 289.949037 87.80597 
L 289.682424 91.033296 
" style="fill:none;stroke:#999999;"/>
    <path clip-path="url(#p9c5dbbbb1a)" d="M 289.949037 87.80597 
L 288.176497 87.535146 
L 282.920403 86.474417 
" style="fill:none;stroke:#999999;"/>
    <path clip-path="url(#p9c5dbbbb1a)" d="M 252.353607 87.787163 
L 266.771244 89.701742 
L 268.936379 89.107433 
L 270.785095 88.580829 
" style="fill:none;stroke:#999999;"/>
    <path clip-path="url(#p9c5dbbbb1a)" d="M 252.353607 87.787163 
L 225.012541 84.157362 
L 213.351864 81.227192 
L 182.125859 65.252307 
" style="fill:none;stroke:#999999;"/>
    <path clip-path="url(#p9c5dbbbb1a)" d="M 252.353607 87.787163 
L 252.456151 83.356173 
L 249.502894 79.387842 
L 249.649385 64.037358 
" style="fill:none;stroke:#999999;"/>
    <path clip-path="url(#p9c5dbbbb1a)" d="M 274.391701 86.688819 
L 282.920403 86.474417 
" style="fill:none;stroke:#999999;"/>
    <path clip-path="url(#p9c5dbbbb1a)" d="M 274.391701 86.688819 
L 272.458021 86.760287 
L 270.785095 88.580829 
" style="fill:none;stroke:#999999;"/>
    <path clip-path="url(#p9c5dbbbb1a)" d="M 274.391701 86.688819 
L 274.608508 92.44384 
L 277.916273 91.913475 
L 284.968346 91.119809 
L 289.682424 91.033296 
" style="fill:none;stroke:#999999;"/>
    <path clip-path="url(#p9c5dbbbb1a)" d="M 305.107918 84.153601 
L 304.296358 87.5201 
L 303.707465 89.848439 
" style="fill:none;stroke:#999999;"/>
    <path clip-path="url(#p9c5dbbbb1a)" d="M 336.454045 83.329843 
L 335.434468 88.723765 
" style="fill:none;stroke:#999999;"/>
    <path clip-path="url(#p9c5dbbbb1a)" d="M 358.383736 71.29696 
L 355.119918 74.426487 
L 353.701886 77.529685 
L 326.513171 74.911715 
" style="fill:none;stroke:#999999;"/>
    <path clip-path="url(#p9c5dbbbb1a)" d="M 249.649385 64.037358 
L 263.431251 64.808456 
" style="fill:none;stroke:#999999;"/>
    <path clip-path="url(#p9c5dbbbb1a)" d="M 249.649385 64.037358 
L 249.860332 55.856201 
" style="fill:none;stroke:#999999;"/>
    <path clip-path="url(#p9c5dbbbb1a)" d="M 249.649385 64.037358 
L 222.818107 64.056165 
L 223.064212 55.137764 
" style="fill:none;stroke:#999999;"/>
    <path clip-path="url(#p9c5dbbbb1a)" d="M 249.649385 64.037358 
L 249.502894 79.387842 
L 252.456151 83.356173 
L 252.353607 87.787163 
" style="fill:none;stroke:#999999;"/>
    <path clip-path="url(#p9c5dbbbb1a)" d="M 249.860332 55.856201 
L 264.09046 56.239869 
" style="fill:none;stroke:#999999;"/>
    <path clip-path="url(#p9c5dbbbb1a)" d="M 249.860332 55.856201 
L 223.064212 55.137764 
" style="fill:none;stroke:#999999;"/>
    <path clip-path="url(#p9c5dbbbb1a)" d="M 249.860332 55.856201 
L 249.649385 64.037358 
" style="fill:none;stroke:#999999;"/>
    <path clip-path="url(#p9c5dbbbb1a)" d="M 403.01952 51.884108 
L 404.355517 53.855109 
" style="fill:none;stroke:#999999;"/>
    <path clip-path="url(#p9c5dbbbb1a)" d="M 403.01952 51.884108 
L 400.426631 46.832479 
" style="fill:none;stroke:#999999;"/>
    <path clip-path="url(#p9c5dbbbb1a)" d="M 403.01952 51.884108 
L 399.600422 56.093173 
L 394.426362 63.943322 
L 390.189845 72.109433 
L 385.639837 80.087472 
L 387.262956 83.961767 
" style="fill:none;stroke:#999999;"/>
    <path clip-path="url(#p9c5dbbbb1a)" d="M 369.93601 43.608915 
L 369.306099 62.416173 
" style="fill:none;stroke:#999999;"/>
    <path clip-path="url(#p9c5dbbbb1a)" d="M 369.93601 43.608915 
L 341.250158 37.560501 
" style="fill:none;stroke:#999999;"/>
    <path clip-path="url(#p9c5dbbbb1a)" d="M 369.93601 43.608915 
L 371.39799 43.917354 
L 374.263352 43.981299 
L 377.969572 42.882955 
" style="fill:none;stroke:#999999;"/>
    <path clip-path="url(#p9c5dbbbb1a)" d="M 341.250158 37.560501 
L 340.075301 40.652414 
" style="fill:none;stroke:#999999;"/>
    <path clip-path="url(#p9c5dbbbb1a)" d="M 341.250158 37.560501 
L 369.93601 43.608915 
" style="fill:none;stroke:#999999;"/>
    <path clip-path="url(#p9c5dbbbb1a)" d="M 341.250158 37.560501 
L 341.976753 35.653445 
L 345.659535 27.773204 
L 350.555261 19.941862 
L 355.7469 13.964915 
L 357.630773 8.307692 
" style="fill:none;stroke:#999999;"/>
    <path clip-path="url(#p9c5dbbbb1a)" d="M 215.144913 35.958123 
L 223.41579 36.338029 
" style="fill:none;stroke:#999999;"/>
    <path clip-path="url(#p9c5dbbbb1a)" d="M 264.611967 29.379344 
L 264.56509 37.793711 
" style="fill:none;stroke:#999999;"/>
    <path clip-path="url(#p9c5dbbbb1a)" d="M 258.658576 269.619492 
L 253.812657 267.005283 
" style="fill:none;stroke:#999999;"/>
    <path clip-path="url(#p9c5dbbbb1a)" d="M 253.812657 267.005283 
L 239.55616 259.48238 
" style="fill:none;stroke:#999999;"/>
    <path clip-path="url(#p9c5dbbbb1a)" d="M 253.812657 267.005283 
L 258.658576 269.619492 
" style="fill:none;stroke:#999999;"/>
    <path clip-path="url(#p9c5dbbbb1a)" d="M 253.812657 267.005283 
L 262.47613 246.659591 
L 250.226559 240.942185 
" style="fill:none;stroke:#999999;"/>
    <path clip-path="url(#p9c5dbbbb1a)" d="M 239.55616 259.48238 
L 250.226559 240.942185 
" style="fill:none;stroke:#999999;"/>
    <path clip-path="url(#p9c5dbbbb1a)" d="M 239.55616 259.48238 
L 253.812657 267.005283 
" style="fill:none;stroke:#999999;"/>
    <path clip-path="url(#p9c5dbbbb1a)" d="M 239.55616 259.48238 
L 231.431774 273.384705 
L 267.459751 290.202154 
L 270.345622 287.302075 
L 274.919069 280.854947 
L 280.145865 272.44058 
L 287.830778 259.2755 
L 291.727437 256.898262 
" style="fill:none;stroke:#999999;"/>
    <path clip-path="url(#p9c5dbbbb1a)" d="M 250.226559 240.942185 
L 239.55616 259.48238 
" style="fill:none;stroke:#999999;"/>
    <path clip-path="url(#p9c5dbbbb1a)" d="M 250.226559 240.942185 
L 262.455621 220.833465 
" style="fill:none;stroke:#999999;"/>
    <path clip-path="url(#p9c5dbbbb1a)" d="M 250.226559 240.942185 
L 262.47613 246.659591 
L 253.812657 267.005283 
" style="fill:none;stroke:#999999;"/>
    <path clip-path="url(#p9c5dbbbb1a)" d="M 409.216086 135.896128 
L 412.834412 138.638226 
" style="fill:none;stroke:#999999;"/>
    <path clip-path="url(#p9c5dbbbb1a)" d="M 409.216086 135.896128 
L 403.215818 131.416239 
" style="fill:none;stroke:#999999;"/>
    <path clip-path="url(#p9c5dbbbb1a)" d="M 409.216086 135.896128 
L 413.610814 128.474784 
" style="fill:none;stroke:#999999;"/>
    <path clip-path="url(#p9c5dbbbb1a)" d="M 413.610814 128.474784 
L 409.216086 135.896128 
" style="fill:none;stroke:#999999;"/>
    <path clip-path="url(#p9c5dbbbb1a)" d="M 413.487761 123.987373 
L 405.946409 123.923428 
" style="fill:none;stroke:#999999;"/>
    <path clip-path="url(#p9c5dbbbb1a)" d="M 405.946409 123.923428 
L 413.487761 123.987373 
" style="fill:none;stroke:#999999;"/>
    <path clip-path="url(#p9c5dbbbb1a)" d="M 405.946409 123.923428 
L 405.073323 122.490315 
L 404.824288 119.187761 
L 405.820426 114.512276 
" style="fill:none;stroke:#999999;"/>
    <path clip-path="url(#p9c5dbbbb1a)" d="M 405.946409 123.923428 
L 404.261763 127.974511 
L 400.496946 129.388817 
" style="fill:none;stroke:#999999;"/>
    <path clip-path="url(#p9c5dbbbb1a)" d="M 405.820426 114.512276 
L 404.824288 119.187761 
L 405.073323 122.490315 
L 405.946409 123.923428 
" style="fill:none;stroke:#999999;"/>
    <path clip-path="url(#p9c5dbbbb1a)" d="M 419.997818 65.745057 
L 418.940153 64.951391 
L 409.022718 57.236654 
L 404.355517 53.855109 
" style="fill:none;stroke:#999999;"/>
    <path clip-path="url(#p9c5dbbbb1a)" d="M 249.042912 423.692308 
L 245.966603 421.205988 
L 258.696664 373.006748 
L 263.27304 370.324833 
" style="fill:none;stroke:#999999;"/>
    <path clip-path="url(#p9c5dbbbb1a)" d="M 249.042912 423.692308 
L 250.959014 417.937287 
L 263.27304 370.324833 
" style="fill:none;stroke:#999999;"/>
    <path clip-path="url(#p9c5dbbbb1a)" d="M 243.713573 385.99504 
L 241.958611 367.755762 
L 240.52007 364.498345 
" style="fill:none;stroke:#999999;"/>
    <path clip-path="url(#p9c5dbbbb1a)" d="M 211.678938 379.856352 
L 210.099766 373.601058 
L 212.906532 370.67841 
L 224.830893 368.515575 
L 240.52007 364.498345 
" style="fill:none;stroke:#999999;"/>
    <path clip-path="url(#p9c5dbbbb1a)" d="M 263.27304 370.324833 
L 264.778967 364.502106 
" style="fill:none;stroke:#999999;"/>
    <path clip-path="url(#p9c5dbbbb1a)" d="M 263.27304 370.324833 
L 258.696664 373.006748 
L 245.966603 421.205988 
L 249.042912 423.692308 
" style="fill:none;stroke:#999999;"/>
    <path clip-path="url(#p9c5dbbbb1a)" d="M 263.27304 370.324833 
L 250.959014 417.937287 
L 249.042912 423.692308 
" style="fill:none;stroke:#999999;"/>
    <path clip-path="url(#p9c5dbbbb1a)" d="M 283.061034 365.273204 
L 295.817464 326.793555 
" style="fill:none;stroke:#999999;"/>
    <path clip-path="url(#p9c5dbbbb1a)" d="M 283.061034 365.273204 
L 300.683892 368.402732 
" style="fill:none;stroke:#999999;"/>
    <path clip-path="url(#p9c5dbbbb1a)" d="M 283.061034 365.273204 
L 267.694136 364.626234 
L 264.778967 364.502106 
" style="fill:none;stroke:#999999;"/>
    <path clip-path="url(#p9c5dbbbb1a)" d="M 240.52007 364.498345 
L 245.875779 362.847068 
L 244.864991 358.826076 
" style="fill:none;stroke:#999999;"/>
    <path clip-path="url(#p9c5dbbbb1a)" d="M 240.52007 364.498345 
L 238.627408 360.214052 
L 244.864991 358.826076 
" style="fill:none;stroke:#999999;"/>
    <path clip-path="url(#p9c5dbbbb1a)" d="M 240.52007 364.498345 
L 224.830893 368.515575 
L 212.906532 370.67841 
L 210.099766 373.601058 
L 211.678938 379.856352 
" style="fill:none;stroke:#999999;"/>
    <path clip-path="url(#p9c5dbbbb1a)" d="M 240.52007 364.498345 
L 241.958611 367.755762 
L 243.713573 385.99504 
" style="fill:none;stroke:#999999;"/>
    <path clip-path="url(#p9c5dbbbb1a)" d="M 265.991912 359.615981 
L 264.778967 364.502106 
" style="fill:none;stroke:#999999;"/>
    <path clip-path="url(#p9c5dbbbb1a)" d="M 265.991912 359.615981 
L 275.414208 321.583944 
" style="fill:none;stroke:#999999;"/>
    <path clip-path="url(#p9c5dbbbb1a)" d="M 265.991912 359.615981 
L 259.845153 357.934612 
L 247.803599 358.167822 
L 244.864991 358.826076 
" style="fill:none;stroke:#999999;"/>
    <path clip-path="url(#p9c5dbbbb1a)" d="M 244.864991 358.826076 
L 245.875779 362.847068 
L 240.52007 364.498345 
" style="fill:none;stroke:#999999;"/>
    <path clip-path="url(#p9c5dbbbb1a)" d="M 244.864991 358.826076 
L 238.627408 360.214052 
L 240.52007 364.498345 
" style="fill:none;stroke:#999999;"/>
    <path clip-path="url(#p9c5dbbbb1a)" d="M 244.864991 358.826076 
L 247.803599 358.167822 
L 259.845153 357.934612 
L 265.991912 359.615981 
" style="fill:none;stroke:#999999;"/>
    <path clip-path="url(#p9c5dbbbb1a)" d="M 313.715724 247.137296 
L 316.167982 238.832011 
" style="fill:none;stroke:#999999;"/>
    <path clip-path="url(#p9c5dbbbb1a)" d="M 313.715724 247.137296 
L 295.662183 241.728328 
" style="fill:none;stroke:#999999;"/>
    <path clip-path="url(#p9c5dbbbb1a)" d="M 313.715724 247.137296 
L 310.047592 259.572655 
L 307.384387 281.494394 
L 303.473079 301.682104 
" style="fill:none;stroke:#999999;"/>
    <path clip-path="url(#p9c5dbbbb1a)" d="M 295.662183 241.728328 
L 313.715724 247.137296 
" style="fill:none;stroke:#999999;"/>
    <path clip-path="url(#p9c5dbbbb1a)" d="M 295.662183 241.728328 
L 291.727437 256.898262 
" style="fill:none;stroke:#999999;"/>
    <path clip-path="url(#p9c5dbbbb1a)" d="M 295.662183 241.728328 
L 297.276513 235.506888 
" style="fill:none;stroke:#999999;"/>
    <path clip-path="url(#p9c5dbbbb1a)" d="M 372.282795 157.494383 
L 364.926021 174.473575 
" style="fill:none;stroke:#999999;"/>
    <path clip-path="url(#p9c5dbbbb1a)" d="M 372.282795 157.494383 
L 375.391332 159.965657 
L 378.300642 161.741062 
" style="fill:none;stroke:#999999;"/>
    <path clip-path="url(#p9c5dbbbb1a)" d="M 372.282795 157.494383 
L 370.618658 156.170352 
L 364.738512 147.650664 
" style="fill:none;stroke:#999999;"/>
    <path clip-path="url(#p9c5dbbbb1a)" d="M 364.926021 174.473575 
L 372.282795 157.494383 
" style="fill:none;stroke:#999999;"/>
   </g>
  </g>
 </g>
 <defs>
  <clipPath id="p9c5dbbbb1a">
   <rect height="432" width="1130.118161" x="160.392818" y="0"/>
  </clipPath>
 </defs>
</svg>
