<?xml version="1.0" encoding="utf-8" standalone="no"?>
<!DOCTYPE svg PUBLIC "-//W3C//DTD SVG 1.1//EN"
  "http://www.w3.org/Graphics/SVG/1.1/DTD/svg11.dtd">
<!-- Created with matplotlib (http://matplotlib.org/) -->
<svg height="432pt" version="1.1" viewBox="0 0 447.942444 432" width="447.942444pt" xmlns="http://www.w3.org/2000/svg" xmlns:xlink="http://www.w3.org/1999/xlink">
 <defs>
  <style type="text/css">
*{stroke-linecap:butt;stroke-linejoin:round;}
  </style>
 </defs>
 <g id="figure_1">
  <g id="patch_1">
   <path d="M 0 432 
L 447.942444 432 
L 447.942444 0 
L 0 0 
z
" style="fill:none;opacity:0;"/>
  </g>
  <g id="axes_1">
   <g id="PathCollection_1">
    <defs>
     <path d="M 0 1.936492 
C 0.513564 1.936492 1.006162 1.732451 1.369306 1.369306 
C 1.732451 1.006162 1.936492 0.513564 1.936492 0 
C 1.936492 -0.513564 1.732451 -1.006162 1.369306 -1.369306 
C 1.006162 -1.732451 0.513564 -1.936492 0 -1.936492 
C -0.513564 -1.936492 -1.006162 -1.732451 -1.369306 -1.369306 
C -1.732451 -1.006162 -1.936492 -0.513564 -1.936492 0 
C -1.936492 0.513564 -1.732451 1.006162 -1.369306 1.369306 
C -1.006162 1.732451 -0.513564 1.936492 0 1.936492 
z
" id="C0_0_a3a704ff24"/>
    </defs>
    <g clip-path="url(#pa14ddf159f)">
     <use style="fill:#66ccff;" x="386.303528" xlink:href="#C0_0_a3a704ff24" y="26.385204"/>
    </g>
    <g clip-path="url(#pa14ddf159f)">
     <use style="fill:#66ccff;" x="203.133665" xlink:href="#C0_0_a3a704ff24" y="364.578843"/>
    </g>
    <g clip-path="url(#pa14ddf159f)">
     <use style="fill:#66ccff;" x="269.276804" xlink:href="#C0_0_a3a704ff24" y="379.578602"/>
    </g>
    <g clip-path="url(#pa14ddf159f)">
     <use style="fill:#66ccff;" x="321.382722" xlink:href="#C0_0_a3a704ff24" y="320.467425"/>
    </g>
    <g clip-path="url(#pa14ddf159f)">
     <use style="fill:#66ccff;" x="57.574572" xlink:href="#C0_0_a3a704ff24" y="346.320556"/>
    </g>
    <g clip-path="url(#pa14ddf159f)">
     <use style="fill:#66ccff;" x="63.935688" xlink:href="#C0_0_a3a704ff24" y="410.653616"/>
    </g>
    <g clip-path="url(#pa14ddf159f)">
     <use style="fill:#66ccff;" x="59.636143" xlink:href="#C0_0_a3a704ff24" y="349.55849"/>
    </g>
    <g clip-path="url(#pa14ddf159f)">
     <use style="fill:#66ccff;" x="106.364513" xlink:href="#C0_0_a3a704ff24" y="345.485329"/>
    </g>
    <g clip-path="url(#pa14ddf159f)">
     <use style="fill:#66ccff;" x="66.180788" xlink:href="#C0_0_a3a704ff24" y="345.199292"/>
    </g>
    <g clip-path="url(#pa14ddf159f)">
     <use style="fill:#66ccff;" x="167.409849" xlink:href="#C0_0_a3a704ff24" y="221.4141"/>
    </g>
    <g clip-path="url(#pa14ddf159f)">
     <use style="fill:#66ccff;" x="188.941426" xlink:href="#C0_0_a3a704ff24" y="346.588286"/>
    </g>
    <g clip-path="url(#pa14ddf159f)">
     <use style="fill:#66ccff;" x="56.279185" xlink:href="#C0_0_a3a704ff24" y="423.692308"/>
    </g>
    <g clip-path="url(#pa14ddf159f)">
     <use style="fill:#66ccff;" x="192.152276" xlink:href="#C0_0_a3a704ff24" y="354.622482"/>
    </g>
    <g clip-path="url(#pa14ddf159f)">
     <use style="fill:#66ccff;" x="107.690191" xlink:href="#C0_0_a3a704ff24" y="336.945421"/>
    </g>
    <g clip-path="url(#pa14ddf159f)">
     <use style="fill:#66ccff;" x="155.093872" xlink:href="#C0_0_a3a704ff24" y="227.414004"/>
    </g>
    <g clip-path="url(#pa14ddf159f)">
     <use style="fill:#66ccff;" x="102.013296" xlink:href="#C0_0_a3a704ff24" y="341.462511"/>
    </g>
    <g clip-path="url(#pa14ddf159f)">
     <use style="fill:#66ccff;" x="110.542893" xlink:href="#C0_0_a3a704ff24" y="340.798906"/>
    </g>
    <g clip-path="url(#pa14ddf159f)">
     <use style="fill:#66ccff;" x="61.336005" xlink:href="#C0_0_a3a704ff24" y="341.290889"/>
    </g>
    <g clip-path="url(#pa14ddf159f)">
     <use style="fill:#66ccff;" x="168.961819" xlink:href="#C0_0_a3a704ff24" y="332.613683"/>
    </g>
    <g clip-path="url(#pa14ddf159f)">
     <use style="fill:#66ccff;" x="259.186327" xlink:href="#C0_0_a3a704ff24" y="381.301686"/>
    </g>
    <g clip-path="url(#pa14ddf159f)">
     <use style="fill:#66ccff;" x="271.593177" xlink:href="#C0_0_a3a704ff24" y="379.17815"/>
    </g>
    <g clip-path="url(#pa14ddf159f)">
     <use style="fill:#66ccff;" x="249.97429" xlink:href="#C0_0_a3a704ff24" y="377.12784"/>
    </g>
    <g clip-path="url(#pa14ddf159f)">
     <use style="fill:#66ccff;" x="220.059224" xlink:href="#C0_0_a3a704ff24" y="367.649732"/>
    </g>
    <g clip-path="url(#pa14ddf159f)">
     <use style="fill:#66ccff;" x="217.015867" xlink:href="#C0_0_a3a704ff24" y="329.446686"/>
    </g>
    <g clip-path="url(#pa14ddf159f)">
     <use style="fill:#66ccff;" x="314.128911" xlink:href="#C0_0_a3a704ff24" y="327.432988"/>
    </g>
    <g clip-path="url(#pa14ddf159f)">
     <use style="fill:#66ccff;" x="215.472806" xlink:href="#C0_0_a3a704ff24" y="326.222481"/>
    </g>
    <g clip-path="url(#pa14ddf159f)">
     <use style="fill:#66ccff;" x="320.776902" xlink:href="#C0_0_a3a704ff24" y="326.096625"/>
    </g>
    <g clip-path="url(#pa14ddf159f)">
     <use style="fill:#66ccff;" x="225.607828" xlink:href="#C0_0_a3a704ff24" y="324.888407"/>
    </g>
    <g clip-path="url(#pa14ddf159f)">
     <use style="fill:#66ccff;" x="311.682465" xlink:href="#C0_0_a3a704ff24" y="322.533754"/>
    </g>
    <g clip-path="url(#pa14ddf159f)">
     <use style="fill:#66ccff;" x="391.663259" xlink:href="#C0_0_a3a704ff24" y="8.307692"/>
    </g>
    <g clip-path="url(#pa14ddf159f)">
     <use style="fill:#66ccff;" x="194.331448" xlink:href="#C0_0_a3a704ff24" y="349.526454"/>
    </g>
    <g clip-path="url(#pa14ddf159f)">
     <use style="fill:#66ccff;" x="210.460531" xlink:href="#C0_0_a3a704ff24" y="356.086989"/>
    </g>
    <g clip-path="url(#pa14ddf159f)">
     <use style="fill:#66ccff;" x="243.098226" xlink:href="#C0_0_a3a704ff24" y="362.448443"/>
    </g>
    <g clip-path="url(#pa14ddf159f)">
     <use style="fill:#66ccff;" x="231.070905" xlink:href="#C0_0_a3a704ff24" y="356.43481"/>
    </g>
    <g clip-path="url(#pa14ddf159f)">
     <use style="fill:#66ccff;" x="241.631784" xlink:href="#C0_0_a3a704ff24" y="401.555364"/>
    </g>
    <g clip-path="url(#pa14ddf159f)">
     <use style="fill:#66ccff;" x="231.600107" xlink:href="#C0_0_a3a704ff24" y="365.739008"/>
    </g>
    <g clip-path="url(#pa14ddf159f)">
     <use style="fill:#66ccff;" x="246.389257" xlink:href="#C0_0_a3a704ff24" y="389.054422"/>
    </g>
    <g clip-path="url(#pa14ddf159f)">
     <use style="fill:#66ccff;" x="221.106938" xlink:href="#C0_0_a3a704ff24" y="384.878287"/>
    </g>
    <g clip-path="url(#pa14ddf159f)">
     <use style="fill:#66ccff;" x="212.033883" xlink:href="#C0_0_a3a704ff24" y="398.514223"/>
    </g>
    <g clip-path="url(#pa14ddf159f)">
     <use style="fill:#66ccff;" x="226.758887" xlink:href="#C0_0_a3a704ff24" y="369.471213"/>
    </g>
    <g clip-path="url(#pa14ddf159f)">
     <use style="fill:#66ccff;" x="200.642674" xlink:href="#C0_0_a3a704ff24" y="375.395603"/>
    </g>
    <g clip-path="url(#pa14ddf159f)">
     <use style="fill:#66ccff;" x="221.848177" xlink:href="#C0_0_a3a704ff24" y="385.063639"/>
    </g>
    <g clip-path="url(#pa14ddf159f)">
     <use style="fill:#66ccff;" x="217.851543" xlink:href="#C0_0_a3a704ff24" y="345.002499"/>
    </g>
    <g clip-path="url(#pa14ddf159f)">
     <use style="fill:#66ccff;" x="248.359956" xlink:href="#C0_0_a3a704ff24" y="376.210235"/>
    </g>
    <g clip-path="url(#pa14ddf159f)">
     <use style="fill:#66ccff;" x="252.819865" xlink:href="#C0_0_a3a704ff24" y="365.915206"/>
    </g>
    <g clip-path="url(#pa14ddf159f)">
     <use style="fill:#66ccff;" x="250.66742" xlink:href="#C0_0_a3a704ff24" y="359.23568"/>
    </g>
    <g clip-path="url(#pa14ddf159f)">
     <use style="fill:#66ccff;" x="241.371637" xlink:href="#C0_0_a3a704ff24" y="356.510323"/>
    </g>
   </g>
   <g id="LineCollection_1">
    <path clip-path="url(#pa14ddf159f)" d="M 203.133665 364.578843 
L 200.642674 375.395603 
" style="fill:none;stroke:#999999;"/>
    <path clip-path="url(#pa14ddf159f)" d="M 203.133665 364.578843 
L 220.059224 367.649732 
" style="fill:none;stroke:#999999;"/>
    <path clip-path="url(#pa14ddf159f)" d="M 203.133665 364.578843 
L 203.612976 362.899236 
L 210.460531 356.086989 
" style="fill:none;stroke:#999999;"/>
    <path clip-path="url(#pa14ddf159f)" d="M 203.133665 364.578843 
L 200.280963 363.775652 
L 198.750375 362.869488 
L 196.423311 361.034278 
L 194.76265 359.196779 
L 193.199989 356.844414 
L 192.152276 354.622482 
" style="fill:none;stroke:#999999;"/>
    <path clip-path="url(#pa14ddf159f)" d="M 269.276804 379.578602 
L 271.593177 379.17815 
" style="fill:none;stroke:#999999;"/>
    <path clip-path="url(#pa14ddf159f)" d="M 269.276804 379.578602 
L 264.378566 385.624271 
L 252.957065 406.443158 
L 250.918657 406.562149 
L 241.631784 401.555364 
" style="fill:none;stroke:#999999;"/>
    <path clip-path="url(#pa14ddf159f)" d="M 269.276804 379.578602 
L 260.460332 381.260497 
L 259.186327 381.301686 
" style="fill:none;stroke:#999999;"/>
    <path clip-path="url(#pa14ddf159f)" d="M 321.382722 320.467425 
L 320.481119 319.245477 
L 319.413805 318.42398 
L 318.018636 317.854195 
L 316.541503 317.643672 
L 315.112479 317.895384 
L 313.799273 318.675692 
L 312.715924 319.75119 
L 311.962212 321.121877 
L 311.682465 322.533754 
" style="fill:none;stroke:#999999;"/>
    <path clip-path="url(#pa14ddf159f)" d="M 57.574572 346.320556 
L 58.30512 348.299929 
L 59.636143 349.55849 
" style="fill:none;stroke:#999999;"/>
    <path clip-path="url(#pa14ddf159f)" d="M 63.935688 410.653616 
L 69.828184 392.111581 
L 73.546854 383.102572 
L 76.043191 378.445897 
L 79.168513 374.207979 
L 101.614167 349.940635 
L 106.364513 345.485329 
" style="fill:none;stroke:#999999;"/>
    <path clip-path="url(#pa14ddf159f)" d="M 63.935688 410.653616 
L 67.727412 395.404434 
L 72.720087 378.008833 
L 81.080411 355.059546 
L 90.901833 332.174331 
L 109.318779 296.767578 
L 116.686627 285.067538 
L 124.619314 273.397245 
L 134.447862 259.537056 
L 141.6892 250.358714 
L 149.81076 240.139199 
L 167.409849 221.4141 
" style="fill:none;stroke:#999999;"/>
    <path clip-path="url(#pa14ddf159f)" d="M 59.636143 349.55849 
L 61.806407 353.281542 
L 62.83452 358.370705 
L 63.162376 369.578763 
L 62.196626 386.71121 
L 56.279185 423.692308 
" style="fill:none;stroke:#999999;"/>
    <path clip-path="url(#pa14ddf159f)" d="M 59.636143 349.55849 
L 61.496369 350.043608 
L 63.376195 349.796472 
L 64.628818 349.013876 
L 65.680095 347.661495 
L 66.031115 346.279367 
L 66.180788 345.199292 
" style="fill:none;stroke:#999999;"/>
    <path clip-path="url(#pa14ddf159f)" d="M 106.364513 345.485329 
L 107.636736 345.208446 
L 109.213652 344.192444 
L 110.115255 343.094063 
L 110.542893 340.798906 
" style="fill:none;stroke:#999999;"/>
    <path clip-path="url(#pa14ddf159f)" d="M 66.180788 345.199292 
L 65.598131 343.691308 
L 64.628818 342.451053 
L 63.00023 341.549466 
L 61.336005 341.290889 
" style="fill:none;stroke:#999999;"/>
    <path clip-path="url(#pa14ddf159f)" d="M 66.180788 345.199292 
L 75.528244 344.400678 
L 91.512999 342.599792 
L 102.013296 341.462511 
" style="fill:none;stroke:#999999;"/>
    <path clip-path="url(#pa14ddf159f)" d="M 167.409849 221.4141 
L 192.854315 196.448827 
L 213.87629 179.945661 
L 271.021211 140.282684 
L 289.12812 127.623849 
L 305.622477 114.743049 
L 321.22414 101.464087 
L 341.430039 82.116572 
L 355.654351 66.217515 
L 369.076841 49.638835 
L 386.303528 26.385204 
" style="fill:none;stroke:#999999;"/>
    <path clip-path="url(#pa14ddf159f)" d="M 188.941426 346.588286 
L 187.403711 347.402918 
L 186.307889 348.757588 
L 185.832141 350.43033 
L 186.051306 352.157991 
L 187.008146 353.743777 
L 188.536952 354.787239 
L 190.363323 355.098447 
L 192.152276 354.622482 
" style="fill:none;stroke:#999999;"/>
    <path clip-path="url(#pa14ddf159f)" d="M 188.941426 346.588286 
L 185.940833 341.766853 
L 182.48231 338.490018 
L 178.687022 336.052987 
L 171.825212 333.391702 
L 168.961819 332.613683 
" style="fill:none;stroke:#999999;"/>
    <path clip-path="url(#pa14ddf159f)" d="M 192.152276 354.622482 
L 193.663264 353.334173 
L 194.443703 351.508115 
L 194.331448 349.526454 
" style="fill:none;stroke:#999999;"/>
    <path clip-path="url(#pa14ddf159f)" d="M 192.152276 354.622482 
L 193.199989 356.844414 
L 194.76265 359.196779 
L 196.423311 361.034278 
L 198.750375 362.869488 
L 200.280963 363.775652 
L 203.133665 364.578843 
" style="fill:none;stroke:#999999;"/>
    <path clip-path="url(#pa14ddf159f)" d="M 107.690191 336.945421 
L 107.219789 333.712063 
L 107.412226 330.767031 
L 109.040815 325.91585 
L 117.825214 303.410492 
L 127.493398 280.152285 
L 137.769185 261.189204 
L 143.994882 251.264878 
L 151.223748 241.409202 
L 167.409849 221.4141 
" style="fill:none;stroke:#999999;"/>
    <path clip-path="url(#pa14ddf159f)" d="M 107.690191 336.945421 
L 106.259385 336.760069 
L 104.773343 336.979745 
L 103.777303 337.593008 
L 102.80799 338.684523 
L 102.148714 340.004868 
L 102.013296 341.462511 
" style="fill:none;stroke:#999999;"/>
    <path clip-path="url(#pa14ddf159f)" d="M 155.093872 227.414004 
L 131.30294 251.713384 
L 105.315018 280.955476 
L 87.810366 303.765177 
L 79.303932 315.133415 
L 71.380154 327.352898 
L 63.214049 339.281768 
L 61.336005 341.290889 
" style="fill:none;stroke:#999999;"/>
    <path clip-path="url(#pa14ddf159f)" d="M 155.093872 227.414004 
L 142.695932 242.516735 
L 128.199001 261.122843 
L 115.319967 279.625978 
L 103.800466 298.243527 
L 85.362138 332.407736 
L 72.73256 365.597133 
L 63.338777 395.354091 
L 56.279185 423.692308 
" style="fill:none;stroke:#999999;"/>
    <path clip-path="url(#pa14ddf159f)" d="M 102.013296 341.462511 
L 102.950536 343.865218 
L 104.363523 344.968175 
L 106.364513 345.485329 
" style="fill:none;stroke:#999999;"/>
    <path clip-path="url(#pa14ddf159f)" d="M 102.013296 341.462511 
L 91.512999 342.599792 
L 75.528244 344.400678 
L 66.180788 345.199292 
" style="fill:none;stroke:#999999;"/>
    <path clip-path="url(#pa14ddf159f)" d="M 110.542893 340.798906 
L 168.961819 332.613683 
" style="fill:none;stroke:#999999;"/>
    <path clip-path="url(#pa14ddf159f)" d="M 110.542893 340.798906 
L 110.264929 339.457966 
L 108.901832 337.501476 
L 107.690191 336.945421 
" style="fill:none;stroke:#999999;"/>
    <path clip-path="url(#pa14ddf159f)" d="M 61.336005 341.290889 
L 59.643271 341.936187 
L 58.210683 343.430442 
L 57.537153 344.798841 
L 57.574572 346.320556 
" style="fill:none;stroke:#999999;"/>
    <path clip-path="url(#pa14ddf159f)" d="M 168.961819 332.613683 
L 110.542893 340.798906 
" style="fill:none;stroke:#999999;"/>
    <path clip-path="url(#pa14ddf159f)" d="M 168.961819 332.613683 
L 215.472806 326.222481 
" style="fill:none;stroke:#999999;"/>
    <path clip-path="url(#pa14ddf159f)" d="M 168.961819 332.613683 
L 171.825212 333.391702 
L 178.687022 336.052987 
L 182.48231 338.490018 
L 185.940833 341.766853 
L 188.941426 346.588286 
" style="fill:none;stroke:#999999;"/>
    <path clip-path="url(#pa14ddf159f)" d="M 259.186327 381.301686 
L 256.68999 380.551126 
L 249.97429 377.12784 
" style="fill:none;stroke:#999999;"/>
    <path clip-path="url(#pa14ddf159f)" d="M 259.186327 381.301686 
L 262.568231 372.066137 
L 262.183357 370.606206 
L 252.819865 365.915206 
" style="fill:none;stroke:#999999;"/>
    <path clip-path="url(#pa14ddf159f)" d="M 259.186327 381.301686 
L 260.460332 381.260497 
L 269.276804 379.578602 
" style="fill:none;stroke:#999999;"/>
    <path clip-path="url(#pa14ddf159f)" d="M 271.593177 379.17815 
L 269.276804 379.578602 
" style="fill:none;stroke:#999999;"/>
    <path clip-path="url(#pa14ddf159f)" d="M 271.593177 379.17815 
L 276.391632 377.509985 
L 285.053085 372.667958 
L 293.219191 365.686377 
L 299.589216 358.503426 
L 304.924001 349.524166 
L 311.915884 331.567933 
L 314.128911 327.432988 
" style="fill:none;stroke:#999999;"/>
    <path clip-path="url(#pa14ddf159f)" d="M 249.97429 377.12784 
L 248.359956 376.210235 
" style="fill:none;stroke:#999999;"/>
    <path clip-path="url(#pa14ddf159f)" d="M 249.97429 377.12784 
L 246.389257 389.054422 
" style="fill:none;stroke:#999999;"/>
    <path clip-path="url(#pa14ddf159f)" d="M 249.97429 377.12784 
L 256.68999 380.551126 
L 259.186327 381.301686 
" style="fill:none;stroke:#999999;"/>
    <path clip-path="url(#pa14ddf159f)" d="M 220.059224 367.649732 
L 226.758887 369.471213 
" style="fill:none;stroke:#999999;"/>
    <path clip-path="url(#pa14ddf159f)" d="M 220.059224 367.649732 
L 203.133665 364.578843 
" style="fill:none;stroke:#999999;"/>
    <path clip-path="url(#pa14ddf159f)" d="M 220.059224 367.649732 
L 231.600107 365.739008 
" style="fill:none;stroke:#999999;"/>
    <path clip-path="url(#pa14ddf159f)" d="M 217.015867 329.446686 
L 218.247108 330.226994 
L 219.57635 330.753301 
L 221.135447 330.732706 
L 222.530616 330.35285 
L 223.713748 329.657209 
L 224.63317 328.73045 
L 225.240772 327.59088 
L 225.557937 326.577167 
L 225.654156 325.435309 
L 225.607828 324.888407 
" style="fill:none;stroke:#999999;"/>
    <path clip-path="url(#pa14ddf159f)" d="M 217.015867 329.446686 
L 215.581497 330.105714 
L 210.309076 336.810412 
L 205.991713 342.354945 
L 203.338575 345.009364 
L 199.774925 347.860577 
L 197.536952 349.148886 
L 194.331448 349.526454 
" style="fill:none;stroke:#999999;"/>
    <path clip-path="url(#pa14ddf159f)" d="M 314.128911 327.432988 
L 315.376189 327.803692 
L 316.803431 328.014215 
L 318.264528 327.847169 
L 319.561697 327.128645 
L 320.776902 326.096625 
" style="fill:none;stroke:#999999;"/>
    <path clip-path="url(#pa14ddf159f)" d="M 314.128911 327.432988 
L 311.915884 331.567933 
L 304.924001 349.524166 
L 299.589216 358.503426 
L 293.219191 365.686377 
L 285.053085 372.667958 
L 276.391632 377.509985 
L 271.593177 379.17815 
" style="fill:none;stroke:#999999;"/>
    <path clip-path="url(#pa14ddf159f)" d="M 215.472806 326.222481 
L 168.961819 332.613683 
" style="fill:none;stroke:#999999;"/>
    <path clip-path="url(#pa14ddf159f)" d="M 215.472806 326.222481 
L 215.570806 326.874645 
L 216.080408 328.286521 
L 217.015867 329.446686 
" style="fill:none;stroke:#999999;"/>
    <path clip-path="url(#pa14ddf159f)" d="M 320.776902 326.096625 
L 321.580505 324.769416 
L 321.860251 323.355251 
L 321.860251 322.048636 
L 321.382722 320.467425 
" style="fill:none;stroke:#999999;"/>
    <path clip-path="url(#pa14ddf159f)" d="M 225.607828 324.888407 
L 225.470628 324.261415 
L 224.813134 322.931917 
L 223.975676 321.81523 
L 222.646435 320.888471 
L 221.317193 320.549804 
L 219.888169 320.382758 
L 218.526854 320.78321 
L 217.705433 321.350706 
L 216.949939 321.941086 
L 216.392228 322.595537 
L 216.048335 323.291178 
L 215.670588 324.112676 
L 215.456769 325.378101 
L 215.472806 326.222481 
" style="fill:none;stroke:#999999;"/>
    <path clip-path="url(#pa14ddf159f)" d="M 225.607828 324.888407 
L 235.354413 324.135558 
L 244.536159 324.433037 
L 256.027151 325.552012 
L 265.465479 325.684733 
L 275.828576 325.124101 
L 296.44964 322.259158 
L 307.684049 321.89532 
L 311.682465 322.533754 
" style="fill:none;stroke:#999999;"/>
    <path clip-path="url(#pa14ddf159f)" d="M 311.682465 322.533754 
L 311.748393 324.030297 
L 312.306104 325.400984 
L 313.191671 326.581743 
L 314.128911 327.432988 
" style="fill:none;stroke:#999999;"/>
    <path clip-path="url(#pa14ddf159f)" d="M 311.682465 322.533754 
L 307.684049 321.89532 
L 296.44964 322.259158 
L 275.828576 325.124101 
L 265.465479 325.684733 
L 256.027151 325.552012 
L 244.536159 324.433037 
L 235.354413 324.135558 
L 225.607828 324.888407 
" style="fill:none;stroke:#999999;"/>
    <path clip-path="url(#pa14ddf159f)" d="M 391.663259 8.307692 
L 378.698698 30.284455 
L 360.224733 54.21542 
L 345.369655 71.228876 
L 333.556153 84.03645 
L 319.934098 97.027087 
L 305.046947 109.871274 
L 268.679892 136.74956 
L 234.178408 160.360164 
L 197.793535 187.153783 
L 177.00676 205.043655 
L 155.093872 227.414004 
" style="fill:none;stroke:#999999;"/>
    <path clip-path="url(#pa14ddf159f)" d="M 194.331448 349.526454 
L 193.159007 347.611153 
L 191.186526 346.535655 
L 188.941426 346.588286 
" style="fill:none;stroke:#999999;"/>
    <path clip-path="url(#pa14ddf159f)" d="M 194.331448 349.526454 
L 197.536952 349.148886 
L 199.774925 347.860577 
L 203.338575 345.009364 
L 205.991713 342.354945 
L 210.309076 336.810412 
L 215.581497 330.105714 
L 217.015867 329.446686 
" style="fill:none;stroke:#999999;"/>
    <path clip-path="url(#pa14ddf159f)" d="M 210.460531 356.086989 
L 212.648613 353.40511 
L 217.851543 345.002499 
" style="fill:none;stroke:#999999;"/>
    <path clip-path="url(#pa14ddf159f)" d="M 210.460531 356.086989 
L 203.612976 362.899236 
L 203.133665 364.578843 
" style="fill:none;stroke:#999999;"/>
    <path clip-path="url(#pa14ddf159f)" d="M 210.460531 356.086989 
L 221.837486 355.512628 
L 227.808383 355.521781 
L 231.070905 356.43481 
" style="fill:none;stroke:#999999;"/>
    <path clip-path="url(#pa14ddf159f)" d="M 243.098226 362.448443 
L 231.600107 365.739008 
" style="fill:none;stroke:#999999;"/>
    <path clip-path="url(#pa14ddf159f)" d="M 243.098226 362.448443 
L 250.66742 359.23568 
" style="fill:none;stroke:#999999;"/>
    <path clip-path="url(#pa14ddf159f)" d="M 243.098226 362.448443 
L 246.136238 362.567434 
L 252.819865 365.915206 
" style="fill:none;stroke:#999999;"/>
    <path clip-path="url(#pa14ddf159f)" d="M 231.070905 356.43481 
L 231.600107 365.739008 
" style="fill:none;stroke:#999999;"/>
    <path clip-path="url(#pa14ddf159f)" d="M 231.070905 356.43481 
L 233.718697 357.208252 
L 241.371637 356.510323 
" style="fill:none;stroke:#999999;"/>
    <path clip-path="url(#pa14ddf159f)" d="M 231.070905 356.43481 
L 227.808383 355.521781 
L 221.837486 355.512628 
L 210.460531 356.086989 
" style="fill:none;stroke:#999999;"/>
    <path clip-path="url(#pa14ddf159f)" d="M 241.631784 401.555364 
L 246.389257 389.054422 
" style="fill:none;stroke:#999999;"/>
    <path clip-path="url(#pa14ddf159f)" d="M 241.631784 401.555364 
L 226.979834 401.5874 
L 222.341742 401.301364 
L 218.421727 400.692678 
L 212.033883 398.514223 
" style="fill:none;stroke:#999999;"/>
    <path clip-path="url(#pa14ddf159f)" d="M 241.631784 401.555364 
L 250.918657 406.562149 
L 252.957065 406.443158 
L 264.378566 385.624271 
L 269.276804 379.578602 
" style="fill:none;stroke:#999999;"/>
    <path clip-path="url(#pa14ddf159f)" d="M 231.600107 365.739008 
L 231.070905 356.43481 
" style="fill:none;stroke:#999999;"/>
    <path clip-path="url(#pa14ddf159f)" d="M 231.600107 365.739008 
L 243.098226 362.448443 
" style="fill:none;stroke:#999999;"/>
    <path clip-path="url(#pa14ddf159f)" d="M 231.600107 365.739008 
L 220.059224 367.649732 
" style="fill:none;stroke:#999999;"/>
    <path clip-path="url(#pa14ddf159f)" d="M 246.389257 389.054422 
L 249.97429 377.12784 
" style="fill:none;stroke:#999999;"/>
    <path clip-path="url(#pa14ddf159f)" d="M 246.389257 389.054422 
L 241.631784 401.555364 
" style="fill:none;stroke:#999999;"/>
    <path clip-path="url(#pa14ddf159f)" d="M 246.389257 389.054422 
L 225.867975 386.070488 
L 221.848177 385.063639 
" style="fill:none;stroke:#999999;"/>
    <path clip-path="url(#pa14ddf159f)" d="M 221.106938 384.878287 
L 221.848177 385.063639 
" style="fill:none;stroke:#999999;"/>
    <path clip-path="url(#pa14ddf159f)" d="M 221.106938 384.878287 
L 216.253245 390.756911 
L 212.033883 398.514223 
" style="fill:none;stroke:#999999;"/>
    <path clip-path="url(#pa14ddf159f)" d="M 221.106938 384.878287 
L 205.865204 378.397843 
L 200.642674 375.395603 
" style="fill:none;stroke:#999999;"/>
    <path clip-path="url(#pa14ddf159f)" d="M 212.033883 398.514223 
L 216.253245 390.756911 
L 221.106938 384.878287 
" style="fill:none;stroke:#999999;"/>
    <path clip-path="url(#pa14ddf159f)" d="M 212.033883 398.514223 
L 203.326102 394.720234 
L 202.445881 394.020017 
L 201.881042 393.088682 
L 199.823034 383.237582 
L 199.776706 381.894354 
L 200.642674 375.395603 
" style="fill:none;stroke:#999999;"/>
    <path clip-path="url(#pa14ddf159f)" d="M 212.033883 398.514223 
L 218.421727 400.692678 
L 222.341742 401.301364 
L 226.979834 401.5874 
L 241.631784 401.555364 
" style="fill:none;stroke:#999999;"/>
    <path clip-path="url(#pa14ddf159f)" d="M 226.758887 369.471213 
L 220.059224 367.649732 
" style="fill:none;stroke:#999999;"/>
    <path clip-path="url(#pa14ddf159f)" d="M 226.758887 369.471213 
L 224.492406 378.812024 
L 221.848177 385.063639 
" style="fill:none;stroke:#999999;"/>
    <path clip-path="url(#pa14ddf159f)" d="M 226.758887 369.471213 
L 231.744435 371.60619 
L 243.046553 373.189688 
L 248.359956 376.210235 
" style="fill:none;stroke:#999999;"/>
    <path clip-path="url(#pa14ddf159f)" d="M 200.642674 375.395603 
L 203.133665 364.578843 
" style="fill:none;stroke:#999999;"/>
    <path clip-path="url(#pa14ddf159f)" d="M 200.642674 375.395603 
L 205.865204 378.397843 
L 221.106938 384.878287 
" style="fill:none;stroke:#999999;"/>
    <path clip-path="url(#pa14ddf159f)" d="M 200.642674 375.395603 
L 199.776706 381.894354 
L 199.823034 383.237582 
L 201.881042 393.088682 
L 202.445881 394.020017 
L 203.326102 394.720234 
L 212.033883 398.514223 
" style="fill:none;stroke:#999999;"/>
    <path clip-path="url(#pa14ddf159f)" d="M 221.848177 385.063639 
L 221.106938 384.878287 
" style="fill:none;stroke:#999999;"/>
    <path clip-path="url(#pa14ddf159f)" d="M 221.848177 385.063639 
L 225.867975 386.070488 
L 246.389257 389.054422 
" style="fill:none;stroke:#999999;"/>
    <path clip-path="url(#pa14ddf159f)" d="M 221.848177 385.063639 
L 224.492406 378.812024 
L 226.758887 369.471213 
" style="fill:none;stroke:#999999;"/>
    <path clip-path="url(#pa14ddf159f)" d="M 217.851543 345.002499 
L 212.648613 353.40511 
L 210.460531 356.086989 
" style="fill:none;stroke:#999999;"/>
    <path clip-path="url(#pa14ddf159f)" d="M 248.359956 376.210235 
L 249.97429 377.12784 
" style="fill:none;stroke:#999999;"/>
    <path clip-path="url(#pa14ddf159f)" d="M 248.359956 376.210235 
L 252.819865 365.915206 
" style="fill:none;stroke:#999999;"/>
    <path clip-path="url(#pa14ddf159f)" d="M 248.359956 376.210235 
L 243.046553 373.189688 
L 231.744435 371.60619 
L 226.758887 369.471213 
" style="fill:none;stroke:#999999;"/>
    <path clip-path="url(#pa14ddf159f)" d="M 252.819865 365.915206 
L 248.359956 376.210235 
" style="fill:none;stroke:#999999;"/>
    <path clip-path="url(#pa14ddf159f)" d="M 252.819865 365.915206 
L 262.183357 370.606206 
L 262.568231 372.066137 
L 259.186327 381.301686 
" style="fill:none;stroke:#999999;"/>
    <path clip-path="url(#pa14ddf159f)" d="M 252.819865 365.915206 
L 246.136238 362.567434 
L 243.098226 362.448443 
" style="fill:none;stroke:#999999;"/>
    <path clip-path="url(#pa14ddf159f)" d="M 250.66742 359.23568 
L 243.098226 362.448443 
" style="fill:none;stroke:#999999;"/>
    <path clip-path="url(#pa14ddf159f)" d="M 241.371637 356.510323 
L 233.718697 357.208252 
L 231.070905 356.43481 
" style="fill:none;stroke:#999999;"/>
   </g>
  </g>
 </g>
 <defs>
  <clipPath id="pa14ddf159f">
   <rect height="432" width="348.799437" x="49.571503" y="0"/>
  </clipPath>
 </defs>
</svg>
