<?xml version="1.0" encoding="utf-8" standalone="no"?>
<!DOCTYPE svg PUBLIC "-//W3C//DTD SVG 1.1//EN"
  "http://www.w3.org/Graphics/SVG/1.1/DTD/svg11.dtd">
<!-- Created with matplotlib (http://matplotlib.org/) -->
<svg height="432pt" version="1.1" viewBox="0 0 968.792189 432" width="968.792189pt" xmlns="http://www.w3.org/2000/svg" xmlns:xlink="http://www.w3.org/1999/xlink">
 <defs>
  <style type="text/css">
*{stroke-linecap:butt;stroke-linejoin:round;}
  </style>
 </defs>
 <g id="figure_1">
  <g id="patch_1">
   <path d="M 0 432 
L 968.792189 432 
L 968.792189 0 
L 0 0 
z
" style="fill:none;opacity:0;"/>
  </g>
  <g id="axes_1">
   <g id="PathCollection_1">
    <defs>
     <path d="M 0 1.936492 
C 0.513564 1.936492 1.006162 1.732451 1.369306 1.369306 
C 1.732451 1.006162 1.936492 0.513564 1.936492 0 
C 1.936492 -0.513564 1.732451 -1.006162 1.369306 -1.369306 
C 1.006162 -1.732451 0.513564 -1.936492 0 -1.936492 
C -0.513564 -1.936492 -1.006162 -1.732451 -1.369306 -1.369306 
C -1.732451 -1.006162 -1.936492 -0.513564 -1.936492 0 
C -1.936492 0.513564 -1.732451 1.006162 -1.369306 1.369306 
C -1.006162 1.732451 -0.513564 1.936492 0 1.936492 
z
" id="C0_0_15a95cb96b"/>
    </defs>
    <g clip-path="url(#pdf79ada526)">
     <use style="fill:#66ccff;" x="846.98135" xlink:href="#C0_0_15a95cb96b" y="228.655701"/>
    </g>
    <g clip-path="url(#pdf79ada526)">
     <use style="fill:#66ccff;" x="840.987523" xlink:href="#C0_0_15a95cb96b" y="233.48228"/>
    </g>
    <g clip-path="url(#pdf79ada526)">
     <use style="fill:#66ccff;" x="686.584991" xlink:href="#C0_0_15a95cb96b" y="335.791152"/>
    </g>
    <g clip-path="url(#pdf79ada526)">
     <use style="fill:#66ccff;" x="647.798712" xlink:href="#C0_0_15a95cb96b" y="289.228289"/>
    </g>
    <g clip-path="url(#pdf79ada526)">
     <use style="fill:#66ccff;" x="664.014276" xlink:href="#C0_0_15a95cb96b" y="313.00801"/>
    </g>
    <g clip-path="url(#pdf79ada526)">
     <use style="fill:#66ccff;" x="682.093773" xlink:href="#C0_0_15a95cb96b" y="331.405244"/>
    </g>
    <g clip-path="url(#pdf79ada526)">
     <use style="fill:#66ccff;" x="663.264217" xlink:href="#C0_0_15a95cb96b" y="351.406181"/>
    </g>
    <g clip-path="url(#pdf79ada526)">
     <use style="fill:#66ccff;" x="686.47161" xlink:href="#C0_0_15a95cb96b" y="319.782934"/>
    </g>
    <g clip-path="url(#pdf79ada526)">
     <use style="fill:#66ccff;" x="677.46384" xlink:href="#C0_0_15a95cb96b" y="333.9223"/>
    </g>
    <g clip-path="url(#pdf79ada526)">
     <use style="fill:#66ccff;" x="670.947962" xlink:href="#C0_0_15a95cb96b" y="311.826306"/>
    </g>
    <g clip-path="url(#pdf79ada526)">
     <use style="fill:#66ccff;" x="678.979741" xlink:href="#C0_0_15a95cb96b" y="308.420439"/>
    </g>
    <g clip-path="url(#pdf79ada526)">
     <use style="fill:#66ccff;" x="677.69351" xlink:href="#C0_0_15a95cb96b" y="316.306111"/>
    </g>
    <g clip-path="url(#pdf79ada526)">
     <use style="fill:#66ccff;" x="678.167384" xlink:href="#C0_0_15a95cb96b" y="320.502626"/>
    </g>
    <g clip-path="url(#pdf79ada526)">
     <use style="fill:#66ccff;" x="675.615273" xlink:href="#C0_0_15a95cb96b" y="312.610552"/>
    </g>
    <g clip-path="url(#pdf79ada526)">
     <use style="fill:#66ccff;" x="682.650296" xlink:href="#C0_0_15a95cb96b" y="327.602452"/>
    </g>
    <g clip-path="url(#pdf79ada526)">
     <use style="fill:#66ccff;" x="679.552876" xlink:href="#C0_0_15a95cb96b" y="312.391817"/>
    </g>
    <g clip-path="url(#pdf79ada526)">
     <use style="fill:#66ccff;" x="700.953233" xlink:href="#C0_0_15a95cb96b" y="321.521079"/>
    </g>
    <g clip-path="url(#pdf79ada526)">
     <use style="fill:#66ccff;" x="665.35076" xlink:href="#C0_0_15a95cb96b" y="332.619491"/>
    </g>
    <g clip-path="url(#pdf79ada526)">
     <use style="fill:#66ccff;" x="683.530764" xlink:href="#C0_0_15a95cb96b" y="317.509688"/>
    </g>
    <g clip-path="url(#pdf79ada526)">
     <use style="fill:#66ccff;" x="665.083712" xlink:href="#C0_0_15a95cb96b" y="315.994546"/>
    </g>
    <g clip-path="url(#pdf79ada526)">
     <use style="fill:#66ccff;" x="667.421936" xlink:href="#C0_0_15a95cb96b" y="321.300743"/>
    </g>
    <g clip-path="url(#pdf79ada526)">
     <use style="fill:#66ccff;" x="669.327402" xlink:href="#C0_0_15a95cb96b" y="313.161125"/>
    </g>
    <g clip-path="url(#pdf79ada526)">
     <use style="fill:#66ccff;" x="682.394877" xlink:href="#C0_0_15a95cb96b" y="338.597365"/>
    </g>
    <g clip-path="url(#pdf79ada526)">
     <use style="fill:#66ccff;" x="681.391476" xlink:href="#C0_0_15a95cb96b" y="331.548222"/>
    </g>
    <g clip-path="url(#pdf79ada526)">
     <use style="fill:#66ccff;" x="682.261145" xlink:href="#C0_0_15a95cb96b" y="326.35086"/>
    </g>
    <g clip-path="url(#pdf79ada526)">
     <use style="fill:#66ccff;" x="674.19448" xlink:href="#C0_0_15a95cb96b" y="330.186729"/>
    </g>
    <g clip-path="url(#pdf79ada526)">
     <use style="fill:#66ccff;" x="662.231743" xlink:href="#C0_0_15a95cb96b" y="324.150703"/>
    </g>
    <g clip-path="url(#pdf79ada526)">
     <use style="fill:#66ccff;" x="686.82795" xlink:href="#C0_0_15a95cb96b" y="324.59671"/>
    </g>
    <g clip-path="url(#pdf79ada526)">
     <use style="fill:#66ccff;" x="682.985455" xlink:href="#C0_0_15a95cb96b" y="327.146842"/>
    </g>
    <g clip-path="url(#pdf79ada526)">
     <use style="fill:#66ccff;" x="676.674326" xlink:href="#C0_0_15a95cb96b" y="333.056428"/>
    </g>
    <g clip-path="url(#pdf79ada526)">
     <use style="fill:#66ccff;" x="672.248313" xlink:href="#C0_0_15a95cb96b" y="327.035874"/>
    </g>
    <g clip-path="url(#pdf79ada526)">
     <use style="fill:#66ccff;" x="778.610515" xlink:href="#C0_0_15a95cb96b" y="315.308998"/>
    </g>
    <g clip-path="url(#pdf79ada526)">
     <use style="fill:#66ccff;" x="529.020666" xlink:href="#C0_0_15a95cb96b" y="146.894603"/>
    </g>
    <g clip-path="url(#pdf79ada526)">
     <use style="fill:#66ccff;" x="663.75595" xlink:href="#C0_0_15a95cb96b" y="346.484104"/>
    </g>
    <g clip-path="url(#pdf79ada526)">
     <use style="fill:#66ccff;" x="677.649902" xlink:href="#C0_0_15a95cb96b" y="341.773294"/>
    </g>
    <g clip-path="url(#pdf79ada526)">
     <use style="fill:#66ccff;" x="680.367308" xlink:href="#C0_0_15a95cb96b" y="312.116531"/>
    </g>
    <g clip-path="url(#pdf79ada526)">
     <use style="fill:#66ccff;" x="839.121512" xlink:href="#C0_0_15a95cb96b" y="236.660877"/>
    </g>
    <g clip-path="url(#pdf79ada526)">
     <use style="fill:#66ccff;" x="788.481724" xlink:href="#C0_0_15a95cb96b" y="306.442752"/>
    </g>
    <g clip-path="url(#pdf79ada526)">
     <use style="fill:#66ccff;" x="683.174423" xlink:href="#C0_0_15a95cb96b" y="337.121703"/>
    </g>
    <g clip-path="url(#pdf79ada526)">
     <use style="fill:#66ccff;" x="666.367036" xlink:href="#C0_0_15a95cb96b" y="331.545555"/>
    </g>
    <g clip-path="url(#pdf79ada526)">
     <use style="fill:#66ccff;" x="661.2516" xlink:href="#C0_0_15a95cb96b" y="324.774899"/>
    </g>
    <g clip-path="url(#pdf79ada526)">
     <use style="fill:#66ccff;" x="671.411038" xlink:href="#C0_0_15a95cb96b" y="326.513044"/>
    </g>
    <g clip-path="url(#pdf79ada526)">
     <use style="fill:#66ccff;" x="684.110128" xlink:href="#C0_0_15a95cb96b" y="332.7534"/>
    </g>
    <g clip-path="url(#pdf79ada526)">
     <use style="fill:#66ccff;" x="664.370616" xlink:href="#C0_0_15a95cb96b" y="308.328143"/>
    </g>
    <g clip-path="url(#pdf79ada526)">
     <use style="fill:#66ccff;" x="660.672235" xlink:href="#C0_0_15a95cb96b" y="327.805716"/>
    </g>
    <g clip-path="url(#pdf79ada526)">
     <use style="fill:#66ccff;" x="687.980865" xlink:href="#C0_0_15a95cb96b" y="335.317404"/>
    </g>
    <g clip-path="url(#pdf79ada526)">
     <use style="fill:#66ccff;" x="669.574099" xlink:href="#C0_0_15a95cb96b" y="320.118506"/>
    </g>
    <g clip-path="url(#pdf79ada526)">
     <use style="fill:#66ccff;" x="674.993961" xlink:href="#C0_0_15a95cb96b" y="315.899583"/>
    </g>
    <g clip-path="url(#pdf79ada526)">
     <use style="fill:#66ccff;" x="673.600995" xlink:href="#C0_0_15a95cb96b" y="314.296414"/>
    </g>
    <g clip-path="url(#pdf79ada526)">
     <use style="fill:#66ccff;" x="839.31048" xlink:href="#C0_0_15a95cb96b" y="233.350506"/>
    </g>
    <g clip-path="url(#pdf79ada526)">
     <use style="fill:#66ccff;" x="840.354582" xlink:href="#C0_0_15a95cb96b" y="232.711372"/>
    </g>
    <g clip-path="url(#pdf79ada526)">
     <use style="fill:#66ccff;" x="676.229524" xlink:href="#C0_0_15a95cb96b" y="317.451003"/>
    </g>
    <g clip-path="url(#pdf79ada526)">
     <use style="fill:#66ccff;" x="662.804463" xlink:href="#C0_0_15a95cb96b" y="326.830477"/>
    </g>
    <g clip-path="url(#pdf79ada526)">
     <use style="fill:#66ccff;" x="685.892661" xlink:href="#C0_0_15a95cb96b" y="332.834492"/>
    </g>
    <g clip-path="url(#pdf79ada526)">
     <use style="fill:#66ccff;" x="671.633647" xlink:href="#C0_0_15a95cb96b" y="336.8987"/>
    </g>
    <g clip-path="url(#pdf79ada526)">
     <use style="fill:#66ccff;" x="670.322497" xlink:href="#C0_0_15a95cb96b" y="335.853038"/>
    </g>
    <g clip-path="url(#pdf79ada526)">
     <use style="fill:#66ccff;" x="121.810839" xlink:href="#C0_0_15a95cb96b" y="409.341142"/>
    </g>
    <g clip-path="url(#pdf79ada526)">
     <use style="fill:#66ccff;" x="689.626344" xlink:href="#C0_0_15a95cb96b" y="333.785724"/>
    </g>
    <g clip-path="url(#pdf79ada526)">
     <use style="fill:#66ccff;" x="670.920551" xlink:href="#C0_0_15a95cb96b" y="323.245886"/>
    </g>
    <g clip-path="url(#pdf79ada526)">
     <use style="fill:#66ccff;" x="672.473414" xlink:href="#C0_0_15a95cb96b" y="318.260857"/>
    </g>
    <g clip-path="url(#pdf79ada526)">
     <use style="fill:#66ccff;" x="679.253018" xlink:href="#C0_0_15a95cb96b" y="332.218299"/>
    </g>
    <g clip-path="url(#pdf79ada526)">
     <use style="fill:#66ccff;" x="673.282448" xlink:href="#C0_0_15a95cb96b" y="322.044976"/>
    </g>
    <g clip-path="url(#pdf79ada526)">
     <use style="fill:#66ccff;" x="669.256383" xlink:href="#C0_0_15a95cb96b" y="323.98105"/>
    </g>
    <g clip-path="url(#pdf79ada526)">
     <use style="fill:#66ccff;" x="688.297335" xlink:href="#C0_0_15a95cb96b" y="334.405651"/>
    </g>
    <g clip-path="url(#pdf79ada526)">
     <use style="fill:#66ccff;" x="678.982233" xlink:href="#C0_0_15a95cb96b" y="322.520859"/>
    </g>
    <g clip-path="url(#pdf79ada526)">
     <use style="fill:#66ccff;" x="688.539879" xlink:href="#C0_0_15a95cb96b" y="334.820715"/>
    </g>
    <g clip-path="url(#pdf79ada526)">
     <use style="fill:#66ccff;" x="667.222585" xlink:href="#C0_0_15a95cb96b" y="314.746155"/>
    </g>
    <g clip-path="url(#pdf79ada526)">
     <use style="fill:#66ccff;" x="709.339276" xlink:href="#C0_0_15a95cb96b" y="316.177004"/>
    </g>
    <g clip-path="url(#pdf79ada526)">
     <use style="fill:#66ccff;" x="672.43562" xlink:href="#C0_0_15a95cb96b" y="309.041433"/>
    </g>
    <g clip-path="url(#pdf79ada526)">
     <use style="fill:#66ccff;" x="701.695401" xlink:href="#C0_0_15a95cb96b" y="322.050311"/>
    </g>
    <g clip-path="url(#pdf79ada526)">
     <use style="fill:#66ccff;" x="687.133622" xlink:href="#C0_0_15a95cb96b" y="332.891043"/>
    </g>
    <g clip-path="url(#pdf79ada526)">
     <use style="fill:#66ccff;" x="429.879548" xlink:href="#C0_0_15a95cb96b" y="8.307692"/>
    </g>
    <g clip-path="url(#pdf79ada526)">
     <use style="fill:#66ccff;" x="674.676661" xlink:href="#C0_0_15a95cb96b" y="315.501592"/>
    </g>
    <g clip-path="url(#pdf79ada526)">
     <use style="fill:#66ccff;" x="664.670474" xlink:href="#C0_0_15a95cb96b" y="338.531745"/>
    </g>
    <g clip-path="url(#pdf79ada526)">
     <use style="fill:#66ccff;" x="667.736745" xlink:href="#C0_0_15a95cb96b" y="340.650276"/>
    </g>
    <g clip-path="url(#pdf79ada526)">
     <use style="fill:#66ccff;" x="681.860782" xlink:href="#C0_0_15a95cb96b" y="338.116681"/>
    </g>
    <g clip-path="url(#pdf79ada526)">
     <use style="fill:#66ccff;" x="676.837961" xlink:href="#C0_0_15a95cb96b" y="314.057939"/>
    </g>
    <g clip-path="url(#pdf79ada526)">
     <use style="fill:#66ccff;" x="682.810192" xlink:href="#C0_0_15a95cb96b" y="315.504793"/>
    </g>
    <g clip-path="url(#pdf79ada526)">
     <use style="fill:#66ccff;" x="680.365232" xlink:href="#C0_0_15a95cb96b" y="319.276108"/>
    </g>
    <g clip-path="url(#pdf79ada526)">
     <use style="fill:#66ccff;" x="678.878404" xlink:href="#C0_0_15a95cb96b" y="317.383782"/>
    </g>
    <g clip-path="url(#pdf79ada526)">
     <use style="fill:#66ccff;" x="684.041601" xlink:href="#C0_0_15a95cb96b" y="327.643532"/>
    </g>
    <g clip-path="url(#pdf79ada526)">
     <use style="fill:#66ccff;" x="685.132219" xlink:href="#C0_0_15a95cb96b" y="328.798027"/>
    </g>
    <g clip-path="url(#pdf79ada526)">
     <use style="fill:#66ccff;" x="687.481241" xlink:href="#C0_0_15a95cb96b" y="329.044504"/>
    </g>
    <g clip-path="url(#pdf79ada526)">
     <use style="fill:#66ccff;" x="686.035529" xlink:href="#C0_0_15a95cb96b" y="329.805276"/>
    </g>
    <g clip-path="url(#pdf79ada526)">
     <use style="fill:#66ccff;" x="688.902865" xlink:href="#C0_0_15a95cb96b" y="326.844881"/>
    </g>
    <g clip-path="url(#pdf79ada526)">
     <use style="fill:#66ccff;" x="686.773544" xlink:href="#C0_0_15a95cb96b" y="327.866001"/>
    </g>
    <g clip-path="url(#pdf79ada526)">
     <use style="fill:#66ccff;" x="677.890784" xlink:href="#C0_0_15a95cb96b" y="309.776597"/>
    </g>
    <g clip-path="url(#pdf79ada526)">
     <use style="fill:#66ccff;" x="675.188744" xlink:href="#C0_0_15a95cb96b" y="306.67109"/>
    </g>
    <g clip-path="url(#pdf79ada526)">
     <use style="fill:#66ccff;" x="687.556413" xlink:href="#C0_0_15a95cb96b" y="334.838854"/>
    </g>
    <g clip-path="url(#pdf79ada526)">
     <use style="fill:#66ccff;" x="672.639955" xlink:href="#C0_0_15a95cb96b" y="309.270839"/>
    </g>
    <g clip-path="url(#pdf79ada526)">
     <use style="fill:#66ccff;" x="688.301904" xlink:href="#C0_0_15a95cb96b" y="335.25125"/>
    </g>
    <g clip-path="url(#pdf79ada526)">
     <use style="fill:#66ccff;" x="231.28292" xlink:href="#C0_0_15a95cb96b" y="409.306465"/>
    </g>
    <g clip-path="url(#pdf79ada526)">
     <use style="fill:#66ccff;" x="666.450514" xlink:href="#C0_0_15a95cb96b" y="307.639394"/>
    </g>
    <g clip-path="url(#pdf79ada526)">
     <use style="fill:#66ccff;" x="664.07948" xlink:href="#C0_0_15a95cb96b" y="320.874476"/>
    </g>
    <g clip-path="url(#pdf79ada526)">
     <use style="fill:#66ccff;" x="676.644839" xlink:href="#C0_0_15a95cb96b" y="305.185291"/>
    </g>
    <g clip-path="url(#pdf79ada526)">
     <use style="fill:#66ccff;" x="662.148265" xlink:href="#C0_0_15a95cb96b" y="323.039422"/>
    </g>
    <g clip-path="url(#pdf79ada526)">
     <use style="fill:#66ccff;" x="673.007094" xlink:href="#C0_0_15a95cb96b" y="309.682701"/>
    </g>
    <g clip-path="url(#pdf79ada526)">
     <use style="fill:#66ccff;" x="672.524498" xlink:href="#C0_0_15a95cb96b" y="332.630695"/>
    </g>
    <g clip-path="url(#pdf79ada526)">
     <use style="fill:#66ccff;" x="729.104122" xlink:href="#C0_0_15a95cb96b" y="304.439991"/>
    </g>
    <g clip-path="url(#pdf79ada526)">
     <use style="fill:#66ccff;" x="668.7389" xlink:href="#C0_0_15a95cb96b" y="329.178946"/>
    </g>
    <g clip-path="url(#pdf79ada526)">
     <use style="fill:#66ccff;" x="684.857695" xlink:href="#C0_0_15a95cb96b" y="336.169938"/>
    </g>
    <g clip-path="url(#pdf79ada526)">
     <use style="fill:#66ccff;" x="683.582263" xlink:href="#C0_0_15a95cb96b" y="332.400223"/>
    </g>
    <g clip-path="url(#pdf79ada526)">
     <use style="fill:#66ccff;" x="686.287625" xlink:href="#C0_0_15a95cb96b" y="331.522614"/>
    </g>
    <g clip-path="url(#pdf79ada526)">
     <use style="fill:#66ccff;" x="683.844742" xlink:href="#C0_0_15a95cb96b" y="331.544488"/>
    </g>
    <g clip-path="url(#pdf79ada526)">
     <use style="fill:#66ccff;" x="683.379174" xlink:href="#C0_0_15a95cb96b" y="329.422222"/>
    </g>
    <g clip-path="url(#pdf79ada526)">
     <use style="fill:#66ccff;" x="690.09648" xlink:href="#C0_0_15a95cb96b" y="329.395014"/>
    </g>
    <g clip-path="url(#pdf79ada526)">
     <use style="fill:#66ccff;" x="688.388289" xlink:href="#C0_0_15a95cb96b" y="325.74587"/>
    </g>
    <g clip-path="url(#pdf79ada526)">
     <use style="fill:#66ccff;" x="690.380141" xlink:href="#C0_0_15a95cb96b" y="325.248114"/>
    </g>
    <g clip-path="url(#pdf79ada526)">
     <use style="fill:#66ccff;" x="686.637321" xlink:href="#C0_0_15a95cb96b" y="326.183874"/>
    </g>
    <g clip-path="url(#pdf79ada526)">
     <use style="fill:#66ccff;" x="685.924225" xlink:href="#C0_0_15a95cb96b" y="326.451158"/>
    </g>
    <g clip-path="url(#pdf79ada526)">
     <use style="fill:#66ccff;" x="688.688977" xlink:href="#C0_0_15a95cb96b" y="331.055801"/>
    </g>
    <g clip-path="url(#pdf79ada526)">
     <use style="fill:#66ccff;" x="690.513872" xlink:href="#C0_0_15a95cb96b" y="328.902593"/>
    </g>
    <g clip-path="url(#pdf79ada526)">
     <use style="fill:#66ccff;" x="841.938179" xlink:href="#C0_0_15a95cb96b" y="233.854664"/>
    </g>
    <g clip-path="url(#pdf79ada526)">
     <use style="fill:#66ccff;" x="620.279102" xlink:href="#C0_0_15a95cb96b" y="20.861494"/>
    </g>
    <g clip-path="url(#pdf79ada526)">
     <use style="fill:#66ccff;" x="687.881605" xlink:href="#C0_0_15a95cb96b" y="334.375775"/>
    </g>
    <g clip-path="url(#pdf79ada526)">
     <use style="fill:#66ccff;" x="674.004681" xlink:href="#C0_0_15a95cb96b" y="323.230948"/>
    </g>
   </g>
   <g id="LineCollection_1">
    <path clip-path="url(#pdf79ada526)" d="M 846.98135 228.655701 
L 843.737324 230.547494 
L 840.354582 232.711372 
" style="fill:none;stroke:#999999;"/>
    <path clip-path="url(#pdf79ada526)" d="M 846.98135 228.655701 
L 844.91848 230.753425 
L 842.799127 232.996795 
L 841.938179 233.854664 
" style="fill:none;stroke:#999999;"/>
    <path clip-path="url(#pdf79ada526)" d="M 840.987523 233.48228 
L 841.276997 233.705284 
L 841.938179 233.854664 
" style="fill:none;stroke:#999999;"/>
    <path clip-path="url(#pdf79ada526)" d="M 840.987523 233.48228 
L 841.087614 233.90588 
L 840.976309 234.362556 
L 839.728702 235.743789 
L 839.121512 236.660877 
" style="fill:none;stroke:#999999;"/>
    <path clip-path="url(#pdf79ada526)" d="M 686.584991 335.791152 
L 682.394877 338.597365 
" style="fill:none;stroke:#999999;"/>
    <path clip-path="url(#pdf79ada526)" d="M 686.584991 335.791152 
L 687.980865 335.317404 
" style="fill:none;stroke:#999999;"/>
    <path clip-path="url(#pdf79ada526)" d="M 647.798712 289.228289 
L 649.832926 291.311075 
L 653.814552 296.681826 
L 658.853155 301.100811 
L 662.792834 304.233526 
L 663.436988 304.833181 
L 666.450514 307.639394 
" style="fill:none;stroke:#999999;"/>
    <path clip-path="url(#pdf79ada526)" d="M 647.798712 289.228289 
L 646.830613 287.938818 
L 643.777216 285.632495 
L 639.190891 282.237831 
L 636.871772 279.734113 
L 634.937649 277.429924 
L 621.866436 260.759631 
L 614.534879 251.427639 
L 611.879354 246.645874 
L 607.293444 236.306632 
L 604.771236 230.963624 
L 603.806874 229.794191 
L 597.24448 221.834362 
L 592.563878 215.883697 
L 585.154241 204.750073 
L 581.124023 193.772766 
L 578.978921 186.793511 
L 575.262681 183.354566 
L 572.804431 181.476111 
L 554.362779 174.566745 
L 546.8788 174.087128 
L 540.623324 171.517255 
L 535.876272 169.175721 
L 532.365613 166.698678 
L 530.883354 164.890111 
L 529.762834 162.256219 
L 529.050984 160.338818 
L 528.237797 158.85782 
L 528.082884 157.915125 
L 528.279328 154.223301 
L 529.020666 146.894603 
" style="fill:none;stroke:#999999;"/>
    <path clip-path="url(#pdf79ada526)" d="M 664.014276 313.00801 
L 665.083712 315.994546 
" style="fill:none;stroke:#999999;"/>
    <path clip-path="url(#pdf79ada526)" d="M 682.093773 331.405244 
L 683.582263 332.400223 
" style="fill:none;stroke:#999999;"/>
    <path clip-path="url(#pdf79ada526)" d="M 682.093773 331.405244 
L 681.391476 331.548222 
" style="fill:none;stroke:#999999;"/>
    <path clip-path="url(#pdf79ada526)" d="M 682.093773 331.405244 
L 683.844742 331.544488 
" style="fill:none;stroke:#999999;"/>
    <path clip-path="url(#pdf79ada526)" d="M 682.093773 331.405244 
L 682.994592 329.521454 
L 683.379174 329.422222 
" style="fill:none;stroke:#999999;"/>
    <path clip-path="url(#pdf79ada526)" d="M 663.264217 351.406181 
L 663.75595 346.484104 
" style="fill:none;stroke:#999999;"/>
    <path clip-path="url(#pdf79ada526)" d="M 663.264217 351.406181 
L 666.961352 348.962215 
L 677.649902 341.773294 
" style="fill:none;stroke:#999999;"/>
    <path clip-path="url(#pdf79ada526)" d="M 663.264217 351.406181 
L 640.955565 366.408217 
L 639.342481 367.284758 
L 637.432447 367.961237 
L 632.536712 369.073052 
L 630.869638 369.601218 
L 629.081291 370.291568 
L 619.839699 374.539833 
L 617.809223 375.207242 
L 616.102693 375.535345 
L 607.286799 376.802409 
L 604.885032 377.270289 
L 576.795194 386.083718 
L 574.706574 386.624154 
L 572.42774 386.953858 
L 541.057328 389.208431 
L 538.835808 389.433568 
L 536.696104 389.860369 
L 534.877024 390.403472 
L 532.98651 391.184517 
L 531.40582 392.100538 
L 502.125274 410.609807 
L 498.366672 412.308472 
L 495.37931 413.185547 
L 480.004345 417.148923 
L 474.560394 418.313555 
L 456.073057 421.071219 
L 440.358364 423.36954 
L 437.306213 423.669367 
L 434.766146 423.692308 
L 432.259719 423.500781 
L 429.381585 423.140135 
L 340.593028 409.214169 
L 338.36237 408.923411 
L 336.138773 408.778299 
L 231.28292 409.306465 
" style="fill:none;stroke:#999999;"/>
    <path clip-path="url(#pdf79ada526)" d="M 686.47161 319.782934 
L 686.82795 324.59671 
" style="fill:none;stroke:#999999;"/>
    <path clip-path="url(#pdf79ada526)" d="M 686.47161 319.782934 
L 678.982233 322.520859 
" style="fill:none;stroke:#999999;"/>
    <path clip-path="url(#pdf79ada526)" d="M 686.47161 319.782934 
L 685.669637 318.935735 
L 683.530764 317.509688 
" style="fill:none;stroke:#999999;"/>
    <path clip-path="url(#pdf79ada526)" d="M 677.46384 333.9223 
L 676.674326 333.056428 
" style="fill:none;stroke:#999999;"/>
    <path clip-path="url(#pdf79ada526)" d="M 677.46384 333.9223 
L 679.253018 332.218299 
" style="fill:none;stroke:#999999;"/>
    <path clip-path="url(#pdf79ada526)" d="M 677.46384 333.9223 
L 678.674069 335.249649 
L 681.860782 338.116681 
" style="fill:none;stroke:#999999;"/>
    <path clip-path="url(#pdf79ada526)" d="M 670.947962 311.826306 
L 673.600995 314.296414 
" style="fill:none;stroke:#999999;"/>
    <path clip-path="url(#pdf79ada526)" d="M 670.947962 311.826306 
L 666.450514 307.639394 
" style="fill:none;stroke:#999999;"/>
    <path clip-path="url(#pdf79ada526)" d="M 670.947962 311.826306 
L 669.327402 313.161125 
" style="fill:none;stroke:#999999;"/>
    <path clip-path="url(#pdf79ada526)" d="M 670.947962 311.826306 
L 673.007094 309.682701 
" style="fill:none;stroke:#999999;"/>
    <path clip-path="url(#pdf79ada526)" d="M 678.979741 308.420439 
L 677.890784 309.776597 
" style="fill:none;stroke:#999999;"/>
    <path clip-path="url(#pdf79ada526)" d="M 678.979741 308.420439 
L 679.864362 306.511574 
L 681.58169 304.156169 
L 682.584261 303.287096 
L 683.185637 300.702286 
L 680.891021 300.144778 
L 679.309086 299.275705 
L 678.573978 298.852639 
L 677.682712 298.741138 
L 674.942462 298.250851 
L 672.848028 298.339945 
L 671.577995 298.852639 
L 675.452885 303.647743 
L 676.644839 305.185291 
" style="fill:none;stroke:#999999;"/>
    <path clip-path="url(#pdf79ada526)" d="M 678.979741 308.420439 
L 678.460181 307.351837 
L 676.644839 305.185291 
" style="fill:none;stroke:#999999;"/>
    <path clip-path="url(#pdf79ada526)" d="M 678.979741 308.420439 
L 680.322454 311.180771 
L 680.367308 312.116531 
" style="fill:none;stroke:#999999;"/>
    <path clip-path="url(#pdf79ada526)" d="M 677.69351 316.306111 
L 676.229524 317.451003 
" style="fill:none;stroke:#999999;"/>
    <path clip-path="url(#pdf79ada526)" d="M 677.69351 316.306111 
L 679.552876 312.391817 
" style="fill:none;stroke:#999999;"/>
    <path clip-path="url(#pdf79ada526)" d="M 677.69351 316.306111 
L 678.878404 317.383782 
" style="fill:none;stroke:#999999;"/>
    <path clip-path="url(#pdf79ada526)" d="M 678.167384 320.502626 
L 678.982233 322.520859 
" style="fill:none;stroke:#999999;"/>
    <path clip-path="url(#pdf79ada526)" d="M 678.167384 320.502626 
L 680.365232 319.276108 
" style="fill:none;stroke:#999999;"/>
    <path clip-path="url(#pdf79ada526)" d="M 678.167384 320.502626 
L 677.6607 319.247299 
L 676.229524 317.451003 
" style="fill:none;stroke:#999999;"/>
    <path clip-path="url(#pdf79ada526)" d="M 675.615273 312.610552 
L 677.890784 309.776597 
" style="fill:none;stroke:#999999;"/>
    <path clip-path="url(#pdf79ada526)" d="M 675.615273 312.610552 
L 673.007094 309.682701 
" style="fill:none;stroke:#999999;"/>
    <path clip-path="url(#pdf79ada526)" d="M 675.615273 312.610552 
L 676.837961 314.057939 
" style="fill:none;stroke:#999999;"/>
    <path clip-path="url(#pdf79ada526)" d="M 675.615273 312.610552 
L 675.332028 312.963196 
L 673.600995 314.296414 
" style="fill:none;stroke:#999999;"/>
    <path clip-path="url(#pdf79ada526)" d="M 682.650296 327.602452 
L 682.985455 327.146842 
" style="fill:none;stroke:#999999;"/>
    <path clip-path="url(#pdf79ada526)" d="M 682.650296 327.602452 
L 679.253018 332.218299 
" style="fill:none;stroke:#999999;"/>
    <path clip-path="url(#pdf79ada526)" d="M 682.650296 327.602452 
L 683.308155 329.098388 
L 683.379174 329.422222 
" style="fill:none;stroke:#999999;"/>
    <path clip-path="url(#pdf79ada526)" d="M 679.552876 312.391817 
L 680.367308 312.116531 
" style="fill:none;stroke:#999999;"/>
    <path clip-path="url(#pdf79ada526)" d="M 679.552876 312.391817 
L 677.69351 316.306111 
" style="fill:none;stroke:#999999;"/>
    <path clip-path="url(#pdf79ada526)" d="M 679.552876 312.391817 
L 677.203438 313.186199 
L 676.837961 314.057939 
" style="fill:none;stroke:#999999;"/>
    <path clip-path="url(#pdf79ada526)" d="M 700.953233 321.521079 
L 701.695401 322.050311 
" style="fill:none;stroke:#999999;"/>
    <path clip-path="url(#pdf79ada526)" d="M 700.953233 321.521079 
L 709.339276 316.177004 
" style="fill:none;stroke:#999999;"/>
    <path clip-path="url(#pdf79ada526)" d="M 700.953233 321.521079 
L 697.352866 322.637696 
L 686.82795 324.59671 
" style="fill:none;stroke:#999999;"/>
    <path clip-path="url(#pdf79ada526)" d="M 665.35076 332.619491 
L 666.367036 331.545555 
" style="fill:none;stroke:#999999;"/>
    <path clip-path="url(#pdf79ada526)" d="M 665.35076 332.619491 
L 664.670474 338.531745 
" style="fill:none;stroke:#999999;"/>
    <path clip-path="url(#pdf79ada526)" d="M 665.35076 332.619491 
L 663.880544 333.288501 
L 660.672235 327.805716 
" style="fill:none;stroke:#999999;"/>
    <path clip-path="url(#pdf79ada526)" d="M 683.530764 317.509688 
L 680.365232 319.276108 
" style="fill:none;stroke:#999999;"/>
    <path clip-path="url(#pdf79ada526)" d="M 683.530764 317.509688 
L 682.810192 315.504793 
" style="fill:none;stroke:#999999;"/>
    <path clip-path="url(#pdf79ada526)" d="M 683.530764 317.509688 
L 685.669637 318.935735 
L 686.47161 319.782934 
" style="fill:none;stroke:#999999;"/>
    <path clip-path="url(#pdf79ada526)" d="M 665.083712 315.994546 
L 664.014276 313.00801 
" style="fill:none;stroke:#999999;"/>
    <path clip-path="url(#pdf79ada526)" d="M 665.083712 315.994546 
L 667.421936 321.300743 
" style="fill:none;stroke:#999999;"/>
    <path clip-path="url(#pdf79ada526)" d="M 665.083712 315.994546 
L 667.222585 314.746155 
" style="fill:none;stroke:#999999;"/>
    <path clip-path="url(#pdf79ada526)" d="M 665.083712 315.994546 
L 661.773651 318.066129 
L 662.148265 323.039422 
" style="fill:none;stroke:#999999;"/>
    <path clip-path="url(#pdf79ada526)" d="M 667.421936 321.300743 
L 662.231743 324.150703 
" style="fill:none;stroke:#999999;"/>
    <path clip-path="url(#pdf79ada526)" d="M 667.421936 321.300743 
L 669.574099 320.118506 
" style="fill:none;stroke:#999999;"/>
    <path clip-path="url(#pdf79ada526)" d="M 667.421936 321.300743 
L 665.083712 315.994546 
" style="fill:none;stroke:#999999;"/>
    <path clip-path="url(#pdf79ada526)" d="M 667.421936 321.300743 
L 669.256383 323.98105 
" style="fill:none;stroke:#999999;"/>
    <path clip-path="url(#pdf79ada526)" d="M 669.327402 313.161125 
L 670.947962 311.826306 
" style="fill:none;stroke:#999999;"/>
    <path clip-path="url(#pdf79ada526)" d="M 669.327402 313.161125 
L 667.222585 314.746155 
" style="fill:none;stroke:#999999;"/>
    <path clip-path="url(#pdf79ada526)" d="M 669.327402 313.161125 
L 671.366184 316.752117 
L 672.473414 318.260857 
" style="fill:none;stroke:#999999;"/>
    <path clip-path="url(#pdf79ada526)" d="M 669.327402 313.161125 
L 667.267024 309.53172 
L 666.450514 307.639394 
" style="fill:none;stroke:#999999;"/>
    <path clip-path="url(#pdf79ada526)" d="M 682.394877 338.597365 
L 681.860782 338.116681 
" style="fill:none;stroke:#999999;"/>
    <path clip-path="url(#pdf79ada526)" d="M 682.394877 338.597365 
L 686.584991 335.791152 
" style="fill:none;stroke:#999999;"/>
    <path clip-path="url(#pdf79ada526)" d="M 682.394877 338.597365 
L 677.649902 341.773294 
" style="fill:none;stroke:#999999;"/>
    <path clip-path="url(#pdf79ada526)" d="M 681.391476 331.548222 
L 682.093773 331.405244 
" style="fill:none;stroke:#999999;"/>
    <path clip-path="url(#pdf79ada526)" d="M 681.391476 331.548222 
L 679.253018 332.218299 
" style="fill:none;stroke:#999999;"/>
    <path clip-path="url(#pdf79ada526)" d="M 681.391476 331.548222 
L 683.174423 337.121703 
" style="fill:none;stroke:#999999;"/>
    <path clip-path="url(#pdf79ada526)" d="M 682.261145 326.35086 
L 682.985455 327.146842 
" style="fill:none;stroke:#999999;"/>
    <path clip-path="url(#pdf79ada526)" d="M 682.261145 326.35086 
L 686.82795 324.59671 
" style="fill:none;stroke:#999999;"/>
    <path clip-path="url(#pdf79ada526)" d="M 682.261145 326.35086 
L 679.147528 322.930054 
L 678.982233 322.520859 
" style="fill:none;stroke:#999999;"/>
    <path clip-path="url(#pdf79ada526)" d="M 674.19448 330.186729 
L 672.524498 332.630695 
" style="fill:none;stroke:#999999;"/>
    <path clip-path="url(#pdf79ada526)" d="M 674.19448 330.186729 
L 675.287589 326.736047 
L 677.292731 323.883419 
L 678.452706 322.947659 
L 678.982233 322.520859 
" style="fill:none;stroke:#999999;"/>
    <path clip-path="url(#pdf79ada526)" d="M 674.19448 330.186729 
L 674.975688 331.193444 
L 676.674326 333.056428 
" style="fill:none;stroke:#999999;"/>
    <path clip-path="url(#pdf79ada526)" d="M 674.19448 330.186729 
L 672.658645 328.206908 
L 672.248313 327.035874 
" style="fill:none;stroke:#999999;"/>
    <path clip-path="url(#pdf79ada526)" d="M 662.231743 324.150703 
L 661.2516 324.774899 
" style="fill:none;stroke:#999999;"/>
    <path clip-path="url(#pdf79ada526)" d="M 662.231743 324.150703 
L 667.421936 321.300743 
" style="fill:none;stroke:#999999;"/>
    <path clip-path="url(#pdf79ada526)" d="M 662.231743 324.150703 
L 662.148265 323.039422 
" style="fill:none;stroke:#999999;"/>
    <path clip-path="url(#pdf79ada526)" d="M 686.82795 324.59671 
L 686.47161 319.782934 
" style="fill:none;stroke:#999999;"/>
    <path clip-path="url(#pdf79ada526)" d="M 686.82795 324.59671 
L 682.261145 326.35086 
" style="fill:none;stroke:#999999;"/>
    <path clip-path="url(#pdf79ada526)" d="M 686.82795 324.59671 
L 686.637321 326.183874 
" style="fill:none;stroke:#999999;"/>
    <path clip-path="url(#pdf79ada526)" d="M 686.82795 324.59671 
L 697.352866 322.637696 
L 700.953233 321.521079 
" style="fill:none;stroke:#999999;"/>
    <path clip-path="url(#pdf79ada526)" d="M 682.985455 327.146842 
L 682.261145 326.35086 
" style="fill:none;stroke:#999999;"/>
    <path clip-path="url(#pdf79ada526)" d="M 682.985455 327.146842 
L 682.650296 327.602452 
" style="fill:none;stroke:#999999;"/>
    <path clip-path="url(#pdf79ada526)" d="M 682.985455 327.146842 
L 683.46639 327.675008 
L 684.740577 329.020496 
L 686.287625 331.522614 
" style="fill:none;stroke:#999999;"/>
    <path clip-path="url(#pdf79ada526)" d="M 676.674326 333.056428 
L 671.633647 336.8987 
" style="fill:none;stroke:#999999;"/>
    <path clip-path="url(#pdf79ada526)" d="M 676.674326 333.056428 
L 677.46384 333.9223 
" style="fill:none;stroke:#999999;"/>
    <path clip-path="url(#pdf79ada526)" d="M 676.674326 333.056428 
L 674.975688 331.193444 
L 674.19448 330.186729 
" style="fill:none;stroke:#999999;"/>
    <path clip-path="url(#pdf79ada526)" d="M 672.248313 327.035874 
L 670.920551 323.245886 
" style="fill:none;stroke:#999999;"/>
    <path clip-path="url(#pdf79ada526)" d="M 672.248313 327.035874 
L 671.411038 326.513044 
" style="fill:none;stroke:#999999;"/>
    <path clip-path="url(#pdf79ada526)" d="M 672.248313 327.035874 
L 672.658645 328.206908 
L 674.19448 330.186729 
" style="fill:none;stroke:#999999;"/>
    <path clip-path="url(#pdf79ada526)" d="M 778.610515 315.308998 
L 776.464166 313.766115 
L 773.574819 312.034905 
L 769.728586 310.631265 
L 763.14418 309.079845 
L 761.044762 308.770949 
L 754.779733 308.283329 
L 747.829019 308.193168 
L 743.369781 308.301468 
L 741.237138 307.940822 
L 731.289926 306.008483 
L 730.064331 305.471781 
L 729.275232 304.670997 
L 729.104122 304.439991 
" style="fill:none;stroke:#999999;"/>
    <path clip-path="url(#pdf79ada526)" d="M 529.020666 146.894603 
L 529.212541 146.517418 
L 529.598784 146.314688 
L 530.138279 146.297616 
L 531.135035 146.348299 
L 531.726444 146.399515 
L 535.406966 146.65026 
L 541.676978 147.026378 
L 544.441316 151.833218 
L 548.26886 150.381563 
L 562.991781 142.739701 
L 577.042722 135.28403 
L 578.694845 125.276627 
L 581.801402 116.880395 
L 584.781704 106.003385 
L 586.630687 97.868034 
L 593.678169 70.890511 
L 594.491356 68.763978 
L 595.993135 67.051441 
L 604.893338 62.3497 
L 606.007629 60.931122 
L 606.096506 57.759995 
L 607.385229 52.033933 
L 614.960161 42.448528 
L 615.766288 41.079032 
L 620.279102 20.861494 
" style="fill:none;stroke:#999999;"/>
    <path clip-path="url(#pdf79ada526)" d="M 529.020666 146.894603 
L 528.279328 154.223301 
L 528.082884 157.915125 
L 528.237797 158.85782 
L 529.050984 160.338818 
L 529.762834 162.256219 
L 530.883354 164.890111 
L 532.365613 166.698678 
L 535.876272 169.175721 
L 540.623324 171.517255 
L 546.8788 174.087128 
L 554.362779 174.566745 
L 572.804431 181.476111 
L 575.262681 183.354566 
L 578.978921 186.793511 
L 581.124023 193.772766 
L 585.154241 204.750073 
L 592.563878 215.883697 
L 597.24448 221.834362 
L 603.806874 229.794191 
L 604.771236 230.963624 
L 607.293444 236.306632 
L 611.879354 246.645874 
L 614.534879 251.427639 
L 621.866436 260.759631 
L 634.937649 277.429924 
L 636.871772 279.734113 
L 639.190891 282.237831 
L 643.777216 285.632495 
L 646.830613 287.938818 
L 647.798712 289.228289 
" style="fill:none;stroke:#999999;"/>
    <path clip-path="url(#pdf79ada526)" d="M 529.020666 146.894603 
L 528.957538 145.952975 
L 529.109543 144.315128 
L 529.126571 142.829863 
L 529.160211 139.453337 
L 528.704195 135.756178 
L 528.721223 134.642229 
L 528.4006 132.396725 
L 528.349932 131.215555 
L 528.180898 130.45585 
L 527.117276 126.539422 
L 526.407918 123.365628 
L 525.716003 120.665048 
L 525.277015 119.669002 
L 524.753303 118.75725 
L 524.212978 118.233885 
L 523.504035 117.761204 
L 522.642671 117.423498 
L 522.018037 117.204229 
L 521.731055 117.001499 
L 521.444072 116.444525 
L 521.376375 115.938232 
L 521.731055 114.064578 
L 521.680386 113.456921 
L 521.528381 112.950629 
L 519.738788 109.861127 
L 507.885695 89.403514 
L 507.497375 88.728103 
L 505.673726 84.997867 
L 505.015452 83.9346 
L 504.137476 82.600849 
L 503.495814 81.453289 
L 502.364495 79.343294 
L 501.148868 76.828372 
L 500.085246 74.07711 
L 499.696926 72.203989 
L 499.274551 70.4317 
L 499.004596 69.789899 
L 498.582221 69.097949 
L 498.025283 68.355316 
L 495.830343 65.300492 
L 494.834002 63.595957 
L 494.293677 62.549229 
L 492.841735 58.954502 
L 491.761085 55.764703 
L 491.136451 53.114805 
L 490.950805 50.447836 
L 490.781772 49.62091 
L 490.562486 49.013253 
L 488.873814 46.566086 
L 488.620472 46.076866 
L 488.282821 44.810869 
L 488.012866 44.034625 
L 487.472541 42.904138 
L 486.121521 40.439898 
L 484.838613 38.583316 
L 484.044946 37.790001 
L 482.77865 36.760879 
L 481.224956 35.562636 
L 478.777089 34.128053 
L 476.717126 33.098397 
L 474.842809 32.355764 
L 473.053216 31.579521 
L 466.569316 28.524697 
L 465.995351 27.968256 
L 465.066706 27.107186 
L 464.053752 26.449379 
L 461.369156 24.559187 
L 459.798849 23.597285 
L 458.32988 22.719677 
L 456.826854 22.078409 
L 450.411066 20.086852 
L 442.74518 17.217685 
L 441.799923 16.829831 
L 440.921946 16.39076 
L 437.241009 14.179933 
L 435.164018 12.728812 
L 432.395112 10.433692 
L 430.419873 8.864133 
L 429.879548 8.307692 
" style="fill:none;stroke:#999999;"/>
    <path clip-path="url(#pdf79ada526)" d="M 663.75595 346.484104 
L 663.264217 351.406181 
" style="fill:none;stroke:#999999;"/>
    <path clip-path="url(#pdf79ada526)" d="M 663.75595 346.484104 
L 664.670474 338.531745 
" style="fill:none;stroke:#999999;"/>
    <path clip-path="url(#pdf79ada526)" d="M 663.75595 346.484104 
L 667.186868 341.670329 
L 667.736745 340.650276 
" style="fill:none;stroke:#999999;"/>
    <path clip-path="url(#pdf79ada526)" d="M 677.649902 341.773294 
L 682.394877 338.597365 
" style="fill:none;stroke:#999999;"/>
    <path clip-path="url(#pdf79ada526)" d="M 677.649902 341.773294 
L 671.633647 336.8987 
" style="fill:none;stroke:#999999;"/>
    <path clip-path="url(#pdf79ada526)" d="M 677.649902 341.773294 
L 666.961352 348.962215 
L 663.264217 351.406181 
" style="fill:none;stroke:#999999;"/>
    <path clip-path="url(#pdf79ada526)" d="M 680.367308 312.116531 
L 679.552876 312.391817 
" style="fill:none;stroke:#999999;"/>
    <path clip-path="url(#pdf79ada526)" d="M 680.367308 312.116531 
L 682.505766 314.65706 
L 682.810192 315.504793 
" style="fill:none;stroke:#999999;"/>
    <path clip-path="url(#pdf79ada526)" d="M 680.367308 312.116531 
L 680.322454 311.180771 
L 678.979741 308.420439 
" style="fill:none;stroke:#999999;"/>
    <path clip-path="url(#pdf79ada526)" d="M 839.121512 236.660877 
L 841.938179 233.854664 
" style="fill:none;stroke:#999999;"/>
    <path clip-path="url(#pdf79ada526)" d="M 839.121512 236.660877 
L 838.215294 237.582766 
L 830.475482 245.734121 
L 815.720997 265.508853 
L 814.605045 267.324889 
L 810.554477 276.53471 
L 810.121718 277.180779 
L 807.890646 280.510356 
L 798.491649 294.538754 
L 788.481724 306.442752 
" style="fill:none;stroke:#999999;"/>
    <path clip-path="url(#pdf79ada526)" d="M 788.481724 306.442752 
L 786.830016 307.899742 
L 784.870144 310.172988 
L 783.728027 311.518477 
L 782.853374 312.292586 
L 781.347026 313.416138 
L 779.674552 314.405782 
L 778.610515 315.308998 
" style="fill:none;stroke:#999999;"/>
    <path clip-path="url(#pdf79ada526)" d="M 788.481724 306.442752 
L 798.491649 294.538754 
L 807.890646 280.510356 
L 810.121718 277.180779 
L 810.554477 276.53471 
L 814.605045 267.324889 
L 815.720997 265.508853 
L 830.475482 245.734121 
L 838.215294 237.582766 
L 839.121512 236.660877 
" style="fill:none;stroke:#999999;"/>
    <path clip-path="url(#pdf79ada526)" d="M 683.174423 337.121703 
L 684.857695 336.169938 
" style="fill:none;stroke:#999999;"/>
    <path clip-path="url(#pdf79ada526)" d="M 683.174423 337.121703 
L 681.860782 338.116681 
" style="fill:none;stroke:#999999;"/>
    <path clip-path="url(#pdf79ada526)" d="M 683.174423 337.121703 
L 681.391476 331.548222 
" style="fill:none;stroke:#999999;"/>
    <path clip-path="url(#pdf79ada526)" d="M 666.367036 331.545555 
L 668.7389 329.178946 
" style="fill:none;stroke:#999999;"/>
    <path clip-path="url(#pdf79ada526)" d="M 666.367036 331.545555 
L 665.35076 332.619491 
" style="fill:none;stroke:#999999;"/>
    <path clip-path="url(#pdf79ada526)" d="M 666.367036 331.545555 
L 662.804463 326.830477 
" style="fill:none;stroke:#999999;"/>
    <path clip-path="url(#pdf79ada526)" d="M 666.367036 331.545555 
L 668.559069 334.447264 
L 670.322497 335.853038 
" style="fill:none;stroke:#999999;"/>
    <path clip-path="url(#pdf79ada526)" d="M 661.2516 324.774899 
L 662.804463 326.830477 
" style="fill:none;stroke:#999999;"/>
    <path clip-path="url(#pdf79ada526)" d="M 661.2516 324.774899 
L 662.231743 324.150703 
" style="fill:none;stroke:#999999;"/>
    <path clip-path="url(#pdf79ada526)" d="M 661.2516 324.774899 
L 658.453206 325.846702 
L 660.672235 327.805716 
" style="fill:none;stroke:#999999;"/>
    <path clip-path="url(#pdf79ada526)" d="M 671.411038 326.513044 
L 668.7389 329.178946 
" style="fill:none;stroke:#999999;"/>
    <path clip-path="url(#pdf79ada526)" d="M 671.411038 326.513044 
L 669.256383 323.98105 
" style="fill:none;stroke:#999999;"/>
    <path clip-path="url(#pdf79ada526)" d="M 671.411038 326.513044 
L 672.248313 327.035874 
" style="fill:none;stroke:#999999;"/>
    <path clip-path="url(#pdf79ada526)" d="M 684.110128 332.7534 
L 685.892661 332.834492 
" style="fill:none;stroke:#999999;"/>
    <path clip-path="url(#pdf79ada526)" d="M 684.110128 332.7534 
L 683.582263 332.400223 
" style="fill:none;stroke:#999999;"/>
    <path clip-path="url(#pdf79ada526)" d="M 684.110128 332.7534 
L 683.844742 331.544488 
" style="fill:none;stroke:#999999;"/>
    <path clip-path="url(#pdf79ada526)" d="M 664.370616 308.328143 
L 666.331319 311.537149 
L 667.222585 314.746155 
" style="fill:none;stroke:#999999;"/>
    <path clip-path="url(#pdf79ada526)" d="M 660.672235 327.805716 
L 662.804463 326.830477 
" style="fill:none;stroke:#999999;"/>
    <path clip-path="url(#pdf79ada526)" d="M 660.672235 327.805716 
L 663.880544 333.288501 
L 665.35076 332.619491 
" style="fill:none;stroke:#999999;"/>
    <path clip-path="url(#pdf79ada526)" d="M 660.672235 327.805716 
L 658.453206 325.846702 
L 661.2516 324.774899 
" style="fill:none;stroke:#999999;"/>
    <path clip-path="url(#pdf79ada526)" d="M 687.980865 335.317404 
L 688.15156 335.311002 
L 688.301904 335.25125 
" style="fill:none;stroke:#999999;"/>
    <path clip-path="url(#pdf79ada526)" d="M 669.574099 320.118506 
L 667.421936 321.300743 
" style="fill:none;stroke:#999999;"/>
    <path clip-path="url(#pdf79ada526)" d="M 669.574099 320.118506 
L 672.473414 318.260857 
" style="fill:none;stroke:#999999;"/>
    <path clip-path="url(#pdf79ada526)" d="M 669.574099 320.118506 
L 667.222585 314.746155 
" style="fill:none;stroke:#999999;"/>
    <path clip-path="url(#pdf79ada526)" d="M 669.574099 320.118506 
L 670.831673 322.99194 
L 670.920551 323.245886 
" style="fill:none;stroke:#999999;"/>
    <path clip-path="url(#pdf79ada526)" d="M 674.993961 315.899583 
L 676.229524 317.451003 
" style="fill:none;stroke:#999999;"/>
    <path clip-path="url(#pdf79ada526)" d="M 674.993961 315.899583 
L 674.676661 315.501592 
" style="fill:none;stroke:#999999;"/>
    <path clip-path="url(#pdf79ada526)" d="M 674.993961 315.899583 
L 676.624073 314.567966 
L 676.837961 314.057939 
" style="fill:none;stroke:#999999;"/>
    <path clip-path="url(#pdf79ada526)" d="M 673.600995 314.296414 
L 670.947962 311.826306 
" style="fill:none;stroke:#999999;"/>
    <path clip-path="url(#pdf79ada526)" d="M 673.600995 314.296414 
L 674.04995 314.714679 
L 674.676661 315.501592 
" style="fill:none;stroke:#999999;"/>
    <path clip-path="url(#pdf79ada526)" d="M 673.600995 314.296414 
L 675.332028 312.963196 
L 675.615273 312.610552 
" style="fill:none;stroke:#999999;"/>
    <path clip-path="url(#pdf79ada526)" d="M 839.31048 233.350506 
L 840.063031 233.137105 
L 840.586328 233.18192 
L 840.987523 233.48228 
" style="fill:none;stroke:#999999;"/>
    <path clip-path="url(#pdf79ada526)" d="M 839.31048 233.350506 
L 838.771401 233.715954 
L 836.269128 235.349532 
L 830.815625 238.856765 
L 808.736643 253.057484 
L 791.874018 263.903017 
L 778.12958 272.743121 
L 748.843219 291.654116 
L 729.104122 304.439991 
" style="fill:none;stroke:#999999;"/>
    <path clip-path="url(#pdf79ada526)" d="M 840.354582 232.711372 
L 839.873232 232.992527 
L 839.31048 233.350506 
" style="fill:none;stroke:#999999;"/>
    <path clip-path="url(#pdf79ada526)" d="M 676.229524 317.451003 
L 674.993961 315.899583 
" style="fill:none;stroke:#999999;"/>
    <path clip-path="url(#pdf79ada526)" d="M 676.229524 317.451003 
L 677.69351 316.306111 
" style="fill:none;stroke:#999999;"/>
    <path clip-path="url(#pdf79ada526)" d="M 676.229524 317.451003 
L 677.6607 319.247299 
L 678.167384 320.502626 
" style="fill:none;stroke:#999999;"/>
    <path clip-path="url(#pdf79ada526)" d="M 662.804463 326.830477 
L 666.367036 331.545555 
" style="fill:none;stroke:#999999;"/>
    <path clip-path="url(#pdf79ada526)" d="M 662.804463 326.830477 
L 661.2516 324.774899 
" style="fill:none;stroke:#999999;"/>
    <path clip-path="url(#pdf79ada526)" d="M 662.804463 326.830477 
L 669.256383 323.98105 
" style="fill:none;stroke:#999999;"/>
    <path clip-path="url(#pdf79ada526)" d="M 662.804463 326.830477 
L 660.672235 327.805716 
" style="fill:none;stroke:#999999;"/>
    <path clip-path="url(#pdf79ada526)" d="M 685.892661 332.834492 
L 687.133622 332.891043 
" style="fill:none;stroke:#999999;"/>
    <path clip-path="url(#pdf79ada526)" d="M 685.892661 332.834492 
L 684.110128 332.7534 
" style="fill:none;stroke:#999999;"/>
    <path clip-path="url(#pdf79ada526)" d="M 685.892661 332.834492 
L 686.427171 334.536359 
L 686.516464 335.059723 
L 684.857695 336.169938 
" style="fill:none;stroke:#999999;"/>
    <path clip-path="url(#pdf79ada526)" d="M 671.633647 336.8987 
L 676.674326 333.056428 
" style="fill:none;stroke:#999999;"/>
    <path clip-path="url(#pdf79ada526)" d="M 671.633647 336.8987 
L 677.649902 341.773294 
" style="fill:none;stroke:#999999;"/>
    <path clip-path="url(#pdf79ada526)" d="M 671.633647 336.8987 
L 670.322497 335.853038 
" style="fill:none;stroke:#999999;"/>
    <path clip-path="url(#pdf79ada526)" d="M 671.633647 336.8987 
L 670.533477 338.685393 
L 668.673281 340.880748 
L 667.736745 340.650276 
" style="fill:none;stroke:#999999;"/>
    <path clip-path="url(#pdf79ada526)" d="M 670.322497 335.853038 
L 667.736745 340.650276 
" style="fill:none;stroke:#999999;"/>
    <path clip-path="url(#pdf79ada526)" d="M 670.322497 335.853038 
L 672.524498 332.630695 
" style="fill:none;stroke:#999999;"/>
    <path clip-path="url(#pdf79ada526)" d="M 670.322497 335.853038 
L 671.633647 336.8987 
" style="fill:none;stroke:#999999;"/>
    <path clip-path="url(#pdf79ada526)" d="M 670.322497 335.853038 
L 668.559069 334.447264 
L 666.367036 331.545555 
" style="fill:none;stroke:#999999;"/>
    <path clip-path="url(#pdf79ada526)" d="M 121.810839 409.341142 
L 124.802769 409.239777 
L 231.28292 409.306465 
" style="fill:none;stroke:#999999;"/>
    <path clip-path="url(#pdf79ada526)" d="M 689.626344 333.785724 
L 688.297335 334.405651 
" style="fill:none;stroke:#999999;"/>
    <path clip-path="url(#pdf79ada526)" d="M 689.626344 333.785724 
L 690.943308 332.671774 
L 692.055106 331.502875 
L 695.637199 326.961718 
L 696.939212 325.461514 
L 698.271128 324.316088 
L 701.695401 322.050311 
" style="fill:none;stroke:#999999;"/>
    <path clip-path="url(#pdf79ada526)" d="M 670.920551 323.245886 
L 673.282448 322.044976 
" style="fill:none;stroke:#999999;"/>
    <path clip-path="url(#pdf79ada526)" d="M 670.920551 323.245886 
L 669.256383 323.98105 
" style="fill:none;stroke:#999999;"/>
    <path clip-path="url(#pdf79ada526)" d="M 670.920551 323.245886 
L 672.248313 327.035874 
" style="fill:none;stroke:#999999;"/>
    <path clip-path="url(#pdf79ada526)" d="M 670.920551 323.245886 
L 670.831673 322.99194 
L 669.574099 320.118506 
" style="fill:none;stroke:#999999;"/>
    <path clip-path="url(#pdf79ada526)" d="M 672.473414 318.260857 
L 669.574099 320.118506 
" style="fill:none;stroke:#999999;"/>
    <path clip-path="url(#pdf79ada526)" d="M 672.473414 318.260857 
L 674.095635 320.284425 
L 673.068976 320.834997 
L 673.282448 322.044976 
" style="fill:none;stroke:#999999;"/>
    <path clip-path="url(#pdf79ada526)" d="M 672.473414 318.260857 
L 671.366184 316.752117 
L 669.327402 313.161125 
" style="fill:none;stroke:#999999;"/>
    <path clip-path="url(#pdf79ada526)" d="M 672.473414 318.260857 
L 673.282448 317.509688 
L 673.287016 316.996994 
L 673.253376 316.607005 
L 673.465187 316.26183 
L 674.676661 315.501592 
" style="fill:none;stroke:#999999;"/>
    <path clip-path="url(#pdf79ada526)" d="M 679.253018 332.218299 
L 682.650296 327.602452 
" style="fill:none;stroke:#999999;"/>
    <path clip-path="url(#pdf79ada526)" d="M 679.253018 332.218299 
L 681.391476 331.548222 
" style="fill:none;stroke:#999999;"/>
    <path clip-path="url(#pdf79ada526)" d="M 679.253018 332.218299 
L 677.46384 333.9223 
" style="fill:none;stroke:#999999;"/>
    <path clip-path="url(#pdf79ada526)" d="M 673.282448 322.044976 
L 670.920551 323.245886 
" style="fill:none;stroke:#999999;"/>
    <path clip-path="url(#pdf79ada526)" d="M 673.282448 322.044976 
L 674.004681 323.230948 
" style="fill:none;stroke:#999999;"/>
    <path clip-path="url(#pdf79ada526)" d="M 673.282448 322.044976 
L 673.068976 320.834997 
L 674.095635 320.284425 
L 672.473414 318.260857 
" style="fill:none;stroke:#999999;"/>
    <path clip-path="url(#pdf79ada526)" d="M 669.256383 323.98105 
L 670.920551 323.245886 
" style="fill:none;stroke:#999999;"/>
    <path clip-path="url(#pdf79ada526)" d="M 669.256383 323.98105 
L 662.804463 326.830477 
" style="fill:none;stroke:#999999;"/>
    <path clip-path="url(#pdf79ada526)" d="M 669.256383 323.98105 
L 667.421936 321.300743 
" style="fill:none;stroke:#999999;"/>
    <path clip-path="url(#pdf79ada526)" d="M 669.256383 323.98105 
L 671.411038 326.513044 
" style="fill:none;stroke:#999999;"/>
    <path clip-path="url(#pdf79ada526)" d="M 688.297335 334.405651 
L 688.137024 334.345899 
L 687.966329 334.344832 
L 687.881605 334.375775 
" style="fill:none;stroke:#999999;"/>
    <path clip-path="url(#pdf79ada526)" d="M 678.982233 322.520859 
L 678.167384 320.502626 
" style="fill:none;stroke:#999999;"/>
    <path clip-path="url(#pdf79ada526)" d="M 678.982233 322.520859 
L 686.47161 319.782934 
" style="fill:none;stroke:#999999;"/>
    <path clip-path="url(#pdf79ada526)" d="M 678.982233 322.520859 
L 679.147528 322.930054 
L 682.261145 326.35086 
" style="fill:none;stroke:#999999;"/>
    <path clip-path="url(#pdf79ada526)" d="M 678.982233 322.520859 
L 678.452706 322.947659 
L 677.292731 323.883419 
L 675.287589 326.736047 
L 674.19448 330.186729 
" style="fill:none;stroke:#999999;"/>
    <path clip-path="url(#pdf79ada526)" d="M 688.539879 334.820715 
L 689.626344 333.785724 
" style="fill:none;stroke:#999999;"/>
    <path clip-path="url(#pdf79ada526)" d="M 688.539879 334.820715 
L 688.511638 334.664933 
L 688.427329 334.516619 
L 688.297335 334.405651 
" style="fill:none;stroke:#999999;"/>
    <path clip-path="url(#pdf79ada526)" d="M 667.222585 314.746155 
L 669.327402 313.161125 
" style="fill:none;stroke:#999999;"/>
    <path clip-path="url(#pdf79ada526)" d="M 667.222585 314.746155 
L 665.083712 315.994546 
" style="fill:none;stroke:#999999;"/>
    <path clip-path="url(#pdf79ada526)" d="M 667.222585 314.746155 
L 669.574099 320.118506 
" style="fill:none;stroke:#999999;"/>
    <path clip-path="url(#pdf79ada526)" d="M 667.222585 314.746155 
L 666.331319 311.537149 
L 664.370616 308.328143 
" style="fill:none;stroke:#999999;"/>
    <path clip-path="url(#pdf79ada526)" d="M 709.339276 316.177004 
L 700.953233 321.521079 
" style="fill:none;stroke:#999999;"/>
    <path clip-path="url(#pdf79ada526)" d="M 672.43562 309.041433 
L 672.639955 309.270839 
" style="fill:none;stroke:#999999;"/>
    <path clip-path="url(#pdf79ada526)" d="M 701.695401 322.050311 
L 700.953233 321.521079 
" style="fill:none;stroke:#999999;"/>
    <path clip-path="url(#pdf79ada526)" d="M 701.695401 322.050311 
L 711.302886 315.936395 
L 729.104122 304.439991 
" style="fill:none;stroke:#999999;"/>
    <path clip-path="url(#pdf79ada526)" d="M 701.695401 322.050311 
L 698.271128 324.316088 
L 696.939212 325.461514 
L 695.637199 326.961718 
L 692.055106 331.502875 
L 690.943308 332.671774 
L 689.626344 333.785724 
" style="fill:none;stroke:#999999;"/>
    <path clip-path="url(#pdf79ada526)" d="M 687.133622 332.891043 
L 687.881605 334.375775 
" style="fill:none;stroke:#999999;"/>
    <path clip-path="url(#pdf79ada526)" d="M 687.133622 332.891043 
L 686.287625 331.522614 
" style="fill:none;stroke:#999999;"/>
    <path clip-path="url(#pdf79ada526)" d="M 687.133622 332.891043 
L 688.688977 331.055801 
" style="fill:none;stroke:#999999;"/>
    <path clip-path="url(#pdf79ada526)" d="M 687.133622 332.891043 
L 685.892661 332.834492 
" style="fill:none;stroke:#999999;"/>
    <path clip-path="url(#pdf79ada526)" d="M 429.879548 8.307692 
L 430.419873 8.864133 
L 432.395112 10.433692 
L 435.164018 12.728812 
L 437.241009 14.179933 
L 440.921946 16.39076 
L 441.799923 16.829831 
L 442.74518 17.217685 
L 450.411066 20.086852 
L 456.826854 22.078409 
L 458.32988 22.719677 
L 459.798849 23.597285 
L 461.369156 24.559187 
L 464.053752 26.449379 
L 465.066706 27.107186 
L 465.995351 27.968256 
L 466.569316 28.524697 
L 473.053216 31.579521 
L 474.842809 32.355764 
L 476.717126 33.098397 
L 478.777089 34.128053 
L 481.224956 35.562636 
L 482.77865 36.760879 
L 484.044946 37.790001 
L 484.838613 38.583316 
L 486.121521 40.439898 
L 487.472541 42.904138 
L 488.012866 44.034625 
L 488.282821 44.810869 
L 488.620472 46.076866 
L 488.873814 46.566086 
L 490.562486 49.013253 
L 490.781772 49.62091 
L 490.950805 50.447836 
L 491.136451 53.114805 
L 491.761085 55.764703 
L 492.841735 58.954502 
L 494.293677 62.549229 
L 494.834002 63.595957 
L 495.830343 65.300492 
L 498.025283 68.355316 
L 498.582221 69.097949 
L 499.004596 69.789899 
L 499.274551 70.4317 
L 499.696926 72.203989 
L 500.085246 74.07711 
L 501.148868 76.828372 
L 502.364495 79.343294 
L 503.495814 81.453289 
L 504.137476 82.600849 
L 505.015452 83.9346 
L 505.673726 84.997867 
L 507.497375 88.728103 
L 507.885695 89.403514 
L 519.738788 109.861127 
L 521.528381 112.950629 
L 521.680386 113.456921 
L 521.731055 114.064578 
L 521.376375 115.938232 
L 521.444072 116.444525 
L 521.731055 117.001499 
L 522.018037 117.204229 
L 522.642671 117.423498 
L 523.504035 117.761204 
L 524.212978 118.233885 
L 524.753303 118.75725 
L 525.277015 119.669002 
L 525.716003 120.665048 
L 526.407918 123.365628 
L 527.117276 126.539422 
L 528.180898 130.45585 
L 528.349932 131.215555 
L 528.4006 132.396725 
L 528.721223 134.642229 
L 528.704195 135.756178 
L 529.160211 139.453337 
L 529.126571 142.829863 
L 529.109543 144.315128 
L 528.957538 145.952975 
L 529.020666 146.894603 
" style="fill:none;stroke:#999999;"/>
    <path clip-path="url(#pdf79ada526)" d="M 674.676661 315.501592 
L 674.993961 315.899583 
" style="fill:none;stroke:#999999;"/>
    <path clip-path="url(#pdf79ada526)" d="M 674.676661 315.501592 
L 674.04995 314.714679 
L 673.600995 314.296414 
" style="fill:none;stroke:#999999;"/>
    <path clip-path="url(#pdf79ada526)" d="M 674.676661 315.501592 
L 673.465187 316.26183 
L 673.253376 316.607005 
L 673.287016 316.996994 
L 673.282448 317.509688 
L 672.473414 318.260857 
" style="fill:none;stroke:#999999;"/>
    <path clip-path="url(#pdf79ada526)" d="M 664.670474 338.531745 
L 663.75595 346.484104 
" style="fill:none;stroke:#999999;"/>
    <path clip-path="url(#pdf79ada526)" d="M 664.670474 338.531745 
L 665.35076 332.619491 
" style="fill:none;stroke:#999999;"/>
    <path clip-path="url(#pdf79ada526)" d="M 664.670474 338.531745 
L 667.080132 338.776088 
L 667.280729 340.302967 
L 667.736745 340.650276 
" style="fill:none;stroke:#999999;"/>
    <path clip-path="url(#pdf79ada526)" d="M 667.736745 340.650276 
L 670.322497 335.853038 
" style="fill:none;stroke:#999999;"/>
    <path clip-path="url(#pdf79ada526)" d="M 667.736745 340.650276 
L 667.186868 341.670329 
L 663.75595 346.484104 
" style="fill:none;stroke:#999999;"/>
    <path clip-path="url(#pdf79ada526)" d="M 667.736745 340.650276 
L 667.280729 340.302967 
L 667.080132 338.776088 
L 664.670474 338.531745 
" style="fill:none;stroke:#999999;"/>
    <path clip-path="url(#pdf79ada526)" d="M 667.736745 340.650276 
L 668.673281 340.880748 
L 670.533477 338.685393 
L 671.633647 336.8987 
" style="fill:none;stroke:#999999;"/>
    <path clip-path="url(#pdf79ada526)" d="M 681.860782 338.116681 
L 683.174423 337.121703 
" style="fill:none;stroke:#999999;"/>
    <path clip-path="url(#pdf79ada526)" d="M 681.860782 338.116681 
L 682.394877 338.597365 
" style="fill:none;stroke:#999999;"/>
    <path clip-path="url(#pdf79ada526)" d="M 681.860782 338.116681 
L 678.674069 335.249649 
L 677.46384 333.9223 
" style="fill:none;stroke:#999999;"/>
    <path clip-path="url(#pdf79ada526)" d="M 676.837961 314.057939 
L 675.615273 312.610552 
" style="fill:none;stroke:#999999;"/>
    <path clip-path="url(#pdf79ada526)" d="M 676.837961 314.057939 
L 676.624073 314.567966 
L 674.993961 315.899583 
" style="fill:none;stroke:#999999;"/>
    <path clip-path="url(#pdf79ada526)" d="M 676.837961 314.057939 
L 677.203438 313.186199 
L 679.552876 312.391817 
" style="fill:none;stroke:#999999;"/>
    <path clip-path="url(#pdf79ada526)" d="M 682.810192 315.504793 
L 683.530764 317.509688 
" style="fill:none;stroke:#999999;"/>
    <path clip-path="url(#pdf79ada526)" d="M 682.810192 315.504793 
L 682.505766 314.65706 
L 680.367308 312.116531 
" style="fill:none;stroke:#999999;"/>
    <path clip-path="url(#pdf79ada526)" d="M 682.810192 315.504793 
L 680.649723 316.525913 
L 678.878404 317.383782 
" style="fill:none;stroke:#999999;"/>
    <path clip-path="url(#pdf79ada526)" d="M 680.365232 319.276108 
L 678.167384 320.502626 
" style="fill:none;stroke:#999999;"/>
    <path clip-path="url(#pdf79ada526)" d="M 680.365232 319.276108 
L 683.530764 317.509688 
" style="fill:none;stroke:#999999;"/>
    <path clip-path="url(#pdf79ada526)" d="M 680.365232 319.276108 
L 678.878404 317.383782 
" style="fill:none;stroke:#999999;"/>
    <path clip-path="url(#pdf79ada526)" d="M 678.878404 317.383782 
L 680.365232 319.276108 
" style="fill:none;stroke:#999999;"/>
    <path clip-path="url(#pdf79ada526)" d="M 678.878404 317.383782 
L 677.69351 316.306111 
" style="fill:none;stroke:#999999;"/>
    <path clip-path="url(#pdf79ada526)" d="M 678.878404 317.383782 
L 680.649723 316.525913 
L 682.810192 315.504793 
" style="fill:none;stroke:#999999;"/>
    <path clip-path="url(#pdf79ada526)" d="M 684.041601 327.643532 
L 685.924225 326.451158 
" style="fill:none;stroke:#999999;"/>
    <path clip-path="url(#pdf79ada526)" d="M 685.132219 328.798027 
L 686.773544 327.866001 
" style="fill:none;stroke:#999999;"/>
    <path clip-path="url(#pdf79ada526)" d="M 687.481241 329.044504 
L 686.035529 329.805276 
" style="fill:none;stroke:#999999;"/>
    <path clip-path="url(#pdf79ada526)" d="M 687.481241 329.044504 
L 686.773544 327.866001 
" style="fill:none;stroke:#999999;"/>
    <path clip-path="url(#pdf79ada526)" d="M 687.481241 329.044504 
L 688.688977 331.055801 
" style="fill:none;stroke:#999999;"/>
    <path clip-path="url(#pdf79ada526)" d="M 686.035529 329.805276 
L 687.481241 329.044504 
" style="fill:none;stroke:#999999;"/>
    <path clip-path="url(#pdf79ada526)" d="M 688.902865 326.844881 
L 686.773544 327.866001 
" style="fill:none;stroke:#999999;"/>
    <path clip-path="url(#pdf79ada526)" d="M 688.902865 326.844881 
L 690.09648 329.395014 
" style="fill:none;stroke:#999999;"/>
    <path clip-path="url(#pdf79ada526)" d="M 688.902865 326.844881 
L 688.388289 325.74587 
" style="fill:none;stroke:#999999;"/>
    <path clip-path="url(#pdf79ada526)" d="M 686.773544 327.866001 
L 688.902865 326.844881 
" style="fill:none;stroke:#999999;"/>
    <path clip-path="url(#pdf79ada526)" d="M 686.773544 327.866001 
L 685.132219 328.798027 
" style="fill:none;stroke:#999999;"/>
    <path clip-path="url(#pdf79ada526)" d="M 686.773544 327.866001 
L 685.924225 326.451158 
" style="fill:none;stroke:#999999;"/>
    <path clip-path="url(#pdf79ada526)" d="M 686.773544 327.866001 
L 687.481241 329.044504 
" style="fill:none;stroke:#999999;"/>
    <path clip-path="url(#pdf79ada526)" d="M 677.890784 309.776597 
L 675.615273 312.610552 
" style="fill:none;stroke:#999999;"/>
    <path clip-path="url(#pdf79ada526)" d="M 677.890784 309.776597 
L 678.979741 308.420439 
" style="fill:none;stroke:#999999;"/>
    <path clip-path="url(#pdf79ada526)" d="M 677.890784 309.776597 
L 675.188744 306.67109 
" style="fill:none;stroke:#999999;"/>
    <path clip-path="url(#pdf79ada526)" d="M 675.188744 306.67109 
L 677.890784 309.776597 
" style="fill:none;stroke:#999999;"/>
    <path clip-path="url(#pdf79ada526)" d="M 675.188744 306.67109 
L 672.639955 309.270839 
" style="fill:none;stroke:#999999;"/>
    <path clip-path="url(#pdf79ada526)" d="M 675.188744 306.67109 
L 676.644839 305.185291 
" style="fill:none;stroke:#999999;"/>
    <path clip-path="url(#pdf79ada526)" d="M 687.556413 334.838854 
L 686.584991 335.791152 
" style="fill:none;stroke:#999999;"/>
    <path clip-path="url(#pdf79ada526)" d="M 687.556413 334.838854 
L 687.589223 335.006906 
L 687.6835 335.160021 
L 687.818477 335.265121 
L 687.980865 335.317404 
" style="fill:none;stroke:#999999;"/>
    <path clip-path="url(#pdf79ada526)" d="M 672.639955 309.270839 
L 673.007094 309.682701 
" style="fill:none;stroke:#999999;"/>
    <path clip-path="url(#pdf79ada526)" d="M 672.639955 309.270839 
L 672.43562 309.041433 
" style="fill:none;stroke:#999999;"/>
    <path clip-path="url(#pdf79ada526)" d="M 672.639955 309.270839 
L 675.188744 306.67109 
" style="fill:none;stroke:#999999;"/>
    <path clip-path="url(#pdf79ada526)" d="M 688.301904 335.25125 
L 688.430651 335.139215 
L 688.513299 334.989301 
L 688.539879 334.820715 
" style="fill:none;stroke:#999999;"/>
    <path clip-path="url(#pdf79ada526)" d="M 231.28292 409.306465 
L 336.138773 408.778299 
L 338.36237 408.923411 
L 340.593028 409.214169 
L 429.381585 423.140135 
L 432.259719 423.500781 
L 434.766146 423.692308 
L 437.306213 423.669367 
L 440.358364 423.36954 
L 456.073057 421.071219 
L 474.560394 418.313555 
L 480.004345 417.148923 
L 495.37931 413.185547 
L 498.366672 412.308472 
L 502.125274 410.609807 
L 531.40582 392.100538 
L 532.98651 391.184517 
L 534.877024 390.403472 
L 536.696104 389.860369 
L 538.835808 389.433568 
L 541.057328 389.208431 
L 572.42774 386.953858 
L 574.706574 386.624154 
L 576.795194 386.083718 
L 604.885032 377.270289 
L 607.286799 376.802409 
L 616.102693 375.535345 
L 617.809223 375.207242 
L 619.839699 374.539833 
L 629.081291 370.291568 
L 630.869638 369.601218 
L 632.536712 369.073052 
L 637.432447 367.961237 
L 639.342481 367.284758 
L 640.955565 366.408217 
L 663.264217 351.406181 
" style="fill:none;stroke:#999999;"/>
    <path clip-path="url(#pdf79ada526)" d="M 231.28292 409.306465 
L 124.802769 409.239777 
L 121.810839 409.341142 
" style="fill:none;stroke:#999999;"/>
    <path clip-path="url(#pdf79ada526)" d="M 666.450514 307.639394 
L 670.947962 311.826306 
" style="fill:none;stroke:#999999;"/>
    <path clip-path="url(#pdf79ada526)" d="M 666.450514 307.639394 
L 663.436988 304.833181 
L 662.792834 304.233526 
L 658.853155 301.100811 
L 653.814552 296.681826 
L 649.832926 291.311075 
L 647.798712 289.228289 
" style="fill:none;stroke:#999999;"/>
    <path clip-path="url(#pdf79ada526)" d="M 666.450514 307.639394 
L 667.267024 309.53172 
L 669.327402 313.161125 
" style="fill:none;stroke:#999999;"/>
    <path clip-path="url(#pdf79ada526)" d="M 664.07948 320.874476 
L 663.566981 321.085742 
L 662.148265 323.039422 
" style="fill:none;stroke:#999999;"/>
    <path clip-path="url(#pdf79ada526)" d="M 676.644839 305.185291 
L 675.188744 306.67109 
" style="fill:none;stroke:#999999;"/>
    <path clip-path="url(#pdf79ada526)" d="M 676.644839 305.185291 
L 678.460181 307.351837 
L 678.979741 308.420439 
" style="fill:none;stroke:#999999;"/>
    <path clip-path="url(#pdf79ada526)" d="M 676.644839 305.185291 
L 675.452885 303.647743 
L 671.577995 298.852639 
L 672.848028 298.339945 
L 674.942462 298.250851 
L 677.682712 298.741138 
L 678.573978 298.852639 
L 679.309086 299.275705 
L 680.891021 300.144778 
L 683.185637 300.702286 
L 682.584261 303.287096 
L 681.58169 304.156169 
L 679.864362 306.511574 
L 678.979741 308.420439 
" style="fill:none;stroke:#999999;"/>
    <path clip-path="url(#pdf79ada526)" d="M 662.148265 323.039422 
L 662.231743 324.150703 
" style="fill:none;stroke:#999999;"/>
    <path clip-path="url(#pdf79ada526)" d="M 662.148265 323.039422 
L 661.773651 318.066129 
L 665.083712 315.994546 
" style="fill:none;stroke:#999999;"/>
    <path clip-path="url(#pdf79ada526)" d="M 662.148265 323.039422 
L 663.566981 321.085742 
L 664.07948 320.874476 
" style="fill:none;stroke:#999999;"/>
    <path clip-path="url(#pdf79ada526)" d="M 673.007094 309.682701 
L 675.615273 312.610552 
" style="fill:none;stroke:#999999;"/>
    <path clip-path="url(#pdf79ada526)" d="M 673.007094 309.682701 
L 672.639955 309.270839 
" style="fill:none;stroke:#999999;"/>
    <path clip-path="url(#pdf79ada526)" d="M 673.007094 309.682701 
L 670.947962 311.826306 
" style="fill:none;stroke:#999999;"/>
    <path clip-path="url(#pdf79ada526)" d="M 672.524498 332.630695 
L 670.322497 335.853038 
" style="fill:none;stroke:#999999;"/>
    <path clip-path="url(#pdf79ada526)" d="M 672.524498 332.630695 
L 674.19448 330.186729 
" style="fill:none;stroke:#999999;"/>
    <path clip-path="url(#pdf79ada526)" d="M 672.524498 332.630695 
L 670.696281 331.170504 
L 668.7389 329.178946 
" style="fill:none;stroke:#999999;"/>
    <path clip-path="url(#pdf79ada526)" d="M 729.104122 304.439991 
L 729.275232 304.670997 
L 730.064331 305.471781 
L 731.289926 306.008483 
L 741.237138 307.940822 
L 743.369781 308.301468 
L 747.829019 308.193168 
L 754.779733 308.283329 
L 761.044762 308.770949 
L 763.14418 309.079845 
L 769.728586 310.631265 
L 773.574819 312.034905 
L 776.464166 313.766115 
L 778.610515 315.308998 
" style="fill:none;stroke:#999999;"/>
    <path clip-path="url(#pdf79ada526)" d="M 729.104122 304.439991 
L 748.843219 291.654116 
L 778.12958 272.743121 
L 791.874018 263.903017 
L 808.736643 253.057484 
L 830.815625 238.856765 
L 836.269128 235.349532 
L 838.771401 233.715954 
L 839.31048 233.350506 
" style="fill:none;stroke:#999999;"/>
    <path clip-path="url(#pdf79ada526)" d="M 729.104122 304.439991 
L 711.302886 315.936395 
L 701.695401 322.050311 
" style="fill:none;stroke:#999999;"/>
    <path clip-path="url(#pdf79ada526)" d="M 668.7389 329.178946 
L 671.411038 326.513044 
" style="fill:none;stroke:#999999;"/>
    <path clip-path="url(#pdf79ada526)" d="M 668.7389 329.178946 
L 666.367036 331.545555 
" style="fill:none;stroke:#999999;"/>
    <path clip-path="url(#pdf79ada526)" d="M 668.7389 329.178946 
L 670.696281 331.170504 
L 672.524498 332.630695 
" style="fill:none;stroke:#999999;"/>
    <path clip-path="url(#pdf79ada526)" d="M 684.857695 336.169938 
L 683.174423 337.121703 
" style="fill:none;stroke:#999999;"/>
    <path clip-path="url(#pdf79ada526)" d="M 684.857695 336.169938 
L 683.582263 332.400223 
" style="fill:none;stroke:#999999;"/>
    <path clip-path="url(#pdf79ada526)" d="M 684.857695 336.169938 
L 686.516464 335.059723 
L 686.427171 334.536359 
L 685.892661 332.834492 
" style="fill:none;stroke:#999999;"/>
    <path clip-path="url(#pdf79ada526)" d="M 683.582263 332.400223 
L 684.110128 332.7534 
" style="fill:none;stroke:#999999;"/>
    <path clip-path="url(#pdf79ada526)" d="M 683.582263 332.400223 
L 682.093773 331.405244 
" style="fill:none;stroke:#999999;"/>
    <path clip-path="url(#pdf79ada526)" d="M 683.582263 332.400223 
L 684.857695 336.169938 
" style="fill:none;stroke:#999999;"/>
    <path clip-path="url(#pdf79ada526)" d="M 686.287625 331.522614 
L 687.133622 332.891043 
" style="fill:none;stroke:#999999;"/>
    <path clip-path="url(#pdf79ada526)" d="M 686.287625 331.522614 
L 683.844742 331.544488 
" style="fill:none;stroke:#999999;"/>
    <path clip-path="url(#pdf79ada526)" d="M 686.287625 331.522614 
L 684.740577 329.020496 
L 683.46639 327.675008 
L 682.985455 327.146842 
" style="fill:none;stroke:#999999;"/>
    <path clip-path="url(#pdf79ada526)" d="M 683.844742 331.544488 
L 683.379174 329.422222 
" style="fill:none;stroke:#999999;"/>
    <path clip-path="url(#pdf79ada526)" d="M 683.844742 331.544488 
L 684.110128 332.7534 
" style="fill:none;stroke:#999999;"/>
    <path clip-path="url(#pdf79ada526)" d="M 683.844742 331.544488 
L 682.093773 331.405244 
" style="fill:none;stroke:#999999;"/>
    <path clip-path="url(#pdf79ada526)" d="M 683.844742 331.544488 
L 686.287625 331.522614 
" style="fill:none;stroke:#999999;"/>
    <path clip-path="url(#pdf79ada526)" d="M 683.379174 329.422222 
L 683.844742 331.544488 
" style="fill:none;stroke:#999999;"/>
    <path clip-path="url(#pdf79ada526)" d="M 683.379174 329.422222 
L 683.308155 329.098388 
L 682.650296 327.602452 
" style="fill:none;stroke:#999999;"/>
    <path clip-path="url(#pdf79ada526)" d="M 683.379174 329.422222 
L 682.994592 329.521454 
L 682.093773 331.405244 
" style="fill:none;stroke:#999999;"/>
    <path clip-path="url(#pdf79ada526)" d="M 690.09648 329.395014 
L 690.513872 328.902593 
" style="fill:none;stroke:#999999;"/>
    <path clip-path="url(#pdf79ada526)" d="M 690.09648 329.395014 
L 688.688977 331.055801 
" style="fill:none;stroke:#999999;"/>
    <path clip-path="url(#pdf79ada526)" d="M 690.09648 329.395014 
L 688.902865 326.844881 
" style="fill:none;stroke:#999999;"/>
    <path clip-path="url(#pdf79ada526)" d="M 688.388289 325.74587 
L 686.637321 326.183874 
" style="fill:none;stroke:#999999;"/>
    <path clip-path="url(#pdf79ada526)" d="M 688.388289 325.74587 
L 690.380141 325.248114 
" style="fill:none;stroke:#999999;"/>
    <path clip-path="url(#pdf79ada526)" d="M 688.388289 325.74587 
L 688.902865 326.844881 
" style="fill:none;stroke:#999999;"/>
    <path clip-path="url(#pdf79ada526)" d="M 690.380141 325.248114 
L 688.388289 325.74587 
" style="fill:none;stroke:#999999;"/>
    <path clip-path="url(#pdf79ada526)" d="M 686.637321 326.183874 
L 685.924225 326.451158 
" style="fill:none;stroke:#999999;"/>
    <path clip-path="url(#pdf79ada526)" d="M 686.637321 326.183874 
L 688.388289 325.74587 
" style="fill:none;stroke:#999999;"/>
    <path clip-path="url(#pdf79ada526)" d="M 686.637321 326.183874 
L 686.82795 324.59671 
" style="fill:none;stroke:#999999;"/>
    <path clip-path="url(#pdf79ada526)" d="M 685.924225 326.451158 
L 684.041601 327.643532 
" style="fill:none;stroke:#999999;"/>
    <path clip-path="url(#pdf79ada526)" d="M 685.924225 326.451158 
L 686.637321 326.183874 
" style="fill:none;stroke:#999999;"/>
    <path clip-path="url(#pdf79ada526)" d="M 685.924225 326.451158 
L 686.773544 327.866001 
" style="fill:none;stroke:#999999;"/>
    <path clip-path="url(#pdf79ada526)" d="M 688.688977 331.055801 
L 690.09648 329.395014 
" style="fill:none;stroke:#999999;"/>
    <path clip-path="url(#pdf79ada526)" d="M 688.688977 331.055801 
L 687.133622 332.891043 
" style="fill:none;stroke:#999999;"/>
    <path clip-path="url(#pdf79ada526)" d="M 688.688977 331.055801 
L 687.481241 329.044504 
" style="fill:none;stroke:#999999;"/>
    <path clip-path="url(#pdf79ada526)" d="M 690.513872 328.902593 
L 690.09648 329.395014 
" style="fill:none;stroke:#999999;"/>
    <path clip-path="url(#pdf79ada526)" d="M 841.938179 233.854664 
L 839.121512 236.660877 
" style="fill:none;stroke:#999999;"/>
    <path clip-path="url(#pdf79ada526)" d="M 841.938179 233.854664 
L 841.626277 233.197391 
L 841.143266 232.814338 
L 840.354582 232.711372 
" style="fill:none;stroke:#999999;"/>
    <path clip-path="url(#pdf79ada526)" d="M 841.938179 233.854664 
L 842.799127 232.996795 
L 844.91848 230.753425 
L 846.98135 228.655701 
" style="fill:none;stroke:#999999;"/>
    <path clip-path="url(#pdf79ada526)" d="M 620.279102 20.861494 
L 615.766288 41.079032 
L 614.960161 42.448528 
L 607.385229 52.033933 
L 606.096506 57.759995 
L 606.007629 60.931122 
L 604.893338 62.3497 
L 595.993135 67.051441 
L 594.491356 68.763978 
L 593.678169 70.890511 
L 586.630687 97.868034 
L 584.781704 106.003385 
L 581.801402 116.880395 
L 578.694845 125.276627 
L 577.042722 135.28403 
L 562.991781 142.739701 
L 548.26886 150.381563 
L 544.441316 151.833218 
L 541.676978 147.026378 
L 535.406966 146.65026 
L 531.726444 146.399515 
L 531.135035 146.348299 
L 530.138279 146.297616 
L 529.598784 146.314688 
L 529.212541 146.517418 
L 529.020666 146.894603 
" style="fill:none;stroke:#999999;"/>
    <path clip-path="url(#pdf79ada526)" d="M 687.881605 334.375775 
L 687.133622 332.891043 
" style="fill:none;stroke:#999999;"/>
    <path clip-path="url(#pdf79ada526)" d="M 687.881605 334.375775 
L 687.793973 334.408319 
L 687.665226 334.520887 
L 687.582578 334.670268 
L 687.556413 334.838854 
" style="fill:none;stroke:#999999;"/>
    <path clip-path="url(#pdf79ada526)" d="M 674.004681 323.230948 
L 673.282448 322.044976 
" style="fill:none;stroke:#999999;"/>
   </g>
  </g>
 </g>
 <defs>
  <clipPath id="pdf79ada526">
   <rect height="432" width="754.177332" x="107.307428" y="0"/>
  </clipPath>
 </defs>
</svg>
