<?xml version="1.0" encoding="utf-8" standalone="no"?>
<!DOCTYPE svg PUBLIC "-//W3C//DTD SVG 1.1//EN"
  "http://www.w3.org/Graphics/SVG/1.1/DTD/svg11.dtd">
<!-- Created with matplotlib (http://matplotlib.org/) -->
<svg height="432pt" version="1.1" viewBox="0 0 366.994591 432" width="366.994591pt" xmlns="http://www.w3.org/2000/svg" xmlns:xlink="http://www.w3.org/1999/xlink">
 <defs>
  <style type="text/css">
*{stroke-linecap:butt;stroke-linejoin:round;}
  </style>
 </defs>
 <g id="figure_1">
  <g id="patch_1">
   <path d="M 0 432 
L 366.994591 432 
L 366.994591 0 
L 0 0 
z
" style="fill:none;opacity:0;"/>
  </g>
  <g id="axes_1">
   <g id="PathCollection_1">
    <defs>
     <path d="M 0 1.936492 
C 0.513564 1.936492 1.006162 1.732451 1.369306 1.369306 
C 1.732451 1.006162 1.936492 0.513564 1.936492 0 
C 1.936492 -0.513564 1.732451 -1.006162 1.369306 -1.369306 
C 1.006162 -1.732451 0.513564 -1.936492 0 -1.936492 
C -0.513564 -1.936492 -1.006162 -1.732451 -1.369306 -1.369306 
C -1.732451 -1.006162 -1.936492 -0.513564 -1.936492 0 
C -1.936492 0.513564 -1.732451 1.006162 -1.369306 1.369306 
C -1.006162 1.732451 -0.513564 1.936492 0 1.936492 
z
" id="C0_0_0d3a452841"/>
    </defs>
    <g clip-path="url(#p430c7707fa)">
     <use style="fill:#66ccff;" x="283.067376" xlink:href="#C0_0_0d3a452841" y="28.921718"/>
    </g>
    <g clip-path="url(#p430c7707fa)">
     <use style="fill:#66ccff;" x="290.869042" xlink:href="#C0_0_0d3a452841" y="15.080423"/>
    </g>
    <g clip-path="url(#p430c7707fa)">
     <use style="fill:#66ccff;" x="320.215267" xlink:href="#C0_0_0d3a452841" y="28.350059"/>
    </g>
    <g clip-path="url(#p430c7707fa)">
     <use style="fill:#66ccff;" x="314.720325" xlink:href="#C0_0_0d3a452841" y="29.248992"/>
    </g>
    <g clip-path="url(#p430c7707fa)">
     <use style="fill:#66ccff;" x="46.779324" xlink:href="#C0_0_0d3a452841" y="423.692308"/>
    </g>
    <g clip-path="url(#p430c7707fa)">
     <use style="fill:#66ccff;" x="302.585384" xlink:href="#C0_0_0d3a452841" y="22.930731"/>
    </g>
    <g clip-path="url(#p430c7707fa)">
     <use style="fill:#66ccff;" x="298.010695" xlink:href="#C0_0_0d3a452841" y="12.879536"/>
    </g>
    <g clip-path="url(#p430c7707fa)">
     <use style="fill:#66ccff;" x="302.461355" xlink:href="#C0_0_0d3a452841" y="22.567727"/>
    </g>
    <g clip-path="url(#p430c7707fa)">
     <use style="fill:#66ccff;" x="291.615433" xlink:href="#C0_0_0d3a452841" y="59.917071"/>
    </g>
    <g clip-path="url(#p430c7707fa)">
     <use style="fill:#66ccff;" x="302.271989" xlink:href="#C0_0_0d3a452841" y="22.011789"/>
    </g>
    <g clip-path="url(#p430c7707fa)">
     <use style="fill:#66ccff;" x="299.79251" xlink:href="#C0_0_0d3a452841" y="24.302713"/>
    </g>
    <g clip-path="url(#p430c7707fa)">
     <use style="fill:#66ccff;" x="299.404918" xlink:href="#C0_0_0d3a452841" y="22.514849"/>
    </g>
    <g clip-path="url(#p430c7707fa)">
     <use style="fill:#66ccff;" x="302.83898" xlink:href="#C0_0_0d3a452841" y="28.554427"/>
    </g>
    <g clip-path="url(#p430c7707fa)">
     <use style="fill:#66ccff;" x="301.308547" xlink:href="#C0_0_0d3a452841" y="29.747765"/>
    </g>
    <g clip-path="url(#p430c7707fa)">
     <use style="fill:#66ccff;" x="293.83578" xlink:href="#C0_0_0d3a452841" y="25.181638"/>
    </g>
    <g clip-path="url(#p430c7707fa)">
     <use style="fill:#66ccff;" x="297.350682" xlink:href="#C0_0_0d3a452841" y="22.02608"/>
    </g>
    <g clip-path="url(#p430c7707fa)">
     <use style="fill:#66ccff;" x="294.709522" xlink:href="#C0_0_0d3a452841" y="8.307692"/>
    </g>
    <g clip-path="url(#p430c7707fa)">
     <use style="fill:#66ccff;" x="305.129093" xlink:href="#C0_0_0d3a452841" y="26.769421"/>
    </g>
    <g clip-path="url(#p430c7707fa)">
     <use style="fill:#66ccff;" x="282.235715" xlink:href="#C0_0_0d3a452841" y="26.426426"/>
    </g>
    <g clip-path="url(#p430c7707fa)">
     <use style="fill:#66ccff;" x="287.444947" xlink:href="#C0_0_0d3a452841" y="26.163463"/>
    </g>
    <g clip-path="url(#p430c7707fa)">
     <use style="fill:#66ccff;" x="312.640619" xlink:href="#C0_0_0d3a452841" y="21.074268"/>
    </g>
    <g clip-path="url(#p430c7707fa)">
     <use style="fill:#66ccff;" x="276.854836" xlink:href="#C0_0_0d3a452841" y="25.351707"/>
    </g>
    <g clip-path="url(#p430c7707fa)">
     <use style="fill:#66ccff;" x="287.493673" xlink:href="#C0_0_0d3a452841" y="20.386848"/>
    </g>
    <g clip-path="url(#p430c7707fa)">
     <use style="fill:#66ccff;" x="311.892013" xlink:href="#C0_0_0d3a452841" y="45.682761"/>
    </g>
    <g clip-path="url(#p430c7707fa)">
     <use style="fill:#66ccff;" x="281.914568" xlink:href="#C0_0_0d3a452841" y="55.495289"/>
    </g>
    <g clip-path="url(#p430c7707fa)">
     <use style="fill:#66ccff;" x="313.67272" xlink:href="#C0_0_0d3a452841" y="29.419061"/>
    </g>
    <g clip-path="url(#p430c7707fa)">
     <use style="fill:#66ccff;" x="310.318391" xlink:href="#C0_0_0d3a452841" y="51.1664"/>
    </g>
   </g>
   <g id="LineCollection_1">
    <path clip-path="url(#p430c7707fa)" d="M 283.067376 28.921718 
L 283.9234 28.16284 
L 285.830351 27.698367 
L 286.931111 26.573628 
L 287.444947 26.163463 
" style="fill:none;stroke:#999999;"/>
    <path clip-path="url(#p430c7707fa)" d="M 283.067376 28.921718 
L 283.360838 29.97357 
L 283.629938 39.583159 
L 283.043013 52.86137 
L 281.914568 55.495289 
" style="fill:none;stroke:#999999;"/>
    <path clip-path="url(#p430c7707fa)" d="M 283.067376 28.921718 
L 282.55354 28.237156 
L 282.235715 26.426426 
" style="fill:none;stroke:#999999;"/>
    <path clip-path="url(#p430c7707fa)" d="M 290.869042 15.080423 
L 288.839169 17.965872 
L 287.493673 20.386848 
" style="fill:none;stroke:#999999;"/>
    <path clip-path="url(#p430c7707fa)" d="M 290.869042 15.080423 
L 292.508001 15.153309 
L 293.829135 15.569191 
L 295.565546 17.917281 
L 297.350682 22.02608 
" style="fill:none;stroke:#999999;"/>
    <path clip-path="url(#p430c7707fa)" d="M 290.869042 15.080423 
L 291.896714 13.026738 
L 298.010695 12.879536 
" style="fill:none;stroke:#999999;"/>
    <path clip-path="url(#p430c7707fa)" d="M 320.215267 28.350059 
L 314.720325 29.248992 
" style="fill:none;stroke:#999999;"/>
    <path clip-path="url(#p430c7707fa)" d="M 320.215267 28.350059 
L 319.024807 25.208792 
L 312.640619 21.074268 
" style="fill:none;stroke:#999999;"/>
    <path clip-path="url(#p430c7707fa)" d="M 314.720325 29.248992 
L 320.215267 28.350059 
" style="fill:none;stroke:#999999;"/>
    <path clip-path="url(#p430c7707fa)" d="M 314.720325 29.248992 
L 313.67272 29.419061 
" style="fill:none;stroke:#999999;"/>
    <path clip-path="url(#p430c7707fa)" d="M 314.720325 29.248992 
L 314.476696 27.875582 
L 313.104622 25.48033 
L 312.640619 21.074268 
" style="fill:none;stroke:#999999;"/>
    <path clip-path="url(#p430c7707fa)" d="M 46.779324 423.692308 
L 48.329691 422.54899 
L 55.417081 412.259127 
L 83.877382 381.961197 
L 85.64923 377.673754 
L 86.756634 369.956357 
L 88.528482 366.955147 
L 90.189589 365.525999 
L 95.505132 363.811022 
L 103.699927 362.524789 
L 109.12621 360.523983 
L 111.230279 359.094835 
L 121.196921 347.947484 
L 125.848021 346.089592 
L 135.703923 344.2317 
L 140.576504 342.230893 
L 148.882039 337.514706 
L 155.194246 330.797712 
L 160.73127 322.222826 
L 164.164224 315.505833 
L 180.110852 279.920057 
L 180.886035 275.775529 
L 181.328997 262.198626 
L 182.879364 254.624144 
L 185.647876 248.907553 
L 207.131527 212.607204 
L 210.453741 205.461465 
L 212.225589 194.742858 
L 214.551139 188.883353 
L 219.312979 183.309677 
L 240.132188 162.444122 
L 252.42438 144.293947 
L 264.938053 138.291527 
L 269.810634 133.718255 
L 283.874674 113.710188 
L 287.972072 102.419922 
L 295.834645 93.273377 
L 305.358326 68.406208 
L 310.318391 51.1664 
" style="fill:none;stroke:#999999;"/>
    <path clip-path="url(#p430c7707fa)" d="M 302.585384 22.930731 
L 299.79251 24.302713 
" style="fill:none;stroke:#999999;"/>
    <path clip-path="url(#p430c7707fa)" d="M 302.585384 22.930731 
L 302.461355 22.567727 
" style="fill:none;stroke:#999999;"/>
    <path clip-path="url(#p430c7707fa)" d="M 302.585384 22.930731 
L 305.129093 26.769421 
" style="fill:none;stroke:#999999;"/>
    <path clip-path="url(#p430c7707fa)" d="M 298.010695 12.879536 
L 296.298648 11.754796 
L 295.05171 10.066973 
L 294.709522 8.307692 
" style="fill:none;stroke:#999999;"/>
    <path clip-path="url(#p430c7707fa)" d="M 298.010695 12.879536 
L 297.986332 16.059389 
L 298.475805 17.01263 
L 300.774777 17.624306 
L 302.271989 22.011789 
" style="fill:none;stroke:#999999;"/>
    <path clip-path="url(#p430c7707fa)" d="M 298.010695 12.879536 
L 291.896714 13.026738 
L 290.869042 15.080423 
" style="fill:none;stroke:#999999;"/>
    <path clip-path="url(#p430c7707fa)" d="M 302.461355 22.567727 
L 302.271989 22.011789 
" style="fill:none;stroke:#999999;"/>
    <path clip-path="url(#p430c7707fa)" d="M 302.461355 22.567727 
L 302.585384 22.930731 
" style="fill:none;stroke:#999999;"/>
    <path clip-path="url(#p430c7707fa)" d="M 302.461355 22.567727 
L 308.698258 21.041398 
L 312.640619 21.074268 
" style="fill:none;stroke:#999999;"/>
    <path clip-path="url(#p430c7707fa)" d="M 291.615433 59.917071 
L 299.649654 55.25805 
L 305.103623 53.165778 
L 310.318391 51.1664 
" style="fill:none;stroke:#999999;"/>
    <path clip-path="url(#p430c7707fa)" d="M 302.271989 22.011789 
L 302.461355 22.567727 
" style="fill:none;stroke:#999999;"/>
    <path clip-path="url(#p430c7707fa)" d="M 302.271989 22.011789 
L 299.404918 22.514849 
" style="fill:none;stroke:#999999;"/>
    <path clip-path="url(#p430c7707fa)" d="M 302.271989 22.011789 
L 300.774777 17.624306 
L 298.475805 17.01263 
L 297.986332 16.059389 
L 298.010695 12.879536 
" style="fill:none;stroke:#999999;"/>
    <path clip-path="url(#p430c7707fa)" d="M 299.79251 24.302713 
L 302.585384 22.930731 
" style="fill:none;stroke:#999999;"/>
    <path clip-path="url(#p430c7707fa)" d="M 299.79251 24.302713 
L 299.404918 22.514849 
" style="fill:none;stroke:#999999;"/>
    <path clip-path="url(#p430c7707fa)" d="M 299.79251 24.302713 
L 300.65407 26.410705 
L 302.83898 28.554427 
" style="fill:none;stroke:#999999;"/>
    <path clip-path="url(#p430c7707fa)" d="M 299.404918 22.514849 
L 297.350682 22.02608 
" style="fill:none;stroke:#999999;"/>
    <path clip-path="url(#p430c7707fa)" d="M 299.404918 22.514849 
L 299.79251 24.302713 
" style="fill:none;stroke:#999999;"/>
    <path clip-path="url(#p430c7707fa)" d="M 299.404918 22.514849 
L 302.271989 22.011789 
" style="fill:none;stroke:#999999;"/>
    <path clip-path="url(#p430c7707fa)" d="M 302.83898 28.554427 
L 305.129093 26.769421 
" style="fill:none;stroke:#999999;"/>
    <path clip-path="url(#p430c7707fa)" d="M 302.83898 28.554427 
L 301.308547 29.747765 
" style="fill:none;stroke:#999999;"/>
    <path clip-path="url(#p430c7707fa)" d="M 302.83898 28.554427 
L 300.65407 26.410705 
L 299.79251 24.302713 
" style="fill:none;stroke:#999999;"/>
    <path clip-path="url(#p430c7707fa)" d="M 301.308547 29.747765 
L 302.83898 28.554427 
" style="fill:none;stroke:#999999;"/>
    <path clip-path="url(#p430c7707fa)" d="M 301.308547 29.747765 
L 297.767066 27.674072 
L 294.855699 25.644682 
L 293.83578 25.181638 
" style="fill:none;stroke:#999999;"/>
    <path clip-path="url(#p430c7707fa)" d="M 301.308547 29.747765 
L 303.783596 31.195492 
L 304.761434 33.44497 
L 306.228746 36.134626 
L 310.411413 42.517199 
L 311.892013 45.682761 
" style="fill:none;stroke:#999999;"/>
    <path clip-path="url(#p430c7707fa)" d="M 293.83578 25.181638 
L 293.242211 24.911529 
L 290.771591 24.788623 
L 288.643159 25.204505 
L 287.444947 26.163463 
" style="fill:none;stroke:#999999;"/>
    <path clip-path="url(#p430c7707fa)" d="M 293.83578 25.181638 
L 294.855699 25.644682 
L 297.767066 27.674072 
L 301.308547 29.747765 
" style="fill:none;stroke:#999999;"/>
    <path clip-path="url(#p430c7707fa)" d="M 293.83578 25.181638 
L 295.455913 23.530973 
L 295.694005 22.699209 
L 297.350682 22.02608 
" style="fill:none;stroke:#999999;"/>
    <path clip-path="url(#p430c7707fa)" d="M 297.350682 22.02608 
L 299.404918 22.514849 
" style="fill:none;stroke:#999999;"/>
    <path clip-path="url(#p430c7707fa)" d="M 297.350682 22.02608 
L 295.565546 17.917281 
L 293.829135 15.569191 
L 292.508001 15.153309 
L 290.869042 15.080423 
" style="fill:none;stroke:#999999;"/>
    <path clip-path="url(#p430c7707fa)" d="M 297.350682 22.02608 
L 295.694005 22.699209 
L 295.455913 23.530973 
L 293.83578 25.181638 
" style="fill:none;stroke:#999999;"/>
    <path clip-path="url(#p430c7707fa)" d="M 294.709522 8.307692 
L 295.05171 10.066973 
L 296.298648 11.754796 
L 298.010695 12.879536 
" style="fill:none;stroke:#999999;"/>
    <path clip-path="url(#p430c7707fa)" d="M 305.129093 26.769421 
L 302.83898 28.554427 
" style="fill:none;stroke:#999999;"/>
    <path clip-path="url(#p430c7707fa)" d="M 305.129093 26.769421 
L 302.585384 22.930731 
" style="fill:none;stroke:#999999;"/>
    <path clip-path="url(#p430c7707fa)" d="M 305.129093 26.769421 
L 305.74038 27.25819 
L 308.039352 29.0189 
L 310.069225 29.386191 
L 313.67272 29.419061 
" style="fill:none;stroke:#999999;"/>
    <path clip-path="url(#p430c7707fa)" d="M 282.235715 26.426426 
L 278.297784 27.185303 
L 276.854836 25.351707 
" style="fill:none;stroke:#999999;"/>
    <path clip-path="url(#p430c7707fa)" d="M 282.235715 26.426426 
L 282.55354 28.237156 
L 283.067376 28.921718 
" style="fill:none;stroke:#999999;"/>
    <path clip-path="url(#p430c7707fa)" d="M 282.235715 26.426426 
L 282.406255 25.155914 
L 283.213553 23.126524 
L 285.439437 21.780267 
L 287.493673 20.386848 
" style="fill:none;stroke:#999999;"/>
    <path clip-path="url(#p430c7707fa)" d="M 287.444947 26.163463 
L 286.931111 26.573628 
L 285.830351 27.698367 
L 283.9234 28.16284 
L 283.067376 28.921718 
" style="fill:none;stroke:#999999;"/>
    <path clip-path="url(#p430c7707fa)" d="M 287.444947 26.163463 
L 288.643159 25.204505 
L 290.771591 24.788623 
L 293.242211 24.911529 
L 293.83578 25.181638 
" style="fill:none;stroke:#999999;"/>
    <path clip-path="url(#p430c7707fa)" d="M 287.444947 26.163463 
L 286.83366 24.667145 
L 286.760571 23.320888 
L 286.980944 21.903174 
L 287.493673 20.386848 
" style="fill:none;stroke:#999999;"/>
    <path clip-path="url(#p430c7707fa)" d="M 312.640619 21.074268 
L 308.698258 21.041398 
L 302.461355 22.567727 
" style="fill:none;stroke:#999999;"/>
    <path clip-path="url(#p430c7707fa)" d="M 312.640619 21.074268 
L 319.024807 25.208792 
L 320.215267 28.350059 
" style="fill:none;stroke:#999999;"/>
    <path clip-path="url(#p430c7707fa)" d="M 312.640619 21.074268 
L 313.104622 25.48033 
L 314.476696 27.875582 
L 314.720325 29.248992 
" style="fill:none;stroke:#999999;"/>
    <path clip-path="url(#p430c7707fa)" d="M 276.854836 25.351707 
L 278.297784 27.185303 
L 282.235715 26.426426 
" style="fill:none;stroke:#999999;"/>
    <path clip-path="url(#p430c7707fa)" d="M 287.493673 20.386848 
L 288.839169 17.965872 
L 290.869042 15.080423 
" style="fill:none;stroke:#999999;"/>
    <path clip-path="url(#p430c7707fa)" d="M 287.493673 20.386848 
L 286.980944 21.903174 
L 286.760571 23.320888 
L 286.83366 24.667145 
L 287.444947 26.163463 
" style="fill:none;stroke:#999999;"/>
    <path clip-path="url(#p430c7707fa)" d="M 287.493673 20.386848 
L 285.439437 21.780267 
L 283.213553 23.126524 
L 282.406255 25.155914 
L 282.235715 26.426426 
" style="fill:none;stroke:#999999;"/>
    <path clip-path="url(#p430c7707fa)" d="M 311.892013 45.682761 
L 313.67272 29.419061 
" style="fill:none;stroke:#999999;"/>
    <path clip-path="url(#p430c7707fa)" d="M 311.892013 45.682761 
L 311.429118 47.297698 
L 310.773535 49.584334 
L 310.318391 51.1664 
" style="fill:none;stroke:#999999;"/>
    <path clip-path="url(#p430c7707fa)" d="M 311.892013 45.682761 
L 310.411413 42.517199 
L 306.228746 36.134626 
L 304.761434 33.44497 
L 303.783596 31.195492 
L 301.308547 29.747765 
" style="fill:none;stroke:#999999;"/>
    <path clip-path="url(#p430c7707fa)" d="M 281.914568 55.495289 
L 283.043013 52.86137 
L 283.629938 39.583159 
L 283.360838 29.97357 
L 283.067376 28.921718 
" style="fill:none;stroke:#999999;"/>
    <path clip-path="url(#p430c7707fa)" d="M 313.67272 29.419061 
L 314.720325 29.248992 
" style="fill:none;stroke:#999999;"/>
    <path clip-path="url(#p430c7707fa)" d="M 313.67272 29.419061 
L 311.892013 45.682761 
" style="fill:none;stroke:#999999;"/>
    <path clip-path="url(#p430c7707fa)" d="M 313.67272 29.419061 
L 310.069225 29.386191 
L 308.039352 29.0189 
L 305.74038 27.25819 
L 305.129093 26.769421 
" style="fill:none;stroke:#999999;"/>
    <path clip-path="url(#p430c7707fa)" d="M 310.318391 51.1664 
L 305.358326 68.406208 
L 295.834645 93.273377 
L 287.972072 102.419922 
L 283.874674 113.710188 
L 269.810634 133.718255 
L 264.938053 138.291527 
L 252.42438 144.293947 
L 240.132188 162.444122 
L 219.312979 183.309677 
L 214.551139 188.883353 
L 212.225589 194.742858 
L 210.453741 205.461465 
L 207.131527 212.607204 
L 185.647876 248.907553 
L 182.879364 254.624144 
L 181.328997 262.198626 
L 180.886035 275.775529 
L 180.110852 279.920057 
L 164.164224 315.505833 
L 160.73127 322.222826 
L 155.194246 330.797712 
L 148.882039 337.514706 
L 140.576504 342.230893 
L 135.703923 344.2317 
L 125.848021 346.089592 
L 121.196921 347.947484 
L 111.230279 359.094835 
L 109.12621 360.523983 
L 103.699927 362.524789 
L 95.505132 363.811022 
L 90.189589 365.525999 
L 88.528482 366.955147 
L 86.756634 369.956357 
L 85.64923 377.673754 
L 83.877382 381.961197 
L 55.417081 412.259127 
L 48.329691 422.54899 
L 46.779324 423.692308 
" style="fill:none;stroke:#999999;"/>
    <path clip-path="url(#p430c7707fa)" d="M 310.318391 51.1664 
L 310.773535 49.584334 
L 311.429118 47.297698 
L 311.892013 45.682761 
" style="fill:none;stroke:#999999;"/>
    <path clip-path="url(#p430c7707fa)" d="M 310.318391 51.1664 
L 305.103623 53.165778 
L 299.649654 55.25805 
L 291.615433 59.917071 
" style="fill:none;stroke:#999999;"/>
   </g>
  </g>
 </g>
 <defs>
  <clipPath id="p430c7707fa">
   <rect height="432" width="284.373381" x="41.310605" y="0"/>
  </clipPath>
 </defs>
</svg>
