<?xml version="1.0" encoding="utf-8" standalone="no"?>
<!DOCTYPE svg PUBLIC "-//W3C//DTD SVG 1.1//EN"
  "http://www.w3.org/Graphics/SVG/1.1/DTD/svg11.dtd">
<!-- Created with matplotlib (http://matplotlib.org/) -->
<svg height="432pt" version="1.1" viewBox="0 0 300.824847 432" width="300.824847pt" xmlns="http://www.w3.org/2000/svg" xmlns:xlink="http://www.w3.org/1999/xlink">
 <defs>
  <style type="text/css">
*{stroke-linecap:butt;stroke-linejoin:round;}
  </style>
 </defs>
 <g id="figure_1">
  <g id="patch_1">
   <path d="M 0 432 
L 300.824847 432 
L 300.824847 0 
L 0 0 
z
" style="fill:none;opacity:0;"/>
  </g>
  <g id="axes_1">
   <g id="PathCollection_1">
    <defs>
     <path d="M 0 1.936492 
C 0.513564 1.936492 1.006162 1.732451 1.369306 1.369306 
C 1.732451 1.006162 1.936492 0.513564 1.936492 0 
C 1.936492 -0.513564 1.732451 -1.006162 1.369306 -1.369306 
C 1.006162 -1.732451 0.513564 -1.936492 0 -1.936492 
C -0.513564 -1.936492 -1.006162 -1.732451 -1.369306 -1.369306 
C -1.732451 -1.006162 -1.936492 -0.513564 -1.936492 0 
C -1.936492 0.513564 -1.732451 1.006162 -1.369306 1.369306 
C -1.006162 1.732451 -0.513564 1.936492 0 1.936492 
z
" id="C0_0_5c8abff7d2"/>
    </defs>
    <g clip-path="url(#p6b3ef2caf9)">
     <use style="fill:#66ccff;" x="229.852471" xlink:href="#C0_0_5c8abff7d2" y="368.660362"/>
    </g>
    <g clip-path="url(#p6b3ef2caf9)">
     <use style="fill:#66ccff;" x="223.473505" xlink:href="#C0_0_5c8abff7d2" y="372.029267"/>
    </g>
    <g clip-path="url(#p6b3ef2caf9)">
     <use style="fill:#66ccff;" x="220.067099" xlink:href="#C0_0_5c8abff7d2" y="363.921261"/>
    </g>
    <g clip-path="url(#p6b3ef2caf9)">
     <use style="fill:#66ccff;" x="219.386178" xlink:href="#C0_0_5c8abff7d2" y="371.844276"/>
    </g>
    <g clip-path="url(#p6b3ef2caf9)">
     <use style="fill:#66ccff;" x="223.374495" xlink:href="#C0_0_5c8abff7d2" y="354.671712"/>
    </g>
    <g clip-path="url(#p6b3ef2caf9)">
     <use style="fill:#66ccff;" x="223.112567" xlink:href="#C0_0_5c8abff7d2" y="362.647581"/>
    </g>
    <g clip-path="url(#p6b3ef2caf9)">
     <use style="fill:#66ccff;" x="229.424927" xlink:href="#C0_0_5c8abff7d2" y="372.803126"/>
    </g>
    <g clip-path="url(#p6b3ef2caf9)">
     <use style="fill:#66ccff;" x="219.658907" xlink:href="#C0_0_5c8abff7d2" y="371.93275"/>
    </g>
    <g clip-path="url(#p6b3ef2caf9)">
     <use style="fill:#66ccff;" x="228.352015" xlink:href="#C0_0_5c8abff7d2" y="374.229051"/>
    </g>
    <g clip-path="url(#p6b3ef2caf9)">
     <use style="fill:#66ccff;" x="230.728713" xlink:href="#C0_0_5c8abff7d2" y="373.056484"/>
    </g>
    <g clip-path="url(#p6b3ef2caf9)">
     <use style="fill:#66ccff;" x="222.999156" xlink:href="#C0_0_5c8abff7d2" y="367.94223"/>
    </g>
    <g clip-path="url(#p6b3ef2caf9)">
     <use style="fill:#66ccff;" x="222.483852" xlink:href="#C0_0_5c8abff7d2" y="366.946611"/>
    </g>
    <g clip-path="url(#p6b3ef2caf9)">
     <use style="fill:#66ccff;" x="220.818228" xlink:href="#C0_0_5c8abff7d2" y="364.325714"/>
    </g>
    <g clip-path="url(#p6b3ef2caf9)">
     <use style="fill:#66ccff;" x="229.979385" xlink:href="#C0_0_5c8abff7d2" y="365.709699"/>
    </g>
    <g clip-path="url(#p6b3ef2caf9)">
     <use style="fill:#66ccff;" x="221.967198" xlink:href="#C0_0_5c8abff7d2" y="369.252678"/>
    </g>
    <g clip-path="url(#p6b3ef2caf9)">
     <use style="fill:#66ccff;" x="221.396088" xlink:href="#C0_0_5c8abff7d2" y="360.34496"/>
    </g>
    <g clip-path="url(#p6b3ef2caf9)">
     <use style="fill:#66ccff;" x="219.02479" xlink:href="#C0_0_5c8abff7d2" y="360.857994"/>
    </g>
    <g clip-path="url(#p6b3ef2caf9)">
     <use style="fill:#66ccff;" x="220.248468" xlink:href="#C0_0_5c8abff7d2" y="370.763055"/>
    </g>
    <g clip-path="url(#p6b3ef2caf9)">
     <use style="fill:#66ccff;" x="226.20169" xlink:href="#C0_0_5c8abff7d2" y="371.038818"/>
    </g>
    <g clip-path="url(#p6b3ef2caf9)">
     <use style="fill:#66ccff;" x="37.116689" xlink:href="#C0_0_5c8abff7d2" y="8.307692"/>
    </g>
    <g clip-path="url(#p6b3ef2caf9)">
     <use style="fill:#66ccff;" x="263.708158" xlink:href="#C0_0_5c8abff7d2" y="423.692308"/>
    </g>
    <g clip-path="url(#p6b3ef2caf9)">
     <use style="fill:#66ccff;" x="216.600837" xlink:href="#C0_0_5c8abff7d2" y="354.71997"/>
    </g>
    <g clip-path="url(#p6b3ef2caf9)">
     <use style="fill:#66ccff;" x="217.691301" xlink:href="#C0_0_5c8abff7d2" y="354.266685"/>
    </g>
    <g clip-path="url(#p6b3ef2caf9)">
     <use style="fill:#66ccff;" x="220.527947" xlink:href="#C0_0_5c8abff7d2" y="357.092106"/>
    </g>
    <g clip-path="url(#p6b3ef2caf9)">
     <use style="fill:#66ccff;" x="224.922206" xlink:href="#C0_0_5c8abff7d2" y="349.653975"/>
    </g>
    <g clip-path="url(#p6b3ef2caf9)">
     <use style="fill:#66ccff;" x="225.743092" xlink:href="#C0_0_5c8abff7d2" y="366.667975"/>
    </g>
    <g clip-path="url(#p6b3ef2caf9)">
     <use style="fill:#66ccff;" x="227.526178" xlink:href="#C0_0_5c8abff7d2" y="297.097002"/>
    </g>
    <g clip-path="url(#p6b3ef2caf9)">
     <use style="fill:#66ccff;" x="225.486115" xlink:href="#C0_0_5c8abff7d2" y="293.293772"/>
    </g>
    <g clip-path="url(#p6b3ef2caf9)">
     <use style="fill:#66ccff;" x="230.426731" xlink:href="#C0_0_5c8abff7d2" y="360.739072"/>
    </g>
    <g clip-path="url(#p6b3ef2caf9)">
     <use style="fill:#66ccff;" x="219.731364" xlink:href="#C0_0_5c8abff7d2" y="357.442555"/>
    </g>
    <g clip-path="url(#p6b3ef2caf9)">
     <use style="fill:#66ccff;" x="218.599946" xlink:href="#C0_0_5c8abff7d2" y="360.039898"/>
    </g>
    <g clip-path="url(#p6b3ef2caf9)">
     <use style="fill:#66ccff;" x="217.377618" xlink:href="#C0_0_5c8abff7d2" y="360.003129"/>
    </g>
    <g clip-path="url(#p6b3ef2caf9)">
     <use style="fill:#66ccff;" x="224.655329" xlink:href="#C0_0_5c8abff7d2" y="366.563415"/>
    </g>
    <g clip-path="url(#p6b3ef2caf9)">
     <use style="fill:#66ccff;" x="207.538241" xlink:href="#C0_0_5c8abff7d2" y="331.690891"/>
    </g>
    <g clip-path="url(#p6b3ef2caf9)">
     <use style="fill:#66ccff;" x="230.751215" xlink:href="#C0_0_5c8abff7d2" y="369.957023"/>
    </g>
    <g clip-path="url(#p6b3ef2caf9)">
     <use style="fill:#66ccff;" x="230.157153" xlink:href="#C0_0_5c8abff7d2" y="299.632298"/>
    </g>
    <g clip-path="url(#p6b3ef2caf9)">
     <use style="fill:#66ccff;" x="254.902988" xlink:href="#C0_0_5c8abff7d2" y="406.881683"/>
    </g>
    <g clip-path="url(#p6b3ef2caf9)">
     <use style="fill:#66ccff;" x="223.52076" xlink:href="#C0_0_5c8abff7d2" y="352.640833"/>
    </g>
    <g clip-path="url(#p6b3ef2caf9)">
     <use style="fill:#66ccff;" x="226.346605" xlink:href="#C0_0_5c8abff7d2" y="335.03107"/>
    </g>
    <g clip-path="url(#p6b3ef2caf9)">
     <use style="fill:#66ccff;" x="218.588695" xlink:href="#C0_0_5c8abff7d2" y="358.648444"/>
    </g>
    <g clip-path="url(#p6b3ef2caf9)">
     <use style="fill:#66ccff;" x="220.474392" xlink:href="#C0_0_5c8abff7d2" y="363.737994"/>
    </g>
    <g clip-path="url(#p6b3ef2caf9)">
     <use style="fill:#66ccff;" x="222.27728" xlink:href="#C0_0_5c8abff7d2" y="369.014833"/>
    </g>
    <g clip-path="url(#p6b3ef2caf9)">
     <use style="fill:#66ccff;" x="227.517628" xlink:href="#C0_0_5c8abff7d2" y="361.912788"/>
    </g>
    <g clip-path="url(#p6b3ef2caf9)">
     <use style="fill:#66ccff;" x="233.082009" xlink:href="#C0_0_5c8abff7d2" y="367.77907"/>
    </g>
    <g clip-path="url(#p6b3ef2caf9)">
     <use style="fill:#66ccff;" x="221.469896" xlink:href="#C0_0_5c8abff7d2" y="350.257781"/>
    </g>
    <g clip-path="url(#p6b3ef2caf9)">
     <use style="fill:#66ccff;" x="215.229094" xlink:href="#C0_0_5c8abff7d2" y="356.531388"/>
    </g>
    <g clip-path="url(#p6b3ef2caf9)">
     <use style="fill:#66ccff;" x="227.007274" xlink:href="#C0_0_5c8abff7d2" y="297.760557"/>
    </g>
    <g clip-path="url(#p6b3ef2caf9)">
     <use style="fill:#66ccff;" x="222.08061" xlink:href="#C0_0_5c8abff7d2" y="362.721692"/>
    </g>
    <g clip-path="url(#p6b3ef2caf9)">
     <use style="fill:#66ccff;" x="218.025236" xlink:href="#C0_0_5c8abff7d2" y="355.2962"/>
    </g>
    <g clip-path="url(#p6b3ef2caf9)">
     <use style="fill:#66ccff;" x="212.863197" xlink:href="#C0_0_5c8abff7d2" y="352.075519"/>
    </g>
    <g clip-path="url(#p6b3ef2caf9)">
     <use style="fill:#66ccff;" x="227.215646" xlink:href="#C0_0_5c8abff7d2" y="366.039465"/>
    </g>
    <g clip-path="url(#p6b3ef2caf9)">
     <use style="fill:#66ccff;" x="219.271416" xlink:href="#C0_0_5c8abff7d2" y="352.496057"/>
    </g>
    <g clip-path="url(#p6b3ef2caf9)">
     <use style="fill:#66ccff;" x="224.230484" xlink:href="#C0_0_5c8abff7d2" y="352.489163"/>
    </g>
    <g clip-path="url(#p6b3ef2caf9)">
     <use style="fill:#66ccff;" x="216.266902" xlink:href="#C0_0_5c8abff7d2" y="368.334617"/>
    </g>
    <g clip-path="url(#p6b3ef2caf9)">
     <use style="fill:#66ccff;" x="222.894295" xlink:href="#C0_0_5c8abff7d2" y="364.300435"/>
    </g>
   </g>
   <g id="LineCollection_1">
    <path clip-path="url(#p6b3ef2caf9)" d="M 229.852471 368.660362 
L 230.751215 369.957023 
" style="fill:none;stroke:#999999;"/>
    <path clip-path="url(#p6b3ef2caf9)" d="M 229.852471 368.660362 
L 229.726458 368.478819 
L 229.388473 367.899142 
L 228.808812 367.271207 
L 228.047333 366.527221 
L 227.215646 366.039465 
" style="fill:none;stroke:#999999;"/>
    <path clip-path="url(#p6b3ef2caf9)" d="M 229.852471 368.660362 
L 229.328167 368.274294 
L 228.652196 367.863522 
L 227.469022 367.332104 
L 226.612133 366.921907 
L 225.743092 366.667975 
" style="fill:none;stroke:#999999;"/>
    <path clip-path="url(#p6b3ef2caf9)" d="M 223.473505 372.029267 
L 225.34345 371.405927 
L 226.20169 371.038818 
" style="fill:none;stroke:#999999;"/>
    <path clip-path="url(#p6b3ef2caf9)" d="M 223.473505 372.029267 
L 222.905096 372.226897 
L 221.928494 372.294688 
L 221.059453 372.174042 
L 220.663862 372.088441 
L 220.16611 371.981008 
L 219.658907 371.93275 
" style="fill:none;stroke:#999999;"/>
    <path clip-path="url(#p6b3ef2caf9)" d="M 223.473505 372.029267 
L 223.146321 371.550703 
L 223.063062 371.087077 
L 222.700774 370.02424 
L 222.47035 369.377346 
L 222.27728 369.014833 
" style="fill:none;stroke:#999999;"/>
    <path clip-path="url(#p6b3ef2caf9)" d="M 220.067099 363.921261 
L 220.474392 363.737994 
" style="fill:none;stroke:#999999;"/>
    <path clip-path="url(#p6b3ef2caf9)" d="M 220.067099 363.921261 
L 219.824974 364.032141 
L 219.87853 364.361333 
L 220.143607 365.125426 
L 220.731369 366.72083 
L 221.659366 368.826395 
L 221.967198 369.252678 
" style="fill:none;stroke:#999999;"/>
    <path clip-path="url(#p6b3ef2caf9)" d="M 220.067099 363.921261 
L 219.864128 363.3232 
L 219.59725 362.277025 
L 219.320921 361.463524 
L 219.02479 360.857994 
" style="fill:none;stroke:#999999;"/>
    <path clip-path="url(#p6b3ef2caf9)" d="M 219.386178 371.844276 
L 219.658907 371.93275 
" style="fill:none;stroke:#999999;"/>
    <path clip-path="url(#p6b3ef2caf9)" d="M 219.386178 371.844276 
L 220.248468 370.763055 
" style="fill:none;stroke:#999999;"/>
    <path clip-path="url(#p6b3ef2caf9)" d="M 219.386178 371.844276 
L 218.862323 371.293324 
L 217.896523 370.085712 
L 216.266902 368.334617 
" style="fill:none;stroke:#999999;"/>
    <path clip-path="url(#p6b3ef2caf9)" d="M 223.374495 354.671712 
L 223.315539 355.139934 
L 223.848394 357.312142 
L 224.217883 358.531819 
L 224.565319 359.320041 
L 225.850203 360.527653 
L 227.517628 361.912788 
" style="fill:none;stroke:#999999;"/>
    <path clip-path="url(#p6b3ef2caf9)" d="M 223.374495 354.671712 
L 223.893399 353.083777 
L 224.230484 352.489163 
" style="fill:none;stroke:#999999;"/>
    <path clip-path="url(#p6b3ef2caf9)" d="M 223.374495 354.671712 
L 222.796184 355.75638 
L 220.527947 357.092106 
" style="fill:none;stroke:#999999;"/>
    <path clip-path="url(#p6b3ef2caf9)" d="M 223.112567 362.647581 
L 223.739483 363.46855 
L 224.198081 363.589197 
L 224.934358 364.072356 
L 227.517628 365.20758 
L 229.086941 365.775193 
L 229.979385 365.709699 
" style="fill:none;stroke:#999999;"/>
    <path clip-path="url(#p6b3ef2caf9)" d="M 223.112567 362.647581 
L 223.413649 362.477527 
L 224.270988 362.092608 
L 224.777291 362.465463 
L 225.428959 362.827401 
L 227.650391 364.15566 
L 229.979385 365.709699 
" style="fill:none;stroke:#999999;"/>
    <path clip-path="url(#p6b3ef2caf9)" d="M 223.112567 362.647581 
L 222.675572 362.872213 
L 222.538757 362.5097 
L 222.08061 362.721692 
" style="fill:none;stroke:#999999;"/>
    <path clip-path="url(#p6b3ef2caf9)" d="M 229.424927 372.803126 
L 227.879915 371.571385 
L 226.20169 371.038818 
" style="fill:none;stroke:#999999;"/>
    <path clip-path="url(#p6b3ef2caf9)" d="M 219.658907 371.93275 
L 219.386178 371.844276 
" style="fill:none;stroke:#999999;"/>
    <path clip-path="url(#p6b3ef2caf9)" d="M 219.658907 371.93275 
L 220.16611 371.981008 
L 220.663862 372.088441 
L 221.059453 372.174042 
L 221.928494 372.294688 
L 222.905096 372.226897 
L 223.473505 372.029267 
" style="fill:none;stroke:#999999;"/>
    <path clip-path="url(#p6b3ef2caf9)" d="M 219.658907 371.93275 
L 221.324981 373.236879 
L 222.242176 373.647076 
L 223.61842 374.202623 
L 224.463158 374.613395 
L 225.187734 375.386106 
L 228.302059 379.443843 
L 228.929875 379.999391 
L 229.967683 380.554364 
L 230.450584 380.941006 
L 231.199012 381.27939 
L 231.826828 381.641329 
L 232.550953 381.786679 
L 233.130614 381.761976 
L 233.516754 381.448295 
L 233.757979 381.182873 
L 235.254836 379.153718 
L 236.63108 376.85914 
L 236.896607 376.473072 
L 236.956013 375.873862 
L 236.872755 375.337848 
L 236.558622 375.023593 
L 235.893452 374.617991 
L 234.868695 373.888943 
L 233.527555 372.468764 
L 232.116658 371.183594 
L 230.751215 369.957023 
" style="fill:none;stroke:#999999;"/>
    <path clip-path="url(#p6b3ef2caf9)" d="M 228.352015 374.229051 
L 230.451034 372.959967 
L 230.728713 373.056484 
" style="fill:none;stroke:#999999;"/>
    <path clip-path="url(#p6b3ef2caf9)" d="M 228.352015 374.229051 
L 229.436628 376.110558 
L 230.113049 375.85835 
L 230.728713 373.056484 
" style="fill:none;stroke:#999999;"/>
    <path clip-path="url(#p6b3ef2caf9)" d="M 228.352015 374.229051 
L 226.805203 371.546107 
L 226.20169 371.038818 
" style="fill:none;stroke:#999999;"/>
    <path clip-path="url(#p6b3ef2caf9)" d="M 230.728713 373.056484 
L 230.451034 372.959967 
L 228.352015 374.229051 
" style="fill:none;stroke:#999999;"/>
    <path clip-path="url(#p6b3ef2caf9)" d="M 230.728713 373.056484 
L 230.113049 375.85835 
L 229.436628 376.110558 
L 228.352015 374.229051 
" style="fill:none;stroke:#999999;"/>
    <path clip-path="url(#p6b3ef2caf9)" d="M 230.728713 373.056484 
L 230.631953 371.378351 
L 230.751215 369.957023 
" style="fill:none;stroke:#999999;"/>
    <path clip-path="url(#p6b3ef2caf9)" d="M 222.999156 367.94223 
L 223.075213 367.803199 
L 224.00366 367.155156 
L 224.655329 366.563415 
" style="fill:none;stroke:#999999;"/>
    <path clip-path="url(#p6b3ef2caf9)" d="M 222.999156 367.94223 
L 222.941099 368.049088 
L 222.27728 369.014833 
" style="fill:none;stroke:#999999;"/>
    <path clip-path="url(#p6b3ef2caf9)" d="M 222.999156 367.94223 
L 222.592763 367.731386 
L 222.483852 366.946611 
" style="fill:none;stroke:#999999;"/>
    <path clip-path="url(#p6b3ef2caf9)" d="M 222.483852 366.946611 
L 224.655329 366.563415 
" style="fill:none;stroke:#999999;"/>
    <path clip-path="url(#p6b3ef2caf9)" d="M 222.483852 366.946611 
L 222.592763 367.731386 
L 222.999156 367.94223 
" style="fill:none;stroke:#999999;"/>
    <path clip-path="url(#p6b3ef2caf9)" d="M 222.483852 366.946611 
L 222.27863 366.040614 
L 221.361434 365.811386 
L 220.818228 364.325714 
" style="fill:none;stroke:#999999;"/>
    <path clip-path="url(#p6b3ef2caf9)" d="M 220.818228 364.325714 
L 222.894295 364.300435 
" style="fill:none;stroke:#999999;"/>
    <path clip-path="url(#p6b3ef2caf9)" d="M 220.818228 364.325714 
L 220.474392 363.737994 
" style="fill:none;stroke:#999999;"/>
    <path clip-path="url(#p6b3ef2caf9)" d="M 220.818228 364.325714 
L 221.361434 365.811386 
L 222.27863 366.040614 
L 222.483852 366.946611 
" style="fill:none;stroke:#999999;"/>
    <path clip-path="url(#p6b3ef2caf9)" d="M 229.979385 365.709699 
L 233.082009 367.77907 
" style="fill:none;stroke:#999999;"/>
    <path clip-path="url(#p6b3ef2caf9)" d="M 229.979385 365.709699 
L 227.650391 364.15566 
L 225.428959 362.827401 
L 224.777291 362.465463 
L 224.270988 362.092608 
L 223.413649 362.477527 
L 223.112567 362.647581 
" style="fill:none;stroke:#999999;"/>
    <path clip-path="url(#p6b3ef2caf9)" d="M 229.979385 365.709699 
L 229.086941 365.775193 
L 227.517628 365.20758 
L 224.934358 364.072356 
L 224.198081 363.589197 
L 223.739483 363.46855 
L 223.112567 362.647581 
" style="fill:none;stroke:#999999;"/>
    <path clip-path="url(#p6b3ef2caf9)" d="M 221.967198 369.252678 
L 222.27728 369.014833 
" style="fill:none;stroke:#999999;"/>
    <path clip-path="url(#p6b3ef2caf9)" d="M 221.967198 369.252678 
L 222.043256 369.569231 
L 221.803381 369.91968 
L 221.350633 370.098351 
L 220.515346 370.428118 
L 220.248468 370.763055 
" style="fill:none;stroke:#999999;"/>
    <path clip-path="url(#p6b3ef2caf9)" d="M 221.967198 369.252678 
L 221.659366 368.826395 
L 220.731369 366.72083 
L 220.143607 365.125426 
L 219.87853 364.361333 
L 219.824974 364.032141 
L 220.067099 363.921261 
" style="fill:none;stroke:#999999;"/>
    <path clip-path="url(#p6b3ef2caf9)" d="M 221.396088 360.34496 
L 222.08061 362.721692 
" style="fill:none;stroke:#999999;"/>
    <path clip-path="url(#p6b3ef2caf9)" d="M 221.396088 360.34496 
L 219.02479 360.857994 
" style="fill:none;stroke:#999999;"/>
    <path clip-path="url(#p6b3ef2caf9)" d="M 221.396088 360.34496 
L 221.119759 359.386684 
L 220.527947 357.092106 
" style="fill:none;stroke:#999999;"/>
    <path clip-path="url(#p6b3ef2caf9)" d="M 219.02479 360.857994 
L 221.396088 360.34496 
" style="fill:none;stroke:#999999;"/>
    <path clip-path="url(#p6b3ef2caf9)" d="M 219.02479 360.857994 
L 218.753862 360.30417 
L 218.599946 360.039898 
" style="fill:none;stroke:#999999;"/>
    <path clip-path="url(#p6b3ef2caf9)" d="M 219.02479 360.857994 
L 219.320921 361.463524 
L 219.59725 362.277025 
L 219.864128 363.3232 
L 220.067099 363.921261 
" style="fill:none;stroke:#999999;"/>
    <path clip-path="url(#p6b3ef2caf9)" d="M 220.248468 370.763055 
L 219.386178 371.844276 
" style="fill:none;stroke:#999999;"/>
    <path clip-path="url(#p6b3ef2caf9)" d="M 220.248468 370.763055 
L 219.671508 368.335192 
L 218.814168 365.54539 
L 218.500486 364.301584 
L 217.957279 363.142805 
L 217.401921 361.464098 
L 217.172397 360.256486 
L 217.377618 360.003129 
" style="fill:none;stroke:#999999;"/>
    <path clip-path="url(#p6b3ef2caf9)" d="M 220.248468 370.763055 
L 220.515346 370.428118 
L 221.350633 370.098351 
L 221.803381 369.91968 
L 222.043256 369.569231 
L 221.967198 369.252678 
" style="fill:none;stroke:#999999;"/>
    <path clip-path="url(#p6b3ef2caf9)" d="M 226.20169 371.038818 
L 227.879915 371.571385 
L 229.424927 372.803126 
" style="fill:none;stroke:#999999;"/>
    <path clip-path="url(#p6b3ef2caf9)" d="M 226.20169 371.038818 
L 226.805203 371.546107 
L 228.352015 374.229051 
" style="fill:none;stroke:#999999;"/>
    <path clip-path="url(#p6b3ef2caf9)" d="M 226.20169 371.038818 
L 225.34345 371.405927 
L 223.473505 372.029267 
" style="fill:none;stroke:#999999;"/>
    <path clip-path="url(#p6b3ef2caf9)" d="M 37.116689 8.307692 
L 39.488436 10.575843 
L 40.200861 11.32385 
L 41.72157 12.819864 
L 43.592865 14.436524 
L 44.926804 15.558535 
L 47.606384 17.055123 
L 52.990297 19.41979 
L 57.818851 21.615553 
L 59.388165 22.653111 
L 61.053789 24.100867 
L 65.158218 28.758388 
L 68.465613 32.378351 
L 70.05878 33.826107 
L 72.110994 35.008441 
L 74.042596 36.118387 
L 75.345932 36.915227 
L 76.770331 38.169948 
L 77.916601 39.557955 
L 78.746487 40.827039 
L 79.596176 42.889516 
L 80.955768 47.718815 
L 82.12094 52.256839 
L 83.334716 56.575976 
L 84.378826 58.73612 
L 85.495392 60.313139 
L 86.466594 61.284054 
L 88.845542 62.739853 
L 91.322151 63.904952 
L 95.570145 65.530804 
L 96.859529 66.039816 
L 98.808683 66.828613 
L 101.319945 67.870768 
L 102.939664 68.792275 
L 104.610689 70.184304 
L 106.25021 72.070982 
L 110.396493 78.643907 
L 113.135029 83.25317 
L 114.187239 86.052164 
L 114.951419 90.298339 
L 115.799758 93.471911 
L 117.878525 97.321677 
L 119.810127 99.300851 
L 122.320489 101.90796 
L 125.985672 106.044404 
L 128.415926 110.985157 
L 129.901081 116.184438 
L 130.966342 121.383719 
L 132.308832 126.295746 
L 134.348895 130.86307 
L 139.269709 139.930501 
L 141.639657 144.545509 
L 143.349836 149.247267 
L 144.25758 153.977177 
L 144.917799 158.515775 
L 146.275141 162.795846 
L 151.413328 169.249274 
L 153.288674 172.792253 
L 154.152764 174.587011 
L 155.16672 176.083599 
L 158.23289 178.64245 
L 161.347216 181.297817 
L 162.674854 183.204603 
L 163.842276 186.33164 
L 164.437238 188.443525 
L 165.330582 190.616307 
L 167.913851 194.406324 
L 170.593431 198.485892 
L 171.34186 200.755192 
L 171.935472 203.212355 
L 172.428273 205.221403 
L 173.514687 207.684311 
L 176.276175 212.170055 
L 180.236589 218.538455 
L 183.21995 223.279855 
L 184.597994 225.745635 
L 185.029139 227.110087 
L 185.292417 228.738238 
L 185.555694 230.869081 
L 186.034544 232.784485 
L 186.513394 234.030014 
L 187.327529 235.22671 
L 188.500802 236.400427 
L 190.334743 237.552886 
L 192.470217 238.411198 
L 198.760524 240.210551 
L 201.066565 241.159636 
L 202.16828 241.963944 
L 203.813201 243.542687 
L 204.974773 245.265631 
L 205.637692 247.084518 
L 206.00268 249.238341 
L 205.788458 251.759849 
L 205.195746 253.623547 
L 204.238496 256.239273 
L 203.868557 257.926598 
L 203.928413 259.691481 
L 204.293852 261.180026 
L 206.034183 265.230295 
L 208.179107 268.706057 
L 210.319081 270.992592 
L 213.988764 272.875823 
L 216.064831 273.938085 
L 218.382573 276.014924 
L 221.207968 279.775067 
L 221.79888 281.91855 
L 222.055857 284.322858 
L 222.603114 286.62433 
L 223.313288 288.681636 
L 224.339396 290.709643 
L 225.486115 293.293772 
" style="fill:none;stroke:#999999;"/>
    <path clip-path="url(#p6b3ef2caf9)" d="M 263.708158 423.692308 
L 262.804464 421.404624 
L 261.462423 418.979634 
L 260.161337 416.650011 
L 257.573117 411.827606 
L 254.902988 406.881683 
" style="fill:none;stroke:#999999;"/>
    <path clip-path="url(#p6b3ef2caf9)" d="M 216.600837 354.71997 
L 217.691301 354.266685 
" style="fill:none;stroke:#999999;"/>
    <path clip-path="url(#p6b3ef2caf9)" d="M 216.600837 354.71997 
L 216.508578 354.490743 
L 216.067982 354.599324 
L 215.796603 354.043777 
L 215.168788 353.162484 
L 214.878957 352.944746 
L 214.13683 353.439971 
L 213.865001 353.271066 
L 212.863197 352.075519 
" style="fill:none;stroke:#999999;"/>
    <path clip-path="url(#p6b3ef2caf9)" d="M 216.600837 354.71997 
L 215.627386 355.124423 
L 214.90326 355.347906 
L 215.229094 356.531388 
" style="fill:none;stroke:#999999;"/>
    <path clip-path="url(#p6b3ef2caf9)" d="M 217.691301 354.266685 
L 216.600837 354.71997 
" style="fill:none;stroke:#999999;"/>
    <path clip-path="url(#p6b3ef2caf9)" d="M 217.691301 354.266685 
L 217.714254 354.005285 
L 217.811014 353.727224 
L 218.209305 353.365285 
L 218.717408 352.926362 
L 219.271416 352.496057 
" style="fill:none;stroke:#999999;"/>
    <path clip-path="url(#p6b3ef2caf9)" d="M 217.691301 354.266685 
L 217.738556 354.560832 
L 217.800212 354.761909 
L 217.908674 355.003202 
L 218.025236 355.2962 
" style="fill:none;stroke:#999999;"/>
    <path clip-path="url(#p6b3ef2caf9)" d="M 220.527947 357.092106 
L 219.731364 357.442555 
" style="fill:none;stroke:#999999;"/>
    <path clip-path="url(#p6b3ef2caf9)" d="M 220.527947 357.092106 
L 221.119759 359.386684 
L 221.396088 360.34496 
" style="fill:none;stroke:#999999;"/>
    <path clip-path="url(#p6b3ef2caf9)" d="M 220.527947 357.092106 
L 222.796184 355.75638 
L 223.374495 354.671712 
" style="fill:none;stroke:#999999;"/>
    <path clip-path="url(#p6b3ef2caf9)" d="M 224.922206 349.653975 
L 225.101775 349.235735 
L 225.186384 348.800834 
L 225.139579 348.361911 
L 225.042819 347.709846 
L 225.006365 347.274945 
L 224.8619 346.369523 
L 224.739937 345.25096 
L 224.559919 344.25649 
L 224.280889 343.415413 
L 224.089169 342.529524 
L 224.027513 341.882056 
L 224.124273 341.290314 
L 224.099971 340.734767 
L 224.015362 340.251607 
L 224.160277 339.829345 
L 224.558568 339.394444 
L 224.897904 339.052038 
L 225.464063 338.56141 
L 225.753893 338.198897 
L 226.00862 337.856491 
L 226.127882 337.221087 
L 226.261996 336.081842 
L 226.346605 335.03107 
" style="fill:none;stroke:#999999;"/>
    <path clip-path="url(#p6b3ef2caf9)" d="M 224.922206 349.653975 
L 224.655329 350.104962 
L 224.246236 350.740941 
L 223.739033 351.163203 
L 222.965402 351.638319 
L 222.627417 351.928445 
L 222.120214 352.157673 
L 221.542353 352.322556 
L 220.828579 352.592574 
L 220.394283 352.725285 
L 219.996892 352.769522 
L 219.683209 352.745393 
L 219.452785 352.677027 
L 219.271416 352.496057 
" style="fill:none;stroke:#999999;"/>
    <path clip-path="url(#p6b3ef2caf9)" d="M 224.922206 349.653975 
L 224.964511 350.372682 
L 224.518064 351.139648 
L 223.781787 352.135842 
L 223.52076 352.640833 
" style="fill:none;stroke:#999999;"/>
    <path clip-path="url(#p6b3ef2caf9)" d="M 225.743092 366.667975 
L 226.612133 366.921907 
L 227.469022 367.332104 
L 228.652196 367.863522 
L 229.328167 368.274294 
L 229.852471 368.660362 
" style="fill:none;stroke:#999999;"/>
    <path clip-path="url(#p6b3ef2caf9)" d="M 225.743092 366.667975 
L 225.078823 366.535264 
L 224.655329 366.563415 
" style="fill:none;stroke:#999999;"/>
    <path clip-path="url(#p6b3ef2caf9)" d="M 225.743092 366.667975 
L 226.950118 366.48758 
L 227.215646 366.039465 
" style="fill:none;stroke:#999999;"/>
    <path clip-path="url(#p6b3ef2caf9)" d="M 227.526178 297.097002 
L 227.007274 297.760557 
" style="fill:none;stroke:#999999;"/>
    <path clip-path="url(#p6b3ef2caf9)" d="M 227.526178 297.097002 
L 226.729595 295.91352 
L 225.486115 293.293772 
" style="fill:none;stroke:#999999;"/>
    <path clip-path="url(#p6b3ef2caf9)" d="M 227.526178 297.097002 
L 228.370917 297.942101 
L 230.157153 299.632298 
" style="fill:none;stroke:#999999;"/>
    <path clip-path="url(#p6b3ef2caf9)" d="M 225.486115 293.293772 
L 224.339396 290.709643 
L 223.313288 288.681636 
L 222.603114 286.62433 
L 222.055857 284.322858 
L 221.79888 281.91855 
L 221.207968 279.775067 
L 218.382573 276.014924 
L 216.064831 273.938085 
L 213.988764 272.875823 
L 210.319081 270.992592 
L 208.179107 268.706057 
L 206.034183 265.230295 
L 204.293852 261.180026 
L 203.928413 259.691481 
L 203.868557 257.926598 
L 204.238496 256.239273 
L 205.195746 253.623547 
L 205.788458 251.759849 
L 206.00268 249.238341 
L 205.637692 247.084518 
L 204.974773 245.265631 
L 203.813201 243.542687 
L 202.16828 241.963944 
L 201.066565 241.159636 
L 198.760524 240.210551 
L 192.470217 238.411198 
L 190.334743 237.552886 
L 188.500802 236.400427 
L 187.327529 235.22671 
L 186.513394 234.030014 
L 186.034544 232.784485 
L 185.555694 230.869081 
L 185.292417 228.738238 
L 185.029139 227.110087 
L 184.597994 225.745635 
L 183.21995 223.279855 
L 180.236589 218.538455 
L 176.276175 212.170055 
L 173.514687 207.684311 
L 172.428273 205.221403 
L 171.935472 203.212355 
L 171.34186 200.755192 
L 170.593431 198.485892 
L 167.913851 194.406324 
L 165.330582 190.616307 
L 164.437238 188.443525 
L 163.842276 186.33164 
L 162.674854 183.204603 
L 161.347216 181.297817 
L 158.23289 178.64245 
L 155.16672 176.083599 
L 154.152764 174.587011 
L 153.288674 172.792253 
L 151.413328 169.249274 
L 146.275141 162.795846 
L 144.917799 158.515775 
L 144.25758 153.977177 
L 143.349836 149.247267 
L 141.639657 144.545509 
L 139.269709 139.930501 
L 134.348895 130.86307 
L 132.308832 126.295746 
L 130.966342 121.383719 
L 129.901081 116.184438 
L 128.415926 110.985157 
L 125.985672 106.044404 
L 122.320489 101.90796 
L 119.810127 99.300851 
L 117.878525 97.321677 
L 115.799758 93.471911 
L 114.951419 90.298339 
L 114.187239 86.052164 
L 113.135029 83.25317 
L 110.396493 78.643907 
L 106.25021 72.070982 
L 104.610689 70.184304 
L 102.939664 68.792275 
L 101.319945 67.870768 
L 98.808683 66.828613 
L 96.859529 66.039816 
L 95.570145 65.530804 
L 91.322151 63.904952 
L 88.845542 62.739853 
L 86.466594 61.284054 
L 85.495392 60.313139 
L 84.378826 58.73612 
L 83.334716 56.575976 
L 82.12094 52.256839 
L 80.955768 47.718815 
L 79.596176 42.889516 
L 78.746487 40.827039 
L 77.916601 39.557955 
L 76.770331 38.169948 
L 75.345932 36.915227 
L 74.042596 36.118387 
L 72.110994 35.008441 
L 70.05878 33.826107 
L 68.465613 32.378351 
L 65.158218 28.758388 
L 61.053789 24.100867 
L 59.388165 22.653111 
L 57.818851 21.615553 
L 52.990297 19.41979 
L 47.606384 17.055123 
L 44.926804 15.558535 
L 43.592865 14.436524 
L 41.72157 12.819864 
L 40.200861 11.32385 
L 39.488436 10.575843 
L 37.116689 8.307692 
" style="fill:none;stroke:#999999;"/>
    <path clip-path="url(#p6b3ef2caf9)" d="M 225.486115 293.293772 
L 226.729595 295.91352 
L 227.526178 297.097002 
" style="fill:none;stroke:#999999;"/>
    <path clip-path="url(#p6b3ef2caf9)" d="M 225.486115 293.293772 
L 225.715639 294.150935 
L 226.367307 295.660163 
L 226.729595 296.505261 
L 226.910514 297.277972 
L 227.007274 297.760557 
" style="fill:none;stroke:#999999;"/>
    <path clip-path="url(#p6b3ef2caf9)" d="M 230.426731 360.739072 
L 230.100447 359.724494 
L 229.967683 359.0483 
L 229.895226 358.601909 
L 229.664802 357.96593 
L 229.473082 357.659719 
L 229.183252 357.321909 
L 228.845266 357.055913 
L 228.469927 356.999611 
L 227.914569 357.01225 
L 227.491975 357.132896 
L 227.15399 357.470706 
L 226.96227 357.876882 
L 226.840307 358.279611 
L 226.829506 358.770813 
L 226.829506 359.19365 
L 227.095033 359.748623 
L 227.63689 361.238317 
L 227.624739 361.588766 
L 227.517628 361.912788 
" style="fill:none;stroke:#999999;"/>
    <path clip-path="url(#p6b3ef2caf9)" d="M 219.731364 357.442555 
L 220.527947 357.092106 
" style="fill:none;stroke:#999999;"/>
    <path clip-path="url(#p6b3ef2caf9)" d="M 219.731364 357.442555 
L 219.766468 357.664315 
L 219.838925 358.207223 
L 219.525243 358.364638 
L 218.588695 358.648444 
" style="fill:none;stroke:#999999;"/>
    <path clip-path="url(#p6b3ef2caf9)" d="M 219.731364 357.442555 
L 219.303369 357.787259 
L 218.977085 357.581586 
L 218.560792 356.833004 
L 218.025236 355.2962 
" style="fill:none;stroke:#999999;"/>
    <path clip-path="url(#p6b3ef2caf9)" d="M 218.599946 360.039898 
L 217.890672 360.274871 
L 217.377618 360.003129 
" style="fill:none;stroke:#999999;"/>
    <path clip-path="url(#p6b3ef2caf9)" d="M 218.599946 360.039898 
L 218.367272 359.640041 
L 218.138198 358.915589 
L 218.588695 358.648444 
" style="fill:none;stroke:#999999;"/>
    <path clip-path="url(#p6b3ef2caf9)" d="M 218.599946 360.039898 
L 218.753862 360.30417 
L 219.02479 360.857994 
" style="fill:none;stroke:#999999;"/>
    <path clip-path="url(#p6b3ef2caf9)" d="M 217.377618 360.003129 
L 217.172397 360.256486 
L 217.401921 361.464098 
L 217.957279 363.142805 
L 218.500486 364.301584 
L 218.814168 365.54539 
L 219.671508 368.335192 
L 220.248468 370.763055 
" style="fill:none;stroke:#999999;"/>
    <path clip-path="url(#p6b3ef2caf9)" d="M 217.377618 360.003129 
L 217.890672 360.274871 
L 218.599946 360.039898 
" style="fill:none;stroke:#999999;"/>
    <path clip-path="url(#p6b3ef2caf9)" d="M 217.377618 360.003129 
L 216.563033 358.288228 
L 216.182744 358.420939 
L 215.410013 357.467259 
L 215.229094 356.531388 
" style="fill:none;stroke:#999999;"/>
    <path clip-path="url(#p6b3ef2caf9)" d="M 224.655329 366.563415 
L 222.483852 366.946611 
" style="fill:none;stroke:#999999;"/>
    <path clip-path="url(#p6b3ef2caf9)" d="M 224.655329 366.563415 
L 225.078823 366.535264 
L 225.743092 366.667975 
" style="fill:none;stroke:#999999;"/>
    <path clip-path="url(#p6b3ef2caf9)" d="M 224.655329 366.563415 
L 224.00366 367.155156 
L 223.075213 367.803199 
L 222.999156 367.94223 
" style="fill:none;stroke:#999999;"/>
    <path clip-path="url(#p6b3ef2caf9)" d="M 207.538241 331.690891 
L 208.250665 332.632507 
L 209.047248 333.091537 
L 210.206119 333.574697 
L 210.556256 333.972829 
L 211.135466 334.829993 
L 212.234031 335.856635 
L 212.958157 336.556958 
L 214.165633 338.126509 
L 215.107131 339.346186 
L 216.060781 340.457281 
L 216.736751 341.036383 
L 217.702102 341.809668 
L 218.462682 342.449668 
L 219.380328 343.403348 
L 220.057198 344.280619 
L 220.74532 345.524425 
L 221.240372 346.3092 
L 221.673767 347.061803 
L 221.940645 347.649523 
L 222.144516 348.088446 
L 222.337586 348.607799 
L 222.313284 349.017997 
L 222.18187 349.5092 
L 221.830834 349.899864 
L 221.469896 350.257781 
" style="fill:none;stroke:#999999;"/>
    <path clip-path="url(#p6b3ef2caf9)" d="M 230.751215 369.957023 
L 229.852471 368.660362 
" style="fill:none;stroke:#999999;"/>
    <path clip-path="url(#p6b3ef2caf9)" d="M 230.751215 369.957023 
L 232.116658 371.183594 
L 233.527555 372.468764 
L 234.868695 373.888943 
L 235.893452 374.617991 
L 236.558622 375.023593 
L 236.872755 375.337848 
L 236.956013 375.873862 
L 236.896607 376.473072 
L 236.63108 376.85914 
L 235.254836 379.153718 
L 233.757979 381.182873 
L 233.516754 381.448295 
L 233.130614 381.761976 
L 232.550953 381.786679 
L 231.826828 381.641329 
L 231.199012 381.27939 
L 230.450584 380.941006 
L 229.967683 380.554364 
L 228.929875 379.999391 
L 228.302059 379.443843 
L 225.187734 375.386106 
L 224.463158 374.613395 
L 223.61842 374.202623 
L 222.242176 373.647076 
L 221.324981 373.236879 
L 219.658907 371.93275 
" style="fill:none;stroke:#999999;"/>
    <path clip-path="url(#p6b3ef2caf9)" d="M 230.751215 369.957023 
L 230.631953 371.378351 
L 230.728713 373.056484 
" style="fill:none;stroke:#999999;"/>
    <path clip-path="url(#p6b3ef2caf9)" d="M 230.157153 299.632298 
L 228.370917 297.942101 
L 227.526178 297.097002 
" style="fill:none;stroke:#999999;"/>
    <path clip-path="url(#p6b3ef2caf9)" d="M 230.157153 299.632298 
L 231.968142 301.346625 
L 233.271929 303.048886 
L 233.694523 303.652692 
L 234.032508 304.316821 
L 234.478955 305.270502 
L 234.769685 306.135133 
L 234.9092 307.222099 
L 234.977607 309.304109 
L 235.114421 316.50497 
L 235.183278 318.138865 
L 235.58022 320.042779 
L 237.68914 325.453478 
L 238.086532 326.604213 
L 238.428567 327.902023 
L 238.36016 329.4124 
L 237.785 333.316169 
L 237.086527 337.069418 
L 236.580224 340.165431 
L 236.484364 341.60342 
L 236.604977 342.896634 
L 236.867804 344.206508 
L 237.223791 345.315879 
L 238.319206 347.589775 
L 239.469526 349.850456 
L 240.56494 352.13814 
L 241.099146 353.275087 
L 241.496088 354.370671 
L 241.915982 356.565859 
L 242.112652 358.946038 
L 242.345326 360.316235 
L 242.783672 361.589915 
L 243.372334 362.740651 
L 244.056855 363.740866 
L 245.741381 365.60399 
L 247.494314 367.26144 
L 249.247247 369.096987 
L 250.42502 370.877956 
L 251.123493 373.138638 
L 251.301262 374.439894 
L 251.447527 375.798602 
L 251.136995 378.440181 
L 250.622141 381.383376 
L 249.767502 386.344811 
L 249.520876 391.920968 
L 249.534827 393.331955 
L 249.685593 395.332386 
L 250.178395 397.401182 
L 251.136995 399.853175 
L 252.383175 402.196011 
L 253.629355 404.470481 
L 254.902988 406.881683 
" style="fill:none;stroke:#999999;"/>
    <path clip-path="url(#p6b3ef2caf9)" d="M 254.902988 406.881683 
L 253.629355 404.470481 
L 252.383175 402.196011 
L 251.136995 399.853175 
L 250.178395 397.401182 
L 249.685593 395.332386 
L 249.534827 393.331955 
L 249.520876 391.920968 
L 249.767502 386.344811 
L 250.622141 381.383376 
L 251.136995 378.440181 
L 251.447527 375.798602 
L 251.301262 374.439894 
L 251.123493 373.138638 
L 250.42502 370.877956 
L 249.247247 369.096987 
L 247.494314 367.26144 
L 245.741381 365.60399 
L 244.056855 363.740866 
L 243.372334 362.740651 
L 242.783672 361.589915 
L 242.345326 360.316235 
L 242.112652 358.946038 
L 241.915982 356.565859 
L 241.496088 354.370671 
L 241.099146 353.275087 
L 240.56494 352.13814 
L 239.469526 349.850456 
L 238.319206 347.589775 
L 237.223791 345.315879 
L 236.867804 344.206508 
L 236.604977 342.896634 
L 236.484364 341.60342 
L 236.580224 340.165431 
L 237.086527 337.069418 
L 237.785 333.316169 
L 238.36016 329.4124 
L 238.428567 327.902023 
L 238.086532 326.604213 
L 237.68914 325.453478 
L 235.58022 320.042779 
L 235.183278 318.138865 
L 235.114421 316.50497 
L 234.977607 309.304109 
L 234.9092 307.222099 
L 234.769685 306.135133 
L 234.478955 305.270502 
L 234.032508 304.316821 
L 233.694523 303.652692 
L 233.271929 303.048886 
L 231.968142 301.346625 
L 230.157153 299.632298 
" style="fill:none;stroke:#999999;"/>
    <path clip-path="url(#p6b3ef2caf9)" d="M 254.902988 406.881683 
L 257.573117 411.827606 
L 260.161337 416.650011 
L 261.462423 418.979634 
L 262.804464 421.404624 
L 263.708158 423.692308 
" style="fill:none;stroke:#999999;"/>
    <path clip-path="url(#p6b3ef2caf9)" d="M 254.902988 406.881683 
L 253.227913 404.784735 
L 252.575795 404.132671 
L 251.634297 403.335256 
L 251.078939 402.827967 
L 250.524031 402.151774 
L 250.209898 401.282546 
L 250.04113 400.412744 
L 249.871913 399.398166 
L 249.437617 398.238812 
L 248.423661 397.586748 
L 247.554171 397.345455 
L 244.632915 396.693391 
L 241.663505 395.799459 
L 240.601394 395.77533 
L 238.211195 396.113714 
L 236.303895 396.330877 
L 235.528014 396.28147 
L 233.962301 395.993068 
L 228.505931 394.615976 
L 227.467672 394.278167 
L 227.081532 393.915653 
L 226.719694 393.456623 
L 226.671089 393.022296 
L 226.805203 392.365061 
L 226.960919 391.814684 
L 227.215646 391.350483 
L 227.481174 391.060932 
L 227.915919 390.940286 
L 228.39837 390.892027 
L 232.320529 391.113787 
L 233.299381 391.060932 
L 234.783186 390.607072 
L 235.700382 390.244559 
L 236.341249 389.756803 
L 236.82415 389.032351 
L 237.258895 388.403841 
L 237.765648 387.65526 
L 238.35611 387.080754 
L 238.900667 386.83429 
L 239.804811 386.501077 
L 240.649549 386.186822 
L 241.411479 385.674937 
L 241.773317 384.950485 
L 243.173863 381.979713 
L 243.270173 381.255261 
L 241.942534 375.193072 
L 241.677007 374.395657 
L 241.242261 373.767722 
L 240.807966 373.52643 
L 240.541988 373.333396 
L 239.490678 373.120828 
L 238.814708 373.048441 
L 238.114885 372.758315 
L 237.438914 372.468764 
L 236.425408 371.779931 
L 235.459157 370.621152 
L 234.022607 368.857993 
L 233.082009 367.77907 
" style="fill:none;stroke:#999999;"/>
    <path clip-path="url(#p6b3ef2caf9)" d="M 223.52076 352.640833 
L 224.230484 352.489163 
" style="fill:none;stroke:#999999;"/>
    <path clip-path="url(#p6b3ef2caf9)" d="M 223.52076 352.640833 
L 223.781787 352.135842 
L 224.518064 351.139648 
L 224.964511 350.372682 
L 224.922206 349.653975 
" style="fill:none;stroke:#999999;"/>
    <path clip-path="url(#p6b3ef2caf9)" d="M 223.52076 352.640833 
L 222.446048 353.220509 
L 221.216069 353.807655 
L 219.464486 354.717672 
L 218.025236 355.2962 
" style="fill:none;stroke:#999999;"/>
    <path clip-path="url(#p6b3ef2caf9)" d="M 226.346605 335.03107 
L 226.261996 336.081842 
L 226.127882 337.221087 
L 226.00862 337.856491 
L 225.753893 338.198897 
L 225.464063 338.56141 
L 224.897904 339.052038 
L 224.558568 339.394444 
L 224.160277 339.829345 
L 224.015362 340.251607 
L 224.099971 340.734767 
L 224.124273 341.290314 
L 224.027513 341.882056 
L 224.089169 342.529524 
L 224.280889 343.415413 
L 224.559919 344.25649 
L 224.739937 345.25096 
L 224.8619 346.369523 
L 225.006365 347.274945 
L 225.042819 347.709846 
L 225.139579 348.361911 
L 225.186384 348.800834 
L 225.101775 349.235735 
L 224.922206 349.653975 
" style="fill:none;stroke:#999999;"/>
    <path clip-path="url(#p6b3ef2caf9)" d="M 218.588695 358.648444 
L 218.293914 358.050383 
L 217.848368 356.911137 
L 217.522533 355.498426 
L 218.025236 355.2962 
" style="fill:none;stroke:#999999;"/>
    <path clip-path="url(#p6b3ef2caf9)" d="M 218.588695 358.648444 
L 218.138198 358.915589 
L 218.367272 359.640041 
L 218.599946 360.039898 
" style="fill:none;stroke:#999999;"/>
    <path clip-path="url(#p6b3ef2caf9)" d="M 218.588695 358.648444 
L 219.525243 358.364638 
L 219.838925 358.207223 
L 219.766468 357.664315 
L 219.731364 357.442555 
" style="fill:none;stroke:#999999;"/>
    <path clip-path="url(#p6b3ef2caf9)" d="M 220.474392 363.737994 
L 220.067099 363.921261 
" style="fill:none;stroke:#999999;"/>
    <path clip-path="url(#p6b3ef2caf9)" d="M 220.474392 363.737994 
L 220.818228 364.325714 
" style="fill:none;stroke:#999999;"/>
    <path clip-path="url(#p6b3ef2caf9)" d="M 220.474392 363.737994 
L 221.238122 363.157168 
L 222.08061 362.721692 
" style="fill:none;stroke:#999999;"/>
    <path clip-path="url(#p6b3ef2caf9)" d="M 222.27728 369.014833 
L 221.967198 369.252678 
" style="fill:none;stroke:#999999;"/>
    <path clip-path="url(#p6b3ef2caf9)" d="M 222.27728 369.014833 
L 222.47035 369.377346 
L 222.700774 370.02424 
L 223.063062 371.087077 
L 223.146321 371.550703 
L 223.473505 372.029267 
" style="fill:none;stroke:#999999;"/>
    <path clip-path="url(#p6b3ef2caf9)" d="M 222.27728 369.014833 
L 222.941099 368.049088 
L 222.999156 367.94223 
" style="fill:none;stroke:#999999;"/>
    <path clip-path="url(#p6b3ef2caf9)" d="M 227.517628 361.912788 
L 227.624739 361.588766 
L 227.63689 361.238317 
L 227.095033 359.748623 
L 226.829506 359.19365 
L 226.829506 358.770813 
L 226.840307 358.279611 
L 226.96227 357.876882 
L 227.15399 357.470706 
L 227.491975 357.132896 
L 227.914569 357.01225 
L 228.469927 356.999611 
L 228.845266 357.055913 
L 229.183252 357.321909 
L 229.473082 357.659719 
L 229.664802 357.96593 
L 229.895226 358.601909 
L 229.967683 359.0483 
L 230.100447 359.724494 
L 230.426731 360.739072 
" style="fill:none;stroke:#999999;"/>
    <path clip-path="url(#p6b3ef2caf9)" d="M 227.517628 361.912788 
L 229.593694 363.636881 
L 230.654905 364.49864 
L 231.549149 365.448299 
L 233.082009 367.77907 
" style="fill:none;stroke:#999999;"/>
    <path clip-path="url(#p6b3ef2caf9)" d="M 227.517628 361.912788 
L 225.850203 360.527653 
L 224.565319 359.320041 
L 224.217883 358.531819 
L 223.848394 357.312142 
L 223.315539 355.139934 
L 223.374495 354.671712 
" style="fill:none;stroke:#999999;"/>
    <path clip-path="url(#p6b3ef2caf9)" d="M 233.082009 367.77907 
L 229.979385 365.709699 
" style="fill:none;stroke:#999999;"/>
    <path clip-path="url(#p6b3ef2caf9)" d="M 233.082009 367.77907 
L 234.022607 368.857993 
L 235.459157 370.621152 
L 236.425408 371.779931 
L 237.438914 372.468764 
L 238.114885 372.758315 
L 238.814708 373.048441 
L 239.490678 373.120828 
L 240.541988 373.333396 
L 240.807966 373.52643 
L 241.242261 373.767722 
L 241.677007 374.395657 
L 241.942534 375.193072 
L 243.270173 381.255261 
L 243.173863 381.979713 
L 241.773317 384.950485 
L 241.411479 385.674937 
L 240.649549 386.186822 
L 239.804811 386.501077 
L 238.900667 386.83429 
L 238.35611 387.080754 
L 237.765648 387.65526 
L 237.258895 388.403841 
L 236.82415 389.032351 
L 236.341249 389.756803 
L 235.700382 390.244559 
L 234.783186 390.607072 
L 233.299381 391.060932 
L 232.320529 391.113787 
L 228.39837 390.892027 
L 227.915919 390.940286 
L 227.481174 391.060932 
L 227.215646 391.350483 
L 226.960919 391.814684 
L 226.805203 392.365061 
L 226.671089 393.022296 
L 226.719694 393.456623 
L 227.081532 393.915653 
L 227.467672 394.278167 
L 228.505931 394.615976 
L 233.962301 395.993068 
L 235.528014 396.28147 
L 236.303895 396.330877 
L 238.211195 396.113714 
L 240.601394 395.77533 
L 241.663505 395.799459 
L 244.632915 396.693391 
L 247.554171 397.345455 
L 248.423661 397.586748 
L 249.437617 398.238812 
L 249.871913 399.398166 
L 250.04113 400.412744 
L 250.209898 401.282546 
L 250.524031 402.151774 
L 251.078939 402.827967 
L 251.634297 403.335256 
L 252.575795 404.132671 
L 253.227913 404.784735 
L 254.902988 406.881683 
" style="fill:none;stroke:#999999;"/>
    <path clip-path="url(#p6b3ef2caf9)" d="M 233.082009 367.77907 
L 231.549149 365.448299 
L 230.654905 364.49864 
L 229.593694 363.636881 
L 227.517628 361.912788 
" style="fill:none;stroke:#999999;"/>
    <path clip-path="url(#p6b3ef2caf9)" d="M 221.469896 350.257781 
L 221.830834 349.899864 
L 222.18187 349.5092 
L 222.313284 349.017997 
L 222.337586 348.607799 
L 222.144516 348.088446 
L 221.940645 347.649523 
L 221.673767 347.061803 
L 221.240372 346.3092 
L 220.74532 345.524425 
L 220.057198 344.280619 
L 219.380328 343.403348 
L 218.462682 342.449668 
L 217.702102 341.809668 
L 216.736751 341.036383 
L 216.060781 340.457281 
L 215.107131 339.346186 
L 214.165633 338.126509 
L 212.958157 336.556958 
L 212.234031 335.856635 
L 211.135466 334.829993 
L 210.556256 333.972829 
L 210.206119 333.574697 
L 209.047248 333.091537 
L 208.250665 332.632507 
L 207.538241 331.690891 
" style="fill:none;stroke:#999999;"/>
    <path clip-path="url(#p6b3ef2caf9)" d="M 221.469896 350.257781 
L 220.829929 350.825393 
L 220.044147 351.602126 
L 219.271416 352.496057 
" style="fill:none;stroke:#999999;"/>
    <path clip-path="url(#p6b3ef2caf9)" d="M 221.469896 350.257781 
L 220.178261 350.336488 
L 218.995537 350.475519 
L 217.818214 350.614549 
L 215.911365 350.505968 
L 215.19309 350.572036 
L 214.251592 350.723131 
L 213.780393 350.958679 
L 212.863197 352.075519 
" style="fill:none;stroke:#999999;"/>
    <path clip-path="url(#p6b3ef2caf9)" d="M 215.229094 356.531388 
L 215.410013 357.467259 
L 216.182744 358.420939 
L 216.563033 358.288228 
L 217.377618 360.003129 
" style="fill:none;stroke:#999999;"/>
    <path clip-path="url(#p6b3ef2caf9)" d="M 215.229094 356.531388 
L 214.90326 355.347906 
L 215.627386 355.124423 
L 216.600837 354.71997 
" style="fill:none;stroke:#999999;"/>
    <path clip-path="url(#p6b3ef2caf9)" d="M 215.229094 356.531388 
L 214.836653 356.090742 
L 214.396057 355.800617 
L 213.623776 355.35997 
L 213.044116 354.88313 
L 212.440603 354.194872 
L 212.283986 353.62094 
L 212.392448 352.631066 
L 212.863197 352.075519 
" style="fill:none;stroke:#999999;"/>
    <path clip-path="url(#p6b3ef2caf9)" d="M 227.007274 297.760557 
L 227.526178 297.097002 
" style="fill:none;stroke:#999999;"/>
    <path clip-path="url(#p6b3ef2caf9)" d="M 227.007274 297.760557 
L 227.320957 297.724363 
L 227.791706 297.857649 
L 228.286758 298.243717 
L 228.865968 298.7872 
L 229.421326 299.197397 
L 230.157153 299.632298 
" style="fill:none;stroke:#999999;"/>
    <path clip-path="url(#p6b3ef2caf9)" d="M 227.007274 297.760557 
L 226.741296 298.316105 
L 226.753448 299.209462 
L 227.007274 300.042496 
L 227.550481 300.8514 
L 228.009079 302.034883 
L 228.165695 302.566301 
L 228.274607 303.242495 
L 228.189998 308.892763 
L 228.165695 310.305474 
L 228.286758 311.573409 
L 229.45733 321.993227 
L 229.36102 322.69355 
L 229.107644 323.116387 
L 227.839861 324.009744 
L 226.48792 324.806584 
L 225.679186 325.494842 
L 225.43796 326.255488 
L 225.413658 326.835165 
L 225.572074 327.564213 
L 227.308806 331.302525 
L 227.453721 331.882202 
L 227.526178 332.510137 
L 227.610787 333.521842 
L 227.898817 335.624535 
L 227.92447 336.132398 
L 227.864164 336.760333 
L 227.209345 338.23624 
L 226.124282 339.443852 
L 225.655333 340.249884 
L 225.389355 340.962271 
L 225.14768 343.679686 
L 225.238139 345.512935 
L 225.788997 347.951713 
L 225.969016 348.931821 
L 225.872256 349.788984 
L 224.230484 352.489163 
" style="fill:none;stroke:#999999;"/>
    <path clip-path="url(#p6b3ef2caf9)" d="M 222.08061 362.721692 
L 221.396088 360.34496 
" style="fill:none;stroke:#999999;"/>
    <path clip-path="url(#p6b3ef2caf9)" d="M 222.08061 362.721692 
L 222.314634 363.503595 
L 222.542808 363.918963 
L 222.894295 364.300435 
" style="fill:none;stroke:#999999;"/>
    <path clip-path="url(#p6b3ef2caf9)" d="M 222.08061 362.721692 
L 221.238122 363.157168 
L 220.474392 363.737994 
" style="fill:none;stroke:#999999;"/>
    <path clip-path="url(#p6b3ef2caf9)" d="M 222.08061 362.721692 
L 222.538757 362.5097 
L 222.675572 362.872213 
L 223.112567 362.647581 
" style="fill:none;stroke:#999999;"/>
    <path clip-path="url(#p6b3ef2caf9)" d="M 218.025236 355.2962 
L 217.908674 355.003202 
L 217.800212 354.761909 
L 217.738556 354.560832 
L 217.691301 354.266685 
" style="fill:none;stroke:#999999;"/>
    <path clip-path="url(#p6b3ef2caf9)" d="M 218.025236 355.2962 
L 217.522533 355.498426 
L 217.848368 356.911137 
L 218.293914 358.050383 
L 218.588695 358.648444 
" style="fill:none;stroke:#999999;"/>
    <path clip-path="url(#p6b3ef2caf9)" d="M 218.025236 355.2962 
L 218.560792 356.833004 
L 218.977085 357.581586 
L 219.303369 357.787259 
L 219.731364 357.442555 
" style="fill:none;stroke:#999999;"/>
    <path clip-path="url(#p6b3ef2caf9)" d="M 218.025236 355.2962 
L 219.464486 354.717672 
L 221.216069 353.807655 
L 222.446048 353.220509 
L 223.52076 352.640833 
" style="fill:none;stroke:#999999;"/>
    <path clip-path="url(#p6b3ef2caf9)" d="M 212.863197 352.075519 
L 213.865001 353.271066 
L 214.13683 353.439971 
L 214.878957 352.944746 
L 215.168788 353.162484 
L 215.796603 354.043777 
L 216.067982 354.599324 
L 216.508578 354.490743 
L 216.600837 354.71997 
" style="fill:none;stroke:#999999;"/>
    <path clip-path="url(#p6b3ef2caf9)" d="M 212.863197 352.075519 
L 212.392448 352.631066 
L 212.283986 353.62094 
L 212.440603 354.194872 
L 213.044116 354.88313 
L 213.623776 355.35997 
L 214.396057 355.800617 
L 214.836653 356.090742 
L 215.229094 356.531388 
" style="fill:none;stroke:#999999;"/>
    <path clip-path="url(#p6b3ef2caf9)" d="M 212.863197 352.075519 
L 213.780393 350.958679 
L 214.251592 350.723131 
L 215.19309 350.572036 
L 215.911365 350.505968 
L 217.818214 350.614549 
L 218.995537 350.475519 
L 220.178261 350.336488 
L 221.469896 350.257781 
" style="fill:none;stroke:#999999;"/>
    <path clip-path="url(#p6b3ef2caf9)" d="M 227.215646 366.039465 
L 226.188189 365.489088 
L 225.295295 365.078317 
L 224.391151 364.542302 
L 223.919052 364.377994 
L 223.436151 364.353864 
L 222.894295 364.300435 
" style="fill:none;stroke:#999999;"/>
    <path clip-path="url(#p6b3ef2caf9)" d="M 227.215646 366.039465 
L 228.047333 366.527221 
L 228.808812 367.271207 
L 229.388473 367.899142 
L 229.726458 368.478819 
L 229.852471 368.660362 
" style="fill:none;stroke:#999999;"/>
    <path clip-path="url(#p6b3ef2caf9)" d="M 227.215646 366.039465 
L 226.950118 366.48758 
L 225.743092 366.667975 
" style="fill:none;stroke:#999999;"/>
    <path clip-path="url(#p6b3ef2caf9)" d="M 219.271416 352.496057 
L 220.044147 351.602126 
L 220.829929 350.825393 
L 221.469896 350.257781 
" style="fill:none;stroke:#999999;"/>
    <path clip-path="url(#p6b3ef2caf9)" d="M 219.271416 352.496057 
L 218.717408 352.926362 
L 218.209305 353.365285 
L 217.811014 353.727224 
L 217.714254 354.005285 
L 217.691301 354.266685 
" style="fill:none;stroke:#999999;"/>
    <path clip-path="url(#p6b3ef2caf9)" d="M 219.271416 352.496057 
L 219.452785 352.677027 
L 219.683209 352.745393 
L 219.996892 352.769522 
L 220.394283 352.725285 
L 220.828579 352.592574 
L 221.542353 352.322556 
L 222.120214 352.157673 
L 222.627417 351.928445 
L 222.965402 351.638319 
L 223.739033 351.163203 
L 224.246236 350.740941 
L 224.655329 350.104962 
L 224.922206 349.653975 
" style="fill:none;stroke:#999999;"/>
    <path clip-path="url(#p6b3ef2caf9)" d="M 224.230484 352.489163 
L 223.52076 352.640833 
" style="fill:none;stroke:#999999;"/>
    <path clip-path="url(#p6b3ef2caf9)" d="M 224.230484 352.489163 
L 223.893399 353.083777 
L 223.374495 354.671712 
" style="fill:none;stroke:#999999;"/>
    <path clip-path="url(#p6b3ef2caf9)" d="M 224.230484 352.489163 
L 225.872256 349.788984 
L 225.969016 348.931821 
L 225.788997 347.951713 
L 225.238139 345.512935 
L 225.14768 343.679686 
L 225.389355 340.962271 
L 225.655333 340.249884 
L 226.124282 339.443852 
L 227.209345 338.23624 
L 227.864164 336.760333 
L 227.92447 336.132398 
L 227.898817 335.624535 
L 227.610787 333.521842 
L 227.526178 332.510137 
L 227.453721 331.882202 
L 227.308806 331.302525 
L 225.572074 327.564213 
L 225.413658 326.835165 
L 225.43796 326.255488 
L 225.679186 325.494842 
L 226.48792 324.806584 
L 227.839861 324.009744 
L 229.107644 323.116387 
L 229.36102 322.69355 
L 229.45733 321.993227 
L 228.286758 311.573409 
L 228.165695 310.305474 
L 228.189998 308.892763 
L 228.274607 303.242495 
L 228.165695 302.566301 
L 228.009079 302.034883 
L 227.550481 300.8514 
L 227.007274 300.042496 
L 226.753448 299.209462 
L 226.741296 298.316105 
L 227.007274 297.760557 
" style="fill:none;stroke:#999999;"/>
    <path clip-path="url(#p6b3ef2caf9)" d="M 216.266902 368.334617 
L 217.896523 370.085712 
L 218.862323 371.293324 
L 219.386178 371.844276 
" style="fill:none;stroke:#999999;"/>
    <path clip-path="url(#p6b3ef2caf9)" d="M 222.894295 364.300435 
L 220.818228 364.325714 
" style="fill:none;stroke:#999999;"/>
    <path clip-path="url(#p6b3ef2caf9)" d="M 222.894295 364.300435 
L 222.542808 363.918963 
L 222.314634 363.503595 
L 222.08061 362.721692 
" style="fill:none;stroke:#999999;"/>
    <path clip-path="url(#p6b3ef2caf9)" d="M 222.894295 364.300435 
L 223.436151 364.353864 
L 223.919052 364.377994 
L 224.391151 364.542302 
L 225.295295 365.078317 
L 226.188189 365.489088 
L 227.215646 366.039465 
" style="fill:none;stroke:#999999;"/>
   </g>
  </g>
 </g>
 <defs>
  <clipPath id="p6b3ef2caf9">
   <rect height="432" width="235.655128" x="32.584859" y="0"/>
  </clipPath>
 </defs>
</svg>
