<?xml version="1.0" encoding="utf-8" standalone="no"?>
<!DOCTYPE svg PUBLIC "-//W3C//DTD SVG 1.1//EN"
  "http://www.w3.org/Graphics/SVG/1.1/DTD/svg11.dtd">
<!-- Created with matplotlib (http://matplotlib.org/) -->
<svg height="432pt" version="1.1" viewBox="0 0 647.718392 432" width="647.718392pt" xmlns="http://www.w3.org/2000/svg" xmlns:xlink="http://www.w3.org/1999/xlink">
 <defs>
  <style type="text/css">
*{stroke-linecap:butt;stroke-linejoin:round;}
  </style>
 </defs>
 <g id="figure_1">
  <g id="patch_1">
   <path d="M 0 432 
L 647.718392 432 
L 647.718392 0 
L 0 0 
z
" style="fill:none;opacity:0;"/>
  </g>
  <g id="axes_1">
   <g id="PathCollection_1">
    <defs>
     <path d="M 0 1.936492 
C 0.513564 1.936492 1.006162 1.732451 1.369306 1.369306 
C 1.732451 1.006162 1.936492 0.513564 1.936492 0 
C 1.936492 -0.513564 1.732451 -1.006162 1.369306 -1.369306 
C 1.006162 -1.732451 0.513564 -1.936492 0 -1.936492 
C -0.513564 -1.936492 -1.006162 -1.732451 -1.369306 -1.369306 
C -1.732451 -1.006162 -1.936492 -0.513564 -1.936492 0 
C -1.936492 0.513564 -1.732451 1.006162 -1.369306 1.369306 
C -1.006162 1.732451 -0.513564 1.936492 0 1.936492 
z
" id="C0_0_aa3b75db2e"/>
    </defs>
    <g clip-path="url(#p2e0ff677d8)">
     <use style="fill:#66ccff;" x="414.482359" xlink:href="#C0_0_aa3b75db2e" y="308.710439"/>
    </g>
    <g clip-path="url(#p2e0ff677d8)">
     <use style="fill:#66ccff;" x="121.80172" xlink:href="#C0_0_aa3b75db2e" y="134.957599"/>
    </g>
    <g clip-path="url(#p2e0ff677d8)">
     <use style="fill:#66ccff;" x="136.971568" xlink:href="#C0_0_aa3b75db2e" y="207.667445"/>
    </g>
    <g clip-path="url(#p2e0ff677d8)">
     <use style="fill:#66ccff;" x="226.31578" xlink:href="#C0_0_aa3b75db2e" y="119.344828"/>
    </g>
    <g clip-path="url(#p2e0ff677d8)">
     <use style="fill:#66ccff;" x="275.774954" xlink:href="#C0_0_aa3b75db2e" y="115.480099"/>
    </g>
    <g clip-path="url(#p2e0ff677d8)">
     <use style="fill:#66ccff;" x="209.854983" xlink:href="#C0_0_aa3b75db2e" y="159.186009"/>
    </g>
    <g clip-path="url(#p2e0ff677d8)">
     <use style="fill:#66ccff;" x="313.236463" xlink:href="#C0_0_aa3b75db2e" y="140.003902"/>
    </g>
    <g clip-path="url(#p2e0ff677d8)">
     <use style="fill:#66ccff;" x="331.876036" xlink:href="#C0_0_aa3b75db2e" y="28.665219"/>
    </g>
    <g clip-path="url(#p2e0ff677d8)">
     <use style="fill:#66ccff;" x="294.011405" xlink:href="#C0_0_aa3b75db2e" y="148.496461"/>
    </g>
    <g clip-path="url(#p2e0ff677d8)">
     <use style="fill:#66ccff;" x="350.91873" xlink:href="#C0_0_aa3b75db2e" y="155.825909"/>
    </g>
    <g clip-path="url(#p2e0ff677d8)">
     <use style="fill:#66ccff;" x="178.32512" xlink:href="#C0_0_aa3b75db2e" y="220.609367"/>
    </g>
    <g clip-path="url(#p2e0ff677d8)">
     <use style="fill:#66ccff;" x="199.964108" xlink:href="#C0_0_aa3b75db2e" y="229.077311"/>
    </g>
    <g clip-path="url(#p2e0ff677d8)">
     <use style="fill:#66ccff;" x="240.521015" xlink:href="#C0_0_aa3b75db2e" y="233.305128"/>
    </g>
    <g clip-path="url(#p2e0ff677d8)">
     <use style="fill:#66ccff;" x="263.714901" xlink:href="#C0_0_aa3b75db2e" y="161.629158"/>
    </g>
    <g clip-path="url(#p2e0ff677d8)">
     <use style="fill:#66ccff;" x="178.176349" xlink:href="#C0_0_aa3b75db2e" y="335.018911"/>
    </g>
    <g clip-path="url(#p2e0ff677d8)">
     <use style="fill:#66ccff;" x="302.021046" xlink:href="#C0_0_aa3b75db2e" y="253.822659"/>
    </g>
    <g clip-path="url(#p2e0ff677d8)">
     <use style="fill:#66ccff;" x="252.15875" xlink:href="#C0_0_aa3b75db2e" y="236.486761"/>
    </g>
    <g clip-path="url(#p2e0ff677d8)">
     <use style="fill:#66ccff;" x="236.864127" xlink:href="#C0_0_aa3b75db2e" y="188.516109"/>
    </g>
    <g clip-path="url(#p2e0ff677d8)">
     <use style="fill:#66ccff;" x="353.107104" xlink:href="#C0_0_aa3b75db2e" y="227.889583"/>
    </g>
    <g clip-path="url(#p2e0ff677d8)">
     <use style="fill:#66ccff;" x="268.984276" xlink:href="#C0_0_aa3b75db2e" y="189.814609"/>
    </g>
    <g clip-path="url(#p2e0ff677d8)">
     <use style="fill:#66ccff;" x="219.630681" xlink:href="#C0_0_aa3b75db2e" y="136.403795"/>
    </g>
    <g clip-path="url(#p2e0ff677d8)">
     <use style="fill:#66ccff;" x="180.033587" xlink:href="#C0_0_aa3b75db2e" y="252.259536"/>
    </g>
    <g clip-path="url(#p2e0ff677d8)">
     <use style="fill:#66ccff;" x="205.751782" xlink:href="#C0_0_aa3b75db2e" y="301.830235"/>
    </g>
    <g clip-path="url(#p2e0ff677d8)">
     <use style="fill:#66ccff;" x="267.611743" xlink:href="#C0_0_aa3b75db2e" y="283.860472"/>
    </g>
    <g clip-path="url(#p2e0ff677d8)">
     <use style="fill:#66ccff;" x="154.089836" xlink:href="#C0_0_aa3b75db2e" y="415.316675"/>
    </g>
    <g clip-path="url(#p2e0ff677d8)">
     <use style="fill:#66ccff;" x="308.638958" xlink:href="#C0_0_aa3b75db2e" y="171.703303"/>
    </g>
    <g clip-path="url(#p2e0ff677d8)">
     <use style="fill:#66ccff;" x="192.755911" xlink:href="#C0_0_aa3b75db2e" y="411.845803"/>
    </g>
    <g clip-path="url(#p2e0ff677d8)">
     <use style="fill:#66ccff;" x="407.182979" xlink:href="#C0_0_aa3b75db2e" y="297.965506"/>
    </g>
    <g clip-path="url(#p2e0ff677d8)">
     <use style="fill:#66ccff;" x="117.986463" xlink:href="#C0_0_aa3b75db2e" y="223.464837"/>
    </g>
    <g clip-path="url(#p2e0ff677d8)">
     <use style="fill:#66ccff;" x="324.466278" xlink:href="#C0_0_aa3b75db2e" y="187.383767"/>
    </g>
    <g clip-path="url(#p2e0ff677d8)">
     <use style="fill:#66ccff;" x="216.900012" xlink:href="#C0_0_aa3b75db2e" y="280.186517"/>
    </g>
    <g clip-path="url(#p2e0ff677d8)">
     <use style="fill:#66ccff;" x="240.146688" xlink:href="#C0_0_aa3b75db2e" y="197.981005"/>
    </g>
    <g clip-path="url(#p2e0ff677d8)">
     <use style="fill:#66ccff;" x="206.390058" xlink:href="#C0_0_aa3b75db2e" y="155.228969"/>
    </g>
    <g clip-path="url(#p2e0ff677d8)">
     <use style="fill:#66ccff;" x="193.187827" xlink:href="#C0_0_aa3b75db2e" y="123.89881"/>
    </g>
    <g clip-path="url(#p2e0ff677d8)">
     <use style="fill:#66ccff;" x="276.5668" xlink:href="#C0_0_aa3b75db2e" y="222.486346"/>
    </g>
    <g clip-path="url(#p2e0ff677d8)">
     <use style="fill:#66ccff;" x="159.963893" xlink:href="#C0_0_aa3b75db2e" y="189.519215"/>
    </g>
    <g clip-path="url(#p2e0ff677d8)">
     <use style="fill:#66ccff;" x="155.174425" xlink:href="#C0_0_aa3b75db2e" y="174.86032"/>
    </g>
    <g clip-path="url(#p2e0ff677d8)">
     <use style="fill:#66ccff;" x="164.489412" xlink:href="#C0_0_aa3b75db2e" y="282.278887"/>
    </g>
    <g clip-path="url(#p2e0ff677d8)">
     <use style="fill:#66ccff;" x="334.1124" xlink:href="#C0_0_aa3b75db2e" y="262.992162"/>
    </g>
    <g clip-path="url(#p2e0ff677d8)">
     <use style="fill:#66ccff;" x="175.469675" xlink:href="#C0_0_aa3b75db2e" y="262.235216"/>
    </g>
    <g clip-path="url(#p2e0ff677d8)">
     <use style="fill:#66ccff;" x="177.3989" xlink:href="#C0_0_aa3b75db2e" y="258.708958"/>
    </g>
    <g clip-path="url(#p2e0ff677d8)">
     <use style="fill:#66ccff;" x="370.940433" xlink:href="#C0_0_aa3b75db2e" y="251.582593"/>
    </g>
    <g clip-path="url(#p2e0ff677d8)">
     <use style="fill:#66ccff;" x="160.285431" xlink:href="#C0_0_aa3b75db2e" y="249.213292"/>
    </g>
    <g clip-path="url(#p2e0ff677d8)">
     <use style="fill:#66ccff;" x="278.169688" xlink:href="#C0_0_aa3b75db2e" y="247.016304"/>
    </g>
    <g clip-path="url(#p2e0ff677d8)">
     <use style="fill:#66ccff;" x="393.006538" xlink:href="#C0_0_aa3b75db2e" y="243.077725"/>
    </g>
    <g clip-path="url(#p2e0ff677d8)">
     <use style="fill:#66ccff;" x="406.472718" xlink:href="#C0_0_aa3b75db2e" y="237.889879"/>
    </g>
    <g clip-path="url(#p2e0ff677d8)">
     <use style="fill:#66ccff;" x="375.417961" xlink:href="#C0_0_aa3b75db2e" y="217.64928"/>
    </g>
    <g clip-path="url(#p2e0ff677d8)">
     <use style="fill:#66ccff;" x="380.418588" xlink:href="#C0_0_aa3b75db2e" y="215.347673"/>
    </g>
    <g clip-path="url(#p2e0ff677d8)">
     <use style="fill:#66ccff;" x="393.097721" xlink:href="#C0_0_aa3b75db2e" y="209.525962"/>
    </g>
    <g clip-path="url(#p2e0ff677d8)">
     <use style="fill:#66ccff;" x="455.509574" xlink:href="#C0_0_aa3b75db2e" y="207.919761"/>
    </g>
    <g clip-path="url(#p2e0ff677d8)">
     <use style="fill:#66ccff;" x="249.48567" xlink:href="#C0_0_aa3b75db2e" y="194.313204"/>
    </g>
    <g clip-path="url(#p2e0ff677d8)">
     <use style="fill:#66ccff;" x="243.99074" xlink:href="#C0_0_aa3b75db2e" y="181.494362"/>
    </g>
    <g clip-path="url(#p2e0ff677d8)">
     <use style="fill:#66ccff;" x="353.956538" xlink:href="#C0_0_aa3b75db2e" y="171.18021"/>
    </g>
    <g clip-path="url(#p2e0ff677d8)">
     <use style="fill:#66ccff;" x="559.078218" xlink:href="#C0_0_aa3b75db2e" y="158.04136"/>
    </g>
    <g clip-path="url(#p2e0ff677d8)">
     <use style="fill:#66ccff;" x="522.710895" xlink:href="#C0_0_aa3b75db2e" y="149.998044"/>
    </g>
    <g clip-path="url(#p2e0ff677d8)">
     <use style="fill:#66ccff;" x="566.699134" xlink:href="#C0_0_aa3b75db2e" y="150.379594"/>
    </g>
    <g clip-path="url(#p2e0ff677d8)">
     <use style="fill:#66ccff;" x="196.288024" xlink:href="#C0_0_aa3b75db2e" y="131.499035"/>
    </g>
    <g clip-path="url(#p2e0ff677d8)">
     <use style="fill:#66ccff;" x="141.12276" xlink:href="#C0_0_aa3b75db2e" y="131.326722"/>
    </g>
    <g clip-path="url(#p2e0ff677d8)">
     <use style="fill:#66ccff;" x="508.160127" xlink:href="#C0_0_aa3b75db2e" y="8.307692"/>
    </g>
    <g clip-path="url(#p2e0ff677d8)">
     <use style="fill:#66ccff;" x="115.346976" xlink:href="#C0_0_aa3b75db2e" y="181.057426"/>
    </g>
    <g clip-path="url(#p2e0ff677d8)">
     <use style="fill:#66ccff;" x="126.356034" xlink:href="#C0_0_aa3b75db2e" y="423.483071"/>
    </g>
    <g clip-path="url(#p2e0ff677d8)">
     <use style="fill:#66ccff;" x="81.019257" xlink:href="#C0_0_aa3b75db2e" y="422.09226"/>
    </g>
    <g clip-path="url(#p2e0ff677d8)">
     <use style="fill:#66ccff;" x="317.36366" xlink:href="#C0_0_aa3b75db2e" y="220.947839"/>
    </g>
    <g clip-path="url(#p2e0ff677d8)">
     <use style="fill:#66ccff;" x="339.372177" xlink:href="#C0_0_aa3b75db2e" y="208.467469"/>
    </g>
    <g clip-path="url(#p2e0ff677d8)">
     <use style="fill:#66ccff;" x="204.254473" xlink:href="#C0_0_aa3b75db2e" y="194.590135"/>
    </g>
    <g clip-path="url(#p2e0ff677d8)">
     <use style="fill:#66ccff;" x="195.971285" xlink:href="#C0_0_aa3b75db2e" y="182.983637"/>
    </g>
   </g>
   <g id="LineCollection_1">
    <path clip-path="url(#p2e0ff677d8)" d="M 414.482359 308.710439 
L 559.078218 158.04136 
" style="fill:none;stroke:#999999;"/>
    <path clip-path="url(#p2e0ff677d8)" d="M 414.482359 308.710439 
L 412.644316 306.248828 
L 407.182979 297.965506 
" style="fill:none;stroke:#999999;"/>
    <path clip-path="url(#p2e0ff677d8)" d="M 414.482359 308.710439 
L 403.358124 319.781537 
L 390.923744 330.508008 
L 369.198372 347.942371 
L 345.500584 363.985923 
L 321.198114 376.872459 
L 302.045041 385.592717 
L 282.383268 393.599108 
L 249.005764 402.688608 
L 225.514336 408.079537 
L 192.755911 411.845803 
" style="fill:none;stroke:#999999;"/>
    <path clip-path="url(#p2e0ff677d8)" d="M 121.80172 134.957599 
L 141.12276 131.326722 
" style="fill:none;stroke:#999999;"/>
    <path clip-path="url(#p2e0ff677d8)" d="M 136.971568 207.667445 
L 117.986463 223.464837 
" style="fill:none;stroke:#999999;"/>
    <path clip-path="url(#p2e0ff677d8)" d="M 136.971568 207.667445 
L 159.963893 189.519215 
" style="fill:none;stroke:#999999;"/>
    <path clip-path="url(#p2e0ff677d8)" d="M 136.971568 207.667445 
L 152.717303 213.027604 
L 178.32512 220.609367 
" style="fill:none;stroke:#999999;"/>
    <path clip-path="url(#p2e0ff677d8)" d="M 226.31578 119.344828 
L 219.630681 136.403795 
" style="fill:none;stroke:#999999;"/>
    <path clip-path="url(#p2e0ff677d8)" d="M 226.31578 119.344828 
L 241.360852 114.686229 
L 275.774954 115.480099 
" style="fill:none;stroke:#999999;"/>
    <path clip-path="url(#p2e0ff677d8)" d="M 226.31578 119.344828 
L 215.906606 122.157219 
L 196.288024 131.499035 
" style="fill:none;stroke:#999999;"/>
    <path clip-path="url(#p2e0ff677d8)" d="M 275.774954 115.480099 
L 294.011405 148.496461 
" style="fill:none;stroke:#999999;"/>
    <path clip-path="url(#p2e0ff677d8)" d="M 275.774954 115.480099 
L 241.360852 114.686229 
L 226.31578 119.344828 
" style="fill:none;stroke:#999999;"/>
    <path clip-path="url(#p2e0ff677d8)" d="M 275.774954 115.480099 
L 281.999343 106.987539 
L 288.492479 98.93807 
L 293.128377 88.728537 
L 294.145779 76.38971 
L 293.809844 52.499771 
L 298.820069 32.400714 
L 322.09074 15.280207 
L 329.303736 10.646223 
L 332.389536 17.852591 
L 332.389536 21.458851 
L 331.876036 28.665219 
" style="fill:none;stroke:#999999;"/>
    <path clip-path="url(#p2e0ff677d8)" d="M 209.854983 159.186009 
L 206.390058 155.228969 
" style="fill:none;stroke:#999999;"/>
    <path clip-path="url(#p2e0ff677d8)" d="M 209.854983 159.186009 
L 195.971285 182.983637 
" style="fill:none;stroke:#999999;"/>
    <path clip-path="url(#p2e0ff677d8)" d="M 209.854983 159.186009 
L 225.187999 173.063343 
L 236.864127 188.516109 
" style="fill:none;stroke:#999999;"/>
    <path clip-path="url(#p2e0ff677d8)" d="M 313.236463 140.003902 
L 294.011405 148.496461 
" style="fill:none;stroke:#999999;"/>
    <path clip-path="url(#p2e0ff677d8)" d="M 331.876036 28.665219 
L 332.389536 21.458851 
L 332.389536 17.852591 
L 329.303736 10.646223 
L 322.09074 15.280207 
L 298.820069 32.400714 
L 293.809844 52.499771 
L 294.145779 76.38971 
L 293.128377 88.728537 
L 288.492479 98.93807 
L 281.999343 106.987539 
L 275.774954 115.480099 
" style="fill:none;stroke:#999999;"/>
    <path clip-path="url(#p2e0ff677d8)" d="M 294.011405 148.496461 
L 263.714901 161.629158 
" style="fill:none;stroke:#999999;"/>
    <path clip-path="url(#p2e0ff677d8)" d="M 294.011405 148.496461 
L 313.236463 140.003902 
" style="fill:none;stroke:#999999;"/>
    <path clip-path="url(#p2e0ff677d8)" d="M 294.011405 148.496461 
L 308.638958 171.703303 
" style="fill:none;stroke:#999999;"/>
    <path clip-path="url(#p2e0ff677d8)" d="M 294.011405 148.496461 
L 275.774954 115.480099 
" style="fill:none;stroke:#999999;"/>
    <path clip-path="url(#p2e0ff677d8)" d="M 350.91873 155.825909 
L 308.638958 171.703303 
" style="fill:none;stroke:#999999;"/>
    <path clip-path="url(#p2e0ff677d8)" d="M 350.91873 155.825909 
L 357.603828 169.180151 
L 353.956538 171.18021 
" style="fill:none;stroke:#999999;"/>
    <path clip-path="url(#p2e0ff677d8)" d="M 350.91873 155.825909 
L 366.798839 149.99189 
L 414.635929 107.9968 
L 464.517421 63.441634 
L 494.055672 32.265325 
L 508.160127 8.307692 
" style="fill:none;stroke:#999999;"/>
    <path clip-path="url(#p2e0ff677d8)" d="M 178.32512 220.609367 
L 152.717303 213.027604 
L 136.971568 207.667445 
" style="fill:none;stroke:#999999;"/>
    <path clip-path="url(#p2e0ff677d8)" d="M 178.32512 220.609367 
L 174.769012 241.477678 
L 180.033587 252.259536 
" style="fill:none;stroke:#999999;"/>
    <path clip-path="url(#p2e0ff677d8)" d="M 178.32512 220.609367 
L 182.764256 205.624308 
L 195.971285 182.983637 
" style="fill:none;stroke:#999999;"/>
    <path clip-path="url(#p2e0ff677d8)" d="M 199.964108 229.077311 
L 180.033587 252.259536 
" style="fill:none;stroke:#999999;"/>
    <path clip-path="url(#p2e0ff677d8)" d="M 199.964108 229.077311 
L 236.864127 188.516109 
" style="fill:none;stroke:#999999;"/>
    <path clip-path="url(#p2e0ff677d8)" d="M 199.964108 229.077311 
L 206.553226 231.372763 
L 222.726078 232.81896 
L 240.521015 233.305128 
" style="fill:none;stroke:#999999;"/>
    <path clip-path="url(#p2e0ff677d8)" d="M 240.521015 233.305128 
L 252.15875 236.486761 
" style="fill:none;stroke:#999999;"/>
    <path clip-path="url(#p2e0ff677d8)" d="M 240.521015 233.305128 
L 234.762136 250.733337 
L 216.900012 280.186517 
" style="fill:none;stroke:#999999;"/>
    <path clip-path="url(#p2e0ff677d8)" d="M 240.521015 233.305128 
L 244.240291 221.354005 
L 244.240291 213.630699 
L 243.213291 207.968993 
L 240.146688 197.981005 
" style="fill:none;stroke:#999999;"/>
    <path clip-path="url(#p2e0ff677d8)" d="M 240.521015 233.305128 
L 222.726078 232.81896 
L 206.553226 231.372763 
L 199.964108 229.077311 
" style="fill:none;stroke:#999999;"/>
    <path clip-path="url(#p2e0ff677d8)" d="M 263.714901 161.629158 
L 243.99074 181.494362 
" style="fill:none;stroke:#999999;"/>
    <path clip-path="url(#p2e0ff677d8)" d="M 263.714901 161.629158 
L 294.011405 148.496461 
" style="fill:none;stroke:#999999;"/>
    <path clip-path="url(#p2e0ff677d8)" d="M 263.714901 161.629158 
L 255.052587 152.158108 
L 219.630681 136.403795 
" style="fill:none;stroke:#999999;"/>
    <path clip-path="url(#p2e0ff677d8)" d="M 263.714901 161.629158 
L 265.41857 167.752417 
L 268.984276 189.814609 
" style="fill:none;stroke:#999999;"/>
    <path clip-path="url(#p2e0ff677d8)" d="M 178.176349 335.018911 
L 183.791256 325.603248 
L 203.491422 303.393359 
L 205.751782 301.830235 
" style="fill:none;stroke:#999999;"/>
    <path clip-path="url(#p2e0ff677d8)" d="M 178.176349 335.018911 
L 167.114501 374.127762 
L 165.050903 381.063352 
L 166.279464 396.448424 
L 162.996903 406.085632 
L 159.167248 411.396559 
L 154.089836 415.316675 
" style="fill:none;stroke:#999999;"/>
    <path clip-path="url(#p2e0ff677d8)" d="M 178.176349 335.018911 
L 175.839203 327.83716 
L 177.307718 313.52289 
L 181.674868 292.45765 
L 181.967611 281.700408 
L 180.374321 271.546261 
L 177.110956 264.075271 
L 175.469675 262.235216 
" style="fill:none;stroke:#999999;"/>
    <path clip-path="url(#p2e0ff677d8)" d="M 302.021046 253.822659 
L 278.169688 247.016304 
" style="fill:none;stroke:#999999;"/>
    <path clip-path="url(#p2e0ff677d8)" d="M 302.021046 253.822659 
L 334.1124 262.992162 
" style="fill:none;stroke:#999999;"/>
    <path clip-path="url(#p2e0ff677d8)" d="M 302.021046 253.822659 
L 353.107104 227.889583 
" style="fill:none;stroke:#999999;"/>
    <path clip-path="url(#p2e0ff677d8)" d="M 302.021046 253.822659 
L 281.80738 269.730823 
L 267.611743 283.860472 
" style="fill:none;stroke:#999999;"/>
    <path clip-path="url(#p2e0ff677d8)" d="M 252.15875 236.486761 
L 276.5668 222.486346 
" style="fill:none;stroke:#999999;"/>
    <path clip-path="url(#p2e0ff677d8)" d="M 252.15875 236.486761 
L 240.521015 233.305128 
" style="fill:none;stroke:#999999;"/>
    <path clip-path="url(#p2e0ff677d8)" d="M 252.15875 236.486761 
L 267.616542 245.151633 
L 278.169688 247.016304 
" style="fill:none;stroke:#999999;"/>
    <path clip-path="url(#p2e0ff677d8)" d="M 236.864127 188.516109 
L 199.964108 229.077311 
" style="fill:none;stroke:#999999;"/>
    <path clip-path="url(#p2e0ff677d8)" d="M 236.864127 188.516109 
L 243.99074 181.494362 
" style="fill:none;stroke:#999999;"/>
    <path clip-path="url(#p2e0ff677d8)" d="M 236.864127 188.516109 
L 240.146688 197.981005 
" style="fill:none;stroke:#999999;"/>
    <path clip-path="url(#p2e0ff677d8)" d="M 236.864127 188.516109 
L 225.187999 173.063343 
L 209.854983 159.186009 
" style="fill:none;stroke:#999999;"/>
    <path clip-path="url(#p2e0ff677d8)" d="M 353.107104 227.889583 
L 370.940433 251.582593 
" style="fill:none;stroke:#999999;"/>
    <path clip-path="url(#p2e0ff677d8)" d="M 353.107104 227.889583 
L 339.372177 208.467469 
" style="fill:none;stroke:#999999;"/>
    <path clip-path="url(#p2e0ff677d8)" d="M 353.107104 227.889583 
L 302.021046 253.822659 
" style="fill:none;stroke:#999999;"/>
    <path clip-path="url(#p2e0ff677d8)" d="M 353.107104 227.889583 
L 375.417961 217.64928 
" style="fill:none;stroke:#999999;"/>
    <path clip-path="url(#p2e0ff677d8)" d="M 268.984276 189.814609 
L 249.48567 194.313204 
" style="fill:none;stroke:#999999;"/>
    <path clip-path="url(#p2e0ff677d8)" d="M 268.984276 189.814609 
L 265.41857 167.752417 
L 263.714901 161.629158 
" style="fill:none;stroke:#999999;"/>
    <path clip-path="url(#p2e0ff677d8)" d="M 268.984276 189.814609 
L 271.503785 207.224355 
L 276.5668 222.486346 
" style="fill:none;stroke:#999999;"/>
    <path clip-path="url(#p2e0ff677d8)" d="M 268.984276 189.814609 
L 282.685609 186.356045 
L 308.638958 171.703303 
" style="fill:none;stroke:#999999;"/>
    <path clip-path="url(#p2e0ff677d8)" d="M 219.630681 136.403795 
L 206.390058 155.228969 
" style="fill:none;stroke:#999999;"/>
    <path clip-path="url(#p2e0ff677d8)" d="M 219.630681 136.403795 
L 226.31578 119.344828 
" style="fill:none;stroke:#999999;"/>
    <path clip-path="url(#p2e0ff677d8)" d="M 219.630681 136.403795 
L 255.052587 152.158108 
L 263.714901 161.629158 
" style="fill:none;stroke:#999999;"/>
    <path clip-path="url(#p2e0ff677d8)" d="M 180.033587 252.259536 
L 177.3989 258.708958 
" style="fill:none;stroke:#999999;"/>
    <path clip-path="url(#p2e0ff677d8)" d="M 180.033587 252.259536 
L 199.964108 229.077311 
" style="fill:none;stroke:#999999;"/>
    <path clip-path="url(#p2e0ff677d8)" d="M 180.033587 252.259536 
L 177.254928 254.579605 
L 167.464833 260.08746 
L 160.285431 249.213292 
" style="fill:none;stroke:#999999;"/>
    <path clip-path="url(#p2e0ff677d8)" d="M 180.033587 252.259536 
L 174.769012 241.477678 
L 178.32512 220.609367 
" style="fill:none;stroke:#999999;"/>
    <path clip-path="url(#p2e0ff677d8)" d="M 205.751782 301.830235 
L 216.900012 280.186517 
" style="fill:none;stroke:#999999;"/>
    <path clip-path="url(#p2e0ff677d8)" d="M 205.751782 301.830235 
L 203.491422 303.393359 
L 183.791256 325.603248 
L 178.176349 335.018911 
" style="fill:none;stroke:#999999;"/>
    <path clip-path="url(#p2e0ff677d8)" d="M 205.751782 301.830235 
L 215.858615 296.186991 
L 262.395158 283.731238 
L 267.611743 283.860472 
" style="fill:none;stroke:#999999;"/>
    <path clip-path="url(#p2e0ff677d8)" d="M 267.611743 283.860472 
L 262.395158 283.731238 
L 215.858615 296.186991 
L 205.751782 301.830235 
" style="fill:none;stroke:#999999;"/>
    <path clip-path="url(#p2e0ff677d8)" d="M 267.611743 283.860472 
L 252.293124 305.141103 
L 202.382838 399.937758 
L 196.417598 407.710296 
L 192.755911 411.845803 
" style="fill:none;stroke:#999999;"/>
    <path clip-path="url(#p2e0ff677d8)" d="M 267.611743 283.860472 
L 281.80738 269.730823 
L 302.021046 253.822659 
" style="fill:none;stroke:#999999;"/>
    <path clip-path="url(#p2e0ff677d8)" d="M 154.089836 415.316675 
L 81.019257 422.09226 
" style="fill:none;stroke:#999999;"/>
    <path clip-path="url(#p2e0ff677d8)" d="M 154.089836 415.316675 
L 192.755911 411.845803 
" style="fill:none;stroke:#999999;"/>
    <path clip-path="url(#p2e0ff677d8)" d="M 154.089836 415.316675 
L 159.167248 411.396559 
L 162.996903 406.085632 
L 166.279464 396.448424 
L 165.050903 381.063352 
L 167.114501 374.127762 
L 178.176349 335.018911 
" style="fill:none;stroke:#999999;"/>
    <path clip-path="url(#p2e0ff677d8)" d="M 308.638958 171.703303 
L 294.011405 148.496461 
" style="fill:none;stroke:#999999;"/>
    <path clip-path="url(#p2e0ff677d8)" d="M 308.638958 171.703303 
L 350.91873 155.825909 
" style="fill:none;stroke:#999999;"/>
    <path clip-path="url(#p2e0ff677d8)" d="M 308.638958 171.703303 
L 316.898151 178.035798 
L 324.466278 187.383767 
" style="fill:none;stroke:#999999;"/>
    <path clip-path="url(#p2e0ff677d8)" d="M 308.638958 171.703303 
L 282.685609 186.356045 
L 268.984276 189.814609 
" style="fill:none;stroke:#999999;"/>
    <path clip-path="url(#p2e0ff677d8)" d="M 192.755911 411.845803 
L 154.089836 415.316675 
" style="fill:none;stroke:#999999;"/>
    <path clip-path="url(#p2e0ff677d8)" d="M 192.755911 411.845803 
L 196.417598 407.710296 
L 202.382838 399.937758 
L 252.293124 305.141103 
L 267.611743 283.860472 
" style="fill:none;stroke:#999999;"/>
    <path clip-path="url(#p2e0ff677d8)" d="M 192.755911 411.845803 
L 186.589111 415.193594 
L 177.730035 419.686035 
L 169.23089 422.596891 
L 158.672944 423.692308 
L 126.356034 423.483071 
" style="fill:none;stroke:#999999;"/>
    <path clip-path="url(#p2e0ff677d8)" d="M 192.755911 411.845803 
L 225.514336 408.079537 
L 249.005764 402.688608 
L 282.383268 393.599108 
L 302.045041 385.592717 
L 321.198114 376.872459 
L 345.500584 363.985923 
L 369.198372 347.942371 
L 390.923744 330.508008 
L 403.358124 319.781537 
L 414.482359 308.710439 
" style="fill:none;stroke:#999999;"/>
    <path clip-path="url(#p2e0ff677d8)" d="M 407.182979 297.965506 
L 334.1124 262.992162 
" style="fill:none;stroke:#999999;"/>
    <path clip-path="url(#p2e0ff677d8)" d="M 407.182979 297.965506 
L 370.940433 251.582593 
" style="fill:none;stroke:#999999;"/>
    <path clip-path="url(#p2e0ff677d8)" d="M 407.182979 297.965506 
L 412.644316 306.248828 
L 414.482359 308.710439 
" style="fill:none;stroke:#999999;"/>
    <path clip-path="url(#p2e0ff677d8)" d="M 117.986463 223.464837 
L 136.971568 207.667445 
" style="fill:none;stroke:#999999;"/>
    <path clip-path="url(#p2e0ff677d8)" d="M 324.466278 187.383767 
L 276.5668 222.486346 
" style="fill:none;stroke:#999999;"/>
    <path clip-path="url(#p2e0ff677d8)" d="M 324.466278 187.383767 
L 353.956538 171.18021 
" style="fill:none;stroke:#999999;"/>
    <path clip-path="url(#p2e0ff677d8)" d="M 324.466278 187.383767 
L 339.372177 208.467469 
" style="fill:none;stroke:#999999;"/>
    <path clip-path="url(#p2e0ff677d8)" d="M 324.466278 187.383767 
L 316.898151 178.035798 
L 308.638958 171.703303 
" style="fill:none;stroke:#999999;"/>
    <path clip-path="url(#p2e0ff677d8)" d="M 216.900012 280.186517 
L 205.751782 301.830235 
" style="fill:none;stroke:#999999;"/>
    <path clip-path="url(#p2e0ff677d8)" d="M 216.900012 280.186517 
L 177.3989 258.708958 
" style="fill:none;stroke:#999999;"/>
    <path clip-path="url(#p2e0ff677d8)" d="M 216.900012 280.186517 
L 234.762136 250.733337 
L 240.521015 233.305128 
" style="fill:none;stroke:#999999;"/>
    <path clip-path="url(#p2e0ff677d8)" d="M 240.146688 197.981005 
L 236.864127 188.516109 
" style="fill:none;stroke:#999999;"/>
    <path clip-path="url(#p2e0ff677d8)" d="M 240.146688 197.981005 
L 249.48567 194.313204 
" style="fill:none;stroke:#999999;"/>
    <path clip-path="url(#p2e0ff677d8)" d="M 240.146688 197.981005 
L 243.213291 207.968993 
L 244.240291 213.630699 
L 244.240291 221.354005 
L 240.521015 233.305128 
" style="fill:none;stroke:#999999;"/>
    <path clip-path="url(#p2e0ff677d8)" d="M 206.390058 155.228969 
L 209.854983 159.186009 
" style="fill:none;stroke:#999999;"/>
    <path clip-path="url(#p2e0ff677d8)" d="M 206.390058 155.228969 
L 219.630681 136.403795 
" style="fill:none;stroke:#999999;"/>
    <path clip-path="url(#p2e0ff677d8)" d="M 206.390058 155.228969 
L 204.484828 150.767298 
L 159.963893 189.519215 
" style="fill:none;stroke:#999999;"/>
    <path clip-path="url(#p2e0ff677d8)" d="M 193.187827 123.89881 
L 141.12276 131.326722 
" style="fill:none;stroke:#999999;"/>
    <path clip-path="url(#p2e0ff677d8)" d="M 276.5668 222.486346 
L 252.15875 236.486761 
" style="fill:none;stroke:#999999;"/>
    <path clip-path="url(#p2e0ff677d8)" d="M 276.5668 222.486346 
L 324.466278 187.383767 
" style="fill:none;stroke:#999999;"/>
    <path clip-path="url(#p2e0ff677d8)" d="M 276.5668 222.486346 
L 271.503785 207.224355 
L 268.984276 189.814609 
" style="fill:none;stroke:#999999;"/>
    <path clip-path="url(#p2e0ff677d8)" d="M 276.5668 222.486346 
L 278.169688 232.658955 
L 278.169688 247.016304 
" style="fill:none;stroke:#999999;"/>
    <path clip-path="url(#p2e0ff677d8)" d="M 159.963893 189.519215 
L 136.971568 207.667445 
" style="fill:none;stroke:#999999;"/>
    <path clip-path="url(#p2e0ff677d8)" d="M 159.963893 189.519215 
L 155.174425 174.86032 
" style="fill:none;stroke:#999999;"/>
    <path clip-path="url(#p2e0ff677d8)" d="M 159.963893 189.519215 
L 204.484828 150.767298 
L 206.390058 155.228969 
" style="fill:none;stroke:#999999;"/>
    <path clip-path="url(#p2e0ff677d8)" d="M 155.174425 174.86032 
L 159.963893 189.519215 
" style="fill:none;stroke:#999999;"/>
    <path clip-path="url(#p2e0ff677d8)" d="M 155.174425 174.86032 
L 143.565485 138.293082 
L 141.12276 131.326722 
" style="fill:none;stroke:#999999;"/>
    <path clip-path="url(#p2e0ff677d8)" d="M 155.174425 174.86032 
L 144.957214 179.32199 
L 133.036334 181.082042 
L 123.764538 181.082042 
L 115.346976 181.057426 
" style="fill:none;stroke:#999999;"/>
    <path clip-path="url(#p2e0ff677d8)" d="M 164.489412 282.278887 
L 175.469675 262.235216 
" style="fill:none;stroke:#999999;"/>
    <path clip-path="url(#p2e0ff677d8)" d="M 334.1124 262.992162 
L 302.021046 253.822659 
" style="fill:none;stroke:#999999;"/>
    <path clip-path="url(#p2e0ff677d8)" d="M 334.1124 262.992162 
L 407.182979 297.965506 
" style="fill:none;stroke:#999999;"/>
    <path clip-path="url(#p2e0ff677d8)" d="M 334.1124 262.992162 
L 370.940433 251.582593 
" style="fill:none;stroke:#999999;"/>
    <path clip-path="url(#p2e0ff677d8)" d="M 175.469675 262.235216 
L 164.489412 282.278887 
" style="fill:none;stroke:#999999;"/>
    <path clip-path="url(#p2e0ff677d8)" d="M 175.469675 262.235216 
L 177.3989 258.708958 
" style="fill:none;stroke:#999999;"/>
    <path clip-path="url(#p2e0ff677d8)" d="M 175.469675 262.235216 
L 177.110956 264.075271 
L 180.374321 271.546261 
L 181.967611 281.700408 
L 181.674868 292.45765 
L 177.307718 313.52289 
L 175.839203 327.83716 
L 178.176349 335.018911 
" style="fill:none;stroke:#999999;"/>
    <path clip-path="url(#p2e0ff677d8)" d="M 177.3989 258.708958 
L 175.469675 262.235216 
" style="fill:none;stroke:#999999;"/>
    <path clip-path="url(#p2e0ff677d8)" d="M 177.3989 258.708958 
L 180.033587 252.259536 
" style="fill:none;stroke:#999999;"/>
    <path clip-path="url(#p2e0ff677d8)" d="M 177.3989 258.708958 
L 216.900012 280.186517 
" style="fill:none;stroke:#999999;"/>
    <path clip-path="url(#p2e0ff677d8)" d="M 370.940433 251.582593 
L 393.006538 243.077725 
" style="fill:none;stroke:#999999;"/>
    <path clip-path="url(#p2e0ff677d8)" d="M 370.940433 251.582593 
L 334.1124 262.992162 
" style="fill:none;stroke:#999999;"/>
    <path clip-path="url(#p2e0ff677d8)" d="M 370.940433 251.582593 
L 407.182979 297.965506 
" style="fill:none;stroke:#999999;"/>
    <path clip-path="url(#p2e0ff677d8)" d="M 370.940433 251.582593 
L 353.107104 227.889583 
" style="fill:none;stroke:#999999;"/>
    <path clip-path="url(#p2e0ff677d8)" d="M 160.285431 249.213292 
L 167.464833 260.08746 
L 177.254928 254.579605 
L 180.033587 252.259536 
" style="fill:none;stroke:#999999;"/>
    <path clip-path="url(#p2e0ff677d8)" d="M 278.169688 247.016304 
L 302.021046 253.822659 
" style="fill:none;stroke:#999999;"/>
    <path clip-path="url(#p2e0ff677d8)" d="M 278.169688 247.016304 
L 267.616542 245.151633 
L 252.15875 236.486761 
" style="fill:none;stroke:#999999;"/>
    <path clip-path="url(#p2e0ff677d8)" d="M 278.169688 247.016304 
L 278.169688 232.658955 
L 276.5668 222.486346 
" style="fill:none;stroke:#999999;"/>
    <path clip-path="url(#p2e0ff677d8)" d="M 393.006538 243.077725 
L 380.418588 215.347673 
" style="fill:none;stroke:#999999;"/>
    <path clip-path="url(#p2e0ff677d8)" d="M 393.006538 243.077725 
L 406.472718 237.889879 
" style="fill:none;stroke:#999999;"/>
    <path clip-path="url(#p2e0ff677d8)" d="M 393.006538 243.077725 
L 370.940433 251.582593 
" style="fill:none;stroke:#999999;"/>
    <path clip-path="url(#p2e0ff677d8)" d="M 406.472718 237.889879 
L 393.097721 209.525962 
" style="fill:none;stroke:#999999;"/>
    <path clip-path="url(#p2e0ff677d8)" d="M 406.472718 237.889879 
L 455.509574 207.919761 
" style="fill:none;stroke:#999999;"/>
    <path clip-path="url(#p2e0ff677d8)" d="M 406.472718 237.889879 
L 393.006538 243.077725 
" style="fill:none;stroke:#999999;"/>
    <path clip-path="url(#p2e0ff677d8)" d="M 375.417961 217.64928 
L 353.107104 227.889583 
" style="fill:none;stroke:#999999;"/>
    <path clip-path="url(#p2e0ff677d8)" d="M 375.417961 217.64928 
L 380.418588 215.347673 
" style="fill:none;stroke:#999999;"/>
    <path clip-path="url(#p2e0ff677d8)" d="M 375.417961 217.64928 
L 366.678862 193.790111 
L 353.956538 171.18021 
" style="fill:none;stroke:#999999;"/>
    <path clip-path="url(#p2e0ff677d8)" d="M 380.418588 215.347673 
L 393.006538 243.077725 
" style="fill:none;stroke:#999999;"/>
    <path clip-path="url(#p2e0ff677d8)" d="M 380.418588 215.347673 
L 375.417961 217.64928 
" style="fill:none;stroke:#999999;"/>
    <path clip-path="url(#p2e0ff677d8)" d="M 380.418588 215.347673 
L 393.097721 209.525962 
" style="fill:none;stroke:#999999;"/>
    <path clip-path="url(#p2e0ff677d8)" d="M 393.097721 209.525962 
L 406.472718 237.889879 
" style="fill:none;stroke:#999999;"/>
    <path clip-path="url(#p2e0ff677d8)" d="M 393.097721 209.525962 
L 380.418588 215.347673 
" style="fill:none;stroke:#999999;"/>
    <path clip-path="url(#p2e0ff677d8)" d="M 393.097721 209.525962 
L 457.592369 180.842035 
L 522.710895 149.998044 
" style="fill:none;stroke:#999999;"/>
    <path clip-path="url(#p2e0ff677d8)" d="M 455.509574 207.919761 
L 406.472718 237.889879 
" style="fill:none;stroke:#999999;"/>
    <path clip-path="url(#p2e0ff677d8)" d="M 249.48567 194.313204 
L 243.99074 181.494362 
" style="fill:none;stroke:#999999;"/>
    <path clip-path="url(#p2e0ff677d8)" d="M 249.48567 194.313204 
L 240.146688 197.981005 
" style="fill:none;stroke:#999999;"/>
    <path clip-path="url(#p2e0ff677d8)" d="M 249.48567 194.313204 
L 268.984276 189.814609 
" style="fill:none;stroke:#999999;"/>
    <path clip-path="url(#p2e0ff677d8)" d="M 243.99074 181.494362 
L 236.864127 188.516109 
" style="fill:none;stroke:#999999;"/>
    <path clip-path="url(#p2e0ff677d8)" d="M 243.99074 181.494362 
L 263.714901 161.629158 
" style="fill:none;stroke:#999999;"/>
    <path clip-path="url(#p2e0ff677d8)" d="M 243.99074 181.494362 
L 249.48567 194.313204 
" style="fill:none;stroke:#999999;"/>
    <path clip-path="url(#p2e0ff677d8)" d="M 353.956538 171.18021 
L 324.466278 187.383767 
" style="fill:none;stroke:#999999;"/>
    <path clip-path="url(#p2e0ff677d8)" d="M 353.956538 171.18021 
L 357.603828 169.180151 
L 350.91873 155.825909 
" style="fill:none;stroke:#999999;"/>
    <path clip-path="url(#p2e0ff677d8)" d="M 353.956538 171.18021 
L 366.678862 193.790111 
L 375.417961 217.64928 
" style="fill:none;stroke:#999999;"/>
    <path clip-path="url(#p2e0ff677d8)" d="M 559.078218 158.04136 
L 414.482359 308.710439 
" style="fill:none;stroke:#999999;"/>
    <path clip-path="url(#p2e0ff677d8)" d="M 559.078218 158.04136 
L 566.699134 150.379594 
" style="fill:none;stroke:#999999;"/>
    <path clip-path="url(#p2e0ff677d8)" d="M 522.710895 149.998044 
L 538.773369 147.844134 
L 546.974973 149.893426 
L 552.925815 154.201246 
L 555.944427 156.244383 
L 559.078218 158.04136 
" style="fill:none;stroke:#999999;"/>
    <path clip-path="url(#p2e0ff677d8)" d="M 522.710895 149.998044 
L 457.592369 180.842035 
L 393.097721 209.525962 
" style="fill:none;stroke:#999999;"/>
    <path clip-path="url(#p2e0ff677d8)" d="M 566.699134 150.379594 
L 559.078218 158.04136 
" style="fill:none;stroke:#999999;"/>
    <path clip-path="url(#p2e0ff677d8)" d="M 566.699134 150.379594 
L 557.849657 150.508829 
L 544.719412 146.201009 
L 537.372042 145.837921 
L 530.067864 146.619483 
L 522.710895 149.998044 
" style="fill:none;stroke:#999999;"/>
    <path clip-path="url(#p2e0ff677d8)" d="M 196.288024 131.499035 
L 215.906606 122.157219 
L 226.31578 119.344828 
" style="fill:none;stroke:#999999;"/>
    <path clip-path="url(#p2e0ff677d8)" d="M 141.12276 131.326722 
L 193.187827 123.89881 
" style="fill:none;stroke:#999999;"/>
    <path clip-path="url(#p2e0ff677d8)" d="M 141.12276 131.326722 
L 121.80172 134.957599 
" style="fill:none;stroke:#999999;"/>
    <path clip-path="url(#p2e0ff677d8)" d="M 141.12276 131.326722 
L 143.565485 138.293082 
L 155.174425 174.86032 
" style="fill:none;stroke:#999999;"/>
    <path clip-path="url(#p2e0ff677d8)" d="M 508.160127 8.307692 
L 494.055672 32.265325 
L 464.517421 63.441634 
L 414.635929 107.9968 
L 366.798839 149.99189 
L 350.91873 155.825909 
" style="fill:none;stroke:#999999;"/>
    <path clip-path="url(#p2e0ff677d8)" d="M 115.346976 181.057426 
L 123.764538 181.082042 
L 133.036334 181.082042 
L 144.957214 179.32199 
L 155.174425 174.86032 
" style="fill:none;stroke:#999999;"/>
    <path clip-path="url(#p2e0ff677d8)" d="M 126.356034 423.483071 
L 158.672944 423.692308 
L 169.23089 422.596891 
L 177.730035 419.686035 
L 186.589111 415.193594 
L 192.755911 411.845803 
" style="fill:none;stroke:#999999;"/>
    <path clip-path="url(#p2e0ff677d8)" d="M 81.019257 422.09226 
L 154.089836 415.316675 
" style="fill:none;stroke:#999999;"/>
    <path clip-path="url(#p2e0ff677d8)" d="M 81.019257 422.09226 
L 113.638509 423.206139 
L 126.356034 423.483071 
" style="fill:none;stroke:#999999;"/>
    <path clip-path="url(#p2e0ff677d8)" d="M 317.36366 220.947839 
L 339.372177 208.467469 
" style="fill:none;stroke:#999999;"/>
    <path clip-path="url(#p2e0ff677d8)" d="M 339.372177 208.467469 
L 353.107104 227.889583 
" style="fill:none;stroke:#999999;"/>
    <path clip-path="url(#p2e0ff677d8)" d="M 339.372177 208.467469 
L 324.466278 187.383767 
" style="fill:none;stroke:#999999;"/>
    <path clip-path="url(#p2e0ff677d8)" d="M 339.372177 208.467469 
L 317.36366 220.947839 
" style="fill:none;stroke:#999999;"/>
    <path clip-path="url(#p2e0ff677d8)" d="M 204.254473 194.590135 
L 195.971285 182.983637 
" style="fill:none;stroke:#999999;"/>
    <path clip-path="url(#p2e0ff677d8)" d="M 195.971285 182.983637 
L 204.254473 194.590135 
" style="fill:none;stroke:#999999;"/>
    <path clip-path="url(#p2e0ff677d8)" d="M 195.971285 182.983637 
L 209.854983 159.186009 
" style="fill:none;stroke:#999999;"/>
    <path clip-path="url(#p2e0ff677d8)" d="M 195.971285 182.983637 
L 182.764256 205.624308 
L 178.32512 220.609367 
" style="fill:none;stroke:#999999;"/>
   </g>
  </g>
 </g>
 <defs>
  <clipPath id="p2e0ff677d8">
   <rect height="432" width="505.107072" x="71.30566" y="0"/>
  </clipPath>
 </defs>
</svg>
