<?xml version="1.0" encoding="utf-8" standalone="no"?>
<!DOCTYPE svg PUBLIC "-//W3C//DTD SVG 1.1//EN"
  "http://www.w3.org/Graphics/SVG/1.1/DTD/svg11.dtd">
<!-- Created with matplotlib (http://matplotlib.org/) -->
<svg height="432pt" version="1.1" viewBox="0 0 305.205408 432" width="305.205408pt" xmlns="http://www.w3.org/2000/svg" xmlns:xlink="http://www.w3.org/1999/xlink">
 <defs>
  <style type="text/css">
*{stroke-linecap:butt;stroke-linejoin:round;}
  </style>
 </defs>
 <g id="figure_1">
  <g id="patch_1">
   <path d="M 0 432 
L 305.205408 432 
L 305.205408 0 
L 0 0 
z
" style="fill:none;opacity:0;"/>
  </g>
  <g id="axes_1">
   <g id="PathCollection_1">
    <defs>
     <path d="M 0 1.936492 
C 0.513564 1.936492 1.006162 1.732451 1.369306 1.369306 
C 1.732451 1.006162 1.936492 0.513564 1.936492 0 
C 1.936492 -0.513564 1.732451 -1.006162 1.369306 -1.369306 
C 1.006162 -1.732451 0.513564 -1.936492 0 -1.936492 
C -0.513564 -1.936492 -1.006162 -1.732451 -1.369306 -1.369306 
C -1.732451 -1.006162 -1.936492 -0.513564 -1.936492 0 
C -1.936492 0.513564 -1.732451 1.006162 -1.369306 1.369306 
C -1.006162 1.732451 -0.513564 1.936492 0 1.936492 
z
" id="C0_0_c43f394066"/>
    </defs>
    <g clip-path="url(#p5dafb6ecb1)">
     <use style="fill:#66ccff;" x="101.372625" xlink:href="#C0_0_c43f394066" y="258.827971"/>
    </g>
    <g clip-path="url(#p5dafb6ecb1)">
     <use style="fill:#66ccff;" x="114.88379" xlink:href="#C0_0_c43f394066" y="251.325371"/>
    </g>
    <g clip-path="url(#p5dafb6ecb1)">
     <use style="fill:#66ccff;" x="167.747991" xlink:href="#C0_0_c43f394066" y="18.866417"/>
    </g>
    <g clip-path="url(#p5dafb6ecb1)">
     <use style="fill:#66ccff;" x="169.810231" xlink:href="#C0_0_c43f394066" y="8.307692"/>
    </g>
    <g clip-path="url(#p5dafb6ecb1)">
     <use style="fill:#66ccff;" x="165.732909" xlink:href="#C0_0_c43f394066" y="25.50115"/>
    </g>
    <g clip-path="url(#p5dafb6ecb1)">
     <use style="fill:#66ccff;" x="46.019292" xlink:href="#C0_0_c43f394066" y="423.692308"/>
    </g>
    <g clip-path="url(#p5dafb6ecb1)">
     <use style="fill:#66ccff;" x="176.545673" xlink:href="#C0_0_c43f394066" y="130.846374"/>
    </g>
    <g clip-path="url(#p5dafb6ecb1)">
     <use style="fill:#66ccff;" x="145.926948" xlink:href="#C0_0_c43f394066" y="175.476255"/>
    </g>
    <g clip-path="url(#p5dafb6ecb1)">
     <use style="fill:#66ccff;" x="144.637925" xlink:href="#C0_0_c43f394066" y="187.995714"/>
    </g>
    <g clip-path="url(#p5dafb6ecb1)">
     <use style="fill:#66ccff;" x="146.39756" xlink:href="#C0_0_c43f394066" y="170.812971"/>
    </g>
    <g clip-path="url(#p5dafb6ecb1)">
     <use style="fill:#66ccff;" x="143.478099" xlink:href="#C0_0_c43f394066" y="192.05395"/>
    </g>
    <g clip-path="url(#p5dafb6ecb1)">
     <use style="fill:#66ccff;" x="129.086625" xlink:href="#C0_0_c43f394066" y="219.009485"/>
    </g>
    <g clip-path="url(#p5dafb6ecb1)">
     <use style="fill:#66ccff;" x="109.016867" xlink:href="#C0_0_c43f394066" y="253.553336"/>
    </g>
    <g clip-path="url(#p5dafb6ecb1)">
     <use style="fill:#66ccff;" x="183.007" xlink:href="#C0_0_c43f394066" y="173.085684"/>
    </g>
    <g clip-path="url(#p5dafb6ecb1)">
     <use style="fill:#66ccff;" x="182.671481" xlink:href="#C0_0_c43f394066" y="165.919642"/>
    </g>
    <g clip-path="url(#p5dafb6ecb1)">
     <use style="fill:#66ccff;" x="182.180237" xlink:href="#C0_0_c43f394066" y="164.524249"/>
    </g>
    <g clip-path="url(#p5dafb6ecb1)">
     <use style="fill:#66ccff;" x="179.970623" xlink:href="#C0_0_c43f394066" y="165.089591"/>
    </g>
    <g clip-path="url(#p5dafb6ecb1)">
     <use style="fill:#66ccff;" x="180.5498" xlink:href="#C0_0_c43f394066" y="166.836668"/>
    </g>
    <g clip-path="url(#p5dafb6ecb1)">
     <use style="fill:#66ccff;" x="179.304497" xlink:href="#C0_0_c43f394066" y="157.287619"/>
    </g>
    <g clip-path="url(#p5dafb6ecb1)">
     <use style="fill:#66ccff;" x="181.855034" xlink:href="#C0_0_c43f394066" y="164.325718"/>
    </g>
    <g clip-path="url(#p5dafb6ecb1)">
     <use style="fill:#66ccff;" x="180.231965" xlink:href="#C0_0_c43f394066" y="164.67299"/>
    </g>
    <g clip-path="url(#p5dafb6ecb1)">
     <use style="fill:#66ccff;" x="182.421438" xlink:href="#C0_0_c43f394066" y="166.471118"/>
    </g>
    <g clip-path="url(#p5dafb6ecb1)">
     <use style="fill:#66ccff;" x="166.16766" xlink:href="#C0_0_c43f394066" y="172.206473"/>
    </g>
    <g clip-path="url(#p5dafb6ecb1)">
     <use style="fill:#66ccff;" x="146.130323" xlink:href="#C0_0_c43f394066" y="172.898497"/>
    </g>
    <g clip-path="url(#p5dafb6ecb1)">
     <use style="fill:#66ccff;" x="177.11748" xlink:href="#C0_0_c43f394066" y="167.410834"/>
    </g>
    <g clip-path="url(#p5dafb6ecb1)">
     <use style="fill:#66ccff;" x="185.115418" xlink:href="#C0_0_c43f394066" y="163.89336"/>
    </g>
    <g clip-path="url(#p5dafb6ecb1)">
     <use style="fill:#66ccff;" x="142.472032" xlink:href="#C0_0_c43f394066" y="175.12205"/>
    </g>
    <g clip-path="url(#p5dafb6ecb1)">
     <use style="fill:#66ccff;" x="180.879915" xlink:href="#C0_0_c43f394066" y="166.982888"/>
    </g>
    <g clip-path="url(#p5dafb6ecb1)">
     <use style="fill:#66ccff;" x="266.971345" xlink:href="#C0_0_c43f394066" y="408.213153"/>
    </g>
    <g clip-path="url(#p5dafb6ecb1)">
     <use style="fill:#66ccff;" x="95.376505" xlink:href="#C0_0_c43f394066" y="266.629944"/>
    </g>
    <g clip-path="url(#p5dafb6ecb1)">
     <use style="fill:#66ccff;" x="103.457954" xlink:href="#C0_0_c43f394066" y="257.626698"/>
    </g>
    <g clip-path="url(#p5dafb6ecb1)">
     <use style="fill:#66ccff;" x="108.872932" xlink:href="#C0_0_c43f394066" y="252.44345"/>
    </g>
    <g clip-path="url(#p5dafb6ecb1)">
     <use style="fill:#66ccff;" x="108.361548" xlink:href="#C0_0_c43f394066" y="252.44345"/>
    </g>
    <g clip-path="url(#p5dafb6ecb1)">
     <use style="fill:#66ccff;" x="115.000706" xlink:href="#C0_0_c43f394066" y="251.704787"/>
    </g>
    <g clip-path="url(#p5dafb6ecb1)">
     <use style="fill:#66ccff;" x="108.079083" xlink:href="#C0_0_c43f394066" y="249.709388"/>
    </g>
    <g clip-path="url(#p5dafb6ecb1)">
     <use style="fill:#66ccff;" x="126.884871" xlink:href="#C0_0_c43f394066" y="249.469889"/>
    </g>
    <g clip-path="url(#p5dafb6ecb1)">
     <use style="fill:#66ccff;" x="162.490701" xlink:href="#C0_0_c43f394066" y="227.599282"/>
    </g>
    <g clip-path="url(#p5dafb6ecb1)">
     <use style="fill:#66ccff;" x="159.461693" xlink:href="#C0_0_c43f394066" y="209.092364"/>
    </g>
    <g clip-path="url(#p5dafb6ecb1)">
     <use style="fill:#66ccff;" x="143.725686" xlink:href="#C0_0_c43f394066" y="208.550342"/>
    </g>
    <g clip-path="url(#p5dafb6ecb1)">
     <use style="fill:#66ccff;" x="162.969173" xlink:href="#C0_0_c43f394066" y="208.434374"/>
    </g>
    <g clip-path="url(#p5dafb6ecb1)">
     <use style="fill:#66ccff;" x="150.228278" xlink:href="#C0_0_c43f394066" y="206.844862"/>
    </g>
    <g clip-path="url(#p5dafb6ecb1)">
     <use style="fill:#66ccff;" x="144.103452" xlink:href="#C0_0_c43f394066" y="206.108089"/>
    </g>
    <g clip-path="url(#p5dafb6ecb1)">
     <use style="fill:#66ccff;" x="142.591895" xlink:href="#C0_0_c43f394066" y="205.924054"/>
    </g>
    <g clip-path="url(#p5dafb6ecb1)">
     <use style="fill:#66ccff;" x="159.209194" xlink:href="#C0_0_c43f394066" y="205.424889"/>
    </g>
    <g clip-path="url(#p5dafb6ecb1)">
     <use style="fill:#66ccff;" x="136.892978" xlink:href="#C0_0_c43f394066" y="205.290014"/>
    </g>
    <g clip-path="url(#p5dafb6ecb1)">
     <use style="fill:#66ccff;" x="129.219752" xlink:href="#C0_0_c43f394066" y="203.295245"/>
    </g>
    <g clip-path="url(#p5dafb6ecb1)">
     <use style="fill:#66ccff;" x="139.69454" xlink:href="#C0_0_c43f394066" y="199.460751"/>
    </g>
    <g clip-path="url(#p5dafb6ecb1)">
     <use style="fill:#66ccff;" x="142.68867" xlink:href="#C0_0_c43f394066" y="199.247093"/>
    </g>
    <g clip-path="url(#p5dafb6ecb1)">
     <use style="fill:#66ccff;" x="144.607468" xlink:href="#C0_0_c43f394066" y="198.637002"/>
    </g>
    <g clip-path="url(#p5dafb6ecb1)">
     <use style="fill:#66ccff;" x="148.318814" xlink:href="#C0_0_c43f394066" y="196.443702"/>
    </g>
    <g clip-path="url(#p5dafb6ecb1)">
     <use style="fill:#66ccff;" x="157.369978" xlink:href="#C0_0_c43f394066" y="196.346642"/>
    </g>
    <g clip-path="url(#p5dafb6ecb1)">
     <use style="fill:#66ccff;" x="116.139408" xlink:href="#C0_0_c43f394066" y="191.917184"/>
    </g>
    <g clip-path="url(#p5dafb6ecb1)">
     <use style="fill:#66ccff;" x="142.517718" xlink:href="#C0_0_c43f394066" y="191.56676"/>
    </g>
    <g clip-path="url(#p5dafb6ecb1)">
     <use style="fill:#66ccff;" x="139.642469" xlink:href="#C0_0_c43f394066" y="191.222009"/>
    </g>
    <g clip-path="url(#p5dafb6ecb1)">
     <use style="fill:#66ccff;" x="118.464956" xlink:href="#C0_0_c43f394066" y="191.206882"/>
    </g>
    <g clip-path="url(#p5dafb6ecb1)">
     <use style="fill:#66ccff;" x="119.379651" xlink:href="#C0_0_c43f394066" y="188.96064"/>
    </g>
    <g clip-path="url(#p5dafb6ecb1)">
     <use style="fill:#66ccff;" x="131.681866" xlink:href="#C0_0_c43f394066" y="188.922195"/>
    </g>
    <g clip-path="url(#p5dafb6ecb1)">
     <use style="fill:#66ccff;" x="108.943672" xlink:href="#C0_0_c43f394066" y="188.91022"/>
    </g>
    <g clip-path="url(#p5dafb6ecb1)">
     <use style="fill:#66ccff;" x="142.6253" xlink:href="#C0_0_c43f394066" y="188.815051"/>
    </g>
    <g clip-path="url(#p5dafb6ecb1)">
     <use style="fill:#66ccff;" x="126.773359" xlink:href="#C0_0_c43f394066" y="188.770302"/>
    </g>
    <g clip-path="url(#p5dafb6ecb1)">
     <use style="fill:#66ccff;" x="140.038902" xlink:href="#C0_0_c43f394066" y="188.54593"/>
    </g>
    <g clip-path="url(#p5dafb6ecb1)">
     <use style="fill:#66ccff;" x="140.727135" xlink:href="#C0_0_c43f394066" y="188.20559"/>
    </g>
    <g clip-path="url(#p5dafb6ecb1)">
     <use style="fill:#66ccff;" x="142.582562" xlink:href="#C0_0_c43f394066" y="187.993193"/>
    </g>
    <g clip-path="url(#p5dafb6ecb1)">
     <use style="fill:#66ccff;" x="139.800158" xlink:href="#C0_0_c43f394066" y="187.782057"/>
    </g>
    <g clip-path="url(#p5dafb6ecb1)">
     <use style="fill:#66ccff;" x="140.292875" xlink:href="#C0_0_c43f394066" y="187.554533"/>
    </g>
    <g clip-path="url(#p5dafb6ecb1)">
     <use style="fill:#66ccff;" x="114.795857" xlink:href="#C0_0_c43f394066" y="187.221757"/>
    </g>
    <g clip-path="url(#p5dafb6ecb1)">
     <use style="fill:#66ccff;" x="127.170775" xlink:href="#C0_0_c43f394066" y="187.219866"/>
    </g>
    <g clip-path="url(#p5dafb6ecb1)">
     <use style="fill:#66ccff;" x="170.826614" xlink:href="#C0_0_c43f394066" y="187.066713"/>
    </g>
    <g clip-path="url(#p5dafb6ecb1)">
     <use style="fill:#66ccff;" x="119.241121" xlink:href="#C0_0_c43f394066" y="186.537296"/>
    </g>
    <g clip-path="url(#p5dafb6ecb1)">
     <use style="fill:#66ccff;" x="119.270104" xlink:href="#C0_0_c43f394066" y="185.918381"/>
    </g>
    <g clip-path="url(#p5dafb6ecb1)">
     <use style="fill:#66ccff;" x="122.121773" xlink:href="#C0_0_c43f394066" y="185.601361"/>
    </g>
    <g clip-path="url(#p5dafb6ecb1)">
     <use style="fill:#66ccff;" x="119.302526" xlink:href="#C0_0_c43f394066" y="185.245895"/>
    </g>
    <g clip-path="url(#p5dafb6ecb1)">
     <use style="fill:#66ccff;" x="178.542578" xlink:href="#C0_0_c43f394066" y="183.435162"/>
    </g>
    <g clip-path="url(#p5dafb6ecb1)">
     <use style="fill:#66ccff;" x="129.29786" xlink:href="#C0_0_c43f394066" y="183.079066"/>
    </g>
    <g clip-path="url(#p5dafb6ecb1)">
     <use style="fill:#66ccff;" x="111.493717" xlink:href="#C0_0_c43f394066" y="182.379479"/>
    </g>
    <g clip-path="url(#p5dafb6ecb1)">
     <use style="fill:#66ccff;" x="113.357496" xlink:href="#C0_0_c43f394066" y="181.913718"/>
    </g>
    <g clip-path="url(#p5dafb6ecb1)">
     <use style="fill:#66ccff;" x="135.172643" xlink:href="#C0_0_c43f394066" y="181.449217"/>
    </g>
    <g clip-path="url(#p5dafb6ecb1)">
     <use style="fill:#66ccff;" x="119.338878" xlink:href="#C0_0_c43f394066" y="181.190181"/>
    </g>
    <g clip-path="url(#p5dafb6ecb1)">
     <use style="fill:#66ccff;" x="167.770588" xlink:href="#C0_0_c43f394066" y="180.283238"/>
    </g>
    <g clip-path="url(#p5dafb6ecb1)">
     <use style="fill:#66ccff;" x="165.674943" xlink:href="#C0_0_c43f394066" y="179.836385"/>
    </g>
    <g clip-path="url(#p5dafb6ecb1)">
     <use style="fill:#66ccff;" x="138.302847" xlink:href="#C0_0_c43f394066" y="178.968519"/>
    </g>
    <g clip-path="url(#p5dafb6ecb1)">
     <use style="fill:#66ccff;" x="138.138281" xlink:href="#C0_0_c43f394066" y="178.590363"/>
    </g>
    <g clip-path="url(#p5dafb6ecb1)">
     <use style="fill:#66ccff;" x="139.147786" xlink:href="#C0_0_c43f394066" y="177.82586"/>
    </g>
    <g clip-path="url(#p5dafb6ecb1)">
     <use style="fill:#66ccff;" x="141.824573" xlink:href="#C0_0_c43f394066" y="176.180884"/>
    </g>
    <g clip-path="url(#p5dafb6ecb1)">
     <use style="fill:#66ccff;" x="142.060861" xlink:href="#C0_0_c43f394066" y="175.929411"/>
    </g>
    <g clip-path="url(#p5dafb6ecb1)">
     <use style="fill:#66ccff;" x="141.826047" xlink:href="#C0_0_c43f394066" y="175.551256"/>
    </g>
    <g clip-path="url(#p5dafb6ecb1)">
     <use style="fill:#66ccff;" x="142.7319" xlink:href="#C0_0_c43f394066" y="175.540541"/>
    </g>
    <g clip-path="url(#p5dafb6ecb1)">
     <use style="fill:#66ccff;" x="137.941292" xlink:href="#C0_0_c43f394066" y="174.722466"/>
    </g>
    <g clip-path="url(#p5dafb6ecb1)">
     <use style="fill:#66ccff;" x="137.319378" xlink:href="#C0_0_c43f394066" y="174.291369"/>
    </g>
    <g clip-path="url(#p5dafb6ecb1)">
     <use style="fill:#66ccff;" x="144.941022" xlink:href="#C0_0_c43f394066" y="173.133583"/>
    </g>
    <g clip-path="url(#p5dafb6ecb1)">
     <use style="fill:#66ccff;" x="132.405959" xlink:href="#C0_0_c43f394066" y="172.76047"/>
    </g>
    <g clip-path="url(#p5dafb6ecb1)">
     <use style="fill:#66ccff;" x="135.981721" xlink:href="#C0_0_c43f394066" y="172.653326"/>
    </g>
    <g clip-path="url(#p5dafb6ecb1)">
     <use style="fill:#66ccff;" x="125.597322" xlink:href="#C0_0_c43f394066" y="172.636939"/>
    </g>
    <g clip-path="url(#p5dafb6ecb1)">
     <use style="fill:#66ccff;" x="127.077439" xlink:href="#C0_0_c43f394066" y="171.773485"/>
    </g>
    <g clip-path="url(#p5dafb6ecb1)">
     <use style="fill:#66ccff;" x="132.096966" xlink:href="#C0_0_c43f394066" y="169.852456"/>
    </g>
    <g clip-path="url(#p5dafb6ecb1)">
     <use style="fill:#66ccff;" x="135.49539" xlink:href="#C0_0_c43f394066" y="169.002868"/>
    </g>
    <g clip-path="url(#p5dafb6ecb1)">
     <use style="fill:#66ccff;" x="147.929749" xlink:href="#C0_0_c43f394066" y="167.904327"/>
    </g>
    <g clip-path="url(#p5dafb6ecb1)">
     <use style="fill:#66ccff;" x="130.726397" xlink:href="#C0_0_c43f394066" y="162.47969"/>
    </g>
    <g clip-path="url(#p5dafb6ecb1)">
     <use style="fill:#66ccff;" x="136.469035" xlink:href="#C0_0_c43f394066" y="158.418303"/>
    </g>
    <g clip-path="url(#p5dafb6ecb1)">
     <use style="fill:#66ccff;" x="134.426444" xlink:href="#C0_0_c43f394066" y="185.750102"/>
    </g>
    <g clip-path="url(#p5dafb6ecb1)">
     <use style="fill:#66ccff;" x="133.942078" xlink:href="#C0_0_c43f394066" y="181.872751"/>
    </g>
    <g clip-path="url(#p5dafb6ecb1)">
     <use style="fill:#66ccff;" x="124.583886" xlink:href="#C0_0_c43f394066" y="167.647181"/>
    </g>
    <g clip-path="url(#p5dafb6ecb1)">
     <use style="fill:#66ccff;" x="123.268827" xlink:href="#C0_0_c43f394066" y="171.353102"/>
    </g>
    <g clip-path="url(#p5dafb6ecb1)">
     <use style="fill:#66ccff;" x="167.263624" xlink:href="#C0_0_c43f394066" y="26.81587"/>
    </g>
    <g clip-path="url(#p5dafb6ecb1)">
     <use style="fill:#66ccff;" x="173.812885" xlink:href="#C0_0_c43f394066" y="42.828853"/>
    </g>
    <g clip-path="url(#p5dafb6ecb1)">
     <use style="fill:#66ccff;" x="166.280155" xlink:href="#C0_0_c43f394066" y="25.692119"/>
    </g>
    <g clip-path="url(#p5dafb6ecb1)">
     <use style="fill:#66ccff;" x="168.154249" xlink:href="#C0_0_c43f394066" y="17.881322"/>
    </g>
    <g clip-path="url(#p5dafb6ecb1)">
     <use style="fill:#66ccff;" x="168.491734" xlink:href="#C0_0_c43f394066" y="26.795702"/>
    </g>
    <g clip-path="url(#p5dafb6ecb1)">
     <use style="fill:#66ccff;" x="170.976935" xlink:href="#C0_0_c43f394066" y="36.773327"/>
    </g>
    <g clip-path="url(#p5dafb6ecb1)">
     <use style="fill:#66ccff;" x="175.943899" xlink:href="#C0_0_c43f394066" y="45.758296"/>
    </g>
    <g clip-path="url(#p5dafb6ecb1)">
     <use style="fill:#66ccff;" x="118.406006" xlink:href="#C0_0_c43f394066" y="168.327861"/>
    </g>
   </g>
   <g id="LineCollection_1">
    <path clip-path="url(#p5dafb6ecb1)" d="M 101.372625 258.827971 
L 99.645903 260.532821 
L 98.261087 262.143132 
L 96.70974 264.405761 
L 95.376505 266.629944 
" style="fill:none;stroke:#999999;"/>
    <path clip-path="url(#p5dafb6ecb1)" d="M 114.88379 251.325371 
L 113.089768 251.869284 
L 110.839872 252.726436 
L 109.016867 253.553336 
" style="fill:none;stroke:#999999;"/>
    <path clip-path="url(#p5dafb6ecb1)" d="M 114.88379 251.325371 
L 113.03524 251.66445 
L 110.743097 252.480635 
L 109.755206 252.714461 
L 109.273296 252.645763 
L 108.872932 252.44345 
" style="fill:none;stroke:#999999;"/>
    <path clip-path="url(#p5dafb6ecb1)" d="M 167.747991 18.866417 
L 167.57802 20.456559 
L 167.63697 22.175275 
L 167.828063 24.204078 
L 167.828063 24.816059 
L 167.63697 25.191693 
L 167.070566 25.64611 
L 166.728169 25.705354 
L 166.280155 25.692119 
" style="fill:none;stroke:#999999;"/>
    <path clip-path="url(#p5dafb6ecb1)" d="M 167.747991 18.866417 
L 167.841327 21.339552 
L 168.083019 23.883906 
L 168.299657 25.272997 
L 168.491734 26.795702 
" style="fill:none;stroke:#999999;"/>
    <path clip-path="url(#p5dafb6ecb1)" d="M 169.810231 8.307692 
L 168.956941 10.812971 
L 168.153267 13.391989 
L 167.873258 16.14622 
L 167.747991 18.866417 
" style="fill:none;stroke:#999999;"/>
    <path clip-path="url(#p5dafb6ecb1)" d="M 165.732909 25.50115 
L 166.180923 25.942331 
L 166.905999 26.534775 
L 167.263624 26.81587 
" style="fill:none;stroke:#999999;"/>
    <path clip-path="url(#p5dafb6ecb1)" d="M 46.019292 423.692308 
L 46.559169 422.663725 
L 47.429161 420.646898 
L 48.061392 418.854442 
L 48.377753 417.627958 
L 48.641059 416.533829 
L 48.917629 415.070999 
L 49.07581 413.410267 
L 49.089073 411.788611 
L 49.063038 410.351621 
L 48.930893 408.242776 
L 48.669551 406.048215 
L 48.272135 404.103867 
L 45.529522 393.238837 
L 44.656091 389.777456 
L 41.546028 376.842656 
L 40.641648 373.082532 
L 40.312023 371.672013 
L 39.402732 367.994454 
L 38.909032 365.958088 
L 38.748395 365.25787 
L 38.619198 364.632023 
L 38.37505 363.242933 
L 38.234063 359.271673 
L 38.347049 357.002742 
L 38.641795 354.677087 
L 39.142864 352.427063 
L 40.513433 348.576183 
L 41.288125 346.96335 
L 41.800492 345.897583 
L 42.841928 344.164371 
L 60.335114 318.456118 
L 74.821889 296.983204 
L 94.703501 267.642769 
L 95.376505 266.629944 
" style="fill:none;stroke:#999999;"/>
    <path clip-path="url(#p5dafb6ecb1)" d="M 176.545673 130.846374 
L 175.492938 130.772004 
L 173.561368 131.090285 
L 171.793382 131.880629 
L 169.962517 133.29493 
L 168.486821 135.192008 
L 159.458746 149.308543 
L 151.041286 162.383891 
L 147.929749 167.904327 
" style="fill:none;stroke:#999999;"/>
    <path clip-path="url(#p5dafb6ecb1)" d="M 176.545673 130.846374 
L 176.936703 128.685217 
L 177.594969 125.918381 
L 178.469383 123.189361 
L 180.729104 117.863675 
L 182.821802 112.512778 
L 191.988408 91.506255 
L 193.388452 87.945294 
L 194.061456 85.518797 
L 194.498663 83.035578 
L 194.626386 79.272934 
L 194.326727 76.663662 
L 194.041806 75.352724 
L 193.236167 72.724545 
L 192.106306 70.222418 
L 190.018521 66.674062 
L 175.943899 45.758296 
" style="fill:none;stroke:#999999;"/>
    <path clip-path="url(#p5dafb6ecb1)" d="M 176.545673 130.846374 
L 176.248962 132.907951 
L 175.968953 135.712602 
L 176.032815 139.828191 
L 176.342298 142.525699 
L 176.833542 145.179088 
L 179.304497 157.287619 
" style="fill:none;stroke:#999999;"/>
    <path clip-path="url(#p5dafb6ecb1)" d="M 145.926948 175.476255 
L 146.130323 172.898497 
" style="fill:none;stroke:#999999;"/>
    <path clip-path="url(#p5dafb6ecb1)" d="M 145.926948 175.476255 
L 142.7319 175.540541 
" style="fill:none;stroke:#999999;"/>
    <path clip-path="url(#p5dafb6ecb1)" d="M 145.926948 175.476255 
L 145.849823 176.717865 
L 145.87635 178.984275 
L 146.061058 180.933665 
L 145.902878 182.514984 
L 145.401809 184.991901 
L 144.637925 187.995714 
" style="fill:none;stroke:#999999;"/>
    <path clip-path="url(#p5dafb6ecb1)" d="M 145.926948 175.476255 
L 148.228425 175.68424 
L 151.586566 176.259667 
L 154.889197 176.917657 
L 158.34264 177.767245 
L 163.824919 179.438692 
L 165.674943 179.836385 
" style="fill:none;stroke:#999999;"/>
    <path clip-path="url(#p5dafb6ecb1)" d="M 144.637925 187.995714 
L 142.6253 188.815051 
" style="fill:none;stroke:#999999;"/>
    <path clip-path="url(#p5dafb6ecb1)" d="M 144.637925 187.995714 
L 145.401809 184.991901 
L 145.902878 182.514984 
L 146.061058 180.933665 
L 145.87635 178.984275 
L 145.849823 176.717865 
L 145.926948 175.476255 
" style="fill:none;stroke:#999999;"/>
    <path clip-path="url(#p5dafb6ecb1)" d="M 144.637925 187.995714 
L 143.767933 191.157722 
L 143.478099 192.05395 
" style="fill:none;stroke:#999999;"/>
    <path clip-path="url(#p5dafb6ecb1)" d="M 146.39756 170.812971 
L 146.130323 172.898497 
" style="fill:none;stroke:#999999;"/>
    <path clip-path="url(#p5dafb6ecb1)" d="M 146.39756 170.812971 
L 146.745852 170.138594 
L 147.929749 167.904327 
" style="fill:none;stroke:#999999;"/>
    <path clip-path="url(#p5dafb6ecb1)" d="M 146.39756 170.812971 
L 145.549182 172.063404 
L 144.915478 172.810261 
L 144.941022 173.133583 
" style="fill:none;stroke:#999999;"/>
    <path clip-path="url(#p5dafb6ecb1)" d="M 143.478099 192.05395 
L 148.318814 196.443702 
" style="fill:none;stroke:#999999;"/>
    <path clip-path="url(#p5dafb6ecb1)" d="M 143.478099 192.05395 
L 143.767933 191.157722 
L 144.637925 187.995714 
" style="fill:none;stroke:#999999;"/>
    <path clip-path="url(#p5dafb6ecb1)" d="M 143.478099 192.05395 
L 142.88615 191.877478 
L 142.517718 191.56676 
" style="fill:none;stroke:#999999;"/>
    <path clip-path="url(#p5dafb6ecb1)" d="M 143.478099 192.05395 
L 140.948685 196.691394 
L 139.69454 199.460751 
" style="fill:none;stroke:#999999;"/>
    <path clip-path="url(#p5dafb6ecb1)" d="M 129.086625 219.009485 
L 132.381888 214.56175 
L 133.822705 211.80941 
L 135.836313 207.574701 
L 136.892978 205.290014 
" style="fill:none;stroke:#999999;"/>
    <path clip-path="url(#p5dafb6ecb1)" d="M 129.086625 219.009485 
L 119.450882 231.511928 
L 114.936844 238.026282 
L 109.773382 245.760187 
L 108.772227 247.236252 
L 108.210245 248.567989 
L 108.079083 249.709388 
" style="fill:none;stroke:#999999;"/>
    <path clip-path="url(#p5dafb6ecb1)" d="M 129.086625 219.009485 
L 128.849846 218.534901 
L 128.685279 217.904642 
L 128.671525 216.65736 
L 128.754054 208.598872 
L 129.219752 203.295245 
" style="fill:none;stroke:#999999;"/>
    <path clip-path="url(#p5dafb6ecb1)" d="M 109.016867 253.553336 
L 107.551978 254.313428 
L 105.615005 255.526045 
L 103.165664 257.341821 
L 101.372625 258.827971 
" style="fill:none;stroke:#999999;"/>
    <path clip-path="url(#p5dafb6ecb1)" d="M 109.016867 253.553336 
L 109.03013 253.050389 
L 108.872932 252.44345 
" style="fill:none;stroke:#999999;"/>
    <path clip-path="url(#p5dafb6ecb1)" d="M 109.016867 253.553336 
L 109.500742 253.53884 
L 110.916506 252.887152 
L 113.125629 252.0779 
L 115.000706 251.704787 
" style="fill:none;stroke:#999999;"/>
    <path clip-path="url(#p5dafb6ecb1)" d="M 183.007 173.085684 
L 185.702454 184.001134 
L 186.248226 187.049696 
L 186.762067 190.793433 
L 186.782699 191.827057 
L 186.851964 196.408408 
L 186.603395 201.955945 
L 185.63761 208.469669 
L 183.951171 214.811962 
L 182.215607 219.551508 
L 180.420603 223.299657 
L 179.180212 225.389594 
L 177.719254 227.792141 
L 175.0238 231.092175 
L 172.210939 234.266158 
L 169.006557 237.056944 
L 165.58308 239.584912 
L 162.008791 241.655942 
L 159.509835 242.857215 
L 156.934736 243.982227 
L 154.339496 244.904925 
L 150.404634 245.913339 
L 145.163065 246.751584 
L 134.153312 248.388996 
L 126.884871 249.469889 
" style="fill:none;stroke:#999999;"/>
    <path clip-path="url(#p5dafb6ecb1)" d="M 183.007 173.085684 
L 182.282416 168.745722 
L 182.137499 167.490247 
L 182.421438 166.471118 
" style="fill:none;stroke:#999999;"/>
    <path clip-path="url(#p5dafb6ecb1)" d="M 182.671481 165.919642 
L 182.689166 165.42804 
L 182.587478 165.06312 
L 182.180237 164.524249 
" style="fill:none;stroke:#999999;"/>
    <path clip-path="url(#p5dafb6ecb1)" d="M 182.671481 165.919642 
L 183.283571 165.290014 
L 184.034682 164.499039 
L 185.115418 163.89336 
" style="fill:none;stroke:#999999;"/>
    <path clip-path="url(#p5dafb6ecb1)" d="M 182.180237 164.524249 
L 181.855034 164.325718 
" style="fill:none;stroke:#999999;"/>
    <path clip-path="url(#p5dafb6ecb1)" d="M 179.970623 165.089591 
L 179.868936 165.711026 
L 179.984378 166.190023 
L 180.308599 166.652003 
L 180.5498 166.836668 
" style="fill:none;stroke:#999999;"/>
    <path clip-path="url(#p5dafb6ecb1)" d="M 179.970623 165.089591 
L 179.146317 166.317335 
L 177.11748 167.410834 
" style="fill:none;stroke:#999999;"/>
    <path clip-path="url(#p5dafb6ecb1)" d="M 180.5498 166.836668 
L 180.879915 166.982888 
" style="fill:none;stroke:#999999;"/>
    <path clip-path="url(#p5dafb6ecb1)" d="M 179.304497 157.287619 
L 180.384742 163.168563 
L 180.432884 163.902184 
L 180.231965 164.67299 
" style="fill:none;stroke:#999999;"/>
    <path clip-path="url(#p5dafb6ecb1)" d="M 179.304497 157.287619 
L 176.833542 145.179088 
L 176.342298 142.525699 
L 176.032815 139.828191 
L 175.968953 135.712602 
L 176.248962 132.907951 
L 176.545673 130.846374 
" style="fill:none;stroke:#999999;"/>
    <path clip-path="url(#p5dafb6ecb1)" d="M 181.855034 164.325718 
L 181.377545 164.20849 
L 180.888758 164.262062 
L 180.619556 164.371096 
L 180.231965 164.67299 
" style="fill:none;stroke:#999999;"/>
    <path clip-path="url(#p5dafb6ecb1)" d="M 181.855034 164.325718 
L 181.35986 163.761636 
L 180.872547 162.642927 
L 179.304497 157.287619 
" style="fill:none;stroke:#999999;"/>
    <path clip-path="url(#p5dafb6ecb1)" d="M 180.231965 164.67299 
L 179.970623 165.089591 
" style="fill:none;stroke:#999999;"/>
    <path clip-path="url(#p5dafb6ecb1)" d="M 182.421438 166.471118 
L 182.671481 165.919642 
" style="fill:none;stroke:#999999;"/>
    <path clip-path="url(#p5dafb6ecb1)" d="M 166.16766 172.206473 
L 177.11748 167.410834 
" style="fill:none;stroke:#999999;"/>
    <path clip-path="url(#p5dafb6ecb1)" d="M 166.16766 172.206473 
L 161.187432 173.339678 
L 158.775917 173.620143 
L 154.717753 173.146189 
L 149.750298 172.776857 
L 146.130323 172.898497 
" style="fill:none;stroke:#999999;"/>
    <path clip-path="url(#p5dafb6ecb1)" d="M 166.16766 172.206473 
L 166.387737 174.930451 
L 166.346473 176.588662 
L 166.072359 178.31494 
L 165.674943 179.836385 
" style="fill:none;stroke:#999999;"/>
    <path clip-path="url(#p5dafb6ecb1)" d="M 146.130323 172.898497 
L 146.39756 170.812971 
" style="fill:none;stroke:#999999;"/>
    <path clip-path="url(#p5dafb6ecb1)" d="M 146.130323 172.898497 
L 145.926948 175.476255 
" style="fill:none;stroke:#999999;"/>
    <path clip-path="url(#p5dafb6ecb1)" d="M 146.130323 172.898497 
L 144.941022 173.133583 
" style="fill:none;stroke:#999999;"/>
    <path clip-path="url(#p5dafb6ecb1)" d="M 146.130323 172.898497 
L 149.750298 172.776857 
L 154.717753 173.146189 
L 158.775917 173.620143 
L 161.187432 173.339678 
L 166.16766 172.206473 
" style="fill:none;stroke:#999999;"/>
    <path clip-path="url(#p5dafb6ecb1)" d="M 177.11748 167.410834 
L 166.16766 172.206473 
" style="fill:none;stroke:#999999;"/>
    <path clip-path="url(#p5dafb6ecb1)" d="M 177.11748 167.410834 
L 178.619212 166.923644 
L 179.752511 166.686037 
L 180.5498 166.836668 
" style="fill:none;stroke:#999999;"/>
    <path clip-path="url(#p5dafb6ecb1)" d="M 185.115418 163.89336 
L 183.639722 164.433492 
L 182.73043 164.499039 
L 182.180237 164.524249 
" style="fill:none;stroke:#999999;"/>
    <path clip-path="url(#p5dafb6ecb1)" d="M 142.472032 175.12205 
L 142.24606 175.079822 
L 142.027948 175.154823 
L 141.87468 175.326253 
L 141.826047 175.551256 
" style="fill:none;stroke:#999999;"/>
    <path clip-path="url(#p5dafb6ecb1)" d="M 142.472032 175.12205 
L 142.614001 174.747676 
L 144.325494 173.479595 
L 144.941022 173.133583 
" style="fill:none;stroke:#999999;"/>
    <path clip-path="url(#p5dafb6ecb1)" d="M 180.879915 166.982888 
L 181.186451 167.038351 
L 181.677204 166.98604 
L 182.061848 166.809567 
L 182.421438 166.471118 
" style="fill:none;stroke:#999999;"/>
    <path clip-path="url(#p5dafb6ecb1)" d="M 180.879915 166.982888 
L 181.123081 167.441087 
L 181.847665 169.044465 
L 183.007 173.085684 
" style="fill:none;stroke:#999999;"/>
    <path clip-path="url(#p5dafb6ecb1)" d="M 266.971345 408.213153 
L 255.744954 409.029969 
L 255.297431 408.924716 
L 255.046897 408.344878 
L 252.05817 388.810639 
L 251.720686 386.245486 
L 249.360752 371.036713 
L 249.229098 370.661078 
L 249.057654 370.410235 
L 248.800734 370.25204 
L 248.537427 370.238805 
L 248.089413 370.291747 
L 245.486804 370.838811 
L 243.892719 371.102259 
L 243.108694 371.174739 
L 242.219052 371.233984 
L 240.743356 371.306463 
L 238.799996 371.326632 
L 238.101448 371.378943 
L 237.44269 371.464658 
L 235.275323 371.959411 
L 233.246487 372.360886 
L 232.310668 372.558787 
L 231.645524 372.604796 
L 231.105156 372.624965 
L 230.202741 372.585258 
L 229.372539 372.473072 
L 227.402653 372.024958 
L 226.757158 371.807519 
L 226.309144 371.616551 
L 225.97952 371.365708 
L 225.656773 371.016544 
L 221.987183 365.441276 
L 220.096386 362.607632 
L 218.350506 359.931554 
L 217.599395 358.785113 
L 216.940637 357.961365 
L 216.314792 357.236568 
L 215.708598 356.689503 
L 213.771624 354.949359 
L 212.493899 353.763212 
L 211.426427 352.695554 
L 210.92585 352.122648 
L 210.497485 351.503104 
L 210.102525 350.784609 
L 209.786165 349.960861 
L 209.397591 348.675763 
L 208.507949 345.571739 
L 208.224501 344.833706 
L 207.961194 344.299877 
L 207.53283 343.463524 
L 203.129322 336.085085 
L 202.739766 335.34201 
L 202.379684 334.474144 
L 201.475305 332.106262 
L 200.75465 330.039643 
L 200.556188 329.370939 
L 198.568125 320.650049 
L 194.609193 305.658715 
L 194.141037 303.886427 
L 193.113356 298.836164 
L 193.587406 290.98188 
L 191.110555 283.443986 
L 189.529242 273.534428 
L 187.420824 263.888318 
L 187.579005 252.766143 
L 186.682976 242.751962 
L 183.995383 231.946806 
L 180.525238 225.495478 
L 180.209368 224.908707 
L 179.583032 223.786216 
L 177.934419 220.878833 
L 174.636209 217.433839 
L 171.117431 214.624145 
L 162.969173 208.434374 
" style="fill:none;stroke:#999999;"/>
    <path clip-path="url(#p5dafb6ecb1)" d="M 95.376505 266.629944 
L 94.703501 267.642769 
L 74.821889 296.983204 
L 60.335114 318.456118 
L 42.841928 344.164371 
L 41.800492 345.897583 
L 41.288125 346.96335 
L 40.513433 348.576183 
L 39.142864 352.427063 
L 38.641795 354.677087 
L 38.347049 357.002742 
L 38.234063 359.271673 
L 38.37505 363.242933 
L 38.619198 364.632023 
L 38.748395 365.25787 
L 38.909032 365.958088 
L 39.402732 367.994454 
L 40.312023 371.672013 
L 40.641648 373.082532 
L 41.546028 376.842656 
L 44.656091 389.777456 
L 45.529522 393.238837 
L 48.272135 404.103867 
L 48.669551 406.048215 
L 48.930893 408.242776 
L 49.063038 410.351621 
L 49.089073 411.788611 
L 49.07581 413.410267 
L 48.917629 415.070999 
L 48.641059 416.533829 
L 48.377753 417.627958 
L 48.061392 418.854442 
L 47.429161 420.646898 
L 46.559169 422.663725 
L 46.019292 423.692308 
" style="fill:none;stroke:#999999;"/>
    <path clip-path="url(#p5dafb6ecb1)" d="M 95.376505 266.629944 
L 96.931291 264.490215 
L 98.488042 262.339772 
L 99.854682 260.825261 
L 101.697337 259.056125 
L 103.457954 257.626698 
" style="fill:none;stroke:#999999;"/>
    <path clip-path="url(#p5dafb6ecb1)" d="M 103.457954 257.626698 
L 105.828204 255.87836 
L 107.724405 254.702297 
L 109.196662 253.918255 
L 111.018193 253.102701 
L 113.211105 252.255633 
L 115.000706 251.704787 
" style="fill:none;stroke:#999999;"/>
    <path clip-path="url(#p5dafb6ecb1)" d="M 103.457954 257.626698 
L 105.689674 255.686761 
L 107.5844 254.503136 
L 108.730472 253.889264 
L 109.016867 253.553336 
" style="fill:none;stroke:#999999;"/>
    <path clip-path="url(#p5dafb6ecb1)" d="M 108.872932 252.44345 
L 108.456358 251.610878 
L 108.236772 250.553934 
L 108.079083 249.709388 
" style="fill:none;stroke:#999999;"/>
    <path clip-path="url(#p5dafb6ecb1)" d="M 108.361548 252.44345 
L 108.181753 252.900388 
L 107.927288 253.446822 
L 107.342709 253.971197 
L 105.485316 255.349573 
L 103.01387 257.184886 
L 101.372625 258.827971 
" style="fill:none;stroke:#999999;"/>
    <path clip-path="url(#p5dafb6ecb1)" d="M 108.361548 252.44345 
L 108.678891 253.294299 
L 109.016867 253.553336 
" style="fill:none;stroke:#999999;"/>
    <path clip-path="url(#p5dafb6ecb1)" d="M 115.000706 251.704787 
L 116.769674 251.302051 
L 122.43666 250.242587 
L 124.709153 249.857499 
L 126.884871 249.469889 
" style="fill:none;stroke:#999999;"/>
    <path clip-path="url(#p5dafb6ecb1)" d="M 108.079083 249.709388 
L 108.210245 248.567989 
L 108.772227 247.236252 
L 109.773382 245.760187 
L 114.936844 238.026282 
L 119.450882 231.511928 
L 129.086625 219.009485 
" style="fill:none;stroke:#999999;"/>
    <path clip-path="url(#p5dafb6ecb1)" d="M 108.079083 249.709388 
L 108.047152 250.578514 
L 108.211719 251.626635 
L 108.361548 252.44345 
" style="fill:none;stroke:#999999;"/>
    <path clip-path="url(#p5dafb6ecb1)" d="M 126.884871 249.469889 
L 134.153312 248.388996 
L 145.163065 246.751584 
L 150.404634 245.913339 
L 154.339496 244.904925 
L 156.934736 243.982227 
L 159.509835 242.857215 
L 162.008791 241.655942 
L 165.58308 239.584912 
L 169.006557 237.056944 
L 172.210939 234.266158 
L 175.0238 231.092175 
L 177.719254 227.792141 
L 179.180212 225.389594 
L 180.420603 223.299657 
L 182.215607 219.551508 
L 183.951171 214.811962 
L 185.63761 208.469669 
L 186.603395 201.955945 
L 186.851964 196.408408 
L 186.782699 191.827057 
L 186.762067 190.793433 
L 186.248226 187.049696 
L 185.702454 184.001134 
L 183.007 173.085684 
" style="fill:none;stroke:#999999;"/>
    <path clip-path="url(#p5dafb6ecb1)" d="M 126.884871 249.469889 
L 124.747962 249.723884 
L 122.541295 249.980399 
L 116.680759 250.930199 
L 114.88379 251.325371 
" style="fill:none;stroke:#999999;"/>
    <path clip-path="url(#p5dafb6ecb1)" d="M 162.490701 227.599282 
L 160.863211 217.887625 
L 159.62233 210.136703 
L 159.461693 209.092364 
" style="fill:none;stroke:#999999;"/>
    <path clip-path="url(#p5dafb6ecb1)" d="M 159.461693 209.092364 
L 162.805097 208.61904 
L 162.969173 208.434374 
" style="fill:none;stroke:#999999;"/>
    <path clip-path="url(#p5dafb6ecb1)" d="M 159.461693 209.092364 
L 158.997959 205.654933 
L 159.209194 205.424889 
" style="fill:none;stroke:#999999;"/>
    <path clip-path="url(#p5dafb6ecb1)" d="M 159.461693 209.092364 
L 159.62233 210.136703 
L 160.863211 217.887625 
L 162.490701 227.599282 
" style="fill:none;stroke:#999999;"/>
    <path clip-path="url(#p5dafb6ecb1)" d="M 143.725686 208.550342 
L 144.103452 206.108089 
" style="fill:none;stroke:#999999;"/>
    <path clip-path="url(#p5dafb6ecb1)" d="M 162.969173 208.434374 
L 159.209194 205.424889 
" style="fill:none;stroke:#999999;"/>
    <path clip-path="url(#p5dafb6ecb1)" d="M 162.969173 208.434374 
L 171.117431 214.624145 
L 174.636209 217.433839 
L 177.934419 220.878833 
L 179.583032 223.786216 
L 180.209368 224.908707 
L 180.525238 225.495478 
L 183.995383 231.946806 
L 186.682976 242.751962 
L 187.579005 252.766143 
L 187.420824 263.888318 
L 189.529242 273.534428 
L 191.110555 283.443986 
L 193.587406 290.98188 
L 193.113356 298.836164 
L 194.141037 303.886427 
L 194.609193 305.658715 
L 198.568125 320.650049 
L 200.556188 329.370939 
L 200.75465 330.039643 
L 201.475305 332.106262 
L 202.379684 334.474144 
L 202.739766 335.34201 
L 203.129322 336.085085 
L 207.53283 343.463524 
L 207.961194 344.299877 
L 208.224501 344.833706 
L 208.507949 345.571739 
L 209.397591 348.675763 
L 209.786165 349.960861 
L 210.102525 350.784609 
L 210.497485 351.503104 
L 210.92585 352.122648 
L 211.426427 352.695554 
L 212.493899 353.763212 
L 213.771624 354.949359 
L 215.708598 356.689503 
L 216.314792 357.236568 
L 216.940637 357.961365 
L 217.599395 358.785113 
L 218.350506 359.931554 
L 220.096386 362.607632 
L 221.987183 365.441276 
L 225.656773 371.016544 
L 225.97952 371.365708 
L 226.309144 371.616551 
L 226.757158 371.807519 
L 227.402653 372.024958 
L 229.372539 372.473072 
L 230.202741 372.585258 
L 231.105156 372.624965 
L 231.645524 372.604796 
L 232.310668 372.558787 
L 233.246487 372.360886 
L 235.275323 371.959411 
L 237.44269 371.464658 
L 238.101448 371.378943 
L 238.799996 371.326632 
L 240.743356 371.306463 
L 242.219052 371.233984 
L 243.108694 371.174739 
L 243.892719 371.102259 
L 245.486804 370.838811 
L 248.089413 370.291747 
L 248.537427 370.238805 
L 248.800734 370.25204 
L 249.057654 370.410235 
L 249.229098 370.661078 
L 249.360752 371.036713 
L 251.720686 386.245486 
L 252.05817 388.810639 
L 255.046897 408.344878 
L 255.297431 408.924716 
L 255.744954 409.029969 
L 266.971345 408.213153 
" style="fill:none;stroke:#999999;"/>
    <path clip-path="url(#p5dafb6ecb1)" d="M 162.969173 208.434374 
L 162.805097 208.61904 
L 159.461693 209.092364 
" style="fill:none;stroke:#999999;"/>
    <path clip-path="url(#p5dafb6ecb1)" d="M 150.228278 206.844862 
L 144.103452 206.108089 
" style="fill:none;stroke:#999999;"/>
    <path clip-path="url(#p5dafb6ecb1)" d="M 144.103452 206.108089 
L 143.725686 208.550342 
" style="fill:none;stroke:#999999;"/>
    <path clip-path="url(#p5dafb6ecb1)" d="M 144.103452 206.108089 
L 150.228278 206.844862 
" style="fill:none;stroke:#999999;"/>
    <path clip-path="url(#p5dafb6ecb1)" d="M 144.103452 206.108089 
L 142.591895 205.924054 
" style="fill:none;stroke:#999999;"/>
    <path clip-path="url(#p5dafb6ecb1)" d="M 142.591895 205.924054 
L 144.103452 206.108089 
" style="fill:none;stroke:#999999;"/>
    <path clip-path="url(#p5dafb6ecb1)" d="M 142.591895 205.924054 
L 136.892978 205.290014 
" style="fill:none;stroke:#999999;"/>
    <path clip-path="url(#p5dafb6ecb1)" d="M 142.591895 205.924054 
L 142.686214 199.423565 
L 142.68867 199.247093 
" style="fill:none;stroke:#999999;"/>
    <path clip-path="url(#p5dafb6ecb1)" d="M 159.209194 205.424889 
L 162.969173 208.434374 
" style="fill:none;stroke:#999999;"/>
    <path clip-path="url(#p5dafb6ecb1)" d="M 159.209194 205.424889 
L 158.997959 205.654933 
L 159.461693 209.092364 
" style="fill:none;stroke:#999999;"/>
    <path clip-path="url(#p5dafb6ecb1)" d="M 159.209194 205.424889 
L 152.925696 200.102354 
L 148.318814 196.443702 
" style="fill:none;stroke:#999999;"/>
    <path clip-path="url(#p5dafb6ecb1)" d="M 136.892978 205.290014 
L 142.591895 205.924054 
" style="fill:none;stroke:#999999;"/>
    <path clip-path="url(#p5dafb6ecb1)" d="M 136.892978 205.290014 
L 138.761178 201.250685 
L 139.69454 199.460751 
" style="fill:none;stroke:#999999;"/>
    <path clip-path="url(#p5dafb6ecb1)" d="M 136.892978 205.290014 
L 135.836313 207.574701 
L 133.822705 211.80941 
L 132.381888 214.56175 
L 129.086625 219.009485 
" style="fill:none;stroke:#999999;"/>
    <path clip-path="url(#p5dafb6ecb1)" d="M 129.219752 203.295245 
L 129.714435 199.794788 
L 130.373684 196.26786 
L 131.168025 191.626004 
L 131.681866 188.922195 
" style="fill:none;stroke:#999999;"/>
    <path clip-path="url(#p5dafb6ecb1)" d="M 129.219752 203.295245 
L 128.754054 208.598872 
L 128.671525 216.65736 
L 128.685279 217.904642 
L 128.849846 218.534901 
L 129.086625 219.009485 
" style="fill:none;stroke:#999999;"/>
    <path clip-path="url(#p5dafb6ecb1)" d="M 129.219752 203.295245 
L 127.575069 203.363943 
L 127.355974 203.171714 
L 124.793156 196.388239 
L 124.313702 195.346422 
L 123.614663 194.044937 
L 121.600072 190.852047 
L 120.5719 189.865062 
L 119.379651 188.96064 
" style="fill:none;stroke:#999999;"/>
    <path clip-path="url(#p5dafb6ecb1)" d="M 139.69454 199.460751 
L 141.302872 199.489743 
L 142.68867 199.247093 
" style="fill:none;stroke:#999999;"/>
    <path clip-path="url(#p5dafb6ecb1)" d="M 139.69454 199.460751 
L 140.948685 196.691394 
L 143.478099 192.05395 
" style="fill:none;stroke:#999999;"/>
    <path clip-path="url(#p5dafb6ecb1)" d="M 139.69454 199.460751 
L 138.761178 201.250685 
L 136.892978 205.290014 
" style="fill:none;stroke:#999999;"/>
    <path clip-path="url(#p5dafb6ecb1)" d="M 142.68867 199.247093 
L 144.607468 198.637002 
" style="fill:none;stroke:#999999;"/>
    <path clip-path="url(#p5dafb6ecb1)" d="M 142.68867 199.247093 
L 142.686214 199.423565 
L 142.591895 205.924054 
" style="fill:none;stroke:#999999;"/>
    <path clip-path="url(#p5dafb6ecb1)" d="M 142.68867 199.247093 
L 141.302872 199.489743 
L 139.69454 199.460751 
" style="fill:none;stroke:#999999;"/>
    <path clip-path="url(#p5dafb6ecb1)" d="M 144.607468 198.637002 
L 142.68867 199.247093 
" style="fill:none;stroke:#999999;"/>
    <path clip-path="url(#p5dafb6ecb1)" d="M 148.318814 196.443702 
L 143.478099 192.05395 
" style="fill:none;stroke:#999999;"/>
    <path clip-path="url(#p5dafb6ecb1)" d="M 148.318814 196.443702 
L 148.725563 196.152523 
L 153.241566 196.133615 
L 157.369978 196.346642 
" style="fill:none;stroke:#999999;"/>
    <path clip-path="url(#p5dafb6ecb1)" d="M 148.318814 196.443702 
L 152.925696 200.102354 
L 159.209194 205.424889 
" style="fill:none;stroke:#999999;"/>
    <path clip-path="url(#p5dafb6ecb1)" d="M 157.369978 196.346642 
L 153.241566 196.133615 
L 148.725563 196.152523 
L 148.318814 196.443702 
" style="fill:none;stroke:#999999;"/>
    <path clip-path="url(#p5dafb6ecb1)" d="M 116.139408 191.917184 
L 114.795857 187.221757 
" style="fill:none;stroke:#999999;"/>
    <path clip-path="url(#p5dafb6ecb1)" d="M 142.517718 191.56676 
L 139.639521 191.886932 
L 139.642469 191.222009 
" style="fill:none;stroke:#999999;"/>
    <path clip-path="url(#p5dafb6ecb1)" d="M 142.517718 191.56676 
L 142.88615 191.877478 
L 143.478099 192.05395 
" style="fill:none;stroke:#999999;"/>
    <path clip-path="url(#p5dafb6ecb1)" d="M 142.517718 191.56676 
L 142.780042 189.551193 
L 142.6253 188.815051 
" style="fill:none;stroke:#999999;"/>
    <path clip-path="url(#p5dafb6ecb1)" d="M 139.642469 191.222009 
L 139.649346 190.569061 
L 139.634609 189.607916 
L 139.726963 189.067154 
L 140.038902 188.54593 
" style="fill:none;stroke:#999999;"/>
    <path clip-path="url(#p5dafb6ecb1)" d="M 139.642469 191.222009 
L 139.639521 191.886932 
L 142.517718 191.56676 
" style="fill:none;stroke:#999999;"/>
    <path clip-path="url(#p5dafb6ecb1)" d="M 139.642469 191.222009 
L 138.36327 191.144487 
L 136.289731 190.485236 
L 133.537293 189.467999 
L 131.681866 188.922195 
" style="fill:none;stroke:#999999;"/>
    <path clip-path="url(#p5dafb6ecb1)" d="M 118.464956 191.206882 
L 118.903636 189.891532 
L 119.379651 188.96064 
" style="fill:none;stroke:#999999;"/>
    <path clip-path="url(#p5dafb6ecb1)" d="M 119.379651 188.96064 
L 119.241121 186.537296 
" style="fill:none;stroke:#999999;"/>
    <path clip-path="url(#p5dafb6ecb1)" d="M 119.379651 188.96064 
L 118.903636 189.891532 
L 118.464956 191.206882 
" style="fill:none;stroke:#999999;"/>
    <path clip-path="url(#p5dafb6ecb1)" d="M 119.379651 188.96064 
L 120.5719 189.865062 
L 121.600072 190.852047 
L 123.614663 194.044937 
L 124.313702 195.346422 
L 124.793156 196.388239 
L 127.355974 203.171714 
L 127.575069 203.363943 
L 129.219752 203.295245 
" style="fill:none;stroke:#999999;"/>
    <path clip-path="url(#p5dafb6ecb1)" d="M 131.681866 188.922195 
L 129.225156 188.08206 
L 127.170775 187.219866 
" style="fill:none;stroke:#999999;"/>
    <path clip-path="url(#p5dafb6ecb1)" d="M 131.681866 188.922195 
L 131.701024 188.389626 
L 131.090408 186.684146 
L 129.29786 183.079066 
" style="fill:none;stroke:#999999;"/>
    <path clip-path="url(#p5dafb6ecb1)" d="M 131.681866 188.922195 
L 131.168025 191.626004 
L 130.373684 196.26786 
L 129.714435 199.794788 
L 129.219752 203.295245 
" style="fill:none;stroke:#999999;"/>
    <path clip-path="url(#p5dafb6ecb1)" d="M 131.681866 188.922195 
L 133.537293 189.467999 
L 136.289731 190.485236 
L 138.36327 191.144487 
L 139.642469 191.222009 
" style="fill:none;stroke:#999999;"/>
    <path clip-path="url(#p5dafb6ecb1)" d="M 108.943672 188.91022 
L 114.795857 187.221757 
" style="fill:none;stroke:#999999;"/>
    <path clip-path="url(#p5dafb6ecb1)" d="M 142.6253 188.815051 
L 144.637925 187.995714 
" style="fill:none;stroke:#999999;"/>
    <path clip-path="url(#p5dafb6ecb1)" d="M 142.6253 188.815051 
L 142.582562 187.993193 
" style="fill:none;stroke:#999999;"/>
    <path clip-path="url(#p5dafb6ecb1)" d="M 142.6253 188.815051 
L 142.780042 189.551193 
L 142.517718 191.56676 
" style="fill:none;stroke:#999999;"/>
    <path clip-path="url(#p5dafb6ecb1)" d="M 126.773359 188.770302 
L 127.170775 187.219866 
" style="fill:none;stroke:#999999;"/>
    <path clip-path="url(#p5dafb6ecb1)" d="M 140.038902 188.54593 
L 140.32235 188.574292 
L 140.577797 188.44824 
L 140.727135 188.20559 
" style="fill:none;stroke:#999999;"/>
    <path clip-path="url(#p5dafb6ecb1)" d="M 140.038902 188.54593 
L 139.726963 189.067154 
L 139.634609 189.607916 
L 139.649346 190.569061 
L 139.642469 191.222009 
" style="fill:none;stroke:#999999;"/>
    <path clip-path="url(#p5dafb6ecb1)" d="M 140.727135 188.20559 
L 140.739907 187.98563 
L 140.659343 187.780796 
L 140.501163 187.627643 
L 140.292875 187.554533 
" style="fill:none;stroke:#999999;"/>
    <path clip-path="url(#p5dafb6ecb1)" d="M 140.727135 188.20559 
L 141.020407 188.230801 
L 142.582562 187.993193 
" style="fill:none;stroke:#999999;"/>
    <path clip-path="url(#p5dafb6ecb1)" d="M 142.582562 187.993193 
L 142.6253 188.815051 
" style="fill:none;stroke:#999999;"/>
    <path clip-path="url(#p5dafb6ecb1)" d="M 142.582562 187.993193 
L 142.683267 185.423628 
L 142.760883 184.057227 
L 142.634634 181.459931 
L 142.353642 178.814735 
L 141.966051 176.750638 
L 141.824573 176.180884 
" style="fill:none;stroke:#999999;"/>
    <path clip-path="url(#p5dafb6ecb1)" d="M 142.582562 187.993193 
L 141.020407 188.230801 
L 140.727135 188.20559 
" style="fill:none;stroke:#999999;"/>
    <path clip-path="url(#p5dafb6ecb1)" d="M 139.800158 187.782057 
L 139.719594 187.994454 
L 139.73777 188.220717 
L 139.851738 188.417357 
L 140.038902 188.54593 
" style="fill:none;stroke:#999999;"/>
    <path clip-path="url(#p5dafb6ecb1)" d="M 139.800158 187.782057 
L 139.426813 187.582895 
L 138.835847 186.875744 
L 137.575807 184.821101 
L 136.228817 182.999653 
L 135.172643 181.449217 
" style="fill:none;stroke:#999999;"/>
    <path clip-path="url(#p5dafb6ecb1)" d="M 140.292875 187.554533 
L 140.104238 187.566508 
L 139.932302 187.645921 
L 139.800158 187.782057 
" style="fill:none;stroke:#999999;"/>
    <path clip-path="url(#p5dafb6ecb1)" d="M 140.292875 187.554533 
L 140.308595 186.904736 
L 139.80507 185.567327 
L 139.446462 183.077175 
L 139.223438 181.284719 
L 138.516047 179.049192 
L 138.302847 178.968519 
" style="fill:none;stroke:#999999;"/>
    <path clip-path="url(#p5dafb6ecb1)" d="M 114.795857 187.221757 
L 108.943672 188.91022 
" style="fill:none;stroke:#999999;"/>
    <path clip-path="url(#p5dafb6ecb1)" d="M 114.795857 187.221757 
L 119.270104 185.918381 
" style="fill:none;stroke:#999999;"/>
    <path clip-path="url(#p5dafb6ecb1)" d="M 114.795857 187.221757 
L 113.357496 181.913718 
" style="fill:none;stroke:#999999;"/>
    <path clip-path="url(#p5dafb6ecb1)" d="M 114.795857 187.221757 
L 116.139408 191.917184 
" style="fill:none;stroke:#999999;"/>
    <path clip-path="url(#p5dafb6ecb1)" d="M 127.170775 187.219866 
L 126.773359 188.770302 
" style="fill:none;stroke:#999999;"/>
    <path clip-path="url(#p5dafb6ecb1)" d="M 127.170775 187.219866 
L 125.406719 186.405571 
L 124.040571 185.950525 
L 122.121773 185.601361 
" style="fill:none;stroke:#999999;"/>
    <path clip-path="url(#p5dafb6ecb1)" d="M 127.170775 187.219866 
L 129.225156 188.08206 
L 131.681866 188.922195 
" style="fill:none;stroke:#999999;"/>
    <path clip-path="url(#p5dafb6ecb1)" d="M 170.826614 187.066713 
L 169.840197 185.6959 
L 169.141158 183.818359 
L 168.510401 182.023383 
L 167.9214 180.927363 
L 167.770588 180.283238 
" style="fill:none;stroke:#999999;"/>
    <path clip-path="url(#p5dafb6ecb1)" d="M 119.241121 186.537296 
L 119.270104 185.918381 
" style="fill:none;stroke:#999999;"/>
    <path clip-path="url(#p5dafb6ecb1)" d="M 119.241121 186.537296 
L 119.379651 188.96064 
" style="fill:none;stroke:#999999;"/>
    <path clip-path="url(#p5dafb6ecb1)" d="M 119.241121 186.537296 
L 121.627582 185.882457 
L 122.121773 185.601361 
" style="fill:none;stroke:#999999;"/>
    <path clip-path="url(#p5dafb6ecb1)" d="M 119.270104 185.918381 
L 114.795857 187.221757 
" style="fill:none;stroke:#999999;"/>
    <path clip-path="url(#p5dafb6ecb1)" d="M 119.270104 185.918381 
L 119.302526 185.245895 
" style="fill:none;stroke:#999999;"/>
    <path clip-path="url(#p5dafb6ecb1)" d="M 119.270104 185.918381 
L 119.241121 186.537296 
" style="fill:none;stroke:#999999;"/>
    <path clip-path="url(#p5dafb6ecb1)" d="M 122.121773 185.601361 
L 119.302526 185.245895 
" style="fill:none;stroke:#999999;"/>
    <path clip-path="url(#p5dafb6ecb1)" d="M 122.121773 185.601361 
L 124.040571 185.950525 
L 125.406719 186.405571 
L 127.170775 187.219866 
" style="fill:none;stroke:#999999;"/>
    <path clip-path="url(#p5dafb6ecb1)" d="M 122.121773 185.601361 
L 121.627582 185.882457 
L 119.241121 186.537296 
" style="fill:none;stroke:#999999;"/>
    <path clip-path="url(#p5dafb6ecb1)" d="M 119.302526 185.245895 
L 122.121773 185.601361 
" style="fill:none;stroke:#999999;"/>
    <path clip-path="url(#p5dafb6ecb1)" d="M 119.302526 185.245895 
L 119.338878 181.190181 
" style="fill:none;stroke:#999999;"/>
    <path clip-path="url(#p5dafb6ecb1)" d="M 119.302526 185.245895 
L 119.270104 185.918381 
" style="fill:none;stroke:#999999;"/>
    <path clip-path="url(#p5dafb6ecb1)" d="M 178.542578 183.435162 
L 169.017855 180.543535 
L 167.770588 180.283238 
" style="fill:none;stroke:#999999;"/>
    <path clip-path="url(#p5dafb6ecb1)" d="M 129.29786 183.079066 
L 128.840512 181.246274 
L 128.15228 179.134277 
L 127.386922 177.428797 
L 126.940873 175.868276 
L 126.747323 174.793055 
L 126.097899 173.281064 
L 125.597322 172.636939 
" style="fill:none;stroke:#999999;"/>
    <path clip-path="url(#p5dafb6ecb1)" d="M 129.29786 183.079066 
L 131.090408 186.684146 
L 131.701024 188.389626 
L 131.681866 188.922195 
" style="fill:none;stroke:#999999;"/>
    <path clip-path="url(#p5dafb6ecb1)" d="M 129.29786 183.079066 
L 132.327851 182.428009 
L 133.942078 181.872751 
" style="fill:none;stroke:#999999;"/>
    <path clip-path="url(#p5dafb6ecb1)" d="M 129.29786 183.079066 
L 128.142455 183.048814 
L 126.534124 182.74818 
L 125.111973 182.299436 
L 123.316478 181.683043 
L 121.86387 181.40888 
L 119.338878 181.190181 
" style="fill:none;stroke:#999999;"/>
    <path clip-path="url(#p5dafb6ecb1)" d="M 111.493717 182.379479 
L 113.357496 181.913718 
" style="fill:none;stroke:#999999;"/>
    <path clip-path="url(#p5dafb6ecb1)" d="M 113.357496 181.913718 
L 114.795857 187.221757 
" style="fill:none;stroke:#999999;"/>
    <path clip-path="url(#p5dafb6ecb1)" d="M 113.357496 181.913718 
L 111.493717 182.379479 
" style="fill:none;stroke:#999999;"/>
    <path clip-path="url(#p5dafb6ecb1)" d="M 113.357496 181.913718 
L 116.68911 181.270223 
L 119.338878 181.190181 
" style="fill:none;stroke:#999999;"/>
    <path clip-path="url(#p5dafb6ecb1)" d="M 135.172643 181.449217 
L 133.942078 181.872751 
" style="fill:none;stroke:#999999;"/>
    <path clip-path="url(#p5dafb6ecb1)" d="M 135.172643 181.449217 
L 137.101265 179.99584 
L 138.302847 178.968519 
" style="fill:none;stroke:#999999;"/>
    <path clip-path="url(#p5dafb6ecb1)" d="M 135.172643 181.449217 
L 133.789792 178.619986 
L 132.885412 175.207765 
L 132.405959 172.76047 
" style="fill:none;stroke:#999999;"/>
    <path clip-path="url(#p5dafb6ecb1)" d="M 135.172643 181.449217 
L 136.228817 182.999653 
L 137.575807 184.821101 
L 138.835847 186.875744 
L 139.426813 187.582895 
L 139.800158 187.782057 
" style="fill:none;stroke:#999999;"/>
    <path clip-path="url(#p5dafb6ecb1)" d="M 119.338878 181.190181 
L 119.302526 185.245895 
" style="fill:none;stroke:#999999;"/>
    <path clip-path="url(#p5dafb6ecb1)" d="M 119.338878 181.190181 
L 119.635589 180.338701 
L 124.460093 174.116787 
L 125.597322 172.636939 
" style="fill:none;stroke:#999999;"/>
    <path clip-path="url(#p5dafb6ecb1)" d="M 119.338878 181.190181 
L 121.86387 181.40888 
L 123.316478 181.683043 
L 125.111973 182.299436 
L 126.534124 182.74818 
L 128.142455 183.048814 
L 129.29786 183.079066 
" style="fill:none;stroke:#999999;"/>
    <path clip-path="url(#p5dafb6ecb1)" d="M 119.338878 181.190181 
L 116.68911 181.270223 
L 113.357496 181.913718 
" style="fill:none;stroke:#999999;"/>
    <path clip-path="url(#p5dafb6ecb1)" d="M 167.770588 180.283238 
L 165.674943 179.836385 
" style="fill:none;stroke:#999999;"/>
    <path clip-path="url(#p5dafb6ecb1)" d="M 167.770588 180.283238 
L 169.017855 180.543535 
L 178.542578 183.435162 
" style="fill:none;stroke:#999999;"/>
    <path clip-path="url(#p5dafb6ecb1)" d="M 167.770588 180.283238 
L 167.9214 180.927363 
L 168.510401 182.023383 
L 169.141158 183.818359 
L 169.840197 185.6959 
L 170.826614 187.066713 
" style="fill:none;stroke:#999999;"/>
    <path clip-path="url(#p5dafb6ecb1)" d="M 165.674943 179.836385 
L 167.770588 180.283238 
" style="fill:none;stroke:#999999;"/>
    <path clip-path="url(#p5dafb6ecb1)" d="M 165.674943 179.836385 
L 163.824919 179.438692 
L 158.34264 177.767245 
L 154.889197 176.917657 
L 151.586566 176.259667 
L 148.228425 175.68424 
L 145.926948 175.476255 
" style="fill:none;stroke:#999999;"/>
    <path clip-path="url(#p5dafb6ecb1)" d="M 165.674943 179.836385 
L 166.072359 178.31494 
L 166.346473 176.588662 
L 166.387737 174.930451 
L 166.16766 172.206473 
" style="fill:none;stroke:#999999;"/>
    <path clip-path="url(#p5dafb6ecb1)" d="M 138.302847 178.968519 
L 138.138281 178.590363 
" style="fill:none;stroke:#999999;"/>
    <path clip-path="url(#p5dafb6ecb1)" d="M 138.302847 178.968519 
L 137.101265 179.99584 
L 135.172643 181.449217 
" style="fill:none;stroke:#999999;"/>
    <path clip-path="url(#p5dafb6ecb1)" d="M 138.302847 178.968519 
L 138.516047 179.049192 
L 139.223438 181.284719 
L 139.446462 183.077175 
L 139.80507 185.567327 
L 140.308595 186.904736 
L 140.292875 187.554533 
" style="fill:none;stroke:#999999;"/>
    <path clip-path="url(#p5dafb6ecb1)" d="M 138.138281 178.590363 
L 139.147786 177.82586 
" style="fill:none;stroke:#999999;"/>
    <path clip-path="url(#p5dafb6ecb1)" d="M 138.138281 178.590363 
L 138.302847 178.968519 
" style="fill:none;stroke:#999999;"/>
    <path clip-path="url(#p5dafb6ecb1)" d="M 138.138281 178.590363 
L 137.876448 178.443513 
L 136.795712 176.132354 
L 136.660129 175.647685 
L 136.776553 175.027511 
L 137.319378 174.291369 
" style="fill:none;stroke:#999999;"/>
    <path clip-path="url(#p5dafb6ecb1)" d="M 139.147786 177.82586 
L 138.138281 178.590363 
" style="fill:none;stroke:#999999;"/>
    <path clip-path="url(#p5dafb6ecb1)" d="M 139.147786 177.82586 
L 141.358874 176.458828 
L 141.824573 176.180884 
" style="fill:none;stroke:#999999;"/>
    <path clip-path="url(#p5dafb6ecb1)" d="M 139.147786 177.82586 
L 138.681596 176.448744 
L 137.941292 174.722466 
" style="fill:none;stroke:#999999;"/>
    <path clip-path="url(#p5dafb6ecb1)" d="M 141.824573 176.180884 
L 142.060861 175.929411 
" style="fill:none;stroke:#999999;"/>
    <path clip-path="url(#p5dafb6ecb1)" d="M 141.824573 176.180884 
L 141.966051 176.750638 
L 142.353642 178.814735 
L 142.634634 181.459931 
L 142.760883 184.057227 
L 142.683267 185.423628 
L 142.582562 187.993193 
" style="fill:none;stroke:#999999;"/>
    <path clip-path="url(#p5dafb6ecb1)" d="M 141.824573 176.180884 
L 141.358874 176.458828 
L 139.147786 177.82586 
" style="fill:none;stroke:#999999;"/>
    <path clip-path="url(#p5dafb6ecb1)" d="M 142.060861 175.929411 
L 141.824573 176.180884 
" style="fill:none;stroke:#999999;"/>
    <path clip-path="url(#p5dafb6ecb1)" d="M 142.060861 175.929411 
L 142.284377 175.985504 
L 142.505928 175.924369 
L 142.669512 175.762392 
L 142.7319 175.540541 
" style="fill:none;stroke:#999999;"/>
    <path clip-path="url(#p5dafb6ecb1)" d="M 141.826047 175.551256 
L 141.893838 175.771216 
L 142.060861 175.929411 
" style="fill:none;stroke:#999999;"/>
    <path clip-path="url(#p5dafb6ecb1)" d="M 141.826047 175.551256 
L 141.326943 175.527306 
L 140.53162 175.434658 
L 138.804898 175.105663 
L 137.941292 174.722466 
" style="fill:none;stroke:#999999;"/>
    <path clip-path="url(#p5dafb6ecb1)" d="M 142.7319 175.540541 
L 145.926948 175.476255 
" style="fill:none;stroke:#999999;"/>
    <path clip-path="url(#p5dafb6ecb1)" d="M 142.7319 175.540541 
L 142.664108 175.29285 
L 142.472032 175.12205 
" style="fill:none;stroke:#999999;"/>
    <path clip-path="url(#p5dafb6ecb1)" d="M 137.941292 174.722466 
L 137.319378 174.291369 
" style="fill:none;stroke:#999999;"/>
    <path clip-path="url(#p5dafb6ecb1)" d="M 137.941292 174.722466 
L 138.804898 175.105663 
L 140.53162 175.434658 
L 141.326943 175.527306 
L 141.826047 175.551256 
" style="fill:none;stroke:#999999;"/>
    <path clip-path="url(#p5dafb6ecb1)" d="M 137.941292 174.722466 
L 138.681596 176.448744 
L 139.147786 177.82586 
" style="fill:none;stroke:#999999;"/>
    <path clip-path="url(#p5dafb6ecb1)" d="M 137.319378 174.291369 
L 137.941292 174.722466 
" style="fill:none;stroke:#999999;"/>
    <path clip-path="url(#p5dafb6ecb1)" d="M 137.319378 174.291369 
L 136.62132 173.487158 
L 135.981721 172.653326 
" style="fill:none;stroke:#999999;"/>
    <path clip-path="url(#p5dafb6ecb1)" d="M 137.319378 174.291369 
L 136.776553 175.027511 
L 136.660129 175.647685 
L 136.795712 176.132354 
L 137.876448 178.443513 
L 138.138281 178.590363 
" style="fill:none;stroke:#999999;"/>
    <path clip-path="url(#p5dafb6ecb1)" d="M 144.941022 173.133583 
L 146.130323 172.898497 
" style="fill:none;stroke:#999999;"/>
    <path clip-path="url(#p5dafb6ecb1)" d="M 144.941022 173.133583 
L 144.915478 172.810261 
L 145.549182 172.063404 
L 146.39756 170.812971 
" style="fill:none;stroke:#999999;"/>
    <path clip-path="url(#p5dafb6ecb1)" d="M 144.941022 173.133583 
L 144.325494 173.479595 
L 142.614001 174.747676 
L 142.472032 175.12205 
" style="fill:none;stroke:#999999;"/>
    <path clip-path="url(#p5dafb6ecb1)" d="M 132.405959 172.76047 
L 132.096966 169.852456 
" style="fill:none;stroke:#999999;"/>
    <path clip-path="url(#p5dafb6ecb1)" d="M 132.405959 172.76047 
L 134.712348 172.624334 
L 135.981721 172.653326 
" style="fill:none;stroke:#999999;"/>
    <path clip-path="url(#p5dafb6ecb1)" d="M 132.405959 172.76047 
L 132.885412 175.207765 
L 133.789792 178.619986 
L 135.172643 181.449217 
" style="fill:none;stroke:#999999;"/>
    <path clip-path="url(#p5dafb6ecb1)" d="M 135.981721 172.653326 
L 135.49539 169.002868 
" style="fill:none;stroke:#999999;"/>
    <path clip-path="url(#p5dafb6ecb1)" d="M 135.981721 172.653326 
L 136.62132 173.487158 
L 137.319378 174.291369 
" style="fill:none;stroke:#999999;"/>
    <path clip-path="url(#p5dafb6ecb1)" d="M 135.981721 172.653326 
L 134.712348 172.624334 
L 132.405959 172.76047 
" style="fill:none;stroke:#999999;"/>
    <path clip-path="url(#p5dafb6ecb1)" d="M 125.597322 172.636939 
L 123.268827 171.353102 
" style="fill:none;stroke:#999999;"/>
    <path clip-path="url(#p5dafb6ecb1)" d="M 125.597322 172.636939 
L 126.233482 172.186304 
L 127.077439 171.773485 
" style="fill:none;stroke:#999999;"/>
    <path clip-path="url(#p5dafb6ecb1)" d="M 125.597322 172.636939 
L 126.097899 173.281064 
L 126.747323 174.793055 
L 126.940873 175.868276 
L 127.386922 177.428797 
L 128.15228 179.134277 
L 128.840512 181.246274 
L 129.29786 183.079066 
" style="fill:none;stroke:#999999;"/>
    <path clip-path="url(#p5dafb6ecb1)" d="M 125.597322 172.636939 
L 124.460093 174.116787 
L 119.635589 180.338701 
L 119.338878 181.190181 
" style="fill:none;stroke:#999999;"/>
    <path clip-path="url(#p5dafb6ecb1)" d="M 127.077439 171.773485 
L 129.335686 170.877257 
L 132.096966 169.852456 
" style="fill:none;stroke:#999999;"/>
    <path clip-path="url(#p5dafb6ecb1)" d="M 127.077439 171.773485 
L 126.233482 172.186304 
L 125.597322 172.636939 
" style="fill:none;stroke:#999999;"/>
    <path clip-path="url(#p5dafb6ecb1)" d="M 127.077439 171.773485 
L 127.022911 171.143226 
L 130.311787 162.797971 
L 130.726397 162.47969 
" style="fill:none;stroke:#999999;"/>
    <path clip-path="url(#p5dafb6ecb1)" d="M 132.096966 169.852456 
L 135.49539 169.002868 
" style="fill:none;stroke:#999999;"/>
    <path clip-path="url(#p5dafb6ecb1)" d="M 132.096966 169.852456 
L 132.405959 172.76047 
" style="fill:none;stroke:#999999;"/>
    <path clip-path="url(#p5dafb6ecb1)" d="M 132.096966 169.852456 
L 129.335686 170.877257 
L 127.077439 171.773485 
" style="fill:none;stroke:#999999;"/>
    <path clip-path="url(#p5dafb6ecb1)" d="M 132.096966 169.852456 
L 130.973001 163.068982 
L 130.726397 162.47969 
" style="fill:none;stroke:#999999;"/>
    <path clip-path="url(#p5dafb6ecb1)" d="M 135.49539 169.002868 
L 132.096966 169.852456 
" style="fill:none;stroke:#999999;"/>
    <path clip-path="url(#p5dafb6ecb1)" d="M 135.49539 169.002868 
L 135.981721 172.653326 
" style="fill:none;stroke:#999999;"/>
    <path clip-path="url(#p5dafb6ecb1)" d="M 135.49539 169.002868 
L 133.727404 159.601929 
L 133.549574 158.75234 
L 133.192931 158.108846 
L 132.713477 157.889516 
L 132.411854 158.067249 
L 132.014438 158.629439 
L 130.726397 162.47969 
" style="fill:none;stroke:#999999;"/>
    <path clip-path="url(#p5dafb6ecb1)" d="M 147.929749 167.904327 
L 151.041286 162.383891 
L 159.458746 149.308543 
L 168.486821 135.192008 
L 169.962517 133.29493 
L 171.793382 131.880629 
L 173.561368 131.090285 
L 175.492938 130.772004 
L 176.545673 130.846374 
" style="fill:none;stroke:#999999;"/>
    <path clip-path="url(#p5dafb6ecb1)" d="M 147.929749 167.904327 
L 146.745852 170.138594 
L 146.39756 170.812971 
" style="fill:none;stroke:#999999;"/>
    <path clip-path="url(#p5dafb6ecb1)" d="M 147.929749 167.904327 
L 147.615844 167.745502 
L 146.103796 165.342325 
L 145.222014 164.072984 
L 144.37904 163.075284 
L 143.554733 162.268553 
L 142.677372 161.624429 
L 139.333476 159.925251 
L 136.469035 158.418303 
" style="fill:none;stroke:#999999;"/>
    <path clip-path="url(#p5dafb6ecb1)" d="M 130.726397 162.47969 
L 130.311787 162.797971 
L 127.022911 171.143226 
L 127.077439 171.773485 
" style="fill:none;stroke:#999999;"/>
    <path clip-path="url(#p5dafb6ecb1)" d="M 130.726397 162.47969 
L 130.973001 163.068982 
L 132.096966 169.852456 
" style="fill:none;stroke:#999999;"/>
    <path clip-path="url(#p5dafb6ecb1)" d="M 130.726397 162.47969 
L 132.014438 158.629439 
L 132.411854 158.067249 
L 132.713477 157.889516 
L 133.192931 158.108846 
L 133.549574 158.75234 
L 133.727404 159.601929 
L 135.49539 169.002868 
" style="fill:none;stroke:#999999;"/>
    <path clip-path="url(#p5dafb6ecb1)" d="M 136.469035 158.418303 
L 139.333476 159.925251 
L 142.677372 161.624429 
L 143.554733 162.268553 
L 144.37904 163.075284 
L 145.222014 164.072984 
L 146.103796 165.342325 
L 147.615844 167.745502 
L 147.929749 167.904327 
" style="fill:none;stroke:#999999;"/>
    <path clip-path="url(#p5dafb6ecb1)" d="M 134.426444 185.750102 
L 134.993339 185.051776 
L 133.942078 181.872751 
" style="fill:none;stroke:#999999;"/>
    <path clip-path="url(#p5dafb6ecb1)" d="M 133.942078 181.872751 
L 135.172643 181.449217 
" style="fill:none;stroke:#999999;"/>
    <path clip-path="url(#p5dafb6ecb1)" d="M 133.942078 181.872751 
L 134.993339 185.051776 
L 134.426444 185.750102 
" style="fill:none;stroke:#999999;"/>
    <path clip-path="url(#p5dafb6ecb1)" d="M 133.942078 181.872751 
L 132.327851 182.428009 
L 129.29786 183.079066 
" style="fill:none;stroke:#999999;"/>
    <path clip-path="url(#p5dafb6ecb1)" d="M 124.583886 167.647181 
L 123.268827 171.353102 
" style="fill:none;stroke:#999999;"/>
    <path clip-path="url(#p5dafb6ecb1)" d="M 123.268827 171.353102 
L 124.583886 167.647181 
" style="fill:none;stroke:#999999;"/>
    <path clip-path="url(#p5dafb6ecb1)" d="M 123.268827 171.353102 
L 125.597322 172.636939 
" style="fill:none;stroke:#999999;"/>
    <path clip-path="url(#p5dafb6ecb1)" d="M 123.268827 171.353102 
L 121.718953 170.499102 
L 118.406006 168.327861 
" style="fill:none;stroke:#999999;"/>
    <path clip-path="url(#p5dafb6ecb1)" d="M 167.263624 26.81587 
L 167.933681 26.96335 
L 168.218602 26.895283 
L 168.491734 26.795702 
" style="fill:none;stroke:#999999;"/>
    <path clip-path="url(#p5dafb6ecb1)" d="M 167.263624 26.81587 
L 167.669883 27.134151 
L 168.15081 27.852015 
L 168.401345 28.695301 
L 168.579175 29.926197 
L 168.842973 31.375162 
L 169.231546 33.27161 
L 169.666297 34.951249 
L 169.99543 35.899159 
L 170.549062 37.55926 
L 171.08943 38.823559 
L 172.387296 41.016229 
L 173.812885 42.828853 
" style="fill:none;stroke:#999999;"/>
    <path clip-path="url(#p5dafb6ecb1)" d="M 173.812885 42.828853 
L 175.943899 45.758296 
" style="fill:none;stroke:#999999;"/>
    <path clip-path="url(#p5dafb6ecb1)" d="M 166.280155 25.692119 
L 165.732909 25.50115 
" style="fill:none;stroke:#999999;"/>
    <path clip-path="url(#p5dafb6ecb1)" d="M 168.154249 17.881322 
L 168.144424 17.309047 
L 168.355168 14.793685 
L 168.710828 12.488829 
L 169.810231 8.307692 
" style="fill:none;stroke:#999999;"/>
    <path clip-path="url(#p5dafb6ecb1)" d="M 168.491734 26.795702 
L 167.959717 26.436454 
L 166.945299 26.028047 
L 166.280155 25.692119 
" style="fill:none;stroke:#999999;"/>
    <path clip-path="url(#p5dafb6ecb1)" d="M 168.491734 26.795702 
L 168.586052 26.416286 
L 168.420994 24.974254 
L 168.308991 23.894621 
L 168.210251 22.906375 
L 168.019157 20.595216 
L 167.986244 19.027763 
L 168.154249 17.881322 
" style="fill:none;stroke:#999999;"/>
    <path clip-path="url(#p5dafb6ecb1)" d="M 168.491734 26.795702 
L 169.026207 31.034192 
L 169.510573 33.554596 
L 170.230736 35.979832 
L 171.184731 38.621246 
L 173.217497 42.010147 
L 173.812885 42.828853 
" style="fill:none;stroke:#999999;"/>
    <path clip-path="url(#p5dafb6ecb1)" d="M 170.976935 36.773327 
L 170.160488 35.161756 
L 169.514503 32.718873 
L 168.941713 29.47178 
L 168.684792 27.20663 
L 168.491734 26.795702 
" style="fill:none;stroke:#999999;"/>
    <path clip-path="url(#p5dafb6ecb1)" d="M 170.976935 36.773327 
L 169.989044 33.891154 
L 169.18537 29.557495 
L 168.513348 23.933697 
L 168.196987 20.351306 
L 168.154249 17.881322 
" style="fill:none;stroke:#999999;"/>
    <path clip-path="url(#p5dafb6ecb1)" d="M 175.943899 45.758296 
L 190.018521 66.674062 
L 192.106306 70.222418 
L 193.236167 72.724545 
L 194.041806 75.352724 
L 194.326727 76.663662 
L 194.626386 79.272934 
L 194.498663 83.035578 
L 194.061456 85.518797 
L 193.388452 87.945294 
L 191.988408 91.506255 
L 182.821802 112.512778 
L 180.729104 117.863675 
L 178.469383 123.189361 
L 177.594969 125.918381 
L 176.936703 128.685217 
L 176.545673 130.846374 
" style="fill:none;stroke:#999999;"/>
    <path clip-path="url(#p5dafb6ecb1)" d="M 175.943899 45.758296 
L 174.007908 42.530741 
L 171.438213 38.11893 
L 170.976935 36.773327 
" style="fill:none;stroke:#999999;"/>
    <path clip-path="url(#p5dafb6ecb1)" d="M 118.406006 168.327861 
L 121.718953 170.499102 
L 123.268827 171.353102 
" style="fill:none;stroke:#999999;"/>
   </g>
  </g>
 </g>
 <defs>
  <clipPath id="p5dafb6ecb1">
   <rect height="432" width="237.886773" x="33.659317" y="0"/>
  </clipPath>
 </defs>
</svg>
