<?xml version="1.0" encoding="utf-8" standalone="no"?>
<!DOCTYPE svg PUBLIC "-//W3C//DTD SVG 1.1//EN"
  "http://www.w3.org/Graphics/SVG/1.1/DTD/svg11.dtd">
<!-- Created with matplotlib (http://matplotlib.org/) -->
<svg height="432pt" version="1.1" viewBox="0 0 602.875437 432" width="602.875437pt" xmlns="http://www.w3.org/2000/svg" xmlns:xlink="http://www.w3.org/1999/xlink">
 <defs>
  <style type="text/css">
*{stroke-linecap:butt;stroke-linejoin:round;}
  </style>
 </defs>
 <g id="figure_1">
  <g id="patch_1">
   <path d="M 0 432 
L 602.875437 432 
L 602.875437 0 
L 0 0 
z
" style="fill:none;opacity:0;"/>
  </g>
  <g id="axes_1">
   <g id="PathCollection_1">
    <defs>
     <path d="M 0 1.936492 
C 0.513564 1.936492 1.006162 1.732451 1.369306 1.369306 
C 1.732451 1.006162 1.936492 0.513564 1.936492 0 
C 1.936492 -0.513564 1.732451 -1.006162 1.369306 -1.369306 
C 1.006162 -1.732451 0.513564 -1.936492 0 -1.936492 
C -0.513564 -1.936492 -1.006162 -1.732451 -1.369306 -1.369306 
C -1.732451 -1.006162 -1.936492 -0.513564 -1.936492 0 
C -1.936492 0.513564 -1.732451 1.006162 -1.369306 1.369306 
C -1.006162 1.732451 -0.513564 1.936492 0 1.936492 
z
" id="C0_0_103ed662f3"/>
    </defs>
    <g clip-path="url(#pefc30f1856)">
     <use style="fill:#66ccff;" x="170.161995" xlink:href="#C0_0_103ed662f3" y="135.103335"/>
    </g>
    <g clip-path="url(#pefc30f1856)">
     <use style="fill:#66ccff;" x="527.592552" xlink:href="#C0_0_103ed662f3" y="394.182827"/>
    </g>
    <g clip-path="url(#pefc30f1856)">
     <use style="fill:#66ccff;" x="164.342047" xlink:href="#C0_0_103ed662f3" y="111.009241"/>
    </g>
    <g clip-path="url(#pefc30f1856)">
     <use style="fill:#66ccff;" x="158.974489" xlink:href="#C0_0_103ed662f3" y="126.943844"/>
    </g>
    <g clip-path="url(#pefc30f1856)">
     <use style="fill:#66ccff;" x="172.419634" xlink:href="#C0_0_103ed662f3" y="113.930324"/>
    </g>
    <g clip-path="url(#pefc30f1856)">
     <use style="fill:#66ccff;" x="167.449088" xlink:href="#C0_0_103ed662f3" y="125.499434"/>
    </g>
    <g clip-path="url(#pefc30f1856)">
     <use style="fill:#66ccff;" x="166.408373" xlink:href="#C0_0_103ed662f3" y="92.579411"/>
    </g>
    <g clip-path="url(#pefc30f1856)">
     <use style="fill:#66ccff;" x="169.250021" xlink:href="#C0_0_103ed662f3" y="103.648001"/>
    </g>
    <g clip-path="url(#pefc30f1856)">
     <use style="fill:#66ccff;" x="305.389486" xlink:href="#C0_0_103ed662f3" y="8.307692"/>
    </g>
    <g clip-path="url(#pefc30f1856)">
     <use style="fill:#66ccff;" x="163.260336" xlink:href="#C0_0_103ed662f3" y="113.46944"/>
    </g>
    <g clip-path="url(#pefc30f1856)">
     <use style="fill:#66ccff;" x="190.795049" xlink:href="#C0_0_103ed662f3" y="99.317535"/>
    </g>
    <g clip-path="url(#pefc30f1856)">
     <use style="fill:#66ccff;" x="199.537918" xlink:href="#C0_0_103ed662f3" y="99.410634"/>
    </g>
    <g clip-path="url(#pefc30f1856)">
     <use style="fill:#66ccff;" x="177.311786" xlink:href="#C0_0_103ed662f3" y="114.971921"/>
    </g>
    <g clip-path="url(#pefc30f1856)">
     <use style="fill:#66ccff;" x="181.437965" xlink:href="#C0_0_103ed662f3" y="97.196547"/>
    </g>
    <g clip-path="url(#pefc30f1856)">
     <use style="fill:#66ccff;" x="507.657863" xlink:href="#C0_0_103ed662f3" y="423.692308"/>
    </g>
    <g clip-path="url(#pefc30f1856)">
     <use style="fill:#66ccff;" x="506.230925" xlink:href="#C0_0_103ed662f3" y="418.222536"/>
    </g>
    <g clip-path="url(#pefc30f1856)">
     <use style="fill:#66ccff;" x="525.245729" xlink:href="#C0_0_103ed662f3" y="392.343899"/>
    </g>
    <g clip-path="url(#pefc30f1856)">
     <use style="fill:#66ccff;" x="478.978147" xlink:href="#C0_0_103ed662f3" y="365.997926"/>
    </g>
    <g clip-path="url(#pefc30f1856)">
     <use style="fill:#66ccff;" x="155.881113" xlink:href="#C0_0_103ed662f3" y="118.626732"/>
    </g>
    <g clip-path="url(#pefc30f1856)">
     <use style="fill:#66ccff;" x="170.590651" xlink:href="#C0_0_103ed662f3" y="137.689816"/>
    </g>
    <g clip-path="url(#pefc30f1856)">
     <use style="fill:#66ccff;" x="175.210937" xlink:href="#C0_0_103ed662f3" y="126.689436"/>
    </g>
    <g clip-path="url(#pefc30f1856)">
     <use style="fill:#66ccff;" x="169.513975" xlink:href="#C0_0_103ed662f3" y="131.798796"/>
    </g>
    <g clip-path="url(#pefc30f1856)">
     <use style="fill:#66ccff;" x="221.992763" xlink:href="#C0_0_103ed662f3" y="158.227729"/>
    </g>
    <g clip-path="url(#pefc30f1856)">
     <use style="fill:#66ccff;" x="164.798034" xlink:href="#C0_0_103ed662f3" y="91.205055"/>
    </g>
    <g clip-path="url(#pefc30f1856)">
     <use style="fill:#66ccff;" x="161.303332" xlink:href="#C0_0_103ed662f3" y="119.678469"/>
    </g>
    <g clip-path="url(#pefc30f1856)">
     <use style="fill:#66ccff;" x="75.282885" xlink:href="#C0_0_103ed662f3" y="103.81392"/>
    </g>
    <g clip-path="url(#pefc30f1856)">
     <use style="fill:#66ccff;" x="165.471945" xlink:href="#C0_0_103ed662f3" y="89.917345"/>
    </g>
    <g clip-path="url(#pefc30f1856)">
     <use style="fill:#66ccff;" x="165.766826" xlink:href="#C0_0_103ed662f3" y="91.340555"/>
    </g>
    <g clip-path="url(#pefc30f1856)">
     <use style="fill:#66ccff;" x="524.873172" xlink:href="#C0_0_103ed662f3" y="394.141347"/>
    </g>
    <g clip-path="url(#pefc30f1856)">
     <use style="fill:#66ccff;" x="162.858291" xlink:href="#C0_0_103ed662f3" y="131.878069"/>
    </g>
    <g clip-path="url(#pefc30f1856)">
     <use style="fill:#66ccff;" x="183.696324" xlink:href="#C0_0_103ed662f3" y="118.81385"/>
    </g>
    <g clip-path="url(#pefc30f1856)">
     <use style="fill:#66ccff;" x="170.40725" xlink:href="#C0_0_103ed662f3" y="123.158143"/>
    </g>
    <g clip-path="url(#pefc30f1856)">
     <use style="fill:#66ccff;" x="180.534621" xlink:href="#C0_0_103ed662f3" y="114.711061"/>
    </g>
    <g clip-path="url(#pefc30f1856)">
     <use style="fill:#66ccff;" x="180.11963" xlink:href="#C0_0_103ed662f3" y="115.330489"/>
    </g>
    <g clip-path="url(#pefc30f1856)">
     <use style="fill:#66ccff;" x="178.123788" xlink:href="#C0_0_103ed662f3" y="113.884235"/>
    </g>
    <g clip-path="url(#pefc30f1856)">
     <use style="fill:#66ccff;" x="185.277175" xlink:href="#C0_0_103ed662f3" y="108.384045"/>
    </g>
    <g clip-path="url(#pefc30f1856)">
     <use style="fill:#66ccff;" x="169.027062" xlink:href="#C0_0_103ed662f3" y="112.70345"/>
    </g>
    <g clip-path="url(#pefc30f1856)">
     <use style="fill:#66ccff;" x="190.073669" xlink:href="#C0_0_103ed662f3" y="126.912504"/>
    </g>
    <g clip-path="url(#pefc30f1856)">
     <use style="fill:#66ccff;" x="183.0332" xlink:href="#C0_0_103ed662f3" y="105.765303"/>
    </g>
    <g clip-path="url(#pefc30f1856)">
     <use style="fill:#66ccff;" x="201.16408" xlink:href="#C0_0_103ed662f3" y="105.293357"/>
    </g>
    <g clip-path="url(#pefc30f1856)">
     <use style="fill:#66ccff;" x="176.071846" xlink:href="#C0_0_103ed662f3" y="114.708296"/>
    </g>
    <g clip-path="url(#pefc30f1856)">
     <use style="fill:#66ccff;" x="197.125646" xlink:href="#C0_0_103ed662f3" y="102.316047"/>
    </g>
    <g clip-path="url(#pefc30f1856)">
     <use style="fill:#66ccff;" x="179.836976" xlink:href="#C0_0_103ed662f3" y="84.255846"/>
    </g>
    <g clip-path="url(#pefc30f1856)">
     <use style="fill:#66ccff;" x="177.610982" xlink:href="#C0_0_103ed662f3" y="96.021293"/>
    </g>
    <g clip-path="url(#pefc30f1856)">
     <use style="fill:#66ccff;" x="177.322574" xlink:href="#C0_0_103ed662f3" y="104.833395"/>
    </g>
    <g clip-path="url(#pefc30f1856)">
     <use style="fill:#66ccff;" x="140.830664" xlink:href="#C0_0_103ed662f3" y="146.586721"/>
    </g>
    <g clip-path="url(#pefc30f1856)">
     <use style="fill:#66ccff;" x="186.564583" xlink:href="#C0_0_103ed662f3" y="122.473269"/>
    </g>
    <g clip-path="url(#pefc30f1856)">
     <use style="fill:#66ccff;" x="186.395565" xlink:href="#C0_0_103ed662f3" y="108.982273"/>
    </g>
    <g clip-path="url(#pefc30f1856)">
     <use style="fill:#66ccff;" x="198.957505" xlink:href="#C0_0_103ed662f3" y="103.666437"/>
    </g>
    <g clip-path="url(#pefc30f1856)">
     <use style="fill:#66ccff;" x="205.672166" xlink:href="#C0_0_103ed662f3" y="108.616331"/>
    </g>
    <g clip-path="url(#pefc30f1856)">
     <use style="fill:#66ccff;" x="167.627455" xlink:href="#C0_0_103ed662f3" y="97.260149"/>
    </g>
    <g clip-path="url(#pefc30f1856)">
     <use style="fill:#66ccff;" x="173.379796" xlink:href="#C0_0_103ed662f3" y="102.363057"/>
    </g>
    <g clip-path="url(#pefc30f1856)">
     <use style="fill:#66ccff;" x="182.632593" xlink:href="#C0_0_103ed662f3" y="107.65124"/>
    </g>
    <g clip-path="url(#pefc30f1856)">
     <use style="fill:#66ccff;" x="168.641559" xlink:href="#C0_0_103ed662f3" y="93.265206"/>
    </g>
    <g clip-path="url(#pefc30f1856)">
     <use style="fill:#66ccff;" x="179.329924" xlink:href="#C0_0_103ed662f3" y="122.866864"/>
    </g>
    <g clip-path="url(#pefc30f1856)">
     <use style="fill:#66ccff;" x="194.257386" xlink:href="#C0_0_103ed662f3" y="130.81527"/>
    </g>
    <g clip-path="url(#pefc30f1856)">
     <use style="fill:#66ccff;" x="178.643066" xlink:href="#C0_0_103ed662f3" y="113.1883"/>
    </g>
    <g clip-path="url(#pefc30f1856)">
     <use style="fill:#66ccff;" x="174.879375" xlink:href="#C0_0_103ed662f3" y="118.492153"/>
    </g>
    <g clip-path="url(#pefc30f1856)">
     <use style="fill:#66ccff;" x="178.92644" xlink:href="#C0_0_103ed662f3" y="101.857006"/>
    </g>
    <g clip-path="url(#pefc30f1856)">
     <use style="fill:#66ccff;" x="526.407993" xlink:href="#C0_0_103ed662f3" y="394.164391"/>
    </g>
    <g clip-path="url(#pefc30f1856)">
     <use style="fill:#66ccff;" x="525.266587" xlink:href="#C0_0_103ed662f3" y="392.837045"/>
    </g>
    <g clip-path="url(#pefc30f1856)">
     <use style="fill:#66ccff;" x="193.170641" xlink:href="#C0_0_103ed662f3" y="91.738759"/>
    </g>
    <g clip-path="url(#pefc30f1856)">
     <use style="fill:#66ccff;" x="161.056638" xlink:href="#C0_0_103ed662f3" y="100.885463"/>
    </g>
    <g clip-path="url(#pefc30f1856)">
     <use style="fill:#66ccff;" x="187.114069" xlink:href="#C0_0_103ed662f3" y="114.615197"/>
    </g>
    <g clip-path="url(#pefc30f1856)">
     <use style="fill:#66ccff;" x="182.863464" xlink:href="#C0_0_103ed662f3" y="111.928243"/>
    </g>
    <g clip-path="url(#pefc30f1856)">
     <use style="fill:#66ccff;" x="177.0205" xlink:href="#C0_0_103ed662f3" y="120.59655"/>
    </g>
    <g clip-path="url(#pefc30f1856)">
     <use style="fill:#66ccff;" x="172.459911" xlink:href="#C0_0_103ed662f3" y="124.804421"/>
    </g>
    <g clip-path="url(#pefc30f1856)">
     <use style="fill:#66ccff;" x="176.911898" xlink:href="#C0_0_103ed662f3" y="141.245075"/>
    </g>
   </g>
   <g id="LineCollection_1">
    <path clip-path="url(#pefc30f1856)" d="M 170.161995 135.103335 
L 169.513975 131.798796 
" style="fill:none;stroke:#999999;"/>
    <path clip-path="url(#pefc30f1856)" d="M 170.161995 135.103335 
L 162.858291 131.878069 
" style="fill:none;stroke:#999999;"/>
    <path clip-path="url(#pefc30f1856)" d="M 170.161995 135.103335 
L 170.590651 137.689816 
" style="fill:none;stroke:#999999;"/>
    <path clip-path="url(#pefc30f1856)" d="M 527.592552 394.182827 
L 525.245729 392.343899 
" style="fill:none;stroke:#999999;"/>
    <path clip-path="url(#pefc30f1856)" d="M 527.592552 394.182827 
L 526.407993 394.164391 
" style="fill:none;stroke:#999999;"/>
    <path clip-path="url(#pefc30f1856)" d="M 164.342047 111.009241 
L 169.027062 112.70345 
" style="fill:none;stroke:#999999;"/>
    <path clip-path="url(#pefc30f1856)" d="M 164.342047 111.009241 
L 169.250021 103.648001 
" style="fill:none;stroke:#999999;"/>
    <path clip-path="url(#pefc30f1856)" d="M 164.342047 111.009241 
L 163.753723 111.891373 
L 163.260336 113.46944 
" style="fill:none;stroke:#999999;"/>
    <path clip-path="url(#pefc30f1856)" d="M 158.974489 126.943844 
L 161.303332 119.678469 
" style="fill:none;stroke:#999999;"/>
    <path clip-path="url(#pefc30f1856)" d="M 172.419634 113.930324 
L 169.027062 112.70345 
" style="fill:none;stroke:#999999;"/>
    <path clip-path="url(#pefc30f1856)" d="M 172.419634 113.930324 
L 176.071846 114.708296 
" style="fill:none;stroke:#999999;"/>
    <path clip-path="url(#pefc30f1856)" d="M 172.419634 113.930324 
L 177.322574 104.833395 
" style="fill:none;stroke:#999999;"/>
    <path clip-path="url(#pefc30f1856)" d="M 167.449088 125.499434 
L 170.40725 123.158143 
" style="fill:none;stroke:#999999;"/>
    <path clip-path="url(#pefc30f1856)" d="M 167.449088 125.499434 
L 169.513975 131.798796 
" style="fill:none;stroke:#999999;"/>
    <path clip-path="url(#pefc30f1856)" d="M 167.449088 125.499434 
L 165.976839 123.09915 
L 166.343643 121.010424 
L 165.426634 115.475207 
L 163.260336 113.46944 
" style="fill:none;stroke:#999999;"/>
    <path clip-path="url(#pefc30f1856)" d="M 167.449088 125.499434 
L 164.909513 128.27119 
L 162.858291 131.878069 
" style="fill:none;stroke:#999999;"/>
    <path clip-path="url(#pefc30f1856)" d="M 166.408373 92.579411 
L 165.766826 91.340555 
" style="fill:none;stroke:#999999;"/>
    <path clip-path="url(#pefc30f1856)" d="M 166.408373 92.579411 
L 168.641559 93.265206 
" style="fill:none;stroke:#999999;"/>
    <path clip-path="url(#pefc30f1856)" d="M 166.408373 92.579411 
L 166.87371 94.292056 
L 167.627455 97.260149 
" style="fill:none;stroke:#999999;"/>
    <path clip-path="url(#pefc30f1856)" d="M 169.250021 103.648001 
L 164.342047 111.009241 
" style="fill:none;stroke:#999999;"/>
    <path clip-path="url(#pefc30f1856)" d="M 169.250021 103.648001 
L 167.627455 97.260149 
" style="fill:none;stroke:#999999;"/>
    <path clip-path="url(#pefc30f1856)" d="M 169.250021 103.648001 
L 161.056638 100.885463 
" style="fill:none;stroke:#999999;"/>
    <path clip-path="url(#pefc30f1856)" d="M 305.389486 8.307692 
L 289.127147 12.864913 
L 279.148654 18.407504 
L 274.757082 17.757658 
L 274.040017 19.907221 
L 268.424328 27.672195 
L 265.436678 34.838941 
L 259.820988 39.020081 
L 259.223315 52.877019 
L 256.355775 63.150124 
L 235.923383 78.680071 
L 228.634783 80.23325 
L 219.793381 86.922521 
L 216.447558 88.4757 
L 207.573071 95.252538 
L 199.537918 99.410634 
" style="fill:none;stroke:#999999;"/>
    <path clip-path="url(#pefc30f1856)" d="M 163.260336 113.46944 
L 165.426634 115.475207 
L 166.343643 121.010424 
L 165.976839 123.09915 
L 167.449088 125.499434 
" style="fill:none;stroke:#999999;"/>
    <path clip-path="url(#pefc30f1856)" d="M 163.260336 113.46944 
L 161.96142 117.625692 
L 161.303332 119.678469 
" style="fill:none;stroke:#999999;"/>
    <path clip-path="url(#pefc30f1856)" d="M 163.260336 113.46944 
L 163.753723 111.891373 
L 164.342047 111.009241 
" style="fill:none;stroke:#999999;"/>
    <path clip-path="url(#pefc30f1856)" d="M 190.795049 99.317535 
L 199.537918 99.410634 
" style="fill:none;stroke:#999999;"/>
    <path clip-path="url(#pefc30f1856)" d="M 190.795049 99.317535 
L 181.437965 97.196547 
" style="fill:none;stroke:#999999;"/>
    <path clip-path="url(#pefc30f1856)" d="M 190.795049 99.317535 
L 197.125646 102.316047 
" style="fill:none;stroke:#999999;"/>
    <path clip-path="url(#pefc30f1856)" d="M 190.795049 99.317535 
L 193.170641 91.738759 
" style="fill:none;stroke:#999999;"/>
    <path clip-path="url(#pefc30f1856)" d="M 190.795049 99.317535 
L 185.141961 105.678656 
L 183.785507 106.241857 
L 183.0332 105.765303 
" style="fill:none;stroke:#999999;"/>
    <path clip-path="url(#pefc30f1856)" d="M 199.537918 99.410634 
L 190.795049 99.317535 
" style="fill:none;stroke:#999999;"/>
    <path clip-path="url(#pefc30f1856)" d="M 199.537918 99.410634 
L 207.573071 95.252538 
L 216.447558 88.4757 
L 219.793381 86.922521 
L 228.634783 80.23325 
L 235.923383 78.680071 
L 256.355775 63.150124 
L 259.223315 52.877019 
L 259.820988 39.020081 
L 265.436678 34.838941 
L 268.424328 27.672195 
L 274.040017 19.907221 
L 274.757082 17.757658 
L 279.148654 18.407504 
L 289.127147 12.864913 
L 305.389486 8.307692 
" style="fill:none;stroke:#999999;"/>
    <path clip-path="url(#pefc30f1856)" d="M 199.537918 99.410634 
L 198.935209 101.344503 
L 198.957505 103.666437 
" style="fill:none;stroke:#999999;"/>
    <path clip-path="url(#pefc30f1856)" d="M 177.311786 114.971921 
L 176.071846 114.708296 
" style="fill:none;stroke:#999999;"/>
    <path clip-path="url(#pefc30f1856)" d="M 177.311786 114.971921 
L 178.123788 113.884235 
" style="fill:none;stroke:#999999;"/>
    <path clip-path="url(#pefc30f1856)" d="M 177.311786 114.971921 
L 175.169222 118.189814 
L 174.879375 118.492153 
" style="fill:none;stroke:#999999;"/>
    <path clip-path="url(#pefc30f1856)" d="M 181.437965 97.196547 
L 177.610982 96.021293 
" style="fill:none;stroke:#999999;"/>
    <path clip-path="url(#pefc30f1856)" d="M 181.437965 97.196547 
L 190.795049 99.317535 
" style="fill:none;stroke:#999999;"/>
    <path clip-path="url(#pefc30f1856)" d="M 181.437965 97.196547 
L 178.92644 101.857006 
" style="fill:none;stroke:#999999;"/>
    <path clip-path="url(#pefc30f1856)" d="M 507.657863 423.692308 
L 507.57731 420.897507 
L 507.192526 418.691716 
L 506.96669 418.33407 
L 506.687632 418.217927 
L 506.230925 418.222536 
" style="fill:none;stroke:#999999;"/>
    <path clip-path="url(#pefc30f1856)" d="M 507.657863 423.692308 
L 507.221295 422.128989 
L 506.614271 420.421875 
L 506.230925 418.222536 
" style="fill:none;stroke:#999999;"/>
    <path clip-path="url(#pefc30f1856)" d="M 506.230925 418.222536 
L 505.897206 416.306181 
L 505.954744 412.336126 
L 506.80055 408.456404 
L 508.605079 404.304761 
L 511.09215 400.801121 
L 514.032332 398.258885 
L 517.268833 396.208873 
L 521.629479 394.646476 
L 523.287287 394.381928 
L 524.873172 394.141347 
" style="fill:none;stroke:#999999;"/>
    <path clip-path="url(#pefc30f1856)" d="M 506.230925 418.222536 
L 506.614271 420.421875 
L 507.221295 422.128989 
L 507.657863 423.692308 
" style="fill:none;stroke:#999999;"/>
    <path clip-path="url(#pefc30f1856)" d="M 506.230925 418.222536 
L 505.378647 418.357114 
L 504.66374 418.19304 
L 503.961779 417.587438 
L 479.682266 373.61726 
L 478.535106 371.117426 
L 478.24526 369.057274 
L 478.311428 367.283792 
L 478.509214 366.456045 
L 478.978147 365.997926 
" style="fill:none;stroke:#999999;"/>
    <path clip-path="url(#pefc30f1856)" d="M 525.245729 392.343899 
L 522.558714 391.007336 
L 503.170634 379.871456 
L 478.978147 365.997926 
" style="fill:none;stroke:#999999;"/>
    <path clip-path="url(#pefc30f1856)" d="M 525.245729 392.343899 
L 525.247887 392.619508 
L 525.266587 392.837045 
" style="fill:none;stroke:#999999;"/>
    <path clip-path="url(#pefc30f1856)" d="M 478.978147 365.997926 
L 425.884425 345.135551 
L 370.963877 325.475161 
L 368.986015 324.010471 
L 367.007434 321.472844 
L 364.116879 317.312905 
L 362.384991 315.662018 
L 359.288019 313.976105 
L 217.498342 257.059695 
L 213.497307 255.041023 
L 177.257125 225.729722 
L 174.348589 222.002092 
L 172.442649 210.503036 
L 171.532114 203.139954 
L 174.138576 192.02251 
L 174.313347 177.834656 
L 173.691939 168.354272 
L 173.397777 164.621112 
L 170.590651 137.689816 
" style="fill:none;stroke:#999999;"/>
    <path clip-path="url(#pefc30f1856)" d="M 478.978147 365.997926 
L 503.170634 379.871456 
L 522.558714 391.007336 
L 525.245729 392.343899 
" style="fill:none;stroke:#999999;"/>
    <path clip-path="url(#pefc30f1856)" d="M 478.978147 365.997926 
L 478.509214 366.456045 
L 478.311428 367.283792 
L 478.24526 369.057274 
L 478.535106 371.117426 
L 479.682266 373.61726 
L 503.961779 417.587438 
L 504.66374 418.19304 
L 505.378647 418.357114 
L 506.230925 418.222536 
" style="fill:none;stroke:#999999;"/>
    <path clip-path="url(#pefc30f1856)" d="M 155.881113 118.626732 
L 161.056638 100.885463 
" style="fill:none;stroke:#999999;"/>
    <path clip-path="url(#pefc30f1856)" d="M 155.881113 118.626732 
L 161.303332 119.678469 
" style="fill:none;stroke:#999999;"/>
    <path clip-path="url(#pefc30f1856)" d="M 155.881113 118.626732 
L 153.38685 127.719051 
L 162.858291 131.878069 
" style="fill:none;stroke:#999999;"/>
    <path clip-path="url(#pefc30f1856)" d="M 155.881113 118.626732 
L 137.811368 115.334176 
L 110.894466 110.48752 
L 91.024507 106.707349 
L 75.282885 103.81392 
" style="fill:none;stroke:#999999;"/>
    <path clip-path="url(#pefc30f1856)" d="M 170.590651 137.689816 
L 170.161995 135.103335 
" style="fill:none;stroke:#999999;"/>
    <path clip-path="url(#pefc30f1856)" d="M 170.590651 137.689816 
L 176.911898 141.245075 
" style="fill:none;stroke:#999999;"/>
    <path clip-path="url(#pefc30f1856)" d="M 170.590651 137.689816 
L 173.397777 164.621112 
L 173.691939 168.354272 
L 174.313347 177.834656 
L 174.138576 192.02251 
L 171.532114 203.139954 
L 172.442649 210.503036 
L 174.348589 222.002092 
L 177.257125 225.729722 
L 213.497307 255.041023 
L 217.498342 257.059695 
L 359.288019 313.976105 
L 362.384991 315.662018 
L 364.116879 317.312905 
L 367.007434 321.472844 
L 368.986015 324.010471 
L 370.963877 325.475161 
L 425.884425 345.135551 
L 478.978147 365.997926 
" style="fill:none;stroke:#999999;"/>
    <path clip-path="url(#pefc30f1856)" d="M 175.210937 126.689436 
L 169.513975 131.798796 
" style="fill:none;stroke:#999999;"/>
    <path clip-path="url(#pefc30f1856)" d="M 175.210937 126.689436 
L 179.329924 122.866864 
" style="fill:none;stroke:#999999;"/>
    <path clip-path="url(#pefc30f1856)" d="M 175.210937 126.689436 
L 172.459911 124.804421 
" style="fill:none;stroke:#999999;"/>
    <path clip-path="url(#pefc30f1856)" d="M 169.513975 131.798796 
L 175.210937 126.689436 
" style="fill:none;stroke:#999999;"/>
    <path clip-path="url(#pefc30f1856)" d="M 169.513975 131.798796 
L 167.449088 125.499434 
" style="fill:none;stroke:#999999;"/>
    <path clip-path="url(#pefc30f1856)" d="M 169.513975 131.798796 
L 170.161995 135.103335 
" style="fill:none;stroke:#999999;"/>
    <path clip-path="url(#pefc30f1856)" d="M 221.992763 158.227729 
L 220.73772 156.625696 
L 218.345586 153.038175 
L 214.680428 149.257083 
L 208.854007 143.62508 
L 204.210706 139.290927 
L 196.648801 132.886483 
L 194.257386 130.81527 
" style="fill:none;stroke:#999999;"/>
    <path clip-path="url(#pefc30f1856)" d="M 164.798034 91.205055 
L 163.730707 91.719402 
L 161.056638 100.885463 
" style="fill:none;stroke:#999999;"/>
    <path clip-path="url(#pefc30f1856)" d="M 164.798034 91.205055 
L 165.011643 91.367286 
L 165.267686 91.44748 
L 165.517256 91.438262 
L 165.766826 91.340555 
" style="fill:none;stroke:#999999;"/>
    <path clip-path="url(#pefc30f1856)" d="M 161.303332 119.678469 
L 155.881113 118.626732 
" style="fill:none;stroke:#999999;"/>
    <path clip-path="url(#pefc30f1856)" d="M 161.303332 119.678469 
L 158.974489 126.943844 
" style="fill:none;stroke:#999999;"/>
    <path clip-path="url(#pefc30f1856)" d="M 161.303332 119.678469 
L 161.96142 117.625692 
L 163.260336 113.46944 
" style="fill:none;stroke:#999999;"/>
    <path clip-path="url(#pefc30f1856)" d="M 75.282885 103.81392 
L 91.024507 106.707349 
L 110.894466 110.48752 
L 137.811368 115.334176 
L 155.881113 118.626732 
" style="fill:none;stroke:#999999;"/>
    <path clip-path="url(#pefc30f1856)" d="M 165.471945 89.917345 
L 165.204394 89.927485 
L 164.955543 90.027957 
L 164.757038 90.20678 
L 164.632612 90.439988 
L 164.593774 90.704535 
L 164.647716 90.967239 
L 164.798034 91.205055 
" style="fill:none;stroke:#999999;"/>
    <path clip-path="url(#pefc30f1856)" d="M 165.766826 91.340555 
L 166.408373 92.579411 
" style="fill:none;stroke:#999999;"/>
    <path clip-path="url(#pefc30f1856)" d="M 165.766826 91.340555 
L 165.968209 91.163575 
L 166.058831 90.997657 
L 166.127876 90.801321 
L 166.122841 90.533086 
L 166.026466 90.283287 
L 165.850256 90.08142 
L 165.61507 89.95145 
L 165.471945 89.917345 
" style="fill:none;stroke:#999999;"/>
    <path clip-path="url(#pefc30f1856)" d="M 524.873172 394.141347 
L 526.407993 394.164391 
" style="fill:none;stroke:#999999;"/>
    <path clip-path="url(#pefc30f1856)" d="M 524.873172 394.141347 
L 523.287287 394.381928 
L 521.629479 394.646476 
L 517.268833 396.208873 
L 514.032332 398.258885 
L 511.09215 400.801121 
L 508.605079 404.304761 
L 506.80055 408.456404 
L 505.954744 412.336126 
L 505.897206 416.306181 
L 506.230925 418.222536 
" style="fill:none;stroke:#999999;"/>
    <path clip-path="url(#pefc30f1856)" d="M 162.858291 131.878069 
L 170.161995 135.103335 
" style="fill:none;stroke:#999999;"/>
    <path clip-path="url(#pefc30f1856)" d="M 162.858291 131.878069 
L 164.909513 128.27119 
L 167.449088 125.499434 
" style="fill:none;stroke:#999999;"/>
    <path clip-path="url(#pefc30f1856)" d="M 162.858291 131.878069 
L 158.269651 137.328483 
L 140.830664 146.586721 
" style="fill:none;stroke:#999999;"/>
    <path clip-path="url(#pefc30f1856)" d="M 162.858291 131.878069 
L 153.38685 127.719051 
L 155.881113 118.626732 
" style="fill:none;stroke:#999999;"/>
    <path clip-path="url(#pefc30f1856)" d="M 183.696324 118.81385 
L 179.329924 122.866864 
" style="fill:none;stroke:#999999;"/>
    <path clip-path="url(#pefc30f1856)" d="M 183.696324 118.81385 
L 187.114069 114.615197 
" style="fill:none;stroke:#999999;"/>
    <path clip-path="url(#pefc30f1856)" d="M 183.696324 118.81385 
L 183.193587 117.739069 
L 180.11963 115.330489 
" style="fill:none;stroke:#999999;"/>
    <path clip-path="url(#pefc30f1856)" d="M 183.696324 118.81385 
L 183.947332 119.059041 
L 186.564583 122.473269 
" style="fill:none;stroke:#999999;"/>
    <path clip-path="url(#pefc30f1856)" d="M 170.40725 123.158143 
L 174.879375 118.492153 
" style="fill:none;stroke:#999999;"/>
    <path clip-path="url(#pefc30f1856)" d="M 170.40725 123.158143 
L 167.449088 125.499434 
" style="fill:none;stroke:#999999;"/>
    <path clip-path="url(#pefc30f1856)" d="M 170.40725 123.158143 
L 172.085196 124.548169 
L 172.459911 124.804421 
" style="fill:none;stroke:#999999;"/>
    <path clip-path="url(#pefc30f1856)" d="M 180.534621 114.711061 
L 182.863464 111.928243 
" style="fill:none;stroke:#999999;"/>
    <path clip-path="url(#pefc30f1856)" d="M 180.534621 114.711061 
L 178.643066 113.1883 
" style="fill:none;stroke:#999999;"/>
    <path clip-path="url(#pefc30f1856)" d="M 180.534621 114.711061 
L 180.11963 115.330489 
" style="fill:none;stroke:#999999;"/>
    <path clip-path="url(#pefc30f1856)" d="M 180.11963 115.330489 
L 180.534621 114.711061 
" style="fill:none;stroke:#999999;"/>
    <path clip-path="url(#pefc30f1856)" d="M 180.11963 115.330489 
L 178.123788 113.884235 
" style="fill:none;stroke:#999999;"/>
    <path clip-path="url(#pefc30f1856)" d="M 180.11963 115.330489 
L 183.193587 117.739069 
L 183.696324 118.81385 
" style="fill:none;stroke:#999999;"/>
    <path clip-path="url(#pefc30f1856)" d="M 178.123788 113.884235 
L 180.11963 115.330489 
" style="fill:none;stroke:#999999;"/>
    <path clip-path="url(#pefc30f1856)" d="M 178.123788 113.884235 
L 178.643066 113.1883 
" style="fill:none;stroke:#999999;"/>
    <path clip-path="url(#pefc30f1856)" d="M 178.123788 113.884235 
L 177.311786 114.971921 
" style="fill:none;stroke:#999999;"/>
    <path clip-path="url(#pefc30f1856)" d="M 185.277175 108.384045 
L 182.632593 107.65124 
" style="fill:none;stroke:#999999;"/>
    <path clip-path="url(#pefc30f1856)" d="M 185.277175 108.384045 
L 186.395565 108.982273 
" style="fill:none;stroke:#999999;"/>
    <path clip-path="url(#pefc30f1856)" d="M 185.277175 108.384045 
L 183.521552 111.142897 
L 182.863464 111.928243 
" style="fill:none;stroke:#999999;"/>
    <path clip-path="url(#pefc30f1856)" d="M 169.027062 112.70345 
L 164.342047 111.009241 
" style="fill:none;stroke:#999999;"/>
    <path clip-path="url(#pefc30f1856)" d="M 169.027062 112.70345 
L 172.419634 113.930324 
" style="fill:none;stroke:#999999;"/>
    <path clip-path="url(#pefc30f1856)" d="M 169.027062 112.70345 
L 169.998731 108.750909 
L 173.379796 102.363057 
" style="fill:none;stroke:#999999;"/>
    <path clip-path="url(#pefc30f1856)" d="M 190.073669 126.912504 
L 205.672166 108.616331 
" style="fill:none;stroke:#999999;"/>
    <path clip-path="url(#pefc30f1856)" d="M 190.073669 126.912504 
L 189.44363 126.227631 
L 186.564583 122.473269 
" style="fill:none;stroke:#999999;"/>
    <path clip-path="url(#pefc30f1856)" d="M 190.073669 126.912504 
L 191.343816 128.292391 
L 194.257386 130.81527 
" style="fill:none;stroke:#999999;"/>
    <path clip-path="url(#pefc30f1856)" d="M 183.0332 105.765303 
L 182.354254 107.125832 
L 182.632593 107.65124 
" style="fill:none;stroke:#999999;"/>
    <path clip-path="url(#pefc30f1856)" d="M 183.0332 105.765303 
L 182.537656 105.144031 
L 176.519202 113.226093 
L 176.13298 113.900827 
L 176.071846 114.708296 
" style="fill:none;stroke:#999999;"/>
    <path clip-path="url(#pefc30f1856)" d="M 183.0332 105.765303 
L 183.785507 106.241857 
L 185.141961 105.678656 
L 190.795049 99.317535 
" style="fill:none;stroke:#999999;"/>
    <path clip-path="url(#pefc30f1856)" d="M 201.16408 105.293357 
L 198.957505 103.666437 
" style="fill:none;stroke:#999999;"/>
    <path clip-path="url(#pefc30f1856)" d="M 201.16408 105.293357 
L 205.672166 108.616331 
" style="fill:none;stroke:#999999;"/>
    <path clip-path="url(#pefc30f1856)" d="M 201.16408 105.293357 
L 186.564583 122.473269 
" style="fill:none;stroke:#999999;"/>
    <path clip-path="url(#pefc30f1856)" d="M 176.071846 114.708296 
L 172.419634 113.930324 
" style="fill:none;stroke:#999999;"/>
    <path clip-path="url(#pefc30f1856)" d="M 176.071846 114.708296 
L 177.311786 114.971921 
" style="fill:none;stroke:#999999;"/>
    <path clip-path="url(#pefc30f1856)" d="M 176.071846 114.708296 
L 176.13298 113.900827 
L 176.519202 113.226093 
L 182.537656 105.144031 
L 183.0332 105.765303 
" style="fill:none;stroke:#999999;"/>
    <path clip-path="url(#pefc30f1856)" d="M 197.125646 102.316047 
L 190.795049 99.317535 
" style="fill:none;stroke:#999999;"/>
    <path clip-path="url(#pefc30f1856)" d="M 197.125646 102.316047 
L 198.957505 103.666437 
" style="fill:none;stroke:#999999;"/>
    <path clip-path="url(#pefc30f1856)" d="M 197.125646 102.316047 
L 187.114069 114.615197 
" style="fill:none;stroke:#999999;"/>
    <path clip-path="url(#pefc30f1856)" d="M 179.836976 84.255846 
L 177.610982 96.021293 
" style="fill:none;stroke:#999999;"/>
    <path clip-path="url(#pefc30f1856)" d="M 177.610982 96.021293 
L 168.641559 93.265206 
" style="fill:none;stroke:#999999;"/>
    <path clip-path="url(#pefc30f1856)" d="M 177.610982 96.021293 
L 181.437965 97.196547 
" style="fill:none;stroke:#999999;"/>
    <path clip-path="url(#pefc30f1856)" d="M 177.610982 96.021293 
L 179.836976 84.255846 
" style="fill:none;stroke:#999999;"/>
    <path clip-path="url(#pefc30f1856)" d="M 177.322574 104.833395 
L 172.419634 113.930324 
" style="fill:none;stroke:#999999;"/>
    <path clip-path="url(#pefc30f1856)" d="M 177.322574 104.833395 
L 178.92644 101.857006 
" style="fill:none;stroke:#999999;"/>
    <path clip-path="url(#pefc30f1856)" d="M 177.322574 104.833395 
L 174.667205 103.504206 
L 173.379796 102.363057 
" style="fill:none;stroke:#999999;"/>
    <path clip-path="url(#pefc30f1856)" d="M 140.830664 146.586721 
L 158.269651 137.328483 
L 162.858291 131.878069 
" style="fill:none;stroke:#999999;"/>
    <path clip-path="url(#pefc30f1856)" d="M 186.564583 122.473269 
L 201.16408 105.293357 
" style="fill:none;stroke:#999999;"/>
    <path clip-path="url(#pefc30f1856)" d="M 186.564583 122.473269 
L 183.947332 119.059041 
L 183.696324 118.81385 
" style="fill:none;stroke:#999999;"/>
    <path clip-path="url(#pefc30f1856)" d="M 186.564583 122.473269 
L 189.44363 126.227631 
L 190.073669 126.912504 
" style="fill:none;stroke:#999999;"/>
    <path clip-path="url(#pefc30f1856)" d="M 186.395565 108.982273 
L 185.277175 108.384045 
" style="fill:none;stroke:#999999;"/>
    <path clip-path="url(#pefc30f1856)" d="M 198.957505 103.666437 
L 197.125646 102.316047 
" style="fill:none;stroke:#999999;"/>
    <path clip-path="url(#pefc30f1856)" d="M 198.957505 103.666437 
L 201.16408 105.293357 
" style="fill:none;stroke:#999999;"/>
    <path clip-path="url(#pefc30f1856)" d="M 198.957505 103.666437 
L 198.935209 101.344503 
L 199.537918 99.410634 
" style="fill:none;stroke:#999999;"/>
    <path clip-path="url(#pefc30f1856)" d="M 205.672166 108.616331 
L 201.16408 105.293357 
" style="fill:none;stroke:#999999;"/>
    <path clip-path="url(#pefc30f1856)" d="M 205.672166 108.616331 
L 190.073669 126.912504 
" style="fill:none;stroke:#999999;"/>
    <path clip-path="url(#pefc30f1856)" d="M 205.672166 108.616331 
L 210.114804 111.891373 
L 194.257386 130.81527 
" style="fill:none;stroke:#999999;"/>
    <path clip-path="url(#pefc30f1856)" d="M 167.627455 97.260149 
L 169.250021 103.648001 
" style="fill:none;stroke:#999999;"/>
    <path clip-path="url(#pefc30f1856)" d="M 167.627455 97.260149 
L 173.379796 102.363057 
" style="fill:none;stroke:#999999;"/>
    <path clip-path="url(#pefc30f1856)" d="M 167.627455 97.260149 
L 166.87371 94.292056 
L 166.408373 92.579411 
" style="fill:none;stroke:#999999;"/>
    <path clip-path="url(#pefc30f1856)" d="M 173.379796 102.363057 
L 167.627455 97.260149 
" style="fill:none;stroke:#999999;"/>
    <path clip-path="url(#pefc30f1856)" d="M 173.379796 102.363057 
L 174.667205 103.504206 
L 177.322574 104.833395 
" style="fill:none;stroke:#999999;"/>
    <path clip-path="url(#pefc30f1856)" d="M 173.379796 102.363057 
L 169.998731 108.750909 
L 169.027062 112.70345 
" style="fill:none;stroke:#999999;"/>
    <path clip-path="url(#pefc30f1856)" d="M 182.632593 107.65124 
L 185.277175 108.384045 
" style="fill:none;stroke:#999999;"/>
    <path clip-path="url(#pefc30f1856)" d="M 182.632593 107.65124 
L 182.354254 107.125832 
L 183.0332 105.765303 
" style="fill:none;stroke:#999999;"/>
    <path clip-path="url(#pefc30f1856)" d="M 182.632593 107.65124 
L 182.249967 108.219049 
L 179.49966 112.041621 
L 178.643066 113.1883 
" style="fill:none;stroke:#999999;"/>
    <path clip-path="url(#pefc30f1856)" d="M 168.641559 93.265206 
L 166.408373 92.579411 
" style="fill:none;stroke:#999999;"/>
    <path clip-path="url(#pefc30f1856)" d="M 168.641559 93.265206 
L 177.610982 96.021293 
" style="fill:none;stroke:#999999;"/>
    <path clip-path="url(#pefc30f1856)" d="M 168.641559 93.265206 
L 176.596159 100.264191 
L 178.92644 101.857006 
" style="fill:none;stroke:#999999;"/>
    <path clip-path="url(#pefc30f1856)" d="M 179.329924 122.866864 
L 175.210937 126.689436 
" style="fill:none;stroke:#999999;"/>
    <path clip-path="url(#pefc30f1856)" d="M 179.329924 122.866864 
L 183.696324 118.81385 
" style="fill:none;stroke:#999999;"/>
    <path clip-path="url(#pefc30f1856)" d="M 179.329924 122.866864 
L 177.0205 120.59655 
" style="fill:none;stroke:#999999;"/>
    <path clip-path="url(#pefc30f1856)" d="M 194.257386 130.81527 
L 191.343816 128.292391 
L 190.073669 126.912504 
" style="fill:none;stroke:#999999;"/>
    <path clip-path="url(#pefc30f1856)" d="M 194.257386 130.81527 
L 196.648801 132.886483 
L 204.210706 139.290927 
L 208.854007 143.62508 
L 214.680428 149.257083 
L 218.345586 153.038175 
L 220.73772 156.625696 
L 221.992763 158.227729 
" style="fill:none;stroke:#999999;"/>
    <path clip-path="url(#pefc30f1856)" d="M 194.257386 130.81527 
L 210.114804 111.891373 
L 205.672166 108.616331 
" style="fill:none;stroke:#999999;"/>
    <path clip-path="url(#pefc30f1856)" d="M 178.643066 113.1883 
L 178.123788 113.884235 
" style="fill:none;stroke:#999999;"/>
    <path clip-path="url(#pefc30f1856)" d="M 178.643066 113.1883 
L 180.534621 114.711061 
" style="fill:none;stroke:#999999;"/>
    <path clip-path="url(#pefc30f1856)" d="M 178.643066 113.1883 
L 179.49966 112.041621 
L 182.249967 108.219049 
L 182.632593 107.65124 
" style="fill:none;stroke:#999999;"/>
    <path clip-path="url(#pefc30f1856)" d="M 174.879375 118.492153 
L 177.0205 120.59655 
" style="fill:none;stroke:#999999;"/>
    <path clip-path="url(#pefc30f1856)" d="M 174.879375 118.492153 
L 170.40725 123.158143 
" style="fill:none;stroke:#999999;"/>
    <path clip-path="url(#pefc30f1856)" d="M 174.879375 118.492153 
L 175.169222 118.189814 
L 177.311786 114.971921 
" style="fill:none;stroke:#999999;"/>
    <path clip-path="url(#pefc30f1856)" d="M 178.92644 101.857006 
L 177.322574 104.833395 
" style="fill:none;stroke:#999999;"/>
    <path clip-path="url(#pefc30f1856)" d="M 178.92644 101.857006 
L 181.437965 97.196547 
" style="fill:none;stroke:#999999;"/>
    <path clip-path="url(#pefc30f1856)" d="M 178.92644 101.857006 
L 176.596159 100.264191 
L 168.641559 93.265206 
" style="fill:none;stroke:#999999;"/>
    <path clip-path="url(#pefc30f1856)" d="M 526.407993 394.164391 
L 524.873172 394.141347 
" style="fill:none;stroke:#999999;"/>
    <path clip-path="url(#pefc30f1856)" d="M 526.407993 394.164391 
L 527.592552 394.182827 
" style="fill:none;stroke:#999999;"/>
    <path clip-path="url(#pefc30f1856)" d="M 525.266587 392.837045 
L 526.407993 394.164391 
" style="fill:none;stroke:#999999;"/>
    <path clip-path="url(#pefc30f1856)" d="M 525.266587 392.837045 
L 525.285287 393.289633 
L 524.873172 394.141347 
" style="fill:none;stroke:#999999;"/>
    <path clip-path="url(#pefc30f1856)" d="M 193.170641 91.738759 
L 190.795049 99.317535 
" style="fill:none;stroke:#999999;"/>
    <path clip-path="url(#pefc30f1856)" d="M 161.056638 100.885463 
L 155.881113 118.626732 
" style="fill:none;stroke:#999999;"/>
    <path clip-path="url(#pefc30f1856)" d="M 161.056638 100.885463 
L 169.250021 103.648001 
" style="fill:none;stroke:#999999;"/>
    <path clip-path="url(#pefc30f1856)" d="M 161.056638 100.885463 
L 163.730707 91.719402 
L 164.798034 91.205055 
" style="fill:none;stroke:#999999;"/>
    <path clip-path="url(#pefc30f1856)" d="M 187.114069 114.615197 
L 183.696324 118.81385 
" style="fill:none;stroke:#999999;"/>
    <path clip-path="url(#pefc30f1856)" d="M 187.114069 114.615197 
L 197.125646 102.316047 
" style="fill:none;stroke:#999999;"/>
    <path clip-path="url(#pefc30f1856)" d="M 187.114069 114.615197 
L 182.863464 111.928243 
" style="fill:none;stroke:#999999;"/>
    <path clip-path="url(#pefc30f1856)" d="M 182.863464 111.928243 
L 180.534621 114.711061 
" style="fill:none;stroke:#999999;"/>
    <path clip-path="url(#pefc30f1856)" d="M 182.863464 111.928243 
L 187.114069 114.615197 
" style="fill:none;stroke:#999999;"/>
    <path clip-path="url(#pefc30f1856)" d="M 182.863464 111.928243 
L 183.521552 111.142897 
L 185.277175 108.384045 
" style="fill:none;stroke:#999999;"/>
    <path clip-path="url(#pefc30f1856)" d="M 177.0205 120.59655 
L 179.329924 122.866864 
" style="fill:none;stroke:#999999;"/>
    <path clip-path="url(#pefc30f1856)" d="M 177.0205 120.59655 
L 174.879375 118.492153 
" style="fill:none;stroke:#999999;"/>
    <path clip-path="url(#pefc30f1856)" d="M 177.0205 120.59655 
L 172.459911 124.804421 
" style="fill:none;stroke:#999999;"/>
    <path clip-path="url(#pefc30f1856)" d="M 172.459911 124.804421 
L 175.210937 126.689436 
" style="fill:none;stroke:#999999;"/>
    <path clip-path="url(#pefc30f1856)" d="M 172.459911 124.804421 
L 177.0205 120.59655 
" style="fill:none;stroke:#999999;"/>
    <path clip-path="url(#pefc30f1856)" d="M 172.459911 124.804421 
L 172.085196 124.548169 
L 170.40725 123.158143 
" style="fill:none;stroke:#999999;"/>
    <path clip-path="url(#pefc30f1856)" d="M 176.911898 141.245075 
L 170.590651 137.689816 
" style="fill:none;stroke:#999999;"/>
   </g>
  </g>
 </g>
 <defs>
  <clipPath id="pefc30f1856">
   <rect height="432" width="470.402054" x="66.236691" y="0"/>
  </clipPath>
 </defs>
</svg>
