<?xml version="1.0" encoding="utf-8" standalone="no"?>
<!DOCTYPE svg PUBLIC "-//W3C//DTD SVG 1.1//EN"
  "http://www.w3.org/Graphics/SVG/1.1/DTD/svg11.dtd">
<!-- Created with matplotlib (http://matplotlib.org/) -->
<svg height="432pt" version="1.1" viewBox="0 0 1978.174796 432" width="1978.174796pt" xmlns="http://www.w3.org/2000/svg" xmlns:xlink="http://www.w3.org/1999/xlink">
 <defs>
  <style type="text/css">
*{stroke-linecap:butt;stroke-linejoin:round;}
  </style>
 </defs>
 <g id="figure_1">
  <g id="patch_1">
   <path d="M 0 432 
L 1978.174796 432 
L 1978.174796 0 
L 0 0 
z
" style="fill:none;opacity:0;"/>
  </g>
  <g id="axes_1">
   <g id="PathCollection_1">
    <defs>
     <path d="M 0 1.936492 
C 0.513564 1.936492 1.006162 1.732451 1.369306 1.369306 
C 1.732451 1.006162 1.936492 0.513564 1.936492 0 
C 1.936492 -0.513564 1.732451 -1.006162 1.369306 -1.369306 
C 1.006162 -1.732451 0.513564 -1.936492 0 -1.936492 
C -0.513564 -1.936492 -1.006162 -1.732451 -1.369306 -1.369306 
C -1.732451 -1.006162 -1.936492 -0.513564 -1.936492 0 
C -1.936492 0.513564 -1.732451 1.006162 -1.369306 1.369306 
C -1.006162 1.732451 -0.513564 1.936492 0 1.936492 
z
" id="C0_0_4274ec161a"/>
    </defs>
    <g clip-path="url(#pd5f615b90f)">
     <use style="fill:#66ccff;" x="1721.467038" xlink:href="#C0_0_4274ec161a" y="68.852212"/>
    </g>
    <g clip-path="url(#pd5f615b90f)">
     <use style="fill:#66ccff;" x="398.161035" xlink:href="#C0_0_4274ec161a" y="175.712839"/>
    </g>
    <g clip-path="url(#pd5f615b90f)">
     <use style="fill:#66ccff;" x="547.179746" xlink:href="#C0_0_4274ec161a" y="305.979078"/>
    </g>
    <g clip-path="url(#pd5f615b90f)">
     <use style="fill:#66ccff;" x="382.490898" xlink:href="#C0_0_4274ec161a" y="153.392486"/>
    </g>
    <g clip-path="url(#pd5f615b90f)">
     <use style="fill:#66ccff;" x="425.581822" xlink:href="#C0_0_4274ec161a" y="135.148111"/>
    </g>
    <g clip-path="url(#pd5f615b90f)">
     <use style="fill:#66ccff;" x="433.682619" xlink:href="#C0_0_4274ec161a" y="17.884989"/>
    </g>
    <g clip-path="url(#pd5f615b90f)">
     <use style="fill:#66ccff;" x="510.536634" xlink:href="#C0_0_4274ec161a" y="281.033096"/>
    </g>
    <g clip-path="url(#pd5f615b90f)">
     <use style="fill:#66ccff;" x="433.721697" xlink:href="#C0_0_4274ec161a" y="72.087988"/>
    </g>
    <g clip-path="url(#pd5f615b90f)">
     <use style="fill:#66ccff;" x="465.003356" xlink:href="#C0_0_4274ec161a" y="228.110404"/>
    </g>
    <g clip-path="url(#pd5f615b90f)">
     <use style="fill:#66ccff;" x="520.235706" xlink:href="#C0_0_4274ec161a" y="263.288841"/>
    </g>
    <g clip-path="url(#pd5f615b90f)">
     <use style="fill:#66ccff;" x="459.301927" xlink:href="#C0_0_4274ec161a" y="201.173944"/>
    </g>
    <g clip-path="url(#pd5f615b90f)">
     <use style="fill:#66ccff;" x="432.779925" xlink:href="#C0_0_4274ec161a" y="20.525622"/>
    </g>
    <g clip-path="url(#pd5f615b90f)">
     <use style="fill:#66ccff;" x="403.737416" xlink:href="#C0_0_4274ec161a" y="143.420094"/>
    </g>
    <g clip-path="url(#pd5f615b90f)">
     <use style="fill:#66ccff;" x="415.874934" xlink:href="#C0_0_4274ec161a" y="70.367575"/>
    </g>
    <g clip-path="url(#pd5f615b90f)">
     <use style="fill:#66ccff;" x="423.29578" xlink:href="#C0_0_4274ec161a" y="199.053436"/>
    </g>
    <g clip-path="url(#pd5f615b90f)">
     <use style="fill:#66ccff;" x="550.73972" xlink:href="#C0_0_4274ec161a" y="244.049227"/>
    </g>
    <g clip-path="url(#pd5f615b90f)">
     <use style="fill:#66ccff;" x="393.608489" xlink:href="#C0_0_4274ec161a" y="129.846839"/>
    </g>
    <g clip-path="url(#pd5f615b90f)">
     <use style="fill:#66ccff;" x="514.041899" xlink:href="#C0_0_4274ec161a" y="267.919951"/>
    </g>
    <g clip-path="url(#pd5f615b90f)">
     <use style="fill:#66ccff;" x="405.515449" xlink:href="#C0_0_4274ec161a" y="292.505847"/>
    </g>
    <g clip-path="url(#pd5f615b90f)">
     <use style="fill:#66ccff;" x="421.072261" xlink:href="#C0_0_4274ec161a" y="247.745113"/>
    </g>
    <g clip-path="url(#pd5f615b90f)">
     <use style="fill:#66ccff;" x="453.643483" xlink:href="#C0_0_4274ec161a" y="268.725144"/>
    </g>
    <g clip-path="url(#pd5f615b90f)">
     <use style="fill:#66ccff;" x="449.231616" xlink:href="#C0_0_4274ec161a" y="157.048363"/>
    </g>
    <g clip-path="url(#pd5f615b90f)">
     <use style="fill:#66ccff;" x="463.59656" xlink:href="#C0_0_4274ec161a" y="182.129377"/>
    </g>
    <g clip-path="url(#pd5f615b90f)">
     <use style="fill:#66ccff;" x="439.657592" xlink:href="#C0_0_4274ec161a" y="240.108282"/>
    </g>
    <g clip-path="url(#pd5f615b90f)">
     <use style="fill:#66ccff;" x="531.982448" xlink:href="#C0_0_4274ec161a" y="217.857946"/>
    </g>
    <g clip-path="url(#pd5f615b90f)">
     <use style="fill:#66ccff;" x="513.729278" xlink:href="#C0_0_4274ec161a" y="373.565286"/>
    </g>
    <g clip-path="url(#pd5f615b90f)">
     <use style="fill:#66ccff;" x="503.54955" xlink:href="#C0_0_4274ec161a" y="215.307334"/>
    </g>
    <g clip-path="url(#pd5f615b90f)">
     <use style="fill:#66ccff;" x="488.106062" xlink:href="#C0_0_4274ec161a" y="208.930805"/>
    </g>
    <g clip-path="url(#pd5f615b90f)">
     <use style="fill:#66ccff;" x="422.842479" xlink:href="#C0_0_4274ec161a" y="125.590819"/>
    </g>
    <g clip-path="url(#pd5f615b90f)">
     <use style="fill:#66ccff;" x="386.250167" xlink:href="#C0_0_4274ec161a" y="106.761303"/>
    </g>
    <g clip-path="url(#pd5f615b90f)">
     <use style="fill:#66ccff;" x="386.547158" xlink:href="#C0_0_4274ec161a" y="77.914385"/>
    </g>
    <g clip-path="url(#pd5f615b90f)">
     <use style="fill:#66ccff;" x="453.139381" xlink:href="#C0_0_4274ec161a" y="128.736573"/>
    </g>
    <g clip-path="url(#pd5f615b90f)">
     <use style="fill:#66ccff;" x="402.701858" xlink:href="#C0_0_4274ec161a" y="263.023777"/>
    </g>
    <g clip-path="url(#pd5f615b90f)">
     <use style="fill:#66ccff;" x="426.887016" xlink:href="#C0_0_4274ec161a" y="245.519579"/>
    </g>
    <g clip-path="url(#pd5f615b90f)">
     <use style="fill:#66ccff;" x="413.01445" xlink:href="#C0_0_4274ec161a" y="251.971126"/>
    </g>
    <g clip-path="url(#pd5f615b90f)">
     <use style="fill:#66ccff;" x="486.374922" xlink:href="#C0_0_4274ec161a" y="205.424964"/>
    </g>
    <g clip-path="url(#pd5f615b90f)">
     <use style="fill:#66ccff;" x="600.348797" xlink:href="#C0_0_4274ec161a" y="244.429318"/>
    </g>
    <g clip-path="url(#pd5f615b90f)">
     <use style="fill:#66ccff;" x="435.425482" xlink:href="#C0_0_4274ec161a" y="241.863702"/>
    </g>
    <g clip-path="url(#pd5f615b90f)">
     <use style="fill:#66ccff;" x="509.782435" xlink:href="#C0_0_4274ec161a" y="300.467757"/>
    </g>
    <g clip-path="url(#pd5f615b90f)">
     <use style="fill:#66ccff;" x="419.356753" xlink:href="#C0_0_4274ec161a" y="96.598866"/>
    </g>
    <g clip-path="url(#pd5f615b90f)">
     <use style="fill:#66ccff;" x="367.614036" xlink:href="#C0_0_4274ec161a" y="108.526726"/>
    </g>
    <g clip-path="url(#pd5f615b90f)">
     <use style="fill:#66ccff;" x="572.396554" xlink:href="#C0_0_4274ec161a" y="226.064914"/>
    </g>
    <g clip-path="url(#pd5f615b90f)">
     <use style="fill:#66ccff;" x="509.610493" xlink:href="#C0_0_4274ec161a" y="296.14672"/>
    </g>
    <g clip-path="url(#pd5f615b90f)">
     <use style="fill:#66ccff;" x="493.444069" xlink:href="#C0_0_4274ec161a" y="272.296001"/>
    </g>
    <g clip-path="url(#pd5f615b90f)">
     <use style="fill:#66ccff;" x="331.428132" xlink:href="#C0_0_4274ec161a" y="92.802956"/>
    </g>
    <g clip-path="url(#pd5f615b90f)">
     <use style="fill:#66ccff;" x="433.045653" xlink:href="#C0_0_4274ec161a" y="279.747788"/>
    </g>
    <g clip-path="url(#pd5f615b90f)">
     <use style="fill:#66ccff;" x="373.928984" xlink:href="#C0_0_4274ec161a" y="81.420226"/>
    </g>
    <g clip-path="url(#pd5f615b90f)">
     <use style="fill:#66ccff;" x="572.279321" xlink:href="#C0_0_4274ec161a" y="266.494609"/>
    </g>
    <g clip-path="url(#pd5f615b90f)">
     <use style="fill:#66ccff;" x="591.25152" xlink:href="#C0_0_4274ec161a" y="228.505499"/>
    </g>
    <g clip-path="url(#pd5f615b90f)">
     <use style="fill:#66ccff;" x="501.517512" xlink:href="#C0_0_4274ec161a" y="204.599766"/>
    </g>
    <g clip-path="url(#pd5f615b90f)">
     <use style="fill:#66ccff;" x="353.901689" xlink:href="#C0_0_4274ec161a" y="106.716292"/>
    </g>
    <g clip-path="url(#pd5f615b90f)">
     <use style="fill:#66ccff;" x="522.443593" xlink:href="#C0_0_4274ec161a" y="266.504612"/>
    </g>
    <g clip-path="url(#pd5f615b90f)">
     <use style="fill:#66ccff;" x="426.898739" xlink:href="#C0_0_4274ec161a" y="37.134605"/>
    </g>
    <g clip-path="url(#pd5f615b90f)">
     <use style="fill:#66ccff;" x="436.844001" xlink:href="#C0_0_4274ec161a" y="205.544993"/>
    </g>
    <g clip-path="url(#pd5f615b90f)">
     <use style="fill:#66ccff;" x="535.233708" xlink:href="#C0_0_4274ec161a" y="359.962024"/>
    </g>
    <g clip-path="url(#pd5f615b90f)">
     <use style="fill:#66ccff;" x="539.211813" xlink:href="#C0_0_4274ec161a" y="292.760908"/>
    </g>
    <g clip-path="url(#pd5f615b90f)">
     <use style="fill:#66ccff;" x="391.439679" xlink:href="#C0_0_4274ec161a" y="148.721366"/>
    </g>
    <g clip-path="url(#pd5f615b90f)">
     <use style="fill:#66ccff;" x="454.323434" xlink:href="#C0_0_4274ec161a" y="167.010752"/>
    </g>
    <g clip-path="url(#pd5f615b90f)">
     <use style="fill:#66ccff;" x="359.986079" xlink:href="#C0_0_4274ec161a" y="103.160439"/>
    </g>
    <g clip-path="url(#pd5f615b90f)">
     <use style="fill:#66ccff;" x="560.169157" xlink:href="#C0_0_4274ec161a" y="313.125792"/>
    </g>
    <g clip-path="url(#pd5f615b90f)">
     <use style="fill:#66ccff;" x="1703.420979" xlink:href="#C0_0_4274ec161a" y="88.801996"/>
    </g>
    <g clip-path="url(#pd5f615b90f)">
     <use style="fill:#66ccff;" x="1732.201669" xlink:href="#C0_0_4274ec161a" y="87.061579"/>
    </g>
    <g clip-path="url(#pd5f615b90f)">
     <use style="fill:#66ccff;" x="593.928339" xlink:href="#C0_0_4274ec161a" y="212.37163"/>
    </g>
    <g clip-path="url(#pd5f615b90f)">
     <use style="fill:#66ccff;" x="619.070899" xlink:href="#C0_0_4274ec161a" y="207.970574"/>
    </g>
    <g clip-path="url(#pd5f615b90f)">
     <use style="fill:#66ccff;" x="421.986678" xlink:href="#C0_0_4274ec161a" y="121.369806"/>
    </g>
    <g clip-path="url(#pd5f615b90f)">
     <use style="fill:#66ccff;" x="453.885764" xlink:href="#C0_0_4274ec161a" y="69.617395"/>
    </g>
    <g clip-path="url(#pd5f615b90f)">
     <use style="fill:#66ccff;" x="433.69825" xlink:href="#C0_0_4274ec161a" y="64.701216"/>
    </g>
    <g clip-path="url(#pd5f615b90f)">
     <use style="fill:#66ccff;" x="390.8965" xlink:href="#C0_0_4274ec161a" y="60.490206"/>
    </g>
    <g clip-path="url(#pd5f615b90f)">
     <use style="fill:#66ccff;" x="385.167717" xlink:href="#C0_0_4274ec161a" y="49.737628"/>
    </g>
    <g clip-path="url(#pd5f615b90f)">
     <use style="fill:#66ccff;" x="415.808502" xlink:href="#C0_0_4274ec161a" y="30.753075"/>
    </g>
    <g clip-path="url(#pd5f615b90f)">
     <use style="fill:#66ccff;" x="404.86676" xlink:href="#C0_0_4274ec161a" y="8.307692"/>
    </g>
    <g clip-path="url(#pd5f615b90f)">
     <use style="fill:#66ccff;" x="419.489617" xlink:href="#C0_0_4274ec161a" y="136.093337"/>
    </g>
    <g clip-path="url(#pd5f615b90f)">
     <use style="fill:#66ccff;" x="425.101167" xlink:href="#C0_0_4274ec161a" y="133.467708"/>
    </g>
    <g clip-path="url(#pd5f615b90f)">
     <use style="fill:#66ccff;" x="418.125807" xlink:href="#C0_0_4274ec161a" y="127.1812"/>
    </g>
    <g clip-path="url(#pd5f615b90f)">
     <use style="fill:#66ccff;" x="447.137054" xlink:href="#C0_0_4274ec161a" y="120.394572"/>
    </g>
    <g clip-path="url(#pd5f615b90f)">
     <use style="fill:#66ccff;" x="513.95202" xlink:href="#C0_0_4274ec161a" y="246.294765"/>
    </g>
    <g clip-path="url(#pd5f615b90f)">
     <use style="fill:#66ccff;" x="271.510371" xlink:href="#C0_0_4274ec161a" y="216.637653"/>
    </g>
    <g clip-path="url(#pd5f615b90f)">
     <use style="fill:#66ccff;" x="245.973127" xlink:href="#C0_0_4274ec161a" y="211.096324"/>
    </g>
    <g clip-path="url(#pd5f615b90f)">
     <use style="fill:#66ccff;" x="264.914064" xlink:href="#C0_0_4274ec161a" y="203.554515"/>
    </g>
    <g clip-path="url(#pd5f615b90f)">
     <use style="fill:#66ccff;" x="259.837877" xlink:href="#C0_0_4274ec161a" y="193.492102"/>
    </g>
    <g clip-path="url(#pd5f615b90f)">
     <use style="fill:#66ccff;" x="396.832395" xlink:href="#C0_0_4274ec161a" y="170.88168"/>
    </g>
    <g clip-path="url(#pd5f615b90f)">
     <use style="fill:#66ccff;" x="389.477981" xlink:href="#C0_0_4274ec161a" y="149.746611"/>
    </g>
    <g clip-path="url(#pd5f615b90f)">
     <use style="fill:#66ccff;" x="414.987871" xlink:href="#C0_0_4274ec161a" y="127.756338"/>
    </g>
    <g clip-path="url(#pd5f615b90f)">
     <use style="fill:#66ccff;" x="408.133652" xlink:href="#C0_0_4274ec161a" y="114.428142"/>
    </g>
    <g clip-path="url(#pd5f615b90f)">
     <use style="fill:#66ccff;" x="420.681485" xlink:href="#C0_0_4274ec161a" y="113.79799"/>
    </g>
    <g clip-path="url(#pd5f615b90f)">
     <use style="fill:#66ccff;" x="328.184687" xlink:href="#C0_0_4274ec161a" y="113.222853"/>
    </g>
    <g clip-path="url(#pd5f615b90f)">
     <use style="fill:#66ccff;" x="420.239908" xlink:href="#C0_0_4274ec161a" y="110.952308"/>
    </g>
    <g clip-path="url(#pd5f615b90f)">
     <use style="fill:#66ccff;" x="439.145675" xlink:href="#C0_0_4274ec161a" y="106.506242"/>
    </g>
    <g clip-path="url(#pd5f615b90f)">
     <use style="fill:#66ccff;" x="404.792512" xlink:href="#C0_0_4274ec161a" y="103.605546"/>
    </g>
    <g clip-path="url(#pd5f615b90f)">
     <use style="fill:#66ccff;" x="347.164702" xlink:href="#C0_0_4274ec161a" y="101.685086"/>
    </g>
    <g clip-path="url(#pd5f615b90f)">
     <use style="fill:#66ccff;" x="345.17565" xlink:href="#C0_0_4274ec161a" y="100.65984"/>
    </g>
    <g clip-path="url(#pd5f615b90f)">
     <use style="fill:#66ccff;" x="340.333929" xlink:href="#C0_0_4274ec161a" y="74.163486"/>
    </g>
    <g clip-path="url(#pd5f615b90f)">
     <use style="fill:#66ccff;" x="382.576868" xlink:href="#C0_0_4274ec161a" y="132.052368"/>
    </g>
    <g clip-path="url(#pd5f615b90f)">
     <use style="fill:#66ccff;" x="432.979221" xlink:href="#C0_0_4274ec161a" y="343.468069"/>
    </g>
    <g clip-path="url(#pd5f615b90f)">
     <use style="fill:#66ccff;" x="495.003268" xlink:href="#C0_0_4274ec161a" y="320.727615"/>
    </g>
    <g clip-path="url(#pd5f615b90f)">
     <use style="fill:#66ccff;" x="406.226662" xlink:href="#C0_0_4274ec161a" y="318.777147"/>
    </g>
    <g clip-path="url(#pd5f615b90f)">
     <use style="fill:#66ccff;" x="510.716391" xlink:href="#C0_0_4274ec161a" y="317.776908"/>
    </g>
    <g clip-path="url(#pd5f615b90f)">
     <use style="fill:#66ccff;" x="516.722626" xlink:href="#C0_0_4274ec161a" y="316.686646"/>
    </g>
    <g clip-path="url(#pd5f615b90f)">
     <use style="fill:#66ccff;" x="604.901343" xlink:href="#C0_0_4274ec161a" y="296.776871"/>
    </g>
    <g clip-path="url(#pd5f615b90f)">
     <use style="fill:#66ccff;" x="370.58003" xlink:href="#C0_0_4274ec161a" y="285.839248"/>
    </g>
    <g clip-path="url(#pd5f615b90f)">
     <use style="fill:#66ccff;" x="589.958049" xlink:href="#C0_0_4274ec161a" y="285.539177"/>
    </g>
    <g clip-path="url(#pd5f615b90f)">
     <use style="fill:#66ccff;" x="373.671072" xlink:href="#C0_0_4274ec161a" y="280.54798"/>
    </g>
    <g clip-path="url(#pd5f615b90f)">
     <use style="fill:#66ccff;" x="494.010695" xlink:href="#C0_0_4274ec161a" y="275.161688"/>
    </g>
    <g clip-path="url(#pd5f615b90f)">
     <use style="fill:#66ccff;" x="604.240931" xlink:href="#C0_0_4274ec161a" y="256.622242"/>
    </g>
    <g clip-path="url(#pd5f615b90f)">
     <use style="fill:#66ccff;" x="478.797766" xlink:href="#C0_0_4274ec161a" y="254.281681"/>
    </g>
    <g clip-path="url(#pd5f615b90f)">
     <use style="fill:#66ccff;" x="447.457491" xlink:href="#C0_0_4274ec161a" y="253.481489"/>
    </g>
    <g clip-path="url(#pd5f615b90f)">
     <use style="fill:#66ccff;" x="485.034559" xlink:href="#C0_0_4274ec161a" y="252.326212"/>
    </g>
    <g clip-path="url(#pd5f615b90f)">
     <use style="fill:#66ccff;" x="483.448006" xlink:href="#C0_0_4274ec161a" y="251.841095"/>
    </g>
    <g clip-path="url(#pd5f615b90f)">
     <use style="fill:#66ccff;" x="507.175956" xlink:href="#C0_0_4274ec161a" y="238.737953"/>
    </g>
    <g clip-path="url(#pd5f615b90f)">
     <use style="fill:#66ccff;" x="455.261297" xlink:href="#C0_0_4274ec161a" y="231.876307"/>
    </g>
    <g clip-path="url(#pd5f615b90f)">
     <use style="fill:#66ccff;" x="453.608313" xlink:href="#C0_0_4274ec161a" y="224.459529"/>
    </g>
    <g clip-path="url(#pd5f615b90f)">
     <use style="fill:#66ccff;" x="435.140215" xlink:href="#C0_0_4274ec161a" y="222.894153"/>
    </g>
    <g clip-path="url(#pd5f615b90f)">
     <use style="fill:#66ccff;" x="413.57326" xlink:href="#C0_0_4274ec161a" y="205.585002"/>
    </g>
    <g clip-path="url(#pd5f615b90f)">
     <use style="fill:#66ccff;" x="506.886781" xlink:href="#C0_0_4274ec161a" y="205.494981"/>
    </g>
    <g clip-path="url(#pd5f615b90f)">
     <use style="fill:#66ccff;" x="421.123062" xlink:href="#C0_0_4274ec161a" y="205.029869"/>
    </g>
    <g clip-path="url(#pd5f615b90f)">
     <use style="fill:#66ccff;" x="542.709263" xlink:href="#C0_0_4274ec161a" y="204.259684"/>
    </g>
    <g clip-path="url(#pd5f615b90f)">
     <use style="fill:#66ccff;" x="449.970184" xlink:href="#C0_0_4274ec161a" y="203.789572"/>
    </g>
    <g clip-path="url(#pd5f615b90f)">
     <use style="fill:#66ccff;" x="479.657474" xlink:href="#C0_0_4274ec161a" y="202.73932"/>
    </g>
    <g clip-path="url(#pd5f615b90f)">
     <use style="fill:#66ccff;" x="456.539137" xlink:href="#C0_0_4274ec161a" y="193.962215"/>
    </g>
    <g clip-path="url(#pd5f615b90f)">
     <use style="fill:#66ccff;" x="439.262908" xlink:href="#C0_0_4274ec161a" y="192.19179"/>
    </g>
    <g clip-path="url(#pd5f615b90f)">
     <use style="fill:#66ccff;" x="542.212977" xlink:href="#C0_0_4274ec161a" y="183.294657"/>
    </g>
    <g clip-path="url(#pd5f615b90f)">
     <use style="fill:#66ccff;" x="418.10236" xlink:href="#C0_0_4274ec161a" y="182.869555"/>
    </g>
    <g clip-path="url(#pd5f615b90f)">
     <use style="fill:#66ccff;" x="529.579172" xlink:href="#C0_0_4274ec161a" y="176.973141"/>
    </g>
    <g clip-path="url(#pd5f615b90f)">
     <use style="fill:#66ccff;" x="413.444304" xlink:href="#C0_0_4274ec161a" y="170.076487"/>
    </g>
    <g clip-path="url(#pd5f615b90f)">
     <use style="fill:#66ccff;" x="428.876068" xlink:href="#C0_0_4274ec161a" y="161.859516"/>
    </g>
    <g clip-path="url(#pd5f615b90f)">
     <use style="fill:#66ccff;" x="442.451644" xlink:href="#C0_0_4274ec161a" y="151.151948"/>
    </g>
    <g clip-path="url(#pd5f615b90f)">
     <use style="fill:#66ccff;" x="464.553963" xlink:href="#C0_0_4274ec161a" y="147.771138"/>
    </g>
    <g clip-path="url(#pd5f615b90f)">
     <use style="fill:#66ccff;" x="483.194002" xlink:href="#C0_0_4274ec161a" y="135.68824"/>
    </g>
   </g>
   <g id="LineCollection_1">
    <path clip-path="url(#pd5f615b90f)" d="M 1721.467038 68.852212 
L 1729.669437 81.835325 
L 1732.201669 87.061579 
" style="fill:none;stroke:#999999;"/>
    <path clip-path="url(#pd5f615b90f)" d="M 398.161035 175.712839 
L 396.832395 170.88168 
" style="fill:none;stroke:#999999;"/>
    <path clip-path="url(#pd5f615b90f)" d="M 398.161035 175.712839 
L 413.444304 170.076487 
" style="fill:none;stroke:#999999;"/>
    <path clip-path="url(#pd5f615b90f)" d="M 398.161035 175.712839 
L 398.004725 210.916281 
L 393.999265 223.62933 
L 391.912519 237.562671 
L 388.969972 245.799646 
L 384.280654 255.346936 
L 380.103253 269.160249 
L 373.671072 280.54798 
" style="fill:none;stroke:#999999;"/>
    <path clip-path="url(#pd5f615b90f)" d="M 398.161035 175.712839 
L 407.668627 189.656182 
L 413.600615 202.649298 
L 413.57326 205.585002 
" style="fill:none;stroke:#999999;"/>
    <path clip-path="url(#pd5f615b90f)" d="M 547.179746 305.979078 
L 560.169157 313.125792 
" style="fill:none;stroke:#999999;"/>
    <path clip-path="url(#pd5f615b90f)" d="M 547.179746 305.979078 
L 539.211813 292.760908 
" style="fill:none;stroke:#999999;"/>
    <path clip-path="url(#pd5f615b90f)" d="M 547.179746 305.979078 
L 543.11567 311.680446 
L 533.107884 313.970995 
L 516.722626 316.686646 
" style="fill:none;stroke:#999999;"/>
    <path clip-path="url(#pd5f615b90f)" d="M 382.490898 153.392486 
L 389.477981 149.746611 
" style="fill:none;stroke:#999999;"/>
    <path clip-path="url(#pd5f615b90f)" d="M 382.490898 153.392486 
L 365.918066 166.165549 
L 336.097911 187.380637 
L 323.499277 196.412803 
L 310.627099 202.299214 
L 297.153125 207.585482 
L 271.510371 216.637653 
" style="fill:none;stroke:#999999;"/>
    <path clip-path="url(#pd5f615b90f)" d="M 382.490898 153.392486 
L 373.772674 141.439619 
L 363.194354 125.870886 
L 353.901689 106.716292 
" style="fill:none;stroke:#999999;"/>
    <path clip-path="url(#pd5f615b90f)" d="M 425.581822 135.148111 
L 440.134339 149.136465 
L 442.451644 151.151948 
" style="fill:none;stroke:#999999;"/>
    <path clip-path="url(#pd5f615b90f)" d="M 425.581822 135.148111 
L 422.783863 134.943061 
L 420.161752 135.858281 
L 419.489617 136.093337 
" style="fill:none;stroke:#999999;"/>
    <path clip-path="url(#pd5f615b90f)" d="M 433.682619 17.884989 
L 432.779925 20.525622 
" style="fill:none;stroke:#999999;"/>
    <path clip-path="url(#pd5f615b90f)" d="M 510.536634 281.033096 
L 509.610493 296.14672 
" style="fill:none;stroke:#999999;"/>
    <path clip-path="url(#pd5f615b90f)" d="M 510.536634 281.033096 
L 512.134909 276.206939 
L 514.041899 267.919951 
" style="fill:none;stroke:#999999;"/>
    <path clip-path="url(#pd5f615b90f)" d="M 510.536634 281.033096 
L 484.229559 280.277915 
L 457.625495 278.537497 
L 453.643483 268.725144 
" style="fill:none;stroke:#999999;"/>
    <path clip-path="url(#pd5f615b90f)" d="M 433.721697 72.087988 
L 433.69825 64.701216 
" style="fill:none;stroke:#999999;"/>
    <path clip-path="url(#pd5f615b90f)" d="M 433.721697 72.087988 
L 434.003056 85.296155 
L 439.145675 106.506242 
" style="fill:none;stroke:#999999;"/>
    <path clip-path="url(#pd5f615b90f)" d="M 433.721697 72.087988 
L 424.550172 71.467839 
L 417.441948 70.982723 
L 415.874934 70.367575 
" style="fill:none;stroke:#999999;"/>
    <path clip-path="url(#pd5f615b90f)" d="M 465.003356 228.110404 
L 455.261297 231.876307 
" style="fill:none;stroke:#999999;"/>
    <path clip-path="url(#pd5f615b90f)" d="M 465.003356 228.110404 
L 471.091654 224.824616 
L 477.738762 216.067516 
L 488.106062 208.930805 
" style="fill:none;stroke:#999999;"/>
    <path clip-path="url(#pd5f615b90f)" d="M 465.003356 228.110404 
L 474.397623 239.263079 
L 481.849731 251.350978 
L 483.448006 251.841095 
" style="fill:none;stroke:#999999;"/>
    <path clip-path="url(#pd5f615b90f)" d="M 520.235706 263.288841 
L 522.443593 266.504612 
" style="fill:none;stroke:#999999;"/>
    <path clip-path="url(#pd5f615b90f)" d="M 520.235706 263.288841 
L 516.761703 266.759673 
L 514.041899 267.919951 
" style="fill:none;stroke:#999999;"/>
    <path clip-path="url(#pd5f615b90f)" d="M 520.235706 263.288841 
L 517.383038 254.606758 
L 513.95202 246.294765 
" style="fill:none;stroke:#999999;"/>
    <path clip-path="url(#pd5f615b90f)" d="M 459.301927 201.173944 
L 456.539137 193.962215 
" style="fill:none;stroke:#999999;"/>
    <path clip-path="url(#pd5f615b90f)" d="M 459.301927 201.173944 
L 460.31013 202.429246 
L 463.698162 211.486418 
L 466.617263 210.91128 
L 478.086553 205.244921 
L 479.657474 202.73932 
" style="fill:none;stroke:#999999;"/>
    <path clip-path="url(#pd5f615b90f)" d="M 459.301927 201.173944 
L 457.8795 202.044153 
L 449.970184 203.789572 
" style="fill:none;stroke:#999999;"/>
    <path clip-path="url(#pd5f615b90f)" d="M 432.779925 20.525622 
L 426.898739 37.134605 
" style="fill:none;stroke:#999999;"/>
    <path clip-path="url(#pd5f615b90f)" d="M 432.779925 20.525622 
L 433.682619 17.884989 
" style="fill:none;stroke:#999999;"/>
    <path clip-path="url(#pd5f615b90f)" d="M 432.779925 20.525622 
L 419.431 25.8519 
L 415.808502 30.753075 
" style="fill:none;stroke:#999999;"/>
    <path clip-path="url(#pd5f615b90f)" d="M 403.737416 143.420094 
L 413.444304 170.076487 
" style="fill:none;stroke:#999999;"/>
    <path clip-path="url(#pd5f615b90f)" d="M 403.737416 143.420094 
L 413.854619 138.573932 
L 416.257895 137.243613 
L 419.489617 136.093337 
" style="fill:none;stroke:#999999;"/>
    <path clip-path="url(#pd5f615b90f)" d="M 403.737416 143.420094 
L 397.699919 145.915693 
L 391.439679 148.721366 
" style="fill:none;stroke:#999999;"/>
    <path clip-path="url(#pd5f615b90f)" d="M 415.874934 70.367575 
L 415.198891 71.837928 
L 419.356753 96.598866 
" style="fill:none;stroke:#999999;"/>
    <path clip-path="url(#pd5f615b90f)" d="M 415.874934 70.367575 
L 417.617797 70.242545 
L 420.79481 56.489247 
L 422.834663 44.621401 
L 426.898739 37.134605 
" style="fill:none;stroke:#999999;"/>
    <path clip-path="url(#pd5f615b90f)" d="M 415.874934 70.367575 
L 412.475178 69.487364 
L 407.023846 70.772672 
L 400.07584 74.13848 
L 386.547158 77.914385 
" style="fill:none;stroke:#999999;"/>
    <path clip-path="url(#pd5f615b90f)" d="M 415.874934 70.367575 
L 417.441948 70.982723 
L 424.550172 71.467839 
L 433.721697 72.087988 
" style="fill:none;stroke:#999999;"/>
    <path clip-path="url(#pd5f615b90f)" d="M 423.29578 199.053436 
L 418.10236 182.869555 
" style="fill:none;stroke:#999999;"/>
    <path clip-path="url(#pd5f615b90f)" d="M 423.29578 199.053436 
L 426.871385 203.554515 
L 436.844001 205.544993 
" style="fill:none;stroke:#999999;"/>
    <path clip-path="url(#pd5f615b90f)" d="M 423.29578 199.053436 
L 421.506023 200.043673 
L 421.123062 205.029869 
" style="fill:none;stroke:#999999;"/>
    <path clip-path="url(#pd5f615b90f)" d="M 550.73972 244.049227 
L 522.443593 266.504612 
" style="fill:none;stroke:#999999;"/>
    <path clip-path="url(#pd5f615b90f)" d="M 550.73972 244.049227 
L 572.396554 226.064914 
" style="fill:none;stroke:#999999;"/>
    <path clip-path="url(#pd5f615b90f)" d="M 550.73972 244.049227 
L 572.279321 266.494609 
" style="fill:none;stroke:#999999;"/>
    <path clip-path="url(#pd5f615b90f)" d="M 550.73972 244.049227 
L 539.438463 229.84582 
L 531.982448 217.857946 
" style="fill:none;stroke:#999999;"/>
    <path clip-path="url(#pd5f615b90f)" d="M 393.608489 129.846839 
L 388.243128 117.79895 
L 386.250167 106.761303 
" style="fill:none;stroke:#999999;"/>
    <path clip-path="url(#pd5f615b90f)" d="M 393.608489 129.846839 
L 399.614724 129.171677 
L 409.501369 128.026403 
L 414.987871 127.756338 
" style="fill:none;stroke:#999999;"/>
    <path clip-path="url(#pd5f615b90f)" d="M 393.608489 129.846839 
L 389.243515 130.677038 
L 382.576868 132.052368 
" style="fill:none;stroke:#999999;"/>
    <path clip-path="url(#pd5f615b90f)" d="M 514.041899 267.919951 
L 493.444069 272.296001 
" style="fill:none;stroke:#999999;"/>
    <path clip-path="url(#pd5f615b90f)" d="M 514.041899 267.919951 
L 516.761703 266.759673 
L 520.235706 263.288841 
" style="fill:none;stroke:#999999;"/>
    <path clip-path="url(#pd5f615b90f)" d="M 514.041899 267.919951 
L 512.134909 276.206939 
L 510.536634 281.033096 
" style="fill:none;stroke:#999999;"/>
    <path clip-path="url(#pd5f615b90f)" d="M 405.515449 292.505847 
L 406.226662 318.777147 
" style="fill:none;stroke:#999999;"/>
    <path clip-path="url(#pd5f615b90f)" d="M 405.515449 292.505847 
L 402.701858 263.023777 
" style="fill:none;stroke:#999999;"/>
    <path clip-path="url(#pd5f615b90f)" d="M 405.515449 292.505847 
L 412.189912 290.585387 
L 433.045653 279.747788 
" style="fill:none;stroke:#999999;"/>
    <path clip-path="url(#pd5f615b90f)" d="M 405.515449 292.505847 
L 393.897664 291.980721 
L 378.911385 289.215058 
L 370.58003 285.839248 
" style="fill:none;stroke:#999999;"/>
    <path clip-path="url(#pd5f615b90f)" d="M 421.072261 247.745113 
L 426.887016 245.519579 
" style="fill:none;stroke:#999999;"/>
    <path clip-path="url(#pd5f615b90f)" d="M 421.072261 247.745113 
L 417.793647 249.185458 
L 413.01445 251.971126 
" style="fill:none;stroke:#999999;"/>
    <path clip-path="url(#pd5f615b90f)" d="M 421.072261 247.745113 
L 420.525174 234.276883 
L 421.334082 219.183263 
L 421.123062 205.029869 
" style="fill:none;stroke:#999999;"/>
    <path clip-path="url(#pd5f615b90f)" d="M 453.643483 268.725144 
L 447.457491 253.481489 
" style="fill:none;stroke:#999999;"/>
    <path clip-path="url(#pd5f615b90f)" d="M 453.643483 268.725144 
L 457.625495 278.537497 
L 484.229559 280.277915 
L 510.536634 281.033096 
" style="fill:none;stroke:#999999;"/>
    <path clip-path="url(#pd5f615b90f)" d="M 453.643483 268.725144 
L 450.521179 271.340772 
L 445.882661 273.08619 
L 433.045653 279.747788 
" style="fill:none;stroke:#999999;"/>
    <path clip-path="url(#pd5f615b90f)" d="M 453.643483 268.725144 
L 467.160442 262.658689 
L 479.536334 259.968044 
L 478.797766 254.281681 
" style="fill:none;stroke:#999999;"/>
    <path clip-path="url(#pd5f615b90f)" d="M 449.231616 157.048363 
L 442.451644 151.151948 
" style="fill:none;stroke:#999999;"/>
    <path clip-path="url(#pd5f615b90f)" d="M 449.231616 157.048363 
L 452.467246 148.351277 
L 451.6896 136.613462 
L 453.139381 128.736573 
" style="fill:none;stroke:#999999;"/>
    <path clip-path="url(#pd5f615b90f)" d="M 449.231616 157.048363 
L 452.154624 160.989308 
L 454.323434 167.010752 
" style="fill:none;stroke:#999999;"/>
    <path clip-path="url(#pd5f615b90f)" d="M 463.59656 182.129377 
L 454.323434 167.010752 
" style="fill:none;stroke:#999999;"/>
    <path clip-path="url(#pd5f615b90f)" d="M 463.59656 182.129377 
L 457.203457 186.715477 
L 455.874817 187.975779 
L 456.539137 193.962215 
" style="fill:none;stroke:#999999;"/>
    <path clip-path="url(#pd5f615b90f)" d="M 463.59656 182.129377 
L 470.087358 192.821942 
L 476.820437 202.499262 
L 479.657474 202.73932 
" style="fill:none;stroke:#999999;"/>
    <path clip-path="url(#pd5f615b90f)" d="M 439.657592 240.108282 
L 435.425482 241.863702 
" style="fill:none;stroke:#999999;"/>
    <path clip-path="url(#pd5f615b90f)" d="M 439.657592 240.108282 
L 455.261297 231.876307 
" style="fill:none;stroke:#999999;"/>
    <path clip-path="url(#pd5f615b90f)" d="M 439.657592 240.108282 
L 445.882661 249.605559 
L 447.457491 253.481489 
" style="fill:none;stroke:#999999;"/>
    <path clip-path="url(#pd5f615b90f)" d="M 531.982448 217.857946 
L 539.438463 229.84582 
L 550.73972 244.049227 
" style="fill:none;stroke:#999999;"/>
    <path clip-path="url(#pd5f615b90f)" d="M 531.982448 217.857946 
L 517.769907 215.777447 
L 503.54955 215.307334 
" style="fill:none;stroke:#999999;"/>
    <path clip-path="url(#pd5f615b90f)" d="M 531.982448 217.857946 
L 558.027702 224.304492 
L 572.396554 226.064914 
" style="fill:none;stroke:#999999;"/>
    <path clip-path="url(#pd5f615b90f)" d="M 513.729278 373.565286 
L 510.716391 317.776908 
" style="fill:none;stroke:#999999;"/>
    <path clip-path="url(#pd5f615b90f)" d="M 503.54955 215.307334 
L 501.517512 204.599766 
" style="fill:none;stroke:#999999;"/>
    <path clip-path="url(#pd5f615b90f)" d="M 503.54955 215.307334 
L 510.96258 237.032544 
L 513.95202 246.294765 
" style="fill:none;stroke:#999999;"/>
    <path clip-path="url(#pd5f615b90f)" d="M 503.54955 215.307334 
L 517.769907 215.777447 
L 531.982448 217.857946 
" style="fill:none;stroke:#999999;"/>
    <path clip-path="url(#pd5f615b90f)" d="M 488.106062 208.930805 
L 486.374922 205.424964 
" style="fill:none;stroke:#999999;"/>
    <path clip-path="url(#pd5f615b90f)" d="M 488.106062 208.930805 
L 477.738762 216.067516 
L 471.091654 224.824616 
L 465.003356 228.110404 
" style="fill:none;stroke:#999999;"/>
    <path clip-path="url(#pd5f615b90f)" d="M 488.106062 208.930805 
L 499.864527 227.05015 
L 507.175956 238.737953 
" style="fill:none;stroke:#999999;"/>
    <path clip-path="url(#pd5f615b90f)" d="M 422.842479 125.590819 
L 425.101167 133.467708 
" style="fill:none;stroke:#999999;"/>
    <path clip-path="url(#pd5f615b90f)" d="M 422.842479 125.590819 
L 419.931194 125.675839 
L 418.125807 127.1812 
" style="fill:none;stroke:#999999;"/>
    <path clip-path="url(#pd5f615b90f)" d="M 386.250167 106.761303 
L 367.614036 108.526726 
" style="fill:none;stroke:#999999;"/>
    <path clip-path="url(#pd5f615b90f)" d="M 386.250167 106.761303 
L 388.243128 117.79895 
L 393.608489 129.846839 
" style="fill:none;stroke:#999999;"/>
    <path clip-path="url(#pd5f615b90f)" d="M 386.250167 106.761303 
L 385.464707 91.907741 
L 386.547158 77.914385 
" style="fill:none;stroke:#999999;"/>
    <path clip-path="url(#pd5f615b90f)" d="M 386.250167 106.761303 
L 393.639751 107.131392 
L 398.563535 106.851325 
L 402.69795 105.240938 
L 404.792512 103.605546 
" style="fill:none;stroke:#999999;"/>
    <path clip-path="url(#pd5f615b90f)" d="M 386.547158 77.914385 
L 373.928984 81.420226 
" style="fill:none;stroke:#999999;"/>
    <path clip-path="url(#pd5f615b90f)" d="M 386.547158 77.914385 
L 400.07584 74.13848 
L 407.023846 70.772672 
L 412.475178 69.487364 
L 415.874934 70.367575 
" style="fill:none;stroke:#999999;"/>
    <path clip-path="url(#pd5f615b90f)" d="M 386.547158 77.914385 
L 385.464707 91.907741 
L 386.250167 106.761303 
" style="fill:none;stroke:#999999;"/>
    <path clip-path="url(#pd5f615b90f)" d="M 453.139381 128.736573 
L 452.02176 125.870886 
L 447.137054 120.394572 
" style="fill:none;stroke:#999999;"/>
    <path clip-path="url(#pd5f615b90f)" d="M 453.139381 128.736573 
L 451.6896 136.613462 
L 452.467246 148.351277 
L 449.231616 157.048363 
" style="fill:none;stroke:#999999;"/>
    <path clip-path="url(#pd5f615b90f)" d="M 453.139381 128.736573 
L 457.605956 133.527722 
L 464.553963 147.771138 
" style="fill:none;stroke:#999999;"/>
    <path clip-path="url(#pd5f615b90f)" d="M 402.701858 263.023777 
L 405.515449 292.505847 
" style="fill:none;stroke:#999999;"/>
    <path clip-path="url(#pd5f615b90f)" d="M 402.701858 263.023777 
L 405.214551 259.247871 
L 413.01445 251.971126 
" style="fill:none;stroke:#999999;"/>
    <path clip-path="url(#pd5f615b90f)" d="M 402.701858 263.023777 
L 397.778074 272.726104 
L 394.460382 278.092391 
L 383.671043 279.902825 
L 373.671072 280.54798 
" style="fill:none;stroke:#999999;"/>
    <path clip-path="url(#pd5f615b90f)" d="M 426.887016 245.519579 
L 421.072261 247.745113 
" style="fill:none;stroke:#999999;"/>
    <path clip-path="url(#pd5f615b90f)" d="M 426.887016 245.519579 
L 435.425482 241.863702 
" style="fill:none;stroke:#999999;"/>
    <path clip-path="url(#pd5f615b90f)" d="M 426.887016 245.519579 
L 431.439562 259.838013 
L 433.045653 279.747788 
" style="fill:none;stroke:#999999;"/>
    <path clip-path="url(#pd5f615b90f)" d="M 413.01445 251.971126 
L 413.57326 205.585002 
" style="fill:none;stroke:#999999;"/>
    <path clip-path="url(#pd5f615b90f)" d="M 413.01445 251.971126 
L 405.214551 259.247871 
L 402.701858 263.023777 
" style="fill:none;stroke:#999999;"/>
    <path clip-path="url(#pd5f615b90f)" d="M 413.01445 251.971126 
L 417.793647 249.185458 
L 421.072261 247.745113 
" style="fill:none;stroke:#999999;"/>
    <path clip-path="url(#pd5f615b90f)" d="M 486.374922 205.424964 
L 501.517512 204.599766 
" style="fill:none;stroke:#999999;"/>
    <path clip-path="url(#pd5f615b90f)" d="M 486.374922 205.424964 
L 488.106062 208.930805 
" style="fill:none;stroke:#999999;"/>
    <path clip-path="url(#pd5f615b90f)" d="M 486.374922 205.424964 
L 482.510143 202.979377 
L 479.657474 202.73932 
" style="fill:none;stroke:#999999;"/>
    <path clip-path="url(#pd5f615b90f)" d="M 600.348797 244.429318 
L 572.279321 266.494609 
" style="fill:none;stroke:#999999;"/>
    <path clip-path="url(#pd5f615b90f)" d="M 600.348797 244.429318 
L 597.656347 237.027543 
L 597.332002 231.63625 
L 591.25152 228.505499 
" style="fill:none;stroke:#999999;"/>
    <path clip-path="url(#pd5f615b90f)" d="M 600.348797 244.429318 
L 603.045154 250.055667 
L 604.240931 256.622242 
" style="fill:none;stroke:#999999;"/>
    <path clip-path="url(#pd5f615b90f)" d="M 435.425482 241.863702 
L 426.887016 245.519579 
" style="fill:none;stroke:#999999;"/>
    <path clip-path="url(#pd5f615b90f)" d="M 435.425482 241.863702 
L 439.657592 240.108282 
" style="fill:none;stroke:#999999;"/>
    <path clip-path="url(#pd5f615b90f)" d="M 435.425482 241.863702 
L 434.132012 233.176619 
L 435.140215 222.894153 
" style="fill:none;stroke:#999999;"/>
    <path clip-path="url(#pd5f615b90f)" d="M 509.782435 300.467757 
L 510.716391 317.776908 
" style="fill:none;stroke:#999999;"/>
    <path clip-path="url(#pd5f615b90f)" d="M 509.782435 300.467757 
L 509.610493 296.14672 
" style="fill:none;stroke:#999999;"/>
    <path clip-path="url(#pd5f615b90f)" d="M 509.782435 300.467757 
L 516.722626 316.686646 
" style="fill:none;stroke:#999999;"/>
    <path clip-path="url(#pd5f615b90f)" d="M 419.356753 96.598866 
L 420.239908 110.952308 
" style="fill:none;stroke:#999999;"/>
    <path clip-path="url(#pd5f615b90f)" d="M 419.356753 96.598866 
L 415.198891 71.837928 
L 415.874934 70.367575 
" style="fill:none;stroke:#999999;"/>
    <path clip-path="url(#pd5f615b90f)" d="M 419.356753 96.598866 
L 406.433774 102.325239 
L 404.792512 103.605546 
" style="fill:none;stroke:#999999;"/>
    <path clip-path="url(#pd5f615b90f)" d="M 367.614036 108.526726 
L 386.250167 106.761303 
" style="fill:none;stroke:#999999;"/>
    <path clip-path="url(#pd5f615b90f)" d="M 367.614036 108.526726 
L 359.986079 103.160439 
" style="fill:none;stroke:#999999;"/>
    <path clip-path="url(#pd5f615b90f)" d="M 367.614036 108.526726 
L 376.140779 124.265501 
L 382.576868 132.052368 
" style="fill:none;stroke:#999999;"/>
    <path clip-path="url(#pd5f615b90f)" d="M 572.396554 226.064914 
L 550.73972 244.049227 
" style="fill:none;stroke:#999999;"/>
    <path clip-path="url(#pd5f615b90f)" d="M 572.396554 226.064914 
L 591.25152 228.505499 
" style="fill:none;stroke:#999999;"/>
    <path clip-path="url(#pd5f615b90f)" d="M 572.396554 226.064914 
L 558.027702 224.304492 
L 531.982448 217.857946 
" style="fill:none;stroke:#999999;"/>
    <path clip-path="url(#pd5f615b90f)" d="M 509.610493 296.14672 
L 510.536634 281.033096 
" style="fill:none;stroke:#999999;"/>
    <path clip-path="url(#pd5f615b90f)" d="M 509.610493 296.14672 
L 509.782435 300.467757 
" style="fill:none;stroke:#999999;"/>
    <path clip-path="url(#pd5f615b90f)" d="M 509.610493 296.14672 
L 537.390795 293.746145 
L 539.211813 292.760908 
" style="fill:none;stroke:#999999;"/>
    <path clip-path="url(#pd5f615b90f)" d="M 493.444069 272.296001 
L 514.041899 267.919951 
" style="fill:none;stroke:#999999;"/>
    <path clip-path="url(#pd5f615b90f)" d="M 493.444069 272.296001 
L 494.010695 275.161688 
" style="fill:none;stroke:#999999;"/>
    <path clip-path="url(#pd5f615b90f)" d="M 493.444069 272.296001 
L 488.80946 259.212863 
L 485.034559 252.326212 
" style="fill:none;stroke:#999999;"/>
    <path clip-path="url(#pd5f615b90f)" d="M 331.428132 92.802956 
L 345.17565 100.65984 
" style="fill:none;stroke:#999999;"/>
    <path clip-path="url(#pd5f615b90f)" d="M 433.045653 279.747788 
L 432.979221 343.468069 
" style="fill:none;stroke:#999999;"/>
    <path clip-path="url(#pd5f615b90f)" d="M 433.045653 279.747788 
L 412.189912 290.585387 
L 405.515449 292.505847 
" style="fill:none;stroke:#999999;"/>
    <path clip-path="url(#pd5f615b90f)" d="M 433.045653 279.747788 
L 445.882661 273.08619 
L 450.521179 271.340772 
L 453.643483 268.725144 
" style="fill:none;stroke:#999999;"/>
    <path clip-path="url(#pd5f615b90f)" d="M 433.045653 279.747788 
L 431.439562 259.838013 
L 426.887016 245.519579 
" style="fill:none;stroke:#999999;"/>
    <path clip-path="url(#pd5f615b90f)" d="M 373.928984 81.420226 
L 386.547158 77.914385 
" style="fill:none;stroke:#999999;"/>
    <path clip-path="url(#pd5f615b90f)" d="M 373.928984 81.420226 
L 360.935666 99.944668 
L 359.986079 103.160439 
" style="fill:none;stroke:#999999;"/>
    <path clip-path="url(#pd5f615b90f)" d="M 373.928984 81.420226 
L 383.858615 67.496887 
L 390.8965 60.490206 
" style="fill:none;stroke:#999999;"/>
    <path clip-path="url(#pd5f615b90f)" d="M 572.279321 266.494609 
L 550.73972 244.049227 
" style="fill:none;stroke:#999999;"/>
    <path clip-path="url(#pd5f615b90f)" d="M 572.279321 266.494609 
L 539.211813 292.760908 
" style="fill:none;stroke:#999999;"/>
    <path clip-path="url(#pd5f615b90f)" d="M 572.279321 266.494609 
L 600.348797 244.429318 
" style="fill:none;stroke:#999999;"/>
    <path clip-path="url(#pd5f615b90f)" d="M 572.279321 266.494609 
L 578.094075 272.225984 
L 589.958049 285.539177 
" style="fill:none;stroke:#999999;"/>
    <path clip-path="url(#pd5f615b90f)" d="M 591.25152 228.505499 
L 593.928339 212.37163 
" style="fill:none;stroke:#999999;"/>
    <path clip-path="url(#pd5f615b90f)" d="M 591.25152 228.505499 
L 572.396554 226.064914 
" style="fill:none;stroke:#999999;"/>
    <path clip-path="url(#pd5f615b90f)" d="M 591.25152 228.505499 
L 597.332002 231.63625 
L 597.656347 237.027543 
L 600.348797 244.429318 
" style="fill:none;stroke:#999999;"/>
    <path clip-path="url(#pd5f615b90f)" d="M 501.517512 204.599766 
L 506.886781 205.494981 
" style="fill:none;stroke:#999999;"/>
    <path clip-path="url(#pd5f615b90f)" d="M 501.517512 204.599766 
L 486.374922 205.424964 
" style="fill:none;stroke:#999999;"/>
    <path clip-path="url(#pd5f615b90f)" d="M 501.517512 204.599766 
L 503.54955 215.307334 
" style="fill:none;stroke:#999999;"/>
    <path clip-path="url(#pd5f615b90f)" d="M 501.517512 204.599766 
L 482.076381 182.289416 
L 470.267115 161.324388 
L 464.553963 147.771138 
" style="fill:none;stroke:#999999;"/>
    <path clip-path="url(#pd5f615b90f)" d="M 353.901689 106.716292 
L 357.023993 104.875851 
L 359.986079 103.160439 
" style="fill:none;stroke:#999999;"/>
    <path clip-path="url(#pd5f615b90f)" d="M 353.901689 106.716292 
L 349.892322 103.095424 
L 347.164702 101.685086 
" style="fill:none;stroke:#999999;"/>
    <path clip-path="url(#pd5f615b90f)" d="M 353.901689 106.716292 
L 363.194354 125.870886 
L 373.772674 141.439619 
L 382.490898 153.392486 
" style="fill:none;stroke:#999999;"/>
    <path clip-path="url(#pd5f615b90f)" d="M 522.443593 266.504612 
L 550.73972 244.049227 
" style="fill:none;stroke:#999999;"/>
    <path clip-path="url(#pd5f615b90f)" d="M 522.443593 266.504612 
L 520.235706 263.288841 
" style="fill:none;stroke:#999999;"/>
    <path clip-path="url(#pd5f615b90f)" d="M 522.443593 266.504612 
L 532.912496 282.67849 
L 539.211813 292.760908 
" style="fill:none;stroke:#999999;"/>
    <path clip-path="url(#pd5f615b90f)" d="M 426.898739 37.134605 
L 432.779925 20.525622 
" style="fill:none;stroke:#999999;"/>
    <path clip-path="url(#pd5f615b90f)" d="M 426.898739 37.134605 
L 427.860049 42.470885 
L 430.747888 47.232027 
L 433.682619 60.695256 
L 433.69825 64.701216 
" style="fill:none;stroke:#999999;"/>
    <path clip-path="url(#pd5f615b90f)" d="M 426.898739 37.134605 
L 422.834663 44.621401 
L 420.79481 56.489247 
L 417.617797 70.242545 
L 415.874934 70.367575 
" style="fill:none;stroke:#999999;"/>
    <path clip-path="url(#pd5f615b90f)" d="M 436.844001 205.544993 
L 435.140215 222.894153 
" style="fill:none;stroke:#999999;"/>
    <path clip-path="url(#pd5f615b90f)" d="M 436.844001 205.544993 
L 449.970184 203.789572 
" style="fill:none;stroke:#999999;"/>
    <path clip-path="url(#pd5f615b90f)" d="M 436.844001 205.544993 
L 426.871385 203.554515 
L 423.29578 199.053436 
" style="fill:none;stroke:#999999;"/>
    <path clip-path="url(#pd5f615b90f)" d="M 436.844001 205.544993 
L 436.765846 200.293733 
L 439.262908 192.19179 
" style="fill:none;stroke:#999999;"/>
    <path clip-path="url(#pd5f615b90f)" d="M 535.233708 359.962024 
L 516.722626 316.686646 
" style="fill:none;stroke:#999999;"/>
    <path clip-path="url(#pd5f615b90f)" d="M 539.211813 292.760908 
L 572.279321 266.494609 
" style="fill:none;stroke:#999999;"/>
    <path clip-path="url(#pd5f615b90f)" d="M 539.211813 292.760908 
L 547.179746 305.979078 
" style="fill:none;stroke:#999999;"/>
    <path clip-path="url(#pd5f615b90f)" d="M 539.211813 292.760908 
L 537.390795 293.746145 
L 509.610493 296.14672 
" style="fill:none;stroke:#999999;"/>
    <path clip-path="url(#pd5f615b90f)" d="M 539.211813 292.760908 
L 532.912496 282.67849 
L 522.443593 266.504612 
" style="fill:none;stroke:#999999;"/>
    <path clip-path="url(#pd5f615b90f)" d="M 391.439679 148.721366 
L 389.477981 149.746611 
" style="fill:none;stroke:#999999;"/>
    <path clip-path="url(#pd5f615b90f)" d="M 391.439679 148.721366 
L 383.870339 133.617744 
L 382.576868 132.052368 
" style="fill:none;stroke:#999999;"/>
    <path clip-path="url(#pd5f615b90f)" d="M 391.439679 148.721366 
L 397.699919 145.915693 
L 403.737416 143.420094 
" style="fill:none;stroke:#999999;"/>
    <path clip-path="url(#pd5f615b90f)" d="M 454.323434 167.010752 
L 463.59656 182.129377 
" style="fill:none;stroke:#999999;"/>
    <path clip-path="url(#pd5f615b90f)" d="M 454.323434 167.010752 
L 445.108924 179.59877 
L 439.763101 190.561399 
L 439.262908 192.19179 
" style="fill:none;stroke:#999999;"/>
    <path clip-path="url(#pd5f615b90f)" d="M 454.323434 167.010752 
L 452.154624 160.989308 
L 449.231616 157.048363 
" style="fill:none;stroke:#999999;"/>
    <path clip-path="url(#pd5f615b90f)" d="M 359.986079 103.160439 
L 367.614036 108.526726 
" style="fill:none;stroke:#999999;"/>
    <path clip-path="url(#pd5f615b90f)" d="M 359.986079 103.160439 
L 357.023993 104.875851 
L 353.901689 106.716292 
" style="fill:none;stroke:#999999;"/>
    <path clip-path="url(#pd5f615b90f)" d="M 359.986079 103.160439 
L 360.935666 99.944668 
L 373.928984 81.420226 
" style="fill:none;stroke:#999999;"/>
    <path clip-path="url(#pd5f615b90f)" d="M 560.169157 313.125792 
L 547.179746 305.979078 
" style="fill:none;stroke:#999999;"/>
    <path clip-path="url(#pd5f615b90f)" d="M 560.169157 313.125792 
L 589.958049 285.539177 
" style="fill:none;stroke:#999999;"/>
    <path clip-path="url(#pd5f615b90f)" d="M 560.169157 313.125792 
L 573.303155 319.782389 
L 587.953366 326.41898 
L 598.645011 328.414459 
L 607.136584 327.994358 
L 614.471459 325.268704 
L 650.422897 298.432268 
L 658.39083 296.546816 
L 666.565875 297.492043 
L 691.407537 309.439908 
L 708.175756 315.936466 
L 742.239744 318.767145 
L 768.128687 319.082221 
L 826.182444 314.086022 
L 838.984282 313.320839 
L 850.305077 313.945989 
L 860.051043 316.671643 
L 874.201061 321.597824 
L 890.238528 330.194886 
L 900.719154 339.732173 
L 919.484241 358.181597 
L 932.375958 368.24401 
L 948.409518 377.151146 
L 971.156618 383.757731 
L 1004.067815 391.409566 
L 1027.233046 400.841828 
L 1050.816408 411.219316 
L 1067.166497 417.4058 
L 1079.640082 420.441528 
L 1089.491558 422.226956 
L 1111.08196 423.692308 
L 1139.905634 423.377232 
L 1180.050104 421.126692 
L 1214.200063 419.861389 
L 1245.430921 418.671104 
L 1255.759143 417.36579 
L 1262.765766 413.804937 
L 1266.188968 411.304337 
L 1269.772389 407.868513 
L 1272.265543 402.402202 
L 1273.734863 393.270012 
L 1274.285857 386.493387 
L 1276.540638 378.41645 
L 1279.530078 373.475265 
L 1284.141241 370.339513 
L 1289.959903 368.559086 
L 1298.627326 369.389285 
L 1361.202367 386.968501 
L 1370.702143 388.153785 
L 1393.468782 387.958738 
L 1402.050234 386.968501 
L 1462.507267 366.713643 
L 1488.021064 356.686239 
L 1503.933483 347.779103 
L 1518.892408 335.546169 
L 1528.868932 325.693806 
L 1535.992788 315.956471 
L 1542.049823 299.567541 
L 1549.646519 278.552501 
L 1558.911829 256.227147 
L 1564.01537 239.723189 
L 1565.086098 232.476451 
L 1564.964957 219.533347 
L 1564.01537 199.823621 
L 1565.203331 195.547595 
L 1566.629665 190.441371 
L 1570.072406 184.624976 
L 1573.991895 180.944093 
L 1578.266989 177.973381 
L 1586.696039 175.242726 
L 1596.551422 173.817384 
L 1607.594766 171.801901 
L 1622.080851 165.505391 
L 1631.580627 159.333911 
L 1669.8142 122.640111 
L 1703.420979 88.801996 
" style="fill:none;stroke:#999999;"/>
    <path clip-path="url(#pd5f615b90f)" d="M 1703.420979 88.801996 
L 1721.467038 68.852212 
" style="fill:none;stroke:#999999;"/>
    <path clip-path="url(#pd5f615b90f)" d="M 1703.420979 88.801996 
L 1716.242356 80.014889 
L 1719.689005 78.944632 
L 1722.537766 78.944632 
L 1724.913687 79.654802 
L 1732.201669 87.061579 
" style="fill:none;stroke:#999999;"/>
    <path clip-path="url(#pd5f615b90f)" d="M 1703.420979 88.801996 
L 1669.8142 122.640111 
L 1631.580627 159.333911 
L 1622.080851 165.505391 
L 1607.594766 171.801901 
L 1596.551422 173.817384 
L 1586.696039 175.242726 
L 1578.266989 177.973381 
L 1573.991895 180.944093 
L 1570.072406 184.624976 
L 1566.629665 190.441371 
L 1565.203331 195.547595 
L 1564.01537 199.823621 
L 1564.964957 219.533347 
L 1565.086098 232.476451 
L 1564.01537 239.723189 
L 1558.911829 256.227147 
L 1549.646519 278.552501 
L 1542.049823 299.567541 
L 1535.992788 315.956471 
L 1528.868932 325.693806 
L 1518.892408 335.546169 
L 1503.933483 347.779103 
L 1488.021064 356.686239 
L 1462.507267 366.713643 
L 1402.050234 386.968501 
L 1393.468782 387.958738 
L 1370.702143 388.153785 
L 1361.202367 386.968501 
L 1298.627326 369.389285 
L 1289.959903 368.559086 
L 1284.141241 370.339513 
L 1279.530078 373.475265 
L 1276.540638 378.41645 
L 1274.285857 386.493387 
L 1273.734863 393.270012 
L 1272.265543 402.402202 
L 1269.772389 407.868513 
L 1266.188968 411.304337 
L 1262.765766 413.804937 
L 1255.759143 417.36579 
L 1245.430921 418.671104 
L 1214.200063 419.861389 
L 1180.050104 421.126692 
L 1139.905634 423.377232 
L 1111.08196 423.692308 
L 1089.491558 422.226956 
L 1079.640082 420.441528 
L 1067.166497 417.4058 
L 1050.816408 411.219316 
L 1027.233046 400.841828 
L 1004.067815 391.409566 
L 971.156618 383.757731 
L 948.409518 377.151146 
L 932.375958 368.24401 
L 919.484241 358.181597 
L 900.719154 339.732173 
L 890.238528 330.194886 
L 874.201061 321.597824 
L 860.051043 316.671643 
L 850.305077 313.945989 
L 838.984282 313.320839 
L 826.182444 314.086022 
L 768.128687 319.082221 
L 742.239744 318.767145 
L 708.175756 315.936466 
L 691.407537 309.439908 
L 666.565875 297.492043 
L 658.39083 296.546816 
L 650.422897 298.432268 
L 614.471459 325.268704 
L 607.136584 327.994358 
L 598.645011 328.414459 
L 587.953366 326.41898 
L 573.303155 319.782389 
L 560.169157 313.125792 
" style="fill:none;stroke:#999999;"/>
    <path clip-path="url(#pd5f615b90f)" d="M 1732.201669 87.061579 
L 1729.669437 81.835325 
L 1721.467038 68.852212 
" style="fill:none;stroke:#999999;"/>
    <path clip-path="url(#pd5f615b90f)" d="M 593.928339 212.37163 
L 591.25152 228.505499 
" style="fill:none;stroke:#999999;"/>
    <path clip-path="url(#pd5f615b90f)" d="M 593.928339 212.37163 
L 615.217842 208.385674 
L 619.070899 207.970574 
" style="fill:none;stroke:#999999;"/>
    <path clip-path="url(#pd5f615b90f)" d="M 593.928339 212.37163 
L 581.298442 210.941287 
L 565.63612 207.580481 
L 542.709263 204.259684 
" style="fill:none;stroke:#999999;"/>
    <path clip-path="url(#pd5f615b90f)" d="M 619.070899 207.970574 
L 615.217842 208.385674 
L 593.928339 212.37163 
" style="fill:none;stroke:#999999;"/>
    <path clip-path="url(#pd5f615b90f)" d="M 421.986678 121.369806 
L 420.681485 113.79799 
" style="fill:none;stroke:#999999;"/>
    <path clip-path="url(#pd5f615b90f)" d="M 421.986678 121.369806 
L 422.842479 125.590819 
" style="fill:none;stroke:#999999;"/>
    <path clip-path="url(#pd5f615b90f)" d="M 453.885764 69.617395 
L 440.415698 65.876498 
L 433.69825 64.701216 
" style="fill:none;stroke:#999999;"/>
    <path clip-path="url(#pd5f615b90f)" d="M 433.69825 64.701216 
L 433.721697 72.087988 
" style="fill:none;stroke:#999999;"/>
    <path clip-path="url(#pd5f615b90f)" d="M 433.69825 64.701216 
L 433.682619 60.695256 
L 430.747888 47.232027 
L 427.860049 42.470885 
L 426.898739 37.134605 
" style="fill:none;stroke:#999999;"/>
    <path clip-path="url(#pd5f615b90f)" d="M 433.69825 64.701216 
L 440.415698 65.876498 
L 453.885764 69.617395 
" style="fill:none;stroke:#999999;"/>
    <path clip-path="url(#pd5f615b90f)" d="M 390.8965 60.490206 
L 385.167717 49.737628 
" style="fill:none;stroke:#999999;"/>
    <path clip-path="url(#pd5f615b90f)" d="M 390.8965 60.490206 
L 383.858615 67.496887 
L 373.928984 81.420226 
" style="fill:none;stroke:#999999;"/>
    <path clip-path="url(#pd5f615b90f)" d="M 390.8965 60.490206 
L 394.436935 56.969362 
L 402.350159 47.297043 
L 410.259476 38.209863 
L 415.808502 30.753075 
" style="fill:none;stroke:#999999;"/>
    <path clip-path="url(#pd5f615b90f)" d="M 385.167717 49.737628 
L 390.8965 60.490206 
" style="fill:none;stroke:#999999;"/>
    <path clip-path="url(#pd5f615b90f)" d="M 415.808502 30.753075 
L 404.86676 8.307692 
" style="fill:none;stroke:#999999;"/>
    <path clip-path="url(#pd5f615b90f)" d="M 415.808502 30.753075 
L 410.259476 38.209863 
L 402.350159 47.297043 
L 394.436935 56.969362 
L 390.8965 60.490206 
" style="fill:none;stroke:#999999;"/>
    <path clip-path="url(#pd5f615b90f)" d="M 415.808502 30.753075 
L 419.431 25.8519 
L 432.779925 20.525622 
" style="fill:none;stroke:#999999;"/>
    <path clip-path="url(#pd5f615b90f)" d="M 404.86676 8.307692 
L 415.808502 30.753075 
" style="fill:none;stroke:#999999;"/>
    <path clip-path="url(#pd5f615b90f)" d="M 419.489617 136.093337 
L 420.161752 135.858281 
L 422.783863 134.943061 
L 425.581822 135.148111 
" style="fill:none;stroke:#999999;"/>
    <path clip-path="url(#pd5f615b90f)" d="M 419.489617 136.093337 
L 416.257895 137.243613 
L 413.854619 138.573932 
L 403.737416 143.420094 
" style="fill:none;stroke:#999999;"/>
    <path clip-path="url(#pd5f615b90f)" d="M 425.101167 133.467708 
L 425.581822 135.148111 
" style="fill:none;stroke:#999999;"/>
    <path clip-path="url(#pd5f615b90f)" d="M 425.101167 133.467708 
L 431.627135 130.221929 
L 439.641961 125.320754 
L 447.137054 120.394572 
" style="fill:none;stroke:#999999;"/>
    <path clip-path="url(#pd5f615b90f)" d="M 418.125807 127.1812 
L 419.489617 136.093337 
" style="fill:none;stroke:#999999;"/>
    <path clip-path="url(#pd5f615b90f)" d="M 447.137054 120.394572 
L 446.097589 119.229293 
L 439.259 106.966352 
L 439.145675 106.506242 
" style="fill:none;stroke:#999999;"/>
    <path clip-path="url(#pd5f615b90f)" d="M 447.137054 120.394572 
L 452.02176 125.870886 
L 453.139381 128.736573 
" style="fill:none;stroke:#999999;"/>
    <path clip-path="url(#pd5f615b90f)" d="M 447.137054 120.394572 
L 439.641961 125.320754 
L 431.627135 130.221929 
L 425.101167 133.467708 
" style="fill:none;stroke:#999999;"/>
    <path clip-path="url(#pd5f615b90f)" d="M 513.95202 246.294765 
L 510.96258 237.032544 
L 503.54955 215.307334 
" style="fill:none;stroke:#999999;"/>
    <path clip-path="url(#pd5f615b90f)" d="M 513.95202 246.294765 
L 517.383038 254.606758 
L 520.235706 263.288841 
" style="fill:none;stroke:#999999;"/>
    <path clip-path="url(#pd5f615b90f)" d="M 513.95202 246.294765 
L 507.875446 239.858222 
L 507.175956 238.737953 
" style="fill:none;stroke:#999999;"/>
    <path clip-path="url(#pd5f615b90f)" d="M 271.510371 216.637653 
L 264.914064 203.554515 
" style="fill:none;stroke:#999999;"/>
    <path clip-path="url(#pd5f615b90f)" d="M 271.510371 216.637653 
L 297.153125 207.585482 
L 310.627099 202.299214 
L 323.499277 196.412803 
L 336.097911 187.380637 
L 365.918066 166.165549 
L 382.490898 153.392486 
" style="fill:none;stroke:#999999;"/>
    <path clip-path="url(#pd5f615b90f)" d="M 245.973127 211.096324 
L 264.914064 203.554515 
" style="fill:none;stroke:#999999;"/>
    <path clip-path="url(#pd5f615b90f)" d="M 264.914064 203.554515 
L 245.973127 211.096324 
" style="fill:none;stroke:#999999;"/>
    <path clip-path="url(#pd5f615b90f)" d="M 264.914064 203.554515 
L 259.837877 193.492102 
" style="fill:none;stroke:#999999;"/>
    <path clip-path="url(#pd5f615b90f)" d="M 264.914064 203.554515 
L 271.510371 216.637653 
" style="fill:none;stroke:#999999;"/>
    <path clip-path="url(#pd5f615b90f)" d="M 259.837877 193.492102 
L 264.914064 203.554515 
" style="fill:none;stroke:#999999;"/>
    <path clip-path="url(#pd5f615b90f)" d="M 396.832395 170.88168 
L 382.490898 153.392486 
" style="fill:none;stroke:#999999;"/>
    <path clip-path="url(#pd5f615b90f)" d="M 396.832395 170.88168 
L 398.161035 175.712839 
" style="fill:none;stroke:#999999;"/>
    <path clip-path="url(#pd5f615b90f)" d="M 396.832395 170.88168 
L 397.164555 164.615177 
L 396.500235 161.659468 
L 392.580747 154.362718 
L 389.477981 149.746611 
" style="fill:none;stroke:#999999;"/>
    <path clip-path="url(#pd5f615b90f)" d="M 389.477981 149.746611 
L 391.439679 148.721366 
" style="fill:none;stroke:#999999;"/>
    <path clip-path="url(#pd5f615b90f)" d="M 389.477981 149.746611 
L 382.490898 153.392486 
" style="fill:none;stroke:#999999;"/>
    <path clip-path="url(#pd5f615b90f)" d="M 414.987871 127.756338 
L 418.125807 127.1812 
" style="fill:none;stroke:#999999;"/>
    <path clip-path="url(#pd5f615b90f)" d="M 414.987871 127.756338 
L 412.471271 121.834918 
L 408.133652 114.428142 
" style="fill:none;stroke:#999999;"/>
    <path clip-path="url(#pd5f615b90f)" d="M 414.987871 127.756338 
L 409.501369 128.026403 
L 399.614724 129.171677 
L 393.608489 129.846839 
" style="fill:none;stroke:#999999;"/>
    <path clip-path="url(#pd5f615b90f)" d="M 408.133652 114.428142 
L 420.239908 110.952308 
" style="fill:none;stroke:#999999;"/>
    <path clip-path="url(#pd5f615b90f)" d="M 408.133652 114.428142 
L 412.471271 121.834918 
L 414.987871 127.756338 
" style="fill:none;stroke:#999999;"/>
    <path clip-path="url(#pd5f615b90f)" d="M 408.133652 114.428142 
L 407.652996 113.602944 
L 404.792512 103.605546 
" style="fill:none;stroke:#999999;"/>
    <path clip-path="url(#pd5f615b90f)" d="M 420.681485 113.79799 
L 421.986678 121.369806 
" style="fill:none;stroke:#999999;"/>
    <path clip-path="url(#pd5f615b90f)" d="M 420.681485 113.79799 
L 420.263354 111.357405 
L 420.239908 110.952308 
" style="fill:none;stroke:#999999;"/>
    <path clip-path="url(#pd5f615b90f)" d="M 420.681485 113.79799 
L 430.912014 111.517444 
L 439.145675 106.506242 
" style="fill:none;stroke:#999999;"/>
    <path clip-path="url(#pd5f615b90f)" d="M 328.184687 113.222853 
L 345.17565 100.65984 
" style="fill:none;stroke:#999999;"/>
    <path clip-path="url(#pd5f615b90f)" d="M 420.239908 110.952308 
L 419.356753 96.598866 
" style="fill:none;stroke:#999999;"/>
    <path clip-path="url(#pd5f615b90f)" d="M 420.239908 110.952308 
L 408.133652 114.428142 
" style="fill:none;stroke:#999999;"/>
    <path clip-path="url(#pd5f615b90f)" d="M 420.239908 110.952308 
L 420.263354 111.357405 
L 420.681485 113.79799 
" style="fill:none;stroke:#999999;"/>
    <path clip-path="url(#pd5f615b90f)" d="M 439.145675 106.506242 
L 434.003056 85.296155 
L 433.721697 72.087988 
" style="fill:none;stroke:#999999;"/>
    <path clip-path="url(#pd5f615b90f)" d="M 439.145675 106.506242 
L 439.259 106.966352 
L 446.097589 119.229293 
L 447.137054 120.394572 
" style="fill:none;stroke:#999999;"/>
    <path clip-path="url(#pd5f615b90f)" d="M 439.145675 106.506242 
L 430.912014 111.517444 
L 420.681485 113.79799 
" style="fill:none;stroke:#999999;"/>
    <path clip-path="url(#pd5f615b90f)" d="M 404.792512 103.605546 
L 406.433774 102.325239 
L 419.356753 96.598866 
" style="fill:none;stroke:#999999;"/>
    <path clip-path="url(#pd5f615b90f)" d="M 404.792512 103.605546 
L 402.69795 105.240938 
L 398.563535 106.851325 
L 393.639751 107.131392 
L 386.250167 106.761303 
" style="fill:none;stroke:#999999;"/>
    <path clip-path="url(#pd5f615b90f)" d="M 404.792512 103.605546 
L 407.652996 113.602944 
L 408.133652 114.428142 
" style="fill:none;stroke:#999999;"/>
    <path clip-path="url(#pd5f615b90f)" d="M 347.164702 101.685086 
L 345.17565 100.65984 
" style="fill:none;stroke:#999999;"/>
    <path clip-path="url(#pd5f615b90f)" d="M 347.164702 101.685086 
L 340.333929 74.163486 
" style="fill:none;stroke:#999999;"/>
    <path clip-path="url(#pd5f615b90f)" d="M 347.164702 101.685086 
L 349.892322 103.095424 
L 353.901689 106.716292 
" style="fill:none;stroke:#999999;"/>
    <path clip-path="url(#pd5f615b90f)" d="M 345.17565 100.65984 
L 347.164702 101.685086 
" style="fill:none;stroke:#999999;"/>
    <path clip-path="url(#pd5f615b90f)" d="M 345.17565 100.65984 
L 331.428132 92.802956 
" style="fill:none;stroke:#999999;"/>
    <path clip-path="url(#pd5f615b90f)" d="M 345.17565 100.65984 
L 328.184687 113.222853 
" style="fill:none;stroke:#999999;"/>
    <path clip-path="url(#pd5f615b90f)" d="M 340.333929 74.163486 
L 347.164702 101.685086 
" style="fill:none;stroke:#999999;"/>
    <path clip-path="url(#pd5f615b90f)" d="M 382.576868 132.052368 
L 376.140779 124.265501 
L 367.614036 108.526726 
" style="fill:none;stroke:#999999;"/>
    <path clip-path="url(#pd5f615b90f)" d="M 382.576868 132.052368 
L 383.870339 133.617744 
L 391.439679 148.721366 
" style="fill:none;stroke:#999999;"/>
    <path clip-path="url(#pd5f615b90f)" d="M 382.576868 132.052368 
L 389.243515 130.677038 
L 393.608489 129.846839 
" style="fill:none;stroke:#999999;"/>
    <path clip-path="url(#pd5f615b90f)" d="M 432.979221 343.468069 
L 433.045653 279.747788 
" style="fill:none;stroke:#999999;"/>
    <path clip-path="url(#pd5f615b90f)" d="M 495.003268 320.727615 
L 510.716391 317.776908 
" style="fill:none;stroke:#999999;"/>
    <path clip-path="url(#pd5f615b90f)" d="M 406.226662 318.777147 
L 405.515449 292.505847 
" style="fill:none;stroke:#999999;"/>
    <path clip-path="url(#pd5f615b90f)" d="M 510.716391 317.776908 
L 513.729278 373.565286 
" style="fill:none;stroke:#999999;"/>
    <path clip-path="url(#pd5f615b90f)" d="M 510.716391 317.776908 
L 509.782435 300.467757 
" style="fill:none;stroke:#999999;"/>
    <path clip-path="url(#pd5f615b90f)" d="M 510.716391 317.776908 
L 516.722626 316.686646 
" style="fill:none;stroke:#999999;"/>
    <path clip-path="url(#pd5f615b90f)" d="M 510.716391 317.776908 
L 495.003268 320.727615 
" style="fill:none;stroke:#999999;"/>
    <path clip-path="url(#pd5f615b90f)" d="M 516.722626 316.686646 
L 509.782435 300.467757 
" style="fill:none;stroke:#999999;"/>
    <path clip-path="url(#pd5f615b90f)" d="M 516.722626 316.686646 
L 535.233708 359.962024 
" style="fill:none;stroke:#999999;"/>
    <path clip-path="url(#pd5f615b90f)" d="M 516.722626 316.686646 
L 510.716391 317.776908 
" style="fill:none;stroke:#999999;"/>
    <path clip-path="url(#pd5f615b90f)" d="M 516.722626 316.686646 
L 533.107884 313.970995 
L 543.11567 311.680446 
L 547.179746 305.979078 
" style="fill:none;stroke:#999999;"/>
    <path clip-path="url(#pd5f615b90f)" d="M 604.901343 296.776871 
L 600.806005 296.266749 
L 598.031492 294.591347 
L 589.958049 285.539177 
" style="fill:none;stroke:#999999;"/>
    <path clip-path="url(#pd5f615b90f)" d="M 370.58003 285.839248 
L 372.686315 282.293398 
L 373.671072 280.54798 
" style="fill:none;stroke:#999999;"/>
    <path clip-path="url(#pd5f615b90f)" d="M 370.58003 285.839248 
L 378.911385 289.215058 
L 393.897664 291.980721 
L 405.515449 292.505847 
" style="fill:none;stroke:#999999;"/>
    <path clip-path="url(#pd5f615b90f)" d="M 589.958049 285.539177 
L 560.169157 313.125792 
" style="fill:none;stroke:#999999;"/>
    <path clip-path="url(#pd5f615b90f)" d="M 589.958049 285.539177 
L 598.031492 294.591347 
L 600.806005 296.266749 
L 604.901343 296.776871 
" style="fill:none;stroke:#999999;"/>
    <path clip-path="url(#pd5f615b90f)" d="M 589.958049 285.539177 
L 578.094075 272.225984 
L 572.279321 266.494609 
" style="fill:none;stroke:#999999;"/>
    <path clip-path="url(#pd5f615b90f)" d="M 373.671072 280.54798 
L 380.103253 269.160249 
L 384.280654 255.346936 
L 388.969972 245.799646 
L 391.912519 237.562671 
L 393.999265 223.62933 
L 398.004725 210.916281 
L 398.161035 175.712839 
" style="fill:none;stroke:#999999;"/>
    <path clip-path="url(#pd5f615b90f)" d="M 373.671072 280.54798 
L 372.686315 282.293398 
L 370.58003 285.839248 
" style="fill:none;stroke:#999999;"/>
    <path clip-path="url(#pd5f615b90f)" d="M 373.671072 280.54798 
L 383.671043 279.902825 
L 394.460382 278.092391 
L 397.778074 272.726104 
L 402.701858 263.023777 
" style="fill:none;stroke:#999999;"/>
    <path clip-path="url(#pd5f615b90f)" d="M 494.010695 275.161688 
L 493.444069 272.296001 
" style="fill:none;stroke:#999999;"/>
    <path clip-path="url(#pd5f615b90f)" d="M 604.240931 256.622242 
L 603.045154 250.055667 
L 600.348797 244.429318 
" style="fill:none;stroke:#999999;"/>
    <path clip-path="url(#pd5f615b90f)" d="M 478.797766 254.281681 
L 479.536334 259.968044 
L 467.160442 262.658689 
L 453.643483 268.725144 
" style="fill:none;stroke:#999999;"/>
    <path clip-path="url(#pd5f615b90f)" d="M 478.797766 254.281681 
L 480.243639 254.641767 
L 485.034559 252.326212 
" style="fill:none;stroke:#999999;"/>
    <path clip-path="url(#pd5f615b90f)" d="M 478.797766 254.281681 
L 473.975584 253.011376 
L 461.974838 253.316449 
L 454.139769 252.411232 
L 447.457491 253.481489 
" style="fill:none;stroke:#999999;"/>
    <path clip-path="url(#pd5f615b90f)" d="M 447.457491 253.481489 
L 453.643483 268.725144 
" style="fill:none;stroke:#999999;"/>
    <path clip-path="url(#pd5f615b90f)" d="M 447.457491 253.481489 
L 445.882661 249.605559 
L 439.657592 240.108282 
" style="fill:none;stroke:#999999;"/>
    <path clip-path="url(#pd5f615b90f)" d="M 447.457491 253.481489 
L 454.139769 252.411232 
L 461.974838 253.316449 
L 473.975584 253.011376 
L 478.797766 254.281681 
" style="fill:none;stroke:#999999;"/>
    <path clip-path="url(#pd5f615b90f)" d="M 485.034559 252.326212 
L 483.448006 251.841095 
" style="fill:none;stroke:#999999;"/>
    <path clip-path="url(#pd5f615b90f)" d="M 485.034559 252.326212 
L 488.80946 259.212863 
L 493.444069 272.296001 
" style="fill:none;stroke:#999999;"/>
    <path clip-path="url(#pd5f615b90f)" d="M 485.034559 252.326212 
L 480.243639 254.641767 
L 478.797766 254.281681 
" style="fill:none;stroke:#999999;"/>
    <path clip-path="url(#pd5f615b90f)" d="M 483.448006 251.841095 
L 485.034559 252.326212 
" style="fill:none;stroke:#999999;"/>
    <path clip-path="url(#pd5f615b90f)" d="M 483.448006 251.841095 
L 481.849731 251.350978 
L 474.397623 239.263079 
L 465.003356 228.110404 
" style="fill:none;stroke:#999999;"/>
    <path clip-path="url(#pd5f615b90f)" d="M 483.448006 251.841095 
L 485.737957 249.240472 
L 494.092758 243.614122 
L 499.12596 243.098999 
L 507.175956 238.737953 
" style="fill:none;stroke:#999999;"/>
    <path clip-path="url(#pd5f615b90f)" d="M 507.175956 238.737953 
L 507.875446 239.858222 
L 513.95202 246.294765 
" style="fill:none;stroke:#999999;"/>
    <path clip-path="url(#pd5f615b90f)" d="M 507.175956 238.737953 
L 499.864527 227.05015 
L 488.106062 208.930805 
" style="fill:none;stroke:#999999;"/>
    <path clip-path="url(#pd5f615b90f)" d="M 507.175956 238.737953 
L 499.12596 243.098999 
L 494.092758 243.614122 
L 485.737957 249.240472 
L 483.448006 251.841095 
" style="fill:none;stroke:#999999;"/>
    <path clip-path="url(#pd5f615b90f)" d="M 455.261297 231.876307 
L 439.657592 240.108282 
" style="fill:none;stroke:#999999;"/>
    <path clip-path="url(#pd5f615b90f)" d="M 455.261297 231.876307 
L 465.003356 228.110404 
" style="fill:none;stroke:#999999;"/>
    <path clip-path="url(#pd5f615b90f)" d="M 455.261297 231.876307 
L 454.936953 226.875108 
L 453.608313 224.459529 
" style="fill:none;stroke:#999999;"/>
    <path clip-path="url(#pd5f615b90f)" d="M 453.608313 224.459529 
L 452.16244 212.281608 
L 449.970184 203.789572 
" style="fill:none;stroke:#999999;"/>
    <path clip-path="url(#pd5f615b90f)" d="M 453.608313 224.459529 
L 454.936953 226.875108 
L 455.261297 231.876307 
" style="fill:none;stroke:#999999;"/>
    <path clip-path="url(#pd5f615b90f)" d="M 453.608313 224.459529 
L 448.00067 225.304731 
L 445.409822 222.289008 
L 435.140215 222.894153 
" style="fill:none;stroke:#999999;"/>
    <path clip-path="url(#pd5f615b90f)" d="M 435.140215 222.894153 
L 436.844001 205.544993 
" style="fill:none;stroke:#999999;"/>
    <path clip-path="url(#pd5f615b90f)" d="M 435.140215 222.894153 
L 434.132012 233.176619 
L 435.425482 241.863702 
" style="fill:none;stroke:#999999;"/>
    <path clip-path="url(#pd5f615b90f)" d="M 435.140215 222.894153 
L 445.409822 222.289008 
L 448.00067 225.304731 
L 453.608313 224.459529 
" style="fill:none;stroke:#999999;"/>
    <path clip-path="url(#pd5f615b90f)" d="M 413.57326 205.585002 
L 413.01445 251.971126 
" style="fill:none;stroke:#999999;"/>
    <path clip-path="url(#pd5f615b90f)" d="M 413.57326 205.585002 
L 421.123062 205.029869 
" style="fill:none;stroke:#999999;"/>
    <path clip-path="url(#pd5f615b90f)" d="M 413.57326 205.585002 
L 413.600615 202.649298 
L 407.668627 189.656182 
L 398.161035 175.712839 
" style="fill:none;stroke:#999999;"/>
    <path clip-path="url(#pd5f615b90f)" d="M 506.886781 205.494981 
L 501.517512 204.599766 
" style="fill:none;stroke:#999999;"/>
    <path clip-path="url(#pd5f615b90f)" d="M 506.886781 205.494981 
L 520.513158 205.585002 
L 542.709263 204.259684 
" style="fill:none;stroke:#999999;"/>
    <path clip-path="url(#pd5f615b90f)" d="M 506.886781 205.494981 
L 517.129033 192.661903 
L 529.579172 176.973141 
" style="fill:none;stroke:#999999;"/>
    <path clip-path="url(#pd5f615b90f)" d="M 421.123062 205.029869 
L 413.57326 205.585002 
" style="fill:none;stroke:#999999;"/>
    <path clip-path="url(#pd5f615b90f)" d="M 421.123062 205.029869 
L 421.506023 200.043673 
L 423.29578 199.053436 
" style="fill:none;stroke:#999999;"/>
    <path clip-path="url(#pd5f615b90f)" d="M 421.123062 205.029869 
L 421.334082 219.183263 
L 420.525174 234.276883 
L 421.072261 247.745113 
" style="fill:none;stroke:#999999;"/>
    <path clip-path="url(#pd5f615b90f)" d="M 542.709263 204.259684 
L 565.63612 207.580481 
L 581.298442 210.941287 
L 593.928339 212.37163 
" style="fill:none;stroke:#999999;"/>
    <path clip-path="url(#pd5f615b90f)" d="M 542.709263 204.259684 
L 520.513158 205.585002 
L 506.886781 205.494981 
" style="fill:none;stroke:#999999;"/>
    <path clip-path="url(#pd5f615b90f)" d="M 542.709263 204.259684 
L 538.715527 193.967216 
L 538.774143 188.0608 
L 542.212977 183.294657 
" style="fill:none;stroke:#999999;"/>
    <path clip-path="url(#pd5f615b90f)" d="M 449.970184 203.789572 
L 436.844001 205.544993 
" style="fill:none;stroke:#999999;"/>
    <path clip-path="url(#pd5f615b90f)" d="M 449.970184 203.789572 
L 452.16244 212.281608 
L 453.608313 224.459529 
" style="fill:none;stroke:#999999;"/>
    <path clip-path="url(#pd5f615b90f)" d="M 449.970184 203.789572 
L 457.8795 202.044153 
L 459.301927 201.173944 
" style="fill:none;stroke:#999999;"/>
    <path clip-path="url(#pd5f615b90f)" d="M 479.657474 202.73932 
L 478.086553 205.244921 
L 466.617263 210.91128 
L 463.698162 211.486418 
L 460.31013 202.429246 
L 459.301927 201.173944 
" style="fill:none;stroke:#999999;"/>
    <path clip-path="url(#pd5f615b90f)" d="M 479.657474 202.73932 
L 482.510143 202.979377 
L 486.374922 205.424964 
" style="fill:none;stroke:#999999;"/>
    <path clip-path="url(#pd5f615b90f)" d="M 479.657474 202.73932 
L 476.820437 202.499262 
L 470.087358 192.821942 
L 463.59656 182.129377 
" style="fill:none;stroke:#999999;"/>
    <path clip-path="url(#pd5f615b90f)" d="M 456.539137 193.962215 
L 459.301927 201.173944 
" style="fill:none;stroke:#999999;"/>
    <path clip-path="url(#pd5f615b90f)" d="M 456.539137 193.962215 
L 455.874817 187.975779 
L 457.203457 186.715477 
L 463.59656 182.129377 
" style="fill:none;stroke:#999999;"/>
    <path clip-path="url(#pd5f615b90f)" d="M 456.539137 193.962215 
L 450.29062 193.432088 
L 439.262908 192.19179 
" style="fill:none;stroke:#999999;"/>
    <path clip-path="url(#pd5f615b90f)" d="M 439.262908 192.19179 
L 436.765846 200.293733 
L 436.844001 205.544993 
" style="fill:none;stroke:#999999;"/>
    <path clip-path="url(#pd5f615b90f)" d="M 439.262908 192.19179 
L 439.763101 190.561399 
L 445.108924 179.59877 
L 454.323434 167.010752 
" style="fill:none;stroke:#999999;"/>
    <path clip-path="url(#pd5f615b90f)" d="M 439.262908 192.19179 
L 450.29062 193.432088 
L 456.539137 193.962215 
" style="fill:none;stroke:#999999;"/>
    <path clip-path="url(#pd5f615b90f)" d="M 542.212977 183.294657 
L 538.774143 188.0608 
L 538.715527 193.967216 
L 542.709263 204.259684 
" style="fill:none;stroke:#999999;"/>
    <path clip-path="url(#pd5f615b90f)" d="M 418.10236 182.869555 
L 413.444304 170.076487 
" style="fill:none;stroke:#999999;"/>
    <path clip-path="url(#pd5f615b90f)" d="M 418.10236 182.869555 
L 423.29578 199.053436 
" style="fill:none;stroke:#999999;"/>
    <path clip-path="url(#pd5f615b90f)" d="M 418.10236 182.869555 
L 427.594321 178.528514 
L 435.015167 172.472061 
L 428.876068 161.859516 
" style="fill:none;stroke:#999999;"/>
    <path clip-path="url(#pd5f615b90f)" d="M 529.579172 176.973141 
L 517.129033 192.661903 
L 506.886781 205.494981 
" style="fill:none;stroke:#999999;"/>
    <path clip-path="url(#pd5f615b90f)" d="M 413.444304 170.076487 
L 403.737416 143.420094 
" style="fill:none;stroke:#999999;"/>
    <path clip-path="url(#pd5f615b90f)" d="M 413.444304 170.076487 
L 418.10236 182.869555 
" style="fill:none;stroke:#999999;"/>
    <path clip-path="url(#pd5f615b90f)" d="M 413.444304 170.076487 
L 398.161035 175.712839 
" style="fill:none;stroke:#999999;"/>
    <path clip-path="url(#pd5f615b90f)" d="M 413.444304 170.076487 
L 426.957356 163.394885 
L 428.876068 161.859516 
" style="fill:none;stroke:#999999;"/>
    <path clip-path="url(#pd5f615b90f)" d="M 428.876068 161.859516 
L 435.015167 172.472061 
L 427.594321 178.528514 
L 418.10236 182.869555 
" style="fill:none;stroke:#999999;"/>
    <path clip-path="url(#pd5f615b90f)" d="M 428.876068 161.859516 
L 431.345776 159.213882 
L 442.451644 151.151948 
" style="fill:none;stroke:#999999;"/>
    <path clip-path="url(#pd5f615b90f)" d="M 428.876068 161.859516 
L 426.957356 163.394885 
L 413.444304 170.076487 
" style="fill:none;stroke:#999999;"/>
    <path clip-path="url(#pd5f615b90f)" d="M 442.451644 151.151948 
L 449.231616 157.048363 
" style="fill:none;stroke:#999999;"/>
    <path clip-path="url(#pd5f615b90f)" d="M 442.451644 151.151948 
L 440.134339 149.136465 
L 425.581822 135.148111 
" style="fill:none;stroke:#999999;"/>
    <path clip-path="url(#pd5f615b90f)" d="M 442.451644 151.151948 
L 431.345776 159.213882 
L 428.876068 161.859516 
" style="fill:none;stroke:#999999;"/>
    <path clip-path="url(#pd5f615b90f)" d="M 464.553963 147.771138 
L 483.194002 135.68824 
" style="fill:none;stroke:#999999;"/>
    <path clip-path="url(#pd5f615b90f)" d="M 464.553963 147.771138 
L 470.267115 161.324388 
L 482.076381 182.289416 
L 501.517512 204.599766 
" style="fill:none;stroke:#999999;"/>
    <path clip-path="url(#pd5f615b90f)" d="M 464.553963 147.771138 
L 457.605956 133.527722 
L 453.139381 128.736573 
" style="fill:none;stroke:#999999;"/>
    <path clip-path="url(#pd5f615b90f)" d="M 483.194002 135.68824 
L 464.553963 147.771138 
" style="fill:none;stroke:#999999;"/>
   </g>
  </g>
 </g>
 <defs>
  <clipPath id="pd5f615b90f">
   <rect height="432" width="1545.677683" x="216.248556" y="0"/>
  </clipPath>
 </defs>
</svg>
