<?xml version="1.0" encoding="utf-8" standalone="no"?>
<!DOCTYPE svg PUBLIC "-//W3C//DTD SVG 1.1//EN"
  "http://www.w3.org/Graphics/SVG/1.1/DTD/svg11.dtd">
<!-- Created with matplotlib (http://matplotlib.org/) -->
<svg height="432pt" version="1.1" viewBox="0 0 973.67799 432" width="973.67799pt" xmlns="http://www.w3.org/2000/svg" xmlns:xlink="http://www.w3.org/1999/xlink">
 <defs>
  <style type="text/css">
*{stroke-linecap:butt;stroke-linejoin:round;}
  </style>
 </defs>
 <g id="figure_1">
  <g id="patch_1">
   <path d="M 0 432 
L 973.67799 432 
L 973.67799 0 
L 0 0 
z
" style="fill:none;opacity:0;"/>
  </g>
  <g id="axes_1">
   <g id="PathCollection_1">
    <defs>
     <path d="M 0 1.936492 
C 0.513564 1.936492 1.006162 1.732451 1.369306 1.369306 
C 1.732451 1.006162 1.936492 0.513564 1.936492 0 
C 1.936492 -0.513564 1.732451 -1.006162 1.369306 -1.369306 
C 1.006162 -1.732451 0.513564 -1.936492 0 -1.936492 
C -0.513564 -1.936492 -1.006162 -1.732451 -1.369306 -1.369306 
C -1.732451 -1.006162 -1.936492 -0.513564 -1.936492 0 
C -1.936492 0.513564 -1.732451 1.006162 -1.369306 1.369306 
C -1.006162 1.732451 -0.513564 1.936492 0 1.936492 
z
" id="C0_0_dc16a49bef"/>
    </defs>
    <g clip-path="url(#p6ea8df9267)">
     <use style="fill:#66ccff;" x="820.906499" xlink:href="#C0_0_dc16a49bef" y="163.674927"/>
    </g>
    <g clip-path="url(#p6ea8df9267)">
     <use style="fill:#66ccff;" x="713.435342" xlink:href="#C0_0_dc16a49bef" y="202.570062"/>
    </g>
    <g clip-path="url(#p6ea8df9267)">
     <use style="fill:#66ccff;" x="719.437011" xlink:href="#C0_0_dc16a49bef" y="96.596339"/>
    </g>
    <g clip-path="url(#p6ea8df9267)">
     <use style="fill:#66ccff;" x="781.858603" xlink:href="#C0_0_dc16a49bef" y="200.434289"/>
    </g>
    <g clip-path="url(#p6ea8df9267)">
     <use style="fill:#66ccff;" x="803.250795" xlink:href="#C0_0_dc16a49bef" y="178.365546"/>
    </g>
    <g clip-path="url(#p6ea8df9267)">
     <use style="fill:#66ccff;" x="759.634433" xlink:href="#C0_0_dc16a49bef" y="66.34001"/>
    </g>
    <g clip-path="url(#p6ea8df9267)">
     <use style="fill:#66ccff;" x="752.60179" xlink:href="#C0_0_dc16a49bef" y="159.969457"/>
    </g>
    <g clip-path="url(#p6ea8df9267)">
     <use style="fill:#66ccff;" x="687.277804" xlink:href="#C0_0_dc16a49bef" y="191.66422"/>
    </g>
    <g clip-path="url(#p6ea8df9267)">
     <use style="fill:#66ccff;" x="830.824601" xlink:href="#C0_0_dc16a49bef" y="134.074918"/>
    </g>
    <g clip-path="url(#p6ea8df9267)">
     <use style="fill:#66ccff;" x="768.386073" xlink:href="#C0_0_dc16a49bef" y="181.658082"/>
    </g>
    <g clip-path="url(#p6ea8df9267)">
     <use style="fill:#66ccff;" x="728.252161" xlink:href="#C0_0_dc16a49bef" y="189.66518"/>
    </g>
    <g clip-path="url(#p6ea8df9267)">
     <use style="fill:#66ccff;" x="801.396311" xlink:href="#C0_0_dc16a49bef" y="124.815343"/>
    </g>
    <g clip-path="url(#p6ea8df9267)">
     <use style="fill:#66ccff;" x="773.621391" xlink:href="#C0_0_dc16a49bef" y="129.926431"/>
    </g>
    <g clip-path="url(#p6ea8df9267)">
     <use style="fill:#66ccff;" x="754.871204" xlink:href="#C0_0_dc16a49bef" y="223.791059"/>
    </g>
    <g clip-path="url(#p6ea8df9267)">
     <use style="fill:#66ccff;" x="780.628631" xlink:href="#C0_0_dc16a49bef" y="249.242583"/>
    </g>
    <g clip-path="url(#p6ea8df9267)">
     <use style="fill:#66ccff;" x="808.331573" xlink:href="#C0_0_dc16a49bef" y="148.379948"/>
    </g>
    <g clip-path="url(#p6ea8df9267)">
     <use style="fill:#66ccff;" x="781.333589" xlink:href="#C0_0_dc16a49bef" y="199.829928"/>
    </g>
    <g clip-path="url(#p6ea8df9267)">
     <use style="fill:#66ccff;" x="802.795642" xlink:href="#C0_0_dc16a49bef" y="151.79281"/>
    </g>
    <g clip-path="url(#p6ea8df9267)">
     <use style="fill:#66ccff;" x="798.82205" xlink:href="#C0_0_dc16a49bef" y="126.354959"/>
    </g>
    <g clip-path="url(#p6ea8df9267)">
     <use style="fill:#66ccff;" x="793.597317" xlink:href="#C0_0_dc16a49bef" y="140.662725"/>
    </g>
    <g clip-path="url(#p6ea8df9267)">
     <use style="fill:#66ccff;" x="716.223419" xlink:href="#C0_0_dc16a49bef" y="200.128007"/>
    </g>
    <g clip-path="url(#p6ea8df9267)">
     <use style="fill:#66ccff;" x="745.452712" xlink:href="#C0_0_dc16a49bef" y="76.761817"/>
    </g>
    <g clip-path="url(#p6ea8df9267)">
     <use style="fill:#66ccff;" x="801.557202" xlink:href="#C0_0_dc16a49bef" y="152.93043"/>
    </g>
    <g clip-path="url(#p6ea8df9267)">
     <use style="fill:#66ccff;" x="756.082122" xlink:href="#C0_0_dc16a49bef" y="166.196288"/>
    </g>
    <g clip-path="url(#p6ea8df9267)">
     <use style="fill:#66ccff;" x="741.04302" xlink:href="#C0_0_dc16a49bef" y="179.191414"/>
    </g>
    <g clip-path="url(#p6ea8df9267)">
     <use style="fill:#66ccff;" x="785.554869" xlink:href="#C0_0_dc16a49bef" y="204.678489"/>
    </g>
    <g clip-path="url(#p6ea8df9267)">
     <use style="fill:#66ccff;" x="726.293945" xlink:href="#C0_0_dc16a49bef" y="169.045809"/>
    </g>
    <g clip-path="url(#p6ea8df9267)">
     <use style="fill:#66ccff;" x="745.77026" xlink:href="#C0_0_dc16a49bef" y="146.916903"/>
    </g>
    <g clip-path="url(#p6ea8df9267)">
     <use style="fill:#66ccff;" x="800.375922" xlink:href="#C0_0_dc16a49bef" y="125.425173"/>
    </g>
    <g clip-path="url(#p6ea8df9267)">
     <use style="fill:#66ccff;" x="702.268216" xlink:href="#C0_0_dc16a49bef" y="183.487572"/>
    </g>
    <g clip-path="url(#p6ea8df9267)">
     <use style="fill:#66ccff;" x="767.592202" xlink:href="#C0_0_dc16a49bef" y="211.753066"/>
    </g>
    <g clip-path="url(#p6ea8df9267)">
     <use style="fill:#66ccff;" x="777.550526" xlink:href="#C0_0_dc16a49bef" y="138.838703"/>
    </g>
    <g clip-path="url(#p6ea8df9267)">
     <use style="fill:#66ccff;" x="709.990998" xlink:href="#C0_0_dc16a49bef" y="260.711766"/>
    </g>
    <g clip-path="url(#p6ea8df9267)">
     <use style="fill:#66ccff;" x="795.072859" xlink:href="#C0_0_dc16a49bef" y="141.797611"/>
    </g>
    <g clip-path="url(#p6ea8df9267)">
     <use style="fill:#66ccff;" x="702.746656" xlink:href="#C0_0_dc16a49bef" y="209.822393"/>
    </g>
    <g clip-path="url(#p6ea8df9267)">
     <use style="fill:#66ccff;" x="814.900596" xlink:href="#C0_0_dc16a49bef" y="168.170716"/>
    </g>
    <g clip-path="url(#p6ea8df9267)">
     <use style="fill:#66ccff;" x="742.357671" xlink:href="#C0_0_dc16a49bef" y="233.682341"/>
    </g>
    <g clip-path="url(#p6ea8df9267)">
     <use style="fill:#66ccff;" x="792.233975" xlink:href="#C0_0_dc16a49bef" y="163.715947"/>
    </g>
    <g clip-path="url(#p6ea8df9267)">
     <use style="fill:#66ccff;" x="748.084131" xlink:href="#C0_0_dc16a49bef" y="173.424007"/>
    </g>
    <g clip-path="url(#p6ea8df9267)">
     <use style="fill:#66ccff;" x="789.835424" xlink:href="#C0_0_dc16a49bef" y="192.202949"/>
    </g>
    <g clip-path="url(#p6ea8df9267)">
     <use style="fill:#66ccff;" x="779.515094" xlink:href="#C0_0_dc16a49bef" y="153.154673"/>
    </g>
    <g clip-path="url(#p6ea8df9267)">
     <use style="fill:#66ccff;" x="836.752175" xlink:href="#C0_0_dc16a49bef" y="151.79281"/>
    </g>
    <g clip-path="url(#p6ea8df9267)">
     <use style="fill:#66ccff;" x="697.117577" xlink:href="#C0_0_dc16a49bef" y="113.094571"/>
    </g>
    <g clip-path="url(#p6ea8df9267)">
     <use style="fill:#66ccff;" x="761.905964" xlink:href="#C0_0_dc16a49bef" y="175.078479"/>
    </g>
    <g clip-path="url(#p6ea8df9267)">
     <use style="fill:#66ccff;" x="802.56489" xlink:href="#C0_0_dc16a49bef" y="179.073824"/>
    </g>
    <g clip-path="url(#p6ea8df9267)">
     <use style="fill:#66ccff;" x="341.494873" xlink:href="#C0_0_dc16a49bef" y="379.68335"/>
    </g>
    <g clip-path="url(#p6ea8df9267)">
     <use style="fill:#66ccff;" x="787.28445" xlink:href="#C0_0_dc16a49bef" y="167.990228"/>
    </g>
    <g clip-path="url(#p6ea8df9267)">
     <use style="fill:#66ccff;" x="776.862504" xlink:href="#C0_0_dc16a49bef" y="165.695845"/>
    </g>
    <g clip-path="url(#p6ea8df9267)">
     <use style="fill:#66ccff;" x="818.444438" xlink:href="#C0_0_dc16a49bef" y="218.81397"/>
    </g>
    <g clip-path="url(#p6ea8df9267)">
     <use style="fill:#66ccff;" x="790.377374" xlink:href="#C0_0_dc16a49bef" y="172.395773"/>
    </g>
    <g clip-path="url(#p6ea8df9267)">
     <use style="fill:#66ccff;" x="792.703947" xlink:href="#C0_0_dc16a49bef" y="171.255418"/>
    </g>
    <g clip-path="url(#p6ea8df9267)">
     <use style="fill:#66ccff;" x="746.79065" xlink:href="#C0_0_dc16a49bef" y="186.506642"/>
    </g>
    <g clip-path="url(#p6ea8df9267)">
     <use style="fill:#66ccff;" x="781.407684" xlink:href="#C0_0_dc16a49bef" y="165.392297"/>
    </g>
    <g clip-path="url(#p6ea8df9267)">
     <use style="fill:#66ccff;" x="705.202365" xlink:href="#C0_0_dc16a49bef" y="128.597384"/>
    </g>
    <g clip-path="url(#p6ea8df9267)">
     <use style="fill:#66ccff;" x="715.126818" xlink:href="#C0_0_dc16a49bef" y="175.75941"/>
    </g>
    <g clip-path="url(#p6ea8df9267)">
     <use style="fill:#66ccff;" x="836.976576" xlink:href="#C0_0_dc16a49bef" y="8.307692"/>
    </g>
    <g clip-path="url(#p6ea8df9267)">
     <use style="fill:#66ccff;" x="814.667727" xlink:href="#C0_0_dc16a49bef" y="84.235655"/>
    </g>
    <g clip-path="url(#p6ea8df9267)">
     <use style="fill:#66ccff;" x="793.995311" xlink:href="#C0_0_dc16a49bef" y="187.91226"/>
    </g>
    <g clip-path="url(#p6ea8df9267)">
     <use style="fill:#66ccff;" x="849.221251" xlink:href="#C0_0_dc16a49bef" y="143.279799"/>
    </g>
    <g clip-path="url(#p6ea8df9267)">
     <use style="fill:#66ccff;" x="822.420147" xlink:href="#C0_0_dc16a49bef" y="223.230453"/>
    </g>
    <g clip-path="url(#p6ea8df9267)">
     <use style="fill:#66ccff;" x="781.071082" xlink:href="#C0_0_dc16a49bef" y="246.261799"/>
    </g>
    <g clip-path="url(#p6ea8df9267)">
     <use style="fill:#66ccff;" x="124.456739" xlink:href="#C0_0_dc16a49bef" y="380.645952"/>
    </g>
   </g>
   <g id="LineCollection_1">
    <path clip-path="url(#p6ea8df9267)" d="M 820.906499 163.674927 
L 814.900596 168.170716 
" style="fill:none;stroke:#999999;"/>
    <path clip-path="url(#p6ea8df9267)" d="M 820.906499 163.674927 
L 836.752175 151.79281 
" style="fill:none;stroke:#999999;"/>
    <path clip-path="url(#p6ea8df9267)" d="M 820.906499 163.674927 
L 808.331573 148.379948 
" style="fill:none;stroke:#999999;"/>
    <path clip-path="url(#p6ea8df9267)" d="M 713.435342 202.570062 
L 716.223419 200.128007 
" style="fill:none;stroke:#999999;"/>
    <path clip-path="url(#p6ea8df9267)" d="M 713.435342 202.570062 
L 702.268216 183.487572 
" style="fill:none;stroke:#999999;"/>
    <path clip-path="url(#p6ea8df9267)" d="M 713.435342 202.570062 
L 711.377627 204.372206 
L 705.926376 208.687507 
L 702.746656 209.822393 
" style="fill:none;stroke:#999999;"/>
    <path clip-path="url(#p6ea8df9267)" d="M 719.437011 96.596339 
L 745.77026 146.916903 
" style="fill:none;stroke:#999999;"/>
    <path clip-path="url(#p6ea8df9267)" d="M 719.437011 96.596339 
L 721.003584 95.436841 
L 745.452712 76.761817 
" style="fill:none;stroke:#999999;"/>
    <path clip-path="url(#p6ea8df9267)" d="M 719.437011 96.596339 
L 716.35679 98.874315 
L 697.117577 113.094571 
" style="fill:none;stroke:#999999;"/>
    <path clip-path="url(#p6ea8df9267)" d="M 781.858603 200.434289 
L 789.835424 192.202949 
" style="fill:none;stroke:#999999;"/>
    <path clip-path="url(#p6ea8df9267)" d="M 781.858603 200.434289 
L 785.554869 204.678489 
" style="fill:none;stroke:#999999;"/>
    <path clip-path="url(#p6ea8df9267)" d="M 781.858603 200.434289 
L 781.333589 199.829928 
" style="fill:none;stroke:#999999;"/>
    <path clip-path="url(#p6ea8df9267)" d="M 803.250795 178.365546 
L 802.56489 179.073824 
" style="fill:none;stroke:#999999;"/>
    <path clip-path="url(#p6ea8df9267)" d="M 803.250795 178.365546 
L 814.494133 168.485202 
L 814.900596 168.170716 
" style="fill:none;stroke:#999999;"/>
    <path clip-path="url(#p6ea8df9267)" d="M 759.634433 66.34001 
L 798.82205 126.354959 
" style="fill:none;stroke:#999999;"/>
    <path clip-path="url(#p6ea8df9267)" d="M 759.634433 66.34001 
L 745.452712 76.761817 
" style="fill:none;stroke:#999999;"/>
    <path clip-path="url(#p6ea8df9267)" d="M 759.634433 66.34001 
L 768.316212 59.826039 
L 836.976576 8.307692 
" style="fill:none;stroke:#999999;"/>
    <path clip-path="url(#p6ea8df9267)" d="M 752.60179 159.969457 
L 756.082122 166.196288 
" style="fill:none;stroke:#999999;"/>
    <path clip-path="url(#p6ea8df9267)" d="M 752.60179 159.969457 
L 745.77026 146.916903 
" style="fill:none;stroke:#999999;"/>
    <path clip-path="url(#p6ea8df9267)" d="M 752.60179 159.969457 
L 761.685797 154.858369 
L 779.515094 153.154673 
" style="fill:none;stroke:#999999;"/>
    <path clip-path="url(#p6ea8df9267)" d="M 687.277804 191.66422 
L 702.268216 183.487572 
" style="fill:none;stroke:#999999;"/>
    <path clip-path="url(#p6ea8df9267)" d="M 830.824601 134.074918 
L 808.331573 148.379948 
" style="fill:none;stroke:#999999;"/>
    <path clip-path="url(#p6ea8df9267)" d="M 830.824601 134.074918 
L 817.320316 115.334261 
L 801.396311 124.815343 
" style="fill:none;stroke:#999999;"/>
    <path clip-path="url(#p6ea8df9267)" d="M 830.824601 134.074918 
L 830.801314 138.409361 
L 836.752175 151.79281 
" style="fill:none;stroke:#999999;"/>
    <path clip-path="url(#p6ea8df9267)" d="M 830.824601 134.074918 
L 840.272731 128.397754 
L 814.667727 84.235655 
" style="fill:none;stroke:#999999;"/>
    <path clip-path="url(#p6ea8df9267)" d="M 768.386073 181.658082 
L 778.492587 173.708412 
L 780.213701 173.019276 
L 787.28445 167.990228 
" style="fill:none;stroke:#999999;"/>
    <path clip-path="url(#p6ea8df9267)" d="M 768.386073 181.658082 
L 771.339275 185.634284 
L 781.333589 199.829928 
" style="fill:none;stroke:#999999;"/>
    <path clip-path="url(#p6ea8df9267)" d="M 768.386073 181.658082 
L 764.865517 178.365546 
L 761.905964 175.078479 
" style="fill:none;stroke:#999999;"/>
    <path clip-path="url(#p6ea8df9267)" d="M 728.252161 189.66518 
L 741.04302 179.191414 
" style="fill:none;stroke:#999999;"/>
    <path clip-path="url(#p6ea8df9267)" d="M 728.252161 189.66518 
L 754.871204 223.791059 
" style="fill:none;stroke:#999999;"/>
    <path clip-path="url(#p6ea8df9267)" d="M 728.252161 189.66518 
L 726.935393 190.742638 
L 716.223419 200.128007 
" style="fill:none;stroke:#999999;"/>
    <path clip-path="url(#p6ea8df9267)" d="M 801.396311 124.815343 
L 800.375922 125.425173 
" style="fill:none;stroke:#999999;"/>
    <path clip-path="url(#p6ea8df9267)" d="M 801.396311 124.815343 
L 805.975362 106.936106 
L 813.130791 88.083328 
L 814.667727 84.235655 
" style="fill:none;stroke:#999999;"/>
    <path clip-path="url(#p6ea8df9267)" d="M 801.396311 124.815343 
L 817.320316 115.334261 
L 830.824601 134.074918 
" style="fill:none;stroke:#999999;"/>
    <path clip-path="url(#p6ea8df9267)" d="M 773.621391 129.926431 
L 745.77026 146.916903 
" style="fill:none;stroke:#999999;"/>
    <path clip-path="url(#p6ea8df9267)" d="M 773.621391 129.926431 
L 764.071646 111.251407 
L 745.452712 76.761817 
" style="fill:none;stroke:#999999;"/>
    <path clip-path="url(#p6ea8df9267)" d="M 773.621391 129.926431 
L 776.790527 136.120447 
L 777.550526 138.838703 
" style="fill:none;stroke:#999999;"/>
    <path clip-path="url(#p6ea8df9267)" d="M 754.871204 223.791059 
L 742.357671 233.682341 
" style="fill:none;stroke:#999999;"/>
    <path clip-path="url(#p6ea8df9267)" d="M 754.871204 223.791059 
L 767.592202 211.753066 
" style="fill:none;stroke:#999999;"/>
    <path clip-path="url(#p6ea8df9267)" d="M 754.871204 223.791059 
L 728.252161 189.66518 
" style="fill:none;stroke:#999999;"/>
    <path clip-path="url(#p6ea8df9267)" d="M 780.628631 249.242583 
L 781.071082 246.261799 
" style="fill:none;stroke:#999999;"/>
    <path clip-path="url(#p6ea8df9267)" d="M 808.331573 148.379948 
L 802.795642 151.79281 
" style="fill:none;stroke:#999999;"/>
    <path clip-path="url(#p6ea8df9267)" d="M 808.331573 148.379948 
L 830.824601 134.074918 
" style="fill:none;stroke:#999999;"/>
    <path clip-path="url(#p6ea8df9267)" d="M 808.331573 148.379948 
L 820.906499 163.674927 
" style="fill:none;stroke:#999999;"/>
    <path clip-path="url(#p6ea8df9267)" d="M 781.333589 199.829928 
L 781.858603 200.434289 
" style="fill:none;stroke:#999999;"/>
    <path clip-path="url(#p6ea8df9267)" d="M 781.333589 199.829928 
L 779.402893 201.987579 
L 767.592202 211.753066 
" style="fill:none;stroke:#999999;"/>
    <path clip-path="url(#p6ea8df9267)" d="M 781.333589 199.829928 
L 771.339275 185.634284 
L 768.386073 181.658082 
" style="fill:none;stroke:#999999;"/>
    <path clip-path="url(#p6ea8df9267)" d="M 802.795642 151.79281 
L 795.072859 141.797611 
" style="fill:none;stroke:#999999;"/>
    <path clip-path="url(#p6ea8df9267)" d="M 802.795642 151.79281 
L 801.557202 152.93043 
" style="fill:none;stroke:#999999;"/>
    <path clip-path="url(#p6ea8df9267)" d="M 802.795642 151.79281 
L 808.331573 148.379948 
" style="fill:none;stroke:#999999;"/>
    <path clip-path="url(#p6ea8df9267)" d="M 798.82205 126.354959 
L 759.634433 66.34001 
" style="fill:none;stroke:#999999;"/>
    <path clip-path="url(#p6ea8df9267)" d="M 798.82205 126.354959 
L 800.375922 125.425173 
" style="fill:none;stroke:#999999;"/>
    <path clip-path="url(#p6ea8df9267)" d="M 798.82205 126.354959 
L 783.103393 136.158732 
L 777.550526 138.838703 
" style="fill:none;stroke:#999999;"/>
    <path clip-path="url(#p6ea8df9267)" d="M 793.597317 140.662725 
L 795.072859 141.797611 
" style="fill:none;stroke:#999999;"/>
    <path clip-path="url(#p6ea8df9267)" d="M 716.223419 200.128007 
L 713.435342 202.570062 
" style="fill:none;stroke:#999999;"/>
    <path clip-path="url(#p6ea8df9267)" d="M 716.223419 200.128007 
L 742.357671 233.682341 
" style="fill:none;stroke:#999999;"/>
    <path clip-path="url(#p6ea8df9267)" d="M 716.223419 200.128007 
L 726.935393 190.742638 
L 728.252161 189.66518 
" style="fill:none;stroke:#999999;"/>
    <path clip-path="url(#p6ea8df9267)" d="M 745.452712 76.761817 
L 759.634433 66.34001 
" style="fill:none;stroke:#999999;"/>
    <path clip-path="url(#p6ea8df9267)" d="M 745.452712 76.761817 
L 764.071646 111.251407 
L 773.621391 129.926431 
" style="fill:none;stroke:#999999;"/>
    <path clip-path="url(#p6ea8df9267)" d="M 745.452712 76.761817 
L 721.003584 95.436841 
L 719.437011 96.596339 
" style="fill:none;stroke:#999999;"/>
    <path clip-path="url(#p6ea8df9267)" d="M 801.557202 152.93043 
L 802.795642 151.79281 
" style="fill:none;stroke:#999999;"/>
    <path clip-path="url(#p6ea8df9267)" d="M 801.557202 152.93043 
L 814.900596 168.170716 
" style="fill:none;stroke:#999999;"/>
    <path clip-path="url(#p6ea8df9267)" d="M 801.557202 152.93043 
L 798.593415 155.651421 
L 796.550519 158.831836 
L 793.823835 161.558297 
L 792.233975 163.715947 
" style="fill:none;stroke:#999999;"/>
    <path clip-path="url(#p6ea8df9267)" d="M 756.082122 166.196288 
L 752.60179 159.969457 
" style="fill:none;stroke:#999999;"/>
    <path clip-path="url(#p6ea8df9267)" d="M 756.082122 166.196288 
L 753.281344 169.166134 
L 748.084131 173.424007 
" style="fill:none;stroke:#999999;"/>
    <path clip-path="url(#p6ea8df9267)" d="M 756.082122 166.196288 
L 756.801899 168.373081 
L 759.755102 172.688382 
L 761.905964 175.078479 
" style="fill:none;stroke:#999999;"/>
    <path clip-path="url(#p6ea8df9267)" d="M 756.082122 166.196288 
L 760.282232 165.714987 
L 766.129361 166.160738 
L 770.431086 165.873598 
L 775.427185 165.646621 
L 776.862504 165.695845 
" style="fill:none;stroke:#999999;"/>
    <path clip-path="url(#p6ea8df9267)" d="M 741.04302 179.191414 
L 728.252161 189.66518 
" style="fill:none;stroke:#999999;"/>
    <path clip-path="url(#p6ea8df9267)" d="M 741.04302 179.191414 
L 748.084131 173.424007 
" style="fill:none;stroke:#999999;"/>
    <path clip-path="url(#p6ea8df9267)" d="M 741.04302 179.191414 
L 745.560678 185.065474 
L 746.79065 186.506642 
" style="fill:none;stroke:#999999;"/>
    <path clip-path="url(#p6ea8df9267)" d="M 785.554869 204.678489 
L 781.858603 200.434289 
" style="fill:none;stroke:#999999;"/>
    <path clip-path="url(#p6ea8df9267)" d="M 785.554869 204.678489 
L 782.332809 237.770665 
L 781.071082 246.261799 
" style="fill:none;stroke:#999999;"/>
    <path clip-path="url(#p6ea8df9267)" d="M 785.554869 204.678489 
L 788.088907 206.166146 
L 796.324001 214.933481 
L 805.725557 225.959649 
L 806.521546 227.559427 
L 809.701266 224.832967 
L 815.264718 220.405545 
L 818.444438 218.81397 
" style="fill:none;stroke:#999999;"/>
    <path clip-path="url(#p6ea8df9267)" d="M 726.293945 169.045809 
L 715.126818 175.75941 
" style="fill:none;stroke:#999999;"/>
    <path clip-path="url(#p6ea8df9267)" d="M 726.293945 169.045809 
L 705.202365 128.597384 
" style="fill:none;stroke:#999999;"/>
    <path clip-path="url(#p6ea8df9267)" d="M 726.293945 169.045809 
L 739.880792 160.877365 
L 748.084131 173.424007 
" style="fill:none;stroke:#999999;"/>
    <path clip-path="url(#p6ea8df9267)" d="M 745.77026 146.916903 
L 773.621391 129.926431 
" style="fill:none;stroke:#999999;"/>
    <path clip-path="url(#p6ea8df9267)" d="M 745.77026 146.916903 
L 752.60179 159.969457 
" style="fill:none;stroke:#999999;"/>
    <path clip-path="url(#p6ea8df9267)" d="M 745.77026 146.916903 
L 719.437011 96.596339 
" style="fill:none;stroke:#999999;"/>
    <path clip-path="url(#p6ea8df9267)" d="M 800.375922 125.425173 
L 801.396311 124.815343 
" style="fill:none;stroke:#999999;"/>
    <path clip-path="url(#p6ea8df9267)" d="M 800.375922 125.425173 
L 798.82205 126.354959 
" style="fill:none;stroke:#999999;"/>
    <path clip-path="url(#p6ea8df9267)" d="M 800.375922 125.425173 
L 801.660935 128.397754 
L 801.320099 129.647496 
L 795.072859 141.797611 
" style="fill:none;stroke:#999999;"/>
    <path clip-path="url(#p6ea8df9267)" d="M 702.268216 183.487572 
L 715.126818 175.75941 
" style="fill:none;stroke:#999999;"/>
    <path clip-path="url(#p6ea8df9267)" d="M 702.268216 183.487572 
L 687.277804 191.66422 
" style="fill:none;stroke:#999999;"/>
    <path clip-path="url(#p6ea8df9267)" d="M 702.268216 183.487572 
L 713.435342 202.570062 
" style="fill:none;stroke:#999999;"/>
    <path clip-path="url(#p6ea8df9267)" d="M 767.592202 211.753066 
L 754.871204 223.791059 
" style="fill:none;stroke:#999999;"/>
    <path clip-path="url(#p6ea8df9267)" d="M 767.592202 211.753066 
L 779.402893 201.987579 
L 781.333589 199.829928 
" style="fill:none;stroke:#999999;"/>
    <path clip-path="url(#p6ea8df9267)" d="M 767.592202 211.753066 
L 760.095937 202.0997 
L 746.79065 186.506642 
" style="fill:none;stroke:#999999;"/>
    <path clip-path="url(#p6ea8df9267)" d="M 777.550526 138.838703 
L 779.515094 153.154673 
" style="fill:none;stroke:#999999;"/>
    <path clip-path="url(#p6ea8df9267)" d="M 777.550526 138.838703 
L 783.103393 136.158732 
L 798.82205 126.354959 
" style="fill:none;stroke:#999999;"/>
    <path clip-path="url(#p6ea8df9267)" d="M 777.550526 138.838703 
L 776.790527 136.120447 
L 773.621391 129.926431 
" style="fill:none;stroke:#999999;"/>
    <path clip-path="url(#p6ea8df9267)" d="M 709.990998 260.711766 
L 725.004697 248.321001 
L 742.357671 233.682341 
" style="fill:none;stroke:#999999;"/>
    <path clip-path="url(#p6ea8df9267)" d="M 795.072859 141.797611 
L 802.795642 151.79281 
" style="fill:none;stroke:#999999;"/>
    <path clip-path="url(#p6ea8df9267)" d="M 795.072859 141.797611 
L 793.597317 140.662725 
" style="fill:none;stroke:#999999;"/>
    <path clip-path="url(#p6ea8df9267)" d="M 795.072859 141.797611 
L 801.320099 129.647496 
L 801.660935 128.397754 
L 800.375922 125.425173 
" style="fill:none;stroke:#999999;"/>
    <path clip-path="url(#p6ea8df9267)" d="M 702.746656 209.822393 
L 705.926376 208.687507 
L 711.377627 204.372206 
L 713.435342 202.570062 
" style="fill:none;stroke:#999999;"/>
    <path clip-path="url(#p6ea8df9267)" d="M 814.900596 168.170716 
L 820.906499 163.674927 
" style="fill:none;stroke:#999999;"/>
    <path clip-path="url(#p6ea8df9267)" d="M 814.900596 168.170716 
L 801.557202 152.93043 
" style="fill:none;stroke:#999999;"/>
    <path clip-path="url(#p6ea8df9267)" d="M 814.900596 168.170716 
L 814.494133 168.485202 
L 803.250795 178.365546 
" style="fill:none;stroke:#999999;"/>
    <path clip-path="url(#p6ea8df9267)" d="M 742.357671 233.682341 
L 754.871204 223.791059 
" style="fill:none;stroke:#999999;"/>
    <path clip-path="url(#p6ea8df9267)" d="M 742.357671 233.682341 
L 716.223419 200.128007 
" style="fill:none;stroke:#999999;"/>
    <path clip-path="url(#p6ea8df9267)" d="M 742.357671 233.682341 
L 725.004697 248.321001 
L 709.990998 260.711766 
" style="fill:none;stroke:#999999;"/>
    <path clip-path="url(#p6ea8df9267)" d="M 792.233975 163.715947 
L 793.823835 161.558297 
L 796.550519 158.831836 
L 798.593415 155.651421 
L 801.557202 152.93043 
" style="fill:none;stroke:#999999;"/>
    <path clip-path="url(#p6ea8df9267)" d="M 748.084131 173.424007 
L 741.04302 179.191414 
" style="fill:none;stroke:#999999;"/>
    <path clip-path="url(#p6ea8df9267)" d="M 748.084131 173.424007 
L 753.281344 169.166134 
L 756.082122 166.196288 
" style="fill:none;stroke:#999999;"/>
    <path clip-path="url(#p6ea8df9267)" d="M 748.084131 173.424007 
L 739.880792 160.877365 
L 726.293945 169.045809 
" style="fill:none;stroke:#999999;"/>
    <path clip-path="url(#p6ea8df9267)" d="M 789.835424 192.202949 
L 781.858603 200.434289 
" style="fill:none;stroke:#999999;"/>
    <path clip-path="url(#p6ea8df9267)" d="M 789.835424 192.202949 
L 793.995311 187.91226 
" style="fill:none;stroke:#999999;"/>
    <path clip-path="url(#p6ea8df9267)" d="M 789.835424 192.202949 
L 789.702054 186.968801 
L 790.303279 174.050245 
L 790.377374 172.395773 
" style="fill:none;stroke:#999999;"/>
    <path clip-path="url(#p6ea8df9267)" d="M 779.515094 153.154673 
L 777.550526 138.838703 
" style="fill:none;stroke:#999999;"/>
    <path clip-path="url(#p6ea8df9267)" d="M 779.515094 153.154673 
L 761.685797 154.858369 
L 752.60179 159.969457 
" style="fill:none;stroke:#999999;"/>
    <path clip-path="url(#p6ea8df9267)" d="M 779.515094 153.154673 
L 781.104954 163.147137 
L 781.407684 165.392297 
" style="fill:none;stroke:#999999;"/>
    <path clip-path="url(#p6ea8df9267)" d="M 836.752175 151.79281 
L 820.906499 163.674927 
" style="fill:none;stroke:#999999;"/>
    <path clip-path="url(#p6ea8df9267)" d="M 836.752175 151.79281 
L 849.221251 143.279799 
" style="fill:none;stroke:#999999;"/>
    <path clip-path="url(#p6ea8df9267)" d="M 836.752175 151.79281 
L 830.801314 138.409361 
L 830.824601 134.074918 
" style="fill:none;stroke:#999999;"/>
    <path clip-path="url(#p6ea8df9267)" d="M 697.117577 113.094571 
L 705.202365 128.597384 
" style="fill:none;stroke:#999999;"/>
    <path clip-path="url(#p6ea8df9267)" d="M 697.117577 113.094571 
L 716.35679 98.874315 
L 719.437011 96.596339 
" style="fill:none;stroke:#999999;"/>
    <path clip-path="url(#p6ea8df9267)" d="M 697.117577 113.094571 
L 687.6885 120.062496 
L 653.507566 145.667161 
L 578.358626 201.957497 
L 482.376378 274.190928 
L 478.415489 277.319385 
L 419.556793 321.169732 
L 341.494873 379.68335 
" style="fill:none;stroke:#999999;"/>
    <path clip-path="url(#p6ea8df9267)" d="M 761.905964 175.078479 
L 764.865517 178.365546 
L 768.386073 181.658082 
" style="fill:none;stroke:#999999;"/>
    <path clip-path="url(#p6ea8df9267)" d="M 761.905964 175.078479 
L 759.755102 172.688382 
L 756.801899 168.373081 
L 756.082122 166.196288 
" style="fill:none;stroke:#999999;"/>
    <path clip-path="url(#p6ea8df9267)" d="M 761.905964 175.078479 
L 754.547304 180.911518 
L 751.765578 182.957048 
L 746.79065 186.506642 
" style="fill:none;stroke:#999999;"/>
    <path clip-path="url(#p6ea8df9267)" d="M 802.56489 179.073824 
L 793.995311 187.91226 
" style="fill:none;stroke:#999999;"/>
    <path clip-path="url(#p6ea8df9267)" d="M 802.56489 179.073824 
L 803.250795 178.365546 
" style="fill:none;stroke:#999999;"/>
    <path clip-path="url(#p6ea8df9267)" d="M 802.56489 179.073824 
L 800.143053 177.67641 
L 797.191967 175.688309 
L 793.72857 172.395773 
L 792.703947 171.255418 
" style="fill:none;stroke:#999999;"/>
    <path clip-path="url(#p6ea8df9267)" d="M 341.494873 379.68335 
L 419.556793 321.169732 
L 478.415489 277.319385 
L 482.376378 274.190928 
L 578.358626 201.957497 
L 653.507566 145.667161 
L 687.6885 120.062496 
L 697.117577 113.094571 
" style="fill:none;stroke:#999999;"/>
    <path clip-path="url(#p6ea8df9267)" d="M 341.494873 379.68335 
L 338.639052 378.430874 
L 335.347132 378.091775 
L 329.838721 378.657851 
L 309.509258 383.429841 
L 300.766086 386.437972 
L 294.008652 387.914691 
L 287.479852 388.313952 
L 280.948935 388.825334 
L 276.463032 390.017648 
L 245.006665 408.700876 
L 241.541151 411.48203 
L 230.045891 421.592085 
L 227.289569 423.011376 
L 223.201659 423.692308 
L 210.652138 423.577452 
L 197.139385 422.158161 
L 156.93773 416.877523 
L 151.202801 415.061706 
L 143.706537 411.48203 
L 138.627876 409.32438 
L 136.608267 406.201393 
L 133.460301 399.556158 
L 131.55501 393.42504 
L 129.454955 389.675815 
L 124.456739 380.645952 
" style="fill:none;stroke:#999999;"/>
    <path clip-path="url(#p6ea8df9267)" d="M 787.28445 167.990228 
L 780.213701 173.019276 
L 778.492587 173.708412 
L 768.386073 181.658082 
" style="fill:none;stroke:#999999;"/>
    <path clip-path="url(#p6ea8df9267)" d="M 776.862504 165.695845 
L 775.427185 165.646621 
L 770.431086 165.873598 
L 766.129361 166.160738 
L 760.282232 165.714987 
L 756.082122 166.196288 
" style="fill:none;stroke:#999999;"/>
    <path clip-path="url(#p6ea8df9267)" d="M 818.444438 218.81397 
L 793.995311 187.91226 
" style="fill:none;stroke:#999999;"/>
    <path clip-path="url(#p6ea8df9267)" d="M 818.444438 218.81397 
L 822.420147 223.230453 
" style="fill:none;stroke:#999999;"/>
    <path clip-path="url(#p6ea8df9267)" d="M 818.444438 218.81397 
L 815.264718 220.405545 
L 809.701266 224.832967 
L 806.521546 227.559427 
L 805.725557 225.959649 
L 796.324001 214.933481 
L 788.088907 206.166146 
L 785.554869 204.678489 
" style="fill:none;stroke:#999999;"/>
    <path clip-path="url(#p6ea8df9267)" d="M 790.377374 172.395773 
L 790.303279 174.050245 
L 789.702054 186.968801 
L 789.835424 192.202949 
" style="fill:none;stroke:#999999;"/>
    <path clip-path="url(#p6ea8df9267)" d="M 792.703947 171.255418 
L 793.72857 172.395773 
L 797.191967 175.688309 
L 800.143053 177.67641 
L 802.56489 179.073824 
" style="fill:none;stroke:#999999;"/>
    <path clip-path="url(#p6ea8df9267)" d="M 746.79065 186.506642 
L 760.095937 202.0997 
L 767.592202 211.753066 
" style="fill:none;stroke:#999999;"/>
    <path clip-path="url(#p6ea8df9267)" d="M 746.79065 186.506642 
L 745.560678 185.065474 
L 741.04302 179.191414 
" style="fill:none;stroke:#999999;"/>
    <path clip-path="url(#p6ea8df9267)" d="M 746.79065 186.506642 
L 751.765578 182.957048 
L 754.547304 180.911518 
L 761.905964 175.078479 
" style="fill:none;stroke:#999999;"/>
    <path clip-path="url(#p6ea8df9267)" d="M 781.407684 165.392297 
L 781.104954 163.147137 
L 779.515094 153.154673 
" style="fill:none;stroke:#999999;"/>
    <path clip-path="url(#p6ea8df9267)" d="M 705.202365 128.597384 
L 697.117577 113.094571 
" style="fill:none;stroke:#999999;"/>
    <path clip-path="url(#p6ea8df9267)" d="M 705.202365 128.597384 
L 726.293945 169.045809 
" style="fill:none;stroke:#999999;"/>
    <path clip-path="url(#p6ea8df9267)" d="M 705.202365 128.597384 
L 694.642815 134.807808 
L 705.168493 155.853787 
L 715.126818 175.75941 
" style="fill:none;stroke:#999999;"/>
    <path clip-path="url(#p6ea8df9267)" d="M 715.126818 175.75941 
L 726.293945 169.045809 
" style="fill:none;stroke:#999999;"/>
    <path clip-path="url(#p6ea8df9267)" d="M 715.126818 175.75941 
L 702.268216 183.487572 
" style="fill:none;stroke:#999999;"/>
    <path clip-path="url(#p6ea8df9267)" d="M 715.126818 175.75941 
L 705.168493 155.853787 
L 694.642815 134.807808 
L 705.202365 128.597384 
" style="fill:none;stroke:#999999;"/>
    <path clip-path="url(#p6ea8df9267)" d="M 836.976576 8.307692 
L 838.773901 14.518116 
L 837.863595 21.330165 
L 835.592064 27.464018 
L 829.131008 41.454562 
L 823.783489 58.576297 
L 814.667727 84.235655 
" style="fill:none;stroke:#999999;"/>
    <path clip-path="url(#p6ea8df9267)" d="M 836.976576 8.307692 
L 768.316212 59.826039 
L 759.634433 66.34001 
" style="fill:none;stroke:#999999;"/>
    <path clip-path="url(#p6ea8df9267)" d="M 814.667727 84.235655 
L 813.130791 88.083328 
L 805.975362 106.936106 
L 801.396311 124.815343 
" style="fill:none;stroke:#999999;"/>
    <path clip-path="url(#p6ea8df9267)" d="M 814.667727 84.235655 
L 823.783489 58.576297 
L 829.131008 41.454562 
L 835.592064 27.464018 
L 837.863595 21.330165 
L 838.773901 14.518116 
L 836.976576 8.307692 
" style="fill:none;stroke:#999999;"/>
    <path clip-path="url(#p6ea8df9267)" d="M 814.667727 84.235655 
L 840.272731 128.397754 
L 830.824601 134.074918 
" style="fill:none;stroke:#999999;"/>
    <path clip-path="url(#p6ea8df9267)" d="M 793.995311 187.91226 
L 789.835424 192.202949 
" style="fill:none;stroke:#999999;"/>
    <path clip-path="url(#p6ea8df9267)" d="M 793.995311 187.91226 
L 802.56489 179.073824 
" style="fill:none;stroke:#999999;"/>
    <path clip-path="url(#p6ea8df9267)" d="M 793.995311 187.91226 
L 818.444438 218.81397 
" style="fill:none;stroke:#999999;"/>
    <path clip-path="url(#p6ea8df9267)" d="M 849.221251 143.279799 
L 836.752175 151.79281 
" style="fill:none;stroke:#999999;"/>
    <path clip-path="url(#p6ea8df9267)" d="M 822.420147 223.230453 
L 818.444438 218.81397 
" style="fill:none;stroke:#999999;"/>
    <path clip-path="url(#p6ea8df9267)" d="M 781.071082 246.261799 
L 780.628631 249.242583 
" style="fill:none;stroke:#999999;"/>
    <path clip-path="url(#p6ea8df9267)" d="M 781.071082 246.261799 
L 782.332809 237.770665 
L 785.554869 204.678489 
" style="fill:none;stroke:#999999;"/>
    <path clip-path="url(#p6ea8df9267)" d="M 124.456739 380.645952 
L 129.454955 389.675815 
L 131.55501 393.42504 
L 133.460301 399.556158 
L 136.608267 406.201393 
L 138.627876 409.32438 
L 143.706537 411.48203 
L 151.202801 415.061706 
L 156.93773 416.877523 
L 197.139385 422.158161 
L 210.652138 423.577452 
L 223.201659 423.692308 
L 227.289569 423.011376 
L 230.045891 421.592085 
L 241.541151 411.48203 
L 245.006665 408.700876 
L 276.463032 390.017648 
L 280.948935 388.825334 
L 287.479852 388.313952 
L 294.008652 387.914691 
L 300.766086 386.437972 
L 309.509258 383.429841 
L 329.838721 378.657851 
L 335.347132 378.091775 
L 338.639052 378.430874 
L 341.494873 379.68335 
" style="fill:none;stroke:#999999;"/>
   </g>
  </g>
 </g>
 <defs>
  <clipPath id="p6ea8df9267">
   <rect height="432" width="753.755092" x="109.961449" y="0"/>
  </clipPath>
 </defs>
</svg>
