<?xml version="1.0" encoding="utf-8" standalone="no"?>
<!DOCTYPE svg PUBLIC "-//W3C//DTD SVG 1.1//EN"
  "http://www.w3.org/Graphics/SVG/1.1/DTD/svg11.dtd">
<!-- Created with matplotlib (http://matplotlib.org/) -->
<svg height="432pt" version="1.1" viewBox="0 0 962.843105 432" width="962.843105pt" xmlns="http://www.w3.org/2000/svg" xmlns:xlink="http://www.w3.org/1999/xlink">
 <defs>
  <style type="text/css">
*{stroke-linecap:butt;stroke-linejoin:round;}
  </style>
 </defs>
 <g id="figure_1">
  <g id="patch_1">
   <path d="M 0 432 
L 962.843105 432 
L 962.843105 0 
L 0 0 
z
" style="fill:none;opacity:0;"/>
  </g>
  <g id="axes_1">
   <g id="PathCollection_1">
    <defs>
     <path d="M 0 1.936492 
C 0.513564 1.936492 1.006162 1.732451 1.369306 1.369306 
C 1.732451 1.006162 1.936492 0.513564 1.936492 0 
C 1.936492 -0.513564 1.732451 -1.006162 1.369306 -1.369306 
C 1.006162 -1.732451 0.513564 -1.936492 0 -1.936492 
C -0.513564 -1.936492 -1.006162 -1.732451 -1.369306 -1.369306 
C -1.732451 -1.006162 -1.936492 -0.513564 -1.936492 0 
C -1.936492 0.513564 -1.732451 1.006162 -1.369306 1.369306 
C -1.006162 1.732451 -0.513564 1.936492 0 1.936492 
z
" id="C0_0_c6a34a4713"/>
    </defs>
    <g clip-path="url(#p32f29a5ba3)">
     <use style="fill:#66ccff;" x="419.135223" xlink:href="#C0_0_c6a34a4713" y="257.594857"/>
    </g>
    <g clip-path="url(#p32f29a5ba3)">
     <use style="fill:#66ccff;" x="122.272197" xlink:href="#C0_0_c6a34a4713" y="8.307692"/>
    </g>
    <g clip-path="url(#p32f29a5ba3)">
     <use style="fill:#66ccff;" x="423.750629" xlink:href="#C0_0_c6a34a4713" y="238.282832"/>
    </g>
    <g clip-path="url(#p32f29a5ba3)">
     <use style="fill:#66ccff;" x="353.125805" xlink:href="#C0_0_c6a34a4713" y="182.114494"/>
    </g>
    <g clip-path="url(#p32f29a5ba3)">
     <use style="fill:#66ccff;" x="409.610117" xlink:href="#C0_0_c6a34a4713" y="234.909096"/>
    </g>
    <g clip-path="url(#p32f29a5ba3)">
     <use style="fill:#66ccff;" x="429.60873" xlink:href="#C0_0_c6a34a4713" y="239.655514"/>
    </g>
    <g clip-path="url(#p32f29a5ba3)">
     <use style="fill:#66ccff;" x="434.546193" xlink:href="#C0_0_c6a34a4713" y="231.480968"/>
    </g>
    <g clip-path="url(#p32f29a5ba3)">
     <use style="fill:#66ccff;" x="431.635466" xlink:href="#C0_0_c6a34a4713" y="230.781028"/>
    </g>
    <g clip-path="url(#p32f29a5ba3)">
     <use style="fill:#66ccff;" x="417.850327" xlink:href="#C0_0_c6a34a4713" y="227.564743"/>
    </g>
    <g clip-path="url(#p32f29a5ba3)">
     <use style="fill:#66ccff;" x="411.490262" xlink:href="#C0_0_c6a34a4713" y="225.935846"/>
    </g>
    <g clip-path="url(#p32f29a5ba3)">
     <use style="fill:#66ccff;" x="409.386898" xlink:href="#C0_0_c6a34a4713" y="225.430572"/>
    </g>
    <g clip-path="url(#p32f29a5ba3)">
     <use style="fill:#66ccff;" x="403.74091" xlink:href="#C0_0_c6a34a4713" y="212.032962"/>
    </g>
    <g clip-path="url(#p32f29a5ba3)">
     <use style="fill:#66ccff;" x="399.739633" xlink:href="#C0_0_c6a34a4713" y="211.062494"/>
    </g>
    <g clip-path="url(#p32f29a5ba3)">
     <use style="fill:#66ccff;" x="450.068218" xlink:href="#C0_0_c6a34a4713" y="205.339882"/>
    </g>
    <g clip-path="url(#p32f29a5ba3)">
     <use style="fill:#66ccff;" x="441.179452" xlink:href="#C0_0_c6a34a4713" y="203.310201"/>
    </g>
    <g clip-path="url(#p32f29a5ba3)">
     <use style="fill:#66ccff;" x="435.959911" xlink:href="#C0_0_c6a34a4713" y="202.846438"/>
    </g>
    <g clip-path="url(#p32f29a5ba3)">
     <use style="fill:#66ccff;" x="432.132989" xlink:href="#C0_0_c6a34a4713" y="202.296792"/>
    </g>
    <g clip-path="url(#p32f29a5ba3)">
     <use style="fill:#66ccff;" x="425.35647" xlink:href="#C0_0_c6a34a4713" y="199.914995"/>
    </g>
    <g clip-path="url(#p32f29a5ba3)">
     <use style="fill:#66ccff;" x="138.208454" xlink:href="#C0_0_c6a34a4713" y="36.995183"/>
    </g>
    <g clip-path="url(#p32f29a5ba3)">
     <use style="fill:#66ccff;" x="424.503575" xlink:href="#C0_0_c6a34a4713" y="199.405427"/>
    </g>
    <g clip-path="url(#p32f29a5ba3)">
     <use style="fill:#66ccff;" x="415.961298" xlink:href="#C0_0_c6a34a4713" y="197.29559"/>
    </g>
    <g clip-path="url(#p32f29a5ba3)">
     <use style="fill:#66ccff;" x="407.367935" xlink:href="#C0_0_c6a34a4713" y="195.099871"/>
    </g>
    <g clip-path="url(#p32f29a5ba3)">
     <use style="fill:#66ccff;" x="403.493259" xlink:href="#C0_0_c6a34a4713" y="194.241049"/>
    </g>
    <g clip-path="url(#p32f29a5ba3)">
     <use style="fill:#66ccff;" x="422.19143" xlink:href="#C0_0_c6a34a4713" y="171.46368"/>
    </g>
    <g clip-path="url(#p32f29a5ba3)">
     <use style="fill:#66ccff;" x="448.111445" xlink:href="#C0_0_c6a34a4713" y="46.834411"/>
    </g>
    <g clip-path="url(#p32f29a5ba3)">
     <use style="fill:#66ccff;" x="433.34903" xlink:href="#C0_0_c6a34a4713" y="166.146145"/>
    </g>
    <g clip-path="url(#p32f29a5ba3)">
     <use style="fill:#66ccff;" x="459.29792" xlink:href="#C0_0_c6a34a4713" y="165.96293"/>
    </g>
    <g clip-path="url(#p32f29a5ba3)">
     <use style="fill:#66ccff;" x="423.555174" xlink:href="#C0_0_c6a34a4713" y="162.935585"/>
    </g>
    <g clip-path="url(#p32f29a5ba3)">
     <use style="fill:#66ccff;" x="835.8289" xlink:href="#C0_0_c6a34a4713" y="285.976035"/>
    </g>
    <g clip-path="url(#p32f29a5ba3)">
     <use style="fill:#66ccff;" x="152.749871" xlink:href="#C0_0_c6a34a4713" y="423.692308"/>
    </g>
    <g clip-path="url(#p32f29a5ba3)">
     <use style="fill:#66ccff;" x="151.723732" xlink:href="#C0_0_c6a34a4713" y="350.29888"/>
    </g>
    <g clip-path="url(#p32f29a5ba3)">
     <use style="fill:#66ccff;" x="151.441654" xlink:href="#C0_0_c6a34a4713" y="334.492276"/>
    </g>
    <g clip-path="url(#p32f29a5ba3)">
     <use style="fill:#66ccff;" x="148.835216" xlink:href="#C0_0_c6a34a4713" y="295.530421"/>
    </g>
    <g clip-path="url(#p32f29a5ba3)">
     <use style="fill:#66ccff;" x="151.892534" xlink:href="#C0_0_c6a34a4713" y="136.138933"/>
    </g>
    <g clip-path="url(#p32f29a5ba3)">
     <use style="fill:#66ccff;" x="835.328046" xlink:href="#C0_0_c6a34a4713" y="290.768257"/>
    </g>
    <g clip-path="url(#p32f29a5ba3)">
     <use style="fill:#66ccff;" x="144.591841" xlink:href="#C0_0_c6a34a4713" y="165.553559"/>
    </g>
    <g clip-path="url(#p32f29a5ba3)">
     <use style="fill:#66ccff;" x="834.61619" xlink:href="#C0_0_c6a34a4713" y="289.889397"/>
    </g>
    <g clip-path="url(#p32f29a5ba3)">
     <use style="fill:#66ccff;" x="422.024849" xlink:href="#C0_0_c6a34a4713" y="245.502655"/>
    </g>
    <g clip-path="url(#p32f29a5ba3)">
     <use style="fill:#66ccff;" x="832.1097" xlink:href="#C0_0_c6a34a4713" y="287.397384"/>
    </g>
    <g clip-path="url(#p32f29a5ba3)">
     <use style="fill:#66ccff;" x="148.365457" xlink:href="#C0_0_c6a34a4713" y="133.296235"/>
    </g>
    <g clip-path="url(#p32f29a5ba3)">
     <use style="fill:#66ccff;" x="441.208326" xlink:href="#C0_0_c6a34a4713" y="242.373683"/>
    </g>
    <g clip-path="url(#p32f29a5ba3)">
     <use style="fill:#66ccff;" x="443.310579" xlink:href="#C0_0_c6a34a4713" y="233.589374"/>
    </g>
    <g clip-path="url(#p32f29a5ba3)">
     <use style="fill:#66ccff;" x="425.744049" xlink:href="#C0_0_c6a34a4713" y="229.363973"/>
    </g>
    <g clip-path="url(#p32f29a5ba3)">
     <use style="fill:#66ccff;" x="402.987964" xlink:href="#C0_0_c6a34a4713" y="223.89042"/>
    </g>
    <g clip-path="url(#p32f29a5ba3)">
     <use style="fill:#66ccff;" x="135.724175" xlink:href="#C0_0_c6a34a4713" y="56.334405"/>
    </g>
    <g clip-path="url(#p32f29a5ba3)">
     <use style="fill:#66ccff;" x="451.031056" xlink:href="#C0_0_c6a34a4713" y="218.93359"/>
    </g>
    <g clip-path="url(#p32f29a5ba3)">
     <use style="fill:#66ccff;" x="447.037553" xlink:href="#C0_0_c6a34a4713" y="218.007495"/>
    </g>
    <g clip-path="url(#p32f29a5ba3)">
     <use style="fill:#66ccff;" x="438.215419" xlink:href="#C0_0_c6a34a4713" y="215.897657"/>
    </g>
    <g clip-path="url(#p32f29a5ba3)">
     <use style="fill:#66ccff;" x="429.327763" xlink:href="#C0_0_c6a34a4713" y="213.731996"/>
    </g>
    <g clip-path="url(#p32f29a5ba3)">
     <use style="fill:#66ccff;" x="452.097175" xlink:href="#C0_0_c6a34a4713" y="196.690121"/>
    </g>
    <g clip-path="url(#p32f29a5ba3)">
     <use style="fill:#66ccff;" x="438.104365" xlink:href="#C0_0_c6a34a4713" y="193.979109"/>
    </g>
    <g clip-path="url(#p32f29a5ba3)">
     <use style="fill:#66ccff;" x="140.999242" xlink:href="#C0_0_c6a34a4713" y="88.102201"/>
    </g>
    <g clip-path="url(#p32f29a5ba3)">
     <use style="fill:#66ccff;" x="592.838195" xlink:href="#C0_0_c6a34a4713" y="224.133752"/>
    </g>
    <g clip-path="url(#p32f29a5ba3)">
     <use style="fill:#66ccff;" x="153.559455" xlink:href="#C0_0_c6a34a4713" y="133.908861"/>
    </g>
    <g clip-path="url(#p32f29a5ba3)">
     <use style="fill:#66ccff;" x="438.263172" xlink:href="#C0_0_c6a34a4713" y="193.320679"/>
    </g>
    <g clip-path="url(#p32f29a5ba3)">
     <use style="fill:#66ccff;" x="427.453171" xlink:href="#C0_0_c6a34a4713" y="191.46992"/>
    </g>
    <g clip-path="url(#p32f29a5ba3)">
     <use style="fill:#66ccff;" x="458.061888" xlink:href="#C0_0_c6a34a4713" y="188.578555"/>
    </g>
    <g clip-path="url(#p32f29a5ba3)">
     <use style="fill:#66ccff;" x="834.951573" xlink:href="#C0_0_c6a34a4713" y="286.688857"/>
    </g>
    <g clip-path="url(#p32f29a5ba3)">
     <use style="fill:#66ccff;" x="397.319765" xlink:href="#C0_0_c6a34a4713" y="222.330228"/>
    </g>
    <g clip-path="url(#p32f29a5ba3)">
     <use style="fill:#66ccff;" x="454.209423" xlink:href="#C0_0_c6a34a4713" y="187.691106"/>
    </g>
    <g clip-path="url(#p32f29a5ba3)">
     <use style="fill:#66ccff;" x="440.284356" xlink:href="#C0_0_c6a34a4713" y="184.96578"/>
    </g>
    <g clip-path="url(#p32f29a5ba3)">
     <use style="fill:#66ccff;" x="390.113467" xlink:href="#C0_0_c6a34a4713" y="220.655527"/>
    </g>
    <g clip-path="url(#p32f29a5ba3)">
     <use style="fill:#66ccff;" x="440.380973" xlink:href="#C0_0_c6a34a4713" y="184.47339"/>
    </g>
    <g clip-path="url(#p32f29a5ba3)">
     <use style="fill:#66ccff;" x="382.217524" xlink:href="#C0_0_c6a34a4713" y="218.654473"/>
    </g>
    <g clip-path="url(#p32f29a5ba3)">
     <use style="fill:#66ccff;" x="429.705347" xlink:href="#C0_0_c6a34a4713" y="182.399336"/>
    </g>
    <g clip-path="url(#p32f29a5ba3)">
     <use style="fill:#66ccff;" x="428.317171" xlink:href="#C0_0_c6a34a4713" y="217.850044"/>
    </g>
    <g clip-path="url(#p32f29a5ba3)">
     <use style="fill:#66ccff;" x="420.395686" xlink:href="#C0_0_c6a34a4713" y="215.967794"/>
    </g>
    <g clip-path="url(#p32f29a5ba3)">
     <use style="fill:#66ccff;" x="840.570908" xlink:href="#C0_0_c6a34a4713" y="271.125585"/>
    </g>
    <g clip-path="url(#p32f29a5ba3)">
     <use style="fill:#66ccff;" x="420.200231" xlink:href="#C0_0_c6a34a4713" y="180.094833"/>
    </g>
    <g clip-path="url(#p32f29a5ba3)">
     <use style="fill:#66ccff;" x="411.87784" xlink:href="#C0_0_c6a34a4713" y="213.94527"/>
    </g>
    <g clip-path="url(#p32f29a5ba3)">
     <use style="fill:#66ccff;" x="151.944729" xlink:href="#C0_0_c6a34a4713" y="131.276574"/>
    </g>
    <g clip-path="url(#p32f29a5ba3)">
     <use style="fill:#66ccff;" x="392.37897" xlink:href="#C0_0_c6a34a4713" y="209.313361"/>
    </g>
    <g clip-path="url(#p32f29a5ba3)">
     <use style="fill:#66ccff;" x="384.574091" xlink:href="#C0_0_c6a34a4713" y="207.459739"/>
    </g>
    <g clip-path="url(#p32f29a5ba3)">
     <use style="fill:#66ccff;" x="411.379208" xlink:href="#C0_0_c6a34a4713" y="177.954937"/>
    </g>
    <g clip-path="url(#p32f29a5ba3)">
     <use style="fill:#66ccff;" x="401.498729" xlink:href="#C0_0_c6a34a4713" y="203.855553"/>
    </g>
    <g clip-path="url(#p32f29a5ba3)">
     <use style="fill:#66ccff;" x="456.111779" xlink:href="#C0_0_c6a34a4713" y="179.559501"/>
    </g>
    <g clip-path="url(#p32f29a5ba3)">
     <use style="fill:#66ccff;" x="442.287771" xlink:href="#C0_0_c6a34a4713" y="176.260196"/>
    </g>
    <g clip-path="url(#p32f29a5ba3)">
     <use style="fill:#66ccff;" x="457.563256" xlink:href="#C0_0_c6a34a4713" y="173.365969"/>
    </g>
    <g clip-path="url(#p32f29a5ba3)">
     <use style="fill:#66ccff;" x="431.56106" xlink:href="#C0_0_c6a34a4713" y="173.700909"/>
    </g>
    <g clip-path="url(#p32f29a5ba3)">
     <use style="fill:#66ccff;" x="443.799217" xlink:href="#C0_0_c6a34a4713" y="169.912076"/>
    </g>
    <g clip-path="url(#p32f29a5ba3)">
     <use style="fill:#66ccff;" x="415.550398" xlink:href="#C0_0_c6a34a4713" y="160.747023"/>
    </g>
    <g clip-path="url(#p32f29a5ba3)">
     <use style="fill:#66ccff;" x="598.843998" xlink:href="#C0_0_c6a34a4713" y="226.137669"/>
    </g>
   </g>
   <g id="LineCollection_1">
    <path clip-path="url(#p32f29a5ba3)" d="M 419.135223 257.594857 
L 422.024849 245.502655 
" style="fill:none;stroke:#999999;"/>
    <path clip-path="url(#p32f29a5ba3)" d="M 423.750629 238.282832 
L 425.744049 229.363973 
" style="fill:none;stroke:#999999;"/>
    <path clip-path="url(#p32f29a5ba3)" d="M 423.750629 238.282832 
L 422.024849 245.502655 
" style="fill:none;stroke:#999999;"/>
    <path clip-path="url(#p32f29a5ba3)" d="M 423.750629 238.282832 
L 409.610117 234.909096 
" style="fill:none;stroke:#999999;"/>
    <path clip-path="url(#p32f29a5ba3)" d="M 423.750629 238.282832 
L 429.60873 239.655514 
" style="fill:none;stroke:#999999;"/>
    <path clip-path="url(#p32f29a5ba3)" d="M 353.125805 182.114494 
L 328.797194 176.257334 
L 165.770959 137.010636 
L 158.288137 135.231445 
L 153.559455 133.908861 
" style="fill:none;stroke:#999999;"/>
    <path clip-path="url(#p32f29a5ba3)" d="M 353.125805 182.114494 
L 402.607048 194.026344 
L 403.493259 194.241049 
" style="fill:none;stroke:#999999;"/>
    <path clip-path="url(#p32f29a5ba3)" d="M 353.125805 182.114494 
L 356.77282 153.050554 
L 363.981339 111.530843 
L 382.032064 40.17139 
L 390.014629 8.841593 
L 404.194011 11.700036 
L 448.111445 46.834411 
" style="fill:none;stroke:#999999;"/>
    <path clip-path="url(#p32f29a5ba3)" d="M 409.610117 234.909096 
L 423.750629 238.282832 
" style="fill:none;stroke:#999999;"/>
    <path clip-path="url(#p32f29a5ba3)" d="M 409.610117 234.909096 
L 411.490262 225.935846 
" style="fill:none;stroke:#999999;"/>
    <path clip-path="url(#p32f29a5ba3)" d="M 409.610117 234.909096 
L 409.171453 234.804606 
L 405.145744 232.401338 
L 404.512736 229.91505 
L 402.987964 223.89042 
" style="fill:none;stroke:#999999;"/>
    <path clip-path="url(#p32f29a5ba3)" d="M 429.60873 239.655514 
L 431.635466 230.781028 
" style="fill:none;stroke:#999999;"/>
    <path clip-path="url(#p32f29a5ba3)" d="M 429.60873 239.655514 
L 423.750629 238.282832 
" style="fill:none;stroke:#999999;"/>
    <path clip-path="url(#p32f29a5ba3)" d="M 429.60873 239.655514 
L 441.208326 242.373683 
" style="fill:none;stroke:#999999;"/>
    <path clip-path="url(#p32f29a5ba3)" d="M 434.546193 231.480968 
L 438.215419 215.897657 
" style="fill:none;stroke:#999999;"/>
    <path clip-path="url(#p32f29a5ba3)" d="M 434.546193 231.480968 
L 431.635466 230.781028 
" style="fill:none;stroke:#999999;"/>
    <path clip-path="url(#p32f29a5ba3)" d="M 434.546193 231.480968 
L 443.310579 233.589374 
" style="fill:none;stroke:#999999;"/>
    <path clip-path="url(#p32f29a5ba3)" d="M 431.635466 230.781028 
L 429.60873 239.655514 
" style="fill:none;stroke:#999999;"/>
    <path clip-path="url(#p32f29a5ba3)" d="M 431.635466 230.781028 
L 425.744049 229.363973 
" style="fill:none;stroke:#999999;"/>
    <path clip-path="url(#p32f29a5ba3)" d="M 431.635466 230.781028 
L 434.546193 231.480968 
" style="fill:none;stroke:#999999;"/>
    <path clip-path="url(#p32f29a5ba3)" d="M 417.850327 227.564743 
L 420.395686 215.967794 
" style="fill:none;stroke:#999999;"/>
    <path clip-path="url(#p32f29a5ba3)" d="M 417.850327 227.564743 
L 411.490262 225.935846 
" style="fill:none;stroke:#999999;"/>
    <path clip-path="url(#p32f29a5ba3)" d="M 417.850327 227.564743 
L 425.744049 229.363973 
" style="fill:none;stroke:#999999;"/>
    <path clip-path="url(#p32f29a5ba3)" d="M 411.490262 225.935846 
L 409.610117 234.909096 
" style="fill:none;stroke:#999999;"/>
    <path clip-path="url(#p32f29a5ba3)" d="M 411.490262 225.935846 
L 409.386898 225.430572 
" style="fill:none;stroke:#999999;"/>
    <path clip-path="url(#p32f29a5ba3)" d="M 411.490262 225.935846 
L 417.850327 227.564743 
" style="fill:none;stroke:#999999;"/>
    <path clip-path="url(#p32f29a5ba3)" d="M 409.386898 225.430572 
L 411.87784 213.94527 
" style="fill:none;stroke:#999999;"/>
    <path clip-path="url(#p32f29a5ba3)" d="M 409.386898 225.430572 
L 402.987964 223.89042 
" style="fill:none;stroke:#999999;"/>
    <path clip-path="url(#p32f29a5ba3)" d="M 409.386898 225.430572 
L 411.490262 225.935846 
" style="fill:none;stroke:#999999;"/>
    <path clip-path="url(#p32f29a5ba3)" d="M 403.74091 212.032962 
L 407.367935 195.099871 
" style="fill:none;stroke:#999999;"/>
    <path clip-path="url(#p32f29a5ba3)" d="M 403.74091 212.032962 
L 399.739633 211.062494 
" style="fill:none;stroke:#999999;"/>
    <path clip-path="url(#p32f29a5ba3)" d="M 403.74091 212.032962 
L 411.87784 213.94527 
" style="fill:none;stroke:#999999;"/>
    <path clip-path="url(#p32f29a5ba3)" d="M 399.739633 211.062494 
L 402.987964 223.89042 
" style="fill:none;stroke:#999999;"/>
    <path clip-path="url(#p32f29a5ba3)" d="M 399.739633 211.062494 
L 401.498729 203.855553 
" style="fill:none;stroke:#999999;"/>
    <path clip-path="url(#p32f29a5ba3)" d="M 399.739633 211.062494 
L 392.37897 209.313361 
" style="fill:none;stroke:#999999;"/>
    <path clip-path="url(#p32f29a5ba3)" d="M 399.739633 211.062494 
L 403.74091 212.032962 
" style="fill:none;stroke:#999999;"/>
    <path clip-path="url(#p32f29a5ba3)" d="M 399.739633 211.062494 
L 397.319765 222.330228 
" style="fill:none;stroke:#999999;"/>
    <path clip-path="url(#p32f29a5ba3)" d="M 450.068218 205.339882 
L 441.179452 203.310201 
" style="fill:none;stroke:#999999;"/>
    <path clip-path="url(#p32f29a5ba3)" d="M 450.068218 205.339882 
L 452.097175 196.690121 
" style="fill:none;stroke:#999999;"/>
    <path clip-path="url(#p32f29a5ba3)" d="M 450.068218 205.339882 
L 447.037553 218.007495 
" style="fill:none;stroke:#999999;"/>
    <path clip-path="url(#p32f29a5ba3)" d="M 450.068218 205.339882 
L 454.69473 206.397663 
L 471.377269 206.148605 
L 535.744197 205.769293 
L 544.525241 208.007953 
L 592.838195 224.133752 
" style="fill:none;stroke:#999999;"/>
    <path clip-path="url(#p32f29a5ba3)" d="M 441.179452 203.310201 
L 450.068218 205.339882 
" style="fill:none;stroke:#999999;"/>
    <path clip-path="url(#p32f29a5ba3)" d="M 441.179452 203.310201 
L 438.215419 215.897657 
" style="fill:none;stroke:#999999;"/>
    <path clip-path="url(#p32f29a5ba3)" d="M 441.179452 203.310201 
L 437.361413 202.437066 
L 435.959911 202.846438 
" style="fill:none;stroke:#999999;"/>
    <path clip-path="url(#p32f29a5ba3)" d="M 435.959911 202.846438 
L 438.104365 193.979109 
" style="fill:none;stroke:#999999;"/>
    <path clip-path="url(#p32f29a5ba3)" d="M 435.959911 202.846438 
L 435.269155 203.048261 
L 432.132989 202.296792 
" style="fill:none;stroke:#999999;"/>
    <path clip-path="url(#p32f29a5ba3)" d="M 435.959911 202.846438 
L 437.361413 202.437066 
L 441.179452 203.310201 
" style="fill:none;stroke:#999999;"/>
    <path clip-path="url(#p32f29a5ba3)" d="M 432.132989 202.296792 
L 429.327763 213.731996 
" style="fill:none;stroke:#999999;"/>
    <path clip-path="url(#p32f29a5ba3)" d="M 432.132989 202.296792 
L 425.797355 200.780973 
L 425.35647 199.914995 
" style="fill:none;stroke:#999999;"/>
    <path clip-path="url(#p32f29a5ba3)" d="M 432.132989 202.296792 
L 435.269155 203.048261 
L 435.959911 202.846438 
" style="fill:none;stroke:#999999;"/>
    <path clip-path="url(#p32f29a5ba3)" d="M 425.35647 199.914995 
L 427.453171 191.46992 
" style="fill:none;stroke:#999999;"/>
    <path clip-path="url(#p32f29a5ba3)" d="M 425.35647 199.914995 
L 424.946681 199.515643 
L 424.503575 199.405427 
" style="fill:none;stroke:#999999;"/>
    <path clip-path="url(#p32f29a5ba3)" d="M 425.35647 199.914995 
L 425.797355 200.780973 
L 432.132989 202.296792 
" style="fill:none;stroke:#999999;"/>
    <path clip-path="url(#p32f29a5ba3)" d="M 138.208454 36.995183 
L 135.922961 37.156928 
L 133.818487 36.411185 
L 132.152676 35.095757 
L 130.837796 33.562761 
L 129.435184 30.231966 
L 126.124662 19.103075 
L 122.272197 8.307692 
" style="fill:none;stroke:#999999;"/>
    <path clip-path="url(#p32f29a5ba3)" d="M 424.503575 199.405427 
L 415.961298 197.29559 
" style="fill:none;stroke:#999999;"/>
    <path clip-path="url(#p32f29a5ba3)" d="M 424.503575 199.405427 
L 420.395686 215.967794 
" style="fill:none;stroke:#999999;"/>
    <path clip-path="url(#p32f29a5ba3)" d="M 424.503575 199.405427 
L 424.946681 199.515643 
L 425.35647 199.914995 
" style="fill:none;stroke:#999999;"/>
    <path clip-path="url(#p32f29a5ba3)" d="M 415.961298 197.29559 
L 424.503575 199.405427 
" style="fill:none;stroke:#999999;"/>
    <path clip-path="url(#p32f29a5ba3)" d="M 415.961298 197.29559 
L 420.200231 180.094833 
" style="fill:none;stroke:#999999;"/>
    <path clip-path="url(#p32f29a5ba3)" d="M 415.961298 197.29559 
L 411.87784 213.94527 
" style="fill:none;stroke:#999999;"/>
    <path clip-path="url(#p32f29a5ba3)" d="M 415.961298 197.29559 
L 408.069797 195.293105 
L 407.367935 195.099871 
" style="fill:none;stroke:#999999;"/>
    <path clip-path="url(#p32f29a5ba3)" d="M 407.367935 195.099871 
L 411.379208 177.954937 
" style="fill:none;stroke:#999999;"/>
    <path clip-path="url(#p32f29a5ba3)" d="M 407.367935 195.099871 
L 403.74091 212.032962 
" style="fill:none;stroke:#999999;"/>
    <path clip-path="url(#p32f29a5ba3)" d="M 407.367935 195.099871 
L 403.493259 194.241049 
" style="fill:none;stroke:#999999;"/>
    <path clip-path="url(#p32f29a5ba3)" d="M 407.367935 195.099871 
L 408.069797 195.293105 
L 415.961298 197.29559 
" style="fill:none;stroke:#999999;"/>
    <path clip-path="url(#p32f29a5ba3)" d="M 403.493259 194.241049 
L 407.367935 195.099871 
" style="fill:none;stroke:#999999;"/>
    <path clip-path="url(#p32f29a5ba3)" d="M 403.493259 194.241049 
L 401.498729 203.855553 
" style="fill:none;stroke:#999999;"/>
    <path clip-path="url(#p32f29a5ba3)" d="M 403.493259 194.241049 
L 402.607048 194.026344 
L 353.125805 182.114494 
" style="fill:none;stroke:#999999;"/>
    <path clip-path="url(#p32f29a5ba3)" d="M 422.19143 171.46368 
L 420.200231 180.094833 
" style="fill:none;stroke:#999999;"/>
    <path clip-path="url(#p32f29a5ba3)" d="M 422.19143 171.46368 
L 431.56106 173.700909 
" style="fill:none;stroke:#999999;"/>
    <path clip-path="url(#p32f29a5ba3)" d="M 422.19143 171.46368 
L 421.844941 170.759447 
L 423.555174 162.935585 
" style="fill:none;stroke:#999999;"/>
    <path clip-path="url(#p32f29a5ba3)" d="M 422.19143 171.46368 
L 413.370407 169.358137 
L 411.379208 177.954937 
" style="fill:none;stroke:#999999;"/>
    <path clip-path="url(#p32f29a5ba3)" d="M 448.111445 46.834411 
L 451.61409 62.86574 
L 453.830729 66.219437 
L 456.499358 67.511963 
L 483.725369 64.891127 
L 485.749884 66.439868 
L 489.395789 107.200953 
L 483.307806 110.04222 
L 479.983958 111.728372 
L 455.379933 149.55372 
L 454.414873 150.668756 
L 447.612813 161.853471 
L 444.556605 166.733007 
L 443.799217 169.912076 
" style="fill:none;stroke:#999999;"/>
    <path clip-path="url(#p32f29a5ba3)" d="M 448.111445 46.834411 
L 404.194011 11.700036 
L 390.014629 8.841593 
L 382.032064 40.17139 
L 363.981339 111.530843 
L 356.77282 153.050554 
L 353.125805 182.114494 
" style="fill:none;stroke:#999999;"/>
    <path clip-path="url(#p32f29a5ba3)" d="M 433.34903 166.146145 
L 431.56106 173.700909 
" style="fill:none;stroke:#999999;"/>
    <path clip-path="url(#p32f29a5ba3)" d="M 433.34903 166.146145 
L 443.799217 169.912076 
" style="fill:none;stroke:#999999;"/>
    <path clip-path="url(#p32f29a5ba3)" d="M 433.34903 166.146145 
L 430.758139 164.940933 
L 423.555174 162.935585 
" style="fill:none;stroke:#999999;"/>
    <path clip-path="url(#p32f29a5ba3)" d="M 459.29792 165.96293 
L 457.563256 173.365969 
" style="fill:none;stroke:#999999;"/>
    <path clip-path="url(#p32f29a5ba3)" d="M 423.555174 162.935585 
L 415.550398 160.747023 
" style="fill:none;stroke:#999999;"/>
    <path clip-path="url(#p32f29a5ba3)" d="M 423.555174 162.935585 
L 421.844941 170.759447 
L 422.19143 171.46368 
" style="fill:none;stroke:#999999;"/>
    <path clip-path="url(#p32f29a5ba3)" d="M 423.555174 162.935585 
L 430.758139 164.940933 
L 433.34903 166.146145 
" style="fill:none;stroke:#999999;"/>
    <path clip-path="url(#p32f29a5ba3)" d="M 835.8289 285.976035 
L 834.951573 286.688857 
" style="fill:none;stroke:#999999;"/>
    <path clip-path="url(#p32f29a5ba3)" d="M 152.749871 423.692308 
L 150.923032 368.050714 
L 148.835216 295.530421 
" style="fill:none;stroke:#999999;"/>
    <path clip-path="url(#p32f29a5ba3)" d="M 152.749871 423.692308 
L 153.071928 406.183806 
L 153.576113 402.473699 
L 153.925933 399.596648 
L 154.115836 398.036456 
L 154.051425 392.733235 
L 153.641635 387.140878 
L 153.119681 370.771746 
L 152.33675 361.337595 
L 151.723732 350.29888 
" style="fill:none;stroke:#999999;"/>
    <path clip-path="url(#p32f29a5ba3)" d="M 151.441654 334.492276 
L 150.676492 322.045094 
L 148.835216 295.530421 
" style="fill:none;stroke:#999999;"/>
    <path clip-path="url(#p32f29a5ba3)" d="M 148.835216 295.530421 
L 148.646424 289.564476 
L 145.670175 207.318033 
L 144.591841 165.553559 
" style="fill:none;stroke:#999999;"/>
    <path clip-path="url(#p32f29a5ba3)" d="M 151.892534 136.138933 
L 152.531095 135.782522 
L 153.047496 135.264367 
L 153.399537 134.621682 
L 153.559455 133.908861 
" style="fill:none;stroke:#999999;"/>
    <path clip-path="url(#p32f29a5ba3)" d="M 144.591841 165.553559 
L 143.371357 123.840613 
L 142.641731 112.850565 
L 142.210842 100.350422 
L 140.999242 88.102201 
" style="fill:none;stroke:#999999;"/>
    <path clip-path="url(#p32f29a5ba3)" d="M 144.591841 165.553559 
L 145.328129 154.533451 
L 146.297631 149.872915 
L 147.524778 145.706201 
L 150.69315 139.275062 
L 151.705963 136.727225 
L 151.892534 136.138933 
" style="fill:none;stroke:#999999;"/>
    <path clip-path="url(#p32f29a5ba3)" d="M 834.61619 289.889397 
L 835.328046 290.768257 
" style="fill:none;stroke:#999999;"/>
    <path clip-path="url(#p32f29a5ba3)" d="M 422.024849 245.502655 
L 423.750629 238.282832 
" style="fill:none;stroke:#999999;"/>
    <path clip-path="url(#p32f29a5ba3)" d="M 422.024849 245.502655 
L 419.135223 257.594857 
" style="fill:none;stroke:#999999;"/>
    <path clip-path="url(#p32f29a5ba3)" d="M 422.024849 245.502655 
L 440.523122 245.239283 
L 441.208326 242.373683 
" style="fill:none;stroke:#999999;"/>
    <path clip-path="url(#p32f29a5ba3)" d="M 832.1097 287.397384 
L 834.61619 289.889397 
" style="fill:none;stroke:#999999;"/>
    <path clip-path="url(#p32f29a5ba3)" d="M 832.1097 287.397384 
L 637.807312 239.143084 
L 598.843998 226.137669 
" style="fill:none;stroke:#999999;"/>
    <path clip-path="url(#p32f29a5ba3)" d="M 148.365457 133.296235 
L 148.383226 134.203722 
L 148.711946 135.051093 
L 149.308306 135.735287 
L 150.103453 136.173286 
L 151.00077 136.31356 
L 151.892534 136.138933 
" style="fill:none;stroke:#999999;"/>
    <path clip-path="url(#p32f29a5ba3)" d="M 441.208326 242.373683 
L 443.310579 233.589374 
" style="fill:none;stroke:#999999;"/>
    <path clip-path="url(#p32f29a5ba3)" d="M 441.208326 242.373683 
L 429.60873 239.655514 
" style="fill:none;stroke:#999999;"/>
    <path clip-path="url(#p32f29a5ba3)" d="M 441.208326 242.373683 
L 440.523122 245.239283 
L 422.024849 245.502655 
" style="fill:none;stroke:#999999;"/>
    <path clip-path="url(#p32f29a5ba3)" d="M 443.310579 233.589374 
L 447.037553 218.007495 
" style="fill:none;stroke:#999999;"/>
    <path clip-path="url(#p32f29a5ba3)" d="M 443.310579 233.589374 
L 441.208326 242.373683 
" style="fill:none;stroke:#999999;"/>
    <path clip-path="url(#p32f29a5ba3)" d="M 443.310579 233.589374 
L 434.546193 231.480968 
" style="fill:none;stroke:#999999;"/>
    <path clip-path="url(#p32f29a5ba3)" d="M 425.744049 229.363973 
L 428.317171 217.850044 
" style="fill:none;stroke:#999999;"/>
    <path clip-path="url(#p32f29a5ba3)" d="M 425.744049 229.363973 
L 423.750629 238.282832 
" style="fill:none;stroke:#999999;"/>
    <path clip-path="url(#p32f29a5ba3)" d="M 425.744049 229.363973 
L 417.850327 227.564743 
" style="fill:none;stroke:#999999;"/>
    <path clip-path="url(#p32f29a5ba3)" d="M 425.744049 229.363973 
L 431.635466 230.781028 
" style="fill:none;stroke:#999999;"/>
    <path clip-path="url(#p32f29a5ba3)" d="M 402.987964 223.89042 
L 399.739633 211.062494 
" style="fill:none;stroke:#999999;"/>
    <path clip-path="url(#p32f29a5ba3)" d="M 402.987964 223.89042 
L 409.386898 225.430572 
" style="fill:none;stroke:#999999;"/>
    <path clip-path="url(#p32f29a5ba3)" d="M 402.987964 223.89042 
L 404.512736 229.91505 
L 405.145744 232.401338 
L 409.171453 234.804606 
L 409.610117 234.909096 
" style="fill:none;stroke:#999999;"/>
    <path clip-path="url(#p32f29a5ba3)" d="M 135.724175 56.334405 
L 122.272197 8.307692 
" style="fill:none;stroke:#999999;"/>
    <path clip-path="url(#p32f29a5ba3)" d="M 135.724175 56.334405 
L 133.90622 44.519888 
L 133.730754 42.50309 
L 134.037264 40.751094 
L 134.694704 39.741979 
L 135.484298 38.734296 
L 136.799178 37.813926 
L 138.208454 36.995183 
" style="fill:none;stroke:#999999;"/>
    <path clip-path="url(#p32f29a5ba3)" d="M 451.031056 218.93359 
L 447.037553 218.007495 
" style="fill:none;stroke:#999999;"/>
    <path clip-path="url(#p32f29a5ba3)" d="M 447.037553 218.007495 
L 438.215419 215.897657 
" style="fill:none;stroke:#999999;"/>
    <path clip-path="url(#p32f29a5ba3)" d="M 447.037553 218.007495 
L 451.031056 218.93359 
" style="fill:none;stroke:#999999;"/>
    <path clip-path="url(#p32f29a5ba3)" d="M 447.037553 218.007495 
L 450.068218 205.339882 
" style="fill:none;stroke:#999999;"/>
    <path clip-path="url(#p32f29a5ba3)" d="M 447.037553 218.007495 
L 443.310579 233.589374 
" style="fill:none;stroke:#999999;"/>
    <path clip-path="url(#p32f29a5ba3)" d="M 438.215419 215.897657 
L 441.179452 203.310201 
" style="fill:none;stroke:#999999;"/>
    <path clip-path="url(#p32f29a5ba3)" d="M 438.215419 215.897657 
L 434.546193 231.480968 
" style="fill:none;stroke:#999999;"/>
    <path clip-path="url(#p32f29a5ba3)" d="M 438.215419 215.897657 
L 429.327763 213.731996 
" style="fill:none;stroke:#999999;"/>
    <path clip-path="url(#p32f29a5ba3)" d="M 438.215419 215.897657 
L 447.037553 218.007495 
" style="fill:none;stroke:#999999;"/>
    <path clip-path="url(#p32f29a5ba3)" d="M 429.327763 213.731996 
L 432.132989 202.296792 
" style="fill:none;stroke:#999999;"/>
    <path clip-path="url(#p32f29a5ba3)" d="M 429.327763 213.731996 
L 428.317171 217.850044 
" style="fill:none;stroke:#999999;"/>
    <path clip-path="url(#p32f29a5ba3)" d="M 429.327763 213.731996 
L 438.215419 215.897657 
" style="fill:none;stroke:#999999;"/>
    <path clip-path="url(#p32f29a5ba3)" d="M 452.097175 196.690121 
L 438.263172 193.320679 
" style="fill:none;stroke:#999999;"/>
    <path clip-path="url(#p32f29a5ba3)" d="M 452.097175 196.690121 
L 454.209423 187.691106 
" style="fill:none;stroke:#999999;"/>
    <path clip-path="url(#p32f29a5ba3)" d="M 452.097175 196.690121 
L 450.068218 205.339882 
" style="fill:none;stroke:#999999;"/>
    <path clip-path="url(#p32f29a5ba3)" d="M 438.104365 193.979109 
L 438.263172 193.320679 
" style="fill:none;stroke:#999999;"/>
    <path clip-path="url(#p32f29a5ba3)" d="M 438.104365 193.979109 
L 435.959911 202.846438 
" style="fill:none;stroke:#999999;"/>
    <path clip-path="url(#p32f29a5ba3)" d="M 438.104365 193.979109 
L 431.759847 192.48476 
L 427.453171 191.46992 
" style="fill:none;stroke:#999999;"/>
    <path clip-path="url(#p32f29a5ba3)" d="M 140.999242 88.102201 
L 140.561689 81.515042 
L 135.724175 56.334405 
" style="fill:none;stroke:#999999;"/>
    <path clip-path="url(#p32f29a5ba3)" d="M 592.838195 224.133752 
L 598.843998 226.137669 
" style="fill:none;stroke:#999999;"/>
    <path clip-path="url(#p32f29a5ba3)" d="M 592.838195 224.133752 
L 544.525241 208.007953 
L 535.744197 205.769293 
L 471.377269 206.148605 
L 454.69473 206.397663 
L 450.068218 205.339882 
" style="fill:none;stroke:#999999;"/>
    <path clip-path="url(#p32f29a5ba3)" d="M 153.559455 133.908861 
L 153.496154 133.088686 
L 153.181871 132.32863 
L 152.646591 131.704553 
L 151.944729 131.276574 
" style="fill:none;stroke:#999999;"/>
    <path clip-path="url(#p32f29a5ba3)" d="M 153.559455 133.908861 
L 158.288137 135.231445 
L 165.770959 137.010636 
L 328.797194 176.257334 
L 353.125805 182.114494 
" style="fill:none;stroke:#999999;"/>
    <path clip-path="url(#p32f29a5ba3)" d="M 438.263172 193.320679 
L 440.284356 184.96578 
" style="fill:none;stroke:#999999;"/>
    <path clip-path="url(#p32f29a5ba3)" d="M 438.263172 193.320679 
L 438.104365 193.979109 
" style="fill:none;stroke:#999999;"/>
    <path clip-path="url(#p32f29a5ba3)" d="M 438.263172 193.320679 
L 452.097175 196.690121 
" style="fill:none;stroke:#999999;"/>
    <path clip-path="url(#p32f29a5ba3)" d="M 427.453171 191.46992 
L 429.705347 182.399336 
" style="fill:none;stroke:#999999;"/>
    <path clip-path="url(#p32f29a5ba3)" d="M 427.453171 191.46992 
L 425.35647 199.914995 
" style="fill:none;stroke:#999999;"/>
    <path clip-path="url(#p32f29a5ba3)" d="M 427.453171 191.46992 
L 431.759847 192.48476 
L 438.104365 193.979109 
" style="fill:none;stroke:#999999;"/>
    <path clip-path="url(#p32f29a5ba3)" d="M 458.061888 188.578555 
L 454.209423 187.691106 
" style="fill:none;stroke:#999999;"/>
    <path clip-path="url(#p32f29a5ba3)" d="M 834.951573 286.688857 
L 832.1097 287.397384 
" style="fill:none;stroke:#999999;"/>
    <path clip-path="url(#p32f29a5ba3)" d="M 834.951573 286.688857 
L 834.41185 287.682227 
L 834.295243 288.805851 
L 834.61619 289.889397 
" style="fill:none;stroke:#999999;"/>
    <path clip-path="url(#p32f29a5ba3)" d="M 397.319765 222.330228 
L 399.739633 211.062494 
" style="fill:none;stroke:#999999;"/>
    <path clip-path="url(#p32f29a5ba3)" d="M 454.209423 187.691106 
L 458.061888 188.578555 
" style="fill:none;stroke:#999999;"/>
    <path clip-path="url(#p32f29a5ba3)" d="M 454.209423 187.691106 
L 440.380973 184.47339 
" style="fill:none;stroke:#999999;"/>
    <path clip-path="url(#p32f29a5ba3)" d="M 454.209423 187.691106 
L 456.111779 179.559501 
" style="fill:none;stroke:#999999;"/>
    <path clip-path="url(#p32f29a5ba3)" d="M 454.209423 187.691106 
L 452.097175 196.690121 
" style="fill:none;stroke:#999999;"/>
    <path clip-path="url(#p32f29a5ba3)" d="M 440.284356 184.96578 
L 440.380973 184.47339 
" style="fill:none;stroke:#999999;"/>
    <path clip-path="url(#p32f29a5ba3)" d="M 440.284356 184.96578 
L 438.263172 193.320679 
" style="fill:none;stroke:#999999;"/>
    <path clip-path="url(#p32f29a5ba3)" d="M 440.284356 184.96578 
L 434.007581 183.442804 
L 429.705347 182.399336 
" style="fill:none;stroke:#999999;"/>
    <path clip-path="url(#p32f29a5ba3)" d="M 390.113467 220.655527 
L 392.37897 209.313361 
" style="fill:none;stroke:#999999;"/>
    <path clip-path="url(#p32f29a5ba3)" d="M 440.380973 184.47339 
L 442.287771 176.260196 
" style="fill:none;stroke:#999999;"/>
    <path clip-path="url(#p32f29a5ba3)" d="M 440.380973 184.47339 
L 440.284356 184.96578 
" style="fill:none;stroke:#999999;"/>
    <path clip-path="url(#p32f29a5ba3)" d="M 440.380973 184.47339 
L 454.209423 187.691106 
" style="fill:none;stroke:#999999;"/>
    <path clip-path="url(#p32f29a5ba3)" d="M 382.217524 218.654473 
L 384.574091 207.459739 
" style="fill:none;stroke:#999999;"/>
    <path clip-path="url(#p32f29a5ba3)" d="M 429.705347 182.399336 
L 431.56106 173.700909 
" style="fill:none;stroke:#999999;"/>
    <path clip-path="url(#p32f29a5ba3)" d="M 429.705347 182.399336 
L 427.453171 191.46992 
" style="fill:none;stroke:#999999;"/>
    <path clip-path="url(#p32f29a5ba3)" d="M 429.705347 182.399336 
L 420.200231 180.094833 
" style="fill:none;stroke:#999999;"/>
    <path clip-path="url(#p32f29a5ba3)" d="M 429.705347 182.399336 
L 434.007581 183.442804 
L 440.284356 184.96578 
" style="fill:none;stroke:#999999;"/>
    <path clip-path="url(#p32f29a5ba3)" d="M 428.317171 217.850044 
L 429.327763 213.731996 
" style="fill:none;stroke:#999999;"/>
    <path clip-path="url(#p32f29a5ba3)" d="M 428.317171 217.850044 
L 425.744049 229.363973 
" style="fill:none;stroke:#999999;"/>
    <path clip-path="url(#p32f29a5ba3)" d="M 428.317171 217.850044 
L 420.395686 215.967794 
" style="fill:none;stroke:#999999;"/>
    <path clip-path="url(#p32f29a5ba3)" d="M 420.395686 215.967794 
L 417.850327 227.564743 
" style="fill:none;stroke:#999999;"/>
    <path clip-path="url(#p32f29a5ba3)" d="M 420.395686 215.967794 
L 424.503575 199.405427 
" style="fill:none;stroke:#999999;"/>
    <path clip-path="url(#p32f29a5ba3)" d="M 420.395686 215.967794 
L 411.87784 213.94527 
" style="fill:none;stroke:#999999;"/>
    <path clip-path="url(#p32f29a5ba3)" d="M 420.395686 215.967794 
L 428.317171 217.850044 
" style="fill:none;stroke:#999999;"/>
    <path clip-path="url(#p32f29a5ba3)" d="M 840.570908 271.125585 
L 837.178207 284.405824 
L 835.8289 285.976035 
" style="fill:none;stroke:#999999;"/>
    <path clip-path="url(#p32f29a5ba3)" d="M 420.200231 180.094833 
L 422.19143 171.46368 
" style="fill:none;stroke:#999999;"/>
    <path clip-path="url(#p32f29a5ba3)" d="M 420.200231 180.094833 
L 415.961298 197.29559 
" style="fill:none;stroke:#999999;"/>
    <path clip-path="url(#p32f29a5ba3)" d="M 420.200231 180.094833 
L 411.379208 177.954937 
" style="fill:none;stroke:#999999;"/>
    <path clip-path="url(#p32f29a5ba3)" d="M 420.200231 180.094833 
L 429.705347 182.399336 
" style="fill:none;stroke:#999999;"/>
    <path clip-path="url(#p32f29a5ba3)" d="M 411.87784 213.94527 
L 415.961298 197.29559 
" style="fill:none;stroke:#999999;"/>
    <path clip-path="url(#p32f29a5ba3)" d="M 411.87784 213.94527 
L 409.386898 225.430572 
" style="fill:none;stroke:#999999;"/>
    <path clip-path="url(#p32f29a5ba3)" d="M 411.87784 213.94527 
L 403.74091 212.032962 
" style="fill:none;stroke:#999999;"/>
    <path clip-path="url(#p32f29a5ba3)" d="M 411.87784 213.94527 
L 420.395686 215.967794 
" style="fill:none;stroke:#999999;"/>
    <path clip-path="url(#p32f29a5ba3)" d="M 151.944729 131.276574 
L 151.025202 131.081907 
L 150.095679 131.225044 
L 149.2761 131.685945 
L 148.674187 132.408786 
L 148.365457 133.296235 
" style="fill:none;stroke:#999999;"/>
    <path clip-path="url(#p32f29a5ba3)" d="M 151.944729 131.276574 
L 150.885274 129.686323 
L 150.424399 128.060288 
L 148.959596 125.687079 
L 146.536397 122.35199 
L 144.933887 119.369018 
L 143.775593 113.957013 
L 143.503511 108.363224 
L 143.081505 101.747438 
L 142.342996 94.894045 
L 140.999242 88.102201 
" style="fill:none;stroke:#999999;"/>
    <path clip-path="url(#p32f29a5ba3)" d="M 392.37897 209.313361 
L 384.574091 207.459739 
" style="fill:none;stroke:#999999;"/>
    <path clip-path="url(#p32f29a5ba3)" d="M 392.37897 209.313361 
L 399.739633 211.062494 
" style="fill:none;stroke:#999999;"/>
    <path clip-path="url(#p32f29a5ba3)" d="M 392.37897 209.313361 
L 390.113467 220.655527 
" style="fill:none;stroke:#999999;"/>
    <path clip-path="url(#p32f29a5ba3)" d="M 384.574091 207.459739 
L 392.37897 209.313361 
" style="fill:none;stroke:#999999;"/>
    <path clip-path="url(#p32f29a5ba3)" d="M 384.574091 207.459739 
L 382.217524 218.654473 
" style="fill:none;stroke:#999999;"/>
    <path clip-path="url(#p32f29a5ba3)" d="M 384.574091 207.459739 
L 386.365393 200.423131 
L 401.498729 203.855553 
" style="fill:none;stroke:#999999;"/>
    <path clip-path="url(#p32f29a5ba3)" d="M 411.379208 177.954937 
L 407.367935 195.099871 
" style="fill:none;stroke:#999999;"/>
    <path clip-path="url(#p32f29a5ba3)" d="M 411.379208 177.954937 
L 420.200231 180.094833 
" style="fill:none;stroke:#999999;"/>
    <path clip-path="url(#p32f29a5ba3)" d="M 411.379208 177.954937 
L 413.370407 169.358137 
L 422.19143 171.46368 
" style="fill:none;stroke:#999999;"/>
    <path clip-path="url(#p32f29a5ba3)" d="M 401.498729 203.855553 
L 399.739633 211.062494 
" style="fill:none;stroke:#999999;"/>
    <path clip-path="url(#p32f29a5ba3)" d="M 401.498729 203.855553 
L 403.493259 194.241049 
" style="fill:none;stroke:#999999;"/>
    <path clip-path="url(#p32f29a5ba3)" d="M 401.498729 203.855553 
L 386.365393 200.423131 
L 384.574091 207.459739 
" style="fill:none;stroke:#999999;"/>
    <path clip-path="url(#p32f29a5ba3)" d="M 456.111779 179.559501 
L 457.563256 173.365969 
" style="fill:none;stroke:#999999;"/>
    <path clip-path="url(#p32f29a5ba3)" d="M 456.111779 179.559501 
L 454.209423 187.691106 
" style="fill:none;stroke:#999999;"/>
    <path clip-path="url(#p32f29a5ba3)" d="M 456.111779 179.559501 
L 442.287771 176.260196 
" style="fill:none;stroke:#999999;"/>
    <path clip-path="url(#p32f29a5ba3)" d="M 442.287771 176.260196 
L 443.799217 169.912076 
" style="fill:none;stroke:#999999;"/>
    <path clip-path="url(#p32f29a5ba3)" d="M 442.287771 176.260196 
L 440.380973 184.47339 
" style="fill:none;stroke:#999999;"/>
    <path clip-path="url(#p32f29a5ba3)" d="M 442.287771 176.260196 
L 456.111779 179.559501 
" style="fill:none;stroke:#999999;"/>
    <path clip-path="url(#p32f29a5ba3)" d="M 442.287771 176.260196 
L 431.56106 173.700909 
" style="fill:none;stroke:#999999;"/>
    <path clip-path="url(#p32f29a5ba3)" d="M 457.563256 173.365969 
L 443.799217 169.912076 
" style="fill:none;stroke:#999999;"/>
    <path clip-path="url(#p32f29a5ba3)" d="M 457.563256 173.365969 
L 459.29792 165.96293 
" style="fill:none;stroke:#999999;"/>
    <path clip-path="url(#p32f29a5ba3)" d="M 457.563256 173.365969 
L 456.111779 179.559501 
" style="fill:none;stroke:#999999;"/>
    <path clip-path="url(#p32f29a5ba3)" d="M 431.56106 173.700909 
L 433.34903 166.146145 
" style="fill:none;stroke:#999999;"/>
    <path clip-path="url(#p32f29a5ba3)" d="M 431.56106 173.700909 
L 429.705347 182.399336 
" style="fill:none;stroke:#999999;"/>
    <path clip-path="url(#p32f29a5ba3)" d="M 431.56106 173.700909 
L 442.287771 176.260196 
" style="fill:none;stroke:#999999;"/>
    <path clip-path="url(#p32f29a5ba3)" d="M 431.56106 173.700909 
L 422.19143 171.46368 
" style="fill:none;stroke:#999999;"/>
    <path clip-path="url(#p32f29a5ba3)" d="M 443.799217 169.912076 
L 442.287771 176.260196 
" style="fill:none;stroke:#999999;"/>
    <path clip-path="url(#p32f29a5ba3)" d="M 443.799217 169.912076 
L 457.563256 173.365969 
" style="fill:none;stroke:#999999;"/>
    <path clip-path="url(#p32f29a5ba3)" d="M 443.799217 169.912076 
L 433.34903 166.146145 
" style="fill:none;stroke:#999999;"/>
    <path clip-path="url(#p32f29a5ba3)" d="M 443.799217 169.912076 
L 444.556605 166.733007 
L 447.612813 161.853471 
L 454.414873 150.668756 
L 455.379933 149.55372 
L 479.983958 111.728372 
L 483.307806 110.04222 
L 489.395789 107.200953 
L 485.749884 66.439868 
L 483.725369 64.891127 
L 456.499358 67.511963 
L 453.830729 66.219437 
L 451.61409 62.86574 
L 448.111445 46.834411 
" style="fill:none;stroke:#999999;"/>
    <path clip-path="url(#p32f29a5ba3)" d="M 415.550398 160.747023 
L 423.555174 162.935585 
" style="fill:none;stroke:#999999;"/>
    <path clip-path="url(#p32f29a5ba3)" d="M 598.843998 226.137669 
L 592.838195 224.133752 
" style="fill:none;stroke:#999999;"/>
    <path clip-path="url(#p32f29a5ba3)" d="M 598.843998 226.137669 
L 637.807312 239.143084 
L 832.1097 287.397384 
" style="fill:none;stroke:#999999;"/>
   </g>
  </g>
 </g>
 <defs>
  <clipPath id="p32f29a5ba3">
   <rect height="432" width="747.030659" x="107.906223" y="0"/>
  </clipPath>
 </defs>
</svg>
