<?xml version="1.0" encoding="utf-8" standalone="no"?>
<!DOCTYPE svg PUBLIC "-//W3C//DTD SVG 1.1//EN"
  "http://www.w3.org/Graphics/SVG/1.1/DTD/svg11.dtd">
<!-- Created with matplotlib (http://matplotlib.org/) -->
<svg height="432pt" version="1.1" viewBox="0 0 468.42237 432" width="468.42237pt" xmlns="http://www.w3.org/2000/svg" xmlns:xlink="http://www.w3.org/1999/xlink">
 <defs>
  <style type="text/css">
*{stroke-linecap:butt;stroke-linejoin:round;}
  </style>
 </defs>
 <g id="figure_1">
  <g id="patch_1">
   <path d="M 0 432 
L 468.42237 432 
L 468.42237 0 
L 0 0 
z
" style="fill:none;opacity:0;"/>
  </g>
  <g id="axes_1">
   <g id="PathCollection_1">
    <defs>
     <path d="M 0 1.936492 
C 0.513564 1.936492 1.006162 1.732451 1.369306 1.369306 
C 1.732451 1.006162 1.936492 0.513564 1.936492 0 
C 1.936492 -0.513564 1.732451 -1.006162 1.369306 -1.369306 
C 1.006162 -1.732451 0.513564 -1.936492 0 -1.936492 
C -0.513564 -1.936492 -1.006162 -1.732451 -1.369306 -1.369306 
C -1.732451 -1.006162 -1.936492 -0.513564 -1.936492 0 
C -1.936492 0.513564 -1.732451 1.006162 -1.369306 1.369306 
C -1.006162 1.732451 -0.513564 1.936492 0 1.936492 
z
" id="C0_0_a4d7bcc147"/>
    </defs>
    <g clip-path="url(#p9211db02ef)">
     <use style="fill:#66ccff;" x="221.561279" xlink:href="#C0_0_a4d7bcc147" y="24.022134"/>
    </g>
    <g clip-path="url(#p9211db02ef)">
     <use style="fill:#66ccff;" x="195.776974" xlink:href="#C0_0_a4d7bcc147" y="102.514073"/>
    </g>
    <g clip-path="url(#p9211db02ef)">
     <use style="fill:#66ccff;" x="252.316321" xlink:href="#C0_0_a4d7bcc147" y="423.692308"/>
    </g>
    <g clip-path="url(#p9211db02ef)">
     <use style="fill:#66ccff;" x="211.845545" xlink:href="#C0_0_a4d7bcc147" y="337.843111"/>
    </g>
    <g clip-path="url(#p9211db02ef)">
     <use style="fill:#66ccff;" x="189.965736" xlink:href="#C0_0_a4d7bcc147" y="149.295039"/>
    </g>
    <g clip-path="url(#p9211db02ef)">
     <use style="fill:#66ccff;" x="265.924952" xlink:href="#C0_0_a4d7bcc147" y="379.145122"/>
    </g>
    <g clip-path="url(#p9211db02ef)">
     <use style="fill:#66ccff;" x="258.24266" xlink:href="#C0_0_a4d7bcc147" y="379.219658"/>
    </g>
    <g clip-path="url(#p9211db02ef)">
     <use style="fill:#66ccff;" x="250.752203" xlink:href="#C0_0_a4d7bcc147" y="384.423404"/>
    </g>
    <g clip-path="url(#p9211db02ef)">
     <use style="fill:#66ccff;" x="257.871483" xlink:href="#C0_0_a4d7bcc147" y="384.409644"/>
    </g>
    <g clip-path="url(#p9211db02ef)">
     <use style="fill:#66ccff;" x="244.690241" xlink:href="#C0_0_a4d7bcc147" y="366.165571"/>
    </g>
    <g clip-path="url(#p9211db02ef)">
     <use style="fill:#66ccff;" x="251.024339" xlink:href="#C0_0_a4d7bcc147" y="365.351411"/>
    </g>
    <g clip-path="url(#p9211db02ef)">
     <use style="fill:#66ccff;" x="244.20664" xlink:href="#C0_0_a4d7bcc147" y="365.042947"/>
    </g>
    <g clip-path="url(#p9211db02ef)">
     <use style="fill:#66ccff;" x="258.688786" xlink:href="#C0_0_a4d7bcc147" y="362.210587"/>
    </g>
    <g clip-path="url(#p9211db02ef)">
     <use style="fill:#66ccff;" x="260.773979" xlink:href="#C0_0_a4d7bcc147" y="361.647555"/>
    </g>
    <g clip-path="url(#p9211db02ef)">
     <use style="fill:#66ccff;" x="264.854249" xlink:href="#C0_0_a4d7bcc147" y="360.286416"/>
    </g>
    <g clip-path="url(#p9211db02ef)">
     <use style="fill:#66ccff;" x="238.383802" xlink:href="#C0_0_a4d7bcc147" y="357.967779"/>
    </g>
    <g clip-path="url(#p9211db02ef)">
     <use style="fill:#66ccff;" x="256.94711" xlink:href="#C0_0_a4d7bcc147" y="354.46001"/>
    </g>
    <g clip-path="url(#p9211db02ef)">
     <use style="fill:#66ccff;" x="264.703458" xlink:href="#C0_0_a4d7bcc147" y="340.482826"/>
    </g>
    <g clip-path="url(#p9211db02ef)">
     <use style="fill:#66ccff;" x="383.882479" xlink:href="#C0_0_a4d7bcc147" y="113.396301"/>
    </g>
    <g clip-path="url(#p9211db02ef)">
     <use style="fill:#66ccff;" x="409.441936" xlink:href="#C0_0_a4d7bcc147" y="112.726625"/>
    </g>
    <g clip-path="url(#p9211db02ef)">
     <use style="fill:#66ccff;" x="58.980433" xlink:href="#C0_0_a4d7bcc147" y="89.56319"/>
    </g>
    <g clip-path="url(#p9211db02ef)">
     <use style="fill:#66ccff;" x="200.198976" xlink:href="#C0_0_a4d7bcc147" y="62.702778"/>
    </g>
    <g clip-path="url(#p9211db02ef)">
     <use style="fill:#66ccff;" x="379.861991" xlink:href="#C0_0_a4d7bcc147" y="49.939954"/>
    </g>
    <g clip-path="url(#p9211db02ef)">
     <use style="fill:#66ccff;" x="65.635742" xlink:href="#C0_0_a4d7bcc147" y="188.629305"/>
    </g>
    <g clip-path="url(#p9211db02ef)">
     <use style="fill:#66ccff;" x="252.535815" xlink:href="#C0_0_a4d7bcc147" y="338.083919"/>
    </g>
    <g clip-path="url(#p9211db02ef)">
     <use style="fill:#66ccff;" x="246.792387" xlink:href="#C0_0_a4d7bcc147" y="356.378447"/>
    </g>
    <g clip-path="url(#p9211db02ef)">
     <use style="fill:#66ccff;" x="244.312818" xlink:href="#C0_0_a4d7bcc147" y="341.587102"/>
    </g>
    <g clip-path="url(#p9211db02ef)">
     <use style="fill:#66ccff;" x="226.359811" xlink:href="#C0_0_a4d7bcc147" y="347.564874"/>
    </g>
    <g clip-path="url(#p9211db02ef)">
     <use style="fill:#66ccff;" x="260.031626" xlink:href="#C0_0_a4d7bcc147" y="351.392574"/>
    </g>
    <g clip-path="url(#p9211db02ef)">
     <use style="fill:#66ccff;" x="256.349301" xlink:href="#C0_0_a4d7bcc147" y="351.742319"/>
    </g>
    <g clip-path="url(#p9211db02ef)">
     <use style="fill:#66ccff;" x="255.789859" xlink:href="#C0_0_a4d7bcc147" y="349.737879"/>
    </g>
    <g clip-path="url(#p9211db02ef)">
     <use style="fill:#66ccff;" x="245.832324" xlink:href="#C0_0_a4d7bcc147" y="350.651803"/>
    </g>
    <g clip-path="url(#p9211db02ef)">
     <use style="fill:#66ccff;" x="247.543664" xlink:href="#C0_0_a4d7bcc147" y="356.236255"/>
    </g>
    <g clip-path="url(#p9211db02ef)">
     <use style="fill:#66ccff;" x="272.051155" xlink:href="#C0_0_a4d7bcc147" y="387.157148"/>
    </g>
    <g clip-path="url(#p9211db02ef)">
     <use style="fill:#66ccff;" x="269.861568" xlink:href="#C0_0_a4d7bcc147" y="384.293827"/>
    </g>
    <g clip-path="url(#p9211db02ef)">
     <use style="fill:#66ccff;" x="259.689001" xlink:href="#C0_0_a4d7bcc147" y="397.393781"/>
    </g>
    <g clip-path="url(#p9211db02ef)">
     <use style="fill:#66ccff;" x="259.569439" xlink:href="#C0_0_a4d7bcc147" y="401.523065"/>
    </g>
    <g clip-path="url(#p9211db02ef)">
     <use style="fill:#66ccff;" x="229.881531" xlink:href="#C0_0_a4d7bcc147" y="376.317348"/>
    </g>
    <g clip-path="url(#p9211db02ef)">
     <use style="fill:#66ccff;" x="227.93999" xlink:href="#C0_0_a4d7bcc147" y="370.228346"/>
    </g>
    <g clip-path="url(#p9211db02ef)">
     <use style="fill:#66ccff;" x="224.927747" xlink:href="#C0_0_a4d7bcc147" y="371.195018"/>
    </g>
    <g clip-path="url(#p9211db02ef)">
     <use style="fill:#66ccff;" x="233.877929" xlink:href="#C0_0_a4d7bcc147" y="368.32367"/>
    </g>
    <g clip-path="url(#p9211db02ef)">
     <use style="fill:#66ccff;" x="245.156889" xlink:href="#C0_0_a4d7bcc147" y="346.623429"/>
    </g>
    <g clip-path="url(#p9211db02ef)">
     <use style="fill:#66ccff;" x="230.739878" xlink:href="#C0_0_a4d7bcc147" y="351.217129"/>
    </g>
   </g>
   <g id="LineCollection_1">
    <path clip-path="url(#p9211db02ef)" d="M 221.561279 24.022134 
L 218.808681 28.754584 
L 207.589501 39.507235 
L 204.512124 43.78559 
L 202.616088 48.0972 
L 200.198976 62.702778 
" style="fill:none;stroke:#999999;"/>
    <path clip-path="url(#p9211db02ef)" d="M 221.561279 24.022134 
L 228.132717 23.715964 
L 241.630708 27.448488 
L 258.698601 27.051728 
L 286.651078 17.385007 
L 298.808907 11.451957 
L 315.341448 10.796042 
L 346.644333 17.399914 
L 369.523464 32.616686 
L 369.33163 37.498208 
L 374.817197 42.651499 
L 379.19191 46.20743 
L 379.861991 49.939954 
" style="fill:none;stroke:#999999;"/>
    <path clip-path="url(#p9211db02ef)" d="M 195.776974 102.514073 
L 193.603448 130.6393 
L 189.965736 149.295039 
" style="fill:none;stroke:#999999;"/>
    <path clip-path="url(#p9211db02ef)" d="M 195.776974 102.514073 
L 198.394842 70.129985 
L 200.198976 62.702778 
" style="fill:none;stroke:#999999;"/>
    <path clip-path="url(#p9211db02ef)" d="M 195.776974 102.514073 
L 130.327597 123.337084 
L 127.714191 136.847559 
L 135.688249 155.306065 
L 134.318641 156.851823 
L 65.635742 188.629305 
" style="fill:none;stroke:#999999;"/>
    <path clip-path="url(#p9211db02ef)" d="M 252.316321 423.692308 
L 252.459973 420.154724 
L 250.752203 384.423404 
" style="fill:none;stroke:#999999;"/>
    <path clip-path="url(#p9211db02ef)" d="M 252.316321 423.692308 
L 253.122917 421.492928 
L 253.347764 420.879441 
L 255.556089 408.523698 
L 257.871483 384.409644 
" style="fill:none;stroke:#999999;"/>
    <path clip-path="url(#p9211db02ef)" d="M 211.845545 337.843111 
L 215.482365 338.813223 
L 218.584726 340.836011 
L 221.273081 343.323213 
L 226.359811 347.564874 
" style="fill:none;stroke:#999999;"/>
    <path clip-path="url(#p9211db02ef)" d="M 211.845545 337.843111 
L 210.607098 336.887906 
L 208.777089 335.300867 
L 196.574648 321.83626 
L 194.785682 320.006119 
L 192.907491 318.8296 
L 186.613544 316.088976 
L 177.63481 312.062895 
L 169.586695 309.129625 
L 165.036209 305.918852 
L 157.898191 299.55464 
L 134.862023 280.692494 
L 129.917161 276.64348 
L 125.259605 271.884655 
L 65.635742 188.629305 
" style="fill:none;stroke:#999999;"/>
    <path clip-path="url(#p9211db02ef)" d="M 189.965736 149.295039 
L 187.605728 161.255169 
L 188.568469 177.858307 
L 195.847462 192.899633 
L 204.73251 213.081636 
L 212.653033 235.412564 
L 233.62096 261.316624 
L 234.831746 266.241721 
L 237.438015 285.967336 
L 245.003422 306.363773 
L 248.133442 317.979892 
L 250.07766 327.233799 
L 251.814875 335.503834 
L 252.535815 338.083919 
" style="fill:none;stroke:#999999;"/>
    <path clip-path="url(#p9211db02ef)" d="M 189.965736 149.295039 
L 193.603448 130.6393 
L 195.776974 102.514073 
" style="fill:none;stroke:#999999;"/>
    <path clip-path="url(#p9211db02ef)" d="M 189.965736 149.295039 
L 207.484216 134.152803 
L 218.301882 128.122283 
L 250.054461 119.618321 
L 284.516811 114.065976 
L 349.133717 115.501651 
L 383.882479 113.396301 
" style="fill:none;stroke:#999999;"/>
    <path clip-path="url(#p9211db02ef)" d="M 265.924952 379.145122 
L 258.24266 379.219658 
" style="fill:none;stroke:#999999;"/>
    <path clip-path="url(#p9211db02ef)" d="M 265.924952 379.145122 
L 269.861568 384.293827 
" style="fill:none;stroke:#999999;"/>
    <path clip-path="url(#p9211db02ef)" d="M 265.924952 379.145122 
L 264.400985 374.194798 
L 263.342774 368.676855 
L 260.773979 361.647555 
" style="fill:none;stroke:#999999;"/>
    <path clip-path="url(#p9211db02ef)" d="M 258.24266 379.219658 
L 257.871483 384.409644 
" style="fill:none;stroke:#999999;"/>
    <path clip-path="url(#p9211db02ef)" d="M 258.24266 379.219658 
L 258.688786 362.210587 
" style="fill:none;stroke:#999999;"/>
    <path clip-path="url(#p9211db02ef)" d="M 258.24266 379.219658 
L 265.924952 379.145122 
" style="fill:none;stroke:#999999;"/>
    <path clip-path="url(#p9211db02ef)" d="M 258.24266 379.219658 
L 256.673188 378.759829 
L 255.704202 375.779544 
L 254.914559 372.871501 
L 253.238909 368.898169 
L 251.024339 365.351411 
" style="fill:none;stroke:#999999;"/>
    <path clip-path="url(#p9211db02ef)" d="M 250.752203 384.423404 
L 257.871483 384.409644 
" style="fill:none;stroke:#999999;"/>
    <path clip-path="url(#p9211db02ef)" d="M 250.752203 384.423404 
L 247.199254 371.990831 
L 244.690241 366.165571 
" style="fill:none;stroke:#999999;"/>
    <path clip-path="url(#p9211db02ef)" d="M 250.752203 384.423404 
L 252.459973 420.154724 
L 252.316321 423.692308 
" style="fill:none;stroke:#999999;"/>
    <path clip-path="url(#p9211db02ef)" d="M 250.752203 384.423404 
L 242.83168 385.48984 
L 241.201535 382.828338 
L 238.090251 378.37683 
L 236.558254 377.56267 
L 233.877929 368.32367 
" style="fill:none;stroke:#999999;"/>
    <path clip-path="url(#p9211db02ef)" d="M 257.871483 384.409644 
L 258.24266 379.219658 
" style="fill:none;stroke:#999999;"/>
    <path clip-path="url(#p9211db02ef)" d="M 257.871483 384.409644 
L 250.752203 384.423404 
" style="fill:none;stroke:#999999;"/>
    <path clip-path="url(#p9211db02ef)" d="M 257.871483 384.409644 
L 255.556089 408.523698 
L 253.347764 420.879441 
L 253.122917 421.492928 
L 252.316321 423.692308 
" style="fill:none;stroke:#999999;"/>
    <path clip-path="url(#p9211db02ef)" d="M 244.690241 366.165571 
L 244.20664 365.042947 
" style="fill:none;stroke:#999999;"/>
    <path clip-path="url(#p9211db02ef)" d="M 244.690241 366.165571 
L 251.024339 365.351411 
" style="fill:none;stroke:#999999;"/>
    <path clip-path="url(#p9211db02ef)" d="M 244.690241 366.165571 
L 247.199254 371.990831 
L 250.752203 384.423404 
" style="fill:none;stroke:#999999;"/>
    <path clip-path="url(#p9211db02ef)" d="M 251.024339 365.351411 
L 244.690241 366.165571 
" style="fill:none;stroke:#999999;"/>
    <path clip-path="url(#p9211db02ef)" d="M 251.024339 365.351411 
L 250.31946 362.673856 
L 249.553908 359.586926 
L 247.543664 356.236255 
" style="fill:none;stroke:#999999;"/>
    <path clip-path="url(#p9211db02ef)" d="M 251.024339 365.351411 
L 253.238909 368.898169 
L 254.914559 372.871501 
L 255.704202 375.779544 
L 256.673188 378.759829 
L 258.24266 379.219658 
" style="fill:none;stroke:#999999;"/>
    <path clip-path="url(#p9211db02ef)" d="M 244.20664 365.042947 
L 238.383802 357.967779 
" style="fill:none;stroke:#999999;"/>
    <path clip-path="url(#p9211db02ef)" d="M 244.20664 365.042947 
L 244.690241 366.165571 
" style="fill:none;stroke:#999999;"/>
    <path clip-path="url(#p9211db02ef)" d="M 244.20664 365.042947 
L 233.877929 368.32367 
" style="fill:none;stroke:#999999;"/>
    <path clip-path="url(#p9211db02ef)" d="M 258.688786 362.210587 
L 258.24266 379.219658 
" style="fill:none;stroke:#999999;"/>
    <path clip-path="url(#p9211db02ef)" d="M 258.688786 362.210587 
L 256.94711 354.46001 
" style="fill:none;stroke:#999999;"/>
    <path clip-path="url(#p9211db02ef)" d="M 258.688786 362.210587 
L 260.773979 361.647555 
" style="fill:none;stroke:#999999;"/>
    <path clip-path="url(#p9211db02ef)" d="M 260.773979 361.647555 
L 258.688786 362.210587 
" style="fill:none;stroke:#999999;"/>
    <path clip-path="url(#p9211db02ef)" d="M 260.773979 361.647555 
L 264.854249 360.286416 
" style="fill:none;stroke:#999999;"/>
    <path clip-path="url(#p9211db02ef)" d="M 260.773979 361.647555 
L 259.639927 353.559846 
L 260.031626 351.392574 
" style="fill:none;stroke:#999999;"/>
    <path clip-path="url(#p9211db02ef)" d="M 260.773979 361.647555 
L 263.342774 368.676855 
L 264.400985 374.194798 
L 265.924952 379.145122 
" style="fill:none;stroke:#999999;"/>
    <path clip-path="url(#p9211db02ef)" d="M 264.854249 360.286416 
L 260.773979 361.647555 
" style="fill:none;stroke:#999999;"/>
    <path clip-path="url(#p9211db02ef)" d="M 238.383802 357.967779 
L 246.792387 356.378447 
" style="fill:none;stroke:#999999;"/>
    <path clip-path="url(#p9211db02ef)" d="M 238.383802 357.967779 
L 244.20664 365.042947 
" style="fill:none;stroke:#999999;"/>
    <path clip-path="url(#p9211db02ef)" d="M 238.383802 357.967779 
L 237.740488 357.185727 
L 231.488477 351.840936 
L 230.739878 351.217129 
" style="fill:none;stroke:#999999;"/>
    <path clip-path="url(#p9211db02ef)" d="M 256.94711 354.46001 
L 247.543664 356.236255 
" style="fill:none;stroke:#999999;"/>
    <path clip-path="url(#p9211db02ef)" d="M 256.94711 354.46001 
L 258.688786 362.210587 
" style="fill:none;stroke:#999999;"/>
    <path clip-path="url(#p9211db02ef)" d="M 256.94711 354.46001 
L 256.655343 352.837422 
L 256.349301 351.742319 
" style="fill:none;stroke:#999999;"/>
    <path clip-path="url(#p9211db02ef)" d="M 264.703458 340.482826 
L 261.604666 343.808269 
L 260.773979 347.286225 
L 260.031626 351.392574 
" style="fill:none;stroke:#999999;"/>
    <path clip-path="url(#p9211db02ef)" d="M 383.882479 113.396301 
L 409.441936 112.726625 
" style="fill:none;stroke:#999999;"/>
    <path clip-path="url(#p9211db02ef)" d="M 383.882479 113.396301 
L 379.861991 49.939954 
" style="fill:none;stroke:#999999;"/>
    <path clip-path="url(#p9211db02ef)" d="M 383.882479 113.396301 
L 349.133717 115.501651 
L 284.516811 114.065976 
L 250.054461 119.618321 
L 218.301882 128.122283 
L 207.484216 134.152803 
L 189.965736 149.295039 
" style="fill:none;stroke:#999999;"/>
    <path clip-path="url(#p9211db02ef)" d="M 409.441936 112.726625 
L 383.882479 113.396301 
" style="fill:none;stroke:#999999;"/>
    <path clip-path="url(#p9211db02ef)" d="M 58.980433 89.56319 
L 63.288227 89.468013 
L 67.720936 86.295081 
L 72.191119 85.447666 
L 76.911134 86.295081 
L 85.430358 85.050906 
L 94.045945 79.116709 
L 97.559635 73.292596 
L 98.133353 70.995747 
L 93.375864 63.324292 
L 100.527265 35.583211 
L 104.93053 30.22466 
L 105.313306 26.587312 
L 102.728452 20.366439 
L 103.207591 19.027088 
L 133.170313 15.294564 
L 138.052717 10.604542 
L 140.062961 8.977368 
L 143.796145 8.307692 
L 154.737833 17.002008 
L 181.129762 30.894335 
L 192.904814 61.520525 
L 194.436811 62.5732 
L 200.198976 62.702778 
" style="fill:none;stroke:#999999;"/>
    <path clip-path="url(#p9211db02ef)" d="M 200.198976 62.702778 
L 198.394842 70.129985 
L 195.776974 102.514073 
" style="fill:none;stroke:#999999;"/>
    <path clip-path="url(#p9211db02ef)" d="M 200.198976 62.702778 
L 202.616088 48.0972 
L 204.512124 43.78559 
L 207.589501 39.507235 
L 218.808681 28.754584 
L 221.561279 24.022134 
" style="fill:none;stroke:#999999;"/>
    <path clip-path="url(#p9211db02ef)" d="M 200.198976 62.702778 
L 307.491413 55.203329 
L 379.861991 49.939954 
" style="fill:none;stroke:#999999;"/>
    <path clip-path="url(#p9211db02ef)" d="M 200.198976 62.702778 
L 194.436811 62.5732 
L 192.904814 61.520525 
L 181.129762 30.894335 
L 154.737833 17.002008 
L 143.796145 8.307692 
L 140.062961 8.977368 
L 138.052717 10.604542 
L 133.170313 15.294564 
L 103.207591 19.027088 
L 102.728452 20.366439 
L 105.313306 26.587312 
L 104.93053 30.22466 
L 100.527265 35.583211 
L 93.375864 63.324292 
L 98.133353 70.995747 
L 97.559635 73.292596 
L 94.045945 79.116709 
L 85.430358 85.050906 
L 76.911134 86.295081 
L 72.191119 85.447666 
L 67.720936 86.295081 
L 63.288227 89.468013 
L 58.980433 89.56319 
" style="fill:none;stroke:#999999;"/>
    <path clip-path="url(#p9211db02ef)" d="M 379.861991 49.939954 
L 383.882479 113.396301 
" style="fill:none;stroke:#999999;"/>
    <path clip-path="url(#p9211db02ef)" d="M 379.861991 49.939954 
L 307.491413 55.203329 
L 200.198976 62.702778 
" style="fill:none;stroke:#999999;"/>
    <path clip-path="url(#p9211db02ef)" d="M 379.861991 49.939954 
L 379.19191 46.20743 
L 374.817197 42.651499 
L 369.33163 37.498208 
L 369.523464 32.616686 
L 346.644333 17.399914 
L 315.341448 10.796042 
L 298.808907 11.451957 
L 286.651078 17.385007 
L 258.698601 27.051728 
L 241.630708 27.448488 
L 228.132717 23.715964 
L 221.561279 24.022134 
" style="fill:none;stroke:#999999;"/>
    <path clip-path="url(#p9211db02ef)" d="M 65.635742 188.629305 
L 125.259605 271.884655 
L 129.917161 276.64348 
L 134.862023 280.692494 
L 157.898191 299.55464 
L 165.036209 305.918852 
L 169.586695 309.129625 
L 177.63481 312.062895 
L 186.613544 316.088976 
L 192.907491 318.8296 
L 194.785682 320.006119 
L 196.574648 321.83626 
L 208.777089 335.300867 
L 210.607098 336.887906 
L 211.845545 337.843111 
" style="fill:none;stroke:#999999;"/>
    <path clip-path="url(#p9211db02ef)" d="M 65.635742 188.629305 
L 134.318641 156.851823 
L 135.688249 155.306065 
L 127.714191 136.847559 
L 130.327597 123.337084 
L 195.776974 102.514073 
" style="fill:none;stroke:#999999;"/>
    <path clip-path="url(#p9211db02ef)" d="M 252.535815 338.083919 
L 255.789859 349.737879 
" style="fill:none;stroke:#999999;"/>
    <path clip-path="url(#p9211db02ef)" d="M 252.535815 338.083919 
L 251.814875 335.503834 
L 250.07766 327.233799 
L 248.133442 317.979892 
L 245.003422 306.363773 
L 237.438015 285.967336 
L 234.831746 266.241721 
L 233.62096 261.316624 
L 212.653033 235.412564 
L 204.73251 213.081636 
L 195.847462 192.899633 
L 188.568469 177.858307 
L 187.605728 161.255169 
L 189.965736 149.295039 
" style="fill:none;stroke:#999999;"/>
    <path clip-path="url(#p9211db02ef)" d="M 252.535815 338.083919 
L 244.072802 340.183536 
L 244.312818 341.587102 
" style="fill:none;stroke:#999999;"/>
    <path clip-path="url(#p9211db02ef)" d="M 246.792387 356.378447 
L 247.543664 356.236255 
" style="fill:none;stroke:#999999;"/>
    <path clip-path="url(#p9211db02ef)" d="M 246.792387 356.378447 
L 238.383802 357.967779 
" style="fill:none;stroke:#999999;"/>
    <path clip-path="url(#p9211db02ef)" d="M 246.792387 356.378447 
L 245.832324 350.651803 
" style="fill:none;stroke:#999999;"/>
    <path clip-path="url(#p9211db02ef)" d="M 244.312818 341.587102 
L 245.156889 346.623429 
" style="fill:none;stroke:#999999;"/>
    <path clip-path="url(#p9211db02ef)" d="M 244.312818 341.587102 
L 226.359811 347.564874 
" style="fill:none;stroke:#999999;"/>
    <path clip-path="url(#p9211db02ef)" d="M 244.312818 341.587102 
L 244.072802 340.183536 
L 252.535815 338.083919 
" style="fill:none;stroke:#999999;"/>
    <path clip-path="url(#p9211db02ef)" d="M 226.359811 347.564874 
L 230.739878 351.217129 
" style="fill:none;stroke:#999999;"/>
    <path clip-path="url(#p9211db02ef)" d="M 226.359811 347.564874 
L 244.312818 341.587102 
" style="fill:none;stroke:#999999;"/>
    <path clip-path="url(#p9211db02ef)" d="M 226.359811 347.564874 
L 221.273081 343.323213 
L 218.584726 340.836011 
L 215.482365 338.813223 
L 211.845545 337.843111 
" style="fill:none;stroke:#999999;"/>
    <path clip-path="url(#p9211db02ef)" d="M 260.031626 351.392574 
L 260.773979 347.286225 
L 261.604666 343.808269 
L 264.703458 340.482826 
" style="fill:none;stroke:#999999;"/>
    <path clip-path="url(#p9211db02ef)" d="M 260.031626 351.392574 
L 259.639927 353.559846 
L 260.773979 361.647555 
" style="fill:none;stroke:#999999;"/>
    <path clip-path="url(#p9211db02ef)" d="M 260.031626 351.392574 
L 258.935048 351.088698 
L 256.349301 351.742319 
" style="fill:none;stroke:#999999;"/>
    <path clip-path="url(#p9211db02ef)" d="M 256.349301 351.742319 
L 255.789859 349.737879 
" style="fill:none;stroke:#999999;"/>
    <path clip-path="url(#p9211db02ef)" d="M 256.349301 351.742319 
L 256.655343 352.837422 
L 256.94711 354.46001 
" style="fill:none;stroke:#999999;"/>
    <path clip-path="url(#p9211db02ef)" d="M 256.349301 351.742319 
L 258.935048 351.088698 
L 260.031626 351.392574 
" style="fill:none;stroke:#999999;"/>
    <path clip-path="url(#p9211db02ef)" d="M 255.789859 349.737879 
L 256.349301 351.742319 
" style="fill:none;stroke:#999999;"/>
    <path clip-path="url(#p9211db02ef)" d="M 255.789859 349.737879 
L 252.535815 338.083919 
" style="fill:none;stroke:#999999;"/>
    <path clip-path="url(#p9211db02ef)" d="M 255.789859 349.737879 
L 251.420499 349.533766 
L 245.832324 350.651803 
" style="fill:none;stroke:#999999;"/>
    <path clip-path="url(#p9211db02ef)" d="M 245.832324 350.651803 
L 245.156889 346.623429 
" style="fill:none;stroke:#999999;"/>
    <path clip-path="url(#p9211db02ef)" d="M 245.832324 350.651803 
L 246.792387 356.378447 
" style="fill:none;stroke:#999999;"/>
    <path clip-path="url(#p9211db02ef)" d="M 245.832324 350.651803 
L 251.420499 349.533766 
L 255.789859 349.737879 
" style="fill:none;stroke:#999999;"/>
    <path clip-path="url(#p9211db02ef)" d="M 247.543664 356.236255 
L 256.94711 354.46001 
" style="fill:none;stroke:#999999;"/>
    <path clip-path="url(#p9211db02ef)" d="M 247.543664 356.236255 
L 246.792387 356.378447 
" style="fill:none;stroke:#999999;"/>
    <path clip-path="url(#p9211db02ef)" d="M 247.543664 356.236255 
L 249.553908 359.586926 
L 250.31946 362.673856 
L 251.024339 365.351411 
" style="fill:none;stroke:#999999;"/>
    <path clip-path="url(#p9211db02ef)" d="M 272.051155 387.157148 
L 269.861568 384.293827 
" style="fill:none;stroke:#999999;"/>
    <path clip-path="url(#p9211db02ef)" d="M 272.051155 387.157148 
L 267.347202 390.991729 
L 259.689001 397.393781 
" style="fill:none;stroke:#999999;"/>
    <path clip-path="url(#p9211db02ef)" d="M 269.861568 384.293827 
L 272.051155 387.157148 
" style="fill:none;stroke:#999999;"/>
    <path clip-path="url(#p9211db02ef)" d="M 269.861568 384.293827 
L 265.924952 379.145122 
" style="fill:none;stroke:#999999;"/>
    <path clip-path="url(#p9211db02ef)" d="M 269.861568 384.293827 
L 268.483931 385.317834 
L 263.315114 389.052651 
L 260.347483 391.254324 
L 259.880835 392.020323 
L 259.808563 394.390562 
L 259.689001 397.393781 
" style="fill:none;stroke:#999999;"/>
    <path clip-path="url(#p9211db02ef)" d="M 259.689001 397.393781 
L 259.569439 401.523065 
" style="fill:none;stroke:#999999;"/>
    <path clip-path="url(#p9211db02ef)" d="M 259.689001 397.393781 
L 267.347202 390.991729 
L 272.051155 387.157148 
" style="fill:none;stroke:#999999;"/>
    <path clip-path="url(#p9211db02ef)" d="M 259.689001 397.393781 
L 259.808563 394.390562 
L 259.880835 392.020323 
L 260.347483 391.254324 
L 263.315114 389.052651 
L 268.483931 385.317834 
L 269.861568 384.293827 
" style="fill:none;stroke:#999999;"/>
    <path clip-path="url(#p9211db02ef)" d="M 259.569439 401.523065 
L 259.689001 397.393781 
" style="fill:none;stroke:#999999;"/>
    <path clip-path="url(#p9211db02ef)" d="M 229.881531 376.317348 
L 227.93999 370.228346 
" style="fill:none;stroke:#999999;"/>
    <path clip-path="url(#p9211db02ef)" d="M 227.93999 370.228346 
L 229.881531 376.317348 
" style="fill:none;stroke:#999999;"/>
    <path clip-path="url(#p9211db02ef)" d="M 227.93999 370.228346 
L 224.927747 371.195018 
" style="fill:none;stroke:#999999;"/>
    <path clip-path="url(#p9211db02ef)" d="M 227.93999 370.228346 
L 233.877929 368.32367 
" style="fill:none;stroke:#999999;"/>
    <path clip-path="url(#p9211db02ef)" d="M 224.927747 371.195018 
L 227.93999 370.228346 
" style="fill:none;stroke:#999999;"/>
    <path clip-path="url(#p9211db02ef)" d="M 233.877929 368.32367 
L 227.93999 370.228346 
" style="fill:none;stroke:#999999;"/>
    <path clip-path="url(#p9211db02ef)" d="M 233.877929 368.32367 
L 244.20664 365.042947 
" style="fill:none;stroke:#999999;"/>
    <path clip-path="url(#p9211db02ef)" d="M 233.877929 368.32367 
L 232.059519 362.147518 
L 231.580379 359.466522 
L 230.144745 352.812195 
L 230.739878 351.217129 
" style="fill:none;stroke:#999999;"/>
    <path clip-path="url(#p9211db02ef)" d="M 233.877929 368.32367 
L 236.558254 377.56267 
L 238.090251 378.37683 
L 241.201535 382.828338 
L 242.83168 385.48984 
L 250.752203 384.423404 
" style="fill:none;stroke:#999999;"/>
    <path clip-path="url(#p9211db02ef)" d="M 245.156889 346.623429 
L 244.312818 341.587102 
" style="fill:none;stroke:#999999;"/>
    <path clip-path="url(#p9211db02ef)" d="M 245.156889 346.623429 
L 245.832324 350.651803 
" style="fill:none;stroke:#999999;"/>
    <path clip-path="url(#p9211db02ef)" d="M 245.156889 346.623429 
L 230.739878 351.217129 
" style="fill:none;stroke:#999999;"/>
    <path clip-path="url(#p9211db02ef)" d="M 230.739878 351.217129 
L 226.359811 347.564874 
" style="fill:none;stroke:#999999;"/>
    <path clip-path="url(#p9211db02ef)" d="M 230.739878 351.217129 
L 245.156889 346.623429 
" style="fill:none;stroke:#999999;"/>
    <path clip-path="url(#p9211db02ef)" d="M 230.739878 351.217129 
L 230.144745 352.812195 
L 231.580379 359.466522 
L 232.059519 362.147518 
L 233.877929 368.32367 
" style="fill:none;stroke:#999999;"/>
    <path clip-path="url(#p9211db02ef)" d="M 230.739878 351.217129 
L 231.488477 351.840936 
L 237.740488 357.185727 
L 238.383802 357.967779 
" style="fill:none;stroke:#999999;"/>
   </g>
  </g>
 </g>
 <defs>
  <clipPath id="p9211db02ef">
   <rect height="432" width="364.479964" x="51.971203" y="0"/>
  </clipPath>
 </defs>
</svg>
