<?xml version="1.0" encoding="utf-8" standalone="no"?>
<!DOCTYPE svg PUBLIC "-//W3C//DTD SVG 1.1//EN"
  "http://www.w3.org/Graphics/SVG/1.1/DTD/svg11.dtd">
<!-- Created with matplotlib (http://matplotlib.org/) -->
<svg height="432pt" version="1.1" viewBox="0 0 884.113762 432" width="884.113762pt" xmlns="http://www.w3.org/2000/svg" xmlns:xlink="http://www.w3.org/1999/xlink">
 <defs>
  <style type="text/css">
*{stroke-linecap:butt;stroke-linejoin:round;}
  </style>
 </defs>
 <g id="figure_1">
  <g id="patch_1">
   <path d="M 0 432 
L 884.113762 432 
L 884.113762 0 
L 0 0 
z
" style="fill:none;opacity:0;"/>
  </g>
  <g id="axes_1">
   <g id="PathCollection_1">
    <defs>
     <path d="M 0 1.936492 
C 0.513564 1.936492 1.006162 1.732451 1.369306 1.369306 
C 1.732451 1.006162 1.936492 0.513564 1.936492 0 
C 1.936492 -0.513564 1.732451 -1.006162 1.369306 -1.369306 
C 1.006162 -1.732451 0.513564 -1.936492 0 -1.936492 
C -0.513564 -1.936492 -1.006162 -1.732451 -1.369306 -1.369306 
C -1.732451 -1.006162 -1.936492 -0.513564 -1.936492 0 
C -1.936492 0.513564 -1.732451 1.006162 -1.369306 1.369306 
C -1.006162 1.732451 -0.513564 1.936492 0 1.936492 
z
" id="C0_0_b0df00c71d"/>
    </defs>
    <g clip-path="url(#p050a98dc55)">
     <use style="fill:#66ccff;" x="462.16188" xlink:href="#C0_0_b0df00c71d" y="244.713117"/>
    </g>
    <g clip-path="url(#p050a98dc55)">
     <use style="fill:#66ccff;" x="687.542764" xlink:href="#C0_0_b0df00c71d" y="423.692308"/>
    </g>
    <g clip-path="url(#p050a98dc55)">
     <use style="fill:#66ccff;" x="315.478318" xlink:href="#C0_0_b0df00c71d" y="168.943683"/>
    </g>
    <g clip-path="url(#p050a98dc55)">
     <use style="fill:#66ccff;" x="312.015892" xlink:href="#C0_0_b0df00c71d" y="178.530222"/>
    </g>
    <g clip-path="url(#p050a98dc55)">
     <use style="fill:#66ccff;" x="155.409107" xlink:href="#C0_0_b0df00c71d" y="161.968145"/>
    </g>
    <g clip-path="url(#p050a98dc55)">
     <use style="fill:#66ccff;" x="313.496478" xlink:href="#C0_0_b0df00c71d" y="173.332653"/>
    </g>
    <g clip-path="url(#p050a98dc55)">
     <use style="fill:#66ccff;" x="308.528464" xlink:href="#C0_0_b0df00c71d" y="184.322811"/>
    </g>
    <g clip-path="url(#p050a98dc55)">
     <use style="fill:#66ccff;" x="283.60668" xlink:href="#C0_0_b0df00c71d" y="186.427058"/>
    </g>
    <g clip-path="url(#p050a98dc55)">
     <use style="fill:#66ccff;" x="285.537297" xlink:href="#C0_0_b0df00c71d" y="166.699942"/>
    </g>
    <g clip-path="url(#p050a98dc55)">
     <use style="fill:#66ccff;" x="284.914694" xlink:href="#C0_0_b0df00c71d" y="171.450653"/>
    </g>
    <g clip-path="url(#p050a98dc55)">
     <use style="fill:#66ccff;" x="351.824034" xlink:href="#C0_0_b0df00c71d" y="194.741591"/>
    </g>
    <g clip-path="url(#p050a98dc55)">
     <use style="fill:#66ccff;" x="158.982516" xlink:href="#C0_0_b0df00c71d" y="162.400028"/>
    </g>
    <g clip-path="url(#p050a98dc55)">
     <use style="fill:#66ccff;" x="232.352043" xlink:href="#C0_0_b0df00c71d" y="168.685972"/>
    </g>
    <g clip-path="url(#p050a98dc55)">
     <use style="fill:#66ccff;" x="148.821472" xlink:href="#C0_0_b0df00c71d" y="157.183545"/>
    </g>
    <g clip-path="url(#p050a98dc55)">
     <use style="fill:#66ccff;" x="146.204225" xlink:href="#C0_0_b0df00c71d" y="155.113975"/>
    </g>
    <g clip-path="url(#p050a98dc55)">
     <use style="fill:#66ccff;" x="139.511095" xlink:href="#C0_0_b0df00c71d" y="147.384217"/>
    </g>
    <g clip-path="url(#p050a98dc55)">
     <use style="fill:#66ccff;" x="133.422275" xlink:href="#C0_0_b0df00c71d" y="141.116399"/>
    </g>
    <g clip-path="url(#p050a98dc55)">
     <use style="fill:#66ccff;" x="125.99678" xlink:href="#C0_0_b0df00c71d" y="137.404413"/>
    </g>
    <g clip-path="url(#p050a98dc55)">
     <use style="fill:#66ccff;" x="233.806408" xlink:href="#C0_0_b0df00c71d" y="167.637789"/>
    </g>
    <g clip-path="url(#p050a98dc55)">
     <use style="fill:#66ccff;" x="231.436738" xlink:href="#C0_0_b0df00c71d" y="167.455737"/>
    </g>
    <g clip-path="url(#p050a98dc55)">
     <use style="fill:#66ccff;" x="306.978971" xlink:href="#C0_0_b0df00c71d" y="190.355773"/>
    </g>
    <g clip-path="url(#p050a98dc55)">
     <use style="fill:#66ccff;" x="323.940468" xlink:href="#C0_0_b0df00c71d" y="186.66349"/>
    </g>
    <g clip-path="url(#p050a98dc55)">
     <use style="fill:#66ccff;" x="308.485778" xlink:href="#C0_0_b0df00c71d" y="186.536605"/>
    </g>
    <g clip-path="url(#p050a98dc55)">
     <use style="fill:#66ccff;" x="303.947061" xlink:href="#C0_0_b0df00c71d" y="185.504184"/>
    </g>
    <g clip-path="url(#p050a98dc55)">
     <use style="fill:#66ccff;" x="293.676864" xlink:href="#C0_0_b0df00c71d" y="183.34871"/>
    </g>
    <g clip-path="url(#p050a98dc55)">
     <use style="fill:#66ccff;" x="229.341476" xlink:href="#C0_0_b0df00c71d" y="182.767875"/>
    </g>
    <g clip-path="url(#p050a98dc55)">
     <use style="fill:#66ccff;" x="299.111373" xlink:href="#C0_0_b0df00c71d" y="181.571528"/>
    </g>
    <g clip-path="url(#p050a98dc55)">
     <use style="fill:#66ccff;" x="300.085828" xlink:href="#C0_0_b0df00c71d" y="181.153831"/>
    </g>
    <g clip-path="url(#p050a98dc55)">
     <use style="fill:#66ccff;" x="298.801596" xlink:href="#C0_0_b0df00c71d" y="179.155979"/>
    </g>
    <g clip-path="url(#p050a98dc55)">
     <use style="fill:#66ccff;" x="292.983525" xlink:href="#C0_0_b0df00c71d" y="178.170845"/>
    </g>
    <g clip-path="url(#p050a98dc55)">
     <use style="fill:#66ccff;" x="333.706363" xlink:href="#C0_0_b0df00c71d" y="178.116465"/>
    </g>
    <g clip-path="url(#p050a98dc55)">
     <use style="fill:#66ccff;" x="279.878993" xlink:href="#C0_0_b0df00c71d" y="177.447362"/>
    </g>
    <g clip-path="url(#p050a98dc55)">
     <use style="fill:#66ccff;" x="161.567444" xlink:href="#C0_0_b0df00c71d" y="175.691459"/>
    </g>
    <g clip-path="url(#p050a98dc55)">
     <use style="fill:#66ccff;" x="298.293635" xlink:href="#C0_0_b0df00c71d" y="172.241913"/>
    </g>
    <g clip-path="url(#p050a98dc55)">
     <use style="fill:#66ccff;" x="234.9699" xlink:href="#C0_0_b0df00c71d" y="172.320724"/>
    </g>
    <g clip-path="url(#p050a98dc55)">
     <use style="fill:#66ccff;" x="294.73913" xlink:href="#C0_0_b0df00c71d" y="171.948737"/>
    </g>
    <g clip-path="url(#p050a98dc55)">
     <use style="fill:#66ccff;" x="231.692852" xlink:href="#C0_0_b0df00c71d" y="171.875443"/>
    </g>
    <g clip-path="url(#p050a98dc55)">
     <use style="fill:#66ccff;" x="287.945994" xlink:href="#C0_0_b0df00c71d" y="171.650044"/>
    </g>
    <g clip-path="url(#p050a98dc55)">
     <use style="fill:#66ccff;" x="280.885157" xlink:href="#C0_0_b0df00c71d" y="171.189001"/>
    </g>
    <g clip-path="url(#p050a98dc55)">
     <use style="fill:#66ccff;" x="294.775108" xlink:href="#C0_0_b0df00c71d" y="167.321758"/>
    </g>
    <g clip-path="url(#p050a98dc55)">
     <use style="fill:#66ccff;" x="158.619077" xlink:href="#C0_0_b0df00c71d" y="167.303632"/>
    </g>
    <g clip-path="url(#p050a98dc55)">
     <use style="fill:#66ccff;" x="188.502167" xlink:href="#C0_0_b0df00c71d" y="166.938738"/>
    </g>
    <g clip-path="url(#p050a98dc55)">
     <use style="fill:#66ccff;" x="158.712376" xlink:href="#C0_0_b0df00c71d" y="166.370513"/>
    </g>
    <g clip-path="url(#p050a98dc55)">
     <use style="fill:#66ccff;" x="133.55704" xlink:href="#C0_0_b0df00c71d" y="164.638253"/>
    </g>
    <g clip-path="url(#p050a98dc55)">
     <use style="fill:#66ccff;" x="187.928349" xlink:href="#C0_0_b0df00c71d" y="164.355322"/>
    </g>
    <g clip-path="url(#p050a98dc55)">
     <use style="fill:#66ccff;" x="187.258792" xlink:href="#C0_0_b0df00c71d" y="163.675973"/>
    </g>
    <g clip-path="url(#p050a98dc55)">
     <use style="fill:#66ccff;" x="158.887388" xlink:href="#C0_0_b0df00c71d" y="163.632628"/>
    </g>
    <g clip-path="url(#p050a98dc55)">
     <use style="fill:#66ccff;" x="133.931455" xlink:href="#C0_0_b0df00c71d" y="163.532538"/>
    </g>
    <g clip-path="url(#p050a98dc55)">
     <use style="fill:#66ccff;" x="141.759416" xlink:href="#C0_0_b0df00c71d" y="162.606512"/>
    </g>
    <g clip-path="url(#p050a98dc55)">
     <use style="fill:#66ccff;" x="327.568758" xlink:href="#C0_0_b0df00c71d" y="161.84914"/>
    </g>
    <g clip-path="url(#p050a98dc55)">
     <use style="fill:#66ccff;" x="147.190266" xlink:href="#C0_0_b0df00c71d" y="161.674969"/>
    </g>
    <g clip-path="url(#p050a98dc55)">
     <use style="fill:#66ccff;" x="141.077053" xlink:href="#C0_0_b0df00c71d" y="159.280698"/>
    </g>
    <g clip-path="url(#p050a98dc55)">
     <use style="fill:#66ccff;" x="136.300515" xlink:href="#C0_0_b0df00c71d" y="157.040109"/>
    </g>
    <g clip-path="url(#p050a98dc55)">
     <use style="fill:#66ccff;" x="136.993245" xlink:href="#C0_0_b0df00c71d" y="155.312578"/>
    </g>
    <g clip-path="url(#p050a98dc55)">
     <use style="fill:#66ccff;" x="138.471392" xlink:href="#C0_0_b0df00c71d" y="151.626599"/>
    </g>
    <g clip-path="url(#p050a98dc55)">
     <use style="fill:#66ccff;" x="137.935381" xlink:href="#C0_0_b0df00c71d" y="150.903117"/>
    </g>
    <g clip-path="url(#p050a98dc55)">
     <use style="fill:#66ccff;" x="191.939592" xlink:href="#C0_0_b0df00c71d" y="148.692476"/>
    </g>
    <g clip-path="url(#p050a98dc55)">
     <use style="fill:#66ccff;" x="167.784932" xlink:href="#C0_0_b0df00c71d" y="148.545099"/>
    </g>
    <g clip-path="url(#p050a98dc55)">
     <use style="fill:#66ccff;" x="139.731842" xlink:href="#C0_0_b0df00c71d" y="147.583608"/>
    </g>
    <g clip-path="url(#p050a98dc55)">
     <use style="fill:#66ccff;" x="157.982449" xlink:href="#C0_0_b0df00c71d" y="143.909452"/>
    </g>
    <g clip-path="url(#p050a98dc55)">
     <use style="fill:#66ccff;" x="141.741122" xlink:href="#C0_0_b0df00c71d" y="140.991878"/>
    </g>
    <g clip-path="url(#p050a98dc55)">
     <use style="fill:#66ccff;" x="149.553838" xlink:href="#C0_0_b0df00c71d" y="140.920948"/>
    </g>
    <g clip-path="url(#p050a98dc55)">
     <use style="fill:#66ccff;" x="135.322401" xlink:href="#C0_0_b0df00c71d" y="140.599401"/>
    </g>
    <g clip-path="url(#p050a98dc55)">
     <use style="fill:#66ccff;" x="150.197174" xlink:href="#C0_0_b0df00c71d" y="140.438627"/>
    </g>
    <g clip-path="url(#p050a98dc55)">
     <use style="fill:#66ccff;" x="141.633798" xlink:href="#C0_0_b0df00c71d" y="139.768735"/>
    </g>
    <g clip-path="url(#p050a98dc55)">
     <use style="fill:#66ccff;" x="151.85887" xlink:href="#C0_0_b0df00c71d" y="137.410718"/>
    </g>
    <g clip-path="url(#p050a98dc55)">
     <use style="fill:#66ccff;" x="141.139863" xlink:href="#C0_0_b0df00c71d" y="137.215267"/>
    </g>
    <g clip-path="url(#p050a98dc55)">
     <use style="fill:#66ccff;" x="113.171534" xlink:href="#C0_0_b0df00c71d" y="133.444962"/>
    </g>
    <g clip-path="url(#p050a98dc55)">
     <use style="fill:#66ccff;" x="141.294141" xlink:href="#C0_0_b0df00c71d" y="132.623754"/>
    </g>
    <g clip-path="url(#p050a98dc55)">
     <use style="fill:#66ccff;" x="146.324355" xlink:href="#C0_0_b0df00c71d" y="122.859891"/>
    </g>
    <g clip-path="url(#p050a98dc55)">
     <use style="fill:#66ccff;" x="770.942228" xlink:href="#C0_0_b0df00c71d" y="260.705392"/>
    </g>
    <g clip-path="url(#p050a98dc55)">
     <use style="fill:#66ccff;" x="489.649689" xlink:href="#C0_0_b0df00c71d" y="289.086716"/>
    </g>
    <g clip-path="url(#p050a98dc55)">
     <use style="fill:#66ccff;" x="284.715901" xlink:href="#C0_0_b0df00c71d" y="162.416578"/>
    </g>
    <g clip-path="url(#p050a98dc55)">
     <use style="fill:#66ccff;" x="303.508007" xlink:href="#C0_0_b0df00c71d" y="189.589733"/>
    </g>
    <g clip-path="url(#p050a98dc55)">
     <use style="fill:#66ccff;" x="126.243137" xlink:href="#C0_0_b0df00c71d" y="142.772213"/>
    </g>
    <g clip-path="url(#p050a98dc55)">
     <use style="fill:#66ccff;" x="130.76539" xlink:href="#C0_0_b0df00c71d" y="140.209287"/>
    </g>
    <g clip-path="url(#p050a98dc55)">
     <use style="fill:#66ccff;" x="220.914695" xlink:href="#C0_0_b0df00c71d" y="127.411211"/>
    </g>
    <g clip-path="url(#p050a98dc55)">
     <use style="fill:#66ccff;" x="354.641905" xlink:href="#C0_0_b0df00c71d" y="8.307692"/>
    </g>
    <g clip-path="url(#p050a98dc55)">
     <use style="fill:#66ccff;" x="224.899107" xlink:href="#C0_0_b0df00c71d" y="111.124972"/>
    </g>
   </g>
   <g id="LineCollection_1">
    <path clip-path="url(#p050a98dc55)" d="M 462.16188 244.713117 
L 467.167092 248.823885 
L 470.737452 253.333436 
L 473.756556 258.995987 
L 481.836363 273.285951 
L 488.704504 285.75775 
L 489.649689 289.086716 
" style="fill:none;stroke:#999999;"/>
    <path clip-path="url(#p050a98dc55)" d="M 462.16188 244.713117 
L 463.318055 244.839214 
L 493.374328 254.755181 
L 495.762292 256.06344 
L 497.005057 258.092028 
L 497.98622 263.228124 
L 497.240439 265.187359 
L 495.075051 269.280001 
L 494.126207 272.519122 
L 494.322561 276.34696 
L 493.773135 278.273883 
L 491.771172 281.974047 
L 489.649689 289.086716 
" style="fill:none;stroke:#999999;"/>
    <path clip-path="url(#p050a98dc55)" d="M 462.16188 244.713117 
L 441.07084 237.333279 
L 424.496564 231.799977 
L 410.351718 227.164329 
L 396.155649 219.098838 
L 390.506492 215.986602 
L 352.927766 195.347646 
L 351.824034 194.741591 
" style="fill:none;stroke:#999999;"/>
    <path clip-path="url(#p050a98dc55)" d="M 462.16188 244.713117 
L 463.677835 244.151984 
L 472.085103 243.923433 
L 481.113754 241.633193 
L 493.013938 240.62284 
L 497.273368 239.96477 
L 509.043055 235.649882 
L 534.695986 228.84221 
L 546.995586 222.823434 
L 556.28584 220.598607 
L 564.463824 218.636219 
L 577.215284 217.854417 
L 578.530006 218.112916 
L 585.196914 221.518328 
L 599.138698 231.524928 
L 607.447788 237.020401 
L 613.721377 239.379206 
L 646.891882 243.631834 
L 652.322122 244.024311 
L 660.375708 240.815138 
L 675.88101 237.93697 
L 697.856866 238.398012 
L 730.241953 249.520572 
L 754.063053 255.798636 
L 758.24321 258.35368 
L 764.138116 259.724199 
L 770.942228 260.705392 
" style="fill:none;stroke:#999999;"/>
    <path clip-path="url(#p050a98dc55)" d="M 687.542764 423.692308 
L 658.370087 407.473057 
L 655.15036 404.7068 
L 651.948927 400.59288 
L 649.040196 397.684763 
L 559.101272 341.185344 
L 539.886576 320.450238 
L 526.934492 315.973788 
L 520.385275 312.372137 
L 509.384542 308.376433 
L 499.713165 302.946373 
L 491.938256 297.13014 
L 490.538163 293.894171 
L 489.649689 289.086716 
" style="fill:none;stroke:#999999;"/>
    <path clip-path="url(#p050a98dc55)" d="M 315.478318 168.943683 
L 333.706363 178.116465 
" style="fill:none;stroke:#999999;"/>
    <path clip-path="url(#p050a98dc55)" d="M 315.478318 168.943683 
L 294.775108 167.321758 
" style="fill:none;stroke:#999999;"/>
    <path clip-path="url(#p050a98dc55)" d="M 315.478318 168.943683 
L 313.496478 173.332653 
" style="fill:none;stroke:#999999;"/>
    <path clip-path="url(#p050a98dc55)" d="M 315.478318 168.943683 
L 315.71248 160.562949 
L 316.309471 153.752125 
L 316.833286 150.252928 
L 323.899001 131.576359 
L 328.707859 115.125405 
L 335.380865 100.015022 
L 335.282687 95.501531 
L 336.551674 88.164251 
L 342.119729 76.435637 
L 347.673758 69.655549 
L 352.253941 63.44211 
L 354.975464 56.453962 
L 356.898763 53.533236 
L 360.431925 50.067139 
L 362.361932 48.987432 
L 364.720016 45.305394 
L 367.399463 34.402716 
L 366.71893 26.825852 
L 362.885138 23.022446 
L 358.835478 16.721527 
L 356.506054 12.329404 
L 354.641905 8.307692 
" style="fill:none;stroke:#999999;"/>
    <path clip-path="url(#p050a98dc55)" d="M 315.478318 168.943683 
L 319.448095 166.994694 
L 322.984916 164.880202 
L 327.568758 161.84914 
" style="fill:none;stroke:#999999;"/>
    <path clip-path="url(#p050a98dc55)" d="M 312.015892 178.530222 
L 313.496478 173.332653 
" style="fill:none;stroke:#999999;"/>
    <path clip-path="url(#p050a98dc55)" d="M 312.015892 178.530222 
L 308.528464 184.322811 
" style="fill:none;stroke:#999999;"/>
    <path clip-path="url(#p050a98dc55)" d="M 312.015892 178.530222 
L 307.348507 177.792553 
L 303.003096 179.855818 
L 302.369517 180.156875 
L 301.407258 180.586394 
L 300.085828 181.153831 
" style="fill:none;stroke:#999999;"/>
    <path clip-path="url(#p050a98dc55)" d="M 312.015892 178.530222 
L 316.563146 180.620283 
L 322.390974 185.799724 
L 323.940468 186.66349 
" style="fill:none;stroke:#999999;"/>
    <path clip-path="url(#p050a98dc55)" d="M 155.409107 161.968145 
L 158.982516 162.400028 
" style="fill:none;stroke:#999999;"/>
    <path clip-path="url(#p050a98dc55)" d="M 155.409107 161.968145 
L 147.190266 161.674969 
" style="fill:none;stroke:#999999;"/>
    <path clip-path="url(#p050a98dc55)" d="M 155.409107 161.968145 
L 151.936924 159.569146 
L 148.821472 157.183545 
" style="fill:none;stroke:#999999;"/>
    <path clip-path="url(#p050a98dc55)" d="M 313.496478 173.332653 
L 315.478318 168.943683 
" style="fill:none;stroke:#999999;"/>
    <path clip-path="url(#p050a98dc55)" d="M 313.496478 173.332653 
L 312.015892 178.530222 
" style="fill:none;stroke:#999999;"/>
    <path clip-path="url(#p050a98dc55)" d="M 313.496478 173.332653 
L 298.293635 172.241913 
" style="fill:none;stroke:#999999;"/>
    <path clip-path="url(#p050a98dc55)" d="M 313.496478 173.332653 
L 332.30383 183.72779 
L 338.628032 186.935387 
L 346.006573 191.546604 
L 351.824034 194.741591 
" style="fill:none;stroke:#999999;"/>
    <path clip-path="url(#p050a98dc55)" d="M 308.528464 184.322811 
L 312.015892 178.530222 
" style="fill:none;stroke:#999999;"/>
    <path clip-path="url(#p050a98dc55)" d="M 308.528464 184.322811 
L 308.485778 186.536605 
" style="fill:none;stroke:#999999;"/>
    <path clip-path="url(#p050a98dc55)" d="M 308.528464 184.322811 
L 307.727801 184.793311 
L 305.387401 185.48527 
L 303.947061 185.504184 
" style="fill:none;stroke:#999999;"/>
    <path clip-path="url(#p050a98dc55)" d="M 283.60668 186.427058 
L 284.914694 171.450653 
" style="fill:none;stroke:#999999;"/>
    <path clip-path="url(#p050a98dc55)" d="M 283.60668 186.427058 
L 277.913008 188.617208 
L 274.046896 188.844971 
L 269.347193 188.579379 
L 262.032071 187.82122 
L 256.57439 187.328653 
L 251.950301 187.252994 
L 245.090087 187.44214 
L 237.812773 186.494835 
L 232.203252 184.221145 
L 229.341476 182.767875 
" style="fill:none;stroke:#999999;"/>
    <path clip-path="url(#p050a98dc55)" d="M 283.60668 186.427058 
L 285.038483 186.019606 
L 289.45951 184.760999 
L 293.676864 183.34871 
" style="fill:none;stroke:#999999;"/>
    <path clip-path="url(#p050a98dc55)" d="M 285.537297 166.699942 
L 284.715901 162.416578 
" style="fill:none;stroke:#999999;"/>
    <path clip-path="url(#p050a98dc55)" d="M 285.537297 166.699942 
L 294.775108 167.321758 
" style="fill:none;stroke:#999999;"/>
    <path clip-path="url(#p050a98dc55)" d="M 285.537297 166.699942 
L 286.056234 169.887048 
L 286.109896 171.012465 
L 284.914694 171.450653 
" style="fill:none;stroke:#999999;"/>
    <path clip-path="url(#p050a98dc55)" d="M 285.537297 166.699942 
L 282.681619 166.443019 
L 277.506883 160.642548 
L 270.048459 156.521534 
L 267.660495 154.656872 
L 262.858345 152.901757 
L 260.437452 151.528086 
L 254.379121 147.690003 
L 250.748391 144.419357 
L 247.444513 139.840453 
L 244.506512 136.678566 
L 237.637151 131.576359 
L 233.999714 129.86459 
L 230.957438 128.163854 
L 230.074452 128.392405 
L 228.732899 129.373599 
L 224.055148 129.766076 
L 222.09892 128.600465 
L 220.914695 127.411211 
" style="fill:none;stroke:#999999;"/>
    <path clip-path="url(#p050a98dc55)" d="M 284.914694 171.450653 
L 287.945994 171.650044 
" style="fill:none;stroke:#999999;"/>
    <path clip-path="url(#p050a98dc55)" d="M 284.914694 171.450653 
L 280.885157 171.189001 
" style="fill:none;stroke:#999999;"/>
    <path clip-path="url(#p050a98dc55)" d="M 284.914694 171.450653 
L 283.60668 186.427058 
" style="fill:none;stroke:#999999;"/>
    <path clip-path="url(#p050a98dc55)" d="M 284.914694 171.450653 
L 286.109896 171.012465 
L 286.056234 169.887048 
L 285.537297 166.699942 
" style="fill:none;stroke:#999999;"/>
    <path clip-path="url(#p050a98dc55)" d="M 351.824034 194.741591 
L 329.3951 189.417137 
L 323.940468 186.66349 
" style="fill:none;stroke:#999999;"/>
    <path clip-path="url(#p050a98dc55)" d="M 351.824034 194.741591 
L 352.927766 195.347646 
L 390.506492 215.986602 
L 396.155649 219.098838 
L 410.351718 227.164329 
L 424.496564 231.799977 
L 441.07084 237.333279 
L 462.16188 244.713117 
" style="fill:none;stroke:#999999;"/>
    <path clip-path="url(#p050a98dc55)" d="M 351.824034 194.741591 
L 346.006573 191.546604 
L 338.628032 186.935387 
L 332.30383 183.72779 
L 313.496478 173.332653 
" style="fill:none;stroke:#999999;"/>
    <path clip-path="url(#p050a98dc55)" d="M 158.982516 162.400028 
L 155.409107 161.968145 
" style="fill:none;stroke:#999999;"/>
    <path clip-path="url(#p050a98dc55)" d="M 158.982516 162.400028 
L 158.887388 163.632628 
" style="fill:none;stroke:#999999;"/>
    <path clip-path="url(#p050a98dc55)" d="M 158.982516 162.400028 
L 173.338351 163.458456 
L 178.078301 163.699617 
L 187.928349 164.355322 
" style="fill:none;stroke:#999999;"/>
    <path clip-path="url(#p050a98dc55)" d="M 232.352043 168.685972 
L 231.692852 171.875443 
" style="fill:none;stroke:#999999;"/>
    <path clip-path="url(#p050a98dc55)" d="M 232.352043 168.685972 
L 232.624012 168.717496 
L 232.992939 168.658388 
L 233.473459 168.359696 
L 233.687498 168.057851 
L 233.806408 167.637789 
" style="fill:none;stroke:#999999;"/>
    <path clip-path="url(#p050a98dc55)" d="M 148.821472 157.183545 
L 146.204225 155.113975 
" style="fill:none;stroke:#999999;"/>
    <path clip-path="url(#p050a98dc55)" d="M 148.821472 157.183545 
L 151.936924 159.569146 
L 155.409107 161.968145 
" style="fill:none;stroke:#999999;"/>
    <path clip-path="url(#p050a98dc55)" d="M 148.821472 157.183545 
L 149.165398 156.772153 
L 148.950749 155.727122 
L 148.910503 154.963446 
L 149.406267 153.784437 
L 149.567254 153.274532 
L 149.258697 143.654893 
L 149.298943 142.354516 
L 149.553838 140.920948 
" style="fill:none;stroke:#999999;"/>
    <path clip-path="url(#p050a98dc55)" d="M 146.204225 155.113975 
L 148.821472 157.183545 
" style="fill:none;stroke:#999999;"/>
    <path clip-path="url(#p050a98dc55)" d="M 146.204225 155.113975 
L 142.052728 149.439601 
L 139.731842 147.583608 
" style="fill:none;stroke:#999999;"/>
    <path clip-path="url(#p050a98dc55)" d="M 146.204225 155.113975 
L 143.590636 156.464003 
L 142.532029 157.254474 
L 141.660629 158.862213 
L 141.077053 159.280698 
" style="fill:none;stroke:#999999;"/>
    <path clip-path="url(#p050a98dc55)" d="M 139.511095 147.384217 
L 139.731842 147.583608 
" style="fill:none;stroke:#999999;"/>
    <path clip-path="url(#p050a98dc55)" d="M 139.511095 147.384217 
L 137.560965 145.741801 
L 135.917563 143.185969 
L 133.422275 141.116399 
" style="fill:none;stroke:#999999;"/>
    <path clip-path="url(#p050a98dc55)" d="M 139.511095 147.384217 
L 140.628853 145.289428 
L 141.486837 142.891217 
L 141.767953 141.296088 
L 141.741122 140.991878 
" style="fill:none;stroke:#999999;"/>
    <path clip-path="url(#p050a98dc55)" d="M 133.422275 141.116399 
L 135.322401 140.599401 
" style="fill:none;stroke:#999999;"/>
    <path clip-path="url(#p050a98dc55)" d="M 133.422275 141.116399 
L 131.170295 140.447296 
L 130.76539 140.209287 
" style="fill:none;stroke:#999999;"/>
    <path clip-path="url(#p050a98dc55)" d="M 133.422275 141.116399 
L 135.917563 143.185969 
L 137.560965 145.741801 
L 139.511095 147.384217 
" style="fill:none;stroke:#999999;"/>
    <path clip-path="url(#p050a98dc55)" d="M 125.99678 137.404413 
L 130.76539 140.209287 
" style="fill:none;stroke:#999999;"/>
    <path clip-path="url(#p050a98dc55)" d="M 233.806408 167.637789 
L 233.811286 167.510904 
L 233.731403 167.101088 
L 233.454555 166.680239 
L 233.11185 166.446171 
L 232.851466 166.390215 
L 232.624012 166.341353 
L 232.155688 166.436714 
L 231.792249 166.679451 
L 231.576381 166.966322 
L 231.436738 167.455737 
" style="fill:none;stroke:#999999;"/>
    <path clip-path="url(#p050a98dc55)" d="M 233.806408 167.637789 
L 237.587758 167.926237 
L 248.255542 168.738775 
L 260.581364 169.758586 
L 266.83483 170.276373 
L 280.885157 171.189001 
" style="fill:none;stroke:#999999;"/>
    <path clip-path="url(#p050a98dc55)" d="M 231.436738 167.455737 
L 227.782226 167.201966 
L 187.928349 164.355322 
" style="fill:none;stroke:#999999;"/>
    <path clip-path="url(#p050a98dc55)" d="M 231.436738 167.455737 
L 231.434908 167.510904 
L 231.49162 167.893924 
L 231.773955 168.360484 
L 232.352043 168.685972 
" style="fill:none;stroke:#999999;"/>
    <path clip-path="url(#p050a98dc55)" d="M 306.978971 190.355773 
L 303.508007 189.589733 
" style="fill:none;stroke:#999999;"/>
    <path clip-path="url(#p050a98dc55)" d="M 306.978971 190.355773 
L 306.581383 197.064143 
L 306.135622 196.987697 
L 305.444112 196.466758 
L 304.07024 194.174154 
L 303.340313 191.454395 
L 303.508007 189.589733 
" style="fill:none;stroke:#999999;"/>
    <path clip-path="url(#p050a98dc55)" d="M 306.978971 190.355773 
L 307.291796 187.058332 
L 308.485778 186.536605 
" style="fill:none;stroke:#999999;"/>
    <path clip-path="url(#p050a98dc55)" d="M 323.940468 186.66349 
L 322.390974 185.799724 
L 316.563146 180.620283 
L 312.015892 178.530222 
" style="fill:none;stroke:#999999;"/>
    <path clip-path="url(#p050a98dc55)" d="M 323.940468 186.66349 
L 329.3951 189.417137 
L 351.824034 194.741591 
" style="fill:none;stroke:#999999;"/>
    <path clip-path="url(#p050a98dc55)" d="M 323.940468 186.66349 
L 322.898325 186.783282 
L 321.495792 186.631966 
L 308.485778 186.536605 
" style="fill:none;stroke:#999999;"/>
    <path clip-path="url(#p050a98dc55)" d="M 308.485778 186.536605 
L 308.528464 184.322811 
" style="fill:none;stroke:#999999;"/>
    <path clip-path="url(#p050a98dc55)" d="M 308.485778 186.536605 
L 307.291796 187.058332 
L 306.978971 190.355773 
" style="fill:none;stroke:#999999;"/>
    <path clip-path="url(#p050a98dc55)" d="M 308.485778 186.536605 
L 321.495792 186.631966 
L 322.898325 186.783282 
L 323.940468 186.66349 
" style="fill:none;stroke:#999999;"/>
    <path clip-path="url(#p050a98dc55)" d="M 303.947061 185.504184 
L 304.003772 184.954873 
L 302.876258 183.277781 
L 300.085828 181.153831 
" style="fill:none;stroke:#999999;"/>
    <path clip-path="url(#p050a98dc55)" d="M 303.947061 185.504184 
L 303.786075 186.584679 
L 303.577524 188.82054 
L 303.508007 189.589733 
" style="fill:none;stroke:#999999;"/>
    <path clip-path="url(#p050a98dc55)" d="M 303.947061 185.504184 
L 305.387401 185.48527 
L 307.727801 184.793311 
L 308.528464 184.322811 
" style="fill:none;stroke:#999999;"/>
    <path clip-path="url(#p050a98dc55)" d="M 293.676864 183.34871 
L 293.742112 182.329688 
L 293.845778 181.647975 
L 293.912246 181.01276 
L 293.751259 180.312133 
L 293.325011 178.862015 
L 292.983525 178.170845 
" style="fill:none;stroke:#999999;"/>
    <path clip-path="url(#p050a98dc55)" d="M 293.676864 183.34871 
L 289.45951 184.760999 
L 285.038483 186.019606 
L 283.60668 186.427058 
" style="fill:none;stroke:#999999;"/>
    <path clip-path="url(#p050a98dc55)" d="M 293.676864 183.34871 
L 295.298923 182.860084 
L 298.404009 181.87495 
L 299.111373 181.571528 
" style="fill:none;stroke:#999999;"/>
    <path clip-path="url(#p050a98dc55)" d="M 229.341476 182.767875 
L 232.203252 184.221145 
L 237.812773 186.494835 
L 245.090087 187.44214 
L 251.950301 187.252994 
L 256.57439 187.328653 
L 262.032071 187.82122 
L 269.347193 188.579379 
L 274.046896 188.844971 
L 277.913008 188.617208 
L 283.60668 186.427058 
" style="fill:none;stroke:#999999;"/>
    <path clip-path="url(#p050a98dc55)" d="M 229.341476 182.767875 
L 225.418654 180.241203 
L 221.476927 178.384422 
L 193.467133 169.553678 
L 189.070498 167.696897 
L 188.502167 166.938738 
" style="fill:none;stroke:#999999;"/>
    <path clip-path="url(#p050a98dc55)" d="M 229.341476 182.767875 
L 229.525635 181.930905 
L 231.692852 171.875443 
" style="fill:none;stroke:#999999;"/>
    <path clip-path="url(#p050a98dc55)" d="M 299.111373 181.571528 
L 298.801596 179.155979 
" style="fill:none;stroke:#999999;"/>
    <path clip-path="url(#p050a98dc55)" d="M 299.111373 181.571528 
L 300.085828 181.153831 
" style="fill:none;stroke:#999999;"/>
    <path clip-path="url(#p050a98dc55)" d="M 299.111373 181.571528 
L 298.404009 181.87495 
L 295.298923 182.860084 
L 293.676864 183.34871 
" style="fill:none;stroke:#999999;"/>
    <path clip-path="url(#p050a98dc55)" d="M 300.085828 181.153831 
L 299.111373 181.571528 
" style="fill:none;stroke:#999999;"/>
    <path clip-path="url(#p050a98dc55)" d="M 300.085828 181.153831 
L 302.876258 183.277781 
L 304.003772 184.954873 
L 303.947061 185.504184 
" style="fill:none;stroke:#999999;"/>
    <path clip-path="url(#p050a98dc55)" d="M 300.085828 181.153831 
L 301.407258 180.586394 
L 302.369517 180.156875 
L 303.003096 179.855818 
L 307.348507 177.792553 
L 312.015892 178.530222 
" style="fill:none;stroke:#999999;"/>
    <path clip-path="url(#p050a98dc55)" d="M 298.801596 179.155979 
L 298.293635 172.241913 
" style="fill:none;stroke:#999999;"/>
    <path clip-path="url(#p050a98dc55)" d="M 298.801596 179.155979 
L 299.111373 181.571528 
" style="fill:none;stroke:#999999;"/>
    <path clip-path="url(#p050a98dc55)" d="M 298.801596 179.155979 
L 295.134888 177.867423 
L 294.291539 177.753936 
L 292.983525 178.170845 
" style="fill:none;stroke:#999999;"/>
    <path clip-path="url(#p050a98dc55)" d="M 292.983525 178.170845 
L 293.325011 178.862015 
L 293.751259 180.312133 
L 293.912246 181.01276 
L 293.845778 181.647975 
L 293.742112 182.329688 
L 293.676864 183.34871 
" style="fill:none;stroke:#999999;"/>
    <path clip-path="url(#p050a98dc55)" d="M 292.983525 178.170845 
L 292.244451 178.218131 
L 291.751736 178.15193 
L 291.363295 177.393771 
L 291.001686 176.563106 
L 290.036377 174.231884 
L 287.945994 171.650044 
" style="fill:none;stroke:#999999;"/>
    <path clip-path="url(#p050a98dc55)" d="M 292.983525 178.170845 
L 294.291539 177.753936 
L 295.134888 177.867423 
L 298.801596 179.155979 
" style="fill:none;stroke:#999999;"/>
    <path clip-path="url(#p050a98dc55)" d="M 333.706363 178.116465 
L 315.478318 168.943683 
" style="fill:none;stroke:#999999;"/>
    <path clip-path="url(#p050a98dc55)" d="M 279.878993 177.447362 
L 280.885157 171.189001 
" style="fill:none;stroke:#999999;"/>
    <path clip-path="url(#p050a98dc55)" d="M 161.567444 175.691459 
L 159.342906 170.466307 
L 158.619077 167.303632 
" style="fill:none;stroke:#999999;"/>
    <path clip-path="url(#p050a98dc55)" d="M 298.293635 172.241913 
L 298.801596 179.155979 
" style="fill:none;stroke:#999999;"/>
    <path clip-path="url(#p050a98dc55)" d="M 298.293635 172.241913 
L 313.496478 173.332653 
" style="fill:none;stroke:#999999;"/>
    <path clip-path="url(#p050a98dc55)" d="M 298.293635 172.241913 
L 295.425761 172.022819 
L 294.73913 171.948737 
" style="fill:none;stroke:#999999;"/>
    <path clip-path="url(#p050a98dc55)" d="M 234.9699 172.320724 
L 231.692852 171.875443 
" style="fill:none;stroke:#999999;"/>
    <path clip-path="url(#p050a98dc55)" d="M 294.73913 171.948737 
L 287.945994 171.650044 
" style="fill:none;stroke:#999999;"/>
    <path clip-path="url(#p050a98dc55)" d="M 294.73913 171.948737 
L 294.717787 169.18642 
L 294.775108 167.321758 
" style="fill:none;stroke:#999999;"/>
    <path clip-path="url(#p050a98dc55)" d="M 294.73913 171.948737 
L 295.425761 172.022819 
L 298.293635 172.241913 
" style="fill:none;stroke:#999999;"/>
    <path clip-path="url(#p050a98dc55)" d="M 231.692852 171.875443 
L 234.9699 172.320724 
" style="fill:none;stroke:#999999;"/>
    <path clip-path="url(#p050a98dc55)" d="M 231.692852 171.875443 
L 232.352043 168.685972 
" style="fill:none;stroke:#999999;"/>
    <path clip-path="url(#p050a98dc55)" d="M 231.692852 171.875443 
L 229.525635 181.930905 
L 229.341476 182.767875 
" style="fill:none;stroke:#999999;"/>
    <path clip-path="url(#p050a98dc55)" d="M 287.945994 171.650044 
L 294.73913 171.948737 
" style="fill:none;stroke:#999999;"/>
    <path clip-path="url(#p050a98dc55)" d="M 287.945994 171.650044 
L 284.914694 171.450653 
" style="fill:none;stroke:#999999;"/>
    <path clip-path="url(#p050a98dc55)" d="M 287.945994 171.650044 
L 290.036377 174.231884 
L 291.001686 176.563106 
L 291.363295 177.393771 
L 291.751736 178.15193 
L 292.244451 178.218131 
L 292.983525 178.170845 
" style="fill:none;stroke:#999999;"/>
    <path clip-path="url(#p050a98dc55)" d="M 280.885157 171.189001 
L 279.878993 177.447362 
" style="fill:none;stroke:#999999;"/>
    <path clip-path="url(#p050a98dc55)" d="M 280.885157 171.189001 
L 284.914694 171.450653 
" style="fill:none;stroke:#999999;"/>
    <path clip-path="url(#p050a98dc55)" d="M 280.885157 171.189001 
L 266.83483 170.276373 
L 260.581364 169.758586 
L 248.255542 168.738775 
L 237.587758 167.926237 
L 233.806408 167.637789 
" style="fill:none;stroke:#999999;"/>
    <path clip-path="url(#p050a98dc55)" d="M 294.775108 167.321758 
L 315.478318 168.943683 
" style="fill:none;stroke:#999999;"/>
    <path clip-path="url(#p050a98dc55)" d="M 294.775108 167.321758 
L 285.537297 166.699942 
" style="fill:none;stroke:#999999;"/>
    <path clip-path="url(#p050a98dc55)" d="M 294.775108 167.321758 
L 294.717787 169.18642 
L 294.73913 171.948737 
" style="fill:none;stroke:#999999;"/>
    <path clip-path="url(#p050a98dc55)" d="M 158.619077 167.303632 
L 158.712376 166.370513 
" style="fill:none;stroke:#999999;"/>
    <path clip-path="url(#p050a98dc55)" d="M 158.619077 167.303632 
L 157.573885 167.678771 
L 141.681972 169.310153 
L 141.759416 162.606512 
" style="fill:none;stroke:#999999;"/>
    <path clip-path="url(#p050a98dc55)" d="M 158.619077 167.303632 
L 159.342906 170.466307 
L 161.567444 175.691459 
" style="fill:none;stroke:#999999;"/>
    <path clip-path="url(#p050a98dc55)" d="M 188.502167 166.938738 
L 187.928349 164.355322 
" style="fill:none;stroke:#999999;"/>
    <path clip-path="url(#p050a98dc55)" d="M 188.502167 166.938738 
L 189.070498 167.696897 
L 193.467133 169.553678 
L 221.476927 178.384422 
L 225.418654 180.241203 
L 229.341476 182.767875 
" style="fill:none;stroke:#999999;"/>
    <path clip-path="url(#p050a98dc55)" d="M 188.502167 166.938738 
L 186.438615 167.062471 
L 185.380618 167.079809 
L 183.195716 167.116062 
L 179.899155 167.464406 
L 177.995979 168.268275 
L 174.083523 168.563027 
L 170.143626 167.86634 
L 166.284222 166.472967 
L 158.887388 163.632628 
" style="fill:none;stroke:#999999;"/>
    <path clip-path="url(#p050a98dc55)" d="M 158.712376 166.370513 
L 158.619077 167.303632 
" style="fill:none;stroke:#999999;"/>
    <path clip-path="url(#p050a98dc55)" d="M 158.712376 166.370513 
L 158.887388 163.632628 
" style="fill:none;stroke:#999999;"/>
    <path clip-path="url(#p050a98dc55)" d="M 158.712376 166.370513 
L 149.446514 162.480415 
L 147.190266 161.674969 
" style="fill:none;stroke:#999999;"/>
    <path clip-path="url(#p050a98dc55)" d="M 133.55704 164.638253 
L 133.931455 163.532538 
" style="fill:none;stroke:#999999;"/>
    <path clip-path="url(#p050a98dc55)" d="M 133.55704 164.638253 
L 134.849809 164.318281 
L 141.759416 162.606512 
" style="fill:none;stroke:#999999;"/>
    <path clip-path="url(#p050a98dc55)" d="M 187.928349 164.355322 
L 188.502167 166.938738 
" style="fill:none;stroke:#999999;"/>
    <path clip-path="url(#p050a98dc55)" d="M 187.928349 164.355322 
L 187.258792 163.675973 
" style="fill:none;stroke:#999999;"/>
    <path clip-path="url(#p050a98dc55)" d="M 187.928349 164.355322 
L 227.782226 167.201966 
L 231.436738 167.455737 
" style="fill:none;stroke:#999999;"/>
    <path clip-path="url(#p050a98dc55)" d="M 187.928349 164.355322 
L 178.078301 163.699617 
L 173.338351 163.458456 
L 158.982516 162.400028 
" style="fill:none;stroke:#999999;"/>
    <path clip-path="url(#p050a98dc55)" d="M 187.258792 163.675973 
L 187.928349 164.355322 
" style="fill:none;stroke:#999999;"/>
    <path clip-path="url(#p050a98dc55)" d="M 187.258792 163.675973 
L 185.205606 161.622166 
L 182.445056 159.31774 
L 180.515659 158.272709 
L 172.931007 153.663857 
L 167.784932 148.545099 
" style="fill:none;stroke:#999999;"/>
    <path clip-path="url(#p050a98dc55)" d="M 187.258792 163.675973 
L 187.892371 163.12351 
L 189.527236 158.835418 
L 190.518765 156.142455 
L 190.813907 154.93665 
L 190.934037 153.314725 
L 191.229178 150.82273 
L 191.939592 148.692476 
" style="fill:none;stroke:#999999;"/>
    <path clip-path="url(#p050a98dc55)" d="M 158.887388 163.632628 
L 158.712376 166.370513 
" style="fill:none;stroke:#999999;"/>
    <path clip-path="url(#p050a98dc55)" d="M 158.887388 163.632628 
L 158.982516 162.400028 
" style="fill:none;stroke:#999999;"/>
    <path clip-path="url(#p050a98dc55)" d="M 158.887388 163.632628 
L 166.284222 166.472967 
L 170.143626 167.86634 
L 174.083523 168.563027 
L 177.995979 168.268275 
L 179.899155 167.464406 
L 183.195716 167.116062 
L 185.380618 167.079809 
L 186.438615 167.062471 
L 188.502167 166.938738 
" style="fill:none;stroke:#999999;"/>
    <path clip-path="url(#p050a98dc55)" d="M 133.931455 163.532538 
L 136.300515 157.040109 
" style="fill:none;stroke:#999999;"/>
    <path clip-path="url(#p050a98dc55)" d="M 133.931455 163.532538 
L 133.55704 164.638253 
" style="fill:none;stroke:#999999;"/>
    <path clip-path="url(#p050a98dc55)" d="M 133.931455 163.532538 
L 140.615437 159.532105 
L 141.077053 159.280698 
" style="fill:none;stroke:#999999;"/>
    <path clip-path="url(#p050a98dc55)" d="M 141.759416 162.606512 
L 145.960306 161.565422 
L 147.190266 161.674969 
" style="fill:none;stroke:#999999;"/>
    <path clip-path="url(#p050a98dc55)" d="M 141.759416 162.606512 
L 134.849809 164.318281 
L 133.55704 164.638253 
" style="fill:none;stroke:#999999;"/>
    <path clip-path="url(#p050a98dc55)" d="M 141.759416 162.606512 
L 141.500252 160.523544 
L 141.077053 159.280698 
" style="fill:none;stroke:#999999;"/>
    <path clip-path="url(#p050a98dc55)" d="M 141.759416 162.606512 
L 141.681972 169.310153 
L 157.573885 167.678771 
L 158.619077 167.303632 
" style="fill:none;stroke:#999999;"/>
    <path clip-path="url(#p050a98dc55)" d="M 327.568758 161.84914 
L 322.984916 164.880202 
L 319.448095 166.994694 
L 315.478318 168.943683 
" style="fill:none;stroke:#999999;"/>
    <path clip-path="url(#p050a98dc55)" d="M 147.190266 161.674969 
L 155.409107 161.968145 
" style="fill:none;stroke:#999999;"/>
    <path clip-path="url(#p050a98dc55)" d="M 147.190266 161.674969 
L 141.077053 159.280698 
" style="fill:none;stroke:#999999;"/>
    <path clip-path="url(#p050a98dc55)" d="M 147.190266 161.674969 
L 145.960306 161.565422 
L 141.759416 162.606512 
" style="fill:none;stroke:#999999;"/>
    <path clip-path="url(#p050a98dc55)" d="M 147.190266 161.674969 
L 149.446514 162.480415 
L 158.712376 166.370513 
" style="fill:none;stroke:#999999;"/>
    <path clip-path="url(#p050a98dc55)" d="M 141.077053 159.280698 
L 147.190266 161.674969 
" style="fill:none;stroke:#999999;"/>
    <path clip-path="url(#p050a98dc55)" d="M 141.077053 159.280698 
L 138.471392 151.626599 
" style="fill:none;stroke:#999999;"/>
    <path clip-path="url(#p050a98dc55)" d="M 141.077053 159.280698 
L 141.660629 158.862213 
L 142.532029 157.254474 
L 143.590636 156.464003 
L 146.204225 155.113975 
" style="fill:none;stroke:#999999;"/>
    <path clip-path="url(#p050a98dc55)" d="M 141.077053 159.280698 
L 140.615437 159.532105 
L 133.931455 163.532538 
" style="fill:none;stroke:#999999;"/>
    <path clip-path="url(#p050a98dc55)" d="M 141.077053 159.280698 
L 141.500252 160.523544 
L 141.759416 162.606512 
" style="fill:none;stroke:#999999;"/>
    <path clip-path="url(#p050a98dc55)" d="M 136.300515 157.040109 
L 136.993245 155.312578 
" style="fill:none;stroke:#999999;"/>
    <path clip-path="url(#p050a98dc55)" d="M 136.300515 157.040109 
L 131.746553 154.767207 
L 130.875763 154.358968 
L 131.54593 152.127836 
L 132.899069 152.778024 
L 136.993245 155.312578 
" style="fill:none;stroke:#999999;"/>
    <path clip-path="url(#p050a98dc55)" d="M 136.300515 157.040109 
L 133.931455 163.532538 
" style="fill:none;stroke:#999999;"/>
    <path clip-path="url(#p050a98dc55)" d="M 136.993245 155.312578 
L 138.471392 151.626599 
" style="fill:none;stroke:#999999;"/>
    <path clip-path="url(#p050a98dc55)" d="M 136.993245 155.312578 
L 136.300515 157.040109 
" style="fill:none;stroke:#999999;"/>
    <path clip-path="url(#p050a98dc55)" d="M 136.993245 155.312578 
L 132.899069 152.778024 
L 131.54593 152.127836 
L 130.875763 154.358968 
L 131.746553 154.767207 
L 136.300515 157.040109 
" style="fill:none;stroke:#999999;"/>
    <path clip-path="url(#p050a98dc55)" d="M 138.471392 151.626599 
L 136.993245 155.312578 
" style="fill:none;stroke:#999999;"/>
    <path clip-path="url(#p050a98dc55)" d="M 138.471392 151.626599 
L 137.935381 150.903117 
" style="fill:none;stroke:#999999;"/>
    <path clip-path="url(#p050a98dc55)" d="M 138.471392 151.626599 
L 141.077053 159.280698 
" style="fill:none;stroke:#999999;"/>
    <path clip-path="url(#p050a98dc55)" d="M 137.935381 150.903117 
L 138.471392 151.626599 
" style="fill:none;stroke:#999999;"/>
    <path clip-path="url(#p050a98dc55)" d="M 137.935381 150.903117 
L 137.694511 149.683915 
L 139.731842 147.583608 
" style="fill:none;stroke:#999999;"/>
    <path clip-path="url(#p050a98dc55)" d="M 137.935381 150.903117 
L 133.205187 147.647445 
L 127.737749 143.829065 
L 126.243137 142.772213 
" style="fill:none;stroke:#999999;"/>
    <path clip-path="url(#p050a98dc55)" d="M 191.939592 148.692476 
L 191.229178 150.82273 
L 190.934037 153.314725 
L 190.813907 154.93665 
L 190.518765 156.142455 
L 189.527236 158.835418 
L 187.892371 163.12351 
L 187.258792 163.675973 
" style="fill:none;stroke:#999999;"/>
    <path clip-path="url(#p050a98dc55)" d="M 191.939592 148.692476 
L 195.013577 147.504798 
L 197.560088 146.217818 
L 213.423951 135.587826 
L 215.680809 132.873584 
L 218.10841 129.221494 
L 220.914695 127.411211 
" style="fill:none;stroke:#999999;"/>
    <path clip-path="url(#p050a98dc55)" d="M 191.939592 148.692476 
L 189.768715 149.268582 
L 186.458738 150.219828 
L 183.470124 151.305052 
L 179.489981 151.737723 
L 177.399598 151.720384 
L 175.483616 151.43903 
L 174.196945 151.037095 
L 171.93216 149.89828 
L 170.967461 149.576732 
L 169.547245 149.201593 
L 167.784932 148.545099 
" style="fill:none;stroke:#999999;"/>
    <path clip-path="url(#p050a98dc55)" d="M 167.784932 148.545099 
L 169.547245 149.201593 
L 170.967461 149.576732 
L 171.93216 149.89828 
L 174.196945 151.037095 
L 175.483616 151.43903 
L 177.399598 151.720384 
L 179.489981 151.737723 
L 183.470124 151.305052 
L 186.458738 150.219828 
L 189.768715 149.268582 
L 191.939592 148.692476 
" style="fill:none;stroke:#999999;"/>
    <path clip-path="url(#p050a98dc55)" d="M 167.784932 148.545099 
L 172.931007 153.663857 
L 180.515659 158.272709 
L 182.445056 159.31774 
L 185.205606 161.622166 
L 187.258792 163.675973 
" style="fill:none;stroke:#999999;"/>
    <path clip-path="url(#p050a98dc55)" d="M 167.784932 148.545099 
L 166.17019 147.567058 
L 164.428001 146.642608 
L 162.377864 145.878932 
L 161.038141 145.651169 
L 160.220403 145.423406 
L 159.282536 145.061665 
L 158.51846 144.35158 
L 157.982449 143.909452 
" style="fill:none;stroke:#999999;"/>
    <path clip-path="url(#p050a98dc55)" d="M 139.731842 147.583608 
L 139.511095 147.384217 
" style="fill:none;stroke:#999999;"/>
    <path clip-path="url(#p050a98dc55)" d="M 139.731842 147.583608 
L 142.052728 149.439601 
L 146.204225 155.113975 
" style="fill:none;stroke:#999999;"/>
    <path clip-path="url(#p050a98dc55)" d="M 139.731842 147.583608 
L 137.694511 149.683915 
L 137.935381 150.903117 
" style="fill:none;stroke:#999999;"/>
    <path clip-path="url(#p050a98dc55)" d="M 157.982449 143.909452 
L 158.867264 142.784034 
L 158.384915 141.631033 
L 155.208484 136.526462 
L 153.74802 134.999109 
L 151.85887 137.410718 
" style="fill:none;stroke:#999999;"/>
    <path clip-path="url(#p050a98dc55)" d="M 157.982449 143.909452 
L 158.51846 144.35158 
L 159.282536 145.061665 
L 160.220403 145.423406 
L 161.038141 145.651169 
L 162.377864 145.878932 
L 164.428001 146.642608 
L 166.17019 147.567058 
L 167.784932 148.545099 
" style="fill:none;stroke:#999999;"/>
    <path clip-path="url(#p050a98dc55)" d="M 157.982449 143.909452 
L 156.682972 143.319947 
L 152.046078 141.309485 
L 150.197174 140.438627 
" style="fill:none;stroke:#999999;"/>
    <path clip-path="url(#p050a98dc55)" d="M 141.741122 140.991878 
L 141.633798 139.768735 
" style="fill:none;stroke:#999999;"/>
    <path clip-path="url(#p050a98dc55)" d="M 141.741122 140.991878 
L 138.953741 141.054927 
L 135.322401 140.599401 
" style="fill:none;stroke:#999999;"/>
    <path clip-path="url(#p050a98dc55)" d="M 141.741122 140.991878 
L 141.767953 141.296088 
L 141.486837 142.891217 
L 140.628853 145.289428 
L 139.511095 147.384217 
" style="fill:none;stroke:#999999;"/>
    <path clip-path="url(#p050a98dc55)" d="M 149.553838 140.920948 
L 150.197174 140.438627 
" style="fill:none;stroke:#999999;"/>
    <path clip-path="url(#p050a98dc55)" d="M 149.553838 140.920948 
L 141.633798 139.768735 
" style="fill:none;stroke:#999999;"/>
    <path clip-path="url(#p050a98dc55)" d="M 149.553838 140.920948 
L 149.298943 142.354516 
L 149.258697 143.654893 
L 149.567254 153.274532 
L 149.406267 153.784437 
L 148.910503 154.963446 
L 148.950749 155.727122 
L 149.165398 156.772153 
L 148.821472 157.183545 
" style="fill:none;stroke:#999999;"/>
    <path clip-path="url(#p050a98dc55)" d="M 135.322401 140.599401 
L 133.422275 141.116399 
" style="fill:none;stroke:#999999;"/>
    <path clip-path="url(#p050a98dc55)" d="M 135.322401 140.599401 
L 138.953741 141.054927 
L 141.741122 140.991878 
" style="fill:none;stroke:#999999;"/>
    <path clip-path="url(#p050a98dc55)" d="M 135.322401 140.599401 
L 137.064591 133.994273 
L 138.136613 133.08322 
L 139.302545 132.694683 
L 141.294141 132.623754 
" style="fill:none;stroke:#999999;"/>
    <path clip-path="url(#p050a98dc55)" d="M 150.197174 140.438627 
L 151.85887 137.410718 
" style="fill:none;stroke:#999999;"/>
    <path clip-path="url(#p050a98dc55)" d="M 150.197174 140.438627 
L 149.553838 140.920948 
" style="fill:none;stroke:#999999;"/>
    <path clip-path="url(#p050a98dc55)" d="M 150.197174 140.438627 
L 152.046078 141.309485 
L 156.682972 143.319947 
L 157.982449 143.909452 
" style="fill:none;stroke:#999999;"/>
    <path clip-path="url(#p050a98dc55)" d="M 141.633798 139.768735 
L 141.741122 140.991878 
" style="fill:none;stroke:#999999;"/>
    <path clip-path="url(#p050a98dc55)" d="M 141.633798 139.768735 
L 149.553838 140.920948 
" style="fill:none;stroke:#999999;"/>
    <path clip-path="url(#p050a98dc55)" d="M 141.633798 139.768735 
L 141.352682 139.326607 
L 141.139863 137.215267 
" style="fill:none;stroke:#999999;"/>
    <path clip-path="url(#p050a98dc55)" d="M 151.85887 137.410718 
L 150.197174 140.438627 
" style="fill:none;stroke:#999999;"/>
    <path clip-path="url(#p050a98dc55)" d="M 151.85887 137.410718 
L 153.74802 134.999109 
L 155.208484 136.526462 
L 158.384915 141.631033 
L 158.867264 142.784034 
L 157.982449 143.909452 
" style="fill:none;stroke:#999999;"/>
    <path clip-path="url(#p050a98dc55)" d="M 151.85887 137.410718 
L 147.945804 136.740827 
L 142.330796 135.508227 
L 142.130172 135.936957 
L 141.139863 137.215267 
" style="fill:none;stroke:#999999;"/>
    <path clip-path="url(#p050a98dc55)" d="M 141.139863 137.215267 
L 140.950826 135.334055 
L 141.004488 133.069823 
L 141.294141 132.623754 
" style="fill:none;stroke:#999999;"/>
    <path clip-path="url(#p050a98dc55)" d="M 141.139863 137.215267 
L 141.352682 139.326607 
L 141.633798 139.768735 
" style="fill:none;stroke:#999999;"/>
    <path clip-path="url(#p050a98dc55)" d="M 141.139863 137.215267 
L 142.130172 135.936957 
L 142.330796 135.508227 
L 147.945804 136.740827 
L 151.85887 137.410718 
" style="fill:none;stroke:#999999;"/>
    <path clip-path="url(#p050a98dc55)" d="M 113.171534 133.444962 
L 124.441188 141.497055 
L 126.243137 142.772213 
" style="fill:none;stroke:#999999;"/>
    <path clip-path="url(#p050a98dc55)" d="M 141.294141 132.623754 
L 143.014378 129.974925 
L 144.20714 127.871466 
L 145.922499 124.065695 
L 146.324355 122.859891 
" style="fill:none;stroke:#999999;"/>
    <path clip-path="url(#p050a98dc55)" d="M 141.294141 132.623754 
L 141.004488 133.069823 
L 140.950826 135.334055 
L 141.139863 137.215267 
" style="fill:none;stroke:#999999;"/>
    <path clip-path="url(#p050a98dc55)" d="M 141.294141 132.623754 
L 139.302545 132.694683 
L 138.136613 133.08322 
L 137.064591 133.994273 
L 135.322401 140.599401 
" style="fill:none;stroke:#999999;"/>
    <path clip-path="url(#p050a98dc55)" d="M 146.324355 122.859891 
L 145.922499 124.065695 
L 144.20714 127.871466 
L 143.014378 129.974925 
L 141.294141 132.623754 
" style="fill:none;stroke:#999999;"/>
    <path clip-path="url(#p050a98dc55)" d="M 770.942228 260.705392 
L 764.138116 259.724199 
L 758.24321 258.35368 
L 754.063053 255.798636 
L 730.241953 249.520572 
L 697.856866 238.398012 
L 675.88101 237.93697 
L 660.375708 240.815138 
L 652.322122 244.024311 
L 646.891882 243.631834 
L 613.721377 239.379206 
L 607.447788 237.020401 
L 599.138698 231.524928 
L 585.196914 221.518328 
L 578.530006 218.112916 
L 577.215284 217.854417 
L 564.463824 218.636219 
L 556.28584 220.598607 
L 546.995586 222.823434 
L 534.695986 228.84221 
L 509.043055 235.649882 
L 497.273368 239.96477 
L 493.013938 240.62284 
L 481.113754 241.633193 
L 472.085103 243.923433 
L 463.677835 244.151984 
L 462.16188 244.713117 
" style="fill:none;stroke:#999999;"/>
    <path clip-path="url(#p050a98dc55)" d="M 489.649689 289.086716 
L 490.538163 293.894171 
L 491.938256 297.13014 
L 499.713165 302.946373 
L 509.384542 308.376433 
L 520.385275 312.372137 
L 526.934492 315.973788 
L 539.886576 320.450238 
L 559.101272 341.185344 
L 649.040196 397.684763 
L 651.948927 400.59288 
L 655.15036 404.7068 
L 658.370087 407.473057 
L 687.542764 423.692308 
" style="fill:none;stroke:#999999;"/>
    <path clip-path="url(#p050a98dc55)" d="M 489.649689 289.086716 
L 488.704504 285.75775 
L 481.836363 273.285951 
L 473.756556 258.995987 
L 470.737452 253.333436 
L 467.167092 248.823885 
L 462.16188 244.713117 
" style="fill:none;stroke:#999999;"/>
    <path clip-path="url(#p050a98dc55)" d="M 489.649689 289.086716 
L 491.771172 281.974047 
L 493.773135 278.273883 
L 494.322561 276.34696 
L 494.126207 272.519122 
L 495.075051 269.280001 
L 497.240439 265.187359 
L 497.98622 263.228124 
L 497.005057 258.092028 
L 495.762292 256.06344 
L 493.374328 254.755181 
L 463.318055 244.839214 
L 462.16188 244.713117 
" style="fill:none;stroke:#999999;"/>
    <path clip-path="url(#p050a98dc55)" d="M 284.715901 162.416578 
L 285.537297 166.699942 
" style="fill:none;stroke:#999999;"/>
    <path clip-path="url(#p050a98dc55)" d="M 303.508007 189.589733 
L 306.978971 190.355773 
" style="fill:none;stroke:#999999;"/>
    <path clip-path="url(#p050a98dc55)" d="M 303.508007 189.589733 
L 303.340313 191.454395 
L 304.07024 194.174154 
L 305.444112 196.466758 
L 306.135622 196.987697 
L 306.581383 197.064143 
L 306.978971 190.355773 
" style="fill:none;stroke:#999999;"/>
    <path clip-path="url(#p050a98dc55)" d="M 303.508007 189.589733 
L 303.577524 188.82054 
L 303.786075 186.584679 
L 303.947061 185.504184 
" style="fill:none;stroke:#999999;"/>
    <path clip-path="url(#p050a98dc55)" d="M 126.243137 142.772213 
L 127.737749 143.829065 
L 133.205187 147.647445 
L 137.935381 150.903117 
" style="fill:none;stroke:#999999;"/>
    <path clip-path="url(#p050a98dc55)" d="M 126.243137 142.772213 
L 124.441188 141.497055 
L 113.171534 133.444962 
" style="fill:none;stroke:#999999;"/>
    <path clip-path="url(#p050a98dc55)" d="M 126.243137 142.772213 
L 127.01453 142.378159 
L 128.956733 141.71142 
L 130.061685 141.025767 
L 130.76539 140.209287 
" style="fill:none;stroke:#999999;"/>
    <path clip-path="url(#p050a98dc55)" d="M 130.76539 140.209287 
L 125.99678 137.404413 
" style="fill:none;stroke:#999999;"/>
    <path clip-path="url(#p050a98dc55)" d="M 130.76539 140.209287 
L 131.170295 140.447296 
L 133.422275 141.116399 
" style="fill:none;stroke:#999999;"/>
    <path clip-path="url(#p050a98dc55)" d="M 130.76539 140.209287 
L 130.061685 141.025767 
L 128.956733 141.71142 
L 127.01453 142.378159 
L 126.243137 142.772213 
" style="fill:none;stroke:#999999;"/>
    <path clip-path="url(#p050a98dc55)" d="M 220.914695 127.411211 
L 224.055148 124.696969 
L 225.167417 122.342105 
L 225.592446 119.398523 
L 224.905814 114.917345 
L 224.899107 111.124972 
" style="fill:none;stroke:#999999;"/>
    <path clip-path="url(#p050a98dc55)" d="M 220.914695 127.411211 
L 218.10841 129.221494 
L 215.680809 132.873584 
L 213.423951 135.587826 
L 197.560088 146.217818 
L 195.013577 147.504798 
L 191.939592 148.692476 
" style="fill:none;stroke:#999999;"/>
    <path clip-path="url(#p050a98dc55)" d="M 220.914695 127.411211 
L 222.09892 128.600465 
L 224.055148 129.766076 
L 228.732899 129.373599 
L 230.074452 128.392405 
L 230.957438 128.163854 
L 233.999714 129.86459 
L 237.637151 131.576359 
L 244.506512 136.678566 
L 247.444513 139.840453 
L 250.748391 144.419357 
L 254.379121 147.690003 
L 260.437452 151.528086 
L 262.858345 152.901757 
L 267.660495 154.656872 
L 270.048459 156.521534 
L 277.506883 160.642548 
L 282.681619 166.443019 
L 285.537297 166.699942 
" style="fill:none;stroke:#999999;"/>
    <path clip-path="url(#p050a98dc55)" d="M 354.641905 8.307692 
L 356.506054 12.329404 
L 358.835478 16.721527 
L 362.885138 23.022446 
L 366.71893 26.825852 
L 367.399463 34.402716 
L 364.720016 45.305394 
L 362.361932 48.987432 
L 360.431925 50.067139 
L 356.898763 53.533236 
L 354.975464 56.453962 
L 352.253941 63.44211 
L 347.673758 69.655549 
L 342.119729 76.435637 
L 336.551674 88.164251 
L 335.282687 95.501531 
L 335.380865 100.015022 
L 328.707859 115.125405 
L 323.899001 131.576359 
L 316.833286 150.252928 
L 316.309471 153.752125 
L 315.71248 160.562949 
L 315.478318 168.943683 
" style="fill:none;stroke:#999999;"/>
    <path clip-path="url(#p050a98dc55)" d="M 224.899107 111.124972 
L 224.905814 114.917345 
L 225.592446 119.398523 
L 225.167417 122.342105 
L 224.055148 124.696969 
L 220.914695 127.411211 
" style="fill:none;stroke:#999999;"/>
   </g>
  </g>
 </g>
 <defs>
  <clipPath id="p050a98dc55">
   <rect height="432" width="684.081522" x="100.01612" y="0"/>
  </clipPath>
 </defs>
</svg>
