<?xml version="1.0" encoding="utf-8" standalone="no"?>
<!DOCTYPE svg PUBLIC "-//W3C//DTD SVG 1.1//EN"
  "http://www.w3.org/Graphics/SVG/1.1/DTD/svg11.dtd">
<!-- Created with matplotlib (http://matplotlib.org/) -->
<svg height="432pt" version="1.1" viewBox="0 0 606.570937 432" width="606.570937pt" xmlns="http://www.w3.org/2000/svg" xmlns:xlink="http://www.w3.org/1999/xlink">
 <defs>
  <style type="text/css">
*{stroke-linecap:butt;stroke-linejoin:round;}
  </style>
 </defs>
 <g id="figure_1">
  <g id="patch_1">
   <path d="M 0 432 
L 606.570937 432 
L 606.570937 0 
L 0 0 
z
" style="fill:none;opacity:0;"/>
  </g>
  <g id="axes_1">
   <g id="PathCollection_1">
    <defs>
     <path d="M 0 1.936492 
C 0.513564 1.936492 1.006162 1.732451 1.369306 1.369306 
C 1.732451 1.006162 1.936492 0.513564 1.936492 0 
C 1.936492 -0.513564 1.732451 -1.006162 1.369306 -1.369306 
C 1.006162 -1.732451 0.513564 -1.936492 0 -1.936492 
C -0.513564 -1.936492 -1.006162 -1.732451 -1.369306 -1.369306 
C -1.732451 -1.006162 -1.936492 -0.513564 -1.936492 0 
C -1.936492 0.513564 -1.732451 1.006162 -1.369306 1.369306 
C -1.006162 1.732451 -0.513564 1.936492 0 1.936492 
z
" id="C0_0_ea44418c64"/>
    </defs>
    <g clip-path="url(#pb68bbc6a43)">
     <use style="fill:#66ccff;" x="397.188439" xlink:href="#C0_0_ea44418c64" y="382.205639"/>
    </g>
    <g clip-path="url(#pb68bbc6a43)">
     <use style="fill:#66ccff;" x="465.330493" xlink:href="#C0_0_ea44418c64" y="423.692308"/>
    </g>
    <g clip-path="url(#pb68bbc6a43)">
     <use style="fill:#66ccff;" x="422.508585" xlink:href="#C0_0_ea44418c64" y="383.803129"/>
    </g>
    <g clip-path="url(#pb68bbc6a43)">
     <use style="fill:#66ccff;" x="402.149877" xlink:href="#C0_0_ea44418c64" y="383.512478"/>
    </g>
    <g clip-path="url(#pb68bbc6a43)">
     <use style="fill:#66ccff;" x="445.364148" xlink:href="#C0_0_ea44418c64" y="381.917173"/>
    </g>
    <g clip-path="url(#pb68bbc6a43)">
     <use style="fill:#66ccff;" x="393.415981" xlink:href="#C0_0_ea44418c64" y="381.788237"/>
    </g>
    <g clip-path="url(#pb68bbc6a43)">
     <use style="fill:#66ccff;" x="431.814889" xlink:href="#C0_0_ea44418c64" y="378.903576"/>
    </g>
    <g clip-path="url(#pb68bbc6a43)">
     <use style="fill:#66ccff;" x="403.546077" xlink:href="#C0_0_ea44418c64" y="377.92454"/>
    </g>
    <g clip-path="url(#pb68bbc6a43)">
     <use style="fill:#66ccff;" x="451.429637" xlink:href="#C0_0_ea44418c64" y="375.7676"/>
    </g>
    <g clip-path="url(#pb68bbc6a43)">
     <use style="fill:#66ccff;" x="394.572687" xlink:href="#C0_0_ea44418c64" y="375.341457"/>
    </g>
    <g clip-path="url(#pb68bbc6a43)">
     <use style="fill:#66ccff;" x="439.358108" xlink:href="#C0_0_ea44418c64" y="374.613736"/>
    </g>
    <g clip-path="url(#pb68bbc6a43)">
     <use style="fill:#66ccff;" x="405.365214" xlink:href="#C0_0_ea44418c64" y="372.885125"/>
    </g>
    <g clip-path="url(#pb68bbc6a43)">
     <use style="fill:#66ccff;" x="472.888999" xlink:href="#C0_0_ea44418c64" y="372.045951"/>
    </g>
    <g clip-path="url(#pb68bbc6a43)">
     <use style="fill:#66ccff;" x="395.078852" xlink:href="#C0_0_ea44418c64" y="371.766226"/>
    </g>
    <g clip-path="url(#pb68bbc6a43)">
     <use style="fill:#66ccff;" x="425.5167" xlink:href="#C0_0_ea44418c64" y="369.176587"/>
    </g>
    <g clip-path="url(#pb68bbc6a43)">
     <use style="fill:#66ccff;" x="408.164409" xlink:href="#C0_0_ea44418c64" y="367.56817"/>
    </g>
    <g clip-path="url(#pb68bbc6a43)">
     <use style="fill:#66ccff;" x="430.755" xlink:href="#C0_0_ea44418c64" y="364.792777"/>
    </g>
    <g clip-path="url(#pb68bbc6a43)">
     <use style="fill:#66ccff;" x="422.019405" xlink:href="#C0_0_ea44418c64" y="364.628876"/>
    </g>
    <g clip-path="url(#pb68bbc6a43)">
     <use style="fill:#66ccff;" x="429.890443" xlink:href="#C0_0_ea44418c64" y="363.87493"/>
    </g>
    <g clip-path="url(#pb68bbc6a43)">
     <use style="fill:#66ccff;" x="469.585338" xlink:href="#C0_0_ea44418c64" y="363.818111"/>
    </g>
    <g clip-path="url(#pb68bbc6a43)">
     <use style="fill:#66ccff;" x="426.469582" xlink:href="#C0_0_ea44418c64" y="360.245065"/>
    </g>
    <g clip-path="url(#pb68bbc6a43)">
     <use style="fill:#66ccff;" x="414.231596" xlink:href="#C0_0_ea44418c64" y="358.551419"/>
    </g>
    <g clip-path="url(#pb68bbc6a43)">
     <use style="fill:#66ccff;" x="436.5742" xlink:href="#C0_0_ea44418c64" y="358.050974"/>
    </g>
    <g clip-path="url(#pb68bbc6a43)">
     <use style="fill:#66ccff;" x="435.860813" xlink:href="#C0_0_ea44418c64" y="356.250247"/>
    </g>
    <g clip-path="url(#pb68bbc6a43)">
     <use style="fill:#66ccff;" x="417.959893" xlink:href="#C0_0_ea44418c64" y="353.011559"/>
    </g>
    <g clip-path="url(#pb68bbc6a43)">
     <use style="fill:#66ccff;" x="450.777397" xlink:href="#C0_0_ea44418c64" y="350.491852"/>
    </g>
    <g clip-path="url(#pb68bbc6a43)">
     <use style="fill:#66ccff;" x="450.456373" xlink:href="#C0_0_ea44418c64" y="348.785094"/>
    </g>
    <g clip-path="url(#pb68bbc6a43)">
     <use style="fill:#66ccff;" x="423.908182" xlink:href="#C0_0_ea44418c64" y="342.09574"/>
    </g>
    <g clip-path="url(#pb68bbc6a43)">
     <use style="fill:#66ccff;" x="423.296708" xlink:href="#C0_0_ea44418c64" y="339.173928"/>
    </g>
    <g clip-path="url(#pb68bbc6a43)">
     <use style="fill:#66ccff;" x="448.117482" xlink:href="#C0_0_ea44418c64" y="336.357013"/>
    </g>
    <g clip-path="url(#pb68bbc6a43)">
     <use style="fill:#66ccff;" x="529.944678" xlink:href="#C0_0_ea44418c64" y="327.115172"/>
    </g>
    <g clip-path="url(#pb68bbc6a43)">
     <use style="fill:#66ccff;" x="502.807094" xlink:href="#C0_0_ea44418c64" y="342.705453"/>
    </g>
    <g clip-path="url(#pb68bbc6a43)">
     <use style="fill:#66ccff;" x="415.068977" xlink:href="#C0_0_ea44418c64" y="308.651156"/>
    </g>
    <g clip-path="url(#pb68bbc6a43)">
     <use style="fill:#66ccff;" x="413.823947" xlink:href="#C0_0_ea44418c64" y="305.427766"/>
    </g>
    <g clip-path="url(#pb68bbc6a43)">
     <use style="fill:#66ccff;" x="379.837847" xlink:href="#C0_0_ea44418c64" y="317.246135"/>
    </g>
    <g clip-path="url(#pb68bbc6a43)">
     <use style="fill:#66ccff;" x="367.40283" xlink:href="#C0_0_ea44418c64" y="321.90967"/>
    </g>
    <g clip-path="url(#pb68bbc6a43)">
     <use style="fill:#66ccff;" x="415.524186" xlink:href="#C0_0_ea44418c64" y="310.093487"/>
    </g>
    <g clip-path="url(#pb68bbc6a43)">
     <use style="fill:#66ccff;" x="381.915162" xlink:href="#C0_0_ea44418c64" y="322.458192"/>
    </g>
    <g clip-path="url(#pb68bbc6a43)">
     <use style="fill:#66ccff;" x="369.3001" xlink:href="#C0_0_ea44418c64" y="327.014645"/>
    </g>
    <g clip-path="url(#pb68bbc6a43)">
     <use style="fill:#66ccff;" x="371.309474" xlink:href="#C0_0_ea44418c64" y="332.423385"/>
    </g>
    <g clip-path="url(#pb68bbc6a43)">
     <use style="fill:#66ccff;" x="377.154152" xlink:href="#C0_0_ea44418c64" y="310.504332"/>
    </g>
    <g clip-path="url(#pb68bbc6a43)">
     <use style="fill:#66ccff;" x="384.075706" xlink:href="#C0_0_ea44418c64" y="327.8866"/>
    </g>
    <g clip-path="url(#pb68bbc6a43)">
     <use style="fill:#66ccff;" x="423.721343" xlink:href="#C0_0_ea44418c64" y="390.63016"/>
    </g>
    <g clip-path="url(#pb68bbc6a43)">
     <use style="fill:#66ccff;" x="436.159756" xlink:href="#C0_0_ea44418c64" y="390.129715"/>
    </g>
    <g clip-path="url(#pb68bbc6a43)">
     <use style="fill:#66ccff;" x="446.476692" xlink:href="#C0_0_ea44418c64" y="384.242384"/>
    </g>
    <g clip-path="url(#pb68bbc6a43)">
     <use style="fill:#66ccff;" x="454.330744" xlink:href="#C0_0_ea44418c64" y="400.678396"/>
    </g>
    <g clip-path="url(#pb68bbc6a43)">
     <use style="fill:#66ccff;" x="443.358171" xlink:href="#C0_0_ea44418c64" y="405.848932"/>
    </g>
    <g clip-path="url(#pb68bbc6a43)">
     <use style="fill:#66ccff;" x="373.038588" xlink:href="#C0_0_ea44418c64" y="383.009847"/>
    </g>
    <g clip-path="url(#pb68bbc6a43)">
     <use style="fill:#66ccff;" x="343.51965" xlink:href="#C0_0_ea44418c64" y="384.777795"/>
    </g>
    <g clip-path="url(#pb68bbc6a43)">
     <use style="fill:#66ccff;" x="373.288274" xlink:href="#C0_0_ea44418c64" y="375.503173"/>
    </g>
    <g clip-path="url(#pb68bbc6a43)">
     <use style="fill:#66ccff;" x="494.29231" xlink:href="#C0_0_ea44418c64" y="374.045545"/>
    </g>
    <g clip-path="url(#pb68bbc6a43)">
     <use style="fill:#66ccff;" x="449.97059" xlink:href="#C0_0_ea44418c64" y="391.554563"/>
    </g>
    <g clip-path="url(#pb68bbc6a43)">
     <use style="fill:#66ccff;" x="452.515004" xlink:href="#C0_0_ea44418c64" y="335.454464"/>
    </g>
    <g clip-path="url(#pb68bbc6a43)">
     <use style="fill:#66ccff;" x="448.3298" xlink:href="#C0_0_ea44418c64" y="337.482468"/>
    </g>
    <g clip-path="url(#pb68bbc6a43)">
     <use style="fill:#66ccff;" x="449.416866" xlink:href="#C0_0_ea44418c64" y="324.700361"/>
    </g>
    <g clip-path="url(#pb68bbc6a43)">
     <use style="fill:#66ccff;" x="246.031909" xlink:href="#C0_0_ea44418c64" y="263.075699"/>
    </g>
    <g clip-path="url(#pb68bbc6a43)">
     <use style="fill:#66ccff;" x="141.802661" xlink:href="#C0_0_ea44418c64" y="8.307692"/>
    </g>
    <g clip-path="url(#pb68bbc6a43)">
     <use style="fill:#66ccff;" x="76.626259" xlink:href="#C0_0_ea44418c64" y="19.066166"/>
    </g>
   </g>
   <g id="LineCollection_1">
    <path clip-path="url(#pb68bbc6a43)" d="M 397.188439 382.205639 
L 393.415981 381.788237 
" style="fill:none;stroke:#999999;"/>
    <path clip-path="url(#pb68bbc6a43)" d="M 397.188439 382.205639 
L 402.149877 383.512478 
" style="fill:none;stroke:#999999;"/>
    <path clip-path="url(#pb68bbc6a43)" d="M 397.188439 382.205639 
L 396.432589 389.992038 
L 397.252984 393.864477 
L 420.714926 400.335296 
L 421.944669 399.059052 
L 423.721343 390.63016 
" style="fill:none;stroke:#999999;"/>
    <path clip-path="url(#pb68bbc6a43)" d="M 465.330493 423.692308 
L 463.944484 420.790164 
L 454.330744 400.678396 
" style="fill:none;stroke:#999999;"/>
    <path clip-path="url(#pb68bbc6a43)" d="M 422.508585 383.803129 
L 421.528527 381.21349 
L 408.164409 367.56817 
" style="fill:none;stroke:#999999;"/>
    <path clip-path="url(#pb68bbc6a43)" d="M 422.508585 383.803129 
L 416.281735 381.143559 
L 403.546077 377.92454 
" style="fill:none;stroke:#999999;"/>
    <path clip-path="url(#pb68bbc6a43)" d="M 422.508585 383.803129 
L 424.397362 383.942992 
L 431.814889 378.903576 
" style="fill:none;stroke:#999999;"/>
    <path clip-path="url(#pb68bbc6a43)" d="M 402.149877 383.512478 
L 403.546077 377.92454 
" style="fill:none;stroke:#999999;"/>
    <path clip-path="url(#pb68bbc6a43)" d="M 402.149877 383.512478 
L 397.188439 382.205639 
" style="fill:none;stroke:#999999;"/>
    <path clip-path="url(#pb68bbc6a43)" d="M 402.149877 383.512478 
L 421.020663 388.521298 
L 428.035636 389.471925 
L 434.963984 388.560634 
L 441.651138 384.694752 
L 445.364148 381.917173 
" style="fill:none;stroke:#999999;"/>
    <path clip-path="url(#pb68bbc6a43)" d="M 402.149877 383.512478 
L 402.537144 384.34291 
L 423.721343 390.63016 
" style="fill:none;stroke:#999999;"/>
    <path clip-path="url(#pb68bbc6a43)" d="M 445.364148 381.917173 
L 446.476692 384.242384 
" style="fill:none;stroke:#999999;"/>
    <path clip-path="url(#pb68bbc6a43)" d="M 445.364148 381.917173 
L 436.5742 358.050974 
" style="fill:none;stroke:#999999;"/>
    <path clip-path="url(#pb68bbc6a43)" d="M 445.364148 381.917173 
L 472.888999 372.045951 
" style="fill:none;stroke:#999999;"/>
    <path clip-path="url(#pb68bbc6a43)" d="M 445.364148 381.917173 
L 439.358108 374.613736 
" style="fill:none;stroke:#999999;"/>
    <path clip-path="url(#pb68bbc6a43)" d="M 445.364148 381.917173 
L 451.429637 375.7676 
" style="fill:none;stroke:#999999;"/>
    <path clip-path="url(#pb68bbc6a43)" d="M 445.364148 381.917173 
L 441.651138 384.694752 
L 434.963984 388.560634 
L 428.035636 389.471925 
L 421.020663 388.521298 
L 402.149877 383.512478 
" style="fill:none;stroke:#999999;"/>
    <path clip-path="url(#pb68bbc6a43)" d="M 393.415981 381.788237 
L 373.038588 383.009847 
" style="fill:none;stroke:#999999;"/>
    <path clip-path="url(#pb68bbc6a43)" d="M 393.415981 381.788237 
L 397.188439 382.205639 
" style="fill:none;stroke:#999999;"/>
    <path clip-path="url(#pb68bbc6a43)" d="M 393.415981 381.788237 
L 394.572687 375.341457 
" style="fill:none;stroke:#999999;"/>
    <path clip-path="url(#pb68bbc6a43)" d="M 431.814889 378.903576 
L 425.5167 369.176587 
" style="fill:none;stroke:#999999;"/>
    <path clip-path="url(#pb68bbc6a43)" d="M 431.814889 378.903576 
L 439.358108 374.613736 
" style="fill:none;stroke:#999999;"/>
    <path clip-path="url(#pb68bbc6a43)" d="M 431.814889 378.903576 
L 424.397362 383.942992 
L 422.508585 383.803129 
" style="fill:none;stroke:#999999;"/>
    <path clip-path="url(#pb68bbc6a43)" d="M 403.546077 377.92454 
L 402.149877 383.512478 
" style="fill:none;stroke:#999999;"/>
    <path clip-path="url(#pb68bbc6a43)" d="M 403.546077 377.92454 
L 405.365214 372.885125 
" style="fill:none;stroke:#999999;"/>
    <path clip-path="url(#pb68bbc6a43)" d="M 403.546077 377.92454 
L 394.572687 375.341457 
" style="fill:none;stroke:#999999;"/>
    <path clip-path="url(#pb68bbc6a43)" d="M 403.546077 377.92454 
L 416.281735 381.143559 
L 422.508585 383.803129 
" style="fill:none;stroke:#999999;"/>
    <path clip-path="url(#pb68bbc6a43)" d="M 451.429637 375.7676 
L 450.777397 350.491852 
" style="fill:none;stroke:#999999;"/>
    <path clip-path="url(#pb68bbc6a43)" d="M 451.429637 375.7676 
L 445.364148 381.917173 
" style="fill:none;stroke:#999999;"/>
    <path clip-path="url(#pb68bbc6a43)" d="M 451.429637 375.7676 
L 460.292622 369.596174 
L 469.585338 363.818111 
" style="fill:none;stroke:#999999;"/>
    <path clip-path="url(#pb68bbc6a43)" d="M 394.572687 375.341457 
L 403.546077 377.92454 
" style="fill:none;stroke:#999999;"/>
    <path clip-path="url(#pb68bbc6a43)" d="M 394.572687 375.341457 
L 395.078852 371.766226 
" style="fill:none;stroke:#999999;"/>
    <path clip-path="url(#pb68bbc6a43)" d="M 394.572687 375.341457 
L 393.415981 381.788237 
" style="fill:none;stroke:#999999;"/>
    <path clip-path="url(#pb68bbc6a43)" d="M 439.358108 374.613736 
L 431.814889 378.903576 
" style="fill:none;stroke:#999999;"/>
    <path clip-path="url(#pb68bbc6a43)" d="M 439.358108 374.613736 
L 445.364148 381.917173 
" style="fill:none;stroke:#999999;"/>
    <path clip-path="url(#pb68bbc6a43)" d="M 439.358108 374.613736 
L 431.325709 365.398118 
L 430.755 364.792777 
" style="fill:none;stroke:#999999;"/>
    <path clip-path="url(#pb68bbc6a43)" d="M 405.365214 372.885125 
L 403.546077 377.92454 
" style="fill:none;stroke:#999999;"/>
    <path clip-path="url(#pb68bbc6a43)" d="M 472.888999 372.045951 
L 445.364148 381.917173 
" style="fill:none;stroke:#999999;"/>
    <path clip-path="url(#pb68bbc6a43)" d="M 472.888999 372.045951 
L 469.585338 363.818111 
" style="fill:none;stroke:#999999;"/>
    <path clip-path="url(#pb68bbc6a43)" d="M 472.888999 372.045951 
L 505.565524 357.981043 
L 509.692978 355.810992 
L 510.374093 355.164128 
L 519.349182 346.643452 
L 522.404856 343.409135 
L 525.297471 340.345275 
L 529.944678 327.115172 
" style="fill:none;stroke:#999999;"/>
    <path clip-path="url(#pb68bbc6a43)" d="M 395.078852 371.766226 
L 394.572687 375.341457 
" style="fill:none;stroke:#999999;"/>
    <path clip-path="url(#pb68bbc6a43)" d="M 395.078852 371.766226 
L 401.166422 370.787189 
L 406.764812 368.757 
L 408.164409 367.56817 
" style="fill:none;stroke:#999999;"/>
    <path clip-path="url(#pb68bbc6a43)" d="M 395.078852 371.766226 
L 382.947875 372.950685 
L 373.288274 375.503173 
" style="fill:none;stroke:#999999;"/>
    <path clip-path="url(#pb68bbc6a43)" d="M 425.5167 369.176587 
L 430.755 364.792777 
" style="fill:none;stroke:#999999;"/>
    <path clip-path="url(#pb68bbc6a43)" d="M 425.5167 369.176587 
L 431.814889 378.903576 
" style="fill:none;stroke:#999999;"/>
    <path clip-path="url(#pb68bbc6a43)" d="M 425.5167 369.176587 
L 422.019405 364.628876 
" style="fill:none;stroke:#999999;"/>
    <path clip-path="url(#pb68bbc6a43)" d="M 408.164409 367.56817 
L 414.231596 358.551419 
" style="fill:none;stroke:#999999;"/>
    <path clip-path="url(#pb68bbc6a43)" d="M 408.164409 367.56817 
L 421.528527 381.21349 
L 422.508585 383.803129 
" style="fill:none;stroke:#999999;"/>
    <path clip-path="url(#pb68bbc6a43)" d="M 408.164409 367.56817 
L 406.764812 368.757 
L 401.166422 370.787189 
L 395.078852 371.766226 
" style="fill:none;stroke:#999999;"/>
    <path clip-path="url(#pb68bbc6a43)" d="M 430.755 364.792777 
L 425.5167 369.176587 
" style="fill:none;stroke:#999999;"/>
    <path clip-path="url(#pb68bbc6a43)" d="M 430.755 364.792777 
L 429.890443 363.87493 
" style="fill:none;stroke:#999999;"/>
    <path clip-path="url(#pb68bbc6a43)" d="M 430.755 364.792777 
L 431.325709 365.398118 
L 439.358108 374.613736 
" style="fill:none;stroke:#999999;"/>
    <path clip-path="url(#pb68bbc6a43)" d="M 422.019405 364.628876 
L 426.469582 360.245065 
" style="fill:none;stroke:#999999;"/>
    <path clip-path="url(#pb68bbc6a43)" d="M 422.019405 364.628876 
L 425.5167 369.176587 
" style="fill:none;stroke:#999999;"/>
    <path clip-path="url(#pb68bbc6a43)" d="M 422.019405 364.628876 
L 414.231596 358.551419 
" style="fill:none;stroke:#999999;"/>
    <path clip-path="url(#pb68bbc6a43)" d="M 429.890443 363.87493 
L 436.5742 358.050974 
" style="fill:none;stroke:#999999;"/>
    <path clip-path="url(#pb68bbc6a43)" d="M 429.890443 363.87493 
L 430.755 364.792777 
" style="fill:none;stroke:#999999;"/>
    <path clip-path="url(#pb68bbc6a43)" d="M 429.890443 363.87493 
L 426.469582 360.245065 
" style="fill:none;stroke:#999999;"/>
    <path clip-path="url(#pb68bbc6a43)" d="M 469.585338 363.818111 
L 502.807094 342.705453 
" style="fill:none;stroke:#999999;"/>
    <path clip-path="url(#pb68bbc6a43)" d="M 469.585338 363.818111 
L 472.888999 372.045951 
" style="fill:none;stroke:#999999;"/>
    <path clip-path="url(#pb68bbc6a43)" d="M 469.585338 363.818111 
L 460.292622 369.596174 
L 451.429637 375.7676 
" style="fill:none;stroke:#999999;"/>
    <path clip-path="url(#pb68bbc6a43)" d="M 469.585338 363.818111 
L 464.561054 351.123418 
L 456.024189 349.862471 
L 450.777397 350.491852 
" style="fill:none;stroke:#999999;"/>
    <path clip-path="url(#pb68bbc6a43)" d="M 426.469582 360.245065 
L 422.019405 364.628876 
" style="fill:none;stroke:#999999;"/>
    <path clip-path="url(#pb68bbc6a43)" d="M 426.469582 360.245065 
L 429.890443 363.87493 
" style="fill:none;stroke:#999999;"/>
    <path clip-path="url(#pb68bbc6a43)" d="M 426.469582 360.245065 
L 423.278024 356.859959 
L 417.959893 353.011559 
" style="fill:none;stroke:#999999;"/>
    <path clip-path="url(#pb68bbc6a43)" d="M 414.231596 358.551419 
L 422.019405 364.628876 
" style="fill:none;stroke:#999999;"/>
    <path clip-path="url(#pb68bbc6a43)" d="M 414.231596 358.551419 
L 417.959893 353.011559 
" style="fill:none;stroke:#999999;"/>
    <path clip-path="url(#pb68bbc6a43)" d="M 414.231596 358.551419 
L 408.164409 367.56817 
" style="fill:none;stroke:#999999;"/>
    <path clip-path="url(#pb68bbc6a43)" d="M 436.5742 358.050974 
L 445.364148 381.917173 
" style="fill:none;stroke:#999999;"/>
    <path clip-path="url(#pb68bbc6a43)" d="M 436.5742 358.050974 
L 435.860813 356.250247 
" style="fill:none;stroke:#999999;"/>
    <path clip-path="url(#pb68bbc6a43)" d="M 436.5742 358.050974 
L 429.890443 363.87493 
" style="fill:none;stroke:#999999;"/>
    <path clip-path="url(#pb68bbc6a43)" d="M 435.860813 356.250247 
L 436.5742 358.050974 
" style="fill:none;stroke:#999999;"/>
    <path clip-path="url(#pb68bbc6a43)" d="M 435.860813 356.250247 
L 435.242544 354.692093 
L 429.504874 350.351989 
L 423.908182 342.09574 
" style="fill:none;stroke:#999999;"/>
    <path clip-path="url(#pb68bbc6a43)" d="M 435.860813 356.250247 
L 439.510977 353.291284 
L 443.920388 350.701645 
L 450.456373 348.785094 
" style="fill:none;stroke:#999999;"/>
    <path clip-path="url(#pb68bbc6a43)" d="M 417.959893 353.011559 
L 384.075706 327.8866 
" style="fill:none;stroke:#999999;"/>
    <path clip-path="url(#pb68bbc6a43)" d="M 417.959893 353.011559 
L 423.908182 342.09574 
" style="fill:none;stroke:#999999;"/>
    <path clip-path="url(#pb68bbc6a43)" d="M 417.959893 353.011559 
L 414.231596 358.551419 
" style="fill:none;stroke:#999999;"/>
    <path clip-path="url(#pb68bbc6a43)" d="M 417.959893 353.011559 
L 423.278024 356.859959 
L 426.469582 360.245065 
" style="fill:none;stroke:#999999;"/>
    <path clip-path="url(#pb68bbc6a43)" d="M 450.777397 350.491852 
L 451.429637 375.7676 
" style="fill:none;stroke:#999999;"/>
    <path clip-path="url(#pb68bbc6a43)" d="M 450.777397 350.491852 
L 450.456373 348.785094 
" style="fill:none;stroke:#999999;"/>
    <path clip-path="url(#pb68bbc6a43)" d="M 450.777397 350.491852 
L 456.024189 349.862471 
L 464.561054 351.123418 
L 469.585338 363.818111 
" style="fill:none;stroke:#999999;"/>
    <path clip-path="url(#pb68bbc6a43)" d="M 450.456373 348.785094 
L 450.777397 350.491852 
" style="fill:none;stroke:#999999;"/>
    <path clip-path="url(#pb68bbc6a43)" d="M 450.456373 348.785094 
L 448.3298 337.482468 
" style="fill:none;stroke:#999999;"/>
    <path clip-path="url(#pb68bbc6a43)" d="M 450.456373 348.785094 
L 443.920388 350.701645 
L 439.510977 353.291284 
L 435.860813 356.250247 
" style="fill:none;stroke:#999999;"/>
    <path clip-path="url(#pb68bbc6a43)" d="M 423.908182 342.09574 
L 423.296708 339.173928 
" style="fill:none;stroke:#999999;"/>
    <path clip-path="url(#pb68bbc6a43)" d="M 423.908182 342.09574 
L 417.959893 353.011559 
" style="fill:none;stroke:#999999;"/>
    <path clip-path="url(#pb68bbc6a43)" d="M 423.908182 342.09574 
L 429.504874 350.351989 
L 435.242544 354.692093 
L 435.860813 356.250247 
" style="fill:none;stroke:#999999;"/>
    <path clip-path="url(#pb68bbc6a43)" d="M 423.296708 339.173928 
L 423.908182 342.09574 
" style="fill:none;stroke:#999999;"/>
    <path clip-path="url(#pb68bbc6a43)" d="M 423.296708 339.173928 
L 420.689448 326.699955 
L 417.750973 316.203723 
L 415.524186 310.093487 
" style="fill:none;stroke:#999999;"/>
    <path clip-path="url(#pb68bbc6a43)" d="M 423.296708 339.173928 
L 429.085334 337.33605 
L 439.021797 336.916463 
L 448.117482 336.357013 
" style="fill:none;stroke:#999999;"/>
    <path clip-path="url(#pb68bbc6a43)" d="M 448.117482 336.357013 
L 448.3298 337.482468 
" style="fill:none;stroke:#999999;"/>
    <path clip-path="url(#pb68bbc6a43)" d="M 448.117482 336.357013 
L 449.416866 324.700361 
" style="fill:none;stroke:#999999;"/>
    <path clip-path="url(#pb68bbc6a43)" d="M 448.117482 336.357013 
L 439.021797 336.916463 
L 429.085334 337.33605 
L 423.296708 339.173928 
" style="fill:none;stroke:#999999;"/>
    <path clip-path="url(#pb68bbc6a43)" d="M 529.944678 327.115172 
L 525.297471 340.345275 
L 522.404856 343.409135 
L 519.349182 346.643452 
L 510.374093 355.164128 
L 509.692978 355.810992 
L 505.565524 357.981043 
L 472.888999 372.045951 
" style="fill:none;stroke:#999999;"/>
    <path clip-path="url(#pb68bbc6a43)" d="M 529.944678 327.115172 
L 522.15687 330.406307 
L 502.807094 342.705453 
" style="fill:none;stroke:#999999;"/>
    <path clip-path="url(#pb68bbc6a43)" d="M 502.807094 342.705453 
L 469.585338 363.818111 
" style="fill:none;stroke:#999999;"/>
    <path clip-path="url(#pb68bbc6a43)" d="M 502.807094 342.705453 
L 522.15687 330.406307 
L 529.944678 327.115172 
" style="fill:none;stroke:#999999;"/>
    <path clip-path="url(#pb68bbc6a43)" d="M 502.807094 342.705453 
L 501.157811 340.382426 
L 496.159006 340.192301 
L 490.66083 337.537102 
L 482.098487 331.035688 
L 478.05596 329.116951 
L 474.752298 328.620877 
L 470.101694 328.804446 
L 465.330493 328.32804 
L 459.82892 327.818854 
L 454.926932 327.010275 
L 449.416866 324.700361 
" style="fill:none;stroke:#999999;"/>
    <path clip-path="url(#pb68bbc6a43)" d="M 415.068977 308.651156 
L 415.524186 310.093487 
" style="fill:none;stroke:#999999;"/>
    <path clip-path="url(#pb68bbc6a43)" d="M 415.068977 308.651156 
L 413.823947 305.427766 
" style="fill:none;stroke:#999999;"/>
    <path clip-path="url(#pb68bbc6a43)" d="M 415.068977 308.651156 
L 417.387485 308.222828 
L 421.392644 308.902472 
L 426.241977 309.282722 
L 429.445425 309.118821 
L 432.047589 308.957105 
L 434.148684 309.625822 
L 436.767834 312.326914 
L 441.943287 316.927074 
L 449.416866 324.700361 
" style="fill:none;stroke:#999999;"/>
    <path clip-path="url(#pb68bbc6a43)" d="M 413.823947 305.427766 
L 415.068977 308.651156 
" style="fill:none;stroke:#999999;"/>
    <path clip-path="url(#pb68bbc6a43)" d="M 413.823947 305.427766 
L 379.837847 317.246135 
" style="fill:none;stroke:#999999;"/>
    <path clip-path="url(#pb68bbc6a43)" d="M 413.823947 305.427766 
L 411.444291 298.919796 
L 377.154152 310.504332 
" style="fill:none;stroke:#999999;"/>
    <path clip-path="url(#pb68bbc6a43)" d="M 379.837847 317.246135 
L 381.915162 322.458192 
" style="fill:none;stroke:#999999;"/>
    <path clip-path="url(#pb68bbc6a43)" d="M 379.837847 317.246135 
L 377.154152 310.504332 
" style="fill:none;stroke:#999999;"/>
    <path clip-path="url(#pb68bbc6a43)" d="M 379.837847 317.246135 
L 413.823947 305.427766 
" style="fill:none;stroke:#999999;"/>
    <path clip-path="url(#pb68bbc6a43)" d="M 379.837847 317.246135 
L 367.40283 321.90967 
" style="fill:none;stroke:#999999;"/>
    <path clip-path="url(#pb68bbc6a43)" d="M 367.40283 321.90967 
L 379.837847 317.246135 
" style="fill:none;stroke:#999999;"/>
    <path clip-path="url(#pb68bbc6a43)" d="M 367.40283 321.90967 
L 369.3001 327.014645 
" style="fill:none;stroke:#999999;"/>
    <path clip-path="url(#pb68bbc6a43)" d="M 367.40283 321.90967 
L 364.849924 315.043303 
L 377.154152 310.504332 
" style="fill:none;stroke:#999999;"/>
    <path clip-path="url(#pb68bbc6a43)" d="M 415.524186 310.093487 
L 415.068977 308.651156 
" style="fill:none;stroke:#999999;"/>
    <path clip-path="url(#pb68bbc6a43)" d="M 415.524186 310.093487 
L 417.750973 316.203723 
L 420.689448 326.699955 
L 423.296708 339.173928 
" style="fill:none;stroke:#999999;"/>
    <path clip-path="url(#pb68bbc6a43)" d="M 415.524186 310.093487 
L 405.224235 313.581304 
L 381.915162 322.458192 
" style="fill:none;stroke:#999999;"/>
    <path clip-path="url(#pb68bbc6a43)" d="M 381.915162 322.458192 
L 384.075706 327.8866 
" style="fill:none;stroke:#999999;"/>
    <path clip-path="url(#pb68bbc6a43)" d="M 381.915162 322.458192 
L 379.837847 317.246135 
" style="fill:none;stroke:#999999;"/>
    <path clip-path="url(#pb68bbc6a43)" d="M 381.915162 322.458192 
L 369.3001 327.014645 
" style="fill:none;stroke:#999999;"/>
    <path clip-path="url(#pb68bbc6a43)" d="M 381.915162 322.458192 
L 405.224235 313.581304 
L 415.524186 310.093487 
" style="fill:none;stroke:#999999;"/>
    <path clip-path="url(#pb68bbc6a43)" d="M 369.3001 327.014645 
L 381.915162 322.458192 
" style="fill:none;stroke:#999999;"/>
    <path clip-path="url(#pb68bbc6a43)" d="M 369.3001 327.014645 
L 371.309474 332.423385 
" style="fill:none;stroke:#999999;"/>
    <path clip-path="url(#pb68bbc6a43)" d="M 369.3001 327.014645 
L 367.40283 321.90967 
" style="fill:none;stroke:#999999;"/>
    <path clip-path="url(#pb68bbc6a43)" d="M 371.309474 332.423385 
L 384.075706 327.8866 
" style="fill:none;stroke:#999999;"/>
    <path clip-path="url(#pb68bbc6a43)" d="M 371.309474 332.423385 
L 369.3001 327.014645 
" style="fill:none;stroke:#999999;"/>
    <path clip-path="url(#pb68bbc6a43)" d="M 371.309474 332.423385 
L 370.543432 333.011244 
L 366.434662 331.492426 
L 360.426924 327.591578 
L 352.243355 322.4123 
L 313.851241 298.852051 
L 290.292482 285.049385 
L 280.457931 279.813289 
L 272.445915 276.640162 
L 266.735421 274.974926 
L 261.261025 273.78391 
L 258.563742 272.040002 
L 254.359854 268.230938 
L 249.760206 264.58359 
L 246.031909 263.075699 
" style="fill:none;stroke:#999999;"/>
    <path clip-path="url(#pb68bbc6a43)" d="M 377.154152 310.504332 
L 379.837847 317.246135 
" style="fill:none;stroke:#999999;"/>
    <path clip-path="url(#pb68bbc6a43)" d="M 377.154152 310.504332 
L 411.444291 298.919796 
L 413.823947 305.427766 
" style="fill:none;stroke:#999999;"/>
    <path clip-path="url(#pb68bbc6a43)" d="M 377.154152 310.504332 
L 364.849924 315.043303 
L 367.40283 321.90967 
" style="fill:none;stroke:#999999;"/>
    <path clip-path="url(#pb68bbc6a43)" d="M 384.075706 327.8866 
L 417.959893 353.011559 
" style="fill:none;stroke:#999999;"/>
    <path clip-path="url(#pb68bbc6a43)" d="M 384.075706 327.8866 
L 381.915162 322.458192 
" style="fill:none;stroke:#999999;"/>
    <path clip-path="url(#pb68bbc6a43)" d="M 384.075706 327.8866 
L 371.309474 332.423385 
" style="fill:none;stroke:#999999;"/>
    <path clip-path="url(#pb68bbc6a43)" d="M 423.721343 390.63016 
L 436.159756 390.129715 
" style="fill:none;stroke:#999999;"/>
    <path clip-path="url(#pb68bbc6a43)" d="M 423.721343 390.63016 
L 421.944669 399.059052 
L 420.714926 400.335296 
L 397.252984 393.864477 
L 396.432589 389.992038 
L 397.188439 382.205639 
" style="fill:none;stroke:#999999;"/>
    <path clip-path="url(#pb68bbc6a43)" d="M 423.721343 390.63016 
L 402.537144 384.34291 
L 402.149877 383.512478 
" style="fill:none;stroke:#999999;"/>
    <path clip-path="url(#pb68bbc6a43)" d="M 436.159756 390.129715 
L 443.358171 405.848932 
" style="fill:none;stroke:#999999;"/>
    <path clip-path="url(#pb68bbc6a43)" d="M 436.159756 390.129715 
L 423.721343 390.63016 
" style="fill:none;stroke:#999999;"/>
    <path clip-path="url(#pb68bbc6a43)" d="M 436.159756 390.129715 
L 443.859241 387.03089 
L 446.476692 384.242384 
" style="fill:none;stroke:#999999;"/>
    <path clip-path="url(#pb68bbc6a43)" d="M 446.476692 384.242384 
L 449.97059 391.554563 
" style="fill:none;stroke:#999999;"/>
    <path clip-path="url(#pb68bbc6a43)" d="M 446.476692 384.242384 
L 445.364148 381.917173 
" style="fill:none;stroke:#999999;"/>
    <path clip-path="url(#pb68bbc6a43)" d="M 446.476692 384.242384 
L 443.859241 387.03089 
L 436.159756 390.129715 
" style="fill:none;stroke:#999999;"/>
    <path clip-path="url(#pb68bbc6a43)" d="M 454.330744 400.678396 
L 449.97059 391.554563 
" style="fill:none;stroke:#999999;"/>
    <path clip-path="url(#pb68bbc6a43)" d="M 454.330744 400.678396 
L 443.358171 405.848932 
" style="fill:none;stroke:#999999;"/>
    <path clip-path="url(#pb68bbc6a43)" d="M 454.330744 400.678396 
L 463.944484 420.790164 
L 465.330493 423.692308 
" style="fill:none;stroke:#999999;"/>
    <path clip-path="url(#pb68bbc6a43)" d="M 443.358171 405.848932 
L 454.330744 400.678396 
" style="fill:none;stroke:#999999;"/>
    <path clip-path="url(#pb68bbc6a43)" d="M 443.358171 405.848932 
L 436.159756 390.129715 
" style="fill:none;stroke:#999999;"/>
    <path clip-path="url(#pb68bbc6a43)" d="M 443.358171 405.848932 
L 437.98229 408.399234 
L 435.21197 407.824487 
L 418.483044 408.491019 
L 412.105023 408.764187 
L 408.551676 408.21785 
L 394.154846 404.02635 
L 379.121062 398.739991 
L 369.006253 397.920485 
L 360.258768 387.896288 
L 358.893142 387.714904 
L 343.949381 388.442625 
L 343.51965 384.777795 
" style="fill:none;stroke:#999999;"/>
    <path clip-path="url(#pb68bbc6a43)" d="M 373.038588 383.009847 
L 343.51965 384.777795 
" style="fill:none;stroke:#999999;"/>
    <path clip-path="url(#pb68bbc6a43)" d="M 373.038588 383.009847 
L 393.415981 381.788237 
" style="fill:none;stroke:#999999;"/>
    <path clip-path="url(#pb68bbc6a43)" d="M 373.038588 383.009847 
L 373.288274 375.503173 
" style="fill:none;stroke:#999999;"/>
    <path clip-path="url(#pb68bbc6a43)" d="M 343.51965 384.777795 
L 373.038588 383.009847 
" style="fill:none;stroke:#999999;"/>
    <path clip-path="url(#pb68bbc6a43)" d="M 343.51965 384.777795 
L 343.402451 381.517254 
L 373.288274 375.503173 
" style="fill:none;stroke:#999999;"/>
    <path clip-path="url(#pb68bbc6a43)" d="M 343.51965 384.777795 
L 343.949381 388.442625 
L 358.893142 387.714904 
L 360.258768 387.896288 
L 369.006253 397.920485 
L 379.121062 398.739991 
L 394.154846 404.02635 
L 408.551676 408.21785 
L 412.105023 408.764187 
L 418.483044 408.491019 
L 435.21197 407.824487 
L 437.98229 408.399234 
L 443.358171 405.848932 
" style="fill:none;stroke:#999999;"/>
    <path clip-path="url(#pb68bbc6a43)" d="M 373.288274 375.503173 
L 373.038588 383.009847 
" style="fill:none;stroke:#999999;"/>
    <path clip-path="url(#pb68bbc6a43)" d="M 373.288274 375.503173 
L 343.402451 381.517254 
L 343.51965 384.777795 
" style="fill:none;stroke:#999999;"/>
    <path clip-path="url(#pb68bbc6a43)" d="M 373.288274 375.503173 
L 382.947875 372.950685 
L 395.078852 371.766226 
" style="fill:none;stroke:#999999;"/>
    <path clip-path="url(#pb68bbc6a43)" d="M 494.29231 374.045545 
L 449.97059 391.554563 
" style="fill:none;stroke:#999999;"/>
    <path clip-path="url(#pb68bbc6a43)" d="M 449.97059 391.554563 
L 454.330744 400.678396 
" style="fill:none;stroke:#999999;"/>
    <path clip-path="url(#pb68bbc6a43)" d="M 449.97059 391.554563 
L 446.476692 384.242384 
" style="fill:none;stroke:#999999;"/>
    <path clip-path="url(#pb68bbc6a43)" d="M 449.97059 391.554563 
L 494.29231 374.045545 
" style="fill:none;stroke:#999999;"/>
    <path clip-path="url(#pb68bbc6a43)" d="M 452.515004 335.454464 
L 448.3298 337.482468 
" style="fill:none;stroke:#999999;"/>
    <path clip-path="url(#pb68bbc6a43)" d="M 448.3298 337.482468 
L 450.456373 348.785094 
" style="fill:none;stroke:#999999;"/>
    <path clip-path="url(#pb68bbc6a43)" d="M 448.3298 337.482468 
L 448.117482 336.357013 
" style="fill:none;stroke:#999999;"/>
    <path clip-path="url(#pb68bbc6a43)" d="M 448.3298 337.482468 
L 452.515004 335.454464 
" style="fill:none;stroke:#999999;"/>
    <path clip-path="url(#pb68bbc6a43)" d="M 449.416866 324.700361 
L 448.117482 336.357013 
" style="fill:none;stroke:#999999;"/>
    <path clip-path="url(#pb68bbc6a43)" d="M 449.416866 324.700361 
L 454.926932 327.010275 
L 459.82892 327.818854 
L 465.330493 328.32804 
L 470.101694 328.804446 
L 474.752298 328.620877 
L 478.05596 329.116951 
L 482.098487 331.035688 
L 490.66083 337.537102 
L 496.159006 340.192301 
L 501.157811 340.382426 
L 502.807094 342.705453 
" style="fill:none;stroke:#999999;"/>
    <path clip-path="url(#pb68bbc6a43)" d="M 449.416866 324.700361 
L 441.943287 316.927074 
L 436.767834 312.326914 
L 434.148684 309.625822 
L 432.047589 308.957105 
L 429.445425 309.118821 
L 426.241977 309.282722 
L 421.392644 308.902472 
L 417.387485 308.222828 
L 415.068977 308.651156 
" style="fill:none;stroke:#999999;"/>
    <path clip-path="url(#pb68bbc6a43)" d="M 246.031909 263.075699 
L 249.760206 264.58359 
L 254.359854 268.230938 
L 258.563742 272.040002 
L 261.261025 273.78391 
L 266.735421 274.974926 
L 272.445915 276.640162 
L 280.457931 279.813289 
L 290.292482 285.049385 
L 313.851241 298.852051 
L 352.243355 322.4123 
L 360.426924 327.591578 
L 366.434662 331.492426 
L 370.543432 333.011244 
L 371.309474 332.423385 
" style="fill:none;stroke:#999999;"/>
    <path clip-path="url(#pb68bbc6a43)" d="M 246.031909 263.075699 
L 244.7631 261.648666 
L 243.176663 259.426166 
L 241.668358 255.619288 
L 240.241584 251.495534 
L 238.099725 243.403186 
L 237.06871 240.865996 
L 233.420245 238.48615 
L 226.281279 234.91529 
L 221.204341 230.31513 
L 216.523163 223.256452 
L 213.509951 218.734964 
L 213.192324 215.085431 
L 213.827579 209.375114 
L 215.016557 199.062451 
L 215.414016 192.477994 
L 215.096388 188.671116 
L 211.763852 173.839151 
L 210.416909 170.110945 
L 206.846576 165.589458 
L 197.725413 154.404841 
L 194.472708 150.836166 
L 190.426784 145.997803 
L 183.129853 140.44483 
L 180.512402 138.462719 
L 178.370542 135.84467 
L 175.831224 133.783886 
L 170.834117 130.529901 
L 169.247681 129.262399 
L 168.930053 127.914038 
L 169.089716 125.374662 
L 171.549203 121.88466 
L 182.176972 105.704334 
L 182.892058 103.960426 
L 182.414768 102.135659 
L 179.797317 98.724329 
L 170.676153 88.573382 
L 164.250574 81.116971 
L 159.253467 74.534699 
L 155.922629 69.853681 
L 153.463142 62.873676 
L 152.827888 56.131874 
L 153.780769 50.976635 
L 156.636016 46.059599 
L 160.364313 40.508812 
L 163.537187 34.560292 
L 164.330405 31.387165 
L 164.330405 27.580287 
L 162.34651 24.645363 
L 157.191439 20.917157 
L 141.802661 8.307692 
" style="fill:none;stroke:#999999;"/>
    <path clip-path="url(#pb68bbc6a43)" d="M 246.031909 263.075699 
L 242.541408 263.359795 
L 237.493346 262.638629 
L 230.999825 261.677076 
L 226.311852 259.753969 
L 220.540211 255.304598 
L 210.320092 250.977606 
L 206.233403 248.571537 
L 193.006867 234.985221 
L 181.225789 223.444392 
L 175.333552 217.192108 
L 168.361042 208.175357 
L 160.666653 200.480743 
L 155.496295 196.632343 
L 149.48516 190.860836 
L 145.15558 186.533844 
L 140.948295 182.56525 
L 139.025547 179.440201 
L 138.303667 175.954569 
L 138.663757 172.346558 
L 139.144444 168.259955 
L 140.467608 164.772137 
L 141.068891 162.368253 
L 139.625132 159.603786 
L 134.695967 156.476552 
L 130.007994 153.591891 
L 121.951816 149.623297 
L 115.099903 146.257859 
L 110.651425 140.366158 
L 106.202947 133.755476 
L 103.797813 125.580085 
L 102.836439 118.246053 
L 101.513276 109.710079 
L 101.272084 102.376048 
L 101.873367 94.563424 
L 102.836439 86.388033 
L 103.91841 77.852059 
L 103.317126 73.284679 
L 98.987546 63.186181 
L 76.626259 19.066166 
" style="fill:none;stroke:#999999;"/>
    <path clip-path="url(#pb68bbc6a43)" d="M 141.802661 8.307692 
L 157.191439 20.917157 
L 162.34651 24.645363 
L 164.330405 27.580287 
L 164.330405 31.387165 
L 163.537187 34.560292 
L 160.364313 40.508812 
L 156.636016 46.059599 
L 153.780769 50.976635 
L 152.827888 56.131874 
L 153.463142 62.873676 
L 155.922629 69.853681 
L 159.253467 74.534699 
L 164.250574 81.116971 
L 170.676153 88.573382 
L 179.797317 98.724329 
L 182.414768 102.135659 
L 182.892058 103.960426 
L 182.176972 105.704334 
L 171.549203 121.88466 
L 169.089716 125.374662 
L 168.930053 127.914038 
L 169.247681 129.262399 
L 170.834117 130.529901 
L 175.831224 133.783886 
L 178.370542 135.84467 
L 180.512402 138.462719 
L 183.129853 140.44483 
L 190.426784 145.997803 
L 194.472708 150.836166 
L 197.725413 154.404841 
L 206.846576 165.589458 
L 210.416909 170.110945 
L 211.763852 173.839151 
L 215.096388 188.671116 
L 215.414016 192.477994 
L 215.016557 199.062451 
L 213.827579 209.375114 
L 213.192324 215.085431 
L 213.509951 218.734964 
L 216.523163 223.256452 
L 221.204341 230.31513 
L 226.281279 234.91529 
L 233.420245 238.48615 
L 237.06871 240.865996 
L 238.099725 243.403186 
L 240.241584 251.495534 
L 241.668358 255.619288 
L 243.176663 259.426166 
L 244.7631 261.648666 
L 246.031909 263.075699 
" style="fill:none;stroke:#999999;"/>
    <path clip-path="url(#pb68bbc6a43)" d="M 76.626259 19.066166 
L 98.987546 63.186181 
L 103.317126 73.284679 
L 103.91841 77.852059 
L 102.836439 86.388033 
L 101.873367 94.563424 
L 101.272084 102.376048 
L 101.513276 109.710079 
L 102.836439 118.246053 
L 103.797813 125.580085 
L 106.202947 133.755476 
L 110.651425 140.366158 
L 115.099903 146.257859 
L 121.951816 149.623297 
L 130.007994 153.591891 
L 134.695967 156.476552 
L 139.625132 159.603786 
L 141.068891 162.368253 
L 140.467608 164.772137 
L 139.144444 168.259955 
L 138.663757 172.346558 
L 138.303667 175.954569 
L 139.025547 179.440201 
L 140.948295 182.56525 
L 145.15558 186.533844 
L 149.48516 190.860836 
L 155.496295 196.632343 
L 160.666653 200.480743 
L 168.361042 208.175357 
L 175.333552 217.192108 
L 181.225789 223.444392 
L 193.006867 234.985221 
L 206.233403 248.571537 
L 210.320092 250.977606 
L 220.540211 255.304598 
L 226.311852 259.753969 
L 230.999825 261.677076 
L 237.493346 262.638629 
L 242.541408 263.359795 
L 246.031909 263.075699 
" style="fill:none;stroke:#999999;"/>
   </g>
  </g>
 </g>
 <defs>
  <clipPath id="pb68bbc6a43">
   <rect height="432" width="471.451157" x="67.55989" y="0"/>
  </clipPath>
 </defs>
</svg>
