<?xml version="1.0" encoding="utf-8" standalone="no"?>
<!DOCTYPE svg PUBLIC "-//W3C//DTD SVG 1.1//EN"
  "http://www.w3.org/Graphics/SVG/1.1/DTD/svg11.dtd">
<!-- Created with matplotlib (http://matplotlib.org/) -->
<svg height="432pt" version="1.1" viewBox="0 0 670.180509 432" width="670.180509pt" xmlns="http://www.w3.org/2000/svg" xmlns:xlink="http://www.w3.org/1999/xlink">
 <defs>
  <style type="text/css">
*{stroke-linecap:butt;stroke-linejoin:round;}
  </style>
 </defs>
 <g id="figure_1">
  <g id="patch_1">
   <path d="M 0 432 
L 670.180509 432 
L 670.180509 0 
L 0 0 
z
" style="fill:none;opacity:0;"/>
  </g>
  <g id="axes_1">
   <g id="PathCollection_1">
    <defs>
     <path d="M 0 1.936492 
C 0.513564 1.936492 1.006162 1.732451 1.369306 1.369306 
C 1.732451 1.006162 1.936492 0.513564 1.936492 0 
C 1.936492 -0.513564 1.732451 -1.006162 1.369306 -1.369306 
C 1.006162 -1.732451 0.513564 -1.936492 0 -1.936492 
C -0.513564 -1.936492 -1.006162 -1.732451 -1.369306 -1.369306 
C -1.732451 -1.006162 -1.936492 -0.513564 -1.936492 0 
C -1.936492 0.513564 -1.732451 1.006162 -1.369306 1.369306 
C -1.006162 1.732451 -0.513564 1.936492 0 1.936492 
z
" id="C0_0_7c47e961b1"/>
    </defs>
    <g clip-path="url(#pb8459df335)">
     <use style="fill:#66ccff;" x="223.431417" xlink:href="#C0_0_7c47e961b1" y="389.156963"/>
    </g>
    <g clip-path="url(#pb8459df335)">
     <use style="fill:#66ccff;" x="474.19297" xlink:href="#C0_0_7c47e961b1" y="292.625952"/>
    </g>
    <g clip-path="url(#pb8459df335)">
     <use style="fill:#66ccff;" x="86.455035" xlink:href="#C0_0_7c47e961b1" y="423.692308"/>
    </g>
    <g clip-path="url(#pb8459df335)">
     <use style="fill:#66ccff;" x="282.53944" xlink:href="#C0_0_7c47e961b1" y="183.430231"/>
    </g>
    <g clip-path="url(#pb8459df335)">
     <use style="fill:#66ccff;" x="252.122744" xlink:href="#C0_0_7c47e961b1" y="217.650664"/>
    </g>
    <g clip-path="url(#pb8459df335)">
     <use style="fill:#66ccff;" x="190.284915" xlink:href="#C0_0_7c47e961b1" y="346.229215"/>
    </g>
    <g clip-path="url(#pb8459df335)">
     <use style="fill:#66ccff;" x="323.365044" xlink:href="#C0_0_7c47e961b1" y="188.951687"/>
    </g>
    <g clip-path="url(#pb8459df335)">
     <use style="fill:#66ccff;" x="300.145481" xlink:href="#C0_0_7c47e961b1" y="208.387003"/>
    </g>
    <g clip-path="url(#pb8459df335)">
     <use style="fill:#66ccff;" x="310.440986" xlink:href="#C0_0_7c47e961b1" y="76.223704"/>
    </g>
    <g clip-path="url(#pb8459df335)">
     <use style="fill:#66ccff;" x="344.004655" xlink:href="#C0_0_7c47e961b1" y="195.575335"/>
    </g>
    <g clip-path="url(#pb8459df335)">
     <use style="fill:#66ccff;" x="274.070557" xlink:href="#C0_0_7c47e961b1" y="220.364155"/>
    </g>
    <g clip-path="url(#pb8459df335)">
     <use style="fill:#66ccff;" x="383.83392" xlink:href="#C0_0_7c47e961b1" y="172.550023"/>
    </g>
    <g clip-path="url(#pb8459df335)">
     <use style="fill:#66ccff;" x="327.176243" xlink:href="#C0_0_7c47e961b1" y="203.180459"/>
    </g>
    <g clip-path="url(#pb8459df335)">
     <use style="fill:#66ccff;" x="256.185054" xlink:href="#C0_0_7c47e961b1" y="165.747925"/>
    </g>
    <g clip-path="url(#pb8459df335)">
     <use style="fill:#66ccff;" x="368.783528" xlink:href="#C0_0_7c47e961b1" y="225.449983"/>
    </g>
    <g clip-path="url(#pb8459df335)">
     <use style="fill:#66ccff;" x="281.911665" xlink:href="#C0_0_7c47e961b1" y="319.031319"/>
    </g>
    <g clip-path="url(#pb8459df335)">
     <use style="fill:#66ccff;" x="329.731894" xlink:href="#C0_0_7c47e961b1" y="244.20299"/>
    </g>
    <g clip-path="url(#pb8459df335)">
     <use style="fill:#66ccff;" x="312.57947" xlink:href="#C0_0_7c47e961b1" y="238.23016"/>
    </g>
    <g clip-path="url(#pb8459df335)">
     <use style="fill:#66ccff;" x="319.367537" xlink:href="#C0_0_7c47e961b1" y="67.185731"/>
    </g>
    <g clip-path="url(#pb8459df335)">
     <use style="fill:#66ccff;" x="169.450896" xlink:href="#C0_0_7c47e961b1" y="198.750698"/>
    </g>
    <g clip-path="url(#pb8459df335)">
     <use style="fill:#66ccff;" x="582.781786" xlink:href="#C0_0_7c47e961b1" y="290.437314"/>
    </g>
    <g clip-path="url(#pb8459df335)">
     <use style="fill:#66ccff;" x="497.550238" xlink:href="#C0_0_7c47e961b1" y="269.88406"/>
    </g>
    <g clip-path="url(#pb8459df335)">
     <use style="fill:#66ccff;" x="488.761392" xlink:href="#C0_0_7c47e961b1" y="278.376186"/>
    </g>
    <g clip-path="url(#pb8459df335)">
     <use style="fill:#66ccff;" x="432.20902" xlink:href="#C0_0_7c47e961b1" y="233.317533"/>
    </g>
    <g clip-path="url(#pb8459df335)">
     <use style="fill:#66ccff;" x="276.136138" xlink:href="#C0_0_7c47e961b1" y="101.778809"/>
    </g>
    <g clip-path="url(#pb8459df335)">
     <use style="fill:#66ccff;" x="298.853481" xlink:href="#C0_0_7c47e961b1" y="51.051742"/>
    </g>
    <g clip-path="url(#pb8459df335)">
     <use style="fill:#66ccff;" x="324.256079" xlink:href="#C0_0_7c47e961b1" y="239.048931"/>
    </g>
    <g clip-path="url(#pb8459df335)">
     <use style="fill:#66ccff;" x="293.223759" xlink:href="#C0_0_7c47e961b1" y="38.822661"/>
    </g>
    <g clip-path="url(#pb8459df335)">
     <use style="fill:#66ccff;" x="344.482573" xlink:href="#C0_0_7c47e961b1" y="14.773884"/>
    </g>
    <g clip-path="url(#pb8459df335)">
     <use style="fill:#66ccff;" x="271.004586" xlink:href="#C0_0_7c47e961b1" y="230.556805"/>
    </g>
    <g clip-path="url(#pb8459df335)">
     <use style="fill:#66ccff;" x="193.553393" xlink:href="#C0_0_7c47e961b1" y="215.236339"/>
    </g>
    <g clip-path="url(#pb8459df335)">
     <use style="fill:#66ccff;" x="321.408817" xlink:href="#C0_0_7c47e961b1" y="260.867081"/>
    </g>
    <g clip-path="url(#pb8459df335)">
     <use style="fill:#66ccff;" x="374.640058" xlink:href="#C0_0_7c47e961b1" y="255.707773"/>
    </g>
    <g clip-path="url(#pb8459df335)">
     <use style="fill:#66ccff;" x="327.893122" xlink:href="#C0_0_7c47e961b1" y="236.052019"/>
    </g>
    <g clip-path="url(#pb8459df335)">
     <use style="fill:#66ccff;" x="270.59957" xlink:href="#C0_0_7c47e961b1" y="204.770765"/>
    </g>
    <g clip-path="url(#pb8459df335)">
     <use style="fill:#66ccff;" x="272.199383" xlink:href="#C0_0_7c47e961b1" y="224.909384"/>
    </g>
    <g clip-path="url(#pb8459df335)">
     <use style="fill:#66ccff;" x="426.380841" xlink:href="#C0_0_7c47e961b1" y="232.283572"/>
    </g>
    <g clip-path="url(#pb8459df335)">
     <use style="fill:#66ccff;" x="318.743812" xlink:href="#C0_0_7c47e961b1" y="227.349952"/>
    </g>
    <g clip-path="url(#pb8459df335)">
     <use style="fill:#66ccff;" x="283.952945" xlink:href="#C0_0_7c47e961b1" y="205.809974"/>
    </g>
    <g clip-path="url(#pb8459df335)">
     <use style="fill:#66ccff;" x="343.992504" xlink:href="#C0_0_7c47e961b1" y="45.624759"/>
    </g>
    <g clip-path="url(#pb8459df335)">
     <use style="fill:#66ccff;" x="269.696385" xlink:href="#C0_0_7c47e961b1" y="198.257336"/>
    </g>
    <g clip-path="url(#pb8459df335)">
     <use style="fill:#66ccff;" x="310.659694" xlink:href="#C0_0_7c47e961b1" y="274.644479"/>
    </g>
    <g clip-path="url(#pb8459df335)">
     <use style="fill:#66ccff;" x="176.810035" xlink:href="#C0_0_7c47e961b1" y="355.739556"/>
    </g>
    <g clip-path="url(#pb8459df335)">
     <use style="fill:#66ccff;" x="227.56663" xlink:href="#C0_0_7c47e961b1" y="347.14246"/>
    </g>
    <g clip-path="url(#pb8459df335)">
     <use style="fill:#66ccff;" x="325.884243" xlink:href="#C0_0_7c47e961b1" y="260.982549"/>
    </g>
    <g clip-path="url(#pb8459df335)">
     <use style="fill:#66ccff;" x="239.850762" xlink:href="#C0_0_7c47e961b1" y="191.019609"/>
    </g>
    <g clip-path="url(#pb8459df335)">
     <use style="fill:#66ccff;" x="281.660555" xlink:href="#C0_0_7c47e961b1" y="85.004499"/>
    </g>
    <g clip-path="url(#pb8459df335)">
     <use style="fill:#66ccff;" x="513.046146" xlink:href="#C0_0_7c47e961b1" y="351.136593"/>
    </g>
    <g clip-path="url(#pb8459df335)">
     <use style="fill:#66ccff;" x="313.717565" xlink:href="#C0_0_7c47e961b1" y="346.822299"/>
    </g>
    <g clip-path="url(#pb8459df335)">
     <use style="fill:#66ccff;" x="251.434217" xlink:href="#C0_0_7c47e961b1" y="257.371558"/>
    </g>
    <g clip-path="url(#pb8459df335)">
     <use style="fill:#66ccff;" x="212.759248" xlink:href="#C0_0_7c47e961b1" y="222.946433"/>
    </g>
    <g clip-path="url(#pb8459df335)">
     <use style="fill:#66ccff;" x="258.38429" xlink:href="#C0_0_7c47e961b1" y="258.898881"/>
    </g>
    <g clip-path="url(#pb8459df335)">
     <use style="fill:#66ccff;" x="259.664141" xlink:href="#C0_0_7c47e961b1" y="346.486393"/>
    </g>
    <g clip-path="url(#pb8459df335)">
     <use style="fill:#66ccff;" x="265.775831" xlink:href="#C0_0_7c47e961b1" y="337.721344"/>
    </g>
    <g clip-path="url(#pb8459df335)">
     <use style="fill:#66ccff;" x="265.654326" xlink:href="#C0_0_7c47e961b1" y="308.969882"/>
    </g>
    <g clip-path="url(#pb8459df335)">
     <use style="fill:#66ccff;" x="239.980367" xlink:href="#C0_0_7c47e961b1" y="232.766437"/>
    </g>
    <g clip-path="url(#pb8459df335)">
     <use style="fill:#66ccff;" x="325.236217" xlink:href="#C0_0_7c47e961b1" y="346.780311"/>
    </g>
    <g clip-path="url(#pb8459df335)">
     <use style="fill:#66ccff;" x="172.581669" xlink:href="#C0_0_7c47e961b1" y="181.944896"/>
    </g>
    <g clip-path="url(#pb8459df335)">
     <use style="fill:#66ccff;" x="123.270982" xlink:href="#C0_0_7c47e961b1" y="148.438264"/>
    </g>
    <g clip-path="url(#pb8459df335)">
     <use style="fill:#66ccff;" x="246.885889" xlink:href="#C0_0_7c47e961b1" y="33.946774"/>
    </g>
    <g clip-path="url(#pb8459df335)">
     <use style="fill:#66ccff;" x="286.387091" xlink:href="#C0_0_7c47e961b1" y="211.856284"/>
    </g>
    <g clip-path="url(#pb8459df335)">
     <use style="fill:#66ccff;" x="234.285844" xlink:href="#C0_0_7c47e961b1" y="187.539832"/>
    </g>
    <g clip-path="url(#pb8459df335)">
     <use style="fill:#66ccff;" x="217.011915" xlink:href="#C0_0_7c47e961b1" y="215.131368"/>
    </g>
    <g clip-path="url(#pb8459df335)">
     <use style="fill:#66ccff;" x="345.308806" xlink:href="#C0_0_7c47e961b1" y="8.307692"/>
    </g>
    <g clip-path="url(#pb8459df335)">
     <use style="fill:#66ccff;" x="139.670076" xlink:href="#C0_0_7c47e961b1" y="184.821092"/>
    </g>
    <g clip-path="url(#pb8459df335)">
     <use style="fill:#66ccff;" x="417.146478" xlink:href="#C0_0_7c47e961b1" y="264.189402"/>
    </g>
    <g clip-path="url(#pb8459df335)">
     <use style="fill:#66ccff;" x="583.725474" xlink:href="#C0_0_7c47e961b1" y="283.76118"/>
    </g>
   </g>
   <g id="LineCollection_1">
    <path clip-path="url(#pb8459df335)" d="M 223.431417 389.156963 
L 213.002257 379.599385 
L 189.013165 363.302692 
L 176.810035 355.739556 
" style="fill:none;stroke:#999999;"/>
    <path clip-path="url(#pb8459df335)" d="M 474.19297 292.625952 
L 488.761392 278.376186 
" style="fill:none;stroke:#999999;"/>
    <path clip-path="url(#pb8459df335)" d="M 474.19297 292.625952 
L 460.539883 305.978219 
L 432.500632 310.780626 
L 418.138767 324.2851 
L 406.838823 329.087508 
L 388.025834 337.821066 
L 359.824576 345.447184 
L 331.526114 346.759317 
L 325.236217 346.780311 
" style="fill:none;stroke:#999999;"/>
    <path clip-path="url(#pb8459df335)" d="M 474.19297 292.625952 
L 480.891933 301.160066 
L 491.483099 311.809338 
L 513.046146 351.136593 
" style="fill:none;stroke:#999999;"/>
    <path clip-path="url(#pb8459df335)" d="M 86.455035 423.692308 
L 90.91021 421.43019 
L 115.778187 409.605246 
L 125.223158 405.117751 
L 171.953895 359.166848 
L 176.810035 355.739556 
" style="fill:none;stroke:#999999;"/>
    <path clip-path="url(#pb8459df335)" d="M 282.53944 183.430231 
L 279.716479 186.364161 
L 278.73634 190.274317 
L 278.088315 195.491359 
L 274.698331 196.772001 
L 269.696385 198.257336 
" style="fill:none;stroke:#999999;"/>
    <path clip-path="url(#pb8459df335)" d="M 252.122744 217.650664 
L 258.509845 221.324636 
L 264.269172 223.061901 
L 268.959256 223.408304 
L 272.199383 224.909384 
" style="fill:none;stroke:#999999;"/>
    <path clip-path="url(#pb8459df335)" d="M 190.284915 346.229215 
L 176.810035 355.739556 
" style="fill:none;stroke:#999999;"/>
    <path clip-path="url(#pb8459df335)" d="M 190.284915 346.229215 
L 208.356725 347.037489 
L 223.913386 347.215939 
L 227.56663 347.14246 
" style="fill:none;stroke:#999999;"/>
    <path clip-path="url(#pb8459df335)" d="M 190.284915 346.229215 
L 187.960123 341.279849 
L 186.874681 337.758083 
L 187.494355 332.61977 
L 191.925229 325.675961 
L 198.093622 316.55926 
L 204.205312 309.038113 
L 215.829268 300.524993 
L 232.965492 280.82725 
L 251.434217 257.371558 
" style="fill:none;stroke:#999999;"/>
    <path clip-path="url(#pb8459df335)" d="M 323.365044 188.951687 
L 327.176243 203.180459 
" style="fill:none;stroke:#999999;"/>
    <path clip-path="url(#pb8459df335)" d="M 300.145481 208.387003 
L 290.558755 210.785583 
L 286.387091 211.856284 
" style="fill:none;stroke:#999999;"/>
    <path clip-path="url(#pb8459df335)" d="M 300.145481 208.387003 
L 322.409206 203.747301 
L 327.176243 203.180459 
" style="fill:none;stroke:#999999;"/>
    <path clip-path="url(#pb8459df335)" d="M 300.145481 208.387003 
L 304.353597 214.58552 
L 318.743812 227.349952 
" style="fill:none;stroke:#999999;"/>
    <path clip-path="url(#pb8459df335)" d="M 310.440986 76.223704 
L 298.853481 51.051742 
" style="fill:none;stroke:#999999;"/>
    <path clip-path="url(#pb8459df335)" d="M 310.440986 76.223704 
L 335.819283 112.233886 
L 383.83392 172.550023 
" style="fill:none;stroke:#999999;"/>
    <path clip-path="url(#pb8459df335)" d="M 310.440986 76.223704 
L 307.937988 78.265383 
L 287.950452 94.777267 
L 276.136138 101.778809 
" style="fill:none;stroke:#999999;"/>
    <path clip-path="url(#pb8459df335)" d="M 310.440986 76.223704 
L 315.106769 71.095888 
L 319.367537 67.185731 
" style="fill:none;stroke:#999999;"/>
    <path clip-path="url(#pb8459df335)" d="M 344.004655 195.575335 
L 346.831666 199.705931 
L 351.610853 207.961872 
L 358.346268 212.522847 
L 365.733758 217.51945 
L 368.783528 225.449983 
" style="fill:none;stroke:#999999;"/>
    <path clip-path="url(#pb8459df335)" d="M 344.004655 195.575335 
L 340.440515 197.879441 
L 327.176243 203.180459 
" style="fill:none;stroke:#999999;"/>
    <path clip-path="url(#pb8459df335)" d="M 344.004655 195.575335 
L 353.781739 190.578732 
L 363.777532 185.366939 
L 375.20303 178.543847 
L 383.83392 172.550023 
" style="fill:none;stroke:#999999;"/>
    <path clip-path="url(#pb8459df335)" d="M 274.070557 220.364155 
L 282.952556 212.738037 
L 286.387091 211.856284 
" style="fill:none;stroke:#999999;"/>
    <path clip-path="url(#pb8459df335)" d="M 274.070557 220.364155 
L 271.87132 210.675364 
L 270.59957 204.770765 
" style="fill:none;stroke:#999999;"/>
    <path clip-path="url(#pb8459df335)" d="M 274.070557 220.364155 
L 273.503535 221.755016 
L 272.199383 224.909384 
" style="fill:none;stroke:#999999;"/>
    <path clip-path="url(#pb8459df335)" d="M 383.83392 172.550023 
L 432.20902 233.317533 
" style="fill:none;stroke:#999999;"/>
    <path clip-path="url(#pb8459df335)" d="M 383.83392 172.550023 
L 375.20303 178.543847 
L 363.777532 185.366939 
L 353.781739 190.578732 
L 344.004655 195.575335 
" style="fill:none;stroke:#999999;"/>
    <path clip-path="url(#pb8459df335)" d="M 383.83392 172.550023 
L 335.819283 112.233886 
L 310.440986 76.223704 
" style="fill:none;stroke:#999999;"/>
    <path clip-path="url(#pb8459df335)" d="M 327.176243 203.180459 
L 323.365044 188.951687 
" style="fill:none;stroke:#999999;"/>
    <path clip-path="url(#pb8459df335)" d="M 327.176243 203.180459 
L 322.409206 203.747301 
L 300.145481 208.387003 
" style="fill:none;stroke:#999999;"/>
    <path clip-path="url(#pb8459df335)" d="M 327.176243 203.180459 
L 340.440515 197.879441 
L 344.004655 195.575335 
" style="fill:none;stroke:#999999;"/>
    <path clip-path="url(#pb8459df335)" d="M 327.176243 203.180459 
L 328.577598 209.588917 
L 328.905661 224.473756 
L 328.577598 229.795768 
L 327.893122 236.052019 
" style="fill:none;stroke:#999999;"/>
    <path clip-path="url(#pb8459df335)" d="M 256.185054 165.747925 
L 267.853563 126.924529 
L 276.136138 101.778809 
" style="fill:none;stroke:#999999;"/>
    <path clip-path="url(#pb8459df335)" d="M 256.185054 165.747925 
L 266.739769 194.310439 
L 269.696385 198.257336 
" style="fill:none;stroke:#999999;"/>
    <path clip-path="url(#pb8459df335)" d="M 256.185054 165.747925 
L 246.233813 171.893956 
L 239.717107 178.848262 
L 234.285844 187.539832 
" style="fill:none;stroke:#999999;"/>
    <path clip-path="url(#pb8459df335)" d="M 368.783528 225.449983 
L 365.733758 217.51945 
L 358.346268 212.522847 
L 351.610853 207.961872 
L 346.831666 199.705931 
L 344.004655 195.575335 
" style="fill:none;stroke:#999999;"/>
    <path clip-path="url(#pb8459df335)" d="M 368.783528 225.449983 
L 372.359819 245.578105 
L 374.640058 255.707773 
" style="fill:none;stroke:#999999;"/>
    <path clip-path="url(#pb8459df335)" d="M 368.783528 225.449983 
L 382.679624 223.822938 
L 397.235896 225.775392 
L 413.639041 228.494132 
L 426.380841 232.283572 
" style="fill:none;stroke:#999999;"/>
    <path clip-path="url(#pb8459df335)" d="M 368.783528 225.449983 
L 353.129663 228.709322 
L 330.91454 234.997064 
L 327.893122 236.052019 
" style="fill:none;stroke:#999999;"/>
    <path clip-path="url(#pb8459df335)" d="M 281.911665 319.031319 
L 313.717565 346.822299 
" style="fill:none;stroke:#999999;"/>
    <path clip-path="url(#pb8459df335)" d="M 281.911665 319.031319 
L 277.302584 323.224897 
L 265.775831 337.721344 
" style="fill:none;stroke:#999999;"/>
    <path clip-path="url(#pb8459df335)" d="M 281.911665 319.031319 
L 285.670213 315.619773 
L 295.771309 308.229839 
L 303.1588 301.060344 
L 307.613975 293.780629 
L 309.242139 286.721352 
L 310.659694 274.644479 
" style="fill:none;stroke:#999999;"/>
    <path clip-path="url(#pb8459df335)" d="M 329.731894 244.20299 
L 324.256079 239.048931 
" style="fill:none;stroke:#999999;"/>
    <path clip-path="url(#pb8459df335)" d="M 329.731894 244.20299 
L 352.173826 251.445965 
L 374.640058 255.707773 
" style="fill:none;stroke:#999999;"/>
    <path clip-path="url(#pb8459df335)" d="M 329.731894 244.20299 
L 327.188394 246.113456 
L 324.365433 255.781253 
L 321.408817 260.867081 
" style="fill:none;stroke:#999999;"/>
    <path clip-path="url(#pb8459df335)" d="M 312.57947 238.23016 
L 318.391448 239.379588 
L 324.256079 239.048931 
" style="fill:none;stroke:#999999;"/>
    <path clip-path="url(#pb8459df335)" d="M 312.57947 238.23016 
L 308.918126 237.511111 
L 287.970703 232.099874 
L 282.733847 230.556805 
L 277.845305 229.905987 
L 271.004586 230.556805 
" style="fill:none;stroke:#999999;"/>
    <path clip-path="url(#pb8459df335)" d="M 312.57947 238.23016 
L 313.369251 234.251772 
L 315.997804 229.816762 
L 318.743812 227.349952 
" style="fill:none;stroke:#999999;"/>
    <path clip-path="url(#pb8459df335)" d="M 319.367537 67.185731 
L 326.285208 61.239144 
L 335.313013 53.282368 
L 343.992504 45.624759 
" style="fill:none;stroke:#999999;"/>
    <path clip-path="url(#pb8459df335)" d="M 319.367537 67.185731 
L 315.106769 71.095888 
L 310.440986 76.223704 
" style="fill:none;stroke:#999999;"/>
    <path clip-path="url(#pb8459df335)" d="M 319.367537 67.185731 
L 310.675895 46.22834 
L 298.853481 51.051742 
" style="fill:none;stroke:#999999;"/>
    <path clip-path="url(#pb8459df335)" d="M 169.450896 198.750698 
L 151.528942 186.038752 
L 157.045259 184.873577 
L 172.581669 181.944896 
" style="fill:none;stroke:#999999;"/>
    <path clip-path="url(#pb8459df335)" d="M 169.450896 198.750698 
L 189.207572 211.872029 
L 193.553393 215.236339 
" style="fill:none;stroke:#999999;"/>
    <path clip-path="url(#pb8459df335)" d="M 169.450896 198.750698 
L 155.332041 217.650664 
L 148.471072 212.197438 
L 141.29824 205.463571 
L 139.77943 201.332976 
L 139.560722 192.315997 
L 139.670076 184.821092 
" style="fill:none;stroke:#999999;"/>
    <path clip-path="url(#pb8459df335)" d="M 582.781786 290.437314 
L 583.725474 283.76118 
" style="fill:none;stroke:#999999;"/>
    <path clip-path="url(#pb8459df335)" d="M 582.781786 290.437314 
L 506.634745 272.072698 
L 497.550238 269.88406 
" style="fill:none;stroke:#999999;"/>
    <path clip-path="url(#pb8459df335)" d="M 497.550238 269.88406 
L 491.134786 276.082577 
L 488.761392 278.376186 
" style="fill:none;stroke:#999999;"/>
    <path clip-path="url(#pb8459df335)" d="M 497.550238 269.88406 
L 468.960164 245.809041 
L 432.20902 233.317533 
" style="fill:none;stroke:#999999;"/>
    <path clip-path="url(#pb8459df335)" d="M 497.550238 269.88406 
L 506.634745 272.072698 
L 582.781786 290.437314 
" style="fill:none;stroke:#999999;"/>
    <path clip-path="url(#pb8459df335)" d="M 488.761392 278.376186 
L 474.19297 292.625952 
" style="fill:none;stroke:#999999;"/>
    <path clip-path="url(#pb8459df335)" d="M 488.761392 278.376186 
L 417.146478 264.189402 
" style="fill:none;stroke:#999999;"/>
    <path clip-path="url(#pb8459df335)" d="M 488.761392 278.376186 
L 491.134786 276.082577 
L 497.550238 269.88406 
" style="fill:none;stroke:#999999;"/>
    <path clip-path="url(#pb8459df335)" d="M 432.20902 233.317533 
L 426.380841 232.283572 
" style="fill:none;stroke:#999999;"/>
    <path clip-path="url(#pb8459df335)" d="M 432.20902 233.317533 
L 383.83392 172.550023 
" style="fill:none;stroke:#999999;"/>
    <path clip-path="url(#pb8459df335)" d="M 432.20902 233.317533 
L 468.960164 245.809041 
L 497.550238 269.88406 
" style="fill:none;stroke:#999999;"/>
    <path clip-path="url(#pb8459df335)" d="M 276.136138 101.778809 
L 281.660555 85.004499 
" style="fill:none;stroke:#999999;"/>
    <path clip-path="url(#pb8459df335)" d="M 276.136138 101.778809 
L 267.853563 126.924529 
L 256.185054 165.747925 
" style="fill:none;stroke:#999999;"/>
    <path clip-path="url(#pb8459df335)" d="M 276.136138 101.778809 
L 287.950452 94.777267 
L 307.937988 78.265383 
L 310.440986 76.223704 
" style="fill:none;stroke:#999999;"/>
    <path clip-path="url(#pb8459df335)" d="M 298.853481 51.051742 
L 293.223759 38.822661 
" style="fill:none;stroke:#999999;"/>
    <path clip-path="url(#pb8459df335)" d="M 298.853481 51.051742 
L 310.440986 76.223704 
" style="fill:none;stroke:#999999;"/>
    <path clip-path="url(#pb8459df335)" d="M 298.853481 51.051742 
L 310.675895 46.22834 
L 319.367537 67.185731 
" style="fill:none;stroke:#999999;"/>
    <path clip-path="url(#pb8459df335)" d="M 324.256079 239.048931 
L 329.731894 244.20299 
" style="fill:none;stroke:#999999;"/>
    <path clip-path="url(#pb8459df335)" d="M 324.256079 239.048931 
L 327.893122 236.052019 
" style="fill:none;stroke:#999999;"/>
    <path clip-path="url(#pb8459df335)" d="M 324.256079 239.048931 
L 318.391448 239.379588 
L 312.57947 238.23016 
" style="fill:none;stroke:#999999;"/>
    <path clip-path="url(#pb8459df335)" d="M 293.223759 38.822661 
L 298.853481 51.051742 
" style="fill:none;stroke:#999999;"/>
    <path clip-path="url(#pb8459df335)" d="M 293.223759 38.822661 
L 286.666552 69.804749 
L 281.660555 85.004499 
" style="fill:none;stroke:#999999;"/>
    <path clip-path="url(#pb8459df335)" d="M 344.482573 14.773884 
L 345.308806 8.307692 
" style="fill:none;stroke:#999999;"/>
    <path clip-path="url(#pb8459df335)" d="M 344.482573 14.773884 
L 342.919212 26.992468 
L 342.267136 37.421303 
L 343.992504 45.624759 
" style="fill:none;stroke:#999999;"/>
    <path clip-path="url(#pb8459df335)" d="M 344.482573 14.773884 
L 373.987983 14.175552 
L 377.029652 34.812782 
L 365.296341 37.200864 
L 343.992504 45.624759 
" style="fill:none;stroke:#999999;"/>
    <path clip-path="url(#pb8459df335)" d="M 271.004586 230.556805 
L 272.199383 224.909384 
" style="fill:none;stroke:#999999;"/>
    <path clip-path="url(#pb8459df335)" d="M 271.004586 230.556805 
L 277.845305 229.905987 
L 282.733847 230.556805 
L 287.970703 232.099874 
L 308.918126 237.511111 
L 312.57947 238.23016 
" style="fill:none;stroke:#999999;"/>
    <path clip-path="url(#pb8459df335)" d="M 271.004586 230.556805 
L 268.201876 232.860911 
L 267.5255 238.702528 
L 266.245649 242.638927 
L 262.422299 252.175511 
L 260.052956 257.082889 
L 258.38429 258.898881 
" style="fill:none;stroke:#999999;"/>
    <path clip-path="url(#pb8459df335)" d="M 271.004586 230.556805 
L 264.419028 231.443807 
L 259.093068 230.903208 
L 254.532589 231.443807 
L 246.711732 232.530253 
L 239.980367 232.766437 
" style="fill:none;stroke:#999999;"/>
    <path clip-path="url(#pb8459df335)" d="M 193.553393 215.236339 
L 193.569594 211.677833 
L 189.098218 203.941496 
L 181.710728 193.94829 
L 172.581669 181.944896 
" style="fill:none;stroke:#999999;"/>
    <path clip-path="url(#pb8459df335)" d="M 193.553393 215.236339 
L 197.356493 215.021149 
L 203.64639 218.542914 
L 212.759248 222.946433 
" style="fill:none;stroke:#999999;"/>
    <path clip-path="url(#pb8459df335)" d="M 193.553393 215.236339 
L 189.207572 211.872029 
L 169.450896 198.750698 
" style="fill:none;stroke:#999999;"/>
    <path clip-path="url(#pb8459df335)" d="M 321.408817 260.867081 
L 325.884243 260.982549 
" style="fill:none;stroke:#999999;"/>
    <path clip-path="url(#pb8459df335)" d="M 321.408817 260.867081 
L 312.82653 261.517899 
L 310.327581 266.95013 
L 310.979657 271.400886 
L 310.659694 274.644479 
" style="fill:none;stroke:#999999;"/>
    <path clip-path="url(#pb8459df335)" d="M 321.408817 260.867081 
L 324.365433 255.781253 
L 327.188394 246.113456 
L 329.731894 244.20299 
" style="fill:none;stroke:#999999;"/>
    <path clip-path="url(#pb8459df335)" d="M 374.640058 255.707773 
L 417.146478 264.189402 
" style="fill:none;stroke:#999999;"/>
    <path clip-path="url(#pb8459df335)" d="M 374.640058 255.707773 
L 372.359819 245.578105 
L 368.783528 225.449983 
" style="fill:none;stroke:#999999;"/>
    <path clip-path="url(#pb8459df335)" d="M 374.640058 255.707773 
L 352.173826 251.445965 
L 329.731894 244.20299 
" style="fill:none;stroke:#999999;"/>
    <path clip-path="url(#pb8459df335)" d="M 374.640058 255.707773 
L 367.252568 257.822932 
L 354.32446 259.455226 
L 334.012912 261.19249 
L 325.884243 260.982549 
" style="fill:none;stroke:#999999;"/>
    <path clip-path="url(#pb8459df335)" d="M 327.893122 236.052019 
L 324.256079 239.048931 
" style="fill:none;stroke:#999999;"/>
    <path clip-path="url(#pb8459df335)" d="M 327.893122 236.052019 
L 330.91454 234.997064 
L 353.129663 228.709322 
L 368.783528 225.449983 
" style="fill:none;stroke:#999999;"/>
    <path clip-path="url(#pb8459df335)" d="M 327.893122 236.052019 
L 325.754638 231.533032 
L 318.743812 227.349952 
" style="fill:none;stroke:#999999;"/>
    <path clip-path="url(#pb8459df335)" d="M 327.893122 236.052019 
L 328.577598 229.795768 
L 328.905661 224.473756 
L 328.577598 209.588917 
L 327.176243 203.180459 
" style="fill:none;stroke:#999999;"/>
    <path clip-path="url(#pb8459df335)" d="M 270.59957 204.770765 
L 269.696385 198.257336 
" style="fill:none;stroke:#999999;"/>
    <path clip-path="url(#pb8459df335)" d="M 270.59957 204.770765 
L 271.87132 210.675364 
L 274.070557 220.364155 
" style="fill:none;stroke:#999999;"/>
    <path clip-path="url(#pb8459df335)" d="M 270.59957 204.770765 
L 266.136295 204.938718 
L 258.728554 202.63986 
L 251.580023 198.094631 
L 242.888382 192.993057 
L 239.850762 191.019609 
" style="fill:none;stroke:#999999;"/>
    <path clip-path="url(#pb8459df335)" d="M 272.199383 224.909384 
L 271.004586 230.556805 
" style="fill:none;stroke:#999999;"/>
    <path clip-path="url(#pb8459df335)" d="M 272.199383 224.909384 
L 273.503535 221.755016 
L 274.070557 220.364155 
" style="fill:none;stroke:#999999;"/>
    <path clip-path="url(#pb8459df335)" d="M 272.199383 224.909384 
L 268.959256 223.408304 
L 264.269172 223.061901 
L 258.509845 221.324636 
L 252.122744 217.650664 
" style="fill:none;stroke:#999999;"/>
    <path clip-path="url(#pb8459df335)" d="M 426.380841 232.283572 
L 432.20902 233.317533 
" style="fill:none;stroke:#999999;"/>
    <path clip-path="url(#pb8459df335)" d="M 426.380841 232.283572 
L 417.146478 264.189402 
" style="fill:none;stroke:#999999;"/>
    <path clip-path="url(#pb8459df335)" d="M 426.380841 232.283572 
L 413.639041 228.494132 
L 397.235896 225.775392 
L 382.679624 223.822938 
L 368.783528 225.449983 
" style="fill:none;stroke:#999999;"/>
    <path clip-path="url(#pb8459df335)" d="M 318.743812 227.349952 
L 315.997804 229.816762 
L 313.369251 234.251772 
L 312.57947 238.23016 
" style="fill:none;stroke:#999999;"/>
    <path clip-path="url(#pb8459df335)" d="M 318.743812 227.349952 
L 325.754638 231.533032 
L 327.893122 236.052019 
" style="fill:none;stroke:#999999;"/>
    <path clip-path="url(#pb8459df335)" d="M 318.743812 227.349952 
L 304.353597 214.58552 
L 300.145481 208.387003 
" style="fill:none;stroke:#999999;"/>
    <path clip-path="url(#pb8459df335)" d="M 283.952945 205.809974 
L 286.387091 211.856284 
" style="fill:none;stroke:#999999;"/>
    <path clip-path="url(#pb8459df335)" d="M 343.992504 45.624759 
L 342.267136 37.421303 
L 342.919212 26.992468 
L 344.482573 14.773884 
" style="fill:none;stroke:#999999;"/>
    <path clip-path="url(#pb8459df335)" d="M 343.992504 45.624759 
L 365.296341 37.200864 
L 377.029652 34.812782 
L 373.987983 14.175552 
L 344.482573 14.773884 
" style="fill:none;stroke:#999999;"/>
    <path clip-path="url(#pb8459df335)" d="M 343.992504 45.624759 
L 335.313013 53.282368 
L 326.285208 61.239144 
L 319.367537 67.185731 
" style="fill:none;stroke:#999999;"/>
    <path clip-path="url(#pb8459df335)" d="M 269.696385 198.257336 
L 270.59957 204.770765 
" style="fill:none;stroke:#999999;"/>
    <path clip-path="url(#pb8459df335)" d="M 269.696385 198.257336 
L 266.739769 194.310439 
L 256.185054 165.747925 
" style="fill:none;stroke:#999999;"/>
    <path clip-path="url(#pb8459df335)" d="M 269.696385 198.257336 
L 274.698331 196.772001 
L 278.088315 195.491359 
L 278.73634 190.274317 
L 279.716479 186.364161 
L 282.53944 183.430231 
" style="fill:none;stroke:#999999;"/>
    <path clip-path="url(#pb8459df335)" d="M 310.659694 274.644479 
L 304.049835 274.030401 
L 294.815472 273.594772 
L 283.790939 271.164702 
L 273.762745 267.249297 
L 263.839855 262.074243 
L 258.38429 258.898881 
" style="fill:none;stroke:#999999;"/>
    <path clip-path="url(#pb8459df335)" d="M 310.659694 274.644479 
L 309.242139 286.721352 
L 307.613975 293.780629 
L 303.1588 301.060344 
L 295.771309 308.229839 
L 285.670213 315.619773 
L 281.911665 319.031319 
" style="fill:none;stroke:#999999;"/>
    <path clip-path="url(#pb8459df335)" d="M 310.659694 274.644479 
L 310.979657 271.400886 
L 310.327581 266.95013 
L 312.82653 261.517899 
L 321.408817 260.867081 
" style="fill:none;stroke:#999999;"/>
    <path clip-path="url(#pb8459df335)" d="M 176.810035 355.739556 
L 190.284915 346.229215 
" style="fill:none;stroke:#999999;"/>
    <path clip-path="url(#pb8459df335)" d="M 176.810035 355.739556 
L 171.953895 359.166848 
L 125.223158 405.117751 
L 115.778187 409.605246 
L 90.91021 421.43019 
L 86.455035 423.692308 
" style="fill:none;stroke:#999999;"/>
    <path clip-path="url(#pb8459df335)" d="M 176.810035 355.739556 
L 189.013165 363.302692 
L 213.002257 379.599385 
L 223.431417 389.156963 
" style="fill:none;stroke:#999999;"/>
    <path clip-path="url(#pb8459df335)" d="M 227.56663 347.14246 
L 259.664141 346.486393 
" style="fill:none;stroke:#999999;"/>
    <path clip-path="url(#pb8459df335)" d="M 227.56663 347.14246 
L 223.913386 347.215939 
L 208.356725 347.037489 
L 190.284915 346.229215 
" style="fill:none;stroke:#999999;"/>
    <path clip-path="url(#pb8459df335)" d="M 227.56663 347.14246 
L 228.109351 340.534557 
L 233.811975 338.088741 
L 254.994307 332.929433 
L 261.660869 320.941785 
L 265.654326 308.969882 
" style="fill:none;stroke:#999999;"/>
    <path clip-path="url(#pb8459df335)" d="M 325.884243 260.982549 
L 321.408817 260.867081 
" style="fill:none;stroke:#999999;"/>
    <path clip-path="url(#pb8459df335)" d="M 325.884243 260.982549 
L 334.012912 261.19249 
L 354.32446 259.455226 
L 367.252568 257.822932 
L 374.640058 255.707773 
" style="fill:none;stroke:#999999;"/>
    <path clip-path="url(#pb8459df335)" d="M 325.884243 260.982549 
L 328.492545 285.440711 
L 329.577988 298.693255 
L 327.407102 312.596618 
L 326.119152 324.306094 
L 325.232167 332.36784 
L 325.236217 346.780311 
" style="fill:none;stroke:#999999;"/>
    <path clip-path="url(#pb8459df335)" d="M 239.850762 191.019609 
L 236.99945 189.166877 
L 234.285844 187.539832 
" style="fill:none;stroke:#999999;"/>
    <path clip-path="url(#pb8459df335)" d="M 239.850762 191.019609 
L 242.888382 192.993057 
L 251.580023 198.094631 
L 258.728554 202.63986 
L 266.136295 204.938718 
L 270.59957 204.770765 
" style="fill:none;stroke:#999999;"/>
    <path clip-path="url(#pb8459df335)" d="M 239.850762 191.019609 
L 238.741019 195.249926 
L 237.546222 200.571938 
L 236.622785 205.32186 
L 236.48103 210.155759 
L 237.651526 216.322785 
L 238.498009 223.382061 
L 238.846323 227.622875 
L 239.980367 232.766437 
" style="fill:none;stroke:#999999;"/>
    <path clip-path="url(#pb8459df335)" d="M 281.660555 85.004499 
L 276.136138 101.778809 
" style="fill:none;stroke:#999999;"/>
    <path clip-path="url(#pb8459df335)" d="M 281.660555 85.004499 
L 286.666552 69.804749 
L 293.223759 38.822661 
" style="fill:none;stroke:#999999;"/>
    <path clip-path="url(#pb8459df335)" d="M 281.660555 85.004499 
L 275.350407 81.524722 
L 272.523396 77.394127 
L 268.396284 60.016235 
L 263.617096 55.234822 
L 256.229606 51.539855 
L 252.535861 46.97888 
L 246.885889 33.946774 
" style="fill:none;stroke:#999999;"/>
    <path clip-path="url(#pb8459df335)" d="M 513.046146 351.136593 
L 491.483099 311.809338 
L 480.891933 301.160066 
L 474.19297 292.625952 
" style="fill:none;stroke:#999999;"/>
    <path clip-path="url(#pb8459df335)" d="M 313.717565 346.822299 
L 325.236217 346.780311 
" style="fill:none;stroke:#999999;"/>
    <path clip-path="url(#pb8459df335)" d="M 313.717565 346.822299 
L 281.911665 319.031319 
" style="fill:none;stroke:#999999;"/>
    <path clip-path="url(#pb8459df335)" d="M 313.717565 346.822299 
L 293.057703 346.89053 
L 260.867038 347.331407 
L 259.664141 346.486393 
" style="fill:none;stroke:#999999;"/>
    <path clip-path="url(#pb8459df335)" d="M 251.434217 257.371558 
L 258.38429 258.898881 
" style="fill:none;stroke:#999999;"/>
    <path clip-path="url(#pb8459df335)" d="M 251.434217 257.371558 
L 232.965492 280.82725 
L 215.829268 300.524993 
L 204.205312 309.038113 
L 198.093622 316.55926 
L 191.925229 325.675961 
L 187.494355 332.61977 
L 186.874681 337.758083 
L 187.960123 341.279849 
L 190.284915 346.229215 
" style="fill:none;stroke:#999999;"/>
    <path clip-path="url(#pb8459df335)" d="M 251.434217 257.371558 
L 249.802003 255.083198 
L 247.319256 251.666403 
L 242.770927 245.215957 
L 240.948355 235.490426 
L 239.980367 232.766437 
" style="fill:none;stroke:#999999;"/>
    <path clip-path="url(#pb8459df335)" d="M 212.759248 222.946433 
L 214.0796 220.66857 
L 215.493105 218.065298 
L 217.011915 215.131368 
" style="fill:none;stroke:#999999;"/>
    <path clip-path="url(#pb8459df335)" d="M 212.759248 222.946433 
L 219.510863 226.21102 
L 232.220262 235.768598 
L 239.980367 232.766437 
" style="fill:none;stroke:#999999;"/>
    <path clip-path="url(#pb8459df335)" d="M 212.759248 222.946433 
L 203.64639 218.542914 
L 197.356493 215.021149 
L 193.553393 215.236339 
" style="fill:none;stroke:#999999;"/>
    <path clip-path="url(#pb8459df335)" d="M 258.38429 258.898881 
L 251.434217 257.371558 
" style="fill:none;stroke:#999999;"/>
    <path clip-path="url(#pb8459df335)" d="M 258.38429 258.898881 
L 255.217066 266.157602 
L 257.817268 282.018667 
L 265.654326 308.969882 
" style="fill:none;stroke:#999999;"/>
    <path clip-path="url(#pb8459df335)" d="M 258.38429 258.898881 
L 260.052956 257.082889 
L 262.422299 252.175511 
L 266.245649 242.638927 
L 267.5255 238.702528 
L 268.201876 232.860911 
L 271.004586 230.556805 
" style="fill:none;stroke:#999999;"/>
    <path clip-path="url(#pb8459df335)" d="M 258.38429 258.898881 
L 263.839855 262.074243 
L 273.762745 267.249297 
L 283.790939 271.164702 
L 294.815472 273.594772 
L 304.049835 274.030401 
L 310.659694 274.644479 
" style="fill:none;stroke:#999999;"/>
    <path clip-path="url(#pb8459df335)" d="M 259.664141 346.486393 
L 227.56663 347.14246 
" style="fill:none;stroke:#999999;"/>
    <path clip-path="url(#pb8459df335)" d="M 259.664141 346.486393 
L 265.775831 337.721344 
" style="fill:none;stroke:#999999;"/>
    <path clip-path="url(#pb8459df335)" d="M 259.664141 346.486393 
L 260.867038 347.331407 
L 293.057703 346.89053 
L 313.717565 346.822299 
" style="fill:none;stroke:#999999;"/>
    <path clip-path="url(#pb8459df335)" d="M 265.775831 337.721344 
L 259.664141 346.486393 
" style="fill:none;stroke:#999999;"/>
    <path clip-path="url(#pb8459df335)" d="M 265.775831 337.721344 
L 270.623871 327.129805 
L 265.654326 308.969882 
" style="fill:none;stroke:#999999;"/>
    <path clip-path="url(#pb8459df335)" d="M 265.775831 337.721344 
L 277.302584 323.224897 
L 281.911665 319.031319 
" style="fill:none;stroke:#999999;"/>
    <path clip-path="url(#pb8459df335)" d="M 265.654326 308.969882 
L 270.623871 327.129805 
L 265.775831 337.721344 
" style="fill:none;stroke:#999999;"/>
    <path clip-path="url(#pb8459df335)" d="M 265.654326 308.969882 
L 257.817268 282.018667 
L 255.217066 266.157602 
L 258.38429 258.898881 
" style="fill:none;stroke:#999999;"/>
    <path clip-path="url(#pb8459df335)" d="M 265.654326 308.969882 
L 261.660869 320.941785 
L 254.994307 332.929433 
L 233.811975 338.088741 
L 228.109351 340.534557 
L 227.56663 347.14246 
" style="fill:none;stroke:#999999;"/>
    <path clip-path="url(#pb8459df335)" d="M 239.980367 232.766437 
L 240.948355 235.490426 
L 242.770927 245.215957 
L 247.319256 251.666403 
L 249.802003 255.083198 
L 251.434217 257.371558 
" style="fill:none;stroke:#999999;"/>
    <path clip-path="url(#pb8459df335)" d="M 239.980367 232.766437 
L 238.846323 227.622875 
L 238.498009 223.382061 
L 237.651526 216.322785 
L 236.48103 210.155759 
L 236.622785 205.32186 
L 237.546222 200.571938 
L 238.741019 195.249926 
L 239.850762 191.019609 
" style="fill:none;stroke:#999999;"/>
    <path clip-path="url(#pb8459df335)" d="M 239.980367 232.766437 
L 232.220262 235.768598 
L 219.510863 226.21102 
L 212.759248 222.946433 
" style="fill:none;stroke:#999999;"/>
    <path clip-path="url(#pb8459df335)" d="M 239.980367 232.766437 
L 246.711732 232.530253 
L 254.532589 231.443807 
L 259.093068 230.903208 
L 264.419028 231.443807 
L 271.004586 230.556805 
" style="fill:none;stroke:#999999;"/>
    <path clip-path="url(#pb8459df335)" d="M 325.236217 346.780311 
L 313.717565 346.822299 
" style="fill:none;stroke:#999999;"/>
    <path clip-path="url(#pb8459df335)" d="M 325.236217 346.780311 
L 331.526114 346.759317 
L 359.824576 345.447184 
L 388.025834 337.821066 
L 406.838823 329.087508 
L 418.138767 324.2851 
L 432.500632 310.780626 
L 460.539883 305.978219 
L 474.19297 292.625952 
" style="fill:none;stroke:#999999;"/>
    <path clip-path="url(#pb8459df335)" d="M 325.236217 346.780311 
L 325.232167 332.36784 
L 326.119152 324.306094 
L 327.407102 312.596618 
L 329.577988 298.693255 
L 328.492545 285.440711 
L 325.884243 260.982549 
" style="fill:none;stroke:#999999;"/>
    <path clip-path="url(#pb8459df335)" d="M 172.581669 181.944896 
L 157.045259 184.873577 
L 151.528942 186.038752 
L 169.450896 198.750698 
" style="fill:none;stroke:#999999;"/>
    <path clip-path="url(#pb8459df335)" d="M 172.581669 181.944896 
L 181.710728 193.94829 
L 189.098218 203.941496 
L 193.569594 211.677833 
L 193.553393 215.236339 
" style="fill:none;stroke:#999999;"/>
    <path clip-path="url(#pb8459df335)" d="M 172.581669 181.944896 
L 177.522863 181.46728 
L 189.65714 181.803186 
L 202.475894 178.979475 
L 213.123762 179.194665 
L 228.417163 185.582129 
L 234.285844 187.539832 
" style="fill:none;stroke:#999999;"/>
    <path clip-path="url(#pb8459df335)" d="M 172.581669 181.944896 
L 169.220037 179.71427 
L 162.047205 180.365088 
L 151.7436 182.233566 
L 144.886681 183.194047 
L 139.670076 184.821092 
" style="fill:none;stroke:#999999;"/>
    <path clip-path="url(#pb8459df335)" d="M 123.270982 148.438264 
L 128.920954 164.939651 
L 132.853658 170.755025 
L 134.352217 177.761816 
L 139.670076 184.821092 
" style="fill:none;stroke:#999999;"/>
    <path clip-path="url(#pb8459df335)" d="M 246.885889 33.946774 
L 252.535861 46.97888 
L 256.229606 51.539855 
L 263.617096 55.234822 
L 268.396284 60.016235 
L 272.523396 77.394127 
L 275.350407 81.524722 
L 281.660555 85.004499 
" style="fill:none;stroke:#999999;"/>
    <path clip-path="url(#pb8459df335)" d="M 286.387091 211.856284 
L 283.952945 205.809974 
" style="fill:none;stroke:#999999;"/>
    <path clip-path="url(#pb8459df335)" d="M 286.387091 211.856284 
L 282.952556 212.738037 
L 274.070557 220.364155 
" style="fill:none;stroke:#999999;"/>
    <path clip-path="url(#pb8459df335)" d="M 286.387091 211.856284 
L 290.558755 210.785583 
L 300.145481 208.387003 
" style="fill:none;stroke:#999999;"/>
    <path clip-path="url(#pb8459df335)" d="M 234.285844 187.539832 
L 236.99945 189.166877 
L 239.850762 191.019609 
" style="fill:none;stroke:#999999;"/>
    <path clip-path="url(#pb8459df335)" d="M 234.285844 187.539832 
L 239.717107 178.848262 
L 246.233813 171.893956 
L 256.185054 165.747925 
" style="fill:none;stroke:#999999;"/>
    <path clip-path="url(#pb8459df335)" d="M 234.285844 187.539832 
L 228.417163 185.582129 
L 213.123762 179.194665 
L 202.475894 178.979475 
L 189.65714 181.803186 
L 177.522863 181.46728 
L 172.581669 181.944896 
" style="fill:none;stroke:#999999;"/>
    <path clip-path="url(#pb8459df335)" d="M 217.011915 215.131368 
L 215.493105 218.065298 
L 214.0796 220.66857 
L 212.759248 222.946433 
" style="fill:none;stroke:#999999;"/>
    <path clip-path="url(#pb8459df335)" d="M 345.308806 8.307692 
L 344.482573 14.773884 
" style="fill:none;stroke:#999999;"/>
    <path clip-path="url(#pb8459df335)" d="M 139.670076 184.821092 
L 144.886681 183.194047 
L 151.7436 182.233566 
L 162.047205 180.365088 
L 169.220037 179.71427 
L 172.581669 181.944896 
" style="fill:none;stroke:#999999;"/>
    <path clip-path="url(#pb8459df335)" d="M 139.670076 184.821092 
L 139.560722 192.315997 
L 139.77943 201.332976 
L 141.29824 205.463571 
L 148.471072 212.197438 
L 155.332041 217.650664 
L 169.450896 198.750698 
" style="fill:none;stroke:#999999;"/>
    <path clip-path="url(#pb8459df335)" d="M 139.670076 184.821092 
L 134.352217 177.761816 
L 132.853658 170.755025 
L 128.920954 164.939651 
L 123.270982 148.438264 
" style="fill:none;stroke:#999999;"/>
    <path clip-path="url(#pb8459df335)" d="M 417.146478 264.189402 
L 488.761392 278.376186 
" style="fill:none;stroke:#999999;"/>
    <path clip-path="url(#pb8459df335)" d="M 417.146478 264.189402 
L 374.640058 255.707773 
" style="fill:none;stroke:#999999;"/>
    <path clip-path="url(#pb8459df335)" d="M 417.146478 264.189402 
L 426.380841 232.283572 
" style="fill:none;stroke:#999999;"/>
    <path clip-path="url(#pb8459df335)" d="M 583.725474 283.76118 
L 582.781786 290.437314 
" style="fill:none;stroke:#999999;"/>
   </g>
  </g>
 </g>
 <defs>
  <clipPath id="pb8459df335">
   <rect height="432" width="517.161256" x="76.509626" y="0"/>
  </clipPath>
 </defs>
</svg>
