<?xml version="1.0" encoding="utf-8" standalone="no"?>
<!DOCTYPE svg PUBLIC "-//W3C//DTD SVG 1.1//EN"
  "http://www.w3.org/Graphics/SVG/1.1/DTD/svg11.dtd">
<!-- Created with matplotlib (http://matplotlib.org/) -->
<svg height="432pt" version="1.1" viewBox="0 0 691.109541 432" width="691.109541pt" xmlns="http://www.w3.org/2000/svg" xmlns:xlink="http://www.w3.org/1999/xlink">
 <defs>
  <style type="text/css">
*{stroke-linecap:butt;stroke-linejoin:round;}
  </style>
 </defs>
 <g id="figure_1">
  <g id="patch_1">
   <path d="M 0 432 
L 691.109541 432 
L 691.109541 0 
L 0 0 
z
" style="fill:none;opacity:0;"/>
  </g>
  <g id="axes_1">
   <g id="PathCollection_1">
    <defs>
     <path d="M 0 1.936492 
C 0.513564 1.936492 1.006162 1.732451 1.369306 1.369306 
C 1.732451 1.006162 1.936492 0.513564 1.936492 0 
C 1.936492 -0.513564 1.732451 -1.006162 1.369306 -1.369306 
C 1.006162 -1.732451 0.513564 -1.936492 0 -1.936492 
C -0.513564 -1.936492 -1.006162 -1.732451 -1.369306 -1.369306 
C -1.732451 -1.006162 -1.936492 -0.513564 -1.936492 0 
C -1.936492 0.513564 -1.732451 1.006162 -1.369306 1.369306 
C -1.006162 1.732451 -0.513564 1.936492 0 1.936492 
z
" id="C0_0_4a8e2f4b58"/>
    </defs>
    <g clip-path="url(#p4caa7261a4)">
     <use style="fill:#66ccff;" x="458.565578" xlink:href="#C0_0_4a8e2f4b58" y="74.694103"/>
    </g>
    <g clip-path="url(#p4caa7261a4)">
     <use style="fill:#66ccff;" x="602.955215" xlink:href="#C0_0_4a8e2f4b58" y="63.702184"/>
    </g>
    <g clip-path="url(#p4caa7261a4)">
     <use style="fill:#66ccff;" x="367.263197" xlink:href="#C0_0_4a8e2f4b58" y="199.834711"/>
    </g>
    <g clip-path="url(#p4caa7261a4)">
     <use style="fill:#66ccff;" x="367.155831" xlink:href="#C0_0_4a8e2f4b58" y="195.337582"/>
    </g>
    <g clip-path="url(#p4caa7261a4)">
     <use style="fill:#66ccff;" x="392.37959" xlink:href="#C0_0_4a8e2f4b58" y="201.564743"/>
    </g>
    <g clip-path="url(#p4caa7261a4)">
     <use style="fill:#66ccff;" x="382.490751" xlink:href="#C0_0_4a8e2f4b58" y="153.085602"/>
    </g>
    <g clip-path="url(#p4caa7261a4)">
     <use style="fill:#66ccff;" x="359.35879" xlink:href="#C0_0_4a8e2f4b58" y="154.371178"/>
    </g>
    <g clip-path="url(#p4caa7261a4)">
     <use style="fill:#66ccff;" x="391.972337" xlink:href="#C0_0_4a8e2f4b58" y="126.126726"/>
    </g>
    <g clip-path="url(#p4caa7261a4)">
     <use style="fill:#66ccff;" x="375.141688" xlink:href="#C0_0_4a8e2f4b58" y="123.99047"/>
    </g>
    <g clip-path="url(#p4caa7261a4)">
     <use style="fill:#66ccff;" x="366.20434" xlink:href="#C0_0_4a8e2f4b58" y="77.719271"/>
    </g>
    <g clip-path="url(#p4caa7261a4)">
     <use style="fill:#66ccff;" x="353.705381" xlink:href="#C0_0_4a8e2f4b58" y="85.872407"/>
    </g>
    <g clip-path="url(#p4caa7261a4)">
     <use style="fill:#66ccff;" x="374.179091" xlink:href="#C0_0_4a8e2f4b58" y="111.813336"/>
    </g>
    <g clip-path="url(#p4caa7261a4)">
     <use style="fill:#66ccff;" x="357.026342" xlink:href="#C0_0_4a8e2f4b58" y="103.837026"/>
    </g>
    <g clip-path="url(#p4caa7261a4)">
     <use style="fill:#66ccff;" x="365.56014" xlink:href="#C0_0_4a8e2f4b58" y="105.222963"/>
    </g>
    <g clip-path="url(#p4caa7261a4)">
     <use style="fill:#66ccff;" x="301.162362" xlink:href="#C0_0_4a8e2f4b58" y="300.353419"/>
    </g>
    <g clip-path="url(#p4caa7261a4)">
     <use style="fill:#66ccff;" x="275.938603" xlink:href="#C0_0_4a8e2f4b58" y="423.692308"/>
    </g>
    <g clip-path="url(#p4caa7261a4)">
     <use style="fill:#66ccff;" x="344.656963" xlink:href="#C0_0_4a8e2f4b58" y="259.635529"/>
    </g>
    <g clip-path="url(#p4caa7261a4)">
     <use style="fill:#66ccff;" x="346.334104" xlink:href="#C0_0_4a8e2f4b58" y="225.584475"/>
    </g>
    <g clip-path="url(#p4caa7261a4)">
     <use style="fill:#66ccff;" x="333.731481" xlink:href="#C0_0_4a8e2f4b58" y="254.373745"/>
    </g>
    <g clip-path="url(#p4caa7261a4)">
     <use style="fill:#66ccff;" x="331.051017" xlink:href="#C0_0_4a8e2f4b58" y="256.361848"/>
    </g>
    <g clip-path="url(#p4caa7261a4)">
     <use style="fill:#66ccff;" x="370.872938" xlink:href="#C0_0_4a8e2f4b58" y="124.038261"/>
    </g>
    <g clip-path="url(#p4caa7261a4)">
     <use style="fill:#66ccff;" x="373.105424" xlink:href="#C0_0_4a8e2f4b58" y="119.321294"/>
    </g>
    <g clip-path="url(#p4caa7261a4)">
     <use style="fill:#66ccff;" x="377.240891" xlink:href="#C0_0_4a8e2f4b58" y="103.884817"/>
    </g>
    <g clip-path="url(#p4caa7261a4)">
     <use style="fill:#66ccff;" x="367.34835" xlink:href="#C0_0_4a8e2f4b58" y="101.748561"/>
    </g>
    <g clip-path="url(#p4caa7261a4)">
     <use style="fill:#66ccff;" x="358.847873" xlink:href="#C0_0_4a8e2f4b58" y="146.160693"/>
    </g>
    <g clip-path="url(#p4caa7261a4)">
     <use style="fill:#66ccff;" x="432.142274" xlink:href="#C0_0_4a8e2f4b58" y="145.639771"/>
    </g>
    <g clip-path="url(#p4caa7261a4)">
     <use style="fill:#66ccff;" x="385.56736" xlink:href="#C0_0_4a8e2f4b58" y="239.678027"/>
    </g>
    <g clip-path="url(#p4caa7261a4)">
     <use style="fill:#66ccff;" x="373.009164" xlink:href="#C0_0_4a8e2f4b58" y="202.047432"/>
    </g>
    <g clip-path="url(#p4caa7261a4)">
     <use style="fill:#66ccff;" x="375.041726" xlink:href="#C0_0_4a8e2f4b58" y="209.885148"/>
    </g>
    <g clip-path="url(#p4caa7261a4)">
     <use style="fill:#66ccff;" x="391.724283" xlink:href="#C0_0_4a8e2f4b58" y="211.175503"/>
    </g>
    <g clip-path="url(#p4caa7261a4)">
     <use style="fill:#66ccff;" x="477.325124" xlink:href="#C0_0_4a8e2f4b58" y="236.399568"/>
    </g>
    <g clip-path="url(#p4caa7261a4)">
     <use style="fill:#66ccff;" x="509.498097" xlink:href="#C0_0_4a8e2f4b58" y="164.106195"/>
    </g>
    <g clip-path="url(#p4caa7261a4)">
     <use style="fill:#66ccff;" x="461.238637" xlink:href="#C0_0_4a8e2f4b58" y="178.309666"/>
    </g>
    <g clip-path="url(#p4caa7261a4)">
     <use style="fill:#66ccff;" x="361.735666" xlink:href="#C0_0_4a8e2f4b58" y="133.324043"/>
    </g>
    <g clip-path="url(#p4caa7261a4)">
     <use style="fill:#66ccff;" x="357.067067" xlink:href="#C0_0_4a8e2f4b58" y="99.564515"/>
    </g>
    <g clip-path="url(#p4caa7261a4)">
     <use style="fill:#66ccff;" x="361.876353" xlink:href="#C0_0_4a8e2f4b58" y="197.110626"/>
    </g>
    <g clip-path="url(#p4caa7261a4)">
     <use style="fill:#66ccff;" x="273.950469" xlink:href="#C0_0_4a8e2f4b58" y="173.344186"/>
    </g>
    <g clip-path="url(#p4caa7261a4)">
     <use style="fill:#66ccff;" x="368.188772" xlink:href="#C0_0_4a8e2f4b58" y="198.367528"/>
    </g>
    <g clip-path="url(#p4caa7261a4)">
     <use style="fill:#66ccff;" x="349.221897" xlink:href="#C0_0_4a8e2f4b58" y="227.46266"/>
    </g>
    <g clip-path="url(#p4caa7261a4)">
     <use style="fill:#66ccff;" x="247.042164" xlink:href="#C0_0_4a8e2f4b58" y="241.365048"/>
    </g>
    <g clip-path="url(#p4caa7261a4)">
     <use style="fill:#66ccff;" x="88.154326" xlink:href="#C0_0_4a8e2f4b58" y="194.095017"/>
    </g>
    <g clip-path="url(#p4caa7261a4)">
     <use style="fill:#66ccff;" x="218.638131" xlink:href="#C0_0_4a8e2f4b58" y="155.666313"/>
    </g>
    <g clip-path="url(#p4caa7261a4)">
     <use style="fill:#66ccff;" x="297.685904" xlink:href="#C0_0_4a8e2f4b58" y="113.763206"/>
    </g>
    <g clip-path="url(#p4caa7261a4)">
     <use style="fill:#66ccff;" x="343.860969" xlink:href="#C0_0_4a8e2f4b58" y="90.326524"/>
    </g>
    <g clip-path="url(#p4caa7261a4)">
     <use style="fill:#66ccff;" x="353.098204" xlink:href="#C0_0_4a8e2f4b58" y="80.89259"/>
    </g>
    <g clip-path="url(#p4caa7261a4)">
     <use style="fill:#66ccff;" x="457.562255" xlink:href="#C0_0_4a8e2f4b58" y="88.142477"/>
    </g>
    <g clip-path="url(#p4caa7261a4)">
     <use style="fill:#66ccff;" x="394.604671" xlink:href="#C0_0_4a8e2f4b58" y="94.599035"/>
    </g>
    <g clip-path="url(#p4caa7261a4)">
     <use style="fill:#66ccff;" x="399.273269" xlink:href="#C0_0_4a8e2f4b58" y="53.345885"/>
    </g>
    <g clip-path="url(#p4caa7261a4)">
     <use style="fill:#66ccff;" x="383.582929" xlink:href="#C0_0_4a8e2f4b58" y="105.519267"/>
    </g>
    <g clip-path="url(#p4caa7261a4)">
     <use style="fill:#66ccff;" x="395.400665" xlink:href="#C0_0_4a8e2f4b58" y="100.955231"/>
    </g>
    <g clip-path="url(#p4caa7261a4)">
     <use style="fill:#66ccff;" x="459.450427" xlink:href="#C0_0_4a8e2f4b58" y="92.113905"/>
    </g>
   </g>
   <g id="LineCollection_1">
    <path clip-path="url(#p4caa7261a4)" d="M 458.565578 74.694103 
L 457.562255 88.142477 
" style="fill:none;stroke:#999999;"/>
    <path clip-path="url(#p4caa7261a4)" d="M 458.565578 74.694103 
L 582.222344 71.826646 
L 602.955215 63.702184 
" style="fill:none;stroke:#999999;"/>
    <path clip-path="url(#p4caa7261a4)" d="M 458.565578 74.694103 
L 413.767767 63.702184 
L 403.771562 58.923089 
L 399.273269 53.345885 
" style="fill:none;stroke:#999999;"/>
    <path clip-path="url(#p4caa7261a4)" d="M 602.955215 63.702184 
L 582.222344 71.826646 
L 458.565578 74.694103 
" style="fill:none;stroke:#999999;"/>
    <path clip-path="url(#p4caa7261a4)" d="M 602.955215 63.702184 
L 586.361514 76.624858 
L 575.436031 79.802956 
L 520.719763 84.567714 
L 459.450427 92.113905 
" style="fill:none;stroke:#999999;"/>
    <path clip-path="url(#p4caa7261a4)" d="M 367.263197 199.834711 
L 361.876353 197.110626 
" style="fill:none;stroke:#999999;"/>
    <path clip-path="url(#p4caa7261a4)" d="M 367.263197 199.834711 
L 368.188772 198.367528 
" style="fill:none;stroke:#999999;"/>
    <path clip-path="url(#p4caa7261a4)" d="M 367.263197 199.834711 
L 363.22399 206.210024 
L 356.074852 220.513855 
L 349.221897 227.46266 
" style="fill:none;stroke:#999999;"/>
    <path clip-path="url(#p4caa7261a4)" d="M 367.155831 195.337582 
L 368.188772 198.367528 
" style="fill:none;stroke:#999999;"/>
    <path clip-path="url(#p4caa7261a4)" d="M 367.155831 195.337582 
L 361.876353 197.110626 
" style="fill:none;stroke:#999999;"/>
    <path clip-path="url(#p4caa7261a4)" d="M 367.155831 195.337582 
L 365.312086 189.927646 
L 362.231774 176.918949 
L 359.751234 160.932876 
L 359.35879 154.371178 
" style="fill:none;stroke:#999999;"/>
    <path clip-path="url(#p4caa7261a4)" d="M 392.37959 201.564743 
L 391.724283 211.175503 
" style="fill:none;stroke:#999999;"/>
    <path clip-path="url(#p4caa7261a4)" d="M 392.37959 201.564743 
L 394.408449 202.238595 
L 399.669415 202.042653 
L 409.302795 199.954188 
L 430.75021 191.815389 
L 452.797397 183.074424 
L 461.238637 178.309666 
" style="fill:none;stroke:#999999;"/>
    <path clip-path="url(#p4caa7261a4)" d="M 392.37959 201.564743 
L 388.747635 200.355632 
L 380.206432 200.847879 
L 373.009164 202.047432 
" style="fill:none;stroke:#999999;"/>
    <path clip-path="url(#p4caa7261a4)" d="M 382.490751 153.085602 
L 370.276868 152.789298 
L 359.35879 154.371178 
" style="fill:none;stroke:#999999;"/>
    <path clip-path="url(#p4caa7261a4)" d="M 359.35879 154.371178 
L 370.276868 152.789298 
L 382.490751 153.085602 
" style="fill:none;stroke:#999999;"/>
    <path clip-path="url(#p4caa7261a4)" d="M 359.35879 154.371178 
L 359.751234 160.932876 
L 362.231774 176.918949 
L 365.312086 189.927646 
L 367.155831 195.337582 
" style="fill:none;stroke:#999999;"/>
    <path clip-path="url(#p4caa7261a4)" d="M 359.35879 154.371178 
L 359.055202 149.214534 
L 358.847873 146.160693 
" style="fill:none;stroke:#999999;"/>
    <path clip-path="url(#p4caa7261a4)" d="M 391.972337 126.126726 
L 383.13495 124.090831 
L 375.141688 123.99047 
" style="fill:none;stroke:#999999;"/>
    <path clip-path="url(#p4caa7261a4)" d="M 375.141688 123.99047 
L 370.872938 124.038261 
" style="fill:none;stroke:#999999;"/>
    <path clip-path="url(#p4caa7261a4)" d="M 375.141688 123.99047 
L 383.13495 124.090831 
L 391.972337 126.126726 
" style="fill:none;stroke:#999999;"/>
    <path clip-path="url(#p4caa7261a4)" d="M 375.141688 123.99047 
L 375.093558 119.474225 
L 373.105424 119.321294 
" style="fill:none;stroke:#999999;"/>
    <path clip-path="url(#p4caa7261a4)" d="M 366.20434 77.719271 
L 362.231774 82.732541 
L 353.705381 85.872407 
" style="fill:none;stroke:#999999;"/>
    <path clip-path="url(#p4caa7261a4)" d="M 353.705381 85.872407 
L 353.098204 80.89259 
" style="fill:none;stroke:#999999;"/>
    <path clip-path="url(#p4caa7261a4)" d="M 353.705381 85.872407 
L 354.386603 91.420937 
L 357.067067 99.564515 
" style="fill:none;stroke:#999999;"/>
    <path clip-path="url(#p4caa7261a4)" d="M 353.705381 85.872407 
L 362.231774 82.732541 
L 366.20434 77.719271 
" style="fill:none;stroke:#999999;"/>
    <path clip-path="url(#p4caa7261a4)" d="M 374.179091 111.813336 
L 373.105424 119.321294 
" style="fill:none;stroke:#999999;"/>
    <path clip-path="url(#p4caa7261a4)" d="M 374.179091 111.813336 
L 377.240891 103.884817 
" style="fill:none;stroke:#999999;"/>
    <path clip-path="url(#p4caa7261a4)" d="M 374.179091 111.813336 
L 365.56014 105.222963 
" style="fill:none;stroke:#999999;"/>
    <path clip-path="url(#p4caa7261a4)" d="M 357.026342 103.837026 
L 357.067067 99.564515 
" style="fill:none;stroke:#999999;"/>
    <path clip-path="url(#p4caa7261a4)" d="M 357.026342 103.837026 
L 365.56014 105.222963 
" style="fill:none;stroke:#999999;"/>
    <path clip-path="url(#p4caa7261a4)" d="M 357.026342 103.837026 
L 356.970808 109.294752 
L 360.347304 125.481548 
L 361.735666 133.324043 
" style="fill:none;stroke:#999999;"/>
    <path clip-path="url(#p4caa7261a4)" d="M 365.56014 105.222963 
L 374.179091 111.813336 
" style="fill:none;stroke:#999999;"/>
    <path clip-path="url(#p4caa7261a4)" d="M 365.56014 105.222963 
L 357.026342 103.837026 
" style="fill:none;stroke:#999999;"/>
    <path clip-path="url(#p4caa7261a4)" d="M 365.56014 105.222963 
L 367.34835 101.748561 
" style="fill:none;stroke:#999999;"/>
    <path clip-path="url(#p4caa7261a4)" d="M 301.162362 300.353419 
L 304.039048 294.393888 
L 306.919436 289.031743 
L 310.79204 284.266985 
L 321.417636 273.738638 
L 332.343119 262.316601 
L 331.051017 256.361848 
" style="fill:none;stroke:#999999;"/>
    <path clip-path="url(#p4caa7261a4)" d="M 275.938603 423.692308 
L 281.199569 413.861709 
L 282.887817 413.957291 
L 288.748555 416.939446 
L 292.521197 416.638363 
L 297.882125 413.364683 
L 303.046832 406.807764 
L 309.303716 394.095371 
L 321.121452 368.675364 
L 322.909663 354.772976 
L 324.198062 346.825341 
L 327.178413 341.066531 
L 329.958839 336.00069 
L 331.250941 330.241881 
L 332.343119 317.730209 
L 334.723697 299.259007 
L 337.008015 283.468876 
L 341.180505 270.856844 
L 344.656963 259.635529 
" style="fill:none;stroke:#999999;"/>
    <path clip-path="url(#p4caa7261a4)" d="M 344.656963 259.635529 
L 333.731481 254.373745 
" style="fill:none;stroke:#999999;"/>
    <path clip-path="url(#p4caa7261a4)" d="M 344.656963 259.635529 
L 348.629529 248.318631 
L 356.074852 235.802181 
L 355.478781 233.025527 
L 349.221897 227.46266 
" style="fill:none;stroke:#999999;"/>
    <path clip-path="url(#p4caa7261a4)" d="M 344.656963 259.635529 
L 341.180505 270.856844 
L 337.008015 283.468876 
L 334.723697 299.259007 
L 332.343119 317.730209 
L 331.250941 330.241881 
L 329.958839 336.00069 
L 327.178413 341.066531 
L 324.198062 346.825341 
L 322.909663 354.772976 
L 321.121452 368.675364 
L 309.303716 394.095371 
L 303.046832 406.807764 
L 297.882125 413.364683 
L 292.521197 416.638363 
L 288.748555 416.939446 
L 282.887817 413.957291 
L 281.199569 413.861709 
L 275.938603 423.692308 
" style="fill:none;stroke:#999999;"/>
    <path clip-path="url(#p4caa7261a4)" d="M 346.334104 225.584475 
L 349.221897 227.46266 
" style="fill:none;stroke:#999999;"/>
    <path clip-path="url(#p4caa7261a4)" d="M 346.334104 225.584475 
L 341.576651 222.49718 
L 331.150979 227.859325 
L 314.764606 239.181001 
L 327.774483 256.161126 
L 331.051017 256.361848 
" style="fill:none;stroke:#999999;"/>
    <path clip-path="url(#p4caa7261a4)" d="M 346.334104 225.584475 
L 338.300117 240.370996 
L 340.784359 241.962435 
L 333.731481 254.373745 
" style="fill:none;stroke:#999999;"/>
    <path clip-path="url(#p4caa7261a4)" d="M 333.731481 254.373745 
L 344.656963 259.635529 
" style="fill:none;stroke:#999999;"/>
    <path clip-path="url(#p4caa7261a4)" d="M 333.731481 254.373745 
L 331.051017 256.361848 
" style="fill:none;stroke:#999999;"/>
    <path clip-path="url(#p4caa7261a4)" d="M 333.731481 254.373745 
L 340.784359 241.962435 
L 338.300117 240.370996 
L 346.334104 225.584475 
" style="fill:none;stroke:#999999;"/>
    <path clip-path="url(#p4caa7261a4)" d="M 331.051017 256.361848 
L 333.731481 254.373745 
" style="fill:none;stroke:#999999;"/>
    <path clip-path="url(#p4caa7261a4)" d="M 331.051017 256.361848 
L 332.343119 262.316601 
L 321.417636 273.738638 
L 310.79204 284.266985 
L 306.919436 289.031743 
L 304.039048 294.393888 
L 301.162362 300.353419 
" style="fill:none;stroke:#999999;"/>
    <path clip-path="url(#p4caa7261a4)" d="M 331.051017 256.361848 
L 327.774483 256.161126 
L 314.764606 239.181001 
L 331.150979 227.859325 
L 341.576651 222.49718 
L 346.334104 225.584475 
" style="fill:none;stroke:#999999;"/>
    <path clip-path="url(#p4caa7261a4)" d="M 370.872938 124.038261 
L 361.735666 133.324043 
" style="fill:none;stroke:#999999;"/>
    <path clip-path="url(#p4caa7261a4)" d="M 370.872938 124.038261 
L 375.141688 123.99047 
" style="fill:none;stroke:#999999;"/>
    <path clip-path="url(#p4caa7261a4)" d="M 370.872938 124.038261 
L 370.624884 119.273503 
L 373.105424 119.321294 
" style="fill:none;stroke:#999999;"/>
    <path clip-path="url(#p4caa7261a4)" d="M 373.105424 119.321294 
L 374.179091 111.813336 
" style="fill:none;stroke:#999999;"/>
    <path clip-path="url(#p4caa7261a4)" d="M 373.105424 119.321294 
L 370.624884 119.273503 
L 370.872938 124.038261 
" style="fill:none;stroke:#999999;"/>
    <path clip-path="url(#p4caa7261a4)" d="M 373.105424 119.321294 
L 375.093558 119.474225 
L 375.141688 123.99047 
" style="fill:none;stroke:#999999;"/>
    <path clip-path="url(#p4caa7261a4)" d="M 377.240891 103.884817 
L 374.179091 111.813336 
" style="fill:none;stroke:#999999;"/>
    <path clip-path="url(#p4caa7261a4)" d="M 377.240891 103.884817 
L 367.34835 101.748561 
" style="fill:none;stroke:#999999;"/>
    <path clip-path="url(#p4caa7261a4)" d="M 377.240891 103.884817 
L 383.582929 105.519267 
" style="fill:none;stroke:#999999;"/>
    <path clip-path="url(#p4caa7261a4)" d="M 367.34835 101.748561 
L 365.56014 105.222963 
" style="fill:none;stroke:#999999;"/>
    <path clip-path="url(#p4caa7261a4)" d="M 367.34835 101.748561 
L 377.240891 103.884817 
" style="fill:none;stroke:#999999;"/>
    <path clip-path="url(#p4caa7261a4)" d="M 367.34835 101.748561 
L 363.99777 97.585969 
L 357.067067 99.564515 
" style="fill:none;stroke:#999999;"/>
    <path clip-path="url(#p4caa7261a4)" d="M 358.847873 146.160693 
L 371.765192 143.752029 
L 383.482967 143.85239 
L 392.220391 144.048333 
L 410.494936 144.841662 
L 432.142274 145.639771 
" style="fill:none;stroke:#999999;"/>
    <path clip-path="url(#p4caa7261a4)" d="M 358.847873 146.160693 
L 359.055202 149.214534 
L 359.35879 154.371178 
" style="fill:none;stroke:#999999;"/>
    <path clip-path="url(#p4caa7261a4)" d="M 358.847873 146.160693 
L 358.35917 138.88691 
L 361.735666 133.324043 
" style="fill:none;stroke:#999999;"/>
    <path clip-path="url(#p4caa7261a4)" d="M 432.142274 145.639771 
L 410.494936 144.841662 
L 392.220391 144.048333 
L 383.482967 143.85239 
L 371.765192 143.752029 
L 358.847873 146.160693 
" style="fill:none;stroke:#999999;"/>
    <path clip-path="url(#p4caa7261a4)" d="M 432.142274 145.639771 
L 427.6736 133.324043 
L 424.297104 128.559285 
L 419.132398 125.978574 
L 400.561669 116.444279 
L 383.582929 105.519267 
" style="fill:none;stroke:#999999;"/>
    <path clip-path="url(#p4caa7261a4)" d="M 432.142274 145.639771 
L 436.810873 153.381905 
L 451.605257 171.059779 
L 461.238637 178.309666 
" style="fill:none;stroke:#999999;"/>
    <path clip-path="url(#p4caa7261a4)" d="M 385.56736 239.678027 
L 385.471101 234.315882 
L 383.383004 225.775639 
L 380.802502 219.218721 
L 375.041726 209.885148 
" style="fill:none;stroke:#999999;"/>
    <path clip-path="url(#p4caa7261a4)" d="M 373.009164 202.047432 
L 375.041726 209.885148 
" style="fill:none;stroke:#999999;"/>
    <path clip-path="url(#p4caa7261a4)" d="M 373.009164 202.047432 
L 372.461224 202.143014 
L 368.188772 198.367528 
" style="fill:none;stroke:#999999;"/>
    <path clip-path="url(#p4caa7261a4)" d="M 373.009164 202.047432 
L 380.206432 200.847879 
L 388.747635 200.355632 
L 392.37959 201.564743 
" style="fill:none;stroke:#999999;"/>
    <path clip-path="url(#p4caa7261a4)" d="M 375.041726 209.885148 
L 373.009164 202.047432 
" style="fill:none;stroke:#999999;"/>
    <path clip-path="url(#p4caa7261a4)" d="M 375.041726 209.885148 
L 379.114254 209.091818 
L 385.371139 209.689205 
L 391.724283 211.175503 
" style="fill:none;stroke:#999999;"/>
    <path clip-path="url(#p4caa7261a4)" d="M 375.041726 209.885148 
L 380.802502 219.218721 
L 383.383004 225.775639 
L 385.471101 234.315882 
L 385.56736 239.678027 
" style="fill:none;stroke:#999999;"/>
    <path clip-path="url(#p4caa7261a4)" d="M 391.724283 211.175503 
L 392.37959 201.564743 
" style="fill:none;stroke:#999999;"/>
    <path clip-path="url(#p4caa7261a4)" d="M 391.724283 211.175503 
L 385.371139 209.689205 
L 379.114254 209.091818 
L 375.041726 209.885148 
" style="fill:none;stroke:#999999;"/>
    <path clip-path="url(#p4caa7261a4)" d="M 391.724283 211.175503 
L 406.918515 215.548376 
L 417.048004 217.431339 
L 425.589206 220.609437 
L 449.320939 229.14968 
L 467.195635 235.405516 
L 477.325124 236.399568 
" style="fill:none;stroke:#999999;"/>
    <path clip-path="url(#p4caa7261a4)" d="M 477.325124 236.399568 
L 467.195635 235.405516 
L 449.320939 229.14968 
L 425.589206 220.609437 
L 417.048004 217.431339 
L 406.918515 215.548376 
L 391.724283 211.175503 
" style="fill:none;stroke:#999999;"/>
    <path clip-path="url(#p4caa7261a4)" d="M 509.498097 164.106195 
L 500.560749 168.574649 
L 490.93107 171.356082 
L 479.709404 173.740851 
L 468.683959 177.415975 
L 461.238637 178.309666 
" style="fill:none;stroke:#999999;"/>
    <path clip-path="url(#p4caa7261a4)" d="M 461.238637 178.309666 
L 451.605257 171.059779 
L 436.810873 153.381905 
L 432.142274 145.639771 
" style="fill:none;stroke:#999999;"/>
    <path clip-path="url(#p4caa7261a4)" d="M 461.238637 178.309666 
L 468.683959 177.415975 
L 479.709404 173.740851 
L 490.93107 171.356082 
L 500.560749 168.574649 
L 509.498097 164.106195 
" style="fill:none;stroke:#999999;"/>
    <path clip-path="url(#p4caa7261a4)" d="M 461.238637 178.309666 
L 452.797397 183.074424 
L 430.75021 191.815389 
L 409.302795 199.954188 
L 399.669415 202.042653 
L 394.408449 202.238595 
L 392.37959 201.564743 
" style="fill:none;stroke:#999999;"/>
    <path clip-path="url(#p4caa7261a4)" d="M 361.735666 133.324043 
L 370.872938 124.038261 
" style="fill:none;stroke:#999999;"/>
    <path clip-path="url(#p4caa7261a4)" d="M 361.735666 133.324043 
L 360.347304 125.481548 
L 356.970808 109.294752 
L 357.026342 103.837026 
" style="fill:none;stroke:#999999;"/>
    <path clip-path="url(#p4caa7261a4)" d="M 361.735666 133.324043 
L 358.35917 138.88691 
L 358.847873 146.160693 
" style="fill:none;stroke:#999999;"/>
    <path clip-path="url(#p4caa7261a4)" d="M 357.067067 99.564515 
L 357.026342 103.837026 
" style="fill:none;stroke:#999999;"/>
    <path clip-path="url(#p4caa7261a4)" d="M 357.067067 99.564515 
L 354.386603 91.420937 
L 353.705381 85.872407 
" style="fill:none;stroke:#999999;"/>
    <path clip-path="url(#p4caa7261a4)" d="M 357.067067 99.564515 
L 351.606177 96.037542 
L 343.860969 90.326524 
" style="fill:none;stroke:#999999;"/>
    <path clip-path="url(#p4caa7261a4)" d="M 357.067067 99.564515 
L 363.99777 97.585969 
L 367.34835 101.748561 
" style="fill:none;stroke:#999999;"/>
    <path clip-path="url(#p4caa7261a4)" d="M 361.876353 197.110626 
L 367.155831 195.337582 
" style="fill:none;stroke:#999999;"/>
    <path clip-path="url(#p4caa7261a4)" d="M 361.876353 197.110626 
L 367.263197 199.834711 
" style="fill:none;stroke:#999999;"/>
    <path clip-path="url(#p4caa7261a4)" d="M 361.876353 197.110626 
L 354.09042 194.195378 
L 346.641395 190.921698 
L 335.223507 188.240626 
L 320.42542 183.370728 
L 297.089834 178.60597 
L 273.950469 173.344186 
" style="fill:none;stroke:#999999;"/>
    <path clip-path="url(#p4caa7261a4)" d="M 273.950469 173.344186 
L 297.089834 178.60597 
L 320.42542 183.370728 
L 335.223507 188.240626 
L 346.641395 190.921698 
L 354.09042 194.195378 
L 361.876353 197.110626 
" style="fill:none;stroke:#999999;"/>
    <path clip-path="url(#p4caa7261a4)" d="M 273.950469 173.344186 
L 251.210952 168.574649 
L 241.281388 165.300969 
L 218.638131 155.666313 
" style="fill:none;stroke:#999999;"/>
    <path clip-path="url(#p4caa7261a4)" d="M 273.950469 173.344186 
L 269.285573 192.608719 
L 266.80133 205.12039 
L 263.524796 212.56622 
L 258.759938 219.519804 
L 254.587448 229.646706 
L 247.042164 241.365048 
" style="fill:none;stroke:#999999;"/>
    <path clip-path="url(#p4caa7261a4)" d="M 273.950469 173.344186 
L 280.703461 154.772622 
L 284.379843 150.700833 
L 288.548631 143.455725 
L 289.444587 137.792497 
L 293.413451 126.571182 
L 297.685904 113.763206 
" style="fill:none;stroke:#999999;"/>
    <path clip-path="url(#p4caa7261a4)" d="M 368.188772 198.367528 
L 367.263197 199.834711 
" style="fill:none;stroke:#999999;"/>
    <path clip-path="url(#p4caa7261a4)" d="M 368.188772 198.367528 
L 367.155831 195.337582 
" style="fill:none;stroke:#999999;"/>
    <path clip-path="url(#p4caa7261a4)" d="M 368.188772 198.367528 
L 372.461224 202.143014 
L 373.009164 202.047432 
" style="fill:none;stroke:#999999;"/>
    <path clip-path="url(#p4caa7261a4)" d="M 349.221897 227.46266 
L 346.334104 225.584475 
" style="fill:none;stroke:#999999;"/>
    <path clip-path="url(#p4caa7261a4)" d="M 349.221897 227.46266 
L 355.478781 233.025527 
L 356.074852 235.802181 
L 348.629529 248.318631 
L 344.656963 259.635529 
" style="fill:none;stroke:#999999;"/>
    <path clip-path="url(#p4caa7261a4)" d="M 349.221897 227.46266 
L 356.074852 220.513855 
L 363.22399 206.210024 
L 367.263197 199.834711 
" style="fill:none;stroke:#999999;"/>
    <path clip-path="url(#p4caa7261a4)" d="M 247.042164 241.365048 
L 254.587448 229.646706 
L 258.759938 219.519804 
L 263.524796 212.56622 
L 266.80133 205.12039 
L 269.285573 192.608719 
L 273.950469 173.344186 
" style="fill:none;stroke:#999999;"/>
    <path clip-path="url(#p4caa7261a4)" d="M 88.154326 194.095017 
L 111.093767 197.273116 
L 140.486314 200.94824 
L 150.319618 196.283843 
L 179.116095 180.689655 
L 203.743784 165.300969 
L 218.638131 155.666313 
" style="fill:none;stroke:#999999;"/>
    <path clip-path="url(#p4caa7261a4)" d="M 218.638131 155.666313 
L 241.281388 165.300969 
L 251.210952 168.574649 
L 273.950469 173.344186 
" style="fill:none;stroke:#999999;"/>
    <path clip-path="url(#p4caa7261a4)" d="M 218.638131 155.666313 
L 203.743784 165.300969 
L 179.116095 180.689655 
L 150.319618 196.283843 
L 140.486314 200.94824 
L 111.093767 197.273116 
L 88.154326 194.095017 
" style="fill:none;stroke:#999999;"/>
    <path clip-path="url(#p4caa7261a4)" d="M 218.638131 155.666313 
L 229.663575 148.120122 
L 238.400999 145.042384 
L 253.695194 138.786549 
L 271.866075 127.765955 
L 297.685904 113.763206 
" style="fill:none;stroke:#999999;"/>
    <path clip-path="url(#p4caa7261a4)" d="M 297.685904 113.763206 
L 293.413451 126.571182 
L 289.444587 137.792497 
L 288.548631 143.455725 
L 284.379843 150.700833 
L 280.703461 154.772622 
L 273.950469 173.344186 
" style="fill:none;stroke:#999999;"/>
    <path clip-path="url(#p4caa7261a4)" d="M 297.685904 113.763206 
L 302.054616 108.998449 
L 307.319284 101.944504 
L 308.3115 93.705344 
L 309.007532 86.455457 
L 310.991964 79.602234 
L 316.552816 69.37497 
L 325.88631 55.773666 
L 330.754833 44.055324 
L 335.619653 30.253297 
L 337.704047 19.629369 
L 338.200155 13.870559 
L 337.504123 8.307692 
L 344.357077 21.713054 
L 352.102285 32.537705 
L 357.466916 41.474613 
L 361.33952 53.885923 
L 363.22399 58.254016 
L 361.635704 65.900568 
L 353.098204 80.89259 
" style="fill:none;stroke:#999999;"/>
    <path clip-path="url(#p4caa7261a4)" d="M 297.685904 113.763206 
L 271.866075 127.765955 
L 253.695194 138.786549 
L 238.400999 145.042384 
L 229.663575 148.120122 
L 218.638131 155.666313 
" style="fill:none;stroke:#999999;"/>
    <path clip-path="url(#p4caa7261a4)" d="M 297.685904 113.763206 
L 320.525382 99.263432 
L 332.839227 93.705344 
L 343.860969 90.326524 
" style="fill:none;stroke:#999999;"/>
    <path clip-path="url(#p4caa7261a4)" d="M 343.860969 90.326524 
L 353.098204 80.89259 
" style="fill:none;stroke:#999999;"/>
    <path clip-path="url(#p4caa7261a4)" d="M 343.860969 90.326524 
L 351.606177 96.037542 
L 357.067067 99.564515 
" style="fill:none;stroke:#999999;"/>
    <path clip-path="url(#p4caa7261a4)" d="M 343.860969 90.326524 
L 332.839227 93.705344 
L 320.525382 99.263432 
L 297.685904 113.763206 
" style="fill:none;stroke:#999999;"/>
    <path clip-path="url(#p4caa7261a4)" d="M 353.098204 80.89259 
L 353.705381 85.872407 
" style="fill:none;stroke:#999999;"/>
    <path clip-path="url(#p4caa7261a4)" d="M 353.098204 80.89259 
L 343.860969 90.326524 
" style="fill:none;stroke:#999999;"/>
    <path clip-path="url(#p4caa7261a4)" d="M 353.098204 80.89259 
L 361.635704 65.900568 
L 363.22399 58.254016 
L 361.33952 53.885923 
L 357.466916 41.474613 
L 352.102285 32.537705 
L 344.357077 21.713054 
L 337.504123 8.307692 
L 338.200155 13.870559 
L 337.704047 19.629369 
L 335.619653 30.253297 
L 330.754833 44.055324 
L 325.88631 55.773666 
L 316.552816 69.37497 
L 310.991964 79.602234 
L 309.007532 86.455457 
L 308.3115 93.705344 
L 307.319284 101.944504 
L 302.054616 108.998449 
L 297.685904 113.763206 
" style="fill:none;stroke:#999999;"/>
    <path clip-path="url(#p4caa7261a4)" d="M 457.562255 88.142477 
L 458.565578 74.694103 
" style="fill:none;stroke:#999999;"/>
    <path clip-path="url(#p4caa7261a4)" d="M 457.562255 88.142477 
L 459.450427 92.113905 
" style="fill:none;stroke:#999999;"/>
    <path clip-path="url(#p4caa7261a4)" d="M 457.562255 88.142477 
L 446.840399 86.555818 
L 438.099272 84.868797 
L 431.842388 83.081415 
L 422.012786 85.361044 
L 409.402758 89.733916 
L 394.604671 94.599035 
" style="fill:none;stroke:#999999;"/>
    <path clip-path="url(#p4caa7261a4)" d="M 394.604671 94.599035 
L 395.400665 100.955231 
" style="fill:none;stroke:#999999;"/>
    <path clip-path="url(#p4caa7261a4)" d="M 394.604671 94.599035 
L 409.402758 89.733916 
L 422.012786 85.361044 
L 431.842388 83.081415 
L 438.099272 84.868797 
L 446.840399 86.555818 
L 457.562255 88.142477 
" style="fill:none;stroke:#999999;"/>
    <path clip-path="url(#p4caa7261a4)" d="M 394.604671 94.599035 
L 391.628023 84.567714 
L 392.124131 75.334502 
L 392.420315 69.676053 
L 393.908639 63.912465 
L 399.273269 53.345885 
" style="fill:none;stroke:#999999;"/>
    <path clip-path="url(#p4caa7261a4)" d="M 399.273269 53.345885 
L 403.771562 58.923089 
L 413.767767 63.702184 
L 458.565578 74.694103 
" style="fill:none;stroke:#999999;"/>
    <path clip-path="url(#p4caa7261a4)" d="M 399.273269 53.345885 
L 393.908639 63.912465 
L 392.420315 69.676053 
L 392.124131 75.334502 
L 391.628023 84.567714 
L 394.604671 94.599035 
" style="fill:none;stroke:#999999;"/>
    <path clip-path="url(#p4caa7261a4)" d="M 383.582929 105.519267 
L 377.240891 103.884817 
" style="fill:none;stroke:#999999;"/>
    <path clip-path="url(#p4caa7261a4)" d="M 383.582929 105.519267 
L 395.400665 100.955231 
" style="fill:none;stroke:#999999;"/>
    <path clip-path="url(#p4caa7261a4)" d="M 383.582929 105.519267 
L 400.561669 116.444279 
L 419.132398 125.978574 
L 424.297104 128.559285 
L 427.6736 133.324043 
L 432.142274 145.639771 
" style="fill:none;stroke:#999999;"/>
    <path clip-path="url(#p4caa7261a4)" d="M 395.400665 100.955231 
L 394.604671 94.599035 
" style="fill:none;stroke:#999999;"/>
    <path clip-path="url(#p4caa7261a4)" d="M 395.400665 100.955231 
L 383.582929 105.519267 
" style="fill:none;stroke:#999999;"/>
    <path clip-path="url(#p4caa7261a4)" d="M 395.400665 100.955231 
L 401.657549 99.464154 
L 418.140182 96.286055 
L 459.450427 92.113905 
" style="fill:none;stroke:#999999;"/>
    <path clip-path="url(#p4caa7261a4)" d="M 459.450427 92.113905 
L 457.562255 88.142477 
" style="fill:none;stroke:#999999;"/>
    <path clip-path="url(#p4caa7261a4)" d="M 459.450427 92.113905 
L 418.140182 96.286055 
L 401.657549 99.464154 
L 395.400665 100.955231 
" style="fill:none;stroke:#999999;"/>
    <path clip-path="url(#p4caa7261a4)" d="M 459.450427 92.113905 
L 520.719763 84.567714 
L 575.436031 79.802956 
L 586.361514 76.624858 
L 602.955215 63.702184 
" style="fill:none;stroke:#999999;"/>
   </g>
  </g>
 </g>
 <defs>
  <clipPath id="p4caa7261a4">
   <rect height="432" width="535.392924" x="77.858308" y="0"/>
  </clipPath>
 </defs>
</svg>
