<?xml version="1.0" encoding="utf-8" standalone="no"?>
<!DOCTYPE svg PUBLIC "-//W3C//DTD SVG 1.1//EN"
  "http://www.w3.org/Graphics/SVG/1.1/DTD/svg11.dtd">
<!-- Created with matplotlib (http://matplotlib.org/) -->
<svg height="432pt" version="1.1" viewBox="0 0 277.633629 432" width="277.633629pt" xmlns="http://www.w3.org/2000/svg" xmlns:xlink="http://www.w3.org/1999/xlink">
 <defs>
  <style type="text/css">
*{stroke-linecap:butt;stroke-linejoin:round;}
  </style>
 </defs>
 <g id="figure_1">
  <g id="patch_1">
   <path d="M 0 432 
L 277.633629 432 
L 277.633629 0 
L 0 0 
z
" style="fill:none;opacity:0;"/>
  </g>
  <g id="axes_1">
   <g id="PathCollection_1">
    <defs>
     <path d="M 0 1.936492 
C 0.513564 1.936492 1.006162 1.732451 1.369306 1.369306 
C 1.732451 1.006162 1.936492 0.513564 1.936492 0 
C 1.936492 -0.513564 1.732451 -1.006162 1.369306 -1.369306 
C 1.006162 -1.732451 0.513564 -1.936492 0 -1.936492 
C -0.513564 -1.936492 -1.006162 -1.732451 -1.369306 -1.369306 
C -1.732451 -1.006162 -1.936492 -0.513564 -1.936492 0 
C -1.936492 0.513564 -1.732451 1.006162 -1.369306 1.369306 
C -1.006162 1.732451 -0.513564 1.936492 0 1.936492 
z
" id="C0_0_6b14978fa2"/>
    </defs>
    <g clip-path="url(#p3169dec81d)">
     <use style="fill:#66ccff;" x="141.353815" xlink:href="#C0_0_6b14978fa2" y="301.409308"/>
    </g>
    <g clip-path="url(#p3169dec81d)">
     <use style="fill:#66ccff;" x="153.381867" xlink:href="#C0_0_6b14978fa2" y="335.284975"/>
    </g>
    <g clip-path="url(#p3169dec81d)">
     <use style="fill:#66ccff;" x="161.84374" xlink:href="#C0_0_6b14978fa2" y="298.918185"/>
    </g>
    <g clip-path="url(#p3169dec81d)">
     <use style="fill:#66ccff;" x="133.023415" xlink:href="#C0_0_6b14978fa2" y="147.694142"/>
    </g>
    <g clip-path="url(#p3169dec81d)">
     <use style="fill:#66ccff;" x="149.295551" xlink:href="#C0_0_6b14978fa2" y="298.862098"/>
    </g>
    <g clip-path="url(#p3169dec81d)">
     <use style="fill:#66ccff;" x="225.44747" xlink:href="#C0_0_6b14978fa2" y="408.59636"/>
    </g>
    <g clip-path="url(#p3169dec81d)">
     <use style="fill:#66ccff;" x="238.90446" xlink:href="#C0_0_6b14978fa2" y="423.692308"/>
    </g>
    <g clip-path="url(#p3169dec81d)">
     <use style="fill:#66ccff;" x="169.77808" xlink:href="#C0_0_6b14978fa2" y="334.833102"/>
    </g>
    <g clip-path="url(#p3169dec81d)">
     <use style="fill:#66ccff;" x="186.480787" xlink:href="#C0_0_6b14978fa2" y="374.845566"/>
    </g>
    <g clip-path="url(#p3169dec81d)">
     <use style="fill:#66ccff;" x="166.394317" xlink:href="#C0_0_6b14978fa2" y="296.455636"/>
    </g>
    <g clip-path="url(#p3169dec81d)">
     <use style="fill:#66ccff;" x="169.506097" xlink:href="#C0_0_6b14978fa2" y="334.587588"/>
    </g>
    <g clip-path="url(#p3169dec81d)">
     <use style="fill:#66ccff;" x="35.175314" xlink:href="#C0_0_6b14978fa2" y="8.307692"/>
    </g>
    <g clip-path="url(#p3169dec81d)">
     <use style="fill:#66ccff;" x="150.809945" xlink:href="#C0_0_6b14978fa2" y="334.542083"/>
    </g>
    <g clip-path="url(#p3169dec81d)">
     <use style="fill:#66ccff;" x="162.990012" xlink:href="#C0_0_6b14978fa2" y="334.172754"/>
    </g>
    <g clip-path="url(#p3169dec81d)">
     <use style="fill:#66ccff;" x="235.444279" xlink:href="#C0_0_6b14978fa2" y="393.683489"/>
    </g>
    <g clip-path="url(#p3169dec81d)">
     <use style="fill:#66ccff;" x="242.458315" xlink:href="#C0_0_6b14978fa2" y="382.916845"/>
    </g>
    <g clip-path="url(#p3169dec81d)">
     <use style="fill:#66ccff;" x="163.26446" xlink:href="#C0_0_6b14978fa2" y="333.190697"/>
    </g>
    <g clip-path="url(#p3169dec81d)">
     <use style="fill:#66ccff;" x="190.046967" xlink:href="#C0_0_6b14978fa2" y="369.426263"/>
    </g>
    <g clip-path="url(#p3169dec81d)">
     <use style="fill:#66ccff;" x="180.709984" xlink:href="#C0_0_6b14978fa2" y="332.42029"/>
    </g>
    <g clip-path="url(#p3169dec81d)">
     <use style="fill:#66ccff;" x="182.704251" xlink:href="#C0_0_6b14978fa2" y="368.648449"/>
    </g>
    <g clip-path="url(#p3169dec81d)">
     <use style="fill:#66ccff;" x="181.580987" xlink:href="#C0_0_6b14978fa2" y="367.708722"/>
    </g>
    <g clip-path="url(#p3169dec81d)">
     <use style="fill:#66ccff;" x="192.432364" xlink:href="#C0_0_6b14978fa2" y="365.802813"/>
    </g>
    <g clip-path="url(#p3169dec81d)">
     <use style="fill:#66ccff;" x="173.230866" xlink:href="#C0_0_6b14978fa2" y="331.981116"/>
    </g>
    <g clip-path="url(#p3169dec81d)">
     <use style="fill:#66ccff;" x="185.602389" xlink:href="#C0_0_6b14978fa2" y="365.728735"/>
    </g>
    <g clip-path="url(#p3169dec81d)">
     <use style="fill:#66ccff;" x="169.466656" xlink:href="#C0_0_6b14978fa2" y="365.260988"/>
    </g>
    <g clip-path="url(#p3169dec81d)">
     <use style="fill:#66ccff;" x="184.720704" xlink:href="#C0_0_6b14978fa2" y="364.994309"/>
    </g>
    <g clip-path="url(#p3169dec81d)">
     <use style="fill:#66ccff;" x="170.137985" xlink:href="#C0_0_6b14978fa2" y="364.459892"/>
    </g>
    <g clip-path="url(#p3169dec81d)">
     <use style="fill:#66ccff;" x="166.813385" xlink:href="#C0_0_6b14978fa2" y="331.473156"/>
    </g>
    <g clip-path="url(#p3169dec81d)">
     <use style="fill:#66ccff;" x="173.254695" xlink:href="#C0_0_6b14978fa2" y="360.743315"/>
    </g>
    <g clip-path="url(#p3169dec81d)">
     <use style="fill:#66ccff;" x="175.866881" xlink:href="#C0_0_6b14978fa2" y="357.628883"/>
    </g>
    <g clip-path="url(#p3169dec81d)">
     <use style="fill:#66ccff;" x="199.202355" xlink:href="#C0_0_6b14978fa2" y="355.019237"/>
    </g>
    <g clip-path="url(#p3169dec81d)">
     <use style="fill:#66ccff;" x="153.188768" xlink:href="#C0_0_6b14978fa2" y="352.422289"/>
    </g>
    <g clip-path="url(#p3169dec81d)">
     <use style="fill:#66ccff;" x="152.213409" xlink:href="#C0_0_6b14978fa2" y="351.494203"/>
    </g>
    <g clip-path="url(#p3169dec81d)">
     <use style="fill:#66ccff;" x="167.337629" xlink:href="#C0_0_6b14978fa2" y="350.31002"/>
    </g>
    <g clip-path="url(#p3169dec81d)">
     <use style="fill:#66ccff;" x="182.691926" xlink:href="#C0_0_6b14978fa2" y="348.573431"/>
    </g>
    <g clip-path="url(#p3169dec81d)">
     <use style="fill:#66ccff;" x="156.671956" xlink:href="#C0_0_6b14978fa2" y="346.436822"/>
    </g>
    <g clip-path="url(#p3169dec81d)">
     <use style="fill:#66ccff;" x="185.608141" xlink:href="#C0_0_6b14978fa2" y="346.132046"/>
    </g>
    <g clip-path="url(#p3169dec81d)">
     <use style="fill:#66ccff;" x="162.991655" xlink:href="#C0_0_6b14978fa2" y="346.116172"/>
    </g>
    <g clip-path="url(#p3169dec81d)">
     <use style="fill:#66ccff;" x="142.346429" xlink:href="#C0_0_6b14978fa2" y="329.434965"/>
    </g>
    <g clip-path="url(#p3169dec81d)">
     <use style="fill:#66ccff;" x="144.777841" xlink:href="#C0_0_6b14978fa2" y="329.188392"/>
    </g>
    <g clip-path="url(#p3169dec81d)">
     <use style="fill:#66ccff;" x="148.012054" xlink:href="#C0_0_6b14978fa2" y="311.734661"/>
    </g>
    <g clip-path="url(#p3169dec81d)">
     <use style="fill:#66ccff;" x="158.295637" xlink:href="#C0_0_6b14978fa2" y="321.746772"/>
    </g>
    <g clip-path="url(#p3169dec81d)">
     <use style="fill:#66ccff;" x="168.059904" xlink:href="#C0_0_6b14978fa2" y="317.092585"/>
    </g>
    <g clip-path="url(#p3169dec81d)">
     <use style="fill:#66ccff;" x="157.331782" xlink:href="#C0_0_6b14978fa2" y="345.73626"/>
    </g>
    <g clip-path="url(#p3169dec81d)">
     <use style="fill:#66ccff;" x="155.971046" xlink:href="#C0_0_6b14978fa2" y="344.076923"/>
    </g>
    <g clip-path="url(#p3169dec81d)">
     <use style="fill:#66ccff;" x="162.82485" xlink:href="#C0_0_6b14978fa2" y="328.181996"/>
    </g>
    <g clip-path="url(#p3169dec81d)">
     <use style="fill:#66ccff;" x="162.778013" xlink:href="#C0_0_6b14978fa2" y="327.952355"/>
    </g>
    <g clip-path="url(#p3169dec81d)">
     <use style="fill:#66ccff;" x="178.386215" xlink:href="#C0_0_6b14978fa2" y="327.848647"/>
    </g>
    <g clip-path="url(#p3169dec81d)">
     <use style="fill:#66ccff;" x="143.188672" xlink:href="#C0_0_6b14978fa2" y="327.688851"/>
    </g>
    <g clip-path="url(#p3169dec81d)">
     <use style="fill:#66ccff;" x="159.805101" xlink:href="#C0_0_6b14978fa2" y="343.453613"/>
    </g>
    <g clip-path="url(#p3169dec81d)">
     <use style="fill:#66ccff;" x="142.726055" xlink:href="#C0_0_6b14978fa2" y="327.252851"/>
    </g>
    <g clip-path="url(#p3169dec81d)">
     <use style="fill:#66ccff;" x="177.766653" xlink:href="#C0_0_6b14978fa2" y="342.601721"/>
    </g>
    <g clip-path="url(#p3169dec81d)">
     <use style="fill:#66ccff;" x="143.887118" xlink:href="#C0_0_6b14978fa2" y="342.208052"/>
    </g>
    <g clip-path="url(#p3169dec81d)">
     <use style="fill:#66ccff;" x="173.266199" xlink:href="#C0_0_6b14978fa2" y="355.556828"/>
    </g>
    <g clip-path="url(#p3169dec81d)">
     <use style="fill:#66ccff;" x="154.845316" xlink:href="#C0_0_6b14978fa2" y="337.409943"/>
    </g>
    <g clip-path="url(#p3169dec81d)">
     <use style="fill:#66ccff;" x="154.521566" xlink:href="#C0_0_6b14978fa2" y="337.009924"/>
    </g>
    <g clip-path="url(#p3169dec81d)">
     <use style="fill:#66ccff;" x="179.428953" xlink:href="#C0_0_6b14978fa2" y="341.788985"/>
    </g>
    <g clip-path="url(#p3169dec81d)">
     <use style="fill:#66ccff;" x="156.38847" xlink:href="#C0_0_6b14978fa2" y="332.900736"/>
    </g>
    <g clip-path="url(#p3169dec81d)">
     <use style="fill:#66ccff;" x="144.84522" xlink:href="#C0_0_6b14978fa2" y="341.780519"/>
    </g>
    <g clip-path="url(#p3169dec81d)">
     <use style="fill:#66ccff;" x="167.529086" xlink:href="#C0_0_6b14978fa2" y="324.418856"/>
    </g>
    <g clip-path="url(#p3169dec81d)">
     <use style="fill:#66ccff;" x="179.167652" xlink:href="#C0_0_6b14978fa2" y="341.542412"/>
    </g>
    <g clip-path="url(#p3169dec81d)">
     <use style="fill:#66ccff;" x="169.912017" xlink:href="#C0_0_6b14978fa2" y="322.449451"/>
    </g>
    <g clip-path="url(#p3169dec81d)">
     <use style="fill:#66ccff;" x="163.103407" xlink:href="#C0_0_6b14978fa2" y="319.455659"/>
    </g>
    <g clip-path="url(#p3169dec81d)">
     <use style="fill:#66ccff;" x="152.888847" xlink:href="#C0_0_6b14978fa2" y="340.414317"/>
    </g>
    <g clip-path="url(#p3169dec81d)">
     <use style="fill:#66ccff;" x="168.820799" xlink:href="#C0_0_6b14978fa2" y="319.293747"/>
    </g>
    <g clip-path="url(#p3169dec81d)">
     <use style="fill:#66ccff;" x="154.920091" xlink:href="#C0_0_6b14978fa2" y="317.494721"/>
    </g>
    <g clip-path="url(#p3169dec81d)">
     <use style="fill:#66ccff;" x="172.773179" xlink:href="#C0_0_6b14978fa2" y="316.69045"/>
    </g>
    <g clip-path="url(#p3169dec81d)">
     <use style="fill:#66ccff;" x="157.64485" xlink:href="#C0_0_6b14978fa2" y="316.422712"/>
    </g>
    <g clip-path="url(#p3169dec81d)">
     <use style="fill:#66ccff;" x="159.986696" xlink:href="#C0_0_6b14978fa2" y="315.797286"/>
    </g>
    <g clip-path="url(#p3169dec81d)">
     <use style="fill:#66ccff;" x="176.245685" xlink:href="#C0_0_6b14978fa2" y="314.435317"/>
    </g>
    <g clip-path="url(#p3169dec81d)">
     <use style="fill:#66ccff;" x="176.43632" xlink:href="#C0_0_6b14978fa2" y="314.311502"/>
    </g>
    <g clip-path="url(#p3169dec81d)">
     <use style="fill:#66ccff;" x="141.238777" xlink:href="#C0_0_6b14978fa2" y="313.567552"/>
    </g>
    <g clip-path="url(#p3169dec81d)">
     <use style="fill:#66ccff;" x="127.597726" xlink:href="#C0_0_6b14978fa2" y="210.075912"/>
    </g>
    <g clip-path="url(#p3169dec81d)">
     <use style="fill:#66ccff;" x="151.109044" xlink:href="#C0_0_6b14978fa2" y="310.096489"/>
    </g>
    <g clip-path="url(#p3169dec81d)">
     <use style="fill:#66ccff;" x="152.278324" xlink:href="#C0_0_6b14978fa2" y="338.5973"/>
    </g>
    <g clip-path="url(#p3169dec81d)">
     <use style="fill:#66ccff;" x="172.709908" xlink:href="#C0_0_6b14978fa2" y="308.984267"/>
    </g>
    <g clip-path="url(#p3169dec81d)">
     <use style="fill:#66ccff;" x="155.178927" xlink:href="#C0_0_6b14978fa2" y="307.942949"/>
    </g>
    <g clip-path="url(#p3169dec81d)">
     <use style="fill:#66ccff;" x="165.604663" xlink:href="#C0_0_6b14978fa2" y="338.110505"/>
    </g>
    <g clip-path="url(#p3169dec81d)">
     <use style="fill:#66ccff;" x="127.646206" xlink:href="#C0_0_6b14978fa2" y="326.519484"/>
    </g>
    <g clip-path="url(#p3169dec81d)">
     <use style="fill:#66ccff;" x="164.401693" xlink:href="#C0_0_6b14978fa2" y="306.441291"/>
    </g>
    <g clip-path="url(#p3169dec81d)">
     <use style="fill:#66ccff;" x="152.866661" xlink:href="#C0_0_6b14978fa2" y="304.302566"/>
    </g>
    <g clip-path="url(#p3169dec81d)">
     <use style="fill:#66ccff;" x="163.420583" xlink:href="#C0_0_6b14978fa2" y="303.58613"/>
    </g>
    <g clip-path="url(#p3169dec81d)">
     <use style="fill:#66ccff;" x="174.88084" xlink:href="#C0_0_6b14978fa2" y="336.019401"/>
    </g>
   </g>
   <g id="LineCollection_1">
    <path clip-path="url(#p3169dec81d)" d="M 141.353815 301.409308 
L 139.7326 294.860852 
L 138.754776 290.716742 
L 137.742441 286.728194 
L 137.343916 283.967218 
L 137.006197 280.193495 
L 136.761331 276.143569 
L 136.57727 272.523293 
L 136.117117 269.148531 
L 135.613415 266.375914 
L 134.758846 262.975754 
L 133.500823 258.572373 
L 132.611743 254.385932 
L 131.98232 250.588928 
L 131.678291 247.183477 
L 131.179519 243.06159 
L 130.345493 239.350305 
L 128.999547 231.751005 
L 128.907517 229.3583 
L 128.845889 224.634269 
L 128.293706 217.270959 
L 127.597726 210.075912 
" style="fill:none;stroke:#999999;"/>
    <path clip-path="url(#p3169dec81d)" d="M 141.353815 301.409308 
L 142.177159 303.060179 
L 148.012054 311.734661 
" style="fill:none;stroke:#999999;"/>
    <path clip-path="url(#p3169dec81d)" d="M 141.353815 301.409308 
L 141.449132 303.30781 
L 141.275753 309.665781 
L 141.246994 312.931543 
L 141.238777 313.567552 
" style="fill:none;stroke:#999999;"/>
    <path clip-path="url(#p3169dec81d)" d="M 153.381867 335.284975 
L 156.38847 332.900736 
" style="fill:none;stroke:#999999;"/>
    <path clip-path="url(#p3169dec81d)" d="M 153.381867 335.284975 
L 152.903638 334.873316 
L 152.145208 334.683889 
L 150.809945 334.542083 
" style="fill:none;stroke:#999999;"/>
    <path clip-path="url(#p3169dec81d)" d="M 153.381867 335.284975 
L 154.019507 336.389789 
L 154.521566 337.009924 
" style="fill:none;stroke:#999999;"/>
    <path clip-path="url(#p3169dec81d)" d="M 161.84374 298.918185 
L 152.866661 304.302566 
" style="fill:none;stroke:#999999;"/>
    <path clip-path="url(#p3169dec81d)" d="M 161.84374 298.918185 
L 163.289111 303.143781 
L 163.420583 303.58613 
" style="fill:none;stroke:#999999;"/>
    <path clip-path="url(#p3169dec81d)" d="M 161.84374 298.918185 
L 156.487895 283.755568 
L 147.006293 256.382852 
L 134.994674 221.74736 
L 133.869766 218.86151 
L 133.029167 217.185241 
L 131.582152 214.830633 
L 129.541048 212.21252 
L 127.597726 210.075912 
" style="fill:none;stroke:#999999;"/>
    <path clip-path="url(#p3169dec81d)" d="M 133.023415 147.694142 
L 133.181181 149.730217 
L 133.686527 152.424523 
L 133.559985 155.750606 
L 132.46548 163.161536 
L 130.991349 172.844531 
L 129.928069 180.976131 
L 127.597726 210.075912 
" style="fill:none;stroke:#999999;"/>
    <path clip-path="url(#p3169dec81d)" d="M 149.295551 298.862098 
L 152.866661 304.302566 
" style="fill:none;stroke:#999999;"/>
    <path clip-path="url(#p3169dec81d)" d="M 225.44747 408.59636 
L 222.498387 405.013122 
L 218.147483 399.694354 
L 216.950265 398.366249 
L 213.42517 395.475108 
L 207.436616 390.997648 
L 186.480787 374.845566 
" style="fill:none;stroke:#999999;"/>
    <path clip-path="url(#p3169dec81d)" d="M 225.44747 408.59636 
L 226.398999 409.754086 
L 238.90446 423.692308 
" style="fill:none;stroke:#999999;"/>
    <path clip-path="url(#p3169dec81d)" d="M 225.44747 408.59636 
L 228.149222 405.604685 
L 229.846855 402.656398 
L 235.444279 393.683489 
" style="fill:none;stroke:#999999;"/>
    <path clip-path="url(#p3169dec81d)" d="M 238.90446 423.692308 
L 226.398999 409.754086 
L 225.44747 408.59636 
" style="fill:none;stroke:#999999;"/>
    <path clip-path="url(#p3169dec81d)" d="M 169.77808 334.833102 
L 169.506097 334.587588 
" style="fill:none;stroke:#999999;"/>
    <path clip-path="url(#p3169dec81d)" d="M 169.77808 334.833102 
L 177.766653 342.601721 
" style="fill:none;stroke:#999999;"/>
    <path clip-path="url(#p3169dec81d)" d="M 169.77808 334.833102 
L 173.230866 331.981116 
" style="fill:none;stroke:#999999;"/>
    <path clip-path="url(#p3169dec81d)" d="M 186.480787 374.845566 
L 190.046967 369.426263 
" style="fill:none;stroke:#999999;"/>
    <path clip-path="url(#p3169dec81d)" d="M 186.480787 374.845566 
L 207.436616 390.997648 
L 213.42517 395.475108 
L 216.950265 398.366249 
L 218.147483 399.694354 
L 222.498387 405.013122 
L 225.44747 408.59636 
" style="fill:none;stroke:#999999;"/>
    <path clip-path="url(#p3169dec81d)" d="M 186.480787 374.845566 
L 185.713319 375.388449 
L 184.673046 375.562002 
L 183.488975 375.388449 
L 182.321339 374.769372 
L 172.824946 367.755285 
L 169.466656 365.260988 
" style="fill:none;stroke:#999999;"/>
    <path clip-path="url(#p3169dec81d)" d="M 166.394317 296.455636 
L 166.394317 297.340333 
L 166.267775 300.035698 
L 165.341719 304.078216 
L 164.401693 306.441291 
" style="fill:none;stroke:#999999;"/>
    <path clip-path="url(#p3169dec81d)" d="M 169.506097 334.587588 
L 169.77808 334.833102 
" style="fill:none;stroke:#999999;"/>
    <path clip-path="url(#p3169dec81d)" d="M 169.506097 334.587588 
L 165.604663 338.110505 
" style="fill:none;stroke:#999999;"/>
    <path clip-path="url(#p3169dec81d)" d="M 169.506097 334.587588 
L 168.662211 333.827764 
L 166.903772 331.650942 
L 166.813385 331.473156 
" style="fill:none;stroke:#999999;"/>
    <path clip-path="url(#p3169dec81d)" d="M 35.175314 8.307692 
L 55.635658 49.021776 
L 75.741026 89.170755 
L 92.215301 122.117278 
L 93.624517 125.137526 
L 95.901449 130.460527 
L 101.698547 146.642241 
L 117.437399 190.447475 
L 119.388116 195.849846 
L 121.592738 201.70409 
L 122.513865 203.550737 
L 124.303529 206.195306 
L 127.597726 210.075912 
" style="fill:none;stroke:#999999;"/>
    <path clip-path="url(#p3169dec81d)" d="M 150.809945 334.542083 
L 152.278324 338.5973 
" style="fill:none;stroke:#999999;"/>
    <path clip-path="url(#p3169dec81d)" d="M 150.809945 334.542083 
L 150.596303 333.951579 
L 150.238863 333.281706 
L 145.297156 329.678362 
L 144.777841 329.188392 
" style="fill:none;stroke:#999999;"/>
    <path clip-path="url(#p3169dec81d)" d="M 150.809945 334.542083 
L 152.145208 334.683889 
L 152.903638 334.873316 
L 153.381867 335.284975 
" style="fill:none;stroke:#999999;"/>
    <path clip-path="url(#p3169dec81d)" d="M 162.990012 334.172754 
L 163.26446 333.190697 
" style="fill:none;stroke:#999999;"/>
    <path clip-path="url(#p3169dec81d)" d="M 235.444279 393.683489 
L 192.432364 365.802813 
" style="fill:none;stroke:#999999;"/>
    <path clip-path="url(#p3169dec81d)" d="M 235.444279 393.683489 
L 242.458315 382.916845 
" style="fill:none;stroke:#999999;"/>
    <path clip-path="url(#p3169dec81d)" d="M 235.444279 393.683489 
L 229.846855 402.656398 
L 228.149222 405.604685 
L 225.44747 408.59636 
" style="fill:none;stroke:#999999;"/>
    <path clip-path="url(#p3169dec81d)" d="M 242.458315 382.916845 
L 235.444279 393.683489 
" style="fill:none;stroke:#999999;"/>
    <path clip-path="url(#p3169dec81d)" d="M 242.458315 382.916845 
L 202.955061 357.416175 
L 199.202355 355.019237 
" style="fill:none;stroke:#999999;"/>
    <path clip-path="url(#p3169dec81d)" d="M 163.26446 333.190697 
L 166.813385 331.473156 
" style="fill:none;stroke:#999999;"/>
    <path clip-path="url(#p3169dec81d)" d="M 163.26446 333.190697 
L 162.990012 334.172754 
" style="fill:none;stroke:#999999;"/>
    <path clip-path="url(#p3169dec81d)" d="M 163.26446 333.190697 
L 163.293219 332.549397 
L 162.82485 328.181996 
" style="fill:none;stroke:#999999;"/>
    <path clip-path="url(#p3169dec81d)" d="M 190.046967 369.426263 
L 185.602389 365.728735 
" style="fill:none;stroke:#999999;"/>
    <path clip-path="url(#p3169dec81d)" d="M 190.046967 369.426263 
L 186.480787 374.845566 
" style="fill:none;stroke:#999999;"/>
    <path clip-path="url(#p3169dec81d)" d="M 190.046967 369.426263 
L 192.432364 365.802813 
" style="fill:none;stroke:#999999;"/>
    <path clip-path="url(#p3169dec81d)" d="M 180.709984 332.42029 
L 174.88084 336.019401 
" style="fill:none;stroke:#999999;"/>
    <path clip-path="url(#p3169dec81d)" d="M 180.709984 332.42029 
L 178.386215 327.848647 
" style="fill:none;stroke:#999999;"/>
    <path clip-path="url(#p3169dec81d)" d="M 180.709984 332.42029 
L 183.825873 338.315806 
L 179.428953 341.788985 
" style="fill:none;stroke:#999999;"/>
    <path clip-path="url(#p3169dec81d)" d="M 182.704251 368.648449 
L 185.602389 365.728735 
" style="fill:none;stroke:#999999;"/>
    <path clip-path="url(#p3169dec81d)" d="M 182.704251 368.648449 
L 181.580987 367.708722 
" style="fill:none;stroke:#999999;"/>
    <path clip-path="url(#p3169dec81d)" d="M 182.704251 368.648449 
L 186.867808 372.131153 
L 185.618001 374.275169 
L 184.962284 374.662489 
L 183.831624 374.632858 
L 181.926101 373.352374 
L 170.137985 364.459892 
" style="fill:none;stroke:#999999;"/>
    <path clip-path="url(#p3169dec81d)" d="M 181.580987 367.708722 
L 184.720704 364.994309 
" style="fill:none;stroke:#999999;"/>
    <path clip-path="url(#p3169dec81d)" d="M 181.580987 367.708722 
L 182.704251 368.648449 
" style="fill:none;stroke:#999999;"/>
    <path clip-path="url(#p3169dec81d)" d="M 181.580987 367.708722 
L 173.254695 360.743315 
" style="fill:none;stroke:#999999;"/>
    <path clip-path="url(#p3169dec81d)" d="M 192.432364 365.802813 
L 235.444279 393.683489 
" style="fill:none;stroke:#999999;"/>
    <path clip-path="url(#p3169dec81d)" d="M 192.432364 365.802813 
L 190.046967 369.426263 
" style="fill:none;stroke:#999999;"/>
    <path clip-path="url(#p3169dec81d)" d="M 192.432364 365.802813 
L 192.590952 365.561531 
L 199.202355 355.019237 
" style="fill:none;stroke:#999999;"/>
    <path clip-path="url(#p3169dec81d)" d="M 173.230866 331.981116 
L 169.77808 334.833102 
" style="fill:none;stroke:#999999;"/>
    <path clip-path="url(#p3169dec81d)" d="M 173.230866 331.981116 
L 174.2621 331.183195 
L 178.386215 327.848647 
" style="fill:none;stroke:#999999;"/>
    <path clip-path="url(#p3169dec81d)" d="M 173.230866 331.981116 
L 174.395215 335.072267 
L 174.88084 336.019401 
" style="fill:none;stroke:#999999;"/>
    <path clip-path="url(#p3169dec81d)" d="M 173.230866 331.981116 
L 172.944092 331.220234 
L 169.912017 322.449451 
" style="fill:none;stroke:#999999;"/>
    <path clip-path="url(#p3169dec81d)" d="M 185.602389 365.728735 
L 190.046967 369.426263 
" style="fill:none;stroke:#999999;"/>
    <path clip-path="url(#p3169dec81d)" d="M 185.602389 365.728735 
L 184.720704 364.994309 
" style="fill:none;stroke:#999999;"/>
    <path clip-path="url(#p3169dec81d)" d="M 185.602389 365.728735 
L 182.704251 368.648449 
" style="fill:none;stroke:#999999;"/>
    <path clip-path="url(#p3169dec81d)" d="M 169.466656 365.260988 
L 170.137985 364.459892 
" style="fill:none;stroke:#999999;"/>
    <path clip-path="url(#p3169dec81d)" d="M 169.466656 365.260988 
L 160.482182 358.587658 
L 154.968571 354.116549 
L 153.188768 352.422289 
" style="fill:none;stroke:#999999;"/>
    <path clip-path="url(#p3169dec81d)" d="M 169.466656 365.260988 
L 172.824946 367.755285 
L 182.321339 374.769372 
L 183.488975 375.388449 
L 184.673046 375.562002 
L 185.713319 375.388449 
L 186.480787 374.845566 
" style="fill:none;stroke:#999999;"/>
    <path clip-path="url(#p3169dec81d)" d="M 184.720704 364.994309 
L 185.602389 365.728735 
" style="fill:none;stroke:#999999;"/>
    <path clip-path="url(#p3169dec81d)" d="M 184.720704 364.994309 
L 175.866881 357.628883 
" style="fill:none;stroke:#999999;"/>
    <path clip-path="url(#p3169dec81d)" d="M 184.720704 364.994309 
L 181.580987 367.708722 
" style="fill:none;stroke:#999999;"/>
    <path clip-path="url(#p3169dec81d)" d="M 170.137985 364.459892 
L 173.254695 360.743315 
" style="fill:none;stroke:#999999;"/>
    <path clip-path="url(#p3169dec81d)" d="M 170.137985 364.459892 
L 169.466656 365.260988 
" style="fill:none;stroke:#999999;"/>
    <path clip-path="url(#p3169dec81d)" d="M 170.137985 364.459892 
L 181.926101 373.352374 
L 183.831624 374.632858 
L 184.962284 374.662489 
L 185.618001 374.275169 
L 186.867808 372.131153 
L 182.704251 368.648449 
" style="fill:none;stroke:#999999;"/>
    <path clip-path="url(#p3169dec81d)" d="M 170.137985 364.459892 
L 163.049174 359.236366 
L 158.404101 355.811867 
L 155.665373 353.578957 
L 153.188768 352.422289 
" style="fill:none;stroke:#999999;"/>
    <path clip-path="url(#p3169dec81d)" d="M 166.813385 331.473156 
L 163.26446 333.190697 
" style="fill:none;stroke:#999999;"/>
    <path clip-path="url(#p3169dec81d)" d="M 166.813385 331.473156 
L 166.094397 330.060391 
L 165.508524 329.361945 
L 162.82485 328.181996 
" style="fill:none;stroke:#999999;"/>
    <path clip-path="url(#p3169dec81d)" d="M 166.813385 331.473156 
L 166.903772 331.650942 
L 168.662211 333.827764 
L 169.506097 334.587588 
" style="fill:none;stroke:#999999;"/>
    <path clip-path="url(#p3169dec81d)" d="M 173.254695 360.743315 
L 175.866881 357.628883 
" style="fill:none;stroke:#999999;"/>
    <path clip-path="url(#p3169dec81d)" d="M 173.254695 360.743315 
L 170.137985 364.459892 
" style="fill:none;stroke:#999999;"/>
    <path clip-path="url(#p3169dec81d)" d="M 173.254695 360.743315 
L 181.580987 367.708722 
" style="fill:none;stroke:#999999;"/>
    <path clip-path="url(#p3169dec81d)" d="M 173.254695 360.743315 
L 164.954698 353.935588 
L 163.287467 351.970416 
L 161.202813 349.975613 
L 158.970253 348.128966 
L 156.671956 346.436822 
" style="fill:none;stroke:#999999;"/>
    <path clip-path="url(#p3169dec81d)" d="M 175.866881 357.628883 
L 184.720704 364.994309 
" style="fill:none;stroke:#999999;"/>
    <path clip-path="url(#p3169dec81d)" d="M 175.866881 357.628883 
L 173.266199 355.556828 
" style="fill:none;stroke:#999999;"/>
    <path clip-path="url(#p3169dec81d)" d="M 175.866881 357.628883 
L 173.254695 360.743315 
" style="fill:none;stroke:#999999;"/>
    <path clip-path="url(#p3169dec81d)" d="M 199.202355 355.019237 
L 202.955061 357.416175 
L 242.458315 382.916845 
" style="fill:none;stroke:#999999;"/>
    <path clip-path="url(#p3169dec81d)" d="M 199.202355 355.019237 
L 187.756066 347.470733 
L 185.608141 346.132046 
" style="fill:none;stroke:#999999;"/>
    <path clip-path="url(#p3169dec81d)" d="M 199.202355 355.019237 
L 192.590952 365.561531 
L 192.432364 365.802813 
" style="fill:none;stroke:#999999;"/>
    <path clip-path="url(#p3169dec81d)" d="M 153.188768 352.422289 
L 152.213409 351.494203 
" style="fill:none;stroke:#999999;"/>
    <path clip-path="url(#p3169dec81d)" d="M 153.188768 352.422289 
L 155.665373 353.578957 
L 158.404101 355.811867 
L 163.049174 359.236366 
L 170.137985 364.459892 
" style="fill:none;stroke:#999999;"/>
    <path clip-path="url(#p3169dec81d)" d="M 153.188768 352.422289 
L 154.968571 354.116549 
L 160.482182 358.587658 
L 169.466656 365.260988 
" style="fill:none;stroke:#999999;"/>
    <path clip-path="url(#p3169dec81d)" d="M 152.213409 351.494203 
L 156.671956 346.436822 
" style="fill:none;stroke:#999999;"/>
    <path clip-path="url(#p3169dec81d)" d="M 152.213409 351.494203 
L 153.188768 352.422289 
" style="fill:none;stroke:#999999;"/>
    <path clip-path="url(#p3169dec81d)" d="M 152.213409 351.494203 
L 151.385135 350.705806 
L 149.270078 348.312043 
L 143.887118 342.208052 
" style="fill:none;stroke:#999999;"/>
    <path clip-path="url(#p3169dec81d)" d="M 167.337629 350.31002 
L 173.266199 355.556828 
" style="fill:none;stroke:#999999;"/>
    <path clip-path="url(#p3169dec81d)" d="M 167.337629 350.31002 
L 177.766653 342.601721 
" style="fill:none;stroke:#999999;"/>
    <path clip-path="url(#p3169dec81d)" d="M 167.337629 350.31002 
L 166.252163 349.323731 
L 164.478112 347.712015 
L 162.991655 346.116172 
" style="fill:none;stroke:#999999;"/>
    <path clip-path="url(#p3169dec81d)" d="M 182.691926 348.573431 
L 177.766653 342.601721 
" style="fill:none;stroke:#999999;"/>
    <path clip-path="url(#p3169dec81d)" d="M 182.691926 348.573431 
L 173.266199 355.556828 
" style="fill:none;stroke:#999999;"/>
    <path clip-path="url(#p3169dec81d)" d="M 182.691926 348.573431 
L 183.014854 348.326858 
L 185.608141 346.132046 
" style="fill:none;stroke:#999999;"/>
    <path clip-path="url(#p3169dec81d)" d="M 156.671956 346.436822 
L 152.213409 351.494203 
" style="fill:none;stroke:#999999;"/>
    <path clip-path="url(#p3169dec81d)" d="M 156.671956 346.436822 
L 157.109923 345.941561 
L 157.331782 345.73626 
" style="fill:none;stroke:#999999;"/>
    <path clip-path="url(#p3169dec81d)" d="M 156.671956 346.436822 
L 158.970253 348.128966 
L 161.202813 349.975613 
L 163.287467 351.970416 
L 164.954698 353.935588 
L 173.254695 360.743315 
" style="fill:none;stroke:#999999;"/>
    <path clip-path="url(#p3169dec81d)" d="M 185.608141 346.132046 
L 183.014854 348.326858 
L 182.691926 348.573431 
" style="fill:none;stroke:#999999;"/>
    <path clip-path="url(#p3169dec81d)" d="M 185.608141 346.132046 
L 187.756066 347.470733 
L 199.202355 355.019237 
" style="fill:none;stroke:#999999;"/>
    <path clip-path="url(#p3169dec81d)" d="M 185.608141 346.132046 
L 183.131536 344.589116 
L 180.053445 342.37843 
L 179.428953 341.788985 
" style="fill:none;stroke:#999999;"/>
    <path clip-path="url(#p3169dec81d)" d="M 162.991655 346.116172 
L 164.478112 347.712015 
L 166.252163 349.323731 
L 167.337629 350.31002 
" style="fill:none;stroke:#999999;"/>
    <path clip-path="url(#p3169dec81d)" d="M 162.991655 346.116172 
L 160.008882 343.588011 
L 159.805101 343.453613 
" style="fill:none;stroke:#999999;"/>
    <path clip-path="url(#p3169dec81d)" d="M 162.991655 346.116172 
L 165.379517 344.359476 
L 165.616989 343.704419 
L 165.766538 342.513887 
L 165.528245 342.006984 
L 165.662182 341.63448 
L 167.061538 340.161395 
L 167.046747 339.833337 
L 165.604663 338.110505 
" style="fill:none;stroke:#999999;"/>
    <path clip-path="url(#p3169dec81d)" d="M 142.346429 329.434965 
L 143.188672 327.688851 
" style="fill:none;stroke:#999999;"/>
    <path clip-path="url(#p3169dec81d)" d="M 142.346429 329.434965 
L 144.777841 329.188392 
" style="fill:none;stroke:#999999;"/>
    <path clip-path="url(#p3169dec81d)" d="M 142.346429 329.434965 
L 141.976664 330.20008 
L 141.88792 330.958846 
L 141.87313 332.418174 
L 142.007067 333.445735 
L 142.229748 334.577005 
L 142.900255 336.408838 
L 143.689088 338.626931 
L 144.269208 340.384686 
L 144.84522 341.780519 
" style="fill:none;stroke:#999999;"/>
    <path clip-path="url(#p3169dec81d)" d="M 144.777841 329.188392 
L 143.188672 327.688851 
" style="fill:none;stroke:#999999;"/>
    <path clip-path="url(#p3169dec81d)" d="M 144.777841 329.188392 
L 142.346429 329.434965 
" style="fill:none;stroke:#999999;"/>
    <path clip-path="url(#p3169dec81d)" d="M 144.777841 329.188392 
L 145.297156 329.678362 
L 150.238863 333.281706 
L 150.596303 333.951579 
L 150.809945 334.542083 
" style="fill:none;stroke:#999999;"/>
    <path clip-path="url(#p3169dec81d)" d="M 148.012054 311.734661 
L 151.109044 310.096489 
" style="fill:none;stroke:#999999;"/>
    <path clip-path="url(#p3169dec81d)" d="M 148.012054 311.734661 
L 141.238777 313.567552 
" style="fill:none;stroke:#999999;"/>
    <path clip-path="url(#p3169dec81d)" d="M 148.012054 311.734661 
L 142.177159 303.060179 
L 141.353815 301.409308 
" style="fill:none;stroke:#999999;"/>
    <path clip-path="url(#p3169dec81d)" d="M 148.012054 311.734661 
L 152.15589 315.219481 
L 154.920091 317.494721 
" style="fill:none;stroke:#999999;"/>
    <path clip-path="url(#p3169dec81d)" d="M 158.295637 321.746772 
L 163.103407 319.455659 
" style="fill:none;stroke:#999999;"/>
    <path clip-path="url(#p3169dec81d)" d="M 158.295637 321.746772 
L 155.10333 317.647109 
L 154.920091 317.494721 
" style="fill:none;stroke:#999999;"/>
    <path clip-path="url(#p3169dec81d)" d="M 158.295637 321.746772 
L 162.192962 326.702561 
L 162.703238 327.588317 
L 162.778013 327.952355 
" style="fill:none;stroke:#999999;"/>
    <path clip-path="url(#p3169dec81d)" d="M 158.295637 321.746772 
L 150.436071 324.346895 
L 142.726055 327.252851 
" style="fill:none;stroke:#999999;"/>
    <path clip-path="url(#p3169dec81d)" d="M 168.059904 317.092585 
L 163.103407 319.455659 
" style="fill:none;stroke:#999999;"/>
    <path clip-path="url(#p3169dec81d)" d="M 168.059904 317.092585 
L 168.820799 319.293747 
" style="fill:none;stroke:#999999;"/>
    <path clip-path="url(#p3169dec81d)" d="M 168.059904 317.092585 
L 164.401693 306.441291 
" style="fill:none;stroke:#999999;"/>
    <path clip-path="url(#p3169dec81d)" d="M 157.331782 345.73626 
L 159.805101 343.453613 
" style="fill:none;stroke:#999999;"/>
    <path clip-path="url(#p3169dec81d)" d="M 157.331782 345.73626 
L 155.971046 344.076923 
" style="fill:none;stroke:#999999;"/>
    <path clip-path="url(#p3169dec81d)" d="M 157.331782 345.73626 
L 157.109923 345.941561 
L 156.671956 346.436822 
" style="fill:none;stroke:#999999;"/>
    <path clip-path="url(#p3169dec81d)" d="M 155.971046 344.076923 
L 157.331782 345.73626 
" style="fill:none;stroke:#999999;"/>
    <path clip-path="url(#p3169dec81d)" d="M 155.971046 344.076923 
L 155.704815 344.076923 
L 155.062245 344.017661 
L 154.616062 343.674788 
L 152.888847 340.414317 
" style="fill:none;stroke:#999999;"/>
    <path clip-path="url(#p3169dec81d)" d="M 155.971046 344.076923 
L 158.597201 341.131811 
L 158.671976 340.832326 
L 157.076233 339.400513 
L 155.092648 337.715777 
L 154.845316 337.409943 
" style="fill:none;stroke:#999999;"/>
    <path clip-path="url(#p3169dec81d)" d="M 162.82485 328.181996 
L 162.778013 327.952355 
" style="fill:none;stroke:#999999;"/>
    <path clip-path="url(#p3169dec81d)" d="M 162.82485 328.181996 
L 165.508524 329.361945 
L 166.094397 330.060391 
L 166.813385 331.473156 
" style="fill:none;stroke:#999999;"/>
    <path clip-path="url(#p3169dec81d)" d="M 162.82485 328.181996 
L 163.510148 327.78621 
L 164.285834 327.192531 
L 167.529086 324.418856 
" style="fill:none;stroke:#999999;"/>
    <path clip-path="url(#p3169dec81d)" d="M 162.82485 328.181996 
L 163.293219 332.549397 
L 163.26446 333.190697 
" style="fill:none;stroke:#999999;"/>
    <path clip-path="url(#p3169dec81d)" d="M 162.778013 327.952355 
L 162.82485 328.181996 
" style="fill:none;stroke:#999999;"/>
    <path clip-path="url(#p3169dec81d)" d="M 162.778013 327.952355 
L 162.703238 327.588317 
L 162.192962 326.702561 
L 158.295637 321.746772 
" style="fill:none;stroke:#999999;"/>
    <path clip-path="url(#p3169dec81d)" d="M 162.778013 327.952355 
L 161.197883 329.043412 
L 159.493676 330.372575 
L 157.990786 331.629777 
L 156.38847 332.900736 
" style="fill:none;stroke:#999999;"/>
    <path clip-path="url(#p3169dec81d)" d="M 178.386215 327.848647 
L 180.709984 332.42029 
" style="fill:none;stroke:#999999;"/>
    <path clip-path="url(#p3169dec81d)" d="M 178.386215 327.848647 
L 172.773179 316.69045 
" style="fill:none;stroke:#999999;"/>
    <path clip-path="url(#p3169dec81d)" d="M 178.386215 327.848647 
L 174.2621 331.183195 
L 173.230866 331.981116 
" style="fill:none;stroke:#999999;"/>
    <path clip-path="url(#p3169dec81d)" d="M 143.188672 327.688851 
L 142.346429 329.434965 
" style="fill:none;stroke:#999999;"/>
    <path clip-path="url(#p3169dec81d)" d="M 143.188672 327.688851 
L 142.726055 327.252851 
" style="fill:none;stroke:#999999;"/>
    <path clip-path="url(#p3169dec81d)" d="M 143.188672 327.688851 
L 144.777841 329.188392 
" style="fill:none;stroke:#999999;"/>
    <path clip-path="url(#p3169dec81d)" d="M 159.805101 343.453613 
L 157.331782 345.73626 
" style="fill:none;stroke:#999999;"/>
    <path clip-path="url(#p3169dec81d)" d="M 159.805101 343.453613 
L 164.478933 339.126426 
L 165.604663 338.110505 
" style="fill:none;stroke:#999999;"/>
    <path clip-path="url(#p3169dec81d)" d="M 159.805101 343.453613 
L 160.008882 343.588011 
L 162.991655 346.116172 
" style="fill:none;stroke:#999999;"/>
    <path clip-path="url(#p3169dec81d)" d="M 142.726055 327.252851 
L 143.188672 327.688851 
" style="fill:none;stroke:#999999;"/>
    <path clip-path="url(#p3169dec81d)" d="M 142.726055 327.252851 
L 150.436071 324.346895 
L 158.295637 321.746772 
" style="fill:none;stroke:#999999;"/>
    <path clip-path="url(#p3169dec81d)" d="M 142.726055 327.252851 
L 142.460645 327.353385 
L 135.92977 327.323754 
L 132.961787 326.9449 
L 130.613367 326.804153 
L 127.646206 326.519484 
" style="fill:none;stroke:#999999;"/>
    <path clip-path="url(#p3169dec81d)" d="M 142.726055 327.252851 
L 142.113888 325.271806 
L 141.593751 322.266373 
L 141.391613 319.925523 
L 141.189475 317.556099 
L 141.238777 313.567552 
" style="fill:none;stroke:#999999;"/>
    <path clip-path="url(#p3169dec81d)" d="M 177.766653 342.601721 
L 169.77808 334.833102 
" style="fill:none;stroke:#999999;"/>
    <path clip-path="url(#p3169dec81d)" d="M 177.766653 342.601721 
L 182.691926 348.573431 
" style="fill:none;stroke:#999999;"/>
    <path clip-path="url(#p3169dec81d)" d="M 177.766653 342.601721 
L 179.167652 341.542412 
" style="fill:none;stroke:#999999;"/>
    <path clip-path="url(#p3169dec81d)" d="M 177.766653 342.601721 
L 167.337629 350.31002 
" style="fill:none;stroke:#999999;"/>
    <path clip-path="url(#p3169dec81d)" d="M 143.887118 342.208052 
L 144.84522 341.780519 
" style="fill:none;stroke:#999999;"/>
    <path clip-path="url(#p3169dec81d)" d="M 143.887118 342.208052 
L 139.982397 338.121087 
L 131.449858 330.099546 
L 127.646206 326.519484 
" style="fill:none;stroke:#999999;"/>
    <path clip-path="url(#p3169dec81d)" d="M 143.887118 342.208052 
L 149.270078 348.312043 
L 151.385135 350.705806 
L 152.213409 351.494203 
" style="fill:none;stroke:#999999;"/>
    <path clip-path="url(#p3169dec81d)" d="M 173.266199 355.556828 
L 175.866881 357.628883 
" style="fill:none;stroke:#999999;"/>
    <path clip-path="url(#p3169dec81d)" d="M 173.266199 355.556828 
L 167.337629 350.31002 
" style="fill:none;stroke:#999999;"/>
    <path clip-path="url(#p3169dec81d)" d="M 173.266199 355.556828 
L 182.691926 348.573431 
" style="fill:none;stroke:#999999;"/>
    <path clip-path="url(#p3169dec81d)" d="M 154.845316 337.409943 
L 154.521566 337.009924 
" style="fill:none;stroke:#999999;"/>
    <path clip-path="url(#p3169dec81d)" d="M 154.845316 337.409943 
L 152.278324 338.5973 
" style="fill:none;stroke:#999999;"/>
    <path clip-path="url(#p3169dec81d)" d="M 154.845316 337.409943 
L 155.092648 337.715777 
L 157.076233 339.400513 
L 158.671976 340.832326 
L 158.597201 341.131811 
L 155.971046 344.076923 
" style="fill:none;stroke:#999999;"/>
    <path clip-path="url(#p3169dec81d)" d="M 154.521566 337.009924 
L 154.845316 337.409943 
" style="fill:none;stroke:#999999;"/>
    <path clip-path="url(#p3169dec81d)" d="M 154.521566 337.009924 
L 157.849453 334.803471 
L 156.38847 332.900736 
" style="fill:none;stroke:#999999;"/>
    <path clip-path="url(#p3169dec81d)" d="M 154.521566 337.009924 
L 154.019507 336.389789 
L 153.381867 335.284975 
" style="fill:none;stroke:#999999;"/>
    <path clip-path="url(#p3169dec81d)" d="M 179.428953 341.788985 
L 179.167652 341.542412 
" style="fill:none;stroke:#999999;"/>
    <path clip-path="url(#p3169dec81d)" d="M 179.428953 341.788985 
L 183.825873 338.315806 
L 180.709984 332.42029 
" style="fill:none;stroke:#999999;"/>
    <path clip-path="url(#p3169dec81d)" d="M 179.428953 341.788985 
L 180.053445 342.37843 
L 183.131536 344.589116 
L 185.608141 346.132046 
" style="fill:none;stroke:#999999;"/>
    <path clip-path="url(#p3169dec81d)" d="M 156.38847 332.900736 
L 153.381867 335.284975 
" style="fill:none;stroke:#999999;"/>
    <path clip-path="url(#p3169dec81d)" d="M 156.38847 332.900736 
L 157.990786 331.629777 
L 159.493676 330.372575 
L 161.197883 329.043412 
L 162.778013 327.952355 
" style="fill:none;stroke:#999999;"/>
    <path clip-path="url(#p3169dec81d)" d="M 156.38847 332.900736 
L 157.849453 334.803471 
L 154.521566 337.009924 
" style="fill:none;stroke:#999999;"/>
    <path clip-path="url(#p3169dec81d)" d="M 144.84522 341.780519 
L 143.887118 342.208052 
" style="fill:none;stroke:#999999;"/>
    <path clip-path="url(#p3169dec81d)" d="M 144.84522 341.780519 
L 144.269208 340.384686 
L 143.689088 338.626931 
L 142.900255 336.408838 
L 142.229748 334.577005 
L 142.007067 333.445735 
L 141.87313 332.418174 
L 141.88792 330.958846 
L 141.976664 330.20008 
L 142.346429 329.434965 
" style="fill:none;stroke:#999999;"/>
    <path clip-path="url(#p3169dec81d)" d="M 144.84522 341.780519 
L 147.06792 340.785763 
L 148.556842 340.682054 
L 152.888847 340.414317 
" style="fill:none;stroke:#999999;"/>
    <path clip-path="url(#p3169dec81d)" d="M 167.529086 324.418856 
L 163.103407 319.455659 
" style="fill:none;stroke:#999999;"/>
    <path clip-path="url(#p3169dec81d)" d="M 167.529086 324.418856 
L 169.312176 323.002916 
L 169.912017 322.449451 
" style="fill:none;stroke:#999999;"/>
    <path clip-path="url(#p3169dec81d)" d="M 167.529086 324.418856 
L 164.285834 327.192531 
L 163.510148 327.78621 
L 162.82485 328.181996 
" style="fill:none;stroke:#999999;"/>
    <path clip-path="url(#p3169dec81d)" d="M 179.167652 341.542412 
L 177.766653 342.601721 
" style="fill:none;stroke:#999999;"/>
    <path clip-path="url(#p3169dec81d)" d="M 179.167652 341.542412 
L 179.428953 341.788985 
" style="fill:none;stroke:#999999;"/>
    <path clip-path="url(#p3169dec81d)" d="M 179.167652 341.542412 
L 177.251447 339.733862 
L 175.712401 337.6417 
L 174.88084 336.019401 
" style="fill:none;stroke:#999999;"/>
    <path clip-path="url(#p3169dec81d)" d="M 169.912017 322.449451 
L 168.820799 319.293747 
" style="fill:none;stroke:#999999;"/>
    <path clip-path="url(#p3169dec81d)" d="M 169.912017 322.449451 
L 169.312176 323.002916 
L 167.529086 324.418856 
" style="fill:none;stroke:#999999;"/>
    <path clip-path="url(#p3169dec81d)" d="M 169.912017 322.449451 
L 172.944092 331.220234 
L 173.230866 331.981116 
" style="fill:none;stroke:#999999;"/>
    <path clip-path="url(#p3169dec81d)" d="M 163.103407 319.455659 
L 168.059904 317.092585 
" style="fill:none;stroke:#999999;"/>
    <path clip-path="url(#p3169dec81d)" d="M 163.103407 319.455659 
L 158.295637 321.746772 
" style="fill:none;stroke:#999999;"/>
    <path clip-path="url(#p3169dec81d)" d="M 163.103407 319.455659 
L 159.986696 315.797286 
" style="fill:none;stroke:#999999;"/>
    <path clip-path="url(#p3169dec81d)" d="M 163.103407 319.455659 
L 167.529086 324.418856 
" style="fill:none;stroke:#999999;"/>
    <path clip-path="url(#p3169dec81d)" d="M 152.888847 340.414317 
L 152.278324 338.5973 
" style="fill:none;stroke:#999999;"/>
    <path clip-path="url(#p3169dec81d)" d="M 152.888847 340.414317 
L 154.616062 343.674788 
L 155.062245 344.017661 
L 155.704815 344.076923 
L 155.971046 344.076923 
" style="fill:none;stroke:#999999;"/>
    <path clip-path="url(#p3169dec81d)" d="M 152.888847 340.414317 
L 148.556842 340.682054 
L 147.06792 340.785763 
L 144.84522 341.780519 
" style="fill:none;stroke:#999999;"/>
    <path clip-path="url(#p3169dec81d)" d="M 168.820799 319.293747 
L 172.773179 316.69045 
" style="fill:none;stroke:#999999;"/>
    <path clip-path="url(#p3169dec81d)" d="M 168.820799 319.293747 
L 169.912017 322.449451 
" style="fill:none;stroke:#999999;"/>
    <path clip-path="url(#p3169dec81d)" d="M 168.820799 319.293747 
L 168.059904 317.092585 
" style="fill:none;stroke:#999999;"/>
    <path clip-path="url(#p3169dec81d)" d="M 154.920091 317.494721 
L 152.15589 315.219481 
L 148.012054 311.734661 
" style="fill:none;stroke:#999999;"/>
    <path clip-path="url(#p3169dec81d)" d="M 154.920091 317.494721 
L 155.10333 317.647109 
L 158.295637 321.746772 
" style="fill:none;stroke:#999999;"/>
    <path clip-path="url(#p3169dec81d)" d="M 154.920091 317.494721 
L 155.867512 316.995226 
L 157.64485 316.422712 
" style="fill:none;stroke:#999999;"/>
    <path clip-path="url(#p3169dec81d)" d="M 172.773179 316.69045 
L 176.245685 314.435317 
" style="fill:none;stroke:#999999;"/>
    <path clip-path="url(#p3169dec81d)" d="M 172.773179 316.69045 
L 168.820799 319.293747 
" style="fill:none;stroke:#999999;"/>
    <path clip-path="url(#p3169dec81d)" d="M 172.773179 316.69045 
L 178.386215 327.848647 
" style="fill:none;stroke:#999999;"/>
    <path clip-path="url(#p3169dec81d)" d="M 157.64485 316.422712 
L 151.109044 310.096489 
" style="fill:none;stroke:#999999;"/>
    <path clip-path="url(#p3169dec81d)" d="M 157.64485 316.422712 
L 159.986696 315.797286 
" style="fill:none;stroke:#999999;"/>
    <path clip-path="url(#p3169dec81d)" d="M 157.64485 316.422712 
L 155.867512 316.995226 
L 154.920091 317.494721 
" style="fill:none;stroke:#999999;"/>
    <path clip-path="url(#p3169dec81d)" d="M 159.986696 315.797286 
L 155.178927 307.942949 
" style="fill:none;stroke:#999999;"/>
    <path clip-path="url(#p3169dec81d)" d="M 159.986696 315.797286 
L 163.103407 319.455659 
" style="fill:none;stroke:#999999;"/>
    <path clip-path="url(#p3169dec81d)" d="M 159.986696 315.797286 
L 157.64485 316.422712 
" style="fill:none;stroke:#999999;"/>
    <path clip-path="url(#p3169dec81d)" d="M 176.245685 314.435317 
L 172.709908 308.984267 
" style="fill:none;stroke:#999999;"/>
    <path clip-path="url(#p3169dec81d)" d="M 176.245685 314.435317 
L 176.43632 314.311502 
" style="fill:none;stroke:#999999;"/>
    <path clip-path="url(#p3169dec81d)" d="M 176.245685 314.435317 
L 172.773179 316.69045 
" style="fill:none;stroke:#999999;"/>
    <path clip-path="url(#p3169dec81d)" d="M 176.43632 314.311502 
L 176.245685 314.435317 
" style="fill:none;stroke:#999999;"/>
    <path clip-path="url(#p3169dec81d)" d="M 141.238777 313.567552 
L 148.012054 311.734661 
" style="fill:none;stroke:#999999;"/>
    <path clip-path="url(#p3169dec81d)" d="M 141.238777 313.567552 
L 141.246994 312.931543 
L 141.275753 309.665781 
L 141.449132 303.30781 
L 141.353815 301.409308 
" style="fill:none;stroke:#999999;"/>
    <path clip-path="url(#p3169dec81d)" d="M 141.238777 313.567552 
L 141.189475 317.556099 
L 141.391613 319.925523 
L 141.593751 322.266373 
L 142.113888 325.271806 
L 142.726055 327.252851 
" style="fill:none;stroke:#999999;"/>
    <path clip-path="url(#p3169dec81d)" d="M 127.597726 210.075912 
L 128.293706 217.270959 
L 128.845889 224.634269 
L 128.907517 229.3583 
L 128.999547 231.751005 
L 130.345493 239.350305 
L 131.179519 243.06159 
L 131.678291 247.183477 
L 131.98232 250.588928 
L 132.611743 254.385932 
L 133.500823 258.572373 
L 134.758846 262.975754 
L 135.613415 266.375914 
L 136.117117 269.148531 
L 136.57727 272.523293 
L 136.761331 276.143569 
L 137.006197 280.193495 
L 137.343916 283.967218 
L 137.742441 286.728194 
L 138.754776 290.716742 
L 139.7326 294.860852 
L 141.353815 301.409308 
" style="fill:none;stroke:#999999;"/>
    <path clip-path="url(#p3169dec81d)" d="M 127.597726 210.075912 
L 129.928069 180.976131 
L 130.991349 172.844531 
L 132.46548 163.161536 
L 133.559985 155.750606 
L 133.686527 152.424523 
L 133.181181 149.730217 
L 133.023415 147.694142 
" style="fill:none;stroke:#999999;"/>
    <path clip-path="url(#p3169dec81d)" d="M 127.597726 210.075912 
L 129.541048 212.21252 
L 131.582152 214.830633 
L 133.029167 217.185241 
L 133.869766 218.86151 
L 134.994674 221.74736 
L 147.006293 256.382852 
L 156.487895 283.755568 
L 161.84374 298.918185 
" style="fill:none;stroke:#999999;"/>
    <path clip-path="url(#p3169dec81d)" d="M 127.597726 210.075912 
L 124.303529 206.195306 
L 122.513865 203.550737 
L 121.592738 201.70409 
L 119.388116 195.849846 
L 117.437399 190.447475 
L 101.698547 146.642241 
L 95.901449 130.460527 
L 93.624517 125.137526 
L 92.215301 122.117278 
L 75.741026 89.170755 
L 55.635658 49.021776 
L 35.175314 8.307692 
" style="fill:none;stroke:#999999;"/>
    <path clip-path="url(#p3169dec81d)" d="M 151.109044 310.096489 
L 148.012054 311.734661 
" style="fill:none;stroke:#999999;"/>
    <path clip-path="url(#p3169dec81d)" d="M 151.109044 310.096489 
L 155.178927 307.942949 
" style="fill:none;stroke:#999999;"/>
    <path clip-path="url(#p3169dec81d)" d="M 151.109044 310.096489 
L 157.64485 316.422712 
" style="fill:none;stroke:#999999;"/>
    <path clip-path="url(#p3169dec81d)" d="M 152.278324 338.5973 
L 150.809945 334.542083 
" style="fill:none;stroke:#999999;"/>
    <path clip-path="url(#p3169dec81d)" d="M 152.278324 338.5973 
L 152.888847 340.414317 
" style="fill:none;stroke:#999999;"/>
    <path clip-path="url(#p3169dec81d)" d="M 152.278324 338.5973 
L 154.845316 337.409943 
" style="fill:none;stroke:#999999;"/>
    <path clip-path="url(#p3169dec81d)" d="M 172.709908 308.984267 
L 176.245685 314.435317 
" style="fill:none;stroke:#999999;"/>
    <path clip-path="url(#p3169dec81d)" d="M 155.178927 307.942949 
L 151.109044 310.096489 
" style="fill:none;stroke:#999999;"/>
    <path clip-path="url(#p3169dec81d)" d="M 155.178927 307.942949 
L 163.420583 303.58613 
" style="fill:none;stroke:#999999;"/>
    <path clip-path="url(#p3169dec81d)" d="M 155.178927 307.942949 
L 152.866661 304.302566 
" style="fill:none;stroke:#999999;"/>
    <path clip-path="url(#p3169dec81d)" d="M 155.178927 307.942949 
L 159.986696 315.797286 
" style="fill:none;stroke:#999999;"/>
    <path clip-path="url(#p3169dec81d)" d="M 165.604663 338.110505 
L 169.506097 334.587588 
" style="fill:none;stroke:#999999;"/>
    <path clip-path="url(#p3169dec81d)" d="M 165.604663 338.110505 
L 164.478933 339.126426 
L 159.805101 343.453613 
" style="fill:none;stroke:#999999;"/>
    <path clip-path="url(#p3169dec81d)" d="M 165.604663 338.110505 
L 167.046747 339.833337 
L 167.061538 340.161395 
L 165.662182 341.63448 
L 165.528245 342.006984 
L 165.766538 342.513887 
L 165.616989 343.704419 
L 165.379517 344.359476 
L 162.991655 346.116172 
" style="fill:none;stroke:#999999;"/>
    <path clip-path="url(#p3169dec81d)" d="M 127.646206 326.519484 
L 130.613367 326.804153 
L 132.961787 326.9449 
L 135.92977 327.323754 
L 142.460645 327.353385 
L 142.726055 327.252851 
" style="fill:none;stroke:#999999;"/>
    <path clip-path="url(#p3169dec81d)" d="M 127.646206 326.519484 
L 131.449858 330.099546 
L 139.982397 338.121087 
L 143.887118 342.208052 
" style="fill:none;stroke:#999999;"/>
    <path clip-path="url(#p3169dec81d)" d="M 164.401693 306.441291 
L 168.059904 317.092585 
" style="fill:none;stroke:#999999;"/>
    <path clip-path="url(#p3169dec81d)" d="M 164.401693 306.441291 
L 163.420583 303.58613 
" style="fill:none;stroke:#999999;"/>
    <path clip-path="url(#p3169dec81d)" d="M 164.401693 306.441291 
L 165.341719 304.078216 
L 166.267775 300.035698 
L 166.394317 297.340333 
L 166.394317 296.455636 
" style="fill:none;stroke:#999999;"/>
    <path clip-path="url(#p3169dec81d)" d="M 152.866661 304.302566 
L 149.295551 298.862098 
" style="fill:none;stroke:#999999;"/>
    <path clip-path="url(#p3169dec81d)" d="M 152.866661 304.302566 
L 155.178927 307.942949 
" style="fill:none;stroke:#999999;"/>
    <path clip-path="url(#p3169dec81d)" d="M 152.866661 304.302566 
L 161.84374 298.918185 
" style="fill:none;stroke:#999999;"/>
    <path clip-path="url(#p3169dec81d)" d="M 163.420583 303.58613 
L 155.178927 307.942949 
" style="fill:none;stroke:#999999;"/>
    <path clip-path="url(#p3169dec81d)" d="M 163.420583 303.58613 
L 164.401693 306.441291 
" style="fill:none;stroke:#999999;"/>
    <path clip-path="url(#p3169dec81d)" d="M 163.420583 303.58613 
L 163.289111 303.143781 
L 161.84374 298.918185 
" style="fill:none;stroke:#999999;"/>
    <path clip-path="url(#p3169dec81d)" d="M 174.88084 336.019401 
L 180.709984 332.42029 
" style="fill:none;stroke:#999999;"/>
    <path clip-path="url(#p3169dec81d)" d="M 174.88084 336.019401 
L 175.712401 337.6417 
L 177.251447 339.733862 
L 179.167652 341.542412 
" style="fill:none;stroke:#999999;"/>
    <path clip-path="url(#p3169dec81d)" d="M 174.88084 336.019401 
L 174.395215 335.072267 
L 173.230866 331.981116 
" style="fill:none;stroke:#999999;"/>
   </g>
  </g>
 </g>
 <defs>
  <clipPath id="p3169dec81d">
   <rect height="432" width="215.574321" x="31.029654" y="0"/>
  </clipPath>
 </defs>
</svg>
