<?xml version="1.0" encoding="utf-8" standalone="no"?>
<!DOCTYPE svg PUBLIC "-//W3C//DTD SVG 1.1//EN"
  "http://www.w3.org/Graphics/SVG/1.1/DTD/svg11.dtd">
<!-- Created with matplotlib (http://matplotlib.org/) -->
<svg height="432pt" version="1.1" viewBox="0 0 913.262065 432" width="913.262065pt" xmlns="http://www.w3.org/2000/svg" xmlns:xlink="http://www.w3.org/1999/xlink">
 <defs>
  <style type="text/css">
*{stroke-linecap:butt;stroke-linejoin:round;}
  </style>
 </defs>
 <g id="figure_1">
  <g id="patch_1">
   <path d="M 0 432 
L 913.262065 432 
L 913.262065 0 
L 0 0 
z
" style="fill:none;opacity:0;"/>
  </g>
  <g id="axes_1">
   <g id="PathCollection_1">
    <defs>
     <path d="M 0 1.936492 
C 0.513564 1.936492 1.006162 1.732451 1.369306 1.369306 
C 1.732451 1.006162 1.936492 0.513564 1.936492 0 
C 1.936492 -0.513564 1.732451 -1.006162 1.369306 -1.369306 
C 1.006162 -1.732451 0.513564 -1.936492 0 -1.936492 
C -0.513564 -1.936492 -1.006162 -1.732451 -1.369306 -1.369306 
C -1.732451 -1.006162 -1.936492 -0.513564 -1.936492 0 
C -1.936492 0.513564 -1.732451 1.006162 -1.369306 1.369306 
C -1.006162 1.732451 -0.513564 1.936492 0 1.936492 
z
" id="C0_0_ca81fc0d21"/>
    </defs>
    <g clip-path="url(#pb12ac6be17)">
     <use style="fill:#66ccff;" x="523.760979" xlink:href="#C0_0_ca81fc0d21" y="223.950578"/>
    </g>
    <g clip-path="url(#pb12ac6be17)">
     <use style="fill:#66ccff;" x="524.666371" xlink:href="#C0_0_ca81fc0d21" y="228.191054"/>
    </g>
    <g clip-path="url(#pb12ac6be17)">
     <use style="fill:#66ccff;" x="528.59692" xlink:href="#C0_0_ca81fc0d21" y="240.240853"/>
    </g>
    <g clip-path="url(#pb12ac6be17)">
     <use style="fill:#66ccff;" x="528.586903" xlink:href="#C0_0_ca81fc0d21" y="237.218794"/>
    </g>
    <g clip-path="url(#pb12ac6be17)">
     <use style="fill:#66ccff;" x="532.62785" xlink:href="#C0_0_ca81fc0d21" y="238.356976"/>
    </g>
    <g clip-path="url(#pb12ac6be17)">
     <use style="fill:#66ccff;" x="515.343103" xlink:href="#C0_0_ca81fc0d21" y="229.411436"/>
    </g>
    <g clip-path="url(#pb12ac6be17)">
     <use style="fill:#66ccff;" x="523.502514" xlink:href="#C0_0_ca81fc0d21" y="226.299041"/>
    </g>
    <g clip-path="url(#pb12ac6be17)">
     <use style="fill:#66ccff;" x="521.575889" xlink:href="#C0_0_ca81fc0d21" y="227.617615"/>
    </g>
    <g clip-path="url(#pb12ac6be17)">
     <use style="fill:#66ccff;" x="409.603042" xlink:href="#C0_0_ca81fc0d21" y="287.611309"/>
    </g>
    <g clip-path="url(#pb12ac6be17)">
     <use style="fill:#66ccff;" x="519.404082" xlink:href="#C0_0_ca81fc0d21" y="224.92015"/>
    </g>
    <g clip-path="url(#pb12ac6be17)">
     <use style="fill:#66ccff;" x="255.317839" xlink:href="#C0_0_ca81fc0d21" y="193.94321"/>
    </g>
    <g clip-path="url(#pb12ac6be17)">
     <use style="fill:#66ccff;" x="259.064827" xlink:href="#C0_0_ca81fc0d21" y="200.686732"/>
    </g>
    <g clip-path="url(#pb12ac6be17)">
     <use style="fill:#66ccff;" x="530.103728" xlink:href="#C0_0_ca81fc0d21" y="235.112443"/>
    </g>
    <g clip-path="url(#pb12ac6be17)">
     <use style="fill:#66ccff;" x="528.71189" xlink:href="#C0_0_ca81fc0d21" y="242.099761"/>
    </g>
    <g clip-path="url(#pb12ac6be17)">
     <use style="fill:#66ccff;" x="531.079016" xlink:href="#C0_0_ca81fc0d21" y="224.142472"/>
    </g>
    <g clip-path="url(#pb12ac6be17)">
     <use style="fill:#66ccff;" x="517.66951" xlink:href="#C0_0_ca81fc0d21" y="226.940934"/>
    </g>
    <g clip-path="url(#pb12ac6be17)">
     <use style="fill:#66ccff;" x="520.991021" xlink:href="#C0_0_ca81fc0d21" y="227.615371"/>
    </g>
    <g clip-path="url(#pb12ac6be17)">
     <use style="fill:#66ccff;" x="527.111886" xlink:href="#C0_0_ca81fc0d21" y="242.030746"/>
    </g>
    <g clip-path="url(#pb12ac6be17)">
     <use style="fill:#66ccff;" x="523.154554" xlink:href="#C0_0_ca81fc0d21" y="233.887853"/>
    </g>
    <g clip-path="url(#pb12ac6be17)">
     <use style="fill:#66ccff;" x="530.2089" xlink:href="#C0_0_ca81fc0d21" y="228.372007"/>
    </g>
    <g clip-path="url(#pb12ac6be17)">
     <use style="fill:#66ccff;" x="506.869048" xlink:href="#C0_0_ca81fc0d21" y="226.377034"/>
    </g>
    <g clip-path="url(#pb12ac6be17)">
     <use style="fill:#66ccff;" x="526.002466" xlink:href="#C0_0_ca81fc0d21" y="219.730301"/>
    </g>
    <g clip-path="url(#pb12ac6be17)">
     <use style="fill:#66ccff;" x="523.153901" xlink:href="#C0_0_ca81fc0d21" y="228.575685"/>
    </g>
    <g clip-path="url(#pb12ac6be17)">
     <use style="fill:#66ccff;" x="527.129523" xlink:href="#C0_0_ca81fc0d21" y="244.127559"/>
    </g>
    <g clip-path="url(#pb12ac6be17)">
     <use style="fill:#66ccff;" x="516.635648" xlink:href="#C0_0_ca81fc0d21" y="222.116638"/>
    </g>
    <g clip-path="url(#pb12ac6be17)">
     <use style="fill:#66ccff;" x="533.583105" xlink:href="#C0_0_ca81fc0d21" y="243.052781"/>
    </g>
    <g clip-path="url(#pb12ac6be17)">
     <use style="fill:#66ccff;" x="534.464327" xlink:href="#C0_0_ca81fc0d21" y="237.173907"/>
    </g>
    <g clip-path="url(#pb12ac6be17)">
     <use style="fill:#66ccff;" x="532.6481" xlink:href="#C0_0_ca81fc0d21" y="236.953957"/>
    </g>
    <g clip-path="url(#pb12ac6be17)">
     <use style="fill:#66ccff;" x="536.402056" xlink:href="#C0_0_ca81fc0d21" y="238.039957"/>
    </g>
    <g clip-path="url(#pb12ac6be17)">
     <use style="fill:#66ccff;" x="532.112878" xlink:href="#C0_0_ca81fc0d21" y="241.490692"/>
    </g>
    <g clip-path="url(#pb12ac6be17)">
     <use style="fill:#66ccff;" x="523.094674" xlink:href="#C0_0_ca81fc0d21" y="229.298936"/>
    </g>
    <g clip-path="url(#pb12ac6be17)">
     <use style="fill:#66ccff;" x="516.090192" xlink:href="#C0_0_ca81fc0d21" y="227.238595"/>
    </g>
    <g clip-path="url(#pb12ac6be17)">
     <use style="fill:#66ccff;" x="521.476597" xlink:href="#C0_0_ca81fc0d21" y="228.37313"/>
    </g>
    <g clip-path="url(#pb12ac6be17)">
     <use style="fill:#66ccff;" x="519.134947" xlink:href="#C0_0_ca81fc0d21" y="225.03293"/>
    </g>
    <g clip-path="url(#pb12ac6be17)">
     <use style="fill:#66ccff;" x="536.633304" xlink:href="#C0_0_ca81fc0d21" y="222.251021"/>
    </g>
    <g clip-path="url(#pb12ac6be17)">
     <use style="fill:#66ccff;" x="528.790061" xlink:href="#C0_0_ca81fc0d21" y="205.043636"/>
    </g>
    <g clip-path="url(#pb12ac6be17)">
     <use style="fill:#66ccff;" x="536.823832" xlink:href="#C0_0_ca81fc0d21" y="237.069543"/>
    </g>
    <g clip-path="url(#pb12ac6be17)">
     <use style="fill:#66ccff;" x="587.145353" xlink:href="#C0_0_ca81fc0d21" y="221.231791"/>
    </g>
    <g clip-path="url(#pb12ac6be17)">
     <use style="fill:#66ccff;" x="797.413713" xlink:href="#C0_0_ca81fc0d21" y="423.692308"/>
    </g>
    <g clip-path="url(#pb12ac6be17)">
     <use style="fill:#66ccff;" x="534.534877" xlink:href="#C0_0_ca81fc0d21" y="234.058145"/>
    </g>
    <g clip-path="url(#pb12ac6be17)">
     <use style="fill:#66ccff;" x="142.947822" xlink:href="#C0_0_ca81fc0d21" y="10.454723"/>
    </g>
    <g clip-path="url(#pb12ac6be17)">
     <use style="fill:#66ccff;" x="540.901142" xlink:href="#C0_0_ca81fc0d21" y="239.606535"/>
    </g>
    <g clip-path="url(#pb12ac6be17)">
     <use style="fill:#66ccff;" x="527.117547" xlink:href="#C0_0_ca81fc0d21" y="235.274319"/>
    </g>
    <g clip-path="url(#pb12ac6be17)">
     <use style="fill:#66ccff;" x="532.802047" xlink:href="#C0_0_ca81fc0d21" y="235.97681"/>
    </g>
    <g clip-path="url(#pb12ac6be17)">
     <use style="fill:#66ccff;" x="524.733219" xlink:href="#C0_0_ca81fc0d21" y="231.723709"/>
    </g>
    <g clip-path="url(#pb12ac6be17)">
     <use style="fill:#66ccff;" x="525.209431" xlink:href="#C0_0_ca81fc0d21" y="226.806552"/>
    </g>
    <g clip-path="url(#pb12ac6be17)">
     <use style="fill:#66ccff;" x="522.228477" xlink:href="#C0_0_ca81fc0d21" y="231.226859"/>
    </g>
    <g clip-path="url(#pb12ac6be17)">
     <use style="fill:#66ccff;" x="538.607397" xlink:href="#C0_0_ca81fc0d21" y="238.844006"/>
    </g>
    <g clip-path="url(#pb12ac6be17)">
     <use style="fill:#66ccff;" x="522.709697" xlink:href="#C0_0_ca81fc0d21" y="225.877939"/>
    </g>
    <g clip-path="url(#pb12ac6be17)">
     <use style="fill:#66ccff;" x="525.301756" xlink:href="#C0_0_ca81fc0d21" y="240.020062"/>
    </g>
    <g clip-path="url(#pb12ac6be17)">
     <use style="fill:#66ccff;" x="533.927581" xlink:href="#C0_0_ca81fc0d21" y="242.433612"/>
    </g>
    <g clip-path="url(#pb12ac6be17)">
     <use style="fill:#66ccff;" x="528.950758" xlink:href="#C0_0_ca81fc0d21" y="243.841961"/>
    </g>
    <g clip-path="url(#pb12ac6be17)">
     <use style="fill:#66ccff;" x="521.189606" xlink:href="#C0_0_ca81fc0d21" y="233.946487"/>
    </g>
    <g clip-path="url(#pb12ac6be17)">
     <use style="fill:#66ccff;" x="523.066584" xlink:href="#C0_0_ca81fc0d21" y="237.983847"/>
    </g>
    <g clip-path="url(#pb12ac6be17)">
     <use style="fill:#66ccff;" x="522.233703" xlink:href="#C0_0_ca81fc0d21" y="228.946849"/>
    </g>
    <g clip-path="url(#pb12ac6be17)">
     <use style="fill:#66ccff;" x="520.91089" xlink:href="#C0_0_ca81fc0d21" y="227.489966"/>
    </g>
    <g clip-path="url(#pb12ac6be17)">
     <use style="fill:#66ccff;" x="500.328149" xlink:href="#C0_0_ca81fc0d21" y="147.241579"/>
    </g>
    <g clip-path="url(#pb12ac6be17)">
     <use style="fill:#66ccff;" x="522.545952" xlink:href="#C0_0_ca81fc0d21" y="227.925656"/>
    </g>
    <g clip-path="url(#pb12ac6be17)">
     <use style="fill:#66ccff;" x="522.946824" xlink:href="#C0_0_ca81fc0d21" y="228.057513"/>
    </g>
    <g clip-path="url(#pb12ac6be17)">
     <use style="fill:#66ccff;" x="531.365789" xlink:href="#C0_0_ca81fc0d21" y="229.656915"/>
    </g>
    <g clip-path="url(#pb12ac6be17)">
     <use style="fill:#66ccff;" x="523.356406" xlink:href="#C0_0_ca81fc0d21" y="242.538818"/>
    </g>
    <g clip-path="url(#pb12ac6be17)">
     <use style="fill:#66ccff;" x="497.314968" xlink:href="#C0_0_ca81fc0d21" y="232.488201"/>
    </g>
    <g clip-path="url(#pb12ac6be17)">
     <use style="fill:#66ccff;" x="527.024352" xlink:href="#C0_0_ca81fc0d21" y="240.932402"/>
    </g>
   </g>
   <g id="LineCollection_1">
    <path clip-path="url(#pb12ac6be17)" d="M 523.760979 223.950578 
L 523.200281 224.791659 
L 522.709697 225.877939 
" style="fill:none;stroke:#999999;"/>
    <path clip-path="url(#pb12ac6be17)" d="M 524.666371 228.191054 
L 525.209431 226.806552 
" style="fill:none;stroke:#999999;"/>
    <path clip-path="url(#pb12ac6be17)" d="M 524.666371 228.191054 
L 524.742147 228.687343 
L 524.660492 229.878828 
L 524.733219 231.723709 
" style="fill:none;stroke:#999999;"/>
    <path clip-path="url(#pb12ac6be17)" d="M 524.666371 228.191054 
L 524.40355 228.377899 
L 523.153901 228.575685 
" style="fill:none;stroke:#999999;"/>
    <path clip-path="url(#pb12ac6be17)" d="M 528.59692 240.240853 
L 528.71189 242.099761 
" style="fill:none;stroke:#999999;"/>
    <path clip-path="url(#pb12ac6be17)" d="M 528.59692 240.240853 
L 527.024352 240.932402 
" style="fill:none;stroke:#999999;"/>
    <path clip-path="url(#pb12ac6be17)" d="M 528.59692 240.240853 
L 528.729745 237.743138 
L 528.586903 237.218794 
" style="fill:none;stroke:#999999;"/>
    <path clip-path="url(#pb12ac6be17)" d="M 528.59692 240.240853 
L 530.335846 238.899835 
L 530.978199 238.514363 
L 531.573955 238.303952 
L 532.62785 238.356976 
" style="fill:none;stroke:#999999;"/>
    <path clip-path="url(#pb12ac6be17)" d="M 528.586903 237.218794 
L 526.464742 239.39416 
L 525.882923 239.776827 
L 525.301756 240.020062 
" style="fill:none;stroke:#999999;"/>
    <path clip-path="url(#pb12ac6be17)" d="M 528.586903 237.218794 
L 528.889136 237.111064 
L 530.090228 236.800778 
L 530.686636 236.790398 
L 532.408579 236.9245 
L 532.6481 236.953957 
" style="fill:none;stroke:#999999;"/>
    <path clip-path="url(#pb12ac6be17)" d="M 528.586903 237.218794 
L 528.729745 237.743138 
L 528.59692 240.240853 
" style="fill:none;stroke:#999999;"/>
    <path clip-path="url(#pb12ac6be17)" d="M 528.586903 237.218794 
L 528.209766 236.684071 
L 527.543678 235.842708 
L 527.117547 235.274319 
" style="fill:none;stroke:#999999;"/>
    <path clip-path="url(#pb12ac6be17)" d="M 532.62785 238.356976 
L 532.6481 236.953957 
" style="fill:none;stroke:#999999;"/>
    <path clip-path="url(#pb12ac6be17)" d="M 532.62785 238.356976 
L 532.603462 240.053727 
L 532.112878 241.490692 
" style="fill:none;stroke:#999999;"/>
    <path clip-path="url(#pb12ac6be17)" d="M 532.62785 238.356976 
L 531.573955 238.303952 
L 530.978199 238.514363 
L 530.335846 238.899835 
L 528.59692 240.240853 
" style="fill:none;stroke:#999999;"/>
    <path clip-path="url(#pb12ac6be17)" d="M 515.343103 229.411436 
L 514.962917 229.45436 
L 512.738415 229.505139 
L 512.001559 229.611466 
L 510.025724 230.273278 
L 504.182487 232.437703 
L 502.7741 232.606031 
L 499.818404 232.479504 
L 497.314968 232.488201 
" style="fill:none;stroke:#999999;"/>
    <path clip-path="url(#pb12ac6be17)" d="M 515.343103 229.411436 
L 515.496614 229.394042 
L 515.916213 229.333724 
L 516.675278 229.145477 
L 517.793626 228.970696 
L 518.391124 228.979393 
L 518.909143 229.25966 
L 519.519923 229.820194 
L 520.142026 230.290953 
L 520.697716 230.530821 
L 521.62706 230.803233 
L 522.228477 231.226859 
" style="fill:none;stroke:#999999;"/>
    <path clip-path="url(#pb12ac6be17)" d="M 515.343103 229.411436 
L 515.352248 229.265271 
L 515.840001 229.046163 
L 516.197759 228.570635 
L 516.898469 227.834759 
L 517.640332 227.367366 
L 517.66951 226.940934 
" style="fill:none;stroke:#999999;"/>
    <path clip-path="url(#pb12ac6be17)" d="M 523.502514 226.299041 
L 522.946824 228.057513 
" style="fill:none;stroke:#999999;"/>
    <path clip-path="url(#pb12ac6be17)" d="M 523.502514 226.299041 
L 525.209431 226.806552 
" style="fill:none;stroke:#999999;"/>
    <path clip-path="url(#pb12ac6be17)" d="M 523.502514 226.299041 
L 523.844159 225.218372 
L 526.002466 219.730301 
" style="fill:none;stroke:#999999;"/>
    <path clip-path="url(#pb12ac6be17)" d="M 521.575889 227.617615 
L 521.476597 228.37313 
" style="fill:none;stroke:#999999;"/>
    <path clip-path="url(#pb12ac6be17)" d="M 521.575889 227.617615 
L 520.991021 227.615371 
" style="fill:none;stroke:#999999;"/>
    <path clip-path="url(#pb12ac6be17)" d="M 521.575889 227.617615 
L 522.545952 227.925656 
" style="fill:none;stroke:#999999;"/>
    <path clip-path="url(#pb12ac6be17)" d="M 521.575889 227.617615 
L 521.699352 227.180522 
L 522.709697 225.877939 
" style="fill:none;stroke:#999999;"/>
    <path clip-path="url(#pb12ac6be17)" d="M 409.603042 287.611309 
L 403.755667 287.148405 
L 402.120388 287.802923 
L 401.746517 287.242108 
L 402.914511 285.512533 
L 407.540108 280.932313 
L 408.563518 278.859347 
L 407.77375 273.05566 
L 407.189753 271.56006 
L 407.119639 270.088027 
L 405.180603 267.797918 
L 404.176137 266.839848 
L 402.65757 264.807 
L 401.606288 263.942352 
L 399.83078 261.815802 
L 397.634803 260.367054 
L 397.027507 260.156924 
L 395.368711 260.343769 
L 394.130602 260.273632 
L 392.191566 260.343769 
L 389.177949 261.044857 
L 384.739179 261.675809 
L 381.258278 263.638519 
L 379.693113 264.526452 
L 378.338074 264.853571 
L 377.193379 264.666726 
L 377.17008 263.47496 
L 376.632681 261.675809 
L 376.698005 259.861227 
L 375.95527 256.675329 
L 374.062832 253.988244 
L 372.707793 252.726341 
L 372.264025 251.698135 
L 372.100497 250.997327 
L 371.165928 250.086108 
L 369.951118 249.17489 
L 366.867387 246.020413 
L 365.045281 245.062343 
L 363.993999 244.852213 
L 363.082946 243.917709 
L 361.466175 240.117412 
L 359.064645 238.286839 
L 350.677906 235.366339 
L 349.55651 235.155928 
L 346.916547 233.800883 
L 344.954212 233.941157 
L 344.159871 233.754032 
L 343.178704 233.100075 
L 342.286377 232.687671 
L 340.725785 232.609398 
L 339.931445 232.352416 
L 338.786749 231.441198 
L 337.525124 230.927235 
L 336.403728 230.15629 
L 335.375962 229.829171 
L 334.161153 229.104798 
L 330.119553 227.119082 
L 328.507573 226.838534 
L 327.339361 226.301286 
L 325.535981 225.748607 
L 323.695149 224.759396 
L 320.097317 223.567911 
L 316.756645 221.39507 
L 314.537151 220.647411 
L 310.565666 219.853181 
L 307.598864 218.147732 
L 307.337133 217.315067 
L 307.178395 214.830537 
L 306.547582 213.241797 
L 299.861447 211.030801 
L 298.487682 210.765684 
L 296.805805 210.765684 
L 292.016462 208.102446 
L 289.937415 206.887675 
L 288.629192 206.420563 
L 286.106159 206.350426 
L 284.026894 207.144656 
L 283.115841 207.191508 
L 282.298201 207.565197 
L 278.630255 206.934526 
L 276.831448 206.841104 
L 272.462793 205.626333 
L 270.033173 205.229078 
L 267.299797 205.392637 
L 266.225216 205.719755 
L 265.384277 205.603048 
L 262.931141 203.337065 
L 259.685188 201.701753 
L 259.064827 200.686732 
" style="fill:none;stroke:#999999;"/>
    <path clip-path="url(#pb12ac6be17)" d="M 409.603042 287.611309 
L 413.40033 287.290643 
L 416.777584 285.381236 
L 418.539809 280.093195 
L 419.714336 277.008575 
L 424.266334 273.923954 
L 425.588058 270.986341 
L 428.084308 268.195734 
L 456.717805 249.543249 
L 460.242038 246.605916 
L 463.17879 242.49393 
L 466.996546 237.941485 
L 469.346035 232.654846 
L 470.520779 231.479913 
L 471.551593 231.073961 
L 472.321764 230.989797 
L 472.964117 231.047589 
L 475.60212 231.731564 
L 477.485849 232.077199 
L 483.505896 232.887981 
L 484.617276 232.948299 
L 485.661808 232.883493 
L 487.274224 232.514012 
L 488.112985 232.319873 
L 489.282939 232.211862 
L 490.239065 232.274143 
L 492.049631 232.450608 
L 493.803146 232.556374 
L 497.314968 232.488201 
" style="fill:none;stroke:#999999;"/>
    <path clip-path="url(#pb12ac6be17)" d="M 519.404082 224.92015 
L 519.134947 225.03293 
" style="fill:none;stroke:#999999;"/>
    <path clip-path="url(#pb12ac6be17)" d="M 519.404082 224.92015 
L 519.737017 224.832619 
L 521.261245 225.030966 
L 522.189936 225.644243 
L 522.709697 225.877939 
" style="fill:none;stroke:#999999;"/>
    <path clip-path="url(#pb12ac6be17)" d="M 519.404082 224.92015 
L 520.373491 226.824226 
L 520.91089 227.489966 
" style="fill:none;stroke:#999999;"/>
    <path clip-path="url(#pb12ac6be17)" d="M 255.317839 193.94321 
L 255.830415 196.165427 
L 259.064827 200.686732 
" style="fill:none;stroke:#999999;"/>
    <path clip-path="url(#pb12ac6be17)" d="M 259.064827 200.686732 
L 255.830415 196.165427 
L 255.317839 193.94321 
" style="fill:none;stroke:#999999;"/>
    <path clip-path="url(#pb12ac6be17)" d="M 259.064827 200.686732 
L 259.685188 201.701753 
L 262.931141 203.337065 
L 265.384277 205.603048 
L 266.225216 205.719755 
L 267.299797 205.392637 
L 270.033173 205.229078 
L 272.462793 205.626333 
L 276.831448 206.841104 
L 278.630255 206.934526 
L 282.298201 207.565197 
L 283.115841 207.191508 
L 284.026894 207.144656 
L 286.106159 206.350426 
L 288.629192 206.420563 
L 289.937415 206.887675 
L 292.016462 208.102446 
L 296.805805 210.765684 
L 298.487682 210.765684 
L 299.861447 211.030801 
L 306.547582 213.241797 
L 307.178395 214.830537 
L 307.337133 217.315067 
L 307.598864 218.147732 
L 310.565666 219.853181 
L 314.537151 220.647411 
L 316.756645 221.39507 
L 320.097317 223.567911 
L 323.695149 224.759396 
L 325.535981 225.748607 
L 327.339361 226.301286 
L 328.507573 226.838534 
L 330.119553 227.119082 
L 334.161153 229.104798 
L 335.375962 229.829171 
L 336.403728 230.15629 
L 337.525124 230.927235 
L 338.786749 231.441198 
L 339.931445 232.352416 
L 340.725785 232.609398 
L 342.286377 232.687671 
L 343.178704 233.100075 
L 344.159871 233.754032 
L 344.954212 233.941157 
L 346.916547 233.800883 
L 349.55651 235.155928 
L 350.677906 235.366339 
L 359.064645 238.286839 
L 361.466175 240.117412 
L 363.082946 243.917709 
L 363.993999 244.852213 
L 365.045281 245.062343 
L 366.867387 246.020413 
L 369.951118 249.17489 
L 371.165928 250.086108 
L 372.100497 250.997327 
L 372.264025 251.698135 
L 372.707793 252.726341 
L 374.062832 253.988244 
L 375.95527 256.675329 
L 376.698005 259.861227 
L 376.632681 261.675809 
L 377.17008 263.47496 
L 377.193379 264.666726 
L 378.338074 264.853571 
L 379.693113 264.526452 
L 381.258278 263.638519 
L 384.739179 261.675809 
L 389.177949 261.044857 
L 392.191566 260.343769 
L 394.130602 260.273632 
L 395.368711 260.343769 
L 397.027507 260.156924 
L 397.634803 260.367054 
L 399.83078 261.815802 
L 401.606288 263.942352 
L 402.65757 264.807 
L 404.176137 266.839848 
L 405.180603 267.797918 
L 407.119639 270.088027 
L 407.189753 271.56006 
L 407.77375 273.05566 
L 408.563518 278.859347 
L 407.540108 280.932313 
L 402.914511 285.512533 
L 401.746517 287.242108 
L 402.120388 287.802923 
L 403.755667 287.148405 
L 409.603042 287.611309 
" style="fill:none;stroke:#999999;"/>
    <path clip-path="url(#pb12ac6be17)" d="M 259.064827 200.686732 
L 243.730221 199.483744 
L 238.684155 200.558241 
L 236.387579 199.560895 
L 232.329648 198.876359 
L 228.638621 199.904285 
L 225.547922 201.75674 
L 224.293264 202.894361 
L 223.171868 203.361472 
L 223.078454 201.819864 
L 222.844812 200.558241 
L 223.639153 199.063203 
L 223.265499 197.428172 
L 216.070053 189.252455 
L 214.715015 189.345877 
L 212.285395 191.401449 
L 211.631283 192.662791 
L 210.089418 197.241327 
L 208.407323 199.34347 
L 206.43802 200.541969 
L 203.501486 201.539316 
L 198.548616 202.894361 
L 195.698527 203.221199 
L 197.093195 201.569896 
L 200.744811 198.502669 
L 201.71901 196.851086 
L 201.679162 195.138904 
L 198.081548 188.598499 
L 195.23146 185.188162 
L 192.848438 184.347361 
L 191.820455 182.805752 
L 185.512981 177.713814 
L 184.251356 177.666963 
L 180.466697 179.722535 
L 179.478562 180.547064 
L 178.831418 177.807236 
L 177.196139 176.919584 
L 174.479094 176.436201 
L 171.068306 176.763038 
L 168.265033 177.323853 
L 168.412012 175.518249 
L 167.103789 174.537174 
L 165.141454 173.97664 
L 161.590438 173.509528 
L 157.058255 173.696373 
L 154.348395 173.509528 
L 151.498306 173.55638 
L 150.703965 172.948994 
L 149.489155 172.715298 
L 146.305043 171.391114 
L 141.359358 170.613436 
L 139.630448 169.912628 
L 139.630448 169.118678 
L 140.565017 168.184455 
L 141.733012 166.129164 
L 141.212161 164.571283 
L 138.976336 162.298848 
L 137.434471 160.990935 
L 141.398988 160.740967 
L 142.146513 159.526477 
L 145.323658 160.834389 
L 147.005752 161.021234 
L 147.526821 161.644891 
L 148.134117 163.559909 
L 149.863027 164.914393 
L 154.294611 165.832344 
L 158.740349 165.288082 
L 160.469042 164.680977 
L 162.992293 162.999375 
L 163.646404 162.112003 
L 163.926644 160.336979 
L 163.225717 158.515103 
L 163.693002 157.907998 
L 164.954627 156.880352 
L 165.554956 155.64959 
L 165.702152 154.451652 
L 163.693002 152.069522 
L 162.665237 150.107653 
L 164.393929 150.855032 
L 168.545273 151.352443 
L 171.449146 151.135299 
L 174.018994 150.527914 
L 176.8153 149.25058 
L 178.777635 147.102147 
L 179.532345 145.296824 
L 180.793753 145.437097 
L 182.74912 143.365534 
L 184.017713 142.214167 
L 185.045696 140.672839 
L 185.13911 139.785467 
L 184.71864 138.337841 
L 181.447865 135.535452 
L 179.852433 134.398112 
L 178.224122 132.593069 
L 172.757369 129.043581 
L 170.087139 127.579684 
L 165.935795 124.93384 
L 162.751682 121.882043 
L 161.403611 121.197788 
L 160.141986 119.329902 
L 159.067405 115.780695 
L 158.693751 112.651748 
L 159.854778 112.261787 
L 159.861746 111.250693 
L 158.226467 108.542287 
L 156.918243 107.234655 
L 154.768864 106.300712 
L 152.946758 103.919144 
L 150.703965 102.93863 
L 150.797379 100.370217 
L 151.911807 98.112651 
L 152.012189 97.19498 
L 149.669014 94.657147 
L 147.620234 93.132651 
L 146.124966 90.377674 
L 143.408138 86.906179 
L 141.779827 84.260896 
L 140.471604 80.945945 
L 138.462454 73.988927 
L 139.350208 72.821849 
L 139.950536 71.591368 
L 140.230994 69.116938 
L 142.239926 68.510114 
L 138.976336 66.285371 
L 138.782542 63.841241 
L 139.86409 54.5669 
L 140.55805 53.196705 
L 140.791474 52.076479 
L 139.483251 49.742323 
L 138.981127 48.441985 
L 136.306106 44.093498 
L 134.624012 41.946187 
L 133.883455 39.254894 
L 132.902287 37.480992 
L 131.640879 33.279792 
L 126.260572 31.536189 
L 124.77249 30.199099 
L 123.230624 30.852495 
L 121.12806 29.125444 
L 118.464798 26.651295 
L 115.848352 23.103771 
L 136.032834 8.307692 
L 140.604647 9.97162 
L 142.947822 10.454723 
L 142.947822 10.454723 
" style="fill:none;stroke:#999999;"/>
    <path clip-path="url(#pb12ac6be17)" d="M 530.103728 235.112443 
L 531.03808 235.10066 
L 531.680651 235.287505 
L 532.802047 235.97681 
" style="fill:none;stroke:#999999;"/>
    <path clip-path="url(#pb12ac6be17)" d="M 530.103728 235.112443 
L 529.075745 235.217368 
L 527.989406 235.322573 
L 527.117547 235.274319 
" style="fill:none;stroke:#999999;"/>
    <path clip-path="url(#pb12ac6be17)" d="M 530.103728 235.112443 
L 530.370903 233.298142 
L 530.680322 231.732967 
L 531.365789 229.656915 
" style="fill:none;stroke:#999999;"/>
    <path clip-path="url(#pb12ac6be17)" d="M 528.71189 242.099761 
L 528.59692 240.240853 
" style="fill:none;stroke:#999999;"/>
    <path clip-path="url(#pb12ac6be17)" d="M 528.71189 242.099761 
L 527.111886 242.030746 
" style="fill:none;stroke:#999999;"/>
    <path clip-path="url(#pb12ac6be17)" d="M 528.71189 242.099761 
L 528.807045 243.640247 
L 528.950758 243.841961 
" style="fill:none;stroke:#999999;"/>
    <path clip-path="url(#pb12ac6be17)" d="M 531.079016 224.142472 
L 532.031006 225.638632 
L 531.824364 226.839376 
L 531.146736 227.844017 
L 530.2089 228.372007 
" style="fill:none;stroke:#999999;"/>
    <path clip-path="url(#pb12ac6be17)" d="M 531.079016 224.142472 
L 531.049838 224.096462 
L 529.858327 220.545572 
L 528.810747 220.367985 
L 527.522339 219.821198 
L 526.002466 219.730301 
" style="fill:none;stroke:#999999;"/>
    <path clip-path="url(#pb12ac6be17)" d="M 531.079016 224.142472 
L 535.722251 222.831473 
L 536.633304 222.251021 
" style="fill:none;stroke:#999999;"/>
    <path clip-path="url(#pb12ac6be17)" d="M 517.66951 226.940934 
L 517.640332 227.367366 
L 516.898469 227.834759 
L 516.197759 228.570635 
L 515.840001 229.046163 
L 515.352248 229.265271 
L 515.343103 229.411436 
" style="fill:none;stroke:#999999;"/>
    <path clip-path="url(#pb12ac6be17)" d="M 517.66951 226.940934 
L 519.03609 226.976003 
L 519.614208 227.373258 
L 520.105009 227.875438 
L 520.472784 228.062283 
L 520.653949 227.910507 
L 520.741483 227.694485 
L 520.91089 227.489966 
" style="fill:none;stroke:#999999;"/>
    <path clip-path="url(#pb12ac6be17)" d="M 517.66951 226.940934 
L 516.997761 226.946826 
L 516.524815 226.999288 
L 516.090192 227.238595 
" style="fill:none;stroke:#999999;"/>
    <path clip-path="url(#pb12ac6be17)" d="M 520.991021 227.615371 
L 521.476597 228.37313 
" style="fill:none;stroke:#999999;"/>
    <path clip-path="url(#pb12ac6be17)" d="M 520.991021 227.615371 
L 520.91089 227.489966 
" style="fill:none;stroke:#999999;"/>
    <path clip-path="url(#pb12ac6be17)" d="M 520.991021 227.615371 
L 521.575889 227.617615 
" style="fill:none;stroke:#999999;"/>
    <path clip-path="url(#pb12ac6be17)" d="M 527.111886 242.030746 
L 528.71189 242.099761 
" style="fill:none;stroke:#999999;"/>
    <path clip-path="url(#pb12ac6be17)" d="M 527.111886 242.030746 
L 527.024352 240.932402 
" style="fill:none;stroke:#999999;"/>
    <path clip-path="url(#pb12ac6be17)" d="M 527.111886 242.030746 
L 527.129523 244.127559 
" style="fill:none;stroke:#999999;"/>
    <path clip-path="url(#pb12ac6be17)" d="M 523.154554 233.887853 
L 523.690865 232.875357 
L 524.199086 232.1392 
L 524.733219 231.723709 
" style="fill:none;stroke:#999999;"/>
    <path clip-path="url(#pb12ac6be17)" d="M 523.154554 233.887853 
L 522.790699 232.398145 
L 522.228477 231.226859 
" style="fill:none;stroke:#999999;"/>
    <path clip-path="url(#pb12ac6be17)" d="M 523.154554 233.887853 
L 523.243177 234.576597 
L 523.066584 237.983847 
" style="fill:none;stroke:#999999;"/>
    <path clip-path="url(#pb12ac6be17)" d="M 530.2089 228.372007 
L 531.365789 229.656915 
" style="fill:none;stroke:#999999;"/>
    <path clip-path="url(#pb12ac6be17)" d="M 530.2089 228.372007 
L 528.246565 229.096101 
L 527.452224 229.213089 
L 526.681183 228.722411 
L 526.120484 227.320515 
L 525.209431 226.806552 
" style="fill:none;stroke:#999999;"/>
    <path clip-path="url(#pb12ac6be17)" d="M 530.2089 228.372007 
L 531.146736 227.844017 
L 531.824364 226.839376 
L 532.031006 225.638632 
L 531.079016 224.142472 
" style="fill:none;stroke:#999999;"/>
    <path clip-path="url(#pb12ac6be17)" d="M 506.869048 226.377034 
L 508.342323 227.081208 
L 508.977491 227.264967 
L 509.701717 227.294144 
L 510.374772 227.081208 
L 511.202646 227.11291 
L 512.008527 227.492771 
L 513.662968 227.770513 
L 514.537439 227.802215 
L 515.420838 227.606954 
L 516.090192 227.238595 
" style="fill:none;stroke:#999999;"/>
    <path clip-path="url(#pb12ac6be17)" d="M 506.869048 226.377034 
L 507.932088 225.839785 
L 509.083969 225.42233 
L 510.285714 224.805967 
L 511.284301 223.958994 
L 513.406027 222.893474 
L 515.50859 222.543071 
L 516.635648 222.116638 
" style="fill:none;stroke:#999999;"/>
    <path clip-path="url(#pb12ac6be17)" d="M 506.869048 226.377034 
L 506.647163 226.458953 
L 505.95364 226.538068 
L 504.931536 227.33819 
L 504.392612 227.597696 
L 502.412858 228.205362 
L 501.723689 228.555766 
L 500.298536 229.712183 
L 499.663368 229.948965 
L 499.032555 230.322935 
L 498.435493 230.991199 
L 497.611975 231.750642 
L 497.419269 232.112829 
L 497.314968 232.488201 
" style="fill:none;stroke:#999999;"/>
    <path clip-path="url(#pb12ac6be17)" d="M 526.002466 219.730301 
L 523.844159 225.218372 
L 523.502514 226.299041 
" style="fill:none;stroke:#999999;"/>
    <path clip-path="url(#pb12ac6be17)" d="M 526.002466 219.730301 
L 526.377426 221.141174 
L 526.511776 221.812805 
L 526.459299 222.268415 
L 525.974594 223.985646 
L 525.495551 226.351223 
L 525.209431 226.806552 
" style="fill:none;stroke:#999999;"/>
    <path clip-path="url(#pb12ac6be17)" d="M 526.002466 219.730301 
L 527.191581 215.632623 
L 529.157618 211.48613 
L 530.002476 209.33433 
L 530.078687 208.711515 
L 529.590934 206.374553 
L 529.29175 205.877423 
L 528.790061 205.043636 
" style="fill:none;stroke:#999999;"/>
    <path clip-path="url(#pb12ac6be17)" d="M 526.002466 219.730301 
L 527.522339 219.821198 
L 528.810747 220.367985 
L 529.858327 220.545572 
L 531.049838 224.096462 
L 531.079016 224.142472 
" style="fill:none;stroke:#999999;"/>
    <path clip-path="url(#pb12ac6be17)" d="M 523.153901 228.575685 
L 523.094674 229.298936 
" style="fill:none;stroke:#999999;"/>
    <path clip-path="url(#pb12ac6be17)" d="M 523.153901 228.575685 
L 523.030874 228.55296 
L 522.924613 228.533322 
L 522.937461 228.259508 
L 522.946824 228.057513 
" style="fill:none;stroke:#999999;"/>
    <path clip-path="url(#pb12ac6be17)" d="M 523.153901 228.575685 
L 524.40355 228.377899 
L 524.666371 228.191054 
" style="fill:none;stroke:#999999;"/>
    <path clip-path="url(#pb12ac6be17)" d="M 527.129523 244.127559 
L 527.111886 242.030746 
" style="fill:none;stroke:#999999;"/>
    <path clip-path="url(#pb12ac6be17)" d="M 516.635648 222.116638 
L 515.50859 222.543071 
L 513.406027 222.893474 
L 511.284301 223.958994 
L 510.285714 224.805967 
L 509.083969 225.42233 
L 507.932088 225.839785 
L 506.869048 226.377034 
" style="fill:none;stroke:#999999;"/>
    <path clip-path="url(#pb12ac6be17)" d="M 516.635648 222.116638 
L 516.674843 221.939613 
L 517.267332 221.000901 
L 517.497055 220.704923 
L 518.018994 220.307948 
L 518.570982 219.926684 
L 518.797439 219.52522 
L 519.073107 219.152092 
L 519.416711 218.766339 
L 519.750735 218.478217 
L 520.12526 218.236946 
L 520.514591 217.960326 
L 520.996683 217.594773 
L 521.266253 217.356588 
L 521.406482 217.002537 
L 521.593309 216.340444 
L 521.818242 214.845687 
L 522.091514 214.19117 
L 522.55096 213.486434 
L 523.295001 212.408009 
L 523.703712 211.660631 
L 524.100882 210.648134 
L 524.486294 209.947327 
L 524.99604 208.861046 
L 525.454832 208.028381 
L 526.499364 207.743625 
L 526.71624 207.60784 
L 527.51929 205.380293 
L 527.659519 204.835189 
L 527.714174 204.698843 
L 528.790061 205.043636 
" style="fill:none;stroke:#999999;"/>
    <path clip-path="url(#pb12ac6be17)" d="M 516.635648 222.116638 
L 516.875388 222.383158 
L 517.364665 222.605352 
L 517.889652 222.694847 
L 518.36151 222.686991 
L 518.633911 222.749273 
L 518.984484 222.940326 
L 519.202666 223.220593 
L 519.354436 223.668347 
L 519.478769 224.080752 
L 519.506205 224.334086 
L 519.408655 224.517284 
L 519.031082 224.711703 
L 519.134947 225.03293 
" style="fill:none;stroke:#999999;"/>
    <path clip-path="url(#pb12ac6be17)" d="M 533.583105 243.052781 
L 533.927581 242.433612 
" style="fill:none;stroke:#999999;"/>
    <path clip-path="url(#pb12ac6be17)" d="M 534.464327 237.173907 
L 536.402056 238.039957 
" style="fill:none;stroke:#999999;"/>
    <path clip-path="url(#pb12ac6be17)" d="M 534.464327 237.173907 
L 533.853329 236.677618 
L 532.802047 235.97681 
" style="fill:none;stroke:#999999;"/>
    <path clip-path="url(#pb12ac6be17)" d="M 534.464327 237.173907 
L 533.438521 236.92955 
L 532.6481 236.953957 
" style="fill:none;stroke:#999999;"/>
    <path clip-path="url(#pb12ac6be17)" d="M 534.464327 237.173907 
L 534.955564 235.529617 
L 534.534877 234.058145 
" style="fill:none;stroke:#999999;"/>
    <path clip-path="url(#pb12ac6be17)" d="M 532.6481 236.953957 
L 532.62785 238.356976 
" style="fill:none;stroke:#999999;"/>
    <path clip-path="url(#pb12ac6be17)" d="M 532.6481 236.953957 
L 532.802047 235.97681 
" style="fill:none;stroke:#999999;"/>
    <path clip-path="url(#pb12ac6be17)" d="M 532.6481 236.953957 
L 532.408579 236.9245 
L 530.686636 236.790398 
L 530.090228 236.800778 
L 528.889136 237.111064 
L 528.586903 237.218794 
" style="fill:none;stroke:#999999;"/>
    <path clip-path="url(#pb12ac6be17)" d="M 532.6481 236.953957 
L 533.438521 236.92955 
L 534.464327 237.173907 
" style="fill:none;stroke:#999999;"/>
    <path clip-path="url(#pb12ac6be17)" d="M 536.402056 238.039957 
L 534.464327 237.173907 
" style="fill:none;stroke:#999999;"/>
    <path clip-path="url(#pb12ac6be17)" d="M 536.402056 238.039957 
L 536.823832 237.069543 
" style="fill:none;stroke:#999999;"/>
    <path clip-path="url(#pb12ac6be17)" d="M 536.402056 238.039957 
L 535.195085 240.097212 
L 533.927581 242.433612 
" style="fill:none;stroke:#999999;"/>
    <path clip-path="url(#pb12ac6be17)" d="M 536.402056 238.039957 
L 539.003914 239.482533 
L 540.078495 240.34718 
L 540.856722 241.17227 
L 547.42571 251.924536 
L 554.561057 263.751861 
L 555.260242 264.592942 
L 556.862206 265.992594 
L 559.134395 267.437695 
L 562.753566 268.852776 
L 571.669865 271.946374 
L 598.385665 281.523427 
L 599.668847 282.379097 
L 600.458397 283.201943 
L 603.84741 289.060618 
L 604.472343 289.685958 
L 605.318943 290.228537 
L 608.749545 292.055743 
L 610.295983 293.50393 
L 613.687826 297.379975 
L 614.528983 298.992562 
L 614.832522 300.161043 
L 615.179175 304.0124 
L 615.856368 306.439417 
L 617.632964 310.093268 
L 625.814803 325.654681 
L 627.030266 327.25801 
L 628.636585 328.742387 
L 632.368549 331.009773 
L 635.171822 333.925784 
L 638.500954 337.023029 
L 639.657408 338.940011 
L 643.634554 343.604675 
L 647.911538 347.563482 
L 651.557274 350.626781 
L 653.9109 351.918422 
L 655.020539 352.228146 
L 656.194412 352.263215 
L 658.057672 351.959101 
L 666.394764 350.090654 
L 667.78486 349.552844 
L 669.887424 348.349015 
L 672.816337 346.99902 
L 674.358203 346.741758 
L 675.60807 346.846963 
L 676.55418 347.127511 
L 680.794365 349.32504 
L 681.705418 349.453531 
L 682.943745 349.418462 
L 690.594717 347.197648 
L 691.821067 347.08094 
L 693.608334 347.314636 
L 694.262445 347.583401 
L 695.033269 348.051073 
L 696.283136 349.102846 
L 696.972305 350.189968 
L 697.28782 350.996542 
L 697.941932 353.696532 
L 698.414878 355.064201 
L 699.647325 356.922829 
L 707.26324 365.68994 
L 714.604576 371.634182 
L 722.055221 376.084508 
L 723.987507 376.987871 
L 725.627576 377.526803 
L 727.993614 377.802301 
L 730.171954 377.902737 
L 731.275712 377.763866 
L 732.146047 377.48921 
L 736.403651 375.320577 
L 740.526906 374.233455 
L 742.308293 374.081399 
L 747.301883 374.414689 
L 765.340034 375.928524 
L 766.835302 376.466333 
L 768.015054 377.611809 
L 768.482121 378.336744 
L 768.972705 379.751265 
L 768.961164 380.861953 
L 768.832694 381.832086 
L 768.07341 386.017575 
L 767.477655 387.513735 
L 765.947548 390.179498 
L 765.573676 391.103061 
L 765.421907 391.80443 
L 765.573676 393.733475 
L 766.566602 397.603348 
L 767.115542 398.632116 
L 768.447064 400.351031 
L 783.108179 413.317378 
L 783.782977 413.672551 
L 784.838613 414.022675 
L 787.477923 414.590503 
L 788.734323 415.012447 
L 789.995948 415.808921 
L 790.960349 416.799815 
L 791.682833 417.980359 
L 792.629814 420.715698 
L 793.236022 421.788231 
L 793.784091 422.444993 
L 795.129766 423.301505 
L 796.119644 423.614035 
L 797.413713 423.692308 
L 797.413713 423.692308 
" style="fill:none;stroke:#999999;"/>
    <path clip-path="url(#pb12ac6be17)" d="M 532.112878 241.490692 
L 533.927581 242.433612 
" style="fill:none;stroke:#999999;"/>
    <path clip-path="url(#pb12ac6be17)" d="M 532.112878 241.490692 
L 531.867478 242.121643 
L 529.648202 244.82023 
L 528.950758 243.841961 
" style="fill:none;stroke:#999999;"/>
    <path clip-path="url(#pb12ac6be17)" d="M 532.112878 241.490692 
L 531.217721 240.803912 
L 528.950758 243.841961 
" style="fill:none;stroke:#999999;"/>
    <path clip-path="url(#pb12ac6be17)" d="M 532.112878 241.490692 
L 532.603462 240.053727 
L 532.62785 238.356976 
" style="fill:none;stroke:#999999;"/>
    <path clip-path="url(#pb12ac6be17)" d="M 523.094674 229.298936 
L 523.153901 228.575685 
" style="fill:none;stroke:#999999;"/>
    <path clip-path="url(#pb12ac6be17)" d="M 523.094674 229.298936 
L 522.233703 228.946849 
" style="fill:none;stroke:#999999;"/>
    <path clip-path="url(#pb12ac6be17)" d="M 523.094674 229.298936 
L 523.06223 229.607539 
L 522.943993 230.286464 
L 523.319389 230.548776 
L 523.438278 230.703919 
L 523.7416 230.963145 
L 524.163158 231.326173 
L 524.733219 231.723709 
" style="fill:none;stroke:#999999;"/>
    <path clip-path="url(#pb12ac6be17)" d="M 516.090192 227.238595 
L 516.466241 226.292589 
L 516.974462 225.866437 
L 517.716108 225.626849 
L 519.134947 225.03293 
" style="fill:none;stroke:#999999;"/>
    <path clip-path="url(#pb12ac6be17)" d="M 516.090192 227.238595 
L 515.420838 227.606954 
L 514.537439 227.802215 
L 513.662968 227.770513 
L 512.008527 227.492771 
L 511.202646 227.11291 
L 510.374772 227.081208 
L 509.701717 227.294144 
L 508.977491 227.264967 
L 508.342323 227.081208 
L 506.869048 226.377034 
" style="fill:none;stroke:#999999;"/>
    <path clip-path="url(#pb12ac6be17)" d="M 516.090192 227.238595 
L 516.524815 226.999288 
L 516.997761 226.946826 
L 517.66951 226.940934 
" style="fill:none;stroke:#999999;"/>
    <path clip-path="url(#pb12ac6be17)" d="M 521.476597 228.37313 
L 520.991021 227.615371 
" style="fill:none;stroke:#999999;"/>
    <path clip-path="url(#pb12ac6be17)" d="M 521.476597 228.37313 
L 521.575889 227.617615 
" style="fill:none;stroke:#999999;"/>
    <path clip-path="url(#pb12ac6be17)" d="M 521.476597 228.37313 
L 521.734191 228.853427 
L 522.233703 228.946849 
" style="fill:none;stroke:#999999;"/>
    <path clip-path="url(#pb12ac6be17)" d="M 519.134947 225.03293 
L 519.404082 224.92015 
" style="fill:none;stroke:#999999;"/>
    <path clip-path="url(#pb12ac6be17)" d="M 519.134947 225.03293 
L 517.716108 225.626849 
L 516.974462 225.866437 
L 516.466241 226.292589 
L 516.090192 227.238595 
" style="fill:none;stroke:#999999;"/>
    <path clip-path="url(#pb12ac6be17)" d="M 519.134947 225.03293 
L 519.031082 224.711703 
L 519.408655 224.517284 
L 519.506205 224.334086 
L 519.478769 224.080752 
L 519.354436 223.668347 
L 519.202666 223.220593 
L 518.984484 222.940326 
L 518.633911 222.749273 
L 518.36151 222.686991 
L 517.889652 222.694847 
L 517.364665 222.605352 
L 516.875388 222.383158 
L 516.635648 222.116638 
" style="fill:none;stroke:#999999;"/>
    <path clip-path="url(#pb12ac6be17)" d="M 536.633304 222.251021 
L 535.722251 222.831473 
L 531.079016 224.142472 
" style="fill:none;stroke:#999999;"/>
    <path clip-path="url(#pb12ac6be17)" d="M 528.790061 205.043636 
L 529.29175 205.877423 
L 529.590934 206.374553 
L 530.078687 208.711515 
L 530.002476 209.33433 
L 529.157618 211.48613 
L 527.191581 215.632623 
L 526.002466 219.730301 
" style="fill:none;stroke:#999999;"/>
    <path clip-path="url(#pb12ac6be17)" d="M 528.790061 205.043636 
L 528.689462 204.876429 
L 528.565346 203.616771 
L 528.950758 202.368334 
L 530.046025 200.376446 
L 530.679669 199.846212 
L 531.413475 198.359309 
L 531.200084 197.256757 
L 528.652445 189.819442 
L 523.402568 182.244657 
L 521.734627 180.471597 
L 520.173382 177.668927 
L 516.942018 171.294886 
L 513.52557 167.078256 
L 512.602323 164.946094 
L 512.288767 162.743796 
L 512.158119 160.000041 
L 510.943092 157.020626 
L 507.435189 152.607613 
L 500.328149 147.241579 
" style="fill:none;stroke:#999999;"/>
    <path clip-path="url(#pb12ac6be17)" d="M 528.790061 205.043636 
L 527.714174 204.698843 
L 527.659519 204.835189 
L 527.51929 205.380293 
L 526.71624 207.60784 
L 526.499364 207.743625 
L 525.454832 208.028381 
L 524.99604 208.861046 
L 524.486294 209.947327 
L 524.100882 210.648134 
L 523.703712 211.660631 
L 523.295001 212.408009 
L 522.55096 213.486434 
L 522.091514 214.19117 
L 521.818242 214.845687 
L 521.593309 216.340444 
L 521.406482 217.002537 
L 521.266253 217.356588 
L 520.996683 217.594773 
L 520.514591 217.960326 
L 520.12526 218.236946 
L 519.750735 218.478217 
L 519.416711 218.766339 
L 519.073107 219.152092 
L 518.797439 219.52522 
L 518.570982 219.926684 
L 518.018994 220.307948 
L 517.497055 220.704923 
L 517.267332 221.000901 
L 516.674843 221.939613 
L 516.635648 222.116638 
" style="fill:none;stroke:#999999;"/>
    <path clip-path="url(#pb12ac6be17)" d="M 536.823832 237.069543 
L 534.534877 234.058145 
" style="fill:none;stroke:#999999;"/>
    <path clip-path="url(#pb12ac6be17)" d="M 536.823832 237.069543 
L 536.402056 238.039957 
" style="fill:none;stroke:#999999;"/>
    <path clip-path="url(#pb12ac6be17)" d="M 536.823832 237.069543 
L 537.641907 238.158348 
L 538.607397 238.844006 
" style="fill:none;stroke:#999999;"/>
    <path clip-path="url(#pb12ac6be17)" d="M 587.145353 221.231791 
L 586.865113 221.18494 
L 583.485246 222.531288 
L 577.960137 227.016963 
L 574.736176 228.30187 
L 571.493054 229.233569 
L 571.17362 229.294728 
L 566.337679 231.584557 
L 564.620527 232.121806 
L 562.319596 233.103161 
L 559.971632 234.060951 
L 557.004613 236.058449 
L 555.077335 236.841177 
L 551.152665 239.726609 
L 549.147652 240.635022 
L 546.461091 241.25419 
L 545.316178 241.441035 
L 541.122809 240.611736 
L 539.253887 239.303263 
L 538.607397 238.844006 
" style="fill:none;stroke:#999999;"/>
    <path clip-path="url(#pb12ac6be17)" d="M 797.413713 423.692308 
L 796.119644 423.614035 
L 794.573205 423.018713 
L 793.784091 422.444993 
L 793.236022 421.788231 
L 792.629814 420.715698 
L 791.682833 417.980359 
L 790.960349 416.799815 
L 789.995948 415.808921 
L 788.734323 415.012447 
L 787.477923 414.590503 
L 784.838613 414.022675 
L 783.782977 413.672551 
L 782.255482 412.756283 
L 768.447064 400.351031 
L 767.115542 398.632116 
L 766.566602 397.603348 
L 765.573676 393.733475 
L 765.421907 391.80443 
L 765.573676 391.103061 
L 765.947548 390.179498 
L 767.477655 387.513735 
L 768.07341 386.017575 
L 768.961164 380.861953 
L 768.972705 379.751265 
L 768.482121 378.336744 
L 768.015054 377.611809 
L 766.835302 376.466333 
L 765.340034 375.928524 
L 764.45903 375.812097 
L 742.308293 374.081399 
L 740.526906 374.233455 
L 738.196579 374.817836 
L 736.403651 375.320577 
L 735.060371 375.840712 
L 734.032388 376.489619 
L 732.146047 377.48921 
L 731.275712 377.763866 
L 730.171954 377.902737 
L 727.993614 377.802301 
L 725.627576 377.526803 
L 723.987507 376.987871 
L 722.055221 376.084508 
L 714.604576 371.634182 
L 713.541754 370.845002 
L 711.404133 369.038837 
L 707.26324 365.68994 
L 706.001615 364.392408 
L 699.647325 356.922829 
L 698.414878 355.064201 
L 697.941932 353.696532 
L 697.28782 350.996542 
L 696.972305 350.189968 
L 696.283136 349.102846 
L 695.033269 348.051073 
L 693.608334 347.314636 
L 692.942464 347.162579 
L 691.821067 347.08094 
L 690.594717 347.197648 
L 682.943745 349.418462 
L 681.705418 349.453531 
L 680.794365 349.32504 
L 679.860013 348.986138 
L 676.55418 347.127511 
L 675.60807 346.846963 
L 674.358203 346.741758 
L 673.645735 346.800392 
L 672.816337 346.99902 
L 669.887424 348.349015 
L 667.78486 349.552844 
L 666.394764 350.090654 
L 658.057672 351.959101 
L 656.194412 352.263215 
L 655.020539 352.228146 
L 653.9109 351.918422 
L 652.888797 351.421572 
L 651.557274 350.626781 
L 647.911538 347.563482 
L 643.634554 343.604675 
L 639.482121 338.601109 
L 638.500954 337.023029 
L 638.022129 336.532071 
L 635.171822 333.925784 
L 632.368549 331.009773 
L 631.521731 330.378541 
L 628.636585 328.742387 
L 627.030266 327.25801 
L 625.814803 325.654681 
L 617.632964 310.093268 
L 615.856368 306.439417 
L 615.179175 304.0124 
L 614.832522 300.161043 
L 614.528983 298.992562 
L 613.687826 297.379975 
L 610.295983 293.50393 
L 608.749545 292.055743 
L 604.472343 289.685958 
L 603.84741 289.060618 
L 603.024762 287.776832 
L 600.458397 283.201943 
L 599.668847 282.379097 
L 598.385665 281.523427 
L 559.134395 267.437695 
L 556.862206 265.992594 
L 555.260242 264.592942 
L 554.561057 263.751861 
L 553.343852 261.843015 
L 547.42571 251.924536 
L 540.856722 241.17227 
L 540.078495 240.34718 
L 539.003914 239.482533 
L 536.402056 238.039957 
L 536.402056 238.039957 
" style="fill:none;stroke:#999999;"/>
    <path clip-path="url(#pb12ac6be17)" d="M 534.534877 234.058145 
L 536.823832 237.069543 
" style="fill:none;stroke:#999999;"/>
    <path clip-path="url(#pb12ac6be17)" d="M 534.534877 234.058145 
L 534.955564 235.529617 
L 534.464327 237.173907 
" style="fill:none;stroke:#999999;"/>
    <path clip-path="url(#pb12ac6be17)" d="M 534.534877 234.058145 
L 534.266177 232.878162 
L 531.365789 229.656915 
" style="fill:none;stroke:#999999;"/>
    <path clip-path="url(#pb12ac6be17)" d="M 142.947822 10.454723 
L 140.604647 9.97162 
L 136.032834 8.307692 
L 115.848352 23.103771 
L 118.464798 26.651295 
L 121.12806 29.125444 
L 123.230624 30.852495 
L 124.77249 30.199099 
L 126.260572 31.536189 
L 131.640879 33.279792 
L 131.967935 34.493441 
L 132.902287 37.480992 
L 133.883455 39.254894 
L 134.624012 41.946187 
L 136.306106 44.093498 
L 138.981127 48.441985 
L 139.483251 49.742323 
L 140.791474 52.076479 
L 140.55805 53.196705 
L 139.86409 54.5669 
L 138.782542 63.841241 
L 138.976336 66.285371 
L 142.239926 68.510114 
L 140.230994 69.116938 
L 139.950536 71.591368 
L 139.350208 72.821849 
L 138.462454 73.988927 
L 138.829139 75.513422 
L 140.471604 80.945945 
L 141.779827 84.260896 
L 143.408138 86.906179 
L 146.124966 90.377674 
L 147.620234 93.132651 
L 149.669014 94.657147 
L 152.012189 97.19498 
L 151.911807 98.112651 
L 150.797379 100.370217 
L 150.703965 102.93863 
L 152.946758 103.919144 
L 154.768864 106.300712 
L 156.918243 107.234655 
L 158.226467 108.542287 
L 159.861746 111.250693 
L 159.854778 112.261787 
L 158.693751 112.651748 
L 159.067405 115.780695 
L 160.141986 119.329902 
L 161.403611 121.197788 
L 162.751682 121.882043 
L 163.739818 122.879109 
L 165.935795 124.93384 
L 170.087139 127.579684 
L 172.757369 129.043581 
L 178.224122 132.593069 
L 179.852433 134.398112 
L 181.447865 135.535452 
L 184.71864 138.337841 
L 185.13911 139.785467 
L 185.045696 140.672839 
L 184.017713 142.214167 
L 182.74912 143.365534 
L 180.793753 145.437097 
L 179.532345 145.296824 
L 178.777635 147.102147 
L 176.8153 149.25058 
L 174.018994 150.527914 
L 171.449146 151.135299 
L 168.545273 151.352443 
L 164.393929 150.855032 
L 162.665237 150.107653 
L 163.693002 152.069522 
L 165.702152 154.451652 
L 165.554956 155.64959 
L 164.954627 156.880352 
L 163.693002 157.907998 
L 163.225717 158.515103 
L 163.926644 160.336979 
L 163.646404 162.112003 
L 162.992293 162.999375 
L 160.469042 164.680977 
L 158.740349 165.288082 
L 154.294611 165.832344 
L 149.863027 164.914393 
L 148.134117 163.559909 
L 147.526821 161.644891 
L 147.005752 161.021234 
L 145.323658 160.834389 
L 142.146513 159.526477 
L 141.398988 160.740967 
L 137.434471 160.990935 
L 138.976336 162.298848 
L 141.212161 164.571283 
L 141.733012 166.129164 
L 140.565017 168.184455 
L 139.630448 169.118678 
L 139.630448 169.912628 
L 141.359358 170.613436 
L 146.305043 171.391114 
L 149.489155 172.715298 
L 150.703965 172.948994 
L 151.498306 173.55638 
L 154.348395 173.509528 
L 157.058255 173.696373 
L 161.590438 173.509528 
L 165.141454 173.97664 
L 167.103789 174.537174 
L 168.412012 175.518249 
L 168.265033 177.323853 
L 171.068306 176.763038 
L 174.479094 176.436201 
L 177.196139 176.919584 
L 178.831418 177.807236 
L 179.478562 180.547064 
L 180.466697 179.722535 
L 184.251356 177.666963 
L 185.512981 177.713814 
L 191.820455 182.805752 
L 192.848438 184.347361 
L 195.23146 185.188162 
L 198.081548 188.598499 
L 201.679162 195.138904 
L 201.71901 196.851086 
L 200.744811 198.502669 
L 197.093195 201.569896 
L 195.698527 203.221199 
L 198.548616 202.894361 
L 203.501486 201.539316 
L 206.43802 200.541969 
L 208.407323 199.34347 
L 210.089418 197.241327 
L 211.631283 192.662791 
L 212.285395 191.401449 
L 214.715015 189.345877 
L 216.070053 189.252455 
L 223.265499 197.428172 
L 223.639153 199.063203 
L 222.844812 200.558241 
L 223.078454 201.819864 
L 223.171868 203.361472 
L 224.293264 202.894361 
L 225.547922 201.75674 
L 228.638621 199.904285 
L 232.329648 198.876359 
L 236.387579 199.560895 
L 238.684155 200.558241 
L 243.730221 199.483744 
L 259.064827 200.686732 
L 259.064827 200.686732 
" style="fill:none;stroke:#999999;"/>
    <path clip-path="url(#pb12ac6be17)" d="M 540.901142 239.606535 
L 542.384652 238.50258 
L 542.478065 238.245598 
L 542.051717 237.649715 
L 541.818074 237.597253 
L 540.638322 237.87752 
L 538.607397 238.844006 
" style="fill:none;stroke:#999999;"/>
    <path clip-path="url(#pb12ac6be17)" d="M 527.117547 235.274319 
L 527.989406 235.322573 
L 529.075745 235.217368 
L 530.103728 235.112443 
" style="fill:none;stroke:#999999;"/>
    <path clip-path="url(#pb12ac6be17)" d="M 527.117547 235.274319 
L 525.999635 234.575756 
L 525.630336 234.397888 
L 524.801156 233.909455 
L 524.768059 233.516969 
L 524.733219 231.723709 
" style="fill:none;stroke:#999999;"/>
    <path clip-path="url(#pb12ac6be17)" d="M 527.117547 235.274319 
L 527.543678 235.842708 
L 528.209766 236.684071 
L 528.586903 237.218794 
" style="fill:none;stroke:#999999;"/>
    <path clip-path="url(#pb12ac6be17)" d="M 532.802047 235.97681 
L 532.6481 236.953957 
" style="fill:none;stroke:#999999;"/>
    <path clip-path="url(#pb12ac6be17)" d="M 532.802047 235.97681 
L 533.853329 236.677618 
L 534.464327 237.173907 
" style="fill:none;stroke:#999999;"/>
    <path clip-path="url(#pb12ac6be17)" d="M 532.802047 235.97681 
L 531.680651 235.287505 
L 531.03808 235.10066 
L 530.103728 235.112443 
" style="fill:none;stroke:#999999;"/>
    <path clip-path="url(#pb12ac6be17)" d="M 524.733219 231.723709 
L 524.199086 232.1392 
L 523.690865 232.875357 
L 523.154554 233.887853 
" style="fill:none;stroke:#999999;"/>
    <path clip-path="url(#pb12ac6be17)" d="M 524.733219 231.723709 
L 524.660492 229.878828 
L 524.742147 228.687343 
L 524.666371 228.191054 
" style="fill:none;stroke:#999999;"/>
    <path clip-path="url(#pb12ac6be17)" d="M 524.733219 231.723709 
L 524.163158 231.326173 
L 523.7416 230.963145 
L 523.438278 230.703919 
L 523.319389 230.548776 
L 522.943993 230.286464 
L 523.06223 229.607539 
L 523.094674 229.298936 
" style="fill:none;stroke:#999999;"/>
    <path clip-path="url(#pb12ac6be17)" d="M 524.733219 231.723709 
L 524.768059 233.516969 
L 524.801156 233.909455 
L 525.630336 234.397888 
L 525.999635 234.575756 
L 527.117547 235.274319 
" style="fill:none;stroke:#999999;"/>
    <path clip-path="url(#pb12ac6be17)" d="M 525.209431 226.806552 
L 524.666371 228.191054 
" style="fill:none;stroke:#999999;"/>
    <path clip-path="url(#pb12ac6be17)" d="M 525.209431 226.806552 
L 523.502514 226.299041 
" style="fill:none;stroke:#999999;"/>
    <path clip-path="url(#pb12ac6be17)" d="M 525.209431 226.806552 
L 525.495551 226.351223 
L 525.974594 223.985646 
L 526.459299 222.268415 
L 526.511776 221.812805 
L 526.377426 221.141174 
L 526.002466 219.730301 
" style="fill:none;stroke:#999999;"/>
    <path clip-path="url(#pb12ac6be17)" d="M 525.209431 226.806552 
L 526.120484 227.320515 
L 526.681183 228.722411 
L 527.452224 229.213089 
L 528.246565 229.096101 
L 530.2089 228.372007 
" style="fill:none;stroke:#999999;"/>
    <path clip-path="url(#pb12ac6be17)" d="M 522.228477 231.226859 
L 521.189606 233.946487 
" style="fill:none;stroke:#999999;"/>
    <path clip-path="url(#pb12ac6be17)" d="M 522.228477 231.226859 
L 521.872896 230.656787 
L 521.825863 230.186308 
L 522.233703 228.946849 
" style="fill:none;stroke:#999999;"/>
    <path clip-path="url(#pb12ac6be17)" d="M 522.228477 231.226859 
L 521.62706 230.803233 
L 520.697716 230.530821 
L 520.142026 230.290953 
L 519.519923 229.820194 
L 518.909143 229.25966 
L 518.391124 228.979393 
L 517.793626 228.970696 
L 516.675278 229.145477 
L 515.916213 229.333724 
L 515.496614 229.394042 
L 515.343103 229.411436 
" style="fill:none;stroke:#999999;"/>
    <path clip-path="url(#pb12ac6be17)" d="M 522.228477 231.226859 
L 522.790699 232.398145 
L 523.154554 233.887853 
" style="fill:none;stroke:#999999;"/>
    <path clip-path="url(#pb12ac6be17)" d="M 538.607397 238.844006 
L 537.641907 238.158348 
L 536.823832 237.069543 
" style="fill:none;stroke:#999999;"/>
    <path clip-path="url(#pb12ac6be17)" d="M 538.607397 238.844006 
L 539.253887 239.303263 
L 541.122809 240.611736 
L 545.316178 241.441035 
L 546.461091 241.25419 
L 549.147652 240.635022 
L 551.152665 239.726609 
L 555.077335 236.841177 
L 557.004613 236.058449 
L 559.971632 234.060951 
L 562.319596 233.103161 
L 564.620527 232.121806 
L 566.337679 231.584557 
L 571.17362 229.294728 
L 571.493054 229.233569 
L 574.736176 228.30187 
L 577.960137 227.016963 
L 583.485246 222.531288 
L 586.865113 221.18494 
L 587.145353 221.231791 
" style="fill:none;stroke:#999999;"/>
    <path clip-path="url(#pb12ac6be17)" d="M 538.607397 238.844006 
L 540.638322 237.87752 
L 541.818074 237.597253 
L 542.051717 237.649715 
L 542.478065 238.245598 
L 542.384652 238.50258 
L 540.901142 239.606535 
" style="fill:none;stroke:#999999;"/>
    <path clip-path="url(#pb12ac6be17)" d="M 522.709697 225.877939 
L 522.189936 225.644243 
L 521.261245 225.030966 
L 519.737017 224.832619 
L 519.404082 224.92015 
" style="fill:none;stroke:#999999;"/>
    <path clip-path="url(#pb12ac6be17)" d="M 522.709697 225.877939 
L 523.200281 224.791659 
L 523.760979 223.950578 
" style="fill:none;stroke:#999999;"/>
    <path clip-path="url(#pb12ac6be17)" d="M 522.709697 225.877939 
L 521.699352 227.180522 
L 521.575889 227.617615 
" style="fill:none;stroke:#999999;"/>
    <path clip-path="url(#pb12ac6be17)" d="M 525.301756 240.020062 
L 524.847101 240.062985 
L 524.224345 239.891851 
L 523.82761 239.658155 
L 523.4459 239.261461 
L 523.126465 238.654076 
L 523.066584 237.983847 
" style="fill:none;stroke:#999999;"/>
    <path clip-path="url(#pb12ac6be17)" d="M 525.301756 240.020062 
L 524.894134 240.340166 
L 523.404745 240.9007 
L 522.883242 241.037888 
L 522.48041 240.850763 
L 522.340399 240.728164 
L 521.833702 240.211676 
L 521.740288 239.703323 
L 521.892058 239.066761 
L 522.40594 238.652112 
L 523.066584 237.983847 
" style="fill:none;stroke:#999999;"/>
    <path clip-path="url(#pb12ac6be17)" d="M 525.301756 240.020062 
L 525.882923 239.776827 
L 526.464742 239.39416 
L 528.586903 237.218794 
" style="fill:none;stroke:#999999;"/>
    <path clip-path="url(#pb12ac6be17)" d="M 533.927581 242.433612 
L 533.583105 243.052781 
" style="fill:none;stroke:#999999;"/>
    <path clip-path="url(#pb12ac6be17)" d="M 533.927581 242.433612 
L 532.112878 241.490692 
" style="fill:none;stroke:#999999;"/>
    <path clip-path="url(#pb12ac6be17)" d="M 533.927581 242.433612 
L 535.195085 240.097212 
L 536.402056 238.039957 
" style="fill:none;stroke:#999999;"/>
    <path clip-path="url(#pb12ac6be17)" d="M 528.950758 243.841961 
L 528.807045 243.640247 
L 528.71189 242.099761 
" style="fill:none;stroke:#999999;"/>
    <path clip-path="url(#pb12ac6be17)" d="M 528.950758 243.841961 
L 529.648202 244.82023 
L 531.867478 242.121643 
L 532.112878 241.490692 
" style="fill:none;stroke:#999999;"/>
    <path clip-path="url(#pb12ac6be17)" d="M 528.950758 243.841961 
L 531.217721 240.803912 
L 532.112878 241.490692 
" style="fill:none;stroke:#999999;"/>
    <path clip-path="url(#pb12ac6be17)" d="M 521.189606 233.946487 
L 522.228477 231.226859 
" style="fill:none;stroke:#999999;"/>
    <path clip-path="url(#pb12ac6be17)" d="M 523.066584 237.983847 
L 522.40594 238.652112 
L 521.892058 239.066761 
L 521.740288 239.703323 
L 521.833702 240.211676 
L 522.340399 240.728164 
L 522.48041 240.850763 
L 522.883242 241.037888 
L 523.404745 240.9007 
L 524.894134 240.340166 
L 525.301756 240.020062 
" style="fill:none;stroke:#999999;"/>
    <path clip-path="url(#pb12ac6be17)" d="M 523.066584 237.983847 
L 523.126465 238.654076 
L 523.4459 239.261461 
L 523.82761 239.658155 
L 524.224345 239.891851 
L 524.847101 240.062985 
L 525.301756 240.020062 
" style="fill:none;stroke:#999999;"/>
    <path clip-path="url(#pb12ac6be17)" d="M 523.066584 237.983847 
L 523.243177 234.576597 
L 523.154554 233.887853 
" style="fill:none;stroke:#999999;"/>
    <path clip-path="url(#pb12ac6be17)" d="M 522.233703 228.946849 
L 523.094674 229.298936 
" style="fill:none;stroke:#999999;"/>
    <path clip-path="url(#pb12ac6be17)" d="M 522.233703 228.946849 
L 522.380029 228.565024 
L 522.545952 227.925656 
" style="fill:none;stroke:#999999;"/>
    <path clip-path="url(#pb12ac6be17)" d="M 522.233703 228.946849 
L 521.825863 230.186308 
L 521.872896 230.656787 
L 522.228477 231.226859 
" style="fill:none;stroke:#999999;"/>
    <path clip-path="url(#pb12ac6be17)" d="M 522.233703 228.946849 
L 521.734191 228.853427 
L 521.476597 228.37313 
" style="fill:none;stroke:#999999;"/>
    <path clip-path="url(#pb12ac6be17)" d="M 520.91089 227.489966 
L 520.991021 227.615371 
" style="fill:none;stroke:#999999;"/>
    <path clip-path="url(#pb12ac6be17)" d="M 520.91089 227.489966 
L 520.741483 227.694485 
L 520.653949 227.910507 
L 520.472784 228.062283 
L 520.105009 227.875438 
L 519.614208 227.373258 
L 519.03609 226.976003 
L 517.66951 226.940934 
" style="fill:none;stroke:#999999;"/>
    <path clip-path="url(#pb12ac6be17)" d="M 520.91089 227.489966 
L 520.373491 226.824226 
L 519.404082 224.92015 
" style="fill:none;stroke:#999999;"/>
    <path clip-path="url(#pb12ac6be17)" d="M 500.328149 147.241579 
L 507.435189 152.607613 
L 510.943092 157.020626 
L 512.158119 160.000041 
L 512.288767 162.743796 
L 512.602323 164.946094 
L 513.52557 167.078256 
L 516.942018 171.294886 
L 520.173382 177.668927 
L 521.734627 180.471597 
L 523.402568 182.244657 
L 528.652445 189.819442 
L 531.200084 197.256757 
L 531.413475 198.359309 
L 530.679669 199.846212 
L 530.046025 200.376446 
L 528.950758 202.368334 
L 528.565346 203.616771 
L 528.689462 204.876429 
L 528.790061 205.043636 
" style="fill:none;stroke:#999999;"/>
    <path clip-path="url(#pb12ac6be17)" d="M 522.545952 227.925656 
L 522.946824 228.057513 
" style="fill:none;stroke:#999999;"/>
    <path clip-path="url(#pb12ac6be17)" d="M 522.545952 227.925656 
L 521.575889 227.617615 
" style="fill:none;stroke:#999999;"/>
    <path clip-path="url(#pb12ac6be17)" d="M 522.545952 227.925656 
L 522.380029 228.565024 
L 522.233703 228.946849 
" style="fill:none;stroke:#999999;"/>
    <path clip-path="url(#pb12ac6be17)" d="M 522.946824 228.057513 
L 523.502514 226.299041 
" style="fill:none;stroke:#999999;"/>
    <path clip-path="url(#pb12ac6be17)" d="M 522.946824 228.057513 
L 522.545952 227.925656 
" style="fill:none;stroke:#999999;"/>
    <path clip-path="url(#pb12ac6be17)" d="M 522.946824 228.057513 
L 522.937461 228.259508 
L 522.924613 228.533322 
L 523.030874 228.55296 
L 523.153901 228.575685 
" style="fill:none;stroke:#999999;"/>
    <path clip-path="url(#pb12ac6be17)" d="M 531.365789 229.656915 
L 530.2089 228.372007 
" style="fill:none;stroke:#999999;"/>
    <path clip-path="url(#pb12ac6be17)" d="M 531.365789 229.656915 
L 530.680322 231.732967 
L 530.370903 233.298142 
L 530.103728 235.112443 
" style="fill:none;stroke:#999999;"/>
    <path clip-path="url(#pb12ac6be17)" d="M 531.365789 229.656915 
L 534.266177 232.878162 
L 534.534877 234.058145 
" style="fill:none;stroke:#999999;"/>
    <path clip-path="url(#pb12ac6be17)" d="M 523.356406 242.538818 
L 524.898271 241.680062 
L 527.024352 240.932402 
" style="fill:none;stroke:#999999;"/>
    <path clip-path="url(#pb12ac6be17)" d="M 497.314968 232.488201 
L 493.803146 232.556374 
L 492.049631 232.450608 
L 490.239065 232.274143 
L 489.282939 232.211862 
L 488.112985 232.319873 
L 487.274224 232.514012 
L 485.661808 232.883493 
L 484.617276 232.948299 
L 483.505896 232.887981 
L 477.485849 232.077199 
L 475.60212 231.731564 
L 472.964117 231.047589 
L 472.321764 230.989797 
L 471.551593 231.073961 
L 470.520779 231.479913 
L 469.346035 232.654846 
L 466.996546 237.941485 
L 463.17879 242.49393 
L 460.242038 246.605916 
L 456.717805 249.543249 
L 428.084308 268.195734 
L 425.588058 270.986341 
L 424.266334 273.923954 
L 419.714336 277.008575 
L 418.539809 280.093195 
L 416.777584 285.381236 
L 413.40033 287.290643 
L 409.603042 287.611309 
" style="fill:none;stroke:#999999;"/>
    <path clip-path="url(#pb12ac6be17)" d="M 497.314968 232.488201 
L 499.818404 232.479504 
L 502.7741 232.606031 
L 504.182487 232.437703 
L 510.025724 230.273278 
L 512.001559 229.611466 
L 512.738415 229.505139 
L 514.962917 229.45436 
L 515.343103 229.411436 
" style="fill:none;stroke:#999999;"/>
    <path clip-path="url(#pb12ac6be17)" d="M 497.314968 232.488201 
L 497.419269 232.112829 
L 497.611975 231.750642 
L 498.435493 230.991199 
L 499.032555 230.322935 
L 499.663368 229.948965 
L 500.298536 229.712183 
L 501.723689 228.555766 
L 502.412858 228.205362 
L 504.392612 227.597696 
L 504.931536 227.33819 
L 505.95364 226.538068 
L 506.647163 226.458953 
L 506.869048 226.377034 
" style="fill:none;stroke:#999999;"/>
    <path clip-path="url(#pb12ac6be17)" d="M 527.024352 240.932402 
L 527.111886 242.030746 
" style="fill:none;stroke:#999999;"/>
    <path clip-path="url(#pb12ac6be17)" d="M 527.024352 240.932402 
L 528.59692 240.240853 
" style="fill:none;stroke:#999999;"/>
    <path clip-path="url(#pb12ac6be17)" d="M 527.024352 240.932402 
L 524.898271 241.680062 
L 523.356406 242.538818 
" style="fill:none;stroke:#999999;"/>
   </g>
  </g>
 </g>
 <defs>
  <clipPath id="pb12ac6be17">
   <rect height="432" width="708.827976" x="102.217045" y="0"/>
  </clipPath>
 </defs>
</svg>
