<?xml version="1.0" encoding="utf-8" standalone="no"?>
<!DOCTYPE svg PUBLIC "-//W3C//DTD SVG 1.1//EN"
  "http://www.w3.org/Graphics/SVG/1.1/DTD/svg11.dtd">
<!-- Created with matplotlib (http://matplotlib.org/) -->
<svg height="432pt" version="1.1" viewBox="0 0 151.707197 432" width="151.707197pt" xmlns="http://www.w3.org/2000/svg" xmlns:xlink="http://www.w3.org/1999/xlink">
 <defs>
  <style type="text/css">
*{stroke-linecap:butt;stroke-linejoin:round;}
  </style>
 </defs>
 <g id="figure_1">
  <g id="patch_1">
   <path d="M 0 432 
L 151.707197 432 
L 151.707197 0 
L 0 0 
z
" style="fill:none;opacity:0;"/>
  </g>
  <g id="axes_1">
   <g id="PathCollection_1">
    <defs>
     <path d="M 0 1.936492 
C 0.513564 1.936492 1.006162 1.732451 1.369306 1.369306 
C 1.732451 1.006162 1.936492 0.513564 1.936492 0 
C 1.936492 -0.513564 1.732451 -1.006162 1.369306 -1.369306 
C 1.006162 -1.732451 0.513564 -1.936492 0 -1.936492 
C -0.513564 -1.936492 -1.006162 -1.732451 -1.369306 -1.369306 
C -1.732451 -1.006162 -1.936492 -0.513564 -1.936492 0 
C -1.936492 0.513564 -1.732451 1.006162 -1.369306 1.369306 
C -1.006162 1.732451 -0.513564 1.936492 0 1.936492 
z
" id="C0_0_88934c4cf1"/>
    </defs>
    <g clip-path="url(#pb454c96205)">
     <use style="fill:#66ccff;" x="92.56801" xlink:href="#C0_0_88934c4cf1" y="70.681406"/>
    </g>
    <g clip-path="url(#pb454c96205)">
     <use style="fill:#66ccff;" x="105.376496" xlink:href="#C0_0_88934c4cf1" y="64.839878"/>
    </g>
    <g clip-path="url(#pb454c96205)">
     <use style="fill:#66ccff;" x="105.78625" xlink:href="#C0_0_88934c4cf1" y="52.274657"/>
    </g>
    <g clip-path="url(#pb454c96205)">
     <use style="fill:#66ccff;" x="108.005258" xlink:href="#C0_0_88934c4cf1" y="51.629054"/>
    </g>
    <g clip-path="url(#pb454c96205)">
     <use style="fill:#66ccff;" x="104.978534" xlink:href="#C0_0_88934c4cf1" y="49.288862"/>
    </g>
    <g clip-path="url(#pb454c96205)">
     <use style="fill:#66ccff;" x="72.000735" xlink:href="#C0_0_88934c4cf1" y="90.469839"/>
    </g>
    <g clip-path="url(#pb454c96205)">
     <use style="fill:#66ccff;" x="73.164406" xlink:href="#C0_0_88934c4cf1" y="90.249297"/>
    </g>
    <g clip-path="url(#pb454c96205)">
     <use style="fill:#66ccff;" x="75.834437" xlink:href="#C0_0_88934c4cf1" y="88.779019"/>
    </g>
    <g clip-path="url(#pb454c96205)">
     <use style="fill:#66ccff;" x="80.396263" xlink:href="#C0_0_88934c4cf1" y="88.238975"/>
    </g>
    <g clip-path="url(#pb454c96205)">
     <use style="fill:#66ccff;" x="68.124289" xlink:href="#C0_0_88934c4cf1" y="86.908185"/>
    </g>
    <g clip-path="url(#pb454c96205)">
     <use style="fill:#66ccff;" x="77.777082" xlink:href="#C0_0_88934c4cf1" y="86.392645"/>
    </g>
    <g clip-path="url(#pb454c96205)">
     <use style="fill:#66ccff;" x="75.915504" xlink:href="#C0_0_88934c4cf1" y="84.892207"/>
    </g>
    <g clip-path="url(#pb454c96205)">
     <use style="fill:#66ccff;" x="70.007239" xlink:href="#C0_0_88934c4cf1" y="84.223985"/>
    </g>
    <g clip-path="url(#pb454c96205)">
     <use style="fill:#66ccff;" x="83.564484" xlink:href="#C0_0_88934c4cf1" y="83.285269"/>
    </g>
    <g clip-path="url(#pb454c96205)">
     <use style="fill:#66ccff;" x="71.63741" xlink:href="#C0_0_88934c4cf1" y="81.900757"/>
    </g>
    <g clip-path="url(#pb454c96205)">
     <use style="fill:#66ccff;" x="58.961578" xlink:href="#C0_0_88934c4cf1" y="80.832921"/>
    </g>
    <g clip-path="url(#pb454c96205)">
     <use style="fill:#66ccff;" x="79.110256" xlink:href="#C0_0_88934c4cf1" y="80.045003"/>
    </g>
    <g clip-path="url(#pb454c96205)">
     <use style="fill:#66ccff;" x="85.952994" xlink:href="#C0_0_88934c4cf1" y="79.825403"/>
    </g>
    <g clip-path="url(#pb454c96205)">
     <use style="fill:#66ccff;" x="60.884325" xlink:href="#C0_0_88934c4cf1" y="78.070495"/>
    </g>
    <g clip-path="url(#pb454c96205)">
     <use style="fill:#66ccff;" x="107.583712" xlink:href="#C0_0_88934c4cf1" y="77.823564"/>
    </g>
    <g clip-path="url(#pb454c96205)">
     <use style="fill:#66ccff;" x="75.023774" xlink:href="#C0_0_88934c4cf1" y="77.073345"/>
    </g>
    <g clip-path="url(#pb454c96205)">
     <use style="fill:#66ccff;" x="52.903709" xlink:href="#C0_0_88934c4cf1" y="76.816989"/>
    </g>
    <g clip-path="url(#pb454c96205)">
     <use style="fill:#66ccff;" x="81.478131" xlink:href="#C0_0_88934c4cf1" y="76.575712"/>
    </g>
    <g clip-path="url(#pb454c96205)">
     <use style="fill:#66ccff;" x="89.437374" xlink:href="#C0_0_88934c4cf1" y="74.776507"/>
    </g>
    <g clip-path="url(#pb454c96205)">
     <use style="fill:#66ccff;" x="77.432919" xlink:href="#C0_0_88934c4cf1" y="73.638926"/>
    </g>
    <g clip-path="url(#pb454c96205)">
     <use style="fill:#66ccff;" x="84.842385" xlink:href="#C0_0_88934c4cf1" y="71.656879"/>
    </g>
    <g clip-path="url(#pb454c96205)">
     <use style="fill:#66ccff;" x="110.35176" xlink:href="#C0_0_88934c4cf1" y="71.481576"/>
    </g>
    <g clip-path="url(#pb454c96205)">
     <use style="fill:#66ccff;" x="85.465859" xlink:href="#C0_0_88934c4cf1" y="70.745495"/>
    </g>
    <g clip-path="url(#pb454c96205)">
     <use style="fill:#66ccff;" x="80.765483" xlink:href="#C0_0_88934c4cf1" y="68.88974"/>
    </g>
    <g clip-path="url(#pb454c96205)">
     <use style="fill:#66ccff;" x="96.740717" xlink:href="#C0_0_88934c4cf1" y="68.361948"/>
    </g>
    <g clip-path="url(#pb454c96205)">
     <use style="fill:#66ccff;" x="119.129774" xlink:href="#C0_0_88934c4cf1" y="67.976471"/>
    </g>
    <g clip-path="url(#pb454c96205)">
     <use style="fill:#66ccff;" x="99.746068" xlink:href="#C0_0_88934c4cf1" y="67.371395"/>
    </g>
    <g clip-path="url(#pb454c96205)">
     <use style="fill:#66ccff;" x="68.489824" xlink:href="#C0_0_88934c4cf1" y="67.146141"/>
    </g>
    <g clip-path="url(#pb454c96205)">
     <use style="fill:#66ccff;" x="118.18572" xlink:href="#C0_0_88934c4cf1" y="67.033043"/>
    </g>
    <g clip-path="url(#pb454c96205)">
     <use style="fill:#66ccff;" x="96.938961" xlink:href="#C0_0_88934c4cf1" y="65.399715"/>
    </g>
    <g clip-path="url(#pb454c96205)">
     <use style="fill:#66ccff;" x="115.92102" xlink:href="#C0_0_88934c4cf1" y="64.76825"/>
    </g>
    <g clip-path="url(#pb454c96205)">
     <use style="fill:#66ccff;" x="78.418981" xlink:href="#C0_0_88934c4cf1" y="63.60428"/>
    </g>
    <g clip-path="url(#pb454c96205)">
     <use style="fill:#66ccff;" x="71.167962" xlink:href="#C0_0_88934c4cf1" y="63.316821"/>
    </g>
    <g clip-path="url(#pb454c96205)">
     <use style="fill:#66ccff;" x="94.078792" xlink:href="#C0_0_88934c4cf1" y="63.343211"/>
    </g>
    <g clip-path="url(#pb454c96205)">
     <use style="fill:#66ccff;" x="84.779743" xlink:href="#C0_0_88934c4cf1" y="63.145289"/>
    </g>
    <g clip-path="url(#pb454c96205)">
     <use style="fill:#66ccff;" x="75.80717" xlink:href="#C0_0_88934c4cf1" y="61.747582"/>
    </g>
    <g clip-path="url(#pb454c96205)">
     <use style="fill:#66ccff;" x="86.241148" xlink:href="#C0_0_88934c4cf1" y="61.076532"/>
    </g>
    <g clip-path="url(#pb454c96205)">
     <use style="fill:#66ccff;" x="101.145569" xlink:href="#C0_0_88934c4cf1" y="60.327256"/>
    </g>
    <g clip-path="url(#pb454c96205)">
     <use style="fill:#66ccff;" x="80.527443" xlink:href="#C0_0_88934c4cf1" y="60.268822"/>
    </g>
    <g clip-path="url(#pb454c96205)">
     <use style="fill:#66ccff;" x="73.482776" xlink:href="#C0_0_88934c4cf1" y="59.973824"/>
    </g>
    <g clip-path="url(#pb454c96205)">
     <use style="fill:#66ccff;" x="110.855109" xlink:href="#C0_0_88934c4cf1" y="59.828681"/>
    </g>
    <g clip-path="url(#pb454c96205)">
     <use style="fill:#66ccff;" x="87.722452" xlink:href="#C0_0_88934c4cf1" y="58.975732"/>
    </g>
    <g clip-path="url(#pb454c96205)">
     <use style="fill:#66ccff;" x="125.039513" xlink:href="#C0_0_88934c4cf1" y="58.513913"/>
    </g>
    <g clip-path="url(#pb454c96205)">
     <use style="fill:#66ccff;" x="98.159378" xlink:href="#C0_0_88934c4cf1" y="57.141654"/>
    </g>
    <g clip-path="url(#pb454c96205)">
     <use style="fill:#66ccff;" x="75.599345" xlink:href="#C0_0_88934c4cf1" y="56.934307"/>
    </g>
    <g clip-path="url(#pb454c96205)">
     <use style="fill:#66ccff;" x="89.713" xlink:href="#C0_0_88934c4cf1" y="56.08607"/>
    </g>
    <g clip-path="url(#pb454c96205)">
     <use style="fill:#66ccff;" x="96.697973" xlink:href="#C0_0_88934c4cf1" y="55.582782"/>
    </g>
    <g clip-path="url(#pb454c96205)">
     <use style="fill:#66ccff;" x="111.952453" xlink:href="#C0_0_88934c4cf1" y="54.978649"/>
    </g>
    <g clip-path="url(#pb454c96205)">
     <use style="fill:#66ccff;" x="71.65436" xlink:href="#C0_0_88934c4cf1" y="54.292519"/>
    </g>
    <g clip-path="url(#pb454c96205)">
     <use style="fill:#66ccff;" x="78.648177" xlink:href="#C0_0_88934c4cf1" y="52.578138"/>
    </g>
    <g clip-path="url(#pb454c96205)">
     <use style="fill:#66ccff;" x="77.61495" xlink:href="#C0_0_88934c4cf1" y="51.854308"/>
    </g>
    <g clip-path="url(#pb454c96205)">
     <use style="fill:#66ccff;" x="87.770355" xlink:href="#C0_0_88934c4cf1" y="109.52219"/>
    </g>
    <g clip-path="url(#pb454c96205)">
     <use style="fill:#66ccff;" x="94.022783" xlink:href="#C0_0_88934c4cf1" y="100.932374"/>
    </g>
    <g clip-path="url(#pb454c96205)">
     <use style="fill:#66ccff;" x="97.86975" xlink:href="#C0_0_88934c4cf1" y="98.479083"/>
    </g>
    <g clip-path="url(#pb454c96205)">
     <use style="fill:#66ccff;" x="75.773269" xlink:href="#C0_0_88934c4cf1" y="96.888167"/>
    </g>
    <g clip-path="url(#pb454c96205)">
     <use style="fill:#66ccff;" x="116.972672" xlink:href="#C0_0_88934c4cf1" y="94.859938"/>
    </g>
    <g clip-path="url(#pb454c96205)">
     <use style="fill:#66ccff;" x="96.634594" xlink:href="#C0_0_88934c4cf1" y="94.327433"/>
    </g>
    <g clip-path="url(#pb454c96205)">
     <use style="fill:#66ccff;" x="94.801757" xlink:href="#C0_0_88934c4cf1" y="94.051285"/>
    </g>
    <g clip-path="url(#pb454c96205)">
     <use style="fill:#66ccff;" x="102.640138" xlink:href="#C0_0_88934c4cf1" y="93.23038"/>
    </g>
    <g clip-path="url(#pb454c96205)">
     <use style="fill:#66ccff;" x="90.86709" xlink:href="#C0_0_88934c4cf1" y="93.22284"/>
    </g>
    <g clip-path="url(#pb454c96205)">
     <use style="fill:#66ccff;" x="110.723929" xlink:href="#C0_0_88934c4cf1" y="93.009838"/>
    </g>
    <g clip-path="url(#pb454c96205)">
     <use style="fill:#66ccff;" x="87.093819" xlink:href="#C0_0_88934c4cf1" y="92.215322"/>
    </g>
    <g clip-path="url(#pb454c96205)">
     <use style="fill:#66ccff;" x="87.476305" xlink:href="#C0_0_88934c4cf1" y="92.294491"/>
    </g>
    <g clip-path="url(#pb454c96205)">
     <use style="fill:#66ccff;" x="87.315646" xlink:href="#C0_0_88934c4cf1" y="91.911842"/>
    </g>
    <g clip-path="url(#pb454c96205)">
     <use style="fill:#66ccff;" x="86.993592" xlink:href="#C0_0_88934c4cf1" y="91.037215"/>
    </g>
    <g clip-path="url(#pb454c96205)">
     <use style="fill:#66ccff;" x="89.624564" xlink:href="#C0_0_88934c4cf1" y="90.654566"/>
    </g>
    <g clip-path="url(#pb454c96205)">
     <use style="fill:#66ccff;" x="79.433047" xlink:href="#C0_0_88934c4cf1" y="89.435932"/>
    </g>
    <g clip-path="url(#pb454c96205)">
     <use style="fill:#66ccff;" x="91.84136" xlink:href="#C0_0_88934c4cf1" y="89.259687"/>
    </g>
    <g clip-path="url(#pb454c96205)">
     <use style="fill:#66ccff;" x="87.773303" xlink:href="#C0_0_88934c4cf1" y="85.869565"/>
    </g>
    <g clip-path="url(#pb454c96205)">
     <use style="fill:#66ccff;" x="96.171779" xlink:href="#C0_0_88934c4cf1" y="85.394552"/>
    </g>
    <g clip-path="url(#pb454c96205)">
     <use style="fill:#66ccff;" x="86.185876" xlink:href="#C0_0_88934c4cf1" y="79.487994"/>
    </g>
    <g clip-path="url(#pb454c96205)">
     <use style="fill:#66ccff;" x="103.860555" xlink:href="#C0_0_88934c4cf1" y="79.053508"/>
    </g>
    <g clip-path="url(#pb454c96205)">
     <use style="fill:#66ccff;" x="90.116858" xlink:href="#C0_0_88934c4cf1" y="73.791609"/>
    </g>
    <g clip-path="url(#pb454c96205)">
     <use style="fill:#66ccff;" x="86.75334" xlink:href="#C0_0_88934c4cf1" y="263.891947"/>
    </g>
    <g clip-path="url(#pb454c96205)">
     <use style="fill:#66ccff;" x="93.743472" xlink:href="#C0_0_88934c4cf1" y="154.039567"/>
    </g>
    <g clip-path="url(#pb454c96205)">
     <use style="fill:#66ccff;" x="99.605308" xlink:href="#C0_0_88934c4cf1" y="129.871402"/>
    </g>
    <g clip-path="url(#pb454c96205)">
     <use style="fill:#66ccff;" x="99.78218" xlink:href="#C0_0_88934c4cf1" y="111.567384"/>
    </g>
    <g clip-path="url(#pb454c96205)">
     <use style="fill:#66ccff;" x="99.449808" xlink:href="#C0_0_88934c4cf1" y="107.782361"/>
    </g>
    <g clip-path="url(#pb454c96205)">
     <use style="fill:#66ccff;" x="102.524434" xlink:href="#C0_0_88934c4cf1" y="107.077382"/>
    </g>
    <g clip-path="url(#pb454c96205)">
     <use style="fill:#66ccff;" x="113.373325" xlink:href="#C0_0_88934c4cf1" y="106.584462"/>
    </g>
    <g clip-path="url(#pb454c96205)">
     <use style="fill:#66ccff;" x="99.011312" xlink:href="#C0_0_88934c4cf1" y="104.541152"/>
    </g>
    <g clip-path="url(#pb454c96205)">
     <use style="fill:#66ccff;" x="93.965299" xlink:href="#C0_0_88934c4cf1" y="104.412974"/>
    </g>
    <g clip-path="url(#pb454c96205)">
     <use style="fill:#66ccff;" x="129.246857" xlink:href="#C0_0_88934c4cf1" y="104.185835"/>
    </g>
    <g clip-path="url(#pb454c96205)">
     <use style="fill:#66ccff;" x="98.821912" xlink:href="#C0_0_88934c4cf1" y="103.291416"/>
    </g>
    <g clip-path="url(#pb454c96205)">
     <use style="fill:#66ccff;" x="102.47432" xlink:href="#C0_0_88934c4cf1" y="103.253717"/>
    </g>
    <g clip-path="url(#pb454c96205)">
     <use style="fill:#66ccff;" x="122.37464" xlink:href="#C0_0_88934c4cf1" y="103.05014"/>
    </g>
    <g clip-path="url(#pb454c96205)">
     <use style="fill:#66ccff;" x="111.219171" xlink:href="#C0_0_88934c4cf1" y="101.815483"/>
    </g>
    <g clip-path="url(#pb454c96205)">
     <use style="fill:#66ccff;" x="127.926212" xlink:href="#C0_0_88934c4cf1" y="101.002118"/>
    </g>
    <g clip-path="url(#pb454c96205)">
     <use style="fill:#66ccff;" x="107.803329" xlink:href="#C0_0_88934c4cf1" y="99.927684"/>
    </g>
    <g clip-path="url(#pb454c96205)">
     <use style="fill:#66ccff;" x="127.780293" xlink:href="#C0_0_88934c4cf1" y="99.688293"/>
    </g>
    <g clip-path="url(#pb454c96205)">
     <use style="fill:#66ccff;" x="132.885263" xlink:href="#C0_0_88934c4cf1" y="99.401777"/>
    </g>
    <g clip-path="url(#pb454c96205)">
     <use style="fill:#66ccff;" x="106.552696" xlink:href="#C0_0_88934c4cf1" y="98.847595"/>
    </g>
    <g clip-path="url(#pb454c96205)">
     <use style="fill:#66ccff;" x="109.849149" xlink:href="#C0_0_88934c4cf1" y="98.742979"/>
    </g>
    <g clip-path="url(#pb454c96205)">
     <use style="fill:#66ccff;" x="111.834538" xlink:href="#C0_0_88934c4cf1" y="97.517748"/>
    </g>
    <g clip-path="url(#pb454c96205)">
     <use style="fill:#66ccff;" x="128.879848" xlink:href="#C0_0_88934c4cf1" y="97.482876"/>
    </g>
    <g clip-path="url(#pb454c96205)">
     <use style="fill:#66ccff;" x="119.977286" xlink:href="#C0_0_88934c4cf1" y="97.271759"/>
    </g>
    <g clip-path="url(#pb454c96205)">
     <use style="fill:#66ccff;" x="119.753248" xlink:href="#C0_0_88934c4cf1" y="97.237829"/>
    </g>
    <g clip-path="url(#pb454c96205)">
     <use style="fill:#66ccff;" x="109.471085" xlink:href="#C0_0_88934c4cf1" y="95.141741"/>
    </g>
    <g clip-path="url(#pb454c96205)">
     <use style="fill:#66ccff;" x="119.409085" xlink:href="#C0_0_88934c4cf1" y="94.917429"/>
    </g>
    <g clip-path="url(#pb454c96205)">
     <use style="fill:#66ccff;" x="107.573395" xlink:href="#C0_0_88934c4cf1" y="94.492368"/>
    </g>
    <g clip-path="url(#pb454c96205)">
     <use style="fill:#66ccff;" x="110.746775" xlink:href="#C0_0_88934c4cf1" y="94.295389"/>
    </g>
    <g clip-path="url(#pb454c96205)">
     <use style="fill:#66ccff;" x="102.33356" xlink:href="#C0_0_88934c4cf1" y="93.299181"/>
    </g>
    <g clip-path="url(#pb454c96205)">
     <use style="fill:#66ccff;" x="104.688169" xlink:href="#C0_0_88934c4cf1" y="92.770447"/>
    </g>
    <g clip-path="url(#pb454c96205)">
     <use style="fill:#66ccff;" x="101.896538" xlink:href="#C0_0_88934c4cf1" y="90.564087"/>
    </g>
    <g clip-path="url(#pb454c96205)">
     <use style="fill:#66ccff;" x="104.736072" xlink:href="#C0_0_88934c4cf1" y="90.142796"/>
    </g>
    <g clip-path="url(#pb454c96205)">
     <use style="fill:#66ccff;" x="101.425616" xlink:href="#C0_0_88934c4cf1" y="89.710195"/>
    </g>
    <g clip-path="url(#pb454c96205)">
     <use style="fill:#66ccff;" x="105.613063" xlink:href="#C0_0_88934c4cf1" y="89.629141"/>
    </g>
    <g clip-path="url(#pb454c96205)">
     <use style="fill:#66ccff;" x="96.823257" xlink:href="#C0_0_88934c4cf1" y="88.869498"/>
    </g>
    <g clip-path="url(#pb454c96205)">
     <use style="fill:#66ccff;" x="100.723287" xlink:href="#C0_0_88934c4cf1" y="88.863843"/>
    </g>
    <g clip-path="url(#pb454c96205)">
     <use style="fill:#66ccff;" x="100.163192" xlink:href="#C0_0_88934c4cf1" y="88.823316"/>
    </g>
    <g clip-path="url(#pb454c96205)">
     <use style="fill:#66ccff;" x="105.043387" xlink:href="#C0_0_88934c4cf1" y="86.149483"/>
    </g>
    <g clip-path="url(#pb454c96205)">
     <use style="fill:#66ccff;" x="95.436285" xlink:href="#C0_0_88934c4cf1" y="85.975124"/>
    </g>
    <g clip-path="url(#pb454c96205)">
     <use style="fill:#66ccff;" x="99.754912" xlink:href="#C0_0_88934c4cf1" y="82.9177"/>
    </g>
    <g clip-path="url(#pb454c96205)">
     <use style="fill:#66ccff;" x="127.91221" xlink:href="#C0_0_88934c4cf1" y="97.04839"/>
    </g>
    <g clip-path="url(#pb454c96205)">
     <use style="fill:#66ccff;" x="115.85543" xlink:href="#C0_0_88934c4cf1" y="94.511218"/>
    </g>
    <g clip-path="url(#pb454c96205)">
     <use style="fill:#66ccff;" x="113.337214" xlink:href="#C0_0_88934c4cf1" y="93.962691"/>
    </g>
    <g clip-path="url(#pb454c96205)">
     <use style="fill:#66ccff;" x="117.814288" xlink:href="#C0_0_88934c4cf1" y="91.990068"/>
    </g>
    <g clip-path="url(#pb454c96205)">
     <use style="fill:#66ccff;" x="113.16329" xlink:href="#C0_0_88934c4cf1" y="91.20592"/>
    </g>
    <g clip-path="url(#pb454c96205)">
     <use style="fill:#66ccff;" x="120.728256" xlink:href="#C0_0_88934c4cf1" y="90.890187"/>
    </g>
    <g clip-path="url(#pb454c96205)">
     <use style="fill:#66ccff;" x="119.541002" xlink:href="#C0_0_88934c4cf1" y="89.812926"/>
    </g>
    <g clip-path="url(#pb454c96205)">
     <use style="fill:#66ccff;" x="124.186105" xlink:href="#C0_0_88934c4cf1" y="88.928874"/>
    </g>
    <g clip-path="url(#pb454c96205)">
     <use style="fill:#66ccff;" x="118.498931" xlink:href="#C0_0_88934c4cf1" y="88.534915"/>
    </g>
    <g clip-path="url(#pb454c96205)">
     <use style="fill:#66ccff;" x="120.974403" xlink:href="#C0_0_88934c4cf1" y="87.317223"/>
    </g>
    <g clip-path="url(#pb454c96205)">
     <use style="fill:#66ccff;" x="127.982959" xlink:href="#C0_0_88934c4cf1" y="86.634864"/>
    </g>
    <g clip-path="url(#pb454c96205)">
     <use style="fill:#66ccff;" x="123.021697" xlink:href="#C0_0_88934c4cf1" y="86.309706"/>
    </g>
    <g clip-path="url(#pb454c96205)">
     <use style="fill:#66ccff;" x="111.304659" xlink:href="#C0_0_88934c4cf1" y="85.870508"/>
    </g>
    <g clip-path="url(#pb454c96205)">
     <use style="fill:#66ccff;" x="116.081679" xlink:href="#C0_0_88934c4cf1" y="85.621691"/>
    </g>
    <g clip-path="url(#pb454c96205)">
     <use style="fill:#66ccff;" x="111.816851" xlink:href="#C0_0_88934c4cf1" y="85.554775"/>
    </g>
    <g clip-path="url(#pb454c96205)">
     <use style="fill:#66ccff;" x="119.984656" xlink:href="#C0_0_88934c4cf1" y="85.35968"/>
    </g>
    <g clip-path="url(#pb454c96205)">
     <use style="fill:#66ccff;" x="104.695539" xlink:href="#C0_0_88934c4cf1" y="84.234352"/>
    </g>
    <g clip-path="url(#pb454c96205)">
     <use style="fill:#66ccff;" x="109.66417" xlink:href="#C0_0_88934c4cf1" y="83.682056"/>
    </g>
    <g clip-path="url(#pb454c96205)">
     <use style="fill:#66ccff;" x="114.183989" xlink:href="#C0_0_88934c4cf1" y="83.609484"/>
    </g>
    <g clip-path="url(#pb454c96205)">
     <use style="fill:#66ccff;" x="119.193154" xlink:href="#C0_0_88934c4cf1" y="82.35315"/>
    </g>
    <g clip-path="url(#pb454c96205)">
     <use style="fill:#66ccff;" x="108.401009" xlink:href="#C0_0_88934c4cf1" y="82.195755"/>
    </g>
    <g clip-path="url(#pb454c96205)">
     <use style="fill:#66ccff;" x="121.357626" xlink:href="#C0_0_88934c4cf1" y="82.271154"/>
    </g>
    <g clip-path="url(#pb454c96205)">
     <use style="fill:#66ccff;" x="111.663562" xlink:href="#C0_0_88934c4cf1" y="81.493603"/>
    </g>
    <g clip-path="url(#pb454c96205)">
     <use style="fill:#66ccff;" x="99.065111" xlink:href="#C0_0_88934c4cf1" y="79.189226"/>
    </g>
    <g clip-path="url(#pb454c96205)">
     <use style="fill:#66ccff;" x="105.755297" xlink:href="#C0_0_88934c4cf1" y="78.562472"/>
    </g>
    <g clip-path="url(#pb454c96205)">
     <use style="fill:#66ccff;" x="96.006698" xlink:href="#C0_0_88934c4cf1" y="78.065782"/>
    </g>
    <g clip-path="url(#pb454c96205)">
     <use style="fill:#66ccff;" x="100.481561" xlink:href="#C0_0_88934c4cf1" y="77.980016"/>
    </g>
    <g clip-path="url(#pb454c96205)">
     <use style="fill:#66ccff;" x="102.122787" xlink:href="#C0_0_88934c4cf1" y="76.768922"/>
    </g>
    <g clip-path="url(#pb454c96205)">
     <use style="fill:#66ccff;" x="102.249545" xlink:href="#C0_0_88934c4cf1" y="76.505026"/>
    </g>
    <g clip-path="url(#pb454c96205)">
     <use style="fill:#66ccff;" x="97.233748" xlink:href="#C0_0_88934c4cf1" y="76.356113"/>
    </g>
    <g clip-path="url(#pb454c96205)">
     <use style="fill:#66ccff;" x="92.901856" xlink:href="#C0_0_88934c4cf1" y="75.813241"/>
    </g>
    <g clip-path="url(#pb454c96205)">
     <use style="fill:#66ccff;" x="106.027975" xlink:href="#C0_0_88934c4cf1" y="75.405145"/>
    </g>
    <g clip-path="url(#pb454c96205)">
     <use style="fill:#66ccff;" x="106.132624" xlink:href="#C0_0_88934c4cf1" y="74.536173"/>
    </g>
    <g clip-path="url(#pb454c96205)">
     <use style="fill:#66ccff;" x="109.404758" xlink:href="#C0_0_88934c4cf1" y="74.693568"/>
    </g>
    <g clip-path="url(#pb454c96205)">
     <use style="fill:#66ccff;" x="94.543081" xlink:href="#C0_0_88934c4cf1" y="73.597457"/>
    </g>
    <g clip-path="url(#pb454c96205)">
     <use style="fill:#66ccff;" x="99.438753" xlink:href="#C0_0_88934c4cf1" y="73.424982"/>
    </g>
    <g clip-path="url(#pb454c96205)">
     <use style="fill:#66ccff;" x="102.085202" xlink:href="#C0_0_88934c4cf1" y="71.548493"/>
    </g>
    <g clip-path="url(#pb454c96205)">
     <use style="fill:#66ccff;" x="110.51463" xlink:href="#C0_0_88934c4cf1" y="70.669153"/>
    </g>
    <g clip-path="url(#pb454c96205)">
     <use style="fill:#66ccff;" x="105.19815" xlink:href="#C0_0_88934c4cf1" y="69.833168"/>
    </g>
    <g clip-path="url(#pb454c96205)">
     <use style="fill:#66ccff;" x="108.602938" xlink:href="#C0_0_88934c4cf1" y="68.200783"/>
    </g>
    <g clip-path="url(#pb454c96205)">
     <use style="fill:#66ccff;" x="99.092379" xlink:href="#C0_0_88934c4cf1" y="67.646601"/>
    </g>
    <g clip-path="url(#pb454c96205)">
     <use style="fill:#66ccff;" x="110.518315" xlink:href="#C0_0_88934c4cf1" y="92.803434"/>
    </g>
    <g clip-path="url(#pb454c96205)">
     <use style="fill:#66ccff;" x="108.227085" xlink:href="#C0_0_88934c4cf1" y="92.554617"/>
    </g>
    <g clip-path="url(#pb454c96205)">
     <use style="fill:#66ccff;" x="74.18142" xlink:href="#C0_0_88934c4cf1" y="78.274072"/>
    </g>
    <g clip-path="url(#pb454c96205)">
     <use style="fill:#66ccff;" x="98.827071" xlink:href="#C0_0_88934c4cf1" y="8.307692"/>
    </g>
    <g clip-path="url(#pb454c96205)">
     <use style="fill:#66ccff;" x="123.295849" xlink:href="#C0_0_88934c4cf1" y="59.006834"/>
    </g>
    <g clip-path="url(#pb454c96205)">
     <use style="fill:#66ccff;" x="65.23243" xlink:href="#C0_0_88934c4cf1" y="71.824641"/>
    </g>
    <g clip-path="url(#pb454c96205)">
     <use style="fill:#66ccff;" x="45.467712" xlink:href="#C0_0_88934c4cf1" y="211.188139"/>
    </g>
    <g clip-path="url(#pb454c96205)">
     <use style="fill:#66ccff;" x="18.821934" xlink:href="#C0_0_88934c4cf1" y="152.198892"/>
    </g>
   </g>
   <g id="LineCollection_1">
    <path clip-path="url(#pb454c96205)" d="M 92.56801 70.681406 
L 94.53129 69.275217 
L 96.740717 68.361948 
" style="fill:none;stroke:#999999;"/>
    <path clip-path="url(#pb454c96205)" d="M 92.56801 70.681406 
L 90.282675 73.552218 
L 90.116858 73.791609 
" style="fill:none;stroke:#999999;"/>
    <path clip-path="url(#pb454c96205)" d="M 92.56801 70.681406 
L 92.971868 72.867973 
L 94.543081 73.597457 
" style="fill:none;stroke:#999999;"/>
    <path clip-path="url(#pb454c96205)" d="M 105.376496 64.839878 
L 101.145569 60.327256 
" style="fill:none;stroke:#999999;"/>
    <path clip-path="url(#pb454c96205)" d="M 105.376496 64.839878 
L 103.819285 65.90583 
L 102.581917 66.321466 
L 99.746068 67.371395 
" style="fill:none;stroke:#999999;"/>
    <path clip-path="url(#pb454c96205)" d="M 105.376496 64.839878 
L 105.489252 63.738113 
L 105.207731 58.465847 
L 105.178252 53.534761 
L 105.78625 52.274657 
" style="fill:none;stroke:#999999;"/>
    <path clip-path="url(#pb454c96205)" d="M 105.376496 64.839878 
L 107.106895 66.103752 
L 108.331734 67.820961 
L 108.602938 68.200783 
" style="fill:none;stroke:#999999;"/>
    <path clip-path="url(#pb454c96205)" d="M 105.78625 52.274657 
L 106.597651 52.39718 
L 107.385468 52.167214 
L 108.005258 51.629054 
" style="fill:none;stroke:#999999;"/>
    <path clip-path="url(#pb454c96205)" d="M 105.78625 52.274657 
L 105.178252 53.534761 
L 105.207731 58.465847 
L 105.489252 63.738113 
L 105.376496 64.839878 
" style="fill:none;stroke:#999999;"/>
    <path clip-path="url(#pb454c96205)" d="M 108.005258 51.629054 
L 111.952453 54.978649 
" style="fill:none;stroke:#999999;"/>
    <path clip-path="url(#pb454c96205)" d="M 108.005258 51.629054 
L 108.32289 50.963659 
L 108.365634 50.227578 
L 108.12612 49.529196 
L 107.640459 48.974072 
L 106.980873 48.644202 
L 106.24538 48.587652 
L 105.543051 48.813849 
L 104.978534 49.288862 
" style="fill:none;stroke:#999999;"/>
    <path clip-path="url(#pb454c96205)" d="M 104.978534 49.288862 
L 104.596785 50.09563 
L 104.622579 50.987221 
L 105.05002 51.770427 
L 105.78625 52.274657 
" style="fill:none;stroke:#999999;"/>
    <path clip-path="url(#pb454c96205)" d="M 72.000735 90.469839 
L 73.164406 90.249297 
" style="fill:none;stroke:#999999;"/>
    <path clip-path="url(#pb454c96205)" d="M 73.164406 90.249297 
L 72.000735 90.469839 
" style="fill:none;stroke:#999999;"/>
    <path clip-path="url(#pb454c96205)" d="M 73.164406 90.249297 
L 72.408278 89.747894 
L 68.124289 86.908185 
" style="fill:none;stroke:#999999;"/>
    <path clip-path="url(#pb454c96205)" d="M 73.164406 90.249297 
L 74.894804 89.934507 
L 75.834437 88.779019 
" style="fill:none;stroke:#999999;"/>
    <path clip-path="url(#pb454c96205)" d="M 75.834437 88.779019 
L 77.777082 86.392645 
" style="fill:none;stroke:#999999;"/>
    <path clip-path="url(#pb454c96205)" d="M 75.834437 88.779019 
L 72.440704 85.656563 
L 70.007239 84.223985 
" style="fill:none;stroke:#999999;"/>
    <path clip-path="url(#pb454c96205)" d="M 75.834437 88.779019 
L 74.894804 89.934507 
L 73.164406 90.249297 
" style="fill:none;stroke:#999999;"/>
    <path clip-path="url(#pb454c96205)" d="M 80.396263 88.238975 
L 83.564484 83.285269 
" style="fill:none;stroke:#999999;"/>
    <path clip-path="url(#pb454c96205)" d="M 80.396263 88.238975 
L 79.433047 89.435932 
" style="fill:none;stroke:#999999;"/>
    <path clip-path="url(#pb454c96205)" d="M 80.396263 88.238975 
L 77.777082 86.392645 
" style="fill:none;stroke:#999999;"/>
    <path clip-path="url(#pb454c96205)" d="M 68.124289 86.908185 
L 58.961578 80.832921 
" style="fill:none;stroke:#999999;"/>
    <path clip-path="url(#pb454c96205)" d="M 68.124289 86.908185 
L 70.007239 84.223985 
" style="fill:none;stroke:#999999;"/>
    <path clip-path="url(#pb454c96205)" d="M 68.124289 86.908185 
L 72.408278 89.747894 
L 73.164406 90.249297 
" style="fill:none;stroke:#999999;"/>
    <path clip-path="url(#pb454c96205)" d="M 77.777082 86.392645 
L 80.396263 88.238975 
" style="fill:none;stroke:#999999;"/>
    <path clip-path="url(#pb454c96205)" d="M 77.777082 86.392645 
L 75.915504 84.892207 
" style="fill:none;stroke:#999999;"/>
    <path clip-path="url(#pb454c96205)" d="M 77.777082 86.392645 
L 75.834437 88.779019 
" style="fill:none;stroke:#999999;"/>
    <path clip-path="url(#pb454c96205)" d="M 75.915504 84.892207 
L 77.777082 86.392645 
" style="fill:none;stroke:#999999;"/>
    <path clip-path="url(#pb454c96205)" d="M 75.915504 84.892207 
L 71.63741 81.900757 
" style="fill:none;stroke:#999999;"/>
    <path clip-path="url(#pb454c96205)" d="M 75.915504 84.892207 
L 79.110256 80.045003 
" style="fill:none;stroke:#999999;"/>
    <path clip-path="url(#pb454c96205)" d="M 70.007239 84.223985 
L 71.63741 81.900757 
" style="fill:none;stroke:#999999;"/>
    <path clip-path="url(#pb454c96205)" d="M 70.007239 84.223985 
L 68.124289 86.908185 
" style="fill:none;stroke:#999999;"/>
    <path clip-path="url(#pb454c96205)" d="M 70.007239 84.223985 
L 60.884325 78.070495 
" style="fill:none;stroke:#999999;"/>
    <path clip-path="url(#pb454c96205)" d="M 70.007239 84.223985 
L 72.440704 85.656563 
L 75.834437 88.779019 
" style="fill:none;stroke:#999999;"/>
    <path clip-path="url(#pb454c96205)" d="M 83.564484 83.285269 
L 85.952994 79.825403 
" style="fill:none;stroke:#999999;"/>
    <path clip-path="url(#pb454c96205)" d="M 83.564484 83.285269 
L 80.396263 88.238975 
" style="fill:none;stroke:#999999;"/>
    <path clip-path="url(#pb454c96205)" d="M 83.564484 83.285269 
L 79.110256 80.045003 
" style="fill:none;stroke:#999999;"/>
    <path clip-path="url(#pb454c96205)" d="M 71.63741 81.900757 
L 74.18142 78.274072 
" style="fill:none;stroke:#999999;"/>
    <path clip-path="url(#pb454c96205)" d="M 71.63741 81.900757 
L 70.007239 84.223985 
" style="fill:none;stroke:#999999;"/>
    <path clip-path="url(#pb454c96205)" d="M 71.63741 81.900757 
L 75.915504 84.892207 
" style="fill:none;stroke:#999999;"/>
    <path clip-path="url(#pb454c96205)" d="M 58.961578 80.832921 
L 60.884325 78.070495 
" style="fill:none;stroke:#999999;"/>
    <path clip-path="url(#pb454c96205)" d="M 58.961578 80.832921 
L 68.124289 86.908185 
" style="fill:none;stroke:#999999;"/>
    <path clip-path="url(#pb454c96205)" d="M 58.961578 80.832921 
L 52.903709 76.816989 
" style="fill:none;stroke:#999999;"/>
    <path clip-path="url(#pb454c96205)" d="M 79.110256 80.045003 
L 81.478131 76.575712 
" style="fill:none;stroke:#999999;"/>
    <path clip-path="url(#pb454c96205)" d="M 79.110256 80.045003 
L 75.915504 84.892207 
" style="fill:none;stroke:#999999;"/>
    <path clip-path="url(#pb454c96205)" d="M 79.110256 80.045003 
L 83.564484 83.285269 
" style="fill:none;stroke:#999999;"/>
    <path clip-path="url(#pb454c96205)" d="M 79.110256 80.045003 
L 75.023774 77.073345 
" style="fill:none;stroke:#999999;"/>
    <path clip-path="url(#pb454c96205)" d="M 85.952994 79.825403 
L 86.185876 79.487994 
" style="fill:none;stroke:#999999;"/>
    <path clip-path="url(#pb454c96205)" d="M 85.952994 79.825403 
L 83.564484 83.285269 
" style="fill:none;stroke:#999999;"/>
    <path clip-path="url(#pb454c96205)" d="M 85.952994 79.825403 
L 81.478131 76.575712 
" style="fill:none;stroke:#999999;"/>
    <path clip-path="url(#pb454c96205)" d="M 60.884325 78.070495 
L 65.23243 71.824641 
" style="fill:none;stroke:#999999;"/>
    <path clip-path="url(#pb454c96205)" d="M 60.884325 78.070495 
L 58.961578 80.832921 
" style="fill:none;stroke:#999999;"/>
    <path clip-path="url(#pb454c96205)" d="M 60.884325 78.070495 
L 70.007239 84.223985 
" style="fill:none;stroke:#999999;"/>
    <path clip-path="url(#pb454c96205)" d="M 107.583712 77.823564 
L 105.755297 78.562472 
" style="fill:none;stroke:#999999;"/>
    <path clip-path="url(#pb454c96205)" d="M 107.583712 77.823564 
L 108.603675 76.409835 
L 109.404758 74.693568 
" style="fill:none;stroke:#999999;"/>
    <path clip-path="url(#pb454c96205)" d="M 107.583712 77.823564 
L 107.473904 78.675571 
L 107.728895 79.23258 
L 108.00231 79.439927 
L 109.696597 80.566197 
L 111.663562 81.493603 
" style="fill:none;stroke:#999999;"/>
    <path clip-path="url(#pb454c96205)" d="M 75.023774 77.073345 
L 77.432919 73.638926 
" style="fill:none;stroke:#999999;"/>
    <path clip-path="url(#pb454c96205)" d="M 75.023774 77.073345 
L 74.18142 78.274072 
" style="fill:none;stroke:#999999;"/>
    <path clip-path="url(#pb454c96205)" d="M 75.023774 77.073345 
L 79.110256 80.045003 
" style="fill:none;stroke:#999999;"/>
    <path clip-path="url(#pb454c96205)" d="M 52.903709 76.816989 
L 58.961578 80.832921 
" style="fill:none;stroke:#999999;"/>
    <path clip-path="url(#pb454c96205)" d="M 81.478131 76.575712 
L 84.842385 71.656879 
" style="fill:none;stroke:#999999;"/>
    <path clip-path="url(#pb454c96205)" d="M 81.478131 76.575712 
L 79.110256 80.045003 
" style="fill:none;stroke:#999999;"/>
    <path clip-path="url(#pb454c96205)" d="M 81.478131 76.575712 
L 85.952994 79.825403 
" style="fill:none;stroke:#999999;"/>
    <path clip-path="url(#pb454c96205)" d="M 81.478131 76.575712 
L 77.432919 73.638926 
" style="fill:none;stroke:#999999;"/>
    <path clip-path="url(#pb454c96205)" d="M 89.437374 74.776507 
L 90.116858 73.791609 
" style="fill:none;stroke:#999999;"/>
    <path clip-path="url(#pb454c96205)" d="M 89.437374 74.776507 
L 86.185876 79.487994 
" style="fill:none;stroke:#999999;"/>
    <path clip-path="url(#pb454c96205)" d="M 89.437374 74.776507 
L 84.842385 71.656879 
" style="fill:none;stroke:#999999;"/>
    <path clip-path="url(#pb454c96205)" d="M 77.432919 73.638926 
L 80.765483 68.88974 
" style="fill:none;stroke:#999999;"/>
    <path clip-path="url(#pb454c96205)" d="M 77.432919 73.638926 
L 75.023774 77.073345 
" style="fill:none;stroke:#999999;"/>
    <path clip-path="url(#pb454c96205)" d="M 77.432919 73.638926 
L 81.478131 76.575712 
" style="fill:none;stroke:#999999;"/>
    <path clip-path="url(#pb454c96205)" d="M 77.432919 73.638926 
L 72.724437 70.084812 
L 68.489824 67.146141 
" style="fill:none;stroke:#999999;"/>
    <path clip-path="url(#pb454c96205)" d="M 84.842385 71.656879 
L 80.765483 68.88974 
" style="fill:none;stroke:#999999;"/>
    <path clip-path="url(#pb454c96205)" d="M 84.842385 71.656879 
L 89.437374 74.776507 
" style="fill:none;stroke:#999999;"/>
    <path clip-path="url(#pb454c96205)" d="M 84.842385 71.656879 
L 85.465859 70.745495 
" style="fill:none;stroke:#999999;"/>
    <path clip-path="url(#pb454c96205)" d="M 84.842385 71.656879 
L 81.478131 76.575712 
" style="fill:none;stroke:#999999;"/>
    <path clip-path="url(#pb454c96205)" d="M 110.35176 71.481576 
L 111.327505 70.745495 
L 113.152235 67.693726 
L 115.92102 64.76825 
" style="fill:none;stroke:#999999;"/>
    <path clip-path="url(#pb454c96205)" d="M 110.35176 71.481576 
L 110.509471 70.933992 
L 110.51463 70.669153 
" style="fill:none;stroke:#999999;"/>
    <path clip-path="url(#pb454c96205)" d="M 110.35176 71.481576 
L 109.471085 74.551253 
L 109.404758 74.693568 
" style="fill:none;stroke:#999999;"/>
    <path clip-path="url(#pb454c96205)" d="M 85.465859 70.745495 
L 84.842385 71.656879 
" style="fill:none;stroke:#999999;"/>
    <path clip-path="url(#pb454c96205)" d="M 80.765483 68.88974 
L 84.779743 63.145289 
" style="fill:none;stroke:#999999;"/>
    <path clip-path="url(#pb454c96205)" d="M 80.765483 68.88974 
L 77.432919 73.638926 
" style="fill:none;stroke:#999999;"/>
    <path clip-path="url(#pb454c96205)" d="M 80.765483 68.88974 
L 71.167962 63.316821 
" style="fill:none;stroke:#999999;"/>
    <path clip-path="url(#pb454c96205)" d="M 80.765483 68.88974 
L 84.842385 71.656879 
" style="fill:none;stroke:#999999;"/>
    <path clip-path="url(#pb454c96205)" d="M 96.740717 68.361948 
L 99.092379 67.646601 
" style="fill:none;stroke:#999999;"/>
    <path clip-path="url(#pb454c96205)" d="M 96.740717 68.361948 
L 86.241148 61.076532 
" style="fill:none;stroke:#999999;"/>
    <path clip-path="url(#pb454c96205)" d="M 96.740717 68.361948 
L 94.53129 69.275217 
L 92.56801 70.681406 
" style="fill:none;stroke:#999999;"/>
    <path clip-path="url(#pb454c96205)" d="M 119.129774 67.976471 
L 118.18572 67.033043 
" style="fill:none;stroke:#999999;"/>
    <path clip-path="url(#pb454c96205)" d="M 99.746068 67.371395 
L 99.092379 67.646601 
" style="fill:none;stroke:#999999;"/>
    <path clip-path="url(#pb454c96205)" d="M 99.746068 67.371395 
L 96.938961 65.399715 
" style="fill:none;stroke:#999999;"/>
    <path clip-path="url(#pb454c96205)" d="M 99.746068 67.371395 
L 102.581917 66.321466 
L 103.819285 65.90583 
L 105.376496 64.839878 
" style="fill:none;stroke:#999999;"/>
    <path clip-path="url(#pb454c96205)" d="M 68.489824 67.146141 
L 71.167962 63.316821 
" style="fill:none;stroke:#999999;"/>
    <path clip-path="url(#pb454c96205)" d="M 68.489824 67.146141 
L 65.23243 71.824641 
" style="fill:none;stroke:#999999;"/>
    <path clip-path="url(#pb454c96205)" d="M 68.489824 67.146141 
L 72.724437 70.084812 
L 77.432919 73.638926 
" style="fill:none;stroke:#999999;"/>
    <path clip-path="url(#pb454c96205)" d="M 118.18572 67.033043 
L 119.129774 67.976471 
" style="fill:none;stroke:#999999;"/>
    <path clip-path="url(#pb454c96205)" d="M 118.18572 67.033043 
L 115.92102 64.76825 
" style="fill:none;stroke:#999999;"/>
    <path clip-path="url(#pb454c96205)" d="M 118.18572 67.033043 
L 124.603965 59.860726 
L 124.95034 59.200043 
L 125.039513 58.513913 
" style="fill:none;stroke:#999999;"/>
    <path clip-path="url(#pb454c96205)" d="M 96.938961 65.399715 
L 99.746068 67.371395 
" style="fill:none;stroke:#999999;"/>
    <path clip-path="url(#pb454c96205)" d="M 96.938961 65.399715 
L 94.078792 63.343211 
" style="fill:none;stroke:#999999;"/>
    <path clip-path="url(#pb454c96205)" d="M 96.938961 65.399715 
L 101.145569 60.327256 
" style="fill:none;stroke:#999999;"/>
    <path clip-path="url(#pb454c96205)" d="M 115.92102 64.76825 
L 118.18572 67.033043 
" style="fill:none;stroke:#999999;"/>
    <path clip-path="url(#pb454c96205)" d="M 115.92102 64.76825 
L 110.855109 59.828681 
" style="fill:none;stroke:#999999;"/>
    <path clip-path="url(#pb454c96205)" d="M 115.92102 64.76825 
L 113.152235 67.693726 
L 111.327505 70.745495 
L 110.35176 71.481576 
" style="fill:none;stroke:#999999;"/>
    <path clip-path="url(#pb454c96205)" d="M 78.418981 63.60428 
L 80.527443 60.268822 
" style="fill:none;stroke:#999999;"/>
    <path clip-path="url(#pb454c96205)" d="M 71.167962 63.316821 
L 73.482776 59.973824 
" style="fill:none;stroke:#999999;"/>
    <path clip-path="url(#pb454c96205)" d="M 71.167962 63.316821 
L 68.489824 67.146141 
" style="fill:none;stroke:#999999;"/>
    <path clip-path="url(#pb454c96205)" d="M 71.167962 63.316821 
L 80.765483 68.88974 
" style="fill:none;stroke:#999999;"/>
    <path clip-path="url(#pb454c96205)" d="M 94.078792 63.343211 
L 96.938961 65.399715 
" style="fill:none;stroke:#999999;"/>
    <path clip-path="url(#pb454c96205)" d="M 94.078792 63.343211 
L 87.722452 58.975732 
" style="fill:none;stroke:#999999;"/>
    <path clip-path="url(#pb454c96205)" d="M 94.078792 63.343211 
L 98.159378 57.141654 
" style="fill:none;stroke:#999999;"/>
    <path clip-path="url(#pb454c96205)" d="M 84.779743 63.145289 
L 86.241148 61.076532 
" style="fill:none;stroke:#999999;"/>
    <path clip-path="url(#pb454c96205)" d="M 84.779743 63.145289 
L 80.765483 68.88974 
" style="fill:none;stroke:#999999;"/>
    <path clip-path="url(#pb454c96205)" d="M 84.779743 63.145289 
L 80.527443 60.268822 
" style="fill:none;stroke:#999999;"/>
    <path clip-path="url(#pb454c96205)" d="M 75.80717 61.747582 
L 73.482776 59.973824 
" style="fill:none;stroke:#999999;"/>
    <path clip-path="url(#pb454c96205)" d="M 86.241148 61.076532 
L 87.722452 58.975732 
" style="fill:none;stroke:#999999;"/>
    <path clip-path="url(#pb454c96205)" d="M 86.241148 61.076532 
L 84.779743 63.145289 
" style="fill:none;stroke:#999999;"/>
    <path clip-path="url(#pb454c96205)" d="M 86.241148 61.076532 
L 96.740717 68.361948 
" style="fill:none;stroke:#999999;"/>
    <path clip-path="url(#pb454c96205)" d="M 101.145569 60.327256 
L 105.376496 64.839878 
" style="fill:none;stroke:#999999;"/>
    <path clip-path="url(#pb454c96205)" d="M 101.145569 60.327256 
L 98.159378 57.141654 
" style="fill:none;stroke:#999999;"/>
    <path clip-path="url(#pb454c96205)" d="M 101.145569 60.327256 
L 96.938961 65.399715 
" style="fill:none;stroke:#999999;"/>
    <path clip-path="url(#pb454c96205)" d="M 80.527443 60.268822 
L 78.418981 63.60428 
" style="fill:none;stroke:#999999;"/>
    <path clip-path="url(#pb454c96205)" d="M 80.527443 60.268822 
L 84.779743 63.145289 
" style="fill:none;stroke:#999999;"/>
    <path clip-path="url(#pb454c96205)" d="M 80.527443 60.268822 
L 75.599345 56.934307 
" style="fill:none;stroke:#999999;"/>
    <path clip-path="url(#pb454c96205)" d="M 73.482776 59.973824 
L 75.599345 56.934307 
" style="fill:none;stroke:#999999;"/>
    <path clip-path="url(#pb454c96205)" d="M 73.482776 59.973824 
L 71.167962 63.316821 
" style="fill:none;stroke:#999999;"/>
    <path clip-path="url(#pb454c96205)" d="M 73.482776 59.973824 
L 75.80717 61.747582 
" style="fill:none;stroke:#999999;"/>
    <path clip-path="url(#pb454c96205)" d="M 110.855109 59.828681 
L 115.92102 64.76825 
" style="fill:none;stroke:#999999;"/>
    <path clip-path="url(#pb454c96205)" d="M 110.855109 59.828681 
L 111.264126 57.344289 
L 111.952453 54.978649 
" style="fill:none;stroke:#999999;"/>
    <path clip-path="url(#pb454c96205)" d="M 110.855109 59.828681 
L 110.596434 67.167819 
L 110.572114 67.851121 
L 110.51463 70.669153 
" style="fill:none;stroke:#999999;"/>
    <path clip-path="url(#pb454c96205)" d="M 87.722452 58.975732 
L 89.713 56.08607 
" style="fill:none;stroke:#999999;"/>
    <path clip-path="url(#pb454c96205)" d="M 87.722452 58.975732 
L 86.241148 61.076532 
" style="fill:none;stroke:#999999;"/>
    <path clip-path="url(#pb454c96205)" d="M 87.722452 58.975732 
L 94.078792 63.343211 
" style="fill:none;stroke:#999999;"/>
    <path clip-path="url(#pb454c96205)" d="M 87.722452 58.975732 
L 78.648177 52.578138 
" style="fill:none;stroke:#999999;"/>
    <path clip-path="url(#pb454c96205)" d="M 125.039513 58.513913 
L 124.95034 59.200043 
L 124.603965 59.860726 
L 118.18572 67.033043 
" style="fill:none;stroke:#999999;"/>
    <path clip-path="url(#pb454c96205)" d="M 125.039513 58.513913 
L 124.21411 58.856978 
L 123.295849 59.006834 
" style="fill:none;stroke:#999999;"/>
    <path clip-path="url(#pb454c96205)" d="M 98.159378 57.141654 
L 101.145569 60.327256 
" style="fill:none;stroke:#999999;"/>
    <path clip-path="url(#pb454c96205)" d="M 98.159378 57.141654 
L 96.697973 55.582782 
" style="fill:none;stroke:#999999;"/>
    <path clip-path="url(#pb454c96205)" d="M 98.159378 57.141654 
L 94.078792 63.343211 
" style="fill:none;stroke:#999999;"/>
    <path clip-path="url(#pb454c96205)" d="M 75.599345 56.934307 
L 78.648177 52.578138 
" style="fill:none;stroke:#999999;"/>
    <path clip-path="url(#pb454c96205)" d="M 75.599345 56.934307 
L 73.482776 59.973824 
" style="fill:none;stroke:#999999;"/>
    <path clip-path="url(#pb454c96205)" d="M 75.599345 56.934307 
L 80.527443 60.268822 
" style="fill:none;stroke:#999999;"/>
    <path clip-path="url(#pb454c96205)" d="M 75.599345 56.934307 
L 71.65436 54.292519 
" style="fill:none;stroke:#999999;"/>
    <path clip-path="url(#pb454c96205)" d="M 89.713 56.08607 
L 87.722452 58.975732 
" style="fill:none;stroke:#999999;"/>
    <path clip-path="url(#pb454c96205)" d="M 96.697973 55.582782 
L 98.159378 57.141654 
" style="fill:none;stroke:#999999;"/>
    <path clip-path="url(#pb454c96205)" d="M 111.952453 54.978649 
L 108.005258 51.629054 
" style="fill:none;stroke:#999999;"/>
    <path clip-path="url(#pb454c96205)" d="M 111.952453 54.978649 
L 111.264126 57.344289 
L 110.855109 59.828681 
" style="fill:none;stroke:#999999;"/>
    <path clip-path="url(#pb454c96205)" d="M 111.952453 54.978649 
L 113.739598 56.495109 
L 116.053674 58.016281 
L 118.412705 58.992696 
L 121.257398 59.338589 
L 123.295849 59.006834 
" style="fill:none;stroke:#999999;"/>
    <path clip-path="url(#pb454c96205)" d="M 71.65436 54.292519 
L 75.599345 56.934307 
" style="fill:none;stroke:#999999;"/>
    <path clip-path="url(#pb454c96205)" d="M 78.648177 52.578138 
L 75.599345 56.934307 
" style="fill:none;stroke:#999999;"/>
    <path clip-path="url(#pb454c96205)" d="M 78.648177 52.578138 
L 87.722452 58.975732 
" style="fill:none;stroke:#999999;"/>
    <path clip-path="url(#pb454c96205)" d="M 78.648177 52.578138 
L 77.61495 51.854308 
" style="fill:none;stroke:#999999;"/>
    <path clip-path="url(#pb454c96205)" d="M 77.61495 51.854308 
L 78.648177 52.578138 
" style="fill:none;stroke:#999999;"/>
    <path clip-path="url(#pb454c96205)" d="M 87.770355 109.52219 
L 89.532443 103.795646 
L 94.022783 100.932374 
" style="fill:none;stroke:#999999;"/>
    <path clip-path="url(#pb454c96205)" d="M 94.022783 100.932374 
L 97.86975 98.479083 
" style="fill:none;stroke:#999999;"/>
    <path clip-path="url(#pb454c96205)" d="M 94.022783 100.932374 
L 91.394758 98.071929 
L 87.236791 93.570617 
L 87.093819 92.215322 
" style="fill:none;stroke:#999999;"/>
    <path clip-path="url(#pb454c96205)" d="M 94.022783 100.932374 
L 89.532443 103.795646 
L 87.770355 109.52219 
" style="fill:none;stroke:#999999;"/>
    <path clip-path="url(#pb454c96205)" d="M 97.86975 98.479083 
L 94.022783 100.932374 
" style="fill:none;stroke:#999999;"/>
    <path clip-path="url(#pb454c96205)" d="M 97.86975 98.479083 
L 97.612549 97.17374 
L 97.232274 95.938142 
L 96.741454 95.146453 
L 96.634594 94.327433 
" style="fill:none;stroke:#999999;"/>
    <path clip-path="url(#pb454c96205)" d="M 97.86975 98.479083 
L 98.325196 100.752359 
L 98.821912 103.291416 
" style="fill:none;stroke:#999999;"/>
    <path clip-path="url(#pb454c96205)" d="M 75.773269 96.888167 
L 79.486109 95.252012 
L 87.093819 92.215322 
" style="fill:none;stroke:#999999;"/>
    <path clip-path="url(#pb454c96205)" d="M 116.972672 94.859938 
L 115.85543 94.511218 
" style="fill:none;stroke:#999999;"/>
    <path clip-path="url(#pb454c96205)" d="M 116.972672 94.859938 
L 119.409085 94.917429 
" style="fill:none;stroke:#999999;"/>
    <path clip-path="url(#pb454c96205)" d="M 116.972672 94.859938 
L 116.214333 95.356628 
L 113.915733 96.257644 
L 111.834538 97.517748 
" style="fill:none;stroke:#999999;"/>
    <path clip-path="url(#pb454c96205)" d="M 96.634594 94.327433 
L 102.33356 93.299181 
" style="fill:none;stroke:#999999;"/>
    <path clip-path="url(#pb454c96205)" d="M 96.634594 94.327433 
L 94.801757 94.051285 
" style="fill:none;stroke:#999999;"/>
    <path clip-path="url(#pb454c96205)" d="M 96.634594 94.327433 
L 96.725978 90.53864 
L 96.994971 89.620659 
L 96.947805 89.129624 
L 96.823257 88.869498 
" style="fill:none;stroke:#999999;"/>
    <path clip-path="url(#pb454c96205)" d="M 96.634594 94.327433 
L 96.741454 95.146453 
L 97.232274 95.938142 
L 97.612549 97.17374 
L 97.86975 98.479083 
" style="fill:none;stroke:#999999;"/>
    <path clip-path="url(#pb454c96205)" d="M 94.801757 94.051285 
L 96.634594 94.327433 
" style="fill:none;stroke:#999999;"/>
    <path clip-path="url(#pb454c96205)" d="M 94.801757 94.051285 
L 93.643245 93.89012 
L 90.86709 93.22284 
" style="fill:none;stroke:#999999;"/>
    <path clip-path="url(#pb454c96205)" d="M 94.801757 94.051285 
L 94.630044 93.031515 
L 93.629242 91.296399 
L 91.84136 89.259687 
" style="fill:none;stroke:#999999;"/>
    <path clip-path="url(#pb454c96205)" d="M 102.640138 93.23038 
L 104.688169 92.770447 
" style="fill:none;stroke:#999999;"/>
    <path clip-path="url(#pb454c96205)" d="M 102.640138 93.23038 
L 102.33356 93.299181 
" style="fill:none;stroke:#999999;"/>
    <path clip-path="url(#pb454c96205)" d="M 102.640138 93.23038 
L 103.436062 101.86355 
L 102.47432 103.253717 
" style="fill:none;stroke:#999999;"/>
    <path clip-path="url(#pb454c96205)" d="M 90.86709 93.22284 
L 89.624564 90.654566 
" style="fill:none;stroke:#999999;"/>
    <path clip-path="url(#pb454c96205)" d="M 90.86709 93.22284 
L 93.643245 93.89012 
L 94.801757 94.051285 
" style="fill:none;stroke:#999999;"/>
    <path clip-path="url(#pb454c96205)" d="M 90.86709 93.22284 
L 87.668653 92.578179 
L 87.476305 92.294491 
" style="fill:none;stroke:#999999;"/>
    <path clip-path="url(#pb454c96205)" d="M 110.723929 93.009838 
L 113.337214 93.962691 
" style="fill:none;stroke:#999999;"/>
    <path clip-path="url(#pb454c96205)" d="M 110.723929 93.009838 
L 110.518315 92.803434 
" style="fill:none;stroke:#999999;"/>
    <path clip-path="url(#pb454c96205)" d="M 110.723929 93.009838 
L 110.654654 93.834513 
L 110.746775 94.295389 
" style="fill:none;stroke:#999999;"/>
    <path clip-path="url(#pb454c96205)" d="M 87.093819 92.215322 
L 87.315646 91.911842 
" style="fill:none;stroke:#999999;"/>
    <path clip-path="url(#pb454c96205)" d="M 87.093819 92.215322 
L 87.476305 92.294491 
" style="fill:none;stroke:#999999;"/>
    <path clip-path="url(#pb454c96205)" d="M 87.093819 92.215322 
L 87.236791 93.570617 
L 91.394758 98.071929 
L 94.022783 100.932374 
" style="fill:none;stroke:#999999;"/>
    <path clip-path="url(#pb454c96205)" d="M 87.093819 92.215322 
L 79.486109 95.252012 
L 75.773269 96.888167 
" style="fill:none;stroke:#999999;"/>
    <path clip-path="url(#pb454c96205)" d="M 87.476305 92.294491 
L 87.315646 91.911842 
" style="fill:none;stroke:#999999;"/>
    <path clip-path="url(#pb454c96205)" d="M 87.476305 92.294491 
L 87.093819 92.215322 
" style="fill:none;stroke:#999999;"/>
    <path clip-path="url(#pb454c96205)" d="M 87.476305 92.294491 
L 87.668653 92.578179 
L 90.86709 93.22284 
" style="fill:none;stroke:#999999;"/>
    <path clip-path="url(#pb454c96205)" d="M 87.315646 91.911842 
L 89.624564 90.654566 
" style="fill:none;stroke:#999999;"/>
    <path clip-path="url(#pb454c96205)" d="M 87.315646 91.911842 
L 87.093819 92.215322 
" style="fill:none;stroke:#999999;"/>
    <path clip-path="url(#pb454c96205)" d="M 87.315646 91.911842 
L 87.476305 92.294491 
" style="fill:none;stroke:#999999;"/>
    <path clip-path="url(#pb454c96205)" d="M 87.315646 91.911842 
L 87.276587 91.805341 
L 86.993592 91.037215 
" style="fill:none;stroke:#999999;"/>
    <path clip-path="url(#pb454c96205)" d="M 86.993592 91.037215 
L 87.276587 91.805341 
L 87.315646 91.911842 
" style="fill:none;stroke:#999999;"/>
    <path clip-path="url(#pb454c96205)" d="M 86.993592 91.037215 
L 83.48047 90.799709 
L 81.27178 90.346373 
L 79.433047 89.435932 
" style="fill:none;stroke:#999999;"/>
    <path clip-path="url(#pb454c96205)" d="M 86.993592 91.037215 
L 87.029703 90.795939 
L 87.773303 85.869565 
" style="fill:none;stroke:#999999;"/>
    <path clip-path="url(#pb454c96205)" d="M 89.624564 90.654566 
L 90.86709 93.22284 
" style="fill:none;stroke:#999999;"/>
    <path clip-path="url(#pb454c96205)" d="M 89.624564 90.654566 
L 91.84136 89.259687 
" style="fill:none;stroke:#999999;"/>
    <path clip-path="url(#pb454c96205)" d="M 89.624564 90.654566 
L 87.315646 91.911842 
" style="fill:none;stroke:#999999;"/>
    <path clip-path="url(#pb454c96205)" d="M 89.624564 90.654566 
L 87.960492 86.681046 
L 87.773303 85.869565 
" style="fill:none;stroke:#999999;"/>
    <path clip-path="url(#pb454c96205)" d="M 79.433047 89.435932 
L 80.396263 88.238975 
" style="fill:none;stroke:#999999;"/>
    <path clip-path="url(#pb454c96205)" d="M 79.433047 89.435932 
L 81.27178 90.346373 
L 83.48047 90.799709 
L 86.993592 91.037215 
" style="fill:none;stroke:#999999;"/>
    <path clip-path="url(#pb454c96205)" d="M 91.84136 89.259687 
L 89.624564 90.654566 
" style="fill:none;stroke:#999999;"/>
    <path clip-path="url(#pb454c96205)" d="M 91.84136 89.259687 
L 93.398572 87.635784 
L 95.436285 85.975124 
" style="fill:none;stroke:#999999;"/>
    <path clip-path="url(#pb454c96205)" d="M 91.84136 89.259687 
L 93.629242 91.296399 
L 94.630044 93.031515 
L 94.801757 94.051285 
" style="fill:none;stroke:#999999;"/>
    <path clip-path="url(#pb454c96205)" d="M 87.773303 85.869565 
L 87.960492 86.681046 
L 89.624564 90.654566 
" style="fill:none;stroke:#999999;"/>
    <path clip-path="url(#pb454c96205)" d="M 87.773303 85.869565 
L 87.583165 85.04489 
L 86.185876 79.487994 
" style="fill:none;stroke:#999999;"/>
    <path clip-path="url(#pb454c96205)" d="M 87.773303 85.869565 
L 87.029703 90.795939 
L 86.993592 91.037215 
" style="fill:none;stroke:#999999;"/>
    <path clip-path="url(#pb454c96205)" d="M 96.171779 85.394552 
L 97.692141 84.231525 
L 97.870487 83.809291 
L 99.754912 82.9177 
" style="fill:none;stroke:#999999;"/>
    <path clip-path="url(#pb454c96205)" d="M 96.171779 85.394552 
L 95.801084 85.678241 
L 95.436285 85.975124 
" style="fill:none;stroke:#999999;"/>
    <path clip-path="url(#pb454c96205)" d="M 96.171779 85.394552 
L 94.785544 83.533143 
L 93.82896 82.04213 
L 96.499729 78.423927 
L 96.006698 78.065782 
" style="fill:none;stroke:#999999;"/>
    <path clip-path="url(#pb454c96205)" d="M 86.185876 79.487994 
L 89.437374 74.776507 
" style="fill:none;stroke:#999999;"/>
    <path clip-path="url(#pb454c96205)" d="M 86.185876 79.487994 
L 85.952994 79.825403 
" style="fill:none;stroke:#999999;"/>
    <path clip-path="url(#pb454c96205)" d="M 86.185876 79.487994 
L 87.583165 85.04489 
L 87.773303 85.869565 
" style="fill:none;stroke:#999999;"/>
    <path clip-path="url(#pb454c96205)" d="M 103.860555 79.053508 
L 105.755297 78.562472 
" style="fill:none;stroke:#999999;"/>
    <path clip-path="url(#pb454c96205)" d="M 103.860555 79.053508 
L 101.407192 81.740535 
L 99.939154 82.830048 
L 99.754912 82.9177 
" style="fill:none;stroke:#999999;"/>
    <path clip-path="url(#pb454c96205)" d="M 103.860555 79.053508 
L 104.189242 80.014843 
L 104.648373 83.973284 
L 104.695539 84.234352 
" style="fill:none;stroke:#999999;"/>
    <path clip-path="url(#pb454c96205)" d="M 103.860555 79.053508 
L 103.786858 78.990361 
L 102.122787 76.768922 
" style="fill:none;stroke:#999999;"/>
    <path clip-path="url(#pb454c96205)" d="M 90.116858 73.791609 
L 89.437374 74.776507 
" style="fill:none;stroke:#999999;"/>
    <path clip-path="url(#pb454c96205)" d="M 90.116858 73.791609 
L 92.901856 75.813241 
" style="fill:none;stroke:#999999;"/>
    <path clip-path="url(#pb454c96205)" d="M 90.116858 73.791609 
L 90.282675 73.552218 
L 92.56801 70.681406 
" style="fill:none;stroke:#999999;"/>
    <path clip-path="url(#pb454c96205)" d="M 86.75334 263.891947 
L 86.864622 261.85712 
L 86.790926 257.344498 
L 87.031177 255.846888 
L 87.789516 251.463386 
L 89.194912 246.41449 
L 90.822135 241.4212 
L 91.08081 239.626706 
L 91.376334 234.466596 
L 91.50604 230.268765 
L 91.154507 226.643964 
L 89.767535 220.540426 
L 88.695248 215.158831 
L 87.586113 212.218276 
L 85.921305 207.317349 
L 85.625781 205.06198 
L 85.939729 203.027154 
L 86.864622 200.863206 
L 89.23176 197.312862 
L 91.247365 193.910488 
L 92.189946 191.506207 
L 93.022719 187.862556 
L 93.133264 185.365911 
L 92.634337 180.595048 
L 91.820725 175.065483 
L 92.189946 169.277678 
L 92.818579 162.602051 
L 93.743472 154.039567 
" style="fill:none;stroke:#999999;"/>
    <path clip-path="url(#pb454c96205)" d="M 93.743472 154.039567 
L 92.818579 162.602051 
L 92.189946 169.277678 
L 91.820725 175.065483 
L 92.634337 180.595048 
L 93.133264 185.365911 
L 93.022719 187.862556 
L 92.189946 191.506207 
L 91.247365 193.910488 
L 89.23176 197.312862 
L 86.864622 200.863206 
L 85.939729 203.027154 
L 85.625781 205.06198 
L 85.921305 207.317349 
L 87.586113 212.218276 
L 88.695248 215.158831 
L 89.767535 220.540426 
L 91.154507 226.643964 
L 91.50604 230.268765 
L 91.376334 234.466596 
L 91.08081 239.626706 
L 90.822135 241.4212 
L 89.194912 246.41449 
L 87.789516 251.463386 
L 87.031177 255.846888 
L 86.790926 257.344498 
L 86.864622 261.85712 
L 86.75334 263.891947 
" style="fill:none;stroke:#999999;"/>
    <path clip-path="url(#pb454c96205)" d="M 93.743472 154.039567 
L 95.555674 144.68351 
L 96.924222 137.137968 
L 98.477011 132.941078 
L 99.605308 129.871402 
" style="fill:none;stroke:#999999;"/>
    <path clip-path="url(#pb454c96205)" d="M 93.743472 154.039567 
L 89.903874 157.180872 
L 85.476176 160.414541 
L 80.652728 167.697129 
L 76.462333 170.77246 
L 72.508505 178.679917 
L 68.396966 188.888923 
L 64.206572 193.790792 
L 61.992723 193.94913 
L 51.950811 200.195926 
L 45.467712 211.188139 
" style="fill:none;stroke:#999999;"/>
    <path clip-path="url(#pb454c96205)" d="M 99.605308 129.871402 
L 98.477011 132.941078 
L 96.924222 137.137968 
L 95.555674 144.68351 
L 93.743472 154.039567 
" style="fill:none;stroke:#999999;"/>
    <path clip-path="url(#pb454c96205)" d="M 99.605308 129.871402 
L 100.326798 122.899834 
L 100.622322 118.702945 
L 100.659171 116.594604 
L 99.78218 111.567384 
" style="fill:none;stroke:#999999;"/>
    <path clip-path="url(#pb454c96205)" d="M 99.605308 129.871402 
L 99.233876 133.380277 
L 102.159635 137.563029 
L 103.503126 143.343295 
L 106.824636 149.590091 
L 111.79769 155.919826 
L 118.131184 165.238183 
L 128.725822 185.796627 
L 132.67965 201.540853 
L 129.991194 207.550143 
L 125.247337 219.957027 
L 125.088889 226.053968 
L 123.981965 230.396 
L 123.665806 235.227183 
L 124.456572 248.110022 
L 122.558882 261.711977 
L 122.084275 266.456451 
L 123.507358 273.100034 
L 123.349647 278.161183 
L 124.456572 282.115854 
L 124.456572 297.141905 
L 123.033489 311.622258 
L 124.931179 325.700169 
L 128.093504 335.579306 
L 127.145027 339.217301 
L 129.516587 350.693951 
L 131.730436 356.3008 
L 131.572725 363.73607 
L 129.358876 369.588908 
L 129.675035 373.946962 
L 126.038103 382.964667 
L 123.981965 398.22257 
L 117.02426 412.301424 
L 113.861197 416.185408 
L 112.438114 423.692308 
L 108.642734 413.093112 
L 105.796567 406.219563 
L 102.317346 400.911482 
L 96.150406 394.828679 
L 96.466565 390.312286 
L 94.726586 383.755412 
L 91.88042 379.397358 
L 86.820404 360.501459 
L 85.555032 344.595125 
L 79.071196 332.889451 
L 77.331954 325.542774 
L 75.118105 320.797358 
L 74.643499 318.265841 
L 72.42965 312.729679 
L 69.108876 301.024947 
L 68.950429 297.386952 
L 67.685793 294.223027 
L 65.629655 288.212794 
L 67.211186 281.570154 
L 66.895028 278.247892 
L 60.727351 263.380177 
L 59.937322 258.003296 
L 60.56964 248.038393 
L 45.467712 211.188139 
" style="fill:none;stroke:#999999;"/>
    <path clip-path="url(#pb454c96205)" d="M 99.78218 111.567384 
L 102.09036 108.451526 
L 102.211223 107.984996 
L 102.311451 107.53543 
L 102.524434 107.077382 
" style="fill:none;stroke:#999999;"/>
    <path clip-path="url(#pb454c96205)" d="M 99.78218 111.567384 
L 99.623732 110.173448 
L 99.496974 108.495823 
L 99.449808 107.782361 
" style="fill:none;stroke:#999999;"/>
    <path clip-path="url(#pb454c96205)" d="M 99.78218 111.567384 
L 100.659171 116.594604 
L 100.622322 118.702945 
L 100.326798 122.899834 
L 99.605308 129.871402 
" style="fill:none;stroke:#999999;"/>
    <path clip-path="url(#pb454c96205)" d="M 99.78218 111.567384 
L 104.884939 109.729537 
L 113.373325 106.584462 
" style="fill:none;stroke:#999999;"/>
    <path clip-path="url(#pb454c96205)" d="M 99.449808 107.782361 
L 99.180078 105.660826 
L 99.011312 104.541152 
" style="fill:none;stroke:#999999;"/>
    <path clip-path="url(#pb454c96205)" d="M 99.449808 107.782361 
L 99.496974 108.495823 
L 99.623732 110.173448 
L 99.78218 111.567384 
" style="fill:none;stroke:#999999;"/>
    <path clip-path="url(#pb454c96205)" d="M 99.449808 107.782361 
L 100.895737 105.641976 
L 101.702716 104.819186 
L 102.47432 103.253717 
" style="fill:none;stroke:#999999;"/>
    <path clip-path="url(#pb454c96205)" d="M 102.524434 107.077382 
L 102.311451 107.53543 
L 102.211223 107.984996 
L 102.09036 108.451526 
L 99.78218 111.567384 
" style="fill:none;stroke:#999999;"/>
    <path clip-path="url(#pb454c96205)" d="M 102.524434 107.077382 
L 102.596657 104.920032 
L 102.47432 103.253717 
" style="fill:none;stroke:#999999;"/>
    <path clip-path="url(#pb454c96205)" d="M 102.524434 107.077382 
L 105.183411 105.421434 
L 108.8454 103.215075 
L 111.219171 101.815483 
" style="fill:none;stroke:#999999;"/>
    <path clip-path="url(#pb454c96205)" d="M 113.373325 106.584462 
L 111.219171 101.815483 
" style="fill:none;stroke:#999999;"/>
    <path clip-path="url(#pb454c96205)" d="M 113.373325 106.584462 
L 122.37464 103.05014 
" style="fill:none;stroke:#999999;"/>
    <path clip-path="url(#pb454c96205)" d="M 113.373325 106.584462 
L 104.884939 109.729537 
L 99.78218 111.567384 
" style="fill:none;stroke:#999999;"/>
    <path clip-path="url(#pb454c96205)" d="M 99.011312 104.541152 
L 98.821912 103.291416 
" style="fill:none;stroke:#999999;"/>
    <path clip-path="url(#pb454c96205)" d="M 99.011312 104.541152 
L 102.47432 103.253717 
" style="fill:none;stroke:#999999;"/>
    <path clip-path="url(#pb454c96205)" d="M 99.011312 104.541152 
L 99.180078 105.660826 
L 99.449808 107.782361 
" style="fill:none;stroke:#999999;"/>
    <path clip-path="url(#pb454c96205)" d="M 93.965299 104.412974 
L 98.821912 103.291416 
" style="fill:none;stroke:#999999;"/>
    <path clip-path="url(#pb454c96205)" d="M 129.246857 104.185835 
L 127.926212 101.002118 
" style="fill:none;stroke:#999999;"/>
    <path clip-path="url(#pb454c96205)" d="M 98.821912 103.291416 
L 99.011312 104.541152 
" style="fill:none;stroke:#999999;"/>
    <path clip-path="url(#pb454c96205)" d="M 98.821912 103.291416 
L 93.965299 104.412974 
" style="fill:none;stroke:#999999;"/>
    <path clip-path="url(#pb454c96205)" d="M 98.821912 103.291416 
L 98.325196 100.752359 
L 97.86975 98.479083 
" style="fill:none;stroke:#999999;"/>
    <path clip-path="url(#pb454c96205)" d="M 102.47432 103.253717 
L 107.803329 99.927684 
" style="fill:none;stroke:#999999;"/>
    <path clip-path="url(#pb454c96205)" d="M 102.47432 103.253717 
L 99.011312 104.541152 
" style="fill:none;stroke:#999999;"/>
    <path clip-path="url(#pb454c96205)" d="M 102.47432 103.253717 
L 102.596657 104.920032 
L 102.524434 107.077382 
" style="fill:none;stroke:#999999;"/>
    <path clip-path="url(#pb454c96205)" d="M 102.47432 103.253717 
L 103.436062 101.86355 
L 102.640138 93.23038 
" style="fill:none;stroke:#999999;"/>
    <path clip-path="url(#pb454c96205)" d="M 102.47432 103.253717 
L 101.702716 104.819186 
L 100.895737 105.641976 
L 99.449808 107.782361 
" style="fill:none;stroke:#999999;"/>
    <path clip-path="url(#pb454c96205)" d="M 122.37464 103.05014 
L 119.977286 97.271759 
" style="fill:none;stroke:#999999;"/>
    <path clip-path="url(#pb454c96205)" d="M 122.37464 103.05014 
L 127.926212 101.002118 
" style="fill:none;stroke:#999999;"/>
    <path clip-path="url(#pb454c96205)" d="M 122.37464 103.05014 
L 113.373325 106.584462 
" style="fill:none;stroke:#999999;"/>
    <path clip-path="url(#pb454c96205)" d="M 111.219171 101.815483 
L 113.373325 106.584462 
" style="fill:none;stroke:#999999;"/>
    <path clip-path="url(#pb454c96205)" d="M 111.219171 101.815483 
L 109.849149 98.742979 
" style="fill:none;stroke:#999999;"/>
    <path clip-path="url(#pb454c96205)" d="M 111.219171 101.815483 
L 115.16047 99.263232 
L 118.139291 97.706245 
L 119.583009 97.212382 
L 119.753248 97.237829 
" style="fill:none;stroke:#999999;"/>
    <path clip-path="url(#pb454c96205)" d="M 111.219171 101.815483 
L 108.8454 103.215075 
L 105.183411 105.421434 
L 102.524434 107.077382 
" style="fill:none;stroke:#999999;"/>
    <path clip-path="url(#pb454c96205)" d="M 127.926212 101.002118 
L 129.246857 104.185835 
" style="fill:none;stroke:#999999;"/>
    <path clip-path="url(#pb454c96205)" d="M 127.926212 101.002118 
L 127.780293 99.688293 
" style="fill:none;stroke:#999999;"/>
    <path clip-path="url(#pb454c96205)" d="M 127.926212 101.002118 
L 122.37464 103.05014 
" style="fill:none;stroke:#999999;"/>
    <path clip-path="url(#pb454c96205)" d="M 107.803329 99.927684 
L 102.47432 103.253717 
" style="fill:none;stroke:#999999;"/>
    <path clip-path="url(#pb454c96205)" d="M 107.803329 99.927684 
L 108.469547 98.307551 
L 109.151241 96.337756 
L 109.471085 95.141741 
" style="fill:none;stroke:#999999;"/>
    <path clip-path="url(#pb454c96205)" d="M 107.803329 99.927684 
L 108.557246 99.475291 
L 109.849149 98.742979 
" style="fill:none;stroke:#999999;"/>
    <path clip-path="url(#pb454c96205)" d="M 107.803329 99.927684 
L 107.577817 99.608181 
L 107.082575 99.700545 
L 106.552696 98.847595 
" style="fill:none;stroke:#999999;"/>
    <path clip-path="url(#pb454c96205)" d="M 127.780293 99.688293 
L 127.926212 101.002118 
" style="fill:none;stroke:#999999;"/>
    <path clip-path="url(#pb454c96205)" d="M 127.780293 99.688293 
L 128.879848 97.482876 
" style="fill:none;stroke:#999999;"/>
    <path clip-path="url(#pb454c96205)" d="M 127.780293 99.688293 
L 125.02551 98.389547 
L 123.216993 97.868353 
L 121.841813 97.608226 
L 119.977286 97.271759 
" style="fill:none;stroke:#999999;"/>
    <path clip-path="url(#pb454c96205)" d="M 132.885263 99.401777 
L 128.879848 97.482876 
" style="fill:none;stroke:#999999;"/>
    <path clip-path="url(#pb454c96205)" d="M 106.552696 98.847595 
L 107.082575 99.700545 
L 107.577817 99.608181 
L 107.803329 99.927684 
" style="fill:none;stroke:#999999;"/>
    <path clip-path="url(#pb454c96205)" d="M 109.849149 98.742979 
L 111.834538 97.517748 
" style="fill:none;stroke:#999999;"/>
    <path clip-path="url(#pb454c96205)" d="M 109.849149 98.742979 
L 111.219171 101.815483 
" style="fill:none;stroke:#999999;"/>
    <path clip-path="url(#pb454c96205)" d="M 109.849149 98.742979 
L 108.557246 99.475291 
L 107.803329 99.927684 
" style="fill:none;stroke:#999999;"/>
    <path clip-path="url(#pb454c96205)" d="M 111.834538 97.517748 
L 109.849149 98.742979 
" style="fill:none;stroke:#999999;"/>
    <path clip-path="url(#pb454c96205)" d="M 111.834538 97.517748 
L 111.587654 96.828791 
L 110.94723 94.751552 
L 110.746775 94.295389 
" style="fill:none;stroke:#999999;"/>
    <path clip-path="url(#pb454c96205)" d="M 111.834538 97.517748 
L 113.915733 96.257644 
L 116.214333 95.356628 
L 116.972672 94.859938 
" style="fill:none;stroke:#999999;"/>
    <path clip-path="url(#pb454c96205)" d="M 128.879848 97.482876 
L 132.885263 99.401777 
" style="fill:none;stroke:#999999;"/>
    <path clip-path="url(#pb454c96205)" d="M 128.879848 97.482876 
L 127.780293 99.688293 
" style="fill:none;stroke:#999999;"/>
    <path clip-path="url(#pb454c96205)" d="M 128.879848 97.482876 
L 128.408189 97.284954 
L 127.91221 97.04839 
" style="fill:none;stroke:#999999;"/>
    <path clip-path="url(#pb454c96205)" d="M 119.977286 97.271759 
L 122.37464 103.05014 
" style="fill:none;stroke:#999999;"/>
    <path clip-path="url(#pb454c96205)" d="M 119.977286 97.271759 
L 119.753248 97.237829 
" style="fill:none;stroke:#999999;"/>
    <path clip-path="url(#pb454c96205)" d="M 119.977286 97.271759 
L 121.841813 97.608226 
L 123.216993 97.868353 
L 125.02551 98.389547 
L 127.780293 99.688293 
" style="fill:none;stroke:#999999;"/>
    <path clip-path="url(#pb454c96205)" d="M 119.753248 97.237829 
L 119.977286 97.271759 
" style="fill:none;stroke:#999999;"/>
    <path clip-path="url(#pb454c96205)" d="M 119.753248 97.237829 
L 119.409085 94.917429 
" style="fill:none;stroke:#999999;"/>
    <path clip-path="url(#pb454c96205)" d="M 119.753248 97.237829 
L 119.583009 97.212382 
L 118.139291 97.706245 
L 115.16047 99.263232 
L 111.219171 101.815483 
" style="fill:none;stroke:#999999;"/>
    <path clip-path="url(#pb454c96205)" d="M 109.471085 95.141741 
L 107.573395 94.492368 
" style="fill:none;stroke:#999999;"/>
    <path clip-path="url(#pb454c96205)" d="M 109.471085 95.141741 
L 109.521199 94.994713 
L 109.979592 94.680865 
L 110.746775 94.295389 
" style="fill:none;stroke:#999999;"/>
    <path clip-path="url(#pb454c96205)" d="M 109.471085 95.141741 
L 109.151241 96.337756 
L 108.469547 98.307551 
L 107.803329 99.927684 
" style="fill:none;stroke:#999999;"/>
    <path clip-path="url(#pb454c96205)" d="M 119.409085 94.917429 
L 116.972672 94.859938 
" style="fill:none;stroke:#999999;"/>
    <path clip-path="url(#pb454c96205)" d="M 119.409085 94.917429 
L 119.753248 97.237829 
" style="fill:none;stroke:#999999;"/>
    <path clip-path="url(#pb454c96205)" d="M 119.409085 94.917429 
L 121.365732 95.058802 
L 125.54065 95.917407 
L 127.91221 97.04839 
" style="fill:none;stroke:#999999;"/>
    <path clip-path="url(#pb454c96205)" d="M 107.573395 94.492368 
L 109.471085 95.141741 
" style="fill:none;stroke:#999999;"/>
    <path clip-path="url(#pb454c96205)" d="M 110.746775 94.295389 
L 109.979592 94.680865 
L 109.521199 94.994713 
L 109.471085 95.141741 
" style="fill:none;stroke:#999999;"/>
    <path clip-path="url(#pb454c96205)" d="M 110.746775 94.295389 
L 110.94723 94.751552 
L 111.587654 96.828791 
L 111.834538 97.517748 
" style="fill:none;stroke:#999999;"/>
    <path clip-path="url(#pb454c96205)" d="M 110.746775 94.295389 
L 110.654654 93.834513 
L 110.723929 93.009838 
" style="fill:none;stroke:#999999;"/>
    <path clip-path="url(#pb454c96205)" d="M 102.33356 93.299181 
L 102.640138 93.23038 
" style="fill:none;stroke:#999999;"/>
    <path clip-path="url(#pb454c96205)" d="M 102.33356 93.299181 
L 96.634594 94.327433 
" style="fill:none;stroke:#999999;"/>
    <path clip-path="url(#pb454c96205)" d="M 102.33356 93.299181 
L 101.896538 90.564087 
" style="fill:none;stroke:#999999;"/>
    <path clip-path="url(#pb454c96205)" d="M 104.688169 92.770447 
L 102.640138 93.23038 
" style="fill:none;stroke:#999999;"/>
    <path clip-path="url(#pb454c96205)" d="M 104.688169 92.770447 
L 106.198951 92.624361 
L 107.602874 92.624361 
L 108.227085 92.554617 
" style="fill:none;stroke:#999999;"/>
    <path clip-path="url(#pb454c96205)" d="M 104.688169 92.770447 
L 104.623316 90.816673 
L 104.736072 90.142796 
" style="fill:none;stroke:#999999;"/>
    <path clip-path="url(#pb454c96205)" d="M 101.896538 90.564087 
L 102.33356 93.299181 
" style="fill:none;stroke:#999999;"/>
    <path clip-path="url(#pb454c96205)" d="M 101.896538 90.564087 
L 104.736072 90.142796 
" style="fill:none;stroke:#999999;"/>
    <path clip-path="url(#pb454c96205)" d="M 101.896538 90.564087 
L 101.868533 90.388785 
L 101.425616 89.710195 
" style="fill:none;stroke:#999999;"/>
    <path clip-path="url(#pb454c96205)" d="M 104.736072 90.142796 
L 101.896538 90.564087 
" style="fill:none;stroke:#999999;"/>
    <path clip-path="url(#pb454c96205)" d="M 104.736072 90.142796 
L 104.623316 90.816673 
L 104.688169 92.770447 
" style="fill:none;stroke:#999999;"/>
    <path clip-path="url(#pb454c96205)" d="M 104.736072 90.142796 
L 104.940212 90.111694 
L 105.613063 89.629141 
" style="fill:none;stroke:#999999;"/>
    <path clip-path="url(#pb454c96205)" d="M 101.425616 89.710195 
L 101.868533 90.388785 
L 101.896538 90.564087 
" style="fill:none;stroke:#999999;"/>
    <path clip-path="url(#pb454c96205)" d="M 101.425616 89.710195 
L 100.949536 88.979768 
L 100.723287 88.863843 
" style="fill:none;stroke:#999999;"/>
    <path clip-path="url(#pb454c96205)" d="M 101.425616 89.710195 
L 102.311451 89.510388 
L 103.388159 89.35959 
L 105.613063 89.629141 
" style="fill:none;stroke:#999999;"/>
    <path clip-path="url(#pb454c96205)" d="M 105.613063 89.629141 
L 107.339776 88.674403 
L 110.230161 87.014686 
L 111.484479 86.138174 
L 111.304659 85.870508 
" style="fill:none;stroke:#999999;"/>
    <path clip-path="url(#pb454c96205)" d="M 105.613063 89.629141 
L 105.39271 88.929817 
L 105.297641 87.377543 
L 105.043387 86.149483 
" style="fill:none;stroke:#999999;"/>
    <path clip-path="url(#pb454c96205)" d="M 105.613063 89.629141 
L 103.388159 89.35959 
L 102.311451 89.510388 
L 101.425616 89.710195 
" style="fill:none;stroke:#999999;"/>
    <path clip-path="url(#pb454c96205)" d="M 105.613063 89.629141 
L 104.940212 90.111694 
L 104.736072 90.142796 
" style="fill:none;stroke:#999999;"/>
    <path clip-path="url(#pb454c96205)" d="M 96.823257 88.869498 
L 95.436285 85.975124 
" style="fill:none;stroke:#999999;"/>
    <path clip-path="url(#pb454c96205)" d="M 96.823257 88.869498 
L 96.947805 89.129624 
L 96.994971 89.620659 
L 96.725978 90.53864 
L 96.634594 94.327433 
" style="fill:none;stroke:#999999;"/>
    <path clip-path="url(#pb454c96205)" d="M 96.823257 88.869498 
L 99.255248 88.877038 
L 100.163192 88.823316 
" style="fill:none;stroke:#999999;"/>
    <path clip-path="url(#pb454c96205)" d="M 100.723287 88.863843 
L 100.895737 88.629164 
L 102.366723 87.603739 
L 103.3491 86.796029 
L 105.043387 86.149483 
" style="fill:none;stroke:#999999;"/>
    <path clip-path="url(#pb454c96205)" d="M 100.723287 88.863843 
L 100.949536 88.979768 
L 101.425616 89.710195 
" style="fill:none;stroke:#999999;"/>
    <path clip-path="url(#pb454c96205)" d="M 100.723287 88.863843 
L 100.59358 88.797869 
L 100.163192 88.823316 
" style="fill:none;stroke:#999999;"/>
    <path clip-path="url(#pb454c96205)" d="M 100.163192 88.823316 
L 99.97158 87.151346 
L 100.229519 86.423747 
L 100.374701 84.934619 
L 99.754912 82.9177 
" style="fill:none;stroke:#999999;"/>
    <path clip-path="url(#pb454c96205)" d="M 100.163192 88.823316 
L 100.59358 88.797869 
L 100.723287 88.863843 
" style="fill:none;stroke:#999999;"/>
    <path clip-path="url(#pb454c96205)" d="M 100.163192 88.823316 
L 99.255248 88.877038 
L 96.823257 88.869498 
" style="fill:none;stroke:#999999;"/>
    <path clip-path="url(#pb454c96205)" d="M 105.043387 86.149483 
L 104.695539 84.234352 
" style="fill:none;stroke:#999999;"/>
    <path clip-path="url(#pb454c96205)" d="M 105.043387 86.149483 
L 103.3491 86.796029 
L 102.366723 87.603739 
L 100.895737 88.629164 
L 100.723287 88.863843 
" style="fill:none;stroke:#999999;"/>
    <path clip-path="url(#pb454c96205)" d="M 105.043387 86.149483 
L 105.297641 87.377543 
L 105.39271 88.929817 
L 105.613063 89.629141 
" style="fill:none;stroke:#999999;"/>
    <path clip-path="url(#pb454c96205)" d="M 95.436285 85.975124 
L 96.823257 88.869498 
" style="fill:none;stroke:#999999;"/>
    <path clip-path="url(#pb454c96205)" d="M 95.436285 85.975124 
L 95.801084 85.678241 
L 96.171779 85.394552 
" style="fill:none;stroke:#999999;"/>
    <path clip-path="url(#pb454c96205)" d="M 95.436285 85.975124 
L 93.398572 87.635784 
L 91.84136 89.259687 
" style="fill:none;stroke:#999999;"/>
    <path clip-path="url(#pb454c96205)" d="M 99.754912 82.9177 
L 99.939154 82.830048 
L 101.407192 81.740535 
L 103.860555 79.053508 
" style="fill:none;stroke:#999999;"/>
    <path clip-path="url(#pb454c96205)" d="M 99.754912 82.9177 
L 97.870487 83.809291 
L 97.692141 84.231525 
L 96.171779 85.394552 
" style="fill:none;stroke:#999999;"/>
    <path clip-path="url(#pb454c96205)" d="M 99.754912 82.9177 
L 100.374701 84.934619 
L 100.229519 86.423747 
L 99.97158 87.151346 
L 100.163192 88.823316 
" style="fill:none;stroke:#999999;"/>
    <path clip-path="url(#pb454c96205)" d="M 127.91221 97.04839 
L 128.408189 97.284954 
L 128.879848 97.482876 
" style="fill:none;stroke:#999999;"/>
    <path clip-path="url(#pb454c96205)" d="M 127.91221 97.04839 
L 125.54065 95.917407 
L 121.365732 95.058802 
L 119.409085 94.917429 
" style="fill:none;stroke:#999999;"/>
    <path clip-path="url(#pb454c96205)" d="M 127.91221 97.04839 
L 125.366726 94.72045 
L 120.728256 90.890187 
" style="fill:none;stroke:#999999;"/>
    <path clip-path="url(#pb454c96205)" d="M 115.85543 94.511218 
L 116.972672 94.859938 
" style="fill:none;stroke:#999999;"/>
    <path clip-path="url(#pb454c96205)" d="M 115.85543 94.511218 
L 117.814288 91.990068 
" style="fill:none;stroke:#999999;"/>
    <path clip-path="url(#pb454c96205)" d="M 115.85543 94.511218 
L 114.667439 94.388695 
L 114.08892 94.2313 
L 113.337214 93.962691 
" style="fill:none;stroke:#999999;"/>
    <path clip-path="url(#pb454c96205)" d="M 113.337214 93.962691 
L 110.723929 93.009838 
" style="fill:none;stroke:#999999;"/>
    <path clip-path="url(#pb454c96205)" d="M 113.337214 93.962691 
L 114.08892 94.2313 
L 114.667439 94.388695 
L 115.85543 94.511218 
" style="fill:none;stroke:#999999;"/>
    <path clip-path="url(#pb454c96205)" d="M 113.337214 93.962691 
L 113.585572 93.22284 
L 113.16329 91.20592 
" style="fill:none;stroke:#999999;"/>
    <path clip-path="url(#pb454c96205)" d="M 117.814288 91.990068 
L 119.541002 89.812926 
" style="fill:none;stroke:#999999;"/>
    <path clip-path="url(#pb454c96205)" d="M 117.814288 91.990068 
L 115.85543 94.511218 
" style="fill:none;stroke:#999999;"/>
    <path clip-path="url(#pb454c96205)" d="M 117.814288 91.990068 
L 111.816851 85.554775 
" style="fill:none;stroke:#999999;"/>
    <path clip-path="url(#pb454c96205)" d="M 113.16329 91.20592 
L 113.585572 93.22284 
L 113.337214 93.962691 
" style="fill:none;stroke:#999999;"/>
    <path clip-path="url(#pb454c96205)" d="M 120.728256 90.890187 
L 124.186105 88.928874 
" style="fill:none;stroke:#999999;"/>
    <path clip-path="url(#pb454c96205)" d="M 120.728256 90.890187 
L 125.366726 94.72045 
L 127.91221 97.04839 
" style="fill:none;stroke:#999999;"/>
    <path clip-path="url(#pb454c96205)" d="M 120.728256 90.890187 
L 119.781253 90.107924 
L 119.541002 89.812926 
" style="fill:none;stroke:#999999;"/>
    <path clip-path="url(#pb454c96205)" d="M 119.541002 89.812926 
L 117.814288 91.990068 
" style="fill:none;stroke:#999999;"/>
    <path clip-path="url(#pb454c96205)" d="M 119.541002 89.812926 
L 118.498931 88.534915 
" style="fill:none;stroke:#999999;"/>
    <path clip-path="url(#pb454c96205)" d="M 119.541002 89.812926 
L 119.781253 90.107924 
L 120.728256 90.890187 
" style="fill:none;stroke:#999999;"/>
    <path clip-path="url(#pb454c96205)" d="M 124.186105 88.928874 
L 127.982959 86.634864 
" style="fill:none;stroke:#999999;"/>
    <path clip-path="url(#pb454c96205)" d="M 124.186105 88.928874 
L 120.728256 90.890187 
" style="fill:none;stroke:#999999;"/>
    <path clip-path="url(#pb454c96205)" d="M 124.186105 88.928874 
L 123.021697 86.309706 
" style="fill:none;stroke:#999999;"/>
    <path clip-path="url(#pb454c96205)" d="M 118.498931 88.534915 
L 119.541002 89.812926 
" style="fill:none;stroke:#999999;"/>
    <path clip-path="url(#pb454c96205)" d="M 118.498931 88.534915 
L 120.974403 87.317223 
" style="fill:none;stroke:#999999;"/>
    <path clip-path="url(#pb454c96205)" d="M 118.498931 88.534915 
L 116.389731 85.947792 
L 116.081679 85.621691 
" style="fill:none;stroke:#999999;"/>
    <path clip-path="url(#pb454c96205)" d="M 120.974403 87.317223 
L 119.984656 85.35968 
" style="fill:none;stroke:#999999;"/>
    <path clip-path="url(#pb454c96205)" d="M 120.974403 87.317223 
L 123.021697 86.309706 
" style="fill:none;stroke:#999999;"/>
    <path clip-path="url(#pb454c96205)" d="M 120.974403 87.317223 
L 118.498931 88.534915 
" style="fill:none;stroke:#999999;"/>
    <path clip-path="url(#pb454c96205)" d="M 127.982959 86.634864 
L 124.186105 88.928874 
" style="fill:none;stroke:#999999;"/>
    <path clip-path="url(#pb454c96205)" d="M 123.021697 86.309706 
L 124.186105 88.928874 
" style="fill:none;stroke:#999999;"/>
    <path clip-path="url(#pb454c96205)" d="M 123.021697 86.309706 
L 121.357626 82.271154 
" style="fill:none;stroke:#999999;"/>
    <path clip-path="url(#pb454c96205)" d="M 123.021697 86.309706 
L 120.974403 87.317223 
" style="fill:none;stroke:#999999;"/>
    <path clip-path="url(#pb454c96205)" d="M 111.304659 85.870508 
L 111.816851 85.554775 
" style="fill:none;stroke:#999999;"/>
    <path clip-path="url(#pb454c96205)" d="M 111.304659 85.870508 
L 110.476308 84.638679 
L 109.66417 83.682056 
" style="fill:none;stroke:#999999;"/>
    <path clip-path="url(#pb454c96205)" d="M 111.304659 85.870508 
L 111.484479 86.138174 
L 110.230161 87.014686 
L 107.339776 88.674403 
L 105.613063 89.629141 
" style="fill:none;stroke:#999999;"/>
    <path clip-path="url(#pb454c96205)" d="M 116.081679 85.621691 
L 114.183989 83.609484 
" style="fill:none;stroke:#999999;"/>
    <path clip-path="url(#pb454c96205)" d="M 116.081679 85.621691 
L 119.193154 82.35315 
" style="fill:none;stroke:#999999;"/>
    <path clip-path="url(#pb454c96205)" d="M 116.081679 85.621691 
L 116.389731 85.947792 
L 118.498931 88.534915 
" style="fill:none;stroke:#999999;"/>
    <path clip-path="url(#pb454c96205)" d="M 111.816851 85.554775 
L 117.814288 91.990068 
" style="fill:none;stroke:#999999;"/>
    <path clip-path="url(#pb454c96205)" d="M 111.816851 85.554775 
L 111.304659 85.870508 
" style="fill:none;stroke:#999999;"/>
    <path clip-path="url(#pb454c96205)" d="M 111.816851 85.554775 
L 112.794069 84.952526 
L 114.183989 83.609484 
" style="fill:none;stroke:#999999;"/>
    <path clip-path="url(#pb454c96205)" d="M 119.984656 85.35968 
L 120.974403 87.317223 
" style="fill:none;stroke:#999999;"/>
    <path clip-path="url(#pb454c96205)" d="M 104.695539 84.234352 
L 105.043387 86.149483 
" style="fill:none;stroke:#999999;"/>
    <path clip-path="url(#pb454c96205)" d="M 104.695539 84.234352 
L 104.648373 83.973284 
L 104.189242 80.014843 
L 103.860555 79.053508 
" style="fill:none;stroke:#999999;"/>
    <path clip-path="url(#pb454c96205)" d="M 104.695539 84.234352 
L 106.869591 83.347473 
L 108.401009 82.195755 
" style="fill:none;stroke:#999999;"/>
    <path clip-path="url(#pb454c96205)" d="M 109.66417 83.682056 
L 108.401009 82.195755 
" style="fill:none;stroke:#999999;"/>
    <path clip-path="url(#pb454c96205)" d="M 109.66417 83.682056 
L 110.476308 84.638679 
L 111.304659 85.870508 
" style="fill:none;stroke:#999999;"/>
    <path clip-path="url(#pb454c96205)" d="M 109.66417 83.682056 
L 110.759303 82.668883 
L 111.007661 82.172193 
L 111.663562 81.493603 
" style="fill:none;stroke:#999999;"/>
    <path clip-path="url(#pb454c96205)" d="M 114.183989 83.609484 
L 116.081679 85.621691 
" style="fill:none;stroke:#999999;"/>
    <path clip-path="url(#pb454c96205)" d="M 114.183989 83.609484 
L 113.020318 82.374828 
L 111.663562 81.493603 
" style="fill:none;stroke:#999999;"/>
    <path clip-path="url(#pb454c96205)" d="M 114.183989 83.609484 
L 112.794069 84.952526 
L 111.816851 85.554775 
" style="fill:none;stroke:#999999;"/>
    <path clip-path="url(#pb454c96205)" d="M 119.193154 82.35315 
L 116.081679 85.621691 
" style="fill:none;stroke:#999999;"/>
    <path clip-path="url(#pb454c96205)" d="M 108.401009 82.195755 
L 109.66417 83.682056 
" style="fill:none;stroke:#999999;"/>
    <path clip-path="url(#pb454c96205)" d="M 108.401009 82.195755 
L 108.243298 82.010086 
L 106.902755 80.443674 
L 106.64408 80.094012 
L 106.117148 79.354161 
L 105.755297 78.562472 
" style="fill:none;stroke:#999999;"/>
    <path clip-path="url(#pb454c96205)" d="M 108.401009 82.195755 
L 106.869591 83.347473 
L 104.695539 84.234352 
" style="fill:none;stroke:#999999;"/>
    <path clip-path="url(#pb454c96205)" d="M 121.357626 82.271154 
L 123.021697 86.309706 
" style="fill:none;stroke:#999999;"/>
    <path clip-path="url(#pb454c96205)" d="M 111.663562 81.493603 
L 111.007661 82.172193 
L 110.759303 82.668883 
L 109.66417 83.682056 
" style="fill:none;stroke:#999999;"/>
    <path clip-path="url(#pb454c96205)" d="M 111.663562 81.493603 
L 113.020318 82.374828 
L 114.183989 83.609484 
" style="fill:none;stroke:#999999;"/>
    <path clip-path="url(#pb454c96205)" d="M 111.663562 81.493603 
L 109.696597 80.566197 
L 108.00231 79.439927 
L 107.728895 79.23258 
L 107.473904 78.675571 
L 107.583712 77.823564 
" style="fill:none;stroke:#999999;"/>
    <path clip-path="url(#pb454c96205)" d="M 99.065111 79.189226 
L 100.291424 78.39471 
L 100.481561 77.980016 
" style="fill:none;stroke:#999999;"/>
    <path clip-path="url(#pb454c96205)" d="M 105.755297 78.562472 
L 103.860555 79.053508 
" style="fill:none;stroke:#999999;"/>
    <path clip-path="url(#pb454c96205)" d="M 105.755297 78.562472 
L 107.583712 77.823564 
" style="fill:none;stroke:#999999;"/>
    <path clip-path="url(#pb454c96205)" d="M 105.755297 78.562472 
L 105.9248 77.547415 
L 105.993338 76.528588 
L 106.027975 75.405145 
" style="fill:none;stroke:#999999;"/>
    <path clip-path="url(#pb454c96205)" d="M 105.755297 78.562472 
L 106.117148 79.354161 
L 106.64408 80.094012 
L 106.902755 80.443674 
L 108.243298 82.010086 
L 108.401009 82.195755 
" style="fill:none;stroke:#999999;"/>
    <path clip-path="url(#pb454c96205)" d="M 96.006698 78.065782 
L 92.901856 75.813241 
" style="fill:none;stroke:#999999;"/>
    <path clip-path="url(#pb454c96205)" d="M 96.006698 78.065782 
L 97.233748 76.356113 
" style="fill:none;stroke:#999999;"/>
    <path clip-path="url(#pb454c96205)" d="M 96.006698 78.065782 
L 96.499729 78.423927 
L 93.82896 82.04213 
L 94.785544 83.533143 
L 96.171779 85.394552 
" style="fill:none;stroke:#999999;"/>
    <path clip-path="url(#pb454c96205)" d="M 100.481561 77.980016 
L 102.122787 76.768922 
" style="fill:none;stroke:#999999;"/>
    <path clip-path="url(#pb454c96205)" d="M 100.481561 77.980016 
L 99.756386 77.702925 
L 97.233748 76.356113 
" style="fill:none;stroke:#999999;"/>
    <path clip-path="url(#pb454c96205)" d="M 100.481561 77.980016 
L 100.291424 78.39471 
L 99.065111 79.189226 
" style="fill:none;stroke:#999999;"/>
    <path clip-path="url(#pb454c96205)" d="M 102.122787 76.768922 
L 100.481561 77.980016 
" style="fill:none;stroke:#999999;"/>
    <path clip-path="url(#pb454c96205)" d="M 102.122787 76.768922 
L 102.249545 76.505026 
" style="fill:none;stroke:#999999;"/>
    <path clip-path="url(#pb454c96205)" d="M 102.122787 76.768922 
L 103.786858 78.990361 
L 103.860555 79.053508 
" style="fill:none;stroke:#999999;"/>
    <path clip-path="url(#pb454c96205)" d="M 102.249545 76.505026 
L 106.027975 75.405145 
" style="fill:none;stroke:#999999;"/>
    <path clip-path="url(#pb454c96205)" d="M 102.249545 76.505026 
L 102.122787 76.768922 
" style="fill:none;stroke:#999999;"/>
    <path clip-path="url(#pb454c96205)" d="M 102.249545 76.505026 
L 102.533278 75.915972 
L 102.368934 74.603089 
L 103.189178 72.930177 
L 102.085202 71.548493 
" style="fill:none;stroke:#999999;"/>
    <path clip-path="url(#pb454c96205)" d="M 97.233748 76.356113 
L 96.006698 78.065782 
" style="fill:none;stroke:#999999;"/>
    <path clip-path="url(#pb454c96205)" d="M 97.233748 76.356113 
L 99.756386 77.702925 
L 100.481561 77.980016 
" style="fill:none;stroke:#999999;"/>
    <path clip-path="url(#pb454c96205)" d="M 97.233748 76.356113 
L 99.202924 73.850986 
L 99.438753 73.424982 
" style="fill:none;stroke:#999999;"/>
    <path clip-path="url(#pb454c96205)" d="M 92.901856 75.813241 
L 96.006698 78.065782 
" style="fill:none;stroke:#999999;"/>
    <path clip-path="url(#pb454c96205)" d="M 92.901856 75.813241 
L 90.116858 73.791609 
" style="fill:none;stroke:#999999;"/>
    <path clip-path="url(#pb454c96205)" d="M 92.901856 75.813241 
L 94.543081 73.597457 
" style="fill:none;stroke:#999999;"/>
    <path clip-path="url(#pb454c96205)" d="M 106.027975 75.405145 
L 102.249545 76.505026 
" style="fill:none;stroke:#999999;"/>
    <path clip-path="url(#pb454c96205)" d="M 106.027975 75.405145 
L 106.132624 74.536173 
" style="fill:none;stroke:#999999;"/>
    <path clip-path="url(#pb454c96205)" d="M 106.027975 75.405145 
L 105.993338 76.528588 
L 105.9248 77.547415 
L 105.755297 78.562472 
" style="fill:none;stroke:#999999;"/>
    <path clip-path="url(#pb454c96205)" d="M 106.132624 74.536173 
L 106.027975 75.405145 
" style="fill:none;stroke:#999999;"/>
    <path clip-path="url(#pb454c96205)" d="M 106.132624 74.536173 
L 106.112726 73.312826 
L 105.658755 71.021643 
L 105.19815 69.833168 
" style="fill:none;stroke:#999999;"/>
    <path clip-path="url(#pb454c96205)" d="M 106.132624 74.536173 
L 108.003047 74.116767 
L 109.404758 74.693568 
" style="fill:none;stroke:#999999;"/>
    <path clip-path="url(#pb454c96205)" d="M 109.404758 74.693568 
L 109.471085 74.551253 
L 110.35176 71.481576 
" style="fill:none;stroke:#999999;"/>
    <path clip-path="url(#pb454c96205)" d="M 109.404758 74.693568 
L 108.603675 76.409835 
L 107.583712 77.823564 
" style="fill:none;stroke:#999999;"/>
    <path clip-path="url(#pb454c96205)" d="M 109.404758 74.693568 
L 108.003047 74.116767 
L 106.132624 74.536173 
" style="fill:none;stroke:#999999;"/>
    <path clip-path="url(#pb454c96205)" d="M 94.543081 73.597457 
L 92.901856 75.813241 
" style="fill:none;stroke:#999999;"/>
    <path clip-path="url(#pb454c96205)" d="M 94.543081 73.597457 
L 95.109809 73.860411 
L 98.287611 73.488129 
L 99.438753 73.424982 
" style="fill:none;stroke:#999999;"/>
    <path clip-path="url(#pb454c96205)" d="M 94.543081 73.597457 
L 92.971868 72.867973 
L 92.56801 70.681406 
" style="fill:none;stroke:#999999;"/>
    <path clip-path="url(#pb454c96205)" d="M 99.438753 73.424982 
L 98.287611 73.488129 
L 95.109809 73.860411 
L 94.543081 73.597457 
" style="fill:none;stroke:#999999;"/>
    <path clip-path="url(#pb454c96205)" d="M 99.438753 73.424982 
L 101.172837 72.157339 
L 102.085202 71.548493 
" style="fill:none;stroke:#999999;"/>
    <path clip-path="url(#pb454c96205)" d="M 99.438753 73.424982 
L 99.202924 73.850986 
L 97.233748 76.356113 
" style="fill:none;stroke:#999999;"/>
    <path clip-path="url(#pb454c96205)" d="M 102.085202 71.548493 
L 102.848699 71.207313 
L 105.19815 69.833168 
" style="fill:none;stroke:#999999;"/>
    <path clip-path="url(#pb454c96205)" d="M 102.085202 71.548493 
L 101.172837 72.157339 
L 99.438753 73.424982 
" style="fill:none;stroke:#999999;"/>
    <path clip-path="url(#pb454c96205)" d="M 102.085202 71.548493 
L 101.7941 71.183751 
L 100.682753 69.971714 
L 99.572144 68.557985 
L 99.092379 67.646601 
" style="fill:none;stroke:#999999;"/>
    <path clip-path="url(#pb454c96205)" d="M 102.085202 71.548493 
L 103.189178 72.930177 
L 102.368934 74.603089 
L 102.533278 75.915972 
L 102.249545 76.505026 
" style="fill:none;stroke:#999999;"/>
    <path clip-path="url(#pb454c96205)" d="M 110.51463 70.669153 
L 108.602938 68.200783 
" style="fill:none;stroke:#999999;"/>
    <path clip-path="url(#pb454c96205)" d="M 110.51463 70.669153 
L 110.572114 67.851121 
L 110.596434 67.167819 
L 110.855109 59.828681 
" style="fill:none;stroke:#999999;"/>
    <path clip-path="url(#pb454c96205)" d="M 110.51463 70.669153 
L 110.509471 70.933992 
L 110.35176 71.481576 
" style="fill:none;stroke:#999999;"/>
    <path clip-path="url(#pb454c96205)" d="M 105.19815 69.833168 
L 106.684613 69.116879 
L 108.602938 68.200783 
" style="fill:none;stroke:#999999;"/>
    <path clip-path="url(#pb454c96205)" d="M 105.19815 69.833168 
L 102.848699 71.207313 
L 102.085202 71.548493 
" style="fill:none;stroke:#999999;"/>
    <path clip-path="url(#pb454c96205)" d="M 105.19815 69.833168 
L 105.658755 71.021643 
L 106.112726 73.312826 
L 106.132624 74.536173 
" style="fill:none;stroke:#999999;"/>
    <path clip-path="url(#pb454c96205)" d="M 108.602938 68.200783 
L 110.51463 70.669153 
" style="fill:none;stroke:#999999;"/>
    <path clip-path="url(#pb454c96205)" d="M 108.602938 68.200783 
L 106.684613 69.116879 
L 105.19815 69.833168 
" style="fill:none;stroke:#999999;"/>
    <path clip-path="url(#pb454c96205)" d="M 108.602938 68.200783 
L 108.331734 67.820961 
L 107.106895 66.103752 
L 105.376496 64.839878 
" style="fill:none;stroke:#999999;"/>
    <path clip-path="url(#pb454c96205)" d="M 99.092379 67.646601 
L 99.746068 67.371395 
" style="fill:none;stroke:#999999;"/>
    <path clip-path="url(#pb454c96205)" d="M 99.092379 67.646601 
L 96.740717 68.361948 
" style="fill:none;stroke:#999999;"/>
    <path clip-path="url(#pb454c96205)" d="M 99.092379 67.646601 
L 99.572144 68.557985 
L 100.682753 69.971714 
L 101.7941 71.183751 
L 102.085202 71.548493 
" style="fill:none;stroke:#999999;"/>
    <path clip-path="url(#pb454c96205)" d="M 110.518315 92.803434 
L 110.723929 93.009838 
" style="fill:none;stroke:#999999;"/>
    <path clip-path="url(#pb454c96205)" d="M 110.518315 92.803434 
L 110.06508 92.348213 
L 108.227085 92.554617 
" style="fill:none;stroke:#999999;"/>
    <path clip-path="url(#pb454c96205)" d="M 110.518315 92.803434 
L 109.7445 91.154083 
L 108.210871 92.418899 
L 108.227085 92.554617 
" style="fill:none;stroke:#999999;"/>
    <path clip-path="url(#pb454c96205)" d="M 110.518315 92.803434 
L 110.595697 92.968369 
L 110.192576 93.012665 
L 109.879365 92.867523 
L 108.89404 92.867523 
L 108.277935 92.978736 
L 108.227085 92.554617 
" style="fill:none;stroke:#999999;"/>
    <path clip-path="url(#pb454c96205)" d="M 108.227085 92.554617 
L 110.06508 92.348213 
L 110.518315 92.803434 
" style="fill:none;stroke:#999999;"/>
    <path clip-path="url(#pb454c96205)" d="M 108.227085 92.554617 
L 108.277935 92.978736 
L 108.89404 92.867523 
L 109.879365 92.867523 
L 110.192576 93.012665 
L 110.595697 92.968369 
L 110.518315 92.803434 
" style="fill:none;stroke:#999999;"/>
    <path clip-path="url(#pb454c96205)" d="M 108.227085 92.554617 
L 108.210871 92.418899 
L 109.7445 91.154083 
L 110.518315 92.803434 
" style="fill:none;stroke:#999999;"/>
    <path clip-path="url(#pb454c96205)" d="M 108.227085 92.554617 
L 107.602874 92.624361 
L 106.198951 92.624361 
L 104.688169 92.770447 
" style="fill:none;stroke:#999999;"/>
    <path clip-path="url(#pb454c96205)" d="M 74.18142 78.274072 
L 75.023774 77.073345 
" style="fill:none;stroke:#999999;"/>
    <path clip-path="url(#pb454c96205)" d="M 74.18142 78.274072 
L 71.63741 81.900757 
" style="fill:none;stroke:#999999;"/>
    <path clip-path="url(#pb454c96205)" d="M 74.18142 78.274072 
L 65.23243 71.824641 
" style="fill:none;stroke:#999999;"/>
    <path clip-path="url(#pb454c96205)" d="M 98.827071 8.307692 
L 99.86472 14.109635 
L 101.0505 18.379096 
L 101.841266 20.117982 
L 105.508413 26.331792 
L 108.64126 34.345749 
L 109.194722 37.5879 
L 109.342853 41.550111 
L 110.10414 45.967542 
L 110.973761 51.42265 
L 116.024195 56.966352 
L 117.733959 57.865483 
L 119.987604 58.340496 
L 122.913363 57.944652 
L 123.295849 59.006834 
" style="fill:none;stroke:#999999;"/>
    <path clip-path="url(#pb454c96205)" d="M 123.295849 59.006834 
L 122.913363 57.944652 
L 119.987604 58.340496 
L 117.733959 57.865483 
L 116.024195 56.966352 
L 110.973761 51.42265 
L 110.10414 45.967542 
L 109.342853 41.550111 
L 109.194722 37.5879 
L 108.64126 34.345749 
L 105.508413 26.331792 
L 101.841266 20.117982 
L 101.0505 18.379096 
L 99.86472 14.109635 
L 98.827071 8.307692 
" style="fill:none;stroke:#999999;"/>
    <path clip-path="url(#pb454c96205)" d="M 123.295849 59.006834 
L 121.257398 59.338589 
L 118.412705 58.992696 
L 116.053674 58.016281 
L 113.739598 56.495109 
L 111.952453 54.978649 
" style="fill:none;stroke:#999999;"/>
    <path clip-path="url(#pb454c96205)" d="M 123.295849 59.006834 
L 124.21411 58.856978 
L 125.039513 58.513913 
" style="fill:none;stroke:#999999;"/>
    <path clip-path="url(#pb454c96205)" d="M 65.23243 71.824641 
L 68.489824 67.146141 
" style="fill:none;stroke:#999999;"/>
    <path clip-path="url(#pb454c96205)" d="M 65.23243 71.824641 
L 60.884325 78.070495 
" style="fill:none;stroke:#999999;"/>
    <path clip-path="url(#pb454c96205)" d="M 65.23243 71.824641 
L 74.18142 78.274072 
" style="fill:none;stroke:#999999;"/>
    <path clip-path="url(#pb454c96205)" d="M 45.467712 211.188139 
L 51.950811 200.195926 
L 61.992723 193.94913 
L 64.206572 193.790792 
L 68.396966 188.888923 
L 72.508505 178.679917 
L 76.462333 170.77246 
L 80.652728 167.697129 
L 85.476176 160.414541 
L 89.903874 157.180872 
L 93.743472 154.039567 
" style="fill:none;stroke:#999999;"/>
    <path clip-path="url(#pb454c96205)" d="M 45.467712 211.188139 
L 60.56964 248.038393 
L 59.937322 258.003296 
L 60.727351 263.380177 
L 66.895028 278.247892 
L 67.211186 281.570154 
L 65.629655 288.212794 
L 67.685793 294.223027 
L 68.950429 297.386952 
L 69.108876 301.024947 
L 72.42965 312.729679 
L 74.643499 318.265841 
L 75.118105 320.797358 
L 77.331954 325.542774 
L 79.071196 332.889451 
L 85.555032 344.595125 
L 86.820404 360.501459 
L 91.88042 379.397358 
L 94.726586 383.755412 
L 96.466565 390.312286 
L 96.150406 394.828679 
L 102.317346 400.911482 
L 105.796567 406.219563 
L 108.642734 413.093112 
L 112.438114 423.692308 
L 113.861197 416.185408 
L 117.02426 412.301424 
L 123.981965 398.22257 
L 126.038103 382.964667 
L 129.675035 373.946962 
L 129.358876 369.588908 
L 131.572725 363.73607 
L 131.730436 356.3008 
L 129.516587 350.693951 
L 127.145027 339.217301 
L 128.093504 335.579306 
L 124.931179 325.700169 
L 123.033489 311.622258 
L 124.456572 297.141905 
L 124.456572 282.115854 
L 123.349647 278.161183 
L 123.507358 273.100034 
L 122.084275 266.456451 
L 122.558882 261.711977 
L 124.456572 248.110022 
L 123.665806 235.227183 
L 123.981965 230.396 
L 125.088889 226.053968 
L 125.247337 219.957027 
L 129.991194 207.550143 
L 132.67965 201.540853 
L 128.725822 185.796627 
L 118.131184 165.238183 
L 111.79769 155.919826 
L 106.824636 149.590091 
L 103.503126 143.343295 
L 102.159635 137.563029 
L 99.233876 133.380277 
L 99.605308 129.871402 
" style="fill:none;stroke:#999999;"/>
    <path clip-path="url(#pb454c96205)" d="M 45.467712 211.188139 
L 42.858112 201.06584 
L 37.955808 186.358349 
L 31.946579 175.28791 
L 24.831162 166.906383 
L 18.821934 152.198892 
" style="fill:none;stroke:#999999;"/>
    <path clip-path="url(#pb454c96205)" d="M 18.821934 152.198892 
L 24.831162 166.906383 
L 31.946579 175.28791 
L 37.955808 186.358349 
L 42.858112 201.06584 
L 45.467712 211.188139 
" style="fill:none;stroke:#999999;"/>
   </g>
  </g>
 </g>
 <defs>
  <clipPath id="pb454c96205">
   <rect height="432" width="118.625863" x="16.540667" y="0"/>
  </clipPath>
 </defs>
</svg>
