<?xml version="1.0" encoding="utf-8" standalone="no"?>
<!DOCTYPE svg PUBLIC "-//W3C//DTD SVG 1.1//EN"
  "http://www.w3.org/Graphics/SVG/1.1/DTD/svg11.dtd">
<!-- Created with matplotlib (http://matplotlib.org/) -->
<svg height="432pt" version="1.1" viewBox="0 0 226.556566 432" width="226.556566pt" xmlns="http://www.w3.org/2000/svg" xmlns:xlink="http://www.w3.org/1999/xlink">
 <defs>
  <style type="text/css">
*{stroke-linecap:butt;stroke-linejoin:round;}
  </style>
 </defs>
 <g id="figure_1">
  <g id="patch_1">
   <path d="M 0 432 
L 226.556566 432 
L 226.556566 0 
L 0 0 
z
" style="fill:none;opacity:0;"/>
  </g>
  <g id="axes_1">
   <g id="PathCollection_1">
    <defs>
     <path d="M 0 1.936492 
C 0.513564 1.936492 1.006162 1.732451 1.369306 1.369306 
C 1.732451 1.006162 1.936492 0.513564 1.936492 0 
C 1.936492 -0.513564 1.732451 -1.006162 1.369306 -1.369306 
C 1.006162 -1.732451 0.513564 -1.936492 0 -1.936492 
C -0.513564 -1.936492 -1.006162 -1.732451 -1.369306 -1.369306 
C -1.732451 -1.006162 -1.936492 -0.513564 -1.936492 0 
C -1.936492 0.513564 -1.732451 1.006162 -1.369306 1.369306 
C -1.006162 1.732451 -0.513564 1.936492 0 1.936492 
z
" id="C0_0_8ff4f36131"/>
    </defs>
    <g clip-path="url(#pac84f620d6)">
     <use style="fill:#66ccff;" x="95.32666" xlink:href="#C0_0_8ff4f36131" y="71.559923"/>
    </g>
    <g clip-path="url(#pac84f620d6)">
     <use style="fill:#66ccff;" x="88.584602" xlink:href="#C0_0_8ff4f36131" y="66.494084"/>
    </g>
    <g clip-path="url(#pac84f620d6)">
     <use style="fill:#66ccff;" x="192.130289" xlink:href="#C0_0_8ff4f36131" y="35.292481"/>
    </g>
    <g clip-path="url(#pac84f620d6)">
     <use style="fill:#66ccff;" x="157.710406" xlink:href="#C0_0_8ff4f36131" y="89.448371"/>
    </g>
    <g clip-path="url(#pac84f620d6)">
     <use style="fill:#66ccff;" x="102.719637" xlink:href="#C0_0_8ff4f36131" y="63.779568"/>
    </g>
    <g clip-path="url(#pac84f620d6)">
     <use style="fill:#66ccff;" x="118.662578" xlink:href="#C0_0_8ff4f36131" y="81.981683"/>
    </g>
    <g clip-path="url(#pac84f620d6)">
     <use style="fill:#66ccff;" x="123.186009" xlink:href="#C0_0_8ff4f36131" y="58.121772"/>
    </g>
    <g clip-path="url(#pac84f620d6)">
     <use style="fill:#66ccff;" x="162.088985" xlink:href="#C0_0_8ff4f36131" y="16.24606"/>
    </g>
    <g clip-path="url(#pac84f620d6)">
     <use style="fill:#66ccff;" x="120.034093" xlink:href="#C0_0_8ff4f36131" y="44.888802"/>
    </g>
    <g clip-path="url(#pac84f620d6)">
     <use style="fill:#66ccff;" x="110.842378" xlink:href="#C0_0_8ff4f36131" y="71.595299"/>
    </g>
    <g clip-path="url(#pac84f620d6)">
     <use style="fill:#66ccff;" x="125.630166" xlink:href="#C0_0_8ff4f36131" y="50.070202"/>
    </g>
    <g clip-path="url(#pac84f620d6)">
     <use style="fill:#66ccff;" x="89.248357" xlink:href="#C0_0_8ff4f36131" y="77.507802"/>
    </g>
    <g clip-path="url(#pac84f620d6)">
     <use style="fill:#66ccff;" x="136.081547" xlink:href="#C0_0_8ff4f36131" y="142.894383"/>
    </g>
    <g clip-path="url(#pac84f620d6)">
     <use style="fill:#66ccff;" x="124.080794" xlink:href="#C0_0_8ff4f36131" y="193.548052"/>
    </g>
    <g clip-path="url(#pac84f620d6)">
     <use style="fill:#66ccff;" x="69.273383" xlink:href="#C0_0_8ff4f36131" y="96.856098"/>
    </g>
    <g clip-path="url(#pac84f620d6)">
     <use style="fill:#66ccff;" x="65.202845" xlink:href="#C0_0_8ff4f36131" y="123.871546"/>
    </g>
    <g clip-path="url(#pac84f620d6)">
     <use style="fill:#66ccff;" x="87.376276" xlink:href="#C0_0_8ff4f36131" y="108.037263"/>
    </g>
    <g clip-path="url(#pac84f620d6)">
     <use style="fill:#66ccff;" x="155.992346" xlink:href="#C0_0_8ff4f36131" y="22.70807"/>
    </g>
    <g clip-path="url(#pac84f620d6)">
     <use style="fill:#66ccff;" x="147.697249" xlink:href="#C0_0_8ff4f36131" y="14.713101"/>
    </g>
    <g clip-path="url(#pac84f620d6)">
     <use style="fill:#66ccff;" x="42.89923" xlink:href="#C0_0_8ff4f36131" y="142.623167"/>
    </g>
    <g clip-path="url(#pac84f620d6)">
     <use style="fill:#66ccff;" x="53.63665" xlink:href="#C0_0_8ff4f36131" y="133.451358"/>
    </g>
    <g clip-path="url(#pac84f620d6)">
     <use style="fill:#66ccff;" x="45.369057" xlink:href="#C0_0_8ff4f36131" y="131.352384"/>
    </g>
    <g clip-path="url(#pac84f620d6)">
     <use style="fill:#66ccff;" x="47.558346" xlink:href="#C0_0_8ff4f36131" y="130.31233"/>
    </g>
    <g clip-path="url(#pac84f620d6)">
     <use style="fill:#66ccff;" x="51.808575" xlink:href="#C0_0_8ff4f36131" y="130.305255"/>
    </g>
    <g clip-path="url(#pac84f620d6)">
     <use style="fill:#66ccff;" x="50.68826" xlink:href="#C0_0_8ff4f36131" y="129.628395"/>
    </g>
    <g clip-path="url(#pac84f620d6)">
     <use style="fill:#66ccff;" x="49.419425" xlink:href="#C0_0_8ff4f36131" y="127.668566"/>
    </g>
    <g clip-path="url(#pac84f620d6)">
     <use style="fill:#66ccff;" x="49.613785" xlink:href="#C0_0_8ff4f36131" y="127.378484"/>
    </g>
    <g clip-path="url(#pac84f620d6)">
     <use style="fill:#66ccff;" x="49.336915" xlink:href="#C0_0_8ff4f36131" y="127.361975"/>
    </g>
    <g clip-path="url(#pac84f620d6)">
     <use style="fill:#66ccff;" x="50.737766" xlink:href="#C0_0_8ff4f36131" y="124.687552"/>
    </g>
    <g clip-path="url(#pac84f620d6)">
     <use style="fill:#66ccff;" x="49.833814" xlink:href="#C0_0_8ff4f36131" y="123.88098"/>
    </g>
    <g clip-path="url(#pac84f620d6)">
     <use style="fill:#66ccff;" x="51.333679" xlink:href="#C0_0_8ff4f36131" y="120.517904"/>
    </g>
    <g clip-path="url(#pac84f620d6)">
     <use style="fill:#66ccff;" x="70.800752" xlink:href="#C0_0_8ff4f36131" y="97.999921"/>
    </g>
    <g clip-path="url(#pac84f620d6)">
     <use style="fill:#66ccff;" x="28.595506" xlink:href="#C0_0_8ff4f36131" y="66.508235"/>
    </g>
    <g clip-path="url(#pac84f620d6)">
     <use style="fill:#66ccff;" x="75.419529" xlink:href="#C0_0_8ff4f36131" y="160.537557"/>
    </g>
    <g clip-path="url(#pac84f620d6)">
     <use style="fill:#66ccff;" x="102.024712" xlink:href="#C0_0_8ff4f36131" y="150.875201"/>
    </g>
    <g clip-path="url(#pac84f620d6)">
     <use style="fill:#66ccff;" x="96.413971" xlink:href="#C0_0_8ff4f36131" y="139.960536"/>
    </g>
    <g clip-path="url(#pac84f620d6)">
     <use style="fill:#66ccff;" x="132.214536" xlink:href="#C0_0_8ff4f36131" y="139.948744"/>
    </g>
    <g clip-path="url(#pac84f620d6)">
     <use style="fill:#66ccff;" x="118.39671" xlink:href="#C0_0_8ff4f36131" y="133.151842"/>
    </g>
    <g clip-path="url(#pac84f620d6)">
     <use style="fill:#66ccff;" x="140.630649" xlink:href="#C0_0_8ff4f36131" y="132.635352"/>
    </g>
    <g clip-path="url(#pac84f620d6)">
     <use style="fill:#66ccff;" x="91.470651" xlink:href="#C0_0_8ff4f36131" y="132.114146"/>
    </g>
    <g clip-path="url(#pac84f620d6)">
     <use style="fill:#66ccff;" x="110.050273" xlink:href="#C0_0_8ff4f36131" y="126.222869"/>
    </g>
    <g clip-path="url(#pac84f620d6)">
     <use style="fill:#66ccff;" x="54.137216" xlink:href="#C0_0_8ff4f36131" y="121.48013"/>
    </g>
    <g clip-path="url(#pac84f620d6)">
     <use style="fill:#66ccff;" x="104.357021" xlink:href="#C0_0_8ff4f36131" y="118.534492"/>
    </g>
    <g clip-path="url(#pac84f620d6)">
     <use style="fill:#66ccff;" x="103.783111" xlink:href="#C0_0_8ff4f36131" y="117.999135"/>
    </g>
    <g clip-path="url(#pac84f620d6)">
     <use style="fill:#66ccff;" x="100.282815" xlink:href="#C0_0_8ff4f36131" y="115.805825"/>
    </g>
    <g clip-path="url(#pac84f620d6)">
     <use style="fill:#66ccff;" x="121.968515" xlink:href="#C0_0_8ff4f36131" y="114.676153"/>
    </g>
    <g clip-path="url(#pac84f620d6)">
     <use style="fill:#66ccff;" x="99.558553" xlink:href="#C0_0_8ff4f36131" y="114.367203"/>
    </g>
    <g clip-path="url(#pac84f620d6)">
     <use style="fill:#66ccff;" x="158.031282" xlink:href="#C0_0_8ff4f36131" y="106.978342"/>
    </g>
    <g clip-path="url(#pac84f620d6)">
     <use style="fill:#66ccff;" x="151.25622" xlink:href="#C0_0_8ff4f36131" y="105.228411"/>
    </g>
    <g clip-path="url(#pac84f620d6)">
     <use style="fill:#66ccff;" x="82.775835" xlink:href="#C0_0_8ff4f36131" y="98.56122"/>
    </g>
    <g clip-path="url(#pac84f620d6)">
     <use style="fill:#66ccff;" x="106.317113" xlink:href="#C0_0_8ff4f36131" y="90.665304"/>
    </g>
    <g clip-path="url(#pac84f620d6)">
     <use style="fill:#66ccff;" x="129.854724" xlink:href="#C0_0_8ff4f36131" y="87.665422"/>
    </g>
    <g clip-path="url(#pac84f620d6)">
     <use style="fill:#66ccff;" x="144.75436" xlink:href="#C0_0_8ff4f36131" y="86.832908"/>
    </g>
    <g clip-path="url(#pac84f620d6)">
     <use style="fill:#66ccff;" x="128.298018" xlink:href="#C0_0_8ff4f36131" y="80.210526"/>
    </g>
    <g clip-path="url(#pac84f620d6)">
     <use style="fill:#66ccff;" x="99.822588" xlink:href="#C0_0_8ff4f36131" y="79.913368"/>
    </g>
    <g clip-path="url(#pac84f620d6)">
     <use style="fill:#66ccff;" x="127.361061" xlink:href="#C0_0_8ff4f36131" y="79.323769"/>
    </g>
    <g clip-path="url(#pac84f620d6)">
     <use style="fill:#66ccff;" x="114.923917" xlink:href="#C0_0_8ff4f36131" y="76.675288"/>
    </g>
    <g clip-path="url(#pac84f620d6)">
     <use style="fill:#66ccff;" x="139.642351" xlink:href="#C0_0_8ff4f36131" y="70.60713"/>
    </g>
    <g clip-path="url(#pac84f620d6)">
     <use style="fill:#66ccff;" x="114.989926" xlink:href="#C0_0_8ff4f36131" y="67.425652"/>
    </g>
    <g clip-path="url(#pac84f620d6)">
     <use style="fill:#66ccff;" x="133.351353" xlink:href="#C0_0_8ff4f36131" y="65.67572"/>
    </g>
    <g clip-path="url(#pac84f620d6)">
     <use style="fill:#66ccff;" x="145.871008" xlink:href="#C0_0_8ff4f36131" y="64.98471"/>
    </g>
    <g clip-path="url(#pac84f620d6)">
     <use style="fill:#66ccff;" x="134.999738" xlink:href="#C0_0_8ff4f36131" y="62.343304"/>
    </g>
    <g clip-path="url(#pac84f620d6)">
     <use style="fill:#66ccff;" x="84.110678" xlink:href="#C0_0_8ff4f36131" y="58.576943"/>
    </g>
    <g clip-path="url(#pac84f620d6)">
     <use style="fill:#66ccff;" x="179.221916" xlink:href="#C0_0_8ff4f36131" y="57.268032"/>
    </g>
    <g clip-path="url(#pac84f620d6)">
     <use style="fill:#66ccff;" x="164.017907" xlink:href="#C0_0_8ff4f36131" y="56.03459"/>
    </g>
    <g clip-path="url(#pac84f620d6)">
     <use style="fill:#66ccff;" x="174.010894" xlink:href="#C0_0_8ff4f36131" y="51.034786"/>
    </g>
    <g clip-path="url(#pac84f620d6)">
     <use style="fill:#66ccff;" x="160.625792" xlink:href="#C0_0_8ff4f36131" y="49.360324"/>
    </g>
    <g clip-path="url(#pac84f620d6)">
     <use style="fill:#66ccff;" x="167.87575" xlink:href="#C0_0_8ff4f36131" y="43.697811"/>
    </g>
    <g clip-path="url(#pac84f620d6)">
     <use style="fill:#66ccff;" x="114.095141" xlink:href="#C0_0_8ff4f36131" y="43.388861"/>
    </g>
    <g clip-path="url(#pac84f620d6)">
     <use style="fill:#66ccff;" x="152.873433" xlink:href="#C0_0_8ff4f36131" y="42.865296"/>
    </g>
    <g clip-path="url(#pac84f620d6)">
     <use style="fill:#66ccff;" x="112.927153" xlink:href="#C0_0_8ff4f36131" y="42.348807"/>
    </g>
    <g clip-path="url(#pac84f620d6)">
     <use style="fill:#66ccff;" x="149.407975" xlink:href="#C0_0_8ff4f36131" y="42.278055"/>
    </g>
    <g clip-path="url(#pac84f620d6)">
     <use style="fill:#66ccff;" x="125.905202" xlink:href="#C0_0_8ff4f36131" y="38.7381"/>
    </g>
    <g clip-path="url(#pac84f620d6)">
     <use style="fill:#66ccff;" x="137.018504" xlink:href="#C0_0_8ff4f36131" y="40.120121"/>
    </g>
    <g clip-path="url(#pac84f620d6)">
     <use style="fill:#66ccff;" x="141.884814" xlink:href="#C0_0_8ff4f36131" y="36.358476"/>
    </g>
    <g clip-path="url(#pac84f620d6)">
     <use style="fill:#66ccff;" x="130.193936" xlink:href="#C0_0_8ff4f36131" y="33.80669"/>
    </g>
    <g clip-path="url(#pac84f620d6)">
     <use style="fill:#66ccff;" x="121.123237" xlink:href="#C0_0_8ff4f36131" y="33.676978"/>
    </g>
    <g clip-path="url(#pac84f620d6)">
     <use style="fill:#66ccff;" x="171.893114" xlink:href="#C0_0_8ff4f36131" y="30.886993"/>
    </g>
    <g clip-path="url(#pac84f620d6)">
     <use style="fill:#66ccff;" x="125.571491" xlink:href="#C0_0_8ff4f36131" y="28.806887"/>
    </g>
    <g clip-path="url(#pac84f620d6)">
     <use style="fill:#66ccff;" x="113.85861" xlink:href="#C0_0_8ff4f36131" y="26.964978"/>
    </g>
    <g clip-path="url(#pac84f620d6)">
     <use style="fill:#66ccff;" x="182.856063" xlink:href="#C0_0_8ff4f36131" y="25.177312"/>
    </g>
    <g clip-path="url(#pac84f620d6)">
     <use style="fill:#66ccff;" x="187.377661" xlink:href="#C0_0_8ff4f36131" y="22.455721"/>
    </g>
    <g clip-path="url(#pac84f620d6)">
     <use style="fill:#66ccff;" x="191.462868" xlink:href="#C0_0_8ff4f36131" y="20.41099"/>
    </g>
    <g clip-path="url(#pac84f620d6)">
     <use style="fill:#66ccff;" x="174.425282" xlink:href="#C0_0_8ff4f36131" y="10.51987"/>
    </g>
    <g clip-path="url(#pac84f620d6)">
     <use style="fill:#66ccff;" x="184.816156" xlink:href="#C0_0_8ff4f36131" y="412.963956"/>
    </g>
    <g clip-path="url(#pac84f620d6)">
     <use style="fill:#66ccff;" x="197.96106" xlink:href="#C0_0_8ff4f36131" y="399.226288"/>
    </g>
    <g clip-path="url(#pac84f620d6)">
     <use style="fill:#66ccff;" x="154.453976" xlink:href="#C0_0_8ff4f36131" y="338.344247"/>
    </g>
    <g clip-path="url(#pac84f620d6)">
     <use style="fill:#66ccff;" x="150.075397" xlink:href="#C0_0_8ff4f36131" y="335.023623"/>
    </g>
    <g clip-path="url(#pac84f620d6)">
     <use style="fill:#66ccff;" x="91.452315" xlink:href="#C0_0_8ff4f36131" y="324.347156"/>
    </g>
    <g clip-path="url(#pac84f620d6)">
     <use style="fill:#66ccff;" x="125.998714" xlink:href="#C0_0_8ff4f36131" y="194.922998"/>
    </g>
    <g clip-path="url(#pac84f620d6)">
     <use style="fill:#66ccff;" x="117.852138" xlink:href="#C0_0_8ff4f36131" y="195.724854"/>
    </g>
    <g clip-path="url(#pac84f620d6)">
     <use style="fill:#66ccff;" x="117.866806" xlink:href="#C0_0_8ff4f36131" y="47.254275"/>
    </g>
    <g clip-path="url(#pac84f620d6)">
     <use style="fill:#66ccff;" x="81.941558" xlink:href="#C0_0_8ff4f36131" y="74.543296"/>
    </g>
    <g clip-path="url(#pac84f620d6)">
     <use style="fill:#66ccff;" x="109.505701" xlink:href="#C0_0_8ff4f36131" y="56.376558"/>
    </g>
    <g clip-path="url(#pac84f620d6)">
     <use style="fill:#66ccff;" x="117.89431" xlink:href="#C0_0_8ff4f36131" y="63.977674"/>
    </g>
    <g clip-path="url(#pac84f620d6)">
     <use style="fill:#66ccff;" x="98.663768" xlink:href="#C0_0_8ff4f36131" y="60.208954"/>
    </g>
    <g clip-path="url(#pac84f620d6)">
     <use style="fill:#66ccff;" x="117.331402" xlink:href="#C0_0_8ff4f36131" y="321.557171"/>
    </g>
    <g clip-path="url(#pac84f620d6)">
     <use style="fill:#66ccff;" x="136.275906" xlink:href="#C0_0_8ff4f36131" y="302.876302"/>
    </g>
    <g clip-path="url(#pac84f620d6)">
     <use style="fill:#66ccff;" x="160.442434" xlink:href="#C0_0_8ff4f36131" y="300.751386"/>
    </g>
    <g clip-path="url(#pac84f620d6)">
     <use style="fill:#66ccff;" x="174.192418" xlink:href="#C0_0_8ff4f36131" y="302.430565"/>
    </g>
    <g clip-path="url(#pac84f620d6)">
     <use style="fill:#66ccff;" x="153.98458" xlink:href="#C0_0_8ff4f36131" y="422.112181"/>
    </g>
    <g clip-path="url(#pac84f620d6)">
     <use style="fill:#66ccff;" x="142.222192" xlink:href="#C0_0_8ff4f36131" y="392.705318"/>
    </g>
    <g clip-path="url(#pac84f620d6)">
     <use style="fill:#66ccff;" x="138.061809" xlink:href="#C0_0_8ff4f36131" y="381.373216"/>
    </g>
    <g clip-path="url(#pac84f620d6)">
     <use style="fill:#66ccff;" x="109.881584" xlink:href="#C0_0_8ff4f36131" y="343.219056"/>
    </g>
    <g clip-path="url(#pac84f620d6)">
     <use style="fill:#66ccff;" x="119.10447" xlink:href="#C0_0_8ff4f36131" y="329.983727"/>
    </g>
    <g clip-path="url(#pac84f620d6)">
     <use style="fill:#66ccff;" x="130.78068" xlink:href="#C0_0_8ff4f36131" y="338.256987"/>
    </g>
    <g clip-path="url(#pac84f620d6)">
     <use style="fill:#66ccff;" x="103.148694" xlink:href="#C0_0_8ff4f36131" y="55.452066"/>
    </g>
    <g clip-path="url(#pac84f620d6)">
     <use style="fill:#66ccff;" x="107.246736" xlink:href="#C0_0_8ff4f36131" y="58.841083"/>
    </g>
    <g clip-path="url(#pac84f620d6)">
     <use style="fill:#66ccff;" x="49.05271" xlink:href="#C0_0_8ff4f36131" y="125.482332"/>
    </g>
    <g clip-path="url(#pac84f620d6)">
     <use style="fill:#66ccff;" x="38.201609" xlink:href="#C0_0_8ff4f36131" y="144.144334"/>
    </g>
   </g>
   <g id="LineCollection_1">
    <path clip-path="url(#pac84f620d6)" d="M 95.32666 71.559923 
L 102.719637 63.779568 
" style="fill:none;stroke:#999999;"/>
    <path clip-path="url(#pac84f620d6)" d="M 95.32666 71.559923 
L 91.714516 75.095161 
L 89.248357 77.507802 
" style="fill:none;stroke:#999999;"/>
    <path clip-path="url(#pac84f620d6)" d="M 95.32666 71.559923 
L 91.3368 67.411501 
L 88.584602 66.494084 
" style="fill:none;stroke:#999999;"/>
    <path clip-path="url(#pac84f620d6)" d="M 88.584602 66.494084 
L 92.425943 64.430486 
L 95.456844 62.737157 
L 98.066022 60.746669 
L 98.663768 60.208954 
" style="fill:none;stroke:#999999;"/>
    <path clip-path="url(#pac84f620d6)" d="M 88.584602 66.494084 
L 91.3368 67.411501 
L 95.32666 71.559923 
" style="fill:none;stroke:#999999;"/>
    <path clip-path="url(#pac84f620d6)" d="M 88.584602 66.494084 
L 85.177819 67.267639 
L 82.401785 67.831296 
L 79.79444 68.338351 
L 77.762839 68.519948 
L 72.35379 68.793522 
L 32.352503 67.687434 
L 28.595506 66.508235 
" style="fill:none;stroke:#999999;"/>
    <path clip-path="url(#pac84f620d6)" d="M 192.130289 35.292481 
L 190.612088 28.863488 
L 187.377661 22.455721 
" style="fill:none;stroke:#999999;"/>
    <path clip-path="url(#pac84f620d6)" d="M 157.710406 89.448371 
L 151.08203 87.618254 
L 144.75436 86.832908 
" style="fill:none;stroke:#999999;"/>
    <path clip-path="url(#pac84f620d6)" d="M 102.719637 63.779568 
L 95.32666 71.559923 
" style="fill:none;stroke:#999999;"/>
    <path clip-path="url(#pac84f620d6)" d="M 102.719637 63.779568 
L 107.246736 58.841083 
" style="fill:none;stroke:#999999;"/>
    <path clip-path="url(#pac84f620d6)" d="M 102.719637 63.779568 
L 98.663768 60.208954 
" style="fill:none;stroke:#999999;"/>
    <path clip-path="url(#pac84f620d6)" d="M 102.719637 63.779568 
L 106.049411 67.185095 
L 106.562812 67.711018 
L 110.842378 71.595299 
" style="fill:none;stroke:#999999;"/>
    <path clip-path="url(#pac84f620d6)" d="M 118.662578 81.981683 
L 114.923917 76.675288 
" style="fill:none;stroke:#999999;"/>
    <path clip-path="url(#pac84f620d6)" d="M 118.662578 81.981683 
L 121.038892 84.342439 
L 123.200678 85.821155 
L 125.767684 86.873 
L 128.84259 87.823435 
L 129.854724 87.665422 
" style="fill:none;stroke:#999999;"/>
    <path clip-path="url(#pac84f620d6)" d="M 118.662578 81.981683 
L 115.789365 84.007547 
L 112.960158 86.203215 
L 106.317113 90.665304 
" style="fill:none;stroke:#999999;"/>
    <path clip-path="url(#pac84f620d6)" d="M 123.186009 58.121772 
L 125.056257 52.072481 
L 125.630166 50.070202 
" style="fill:none;stroke:#999999;"/>
    <path clip-path="url(#pac84f620d6)" d="M 123.186009 58.121772 
L 118.851436 62.843284 
L 117.89431 63.977674 
" style="fill:none;stroke:#999999;"/>
    <path clip-path="url(#pac84f620d6)" d="M 123.186009 58.121772 
L 130.129761 60.102826 
L 134.999738 62.343304 
" style="fill:none;stroke:#999999;"/>
    <path clip-path="url(#pac84f620d6)" d="M 162.088985 16.24606 
L 155.992346 22.70807 
" style="fill:none;stroke:#999999;"/>
    <path clip-path="url(#pac84f620d6)" d="M 162.088985 16.24606 
L 164.555144 14.279156 
L 174.425282 10.51987 
" style="fill:none;stroke:#999999;"/>
    <path clip-path="url(#pac84f620d6)" d="M 162.088985 16.24606 
L 164.410292 18.901616 
L 167.947259 24.410833 
L 171.893114 30.886993 
" style="fill:none;stroke:#999999;"/>
    <path clip-path="url(#pac84f620d6)" d="M 120.034093 44.888802 
L 117.866806 47.254275 
" style="fill:none;stroke:#999999;"/>
    <path clip-path="url(#pac84f620d6)" d="M 120.034093 44.888802 
L 125.905202 38.7381 
" style="fill:none;stroke:#999999;"/>
    <path clip-path="url(#pac84f620d6)" d="M 120.034093 44.888802 
L 125.630166 50.070202 
" style="fill:none;stroke:#999999;"/>
    <path clip-path="url(#pac84f620d6)" d="M 110.842378 71.595299 
L 114.989926 67.425652 
" style="fill:none;stroke:#999999;"/>
    <path clip-path="url(#pac84f620d6)" d="M 110.842378 71.595299 
L 114.923917 76.675288 
" style="fill:none;stroke:#999999;"/>
    <path clip-path="url(#pac84f620d6)" d="M 110.842378 71.595299 
L 103.761108 77.34979 
L 99.822588 79.913368 
" style="fill:none;stroke:#999999;"/>
    <path clip-path="url(#pac84f620d6)" d="M 110.842378 71.595299 
L 106.562812 67.711018 
L 106.049411 67.185095 
L 102.719637 63.779568 
" style="fill:none;stroke:#999999;"/>
    <path clip-path="url(#pac84f620d6)" d="M 125.630166 50.070202 
L 120.034093 44.888802 
" style="fill:none;stroke:#999999;"/>
    <path clip-path="url(#pac84f620d6)" d="M 125.630166 50.070202 
L 130.514811 46.664675 
L 131.941333 45.433591 
L 137.018504 40.120121 
" style="fill:none;stroke:#999999;"/>
    <path clip-path="url(#pac84f620d6)" d="M 125.630166 50.070202 
L 125.056257 52.072481 
L 123.186009 58.121772 
" style="fill:none;stroke:#999999;"/>
    <path clip-path="url(#pac84f620d6)" d="M 89.248357 77.507802 
L 88.3169 78.425219 
L 83.797136 83.670296 
L 83.085709 85.276365 
L 82.128582 86.627727 
L 75.287511 92.87984 
L 72.698503 94.962305 
L 69.273383 96.856098 
" style="fill:none;stroke:#999999;"/>
    <path clip-path="url(#pac84f620d6)" d="M 89.248357 77.507802 
L 91.714516 75.095161 
L 95.32666 71.559923 
" style="fill:none;stroke:#999999;"/>
    <path clip-path="url(#pac84f620d6)" d="M 89.248357 77.507802 
L 92.77799 82.226956 
L 94.19351 82.373177 
L 98.011015 80.083173 
L 99.822588 79.913368 
" style="fill:none;stroke:#999999;"/>
    <path clip-path="url(#pac84f620d6)" d="M 136.081547 142.894383 
L 139.525002 146.729138 
L 142.966624 152.089776 
L 146.360573 155.580205 
L 151.967647 160.99037 
L 155.891499 163.803939 
L 158.458505 165.61283 
L 160.671631 168.810817 
L 162.688564 172.155025 
L 164.115086 175.204434 
L 164.360785 176.827012 
L 163.328482 180.565072 
L 161.99914 183.465901 
L 157.230009 187.793562 
L 153.098963 191.677843 
L 148.228986 197.677607 
L 144.688352 200.974647 
L 143.410349 201.859046 
L 141.983827 202.054793 
L 134.803545 199.991195 
L 130.523979 198.170512 
L 125.998714 194.922998 
" style="fill:none;stroke:#999999;"/>
    <path clip-path="url(#pac84f620d6)" d="M 136.081547 142.894383 
L 137.654755 142.637318 
L 139.471829 141.793011 
L 141.5236 140.399198 
L 143.81557 138.109194 
L 144.156615 135.897017 
L 142.524732 134.055108 
L 140.630649 132.635352 
" style="fill:none;stroke:#999999;"/>
    <path clip-path="url(#pac84f620d6)" d="M 136.081547 142.894383 
L 132.599587 140.161 
L 132.214536 139.948744 
" style="fill:none;stroke:#999999;"/>
    <path clip-path="url(#pac84f620d6)" d="M 124.080794 193.548052 
L 125.998714 194.922998 
" style="fill:none;stroke:#999999;"/>
    <path clip-path="url(#pac84f620d6)" d="M 69.273383 96.856098 
L 70.800752 97.999921 
" style="fill:none;stroke:#999999;"/>
    <path clip-path="url(#pac84f620d6)" d="M 69.273383 96.856098 
L 67.074926 97.832475 
L 65.479715 99.014032 
L 63.662642 100.643685 
L 61.720885 103.622342 
L 55.393215 113.287056 
L 53.669654 116.128926 
L 52.114782 119.006171 
L 51.333679 120.517904 
" style="fill:none;stroke:#999999;"/>
    <path clip-path="url(#pac84f620d6)" d="M 69.273383 96.856098 
L 68.481278 98.323022 
L 68.03572 100.113046 
L 67.1281 102.454935 
L 66.269986 104.454856 
L 64.227383 109.004206 
L 61.93908 112.600763 
L 59.346404 116.169019 
L 57.582504 117.855273 
L 52.949059 120.17122 
L 51.333679 120.517904 
" style="fill:none;stroke:#999999;"/>
    <path clip-path="url(#pac84f620d6)" d="M 69.273383 96.856098 
L 72.698503 94.962305 
L 75.287511 92.87984 
L 82.128582 86.627727 
L 83.085709 85.276365 
L 83.797136 83.670296 
L 88.3169 78.425219 
L 89.248357 77.507802 
" style="fill:none;stroke:#999999;"/>
    <path clip-path="url(#pac84f620d6)" d="M 65.202845 123.871546 
L 69.861961 118.635903 
L 78.40459 109.968791 
L 78.529273 109.841437 
L 79.713763 108.997131 
L 81.719695 108.268386 
L 83.743963 108.183483 
L 87.376276 108.037263 
" style="fill:none;stroke:#999999;"/>
    <path clip-path="url(#pac84f620d6)" d="M 87.376276 108.037263 
L 83.743963 108.183483 
L 81.719695 108.268386 
L 79.713763 108.997131 
L 78.529273 109.841437 
L 78.40459 109.968791 
L 69.861961 118.635903 
L 65.202845 123.871546 
" style="fill:none;stroke:#999999;"/>
    <path clip-path="url(#pac84f620d6)" d="M 87.376276 108.037263 
L 86.826203 106.110452 
L 84.061171 100.318226 
L 83.038036 98.919697 
L 82.775835 98.56122 
" style="fill:none;stroke:#999999;"/>
    <path clip-path="url(#pac84f620d6)" d="M 87.376276 108.037263 
L 89.176847 109.341457 
L 94.3677 113.395543 
L 100.282815 115.805825 
" style="fill:none;stroke:#999999;"/>
    <path clip-path="url(#pac84f620d6)" d="M 87.376276 108.037263 
L 85.309836 106.336858 
L 81.285138 103.266224 
L 80.733231 102.808695 
L 80.430691 102.556346 
L 78.523773 100.525765 
L 75.063815 95.700483 
L 70.800752 97.999921 
" style="fill:none;stroke:#999999;"/>
    <path clip-path="url(#pac84f620d6)" d="M 155.992346 22.70807 
L 162.088985 16.24606 
" style="fill:none;stroke:#999999;"/>
    <path clip-path="url(#pac84f620d6)" d="M 155.992346 22.70807 
L 147.697249 14.713101 
" style="fill:none;stroke:#999999;"/>
    <path clip-path="url(#pac84f620d6)" d="M 155.992346 22.70807 
L 143.645047 36.042451 
L 141.884814 36.358476 
" style="fill:none;stroke:#999999;"/>
    <path clip-path="url(#pac84f620d6)" d="M 147.697249 14.713101 
L 155.992346 22.70807 
" style="fill:none;stroke:#999999;"/>
    <path clip-path="url(#pac84f620d6)" d="M 147.697249 14.713101 
L 144.310635 18.40871 
L 141.767465 21.182186 
L 130.193936 33.80669 
" style="fill:none;stroke:#999999;"/>
    <path clip-path="url(#pac84f620d6)" d="M 42.89923 142.623167 
L 44.336754 138.460595 
L 45.403895 135.033843 
L 46.067649 132.972603 
L 47.209967 130.835895 
L 47.558346 130.31233 
" style="fill:none;stroke:#999999;"/>
    <path clip-path="url(#pac84f620d6)" d="M 53.63665 133.451358 
L 63.367436 148.481428 
L 65.26152 150.922369 
L 67.267451 152.728902 
L 72.9332 157.323061 
L 74.299214 158.839511 
L 75.258174 160.124838 
L 75.419529 160.537557 
" style="fill:none;stroke:#999999;"/>
    <path clip-path="url(#pac84f620d6)" d="M 53.63665 133.451358 
L 52.534671 131.51983 
L 51.808575 130.305255 
" style="fill:none;stroke:#999999;"/>
    <path clip-path="url(#pac84f620d6)" d="M 45.369057 131.352384 
L 44.998674 132.345269 
L 44.428432 134.783853 
L 43.526313 139.528949 
L 42.89923 142.623167 
" style="fill:none;stroke:#999999;"/>
    <path clip-path="url(#pac84f620d6)" d="M 47.558346 130.31233 
L 48.128588 129.927912 
L 48.531975 129.732165 
L 49.02154 129.614245 
L 49.65229 129.536418 
L 50.101516 129.524626 
L 50.68826 129.628395 
" style="fill:none;stroke:#999999;"/>
    <path clip-path="url(#pac84f620d6)" d="M 47.558346 130.31233 
L 48.535642 128.847765 
L 49.008705 128.20864 
L 49.419425 127.668566 
" style="fill:none;stroke:#999999;"/>
    <path clip-path="url(#pac84f620d6)" d="M 51.808575 130.305255 
L 51.410689 129.005778 
L 51.17049 128.168547 
L 50.959629 127.255847 
L 50.792774 125.975237 
L 50.737766 124.687552 
" style="fill:none;stroke:#999999;"/>
    <path clip-path="url(#pac84f620d6)" d="M 51.808575 130.305255 
L 50.706596 128.411462 
L 50.253702 127.850163 
L 50.103349 127.666208 
L 49.83198 127.498762 
L 49.613785 127.378484 
" style="fill:none;stroke:#999999;"/>
    <path clip-path="url(#pac84f620d6)" d="M 50.68826 129.628395 
L 51.507868 130.84297 
L 52.43199 132.071695 
L 53.63665 133.451358 
" style="fill:none;stroke:#999999;"/>
    <path clip-path="url(#pac84f620d6)" d="M 49.419425 127.668566 
L 49.613785 127.378484 
" style="fill:none;stroke:#999999;"/>
    <path clip-path="url(#pac84f620d6)" d="M 49.419425 127.668566 
L 49.610117 128.038835 
L 49.853983 128.508156 
L 50.537907 129.45859 
L 50.68826 129.628395 
" style="fill:none;stroke:#999999;"/>
    <path clip-path="url(#pac84f620d6)" d="M 49.613785 127.378484 
L 50.121685 126.621438 
L 50.4884 125.753547 
L 50.737766 124.687552 
" style="fill:none;stroke:#999999;"/>
    <path clip-path="url(#pac84f620d6)" d="M 49.613785 127.378484 
L 49.490935 127.36905 
L 49.336915 127.361975 
" style="fill:none;stroke:#999999;"/>
    <path clip-path="url(#pac84f620d6)" d="M 49.336915 127.361975 
L 49.360751 127.494045 
L 49.419425 127.668566 
" style="fill:none;stroke:#999999;"/>
    <path clip-path="url(#pac84f620d6)" d="M 49.336915 127.361975 
L 49.137055 127.350183 
L 48.818013 127.432727 
L 48.39629 127.812429 
L 47.516174 128.937385 
L 46.75524 129.972721 
L 46.168496 130.578829 
L 45.369057 131.352384 
" style="fill:none;stroke:#999999;"/>
    <path clip-path="url(#pac84f620d6)" d="M 50.737766 124.687552 
L 50.89362 123.524861 
L 50.996301 122.154632 
L 51.333679 120.517904 
" style="fill:none;stroke:#999999;"/>
    <path clip-path="url(#pac84f620d6)" d="M 49.833814 123.88098 
L 49.05271 125.482332 
" style="fill:none;stroke:#999999;"/>
    <path clip-path="url(#pac84f620d6)" d="M 49.833814 123.88098 
L 49.743968 124.711136 
L 49.63212 125.494124 
L 49.404757 126.241736 
L 49.287408 126.600212 
L 49.287408 127.081325 
L 49.336915 127.361975 
" style="fill:none;stroke:#999999;"/>
    <path clip-path="url(#pac84f620d6)" d="M 51.333679 120.517904 
L 52.114782 119.006171 
L 53.669654 116.128926 
L 55.393215 113.287056 
L 61.720885 103.622342 
L 63.662642 100.643685 
L 65.479715 99.014032 
L 67.074926 97.832475 
L 69.273383 96.856098 
" style="fill:none;stroke:#999999;"/>
    <path clip-path="url(#pac84f620d6)" d="M 51.333679 120.517904 
L 52.949059 120.17122 
L 57.582504 117.855273 
L 59.346404 116.169019 
L 61.93908 112.600763 
L 64.227383 109.004206 
L 66.269986 104.454856 
L 67.1281 102.454935 
L 68.03572 100.113046 
L 68.481278 98.323022 
L 69.273383 96.856098 
" style="fill:none;stroke:#999999;"/>
    <path clip-path="url(#pac84f620d6)" d="M 51.333679 120.517904 
L 50.350882 122.515467 
L 49.833814 123.88098 
" style="fill:none;stroke:#999999;"/>
    <path clip-path="url(#pac84f620d6)" d="M 70.800752 97.999921 
L 69.273383 96.856098 
" style="fill:none;stroke:#999999;"/>
    <path clip-path="url(#pac84f620d6)" d="M 70.800752 97.999921 
L 71.74321 100.275775 
L 73.86649 103.756771 
L 75.672562 106.027908 
L 76.328982 106.61279 
L 74.150694 108.473566 
L 71.655198 110.539523 
L 68.844326 112.886129 
L 67.076759 113.947408 
L 64.698612 114.980386 
L 63.086899 115.664321 
L 60.532728 117.50623 
L 59.427082 118.480248 
L 57.716356 119.74435 
L 54.137216 121.48013 
" style="fill:none;stroke:#999999;"/>
    <path clip-path="url(#pac84f620d6)" d="M 70.800752 97.999921 
L 75.063815 95.700483 
L 78.523773 100.525765 
L 80.430691 102.556346 
L 80.733231 102.808695 
L 81.285138 103.266224 
L 85.309836 106.336858 
L 87.376276 108.037263 
" style="fill:none;stroke:#999999;"/>
    <path clip-path="url(#pac84f620d6)" d="M 28.595506 66.508235 
L 29.543465 69.083605 
L 38.485814 70.451476 
L 52.272469 69.710939 
L 63.778157 71.01985 
L 79.501068 74.892339 
L 81.941558 74.543296 
" style="fill:none;stroke:#999999;"/>
    <path clip-path="url(#pac84f620d6)" d="M 28.595506 66.508235 
L 32.352503 67.687434 
L 72.35379 68.793522 
L 77.762839 68.519948 
L 79.79444 68.338351 
L 82.401785 67.831296 
L 85.177819 67.267639 
L 88.584602 66.494084 
" style="fill:none;stroke:#999999;"/>
    <path clip-path="url(#pac84f620d6)" d="M 75.419529 160.537557 
L 98.209041 152.651075 
L 102.024712 150.875201 
" style="fill:none;stroke:#999999;"/>
    <path clip-path="url(#pac84f620d6)" d="M 75.419529 160.537557 
L 75.258174 160.124838 
L 74.299214 158.839511 
L 72.9332 157.323061 
L 67.267451 152.728902 
L 65.26152 150.922369 
L 63.367436 148.481428 
L 53.63665 133.451358 
" style="fill:none;stroke:#999999;"/>
    <path clip-path="url(#pac84f620d6)" d="M 75.419529 160.537557 
L 76.376655 163.0068 
L 79.141688 173.499312 
L 81.360314 180.277348 
L 87.024229 194.246138 
L 95.730047 207.990881 
L 106.872686 241.213632 
L 110.605847 258.481821 
L 116.143245 265.094768 
L 117.538596 266.736213 
L 118.864271 268.297473 
L 121.843832 275.172202 
L 122.043692 279.389018 
L 121.726483 283.976102 
L 120.688679 286.108093 
L 118.794596 288.525451 
L 103.887625 295.848276 
L 100.286482 299.298612 
L 97.372931 302.954129 
L 95.385335 307.465744 
L 91.452315 324.347156 
" style="fill:none;stroke:#999999;"/>
    <path clip-path="url(#pac84f620d6)" d="M 102.024712 150.875201 
L 98.209041 152.651075 
L 75.419529 160.537557 
" style="fill:none;stroke:#999999;"/>
    <path clip-path="url(#pac84f620d6)" d="M 102.024712 150.875201 
L 106.249271 146.769231 
L 118.39671 133.151842 
" style="fill:none;stroke:#999999;"/>
    <path clip-path="url(#pac84f620d6)" d="M 102.024712 150.875201 
L 100.21864 147.40364 
L 96.413971 139.960536 
" style="fill:none;stroke:#999999;"/>
    <path clip-path="url(#pac84f620d6)" d="M 102.024712 150.875201 
L 105.468167 157.492866 
L 113.992461 152.094493 
L 130.485474 141.594906 
L 132.214536 139.948744 
" style="fill:none;stroke:#999999;"/>
    <path clip-path="url(#pac84f620d6)" d="M 96.413971 139.960536 
L 110.050273 126.222869 
" style="fill:none;stroke:#999999;"/>
    <path clip-path="url(#pac84f620d6)" d="M 96.413971 139.960536 
L 93.405073 134.076333 
L 91.470651 132.114146 
" style="fill:none;stroke:#999999;"/>
    <path clip-path="url(#pac84f620d6)" d="M 96.413971 139.960536 
L 100.21864 147.40364 
L 102.024712 150.875201 
" style="fill:none;stroke:#999999;"/>
    <path clip-path="url(#pac84f620d6)" d="M 132.214536 139.948744 
L 130.485474 141.594906 
L 113.992461 152.094493 
L 105.468167 157.492866 
L 102.024712 150.875201 
" style="fill:none;stroke:#999999;"/>
    <path clip-path="url(#pac84f620d6)" d="M 132.214536 139.948744 
L 132.599587 140.161 
L 136.081547 142.894383 
" style="fill:none;stroke:#999999;"/>
    <path clip-path="url(#pac84f620d6)" d="M 132.214536 139.948744 
L 126.974177 137.050273 
L 118.39671 133.151842 
" style="fill:none;stroke:#999999;"/>
    <path clip-path="url(#pac84f620d6)" d="M 118.39671 133.151842 
L 106.249271 146.769231 
L 102.024712 150.875201 
" style="fill:none;stroke:#999999;"/>
    <path clip-path="url(#pac84f620d6)" d="M 118.39671 133.151842 
L 126.974177 137.050273 
L 132.214536 139.948744 
" style="fill:none;stroke:#999999;"/>
    <path clip-path="url(#pac84f620d6)" d="M 118.39671 133.151842 
L 115.613342 131.88774 
L 112.514599 129.673205 
L 110.050273 126.222869 
" style="fill:none;stroke:#999999;"/>
    <path clip-path="url(#pac84f620d6)" d="M 140.630649 132.635352 
L 142.524732 134.055108 
L 144.156615 135.897017 
L 143.81557 138.109194 
L 141.5236 140.399198 
L 139.471829 141.793011 
L 137.654755 142.637318 
L 136.081547 142.894383 
" style="fill:none;stroke:#999999;"/>
    <path clip-path="url(#pac84f620d6)" d="M 140.630649 132.635352 
L 131.152896 125.527141 
L 127.361061 121.631068 
L 121.968515 114.676153 
" style="fill:none;stroke:#999999;"/>
    <path clip-path="url(#pac84f620d6)" d="M 140.630649 132.635352 
L 149.134773 122.352738 
L 150.027724 120.826854 
L 150.214749 119.225502 
L 151.25622 105.228411 
" style="fill:none;stroke:#999999;"/>
    <path clip-path="url(#pac84f620d6)" d="M 91.470651 132.114146 
L 100.031615 121.864549 
L 101.707504 120.30329 
L 104.357021 118.534492 
" style="fill:none;stroke:#999999;"/>
    <path clip-path="url(#pac84f620d6)" d="M 91.470651 132.114146 
L 89.794762 130.65194 
L 77.137589 118.961362 
L 78.663124 117.397744 
L 80.227164 116.430801 
L 82.124915 115.87186 
L 84.061171 115.87186 
L 86.44482 116.319956 
L 90.91141 117.91895 
L 93.628769 118.553359 
L 96.868697 118.775048 
L 100.36716 118.701938 
L 103.783111 117.999135 
" style="fill:none;stroke:#999999;"/>
    <path clip-path="url(#pac84f620d6)" d="M 91.470651 132.114146 
L 93.405073 134.076333 
L 96.413971 139.960536 
" style="fill:none;stroke:#999999;"/>
    <path clip-path="url(#pac84f620d6)" d="M 110.050273 126.222869 
L 96.413971 139.960536 
" style="fill:none;stroke:#999999;"/>
    <path clip-path="url(#pac84f620d6)" d="M 110.050273 126.222869 
L 112.514599 129.673205 
L 115.613342 131.88774 
L 118.39671 133.151842 
" style="fill:none;stroke:#999999;"/>
    <path clip-path="url(#pac84f620d6)" d="M 110.050273 126.222869 
L 109.564376 125.54365 
L 106.12092 120.183012 
L 104.357021 118.534492 
" style="fill:none;stroke:#999999;"/>
    <path clip-path="url(#pac84f620d6)" d="M 54.137216 121.48013 
L 57.716356 119.74435 
L 59.427082 118.480248 
L 60.532728 117.50623 
L 63.086899 115.664321 
L 64.698612 114.980386 
L 67.076759 113.947408 
L 68.844326 112.886129 
L 71.655198 110.539523 
L 74.150694 108.473566 
L 76.328982 106.61279 
L 75.672562 106.027908 
L 73.86649 103.756771 
L 71.74321 100.275775 
L 70.800752 97.999921 
" style="fill:none;stroke:#999999;"/>
    <path clip-path="url(#pac84f620d6)" d="M 104.357021 118.534492 
L 103.783111 117.999135 
" style="fill:none;stroke:#999999;"/>
    <path clip-path="url(#pac84f620d6)" d="M 104.357021 118.534492 
L 101.707504 120.30329 
L 100.031615 121.864549 
L 91.470651 132.114146 
" style="fill:none;stroke:#999999;"/>
    <path clip-path="url(#pac84f620d6)" d="M 104.357021 118.534492 
L 106.12092 120.183012 
L 109.564376 125.54365 
L 110.050273 126.222869 
" style="fill:none;stroke:#999999;"/>
    <path clip-path="url(#pac84f620d6)" d="M 103.783111 117.999135 
L 104.357021 118.534492 
" style="fill:none;stroke:#999999;"/>
    <path clip-path="url(#pac84f620d6)" d="M 103.783111 117.999135 
L 100.36716 118.701938 
L 96.868697 118.775048 
L 93.628769 118.553359 
L 90.91141 117.91895 
L 86.44482 116.319956 
L 84.061171 115.87186 
L 82.124915 115.87186 
L 80.227164 116.430801 
L 78.663124 117.397744 
L 77.137589 118.961362 
L 89.794762 130.65194 
L 91.470651 132.114146 
" style="fill:none;stroke:#999999;"/>
    <path clip-path="url(#pac84f620d6)" d="M 103.783111 117.999135 
L 102.334587 116.643056 
L 100.282815 115.805825 
" style="fill:none;stroke:#999999;"/>
    <path clip-path="url(#pac84f620d6)" d="M 100.282815 115.805825 
L 99.558553 114.367203 
" style="fill:none;stroke:#999999;"/>
    <path clip-path="url(#pac84f620d6)" d="M 100.282815 115.805825 
L 102.334587 116.643056 
L 103.783111 117.999135 
" style="fill:none;stroke:#999999;"/>
    <path clip-path="url(#pac84f620d6)" d="M 100.282815 115.805825 
L 94.3677 113.395543 
L 89.176847 109.341457 
L 87.376276 108.037263 
" style="fill:none;stroke:#999999;"/>
    <path clip-path="url(#pac84f620d6)" d="M 121.968515 114.676153 
L 142.172686 104.707205 
L 143.661549 104.372312 
L 149.506988 104.782674 
L 151.25622 105.228411 
" style="fill:none;stroke:#999999;"/>
    <path clip-path="url(#pac84f620d6)" d="M 121.968515 114.676153 
L 127.361061 121.631068 
L 131.152896 125.527141 
L 140.630649 132.635352 
" style="fill:none;stroke:#999999;"/>
    <path clip-path="url(#pac84f620d6)" d="M 121.968515 114.676153 
L 121.359768 113.890806 
L 119.991921 112.048897 
L 118.253691 111.155065 
L 111.830675 110.839039 
L 106.617819 111.155065 
L 103.458568 111.890885 
L 99.558553 114.367203 
" style="fill:none;stroke:#999999;"/>
    <path clip-path="url(#pac84f620d6)" d="M 99.558553 114.367203 
L 100.282815 115.805825 
" style="fill:none;stroke:#999999;"/>
    <path clip-path="url(#pac84f620d6)" d="M 99.558553 114.367203 
L 98.254881 111.777682 
L 92.484618 102.509178 
L 92.112402 101.466766 
L 92.187579 100.535199 
L 92.895339 99.679101 
L 101.287615 94.04253 
L 106.317113 90.665304 
" style="fill:none;stroke:#999999;"/>
    <path clip-path="url(#pac84f620d6)" d="M 99.558553 114.367203 
L 103.458568 111.890885 
L 106.617819 111.155065 
L 111.830675 110.839039 
L 118.253691 111.155065 
L 119.991921 112.048897 
L 121.359768 113.890806 
L 121.968515 114.676153 
" style="fill:none;stroke:#999999;"/>
    <path clip-path="url(#pac84f620d6)" d="M 158.031282 106.978342 
L 151.25622 105.228411 
" style="fill:none;stroke:#999999;"/>
    <path clip-path="url(#pac84f620d6)" d="M 151.25622 105.228411 
L 158.031282 106.978342 
" style="fill:none;stroke:#999999;"/>
    <path clip-path="url(#pac84f620d6)" d="M 151.25622 105.228411 
L 149.506988 104.782674 
L 143.661549 104.372312 
L 142.172686 104.707205 
L 121.968515 114.676153 
" style="fill:none;stroke:#999999;"/>
    <path clip-path="url(#pac84f620d6)" d="M 151.25622 105.228411 
L 150.214749 119.225502 
L 150.027724 120.826854 
L 149.134773 122.352738 
L 140.630649 132.635352 
" style="fill:none;stroke:#999999;"/>
    <path clip-path="url(#pac84f620d6)" d="M 82.775835 98.56122 
L 84.184021 97.110805 
L 95.984914 89.368185 
L 97.548954 88.339924 
L 109.461695 80.507684 
L 114.923917 76.675288 
" style="fill:none;stroke:#999999;"/>
    <path clip-path="url(#pac84f620d6)" d="M 82.775835 98.56122 
L 82.176255 97.891435 
L 85.984592 93.816124 
L 94.085329 86.016902 
L 95.17264 85.123069 
L 98.451073 81.689242 
L 99.53655 80.741166 
L 99.822588 79.913368 
" style="fill:none;stroke:#999999;"/>
    <path clip-path="url(#pac84f620d6)" d="M 82.775835 98.56122 
L 83.038036 98.919697 
L 84.061171 100.318226 
L 86.826203 106.110452 
L 87.376276 108.037263 
" style="fill:none;stroke:#999999;"/>
    <path clip-path="url(#pac84f620d6)" d="M 106.317113 90.665304 
L 112.960158 86.203215 
L 115.789365 84.007547 
L 118.662578 81.981683 
" style="fill:none;stroke:#999999;"/>
    <path clip-path="url(#pac84f620d6)" d="M 106.317113 90.665304 
L 101.287615 94.04253 
L 92.895339 99.679101 
L 92.187579 100.535199 
L 92.112402 101.466766 
L 92.484618 102.509178 
L 98.254881 111.777682 
L 99.558553 114.367203 
" style="fill:none;stroke:#999999;"/>
    <path clip-path="url(#pac84f620d6)" d="M 106.317113 90.665304 
L 111.322775 97.556543 
L 112.254231 98.228686 
L 114.560869 98.377265 
L 116.572302 97.893793 
L 126.809155 93.724146 
L 129.489843 92.160528 
L 129.854724 87.665422 
" style="fill:none;stroke:#999999;"/>
    <path clip-path="url(#pac84f620d6)" d="M 129.854724 87.665422 
L 133.393525 87.113557 
L 137.645587 86.448489 
L 144.039266 86.743288 
L 144.75436 86.832908 
" style="fill:none;stroke:#999999;"/>
    <path clip-path="url(#pac84f620d6)" d="M 129.854724 87.665422 
L 128.84259 87.823435 
L 125.767684 86.873 
L 123.200678 85.821155 
L 121.038892 84.342439 
L 118.662578 81.981683 
" style="fill:none;stroke:#999999;"/>
    <path clip-path="url(#pac84f620d6)" d="M 129.854724 87.665422 
L 130.346122 85.571165 
L 130.234274 83.969813 
L 129.594356 81.965174 
L 128.298018 80.210526 
" style="fill:none;stroke:#999999;"/>
    <path clip-path="url(#pac84f620d6)" d="M 129.854724 87.665422 
L 129.489843 92.160528 
L 126.809155 93.724146 
L 116.572302 97.893793 
L 114.560869 98.377265 
L 112.254231 98.228686 
L 111.322775 97.556543 
L 106.317113 90.665304 
" style="fill:none;stroke:#999999;"/>
    <path clip-path="url(#pac84f620d6)" d="M 144.75436 86.832908 
L 151.08203 87.618254 
L 157.710406 89.448371 
" style="fill:none;stroke:#999999;"/>
    <path clip-path="url(#pac84f620d6)" d="M 144.75436 86.832908 
L 144.039266 86.743288 
L 137.645587 86.448489 
L 133.393525 87.113557 
L 129.854724 87.665422 
" style="fill:none;stroke:#999999;"/>
    <path clip-path="url(#pac84f620d6)" d="M 144.75436 86.832908 
L 145.449285 80.39684 
L 145.975522 77.003105 
L 146.371574 75.974844 
L 153.056791 70.262804 
L 154.189941 69.236901 
L 154.400802 68.446838 
L 153.689375 67.498762 
L 152.583729 66.920954 
L 145.871008 64.98471 
" style="fill:none;stroke:#999999;"/>
    <path clip-path="url(#pac84f620d6)" d="M 128.298018 80.210526 
L 127.361061 79.323769 
" style="fill:none;stroke:#999999;"/>
    <path clip-path="url(#pac84f620d6)" d="M 128.298018 80.210526 
L 139.642351 70.60713 
" style="fill:none;stroke:#999999;"/>
    <path clip-path="url(#pac84f620d6)" d="M 128.298018 80.210526 
L 129.594356 81.965174 
L 130.234274 83.969813 
L 130.346122 85.571165 
L 129.854724 87.665422 
" style="fill:none;stroke:#999999;"/>
    <path clip-path="url(#pac84f620d6)" d="M 99.822588 79.913368 
L 103.761108 77.34979 
L 110.842378 71.595299 
" style="fill:none;stroke:#999999;"/>
    <path clip-path="url(#pac84f620d6)" d="M 99.822588 79.913368 
L 98.011015 80.083173 
L 94.19351 82.373177 
L 92.77799 82.226956 
L 89.248357 77.507802 
" style="fill:none;stroke:#999999;"/>
    <path clip-path="url(#pac84f620d6)" d="M 99.822588 79.913368 
L 99.53655 80.741166 
L 98.451073 81.689242 
L 95.17264 85.123069 
L 94.085329 86.016902 
L 85.984592 93.816124 
L 82.176255 97.891435 
L 82.775835 98.56122 
" style="fill:none;stroke:#999999;"/>
    <path clip-path="url(#pac84f620d6)" d="M 127.361061 79.323769 
L 128.298018 80.210526 
" style="fill:none;stroke:#999999;"/>
    <path clip-path="url(#pac84f620d6)" d="M 127.361061 79.323769 
L 114.989926 67.425652 
" style="fill:none;stroke:#999999;"/>
    <path clip-path="url(#pac84f620d6)" d="M 127.361061 79.323769 
L 129.233142 74.000865 
L 133.351353 65.67572 
" style="fill:none;stroke:#999999;"/>
    <path clip-path="url(#pac84f620d6)" d="M 114.923917 76.675288 
L 118.662578 81.981683 
" style="fill:none;stroke:#999999;"/>
    <path clip-path="url(#pac84f620d6)" d="M 114.923917 76.675288 
L 110.842378 71.595299 
" style="fill:none;stroke:#999999;"/>
    <path clip-path="url(#pac84f620d6)" d="M 114.923917 76.675288 
L 109.461695 80.507684 
L 97.548954 88.339924 
L 95.984914 89.368185 
L 84.184021 97.110805 
L 82.775835 98.56122 
" style="fill:none;stroke:#999999;"/>
    <path clip-path="url(#pac84f620d6)" d="M 139.642351 70.60713 
L 128.298018 80.210526 
" style="fill:none;stroke:#999999;"/>
    <path clip-path="url(#pac84f620d6)" d="M 139.642351 70.60713 
L 144.567336 66.437483 
L 145.871008 64.98471 
" style="fill:none;stroke:#999999;"/>
    <path clip-path="url(#pac84f620d6)" d="M 139.642351 70.60713 
L 137.948127 68.078928 
L 136.761804 67.027082 
L 133.351353 65.67572 
" style="fill:none;stroke:#999999;"/>
    <path clip-path="url(#pac84f620d6)" d="M 114.989926 67.425652 
L 117.89431 63.977674 
" style="fill:none;stroke:#999999;"/>
    <path clip-path="url(#pac84f620d6)" d="M 114.989926 67.425652 
L 110.842378 71.595299 
" style="fill:none;stroke:#999999;"/>
    <path clip-path="url(#pac84f620d6)" d="M 114.989926 67.425652 
L 127.361061 79.323769 
" style="fill:none;stroke:#999999;"/>
    <path clip-path="url(#pac84f620d6)" d="M 133.351353 65.67572 
L 134.999738 62.343304 
" style="fill:none;stroke:#999999;"/>
    <path clip-path="url(#pac84f620d6)" d="M 133.351353 65.67572 
L 129.233142 74.000865 
L 127.361061 79.323769 
" style="fill:none;stroke:#999999;"/>
    <path clip-path="url(#pac84f620d6)" d="M 133.351353 65.67572 
L 136.761804 67.027082 
L 137.948127 68.078928 
L 139.642351 70.60713 
" style="fill:none;stroke:#999999;"/>
    <path clip-path="url(#pac84f620d6)" d="M 145.871008 64.98471 
L 144.567336 66.437483 
L 139.642351 70.60713 
" style="fill:none;stroke:#999999;"/>
    <path clip-path="url(#pac84f620d6)" d="M 145.871008 64.98471 
L 146.727288 63.086199 
L 147.843935 62.156991 
L 164.017907 56.03459 
" style="fill:none;stroke:#999999;"/>
    <path clip-path="url(#pac84f620d6)" d="M 145.871008 64.98471 
L 152.583729 66.920954 
L 153.689375 67.498762 
L 154.400802 68.446838 
L 154.189941 69.236901 
L 153.056791 70.262804 
L 146.371574 75.974844 
L 145.975522 77.003105 
L 145.449285 80.39684 
L 144.75436 86.832908 
" style="fill:none;stroke:#999999;"/>
    <path clip-path="url(#pac84f620d6)" d="M 134.999738 62.343304 
L 133.351353 65.67572 
" style="fill:none;stroke:#999999;"/>
    <path clip-path="url(#pac84f620d6)" d="M 134.999738 62.343304 
L 137.271538 58.58166 
L 141.62628 52.478126 
L 149.407975 42.278055 
" style="fill:none;stroke:#999999;"/>
    <path clip-path="url(#pac84f620d6)" d="M 134.999738 62.343304 
L 130.129761 60.102826 
L 123.186009 58.121772 
" style="fill:none;stroke:#999999;"/>
    <path clip-path="url(#pac84f620d6)" d="M 84.110678 58.576943 
L 90.693214 55.522817 
L 95.35233 52.522935 
L 99.248679 49.126842 
L 104.065482 44.572776 
L 109.250834 39.072992 
L 112.927153 42.348807 
" style="fill:none;stroke:#999999;"/>
    <path clip-path="url(#pac84f620d6)" d="M 179.221916 57.268032 
L 174.010894 51.034786 
" style="fill:none;stroke:#999999;"/>
    <path clip-path="url(#pac84f620d6)" d="M 164.017907 56.03459 
L 161.24554 49.947565 
L 160.625792 49.360324 
" style="fill:none;stroke:#999999;"/>
    <path clip-path="url(#pac84f620d6)" d="M 164.017907 56.03459 
L 147.843935 62.156991 
L 146.727288 63.086199 
L 145.871008 64.98471 
" style="fill:none;stroke:#999999;"/>
    <path clip-path="url(#pac84f620d6)" d="M 164.017907 56.03459 
L 172.525698 52.813018 
L 174.010894 51.034786 
" style="fill:none;stroke:#999999;"/>
    <path clip-path="url(#pac84f620d6)" d="M 174.010894 51.034786 
L 179.221916 57.268032 
" style="fill:none;stroke:#999999;"/>
    <path clip-path="url(#pac84f620d6)" d="M 174.010894 51.034786 
L 167.87575 43.697811 
" style="fill:none;stroke:#999999;"/>
    <path clip-path="url(#pac84f620d6)" d="M 174.010894 51.034786 
L 172.525698 52.813018 
L 164.017907 56.03459 
" style="fill:none;stroke:#999999;"/>
    <path clip-path="url(#pac84f620d6)" d="M 160.625792 49.360324 
L 167.87575 43.697811 
" style="fill:none;stroke:#999999;"/>
    <path clip-path="url(#pac84f620d6)" d="M 160.625792 49.360324 
L 158.528181 47.376911 
L 154.433806 44.101097 
L 152.873433 42.865296 
" style="fill:none;stroke:#999999;"/>
    <path clip-path="url(#pac84f620d6)" d="M 160.625792 49.360324 
L 161.24554 49.947565 
L 164.017907 56.03459 
" style="fill:none;stroke:#999999;"/>
    <path clip-path="url(#pac84f620d6)" d="M 167.87575 43.697811 
L 160.625792 49.360324 
" style="fill:none;stroke:#999999;"/>
    <path clip-path="url(#pac84f620d6)" d="M 167.87575 43.697811 
L 174.010894 51.034786 
" style="fill:none;stroke:#999999;"/>
    <path clip-path="url(#pac84f620d6)" d="M 167.87575 43.697811 
L 175.653778 37.624936 
L 171.893114 30.886993 
" style="fill:none;stroke:#999999;"/>
    <path clip-path="url(#pac84f620d6)" d="M 114.095141 43.388861 
L 112.927153 42.348807 
" style="fill:none;stroke:#999999;"/>
    <path clip-path="url(#pac84f620d6)" d="M 114.095141 43.388861 
L 107.303577 50.655084 
L 103.696933 54.81294 
L 103.148694 55.452066 
" style="fill:none;stroke:#999999;"/>
    <path clip-path="url(#pac84f620d6)" d="M 114.095141 43.388861 
L 116.596138 45.86282 
L 117.866806 47.254275 
" style="fill:none;stroke:#999999;"/>
    <path clip-path="url(#pac84f620d6)" d="M 152.873433 42.865296 
L 149.407975 42.278055 
" style="fill:none;stroke:#999999;"/>
    <path clip-path="url(#pac84f620d6)" d="M 152.873433 42.865296 
L 154.433806 44.101097 
L 158.528181 47.376911 
L 160.625792 49.360324 
" style="fill:none;stroke:#999999;"/>
    <path clip-path="url(#pac84f620d6)" d="M 152.873433 42.865296 
L 155.084726 41.308754 
L 171.893114 30.886993 
" style="fill:none;stroke:#999999;"/>
    <path clip-path="url(#pac84f620d6)" d="M 112.927153 42.348807 
L 121.123237 33.676978 
" style="fill:none;stroke:#999999;"/>
    <path clip-path="url(#pac84f620d6)" d="M 112.927153 42.348807 
L 114.095141 43.388861 
" style="fill:none;stroke:#999999;"/>
    <path clip-path="url(#pac84f620d6)" d="M 112.927153 42.348807 
L 109.250834 39.072992 
L 104.065482 44.572776 
L 99.248679 49.126842 
L 95.35233 52.522935 
L 90.693214 55.522817 
L 84.110678 58.576943 
" style="fill:none;stroke:#999999;"/>
    <path clip-path="url(#pac84f620d6)" d="M 149.407975 42.278055 
L 152.873433 42.865296 
" style="fill:none;stroke:#999999;"/>
    <path clip-path="url(#pac84f620d6)" d="M 149.407975 42.278055 
L 146.652111 41.311112 
L 144.679184 39.747494 
L 141.884814 36.358476 
" style="fill:none;stroke:#999999;"/>
    <path clip-path="url(#pac84f620d6)" d="M 149.407975 42.278055 
L 141.62628 52.478126 
L 137.271538 58.58166 
L 134.999738 62.343304 
" style="fill:none;stroke:#999999;"/>
    <path clip-path="url(#pac84f620d6)" d="M 125.905202 38.7381 
L 120.034093 44.888802 
" style="fill:none;stroke:#999999;"/>
    <path clip-path="url(#pac84f620d6)" d="M 125.905202 38.7381 
L 130.193936 33.80669 
" style="fill:none;stroke:#999999;"/>
    <path clip-path="url(#pac84f620d6)" d="M 125.905202 38.7381 
L 124.836227 37.287685 
L 121.123237 33.676978 
" style="fill:none;stroke:#999999;"/>
    <path clip-path="url(#pac84f620d6)" d="M 137.018504 40.120121 
L 130.193936 33.80669 
" style="fill:none;stroke:#999999;"/>
    <path clip-path="url(#pac84f620d6)" d="M 137.018504 40.120121 
L 140.350111 36.632051 
L 141.884814 36.358476 
" style="fill:none;stroke:#999999;"/>
    <path clip-path="url(#pac84f620d6)" d="M 137.018504 40.120121 
L 131.941333 45.433591 
L 130.514811 46.664675 
L 125.630166 50.070202 
" style="fill:none;stroke:#999999;"/>
    <path clip-path="url(#pac84f620d6)" d="M 141.884814 36.358476 
L 143.645047 36.042451 
L 155.992346 22.70807 
" style="fill:none;stroke:#999999;"/>
    <path clip-path="url(#pac84f620d6)" d="M 141.884814 36.358476 
L 140.350111 36.632051 
L 137.018504 40.120121 
" style="fill:none;stroke:#999999;"/>
    <path clip-path="url(#pac84f620d6)" d="M 141.884814 36.358476 
L 144.679184 39.747494 
L 146.652111 41.311112 
L 149.407975 42.278055 
" style="fill:none;stroke:#999999;"/>
    <path clip-path="url(#pac84f620d6)" d="M 130.193936 33.80669 
L 125.905202 38.7381 
" style="fill:none;stroke:#999999;"/>
    <path clip-path="url(#pac84f620d6)" d="M 130.193936 33.80669 
L 137.018504 40.120121 
" style="fill:none;stroke:#999999;"/>
    <path clip-path="url(#pac84f620d6)" d="M 130.193936 33.80669 
L 141.767465 21.182186 
L 144.310635 18.40871 
L 147.697249 14.713101 
" style="fill:none;stroke:#999999;"/>
    <path clip-path="url(#pac84f620d6)" d="M 121.123237 33.676978 
L 125.571491 28.806887 
" style="fill:none;stroke:#999999;"/>
    <path clip-path="url(#pac84f620d6)" d="M 121.123237 33.676978 
L 112.927153 42.348807 
" style="fill:none;stroke:#999999;"/>
    <path clip-path="url(#pac84f620d6)" d="M 121.123237 33.676978 
L 113.85861 26.964978 
" style="fill:none;stroke:#999999;"/>
    <path clip-path="url(#pac84f620d6)" d="M 121.123237 33.676978 
L 124.836227 37.287685 
L 125.905202 38.7381 
" style="fill:none;stroke:#999999;"/>
    <path clip-path="url(#pac84f620d6)" d="M 171.893114 30.886993 
L 177.551529 28.059274 
L 180.047025 26.868283 
L 182.856063 25.177312 
" style="fill:none;stroke:#999999;"/>
    <path clip-path="url(#pac84f620d6)" d="M 171.893114 30.886993 
L 155.084726 41.308754 
L 152.873433 42.865296 
" style="fill:none;stroke:#999999;"/>
    <path clip-path="url(#pac84f620d6)" d="M 171.893114 30.886993 
L 175.653778 37.624936 
L 167.87575 43.697811 
" style="fill:none;stroke:#999999;"/>
    <path clip-path="url(#pac84f620d6)" d="M 171.893114 30.886993 
L 167.947259 24.410833 
L 164.410292 18.901616 
L 162.088985 16.24606 
" style="fill:none;stroke:#999999;"/>
    <path clip-path="url(#pac84f620d6)" d="M 125.571491 28.806887 
L 121.123237 33.676978 
" style="fill:none;stroke:#999999;"/>
    <path clip-path="url(#pac84f620d6)" d="M 113.85861 26.964978 
L 121.123237 33.676978 
" style="fill:none;stroke:#999999;"/>
    <path clip-path="url(#pac84f620d6)" d="M 182.856063 25.177312 
L 187.377661 22.455721 
" style="fill:none;stroke:#999999;"/>
    <path clip-path="url(#pac84f620d6)" d="M 182.856063 25.177312 
L 174.425282 10.51987 
" style="fill:none;stroke:#999999;"/>
    <path clip-path="url(#pac84f620d6)" d="M 182.856063 25.177312 
L 180.047025 26.868283 
L 177.551529 28.059274 
L 171.893114 30.886993 
" style="fill:none;stroke:#999999;"/>
    <path clip-path="url(#pac84f620d6)" d="M 187.377661 22.455721 
L 191.462868 20.41099 
" style="fill:none;stroke:#999999;"/>
    <path clip-path="url(#pac84f620d6)" d="M 187.377661 22.455721 
L 182.856063 25.177312 
" style="fill:none;stroke:#999999;"/>
    <path clip-path="url(#pac84f620d6)" d="M 187.377661 22.455721 
L 190.612088 28.863488 
L 192.130289 35.292481 
" style="fill:none;stroke:#999999;"/>
    <path clip-path="url(#pac84f620d6)" d="M 187.377661 22.455721 
L 180.235884 8.307692 
L 174.425282 10.51987 
" style="fill:none;stroke:#999999;"/>
    <path clip-path="url(#pac84f620d6)" d="M 191.462868 20.41099 
L 187.377661 22.455721 
" style="fill:none;stroke:#999999;"/>
    <path clip-path="url(#pac84f620d6)" d="M 174.425282 10.51987 
L 182.856063 25.177312 
" style="fill:none;stroke:#999999;"/>
    <path clip-path="url(#pac84f620d6)" d="M 174.425282 10.51987 
L 180.235884 8.307692 
L 187.377661 22.455721 
" style="fill:none;stroke:#999999;"/>
    <path clip-path="url(#pac84f620d6)" d="M 174.425282 10.51987 
L 164.555144 14.279156 
L 162.088985 16.24606 
" style="fill:none;stroke:#999999;"/>
    <path clip-path="url(#pac84f620d6)" d="M 184.816156 412.963956 
L 190.773443 410.237648 
L 197.96106 399.226288 
" style="fill:none;stroke:#999999;"/>
    <path clip-path="url(#pac84f620d6)" d="M 184.816156 412.963956 
L 177.661543 409.051374 
L 170.065039 402.337015 
L 163.28631 399.502221 
L 159.534814 396.6179 
L 160.139894 390.967179 
L 151.531256 372.107071 
L 148.232653 368.788805 
L 144.075937 366.291262 
L 141.19539 362.041429 
L 139.801872 358.12413 
L 141.912318 354.381353 
L 147.361705 351.541842 
L 153.874566 350.900358 
L 156.995312 347.999528 
L 157.167668 343.504422 
L 154.453976 338.344247 
" style="fill:none;stroke:#999999;"/>
    <path clip-path="url(#pac84f620d6)" d="M 184.816156 412.963956 
L 186.130829 415.90252 
L 185.599093 418.027436 
L 184.093727 418.558076 
L 180.465081 416.963799 
L 174.179583 413.246964 
L 171.170685 409.791911 
L 168.071942 406.782595 
L 164.441463 405.011438 
L 160.369091 403.950159 
L 155.500947 403.329901 
L 150.27709 401.558744 
L 147.446049 398.459809 
L 146.914312 395.096734 
L 146.826301 393.059078 
L 144.16945 392.264298 
L 142.222192 392.705318 
" style="fill:none;stroke:#999999;"/>
    <path clip-path="url(#pac84f620d6)" d="M 197.96106 399.226288 
L 190.773443 410.237648 
L 184.816156 412.963956 
" style="fill:none;stroke:#999999;"/>
    <path clip-path="url(#pac84f620d6)" d="M 154.453976 338.344247 
L 150.075397 335.023623 
" style="fill:none;stroke:#999999;"/>
    <path clip-path="url(#pac84f620d6)" d="M 154.453976 338.344247 
L 157.167668 343.504422 
L 156.995312 347.999528 
L 153.874566 350.900358 
L 147.361705 351.541842 
L 141.912318 354.381353 
L 139.801872 358.12413 
L 141.19539 362.041429 
L 144.075937 366.291262 
L 148.232653 368.788805 
L 151.531256 372.107071 
L 160.139894 390.967179 
L 159.534814 396.6179 
L 163.28631 399.502221 
L 170.065039 402.337015 
L 177.661543 409.051374 
L 184.816156 412.963956 
" style="fill:none;stroke:#999999;"/>
    <path clip-path="url(#pac84f620d6)" d="M 154.453976 338.344247 
L 159.061751 341.381864 
L 162.316348 344.353445 
L 166.275038 342.157777 
L 164.958531 337.624936 
L 162.985603 334.870327 
L 161.427064 330.108722 
L 163.651191 327.012146 
L 166.826945 326.365945 
L 170.888315 327.486184 
L 174.872675 326.158406 
L 176.112172 324.743367 
L 176.288195 323.50285 
L 174.872675 321.377933 
L 174.075069 319.606776 
L 174.430783 316.597461 
L 177.085801 312.170748 
L 177.263657 310.753351 
L 175.226555 309.425573 
L 170.358411 310.31233 
L 168.145285 310.399591 
L 161.062183 307.213396 
L 159.734674 305.442239 
L 160.178399 302.079164 
L 160.442434 300.751386 
" style="fill:none;stroke:#999999;"/>
    <path clip-path="url(#pac84f620d6)" d="M 150.075397 335.023623 
L 154.453976 338.344247 
" style="fill:none;stroke:#999999;"/>
    <path clip-path="url(#pac84f620d6)" d="M 150.075397 335.023623 
L 139.075776 326.394246 
L 131.574618 323.962737 
L 122.320562 321.587831 
L 117.331402 321.557171 
" style="fill:none;stroke:#999999;"/>
    <path clip-path="url(#pac84f620d6)" d="M 150.075397 335.023623 
L 149.288793 331.648756 
L 147.517559 327.309304 
L 145.216421 323.592469 
L 144.42065 319.873275 
L 145.12841 318.455878 
L 147.517559 314.739043 
L 147.253524 311.993868 
L 143.711056 308.453913 
L 136.275906 302.876302 
" style="fill:none;stroke:#999999;"/>
    <path clip-path="url(#pac84f620d6)" d="M 91.452315 324.347156 
L 92.431444 324.587713 
L 100.178302 326.483865 
L 113.400216 321.533588 
L 117.331402 321.557171 
" style="fill:none;stroke:#999999;"/>
    <path clip-path="url(#pac84f620d6)" d="M 91.452315 324.347156 
L 95.385335 307.465744 
L 97.372931 302.954129 
L 100.286482 299.298612 
L 103.887625 295.848276 
L 118.794596 288.525451 
L 120.688679 286.108093 
L 121.726483 283.976102 
L 122.043692 279.389018 
L 121.843832 275.172202 
L 118.864271 268.297473 
L 117.538596 266.736213 
L 116.143245 265.094768 
L 110.605847 258.481821 
L 106.872686 241.213632 
L 95.730047 207.990881 
L 87.024229 194.246138 
L 81.360314 180.277348 
L 79.141688 173.499312 
L 76.376655 163.0068 
L 75.419529 160.537557 
" style="fill:none;stroke:#999999;"/>
    <path clip-path="url(#pac84f620d6)" d="M 91.452315 324.347156 
L 90.245822 329.523839 
L 90.300829 332.707677 
L 90.876572 335.745293 
L 93.815794 340.657836 
L 97.096061 344.782674 
L 103.405395 351.143273 
L 108.394554 356.173735 
L 112.745629 361.975394 
L 116.933516 368.057702 
L 120.5915 374.135293 
L 126.244414 386.488581 
L 132.632591 400.344169 
L 133.7034 402.504461 
L 135.005238 404.59636 
L 136.730633 406.754294 
L 138.608215 408.71884 
L 146.879475 416.003931 
L 153.98458 422.112181 
" style="fill:none;stroke:#999999;"/>
    <path clip-path="url(#pac84f620d6)" d="M 125.998714 194.922998 
L 124.080794 193.548052 
" style="fill:none;stroke:#999999;"/>
    <path clip-path="url(#pac84f620d6)" d="M 125.998714 194.922998 
L 117.852138 195.724854 
" style="fill:none;stroke:#999999;"/>
    <path clip-path="url(#pac84f620d6)" d="M 125.998714 194.922998 
L 130.523979 198.170512 
L 134.803545 199.991195 
L 141.983827 202.054793 
L 143.410349 201.859046 
L 144.688352 200.974647 
L 148.228986 197.677607 
L 153.098963 191.677843 
L 157.230009 187.793562 
L 161.99914 183.465901 
L 163.328482 180.565072 
L 164.360785 176.827012 
L 164.115086 175.204434 
L 162.688564 172.155025 
L 160.671631 168.810817 
L 158.458505 165.61283 
L 155.891499 163.803939 
L 151.967647 160.99037 
L 146.360573 155.580205 
L 142.966624 152.089776 
L 139.525002 146.729138 
L 136.081547 142.894383 
" style="fill:none;stroke:#999999;"/>
    <path clip-path="url(#pac84f620d6)" d="M 117.852138 195.724854 
L 125.998714 194.922998 
" style="fill:none;stroke:#999999;"/>
    <path clip-path="url(#pac84f620d6)" d="M 117.866806 47.254275 
L 109.505701 56.376558 
" style="fill:none;stroke:#999999;"/>
    <path clip-path="url(#pac84f620d6)" d="M 117.866806 47.254275 
L 120.034093 44.888802 
" style="fill:none;stroke:#999999;"/>
    <path clip-path="url(#pac84f620d6)" d="M 117.866806 47.254275 
L 116.596138 45.86282 
L 114.095141 43.388861 
" style="fill:none;stroke:#999999;"/>
    <path clip-path="url(#pac84f620d6)" d="M 81.941558 74.543296 
L 79.501068 74.892339 
L 63.778157 71.01985 
L 52.272469 69.710939 
L 38.485814 70.451476 
L 29.543465 69.083605 
L 28.595506 66.508235 
" style="fill:none;stroke:#999999;"/>
    <path clip-path="url(#pac84f620d6)" d="M 109.505701 56.376558 
L 107.246736 58.841083 
" style="fill:none;stroke:#999999;"/>
    <path clip-path="url(#pac84f620d6)" d="M 109.505701 56.376558 
L 117.866806 47.254275 
" style="fill:none;stroke:#999999;"/>
    <path clip-path="url(#pac84f620d6)" d="M 109.505701 56.376558 
L 117.89431 63.977674 
" style="fill:none;stroke:#999999;"/>
    <path clip-path="url(#pac84f620d6)" d="M 117.89431 63.977674 
L 114.989926 67.425652 
" style="fill:none;stroke:#999999;"/>
    <path clip-path="url(#pac84f620d6)" d="M 117.89431 63.977674 
L 109.505701 56.376558 
" style="fill:none;stroke:#999999;"/>
    <path clip-path="url(#pac84f620d6)" d="M 117.89431 63.977674 
L 118.851436 62.843284 
L 123.186009 58.121772 
" style="fill:none;stroke:#999999;"/>
    <path clip-path="url(#pac84f620d6)" d="M 98.663768 60.208954 
L 102.719637 63.779568 
" style="fill:none;stroke:#999999;"/>
    <path clip-path="url(#pac84f620d6)" d="M 98.663768 60.208954 
L 98.850793 60.041508 
L 100.72104 58.28686 
L 103.148694 55.452066 
" style="fill:none;stroke:#999999;"/>
    <path clip-path="url(#pac84f620d6)" d="M 98.663768 60.208954 
L 98.066022 60.746669 
L 95.456844 62.737157 
L 92.425943 64.430486 
L 88.584602 66.494084 
" style="fill:none;stroke:#999999;"/>
    <path clip-path="url(#pac84f620d6)" d="M 117.331402 321.557171 
L 122.320562 321.587831 
L 131.574618 323.962737 
L 139.075776 326.394246 
L 150.075397 335.023623 
" style="fill:none;stroke:#999999;"/>
    <path clip-path="url(#pac84f620d6)" d="M 117.331402 321.557171 
L 113.400216 321.533588 
L 100.178302 326.483865 
L 92.431444 324.587713 
L 91.452315 324.347156 
" style="fill:none;stroke:#999999;"/>
    <path clip-path="url(#pac84f620d6)" d="M 117.331402 321.557171 
L 117.243391 316.066821 
L 119.722385 305.619119 
L 123.792923 300.484887 
L 126.271917 299.864628 
L 136.275906 302.876302 
" style="fill:none;stroke:#999999;"/>
    <path clip-path="url(#pac84f620d6)" d="M 117.331402 321.557171 
L 118.710251 327.547502 
L 119.10447 329.983727 
" style="fill:none;stroke:#999999;"/>
    <path clip-path="url(#pac84f620d6)" d="M 136.275906 302.876302 
L 143.711056 308.453913 
L 147.253524 311.993868 
L 147.517559 314.739043 
L 145.12841 318.455878 
L 144.42065 319.873275 
L 145.216421 323.592469 
L 147.517559 327.309304 
L 149.288793 331.648756 
L 150.075397 335.023623 
" style="fill:none;stroke:#999999;"/>
    <path clip-path="url(#pac84f620d6)" d="M 136.275906 302.876302 
L 126.271917 299.864628 
L 123.792923 300.484887 
L 119.722385 305.619119 
L 117.243391 316.066821 
L 117.331402 321.557171 
" style="fill:none;stroke:#999999;"/>
    <path clip-path="url(#pac84f620d6)" d="M 136.275906 302.876302 
L 137.781272 291.985221 
L 139.284804 289.862663 
L 164.248937 280.035219 
L 166.462063 280.565858 
L 167.171657 281.893636 
L 166.905788 283.044534 
L 158.849057 291.100822 
L 158.673033 292.518219 
L 158.761045 297.475571 
L 160.442434 300.751386 
" style="fill:none;stroke:#999999;"/>
    <path clip-path="url(#pac84f620d6)" d="M 160.442434 300.751386 
L 160.178399 302.079164 
L 159.734674 305.442239 
L 161.062183 307.213396 
L 168.145285 310.399591 
L 170.358411 310.31233 
L 175.226555 309.425573 
L 177.263657 310.753351 
L 177.085801 312.170748 
L 174.430783 316.597461 
L 174.075069 319.606776 
L 174.872675 321.377933 
L 176.288195 323.50285 
L 176.112172 324.743367 
L 174.872675 326.158406 
L 170.888315 327.486184 
L 166.826945 326.365945 
L 163.651191 327.012146 
L 161.427064 330.108722 
L 162.985603 334.870327 
L 164.958531 337.624936 
L 166.275038 342.157777 
L 162.316348 344.353445 
L 159.061751 341.381864 
L 154.453976 338.344247 
" style="fill:none;stroke:#999999;"/>
    <path clip-path="url(#pac84f620d6)" d="M 160.442434 300.751386 
L 158.761045 297.475571 
L 158.673033 292.518219 
L 158.849057 291.100822 
L 166.905788 283.044534 
L 167.171657 281.893636 
L 166.462063 280.565858 
L 164.248937 280.035219 
L 139.284804 289.862663 
L 137.781272 291.985221 
L 136.275906 302.876302 
" style="fill:none;stroke:#999999;"/>
    <path clip-path="url(#pac84f620d6)" d="M 160.442434 300.751386 
L 161.159362 298.251484 
L 161.258375 297.119453 
L 161.603087 294.907276 
L 163.7172 294.315318 
L 164.307612 293.037066 
L 166.374051 290.530089 
L 168.339644 290.331984 
L 170.110879 291.610235 
L 170.651783 292.940372 
L 170.602277 297.562832 
L 171.388881 300.366967 
L 172.520197 301.940018 
L 174.192418 302.430565 
" style="fill:none;stroke:#999999;"/>
    <path clip-path="url(#pac84f620d6)" d="M 174.192418 302.430565 
L 172.520197 301.940018 
L 171.388881 300.366967 
L 170.602277 297.562832 
L 170.651783 292.940372 
L 170.110879 291.610235 
L 168.339644 290.331984 
L 166.374051 290.530089 
L 164.307612 293.037066 
L 163.7172 294.315318 
L 161.603087 294.907276 
L 161.258375 297.119453 
L 161.159362 298.251484 
L 160.442434 300.751386 
" style="fill:none;stroke:#999999;"/>
    <path clip-path="url(#pac84f620d6)" d="M 153.98458 422.112181 
L 146.879475 416.003931 
L 138.608215 408.71884 
L 136.730633 406.754294 
L 135.005238 404.59636 
L 133.7034 402.504461 
L 132.632591 400.344169 
L 126.244414 386.488581 
L 120.5915 374.135293 
L 116.933516 368.057702 
L 112.745629 361.975394 
L 108.394554 356.173735 
L 103.405395 351.143273 
L 97.096061 344.782674 
L 93.815794 340.657836 
L 90.876572 335.745293 
L 90.300829 332.707677 
L 90.245822 329.523839 
L 91.452315 324.347156 
" style="fill:none;stroke:#999999;"/>
    <path clip-path="url(#pac84f620d6)" d="M 153.98458 422.112181 
L 155.059056 419.885854 
L 157.272182 420.239613 
L 160.281079 423.692308 
L 162.406194 423.515428 
L 163.733702 421.83389 
L 163.201965 419.708974 
L 157.182336 415.636021 
L 152.402205 411.563067 
L 148.241821 407.225974 
L 144.701187 401.648363 
L 142.400049 397.929169 
L 142.044335 394.386856 
L 142.222192 392.705318 
" style="fill:none;stroke:#999999;"/>
    <path clip-path="url(#pac84f620d6)" d="M 142.222192 392.705318 
L 140.097078 390.670021 
L 138.681558 387.304587 
L 137.264204 384.91553 
L 138.061809 381.373216 
" style="fill:none;stroke:#999999;"/>
    <path clip-path="url(#pac84f620d6)" d="M 142.222192 392.705318 
L 142.044335 394.386856 
L 142.400049 397.929169 
L 144.701187 401.648363 
L 148.241821 407.225974 
L 152.402205 411.563067 
L 157.182336 415.636021 
L 163.201965 419.708974 
L 163.733702 421.83389 
L 162.406194 423.515428 
L 160.281079 423.692308 
L 157.272182 420.239613 
L 155.059056 419.885854 
L 153.98458 422.112181 
" style="fill:none;stroke:#999999;"/>
    <path clip-path="url(#pac84f620d6)" d="M 142.222192 392.705318 
L 144.16945 392.264298 
L 146.826301 393.059078 
L 146.914312 395.096734 
L 147.446049 398.459809 
L 150.27709 401.558744 
L 155.500947 403.329901 
L 160.369091 403.950159 
L 164.441463 405.011438 
L 168.071942 406.782595 
L 171.170685 409.791911 
L 174.179583 413.246964 
L 180.465081 416.963799 
L 184.093727 418.558076 
L 185.599093 418.027436 
L 186.130829 415.90252 
L 184.816156 412.963956 
" style="fill:none;stroke:#999999;"/>
    <path clip-path="url(#pac84f620d6)" d="M 138.061809 381.373216 
L 137.264204 384.91553 
L 138.681558 387.304587 
L 140.097078 390.670021 
L 142.222192 392.705318 
" style="fill:none;stroke:#999999;"/>
    <path clip-path="url(#pac84f620d6)" d="M 109.881584 343.219056 
L 111.537303 343.660076 
L 113.853109 342.556346 
L 116.392611 340.240399 
L 117.716453 336.488188 
L 119.372172 331.632247 
L 119.10447 329.983727 
" style="fill:none;stroke:#999999;"/>
    <path clip-path="url(#pac84f620d6)" d="M 119.10447 329.983727 
L 119.372172 331.632247 
L 117.716453 336.488188 
L 116.392611 340.240399 
L 113.853109 342.556346 
L 111.537303 343.660076 
L 109.881584 343.219056 
" style="fill:none;stroke:#999999;"/>
    <path clip-path="url(#pac84f620d6)" d="M 119.10447 329.983727 
L 118.710251 327.547502 
L 117.331402 321.557171 
" style="fill:none;stroke:#999999;"/>
    <path clip-path="url(#pac84f620d6)" d="M 119.10447 329.983727 
L 121.952013 330.594552 
L 124.83256 332.924649 
L 130.78068 338.256987 
" style="fill:none;stroke:#999999;"/>
    <path clip-path="url(#pac84f620d6)" d="M 130.78068 338.256987 
L 124.83256 332.924649 
L 121.952013 330.594552 
L 119.10447 329.983727 
" style="fill:none;stroke:#999999;"/>
    <path clip-path="url(#pac84f620d6)" d="M 103.148694 55.452066 
L 107.246736 58.841083 
" style="fill:none;stroke:#999999;"/>
    <path clip-path="url(#pac84f620d6)" d="M 103.148694 55.452066 
L 103.696933 54.81294 
L 107.303577 50.655084 
L 114.095141 43.388861 
" style="fill:none;stroke:#999999;"/>
    <path clip-path="url(#pac84f620d6)" d="M 103.148694 55.452066 
L 100.72104 58.28686 
L 98.850793 60.041508 
L 98.663768 60.208954 
" style="fill:none;stroke:#999999;"/>
    <path clip-path="url(#pac84f620d6)" d="M 107.246736 58.841083 
L 102.719637 63.779568 
" style="fill:none;stroke:#999999;"/>
    <path clip-path="url(#pac84f620d6)" d="M 107.246736 58.841083 
L 109.505701 56.376558 
" style="fill:none;stroke:#999999;"/>
    <path clip-path="url(#pac84f620d6)" d="M 107.246736 58.841083 
L 103.148694 55.452066 
" style="fill:none;stroke:#999999;"/>
    <path clip-path="url(#pac84f620d6)" d="M 49.05271 125.482332 
L 48.832681 125.932786 
L 46.940431 128.614284 
L 45.589086 130.762784 
L 45.369057 131.352384 
" style="fill:none;stroke:#999999;"/>
    <path clip-path="url(#pac84f620d6)" d="M 49.05271 125.482332 
L 45.29388 126.994065 
L 42.965239 129.852443 
L 41.623062 133.87587 
L 38.201609 144.144334 
" style="fill:none;stroke:#999999;"/>
    <path clip-path="url(#pac84f620d6)" d="M 38.201609 144.144334 
L 41.623062 133.87587 
L 42.965239 129.852443 
L 45.29388 126.994065 
L 49.05271 125.482332 
" style="fill:none;stroke:#999999;"/>
   </g>
  </g>
 </g>
 <defs>
  <clipPath id="pac84f620d6">
   <rect height="432" width="176.140176" x="25.208195" y="0"/>
  </clipPath>
 </defs>
</svg>
