<?xml version="1.0" encoding="utf-8" standalone="no"?>
<!DOCTYPE svg PUBLIC "-//W3C//DTD SVG 1.1//EN"
  "http://www.w3.org/Graphics/SVG/1.1/DTD/svg11.dtd">
<!-- Created with matplotlib (http://matplotlib.org/) -->
<svg height="432pt" version="1.1" viewBox="0 0 358.873718 432" width="358.873718pt" xmlns="http://www.w3.org/2000/svg" xmlns:xlink="http://www.w3.org/1999/xlink">
 <defs>
  <style type="text/css">
*{stroke-linecap:butt;stroke-linejoin:round;}
  </style>
 </defs>
 <g id="figure_1">
  <g id="patch_1">
   <path d="M 0 432 
L 358.873718 432 
L 358.873718 0 
L 0 0 
z
" style="fill:none;opacity:0;"/>
  </g>
  <g id="axes_1">
   <g id="PathCollection_1">
    <defs>
     <path d="M 0 1.936492 
C 0.513564 1.936492 1.006162 1.732451 1.369306 1.369306 
C 1.732451 1.006162 1.936492 0.513564 1.936492 0 
C 1.936492 -0.513564 1.732451 -1.006162 1.369306 -1.369306 
C 1.006162 -1.732451 0.513564 -1.936492 0 -1.936492 
C -0.513564 -1.936492 -1.006162 -1.732451 -1.369306 -1.369306 
C -1.732451 -1.006162 -1.936492 -0.513564 -1.936492 0 
C -1.936492 0.513564 -1.732451 1.006162 -1.369306 1.369306 
C -1.006162 1.732451 -0.513564 1.936492 0 1.936492 
z
" id="C0_0_46066aed6f"/>
    </defs>
    <g clip-path="url(#p39e45df73f)">
     <use style="fill:#66ccff;" x="171.708842" xlink:href="#C0_0_46066aed6f" y="423.692308"/>
    </g>
    <g clip-path="url(#p39e45df73f)">
     <use style="fill:#66ccff;" x="123.968844" xlink:href="#C0_0_46066aed6f" y="403.606493"/>
    </g>
    <g clip-path="url(#p39e45df73f)">
     <use style="fill:#66ccff;" x="120.029152" xlink:href="#C0_0_46066aed6f" y="363.002556"/>
    </g>
    <g clip-path="url(#p39e45df73f)">
     <use style="fill:#66ccff;" x="132.629701" xlink:href="#C0_0_46066aed6f" y="406.047587"/>
    </g>
    <g clip-path="url(#p39e45df73f)">
     <use style="fill:#66ccff;" x="131.568855" xlink:href="#C0_0_46066aed6f" y="409.202195"/>
    </g>
    <g clip-path="url(#p39e45df73f)">
     <use style="fill:#66ccff;" x="122.654226" xlink:href="#C0_0_46066aed6f" y="405.212205"/>
    </g>
    <g clip-path="url(#p39e45df73f)">
     <use style="fill:#66ccff;" x="118.783658" xlink:href="#C0_0_46066aed6f" y="367.110297"/>
    </g>
    <g clip-path="url(#p39e45df73f)">
     <use style="fill:#66ccff;" x="120.056353" xlink:href="#C0_0_46066aed6f" y="403.96222"/>
    </g>
    <g clip-path="url(#p39e45df73f)">
     <use style="fill:#66ccff;" x="146.712554" xlink:href="#C0_0_46066aed6f" y="413.327228"/>
    </g>
    <g clip-path="url(#p39e45df73f)">
     <use style="fill:#66ccff;" x="140.215311" xlink:href="#C0_0_46066aed6f" y="406.248096"/>
    </g>
    <g clip-path="url(#p39e45df73f)">
     <use style="fill:#66ccff;" x="115.654562" xlink:href="#C0_0_46066aed6f" y="387.182114"/>
    </g>
    <g clip-path="url(#p39e45df73f)">
     <use style="fill:#66ccff;" x="129.027624" xlink:href="#C0_0_46066aed6f" y="404.687672"/>
    </g>
    <g clip-path="url(#p39e45df73f)">
     <use style="fill:#66ccff;" x="128.355915" xlink:href="#C0_0_46066aed6f" y="404.56745"/>
    </g>
    <g clip-path="url(#p39e45df73f)">
     <use style="fill:#66ccff;" x="128.835616" xlink:href="#C0_0_46066aed6f" y="378.446627"/>
    </g>
    <g clip-path="url(#p39e45df73f)">
     <use style="fill:#66ccff;" x="132.397691" xlink:href="#C0_0_46066aed6f" y="409.423289"/>
    </g>
    <g clip-path="url(#p39e45df73f)">
     <use style="fill:#66ccff;" x="121.250965" xlink:href="#C0_0_46066aed6f" y="407.99297"/>
    </g>
    <g clip-path="url(#p39e45df73f)">
     <use style="fill:#66ccff;" x="128.01414" xlink:href="#C0_0_46066aed6f" y="393.714893"/>
    </g>
    <g clip-path="url(#p39e45df73f)">
     <use style="fill:#66ccff;" x="127.732848" xlink:href="#C0_0_46066aed6f" y="396.130049"/>
    </g>
    <g clip-path="url(#p39e45df73f)">
     <use style="fill:#66ccff;" x="127.658604" xlink:href="#C0_0_46066aed6f" y="393.345579"/>
    </g>
    <g clip-path="url(#p39e45df73f)">
     <use style="fill:#66ccff;" x="114.998853" xlink:href="#C0_0_46066aed6f" y="407.898274"/>
    </g>
    <g clip-path="url(#p39e45df73f)">
     <use style="fill:#66ccff;" x="118.099468" xlink:href="#C0_0_46066aed6f" y="405.931894"/>
    </g>
    <g clip-path="url(#p39e45df73f)">
     <use style="fill:#66ccff;" x="120.771905" xlink:href="#C0_0_46066aed6f" y="402.155588"/>
    </g>
    <g clip-path="url(#p39e45df73f)">
     <use style="fill:#66ccff;" x="145.185127" xlink:href="#C0_0_46066aed6f" y="410.181267"/>
    </g>
    <g clip-path="url(#p39e45df73f)">
     <use style="fill:#66ccff;" x="103.858208" xlink:href="#C0_0_46066aed6f" y="413.221828"/>
    </g>
    <g clip-path="url(#p39e45df73f)">
     <use style="fill:#66ccff;" x="128.670168" xlink:href="#C0_0_46066aed6f" y="401.384846"/>
    </g>
    <g clip-path="url(#p39e45df73f)">
     <use style="fill:#66ccff;" x="131.063553" xlink:href="#C0_0_46066aed6f" y="402.296396"/>
    </g>
    <g clip-path="url(#p39e45df73f)">
     <use style="fill:#66ccff;" x="105.439397" xlink:href="#C0_0_46066aed6f" y="413.463508"/>
    </g>
    <g clip-path="url(#p39e45df73f)">
     <use style="fill:#66ccff;" x="139.833855" xlink:href="#C0_0_46066aed6f" y="407.052187"/>
    </g>
    <g clip-path="url(#p39e45df73f)">
     <use style="fill:#66ccff;" x="128.71657" xlink:href="#C0_0_46066aed6f" y="401.99584"/>
    </g>
    <g clip-path="url(#p39e45df73f)">
     <use style="fill:#66ccff;" x="109.322446" xlink:href="#C0_0_46066aed6f" y="401.315265"/>
    </g>
    <g clip-path="url(#p39e45df73f)">
     <use style="fill:#66ccff;" x="144.225726" xlink:href="#C0_0_46066aed6f" y="304.028446"/>
    </g>
    <g clip-path="url(#p39e45df73f)">
     <use style="fill:#66ccff;" x="45.33214" xlink:href="#C0_0_46066aed6f" y="8.307692"/>
    </g>
    <g clip-path="url(#p39e45df73f)">
     <use style="fill:#66ccff;" x="102.337502" xlink:href="#C0_0_46066aed6f" y="416.700871"/>
    </g>
    <g clip-path="url(#p39e45df73f)">
     <use style="fill:#66ccff;" x="104.714565" xlink:href="#C0_0_46066aed6f" y="413.323523"/>
    </g>
    <g clip-path="url(#p39e45df73f)">
     <use style="fill:#66ccff;" x="104.570559" xlink:href="#C0_0_46066aed6f" y="411.785745"/>
    </g>
    <g clip-path="url(#p39e45df73f)">
     <use style="fill:#66ccff;" x="127.78533" xlink:href="#C0_0_46066aed6f" y="407.910214"/>
    </g>
    <g clip-path="url(#p39e45df73f)">
     <use style="fill:#66ccff;" x="119.540491" xlink:href="#C0_0_46066aed6f" y="406.827799"/>
    </g>
    <g clip-path="url(#p39e45df73f)">
     <use style="fill:#66ccff;" x="122.04588" xlink:href="#C0_0_46066aed6f" y="406.425547"/>
    </g>
    <g clip-path="url(#p39e45df73f)">
     <use style="fill:#66ccff;" x="118.729576" xlink:href="#C0_0_46066aed6f" y="406.32344"/>
    </g>
    <g clip-path="url(#p39e45df73f)">
     <use style="fill:#66ccff;" x="131.664539" xlink:href="#C0_0_46066aed6f" y="405.593459"/>
    </g>
    <g clip-path="url(#p39e45df73f)">
     <use style="fill:#66ccff;" x="123.283694" xlink:href="#C0_0_46066aed6f" y="405.543229"/>
    </g>
    <g clip-path="url(#p39e45df73f)">
     <use style="fill:#66ccff;" x="119.497289" xlink:href="#C0_0_46066aed6f" y="405.005109"/>
    </g>
    <g clip-path="url(#p39e45df73f)">
     <use style="fill:#66ccff;" x="132.671943" xlink:href="#C0_0_46066aed6f" y="402.980677"/>
    </g>
    <g clip-path="url(#p39e45df73f)">
     <use style="fill:#66ccff;" x="136.762361" xlink:href="#C0_0_46066aed6f" y="402.368859"/>
    </g>
    <g clip-path="url(#p39e45df73f)">
     <use style="fill:#66ccff;" x="136.354663" xlink:href="#C0_0_46066aed6f" y="401.887969"/>
    </g>
    <g clip-path="url(#p39e45df73f)">
     <use style="fill:#66ccff;" x="125.190017" xlink:href="#C0_0_46066aed6f" y="400.890369"/>
    </g>
    <g clip-path="url(#p39e45df73f)">
     <use style="fill:#66ccff;" x="133.53086" xlink:href="#C0_0_46066aed6f" y="400.766441"/>
    </g>
    <g clip-path="url(#p39e45df73f)">
     <use style="fill:#66ccff;" x="134.120326" xlink:href="#C0_0_46066aed6f" y="399.222486"/>
    </g>
    <g clip-path="url(#p39e45df73f)">
     <use style="fill:#66ccff;" x="127.984699" xlink:href="#C0_0_46066aed6f" y="397.163469"/>
    </g>
    <g clip-path="url(#p39e45df73f)">
     <use style="fill:#66ccff;" x="127.380512" xlink:href="#C0_0_46066aed6f" y="397.104593"/>
    </g>
    <g clip-path="url(#p39e45df73f)">
     <use style="fill:#66ccff;" x="132.941394" xlink:href="#C0_0_46066aed6f" y="396.994252"/>
    </g>
    <g clip-path="url(#p39e45df73f)">
     <use style="fill:#66ccff;" x="125.03737" xlink:href="#C0_0_46066aed6f" y="389.24566"/>
    </g>
    <g clip-path="url(#p39e45df73f)">
     <use style="fill:#66ccff;" x="313.541578" xlink:href="#C0_0_46066aed6f" y="371.606292"/>
    </g>
    <g clip-path="url(#p39e45df73f)">
     <use style="fill:#66ccff;" x="127.287708" xlink:href="#C0_0_46066aed6f" y="409.697907"/>
    </g>
    <g clip-path="url(#p39e45df73f)">
     <use style="fill:#66ccff;" x="127.874934" xlink:href="#C0_0_46066aed6f" y="407.957562"/>
    </g>
    <g clip-path="url(#p39e45df73f)">
     <use style="fill:#66ccff;" x="122.813913" xlink:href="#C0_0_46066aed6f" y="399.569156"/>
    </g>
    <g clip-path="url(#p39e45df73f)">
     <use style="fill:#66ccff;" x="120.195239" xlink:href="#C0_0_46066aed6f" y="367.608068"/>
    </g>
    <g clip-path="url(#p39e45df73f)">
     <use style="fill:#66ccff;" x="118.59197" xlink:href="#C0_0_46066aed6f" y="368.53897"/>
    </g>
    <g clip-path="url(#p39e45df73f)">
     <use style="fill:#66ccff;" x="108.765302" xlink:href="#C0_0_46066aed6f" y="391.065056"/>
    </g>
    <g clip-path="url(#p39e45df73f)">
     <use style="fill:#66ccff;" x="119.73986" xlink:href="#C0_0_46066aed6f" y="367.255223"/>
    </g>
    <g clip-path="url(#p39e45df73f)">
     <use style="fill:#66ccff;" x="119.798742" xlink:href="#C0_0_46066aed6f" y="366.925435"/>
    </g>
    <g clip-path="url(#p39e45df73f)">
     <use style="fill:#66ccff;" x="118.856301" xlink:href="#C0_0_46066aed6f" y="366.878499"/>
    </g>
    <g clip-path="url(#p39e45df73f)">
     <use style="fill:#66ccff;" x="120.411889" xlink:href="#C0_0_46066aed6f" y="361.869911"/>
    </g>
   </g>
   <g id="LineCollection_1">
    <path clip-path="url(#p39e45df73f)" d="M 171.708842 423.692308 
L 173.597245 422.590954 
L 190.771112 420.656688 
L 211.357609 409.411761 
L 213.637388 407.396386 
L 239.044254 389.353119 
L 300.529171 375.520937 
L 301.559296 375.90919 
L 303.207368 377.343214 
L 306.812325 378.315288 
L 309.868138 377.234932 
L 311.207076 374.97623 
L 312.717862 373.674367 
L 313.541578 371.606292 
" style="fill:none;stroke:#999999;"/>
    <path clip-path="url(#p39e45df73f)" d="M 171.708842 423.692308 
L 168.378457 422.96562 
L 158.765239 421.692578 
L 155.376291 420.270082 
L 148.952332 415.496999 
L 147.454666 414.261835 
L 146.712554 413.327228 
" style="fill:none;stroke:#999999;"/>
    <path clip-path="url(#p39e45df73f)" d="M 123.968844 403.606493 
L 125.190017 400.890369 
" style="fill:none;stroke:#999999;"/>
    <path clip-path="url(#p39e45df73f)" d="M 123.968844 403.606493 
L 123.283694 405.543229 
" style="fill:none;stroke:#999999;"/>
    <path clip-path="url(#p39e45df73f)" d="M 123.968844 403.606493 
L 125.844765 404.080796 
L 128.355915 404.56745 
" style="fill:none;stroke:#999999;"/>
    <path clip-path="url(#p39e45df73f)" d="M 123.968844 403.606493 
L 123.731393 403.487094 
L 123.094566 403.315818 
L 122.523341 403.077019 
L 121.950196 402.671474 
L 121.320728 402.376682 
L 120.771905 402.155588 
" style="fill:none;stroke:#999999;"/>
    <path clip-path="url(#p39e45df73f)" d="M 120.029152 363.002556 
L 120.411889 361.869911 
" style="fill:none;stroke:#999999;"/>
    <path clip-path="url(#p39e45df73f)" d="M 120.029152 363.002556 
L 119.425926 364.167727 
L 118.893743 365.078042 
L 118.499166 365.81667 
L 118.36156 366.349025 
L 118.550688 366.77845 
L 118.783658 367.110297 
" style="fill:none;stroke:#999999;"/>
    <path clip-path="url(#p39e45df73f)" d="M 120.029152 363.002556 
L 119.817943 363.698365 
L 119.592973 364.523042 
L 119.030709 366.321852 
L 118.856301 366.878499 
" style="fill:none;stroke:#999999;"/>
    <path clip-path="url(#p39e45df73f)" d="M 132.629701 406.047587 
L 131.568855 409.202195 
" style="fill:none;stroke:#999999;"/>
    <path clip-path="url(#p39e45df73f)" d="M 132.629701 406.047587 
L 131.664539 405.593459 
" style="fill:none;stroke:#999999;"/>
    <path clip-path="url(#p39e45df73f)" d="M 132.629701 406.047587 
L 138.950936 408.778122 
L 139.833855 407.052187 
" style="fill:none;stroke:#999999;"/>
    <path clip-path="url(#p39e45df73f)" d="M 131.568855 409.202195 
L 132.629701 406.047587 
" style="fill:none;stroke:#999999;"/>
    <path clip-path="url(#p39e45df73f)" d="M 131.568855 409.202195 
L 132.397691 409.423289 
" style="fill:none;stroke:#999999;"/>
    <path clip-path="url(#p39e45df73f)" d="M 131.568855 409.202195 
L 129.932303 408.828352 
L 128.499281 408.286939 
L 127.874934 407.957562 
" style="fill:none;stroke:#999999;"/>
    <path clip-path="url(#p39e45df73f)" d="M 122.654226 405.212205 
L 120.056353 403.96222 
" style="fill:none;stroke:#999999;"/>
    <path clip-path="url(#p39e45df73f)" d="M 122.654226 405.212205 
L 123.283694 405.543229 
" style="fill:none;stroke:#999999;"/>
    <path clip-path="url(#p39e45df73f)" d="M 122.654226 405.212205 
L 122.04588 406.425547 
" style="fill:none;stroke:#999999;"/>
    <path clip-path="url(#p39e45df73f)" d="M 118.783658 367.110297 
L 118.856301 366.878499 
" style="fill:none;stroke:#999999;"/>
    <path clip-path="url(#p39e45df73f)" d="M 118.783658 367.110297 
L 119.2944 367.167527 
L 119.73986 367.255223 
" style="fill:none;stroke:#999999;"/>
    <path clip-path="url(#p39e45df73f)" d="M 118.783658 367.110297 
L 118.729576 367.337568 
L 118.59197 368.53897 
" style="fill:none;stroke:#999999;"/>
    <path clip-path="url(#p39e45df73f)" d="M 120.056353 403.96222 
L 122.654226 405.212205 
" style="fill:none;stroke:#999999;"/>
    <path clip-path="url(#p39e45df73f)" d="M 120.056353 403.96222 
L 119.497289 405.005109 
" style="fill:none;stroke:#999999;"/>
    <path clip-path="url(#p39e45df73f)" d="M 120.056353 403.96222 
L 118.421402 402.973266 
L 116.623244 401.956726 
L 117.708091 402.004486 
L 120.544055 402.27581 
L 120.771905 402.155588 
" style="fill:none;stroke:#999999;"/>
    <path clip-path="url(#p39e45df73f)" d="M 146.712554 413.327228 
L 145.151206 413.133308 
L 144.372292 412.813401 
L 143.280725 412.364624 
L 141.254396 411.695989 
L 138.57876 410.994005 
L 135.539268 410.158623 
L 132.397691 409.423289 
" style="fill:none;stroke:#999999;"/>
    <path clip-path="url(#p39e45df73f)" d="M 146.712554 413.327228 
L 146.259734 412.757406 
L 145.395377 410.696742 
L 145.185127 410.181267 
" style="fill:none;stroke:#999999;"/>
    <path clip-path="url(#p39e45df73f)" d="M 146.712554 413.327228 
L 147.454666 414.261835 
L 148.952332 415.496999 
L 155.376291 420.270082 
L 158.765239 421.692578 
L 168.378457 422.96562 
L 171.708842 423.692308 
" style="fill:none;stroke:#999999;"/>
    <path clip-path="url(#p39e45df73f)" d="M 140.215311 406.248096 
L 136.762361 402.368859 
" style="fill:none;stroke:#999999;"/>
    <path clip-path="url(#p39e45df73f)" d="M 140.215311 406.248096 
L 139.833855 407.052187 
" style="fill:none;stroke:#999999;"/>
    <path clip-path="url(#p39e45df73f)" d="M 140.215311 406.248096 
L 143.741545 410.484706 
L 144.387013 410.494999 
L 145.185127 410.181267 
" style="fill:none;stroke:#999999;"/>
    <path clip-path="url(#p39e45df73f)" d="M 115.654562 387.182114 
L 125.03737 389.24566 
" style="fill:none;stroke:#999999;"/>
    <path clip-path="url(#p39e45df73f)" d="M 115.654562 387.182114 
L 116.672206 384.993404 
L 116.926937 384.144435 
L 117.562485 381.381787 
L 117.946182 378.289761 
L 118.031305 376.042175 
L 118.120589 372.054245 
L 118.356439 370.076748 
L 118.59197 368.53897 
" style="fill:none;stroke:#999999;"/>
    <path clip-path="url(#p39e45df73f)" d="M 115.654562 387.182114 
L 114.655158 389.479518 
L 113.437505 392.169704 
L 109.322446 401.315265 
" style="fill:none;stroke:#999999;"/>
    <path clip-path="url(#p39e45df73f)" d="M 115.654562 387.182114 
L 113.240057 387.274339 
L 109.435091 388.007615 
L 110.533699 391.168398 
L 110.499137 391.4776 
L 109.435091 391.614703 
L 108.765302 391.065056 
" style="fill:none;stroke:#999999;"/>
    <path clip-path="url(#p39e45df73f)" d="M 129.027624 404.687672 
L 128.355915 404.56745 
" style="fill:none;stroke:#999999;"/>
    <path clip-path="url(#p39e45df73f)" d="M 129.027624 404.687672 
L 130.499688 405.045046 
L 131.664539 405.593459 
" style="fill:none;stroke:#999999;"/>
    <path clip-path="url(#p39e45df73f)" d="M 129.027624 404.687672 
L 128.810335 405.694331 
L 127.78533 407.910214 
" style="fill:none;stroke:#999999;"/>
    <path clip-path="url(#p39e45df73f)" d="M 128.355915 404.56745 
L 129.027624 404.687672 
" style="fill:none;stroke:#999999;"/>
    <path clip-path="url(#p39e45df73f)" d="M 128.355915 404.56745 
L 125.844765 404.080796 
L 123.968844 403.606493 
" style="fill:none;stroke:#999999;"/>
    <path clip-path="url(#p39e45df73f)" d="M 128.355915 404.56745 
L 128.661848 402.681767 
L 128.71657 401.99584 
" style="fill:none;stroke:#999999;"/>
    <path clip-path="url(#p39e45df73f)" d="M 128.835616 378.446627 
L 127.592041 381.271445 
L 125.364745 386.434428 
L 125.059131 387.184584 
L 124.851122 388.095311 
L 124.899124 388.735538 
L 125.03737 389.24566 
" style="fill:none;stroke:#999999;"/>
    <path clip-path="url(#p39e45df73f)" d="M 128.835616 378.446627 
L 127.344351 376.515243 
L 121.729066 369.477694 
L 121.335129 368.963043 
L 120.733183 368.247883 
L 120.195239 367.608068 
" style="fill:none;stroke:#999999;"/>
    <path clip-path="url(#p39e45df73f)" d="M 128.835616 378.446627 
L 131.23412 381.552239 
L 132.743946 383.591906 
L 133.776631 384.986817 
L 135.429183 387.407325 
L 137.107016 390.645512 
L 140.590047 398.921106 
L 140.772135 399.417642 
L 140.866219 399.597564 
L 145.185127 410.181267 
" style="fill:none;stroke:#999999;"/>
    <path clip-path="url(#p39e45df73f)" d="M 132.397691 409.423289 
L 131.568855 409.202195 
" style="fill:none;stroke:#999999;"/>
    <path clip-path="url(#p39e45df73f)" d="M 132.397691 409.423289 
L 135.539268 410.158623 
L 138.57876 410.994005 
L 141.254396 411.695989 
L 143.280725 412.364624 
L 144.372292 412.813401 
L 145.151206 413.133308 
L 146.712554 413.327228 
" style="fill:none;stroke:#999999;"/>
    <path clip-path="url(#p39e45df73f)" d="M 132.397691 409.423289 
L 131.830626 411.770923 
L 127.287708 409.697907 
" style="fill:none;stroke:#999999;"/>
    <path clip-path="url(#p39e45df73f)" d="M 121.250965 407.99297 
L 122.04588 406.425547 
" style="fill:none;stroke:#999999;"/>
    <path clip-path="url(#p39e45df73f)" d="M 121.250965 407.99297 
L 120.876869 407.74182 
L 119.540491 406.827799 
" style="fill:none;stroke:#999999;"/>
    <path clip-path="url(#p39e45df73f)" d="M 121.250965 407.99297 
L 125.668758 409.179962 
L 127.189784 409.653441 
L 127.287708 409.697907 
" style="fill:none;stroke:#999999;"/>
    <path clip-path="url(#p39e45df73f)" d="M 128.01414 393.714893 
L 127.658604 393.345579 
" style="fill:none;stroke:#999999;"/>
    <path clip-path="url(#p39e45df73f)" d="M 128.01414 393.714893 
L 127.732848 396.130049 
" style="fill:none;stroke:#999999;"/>
    <path clip-path="url(#p39e45df73f)" d="M 128.01414 393.714893 
L 129.644291 394.204841 
L 130.54673 394.583624 
L 131.245641 394.911354 
L 131.660379 395.260906 
L 132.111598 395.697742 
L 132.548417 396.295149 
L 132.941394 396.994252 
" style="fill:none;stroke:#999999;"/>
    <path clip-path="url(#p39e45df73f)" d="M 127.732848 396.130049 
L 128.01414 393.714893 
" style="fill:none;stroke:#999999;"/>
    <path clip-path="url(#p39e45df73f)" d="M 127.732848 396.130049 
L 127.380512 397.104593 
" style="fill:none;stroke:#999999;"/>
    <path clip-path="url(#p39e45df73f)" d="M 127.732848 396.130049 
L 127.984699 397.163469 
" style="fill:none;stroke:#999999;"/>
    <path clip-path="url(#p39e45df73f)" d="M 127.658604 393.345579 
L 128.01414 393.714893 
" style="fill:none;stroke:#999999;"/>
    <path clip-path="url(#p39e45df73f)" d="M 127.658604 393.345579 
L 126.994255 394.245601 
L 125.2553 396.412078 
L 123.89012 398.105899 
L 122.813913 399.569156 
" style="fill:none;stroke:#999999;"/>
    <path clip-path="url(#p39e45df73f)" d="M 127.658604 393.345579 
L 127.060498 392.376799 
L 125.786843 390.483294 
L 125.03737 389.24566 
" style="fill:none;stroke:#999999;"/>
    <path clip-path="url(#p39e45df73f)" d="M 127.658604 393.345579 
L 127.973818 393.014555 
L 128.890658 391.011532 
L 130.412004 391.958491 
L 131.976872 393.320464 
L 132.38425 393.953691 
L 133.636145 395.177326 
L 135.011885 397.69706 
L 135.856081 398.716893 
L 136.889406 400.617397 
L 137.260622 401.098288 
L 137.715682 401.458544 
L 136.762361 402.368859 
" style="fill:none;stroke:#999999;"/>
    <path clip-path="url(#p39e45df73f)" d="M 114.998853 407.898274 
L 109.623259 401.663993 
L 109.322446 401.315265 
" style="fill:none;stroke:#999999;"/>
    <path clip-path="url(#p39e45df73f)" d="M 114.998853 407.898274 
L 113.565191 408.568144 
L 105.439397 413.463508 
" style="fill:none;stroke:#999999;"/>
    <path clip-path="url(#p39e45df73f)" d="M 114.998853 407.898274 
L 115.923373 407.359331 
L 118.099468 405.931894 
" style="fill:none;stroke:#999999;"/>
    <path clip-path="url(#p39e45df73f)" d="M 118.099468 405.931894 
L 118.729576 406.32344 
" style="fill:none;stroke:#999999;"/>
    <path clip-path="url(#p39e45df73f)" d="M 118.099468 405.931894 
L 115.923373 407.359331 
L 114.998853 407.898274 
" style="fill:none;stroke:#999999;"/>
    <path clip-path="url(#p39e45df73f)" d="M 118.099468 405.931894 
L 118.293077 405.612398 
L 119.497289 405.005109 
" style="fill:none;stroke:#999999;"/>
    <path clip-path="url(#p39e45df73f)" d="M 120.771905 402.155588 
L 121.520737 401.184749 
L 122.694868 399.731374 
L 122.813913 399.569156 
" style="fill:none;stroke:#999999;"/>
    <path clip-path="url(#p39e45df73f)" d="M 120.771905 402.155588 
L 120.544055 402.27581 
L 117.708091 402.004486 
L 116.623244 401.956726 
L 118.421402 402.973266 
L 120.056353 403.96222 
" style="fill:none;stroke:#999999;"/>
    <path clip-path="url(#p39e45df73f)" d="M 120.771905 402.155588 
L 121.320728 402.376682 
L 121.950196 402.671474 
L 122.523341 403.077019 
L 123.094566 403.315818 
L 123.731393 403.487094 
L 123.968844 403.606493 
" style="fill:none;stroke:#999999;"/>
    <path clip-path="url(#p39e45df73f)" d="M 145.185127 410.181267 
L 144.387013 410.494999 
L 143.741545 410.484706 
L 140.215311 406.248096 
" style="fill:none;stroke:#999999;"/>
    <path clip-path="url(#p39e45df73f)" d="M 145.185127 410.181267 
L 140.866219 399.597564 
L 140.772135 399.417642 
L 140.590047 398.921106 
L 137.107016 390.645512 
L 135.429183 387.407325 
L 133.776631 384.986817 
L 132.743946 383.591906 
L 131.23412 381.552239 
L 128.835616 378.446627 
" style="fill:none;stroke:#999999;"/>
    <path clip-path="url(#p39e45df73f)" d="M 145.185127 410.181267 
L 145.395377 410.696742 
L 146.259734 412.757406 
L 146.712554 413.327228 
" style="fill:none;stroke:#999999;"/>
    <path clip-path="url(#p39e45df73f)" d="M 103.858208 413.221828 
L 104.570559 411.785745 
" style="fill:none;stroke:#999999;"/>
    <path clip-path="url(#p39e45df73f)" d="M 103.858208 413.221828 
L 102.337502 416.700871 
" style="fill:none;stroke:#999999;"/>
    <path clip-path="url(#p39e45df73f)" d="M 128.670168 401.384846 
L 131.063553 402.296396 
" style="fill:none;stroke:#999999;"/>
    <path clip-path="url(#p39e45df73f)" d="M 128.670168 401.384846 
L 128.71657 401.99584 
" style="fill:none;stroke:#999999;"/>
    <path clip-path="url(#p39e45df73f)" d="M 128.670168 401.384846 
L 128.460559 399.476107 
L 127.984699 397.163469 
" style="fill:none;stroke:#999999;"/>
    <path clip-path="url(#p39e45df73f)" d="M 131.063553 402.296396 
L 132.671943 402.980677 
" style="fill:none;stroke:#999999;"/>
    <path clip-path="url(#p39e45df73f)" d="M 131.063553 402.296396 
L 128.670168 401.384846 
" style="fill:none;stroke:#999999;"/>
    <path clip-path="url(#p39e45df73f)" d="M 131.063553 402.296396 
L 132.941394 396.994252 
" style="fill:none;stroke:#999999;"/>
    <path clip-path="url(#p39e45df73f)" d="M 105.439397 413.463508 
L 113.565191 408.568144 
L 114.998853 407.898274 
" style="fill:none;stroke:#999999;"/>
    <path clip-path="url(#p39e45df73f)" d="M 105.439397 413.463508 
L 105.012818 413.44004 
L 104.714565 413.323523 
" style="fill:none;stroke:#999999;"/>
    <path clip-path="url(#p39e45df73f)" d="M 139.833855 407.052187 
L 140.215311 406.248096 
" style="fill:none;stroke:#999999;"/>
    <path clip-path="url(#p39e45df73f)" d="M 139.833855 407.052187 
L 135.767117 404.715258 
L 132.671943 402.980677 
" style="fill:none;stroke:#999999;"/>
    <path clip-path="url(#p39e45df73f)" d="M 139.833855 407.052187 
L 138.950936 408.778122 
L 132.629701 406.047587 
" style="fill:none;stroke:#999999;"/>
    <path clip-path="url(#p39e45df73f)" d="M 128.71657 401.99584 
L 128.670168 401.384846 
" style="fill:none;stroke:#999999;"/>
    <path clip-path="url(#p39e45df73f)" d="M 128.71657 401.99584 
L 125.190017 400.890369 
" style="fill:none;stroke:#999999;"/>
    <path clip-path="url(#p39e45df73f)" d="M 128.71657 401.99584 
L 128.661848 402.681767 
L 128.355915 404.56745 
" style="fill:none;stroke:#999999;"/>
    <path clip-path="url(#p39e45df73f)" d="M 109.322446 401.315265 
L 109.623259 401.663993 
L 114.998853 407.898274 
" style="fill:none;stroke:#999999;"/>
    <path clip-path="url(#p39e45df73f)" d="M 109.322446 401.315265 
L 113.437505 392.169704 
L 114.655158 389.479518 
L 115.654562 387.182114 
" style="fill:none;stroke:#999999;"/>
    <path clip-path="url(#p39e45df73f)" d="M 109.322446 401.315265 
L 108.857146 402.27581 
L 104.570559 411.785745 
" style="fill:none;stroke:#999999;"/>
    <path clip-path="url(#p39e45df73f)" d="M 144.225726 304.028446 
L 125.091773 320.519112 
L 123.722113 322.023129 
L 118.863981 335.915423 
L 118.414682 337.694059 
L 118.354839 339.976229 
L 118.82782 341.438662 
L 119.595213 342.952561 
L 121.172882 345.179149 
L 122.108283 346.694694 
L 122.607184 348.358871 
L 122.774552 350.072042 
L 122.420296 353.240236 
L 122.179646 355.673508 
L 121.181522 359.59227 
L 120.710462 361.050174 
L 120.411889 361.869911 
" style="fill:none;stroke:#999999;"/>
    <path clip-path="url(#p39e45df73f)" d="M 144.225726 304.028446 
L 145.175847 301.347318 
L 145.421938 298.972511 
L 145.397297 297.43432 
L 145.077603 295.847136 
L 144.499338 294.394995 
L 142.813824 291.798682 
L 142.518771 291.220214 
L 141.497607 288.427098 
L 140.771815 285.892131 
L 140.267473 283.996978 
L 136.51531 274.657908 
L 136.146334 273.784236 
L 135.740236 272.61536 
L 135.580229 271.262032 
L 135.666313 267.041479 
L 135.629511 265.58975 
L 135.494146 264.691375 
L 134.276493 258.330284 
L 133.550381 253.900988 
L 133.427496 253.371926 
L 131.299403 248.413569 
L 130.044308 244.907352 
L 129.85998 244.193839 
L 129.85998 242.926561 
L 130.155033 234.904999 
L 130.053589 231.299969 
L 130.135512 229.844123 
L 130.224476 228.603607 
L 130.118231 227.658707 
L 129.527806 222.270101 
L 129.269555 220.633921 
L 128.93738 219.600501 
L 125.701719 210.7802 
L 125.099133 208.97192 
L 124.287258 204.075733 
L 124.33622 202.476608 
L 124.471586 201.603348 
L 124.717676 200.532873 
L 125.049851 198.035784 
L 125.48027 192.352797 
L 126.230702 188.096424 
L 127.571881 183.434506 
L 127.744048 182.991906 
L 127.79333 182.044536 
L 127.940857 173.66807 
L 127.990139 171.687691 
L 128.088383 171.084931 
L 130.745779 161.565115 
L 131.951271 156.964955 
L 132.000553 156.325552 
L 132.16024 142.74699 
L 132.60314 138.516144 
L 132.566338 137.913796 
L 132.308087 137.200283 
L 123.536825 121.286438 
L 122.73711 119.761423 
L 122.466378 118.666657 
L 122.5035 114.239831 
L 121.12552 109.07479 
L 119.169595 104.709311 
L 118.800299 104.069496 
L 113.449026 98.376216 
L 112.809318 97.724462 
L 107.642693 90.27231 
L 102.118932 82.230573 
L 94.098103 70.573924 
L 92.843329 68.655716 
L 89.20189 60.134735 
L 88.230008 57.884679 
L 86.507693 55.425881 
L 84.711774 52.843978 
L 83.875258 52.130877 
L 78.572947 48.343866 
L 77.26889 47.421611 
L 70.896453 43.671655 
L 70.084578 42.92191 
L 69.395588 41.913605 
L 67.439662 38.766409 
L 64.844029 35.311657 
L 64.339687 34.721249 
L 63.822865 34.278649 
L 54.461177 28.181059 
L 54.005798 27.627706 
L 52.111315 23.853458 
L 46.083533 9.19948 
L 45.763519 8.560077 
L 45.33214 8.307692 
" style="fill:none;stroke:#999999;"/>
    <path clip-path="url(#p39e45df73f)" d="M 45.33214 8.307692 
L 45.763519 8.560077 
L 46.083533 9.19948 
L 52.111315 23.853458 
L 54.005798 27.627706 
L 54.461177 28.181059 
L 63.822865 34.278649 
L 64.339687 34.721249 
L 64.844029 35.311657 
L 67.439662 38.766409 
L 69.395588 41.913605 
L 70.084578 42.92191 
L 70.896453 43.671655 
L 77.26889 47.421611 
L 78.572947 48.343866 
L 83.875258 52.130877 
L 84.711774 52.843978 
L 86.507693 55.425881 
L 88.230008 57.884679 
L 89.20189 60.134735 
L 92.843329 68.655716 
L 94.098103 70.573924 
L 102.118932 82.230573 
L 107.642693 90.27231 
L 112.809318 97.724462 
L 113.449026 98.376216 
L 118.800299 104.069496 
L 119.169595 104.709311 
L 121.12552 109.07479 
L 122.5035 114.239831 
L 122.466378 118.666657 
L 122.73711 119.761423 
L 123.536825 121.286438 
L 132.308087 137.200283 
L 132.566338 137.913796 
L 132.60314 138.516144 
L 132.16024 142.74699 
L 132.000553 156.325552 
L 131.951271 156.964955 
L 130.745779 161.565115 
L 128.088383 171.084931 
L 127.990139 171.687691 
L 127.940857 173.66807 
L 127.79333 182.044536 
L 127.744048 182.991906 
L 127.571881 183.434506 
L 126.230702 188.096424 
L 125.48027 192.352797 
L 125.049851 198.035784 
L 124.717676 200.532873 
L 124.471586 201.603348 
L 124.33622 202.476608 
L 124.287258 204.075733 
L 125.099133 208.97192 
L 125.701719 210.7802 
L 128.93738 219.600501 
L 129.269555 220.633921 
L 129.527806 222.270101 
L 130.118231 227.658707 
L 130.224476 228.603607 
L 130.135512 229.844123 
L 130.053589 231.299969 
L 130.155033 234.904999 
L 129.85998 242.926561 
L 129.85998 244.193839 
L 130.044308 244.907352 
L 131.299403 248.413569 
L 133.427496 253.371926 
L 133.550381 253.900988 
L 134.276493 258.330284 
L 135.494146 264.691375 
L 135.629511 265.58975 
L 135.666313 267.041479 
L 135.580229 271.262032 
L 135.740236 272.61536 
L 136.146334 273.784236 
L 136.51531 274.657908 
L 140.267473 283.996978 
L 140.771815 285.892131 
L 141.497607 288.427098 
L 142.518771 291.220214 
L 142.813824 291.798682 
L 144.499338 294.394995 
L 145.077603 295.847136 
L 145.397297 297.43432 
L 145.421938 298.972511 
L 145.175847 301.347318 
L 144.225726 304.028446 
" style="fill:none;stroke:#999999;"/>
    <path clip-path="url(#p39e45df73f)" d="M 102.337502 416.700871 
L 103.858208 413.221828 
" style="fill:none;stroke:#999999;"/>
    <path clip-path="url(#p39e45df73f)" d="M 102.337502 416.700871 
L 102.953209 415.879899 
L 103.338825 415.246261 
L 103.746523 414.780192 
L 104.285107 414.335945 
L 105.439397 413.463508 
" style="fill:none;stroke:#999999;"/>
    <path clip-path="url(#p39e45df73f)" d="M 104.714565 413.323523 
L 104.248625 413.250648 
L 103.858208 413.221828 
" style="fill:none;stroke:#999999;"/>
    <path clip-path="url(#p39e45df73f)" d="M 104.714565 413.323523 
L 104.576319 413.0979 
L 104.452474 412.711705 
L 104.496316 412.398797 
L 104.570559 411.785745 
" style="fill:none;stroke:#999999;"/>
    <path clip-path="url(#p39e45df73f)" d="M 104.570559 411.785745 
L 103.858208 413.221828 
" style="fill:none;stroke:#999999;"/>
    <path clip-path="url(#p39e45df73f)" d="M 104.570559 411.785745 
L 108.857146 402.27581 
L 109.322446 401.315265 
" style="fill:none;stroke:#999999;"/>
    <path clip-path="url(#p39e45df73f)" d="M 127.78533 407.910214 
L 123.283694 405.543229 
" style="fill:none;stroke:#999999;"/>
    <path clip-path="url(#p39e45df73f)" d="M 127.78533 407.910214 
L 127.874934 407.957562 
" style="fill:none;stroke:#999999;"/>
    <path clip-path="url(#p39e45df73f)" d="M 127.78533 407.910214 
L 128.810335 405.694331 
L 129.027624 404.687672 
" style="fill:none;stroke:#999999;"/>
    <path clip-path="url(#p39e45df73f)" d="M 119.540491 406.827799 
L 118.729576 406.32344 
" style="fill:none;stroke:#999999;"/>
    <path clip-path="url(#p39e45df73f)" d="M 119.540491 406.827799 
L 122.04588 406.425547 
" style="fill:none;stroke:#999999;"/>
    <path clip-path="url(#p39e45df73f)" d="M 119.540491 406.827799 
L 120.876869 407.74182 
L 121.250965 407.99297 
" style="fill:none;stroke:#999999;"/>
    <path clip-path="url(#p39e45df73f)" d="M 122.04588 406.425547 
L 119.540491 406.827799 
" style="fill:none;stroke:#999999;"/>
    <path clip-path="url(#p39e45df73f)" d="M 122.04588 406.425547 
L 122.654226 405.212205 
" style="fill:none;stroke:#999999;"/>
    <path clip-path="url(#p39e45df73f)" d="M 122.04588 406.425547 
L 121.250965 407.99297 
" style="fill:none;stroke:#999999;"/>
    <path clip-path="url(#p39e45df73f)" d="M 118.729576 406.32344 
L 118.099468 405.931894 
" style="fill:none;stroke:#999999;"/>
    <path clip-path="url(#p39e45df73f)" d="M 118.729576 406.32344 
L 119.540491 406.827799 
" style="fill:none;stroke:#999999;"/>
    <path clip-path="url(#p39e45df73f)" d="M 118.729576 406.32344 
L 119.497289 405.005109 
" style="fill:none;stroke:#999999;"/>
    <path clip-path="url(#p39e45df73f)" d="M 131.664539 405.593459 
L 132.629701 406.047587 
" style="fill:none;stroke:#999999;"/>
    <path clip-path="url(#p39e45df73f)" d="M 131.664539 405.593459 
L 130.499688 405.045046 
L 129.027624 404.687672 
" style="fill:none;stroke:#999999;"/>
    <path clip-path="url(#p39e45df73f)" d="M 131.664539 405.593459 
L 132.097198 404.597506 
L 132.671943 402.980677 
" style="fill:none;stroke:#999999;"/>
    <path clip-path="url(#p39e45df73f)" d="M 123.283694 405.543229 
L 122.654226 405.212205 
" style="fill:none;stroke:#999999;"/>
    <path clip-path="url(#p39e45df73f)" d="M 123.283694 405.543229 
L 127.78533 407.910214 
" style="fill:none;stroke:#999999;"/>
    <path clip-path="url(#p39e45df73f)" d="M 123.283694 405.543229 
L 123.968844 403.606493 
" style="fill:none;stroke:#999999;"/>
    <path clip-path="url(#p39e45df73f)" d="M 119.497289 405.005109 
L 118.729576 406.32344 
" style="fill:none;stroke:#999999;"/>
    <path clip-path="url(#p39e45df73f)" d="M 119.497289 405.005109 
L 120.056353 403.96222 
" style="fill:none;stroke:#999999;"/>
    <path clip-path="url(#p39e45df73f)" d="M 119.497289 405.005109 
L 118.293077 405.612398 
L 118.099468 405.931894 
" style="fill:none;stroke:#999999;"/>
    <path clip-path="url(#p39e45df73f)" d="M 132.671943 402.980677 
L 131.063553 402.296396 
" style="fill:none;stroke:#999999;"/>
    <path clip-path="url(#p39e45df73f)" d="M 132.671943 402.980677 
L 133.53086 400.766441 
" style="fill:none;stroke:#999999;"/>
    <path clip-path="url(#p39e45df73f)" d="M 132.671943 402.980677 
L 135.767117 404.715258 
L 139.833855 407.052187 
" style="fill:none;stroke:#999999;"/>
    <path clip-path="url(#p39e45df73f)" d="M 132.671943 402.980677 
L 132.097198 404.597506 
L 131.664539 405.593459 
" style="fill:none;stroke:#999999;"/>
    <path clip-path="url(#p39e45df73f)" d="M 136.762361 402.368859 
L 140.215311 406.248096 
" style="fill:none;stroke:#999999;"/>
    <path clip-path="url(#p39e45df73f)" d="M 136.762361 402.368859 
L 136.354663 401.887969 
" style="fill:none;stroke:#999999;"/>
    <path clip-path="url(#p39e45df73f)" d="M 136.762361 402.368859 
L 137.715682 401.458544 
L 137.260622 401.098288 
L 136.889406 400.617397 
L 135.856081 398.716893 
L 135.011885 397.69706 
L 133.636145 395.177326 
L 132.38425 393.953691 
L 131.976872 393.320464 
L 130.412004 391.958491 
L 128.890658 391.011532 
L 127.973818 393.014555 
L 127.658604 393.345579 
" style="fill:none;stroke:#999999;"/>
    <path clip-path="url(#p39e45df73f)" d="M 136.354663 401.887969 
L 136.762361 402.368859 
" style="fill:none;stroke:#999999;"/>
    <path clip-path="url(#p39e45df73f)" d="M 136.354663 401.887969 
L 134.120326 399.222486 
" style="fill:none;stroke:#999999;"/>
    <path clip-path="url(#p39e45df73f)" d="M 136.354663 401.887969 
L 135.928084 401.718751 
L 133.53086 400.766441 
" style="fill:none;stroke:#999999;"/>
    <path clip-path="url(#p39e45df73f)" d="M 125.190017 400.890369 
L 123.968844 403.606493 
" style="fill:none;stroke:#999999;"/>
    <path clip-path="url(#p39e45df73f)" d="M 125.190017 400.890369 
L 128.71657 401.99584 
" style="fill:none;stroke:#999999;"/>
    <path clip-path="url(#p39e45df73f)" d="M 125.190017 400.890369 
L 122.813913 399.569156 
" style="fill:none;stroke:#999999;"/>
    <path clip-path="url(#p39e45df73f)" d="M 125.190017 400.890369 
L 125.874207 399.557627 
L 126.944013 397.933799 
L 127.380512 397.104593 
" style="fill:none;stroke:#999999;"/>
    <path clip-path="url(#p39e45df73f)" d="M 133.53086 400.766441 
L 132.671943 402.980677 
" style="fill:none;stroke:#999999;"/>
    <path clip-path="url(#p39e45df73f)" d="M 133.53086 400.766441 
L 134.120326 399.222486 
" style="fill:none;stroke:#999999;"/>
    <path clip-path="url(#p39e45df73f)" d="M 133.53086 400.766441 
L 135.928084 401.718751 
L 136.354663 401.887969 
" style="fill:none;stroke:#999999;"/>
    <path clip-path="url(#p39e45df73f)" d="M 134.120326 399.222486 
L 136.354663 401.887969 
" style="fill:none;stroke:#999999;"/>
    <path clip-path="url(#p39e45df73f)" d="M 134.120326 399.222486 
L 133.53086 400.766441 
" style="fill:none;stroke:#999999;"/>
    <path clip-path="url(#p39e45df73f)" d="M 134.120326 399.222486 
L 133.74911 398.625491 
L 132.941394 396.994252 
" style="fill:none;stroke:#999999;"/>
    <path clip-path="url(#p39e45df73f)" d="M 127.984699 397.163469 
L 127.732848 396.130049 
" style="fill:none;stroke:#999999;"/>
    <path clip-path="url(#p39e45df73f)" d="M 127.984699 397.163469 
L 127.380512 397.104593 
" style="fill:none;stroke:#999999;"/>
    <path clip-path="url(#p39e45df73f)" d="M 127.984699 397.163469 
L 128.460559 399.476107 
L 128.670168 401.384846 
" style="fill:none;stroke:#999999;"/>
    <path clip-path="url(#p39e45df73f)" d="M 127.984699 397.163469 
L 132.61562 396.883499 
L 132.941394 396.994252 
" style="fill:none;stroke:#999999;"/>
    <path clip-path="url(#p39e45df73f)" d="M 127.380512 397.104593 
L 127.732848 396.130049 
" style="fill:none;stroke:#999999;"/>
    <path clip-path="url(#p39e45df73f)" d="M 127.380512 397.104593 
L 127.984699 397.163469 
" style="fill:none;stroke:#999999;"/>
    <path clip-path="url(#p39e45df73f)" d="M 127.380512 397.104593 
L 126.944013 397.933799 
L 125.874207 399.557627 
L 125.190017 400.890369 
" style="fill:none;stroke:#999999;"/>
    <path clip-path="url(#p39e45df73f)" d="M 132.941394 396.994252 
L 131.063553 402.296396 
" style="fill:none;stroke:#999999;"/>
    <path clip-path="url(#p39e45df73f)" d="M 132.941394 396.994252 
L 133.74911 398.625491 
L 134.120326 399.222486 
" style="fill:none;stroke:#999999;"/>
    <path clip-path="url(#p39e45df73f)" d="M 132.941394 396.994252 
L 132.548417 396.295149 
L 132.111598 395.697742 
L 131.660379 395.260906 
L 131.245641 394.911354 
L 130.54673 394.583624 
L 129.644291 394.204841 
L 128.01414 393.714893 
" style="fill:none;stroke:#999999;"/>
    <path clip-path="url(#p39e45df73f)" d="M 132.941394 396.994252 
L 132.61562 396.883499 
L 127.984699 397.163469 
" style="fill:none;stroke:#999999;"/>
    <path clip-path="url(#p39e45df73f)" d="M 125.03737 389.24566 
L 115.654562 387.182114 
" style="fill:none;stroke:#999999;"/>
    <path clip-path="url(#p39e45df73f)" d="M 125.03737 389.24566 
L 124.899124 388.735538 
L 124.851122 388.095311 
L 125.059131 387.184584 
L 125.364745 386.434428 
L 127.592041 381.271445 
L 128.835616 378.446627 
" style="fill:none;stroke:#999999;"/>
    <path clip-path="url(#p39e45df73f)" d="M 125.03737 389.24566 
L 125.786843 390.483294 
L 127.060498 392.376799 
L 127.658604 393.345579 
" style="fill:none;stroke:#999999;"/>
    <path clip-path="url(#p39e45df73f)" d="M 313.541578 371.606292 
L 312.717862 373.674367 
L 311.207076 374.97623 
L 309.868138 377.234932 
L 306.812325 378.315288 
L 303.207368 377.343214 
L 301.559296 375.90919 
L 300.529171 375.520937 
L 239.044254 389.353119 
L 213.637388 407.396386 
L 211.357609 409.411761 
L 190.771112 420.656688 
L 173.597245 422.590954 
L 171.708842 423.692308 
" style="fill:none;stroke:#999999;"/>
    <path clip-path="url(#p39e45df73f)" d="M 127.287708 409.697907 
L 127.189784 409.653441 
L 125.668758 409.179962 
L 121.250965 407.99297 
" style="fill:none;stroke:#999999;"/>
    <path clip-path="url(#p39e45df73f)" d="M 127.287708 409.697907 
L 131.830626 411.770923 
L 132.397691 409.423289 
" style="fill:none;stroke:#999999;"/>
    <path clip-path="url(#p39e45df73f)" d="M 127.287708 409.697907 
L 127.510758 408.640195 
L 127.874934 407.957562 
" style="fill:none;stroke:#999999;"/>
    <path clip-path="url(#p39e45df73f)" d="M 127.874934 407.957562 
L 127.78533 407.910214 
" style="fill:none;stroke:#999999;"/>
    <path clip-path="url(#p39e45df73f)" d="M 127.874934 407.957562 
L 128.499281 408.286939 
L 129.932303 408.828352 
L 131.568855 409.202195 
" style="fill:none;stroke:#999999;"/>
    <path clip-path="url(#p39e45df73f)" d="M 127.874934 407.957562 
L 127.510758 408.640195 
L 127.287708 409.697907 
" style="fill:none;stroke:#999999;"/>
    <path clip-path="url(#p39e45df73f)" d="M 122.813913 399.569156 
L 125.190017 400.890369 
" style="fill:none;stroke:#999999;"/>
    <path clip-path="url(#p39e45df73f)" d="M 122.813913 399.569156 
L 123.89012 398.105899 
L 125.2553 396.412078 
L 126.994255 394.245601 
L 127.658604 393.345579 
" style="fill:none;stroke:#999999;"/>
    <path clip-path="url(#p39e45df73f)" d="M 122.813913 399.569156 
L 122.694868 399.731374 
L 121.520737 401.184749 
L 120.771905 402.155588 
" style="fill:none;stroke:#999999;"/>
    <path clip-path="url(#p39e45df73f)" d="M 120.195239 367.608068 
L 120.733183 368.247883 
L 121.335129 368.963043 
L 121.729066 369.477694 
L 127.344351 376.515243 
L 128.835616 378.446627 
" style="fill:none;stroke:#999999;"/>
    <path clip-path="url(#p39e45df73f)" d="M 120.195239 367.608068 
L 120.057633 367.290631 
L 119.798742 366.925435 
" style="fill:none;stroke:#999999;"/>
    <path clip-path="url(#p39e45df73f)" d="M 118.59197 368.53897 
L 118.911024 367.72335 
L 119.28864 367.448321 
L 119.73986 367.255223 
" style="fill:none;stroke:#999999;"/>
    <path clip-path="url(#p39e45df73f)" d="M 118.59197 368.53897 
L 118.356439 370.076748 
L 118.120589 372.054245 
L 118.031305 376.042175 
L 117.946182 378.289761 
L 117.562485 381.381787 
L 116.926937 384.144435 
L 116.672206 384.993404 
L 115.654562 387.182114 
" style="fill:none;stroke:#999999;"/>
    <path clip-path="url(#p39e45df73f)" d="M 118.59197 368.53897 
L 118.729576 367.337568 
L 118.783658 367.110297 
" style="fill:none;stroke:#999999;"/>
    <path clip-path="url(#p39e45df73f)" d="M 108.765302 391.065056 
L 109.435091 391.614703 
L 110.499137 391.4776 
L 110.533699 391.168398 
L 109.435091 388.007615 
L 113.240057 387.274339 
L 115.654562 387.182114 
" style="fill:none;stroke:#999999;"/>
    <path clip-path="url(#p39e45df73f)" d="M 119.73986 367.255223 
L 119.949149 367.40509 
L 120.195239 367.608068 
" style="fill:none;stroke:#999999;"/>
    <path clip-path="url(#p39e45df73f)" d="M 119.798742 366.925435 
L 119.678417 366.701458 
L 119.590093 366.407078 
L 119.501769 366.059585 
L 119.484168 365.5297 
L 119.619534 365.011343 
L 119.884506 364.157434 
L 120.025632 363.609845 
L 120.402288 362.543899 
L 120.484852 362.13753 
L 120.411889 361.869911 
" style="fill:none;stroke:#999999;"/>
    <path clip-path="url(#p39e45df73f)" d="M 119.798742 366.925435 
L 119.576973 366.897026 
L 119.306241 366.831974 
L 119.088631 366.861618 
L 118.856301 366.878499 
" style="fill:none;stroke:#999999;"/>
    <path clip-path="url(#p39e45df73f)" d="M 118.856301 366.878499 
L 118.783658 367.110297 
" style="fill:none;stroke:#999999;"/>
    <path clip-path="url(#p39e45df73f)" d="M 118.856301 366.878499 
L 119.030709 366.321852 
L 119.592973 364.523042 
L 119.817943 363.698365 
L 120.029152 363.002556 
" style="fill:none;stroke:#999999;"/>
    <path clip-path="url(#p39e45df73f)" d="M 120.411889 361.869911 
L 120.029152 363.002556 
" style="fill:none;stroke:#999999;"/>
    <path clip-path="url(#p39e45df73f)" d="M 120.411889 361.869911 
L 120.710462 361.050174 
L 121.181522 359.59227 
L 122.179646 355.673508 
L 122.420296 353.240236 
L 122.774552 350.072042 
L 122.607184 348.358871 
L 122.108283 346.694694 
L 121.172882 345.179149 
L 119.595213 342.952561 
L 118.82782 341.438662 
L 118.354839 339.976229 
L 118.414682 337.694059 
L 118.863981 335.915423 
L 123.722113 322.023129 
L 125.091773 320.519112 
L 144.225726 304.028446 
" style="fill:none;stroke:#999999;"/>
   </g>
  </g>
 </g>
 <defs>
  <clipPath id="p39e45df73f">
   <rect height="432" width="278.937815" x="39.967951" y="0"/>
  </clipPath>
 </defs>
</svg>
