<?xml version="1.0" encoding="utf-8" standalone="no"?>
<!DOCTYPE svg PUBLIC "-//W3C//DTD SVG 1.1//EN"
  "http://www.w3.org/Graphics/SVG/1.1/DTD/svg11.dtd">
<!-- Created with matplotlib (http://matplotlib.org/) -->
<svg height="432pt" version="1.1" viewBox="0 0 1654.451701 432" width="1654.451701pt" xmlns="http://www.w3.org/2000/svg" xmlns:xlink="http://www.w3.org/1999/xlink">
 <defs>
  <style type="text/css">
*{stroke-linecap:butt;stroke-linejoin:round;}
  </style>
 </defs>
 <g id="figure_1">
  <g id="patch_1">
   <path d="M 0 432 
L 1654.451701 432 
L 1654.451701 0 
L 0 0 
z
" style="fill:none;opacity:0;"/>
  </g>
  <g id="axes_1">
   <g id="PathCollection_1">
    <defs>
     <path d="M 0 1.936492 
C 0.513564 1.936492 1.006162 1.732451 1.369306 1.369306 
C 1.732451 1.006162 1.936492 0.513564 1.936492 0 
C 1.936492 -0.513564 1.732451 -1.006162 1.369306 -1.369306 
C 1.006162 -1.732451 0.513564 -1.936492 0 -1.936492 
C -0.513564 -1.936492 -1.006162 -1.732451 -1.369306 -1.369306 
C -1.732451 -1.006162 -1.936492 -0.513564 -1.936492 0 
C -1.936492 0.513564 -1.732451 1.006162 -1.369306 1.369306 
C -1.006162 1.732451 -0.513564 1.936492 0 1.936492 
z
" id="C0_0_f7a39a0780"/>
    </defs>
    <g clip-path="url(#pa41fcdfbc2)">
     <use style="fill:#66ccff;" x="338.782868" xlink:href="#C0_0_f7a39a0780" y="238.843828"/>
    </g>
    <g clip-path="url(#pa41fcdfbc2)">
     <use style="fill:#66ccff;" x="344.802264" xlink:href="#C0_0_f7a39a0780" y="253.611076"/>
    </g>
    <g clip-path="url(#pa41fcdfbc2)">
     <use style="fill:#66ccff;" x="1449.92117" xlink:href="#C0_0_f7a39a0780" y="297.124938"/>
    </g>
    <g clip-path="url(#pa41fcdfbc2)">
     <use style="fill:#66ccff;" x="364.648929" xlink:href="#C0_0_f7a39a0780" y="271.260896"/>
    </g>
    <g clip-path="url(#pa41fcdfbc2)">
     <use style="fill:#66ccff;" x="294.23191" xlink:href="#C0_0_f7a39a0780" y="239.182396"/>
    </g>
    <g clip-path="url(#pa41fcdfbc2)">
     <use style="fill:#66ccff;" x="324.145581" xlink:href="#C0_0_f7a39a0780" y="237.046572"/>
    </g>
    <g clip-path="url(#pa41fcdfbc2)">
     <use style="fill:#66ccff;" x="204.530531" xlink:href="#C0_0_f7a39a0780" y="259.980579"/>
    </g>
    <g clip-path="url(#pa41fcdfbc2)">
     <use style="fill:#66ccff;" x="264.603107" xlink:href="#C0_0_f7a39a0780" y="229.240529"/>
    </g>
    <g clip-path="url(#pa41fcdfbc2)">
     <use style="fill:#66ccff;" x="281.531728" xlink:href="#C0_0_f7a39a0780" y="218.567736"/>
    </g>
    <g clip-path="url(#pa41fcdfbc2)">
     <use style="fill:#66ccff;" x="294.34338" xlink:href="#C0_0_f7a39a0780" y="241.76437"/>
    </g>
    <g clip-path="url(#pa41fcdfbc2)">
     <use style="fill:#66ccff;" x="271.427566" xlink:href="#C0_0_f7a39a0780" y="268.966862"/>
    </g>
    <g clip-path="url(#pa41fcdfbc2)">
     <use style="fill:#66ccff;" x="304.457451" xlink:href="#C0_0_f7a39a0780" y="295.023919"/>
    </g>
    <g clip-path="url(#pa41fcdfbc2)">
     <use style="fill:#66ccff;" x="351.72333" xlink:href="#C0_0_f7a39a0780" y="262.736583"/>
    </g>
    <g clip-path="url(#pa41fcdfbc2)">
     <use style="fill:#66ccff;" x="291.167715" xlink:href="#C0_0_f7a39a0780" y="247.953515"/>
    </g>
    <g clip-path="url(#pa41fcdfbc2)">
     <use style="fill:#66ccff;" x="314.809325" xlink:href="#C0_0_f7a39a0780" y="251.373998"/>
    </g>
    <g clip-path="url(#pa41fcdfbc2)">
     <use style="fill:#66ccff;" x="333.070635" xlink:href="#C0_0_f7a39a0780" y="245.713272"/>
    </g>
    <g clip-path="url(#pa41fcdfbc2)">
     <use style="fill:#66ccff;" x="335.651791" xlink:href="#C0_0_f7a39a0780" y="248.057933"/>
    </g>
    <g clip-path="url(#pa41fcdfbc2)">
     <use style="fill:#66ccff;" x="326.699489" xlink:href="#C0_0_f7a39a0780" y="235.913794"/>
    </g>
    <g clip-path="url(#pa41fcdfbc2)">
     <use style="fill:#66ccff;" x="340.155191" xlink:href="#C0_0_f7a39a0780" y="234.094388"/>
    </g>
    <g clip-path="url(#pa41fcdfbc2)">
     <use style="fill:#66ccff;" x="404.758415" xlink:href="#C0_0_f7a39a0780" y="232.088295"/>
    </g>
    <g clip-path="url(#pa41fcdfbc2)">
     <use style="fill:#66ccff;" x="386.021499" xlink:href="#C0_0_f7a39a0780" y="206.974164"/>
    </g>
    <g clip-path="url(#pa41fcdfbc2)">
     <use style="fill:#66ccff;" x="376.719922" xlink:href="#C0_0_f7a39a0780" y="212.157098"/>
    </g>
    <g clip-path="url(#pa41fcdfbc2)">
     <use style="fill:#66ccff;" x="363.479729" xlink:href="#C0_0_f7a39a0780" y="208.603719"/>
    </g>
    <g clip-path="url(#pa41fcdfbc2)">
     <use style="fill:#66ccff;" x="362.496314" xlink:href="#C0_0_f7a39a0780" y="214.716923"/>
    </g>
    <g clip-path="url(#pa41fcdfbc2)">
     <use style="fill:#66ccff;" x="363.058619" xlink:href="#C0_0_f7a39a0780" y="225.421359"/>
    </g>
    <g clip-path="url(#pa41fcdfbc2)">
     <use style="fill:#66ccff;" x="363.095776" xlink:href="#C0_0_f7a39a0780" y="228.901961"/>
    </g>
    <g clip-path="url(#pa41fcdfbc2)">
     <use style="fill:#66ccff;" x="382.139856" xlink:href="#C0_0_f7a39a0780" y="243.691358"/>
    </g>
    <g clip-path="url(#pa41fcdfbc2)">
     <use style="fill:#66ccff;" x="379.330804" xlink:href="#C0_0_f7a39a0780" y="260.622908"/>
    </g>
    <g clip-path="url(#pa41fcdfbc2)">
     <use style="fill:#66ccff;" x="383.304101" xlink:href="#C0_0_f7a39a0780" y="230.616949"/>
    </g>
    <g clip-path="url(#pa41fcdfbc2)">
     <use style="fill:#66ccff;" x="423.72075" xlink:href="#C0_0_f7a39a0780" y="302.171812"/>
    </g>
    <g clip-path="url(#pa41fcdfbc2)">
     <use style="fill:#66ccff;" x="339.89014" xlink:href="#C0_0_f7a39a0780" y="229.303813"/>
    </g>
    <g clip-path="url(#pa41fcdfbc2)">
     <use style="fill:#66ccff;" x="340.397949" xlink:href="#C0_0_f7a39a0780" y="230.800472"/>
    </g>
    <g clip-path="url(#pa41fcdfbc2)">
     <use style="fill:#66ccff;" x="312.265325" xlink:href="#C0_0_f7a39a0780" y="297.840043"/>
    </g>
    <g clip-path="url(#pa41fcdfbc2)">
     <use style="fill:#66ccff;" x="357.205191" xlink:href="#C0_0_f7a39a0780" y="292.2869"/>
    </g>
    <g clip-path="url(#pa41fcdfbc2)">
     <use style="fill:#66ccff;" x="391.369595" xlink:href="#C0_0_f7a39a0780" y="202.019052"/>
    </g>
    <g clip-path="url(#pa41fcdfbc2)">
     <use style="fill:#66ccff;" x="320.053383" xlink:href="#C0_0_f7a39a0780" y="221.513591"/>
    </g>
    <g clip-path="url(#pa41fcdfbc2)">
     <use style="fill:#66ccff;" x="395.025821" xlink:href="#C0_0_f7a39a0780" y="296.68828"/>
    </g>
    <g clip-path="url(#pa41fcdfbc2)">
     <use style="fill:#66ccff;" x="403.802248" xlink:href="#C0_0_f7a39a0780" y="280.541448"/>
    </g>
    <g clip-path="url(#pa41fcdfbc2)">
     <use style="fill:#66ccff;" x="397.995885" xlink:href="#C0_0_f7a39a0780" y="261.781"/>
    </g>
    <g clip-path="url(#pa41fcdfbc2)">
     <use style="fill:#66ccff;" x="389.303679" xlink:href="#C0_0_f7a39a0780" y="247.105513"/>
    </g>
    <g clip-path="url(#pa41fcdfbc2)">
     <use style="fill:#66ccff;" x="386.199851" xlink:href="#C0_0_f7a39a0780" y="261.755686"/>
    </g>
    <g clip-path="url(#pa41fcdfbc2)">
     <use style="fill:#66ccff;" x="390.946008" xlink:href="#C0_0_f7a39a0780" y="176.556861"/>
    </g>
    <g clip-path="url(#pa41fcdfbc2)">
     <use style="fill:#66ccff;" x="310.79144" xlink:href="#C0_0_f7a39a0780" y="238.188842"/>
    </g>
    <g clip-path="url(#pa41fcdfbc2)">
     <use style="fill:#66ccff;" x="332.087219" xlink:href="#C0_0_f7a39a0780" y="244.760853"/>
    </g>
    <g clip-path="url(#pa41fcdfbc2)">
     <use style="fill:#66ccff;" x="326.362601" xlink:href="#C0_0_f7a39a0780" y="298.520343"/>
    </g>
    <g clip-path="url(#pa41fcdfbc2)">
     <use style="fill:#66ccff;" x="446.364081" xlink:href="#C0_0_f7a39a0780" y="237.40096"/>
    </g>
    <g clip-path="url(#pa41fcdfbc2)">
     <use style="fill:#66ccff;" x="276.458592" xlink:href="#C0_0_f7a39a0780" y="242.403535"/>
    </g>
    <g clip-path="url(#pa41fcdfbc2)">
     <use style="fill:#66ccff;" x="260.33008" xlink:href="#C0_0_f7a39a0780" y="245.928437"/>
    </g>
    <g clip-path="url(#pa41fcdfbc2)">
     <use style="fill:#66ccff;" x="278.308998" xlink:href="#C0_0_f7a39a0780" y="261.239924"/>
    </g>
    <g clip-path="url(#pa41fcdfbc2)">
     <use style="fill:#66ccff;" x="277.42219" xlink:href="#C0_0_f7a39a0780" y="236.74281"/>
    </g>
    <g clip-path="url(#pa41fcdfbc2)">
     <use style="fill:#66ccff;" x="323.610523" xlink:href="#C0_0_f7a39a0780" y="232.081966"/>
    </g>
   </g>
   <g id="LineCollection_1">
    <path clip-path="url(#pa41fcdfbc2)" d="M 338.782868 238.843828 
L 340.155191 234.094388 
" style="fill:none;stroke:#999999;"/>
    <path clip-path="url(#pa41fcdfbc2)" d="M 338.782868 238.843828 
L 340.482171 243.710344 
L 342.659557 249.057815 
L 344.802264 253.611076 
" style="fill:none;stroke:#999999;"/>
    <path clip-path="url(#pa41fcdfbc2)" d="M 338.782868 238.843828 
L 336.308228 240.052547 
L 334.80214 242.30861 
L 333.224216 243.881209 
L 332.087219 244.760853 
" style="fill:none;stroke:#999999;"/>
    <path clip-path="url(#pa41fcdfbc2)" d="M 344.802264 253.611076 
L 345.832744 255.863975 
L 347.923432 259.126249 
L 351.72333 262.736583 
" style="fill:none;stroke:#999999;"/>
    <path clip-path="url(#pa41fcdfbc2)" d="M 344.802264 253.611076 
L 342.659557 249.057815 
L 340.482171 243.710344 
L 338.782868 238.843828 
" style="fill:none;stroke:#999999;"/>
    <path clip-path="url(#pa41fcdfbc2)" d="M 344.802264 253.611076 
L 352.312884 249.652682 
L 358.570083 247.665574 
L 368.803055 245.311421 
L 382.139856 243.691358 
" style="fill:none;stroke:#999999;"/>
    <path clip-path="url(#pa41fcdfbc2)" d="M 1449.92117 297.124938 
L 1421.151928 272.839824 
L 1362.90251 224.184163 
L 1298.215063 172.892736 
L 1279.007494 165.754336 
L 1245.707604 161.463702 
L 1212.578634 155.018259 
L 1184.069489 147.02553 
L 1096.738712 107.223256 
L 1040.570072 79.353121 
L 1009.135451 52.897377 
L 984.718504 43.990198 
L 952.733963 44.300288 
L 875.202662 50.837493 
L 859.636456 49.961014 
L 829.284335 40.95891 
L 790.668551 19.825323 
L 762.744005 9.535396 
L 731.403514 8.307692 
L 698.881439 15.569495 
L 679.958738 30.855669 
L 674.781563 47.736592 
L 682.210438 78.495627 
L 689.758215 115.269777 
L 693.325264 161.099821 
L 684.496818 205.034519 
L 685.314266 220.46941 
L 706.196367 254.402122 
L 721.67092 288.638596 
L 727.650681 319.017929 
L 723.702156 331.892994 
L 712.010162 343.853611 
L 697.803893 350.485741 
L 675.215058 350.751532 
L 652.093644 339.854082 
L 631.362647 316.19864 
L 620.730859 276.333083 
L 610.899179 263.840884 
L 595.219026 255.338721 
L 576.202195 254.288211 
L 524.378419 275.548365 
L 473.882379 297.609058 
L 444.914967 303.190679 
L 438.546298 303.197007 
L 428.860769 302.421782 
L 423.72075 302.171812 
" style="fill:none;stroke:#999999;"/>
    <path clip-path="url(#pa41fcdfbc2)" d="M 364.648929 271.260896 
L 379.330804 260.622908 
" style="fill:none;stroke:#999999;"/>
    <path clip-path="url(#pa41fcdfbc2)" d="M 364.648929 271.260896 
L 366.665303 273.080302 
L 372.838279 280.917986 
L 381.941686 288.692387 
L 385.07524 290.796569 
L 389.831305 293.989231 
L 395.025821 296.68828 
" style="fill:none;stroke:#999999;"/>
    <path clip-path="url(#pa41fcdfbc2)" d="M 364.648929 271.260896 
L 362.159426 270.188237 
L 351.72333 262.736583 
" style="fill:none;stroke:#999999;"/>
    <path clip-path="url(#pa41fcdfbc2)" d="M 364.648929 271.260896 
L 361.376657 275.24144 
L 357.69566 280.940135 
L 355.59011 285.237098 
L 355.765986 289.619493 
L 357.205191 292.2869 
" style="fill:none;stroke:#999999;"/>
    <path clip-path="url(#pa41fcdfbc2)" d="M 294.23191 239.182396 
L 294.34338 241.76437 
" style="fill:none;stroke:#999999;"/>
    <path clip-path="url(#pa41fcdfbc2)" d="M 294.23191 239.182396 
L 310.79144 238.188842 
" style="fill:none;stroke:#999999;"/>
    <path clip-path="url(#pa41fcdfbc2)" d="M 294.23191 239.182396 
L 279.393976 237.141497 
L 277.42219 236.74281 
" style="fill:none;stroke:#999999;"/>
    <path clip-path="url(#pa41fcdfbc2)" d="M 294.23191 239.182396 
L 290.709449 229.560112 
L 287.749293 224.69676 
L 284.868406 221.725591 
L 281.531728 218.567736 
" style="fill:none;stroke:#999999;"/>
    <path clip-path="url(#pa41fcdfbc2)" d="M 324.145581 237.046572 
L 326.699489 235.913794 
" style="fill:none;stroke:#999999;"/>
    <path clip-path="url(#pa41fcdfbc2)" d="M 324.145581 237.046572 
L 310.79144 238.188842 
" style="fill:none;stroke:#999999;"/>
    <path clip-path="url(#pa41fcdfbc2)" d="M 324.145581 237.046572 
L 323.674928 238.638156 
L 322.748486 239.679173 
L 321.177994 240.52401 
L 314.630972 241.669445 
L 314.251973 240.805622 
L 312.495697 240.618936 
L 307.127783 241.039772 
L 294.34338 241.76437 
" style="fill:none;stroke:#999999;"/>
    <path clip-path="url(#pa41fcdfbc2)" d="M 204.530531 259.980579 
L 226.009617 248.127545 
L 240.686538 239.824725 
L 251.689894 234.192477 
L 254.565827 232.929968 
L 260.062551 231.00298 
L 264.603107 229.240529 
" style="fill:none;stroke:#999999;"/>
    <path clip-path="url(#pa41fcdfbc2)" d="M 264.603107 229.240529 
L 270.506078 226.88954 
L 275.168013 223.927864 
L 278.839102 220.947202 
L 281.531728 218.567736 
" style="fill:none;stroke:#999999;"/>
    <path clip-path="url(#pa41fcdfbc2)" d="M 264.603107 229.240529 
L 260.062551 231.00298 
L 254.565827 232.929968 
L 251.689894 234.192477 
L 240.686538 239.824725 
L 226.009617 248.127545 
L 204.530531 259.980579 
" style="fill:none;stroke:#999999;"/>
    <path clip-path="url(#pa41fcdfbc2)" d="M 264.603107 229.240529 
L 265.467621 230.344829 
L 269.284859 232.993251 
L 274.110284 236.072003 
L 277.42219 236.74281 
" style="fill:none;stroke:#999999;"/>
    <path clip-path="url(#pa41fcdfbc2)" d="M 281.531728 218.567736 
L 278.839102 220.947202 
L 275.168013 223.927864 
L 270.506078 226.88954 
L 264.603107 229.240529 
" style="fill:none;stroke:#999999;"/>
    <path clip-path="url(#pa41fcdfbc2)" d="M 281.531728 218.567736 
L 284.868406 221.725591 
L 287.749293 224.69676 
L 290.709449 229.560112 
L 294.23191 239.182396 
" style="fill:none;stroke:#999999;"/>
    <path clip-path="url(#pa41fcdfbc2)" d="M 281.531728 218.567736 
L 288.182789 217.115375 
L 293.736486 217.520391 
L 300.850768 217.694421 
L 309.582607 218.561407 
L 315.136304 220.412455 
L 320.053383 221.513591 
" style="fill:none;stroke:#999999;"/>
    <path clip-path="url(#pa41fcdfbc2)" d="M 294.34338 241.76437 
L 294.23191 239.182396 
" style="fill:none;stroke:#999999;"/>
    <path clip-path="url(#pa41fcdfbc2)" d="M 294.34338 241.76437 
L 293.122161 245.748078 
L 291.167715 247.953515 
" style="fill:none;stroke:#999999;"/>
    <path clip-path="url(#pa41fcdfbc2)" d="M 294.34338 241.76437 
L 307.127783 241.039772 
L 312.495697 240.618936 
L 314.251973 240.805622 
L 314.630972 241.669445 
L 321.177994 240.52401 
L 322.748486 239.679173 
L 323.674928 238.638156 
L 324.145581 237.046572 
" style="fill:none;stroke:#999999;"/>
    <path clip-path="url(#pa41fcdfbc2)" d="M 271.427566 268.966862 
L 273.16898 266.55259 
L 276.252991 263.204883 
L 278.308998 261.239924 
" style="fill:none;stroke:#999999;"/>
    <path clip-path="url(#pa41fcdfbc2)" d="M 304.457451 295.023919 
L 310.22418 284.715007 
L 311.680725 281.452733 
L 312.713683 276.984905 
L 314.009216 265.236289 
L 314.89107 252.801045 
L 314.809325 251.373998 
" style="fill:none;stroke:#999999;"/>
    <path clip-path="url(#pa41fcdfbc2)" d="M 351.72333 262.736583 
L 347.923432 259.126249 
L 345.832744 255.863975 
L 344.802264 253.611076 
" style="fill:none;stroke:#999999;"/>
    <path clip-path="url(#pa41fcdfbc2)" d="M 351.72333 262.736583 
L 346.543677 262.119567 
L 344.319226 261.458253 
L 342.642217 259.778071 
L 341.168332 257.268873 
L 339.129664 252.649164 
L 337.452656 248.700262 
L 336.350339 247.659245 
L 335.651791 248.057933 
" style="fill:none;stroke:#999999;"/>
    <path clip-path="url(#pa41fcdfbc2)" d="M 351.72333 262.736583 
L 362.159426 270.188237 
L 364.648929 271.260896 
" style="fill:none;stroke:#999999;"/>
    <path clip-path="url(#pa41fcdfbc2)" d="M 291.167715 247.953515 
L 288.856565 250.139966 
L 280.875292 258.784517 
L 278.308998 261.239924 
" style="fill:none;stroke:#999999;"/>
    <path clip-path="url(#pa41fcdfbc2)" d="M 291.167715 247.953515 
L 293.122161 245.748078 
L 294.34338 241.76437 
" style="fill:none;stroke:#999999;"/>
    <path clip-path="url(#pa41fcdfbc2)" d="M 291.167715 247.953515 
L 299.148988 249.719129 
L 306.013081 251.298057 
L 314.809325 251.373998 
" style="fill:none;stroke:#999999;"/>
    <path clip-path="url(#pa41fcdfbc2)" d="M 314.809325 251.373998 
L 324.011816 249.551428 
L 328.336863 248.165515 
L 331.676018 246.618229 
L 333.070635 245.713272 
" style="fill:none;stroke:#999999;"/>
    <path clip-path="url(#pa41fcdfbc2)" d="M 314.809325 251.373998 
L 306.013081 251.298057 
L 299.148988 249.719129 
L 291.167715 247.953515 
" style="fill:none;stroke:#999999;"/>
    <path clip-path="url(#pa41fcdfbc2)" d="M 314.809325 251.373998 
L 314.89107 252.801045 
L 314.009216 265.236289 
L 312.713683 276.984905 
L 311.680725 281.452733 
L 310.22418 284.715007 
L 304.457451 295.023919 
" style="fill:none;stroke:#999999;"/>
    <path clip-path="url(#pa41fcdfbc2)" d="M 333.070635 245.713272 
L 332.087219 244.760853 
" style="fill:none;stroke:#999999;"/>
    <path clip-path="url(#pa41fcdfbc2)" d="M 333.070635 245.713272 
L 331.676018 246.618229 
L 328.336863 248.165515 
L 324.011816 249.551428 
L 314.809325 251.373998 
" style="fill:none;stroke:#999999;"/>
    <path clip-path="url(#pa41fcdfbc2)" d="M 333.070635 245.713272 
L 333.31587 245.947422 
L 335.651791 248.057933 
" style="fill:none;stroke:#999999;"/>
    <path clip-path="url(#pa41fcdfbc2)" d="M 335.651791 248.057933 
L 333.31587 245.947422 
L 333.070635 245.713272 
" style="fill:none;stroke:#999999;"/>
    <path clip-path="url(#pa41fcdfbc2)" d="M 335.651791 248.057933 
L 336.350339 247.659245 
L 337.452656 248.700262 
L 339.129664 252.649164 
L 341.168332 257.268873 
L 342.642217 259.778071 
L 344.319226 261.458253 
L 346.543677 262.119567 
L 351.72333 262.736583 
" style="fill:none;stroke:#999999;"/>
    <path clip-path="url(#pa41fcdfbc2)" d="M 335.651791 248.057933 
L 334.799663 248.909098 
L 333.417431 251.149341 
L 329.312848 259.45216 
L 326.701966 266.359574 
L 322.550317 277.076666 
L 319.867599 285.863606 
L 318.321877 291.495854 
L 316.525967 294.41956 
L 312.265325 297.840043 
" style="fill:none;stroke:#999999;"/>
    <path clip-path="url(#pa41fcdfbc2)" d="M 326.699489 235.913794 
L 324.145581 237.046572 
" style="fill:none;stroke:#999999;"/>
    <path clip-path="url(#pa41fcdfbc2)" d="M 326.699489 235.913794 
L 327.474827 237.815468 
L 329.003208 240.505025 
L 332.087219 244.760853 
" style="fill:none;stroke:#999999;"/>
    <path clip-path="url(#pa41fcdfbc2)" d="M 326.699489 235.913794 
L 330.011395 233.537491 
L 330.548929 233.395103 
L 331.049307 233.262207 
L 340.397949 230.800472 
" style="fill:none;stroke:#999999;"/>
    <path clip-path="url(#pa41fcdfbc2)" d="M 340.155191 234.094388 
L 338.782868 238.843828 
" style="fill:none;stroke:#999999;"/>
    <path clip-path="url(#pa41fcdfbc2)" d="M 340.155191 234.094388 
L 340.397949 230.800472 
" style="fill:none;stroke:#999999;"/>
    <path clip-path="url(#pa41fcdfbc2)" d="M 340.155191 234.094388 
L 350.479817 230.94286 
L 360.086078 229.487335 
L 363.095776 228.901961 
" style="fill:none;stroke:#999999;"/>
    <path clip-path="url(#pa41fcdfbc2)" d="M 404.758415 232.088295 
L 414.733768 233.448894 
L 426.046763 234.907583 
L 446.364081 237.40096 
" style="fill:none;stroke:#999999;"/>
    <path clip-path="url(#pa41fcdfbc2)" d="M 404.758415 232.088295 
L 394.72609 230.961845 
L 386.910784 230.920711 
L 383.304101 230.616949 
" style="fill:none;stroke:#999999;"/>
    <path clip-path="url(#pa41fcdfbc2)" d="M 404.758415 232.088295 
L 404.176293 221.855323 
L 386.021499 206.974164 
" style="fill:none;stroke:#999999;"/>
    <path clip-path="url(#pa41fcdfbc2)" d="M 386.021499 206.974164 
L 391.369595 202.019052 
" style="fill:none;stroke:#999999;"/>
    <path clip-path="url(#pa41fcdfbc2)" d="M 386.021499 206.974164 
L 404.176293 221.855323 
L 404.758415 232.088295 
" style="fill:none;stroke:#999999;"/>
    <path clip-path="url(#pa41fcdfbc2)" d="M 386.021499 206.974164 
L 380.041737 211.359724 
L 376.719922 212.157098 
" style="fill:none;stroke:#999999;"/>
    <path clip-path="url(#pa41fcdfbc2)" d="M 376.719922 212.157098 
L 374.859607 212.157098 
L 371.537793 211.49262 
L 367.552111 211.002171 
L 363.479729 208.603719 
" style="fill:none;stroke:#999999;"/>
    <path clip-path="url(#pa41fcdfbc2)" d="M 376.719922 212.157098 
L 380.041737 211.359724 
L 386.021499 206.974164 
" style="fill:none;stroke:#999999;"/>
    <path clip-path="url(#pa41fcdfbc2)" d="M 376.719922 212.157098 
L 373.180122 213.93537 
L 368.42901 214.701102 
L 362.496314 214.716923 
" style="fill:none;stroke:#999999;"/>
    <path clip-path="url(#pa41fcdfbc2)" d="M 363.479729 208.603719 
L 367.059164 204.955415 
L 371.233107 201.009677 
L 372.957181 198.82639 
L 374.924012 195.124294 
L 377.760312 192.520171 
L 382.328117 188.76112 
L 383.774753 187.546073 
L 385.33286 185.217234 
L 387.648965 181.356929 
L 390.946008 176.556861 
" style="fill:none;stroke:#999999;"/>
    <path clip-path="url(#pa41fcdfbc2)" d="M 363.479729 208.603719 
L 360.209934 212.293158 
L 355.520751 216.874897 
L 350.692849 219.415737 
L 347.484982 221.016814 
L 345.101995 222.089473 
L 343.02617 223.266549 
L 341.646416 223.544997 
L 341.046953 223.665236 
L 338.396438 223.013414 
L 338.42864 223.231743 
L 338.904247 226.389599 
L 339.89014 229.303813 
" style="fill:none;stroke:#999999;"/>
    <path clip-path="url(#pa41fcdfbc2)" d="M 363.479729 208.603719 
L 362.69696 212.581099 
L 362.496314 214.716923 
" style="fill:none;stroke:#999999;"/>
    <path clip-path="url(#pa41fcdfbc2)" d="M 363.479729 208.603719 
L 367.552111 211.002171 
L 371.537793 211.49262 
L 374.859607 212.157098 
L 376.719922 212.157098 
" style="fill:none;stroke:#999999;"/>
    <path clip-path="url(#pa41fcdfbc2)" d="M 362.496314 214.716923 
L 362.528516 217.877943 
L 362.818339 221.409173 
L 363.016508 224.592342 
L 363.058619 225.421359 
" style="fill:none;stroke:#999999;"/>
    <path clip-path="url(#pa41fcdfbc2)" d="M 362.496314 214.716923 
L 362.69696 212.581099 
L 363.479729 208.603719 
" style="fill:none;stroke:#999999;"/>
    <path clip-path="url(#pa41fcdfbc2)" d="M 362.496314 214.716923 
L 368.42901 214.701102 
L 373.180122 213.93537 
L 376.719922 212.157098 
" style="fill:none;stroke:#999999;"/>
    <path clip-path="url(#pa41fcdfbc2)" d="M 363.058619 225.421359 
L 363.095776 228.901961 
" style="fill:none;stroke:#999999;"/>
    <path clip-path="url(#pa41fcdfbc2)" d="M 363.058619 225.421359 
L 358.931742 225.592225 
L 349.503833 227.016107 
L 344.623911 228.000169 
L 341.354116 228.898797 
L 339.89014 229.303813 
" style="fill:none;stroke:#999999;"/>
    <path clip-path="url(#pa41fcdfbc2)" d="M 363.058619 225.421359 
L 363.016508 224.592342 
L 362.818339 221.409173 
L 362.528516 217.877943 
L 362.496314 214.716923 
" style="fill:none;stroke:#999999;"/>
    <path clip-path="url(#pa41fcdfbc2)" d="M 363.095776 228.901961 
L 363.058619 225.421359 
" style="fill:none;stroke:#999999;"/>
    <path clip-path="url(#pa41fcdfbc2)" d="M 363.095776 228.901961 
L 367.735417 228.626677 
L 376.841301 229.541126 
L 383.304101 230.616949 
" style="fill:none;stroke:#999999;"/>
    <path clip-path="url(#pa41fcdfbc2)" d="M 363.095776 228.901961 
L 360.086078 229.487335 
L 350.479817 230.94286 
L 340.155191 234.094388 
" style="fill:none;stroke:#999999;"/>
    <path clip-path="url(#pa41fcdfbc2)" d="M 382.139856 243.691358 
L 368.803055 245.311421 
L 358.570083 247.665574 
L 352.312884 249.652682 
L 344.802264 253.611076 
" style="fill:none;stroke:#999999;"/>
    <path clip-path="url(#pa41fcdfbc2)" d="M 382.139856 243.691358 
L 381.391766 255.028631 
L 379.330804 260.622908 
" style="fill:none;stroke:#999999;"/>
    <path clip-path="url(#pa41fcdfbc2)" d="M 382.139856 243.691358 
L 381.716268 236.752302 
L 383.304101 230.616949 
" style="fill:none;stroke:#999999;"/>
    <path clip-path="url(#pa41fcdfbc2)" d="M 379.330804 260.622908 
L 364.648929 271.260896 
" style="fill:none;stroke:#999999;"/>
    <path clip-path="url(#pa41fcdfbc2)" d="M 379.330804 260.622908 
L 386.199851 261.755686 
" style="fill:none;stroke:#999999;"/>
    <path clip-path="url(#pa41fcdfbc2)" d="M 379.330804 260.622908 
L 381.391766 255.028631 
L 382.139856 243.691358 
" style="fill:none;stroke:#999999;"/>
    <path clip-path="url(#pa41fcdfbc2)" d="M 383.304101 230.616949 
L 386.910784 230.920711 
L 394.72609 230.961845 
L 404.758415 232.088295 
" style="fill:none;stroke:#999999;"/>
    <path clip-path="url(#pa41fcdfbc2)" d="M 383.304101 230.616949 
L 376.841301 229.541126 
L 367.735417 228.626677 
L 363.095776 228.901961 
" style="fill:none;stroke:#999999;"/>
    <path clip-path="url(#pa41fcdfbc2)" d="M 383.304101 230.616949 
L 381.716268 236.752302 
L 382.139856 243.691358 
" style="fill:none;stroke:#999999;"/>
    <path clip-path="url(#pa41fcdfbc2)" d="M 423.72075 302.171812 
L 428.860769 302.421782 
L 438.546298 303.197007 
L 444.914967 303.190679 
L 473.882379 297.609058 
L 524.378419 275.548365 
L 576.202195 254.288211 
L 595.219026 255.338721 
L 610.899179 263.840884 
L 620.730859 276.333083 
L 631.362647 316.19864 
L 652.093644 339.854082 
L 675.215058 350.751532 
L 697.803893 350.485741 
L 712.010162 343.853611 
L 723.702156 331.892994 
L 727.650681 319.017929 
L 721.67092 288.638596 
L 706.196367 254.402122 
L 685.314266 220.46941 
L 684.496818 205.034519 
L 693.325264 161.099821 
L 689.758215 115.269777 
L 682.210438 78.495627 
L 674.781563 47.736592 
L 679.958738 30.855669 
L 698.881439 15.569495 
L 731.403514 8.307692 
L 762.744005 9.535396 
L 790.668551 19.825323 
L 829.284335 40.95891 
L 859.636456 49.961014 
L 875.202662 50.837493 
L 952.733963 44.300288 
L 984.718504 43.990198 
L 1009.135451 52.897377 
L 1040.570072 79.353121 
L 1096.738712 107.223256 
L 1184.069489 147.02553 
L 1212.578634 155.018259 
L 1245.707604 161.463702 
L 1279.007494 165.754336 
L 1298.215063 172.892736 
L 1362.90251 224.184163 
L 1421.151928 272.839824 
L 1449.92117 297.124938 
" style="fill:none;stroke:#999999;"/>
    <path clip-path="url(#pa41fcdfbc2)" d="M 423.72075 302.171812 
L 420.396458 301.92817 
L 411.934625 301.263691 
L 404.000418 300.187868 
L 397.445965 297.925476 
L 395.025821 296.68828 
" style="fill:none;stroke:#999999;"/>
    <path clip-path="url(#pa41fcdfbc2)" d="M 423.72075 302.171812 
L 419.799473 306.041609 
L 415.538831 309.560182 
L 409.246952 312.806635 
L 400.993197 317.068791 
L 397.205684 317.407359 
L 393.75506 317.141567 
L 391.919515 331.750606 
L 390.6438 338.733961 
L 388.748805 345.144598 
L 385.36754 353.263895 
L 379.345667 367.53753 
L 374.136289 380.798626 
L 369.942529 390.272194 
L 367.91377 392.907959 
L 364.056898 396.157576 
L 358.037502 401.704391 
L 353.301254 407.861894 
L 349.98687 412.731573 
L 346.739369 416.047639 
L 342.94938 419.363704 
L 340.244367 422.812664 
L 337.403114 423.692308 
L 334.698101 422.879112 
L 330.977471 420.309795 
L 324.346227 415.304055 
L 318.799961 411.244407 
L 311.695588 406.032995 
L 308.990576 402.517587 
L 307.63807 399.676149 
L 306.825575 396.360084 
L 306.419328 393.113631 
L 306.689334 390.405089 
L 307.56871 386.886517 
L 309.193699 381.273254 
L 310.139958 371.328223 
L 310.682447 361.962237 
L 309.619764 358.772739 
L 307.756971 354.520076 
L 307.226868 350.533204 
L 306.694288 345.748957 
L 305.366553 338.306796 
L 304.833973 329.27305 
L 303.771289 315.451893 
L 305.366553 306.946566 
L 307.207051 299.25127 
L 308.88406 298.140641 
L 310.563545 297.757775 
L 312.265325 297.840043 
" style="fill:none;stroke:#999999;"/>
    <path clip-path="url(#pa41fcdfbc2)" d="M 339.89014 229.303813 
L 340.397949 230.800472 
" style="fill:none;stroke:#999999;"/>
    <path clip-path="url(#pa41fcdfbc2)" d="M 339.89014 229.303813 
L 341.354116 228.898797 
L 344.623911 228.000169 
L 349.503833 227.016107 
L 358.931742 225.592225 
L 363.058619 225.421359 
" style="fill:none;stroke:#999999;"/>
    <path clip-path="url(#pa41fcdfbc2)" d="M 339.89014 229.303813 
L 338.904247 226.389599 
L 338.42864 223.231743 
L 338.396438 223.013414 
L 341.046953 223.665236 
L 341.646416 223.544997 
L 343.02617 223.266549 
L 345.101995 222.089473 
L 347.484982 221.016814 
L 350.692849 219.415737 
L 355.520751 216.874897 
L 360.209934 212.293158 
L 363.479729 208.603719 
" style="fill:none;stroke:#999999;"/>
    <path clip-path="url(#pa41fcdfbc2)" d="M 340.397949 230.800472 
L 340.155191 234.094388 
" style="fill:none;stroke:#999999;"/>
    <path clip-path="url(#pa41fcdfbc2)" d="M 340.397949 230.800472 
L 339.89014 229.303813 
" style="fill:none;stroke:#999999;"/>
    <path clip-path="url(#pa41fcdfbc2)" d="M 340.397949 230.800472 
L 331.049307 233.262207 
L 330.548929 233.395103 
L 330.011395 233.537491 
L 326.699489 235.913794 
" style="fill:none;stroke:#999999;"/>
    <path clip-path="url(#pa41fcdfbc2)" d="M 312.265325 297.840043 
L 326.362601 298.520343 
" style="fill:none;stroke:#999999;"/>
    <path clip-path="url(#pa41fcdfbc2)" d="M 312.265325 297.840043 
L 316.525967 294.41956 
L 318.321877 291.495854 
L 319.867599 285.863606 
L 322.550317 277.076666 
L 326.701966 266.359574 
L 329.312848 259.45216 
L 333.417431 251.149341 
L 334.799663 248.909098 
L 335.651791 248.057933 
" style="fill:none;stroke:#999999;"/>
    <path clip-path="url(#pa41fcdfbc2)" d="M 312.265325 297.840043 
L 310.563545 297.757775 
L 308.88406 298.140641 
L 307.207051 299.25127 
L 305.366553 306.946566 
L 303.771289 315.451893 
L 304.833973 329.27305 
L 305.366553 338.306796 
L 306.694288 345.748957 
L 307.226868 350.533204 
L 307.756971 354.520076 
L 309.619764 358.772739 
L 310.682447 361.962237 
L 310.139958 371.328223 
L 309.193699 381.273254 
L 307.56871 386.886517 
L 306.689334 390.405089 
L 306.419328 393.113631 
L 306.825575 396.360084 
L 307.63807 399.676149 
L 308.990576 402.517587 
L 311.695588 406.032995 
L 318.799961 411.244407 
L 324.346227 415.304055 
L 330.977471 420.309795 
L 334.698101 422.879112 
L 337.403114 423.692308 
L 340.244367 422.812664 
L 342.94938 419.363704 
L 346.739369 416.047639 
L 349.98687 412.731573 
L 353.301254 407.861894 
L 358.037502 401.704391 
L 364.056898 396.157576 
L 367.91377 392.907959 
L 369.942529 390.272194 
L 374.136289 380.798626 
L 379.345667 367.53753 
L 385.36754 353.263895 
L 388.748805 345.144598 
L 390.6438 338.733961 
L 391.919515 331.750606 
L 393.75506 317.141567 
L 397.205684 317.407359 
L 400.993197 317.068791 
L 409.246952 312.806635 
L 415.538831 309.560182 
L 419.799473 306.041609 
L 423.72075 302.171812 
" style="fill:none;stroke:#999999;"/>
    <path clip-path="url(#pa41fcdfbc2)" d="M 357.205191 292.2869 
L 355.765986 289.619493 
L 355.59011 285.237098 
L 357.69566 280.940135 
L 361.376657 275.24144 
L 364.648929 271.260896 
" style="fill:none;stroke:#999999;"/>
    <path clip-path="url(#pa41fcdfbc2)" d="M 391.369595 202.019052 
L 386.021499 206.974164 
" style="fill:none;stroke:#999999;"/>
    <path clip-path="url(#pa41fcdfbc2)" d="M 320.053383 221.513591 
L 315.136304 220.412455 
L 309.582607 218.561407 
L 300.850768 217.694421 
L 293.736486 217.520391 
L 288.182789 217.115375 
L 281.531728 218.567736 
" style="fill:none;stroke:#999999;"/>
    <path clip-path="url(#pa41fcdfbc2)" d="M 395.025821 296.68828 
L 397.445965 297.925476 
L 404.000418 300.187868 
L 411.934625 301.263691 
L 420.396458 301.92817 
L 423.72075 302.171812 
" style="fill:none;stroke:#999999;"/>
    <path clip-path="url(#pa41fcdfbc2)" d="M 395.025821 296.68828 
L 389.831305 293.989231 
L 385.07524 290.796569 
L 381.941686 288.692387 
L 372.838279 280.917986 
L 366.665303 273.080302 
L 364.648929 271.260896 
" style="fill:none;stroke:#999999;"/>
    <path clip-path="url(#pa41fcdfbc2)" d="M 395.025821 296.68828 
L 403.502517 281.092016 
L 403.802248 280.541448 
" style="fill:none;stroke:#999999;"/>
    <path clip-path="url(#pa41fcdfbc2)" d="M 403.802248 280.541448 
L 403.502517 281.092016 
L 395.025821 296.68828 
" style="fill:none;stroke:#999999;"/>
    <path clip-path="url(#pa41fcdfbc2)" d="M 397.995885 261.781 
L 387.933833 262.043627 
L 386.199851 261.755686 
" style="fill:none;stroke:#999999;"/>
    <path clip-path="url(#pa41fcdfbc2)" d="M 389.303679 247.105513 
L 386.199851 261.755686 
" style="fill:none;stroke:#999999;"/>
    <path clip-path="url(#pa41fcdfbc2)" d="M 386.199851 261.755686 
L 379.330804 260.622908 
" style="fill:none;stroke:#999999;"/>
    <path clip-path="url(#pa41fcdfbc2)" d="M 386.199851 261.755686 
L 389.303679 247.105513 
" style="fill:none;stroke:#999999;"/>
    <path clip-path="url(#pa41fcdfbc2)" d="M 386.199851 261.755686 
L 387.933833 262.043627 
L 397.995885 261.781 
" style="fill:none;stroke:#999999;"/>
    <path clip-path="url(#pa41fcdfbc2)" d="M 390.946008 176.556861 
L 387.648965 181.356929 
L 385.33286 185.217234 
L 383.774753 187.546073 
L 382.328117 188.76112 
L 377.760312 192.520171 
L 374.924012 195.124294 
L 372.957181 198.82639 
L 371.233107 201.009677 
L 367.059164 204.955415 
L 363.479729 208.603719 
" style="fill:none;stroke:#999999;"/>
    <path clip-path="url(#pa41fcdfbc2)" d="M 310.79144 238.188842 
L 324.145581 237.046572 
" style="fill:none;stroke:#999999;"/>
    <path clip-path="url(#pa41fcdfbc2)" d="M 310.79144 238.188842 
L 294.23191 239.182396 
" style="fill:none;stroke:#999999;"/>
    <path clip-path="url(#pa41fcdfbc2)" d="M 310.79144 238.188842 
L 310.053259 234.527881 
L 317.816545 232.676833 
L 323.610523 232.081966 
" style="fill:none;stroke:#999999;"/>
    <path clip-path="url(#pa41fcdfbc2)" d="M 332.087219 244.760853 
L 333.070635 245.713272 
" style="fill:none;stroke:#999999;"/>
    <path clip-path="url(#pa41fcdfbc2)" d="M 332.087219 244.760853 
L 333.224216 243.881209 
L 334.80214 242.30861 
L 336.308228 240.052547 
L 338.782868 238.843828 
" style="fill:none;stroke:#999999;"/>
    <path clip-path="url(#pa41fcdfbc2)" d="M 332.087219 244.760853 
L 329.003208 240.505025 
L 327.474827 237.815468 
L 326.699489 235.913794 
" style="fill:none;stroke:#999999;"/>
    <path clip-path="url(#pa41fcdfbc2)" d="M 326.362601 298.520343 
L 312.265325 297.840043 
" style="fill:none;stroke:#999999;"/>
    <path clip-path="url(#pa41fcdfbc2)" d="M 446.364081 237.40096 
L 426.046763 234.907583 
L 414.733768 233.448894 
L 404.758415 232.088295 
" style="fill:none;stroke:#999999;"/>
    <path clip-path="url(#pa41fcdfbc2)" d="M 276.458592 242.403535 
L 260.33008 245.928437 
" style="fill:none;stroke:#999999;"/>
    <path clip-path="url(#pa41fcdfbc2)" d="M 276.458592 242.403535 
L 277.42219 236.74281 
" style="fill:none;stroke:#999999;"/>
    <path clip-path="url(#pa41fcdfbc2)" d="M 276.458592 242.403535 
L 274.680021 252.839015 
L 278.308998 261.239924 
" style="fill:none;stroke:#999999;"/>
    <path clip-path="url(#pa41fcdfbc2)" d="M 260.33008 245.928437 
L 276.458592 242.403535 
" style="fill:none;stroke:#999999;"/>
    <path clip-path="url(#pa41fcdfbc2)" d="M 278.308998 261.239924 
L 276.252991 263.204883 
L 273.16898 266.55259 
L 271.427566 268.966862 
" style="fill:none;stroke:#999999;"/>
    <path clip-path="url(#pa41fcdfbc2)" d="M 278.308998 261.239924 
L 280.875292 258.784517 
L 288.856565 250.139966 
L 291.167715 247.953515 
" style="fill:none;stroke:#999999;"/>
    <path clip-path="url(#pa41fcdfbc2)" d="M 278.308998 261.239924 
L 274.680021 252.839015 
L 276.458592 242.403535 
" style="fill:none;stroke:#999999;"/>
    <path clip-path="url(#pa41fcdfbc2)" d="M 277.42219 236.74281 
L 276.458592 242.403535 
" style="fill:none;stroke:#999999;"/>
    <path clip-path="url(#pa41fcdfbc2)" d="M 277.42219 236.74281 
L 279.393976 237.141497 
L 294.23191 239.182396 
" style="fill:none;stroke:#999999;"/>
    <path clip-path="url(#pa41fcdfbc2)" d="M 277.42219 236.74281 
L 274.110284 236.072003 
L 269.284859 232.993251 
L 265.467621 230.344829 
L 264.603107 229.240529 
" style="fill:none;stroke:#999999;"/>
    <path clip-path="url(#pa41fcdfbc2)" d="M 323.610523 232.081966 
L 317.816545 232.676833 
L 310.053259 234.527881 
L 310.79144 238.188842 
" style="fill:none;stroke:#999999;"/>
   </g>
  </g>
 </g>
 <defs>
  <clipPath id="pa41fcdfbc2">
   <rect height="432" width="1295.206265" x="179.622718" y="0"/>
  </clipPath>
 </defs>
</svg>
