<?xml version="1.0" encoding="utf-8" standalone="no"?>
<!DOCTYPE svg PUBLIC "-//W3C//DTD SVG 1.1//EN"
  "http://www.w3.org/Graphics/SVG/1.1/DTD/svg11.dtd">
<!-- Created with matplotlib (http://matplotlib.org/) -->
<svg height="432pt" version="1.1" viewBox="0 0 551.903045 432" width="551.903045pt" xmlns="http://www.w3.org/2000/svg" xmlns:xlink="http://www.w3.org/1999/xlink">
 <defs>
  <style type="text/css">
*{stroke-linecap:butt;stroke-linejoin:round;}
  </style>
 </defs>
 <g id="figure_1">
  <g id="patch_1">
   <path d="M 0 432 
L 551.903045 432 
L 551.903045 0 
L 0 0 
z
" style="fill:none;opacity:0;"/>
  </g>
  <g id="axes_1">
   <g id="PathCollection_1">
    <defs>
     <path d="M 0 1.936492 
C 0.513564 1.936492 1.006162 1.732451 1.369306 1.369306 
C 1.732451 1.006162 1.936492 0.513564 1.936492 0 
C 1.936492 -0.513564 1.732451 -1.006162 1.369306 -1.369306 
C 1.006162 -1.732451 0.513564 -1.936492 0 -1.936492 
C -0.513564 -1.936492 -1.006162 -1.732451 -1.369306 -1.369306 
C -1.732451 -1.006162 -1.936492 -0.513564 -1.936492 0 
C -1.936492 0.513564 -1.732451 1.006162 -1.369306 1.369306 
C -1.006162 1.732451 -0.513564 1.936492 0 1.936492 
z
" id="C0_0_2f69d03c8e"/>
    </defs>
    <g clip-path="url(#p56431aeded)">
     <use style="fill:#66ccff;" x="400.254401" xlink:href="#C0_0_2f69d03c8e" y="95.780239"/>
    </g>
    <g clip-path="url(#p56431aeded)">
     <use style="fill:#66ccff;" x="395.002075" xlink:href="#C0_0_2f69d03c8e" y="108.537978"/>
    </g>
    <g clip-path="url(#p56431aeded)">
     <use style="fill:#66ccff;" x="401.050895" xlink:href="#C0_0_2f69d03c8e" y="125.985451"/>
    </g>
    <g clip-path="url(#p56431aeded)">
     <use style="fill:#66ccff;" x="401.335126" xlink:href="#C0_0_2f69d03c8e" y="105.675718"/>
    </g>
    <g clip-path="url(#p56431aeded)">
     <use style="fill:#66ccff;" x="402.688194" xlink:href="#C0_0_2f69d03c8e" y="98.890128"/>
    </g>
    <g clip-path="url(#p56431aeded)">
     <use style="fill:#66ccff;" x="376.05912" xlink:href="#C0_0_2f69d03c8e" y="80.246011"/>
    </g>
    <g clip-path="url(#p56431aeded)">
     <use style="fill:#66ccff;" x="336.134961" xlink:href="#C0_0_2f69d03c8e" y="88.044251"/>
    </g>
    <g clip-path="url(#p56431aeded)">
     <use style="fill:#66ccff;" x="371.703796" xlink:href="#C0_0_2f69d03c8e" y="85.007683"/>
    </g>
    <g clip-path="url(#p56431aeded)">
     <use style="fill:#66ccff;" x="374.89842" xlink:href="#C0_0_2f69d03c8e" y="81.978031"/>
    </g>
    <g clip-path="url(#p56431aeded)">
     <use style="fill:#66ccff;" x="374.67363" xlink:href="#C0_0_2f69d03c8e" y="77.434937"/>
    </g>
    <g clip-path="url(#p56431aeded)">
     <use style="fill:#66ccff;" x="365.149196" xlink:href="#C0_0_2f69d03c8e" y="125.004619"/>
    </g>
    <g clip-path="url(#p56431aeded)">
     <use style="fill:#66ccff;" x="375.787857" xlink:href="#C0_0_2f69d03c8e" y="118.977134"/>
    </g>
    <g clip-path="url(#p56431aeded)">
     <use style="fill:#66ccff;" x="356.800592" xlink:href="#C0_0_2f69d03c8e" y="131.671236"/>
    </g>
    <g clip-path="url(#p56431aeded)">
     <use style="fill:#66ccff;" x="378.889539" xlink:href="#C0_0_2f69d03c8e" y="116.077522"/>
    </g>
    <g clip-path="url(#p56431aeded)">
     <use style="fill:#66ccff;" x="380.229639" xlink:href="#C0_0_2f69d03c8e" y="114.829693"/>
    </g>
    <g clip-path="url(#p56431aeded)">
     <use style="fill:#66ccff;" x="387.41106" xlink:href="#C0_0_2f69d03c8e" y="93.528059"/>
    </g>
    <g clip-path="url(#p56431aeded)">
     <use style="fill:#66ccff;" x="371.178564" xlink:href="#C0_0_2f69d03c8e" y="122.744139"/>
    </g>
    <g clip-path="url(#p56431aeded)">
     <use style="fill:#66ccff;" x="383.585291" xlink:href="#C0_0_2f69d03c8e" y="91.789122"/>
    </g>
    <g clip-path="url(#p56431aeded)">
     <use style="fill:#66ccff;" x="389.382303" xlink:href="#C0_0_2f69d03c8e" y="95.904745"/>
    </g>
    <g clip-path="url(#p56431aeded)">
     <use style="fill:#66ccff;" x="347.293451" xlink:href="#C0_0_2f69d03c8e" y="102.628082"/>
    </g>
    <g clip-path="url(#p56431aeded)">
     <use style="fill:#66ccff;" x="377.614283" xlink:href="#C0_0_2f69d03c8e" y="107.671968"/>
    </g>
    <g clip-path="url(#p56431aeded)">
     <use style="fill:#66ccff;" x="370.048125" xlink:href="#C0_0_2f69d03c8e" y="97.295065"/>
    </g>
    <g clip-path="url(#p56431aeded)">
     <use style="fill:#66ccff;" x="358.83776" xlink:href="#C0_0_2f69d03c8e" y="97.238345"/>
    </g>
    <g clip-path="url(#p56431aeded)">
     <use style="fill:#66ccff;" x="363.602678" xlink:href="#C0_0_2f69d03c8e" y="113.45459"/>
    </g>
    <g clip-path="url(#p56431aeded)">
     <use style="fill:#66ccff;" x="356.307782" xlink:href="#C0_0_2f69d03c8e" y="94.600196"/>
    </g>
    <g clip-path="url(#p56431aeded)">
     <use style="fill:#66ccff;" x="384.570913" xlink:href="#C0_0_2f69d03c8e" y="118.221796"/>
    </g>
    <g clip-path="url(#p56431aeded)">
     <use style="fill:#66ccff;" x="371.729733" xlink:href="#C0_0_2f69d03c8e" y="100.078471"/>
    </g>
    <g clip-path="url(#p56431aeded)">
     <use style="fill:#66ccff;" x="363.491363" xlink:href="#C0_0_2f69d03c8e" y="119.353419"/>
    </g>
    <g clip-path="url(#p56431aeded)">
     <use style="fill:#66ccff;" x="357.554939" xlink:href="#C0_0_2f69d03c8e" y="84.919145"/>
    </g>
    <g clip-path="url(#p56431aeded)">
     <use style="fill:#66ccff;" x="350.481591" xlink:href="#C0_0_2f69d03c8e" y="104.628482"/>
    </g>
    <g clip-path="url(#p56431aeded)">
     <use style="fill:#66ccff;" x="395.206332" xlink:href="#C0_0_2f69d03c8e" y="93.06877"/>
    </g>
    <g clip-path="url(#p56431aeded)">
     <use style="fill:#66ccff;" x="366.685988" xlink:href="#C0_0_2f69d03c8e" y="103.730654"/>
    </g>
    <g clip-path="url(#p56431aeded)">
     <use style="fill:#66ccff;" x="356.162964" xlink:href="#C0_0_2f69d03c8e" y="99.875111"/>
    </g>
    <g clip-path="url(#p56431aeded)">
     <use style="fill:#66ccff;" x="357.410121" xlink:href="#C0_0_2f69d03c8e" y="92.165408"/>
    </g>
    <g clip-path="url(#p56431aeded)">
     <use style="fill:#66ccff;" x="361.10188" xlink:href="#C0_0_2f69d03c8e" y="109.049837"/>
    </g>
    <g clip-path="url(#p56431aeded)">
     <use style="fill:#66ccff;" x="368.429198" xlink:href="#C0_0_2f69d03c8e" y="106.728487"/>
    </g>
    <g clip-path="url(#p56431aeded)">
     <use style="fill:#66ccff;" x="367.03182" xlink:href="#C0_0_2f69d03c8e" y="82.812223"/>
    </g>
    <g clip-path="url(#p56431aeded)">
     <use style="fill:#66ccff;" x="368.449732" xlink:href="#C0_0_2f69d03c8e" y="90.842875"/>
    </g>
    <g clip-path="url(#p56431aeded)">
     <use style="fill:#66ccff;" x="361.245616" xlink:href="#C0_0_2f69d03c8e" y="115.331868"/>
    </g>
    <g clip-path="url(#p56431aeded)">
     <use style="fill:#66ccff;" x="373.4978" xlink:href="#C0_0_2f69d03c8e" y="133.584482"/>
    </g>
    <g clip-path="url(#p56431aeded)">
     <use style="fill:#66ccff;" x="367.947194" xlink:href="#C0_0_2f69d03c8e" y="130.448308"/>
    </g>
    <g clip-path="url(#p56431aeded)">
     <use style="fill:#66ccff;" x="374.33212" xlink:href="#C0_0_2f69d03c8e" y="104.952198"/>
    </g>
    <g clip-path="url(#p56431aeded)">
     <use style="fill:#66ccff;" x="364.308392" xlink:href="#C0_0_2f69d03c8e" y="102.462073"/>
    </g>
    <g clip-path="url(#p56431aeded)">
     <use style="fill:#66ccff;" x="383.208118" xlink:href="#C0_0_2f69d03c8e" y="98.744871"/>
    </g>
    <g clip-path="url(#p56431aeded)">
     <use style="fill:#66ccff;" x="375.932675" xlink:href="#C0_0_2f69d03c8e" y="104.512276"/>
    </g>
    <g clip-path="url(#p56431aeded)">
     <use style="fill:#66ccff;" x="366.193177" xlink:href="#C0_0_2f69d03c8e" y="117.700253"/>
    </g>
    <g clip-path="url(#p56431aeded)">
     <use style="fill:#66ccff;" x="399.149899" xlink:href="#C0_0_2f69d03c8e" y="115.687402"/>
    </g>
    <g clip-path="url(#p56431aeded)">
     <use style="fill:#66ccff;" x="421.934834" xlink:href="#C0_0_2f69d03c8e" y="111.903796"/>
    </g>
    <g clip-path="url(#p56431aeded)">
     <use style="fill:#66ccff;" x="394.17532" xlink:href="#C0_0_2f69d03c8e" y="92.551377"/>
    </g>
    <g clip-path="url(#p56431aeded)">
     <use style="fill:#66ccff;" x="418.312242" xlink:href="#C0_0_2f69d03c8e" y="92.455922"/>
    </g>
    <g clip-path="url(#p56431aeded)">
     <use style="fill:#66ccff;" x="415.615832" xlink:href="#C0_0_2f69d03c8e" y="115.334635"/>
    </g>
    <g clip-path="url(#p56431aeded)">
     <use style="fill:#66ccff;" x="416.051364" xlink:href="#C0_0_2f69d03c8e" y="88.542276"/>
    </g>
    <g clip-path="url(#p56431aeded)">
     <use style="fill:#66ccff;" x="416.28264" xlink:href="#C0_0_2f69d03c8e" y="116.917247"/>
    </g>
    <g clip-path="url(#p56431aeded)">
     <use style="fill:#66ccff;" x="424.631244" xlink:href="#C0_0_2f69d03c8e" y="83.905111"/>
    </g>
    <g clip-path="url(#p56431aeded)">
     <use style="fill:#66ccff;" x="408.369568" xlink:href="#C0_0_2f69d03c8e" y="83.557877"/>
    </g>
    <g clip-path="url(#p56431aeded)">
     <use style="fill:#66ccff;" x="400.433801" xlink:href="#C0_0_2f69d03c8e" y="120.283066"/>
    </g>
    <g clip-path="url(#p56431aeded)">
     <use style="fill:#66ccff;" x="414.804207" xlink:href="#C0_0_2f69d03c8e" y="113.497476"/>
    </g>
    <g clip-path="url(#p56431aeded)">
     <use style="fill:#66ccff;" x="426.340951" xlink:href="#C0_0_2f69d03c8e" y="89.150974"/>
    </g>
    <g clip-path="url(#p56431aeded)">
     <use style="fill:#66ccff;" x="433.414299" xlink:href="#C0_0_2f69d03c8e" y="81.325065"/>
    </g>
    <g clip-path="url(#p56431aeded)">
     <use style="fill:#66ccff;" x="412.54333" xlink:href="#C0_0_2f69d03c8e" y="108.19351"/>
    </g>
    <g clip-path="url(#p56431aeded)">
     <use style="fill:#66ccff;" x="407.615222" xlink:href="#C0_0_2f69d03c8e" y="96.918779"/>
    </g>
    <g clip-path="url(#p56431aeded)">
     <use style="fill:#66ccff;" x="407.945924" xlink:href="#C0_0_2f69d03c8e" y="133.862546"/>
    </g>
    <g clip-path="url(#p56431aeded)">
     <use style="fill:#66ccff;" x="353.682699" xlink:href="#C0_0_2f69d03c8e" y="123.560346"/>
    </g>
    <g clip-path="url(#p56431aeded)">
     <use style="fill:#66ccff;" x="391.391371" xlink:href="#C0_0_2f69d03c8e" y="122.506194"/>
    </g>
    <g clip-path="url(#p56431aeded)">
     <use style="fill:#66ccff;" x="399.668647" xlink:href="#C0_0_2f69d03c8e" y="117.164876"/>
    </g>
    <g clip-path="url(#p56431aeded)">
     <use style="fill:#66ccff;" x="369.393205" xlink:href="#C0_0_2f69d03c8e" y="117.426339"/>
    </g>
    <g clip-path="url(#p56431aeded)">
     <use style="fill:#66ccff;" x="397.219724" xlink:href="#C0_0_2f69d03c8e" y="112.360319"/>
    </g>
    <g clip-path="url(#p56431aeded)">
     <use style="fill:#66ccff;" x="365.346969" xlink:href="#C0_0_2f69d03c8e" y="111.981267"/>
    </g>
    <g clip-path="url(#p56431aeded)">
     <use style="fill:#66ccff;" x="383.723624" xlink:href="#C0_0_2f69d03c8e" y="105.010301"/>
    </g>
    <g clip-path="url(#p56431aeded)">
     <use style="fill:#66ccff;" x="374.725504" xlink:href="#C0_0_2f69d03c8e" y="104.844293"/>
    </g>
    <g clip-path="url(#p56431aeded)">
     <use style="fill:#66ccff;" x="386.149853" xlink:href="#C0_0_2f69d03c8e" y="104.573146"/>
    </g>
    <g clip-path="url(#p56431aeded)">
     <use style="fill:#66ccff;" x="410.146281" xlink:href="#C0_0_2f69d03c8e" y="102.708319"/>
    </g>
    <g clip-path="url(#p56431aeded)">
     <use style="fill:#66ccff;" x="364.525618" xlink:href="#C0_0_2f69d03c8e" y="102.578279"/>
    </g>
    <g clip-path="url(#p56431aeded)">
     <use style="fill:#66ccff;" x="388.444233" xlink:href="#C0_0_2f69d03c8e" y="101.466024"/>
    </g>
    <g clip-path="url(#p56431aeded)">
     <use style="fill:#66ccff;" x="391.436762" xlink:href="#C0_0_2f69d03c8e" y="100.443689"/>
    </g>
    <g clip-path="url(#p56431aeded)">
     <use style="fill:#66ccff;" x="365.40749" xlink:href="#C0_0_2f69d03c8e" y="99.151591"/>
    </g>
    <g clip-path="url(#p56431aeded)">
     <use style="fill:#66ccff;" x="429.503154" xlink:href="#C0_0_2f69d03c8e" y="98.299415"/>
    </g>
    <g clip-path="url(#p56431aeded)">
     <use style="fill:#66ccff;" x="359.223579" xlink:href="#C0_0_2f69d03c8e" y="97.620164"/>
    </g>
    <g clip-path="url(#p56431aeded)">
     <use style="fill:#66ccff;" x="378.693928" xlink:href="#C0_0_2f69d03c8e" y="96.59368"/>
    </g>
    <g clip-path="url(#p56431aeded)">
     <use style="fill:#66ccff;" x="383.53882" xlink:href="#C0_0_2f69d03c8e" y="95.47174"/>
    </g>
    <g clip-path="url(#p56431aeded)">
     <use style="fill:#66ccff;" x="352.719773" xlink:href="#C0_0_2f69d03c8e" y="95.298815"/>
    </g>
    <g clip-path="url(#p56431aeded)">
     <use style="fill:#66ccff;" x="384.782735" xlink:href="#C0_0_2f69d03c8e" y="92.3328"/>
    </g>
    <g clip-path="url(#p56431aeded)">
     <use style="fill:#66ccff;" x="429.872762" xlink:href="#C0_0_2f69d03c8e" y="92.253946"/>
    </g>
    <g clip-path="url(#p56431aeded)">
     <use style="fill:#66ccff;" x="466.989196" xlink:href="#C0_0_2f69d03c8e" y="174.270352"/>
    </g>
    <g clip-path="url(#p56431aeded)">
     <use style="fill:#66ccff;" x="483.235742" xlink:href="#C0_0_2f69d03c8e" y="10.922323"/>
    </g>
    <g clip-path="url(#p56431aeded)">
     <use style="fill:#66ccff;" x="71.798165" xlink:href="#C0_0_2f69d03c8e" y="423.692308"/>
    </g>
    <g clip-path="url(#p56431aeded)">
     <use style="fill:#66ccff;" x="396.778788" xlink:href="#C0_0_2f69d03c8e" y="81.799572"/>
    </g>
    <g clip-path="url(#p56431aeded)">
     <use style="fill:#66ccff;" x="401.347014" xlink:href="#C0_0_2f69d03c8e" y="86.887727"/>
    </g>
   </g>
   <g id="LineCollection_1">
    <path clip-path="url(#p56431aeded)" d="M 400.254401 95.780239 
L 395.206332 93.06877 
" style="fill:none;stroke:#999999;"/>
    <path clip-path="url(#p56431aeded)" d="M 400.254401 95.780239 
L 402.688194 98.890128 
" style="fill:none;stroke:#999999;"/>
    <path clip-path="url(#p56431aeded)" d="M 400.254401 95.780239 
L 405.093889 92.628848 
L 416.051364 88.542276 
" style="fill:none;stroke:#999999;"/>
    <path clip-path="url(#p56431aeded)" d="M 395.002075 108.537978 
L 391.436762 100.443689 
" style="fill:none;stroke:#999999;"/>
    <path clip-path="url(#p56431aeded)" d="M 395.002075 108.537978 
L 401.335126 105.675718 
" style="fill:none;stroke:#999999;"/>
    <path clip-path="url(#p56431aeded)" d="M 395.002075 108.537978 
L 397.219724 112.360319 
" style="fill:none;stroke:#999999;"/>
    <path clip-path="url(#p56431aeded)" d="M 395.002075 108.537978 
L 380.872671 114.391154 
L 380.229639 114.829693 
" style="fill:none;stroke:#999999;"/>
    <path clip-path="url(#p56431aeded)" d="M 401.050895 125.985451 
L 400.433801 120.283066 
" style="fill:none;stroke:#999999;"/>
    <path clip-path="url(#p56431aeded)" d="M 401.050895 125.985451 
L 407.945924 133.862546 
" style="fill:none;stroke:#999999;"/>
    <path clip-path="url(#p56431aeded)" d="M 401.050895 125.985451 
L 399.064522 125.989601 
L 391.391371 122.506194 
" style="fill:none;stroke:#999999;"/>
    <path clip-path="url(#p56431aeded)" d="M 401.335126 105.675718 
L 395.002075 108.537978 
" style="fill:none;stroke:#999999;"/>
    <path clip-path="url(#p56431aeded)" d="M 401.335126 105.675718 
L 396.832824 96.07767 
L 395.206332 93.06877 
" style="fill:none;stroke:#999999;"/>
    <path clip-path="url(#p56431aeded)" d="M 401.335126 105.675718 
L 403.122646 101.79389 
L 402.688194 98.890128 
" style="fill:none;stroke:#999999;"/>
    <path clip-path="url(#p56431aeded)" d="M 402.688194 98.890128 
L 407.615222 96.918779 
" style="fill:none;stroke:#999999;"/>
    <path clip-path="url(#p56431aeded)" d="M 402.688194 98.890128 
L 400.254401 95.780239 
" style="fill:none;stroke:#999999;"/>
    <path clip-path="url(#p56431aeded)" d="M 402.688194 98.890128 
L 403.122646 101.79389 
L 401.335126 105.675718 
" style="fill:none;stroke:#999999;"/>
    <path clip-path="url(#p56431aeded)" d="M 376.05912 80.246011 
L 374.67363 77.434937 
" style="fill:none;stroke:#999999;"/>
    <path clip-path="url(#p56431aeded)" d="M 376.05912 80.246011 
L 377.587265 82.513408 
L 379.644967 84.737919 
L 389.559542 90.234178 
L 394.17532 92.551377 
" style="fill:none;stroke:#999999;"/>
    <path clip-path="url(#p56431aeded)" d="M 376.05912 80.246011 
L 375.729498 80.810439 
L 374.89842 81.978031 
" style="fill:none;stroke:#999999;"/>
    <path clip-path="url(#p56431aeded)" d="M 336.134961 88.044251 
L 340.000715 88.647415 
L 345.2217 88.271129 
L 348.20126 87.015 
L 351.168932 85.20966 
L 354.501889 83.205109 
L 357.320421 82.272696 
L 359.850399 81.536726 
L 362.021577 81.478623 
L 364.258679 81.698584 
L 365.734949 82.202142 
L 367.03182 82.812223 
" style="fill:none;stroke:#999999;"/>
    <path clip-path="url(#p56431aeded)" d="M 336.134961 88.044251 
L 337.031963 90.357301 
L 347.293451 102.628082 
" style="fill:none;stroke:#999999;"/>
    <path clip-path="url(#p56431aeded)" d="M 371.703796 85.007683 
L 368.52214 83.512225 
L 367.03182 82.812223 
" style="fill:none;stroke:#999999;"/>
    <path clip-path="url(#p56431aeded)" d="M 371.703796 85.007683 
L 372.859092 84.856892 
L 373.675039 83.981198 
L 374.89842 81.978031 
" style="fill:none;stroke:#999999;"/>
    <path clip-path="url(#p56431aeded)" d="M 371.703796 85.007683 
L 377.363555 88.024884 
L 383.585291 91.789122 
" style="fill:none;stroke:#999999;"/>
    <path clip-path="url(#p56431aeded)" d="M 374.89842 81.978031 
L 373.675039 83.981198 
L 372.859092 84.856892 
L 371.703796 85.007683 
" style="fill:none;stroke:#999999;"/>
    <path clip-path="url(#p56431aeded)" d="M 374.89842 81.978031 
L 375.729498 80.810439 
L 376.05912 80.246011 
" style="fill:none;stroke:#999999;"/>
    <path clip-path="url(#p56431aeded)" d="M 374.67363 77.434937 
L 376.05912 80.246011 
" style="fill:none;stroke:#999999;"/>
    <path clip-path="url(#p56431aeded)" d="M 374.67363 77.434937 
L 374.735231 79.532175 
L 374.806559 81.041467 
L 374.89842 81.978031 
" style="fill:none;stroke:#999999;"/>
    <path clip-path="url(#p56431aeded)" d="M 365.149196 125.004619 
L 367.947194 130.448308 
" style="fill:none;stroke:#999999;"/>
    <path clip-path="url(#p56431aeded)" d="M 365.149196 125.004619 
L 370.192942 122.56983 
L 371.178564 122.744139 
" style="fill:none;stroke:#999999;"/>
    <path clip-path="url(#p56431aeded)" d="M 365.149196 125.004619 
L 363.35195 125.989601 
L 361.091072 129.178344 
L 356.800592 131.671236 
" style="fill:none;stroke:#999999;"/>
    <path clip-path="url(#p56431aeded)" d="M 365.149196 125.004619 
L 365.499351 124.15521 
L 363.491363 119.353419 
" style="fill:none;stroke:#999999;"/>
    <path clip-path="url(#p56431aeded)" d="M 375.787857 118.977134 
L 378.889539 116.077522 
" style="fill:none;stroke:#999999;"/>
    <path clip-path="url(#p56431aeded)" d="M 375.787857 118.977134 
L 369.393205 117.426339 
" style="fill:none;stroke:#999999;"/>
    <path clip-path="url(#p56431aeded)" d="M 375.787857 118.977134 
L 375.12105 120.076939 
L 371.178564 122.744139 
" style="fill:none;stroke:#999999;"/>
    <path clip-path="url(#p56431aeded)" d="M 356.800592 131.671236 
L 361.091072 129.178344 
L 363.35195 125.989601 
L 365.149196 125.004619 
" style="fill:none;stroke:#999999;"/>
    <path clip-path="url(#p56431aeded)" d="M 378.889539 116.077522 
L 380.229639 114.829693 
" style="fill:none;stroke:#999999;"/>
    <path clip-path="url(#p56431aeded)" d="M 378.889539 116.077522 
L 375.787857 118.977134 
" style="fill:none;stroke:#999999;"/>
    <path clip-path="url(#p56431aeded)" d="M 378.889539 116.077522 
L 380.223155 118.97575 
L 384.570913 118.221796 
" style="fill:none;stroke:#999999;"/>
    <path clip-path="url(#p56431aeded)" d="M 380.229639 114.829693 
L 378.889539 116.077522 
" style="fill:none;stroke:#999999;"/>
    <path clip-path="url(#p56431aeded)" d="M 380.229639 114.829693 
L 377.614283 107.671968 
" style="fill:none;stroke:#999999;"/>
    <path clip-path="url(#p56431aeded)" d="M 380.229639 114.829693 
L 380.872671 114.391154 
L 395.002075 108.537978 
" style="fill:none;stroke:#999999;"/>
    <path clip-path="url(#p56431aeded)" d="M 387.41106 93.528059 
L 384.782735 92.3328 
" style="fill:none;stroke:#999999;"/>
    <path clip-path="url(#p56431aeded)" d="M 387.41106 93.528059 
L 389.382303 95.904745 
" style="fill:none;stroke:#999999;"/>
    <path clip-path="url(#p56431aeded)" d="M 387.41106 93.528059 
L 386.367079 94.430038 
L 383.53882 95.47174 
" style="fill:none;stroke:#999999;"/>
    <path clip-path="url(#p56431aeded)" d="M 371.178564 122.744139 
L 375.12105 120.076939 
L 375.787857 118.977134 
" style="fill:none;stroke:#999999;"/>
    <path clip-path="url(#p56431aeded)" d="M 371.178564 122.744139 
L 370.192942 122.56983 
L 365.149196 125.004619 
" style="fill:none;stroke:#999999;"/>
    <path clip-path="url(#p56431aeded)" d="M 371.178564 122.744139 
L 372.743454 125.468059 
L 373.4978 133.584482 
" style="fill:none;stroke:#999999;"/>
    <path clip-path="url(#p56431aeded)" d="M 383.585291 91.789122 
L 384.782735 92.3328 
" style="fill:none;stroke:#999999;"/>
    <path clip-path="url(#p56431aeded)" d="M 383.585291 91.789122 
L 377.363555 88.024884 
L 371.703796 85.007683 
" style="fill:none;stroke:#999999;"/>
    <path clip-path="url(#p56431aeded)" d="M 383.585291 91.789122 
L 381.150417 91.760071 
L 375.526322 90.339316 
L 370.599295 90.021134 
L 368.449732 90.842875 
" style="fill:none;stroke:#999999;"/>
    <path clip-path="url(#p56431aeded)" d="M 389.382303 95.904745 
L 387.41106 93.528059 
" style="fill:none;stroke:#999999;"/>
    <path clip-path="url(#p56431aeded)" d="M 389.382303 95.904745 
L 391.436762 100.443689 
" style="fill:none;stroke:#999999;"/>
    <path clip-path="url(#p56431aeded)" d="M 389.382303 95.904745 
L 383.208118 98.744871 
" style="fill:none;stroke:#999999;"/>
    <path clip-path="url(#p56431aeded)" d="M 389.382303 95.904745 
L 395.206332 93.06877 
" style="fill:none;stroke:#999999;"/>
    <path clip-path="url(#p56431aeded)" d="M 347.293451 102.628082 
L 348.307171 103.759705 
L 350.481591 104.628482 
" style="fill:none;stroke:#999999;"/>
    <path clip-path="url(#p56431aeded)" d="M 347.293451 102.628082 
L 337.031963 90.357301 
L 336.134961 88.044251 
" style="fill:none;stroke:#999999;"/>
    <path clip-path="url(#p56431aeded)" d="M 347.293451 102.628082 
L 348.303929 97.520559 
L 348.87131 95.416404 
L 349.499211 93.551577 
L 350.609116 90.876077 
L 351.960023 88.890894 
L 354.938502 86.449188 
L 357.554939 84.919145 
" style="fill:none;stroke:#999999;"/>
    <path clip-path="url(#p56431aeded)" d="M 347.293451 102.628082 
L 346.626643 104.975716 
L 344.771037 106.512676 
L 339.29284 108.222562 
L 324.738711 111.019802 
L 315.346126 113.687002 
L 308.094458 119.607965 
L 287.289413 124.932682 
L 271.498934 137.242198 
L 264.754126 140.822444 
L 259.287817 142.20723 
L 253.490806 145.859413 
L 244.794208 154.960819 
L 227.691728 165.684956 
L 223.459607 171.250384 
L 215.053725 184.585002 
L 206.589483 193.802614 
L 202.704275 203.251253 
L 198.530514 210.788031 
L 193.545127 217.049311 
L 182.065662 223.890237 
L 176.499926 230.267723 
L 165.426813 247.428832 
L 158.180549 255.198021 
L 139.222463 272.184822 
L 123.569236 293.92776 
L 118.120218 303.668298 
L 109.423621 323.55471 
L 106.118763 328.309465 
L 102.00336 332.889911 
L 98.466146 339.790323 
L 91.683513 348.486392 
L 85.538508 364.722005 
L 81.015672 373.709972 
L 72.494152 379.449709 
L 71.450171 382.349321 
L 70.348912 392.554682 
L 68.667303 398.990271 
L 69.304931 414.124695 
L 71.798165 423.692308 
" style="fill:none;stroke:#999999;"/>
    <path clip-path="url(#p56431aeded)" d="M 377.614283 107.671968 
L 380.229639 114.829693 
" style="fill:none;stroke:#999999;"/>
    <path clip-path="url(#p56431aeded)" d="M 377.614283 107.671968 
L 375.932675 104.512276 
" style="fill:none;stroke:#999999;"/>
    <path clip-path="url(#p56431aeded)" d="M 377.614283 107.671968 
L 380.862944 106.620582 
L 381.862615 108.690152 
L 386.695619 105.98145 
L 386.149853 104.573146 
" style="fill:none;stroke:#999999;"/>
    <path clip-path="url(#p56431aeded)" d="M 370.048125 97.295065 
L 371.729733 100.078471 
" style="fill:none;stroke:#999999;"/>
    <path clip-path="url(#p56431aeded)" d="M 370.048125 97.295065 
L 368.888506 94.716402 
L 369.325119 93.669166 
L 369.2365 92.426871 
L 368.449732 90.842875 
" style="fill:none;stroke:#999999;"/>
    <path clip-path="url(#p56431aeded)" d="M 370.048125 97.295065 
L 368.199003 99.013251 
L 365.658218 101.596063 
L 364.525618 102.578279 
" style="fill:none;stroke:#999999;"/>
    <path clip-path="url(#p56431aeded)" d="M 358.83776 97.238345 
L 356.307782 94.600196 
" style="fill:none;stroke:#999999;"/>
    <path clip-path="url(#p56431aeded)" d="M 358.83776 97.238345 
L 359.223579 97.620164 
" style="fill:none;stroke:#999999;"/>
    <path clip-path="url(#p56431aeded)" d="M 358.83776 97.238345 
L 356.162964 99.875111 
" style="fill:none;stroke:#999999;"/>
    <path clip-path="url(#p56431aeded)" d="M 363.602678 113.45459 
L 365.346969 111.981267 
" style="fill:none;stroke:#999999;"/>
    <path clip-path="url(#p56431aeded)" d="M 363.602678 113.45459 
L 361.245616 115.331868 
" style="fill:none;stroke:#999999;"/>
    <path clip-path="url(#p56431aeded)" d="M 363.602678 113.45459 
L 366.193177 117.700253 
" style="fill:none;stroke:#999999;"/>
    <path clip-path="url(#p56431aeded)" d="M 363.602678 113.45459 
L 363.555126 113.266448 
L 361.10188 109.049837 
" style="fill:none;stroke:#999999;"/>
    <path clip-path="url(#p56431aeded)" d="M 356.307782 94.600196 
L 358.83776 97.238345 
" style="fill:none;stroke:#999999;"/>
    <path clip-path="url(#p56431aeded)" d="M 356.307782 94.600196 
L 352.719773 95.298815 
" style="fill:none;stroke:#999999;"/>
    <path clip-path="url(#p56431aeded)" d="M 356.307782 94.600196 
L 357.351762 93.759088 
L 357.410121 92.165408 
" style="fill:none;stroke:#999999;"/>
    <path clip-path="url(#p56431aeded)" d="M 384.570913 118.221796 
L 389.614659 121.69967 
L 391.391371 122.506194 
" style="fill:none;stroke:#999999;"/>
    <path clip-path="url(#p56431aeded)" d="M 384.570913 118.221796 
L 393.090272 114.097873 
L 397.219724 112.360319 
" style="fill:none;stroke:#999999;"/>
    <path clip-path="url(#p56431aeded)" d="M 384.570913 118.221796 
L 380.223155 118.97575 
L 378.889539 116.077522 
" style="fill:none;stroke:#999999;"/>
    <path clip-path="url(#p56431aeded)" d="M 371.729733 100.078471 
L 370.048125 97.295065 
" style="fill:none;stroke:#999999;"/>
    <path clip-path="url(#p56431aeded)" d="M 371.729733 100.078471 
L 373.439441 102.870177 
L 374.33212 104.952198 
" style="fill:none;stroke:#999999;"/>
    <path clip-path="url(#p56431aeded)" d="M 371.729733 100.078471 
L 369.463452 102.12314 
L 368.07472 102.582429 
L 366.685988 103.730654 
" style="fill:none;stroke:#999999;"/>
    <path clip-path="url(#p56431aeded)" d="M 363.491363 119.353419 
L 361.245616 115.331868 
" style="fill:none;stroke:#999999;"/>
    <path clip-path="url(#p56431aeded)" d="M 363.491363 119.353419 
L 366.193177 117.700253 
" style="fill:none;stroke:#999999;"/>
    <path clip-path="url(#p56431aeded)" d="M 363.491363 119.353419 
L 365.499351 124.15521 
L 365.149196 125.004619 
" style="fill:none;stroke:#999999;"/>
    <path clip-path="url(#p56431aeded)" d="M 357.554939 84.919145 
L 362.337149 83.036334 
L 364.859562 82.832974 
L 367.03182 82.812223 
" style="fill:none;stroke:#999999;"/>
    <path clip-path="url(#p56431aeded)" d="M 357.554939 84.919145 
L 354.938502 86.449188 
L 351.960023 88.890894 
L 350.609116 90.876077 
L 349.499211 93.551577 
L 348.87131 95.416404 
L 348.303929 97.520559 
L 347.293451 102.628082 
" style="fill:none;stroke:#999999;"/>
    <path clip-path="url(#p56431aeded)" d="M 357.554939 84.919145 
L 357.293403 85.87646 
L 354.772071 89.150974 
L 355.032525 90.571728 
L 357.410121 92.165408 
" style="fill:none;stroke:#999999;"/>
    <path clip-path="url(#p56431aeded)" d="M 350.481591 104.628482 
L 356.162964 99.875111 
" style="fill:none;stroke:#999999;"/>
    <path clip-path="url(#p56431aeded)" d="M 350.481591 104.628482 
L 353.264459 105.787773 
L 357.236125 106.251213 
L 359.728278 107.817225 
L 361.10188 109.049837 
" style="fill:none;stroke:#999999;"/>
    <path clip-path="url(#p56431aeded)" d="M 350.481591 104.628482 
L 348.307171 103.759705 
L 347.293451 102.628082 
" style="fill:none;stroke:#999999;"/>
    <path clip-path="url(#p56431aeded)" d="M 395.206332 93.06877 
L 389.382303 95.904745 
" style="fill:none;stroke:#999999;"/>
    <path clip-path="url(#p56431aeded)" d="M 395.206332 93.06877 
L 394.17532 92.551377 
" style="fill:none;stroke:#999999;"/>
    <path clip-path="url(#p56431aeded)" d="M 395.206332 93.06877 
L 400.254401 95.780239 
" style="fill:none;stroke:#999999;"/>
    <path clip-path="url(#p56431aeded)" d="M 395.206332 93.06877 
L 396.832824 96.07767 
L 401.335126 105.675718 
" style="fill:none;stroke:#999999;"/>
    <path clip-path="url(#p56431aeded)" d="M 366.685988 103.730654 
L 364.525618 102.578279 
" style="fill:none;stroke:#999999;"/>
    <path clip-path="url(#p56431aeded)" d="M 366.685988 103.730654 
L 367.854252 104.953581 
L 368.429198 106.728487 
" style="fill:none;stroke:#999999;"/>
    <path clip-path="url(#p56431aeded)" d="M 366.685988 103.730654 
L 368.07472 102.582429 
L 369.463452 102.12314 
L 371.729733 100.078471 
" style="fill:none;stroke:#999999;"/>
    <path clip-path="url(#p56431aeded)" d="M 356.162964 99.875111 
L 350.481591 104.628482 
" style="fill:none;stroke:#999999;"/>
    <path clip-path="url(#p56431aeded)" d="M 356.162964 99.875111 
L 358.83776 97.238345 
" style="fill:none;stroke:#999999;"/>
    <path clip-path="url(#p56431aeded)" d="M 356.162964 99.875111 
L 358.862616 102.878478 
L 360.905188 106.335601 
L 361.628193 108.208728 
L 361.10188 109.049837 
" style="fill:none;stroke:#999999;"/>
    <path clip-path="url(#p56431aeded)" d="M 357.410121 92.165408 
L 357.351762 93.759088 
L 356.307782 94.600196 
" style="fill:none;stroke:#999999;"/>
    <path clip-path="url(#p56431aeded)" d="M 357.410121 92.165408 
L 355.032525 90.571728 
L 354.772071 89.150974 
L 357.293403 85.87646 
L 357.554939 84.919145 
" style="fill:none;stroke:#999999;"/>
    <path clip-path="url(#p56431aeded)" d="M 357.410121 92.165408 
L 363.612405 86.223694 
L 365.564195 87.865793 
L 367.950437 90.163624 
L 368.449732 90.842875 
" style="fill:none;stroke:#999999;"/>
    <path clip-path="url(#p56431aeded)" d="M 361.10188 109.049837 
L 368.429198 106.728487 
" style="fill:none;stroke:#999999;"/>
    <path clip-path="url(#p56431aeded)" d="M 361.10188 109.049837 
L 359.728278 107.817225 
L 357.236125 106.251213 
L 353.264459 105.787773 
L 350.481591 104.628482 
" style="fill:none;stroke:#999999;"/>
    <path clip-path="url(#p56431aeded)" d="M 361.10188 109.049837 
L 361.628193 108.208728 
L 360.905188 106.335601 
L 358.862616 102.878478 
L 356.162964 99.875111 
" style="fill:none;stroke:#999999;"/>
    <path clip-path="url(#p56431aeded)" d="M 361.10188 109.049837 
L 363.555126 113.266448 
L 363.602678 113.45459 
" style="fill:none;stroke:#999999;"/>
    <path clip-path="url(#p56431aeded)" d="M 368.429198 106.728487 
L 361.10188 109.049837 
" style="fill:none;stroke:#999999;"/>
    <path clip-path="url(#p56431aeded)" d="M 368.429198 106.728487 
L 367.854252 104.953581 
L 366.685988 103.730654 
" style="fill:none;stroke:#999999;"/>
    <path clip-path="url(#p56431aeded)" d="M 368.429198 106.728487 
L 370.251301 106.107339 
L 373.294624 105.237179 
L 374.33212 104.952198 
" style="fill:none;stroke:#999999;"/>
    <path clip-path="url(#p56431aeded)" d="M 367.03182 82.812223 
L 365.734949 82.202142 
L 364.258679 81.698584 
L 362.021577 81.478623 
L 359.850399 81.536726 
L 357.320421 82.272696 
L 354.501889 83.205109 
L 351.168932 85.20966 
L 348.20126 87.015 
L 345.2217 88.271129 
L 340.000715 88.647415 
L 336.134961 88.044251 
" style="fill:none;stroke:#999999;"/>
    <path clip-path="url(#p56431aeded)" d="M 367.03182 82.812223 
L 368.52214 83.512225 
L 371.703796 85.007683 
" style="fill:none;stroke:#999999;"/>
    <path clip-path="url(#p56431aeded)" d="M 367.03182 82.812223 
L 364.859562 82.832974 
L 362.337149 83.036334 
L 357.554939 84.919145 
" style="fill:none;stroke:#999999;"/>
    <path clip-path="url(#p56431aeded)" d="M 368.449732 90.842875 
L 367.551649 91.371335 
L 366.028907 92.796239 
L 362.598684 94.745454 
L 359.65803 97.238345 
L 359.223579 97.620164 
" style="fill:none;stroke:#999999;"/>
    <path clip-path="url(#p56431aeded)" d="M 368.449732 90.842875 
L 369.2365 92.426871 
L 369.325119 93.669166 
L 368.888506 94.716402 
L 370.048125 97.295065 
" style="fill:none;stroke:#999999;"/>
    <path clip-path="url(#p56431aeded)" d="M 368.449732 90.842875 
L 367.950437 90.163624 
L 365.564195 87.865793 
L 363.612405 86.223694 
L 357.410121 92.165408 
" style="fill:none;stroke:#999999;"/>
    <path clip-path="url(#p56431aeded)" d="M 368.449732 90.842875 
L 370.599295 90.021134 
L 375.526322 90.339316 
L 381.150417 91.760071 
L 383.585291 91.789122 
" style="fill:none;stroke:#999999;"/>
    <path clip-path="url(#p56431aeded)" d="M 361.245616 115.331868 
L 363.491363 119.353419 
" style="fill:none;stroke:#999999;"/>
    <path clip-path="url(#p56431aeded)" d="M 361.245616 115.331868 
L 363.602678 113.45459 
" style="fill:none;stroke:#999999;"/>
    <path clip-path="url(#p56431aeded)" d="M 361.245616 115.331868 
L 357.380942 117.787407 
L 355.607471 119.259348 
L 353.682699 123.560346 
" style="fill:none;stroke:#999999;"/>
    <path clip-path="url(#p56431aeded)" d="M 373.4978 133.584482 
L 372.743454 125.468059 
L 371.178564 122.744139 
" style="fill:none;stroke:#999999;"/>
    <path clip-path="url(#p56431aeded)" d="M 367.947194 130.448308 
L 365.149196 125.004619 
" style="fill:none;stroke:#999999;"/>
    <path clip-path="url(#p56431aeded)" d="M 374.33212 104.952198 
L 374.725504 104.844293 
" style="fill:none;stroke:#999999;"/>
    <path clip-path="url(#p56431aeded)" d="M 374.33212 104.952198 
L 373.439441 102.870177 
L 371.729733 100.078471 
" style="fill:none;stroke:#999999;"/>
    <path clip-path="url(#p56431aeded)" d="M 374.33212 104.952198 
L 373.294624 105.237179 
L 370.251301 106.107339 
L 368.429198 106.728487 
" style="fill:none;stroke:#999999;"/>
    <path clip-path="url(#p56431aeded)" d="M 364.308392 102.462073 
L 359.223579 97.620164 
" style="fill:none;stroke:#999999;"/>
    <path clip-path="url(#p56431aeded)" d="M 364.308392 102.462073 
L 364.525618 102.578279 
" style="fill:none;stroke:#999999;"/>
    <path clip-path="url(#p56431aeded)" d="M 364.308392 102.462073 
L 364.338652 100.303965 
L 365.40749 99.151591 
" style="fill:none;stroke:#999999;"/>
    <path clip-path="url(#p56431aeded)" d="M 383.208118 98.744871 
L 389.382303 95.904745 
" style="fill:none;stroke:#999999;"/>
    <path clip-path="url(#p56431aeded)" d="M 383.208118 98.744871 
L 381.410872 99.962265 
L 380.483609 101.383019 
L 375.932675 104.512276 
" style="fill:none;stroke:#999999;"/>
    <path clip-path="url(#p56431aeded)" d="M 383.208118 98.744871 
L 385.209622 102.149424 
L 386.149853 104.573146 
" style="fill:none;stroke:#999999;"/>
    <path clip-path="url(#p56431aeded)" d="M 375.932675 104.512276 
L 377.614283 107.671968 
" style="fill:none;stroke:#999999;"/>
    <path clip-path="url(#p56431aeded)" d="M 375.932675 104.512276 
L 374.725504 104.844293 
" style="fill:none;stroke:#999999;"/>
    <path clip-path="url(#p56431aeded)" d="M 375.932675 104.512276 
L 380.483609 101.383019 
L 381.410872 99.962265 
L 383.208118 98.744871 
" style="fill:none;stroke:#999999;"/>
    <path clip-path="url(#p56431aeded)" d="M 366.193177 117.700253 
L 363.491363 119.353419 
" style="fill:none;stroke:#999999;"/>
    <path clip-path="url(#p56431aeded)" d="M 366.193177 117.700253 
L 363.602678 113.45459 
" style="fill:none;stroke:#999999;"/>
    <path clip-path="url(#p56431aeded)" d="M 366.193177 117.700253 
L 369.091683 117.353019 
L 369.393205 117.426339 
" style="fill:none;stroke:#999999;"/>
    <path clip-path="url(#p56431aeded)" d="M 399.149899 115.687402 
L 412.54333 108.19351 
" style="fill:none;stroke:#999999;"/>
    <path clip-path="url(#p56431aeded)" d="M 399.149899 115.687402 
L 397.219724 112.360319 
" style="fill:none;stroke:#999999;"/>
    <path clip-path="url(#p56431aeded)" d="M 399.149899 115.687402 
L 399.668647 117.164876 
" style="fill:none;stroke:#999999;"/>
    <path clip-path="url(#p56431aeded)" d="M 421.934834 111.903796 
L 415.615832 115.334635 
" style="fill:none;stroke:#999999;"/>
    <path clip-path="url(#p56431aeded)" d="M 394.17532 92.551377 
L 401.347014 86.887727 
" style="fill:none;stroke:#999999;"/>
    <path clip-path="url(#p56431aeded)" d="M 394.17532 92.551377 
L 395.206332 93.06877 
" style="fill:none;stroke:#999999;"/>
    <path clip-path="url(#p56431aeded)" d="M 394.17532 92.551377 
L 389.559542 90.234178 
L 379.644967 84.737919 
L 377.587265 82.513408 
L 376.05912 80.246011 
" style="fill:none;stroke:#999999;"/>
    <path clip-path="url(#p56431aeded)" d="M 418.312242 92.455922 
L 416.051364 88.542276 
" style="fill:none;stroke:#999999;"/>
    <path clip-path="url(#p56431aeded)" d="M 418.312242 92.455922 
L 426.340951 89.150974 
" style="fill:none;stroke:#999999;"/>
    <path clip-path="url(#p56431aeded)" d="M 418.312242 92.455922 
L 407.615222 96.918779 
" style="fill:none;stroke:#999999;"/>
    <path clip-path="url(#p56431aeded)" d="M 415.615832 115.334635 
L 421.934834 111.903796 
" style="fill:none;stroke:#999999;"/>
    <path clip-path="url(#p56431aeded)" d="M 415.615832 115.334635 
L 416.28264 116.917247 
" style="fill:none;stroke:#999999;"/>
    <path clip-path="url(#p56431aeded)" d="M 415.615832 115.334635 
L 414.804207 113.497476 
" style="fill:none;stroke:#999999;"/>
    <path clip-path="url(#p56431aeded)" d="M 416.051364 88.542276 
L 418.312242 92.455922 
" style="fill:none;stroke:#999999;"/>
    <path clip-path="url(#p56431aeded)" d="M 416.051364 88.542276 
L 422.66 85.498791 
L 424.631244 83.905111 
" style="fill:none;stroke:#999999;"/>
    <path clip-path="url(#p56431aeded)" d="M 416.051364 88.542276 
L 405.093889 92.628848 
L 400.254401 95.780239 
" style="fill:none;stroke:#999999;"/>
    <path clip-path="url(#p56431aeded)" d="M 416.28264 116.917247 
L 415.615832 115.334635 
" style="fill:none;stroke:#999999;"/>
    <path clip-path="url(#p56431aeded)" d="M 424.631244 83.905111 
L 431.413876 82.020917 
L 433.414299 81.325065 
" style="fill:none;stroke:#999999;"/>
    <path clip-path="url(#p56431aeded)" d="M 424.631244 83.905111 
L 422.66 85.498791 
L 416.051364 88.542276 
" style="fill:none;stroke:#999999;"/>
    <path clip-path="url(#p56431aeded)" d="M 424.631244 83.905111 
L 426.883475 76.30608 
L 431.12208 68.413769 
L 438.710935 59.785487 
L 441.030171 57.003464 
L 446.020961 54.560375 
L 455.992815 43.547107 
L 462.422051 31.90439 
L 465.437275 28.195488 
L 469.611036 17.066014 
L 470.655017 11.32766 
L 472.28367 8.307692 
L 480.626871 12.023512 
L 483.235742 10.922323 
" style="fill:none;stroke:#999999;"/>
    <path clip-path="url(#p56431aeded)" d="M 408.369568 83.557877 
L 402.223482 86.194642 
L 401.347014 86.887727 
" style="fill:none;stroke:#999999;"/>
    <path clip-path="url(#p56431aeded)" d="M 400.433801 120.283066 
L 414.804207 113.497476 
" style="fill:none;stroke:#999999;"/>
    <path clip-path="url(#p56431aeded)" d="M 400.433801 120.283066 
L 401.050895 125.985451 
" style="fill:none;stroke:#999999;"/>
    <path clip-path="url(#p56431aeded)" d="M 400.433801 120.283066 
L 399.828595 117.621399 
L 399.668647 117.164876 
" style="fill:none;stroke:#999999;"/>
    <path clip-path="url(#p56431aeded)" d="M 414.804207 113.497476 
L 415.615832 115.334635 
" style="fill:none;stroke:#999999;"/>
    <path clip-path="url(#p56431aeded)" d="M 414.804207 113.497476 
L 412.54333 108.19351 
" style="fill:none;stroke:#999999;"/>
    <path clip-path="url(#p56431aeded)" d="M 414.804207 113.497476 
L 400.433801 120.283066 
" style="fill:none;stroke:#999999;"/>
    <path clip-path="url(#p56431aeded)" d="M 426.340951 89.150974 
L 418.312242 92.455922 
" style="fill:none;stroke:#999999;"/>
    <path clip-path="url(#p56431aeded)" d="M 433.414299 81.325065 
L 431.413876 82.020917 
L 424.631244 83.905111 
" style="fill:none;stroke:#999999;"/>
    <path clip-path="url(#p56431aeded)" d="M 412.54333 108.19351 
L 399.149899 115.687402 
" style="fill:none;stroke:#999999;"/>
    <path clip-path="url(#p56431aeded)" d="M 412.54333 108.19351 
L 414.804207 113.497476 
" style="fill:none;stroke:#999999;"/>
    <path clip-path="url(#p56431aeded)" d="M 412.54333 108.19351 
L 410.146281 102.708319 
" style="fill:none;stroke:#999999;"/>
    <path clip-path="url(#p56431aeded)" d="M 412.54333 108.19351 
L 425.87732 100.425705 
L 429.503154 98.299415 
" style="fill:none;stroke:#999999;"/>
    <path clip-path="url(#p56431aeded)" d="M 407.615222 96.918779 
L 410.146281 102.708319 
" style="fill:none;stroke:#999999;"/>
    <path clip-path="url(#p56431aeded)" d="M 407.615222 96.918779 
L 418.312242 92.455922 
" style="fill:none;stroke:#999999;"/>
    <path clip-path="url(#p56431aeded)" d="M 407.615222 96.918779 
L 402.688194 98.890128 
" style="fill:none;stroke:#999999;"/>
    <path clip-path="url(#p56431aeded)" d="M 407.945924 133.862546 
L 401.050895 125.985451 
" style="fill:none;stroke:#999999;"/>
    <path clip-path="url(#p56431aeded)" d="M 407.945924 133.862546 
L 419.937653 150.215748 
L 425.473129 156.18513 
L 429.385355 159.734941 
L 434.570675 163.2474 
L 437.316799 164.605902 
L 443.298614 167.114011 
L 466.989196 174.270352 
" style="fill:none;stroke:#999999;"/>
    <path clip-path="url(#p56431aeded)" d="M 407.945924 133.862546 
L 415.753084 132.012936 
L 417.2661 133.047721 
L 420.628237 137.801093 
L 425.382348 141.453276 
L 432.275215 150.273851 
L 444.51443 154.497379 
L 450.775073 160.351939 
L 460.979282 169.10611 
L 466.596893 172.940902 
L 466.989196 174.270352 
" style="fill:none;stroke:#999999;"/>
    <path clip-path="url(#p56431aeded)" d="M 353.682699 123.560346 
L 355.607471 119.259348 
L 357.380942 117.787407 
L 361.245616 115.331868 
" style="fill:none;stroke:#999999;"/>
    <path clip-path="url(#p56431aeded)" d="M 391.391371 122.506194 
L 399.668647 117.164876 
" style="fill:none;stroke:#999999;"/>
    <path clip-path="url(#p56431aeded)" d="M 391.391371 122.506194 
L 399.064522 125.989601 
L 401.050895 125.985451 
" style="fill:none;stroke:#999999;"/>
    <path clip-path="url(#p56431aeded)" d="M 391.391371 122.506194 
L 389.614659 121.69967 
L 384.570913 118.221796 
" style="fill:none;stroke:#999999;"/>
    <path clip-path="url(#p56431aeded)" d="M 399.668647 117.164876 
L 391.391371 122.506194 
" style="fill:none;stroke:#999999;"/>
    <path clip-path="url(#p56431aeded)" d="M 399.668647 117.164876 
L 399.149899 115.687402 
" style="fill:none;stroke:#999999;"/>
    <path clip-path="url(#p56431aeded)" d="M 399.668647 117.164876 
L 399.828595 117.621399 
L 400.433801 120.283066 
" style="fill:none;stroke:#999999;"/>
    <path clip-path="url(#p56431aeded)" d="M 369.393205 117.426339 
L 375.787857 118.977134 
" style="fill:none;stroke:#999999;"/>
    <path clip-path="url(#p56431aeded)" d="M 369.393205 117.426339 
L 369.091683 117.353019 
L 366.193177 117.700253 
" style="fill:none;stroke:#999999;"/>
    <path clip-path="url(#p56431aeded)" d="M 369.393205 117.426339 
L 370.670623 114.482459 
L 369.074391 112.065654 
L 370.698721 110.370986 
L 370.795987 109.98225 
L 371.156949 109.745688 
L 370.879203 108.719203 
L 371.045634 108.24608 
L 374.725504 104.844293 
" style="fill:none;stroke:#999999;"/>
    <path clip-path="url(#p56431aeded)" d="M 397.219724 112.360319 
L 395.002075 108.537978 
" style="fill:none;stroke:#999999;"/>
    <path clip-path="url(#p56431aeded)" d="M 397.219724 112.360319 
L 399.149899 115.687402 
" style="fill:none;stroke:#999999;"/>
    <path clip-path="url(#p56431aeded)" d="M 397.219724 112.360319 
L 393.090272 114.097873 
L 384.570913 118.221796 
" style="fill:none;stroke:#999999;"/>
    <path clip-path="url(#p56431aeded)" d="M 365.346969 111.981267 
L 363.602678 113.45459 
" style="fill:none;stroke:#999999;"/>
    <path clip-path="url(#p56431aeded)" d="M 383.723624 105.010301 
L 386.149853 104.573146 
" style="fill:none;stroke:#999999;"/>
    <path clip-path="url(#p56431aeded)" d="M 374.725504 104.844293 
L 374.33212 104.952198 
" style="fill:none;stroke:#999999;"/>
    <path clip-path="url(#p56431aeded)" d="M 374.725504 104.844293 
L 375.932675 104.512276 
" style="fill:none;stroke:#999999;"/>
    <path clip-path="url(#p56431aeded)" d="M 374.725504 104.844293 
L 371.045634 108.24608 
L 370.879203 108.719203 
L 371.156949 109.745688 
L 370.795987 109.98225 
L 370.698721 110.370986 
L 369.074391 112.065654 
L 370.670623 114.482459 
L 369.393205 117.426339 
" style="fill:none;stroke:#999999;"/>
    <path clip-path="url(#p56431aeded)" d="M 386.149853 104.573146 
L 383.723624 105.010301 
" style="fill:none;stroke:#999999;"/>
    <path clip-path="url(#p56431aeded)" d="M 386.149853 104.573146 
L 385.209622 102.149424 
L 383.208118 98.744871 
" style="fill:none;stroke:#999999;"/>
    <path clip-path="url(#p56431aeded)" d="M 386.149853 104.573146 
L 386.695619 105.98145 
L 381.862615 108.690152 
L 380.862944 106.620582 
L 377.614283 107.671968 
" style="fill:none;stroke:#999999;"/>
    <path clip-path="url(#p56431aeded)" d="M 410.146281 102.708319 
L 412.54333 108.19351 
" style="fill:none;stroke:#999999;"/>
    <path clip-path="url(#p56431aeded)" d="M 410.146281 102.708319 
L 407.615222 96.918779 
" style="fill:none;stroke:#999999;"/>
    <path clip-path="url(#p56431aeded)" d="M 410.146281 102.708319 
L 429.872762 92.253946 
" style="fill:none;stroke:#999999;"/>
    <path clip-path="url(#p56431aeded)" d="M 364.525618 102.578279 
L 364.308392 102.462073 
" style="fill:none;stroke:#999999;"/>
    <path clip-path="url(#p56431aeded)" d="M 364.525618 102.578279 
L 366.685988 103.730654 
" style="fill:none;stroke:#999999;"/>
    <path clip-path="url(#p56431aeded)" d="M 364.525618 102.578279 
L 365.658218 101.596063 
L 368.199003 99.013251 
L 370.048125 97.295065 
" style="fill:none;stroke:#999999;"/>
    <path clip-path="url(#p56431aeded)" d="M 388.444233 101.466024 
L 391.436762 100.443689 
" style="fill:none;stroke:#999999;"/>
    <path clip-path="url(#p56431aeded)" d="M 391.436762 100.443689 
L 389.382303 95.904745 
" style="fill:none;stroke:#999999;"/>
    <path clip-path="url(#p56431aeded)" d="M 391.436762 100.443689 
L 395.002075 108.537978 
" style="fill:none;stroke:#999999;"/>
    <path clip-path="url(#p56431aeded)" d="M 391.436762 100.443689 
L 388.444233 101.466024 
" style="fill:none;stroke:#999999;"/>
    <path clip-path="url(#p56431aeded)" d="M 365.40749 99.151591 
L 364.338652 100.303965 
L 364.308392 102.462073 
" style="fill:none;stroke:#999999;"/>
    <path clip-path="url(#p56431aeded)" d="M 429.503154 98.299415 
L 425.87732 100.425705 
L 412.54333 108.19351 
" style="fill:none;stroke:#999999;"/>
    <path clip-path="url(#p56431aeded)" d="M 359.223579 97.620164 
L 358.83776 97.238345 
" style="fill:none;stroke:#999999;"/>
    <path clip-path="url(#p56431aeded)" d="M 359.223579 97.620164 
L 364.308392 102.462073 
" style="fill:none;stroke:#999999;"/>
    <path clip-path="url(#p56431aeded)" d="M 359.223579 97.620164 
L 359.65803 97.238345 
L 362.598684 94.745454 
L 366.028907 92.796239 
L 367.551649 91.371335 
L 368.449732 90.842875 
" style="fill:none;stroke:#999999;"/>
    <path clip-path="url(#p56431aeded)" d="M 378.693928 96.59368 
L 379.951893 94.728853 
L 379.145671 93.334383 
L 381.404388 92.803156 
L 384.154834 92.411653 
L 384.782735 92.3328 
" style="fill:none;stroke:#999999;"/>
    <path clip-path="url(#p56431aeded)" d="M 383.53882 95.47174 
L 386.367079 94.430038 
L 387.41106 93.528059 
" style="fill:none;stroke:#999999;"/>
    <path clip-path="url(#p56431aeded)" d="M 352.719773 95.298815 
L 356.307782 94.600196 
" style="fill:none;stroke:#999999;"/>
    <path clip-path="url(#p56431aeded)" d="M 384.782735 92.3328 
L 383.585291 91.789122 
" style="fill:none;stroke:#999999;"/>
    <path clip-path="url(#p56431aeded)" d="M 384.782735 92.3328 
L 387.41106 93.528059 
" style="fill:none;stroke:#999999;"/>
    <path clip-path="url(#p56431aeded)" d="M 384.782735 92.3328 
L 384.154834 92.411653 
L 381.404388 92.803156 
L 379.145671 93.334383 
L 379.951893 94.728853 
L 378.693928 96.59368 
" style="fill:none;stroke:#999999;"/>
    <path clip-path="url(#p56431aeded)" d="M 429.872762 92.253946 
L 410.146281 102.708319 
" style="fill:none;stroke:#999999;"/>
    <path clip-path="url(#p56431aeded)" d="M 466.989196 174.270352 
L 443.298614 167.114011 
L 437.316799 164.605902 
L 434.570675 163.2474 
L 429.385355 159.734941 
L 425.473129 156.18513 
L 419.937653 150.215748 
L 407.945924 133.862546 
" style="fill:none;stroke:#999999;"/>
    <path clip-path="url(#p56431aeded)" d="M 466.989196 174.270352 
L 466.596893 172.940902 
L 460.979282 169.10611 
L 450.775073 160.351939 
L 444.51443 154.497379 
L 432.275215 150.273851 
L 425.382348 141.453276 
L 420.628237 137.801093 
L 417.2661 133.047721 
L 415.753084 132.012936 
L 407.945924 133.862546 
" style="fill:none;stroke:#999999;"/>
    <path clip-path="url(#p56431aeded)" d="M 483.235742 10.922323 
L 480.626871 12.023512 
L 472.28367 8.307692 
L 470.655017 11.32766 
L 469.611036 17.066014 
L 465.437275 28.195488 
L 462.422051 31.90439 
L 455.992815 43.547107 
L 446.020961 54.560375 
L 441.030171 57.003464 
L 438.710935 59.785487 
L 431.12208 68.413769 
L 426.883475 76.30608 
L 424.631244 83.905111 
" style="fill:none;stroke:#999999;"/>
    <path clip-path="url(#p56431aeded)" d="M 71.798165 423.692308 
L 69.304931 414.124695 
L 68.667303 398.990271 
L 70.348912 392.554682 
L 71.450171 382.349321 
L 72.494152 379.449709 
L 81.015672 373.709972 
L 85.538508 364.722005 
L 91.683513 348.486392 
L 98.466146 339.790323 
L 102.00336 332.889911 
L 106.118763 328.309465 
L 109.423621 323.55471 
L 118.120218 303.668298 
L 123.569236 293.92776 
L 139.222463 272.184822 
L 158.180549 255.198021 
L 165.426813 247.428832 
L 176.499926 230.267723 
L 182.065662 223.890237 
L 193.545127 217.049311 
L 198.530514 210.788031 
L 202.704275 203.251253 
L 206.589483 193.802614 
L 215.053725 184.585002 
L 223.459607 171.250384 
L 227.691728 165.684956 
L 244.794208 154.960819 
L 253.490806 145.859413 
L 259.287817 142.20723 
L 264.754126 140.822444 
L 271.498934 137.242198 
L 287.289413 124.932682 
L 308.094458 119.607965 
L 315.346126 113.687002 
L 324.738711 111.019802 
L 339.29284 108.222562 
L 344.771037 106.512676 
L 346.626643 104.975716 
L 347.293451 102.628082 
" style="fill:none;stroke:#999999;"/>
    <path clip-path="url(#p56431aeded)" d="M 396.778788 81.799572 
L 397.54286 83.613213 
L 401.347014 86.887727 
" style="fill:none;stroke:#999999;"/>
    <path clip-path="url(#p56431aeded)" d="M 401.347014 86.887727 
L 394.17532 92.551377 
" style="fill:none;stroke:#999999;"/>
    <path clip-path="url(#p56431aeded)" d="M 401.347014 86.887727 
L 402.223482 86.194642 
L 408.369568 83.557877 
" style="fill:none;stroke:#999999;"/>
    <path clip-path="url(#p56431aeded)" d="M 401.347014 86.887727 
L 397.54286 83.613213 
L 396.778788 81.799572 
" style="fill:none;stroke:#999999;"/>
   </g>
  </g>
 </g>
 <defs>
  <clipPath id="p56431aeded">
   <rect height="432" width="431.151176" x="60.375935" y="0"/>
  </clipPath>
 </defs>
</svg>
