<?xml version="1.0" encoding="utf-8" standalone="no"?>
<!DOCTYPE svg PUBLIC "-//W3C//DTD SVG 1.1//EN"
  "http://www.w3.org/Graphics/SVG/1.1/DTD/svg11.dtd">
<!-- Created with matplotlib (http://matplotlib.org/) -->
<svg height="432pt" version="1.1" viewBox="0 0 487.713709 432" width="487.713709pt" xmlns="http://www.w3.org/2000/svg" xmlns:xlink="http://www.w3.org/1999/xlink">
 <defs>
  <style type="text/css">
*{stroke-linecap:butt;stroke-linejoin:round;}
  </style>
 </defs>
 <g id="figure_1">
  <g id="patch_1">
   <path d="M 0 432 
L 487.713709 432 
L 487.713709 0 
L 0 0 
z
" style="fill:none;opacity:0;"/>
  </g>
  <g id="axes_1">
   <g id="PathCollection_1">
    <defs>
     <path d="M 0 1.936492 
C 0.513564 1.936492 1.006162 1.732451 1.369306 1.369306 
C 1.732451 1.006162 1.936492 0.513564 1.936492 0 
C 1.936492 -0.513564 1.732451 -1.006162 1.369306 -1.369306 
C 1.006162 -1.732451 0.513564 -1.936492 0 -1.936492 
C -0.513564 -1.936492 -1.006162 -1.732451 -1.369306 -1.369306 
C -1.732451 -1.006162 -1.936492 -0.513564 -1.936492 0 
C -1.936492 0.513564 -1.732451 1.006162 -1.369306 1.369306 
C -1.006162 1.732451 -0.513564 1.936492 0 1.936492 
z
" id="C0_0_047db2d4db"/>
    </defs>
    <g clip-path="url(#p414f357ef2)">
     <use style="fill:#66ccff;" x="230.344097" xlink:href="#C0_0_047db2d4db" y="283.575529"/>
    </g>
    <g clip-path="url(#p414f357ef2)">
     <use style="fill:#66ccff;" x="209.776394" xlink:href="#C0_0_047db2d4db" y="277.708308"/>
    </g>
    <g clip-path="url(#p414f357ef2)">
     <use style="fill:#66ccff;" x="179.007642" xlink:href="#C0_0_047db2d4db" y="43.221785"/>
    </g>
    <g clip-path="url(#p414f357ef2)">
     <use style="fill:#66ccff;" x="177.835024" xlink:href="#C0_0_047db2d4db" y="41.912545"/>
    </g>
    <g clip-path="url(#p414f357ef2)">
     <use style="fill:#66ccff;" x="373.736" xlink:href="#C0_0_047db2d4db" y="333.842799"/>
    </g>
    <g clip-path="url(#p414f357ef2)">
     <use style="fill:#66ccff;" x="374.62723" xlink:href="#C0_0_047db2d4db" y="335.017736"/>
    </g>
    <g clip-path="url(#p414f357ef2)">
     <use style="fill:#66ccff;" x="276.371305" xlink:href="#C0_0_047db2d4db" y="303.612213"/>
    </g>
    <g clip-path="url(#p414f357ef2)">
     <use style="fill:#66ccff;" x="275.023465" xlink:href="#C0_0_047db2d4db" y="302.95474"/>
    </g>
    <g clip-path="url(#p414f357ef2)">
     <use style="fill:#66ccff;" x="266.073368" xlink:href="#C0_0_047db2d4db" y="297.147209"/>
    </g>
    <g clip-path="url(#p414f357ef2)">
     <use style="fill:#66ccff;" x="261.467417" xlink:href="#C0_0_047db2d4db" y="296.790822"/>
    </g>
    <g clip-path="url(#p414f357ef2)">
     <use style="fill:#66ccff;" x="269.245928" xlink:href="#C0_0_047db2d4db" y="300.779989"/>
    </g>
    <g clip-path="url(#p414f357ef2)">
     <use style="fill:#66ccff;" x="264.077891" xlink:href="#C0_0_047db2d4db" y="298.772019"/>
    </g>
    <g clip-path="url(#p414f357ef2)">
     <use style="fill:#66ccff;" x="269.68261" xlink:href="#C0_0_047db2d4db" y="299.813091"/>
    </g>
    <g clip-path="url(#p414f357ef2)">
     <use style="fill:#66ccff;" x="264.10572" xlink:href="#C0_0_047db2d4db" y="299.749011"/>
    </g>
    <g clip-path="url(#p414f357ef2)">
     <use style="fill:#66ccff;" x="271.271983" xlink:href="#C0_0_047db2d4db" y="300.612767"/>
    </g>
    <g clip-path="url(#p414f357ef2)">
     <use style="fill:#66ccff;" x="275.661482" xlink:href="#C0_0_047db2d4db" y="299.822747"/>
    </g>
    <g clip-path="url(#p414f357ef2)">
     <use style="fill:#66ccff;" x="270.556319" xlink:href="#C0_0_047db2d4db" y="301.426489"/>
    </g>
    <g clip-path="url(#p414f357ef2)">
     <use style="fill:#66ccff;" x="268.663571" xlink:href="#C0_0_047db2d4db" y="302.127413"/>
    </g>
    <g clip-path="url(#p414f357ef2)">
     <use style="fill:#66ccff;" x="285.336177" xlink:href="#C0_0_047db2d4db" y="305.007039"/>
    </g>
    <g clip-path="url(#p414f357ef2)">
     <use style="fill:#66ccff;" x="269.809733" xlink:href="#C0_0_047db2d4db" y="330.941667"/>
    </g>
    <g clip-path="url(#p414f357ef2)">
     <use style="fill:#66ccff;" x="276.979431" xlink:href="#C0_0_047db2d4db" y="308.791239"/>
    </g>
    <g clip-path="url(#p414f357ef2)">
     <use style="fill:#66ccff;" x="284.149129" xlink:href="#C0_0_047db2d4db" y="300.937993"/>
    </g>
    <g clip-path="url(#p414f357ef2)">
     <use style="fill:#66ccff;" x="277.047802" xlink:href="#C0_0_047db2d4db" y="303.495905"/>
    </g>
    <g clip-path="url(#p414f357ef2)">
     <use style="fill:#66ccff;" x="279.371735" xlink:href="#C0_0_047db2d4db" y="301.282091"/>
    </g>
    <g clip-path="url(#p414f357ef2)">
     <use style="fill:#66ccff;" x="271.839223" xlink:href="#C0_0_047db2d4db" y="299.371557"/>
    </g>
    <g clip-path="url(#p414f357ef2)">
     <use style="fill:#66ccff;" x="275.510997" xlink:href="#C0_0_047db2d4db" y="300.87128"/>
    </g>
    <g clip-path="url(#p414f357ef2)">
     <use style="fill:#66ccff;" x="273.562246" xlink:href="#C0_0_047db2d4db" y="302.123902"/>
    </g>
    <g clip-path="url(#p414f357ef2)">
     <use style="fill:#66ccff;" x="279.260417" xlink:href="#C0_0_047db2d4db" y="308.597684"/>
    </g>
    <g clip-path="url(#p414f357ef2)">
     <use style="fill:#66ccff;" x="279.555204" xlink:href="#C0_0_047db2d4db" y="302.748018"/>
    </g>
    <g clip-path="url(#p414f357ef2)">
     <use style="fill:#66ccff;" x="265.856572" xlink:href="#C0_0_047db2d4db" y="295.094033"/>
    </g>
    <g clip-path="url(#p414f357ef2)">
     <use style="fill:#66ccff;" x="266.364031" xlink:href="#C0_0_047db2d4db" y="301.484863"/>
    </g>
    <g clip-path="url(#p414f357ef2)">
     <use style="fill:#66ccff;" x="268.526485" xlink:href="#C0_0_047db2d4db" y="298.668438"/>
    </g>
    <g clip-path="url(#p414f357ef2)">
     <use style="fill:#66ccff;" x="263.936338" xlink:href="#C0_0_047db2d4db" y="297.525981"/>
    </g>
    <g clip-path="url(#p414f357ef2)">
     <use style="fill:#66ccff;" x="275.22102" xlink:href="#C0_0_047db2d4db" y="302.578164"/>
    </g>
    <g clip-path="url(#p414f357ef2)">
     <use style="fill:#66ccff;" x="279.005829" xlink:href="#C0_0_047db2d4db" y="298.789575"/>
    </g>
    <g clip-path="url(#p414f357ef2)">
     <use style="fill:#66ccff;" x="276.951945" xlink:href="#C0_0_047db2d4db" y="298.062317"/>
    </g>
    <g clip-path="url(#p414f357ef2)">
     <use style="fill:#66ccff;" x="278.216297" xlink:href="#C0_0_047db2d4db" y="308.311082"/>
    </g>
    <g clip-path="url(#p414f357ef2)">
     <use style="fill:#66ccff;" x="277.366639" xlink:href="#C0_0_047db2d4db" y="299.168346"/>
    </g>
    <g clip-path="url(#p414f357ef2)">
     <use style="fill:#66ccff;" x="271.008462" xlink:href="#C0_0_047db2d4db" y="300.543421"/>
    </g>
    <g clip-path="url(#p414f357ef2)">
     <use style="fill:#66ccff;" x="278.352695" xlink:href="#C0_0_047db2d4db" y="308.588467"/>
    </g>
    <g clip-path="url(#p414f357ef2)">
     <use style="fill:#66ccff;" x="277.873754" xlink:href="#C0_0_047db2d4db" y="302.791469"/>
    </g>
    <g clip-path="url(#p414f357ef2)">
     <use style="fill:#66ccff;" x="275.173263" xlink:href="#C0_0_047db2d4db" y="305.731225"/>
    </g>
    <g clip-path="url(#p414f357ef2)">
     <use style="fill:#66ccff;" x="177.926758" xlink:href="#C0_0_047db2d4db" y="43.621185"/>
    </g>
    <g clip-path="url(#p414f357ef2)">
     <use style="fill:#66ccff;" x="177.633003" xlink:href="#C0_0_047db2d4db" y="43.029108"/>
    </g>
    <g clip-path="url(#p414f357ef2)">
     <use style="fill:#66ccff;" x="178.170696" xlink:href="#C0_0_047db2d4db" y="42.975562"/>
    </g>
    <g clip-path="url(#p414f357ef2)">
     <use style="fill:#66ccff;" x="71.91706" xlink:href="#C0_0_047db2d4db" y="159.845539"/>
    </g>
    <g clip-path="url(#p414f357ef2)">
     <use style="fill:#66ccff;" x="143.846298" xlink:href="#C0_0_047db2d4db" y="213.103915"/>
    </g>
    <g clip-path="url(#p414f357ef2)">
     <use style="fill:#66ccff;" x="375.154616" xlink:href="#C0_0_047db2d4db" y="335.277126"/>
    </g>
    <g clip-path="url(#p414f357ef2)">
     <use style="fill:#66ccff;" x="374.897966" xlink:href="#C0_0_047db2d4db" y="334.517389"/>
    </g>
    <g clip-path="url(#p414f357ef2)">
     <use style="fill:#66ccff;" x="373.840446" xlink:href="#C0_0_047db2d4db" y="334.935661"/>
    </g>
    <g clip-path="url(#p414f357ef2)">
     <use style="fill:#66ccff;" x="375.399928" xlink:href="#C0_0_047db2d4db" y="335.9583"/>
    </g>
    <g clip-path="url(#p414f357ef2)">
     <use style="fill:#66ccff;" x="423.478616" xlink:href="#C0_0_047db2d4db" y="386.515683"/>
    </g>
    <g clip-path="url(#p414f357ef2)">
     <use style="fill:#66ccff;" x="426.759058" xlink:href="#C0_0_047db2d4db" y="388.8559"/>
    </g>
    <g clip-path="url(#p414f357ef2)">
     <use style="fill:#66ccff;" x="425.203013" xlink:href="#C0_0_047db2d4db" y="389.395748"/>
    </g>
    <g clip-path="url(#p414f357ef2)">
     <use style="fill:#66ccff;" x="427.407382" xlink:href="#C0_0_047db2d4db" y="389.145574"/>
    </g>
    <g clip-path="url(#p414f357ef2)">
     <use style="fill:#66ccff;" x="426.450873" xlink:href="#C0_0_047db2d4db" y="390.246337"/>
    </g>
    <g clip-path="url(#p414f357ef2)">
     <use style="fill:#66ccff;" x="426.824681" xlink:href="#C0_0_047db2d4db" y="389.049894"/>
    </g>
    <g clip-path="url(#p414f357ef2)">
     <use style="fill:#66ccff;" x="425.534218" xlink:href="#C0_0_047db2d4db" y="389.652943"/>
    </g>
    <g clip-path="url(#p414f357ef2)">
     <use style="fill:#66ccff;" x="348.84339" xlink:href="#C0_0_047db2d4db" y="271.793246"/>
    </g>
    <g clip-path="url(#p414f357ef2)">
     <use style="fill:#66ccff;" x="244.179814" xlink:href="#C0_0_047db2d4db" y="237.991327"/>
    </g>
    <g clip-path="url(#p414f357ef2)">
     <use style="fill:#66ccff;" x="60.528275" xlink:href="#C0_0_047db2d4db" y="159.447456"/>
    </g>
    <g clip-path="url(#p414f357ef2)">
     <use style="fill:#66ccff;" x="279.192733" xlink:href="#C0_0_047db2d4db" y="310.775947"/>
    </g>
    <g clip-path="url(#p414f357ef2)">
     <use style="fill:#66ccff;" x="273.404545" xlink:href="#C0_0_047db2d4db" y="307.25377"/>
    </g>
    <g clip-path="url(#p414f357ef2)">
     <use style="fill:#66ccff;" x="274.691229" xlink:href="#C0_0_047db2d4db" y="305.55742"/>
    </g>
    <g clip-path="url(#p414f357ef2)">
     <use style="fill:#66ccff;" x="274.029163" xlink:href="#C0_0_047db2d4db" y="304.630901"/>
    </g>
    <g clip-path="url(#p414f357ef2)">
     <use style="fill:#66ccff;" x="268.399362" xlink:href="#C0_0_047db2d4db" y="302.748457"/>
    </g>
    <g clip-path="url(#p414f357ef2)">
     <use style="fill:#66ccff;" x="269.933763" xlink:href="#C0_0_047db2d4db" y="302.489506"/>
    </g>
    <g clip-path="url(#p414f357ef2)">
     <use style="fill:#66ccff;" x="279.739359" xlink:href="#C0_0_047db2d4db" y="299.049404"/>
    </g>
    <g clip-path="url(#p414f357ef2)">
     <use style="fill:#66ccff;" x="267.98673" xlink:href="#C0_0_047db2d4db" y="298.416071"/>
    </g>
    <g clip-path="url(#p414f357ef2)">
     <use style="fill:#66ccff;" x="280.515836" xlink:href="#C0_0_047db2d4db" y="297.640534"/>
    </g>
    <g clip-path="url(#p414f357ef2)">
     <use style="fill:#66ccff;" x="268.412418" xlink:href="#C0_0_047db2d4db" y="297.203389"/>
    </g>
    <g clip-path="url(#p414f357ef2)">
     <use style="fill:#66ccff;" x="277.865508" xlink:href="#C0_0_047db2d4db" y="295.891954"/>
    </g>
    <g clip-path="url(#p414f357ef2)">
     <use style="fill:#66ccff;" x="265.878905" xlink:href="#C0_0_047db2d4db" y="295.696204"/>
    </g>
    <g clip-path="url(#p414f357ef2)">
     <use style="fill:#66ccff;" x="266.088141" xlink:href="#C0_0_047db2d4db" y="294.837715"/>
    </g>
    <g clip-path="url(#p414f357ef2)">
     <use style="fill:#66ccff;" x="265.614353" xlink:href="#C0_0_047db2d4db" y="294.240811"/>
    </g>
    <g clip-path="url(#p414f357ef2)">
     <use style="fill:#66ccff;" x="266.02939" xlink:href="#C0_0_047db2d4db" y="293.795327"/>
    </g>
    <g clip-path="url(#p414f357ef2)">
     <use style="fill:#66ccff;" x="425.447294" xlink:href="#C0_0_047db2d4db" y="389.429982"/>
    </g>
    <g clip-path="url(#p414f357ef2)">
     <use style="fill:#66ccff;" x="159.855807" xlink:href="#C0_0_047db2d4db" y="423.692308"/>
    </g>
    <g clip-path="url(#p414f357ef2)">
     <use style="fill:#66ccff;" x="178.094766" xlink:href="#C0_0_047db2d4db" y="42.927283"/>
    </g>
   </g>
   <g id="LineCollection_1">
    <path clip-path="url(#p414f357ef2)" d="M 230.344097 283.575529 
L 232.270171 283.300339 
L 232.943232 283.550512 
L 233.390565 283.90646 
L 234.895419 285.109048 
L 236.640774 286.149242 
L 239.939082 287.865342 
L 240.941631 288.054947 
L 241.688217 288.359105 
L 242.333105 288.589528 
L 242.839876 288.617179 
L 243.991879 288.939771 
L 244.938081 289.528775 
L 246.462862 290.500501 
L 246.913287 290.718634 
L 247.521413 290.829237 
L 248.06529 290.884539 
L 248.547324 291.138662 
L 249.955977 292.527343 
L 251.604444 293.846239 
L 253.99984 295.244137 
L 254.950853 295.659776 
L 256.640549 296.398884 
L 257.210538 296.724109 
L 257.879476 296.930831 
L 258.63843 297.008517 
L 260.49098 296.675391 
L 260.973358 296.688558 
L 261.467417 296.790822 
" style="fill:none;stroke:#999999;"/>
    <path clip-path="url(#p414f357ef2)" d="M 230.344097 283.575529 
L 229.64836 283.339401 
L 228.963961 282.889967 
L 227.676933 281.641734 
L 225.450575 278.876661 
L 224.584769 278.069084 
L 223.024944 277.143004 
L 220.774535 275.290844 
L 218.544741 274.026811 
L 215.548778 271.880588 
L 213.154068 269.589527 
L 211.776337 269.514914 
L 210.168412 268.171879 
L 208.746016 267.276522 
L 206.767031 266.784953 
L 204.643745 262.409116 
L 203.654252 261.768321 
L 201.726803 261.557649 
L 198.892319 259.591375 
L 196.188394 259.450926 
L 194.958399 258.963747 
L 193.47416 257.111587 
L 192.841985 255.487655 
L 190.808028 252.933255 
L 187.307011 250.497357 
L 185.341768 250.321797 
L 181.985052 247.815675 
L 180.25344 246.266356 
L 170.987255 245.739676 
L 170.468458 245.54656 
L 170.478765 245.204217 
L 172.605487 244.703871 
L 178.119847 242.720041 
L 180.46302 242.676151 
L 184.11521 243.172108 
L 187.07338 244.181579 
L 189.983451 243.861182 
L 192.106737 244.185968 
L 193.247402 244.870653 
L 194.604518 247.209992 
L 195.257309 247.346052 
L 195.569961 246.885206 
L 194.680105 245.515837 
L 194.099465 243.975296 
L 193.903628 241.969521 
L 194.405245 241.460396 
L 195.123315 241.451618 
L 197.026714 242.272362 
L 197.349673 241.728126 
L 196.397974 241.087331 
L 189.440604 234.468712 
L 187.28296 232.024036 
L 184.795486 228.442609 
L 179.865202 223.987769 
L 174.728773 220.340506 
L 164.747954 214.296847 
L 161.858499 213.072314 
L 159.288567 212.273516 
L 154.402947 211.764391 
L 147.429086 212.371829 
L 145.559014 212.765523 
L 143.846298 213.103915 
" style="fill:none;stroke:#999999;"/>
    <path clip-path="url(#p414f357ef2)" d="M 230.344097 283.575529 
L 229.403735 283.632586 
L 227.997487 283.016809 
L 225.045158 281.865573 
L 217.637706 280.197751 
L 213.937416 278.911773 
L 211.051396 277.652129 
L 209.776394 277.708308 
" style="fill:none;stroke:#999999;"/>
    <path clip-path="url(#p414f357ef2)" d="M 209.776394 277.708308 
L 211.051396 277.652129 
L 213.937416 278.911773 
L 217.637706 280.197751 
L 225.045158 281.865573 
L 227.997487 283.016809 
L 229.403735 283.632586 
L 230.344097 283.575529 
" style="fill:none;stroke:#999999;"/>
    <path clip-path="url(#p414f357ef2)" d="M 209.776394 277.708308 
L 208.771097 278.423277 
L 206.951187 280.189412 
L 205.82667 280.945199 
L 203.523007 282.180265 
L 202.324965 283.581235 
L 201.82747 283.986779 
L 198.915339 285.645823 
L 196.556018 285.811727 
L 194.823718 285.240279 
L 193.183153 285.314014 
L 190.898044 285.903896 
L 189.073324 286.641249 
L 188.759984 287.194264 
L 187.764651 287.231131 
L 186.216507 288.134388 
L 185.147649 287.968484 
L 181.350815 288.466197 
L 180.798005 288.705837 
L 179.913302 288.632102 
L 179.046809 288.834874 
L 177.627849 289.682829 
L 175.065819 291.655248 
L 173.936836 293.078163 
L 173.388836 294.918034 
L 172.098372 298.162386 
L 170.693156 299.732333 
L 169.850025 302.033927 
L 168.905541 302.921384 
L 167.453942 303.803574 
L 166.712166 305.465251 
L 166.454142 307.364373 
L 166.624554 308.707409 
L 166.993209 309.997776 
L 166.767481 310.38752 
L 166.366531 310.771996 
L 164.021296 311.438247 
L 163.984533 311.659453 
L 164.652441 312.209834 
L 167.859359 312.947187 
L 169.407502 313.149959 
L 170.785233 313.96412 
L 171.098573 314.535568 
L 171.190994 315.162318 
L 170.734728 316.615956 
L 171.692955 320.045085 
L 172.743604 320.782438 
L 173.807996 320.803505 
L 176.02439 320.118821 
L 177.106991 320.305792 
L 177.517218 320.966776 
L 177.162307 322.168047 
L 177.130011 323.123972 
L 176.743147 323.566384 
L 175.872187 323.808657 
L 174.158097 323.956128 
L 173.757147 324.211568 
L 173.347263 324.878257 
L 171.117126 326.150191 
L 169.974399 326.408264 
L 169.568982 326.832242 
L 169.149478 327.714432 
L 168.50459 328.341182 
L 167.541553 328.989438 
L 166.55103 329.502952 
L 165.090154 331.589045 
L 163.228671 333.967008 
L 161.919998 334.907572 
L 158.565687 335.386851 
L 156.819302 336.176872 
L 156.709014 336.398078 
L 156.851597 336.750954 
L 157.60746 337.212238 
L 157.773406 337.673084 
L 155.524715 342.706394 
L 155.529182 343.312077 
L 156.303254 345.653611 
L 156.819302 346.317228 
L 157.496829 346.872876 
L 157.515382 347.315727 
L 156.925466 347.868741 
L 156.796282 348.58766 
L 157.017544 349.804731 
L 157.253579 352.6036 
L 158.307663 355.575834 
L 159.118841 356.313186 
L 159.252148 356.752965 
L 159.141861 357.269112 
L 157.7363 360.314203 
L 157.625669 361.844649 
L 157.814635 362.487199 
L 158.312473 362.929611 
L 159.044973 362.950678 
L 162.164279 361.638805 
L 163.56503 361.251694 
L 166.735185 360.772415 
L 169.186584 359.998195 
L 171.066277 358.965462 
L 171.490247 358.541484 
L 171.969532 358.670521 
L 172.282872 359.057631 
L 170.64265 362.192258 
L 169.905341 362.63467 
L 167.693756 363.519493 
L 164.062868 366.764723 
L 163.841607 367.465647 
L 163.86016 368.110831 
L 164.136393 368.922358 
L 164.41297 370.249593 
L 164.83694 371.319193 
L 165.315882 373.255183 
L 166.053191 374.472254 
L 167.435732 376.058002 
L 168.283329 378.141462 
L 168.112916 378.623814 
L 166.698423 379.801384 
L 166.034982 380.686207 
L 162.606802 383.507459 
L 159.934142 384.466457 
L 158.588707 385.259111 
L 156.985248 385.665094 
L 155.510972 387.011201 
L 152.875418 387.803856 
L 151.271959 387.859157 
L 150.534649 388.357309 
L 148.986506 390.735711 
L 148.267749 391.104826 
L 146.369161 390.920049 
L 144.323522 391.473502 
L 142.093385 392.690573 
L 141.282207 392.690573 
L 141.093585 392.822244 
L 141.185663 393.154491 
L 142.185462 393.833909 
L 143.217558 395.309054 
L 142.867456 398.610024 
L 143.452563 401.249571 
L 143.083908 403.794316 
L 143.43401 405.269461 
L 144.894885 406.760406 
L 146.774578 407.811572 
L 148.778987 408.699468 
L 153.446781 412.126842 
L 155.229929 412.517024 
L 156.487753 411.960937 
L 157.386198 410.543728 
L 158.03143 410.396257 
L 162.915332 413.936867 
L 165.131726 416.128736 
L 166.219137 416.442111 
L 167.615421 416.334141 
L 168.541353 416.681751 
L 169.292405 417.754423 
L 170.532019 418.415407 
L 171.725251 418.565511 
L 173.591544 419.134765 
L 175.116668 419.229568 
L 175.323843 419.374405 
L 175.061353 419.72772 
L 172.964866 420.683645 
L 171.688489 420.944791 
L 170.236889 421.661076 
L 168.426256 421.700577 
L 167.453942 421.587341 
L 166.878112 422.180296 
L 164.007553 423.155094 
L 161.482285 422.878147 
L 159.855807 423.692308 
L 159.855807 423.692308 
" style="fill:none;stroke:#999999;"/>
    <path clip-path="url(#p414f357ef2)" d="M 179.007642 43.221785 
L 178.750305 43.204668 
L 178.475789 43.135761 
L 178.170696 42.975562 
" style="fill:none;stroke:#999999;"/>
    <path clip-path="url(#p414f357ef2)" d="M 177.835024 41.912545 
L 178.149738 39.76325 
L 178.607378 38.048027 
L 180.194689 34.779096 
L 180.985253 33.570803 
L 181.39067 32.341882 
L 181.421591 30.976901 
L 180.951582 29.690484 
L 179.622295 28.361932 
L 179.070172 28.034951 
L 178.211238 26.17533 
L 178.047696 25.50074 
L 177.761156 22.292378 
L 177.025221 20.534581 
L 175.982131 19.308294 
L 174.185927 17.717718 
L 173.718666 16.918919 
L 173.568868 16.426912 
L 173.59498 15.918226 
L 173.916565 13.790876 
L 173.446212 12.932386 
L 171.523917 11.542828 
L 170.910638 10.438993 
L 170.08022 9.290829 
L 169.008613 8.886163 
L 167.904367 8.763271 
L 161.370624 8.307692 
L 160.726423 8.702264 
L 160.439882 9.11088 
L 160.25607 9.846477 
L 159.785718 13.03465 
L 159.908374 13.606977 
L 160.460497 14.362763 
L 166.65685 20.023701 
L 167.127203 21.086279 
L 167.106589 22.067222 
L 166.71835 24.867407 
L 166.309154 25.786903 
L 165.797916 26.17533 
L 165.164022 26.318412 
L 164.591285 26.256966 
L 163.671194 25.889167 
L 161.380587 24.622061 
L 159.601219 23.844769 
L 153.774207 22.466621 
L 152.78815 22.435898 
L 151.76911 23.068793 
L 151.339643 23.498037 
L 151.114602 24.151999 
L 151.68734 31.182307 
L 151.216987 33.430355 
L 147.004085 44.977387 
L 146.579771 45.587898 
L 145.020633 46.816819 
L 140.79605 47.841652 
L 139.975939 48.456551 
L 139.565712 49.071451 
L 133.270066 66.923288 
L 133.29068 67.722526 
L 134.874899 71.670874 
L 135.341129 73.318068 
L 135.751356 76.126153 
L 136.263968 78.421602 
L 138.206878 83.10072 
L 138.279028 84.031189 
L 138.007261 85.021788 
L 136.305197 88.157731 
L 135.812855 88.813888 
L 135.255579 89.293606 
L 133.926292 89.818092 
L 126.666921 91.909014 
L 123.283062 92.503285 
L 120.145546 92.893028 
L 119.161207 93.548746 
L 118.792209 93.979307 
L 115.859806 98.119894 
L 115.074053 98.874803 
L 109.748659 100.190188 
L 106.692914 101.297095 
L 106.057302 101.80973 
L 105.763203 102.241169 
L 105.626804 102.916637 
L 105.749804 103.613611 
L 106.754413 106.093838 
L 106.795642 107.385083 
L 106.663366 107.823983 
L 106.200916 108.389726 
L 100.151268 111.792521 
L 96.706254 113.657848 
L 94.397781 115.092175 
L 93.773508 115.769398 
L 93.527509 116.322852 
L 93.322395 117.327495 
L 93.383895 118.331699 
L 93.999236 120.402432 
L 94.983575 122.739138 
L 94.96296 123.764409 
L 94.183735 124.932762 
L 93.753237 125.219803 
L 86.821635 125.814074 
L 85.755526 126.224446 
L 85.058071 127.228651 
L 84.91858 128.158242 
L 84.832687 130.693331 
L 84.340345 131.328859 
L 83.684119 131.77961 
L 82.597395 131.902941 
L 81.572171 131.861684 
L 77.06036 130.836851 
L 75.358295 130.221952 
L 66.294475 124.912134 
L 65.638249 124.748424 
L 64.428182 125.035026 
L 64.038569 125.363324 
L 63.300229 126.490859 
L 63.279958 127.208461 
L 63.977069 130.877669 
L 64.017955 131.738792 
L 63.874341 132.702178 
L 63.402957 133.72745 
L 60.655054 137.581435 
L 60.306327 138.873119 
L 60.51144 139.754431 
L 60.941938 140.431215 
L 64.490368 144.593309 
L 65.286773 145.766928 
L 65.702497 146.943182 
L 65.681195 147.857411 
L 65.352739 149.02752 
L 64.218258 151.380465 
L 63.956111 152.209548 
L 63.836891 153.026342 
L 63.894268 153.648703 
L 64.470785 154.431262 
L 64.936327 154.641496 
L 67.283967 155.151498 
L 68.162485 155.672912 
L 68.890175 156.778063 
L 69.643288 158.165866 
L 70.310852 159.021722 
L 71.271828 159.73713 
L 71.91706 159.845539 
L 71.91706 159.845539 
" style="fill:none;stroke:#999999;"/>
    <path clip-path="url(#p414f357ef2)" d="M 177.835024 41.912545 
L 177.720614 42.598547 
L 177.633003 43.029108 
" style="fill:none;stroke:#999999;"/>
    <path clip-path="url(#p414f357ef2)" d="M 373.736 333.842799 
L 372.538989 334.05391 
L 370.932437 334.027576 
L 369.28775 333.727807 
L 367.165151 333.073846 
L 365.136347 332.223257 
L 363.594388 331.28796 
L 362.019446 330.122679 
L 360.575749 328.465391 
L 359.526131 326.906416 
L 358.869905 326.430648 
L 357.836435 326.086111 
L 356.113755 325.610343 
L 355.195039 325.035823 
L 354.178061 324.215518 
L 353.538326 323.362295 
L 352.767347 321.950791 
L 352.340628 320.785949 
L 351.360068 318.755157 
L 350.437916 317.093919 
L 349.437086 315.682415 
L 346.467921 313.418127 
L 342.891661 310.891377 
L 342.350189 310.136469 
L 342.022076 309.397799 
L 341.513587 308.397106 
L 340.840869 307.708032 
L 340.004267 307.166429 
L 339.167665 306.739818 
L 337.871704 306.099901 
L 335.42752 304.376778 
L 334.13156 303.343167 
L 333.163712 302.178325 
L 331.58877 300.504798 
L 329.997336 299.503666 
L 328.275001 298.502973 
L 326.995532 297.534759 
L 325.929079 296.517387 
L 324.600135 295.385024 
L 320.958596 292.431663 
L 319.826521 291.841342 
L 316.086376 290.315285 
L 315.052563 289.65869 
L 313.92083 288.690914 
L 312.165512 287.394841 
L 310.82042 287.099461 
L 309.08125 286.902395 
L 307.75265 286.869477 
L 306.801294 287.099461 
L 303.70054 288.346377 
L 302.781824 288.493848 
L 301.945222 288.31346 
L 298.82832 287.246932 
L 298.172094 286.96823 
L 297.663605 286.623693 
L 297.204247 285.967098 
L 297.040362 285.261785 
L 296.777872 282.833349 
L 296.630135 282.0622 
L 296.318513 281.225656 
L 295.826516 280.241202 
L 294.39931 277.960237 
L 294.005575 277.304081 
L 293.69361 276.450858 
L 292.571154 272.100038 
L 291.908057 270.730668 
L 291.403003 270.111819 
L 290.691805 269.363054 
L 289.616419 268.681003 
L 288.329392 267.771601 
L 286.458976 266.697173 
L 283.391549 265.392761 
L 280.586269 264.375829 
L 278.103261 263.53709 
L 269.447606 260.569245 
L 268.446775 260.077237 
L 266.98693 259.109462 
L 265.018252 257.698397 
L 262.327726 255.926556 
L 261.819237 255.549101 
L 261.589729 255.155408 
L 257.973271 249.913619 
L 255.33806 246.626255 
L 254.121809 245.401723 
L 252.15691 243.491189 
L 245.594994 238.782665 
L 244.179814 237.991327 
" style="fill:none;stroke:#999999;"/>
    <path clip-path="url(#p414f357ef2)" d="M 373.736 333.842799 
L 374.047278 333.885373 
L 374.238305 333.960425 
L 374.395318 334.04206 
L 374.48396 334.185581 
L 374.517974 334.383086 
L 374.517974 334.547235 
L 374.470217 334.710944 
L 374.361304 334.826814 
L 374.238305 334.861048 
L 373.840446 334.935661 
" style="fill:none;stroke:#999999;"/>
    <path clip-path="url(#p414f357ef2)" d="M 373.736 333.842799 
L 374.108777 333.810321 
L 374.361304 333.857722 
L 374.517974 333.919168 
L 374.65609 334.04206 
L 374.897966 334.517389 
" style="fill:none;stroke:#999999;"/>
    <path clip-path="url(#p414f357ef2)" d="M 374.62723 335.017736 
L 374.804514 334.833837 
L 374.897966 334.517389 
" style="fill:none;stroke:#999999;"/>
    <path clip-path="url(#p414f357ef2)" d="M 374.62723 335.017736 
L 374.243802 334.954973 
L 373.840446 334.935661 
" style="fill:none;stroke:#999999;"/>
    <path clip-path="url(#p414f357ef2)" d="M 276.371305 303.612213 
L 276.155885 304.35615 
L 275.836704 305.186988 
L 276.559584 305.880451 
L 277.329533 306.883338 
L 277.882687 307.629908 
L 278.216297 308.311082 
" style="fill:none;stroke:#999999;"/>
    <path clip-path="url(#p414f357ef2)" d="M 276.371305 303.612213 
L 275.303134 303.207547 
L 275.023465 302.95474 
" style="fill:none;stroke:#999999;"/>
    <path clip-path="url(#p414f357ef2)" d="M 276.371305 303.612213 
L 276.688768 303.599046 
L 277.047802 303.495905 
" style="fill:none;stroke:#999999;"/>
    <path clip-path="url(#p414f357ef2)" d="M 276.371305 303.612213 
L 276.58329 302.944207 
L 275.22102 302.578164 
" style="fill:none;stroke:#999999;"/>
    <path clip-path="url(#p414f357ef2)" d="M 275.023465 302.95474 
L 275.22102 302.578164 
" style="fill:none;stroke:#999999;"/>
    <path clip-path="url(#p414f357ef2)" d="M 275.023465 302.95474 
L 275.04408 303.841319 
L 275.173263 304.716926 
L 275.21621 305.231317 
L 275.21621 305.533719 
L 275.173263 305.731225 
" style="fill:none;stroke:#999999;"/>
    <path clip-path="url(#p414f357ef2)" d="M 275.023465 302.95474 
L 275.303134 303.207547 
L 276.371305 303.612213 
" style="fill:none;stroke:#999999;"/>
    <path clip-path="url(#p414f357ef2)" d="M 275.023465 302.95474 
L 274.934136 302.73924 
L 274.575445 302.601425 
L 273.562246 302.123902 
" style="fill:none;stroke:#999999;"/>
    <path clip-path="url(#p414f357ef2)" d="M 266.073368 297.147209 
L 265.056389 297.403088 
L 263.936338 297.525981 
" style="fill:none;stroke:#999999;"/>
    <path clip-path="url(#p414f357ef2)" d="M 266.073368 297.147209 
L 266.572924 297.418011 
L 267.07248 297.91748 
L 267.561386 298.229977 
L 267.98673 298.416071 
" style="fill:none;stroke:#999999;"/>
    <path clip-path="url(#p414f357ef2)" d="M 266.073368 297.147209 
L 266.059281 296.818034 
L 266.055502 296.541966 
L 266.002591 296.191284 
L 265.893335 295.840603 
L 265.878905 295.696204 
" style="fill:none;stroke:#999999;"/>
    <path clip-path="url(#p414f357ef2)" d="M 261.467417 296.790822 
L 260.973358 296.688558 
L 260.49098 296.675391 
L 258.63843 297.008517 
L 257.879476 296.930831 
L 257.210538 296.724109 
L 256.640549 296.398884 
L 254.950853 295.659776 
L 253.99984 295.244137 
L 251.604444 293.846239 
L 249.955977 292.527343 
L 248.547324 291.138662 
L 248.06529 290.884539 
L 247.521413 290.829237 
L 246.913287 290.718634 
L 246.462862 290.500501 
L 244.938081 289.528775 
L 243.991879 288.939771 
L 242.839876 288.617179 
L 242.333105 288.589528 
L 241.688217 288.359105 
L 240.941631 288.054947 
L 239.939082 287.865342 
L 236.640774 286.149242 
L 234.895419 285.109048 
L 233.390565 283.90646 
L 232.943232 283.550512 
L 232.270171 283.300339 
L 230.344097 283.575529 
" style="fill:none;stroke:#999999;"/>
    <path clip-path="url(#p414f357ef2)" d="M 261.467417 296.790822 
L 262.285466 297.168277 
L 262.982234 297.449612 
L 263.412045 297.490868 
L 263.936338 297.525981 
" style="fill:none;stroke:#999999;"/>
    <path clip-path="url(#p414f357ef2)" d="M 261.467417 296.790822 
L 261.982091 296.590684 
L 262.469278 296.628429 
L 263.173948 296.514315 
L 264.061056 296.419074 
L 265.878905 295.696204 
" style="fill:none;stroke:#999999;"/>
    <path clip-path="url(#p414f357ef2)" d="M 269.245928 300.779989 
L 269.68261 299.813091 
" style="fill:none;stroke:#999999;"/>
    <path clip-path="url(#p414f357ef2)" d="M 269.245928 300.779989 
L 268.663571 302.127413 
" style="fill:none;stroke:#999999;"/>
    <path clip-path="url(#p414f357ef2)" d="M 269.245928 300.779989 
L 270.556319 301.426489 
" style="fill:none;stroke:#999999;"/>
    <path clip-path="url(#p414f357ef2)" d="M 269.245928 300.779989 
L 268.049604 300.255941 
L 266.418659 299.389552 
L 266.216638 299.20258 
L 266.284665 298.938801 
L 266.119063 298.20891 
L 264.713846 298.670633 
L 264.077891 298.772019 
" style="fill:none;stroke:#999999;"/>
    <path clip-path="url(#p414f357ef2)" d="M 264.077891 298.772019 
L 264.10572 299.749011 
" style="fill:none;stroke:#999999;"/>
    <path clip-path="url(#p414f357ef2)" d="M 264.077891 298.772019 
L 263.936338 297.525981 
" style="fill:none;stroke:#999999;"/>
    <path clip-path="url(#p414f357ef2)" d="M 264.077891 298.772019 
L 264.713846 298.670633 
L 266.119063 298.20891 
L 266.284665 298.938801 
L 266.216638 299.20258 
L 266.418659 299.389552 
L 268.049604 300.255941 
L 269.245928 300.779989 
" style="fill:none;stroke:#999999;"/>
    <path clip-path="url(#p414f357ef2)" d="M 269.68261 299.813091 
L 269.245928 300.779989 
" style="fill:none;stroke:#999999;"/>
    <path clip-path="url(#p414f357ef2)" d="M 269.68261 299.813091 
L 269.185803 299.441781 
L 268.739844 298.932218 
L 268.526485 298.668438 
" style="fill:none;stroke:#999999;"/>
    <path clip-path="url(#p414f357ef2)" d="M 269.68261 299.813091 
L 270.402398 300.207223 
L 271.008462 300.543421 
" style="fill:none;stroke:#999999;"/>
    <path clip-path="url(#p414f357ef2)" d="M 264.10572 299.749011 
L 264.077891 298.772019 
" style="fill:none;stroke:#999999;"/>
    <path clip-path="url(#p414f357ef2)" d="M 271.271983 300.612767 
L 271.008462 300.543421 
" style="fill:none;stroke:#999999;"/>
    <path clip-path="url(#p414f357ef2)" d="M 271.271983 300.612767 
L 271.675682 300.832657 
L 272.57722 301.425172 
L 273.141024 301.86495 
L 273.562246 302.123902 
" style="fill:none;stroke:#999999;"/>
    <path clip-path="url(#p414f357ef2)" d="M 271.271983 300.612767 
L 271.827885 300.633835 
L 273.237912 300.873474 
L 274.279284 300.94721 
L 275.510997 300.87128 
" style="fill:none;stroke:#999999;"/>
    <path clip-path="url(#p414f357ef2)" d="M 271.271983 300.612767 
L 271.677056 299.855225 
L 271.839223 299.371557 
" style="fill:none;stroke:#999999;"/>
    <path clip-path="url(#p414f357ef2)" d="M 275.661482 299.822747 
L 275.510997 300.87128 
" style="fill:none;stroke:#999999;"/>
    <path clip-path="url(#p414f357ef2)" d="M 275.661482 299.822747 
L 273.643329 299.656842 
L 272.62051 299.500155 
L 271.839223 299.371557 
" style="fill:none;stroke:#999999;"/>
    <path clip-path="url(#p414f357ef2)" d="M 275.661482 299.822747 
L 276.362029 299.758228 
L 276.684645 299.684493 
L 277.163587 299.546239 
L 277.379007 299.438709 
L 277.366639 299.168346 
" style="fill:none;stroke:#999999;"/>
    <path clip-path="url(#p414f357ef2)" d="M 270.556319 301.426489 
L 271.008462 300.543421 
" style="fill:none;stroke:#999999;"/>
    <path clip-path="url(#p414f357ef2)" d="M 270.556319 301.426489 
L 269.245928 300.779989 
" style="fill:none;stroke:#999999;"/>
    <path clip-path="url(#p414f357ef2)" d="M 270.556319 301.426489 
L 273.237912 302.716856 
L 273.562246 302.123902 
" style="fill:none;stroke:#999999;"/>
    <path clip-path="url(#p414f357ef2)" d="M 268.663571 302.127413 
L 269.245928 300.779989 
" style="fill:none;stroke:#999999;"/>
    <path clip-path="url(#p414f357ef2)" d="M 268.663571 302.127413 
L 268.399362 302.748457 
" style="fill:none;stroke:#999999;"/>
    <path clip-path="url(#p414f357ef2)" d="M 268.663571 302.127413 
L 269.933763 302.489506 
" style="fill:none;stroke:#999999;"/>
    <path clip-path="url(#p414f357ef2)" d="M 268.663571 302.127413 
L 266.364031 301.484863 
" style="fill:none;stroke:#999999;"/>
    <path clip-path="url(#p414f357ef2)" d="M 285.336177 305.007039 
L 285.227264 304.652407 
L 284.821847 304.13626 
L 284.467966 303.808841 
L 284.03094 303.51785 
L 282.960364 302.864327 
L 282.112424 302.329746 
L 281.577823 301.887334 
L 280.69312 301.518658 
L 279.863733 301.371187 
L 279.371735 301.282091 
" style="fill:none;stroke:#999999;"/>
    <path clip-path="url(#p414f357ef2)" d="M 285.336177 305.007039 
L 284.041591 304.5677 
L 282.709211 304.043213 
L 279.747262 302.730901 
L 279.555204 302.748018 
" style="fill:none;stroke:#999999;"/>
    <path clip-path="url(#p414f357ef2)" d="M 285.336177 305.007039 
L 285.928154 305.247995 
L 286.738989 305.582437 
L 287.723671 305.822077 
L 290.505245 307.323556 
L 291.491301 307.824341 
L 292.550883 308.088998 
L 293.345569 308.088998 
L 294.051957 308.265875 
L 295.081991 309.09013 
L 295.891451 309.414038 
L 296.745232 309.355226 
L 297.92266 308.913692 
L 298.702572 308.825034 
L 299.923977 308.883847 
L 302.8526 308.883847 
L 303.573762 308.869363 
L 304.265376 308.722331 
L 308.283128 307.029492 
L 311.403122 305.145293 
L 311.785863 305.042151 
L 312.30088 305.042151 
L 312.860218 305.336653 
L 313.610583 306.190315 
L 314.405269 306.720067 
L 314.891083 306.867538 
L 315.803271 307.132195 
L 316.657052 307.20593 
L 317.951982 307.029492 
L 318.452569 306.926351 
L 318.938039 307.117711 
L 319.120133 307.226997 
L 319.526924 307.471026 
L 320.571732 308.471719 
L 321.307667 308.986988 
L 322.76442 309.472851 
L 323.868323 309.826166 
L 324.442091 310.208887 
L 325.222004 311.150768 
L 326.061011 311.725288 
L 327.871301 312.475808 
L 329.960917 312.932265 
L 331.609384 313.815332 
L 334.008217 314.37493 
L 336.495347 315.375623 
L 337.658001 316.008957 
L 342.882385 320.513392 
L 345.325194 322.426998 
L 347.724027 324.002212 
L 351.579956 327.182046 
L 353.728666 328.565899 
L 355.126668 329.243122 
L 356.863434 329.213277 
L 357.966993 329.110575 
L 358.46758 329.331341 
L 359.777283 330.891633 
L 360.115703 331.186135 
L 362.794205 332.731942 
L 364.775595 333.519769 
L 367.430046 334.336562 
L 370.55004 334.778096 
L 372.151094 334.908889 
L 373.840446 334.935661 
" style="fill:none;stroke:#999999;"/>
    <path clip-path="url(#p414f357ef2)" d="M 269.809733 330.941667 
L 270.150902 329.485396 
L 270.252256 329.061418 
L 270.445688 328.609789 
L 270.666949 328.195028 
L 270.952459 327.613924 
L 271.256866 327.226814 
L 271.560928 326.950306 
L 271.975622 326.58163 
L 272.335 326.286689 
L 272.795733 325.982531 
L 273.081243 325.669156 
L 273.311781 325.383432 
L 273.588357 324.987105 
L 273.661882 324.775116 
L 273.791066 324.461741 
L 273.864591 324.313831 
L 274.076576 324.046541 
L 274.592624 323.585696 
L 275.698588 322.35063 
L 275.928782 322.083339 
L 276.04869 321.917435 
L 276.251398 321.714663 
L 276.44483 321.557975 
L 276.832038 321.410505 
L 277.274217 321.189299 
L 277.956211 320.820623 
L 278.610719 320.340904 
L 279.338409 319.732588 
L 279.578223 319.511383 
L 279.8548 319.336261 
L 280.204902 319.115055 
L 280.490412 318.986019 
L 280.684187 318.80168 
L 280.813028 318.313184 
L 280.914382 317.990592 
L 280.978974 317.686434 
L 280.98825 317.511313 
L 280.98825 317.391493 
L 280.822304 317.078118 
L 280.518241 316.423718 
L 279.799485 315.427853 
L 278.647482 313.234228 
L 278.398734 312.681214 
L 278.057566 311.38119 
L 276.979431 308.791239 
" style="fill:none;stroke:#999999;"/>
    <path clip-path="url(#p414f357ef2)" d="M 276.979431 308.791239 
L 278.216297 308.311082 
" style="fill:none;stroke:#999999;"/>
    <path clip-path="url(#p414f357ef2)" d="M 276.979431 308.791239 
L 276.795275 308.385695 
L 276.546184 307.924849 
L 276.177873 307.464004 
L 275.855257 307.021592 
L 275.560128 306.754302 
L 275.191816 306.321107 
L 275.265341 306.136769 
L 275.31138 305.933997 
L 275.237855 305.851044 
L 275.191816 305.80496 
L 275.173263 305.731225 
" style="fill:none;stroke:#999999;"/>
    <path clip-path="url(#p414f357ef2)" d="M 276.979431 308.791239 
L 278.057566 311.38119 
L 278.398734 312.681214 
L 278.647482 313.234228 
L 279.799485 315.427853 
L 280.518241 316.423718 
L 280.822304 317.078118 
L 280.98825 317.391493 
L 280.98825 317.511313 
L 280.978974 317.686434 
L 280.914382 317.990592 
L 280.813028 318.313184 
L 280.684187 318.80168 
L 280.490412 318.986019 
L 280.204902 319.115055 
L 279.8548 319.336261 
L 279.578223 319.511383 
L 279.338409 319.732588 
L 278.610719 320.340904 
L 277.956211 320.820623 
L 277.274217 321.189299 
L 276.832038 321.410505 
L 276.44483 321.557975 
L 276.251398 321.714663 
L 276.04869 321.917435 
L 275.928782 322.083339 
L 275.698588 322.35063 
L 274.592624 323.585696 
L 274.076576 324.046541 
L 273.864591 324.313831 
L 273.791066 324.461741 
L 273.661882 324.775116 
L 273.588357 324.987105 
L 273.311781 325.383432 
L 273.081243 325.669156 
L 272.795733 325.982531 
L 272.335 326.286689 
L 271.975622 326.58163 
L 271.560928 326.950306 
L 271.256866 327.226814 
L 270.952459 327.613924 
L 270.666949 328.195028 
L 270.445688 328.609789 
L 270.252256 329.061418 
L 270.150902 329.485396 
L 269.809733 330.941667 
" style="fill:none;stroke:#999999;"/>
    <path clip-path="url(#p414f357ef2)" d="M 284.149129 300.937993 
L 282.269093 300.117688 
L 281.043566 299.555456 
L 279.739359 299.049404 
" style="fill:none;stroke:#999999;"/>
    <path clip-path="url(#p414f357ef2)" d="M 277.047802 303.495905 
L 277.275592 303.730277 
L 277.518842 303.95675 
L 277.596833 304.163911 
L 278.18778 305.713669 
L 279.016136 307.973128 
L 279.260417 308.597684 
" style="fill:none;stroke:#999999;"/>
    <path clip-path="url(#p414f357ef2)" d="M 277.047802 303.495905 
L 276.688768 303.599046 
L 276.371305 303.612213 
" style="fill:none;stroke:#999999;"/>
    <path clip-path="url(#p414f357ef2)" d="M 277.047802 303.495905 
L 277.532928 303.110111 
L 277.873754 302.791469 
" style="fill:none;stroke:#999999;"/>
    <path clip-path="url(#p414f357ef2)" d="M 279.371735 301.282091 
L 279.555204 302.748018 
" style="fill:none;stroke:#999999;"/>
    <path clip-path="url(#p414f357ef2)" d="M 279.371735 301.282091 
L 279.005829 298.789575 
" style="fill:none;stroke:#999999;"/>
    <path clip-path="url(#p414f357ef2)" d="M 279.371735 301.282091 
L 278.131434 301.260585 
L 277.00726 301.168415 
L 276.122558 300.94721 
L 275.510997 300.87128 
" style="fill:none;stroke:#999999;"/>
    <path clip-path="url(#p414f357ef2)" d="M 279.371735 301.282091 
L 279.863733 301.371187 
L 280.69312 301.518658 
L 281.577823 301.887334 
L 282.112424 302.329746 
L 282.960364 302.864327 
L 284.03094 303.51785 
L 284.467966 303.808841 
L 284.821847 304.13626 
L 285.227264 304.652407 
L 285.336177 305.007039 
" style="fill:none;stroke:#999999;"/>
    <path clip-path="url(#p414f357ef2)" d="M 271.839223 299.371557 
L 271.164444 299.214431 
L 270.381096 299.085394 
L 269.77297 298.974791 
L 269.192331 298.818103 
L 268.526485 298.668438 
" style="fill:none;stroke:#999999;"/>
    <path clip-path="url(#p414f357ef2)" d="M 271.839223 299.371557 
L 272.62051 299.500155 
L 273.643329 299.656842 
L 275.661482 299.822747 
" style="fill:none;stroke:#999999;"/>
    <path clip-path="url(#p414f357ef2)" d="M 271.839223 299.371557 
L 271.677056 299.855225 
L 271.271983 300.612767 
" style="fill:none;stroke:#999999;"/>
    <path clip-path="url(#p414f357ef2)" d="M 275.510997 300.87128 
L 275.661482 299.822747 
" style="fill:none;stroke:#999999;"/>
    <path clip-path="url(#p414f357ef2)" d="M 275.510997 300.87128 
L 276.122558 300.94721 
L 277.00726 301.168415 
L 278.131434 301.260585 
L 279.371735 301.282091 
" style="fill:none;stroke:#999999;"/>
    <path clip-path="url(#p414f357ef2)" d="M 275.510997 300.87128 
L 274.279284 300.94721 
L 273.237912 300.873474 
L 271.827885 300.633835 
L 271.271983 300.612767 
" style="fill:none;stroke:#999999;"/>
    <path clip-path="url(#p414f357ef2)" d="M 275.510997 300.87128 
L 275.280802 302.012421 
L 275.22102 302.578164 
" style="fill:none;stroke:#999999;"/>
    <path clip-path="url(#p414f357ef2)" d="M 273.562246 302.123902 
L 273.237912 302.716856 
L 270.556319 301.426489 
" style="fill:none;stroke:#999999;"/>
    <path clip-path="url(#p414f357ef2)" d="M 273.562246 302.123902 
L 273.141024 301.86495 
L 272.57722 301.425172 
L 271.675682 300.832657 
L 271.271983 300.612767 
" style="fill:none;stroke:#999999;"/>
    <path clip-path="url(#p414f357ef2)" d="M 273.562246 302.123902 
L 274.575445 302.601425 
L 274.934136 302.73924 
L 275.023465 302.95474 
" style="fill:none;stroke:#999999;"/>
    <path clip-path="url(#p414f357ef2)" d="M 279.260417 308.597684 
L 278.352695 308.588467 
" style="fill:none;stroke:#999999;"/>
    <path clip-path="url(#p414f357ef2)" d="M 279.260417 308.597684 
L 279.016136 307.973128 
L 278.18778 305.713669 
L 277.596833 304.163911 
L 277.518842 303.95675 
L 277.275592 303.730277 
L 277.047802 303.495905 
" style="fill:none;stroke:#999999;"/>
    <path clip-path="url(#p414f357ef2)" d="M 279.260417 308.597684 
L 279.356962 308.542382 
L 279.744169 307.887982 
L 280.269494 306.597614 
L 280.14031 306.404059 
L 279.98364 306.145986 
L 279.762379 305.961647 
L 279.43083 305.768092 
L 279.1357 305.56532 
L 278.951545 305.380982 
L 278.85019 305.085602 
L 278.758113 304.744576 
L 278.674968 304.145477 
L 278.601443 303.822885 
L 278.416944 303.527944 
L 278.260274 303.214569 
L 277.984041 302.891978 
L 277.873754 302.791469 
" style="fill:none;stroke:#999999;"/>
    <path clip-path="url(#p414f357ef2)" d="M 279.555204 302.748018 
L 279.371735 301.282091 
" style="fill:none;stroke:#999999;"/>
    <path clip-path="url(#p414f357ef2)" d="M 279.555204 302.748018 
L 278.707264 302.770402 
L 278.069247 302.70325 
L 277.873754 302.791469 
" style="fill:none;stroke:#999999;"/>
    <path clip-path="url(#p414f357ef2)" d="M 279.555204 302.748018 
L 279.747262 302.730901 
L 282.709211 304.043213 
L 284.041591 304.5677 
L 285.336177 305.007039 
" style="fill:none;stroke:#999999;"/>
    <path clip-path="url(#p414f357ef2)" d="M 265.856572 295.094033 
L 265.939374 294.928129 
L 266.040728 294.845176 
L 266.088141 294.837715 
" style="fill:none;stroke:#999999;"/>
    <path clip-path="url(#p414f357ef2)" d="M 265.856572 295.094033 
L 265.865849 295.315239 
L 265.865849 295.564095 
L 265.878905 295.696204 
" style="fill:none;stroke:#999999;"/>
    <path clip-path="url(#p414f357ef2)" d="M 265.856572 295.094033 
L 265.736322 294.8996 
L 265.614353 294.240811 
" style="fill:none;stroke:#999999;"/>
    <path clip-path="url(#p414f357ef2)" d="M 266.364031 301.484863 
L 268.663571 302.127413 
" style="fill:none;stroke:#999999;"/>
    <path clip-path="url(#p414f357ef2)" d="M 268.526485 298.668438 
L 269.192331 298.818103 
L 269.77297 298.974791 
L 270.381096 299.085394 
L 271.164444 299.214431 
L 271.839223 299.371557 
" style="fill:none;stroke:#999999;"/>
    <path clip-path="url(#p414f357ef2)" d="M 268.526485 298.668438 
L 268.060942 298.448549 
L 267.98673 298.416071 
" style="fill:none;stroke:#999999;"/>
    <path clip-path="url(#p414f357ef2)" d="M 268.526485 298.668438 
L 268.739844 298.932218 
L 269.185803 299.441781 
L 269.68261 299.813091 
" style="fill:none;stroke:#999999;"/>
    <path clip-path="url(#p414f357ef2)" d="M 263.936338 297.525981 
L 264.077891 298.772019 
" style="fill:none;stroke:#999999;"/>
    <path clip-path="url(#p414f357ef2)" d="M 263.936338 297.525981 
L 263.412045 297.490868 
L 262.982234 297.449612 
L 262.285466 297.168277 
L 261.467417 296.790822 
" style="fill:none;stroke:#999999;"/>
    <path clip-path="url(#p414f357ef2)" d="M 263.936338 297.525981 
L 265.056389 297.403088 
L 266.073368 297.147209 
" style="fill:none;stroke:#999999;"/>
    <path clip-path="url(#p414f357ef2)" d="M 275.22102 302.578164 
L 275.023465 302.95474 
" style="fill:none;stroke:#999999;"/>
    <path clip-path="url(#p414f357ef2)" d="M 275.22102 302.578164 
L 275.280802 302.012421 
L 275.510997 300.87128 
" style="fill:none;stroke:#999999;"/>
    <path clip-path="url(#p414f357ef2)" d="M 275.22102 302.578164 
L 276.58329 302.944207 
L 276.371305 303.612213 
" style="fill:none;stroke:#999999;"/>
    <path clip-path="url(#p414f357ef2)" d="M 279.005829 298.789575 
L 279.371735 301.282091 
" style="fill:none;stroke:#999999;"/>
    <path clip-path="url(#p414f357ef2)" d="M 279.005829 298.789575 
L 279.522908 298.965574 
L 279.739359 299.049404 
" style="fill:none;stroke:#999999;"/>
    <path clip-path="url(#p414f357ef2)" d="M 279.005829 298.789575 
L 277.900896 298.394126 
L 277.827371 298.523162 
L 277.698187 298.753585 
L 277.560071 298.993225 
L 277.366639 299.168346 
" style="fill:none;stroke:#999999;"/>
    <path clip-path="url(#p414f357ef2)" d="M 276.951945 298.062317 
L 275.357419 298.080751 
L 273.62512 298.080751 
L 271.496337 298.062317 
L 270.768304 297.960931 
L 270.132349 297.795026 
L 269.37683 297.555387 
L 268.832952 297.380266 
L 268.412418 297.203389 
" style="fill:none;stroke:#999999;"/>
    <path clip-path="url(#p414f357ef2)" d="M 276.951945 298.062317 
L 277.136101 298.32039 
L 277.228178 298.509995 
L 277.365608 298.79572 
L 277.366639 299.168346 
" style="fill:none;stroke:#999999;"/>
    <path clip-path="url(#p414f357ef2)" d="M 276.951945 298.062317 
L 277.084908 297.555826 
L 277.181796 297.227528 
L 277.348773 296.861485 
L 277.644933 296.311982 
L 277.865508 295.891954 
" style="fill:none;stroke:#999999;"/>
    <path clip-path="url(#p414f357ef2)" d="M 278.216297 308.311082 
L 276.979431 308.791239 
" style="fill:none;stroke:#999999;"/>
    <path clip-path="url(#p414f357ef2)" d="M 278.216297 308.311082 
L 278.352695 308.588467 
" style="fill:none;stroke:#999999;"/>
    <path clip-path="url(#p414f357ef2)" d="M 278.216297 308.311082 
L 277.882687 307.629908 
L 277.329533 306.883338 
L 276.559584 305.880451 
L 275.836704 305.186988 
L 276.155885 304.35615 
L 276.371305 303.612213 
" style="fill:none;stroke:#999999;"/>
    <path clip-path="url(#p414f357ef2)" d="M 277.366639 299.168346 
L 277.560071 298.993225 
L 277.698187 298.753585 
L 277.827371 298.523162 
L 277.900896 298.394126 
L 279.005829 298.789575 
" style="fill:none;stroke:#999999;"/>
    <path clip-path="url(#p414f357ef2)" d="M 277.366639 299.168346 
L 277.379007 299.438709 
L 277.163587 299.546239 
L 276.684645 299.684493 
L 276.362029 299.758228 
L 275.661482 299.822747 
" style="fill:none;stroke:#999999;"/>
    <path clip-path="url(#p414f357ef2)" d="M 277.366639 299.168346 
L 277.365608 298.79572 
L 277.228178 298.509995 
L 277.136101 298.32039 
L 276.951945 298.062317 
" style="fill:none;stroke:#999999;"/>
    <path clip-path="url(#p414f357ef2)" d="M 271.008462 300.543421 
L 270.556319 301.426489 
" style="fill:none;stroke:#999999;"/>
    <path clip-path="url(#p414f357ef2)" d="M 271.008462 300.543421 
L 271.271983 300.612767 
" style="fill:none;stroke:#999999;"/>
    <path clip-path="url(#p414f357ef2)" d="M 271.008462 300.543421 
L 270.402398 300.207223 
L 269.68261 299.813091 
" style="fill:none;stroke:#999999;"/>
    <path clip-path="url(#p414f357ef2)" d="M 278.352695 308.588467 
L 278.216297 308.311082 
" style="fill:none;stroke:#999999;"/>
    <path clip-path="url(#p414f357ef2)" d="M 278.352695 308.588467 
L 279.260417 308.597684 
" style="fill:none;stroke:#999999;"/>
    <path clip-path="url(#p414f357ef2)" d="M 278.352695 308.588467 
L 278.826484 309.903851 
L 279.192733 310.775947 
" style="fill:none;stroke:#999999;"/>
    <path clip-path="url(#p414f357ef2)" d="M 277.873754 302.791469 
L 277.984041 302.891978 
L 278.260274 303.214569 
L 278.416944 303.527944 
L 278.601443 303.822885 
L 278.674968 304.145477 
L 278.758113 304.744576 
L 278.85019 305.085602 
L 278.951545 305.380982 
L 279.1357 305.56532 
L 279.43083 305.768092 
L 279.762379 305.961647 
L 279.98364 306.145986 
L 280.14031 306.404059 
L 280.269494 306.597614 
L 279.744169 307.887982 
L 279.356962 308.542382 
L 279.260417 308.597684 
" style="fill:none;stroke:#999999;"/>
    <path clip-path="url(#p414f357ef2)" d="M 277.873754 302.791469 
L 277.532928 303.110111 
L 277.047802 303.495905 
" style="fill:none;stroke:#999999;"/>
    <path clip-path="url(#p414f357ef2)" d="M 277.873754 302.791469 
L 278.069247 302.70325 
L 278.707264 302.770402 
L 279.555204 302.748018 
" style="fill:none;stroke:#999999;"/>
    <path clip-path="url(#p414f357ef2)" d="M 275.173263 305.731225 
L 274.691229 305.55742 
" style="fill:none;stroke:#999999;"/>
    <path clip-path="url(#p414f357ef2)" d="M 275.173263 305.731225 
L 275.191816 305.80496 
L 275.237855 305.851044 
L 275.31138 305.933997 
L 275.265341 306.136769 
L 275.191816 306.321107 
L 275.560128 306.754302 
L 275.855257 307.021592 
L 276.177873 307.464004 
L 276.546184 307.924849 
L 276.795275 308.385695 
L 276.979431 308.791239 
" style="fill:none;stroke:#999999;"/>
    <path clip-path="url(#p414f357ef2)" d="M 275.173263 305.731225 
L 275.21621 305.533719 
L 275.21621 305.231317 
L 275.173263 304.716926 
L 275.04408 303.841319 
L 275.023465 302.95474 
" style="fill:none;stroke:#999999;"/>
    <path clip-path="url(#p414f357ef2)" d="M 177.926758 43.621185 
L 178.051819 43.59924 
L 178.162107 43.536477 
L 178.244221 43.440358 
L 178.289229 43.321416 
L 178.29129 43.194573 
L 178.250061 43.074754 
L 178.170696 42.975562 
" style="fill:none;stroke:#999999;"/>
    <path clip-path="url(#p414f357ef2)" d="M 177.926758 43.621185 
L 178.25281 43.616357 
L 178.68159 43.507509 
L 178.790503 43.433335 
L 179.007642 43.221785 
" style="fill:none;stroke:#999999;"/>
    <path clip-path="url(#p414f357ef2)" d="M 177.633003 43.029108 
L 177.578031 43.131811 
L 177.55776 43.246803 
L 177.574252 43.362233 
L 177.626131 43.466253 
L 177.707902 43.549644 
L 177.811661 43.602751 
L 177.926758 43.621185 
" style="fill:none;stroke:#999999;"/>
    <path clip-path="url(#p414f357ef2)" d="M 178.170696 42.975562 
L 178.094766 42.927283 
" style="fill:none;stroke:#999999;"/>
    <path clip-path="url(#p414f357ef2)" d="M 71.91706 159.845539 
L 72.761564 159.906985 
L 76.61234 158.692547 
L 79.886254 157.498299 
L 81.533691 157.045354 
L 82.728297 156.818881 
L 84.557827 156.844776 
L 86.261954 157.323178 
L 96.016014 162.563649 
L 102.517461 168.018743 
L 103.176436 168.430432 
L 103.958753 168.760046 
L 105.276702 168.862749 
L 107.191783 168.780674 
L 110.713071 168.492317 
L 111.990135 168.801303 
L 112.978253 169.418835 
L 115.881795 171.992548 
L 118.044249 174.339349 
L 118.414965 175.080651 
L 118.723151 175.964597 
L 118.682265 176.992941 
L 118.497079 178.041474 
L 118.392976 179.693934 
L 118.682265 180.487905 
L 119.196252 181.166445 
L 119.792696 181.495621 
L 120.471254 181.660208 
L 121.29377 181.557067 
L 121.828371 181.413107 
L 122.486314 181.351661 
L 123.300584 181.691809 
L 124.193189 182.544154 
L 125.270293 184.215048 
L 127.410414 187.732396 
L 129.354698 191.899317 
L 129.848414 192.94785 
L 130.180993 194.124981 
L 130.136329 194.695552 
L 129.745342 195.333274 
L 125.632763 199.116596 
L 125.098163 200.000542 
L 124.933591 200.576379 
L 125.159662 201.501582 
L 125.776721 201.727615 
L 127.380523 201.748244 
L 128.594026 202.118237 
L 129.435438 202.586982 
L 130.424244 203.372614 
L 131.205531 204.174485 
L 132.727219 206.518653 
L 133.20032 207.341152 
L 133.81944 208.073238 
L 135.976396 209.788022 
L 137.580199 211.576981 
L 139.163731 213.818445 
L 139.595603 214.044479 
L 140.37689 214.16781 
L 141.293545 214.094075 
L 142.33045 213.712231 
L 143.035464 213.426507 
L 143.846298 213.103915 
" style="fill:none;stroke:#999999;"/>
    <path clip-path="url(#p414f357ef2)" d="M 71.91706 159.845539 
L 71.271828 159.73713 
L 70.310852 159.021722 
L 69.643288 158.165866 
L 68.890175 156.778063 
L 68.162485 155.672912 
L 67.283967 155.151498 
L 64.470785 154.431262 
L 63.894268 153.648703 
L 63.836891 153.026342 
L 63.956111 152.209548 
L 64.218258 151.380465 
L 65.352739 149.02752 
L 65.681195 147.857411 
L 65.702497 146.943182 
L 65.286773 145.766928 
L 64.490368 144.593309 
L 60.941938 140.431215 
L 60.51144 139.754431 
L 60.306327 138.873119 
L 60.655054 137.581435 
L 63.402957 133.72745 
L 63.874341 132.702178 
L 64.017955 131.738792 
L 63.977069 130.877669 
L 63.279958 127.208461 
L 63.300229 126.490859 
L 63.546228 126.019041 
L 64.038569 125.363324 
L 64.428182 125.035026 
L 65.638249 124.748424 
L 66.294475 124.912134 
L 69.862489 126.982866 
L 75.358295 130.221952 
L 77.06036 130.836851 
L 81.572171 131.861684 
L 82.597395 131.902941 
L 83.684119 131.77961 
L 84.340345 131.328859 
L 84.832687 130.693331 
L 84.914801 129.19668 
L 84.91858 128.158242 
L 85.058071 127.228651 
L 85.755526 126.224446 
L 86.821635 125.814074 
L 93.753237 125.219803 
L 94.183735 124.932762 
L 94.96296 123.764409 
L 94.983575 122.739138 
L 93.999236 120.402432 
L 93.383895 118.331699 
L 93.322395 117.327495 
L 93.527509 116.322852 
L 93.773508 115.769398 
L 94.397781 115.092175 
L 96.706254 113.657848 
L 103.514512 109.947823 
L 106.200916 108.389726 
L 106.663366 107.823983 
L 106.795642 107.385083 
L 106.836528 106.81144 
L 106.754413 106.093838 
L 106.505322 105.32664 
L 105.749804 103.613611 
L 105.626804 102.916637 
L 105.763203 102.241169 
L 106.057302 101.80973 
L 106.692914 101.297095 
L 109.748659 100.190188 
L 115.074053 98.874803 
L 115.859806 98.119894 
L 119.161207 93.548746 
L 120.145546 92.893028 
L 123.283062 92.503285 
L 126.666921 91.909014 
L 133.926292 89.818092 
L 135.255579 89.293606 
L 135.812855 88.813888 
L 136.305197 88.157731 
L 137.084422 86.825668 
L 138.007261 85.021788 
L 138.279028 84.031189 
L 138.206878 83.10072 
L 137.740648 81.762952 
L 136.263968 78.421602 
L 135.546242 74.752833 
L 135.312268 73.22941 
L 134.874899 71.670874 
L 133.29068 67.722526 
L 133.270066 66.923288 
L 133.393065 66.28776 
L 139.565712 49.071451 
L 139.975939 48.456551 
L 140.79605 47.841652 
L 145.020633 46.816819 
L 145.731144 46.32525 
L 146.579771 45.587898 
L 147.004085 44.977387 
L 147.495052 43.894181 
L 148.231331 41.932296 
L 149.417691 38.359207 
L 151.216987 33.430355 
L 151.68734 31.182307 
L 151.62584 29.833566 
L 151.401143 27.830424 
L 151.114602 24.151999 
L 151.339643 23.498037 
L 151.76911 23.068793 
L 152.78815 22.435898 
L 153.774207 22.466621 
L 159.601219 23.844769 
L 161.380587 24.622061 
L 163.671194 25.889167 
L 164.591285 26.256966 
L 165.164022 26.318412 
L 165.797916 26.17533 
L 166.309154 25.786903 
L 166.71835 24.867407 
L 167.106589 22.067222 
L 167.127203 21.086279 
L 166.65685 20.023701 
L 160.460497 14.362763 
L 159.908374 13.606977 
L 159.785718 13.03465 
L 160.439882 9.11088 
L 160.726423 8.702264 
L 161.370624 8.307692 
L 169.008613 8.886163 
L 170.08022 9.290829 
L 170.910638 10.438993 
L 171.523917 11.542828 
L 172.567007 12.299053 
L 173.446212 12.932386 
L 173.916565 13.790876 
L 173.568868 16.426912 
L 173.718666 16.918919 
L 174.185927 17.717718 
L 175.982131 19.308294 
L 177.025221 20.534581 
L 177.761156 22.292378 
L 178.211238 26.17533 
L 179.070172 28.034951 
L 180.133533 28.770549 
L 180.951582 29.690484 
L 181.421591 30.976901 
L 181.39067 32.341882 
L 180.985253 33.570803 
L 180.194689 34.779096 
L 179.540525 36.005384 
L 178.607378 38.048027 
L 178.149738 39.76325 
L 177.835024 41.912545 
L 177.835024 41.912545 
" style="fill:none;stroke:#999999;"/>
    <path clip-path="url(#p414f357ef2)" d="M 71.91706 159.845539 
L 71.334015 160.229576 
L 69.765257 160.76723 
L 68.541447 161.124056 
L 68.116103 160.984046 
L 68.03983 160.634682 
L 68.453149 160.129507 
L 69.179464 159.086241 
L 68.946521 158.432279 
L 68.617721 158.155772 
L 67.710686 157.561939 
L 66.450801 156.73944 
L 65.732731 156.487072 
L 63.88293 156.615231 
L 63.212961 156.928167 
L 62.153379 157.626019 
L 61.210613 158.432279 
L 60.528275 159.447456 
" style="fill:none;stroke:#999999;"/>
    <path clip-path="url(#p414f357ef2)" d="M 143.846298 213.103915 
L 143.035464 213.426507 
L 142.33045 213.712231 
L 141.293545 214.094075 
L 140.37689 214.16781 
L 139.595603 214.044479 
L 139.163731 213.818445 
L 137.580199 211.576981 
L 135.976396 209.788022 
L 133.81944 208.073238 
L 133.20032 207.341152 
L 132.727219 206.518653 
L 131.205531 204.174485 
L 130.424244 203.372614 
L 129.435438 202.586982 
L 128.594026 202.118237 
L 127.380523 201.748244 
L 125.776721 201.727615 
L 125.159662 201.501582 
L 124.933591 200.576379 
L 125.098163 200.000542 
L 125.632763 199.116596 
L 129.745342 195.333274 
L 130.136329 194.695552 
L 130.180993 194.124981 
L 129.848414 192.94785 
L 129.354698 191.899317 
L 127.410414 187.732396 
L 125.270293 184.215048 
L 124.193189 182.544154 
L 123.300584 181.691809 
L 122.486314 181.351661 
L 121.828371 181.413107 
L 121.29377 181.557067 
L 120.471254 181.660208 
L 119.792696 181.495621 
L 119.196252 181.166445 
L 118.682265 180.487905 
L 118.392976 179.693934 
L 118.497079 178.041474 
L 118.682265 176.992941 
L 118.723151 175.964597 
L 118.414965 175.080651 
L 118.044249 174.339349 
L 115.881795 171.992548 
L 112.978253 169.418835 
L 111.990135 168.801303 
L 110.713071 168.492317 
L 107.191783 168.780674 
L 105.276702 168.862749 
L 103.958753 168.760046 
L 103.176436 168.430432 
L 102.517461 168.018743 
L 96.016014 162.563649 
L 86.261954 157.323178 
L 84.557827 156.844776 
L 82.728297 156.818881 
L 81.533691 157.045354 
L 79.886254 157.498299 
L 76.61234 158.692547 
L 72.761564 159.906985 
L 71.91706 159.845539 
" style="fill:none;stroke:#999999;"/>
    <path clip-path="url(#p414f357ef2)" d="M 143.846298 213.103915 
L 145.559014 212.765523 
L 147.429086 212.371829 
L 154.402947 211.764391 
L 159.288567 212.273516 
L 161.858499 213.072314 
L 164.747954 214.296847 
L 174.728773 220.340506 
L 179.865202 223.987769 
L 184.795486 228.442609 
L 187.28296 232.024036 
L 189.440604 234.468712 
L 196.397974 241.087331 
L 197.349673 241.728126 
L 197.026714 242.272362 
L 195.123315 241.451618 
L 194.405245 241.460396 
L 193.903628 241.969521 
L 194.099465 243.975296 
L 194.680105 245.515837 
L 195.569961 246.885206 
L 195.257309 247.346052 
L 194.604518 247.209992 
L 193.247402 244.870653 
L 192.106737 244.185968 
L 189.983451 243.861182 
L 187.07338 244.181579 
L 184.11521 243.172108 
L 180.46302 242.676151 
L 178.119847 242.720041 
L 172.605487 244.703871 
L 170.478765 245.204217 
L 170.468458 245.54656 
L 170.987255 245.739676 
L 180.25344 246.266356 
L 181.985052 247.815675 
L 185.341768 250.321797 
L 187.307011 250.497357 
L 190.808028 252.933255 
L 192.841985 255.487655 
L 193.47416 257.111587 
L 194.958399 258.963747 
L 196.188394 259.450926 
L 198.892319 259.591375 
L 201.726803 261.557649 
L 203.654252 261.768321 
L 204.643745 262.409116 
L 206.767031 266.784953 
L 208.746016 267.276522 
L 210.168412 268.171879 
L 211.776337 269.514914 
L 213.154068 269.589527 
L 215.548778 271.880588 
L 218.544741 274.026811 
L 220.774535 275.290844 
L 223.024944 277.143004 
L 224.584769 278.069084 
L 225.450575 278.876661 
L 227.676933 281.641734 
L 228.963961 282.889967 
L 229.64836 283.339401 
L 230.344097 283.575529 
" style="fill:none;stroke:#999999;"/>
    <path clip-path="url(#p414f357ef2)" d="M 143.846298 213.103915 
L 144.293288 212.896754 
L 144.902788 212.683449 
L 147.642102 211.994375 
L 149.654413 211.56513 
L 152.365898 211.021771 
L 153.506219 210.864645 
L 154.778473 210.829533 
L 158.223488 210.960764 
L 160.733294 211.420293 
L 163.357855 212.388069 
L 178.10576 218.785482 
L 181.140891 220.327778 
L 183.371716 221.574255 
L 186.865862 224.674648 
L 190.114009 228.250809 
L 191.787557 230.186799 
L 192.525553 231.433276 
L 192.870158 232.089433 
L 193.280385 232.532283 
L 193.803991 232.818446 
L 194.428608 232.991812 
L 195.74106 233.090126 
L 196.708908 233.106804 
L 197.84064 233.582572 
L 199.186075 234.304124 
L 200.596789 235.633115 
L 201.318638 236.108883 
L 202.220862 236.371346 
L 203.828444 236.847114 
L 204.550293 236.928749 
L 205.895384 236.682965 
L 208.126553 236.01013 
L 209.045269 235.698511 
L 210.784096 234.681579 
L 212.841416 233.323182 
L 213.523754 232.942655 
L 214.311225 232.680193 
L 219.462083 231.843648 
L 221.824497 231.499112 
L 224.900857 231.396409 
L 227.073961 231.482433 
L 228.53415 231.712417 
L 231.109579 232.368573 
L 233.996973 233.188439 
L 243.511563 237.617823 
L 244.179814 237.991327 
" style="fill:none;stroke:#999999;"/>
    <path clip-path="url(#p414f357ef2)" d="M 375.154616 335.277126 
L 374.62723 335.017736 
" style="fill:none;stroke:#999999;"/>
    <path clip-path="url(#p414f357ef2)" d="M 375.154616 335.277126 
L 375.399928 335.9583 
" style="fill:none;stroke:#999999;"/>
    <path clip-path="url(#p414f357ef2)" d="M 375.154616 335.277126 
L 374.942287 334.604731 
L 374.897966 334.517389 
" style="fill:none;stroke:#999999;"/>
    <path clip-path="url(#p414f357ef2)" d="M 374.897966 334.517389 
L 374.942287 334.604731 
L 375.154616 335.277126 
" style="fill:none;stroke:#999999;"/>
    <path clip-path="url(#p414f357ef2)" d="M 374.897966 334.517389 
L 374.65609 334.04206 
L 374.517974 333.919168 
L 374.361304 333.857722 
L 374.108777 333.810321 
L 373.736 333.842799 
" style="fill:none;stroke:#999999;"/>
    <path clip-path="url(#p414f357ef2)" d="M 373.840446 334.935661 
L 374.313547 335.05197 
L 374.68873 335.140628 
L 374.981798 335.33155 
L 375.186568 335.597962 
L 375.399928 335.9583 
" style="fill:none;stroke:#999999;"/>
    <path clip-path="url(#p414f357ef2)" d="M 373.840446 334.935661 
L 372.151094 334.908889 
L 370.55004 334.778096 
L 367.430046 334.336562 
L 364.775595 333.519769 
L 362.794205 332.731942 
L 360.115703 331.186135 
L 359.777283 330.891633 
L 358.46758 329.331341 
L 357.966993 329.110575 
L 356.863434 329.213277 
L 355.126668 329.243122 
L 353.728666 328.565899 
L 351.579956 327.182046 
L 347.724027 324.002212 
L 345.325194 322.426998 
L 342.882385 320.513392 
L 337.658001 316.008957 
L 336.495347 315.375623 
L 334.008217 314.37493 
L 331.609384 313.815332 
L 329.960917 312.932265 
L 327.871301 312.475808 
L 326.061011 311.725288 
L 325.222004 311.150768 
L 324.442091 310.208887 
L 323.868323 309.826166 
L 322.76442 309.472851 
L 321.307667 308.986988 
L 320.571732 308.471719 
L 319.526924 307.471026 
L 319.120133 307.226997 
L 318.938039 307.117711 
L 318.452569 306.926351 
L 317.951982 307.029492 
L 316.657052 307.20593 
L 315.803271 307.132195 
L 314.891083 306.867538 
L 314.405269 306.720067 
L 313.610583 306.190315 
L 312.860218 305.336653 
L 312.30088 305.042151 
L 311.785863 305.042151 
L 311.403122 305.145293 
L 308.283128 307.029492 
L 304.265376 308.722331 
L 303.573762 308.869363 
L 302.8526 308.883847 
L 299.923977 308.883847 
L 298.702572 308.825034 
L 297.92266 308.913692 
L 296.745232 309.355226 
L 295.891451 309.414038 
L 295.081991 309.09013 
L 294.051957 308.265875 
L 293.345569 308.088998 
L 292.550883 308.088998 
L 291.491301 307.824341 
L 290.505245 307.323556 
L 287.723671 305.822077 
L 286.738989 305.582437 
L 285.928154 305.247995 
L 285.336177 305.007039 
" style="fill:none;stroke:#999999;"/>
    <path clip-path="url(#p414f357ef2)" d="M 375.399928 335.9583 
L 375.154616 335.277126 
" style="fill:none;stroke:#999999;"/>
    <path clip-path="url(#p414f357ef2)" d="M 375.399928 335.9583 
L 376.223474 338.24541 
L 377.277902 341.735546 
L 377.591585 342.497478 
L 378.106946 343.057953 
L 381.849495 343.909859 
L 382.745879 344.246057 
L 383.530258 344.828917 
L 386.107405 348.908936 
L 386.712439 349.738457 
L 387.51915 350.500828 
L 395.496934 356.598472 
L 396.998352 357.69704 
L 399.037462 358.526561 
L 403.788401 360.118014 
L 405.043476 360.768026 
L 406.141538 361.754674 
L 409.346051 365.565647 
L 410.264767 366.283249 
L 411.183483 366.597063 
L 413.088257 366.888493 
L 414.029649 367.179923 
L 414.814028 367.606095 
L 415.28438 368.054213 
L 416.763466 370.072277 
L 418.666177 372.261513 
L 420.55068 373.322774 
L 422.433121 374.17468 
L 424.405234 374.981818 
L 425.010268 375.340838 
L 425.435956 375.721804 
L 425.682642 376.237512 
L 425.637633 376.842756 
L 425.525628 377.447999 
L 423.543208 385.4711 
L 423.465903 386.019286 
L 423.478616 386.515683 
" style="fill:none;stroke:#999999;"/>
    <path clip-path="url(#p414f357ef2)" d="M 423.478616 386.515683 
L 423.607456 386.940977 
L 423.781648 387.366711 
L 424.10392 388.062807 
L 424.612753 388.810693 
L 425.018857 389.24301 
L 425.203013 389.395748 
" style="fill:none;stroke:#999999;"/>
    <path clip-path="url(#p414f357ef2)" d="M 423.478616 386.515683 
L 423.465903 386.019286 
L 423.543208 385.4711 
L 425.525628 377.447999 
L 425.637633 376.842756 
L 425.682642 376.237512 
L 425.435956 375.721804 
L 425.010268 375.340838 
L 424.405234 374.981818 
L 422.433121 374.17468 
L 420.55068 373.322774 
L 418.666177 372.261513 
L 416.763466 370.072277 
L 415.28438 368.054213 
L 414.814028 367.606095 
L 414.029649 367.179923 
L 413.088257 366.888493 
L 411.183483 366.597063 
L 410.264767 366.283249 
L 409.346051 365.565647 
L 406.141538 361.754674 
L 405.043476 360.768026 
L 403.788401 360.118014 
L 399.037462 358.526561 
L 396.998352 357.69704 
L 395.496934 356.598472 
L 387.51915 350.500828 
L 386.712439 349.738457 
L 386.107405 348.908936 
L 383.530258 344.828917 
L 382.745879 344.246057 
L 381.849495 343.909859 
L 378.106946 343.057953 
L 377.591585 342.497478 
L 377.277902 341.735546 
L 376.223474 338.24541 
L 375.399928 335.9583 
" style="fill:none;stroke:#999999;"/>
    <path clip-path="url(#p414f357ef2)" d="M 426.759058 388.8559 
L 426.024154 388.636889 
L 425.469969 388.456501 
L 425.057681 388.301569 
L 424.4712 387.901731 
L 424.071624 387.489164 
L 423.75588 387.018663 
L 423.478616 386.515683 
" style="fill:none;stroke:#999999;"/>
    <path clip-path="url(#p414f357ef2)" d="M 426.759058 388.8559 
L 427.351723 389.113974 
L 427.407382 389.145574 
" style="fill:none;stroke:#999999;"/>
    <path clip-path="url(#p414f357ef2)" d="M 426.759058 388.8559 
L 426.327186 388.8559 
L 426.004914 388.93973 
L 425.785714 389.056039 
L 425.573042 389.185075 
L 425.469969 389.262322 
L 425.411905 389.339568 
L 425.447294 389.429982 
" style="fill:none;stroke:#999999;"/>
    <path clip-path="url(#p414f357ef2)" d="M 425.203013 389.395748 
L 425.392665 389.436127 
L 425.447294 389.429982 
" style="fill:none;stroke:#999999;"/>
    <path clip-path="url(#p414f357ef2)" d="M 425.203013 389.395748 
L 425.018857 389.24301 
L 424.612753 388.810693 
L 424.10392 388.062807 
L 423.781648 387.366711 
L 423.607456 386.940977 
L 423.478616 386.515683 
" style="fill:none;stroke:#999999;"/>
    <path clip-path="url(#p414f357ef2)" d="M 425.203013 389.395748 
L 425.399193 389.559019 
L 425.534218 389.652943 
" style="fill:none;stroke:#999999;"/>
    <path clip-path="url(#p414f357ef2)" d="M 427.407382 389.145574 
L 427.351723 389.113974 
L 426.759058 388.8559 
" style="fill:none;stroke:#999999;"/>
    <path clip-path="url(#p414f357ef2)" d="M 426.450873 390.246337 
L 426.224114 389.984313 
L 426.178762 389.81007 
L 426.172578 389.623098 
L 426.217586 389.416815 
L 426.301418 389.262322 
L 426.44297 389.165325 
L 426.604107 389.101245 
L 426.824681 389.049894 
" style="fill:none;stroke:#999999;"/>
    <path clip-path="url(#p414f357ef2)" d="M 426.450873 390.246337 
L 426.282178 390.164701 
L 425.973992 389.958418 
L 425.534218 389.652943 
" style="fill:none;stroke:#999999;"/>
    <path clip-path="url(#p414f357ef2)" d="M 426.824681 389.049894 
L 427.042507 389.07535 
L 427.407382 389.145574 
" style="fill:none;stroke:#999999;"/>
    <path clip-path="url(#p414f357ef2)" d="M 425.534218 389.652943 
L 425.399193 389.559019 
L 425.203013 389.395748 
" style="fill:none;stroke:#999999;"/>
    <path clip-path="url(#p414f357ef2)" d="M 425.534218 389.652943 
L 425.973992 389.958418 
L 426.282178 390.164701 
L 426.450873 390.246337 
" style="fill:none;stroke:#999999;"/>
    <path clip-path="url(#p414f357ef2)" d="M 348.84339 271.793246 
L 348.087871 271.258227 
L 347.279442 270.408954 
L 346.779542 269.967859 
L 346.355572 269.691352 
L 345.784209 269.580749 
L 345.15753 269.543881 
L 344.30959 269.709786 
L 343.461994 269.949425 
L 342.835315 270.207499 
L 342.04269 270.74208 
L 340.383916 271.829675 
L 340.107339 271.884977 
L 339.609844 271.737506 
L 339.222636 271.442565 
L 338.854325 271.442565 
L 338.098463 271.479433 
L 337.600968 271.442565 
L 337.029605 271.405697 
L 336.66095 271.387263 
L 336.126349 271.590035 
L 335.536777 272.014013 
L 334.725599 272.179918 
L 334.172789 272.106182 
L 333.693503 271.626903 
L 333.196008 271.092322 
L 332.900878 270.318102 
L 332.661407 269.838823 
L 332.366621 269.322676 
L 331.942651 268.898698 
L 331.463365 268.62219 
L 330.85524 268.437852 
L 330.265324 268.23508 
L 329.859907 267.921705 
L 329.601883 267.129051 
L 329.509805 266.336397 
L 329.251781 265.802255 
L 328.846364 265.396711 
L 328.533024 265.083336 
L 328.256448 264.806829 
L 327.924899 264.585623 
L 327.445613 264.345983 
L 326.966328 264.198513 
L 326.376412 264.180079 
L 325.768286 264.198513 
L 325.178713 264.23538 
L 324.828268 264.051042 
L 324.404642 263.792969 
L 322.450737 262.078623 
L 320.957909 261.544043 
L 320.2206 261.617778 
L 319.815183 261.470307 
L 319.501843 261.212234 
L 319.170295 260.788256 
L 319.170295 260.253675 
L 319.077873 259.903433 
L 318.746325 259.516761 
L 318.322354 259.277122 
L 315.226067 258.189526 
L 311.226525 256.383012 
L 309.107018 255.16638 
L 308.037816 254.853444 
L 306.87688 254.68754 
L 305.678838 254.540069 
L 304.499349 254.134525 
L 303.319861 253.415606 
L 301.955873 252.715121 
L 301.310641 252.549217 
L 300.444491 252.457048 
L 299.22824 252.493915 
L 297.440282 252.512349 
L 296.1134 252.65982 
L 295.26546 252.751989 
L 294.675544 252.770422 
L 294.159496 252.604518 
L 292.648458 251.959334 
L 291.671334 251.867165 
L 283.193307 251.774996 
L 280.576305 251.756562 
L 279.396473 251.904033 
L 277.719489 252.162106 
L 275.655298 251.959334 
L 274.199232 251.664393 
L 272.613982 251.185114 
L 271.121154 250.816438 
L 270.070505 250.77957 
L 269.296433 250.816438 
L 268.356759 250.724707 
L 267.084849 250.097958 
L 265.35255 248.494215 
L 263.859378 247.093245 
L 263.029991 246.559103 
L 260.320911 245.508375 
L 257.53762 243.959935 
L 253.833207 241.490242 
L 252.45101 240.789757 
L 250.31295 240.145012 
L 246.737377 238.744041 
L 245.225996 238.135725 
L 244.179814 237.991327 
" style="fill:none;stroke:#999999;"/>
    <path clip-path="url(#p414f357ef2)" d="M 244.179814 237.991327 
L 245.594994 238.782665 
L 252.15691 243.491189 
L 254.121809 245.401723 
L 255.33806 246.626255 
L 257.973271 249.913619 
L 261.589729 255.155408 
L 261.819237 255.549101 
L 262.327726 255.926556 
L 265.018252 257.698397 
L 266.98693 259.109462 
L 268.446775 260.077237 
L 269.447606 260.569245 
L 278.103261 263.53709 
L 280.586269 264.375829 
L 283.391549 265.392761 
L 286.458976 266.697173 
L 288.329392 267.771601 
L 289.616419 268.681003 
L 290.691805 269.363054 
L 291.403003 270.111819 
L 291.908057 270.730668 
L 292.571154 272.100038 
L 293.69361 276.450858 
L 294.005575 277.304081 
L 294.39931 277.960237 
L 295.826516 280.241202 
L 296.318513 281.225656 
L 296.630135 282.0622 
L 296.777872 282.833349 
L 297.040362 285.261785 
L 297.204247 285.967098 
L 297.663605 286.623693 
L 298.172094 286.96823 
L 298.82832 287.246932 
L 301.945222 288.31346 
L 302.781824 288.493848 
L 303.70054 288.346377 
L 306.801294 287.099461 
L 307.75265 286.869477 
L 309.08125 286.902395 
L 310.82042 287.099461 
L 312.165512 287.394841 
L 313.92083 288.690914 
L 315.052563 289.65869 
L 316.086376 290.315285 
L 319.826521 291.841342 
L 320.958596 292.431663 
L 324.600135 295.385024 
L 325.929079 296.517387 
L 326.995532 297.534759 
L 328.275001 298.502973 
L 329.997336 299.503666 
L 331.58877 300.504798 
L 333.163712 302.178325 
L 334.13156 303.343167 
L 335.42752 304.376778 
L 337.871704 306.099901 
L 339.167665 306.739818 
L 340.004267 307.166429 
L 340.840869 307.708032 
L 341.513587 308.397106 
L 342.022076 309.397799 
L 342.350189 310.136469 
L 342.891661 310.891377 
L 346.467921 313.418127 
L 349.437086 315.682415 
L 350.437916 317.093919 
L 351.360068 318.755157 
L 352.340628 320.785949 
L 352.767347 321.950791 
L 353.538326 323.362295 
L 354.178061 324.215518 
L 355.195039 325.035823 
L 356.113755 325.610343 
L 357.836435 326.086111 
L 358.869905 326.430648 
L 359.526131 326.906416 
L 360.575749 328.465391 
L 362.019446 330.122679 
L 363.594388 331.28796 
L 365.136347 332.223257 
L 367.165151 333.073846 
L 369.28775 333.727807 
L 370.932437 334.027576 
L 372.538989 334.05391 
L 373.736 333.842799 
" style="fill:none;stroke:#999999;"/>
    <path clip-path="url(#p414f357ef2)" d="M 244.179814 237.991327 
L 243.511563 237.617823 
L 233.996973 233.188439 
L 231.109579 232.368573 
L 228.53415 231.712417 
L 227.073961 231.482433 
L 224.900857 231.396409 
L 221.824497 231.499112 
L 219.462083 231.843648 
L 214.311225 232.680193 
L 213.523754 232.942655 
L 212.841416 233.323182 
L 210.784096 234.681579 
L 209.045269 235.698511 
L 208.126553 236.01013 
L 205.895384 236.682965 
L 204.550293 236.928749 
L 203.828444 236.847114 
L 202.220862 236.371346 
L 201.318638 236.108883 
L 200.596789 235.633115 
L 199.186075 234.304124 
L 197.84064 233.582572 
L 196.708908 233.106804 
L 195.74106 233.090126 
L 194.428608 232.991812 
L 193.803991 232.818446 
L 193.280385 232.532283 
L 192.870158 232.089433 
L 192.525553 231.433276 
L 191.787557 230.186799 
L 190.114009 228.250809 
L 186.865862 224.674648 
L 183.371716 221.574255 
L 181.140891 220.327778 
L 178.10576 218.785482 
L 163.357855 212.388069 
L 160.733294 211.420293 
L 158.223488 210.960764 
L 154.778473 210.829533 
L 153.506219 210.864645 
L 152.365898 211.021771 
L 149.654413 211.56513 
L 147.642102 211.994375 
L 144.902788 212.683449 
L 144.293288 212.896754 
L 143.846298 213.103915 
" style="fill:none;stroke:#999999;"/>
    <path clip-path="url(#p414f357ef2)" d="M 244.179814 237.991327 
L 245.225996 238.135725 
L 246.737377 238.744041 
L 250.31295 240.145012 
L 252.45101 240.789757 
L 253.833207 241.490242 
L 257.53762 243.959935 
L 260.320911 245.508375 
L 263.029991 246.559103 
L 263.859378 247.093245 
L 265.35255 248.494215 
L 267.084849 250.097958 
L 268.356759 250.724707 
L 269.296433 250.816438 
L 270.070505 250.77957 
L 271.121154 250.816438 
L 272.613982 251.185114 
L 274.199232 251.664393 
L 275.655298 251.959334 
L 277.719489 252.162106 
L 279.396473 251.904033 
L 280.576305 251.756562 
L 283.193307 251.774996 
L 291.671334 251.867165 
L 292.648458 251.959334 
L 294.159496 252.604518 
L 294.675544 252.770422 
L 295.26546 252.751989 
L 296.1134 252.65982 
L 297.440282 252.512349 
L 299.22824 252.493915 
L 300.444491 252.457048 
L 301.310641 252.549217 
L 301.955873 252.715121 
L 303.319861 253.415606 
L 304.499349 254.134525 
L 305.678838 254.540069 
L 306.87688 254.68754 
L 308.037816 254.853444 
L 309.107018 255.16638 
L 311.226525 256.383012 
L 315.226067 258.189526 
L 318.322354 259.277122 
L 318.746325 259.516761 
L 319.077873 259.903433 
L 319.170295 260.253675 
L 319.170295 260.788256 
L 319.501843 261.212234 
L 319.815183 261.470307 
L 320.2206 261.617778 
L 320.957909 261.544043 
L 322.450737 262.078623 
L 324.404642 263.792969 
L 324.828268 264.051042 
L 325.178713 264.23538 
L 325.768286 264.198513 
L 326.376412 264.180079 
L 326.966328 264.198513 
L 327.445613 264.345983 
L 327.924899 264.585623 
L 328.256448 264.806829 
L 328.533024 265.083336 
L 328.846364 265.396711 
L 329.251781 265.802255 
L 329.509805 266.336397 
L 329.601883 267.129051 
L 329.859907 267.921705 
L 330.265324 268.23508 
L 330.85524 268.437852 
L 331.463365 268.62219 
L 331.942651 268.898698 
L 332.366621 269.322676 
L 332.661407 269.838823 
L 332.900878 270.318102 
L 333.196008 271.092322 
L 333.693503 271.626903 
L 334.172789 272.106182 
L 334.725599 272.179918 
L 335.536777 272.014013 
L 336.126349 271.590035 
L 336.66095 271.387263 
L 337.029605 271.405697 
L 337.600968 271.442565 
L 338.098463 271.479433 
L 338.854325 271.442565 
L 339.222636 271.442565 
L 339.609844 271.737506 
L 340.107339 271.884977 
L 340.383916 271.829675 
L 342.04269 270.74208 
L 342.835315 270.207499 
L 343.461994 269.949425 
L 344.30959 269.709786 
L 345.15753 269.543881 
L 345.784209 269.580749 
L 346.355572 269.691352 
L 346.779542 269.967859 
L 347.279442 270.408954 
L 348.087871 271.258227 
L 348.84339 271.793246 
" style="fill:none;stroke:#999999;"/>
    <path clip-path="url(#p414f357ef2)" d="M 60.528275 159.447456 
L 61.210613 158.432279 
L 62.153379 157.626019 
L 63.212961 156.928167 
L 63.88293 156.615231 
L 65.732731 156.487072 
L 66.450801 156.73944 
L 67.710686 157.561939 
L 68.617721 158.155772 
L 68.946521 158.432279 
L 69.179464 159.086241 
L 68.453149 160.129507 
L 68.03983 160.634682 
L 68.116103 160.984046 
L 68.541447 161.124056 
L 69.765257 160.76723 
L 71.334015 160.229576 
L 71.91706 159.845539 
" style="fill:none;stroke:#999999;"/>
    <path clip-path="url(#p414f357ef2)" d="M 279.192733 310.775947 
L 278.826484 309.903851 
L 278.352695 308.588467 
" style="fill:none;stroke:#999999;"/>
    <path clip-path="url(#p414f357ef2)" d="M 273.404545 307.25377 
L 274.034316 306.14423 
L 274.190642 306.219721 
L 274.459661 305.664951 
L 274.691229 305.55742 
" style="fill:none;stroke:#999999;"/>
    <path clip-path="url(#p414f357ef2)" d="M 274.691229 305.55742 
L 275.173263 305.731225 
" style="fill:none;stroke:#999999;"/>
    <path clip-path="url(#p414f357ef2)" d="M 274.691229 305.55742 
L 274.029163 304.630901 
" style="fill:none;stroke:#999999;"/>
    <path clip-path="url(#p414f357ef2)" d="M 274.691229 305.55742 
L 274.459661 305.664951 
L 274.190642 306.219721 
L 274.034316 306.14423 
L 273.404545 307.25377 
" style="fill:none;stroke:#999999;"/>
    <path clip-path="url(#p414f357ef2)" d="M 274.029163 304.630901 
L 274.691229 305.55742 
" style="fill:none;stroke:#999999;"/>
    <path clip-path="url(#p414f357ef2)" d="M 268.399362 302.748457 
L 268.663571 302.127413 
" style="fill:none;stroke:#999999;"/>
    <path clip-path="url(#p414f357ef2)" d="M 269.933763 302.489506 
L 268.663571 302.127413 
" style="fill:none;stroke:#999999;"/>
    <path clip-path="url(#p414f357ef2)" d="M 279.739359 299.049404 
L 280.515836 297.640534 
" style="fill:none;stroke:#999999;"/>
    <path clip-path="url(#p414f357ef2)" d="M 279.739359 299.049404 
L 281.043566 299.555456 
L 282.269093 300.117688 
L 284.149129 300.937993 
" style="fill:none;stroke:#999999;"/>
    <path clip-path="url(#p414f357ef2)" d="M 279.739359 299.049404 
L 279.522908 298.965574 
L 279.005829 298.789575 
" style="fill:none;stroke:#999999;"/>
    <path clip-path="url(#p414f357ef2)" d="M 267.98673 298.416071 
L 268.412418 297.203389 
" style="fill:none;stroke:#999999;"/>
    <path clip-path="url(#p414f357ef2)" d="M 267.98673 298.416071 
L 267.561386 298.229977 
L 267.07248 297.91748 
L 266.572924 297.418011 
L 266.073368 297.147209 
" style="fill:none;stroke:#999999;"/>
    <path clip-path="url(#p414f357ef2)" d="M 267.98673 298.416071 
L 268.060942 298.448549 
L 268.526485 298.668438 
" style="fill:none;stroke:#999999;"/>
    <path clip-path="url(#p414f357ef2)" d="M 280.515836 297.640534 
L 279.739359 299.049404 
" style="fill:none;stroke:#999999;"/>
    <path clip-path="url(#p414f357ef2)" d="M 268.412418 297.203389 
L 267.98673 298.416071 
" style="fill:none;stroke:#999999;"/>
    <path clip-path="url(#p414f357ef2)" d="M 268.412418 297.203389 
L 268.832952 297.380266 
L 269.37683 297.555387 
L 270.132349 297.795026 
L 270.768304 297.960931 
L 271.496337 298.062317 
L 273.62512 298.080751 
L 275.357419 298.080751 
L 276.951945 298.062317 
" style="fill:none;stroke:#999999;"/>
    <path clip-path="url(#p414f357ef2)" d="M 268.412418 297.203389 
L 268.37222 297.18671 
L 268.123472 297.030023 
L 267.800857 296.744299 
L 267.460031 296.338755 
L 267.202008 296.071025 
L 267.045338 295.84982 
L 266.943984 295.637831 
L 266.833353 295.388974 
L 266.787314 295.232287 
L 266.68596 295.084816 
L 266.584605 294.974213 
L 266.464698 294.909695 
L 266.317305 294.83596 
L 266.160635 294.826743 
L 266.088141 294.837715 
" style="fill:none;stroke:#999999;"/>
    <path clip-path="url(#p414f357ef2)" d="M 277.865508 295.891954 
L 277.644933 296.311982 
L 277.348773 296.861485 
L 277.181796 297.227528 
L 277.084908 297.555826 
L 276.951945 298.062317 
" style="fill:none;stroke:#999999;"/>
    <path clip-path="url(#p414f357ef2)" d="M 265.878905 295.696204 
L 265.865849 295.564095 
L 265.865849 295.315239 
L 265.856572 295.094033 
" style="fill:none;stroke:#999999;"/>
    <path clip-path="url(#p414f357ef2)" d="M 265.878905 295.696204 
L 265.893335 295.840603 
L 266.002591 296.191284 
L 266.055502 296.541966 
L 266.059281 296.818034 
L 266.073368 297.147209 
" style="fill:none;stroke:#999999;"/>
    <path clip-path="url(#p414f357ef2)" d="M 265.878905 295.696204 
L 264.061056 296.419074 
L 263.173948 296.514315 
L 262.469278 296.628429 
L 261.982091 296.590684 
L 261.467417 296.790822 
" style="fill:none;stroke:#999999;"/>
    <path clip-path="url(#p414f357ef2)" d="M 266.088141 294.837715 
L 266.160635 294.826743 
L 266.317305 294.83596 
L 266.464698 294.909695 
L 266.584605 294.974213 
L 266.68596 295.084816 
L 266.787314 295.232287 
L 266.833353 295.388974 
L 266.943984 295.637831 
L 267.045338 295.84982 
L 267.202008 296.071025 
L 267.460031 296.338755 
L 267.800857 296.744299 
L 268.123472 297.030023 
L 268.37222 297.18671 
L 268.412418 297.203389 
" style="fill:none;stroke:#999999;"/>
    <path clip-path="url(#p414f357ef2)" d="M 266.088141 294.837715 
L 266.040728 294.845176 
L 265.939374 294.928129 
L 265.856572 295.094033 
" style="fill:none;stroke:#999999;"/>
    <path clip-path="url(#p414f357ef2)" d="M 266.088141 294.837715 
L 266.033169 294.004682 
L 266.02939 293.795327 
" style="fill:none;stroke:#999999;"/>
    <path clip-path="url(#p414f357ef2)" d="M 265.614353 294.240811 
L 265.736322 294.8996 
L 265.856572 295.094033 
" style="fill:none;stroke:#999999;"/>
    <path clip-path="url(#p414f357ef2)" d="M 266.02939 293.795327 
L 266.033169 294.004682 
L 266.088141 294.837715 
" style="fill:none;stroke:#999999;"/>
    <path clip-path="url(#p414f357ef2)" d="M 425.447294 389.429982 
L 425.534218 389.652943 
" style="fill:none;stroke:#999999;"/>
    <path clip-path="url(#p414f357ef2)" d="M 425.447294 389.429982 
L 425.611865 389.41067 
L 425.83725 389.249155 
L 426.16605 389.126702 
L 426.462554 389.049455 
L 426.765243 389.042872 
L 426.824681 389.049894 
" style="fill:none;stroke:#999999;"/>
    <path clip-path="url(#p414f357ef2)" d="M 159.855807 423.692308 
L 161.482285 422.878147 
L 164.007553 423.155094 
L 166.878112 422.180296 
L 167.453942 421.587341 
L 168.426256 421.700577 
L 170.236889 421.661076 
L 171.688489 420.944791 
L 172.964866 420.683645 
L 175.061353 419.72772 
L 175.323843 419.374405 
L 175.116668 419.229568 
L 173.591544 419.134765 
L 171.725251 418.565511 
L 170.532019 418.415407 
L 169.292405 417.754423 
L 168.541353 416.681751 
L 167.615421 416.334141 
L 166.219137 416.442111 
L 165.131726 416.128736 
L 162.915332 413.936867 
L 158.03143 410.396257 
L 157.386198 410.543728 
L 156.487753 411.960937 
L 155.229929 412.517024 
L 153.446781 412.126842 
L 148.778987 408.699468 
L 146.774578 407.811572 
L 144.894885 406.760406 
L 143.43401 405.269461 
L 143.083908 403.794316 
L 143.452563 401.249571 
L 142.867456 398.610024 
L 143.217558 395.309054 
L 142.185462 393.833909 
L 141.185663 393.154491 
L 141.093585 392.822244 
L 141.282207 392.690573 
L 142.093385 392.690573 
L 144.323522 391.473502 
L 146.369161 390.920049 
L 148.267749 391.104826 
L 148.986506 390.735711 
L 150.534649 388.357309 
L 151.271959 387.859157 
L 152.875418 387.803856 
L 155.510972 387.011201 
L 156.985248 385.665094 
L 158.588707 385.259111 
L 159.934142 384.466457 
L 162.606802 383.507459 
L 166.034982 380.686207 
L 166.698423 379.801384 
L 168.112916 378.623814 
L 168.283329 378.141462 
L 167.435732 376.058002 
L 166.053191 374.472254 
L 165.315882 373.255183 
L 164.83694 371.319193 
L 164.41297 370.249593 
L 163.841607 367.465647 
L 164.062868 366.764723 
L 167.693756 363.519493 
L 169.905341 362.63467 
L 170.64265 362.192258 
L 172.282872 359.057631 
L 171.969532 358.670521 
L 171.490247 358.541484 
L 171.066277 358.965462 
L 169.186584 359.998195 
L 166.735185 360.772415 
L 163.56503 361.251694 
L 162.164279 361.638805 
L 159.044973 362.950678 
L 158.312473 362.929611 
L 157.814635 362.487199 
L 157.625669 361.844649 
L 157.7363 360.314203 
L 157.957562 359.632152 
L 159.141861 357.269112 
L 159.252148 356.752965 
L 159.118841 356.313186 
L 158.307663 355.575834 
L 157.253579 352.6036 
L 157.017544 349.804731 
L 156.796282 348.58766 
L 156.925466 347.868741 
L 157.515382 347.315727 
L 157.496829 346.872876 
L 156.819302 346.317228 
L 156.303254 345.653611 
L 155.529182 343.312077 
L 155.524715 342.706394 
L 157.773406 337.673084 
L 157.60746 337.212238 
L 156.851597 336.750954 
L 156.709014 336.398078 
L 156.819302 336.176872 
L 158.565687 335.386851 
L 161.919998 334.907572 
L 163.228671 333.967008 
L 165.090154 331.589045 
L 166.55103 329.502952 
L 167.541553 328.989438 
L 168.50459 328.341182 
L 169.149478 327.714432 
L 169.568982 326.832242 
L 169.974399 326.408264 
L 171.117126 326.150191 
L 173.347263 324.878257 
L 173.757147 324.211568 
L 174.158097 323.956128 
L 175.872187 323.808657 
L 176.743147 323.566384 
L 177.130011 323.123972 
L 177.162307 322.168047 
L 177.517218 320.966776 
L 177.106991 320.305792 
L 176.02439 320.118821 
L 173.807996 320.803505 
L 172.743604 320.782438 
L 171.692955 320.045085 
L 170.734728 316.615956 
L 171.190994 315.162318 
L 171.098573 314.535568 
L 170.785233 313.96412 
L 169.407502 313.149959 
L 167.859359 312.947187 
L 164.652441 312.209834 
L 163.984533 311.659453 
L 164.021296 311.438247 
L 166.366531 310.771996 
L 166.767481 310.38752 
L 166.993209 309.997776 
L 166.624554 308.707409 
L 166.454142 307.364373 
L 166.712166 305.465251 
L 167.453942 303.803574 
L 168.905541 302.921384 
L 169.850025 302.033927 
L 170.693156 299.732333 
L 172.098372 298.162386 
L 173.388836 294.918034 
L 173.936836 293.078163 
L 175.065819 291.655248 
L 177.627849 289.682829 
L 179.046809 288.834874 
L 179.913302 288.632102 
L 180.798005 288.705837 
L 181.350815 288.466197 
L 185.147649 287.968484 
L 186.216507 288.134388 
L 187.764651 287.231131 
L 188.759984 287.194264 
L 189.073324 286.641249 
L 190.898044 285.903896 
L 193.183153 285.314014 
L 194.823718 285.240279 
L 196.556018 285.811727 
L 197.514588 285.793293 
L 198.915339 285.645823 
L 202.324965 283.581235 
L 203.523007 282.180265 
L 205.82667 280.945199 
L 206.951187 280.189412 
L 208.771097 278.423277 
L 209.776394 277.708308 
L 209.776394 277.708308 
" style="fill:none;stroke:#999999;"/>
    <path clip-path="url(#p414f357ef2)" d="M 178.094766 42.927283 
L 178.06247 42.909288 
L 177.938096 42.883832 
L 177.822656 42.898755 
L 177.717178 42.948789 
L 177.633003 43.029108 
" style="fill:none;stroke:#999999;"/>
    <path clip-path="url(#p414f357ef2)" d="M 178.094766 42.927283 
L 177.938096 42.581429 
L 177.835024 41.912545 
" style="fill:none;stroke:#999999;"/>
   </g>
  </g>
 </g>
 <defs>
  <clipPath id="p414f357ef2">
   <rect height="432" width="381.785098" x="52.964306" y="0"/>
  </clipPath>
 </defs>
</svg>
