<?xml version="1.0" encoding="utf-8" standalone="no"?>
<!DOCTYPE svg PUBLIC "-//W3C//DTD SVG 1.1//EN"
  "http://www.w3.org/Graphics/SVG/1.1/DTD/svg11.dtd">
<!-- Created with matplotlib (http://matplotlib.org/) -->
<svg height="432pt" version="1.1" viewBox="0 0 496.535982 432" width="496.535982pt" xmlns="http://www.w3.org/2000/svg" xmlns:xlink="http://www.w3.org/1999/xlink">
 <defs>
  <style type="text/css">
*{stroke-linecap:butt;stroke-linejoin:round;}
  </style>
 </defs>
 <g id="figure_1">
  <g id="patch_1">
   <path d="M 0 432 
L 496.535982 432 
L 496.535982 0 
L 0 0 
z
" style="fill:none;opacity:0;"/>
  </g>
  <g id="axes_1">
   <g id="PathCollection_1">
    <defs>
     <path d="M 0 1.936492 
C 0.513564 1.936492 1.006162 1.732451 1.369306 1.369306 
C 1.732451 1.006162 1.936492 0.513564 1.936492 0 
C 1.936492 -0.513564 1.732451 -1.006162 1.369306 -1.369306 
C 1.006162 -1.732451 0.513564 -1.936492 0 -1.936492 
C -0.513564 -1.936492 -1.006162 -1.732451 -1.369306 -1.369306 
C -1.732451 -1.006162 -1.936492 -0.513564 -1.936492 0 
C -1.936492 0.513564 -1.732451 1.006162 -1.369306 1.369306 
C -1.006162 1.732451 -0.513564 1.936492 0 1.936492 
z
" id="C0_0_103c1e9775"/>
    </defs>
    <g clip-path="url(#pd55b336bf2)">
     <use style="fill:#66ccff;" x="376.16878" xlink:href="#C0_0_103c1e9775" y="134.729332"/>
    </g>
    <g clip-path="url(#pd55b336bf2)">
     <use style="fill:#66ccff;" x="400.991631" xlink:href="#C0_0_103c1e9775" y="123.016403"/>
    </g>
    <g clip-path="url(#pd55b336bf2)">
     <use style="fill:#66ccff;" x="354.588369" xlink:href="#C0_0_103c1e9775" y="123.672144"/>
    </g>
    <g clip-path="url(#pd55b336bf2)">
     <use style="fill:#66ccff;" x="360.030395" xlink:href="#C0_0_103c1e9775" y="122.241928"/>
    </g>
    <g clip-path="url(#pd55b336bf2)">
     <use style="fill:#66ccff;" x="358.145035" xlink:href="#C0_0_103c1e9775" y="120.74155"/>
    </g>
    <g clip-path="url(#pd55b336bf2)">
     <use style="fill:#66ccff;" x="357.295147" xlink:href="#C0_0_103c1e9775" y="121.686033"/>
    </g>
    <g clip-path="url(#pd55b336bf2)">
     <use style="fill:#66ccff;" x="348.691875" xlink:href="#C0_0_103c1e9775" y="33.310834"/>
    </g>
    <g clip-path="url(#pd55b336bf2)">
     <use style="fill:#66ccff;" x="398.351284" xlink:href="#C0_0_103c1e9775" y="105.980643"/>
    </g>
    <g clip-path="url(#pd55b336bf2)">
     <use style="fill:#66ccff;" x="386.542477" xlink:href="#C0_0_103c1e9775" y="103.518243"/>
    </g>
    <g clip-path="url(#pd55b336bf2)">
     <use style="fill:#66ccff;" x="384.436737" xlink:href="#C0_0_103c1e9775" y="93.798172"/>
    </g>
    <g clip-path="url(#pd55b336bf2)">
     <use style="fill:#66ccff;" x="379.040053" xlink:href="#C0_0_103c1e9775" y="87.437759"/>
    </g>
    <g clip-path="url(#pd55b336bf2)">
     <use style="fill:#66ccff;" x="361.335806" xlink:href="#C0_0_103c1e9775" y="124.787982"/>
    </g>
    <g clip-path="url(#pd55b336bf2)">
     <use style="fill:#66ccff;" x="359.182616" xlink:href="#C0_0_103c1e9775" y="123.337527"/>
    </g>
    <g clip-path="url(#pd55b336bf2)">
     <use style="fill:#66ccff;" x="357.512364" xlink:href="#C0_0_103c1e9775" y="122.863937"/>
    </g>
    <g clip-path="url(#pd55b336bf2)">
     <use style="fill:#66ccff;" x="404.425981" xlink:href="#C0_0_103c1e9775" y="121.96533"/>
    </g>
    <g clip-path="url(#pd55b336bf2)">
     <use style="fill:#66ccff;" x="359.42514" xlink:href="#C0_0_103c1e9775" y="120.885921"/>
    </g>
    <g clip-path="url(#pd55b336bf2)">
     <use style="fill:#66ccff;" x="426.907948" xlink:href="#C0_0_103c1e9775" y="103.098623"/>
    </g>
    <g clip-path="url(#pd55b336bf2)">
     <use style="fill:#66ccff;" x="432.226603" xlink:href="#C0_0_103c1e9775" y="103.041954"/>
    </g>
    <g clip-path="url(#pd55b336bf2)">
     <use style="fill:#66ccff;" x="431.62662" xlink:href="#C0_0_103c1e9775" y="101.727775"/>
    </g>
    <g clip-path="url(#pd55b336bf2)">
     <use style="fill:#66ccff;" x="434.827936" xlink:href="#C0_0_103c1e9775" y="100.790039"/>
    </g>
    <g clip-path="url(#pd55b336bf2)">
     <use style="fill:#66ccff;" x="395.221671" xlink:href="#C0_0_103c1e9775" y="105.690552"/>
    </g>
    <g clip-path="url(#pd55b336bf2)">
     <use style="fill:#66ccff;" x="427.484733" xlink:href="#C0_0_103c1e9775" y="105.249344"/>
    </g>
    <g clip-path="url(#pd55b336bf2)">
     <use style="fill:#66ccff;" x="389.411641" xlink:href="#C0_0_103c1e9775" y="104.816232"/>
    </g>
    <g clip-path="url(#pd55b336bf2)">
     <use style="fill:#66ccff;" x="429.670612" xlink:href="#C0_0_103c1e9775" y="104.19827"/>
    </g>
    <g clip-path="url(#pd55b336bf2)">
     <use style="fill:#66ccff;" x="418.937347" xlink:href="#C0_0_103c1e9775" y="103.771904"/>
    </g>
    <g clip-path="url(#pd55b336bf2)">
     <use style="fill:#66ccff;" x="377.138876" xlink:href="#C0_0_103c1e9775" y="103.551975"/>
    </g>
    <g clip-path="url(#pd55b336bf2)">
     <use style="fill:#66ccff;" x="429.182401" xlink:href="#C0_0_103c1e9775" y="103.533085"/>
    </g>
    <g clip-path="url(#pd55b336bf2)">
     <use style="fill:#66ccff;" x="376.21834" xlink:href="#C0_0_103c1e9775" y="103.516894"/>
    </g>
    <g clip-path="url(#pd55b336bf2)">
     <use style="fill:#66ccff;" x="429.132841" xlink:href="#C0_0_103c1e9775" y="103.384666"/>
    </g>
    <g clip-path="url(#pd55b336bf2)">
     <use style="fill:#66ccff;" x="429.551459" xlink:href="#C0_0_103c1e9775" y="101.839763"/>
    </g>
    <g clip-path="url(#pd55b336bf2)">
     <use style="fill:#66ccff;" x="395.215344" xlink:href="#C0_0_103c1e9775" y="100.772498"/>
    </g>
    <g clip-path="url(#pd55b336bf2)">
     <use style="fill:#66ccff;" x="394.791454" xlink:href="#C0_0_103c1e9775" y="98.656858"/>
    </g>
    <g clip-path="url(#pd55b336bf2)">
     <use style="fill:#66ccff;" x="418.28675" xlink:href="#C0_0_103c1e9775" y="98.642017"/>
    </g>
    <g clip-path="url(#pd55b336bf2)">
     <use style="fill:#66ccff;" x="424.837005" xlink:href="#C0_0_103c1e9775" y="97.885082"/>
    </g>
    <g clip-path="url(#pd55b336bf2)">
     <use style="fill:#66ccff;" x="376.367017" xlink:href="#C0_0_103c1e9775" y="80.467481"/>
    </g>
    <g clip-path="url(#pd55b336bf2)">
     <use style="fill:#66ccff;" x="377.70828" xlink:href="#C0_0_103c1e9775" y="65.679588"/>
    </g>
    <g clip-path="url(#pd55b336bf2)">
     <use style="fill:#66ccff;" x="377.718825" xlink:href="#C0_0_103c1e9775" y="63.376401"/>
    </g>
    <g clip-path="url(#pd55b336bf2)">
     <use style="fill:#66ccff;" x="363.521685" xlink:href="#C0_0_103c1e9775" y="49.485766"/>
    </g>
    <g clip-path="url(#pd55b336bf2)">
     <use style="fill:#66ccff;" x="353.471705" xlink:href="#C0_0_103c1e9775" y="40.335083"/>
    </g>
    <g clip-path="url(#pd55b336bf2)">
     <use style="fill:#66ccff;" x="369.968604" xlink:href="#C0_0_103c1e9775" y="109.061004"/>
    </g>
    <g clip-path="url(#pd55b336bf2)">
     <use style="fill:#66ccff;" x="364.105851" xlink:href="#C0_0_103c1e9775" y="105.086084"/>
    </g>
    <g clip-path="url(#pd55b336bf2)">
     <use style="fill:#66ccff;" x="394.588999" xlink:href="#C0_0_103c1e9775" y="126.173672"/>
    </g>
    <g clip-path="url(#pd55b336bf2)">
     <use style="fill:#66ccff;" x="356.186918" xlink:href="#C0_0_103c1e9775" y="114.989654"/>
    </g>
    <g clip-path="url(#pd55b336bf2)">
     <use style="fill:#66ccff;" x="376.436611" xlink:href="#C0_0_103c1e9775" y="120.583687"/>
    </g>
    <g clip-path="url(#pd55b336bf2)">
     <use style="fill:#66ccff;" x="382.337324" xlink:href="#C0_0_103c1e9775" y="132.214311"/>
    </g>
    <g clip-path="url(#pd55b336bf2)">
     <use style="fill:#66ccff;" x="171.218141" xlink:href="#C0_0_103c1e9775" y="391.473322"/>
    </g>
    <g clip-path="url(#pd55b336bf2)">
     <use style="fill:#66ccff;" x="391.653406" xlink:href="#C0_0_103c1e9775" y="110.402169"/>
    </g>
    <g clip-path="url(#pd55b336bf2)">
     <use style="fill:#66ccff;" x="421.859233" xlink:href="#C0_0_103c1e9775" y="191.556126"/>
    </g>
    <g clip-path="url(#pd55b336bf2)">
     <use style="fill:#66ccff;" x="381.018204" xlink:href="#C0_0_103c1e9775" y="155.582149"/>
    </g>
    <g clip-path="url(#pd55b336bf2)">
     <use style="fill:#66ccff;" x="367.443191" xlink:href="#C0_0_103c1e9775" y="120.41368"/>
    </g>
    <g clip-path="url(#pd55b336bf2)">
     <use style="fill:#66ccff;" x="351.519914" xlink:href="#C0_0_103c1e9775" y="37.246627"/>
    </g>
    <g clip-path="url(#pd55b336bf2)">
     <use style="fill:#66ccff;" x="370.289157" xlink:href="#C0_0_103c1e9775" y="60.213735"/>
    </g>
    <g clip-path="url(#pd55b336bf2)">
     <use style="fill:#66ccff;" x="351.916388" xlink:href="#C0_0_103c1e9775" y="37.670294"/>
    </g>
    <g clip-path="url(#pd55b336bf2)">
     <use style="fill:#66ccff;" x="356.513798" xlink:href="#C0_0_103c1e9775" y="112.983304"/>
    </g>
    <g clip-path="url(#pd55b336bf2)">
     <use style="fill:#66ccff;" x="371.008293" xlink:href="#C0_0_103c1e9775" y="113.852228"/>
    </g>
    <g clip-path="url(#pd55b336bf2)">
     <use style="fill:#66ccff;" x="366.933891" xlink:href="#C0_0_103c1e9775" y="43.213055"/>
    </g>
    <g clip-path="url(#pd55b336bf2)">
     <use style="fill:#66ccff;" x="363.228548" xlink:href="#C0_0_103c1e9775" y="59.811655"/>
    </g>
    <g clip-path="url(#pd55b336bf2)">
     <use style="fill:#66ccff;" x="364.558211" xlink:href="#C0_0_103c1e9775" y="121.374354"/>
    </g>
    <g clip-path="url(#pd55b336bf2)">
     <use style="fill:#66ccff;" x="351.180381" xlink:href="#C0_0_103c1e9775" y="39.507987"/>
    </g>
    <g clip-path="url(#pd55b336bf2)">
     <use style="fill:#66ccff;" x="352.735697" xlink:href="#C0_0_103c1e9775" y="106.753769"/>
    </g>
    <g clip-path="url(#pd55b336bf2)">
     <use style="fill:#66ccff;" x="366.380304" xlink:href="#C0_0_103c1e9775" y="93.448714"/>
    </g>
    <g clip-path="url(#pd55b336bf2)">
     <use style="fill:#66ccff;" x="376.266844" xlink:href="#C0_0_103c1e9775" y="56.531604"/>
    </g>
    <g clip-path="url(#pd55b336bf2)">
     <use style="fill:#66ccff;" x="361.051104" xlink:href="#C0_0_103c1e9775" y="78.842971"/>
    </g>
    <g clip-path="url(#pd55b336bf2)">
     <use style="fill:#66ccff;" x="358.965399" xlink:href="#C0_0_103c1e9775" y="52.995192"/>
    </g>
    <g clip-path="url(#pd55b336bf2)">
     <use style="fill:#66ccff;" x="374.032461" xlink:href="#C0_0_103c1e9775" y="49.122815"/>
    </g>
    <g clip-path="url(#pd55b336bf2)">
     <use style="fill:#66ccff;" x="360.005088" xlink:href="#C0_0_103c1e9775" y="81.16235"/>
    </g>
    <g clip-path="url(#pd55b336bf2)">
     <use style="fill:#66ccff;" x="349.794831" xlink:href="#C0_0_103c1e9775" y="37.415284"/>
    </g>
    <g clip-path="url(#pd55b336bf2)">
     <use style="fill:#66ccff;" x="356.921871" xlink:href="#C0_0_103c1e9775" y="82.697808"/>
    </g>
    <g clip-path="url(#pd55b336bf2)">
     <use style="fill:#66ccff;" x="340.901584" xlink:href="#C0_0_103c1e9775" y="130.757109"/>
    </g>
    <g clip-path="url(#pd55b336bf2)">
     <use style="fill:#66ccff;" x="364.39688" xlink:href="#C0_0_103c1e9775" y="62.477794"/>
    </g>
    <g clip-path="url(#pd55b336bf2)">
     <use style="fill:#66ccff;" x="354.131792" xlink:href="#C0_0_103c1e9775" y="40.911217"/>
    </g>
    <g clip-path="url(#pd55b336bf2)">
     <use style="fill:#66ccff;" x="367.038282" xlink:href="#C0_0_103c1e9775" y="115.594123"/>
    </g>
    <g clip-path="url(#pd55b336bf2)">
     <use style="fill:#66ccff;" x="374.532271" xlink:href="#C0_0_103c1e9775" y="57.68657"/>
    </g>
    <g clip-path="url(#pd55b336bf2)">
     <use style="fill:#66ccff;" x="61.708046" xlink:href="#C0_0_103c1e9775" y="175.831847"/>
    </g>
    <g clip-path="url(#pd55b336bf2)">
     <use style="fill:#66ccff;" x="354.247781" xlink:href="#C0_0_103c1e9775" y="110.51011"/>
    </g>
    <g clip-path="url(#pd55b336bf2)">
     <use style="fill:#66ccff;" x="174.951955" xlink:href="#C0_0_103c1e9775" y="8.307692"/>
    </g>
    <g clip-path="url(#pd55b336bf2)">
     <use style="fill:#66ccff;" x="168.728581" xlink:href="#C0_0_103c1e9775" y="423.692308"/>
    </g>
    <g clip-path="url(#pd55b336bf2)">
     <use style="fill:#66ccff;" x="178.646754" xlink:href="#C0_0_103c1e9775" y="370.167153"/>
    </g>
    <g clip-path="url(#pd55b336bf2)">
     <use style="fill:#66ccff;" x="360.03145" xlink:href="#C0_0_103c1e9775" y="121.857389"/>
    </g>
    <g clip-path="url(#pd55b336bf2)">
     <use style="fill:#66ccff;" x="352.000744" xlink:href="#C0_0_103c1e9775" y="38.017054"/>
    </g>
    <g clip-path="url(#pd55b336bf2)">
     <use style="fill:#66ccff;" x="408.087037" xlink:href="#C0_0_103c1e9775" y="119.285699"/>
    </g>
    <g clip-path="url(#pd55b336bf2)">
     <use style="fill:#66ccff;" x="406.50536" xlink:href="#C0_0_103c1e9775" y="105.104973"/>
    </g>
    <g clip-path="url(#pd55b336bf2)">
     <use style="fill:#66ccff;" x="414.216566" xlink:href="#C0_0_103c1e9775" y="114.79671"/>
    </g>
    <g clip-path="url(#pd55b336bf2)">
     <use style="fill:#66ccff;" x="413.074594" xlink:href="#C0_0_103c1e9775" y="104.400659"/>
    </g>
    <g clip-path="url(#pd55b336bf2)">
     <use style="fill:#66ccff;" x="424.63455" xlink:href="#C0_0_103c1e9775" y="103.26863"/>
    </g>
    <g clip-path="url(#pd55b336bf2)">
     <use style="fill:#66ccff;" x="425.30729" xlink:href="#C0_0_103c1e9775" y="106.805041"/>
    </g>
    <g clip-path="url(#pd55b336bf2)">
     <use style="fill:#66ccff;" x="392.227027" xlink:href="#C0_0_103c1e9775" y="105.353237"/>
    </g>
    <g clip-path="url(#pd55b336bf2)">
     <use style="fill:#66ccff;" x="389.020439" xlink:href="#C0_0_103c1e9775" y="97.19561"/>
    </g>
    <g clip-path="url(#pd55b336bf2)">
     <use style="fill:#66ccff;" x="345.23749" xlink:href="#C0_0_103c1e9775" y="112.490824"/>
    </g>
    <g clip-path="url(#pd55b336bf2)">
     <use style="fill:#66ccff;" x="359.739366" xlink:href="#C0_0_103c1e9775" y="100.719877"/>
    </g>
    <g clip-path="url(#pd55b336bf2)">
     <use style="fill:#66ccff;" x="371.460653" xlink:href="#C0_0_103c1e9775" y="119.185853"/>
    </g>
    <g clip-path="url(#pd55b336bf2)">
     <use style="fill:#66ccff;" x="410.471153" xlink:href="#C0_0_103c1e9775" y="138.657028"/>
    </g>
    <g clip-path="url(#pd55b336bf2)">
     <use style="fill:#66ccff;" x="397.772389" xlink:href="#C0_0_103c1e9775" y="124.604483"/>
    </g>
    <g clip-path="url(#pd55b336bf2)">
     <use style="fill:#66ccff;" x="382.290928" xlink:href="#C0_0_103c1e9775" y="113.242362"/>
    </g>
    <g clip-path="url(#pd55b336bf2)">
     <use style="fill:#66ccff;" x="367.345127" xlink:href="#C0_0_103c1e9775" y="73.308306"/>
    </g>
    <g clip-path="url(#pd55b336bf2)">
     <use style="fill:#66ccff;" x="373.394518" xlink:href="#C0_0_103c1e9775" y="73.644272"/>
    </g>
    <g clip-path="url(#pd55b336bf2)">
     <use style="fill:#66ccff;" x="347.431805" xlink:href="#C0_0_103c1e9775" y="68.77614"/>
    </g>
    <g clip-path="url(#pd55b336bf2)">
     <use style="fill:#66ccff;" x="354.869908" xlink:href="#C0_0_103c1e9775" y="69.364418"/>
    </g>
    <g clip-path="url(#pd55b336bf2)">
     <use style="fill:#66ccff;" x="361.538261" xlink:href="#C0_0_103c1e9775" y="74.582007"/>
    </g>
    <g clip-path="url(#pd55b336bf2)">
     <use style="fill:#66ccff;" x="366.351834" xlink:href="#C0_0_103c1e9775" y="68.859795"/>
    </g>
    <g clip-path="url(#pd55b336bf2)">
     <use style="fill:#66ccff;" x="364.081599" xlink:href="#C0_0_103c1e9775" y="104.310259"/>
    </g>
    <g clip-path="url(#pd55b336bf2)">
     <use style="fill:#66ccff;" x="364.841859" xlink:href="#C0_0_103c1e9775" y="99.193864"/>
    </g>
    <g clip-path="url(#pd55b336bf2)">
     <use style="fill:#66ccff;" x="373.586428" xlink:href="#C0_0_103c1e9775" y="100.51479"/>
    </g>
    <g clip-path="url(#pd55b336bf2)">
     <use style="fill:#66ccff;" x="385.800143" xlink:href="#C0_0_103c1e9775" y="101.177277"/>
    </g>
    <g clip-path="url(#pd55b336bf2)">
     <use style="fill:#66ccff;" x="374.926636" xlink:href="#C0_0_103c1e9775" y="100.862899"/>
    </g>
    <g clip-path="url(#pd55b336bf2)">
     <use style="fill:#66ccff;" x="384.494732" xlink:href="#C0_0_103c1e9775" y="94.250174"/>
    </g>
    <g clip-path="url(#pd55b336bf2)">
     <use style="fill:#66ccff;" x="398.452511" xlink:href="#C0_0_103c1e9775" y="124.268517"/>
    </g>
    <g clip-path="url(#pd55b336bf2)">
     <use style="fill:#66ccff;" x="394.30008" xlink:href="#C0_0_103c1e9775" y="124.549163"/>
    </g>
    <g clip-path="url(#pd55b336bf2)">
     <use style="fill:#66ccff;" x="402.861174" xlink:href="#C0_0_103c1e9775" y="93.676739"/>
    </g>
    <g clip-path="url(#pd55b336bf2)">
     <use style="fill:#66ccff;" x="396.541844" xlink:href="#C0_0_103c1e9775" y="95.981275"/>
    </g>
    <g clip-path="url(#pd55b336bf2)">
     <use style="fill:#66ccff;" x="396.648344" xlink:href="#C0_0_103c1e9775" y="94.211046"/>
    </g>
    <g clip-path="url(#pd55b336bf2)">
     <use style="fill:#66ccff;" x="410.041991" xlink:href="#C0_0_103c1e9775" y="85.895555"/>
    </g>
    <g clip-path="url(#pd55b336bf2)">
     <use style="fill:#66ccff;" x="375.663698" xlink:href="#C0_0_103c1e9775" y="86.79821"/>
    </g>
    <g clip-path="url(#pd55b336bf2)">
     <use style="fill:#66ccff;" x="384.045536" xlink:href="#C0_0_103c1e9775" y="72.166832"/>
    </g>
    <g clip-path="url(#pd55b336bf2)">
     <use style="fill:#66ccff;" x="380.100831" xlink:href="#C0_0_103c1e9775" y="73.35553"/>
    </g>
    <g clip-path="url(#pd55b336bf2)">
     <use style="fill:#66ccff;" x="379.638981" xlink:href="#C0_0_103c1e9775" y="66.501288"/>
    </g>
    <g clip-path="url(#pd55b336bf2)">
     <use style="fill:#66ccff;" x="370.923937" xlink:href="#C0_0_103c1e9775" y="39.632119"/>
    </g>
    <g clip-path="url(#pd55b336bf2)">
     <use style="fill:#66ccff;" x="369.227324" xlink:href="#C0_0_103c1e9775" y="84.122627"/>
    </g>
    <g clip-path="url(#pd55b336bf2)">
     <use style="fill:#66ccff;" x="373.719289" xlink:href="#C0_0_103c1e9775" y="83.743485"/>
    </g>
    <g clip-path="url(#pd55b336bf2)">
     <use style="fill:#66ccff;" x="375.705876" xlink:href="#C0_0_103c1e9775" y="84.037623"/>
    </g>
    <g clip-path="url(#pd55b336bf2)">
     <use style="fill:#66ccff;" x="368.734895" xlink:href="#C0_0_103c1e9775" y="78.968453"/>
    </g>
    <g clip-path="url(#pd55b336bf2)">
     <use style="fill:#66ccff;" x="343.93946" xlink:href="#C0_0_103c1e9775" y="96.04469"/>
    </g>
    <g clip-path="url(#pd55b336bf2)">
     <use style="fill:#66ccff;" x="348.930181" xlink:href="#C0_0_103c1e9775" y="86.624155"/>
    </g>
    <g clip-path="url(#pd55b336bf2)">
     <use style="fill:#66ccff;" x="355.447747" xlink:href="#C0_0_103c1e9775" y="86.513516"/>
    </g>
    <g clip-path="url(#pd55b336bf2)">
     <use style="fill:#66ccff;" x="368.820306" xlink:href="#C0_0_103c1e9775" y="85.722849"/>
    </g>
    <g clip-path="url(#pd55b336bf2)">
     <use style="fill:#66ccff;" x="363.509032" xlink:href="#C0_0_103c1e9775" y="86.687571"/>
    </g>
    <g clip-path="url(#pd55b336bf2)">
     <use style="fill:#66ccff;" x="361.182911" xlink:href="#C0_0_103c1e9775" y="87.305532"/>
    </g>
    <g clip-path="url(#pd55b336bf2)">
     <use style="fill:#66ccff;" x="367.611904" xlink:href="#C0_0_103c1e9775" y="99.32879"/>
    </g>
    <g clip-path="url(#pd55b336bf2)">
     <use style="fill:#66ccff;" x="375.106947" xlink:href="#C0_0_103c1e9775" y="90.787972"/>
    </g>
    <g clip-path="url(#pd55b336bf2)">
     <use style="fill:#66ccff;" x="365.516708" xlink:href="#C0_0_103c1e9775" y="96.005562"/>
    </g>
    <g clip-path="url(#pd55b336bf2)">
     <use style="fill:#66ccff;" x="368.208723" xlink:href="#C0_0_103c1e9775" y="96.097312"/>
    </g>
    <g clip-path="url(#pd55b336bf2)">
     <use style="fill:#66ccff;" x="374.030352" xlink:href="#C0_0_103c1e9775" y="96.878533"/>
    </g>
    <g clip-path="url(#pd55b336bf2)">
     <use style="fill:#66ccff;" x="366.958144" xlink:href="#C0_0_103c1e9775" y="96.054135"/>
    </g>
    <g clip-path="url(#pd55b336bf2)">
     <use style="fill:#66ccff;" x="371.296158" xlink:href="#C0_0_103c1e9775" y="116.533208"/>
    </g>
    <g clip-path="url(#pd55b336bf2)">
     <use style="fill:#66ccff;" x="375.76598" xlink:href="#C0_0_103c1e9775" y="116.024537"/>
    </g>
    <g clip-path="url(#pd55b336bf2)">
     <use style="fill:#66ccff;" x="370.224835" xlink:href="#C0_0_103c1e9775" y="126.830762"/>
    </g>
    <g clip-path="url(#pd55b336bf2)">
     <use style="fill:#66ccff;" x="370.392493" xlink:href="#C0_0_103c1e9775" y="111.146961"/>
    </g>
    <g clip-path="url(#pd55b336bf2)">
     <use style="fill:#66ccff;" x="374.873914" xlink:href="#C0_0_103c1e9775" y="111.388478"/>
    </g>
    <g clip-path="url(#pd55b336bf2)">
     <use style="fill:#66ccff;" x="365.533579" xlink:href="#C0_0_103c1e9775" y="109.827384"/>
    </g>
    <g clip-path="url(#pd55b336bf2)">
     <use style="fill:#66ccff;" x="365.914236" xlink:href="#C0_0_103c1e9775" y="112.898301"/>
    </g>
    <g clip-path="url(#pd55b336bf2)">
     <use style="fill:#66ccff;" x="395.49161" xlink:href="#C0_0_103c1e9775" y="89.495381"/>
    </g>
    <g clip-path="url(#pd55b336bf2)">
     <use style="fill:#66ccff;" x="403.318806" xlink:href="#C0_0_103c1e9775" y="122.303994"/>
    </g>
    <g clip-path="url(#pd55b336bf2)">
     <use style="fill:#66ccff;" x="408.666986" xlink:href="#C0_0_103c1e9775" y="124.4817"/>
    </g>
    <g clip-path="url(#pd55b336bf2)">
     <use style="fill:#66ccff;" x="392.669897" xlink:href="#C0_0_103c1e9775" y="127.119504"/>
    </g>
    <g clip-path="url(#pd55b336bf2)">
     <use style="fill:#66ccff;" x="412.61169" xlink:href="#C0_0_103c1e9775" y="147.674135"/>
    </g>
    <g clip-path="url(#pd55b336bf2)">
     <use style="fill:#66ccff;" x="375.29464" xlink:href="#C0_0_103c1e9775" y="43.941656"/>
    </g>
   </g>
   <g id="LineCollection_1">
    <path clip-path="url(#pd55b336bf2)" d="M 376.16878 134.729332 
L 380.107158 133.313958 
L 382.337324 132.214311 
" style="fill:none;stroke:#999999;"/>
    <path clip-path="url(#pd55b336bf2)" d="M 376.16878 134.729332 
L 379.661125 146.091452 
L 380.226311 152.879581 
L 381.018204 155.582149 
" style="fill:none;stroke:#999999;"/>
    <path clip-path="url(#pd55b336bf2)" d="M 376.16878 134.729332 
L 374.776904 134.313759 
L 364.480182 128.131449 
L 361.335806 124.787982 
" style="fill:none;stroke:#999999;"/>
    <path clip-path="url(#pd55b336bf2)" d="M 376.16878 134.729332 
L 371.515484 120.073667 
L 371.460653 119.185853 
" style="fill:none;stroke:#999999;"/>
    <path clip-path="url(#pd55b336bf2)" d="M 400.991631 123.016403 
L 398.452511 124.268517 
" style="fill:none;stroke:#999999;"/>
    <path clip-path="url(#pd55b336bf2)" d="M 400.991631 123.016403 
L 403.318806 122.303994 
" style="fill:none;stroke:#999999;"/>
    <path clip-path="url(#pd55b336bf2)" d="M 400.991631 123.016403 
L 398.698198 115.112437 
L 397.948483 113.82929 
L 395.379838 111.581422 
L 393.881462 110.672021 
L 391.653406 110.402169 
" style="fill:none;stroke:#999999;"/>
    <path clip-path="url(#pd55b336bf2)" d="M 354.588369 123.672144 
L 356.228042 123.266016 
L 357.512364 122.863937 
" style="fill:none;stroke:#999999;"/>
    <path clip-path="url(#pd55b336bf2)" d="M 354.588369 123.672144 
L 341.695587 130.152641 
L 340.901584 130.757109 
" style="fill:none;stroke:#999999;"/>
    <path clip-path="url(#pd55b336bf2)" d="M 360.030395 122.241928 
L 360.03145 121.857389 
" style="fill:none;stroke:#999999;"/>
    <path clip-path="url(#pd55b336bf2)" d="M 358.145035 120.74155 
L 356.186918 114.989654 
" style="fill:none;stroke:#999999;"/>
    <path clip-path="url(#pd55b336bf2)" d="M 358.145035 120.74155 
L 357.60621 121.111248 
L 357.295147 121.686033 
" style="fill:none;stroke:#999999;"/>
    <path clip-path="url(#pd55b336bf2)" d="M 357.295147 121.686033 
L 357.270895 122.299946 
L 357.512364 122.863937 
" style="fill:none;stroke:#999999;"/>
    <path clip-path="url(#pd55b336bf2)" d="M 357.295147 121.686033 
L 356.682511 121.939694 
L 355.921196 122.517177 
L 354.588369 123.672144 
" style="fill:none;stroke:#999999;"/>
    <path clip-path="url(#pd55b336bf2)" d="M 348.691875 33.310834 
L 349.201175 34.423974 
L 349.596594 35.639658 
L 349.709421 36.567949 
L 349.794831 37.415284 
" style="fill:none;stroke:#999999;"/>
    <path clip-path="url(#pd55b336bf2)" d="M 398.351284 105.980643 
L 395.221671 105.690552 
" style="fill:none;stroke:#999999;"/>
    <path clip-path="url(#pd55b336bf2)" d="M 398.351284 105.980643 
L 406.50536 105.104973 
" style="fill:none;stroke:#999999;"/>
    <path clip-path="url(#pd55b336bf2)" d="M 398.351284 105.980643 
L 399.768467 109.923182 
L 404.425981 121.96533 
" style="fill:none;stroke:#999999;"/>
    <path clip-path="url(#pd55b336bf2)" d="M 386.542477 103.518243 
L 385.800143 101.177277 
" style="fill:none;stroke:#999999;"/>
    <path clip-path="url(#pd55b336bf2)" d="M 386.542477 103.518243 
L 383.824101 103.74222 
L 381.04562 103.708489 
L 377.138876 103.551975 
" style="fill:none;stroke:#999999;"/>
    <path clip-path="url(#pd55b336bf2)" d="M 386.542477 103.518243 
L 387.848943 103.835319 
L 389.411641 104.816232 
" style="fill:none;stroke:#999999;"/>
    <path clip-path="url(#pd55b336bf2)" d="M 384.436737 93.798172 
L 384.494732 94.250174 
" style="fill:none;stroke:#999999;"/>
    <path clip-path="url(#pd55b336bf2)" d="M 384.436737 93.798172 
L 389.020439 97.19561 
" style="fill:none;stroke:#999999;"/>
    <path clip-path="url(#pd55b336bf2)" d="M 384.436737 93.798172 
L 381.041402 89.368551 
L 379.040053 87.437759 
" style="fill:none;stroke:#999999;"/>
    <path clip-path="url(#pd55b336bf2)" d="M 379.040053 87.437759 
L 375.663698 86.79821 
" style="fill:none;stroke:#999999;"/>
    <path clip-path="url(#pd55b336bf2)" d="M 379.040053 87.437759 
L 378.689975 84.168502 
L 377.143094 81.074648 
L 376.367017 80.467481 
" style="fill:none;stroke:#999999;"/>
    <path clip-path="url(#pd55b336bf2)" d="M 379.040053 87.437759 
L 381.041402 89.368551 
L 384.436737 93.798172 
" style="fill:none;stroke:#999999;"/>
    <path clip-path="url(#pd55b336bf2)" d="M 361.335806 124.787982 
L 360.691536 123.136487 
L 360.030395 122.241928 
" style="fill:none;stroke:#999999;"/>
    <path clip-path="url(#pd55b336bf2)" d="M 361.335806 124.787982 
L 364.480182 128.131449 
L 374.776904 134.313759 
L 376.16878 134.729332 
" style="fill:none;stroke:#999999;"/>
    <path clip-path="url(#pd55b336bf2)" d="M 359.182616 123.337527 
L 359.75202 122.901716 
L 360.030395 122.241928 
" style="fill:none;stroke:#999999;"/>
    <path clip-path="url(#pd55b336bf2)" d="M 359.182616 123.337527 
L 359.676099 123.76929 
L 360.431087 124.259072 
L 361.335806 124.787982 
" style="fill:none;stroke:#999999;"/>
    <path clip-path="url(#pd55b336bf2)" d="M 357.512364 122.863937 
L 357.976323 123.274112 
L 358.572088 123.44277 
L 359.182616 123.337527 
" style="fill:none;stroke:#999999;"/>
    <path clip-path="url(#pd55b336bf2)" d="M 404.425981 121.96533 
L 403.318806 122.303994 
" style="fill:none;stroke:#999999;"/>
    <path clip-path="url(#pd55b336bf2)" d="M 404.425981 121.96533 
L 408.087037 119.285699 
" style="fill:none;stroke:#999999;"/>
    <path clip-path="url(#pd55b336bf2)" d="M 404.425981 121.96533 
L 399.768467 109.923182 
L 398.351284 105.980643 
" style="fill:none;stroke:#999999;"/>
    <path clip-path="url(#pd55b336bf2)" d="M 359.42514 120.885921 
L 358.803013 120.656547 
L 358.145035 120.74155 
" style="fill:none;stroke:#999999;"/>
    <path clip-path="url(#pd55b336bf2)" d="M 426.907948 103.098623 
L 424.63455 103.26863 
" style="fill:none;stroke:#999999;"/>
    <path clip-path="url(#pd55b336bf2)" d="M 426.907948 103.098623 
L 427.86539 103.248391 
L 429.132841 103.384666 
" style="fill:none;stroke:#999999;"/>
    <path clip-path="url(#pd55b336bf2)" d="M 432.226603 103.041954 
L 432.086361 102.312004 
L 431.62662 101.727775 
" style="fill:none;stroke:#999999;"/>
    <path clip-path="url(#pd55b336bf2)" d="M 432.226603 103.041954 
L 433.708108 102.011119 
L 434.827936 100.790039 
" style="fill:none;stroke:#999999;"/>
    <path clip-path="url(#pd55b336bf2)" d="M 431.62662 101.727775 
L 431.127864 101.46332 
L 430.56795 101.393158 
L 430.018581 101.524036 
L 429.551459 101.839763 
" style="fill:none;stroke:#999999;"/>
    <path clip-path="url(#pd55b336bf2)" d="M 434.827936 100.790039 
L 431.62662 101.727775 
" style="fill:none;stroke:#999999;"/>
    <path clip-path="url(#pd55b336bf2)" d="M 395.221671 105.690552 
L 398.351284 105.980643 
" style="fill:none;stroke:#999999;"/>
    <path clip-path="url(#pd55b336bf2)" d="M 395.221671 105.690552 
L 395.267012 101.490305 
L 395.215344 100.772498 
" style="fill:none;stroke:#999999;"/>
    <path clip-path="url(#pd55b336bf2)" d="M 395.221671 105.690552 
L 393.258281 105.550229 
L 392.227027 105.353237 
" style="fill:none;stroke:#999999;"/>
    <path clip-path="url(#pd55b336bf2)" d="M 427.484733 105.249344 
L 429.670612 104.19827 
" style="fill:none;stroke:#999999;"/>
    <path clip-path="url(#pd55b336bf2)" d="M 427.484733 105.249344 
L 425.30729 106.805041 
" style="fill:none;stroke:#999999;"/>
    <path clip-path="url(#pd55b336bf2)" d="M 389.411641 104.816232 
L 392.227027 105.353237 
" style="fill:none;stroke:#999999;"/>
    <path clip-path="url(#pd55b336bf2)" d="M 389.411641 104.816232 
L 391.653406 110.402169 
" style="fill:none;stroke:#999999;"/>
    <path clip-path="url(#pd55b336bf2)" d="M 389.411641 104.816232 
L 387.848943 103.835319 
L 386.542477 103.518243 
" style="fill:none;stroke:#999999;"/>
    <path clip-path="url(#pd55b336bf2)" d="M 429.670612 104.19827 
L 430.098719 104.441137 
L 430.580604 104.540982 
L 431.069869 104.485663 
L 431.519066 104.283274 
L 431.882852 103.951356 
L 432.127485 103.52364 
L 432.226603 103.041954 
" style="fill:none;stroke:#999999;"/>
    <path clip-path="url(#pd55b336bf2)" d="M 418.937347 103.771904 
L 418.28675 98.642017 
" style="fill:none;stroke:#999999;"/>
    <path clip-path="url(#pd55b336bf2)" d="M 418.937347 103.771904 
L 413.074594 104.400659 
" style="fill:none;stroke:#999999;"/>
    <path clip-path="url(#pd55b336bf2)" d="M 418.937347 103.771904 
L 421.442724 103.507449 
L 424.63455 103.26863 
" style="fill:none;stroke:#999999;"/>
    <path clip-path="url(#pd55b336bf2)" d="M 377.138876 103.551975 
L 376.21834 103.516894 
" style="fill:none;stroke:#999999;"/>
    <path clip-path="url(#pd55b336bf2)" d="M 377.138876 103.551975 
L 381.04562 103.708489 
L 383.824101 103.74222 
L 386.542477 103.518243 
" style="fill:none;stroke:#999999;"/>
    <path clip-path="url(#pd55b336bf2)" d="M 377.138876 103.551975 
L 379.26676 102.607492 
L 385.800143 101.177277 
" style="fill:none;stroke:#999999;"/>
    <path clip-path="url(#pd55b336bf2)" d="M 429.182401 103.533085 
L 429.381692 103.897385 
L 429.670612 104.19827 
" style="fill:none;stroke:#999999;"/>
    <path clip-path="url(#pd55b336bf2)" d="M 429.182401 103.533085 
L 428.359928 104.008025 
L 427.484733 105.249344 
" style="fill:none;stroke:#999999;"/>
    <path clip-path="url(#pd55b336bf2)" d="M 376.21834 103.516894 
L 374.926636 100.862899 
" style="fill:none;stroke:#999999;"/>
    <path clip-path="url(#pd55b336bf2)" d="M 376.21834 103.516894 
L 377.138876 103.551975 
" style="fill:none;stroke:#999999;"/>
    <path clip-path="url(#pd55b336bf2)" d="M 376.21834 103.516894 
L 374.117872 104.407406 
L 373.438805 106.38677 
L 374.873914 111.388478 
" style="fill:none;stroke:#999999;"/>
    <path clip-path="url(#pd55b336bf2)" d="M 429.132841 103.384666 
L 429.182401 103.533085 
" style="fill:none;stroke:#999999;"/>
    <path clip-path="url(#pd55b336bf2)" d="M 429.551459 101.839763 
L 429.293118 102.168983 
L 429.131787 102.554871 
L 429.076955 102.970443 
L 429.132841 103.384666 
" style="fill:none;stroke:#999999;"/>
    <path clip-path="url(#pd55b336bf2)" d="M 429.551459 101.839763 
L 428.217577 102.295813 
L 426.907948 103.098623 
" style="fill:none;stroke:#999999;"/>
    <path clip-path="url(#pd55b336bf2)" d="M 395.215344 100.772498 
L 394.791454 98.656858 
" style="fill:none;stroke:#999999;"/>
    <path clip-path="url(#pd55b336bf2)" d="M 395.215344 100.772498 
L 395.267012 101.490305 
L 395.221671 105.690552 
" style="fill:none;stroke:#999999;"/>
    <path clip-path="url(#pd55b336bf2)" d="M 395.215344 100.772498 
L 400.966324 100.463518 
L 405.834728 99.945402 
L 411.354784 99.358474 
L 418.28675 98.642017 
" style="fill:none;stroke:#999999;"/>
    <path clip-path="url(#pd55b336bf2)" d="M 394.791454 98.656858 
L 395.215344 100.772498 
" style="fill:none;stroke:#999999;"/>
    <path clip-path="url(#pd55b336bf2)" d="M 418.28675 98.642017 
L 418.937347 103.771904 
" style="fill:none;stroke:#999999;"/>
    <path clip-path="url(#pd55b336bf2)" d="M 418.28675 98.642017 
L 419.188306 98.548918 
L 424.837005 97.885082 
" style="fill:none;stroke:#999999;"/>
    <path clip-path="url(#pd55b336bf2)" d="M 418.28675 98.642017 
L 411.354784 99.358474 
L 405.834728 99.945402 
L 400.966324 100.463518 
L 395.215344 100.772498 
" style="fill:none;stroke:#999999;"/>
    <path clip-path="url(#pd55b336bf2)" d="M 424.837005 97.885082 
L 419.188306 98.548918 
L 418.28675 98.642017 
" style="fill:none;stroke:#999999;"/>
    <path clip-path="url(#pd55b336bf2)" d="M 376.367017 80.467481 
L 376.922713 79.454186 
L 376.234156 76.016271 
L 377.216905 69.902773 
L 377.70828 65.679588 
" style="fill:none;stroke:#999999;"/>
    <path clip-path="url(#pd55b336bf2)" d="M 376.367017 80.467481 
L 377.143094 81.074648 
L 378.689975 84.168502 
L 379.040053 87.437759 
" style="fill:none;stroke:#999999;"/>
    <path clip-path="url(#pd55b336bf2)" d="M 376.367017 80.467481 
L 375.436991 79.018375 
L 373.465166 76.605898 
L 373.394518 73.644272 
" style="fill:none;stroke:#999999;"/>
    <path clip-path="url(#pd55b336bf2)" d="M 376.367017 80.467481 
L 376.044355 82.299776 
L 375.705876 84.037623 
" style="fill:none;stroke:#999999;"/>
    <path clip-path="url(#pd55b336bf2)" d="M 377.70828 65.679588 
L 377.718825 63.376401 
" style="fill:none;stroke:#999999;"/>
    <path clip-path="url(#pd55b336bf2)" d="M 377.70828 65.679588 
L 379.638981 66.501288 
" style="fill:none;stroke:#999999;"/>
    <path clip-path="url(#pd55b336bf2)" d="M 377.70828 65.679588 
L 377.216905 69.902773 
L 376.234156 76.016271 
L 376.922713 79.454186 
L 376.367017 80.467481 
" style="fill:none;stroke:#999999;"/>
    <path clip-path="url(#pd55b336bf2)" d="M 377.718825 63.376401 
L 377.70828 65.679588 
" style="fill:none;stroke:#999999;"/>
    <path clip-path="url(#pd55b336bf2)" d="M 377.718825 63.376401 
L 376.266844 56.531604 
" style="fill:none;stroke:#999999;"/>
    <path clip-path="url(#pd55b336bf2)" d="M 377.718825 63.376401 
L 374.679894 57.925389 
L 374.532271 57.68657 
" style="fill:none;stroke:#999999;"/>
    <path clip-path="url(#pd55b336bf2)" d="M 363.521685 49.485766 
L 358.965399 52.995192 
" style="fill:none;stroke:#999999;"/>
    <path clip-path="url(#pd55b336bf2)" d="M 363.521685 49.485766 
L 361.366386 47.074638 
L 355.728232 42.251033 
L 354.131792 40.911217 
" style="fill:none;stroke:#999999;"/>
    <path clip-path="url(#pd55b336bf2)" d="M 363.521685 49.485766 
L 366.199993 53.166548 
L 370.289157 60.213735 
" style="fill:none;stroke:#999999;"/>
    <path clip-path="url(#pd55b336bf2)" d="M 363.521685 49.485766 
L 366.327581 45.510846 
L 368.341584 47.10837 
L 371.450108 52.699704 
L 374.532271 57.68657 
" style="fill:none;stroke:#999999;"/>
    <path clip-path="url(#pd55b336bf2)" d="M 353.471705 40.335083 
L 354.131792 40.911217 
" style="fill:none;stroke:#999999;"/>
    <path clip-path="url(#pd55b336bf2)" d="M 353.471705 40.335083 
L 352.962404 39.507987 
L 352.311808 38.547313 
L 352.000744 38.017054 
" style="fill:none;stroke:#999999;"/>
    <path clip-path="url(#pd55b336bf2)" d="M 369.968604 109.061004 
L 370.392493 111.146961 
" style="fill:none;stroke:#999999;"/>
    <path clip-path="url(#pd55b336bf2)" d="M 369.968604 109.061004 
L 365.533579 109.827384 
" style="fill:none;stroke:#999999;"/>
    <path clip-path="url(#pd55b336bf2)" d="M 369.968604 109.061004 
L 371.120065 103.842066 
L 369.425561 103.769206 
L 367.07097 104.1443 
L 364.081599 104.310259 
" style="fill:none;stroke:#999999;"/>
    <path clip-path="url(#pd55b336bf2)" d="M 364.105851 105.086084 
L 364.081599 104.310259 
" style="fill:none;stroke:#999999;"/>
    <path clip-path="url(#pd55b336bf2)" d="M 364.105851 105.086084 
L 360.316152 107.178786 
L 357.204464 110.458838 
L 356.695164 111.872863 
L 356.513798 112.983304 
" style="fill:none;stroke:#999999;"/>
    <path clip-path="url(#pd55b336bf2)" d="M 364.105851 105.086084 
L 365.491401 109.299823 
L 365.533579 109.827384 
" style="fill:none;stroke:#999999;"/>
    <path clip-path="url(#pd55b336bf2)" d="M 394.588999 126.173672 
L 392.669897 127.119504 
" style="fill:none;stroke:#999999;"/>
    <path clip-path="url(#pd55b336bf2)" d="M 394.588999 126.173672 
L 397.772389 124.604483 
" style="fill:none;stroke:#999999;"/>
    <path clip-path="url(#pd55b336bf2)" d="M 394.588999 126.173672 
L 394.30008 124.549163 
" style="fill:none;stroke:#999999;"/>
    <path clip-path="url(#pd55b336bf2)" d="M 356.186918 114.989654 
L 356.513798 112.983304 
" style="fill:none;stroke:#999999;"/>
    <path clip-path="url(#pd55b336bf2)" d="M 356.186918 114.989654 
L 358.145035 120.74155 
" style="fill:none;stroke:#999999;"/>
    <path clip-path="url(#pd55b336bf2)" d="M 356.186918 114.989654 
L 348.493638 119.112993 
L 341.338127 128.699488 
L 341.11142 129.463169 
L 340.901584 130.757109 
" style="fill:none;stroke:#999999;"/>
    <path clip-path="url(#pd55b336bf2)" d="M 356.186918 114.989654 
L 363.283379 113.973661 
L 365.914236 112.898301 
" style="fill:none;stroke:#999999;"/>
    <path clip-path="url(#pd55b336bf2)" d="M 376.436611 120.583687 
L 382.337324 132.214311 
" style="fill:none;stroke:#999999;"/>
    <path clip-path="url(#pd55b336bf2)" d="M 376.436611 120.583687 
L 375.76598 116.024537 
" style="fill:none;stroke:#999999;"/>
    <path clip-path="url(#pd55b336bf2)" d="M 376.436611 120.583687 
L 378.523371 118.536859 
L 382.290928 113.242362 
" style="fill:none;stroke:#999999;"/>
    <path clip-path="url(#pd55b336bf2)" d="M 382.337324 132.214311 
L 392.669897 127.119504 
" style="fill:none;stroke:#999999;"/>
    <path clip-path="url(#pd55b336bf2)" d="M 382.337324 132.214311 
L 376.436611 120.583687 
" style="fill:none;stroke:#999999;"/>
    <path clip-path="url(#pd55b336bf2)" d="M 382.337324 132.214311 
L 380.107158 133.313958 
L 376.16878 134.729332 
" style="fill:none;stroke:#999999;"/>
    <path clip-path="url(#pd55b336bf2)" d="M 171.218141 391.473322 
L 178.119529 385.884686 
L 184.737268 380.045087 
L 191.186296 377.114494 
L 200.066889 370.540898 
L 210.248676 361.047503 
L 213.925549 355.322591 
L 217.036182 351.373307 
L 221.165416 344.856379 
L 224.332989 341.406321 
L 240.680156 331.788794 
L 245.601282 329.016064 
L 255.048116 322.454611 
L 263.815883 316.807957 
L 272.469769 311.830536 
L 283.557331 308.084989 
L 295.775264 300.120306 
L 302.280177 296.725567 
L 306.29553 294.124193 
L 318.23087 286.871919 
L 334.409325 274.991683 
L 343.629451 267.35487 
L 348.550578 261.596227 
L 353.301938 260.012195 
L 365.293164 253.450743 
L 372.081725 245.293115 
L 377.002852 242.069732 
L 380.453018 236.808966 
L 382.658931 233.369702 
L 397.026892 215.834716 
L 400.477058 211.761299 
L 414.845019 200.098293 
L 421.859233 191.556126 
" style="fill:none;stroke:#999999;"/>
    <path clip-path="url(#pd55b336bf2)" d="M 171.218141 391.473322 
L 169.039644 408.247325 
L 168.728581 423.692308 
" style="fill:none;stroke:#999999;"/>
    <path clip-path="url(#pd55b336bf2)" d="M 171.218141 391.473322 
L 171.669447 388.785595 
L 173.224763 386.154538 
L 175.261964 382.873137 
L 176.845751 379.563401 
L 178.033064 376.395338 
L 178.542364 373.425616 
L 178.646754 370.167153 
" style="fill:none;stroke:#999999;"/>
    <path clip-path="url(#pd55b336bf2)" d="M 391.653406 110.402169 
L 389.411641 104.816232 
" style="fill:none;stroke:#999999;"/>
    <path clip-path="url(#pd55b336bf2)" d="M 391.653406 110.402169 
L 393.123311 117.924295 
L 393.556691 120.365107 
L 394.30008 124.549163 
" style="fill:none;stroke:#999999;"/>
    <path clip-path="url(#pd55b336bf2)" d="M 391.653406 110.402169 
L 393.881462 110.672021 
L 395.379838 111.581422 
L 397.948483 113.82929 
L 398.698198 115.112437 
L 400.991631 123.016403 
" style="fill:none;stroke:#999999;"/>
    <path clip-path="url(#pd55b336bf2)" d="M 421.859233 191.556126 
L 414.845019 200.098293 
L 400.477058 211.761299 
L 397.026892 215.834716 
L 382.658931 233.369702 
L 380.453018 236.808966 
L 377.002852 242.069732 
L 372.081725 245.293115 
L 365.293164 253.450743 
L 353.301938 260.012195 
L 348.550578 261.596227 
L 343.629451 267.35487 
L 334.409325 274.991683 
L 318.23087 286.871919 
L 306.29553 294.124193 
L 302.280177 296.725567 
L 295.775264 300.120306 
L 283.557331 308.084989 
L 272.469769 311.830536 
L 263.815883 316.807957 
L 255.048116 322.454611 
L 245.601282 329.016064 
L 240.680156 331.788794 
L 224.332989 341.406321 
L 221.165416 344.856379 
L 217.036182 351.373307 
L 213.925549 355.322591 
L 210.248676 361.047503 
L 200.066889 370.540898 
L 191.186296 377.114494 
L 184.737268 380.045087 
L 178.119529 385.884686 
L 171.218141 391.473322 
" style="fill:none;stroke:#999999;"/>
    <path clip-path="url(#pd55b336bf2)" d="M 381.018204 155.582149 
L 380.226311 152.879581 
L 379.661125 146.091452 
L 376.16878 134.729332 
" style="fill:none;stroke:#999999;"/>
    <path clip-path="url(#pd55b336bf2)" d="M 367.443191 120.41368 
L 364.558211 121.374354 
" style="fill:none;stroke:#999999;"/>
    <path clip-path="url(#pd55b336bf2)" d="M 367.443191 120.41368 
L 371.460653 119.185853 
" style="fill:none;stroke:#999999;"/>
    <path clip-path="url(#pd55b336bf2)" d="M 367.443191 120.41368 
L 364.706889 118.906556 
L 364.020441 118.264309 
L 364.304088 116.793615 
L 367.038282 115.594123 
" style="fill:none;stroke:#999999;"/>
    <path clip-path="url(#pd55b336bf2)" d="M 367.443191 120.41368 
L 368.174981 123.476501 
L 370.224835 126.830762 
" style="fill:none;stroke:#999999;"/>
    <path clip-path="url(#pd55b336bf2)" d="M 351.519914 37.246627 
L 348.691875 33.310834 
" style="fill:none;stroke:#999999;"/>
    <path clip-path="url(#pd55b336bf2)" d="M 351.519914 37.246627 
L 351.096025 36.991616 
L 350.671081 36.991616 
L 350.218721 37.048285 
L 349.794831 37.415284 
" style="fill:none;stroke:#999999;"/>
    <path clip-path="url(#pd55b336bf2)" d="M 370.289157 60.213735 
L 364.39688 62.477794 
" style="fill:none;stroke:#999999;"/>
    <path clip-path="url(#pd55b336bf2)" d="M 370.289157 60.213735 
L 374.532271 57.68657 
" style="fill:none;stroke:#999999;"/>
    <path clip-path="url(#pd55b336bf2)" d="M 370.289157 60.213735 
L 366.199993 53.166548 
L 363.521685 49.485766 
" style="fill:none;stroke:#999999;"/>
    <path clip-path="url(#pd55b336bf2)" d="M 370.289157 60.213735 
L 372.797698 64.538114 
L 373.244785 67.382355 
L 373.394518 73.644272 
" style="fill:none;stroke:#999999;"/>
    <path clip-path="url(#pd55b336bf2)" d="M 351.916388 37.670294 
L 351.519914 37.246627 
" style="fill:none;stroke:#999999;"/>
    <path clip-path="url(#pd55b336bf2)" d="M 351.916388 37.670294 
L 352.396164 36.623268 
L 354.008421 35.719264 
L 359.099314 37.019951 
L 363.201132 39.507987 
L 366.933891 43.213055 
" style="fill:none;stroke:#999999;"/>
    <path clip-path="url(#pd55b336bf2)" d="M 356.513798 112.983304 
L 356.186918 114.989654 
" style="fill:none;stroke:#999999;"/>
    <path clip-path="url(#pd55b336bf2)" d="M 356.513798 112.983304 
L 356.695164 111.872863 
L 357.204464 110.458838 
L 360.316152 107.178786 
L 364.105851 105.086084 
" style="fill:none;stroke:#999999;"/>
    <path clip-path="url(#pd55b336bf2)" d="M 356.513798 112.983304 
L 354.546191 111.250854 
L 354.247781 110.51011 
" style="fill:none;stroke:#999999;"/>
    <path clip-path="url(#pd55b336bf2)" d="M 371.008293 113.852228 
L 367.038282 115.594123 
" style="fill:none;stroke:#999999;"/>
    <path clip-path="url(#pd55b336bf2)" d="M 371.008293 113.852228 
L 370.392493 111.146961 
" style="fill:none;stroke:#999999;"/>
    <path clip-path="url(#pd55b336bf2)" d="M 371.008293 113.852228 
L 371.175951 114.587574 
L 371.296158 116.533208 
" style="fill:none;stroke:#999999;"/>
    <path clip-path="url(#pd55b336bf2)" d="M 366.933891 43.213055 
L 367.330365 43.750061 
L 371.317247 46.153094 
L 374.032461 49.122815 
" style="fill:none;stroke:#999999;"/>
    <path clip-path="url(#pd55b336bf2)" d="M 366.933891 43.213055 
L 363.201132 39.507987 
L 359.099314 37.019951 
L 354.008421 35.719264 
L 352.396164 36.623268 
L 351.916388 37.670294 
" style="fill:none;stroke:#999999;"/>
    <path clip-path="url(#pd55b336bf2)" d="M 366.933891 43.213055 
L 369.01327 40.936853 
L 370.923937 39.632119 
" style="fill:none;stroke:#999999;"/>
    <path clip-path="url(#pd55b336bf2)" d="M 363.228548 59.811655 
L 364.39688 62.477794 
" style="fill:none;stroke:#999999;"/>
    <path clip-path="url(#pd55b336bf2)" d="M 363.228548 59.811655 
L 361.538261 74.582007 
" style="fill:none;stroke:#999999;"/>
    <path clip-path="url(#pd55b336bf2)" d="M 363.228548 59.811655 
L 362.436654 57.775622 
L 358.965399 52.995192 
" style="fill:none;stroke:#999999;"/>
    <path clip-path="url(#pd55b336bf2)" d="M 364.558211 121.374354 
L 367.443191 120.41368 
" style="fill:none;stroke:#999999;"/>
    <path clip-path="url(#pd55b336bf2)" d="M 364.558211 121.374354 
L 359.42514 120.885921 
" style="fill:none;stroke:#999999;"/>
    <path clip-path="url(#pd55b336bf2)" d="M 351.180381 39.507987 
L 351.859448 39.59299 
L 352.679811 39.848 
L 353.471705 40.335083 
" style="fill:none;stroke:#999999;"/>
    <path clip-path="url(#pd55b336bf2)" d="M 351.180381 39.507987 
L 351.661211 39.225991 
L 351.916388 38.800974 
L 352.029215 38.292303 
L 352.000744 38.017054 
" style="fill:none;stroke:#999999;"/>
    <path clip-path="url(#pd55b336bf2)" d="M 352.735697 106.753769 
L 345.23749 112.490824 
" style="fill:none;stroke:#999999;"/>
    <path clip-path="url(#pd55b336bf2)" d="M 352.735697 106.753769 
L 354.247781 110.51011 
" style="fill:none;stroke:#999999;"/>
    <path clip-path="url(#pd55b336bf2)" d="M 352.735697 106.753769 
L 359.044483 101.468717 
L 359.739366 100.719877 
" style="fill:none;stroke:#999999;"/>
    <path clip-path="url(#pd55b336bf2)" d="M 352.735697 106.753769 
L 351.186708 103.445383 
L 350.869318 102.766705 
L 352.708282 97.620626 
L 354.008421 95.499589 
L 354.178187 94.443119 
L 355.447747 86.513516 
" style="fill:none;stroke:#999999;"/>
    <path clip-path="url(#pd55b336bf2)" d="M 366.380304 93.448714 
L 365.516708 96.005562 
" style="fill:none;stroke:#999999;"/>
    <path clip-path="url(#pd55b336bf2)" d="M 366.380304 93.448714 
L 366.958144 96.054135 
" style="fill:none;stroke:#999999;"/>
    <path clip-path="url(#pd55b336bf2)" d="M 366.380304 93.448714 
L 368.404852 87.355454 
L 368.820306 85.722849 
" style="fill:none;stroke:#999999;"/>
    <path clip-path="url(#pd55b336bf2)" d="M 366.380304 93.448714 
L 364.54134 92.127788 
L 364.169119 91.10235 
L 362.16566 88.866626 
L 361.182911 87.305532 
" style="fill:none;stroke:#999999;"/>
    <path clip-path="url(#pd55b336bf2)" d="M 376.266844 56.531604 
L 374.032461 49.122815 
" style="fill:none;stroke:#999999;"/>
    <path clip-path="url(#pd55b336bf2)" d="M 376.266844 56.531604 
L 374.532271 57.68657 
" style="fill:none;stroke:#999999;"/>
    <path clip-path="url(#pd55b336bf2)" d="M 376.266844 56.531604 
L 377.718825 63.376401 
" style="fill:none;stroke:#999999;"/>
    <path clip-path="url(#pd55b336bf2)" d="M 361.051104 78.842971 
L 360.005088 81.16235 
" style="fill:none;stroke:#999999;"/>
    <path clip-path="url(#pd55b336bf2)" d="M 361.051104 78.842971 
L 361.538261 74.582007 
" style="fill:none;stroke:#999999;"/>
    <path clip-path="url(#pd55b336bf2)" d="M 361.051104 78.842971 
L 363.913941 79.316562 
L 364.074218 72.092622 
L 365.144486 69.043294 
L 366.351834 68.859795 
" style="fill:none;stroke:#999999;"/>
    <path clip-path="url(#pd55b336bf2)" d="M 358.965399 52.995192 
L 363.521685 49.485766 
" style="fill:none;stroke:#999999;"/>
    <path clip-path="url(#pd55b336bf2)" d="M 358.965399 52.995192 
L 355.111377 48.245796 
L 353.301938 43.128052 
L 354.131792 40.911217 
" style="fill:none;stroke:#999999;"/>
    <path clip-path="url(#pd55b336bf2)" d="M 358.965399 52.995192 
L 362.436654 57.775622 
L 363.228548 59.811655 
" style="fill:none;stroke:#999999;"/>
    <path clip-path="url(#pd55b336bf2)" d="M 374.032461 49.122815 
L 376.266844 56.531604 
" style="fill:none;stroke:#999999;"/>
    <path clip-path="url(#pd55b336bf2)" d="M 374.032461 49.122815 
L 375.29464 43.941656 
" style="fill:none;stroke:#999999;"/>
    <path clip-path="url(#pd55b336bf2)" d="M 374.032461 49.122815 
L 371.317247 46.153094 
L 367.330365 43.750061 
L 366.933891 43.213055 
" style="fill:none;stroke:#999999;"/>
    <path clip-path="url(#pd55b336bf2)" d="M 360.005088 81.16235 
L 356.921871 82.697808 
" style="fill:none;stroke:#999999;"/>
    <path clip-path="url(#pd55b336bf2)" d="M 360.005088 81.16235 
L 361.051104 78.842971 
" style="fill:none;stroke:#999999;"/>
    <path clip-path="url(#pd55b336bf2)" d="M 360.005088 81.16235 
L 362.351244 83.137667 
L 363.509032 86.687571 
" style="fill:none;stroke:#999999;"/>
    <path clip-path="url(#pd55b336bf2)" d="M 349.794831 37.415284 
L 349.596594 37.868636 
L 349.539654 38.348972 
L 349.682005 38.800974 
L 349.936128 39.112653 
L 350.304131 39.394649 
L 350.728021 39.564656 
L 351.180381 39.507987 
" style="fill:none;stroke:#999999;"/>
    <path clip-path="url(#pd55b336bf2)" d="M 356.921871 82.697808 
L 360.005088 81.16235 
" style="fill:none;stroke:#999999;"/>
    <path clip-path="url(#pd55b336bf2)" d="M 356.921871 82.697808 
L 348.930181 86.624155 
" style="fill:none;stroke:#999999;"/>
    <path clip-path="url(#pd55b336bf2)" d="M 356.921871 82.697808 
L 349.572342 69.257826 
L 347.431805 68.77614 
" style="fill:none;stroke:#999999;"/>
    <path clip-path="url(#pd55b336bf2)" d="M 356.921871 82.697808 
L 355.620678 85.431409 
L 355.447747 86.513516 
" style="fill:none;stroke:#999999;"/>
    <path clip-path="url(#pd55b336bf2)" d="M 340.901584 130.757109 
L 341.695587 130.152641 
L 354.588369 123.672144 
" style="fill:none;stroke:#999999;"/>
    <path clip-path="url(#pd55b336bf2)" d="M 340.901584 130.757109 
L 341.11142 129.463169 
L 341.338127 128.699488 
L 348.493638 119.112993 
L 356.186918 114.989654 
" style="fill:none;stroke:#999999;"/>
    <path clip-path="url(#pd55b336bf2)" d="M 340.901584 130.757109 
L 336.876742 133.822629 
L 326.058066 144.846085 
L 317.879738 160.822676 
L 312.889017 167.562231 
L 296.761176 186.299408 
L 293.145461 189.773754 
L 289.672097 192.51545 
L 271.289838 204.90166 
L 265.595798 210.528075 
L 257.314133 220.577365 
L 246.436408 239.499391 
L 235.548139 256.614758 
L 227.881219 275.149546 
L 224.155841 282.281736 
L 210.488036 307.709895 
L 191.123029 345.841339 
L 178.646754 370.167153 
" style="fill:none;stroke:#999999;"/>
    <path clip-path="url(#pd55b336bf2)" d="M 364.39688 62.477794 
L 363.228548 59.811655 
" style="fill:none;stroke:#999999;"/>
    <path clip-path="url(#pd55b336bf2)" d="M 364.39688 62.477794 
L 370.289157 60.213735 
" style="fill:none;stroke:#999999;"/>
    <path clip-path="url(#pd55b336bf2)" d="M 364.39688 62.477794 
L 365.830935 65.74975 
L 366.351834 68.859795 
" style="fill:none;stroke:#999999;"/>
    <path clip-path="url(#pd55b336bf2)" d="M 354.131792 40.911217 
L 353.471705 40.335083 
" style="fill:none;stroke:#999999;"/>
    <path clip-path="url(#pd55b336bf2)" d="M 354.131792 40.911217 
L 355.728232 42.251033 
L 361.366386 47.074638 
L 363.521685 49.485766 
" style="fill:none;stroke:#999999;"/>
    <path clip-path="url(#pd55b336bf2)" d="M 354.131792 40.911217 
L 353.301938 43.128052 
L 355.111377 48.245796 
L 358.965399 52.995192 
" style="fill:none;stroke:#999999;"/>
    <path clip-path="url(#pd55b336bf2)" d="M 367.038282 115.594123 
L 365.914236 112.898301 
" style="fill:none;stroke:#999999;"/>
    <path clip-path="url(#pd55b336bf2)" d="M 367.038282 115.594123 
L 371.008293 113.852228 
" style="fill:none;stroke:#999999;"/>
    <path clip-path="url(#pd55b336bf2)" d="M 367.038282 115.594123 
L 364.304088 116.793615 
L 364.020441 118.264309 
L 364.706889 118.906556 
L 367.443191 120.41368 
" style="fill:none;stroke:#999999;"/>
    <path clip-path="url(#pd55b336bf2)" d="M 374.532271 57.68657 
L 370.289157 60.213735 
" style="fill:none;stroke:#999999;"/>
    <path clip-path="url(#pd55b336bf2)" d="M 374.532271 57.68657 
L 376.266844 56.531604 
" style="fill:none;stroke:#999999;"/>
    <path clip-path="url(#pd55b336bf2)" d="M 374.532271 57.68657 
L 371.450108 52.699704 
L 368.341584 47.10837 
L 366.327581 45.510846 
L 363.521685 49.485766 
" style="fill:none;stroke:#999999;"/>
    <path clip-path="url(#pd55b336bf2)" d="M 374.532271 57.68657 
L 374.679894 57.925389 
L 377.718825 63.376401 
" style="fill:none;stroke:#999999;"/>
    <path clip-path="url(#pd55b336bf2)" d="M 61.708046 175.831847 
L 71.889833 185.448025 
L 76.528367 187.936061 
L 78.67734 190.425446 
L 85.80438 197.337707 
L 94.40238 200.154962 
L 99.607154 202.52966 
L 105.036527 206.828403 
L 117.593993 210.675144 
L 122.684887 211.015158 
L 127.097768 208.752448 
L 134.111981 207.7459 
L 137.392381 205.935193 
L 143.501875 203.445808 
L 147.574168 202.880468 
L 150.854568 205.369853 
L 160.923528 199.825743 
L 163.751568 196.884355 
L 167.033022 194.622995 
L 176.535742 190.889592 
L 187.848956 191.114918 
L 199.048289 190.210914 
L 206.175328 184.553466 
L 210.134795 182.178767 
L 217.940902 171.99725 
L 225.521356 154.802277 
L 230.046009 154.010261 
L 239.605669 150.333527 
L 246.619883 144.620759 
L 251.964899 140.803701 
L 260.59137 137.663973 
L 266.672393 134.072242 
L 270.206916 133.506902 
L 274.845449 137.720642 
L 278.522323 138.484323 
L 283.557331 139.926682 
L 289.297766 138.370985 
L 303.354664 141.652386 
L 306.635063 140.407019 
L 310.849707 136.221614 
L 313.253857 135.232606 
L 319.503593 132.573214 
L 322.134451 129.463169 
L 323.746708 125.221095 
L 329.177135 120.385346 
L 337.435601 116.979813 
L 346.141156 114.672578 
L 351.350148 112.636544 
L 354.247781 110.51011 
" style="fill:none;stroke:#999999;"/>
    <path clip-path="url(#pd55b336bf2)" d="M 354.247781 110.51011 
L 352.735697 106.753769 
" style="fill:none;stroke:#999999;"/>
    <path clip-path="url(#pd55b336bf2)" d="M 354.247781 110.51011 
L 351.350148 112.636544 
L 346.141156 114.672578 
L 337.435601 116.979813 
L 329.177135 120.385346 
L 323.746708 125.221095 
L 322.134451 129.463169 
L 319.503593 132.573214 
L 313.253857 135.232606 
L 310.849707 136.221614 
L 306.635063 140.407019 
L 303.354664 141.652386 
L 289.297766 138.370985 
L 283.557331 139.926682 
L 278.522323 138.484323 
L 274.845449 137.720642 
L 270.206916 133.506902 
L 266.672393 134.072242 
L 260.59137 137.663973 
L 251.964899 140.803701 
L 246.619883 144.620759 
L 239.605669 150.333527 
L 230.046009 154.010261 
L 225.521356 154.802277 
L 217.940902 171.99725 
L 210.134795 182.178767 
L 206.175328 184.553466 
L 199.048289 190.210914 
L 187.848956 191.114918 
L 176.535742 190.889592 
L 167.033022 194.622995 
L 163.751568 196.884355 
L 160.923528 199.825743 
L 150.854568 205.369853 
L 147.574168 202.880468 
L 143.501875 203.445808 
L 137.392381 205.935193 
L 134.111981 207.7459 
L 127.097768 208.752448 
L 122.684887 211.015158 
L 117.593993 210.675144 
L 105.036527 206.828403 
L 99.607154 202.52966 
L 94.40238 200.154962 
L 85.80438 197.337707 
L 78.67734 190.425446 
L 76.528367 187.936061 
L 71.889833 185.448025 
L 61.708046 175.831847 
" style="fill:none;stroke:#999999;"/>
    <path clip-path="url(#pd55b336bf2)" d="M 354.247781 110.51011 
L 354.546191 111.250854 
L 356.513798 112.983304 
" style="fill:none;stroke:#999999;"/>
    <path clip-path="url(#pd55b336bf2)" d="M 174.951955 8.307692 
L 232.704282 67.418785 
L 236.947396 69.228143 
L 248.090843 75.834121 
L 249.335096 77.756817 
L 249.335096 89.249816 
L 250.182876 91.727058 
L 252.05031 93.717217 
L 257.819216 95.063778 
L 260.194896 98.34383 
L 262.344923 101.014016 
L 265.172963 102.823374 
L 276.76877 106.443439 
L 285.309829 111.534198 
L 288.478457 112.891554 
L 291.701916 112.551541 
L 293.342643 111.477529 
L 300.017324 107.404113 
L 306.012937 105.991437 
L 312.744557 102.201365 
L 319.814657 101.070685 
L 324.170597 98.299304 
L 330.845277 96.31994 
L 337.576898 91.461253 
L 346.117958 88.005798 
L 348.930181 86.624155 
" style="fill:none;stroke:#999999;"/>
    <path clip-path="url(#pd55b336bf2)" d="M 168.728581 423.692308 
L 169.039644 408.247325 
L 171.218141 391.473322 
" style="fill:none;stroke:#999999;"/>
    <path clip-path="url(#pd55b336bf2)" d="M 178.646754 370.167153 
L 178.542364 373.425616 
L 178.033064 376.395338 
L 176.845751 379.563401 
L 175.261964 382.873137 
L 173.224763 386.154538 
L 171.669447 388.785595 
L 171.218141 391.473322 
" style="fill:none;stroke:#999999;"/>
    <path clip-path="url(#pd55b336bf2)" d="M 178.646754 370.167153 
L 191.123029 345.841339 
L 210.488036 307.709895 
L 224.155841 282.281736 
L 227.881219 275.149546 
L 235.548139 256.614758 
L 246.436408 239.499391 
L 257.314133 220.577365 
L 265.595798 210.528075 
L 271.289838 204.90166 
L 289.672097 192.51545 
L 293.145461 189.773754 
L 296.761176 186.299408 
L 312.889017 167.562231 
L 317.879738 160.822676 
L 326.058066 144.846085 
L 336.876742 133.822629 
L 340.901584 130.757109 
" style="fill:none;stroke:#999999;"/>
    <path clip-path="url(#pd55b336bf2)" d="M 360.03145 121.857389 
L 364.558211 121.374354 
" style="fill:none;stroke:#999999;"/>
    <path clip-path="url(#pd55b336bf2)" d="M 360.03145 121.857389 
L 359.833213 121.30689 
L 359.42514 120.885921 
" style="fill:none;stroke:#999999;"/>
    <path clip-path="url(#pd55b336bf2)" d="M 352.000744 38.017054 
L 351.916388 37.670294 
" style="fill:none;stroke:#999999;"/>
    <path clip-path="url(#pd55b336bf2)" d="M 408.087037 119.285699 
L 404.425981 121.96533 
" style="fill:none;stroke:#999999;"/>
    <path clip-path="url(#pd55b336bf2)" d="M 408.087037 119.285699 
L 414.216566 114.79671 
" style="fill:none;stroke:#999999;"/>
    <path clip-path="url(#pd55b336bf2)" d="M 408.087037 119.285699 
L 406.50536 105.104973 
" style="fill:none;stroke:#999999;"/>
    <path clip-path="url(#pd55b336bf2)" d="M 406.50536 105.104973 
L 398.351284 105.980643 
" style="fill:none;stroke:#999999;"/>
    <path clip-path="url(#pd55b336bf2)" d="M 406.50536 105.104973 
L 413.074594 104.400659 
" style="fill:none;stroke:#999999;"/>
    <path clip-path="url(#pd55b336bf2)" d="M 406.50536 105.104973 
L 408.087037 119.285699 
" style="fill:none;stroke:#999999;"/>
    <path clip-path="url(#pd55b336bf2)" d="M 414.216566 114.79671 
L 408.087037 119.285699 
" style="fill:none;stroke:#999999;"/>
    <path clip-path="url(#pd55b336bf2)" d="M 414.216566 114.79671 
L 413.074594 104.400659 
" style="fill:none;stroke:#999999;"/>
    <path clip-path="url(#pd55b336bf2)" d="M 414.216566 114.79671 
L 418.171815 111.901197 
L 425.30729 106.805041 
" style="fill:none;stroke:#999999;"/>
    <path clip-path="url(#pd55b336bf2)" d="M 413.074594 104.400659 
L 406.50536 105.104973 
" style="fill:none;stroke:#999999;"/>
    <path clip-path="url(#pd55b336bf2)" d="M 413.074594 104.400659 
L 418.937347 103.771904 
" style="fill:none;stroke:#999999;"/>
    <path clip-path="url(#pd55b336bf2)" d="M 413.074594 104.400659 
L 414.216566 114.79671 
" style="fill:none;stroke:#999999;"/>
    <path clip-path="url(#pd55b336bf2)" d="M 424.63455 103.26863 
L 426.907948 103.098623 
" style="fill:none;stroke:#999999;"/>
    <path clip-path="url(#pd55b336bf2)" d="M 424.63455 103.26863 
L 421.442724 103.507449 
L 418.937347 103.771904 
" style="fill:none;stroke:#999999;"/>
    <path clip-path="url(#pd55b336bf2)" d="M 424.63455 103.26863 
L 425.401136 104.465424 
L 425.561413 105.641979 
L 425.30729 106.805041 
" style="fill:none;stroke:#999999;"/>
    <path clip-path="url(#pd55b336bf2)" d="M 425.30729 106.805041 
L 427.484733 105.249344 
" style="fill:none;stroke:#999999;"/>
    <path clip-path="url(#pd55b336bf2)" d="M 425.30729 106.805041 
L 418.171815 111.901197 
L 414.216566 114.79671 
" style="fill:none;stroke:#999999;"/>
    <path clip-path="url(#pd55b336bf2)" d="M 392.227027 105.353237 
L 389.411641 104.816232 
" style="fill:none;stroke:#999999;"/>
    <path clip-path="url(#pd55b336bf2)" d="M 392.227027 105.353237 
L 393.258281 105.550229 
L 395.221671 105.690552 
" style="fill:none;stroke:#999999;"/>
    <path clip-path="url(#pd55b336bf2)" d="M 392.227027 105.353237 
L 392.115255 102.217556 
L 390.456603 99.166879 
L 389.020439 97.19561 
" style="fill:none;stroke:#999999;"/>
    <path clip-path="url(#pd55b336bf2)" d="M 389.020439 97.19561 
L 384.436737 93.798172 
" style="fill:none;stroke:#999999;"/>
    <path clip-path="url(#pd55b336bf2)" d="M 389.020439 97.19561 
L 390.456603 99.166879 
L 392.115255 102.217556 
L 392.227027 105.353237 
" style="fill:none;stroke:#999999;"/>
    <path clip-path="url(#pd55b336bf2)" d="M 389.020439 97.19561 
L 394.343312 96.782736 
L 396.541844 95.981275 
" style="fill:none;stroke:#999999;"/>
    <path clip-path="url(#pd55b336bf2)" d="M 345.23749 112.490824 
L 352.735697 106.753769 
" style="fill:none;stroke:#999999;"/>
    <path clip-path="url(#pd55b336bf2)" d="M 359.739366 100.719877 
L 359.044483 101.468717 
L 352.735697 106.753769 
" style="fill:none;stroke:#999999;"/>
    <path clip-path="url(#pd55b336bf2)" d="M 371.460653 119.185853 
L 367.443191 120.41368 
" style="fill:none;stroke:#999999;"/>
    <path clip-path="url(#pd55b336bf2)" d="M 371.460653 119.185853 
L 371.296158 116.533208 
" style="fill:none;stroke:#999999;"/>
    <path clip-path="url(#pd55b336bf2)" d="M 371.460653 119.185853 
L 371.515484 120.073667 
L 376.16878 134.729332 
" style="fill:none;stroke:#999999;"/>
    <path clip-path="url(#pd55b336bf2)" d="M 410.471153 138.657028 
L 409.561161 142.456545 
L 408.116562 143.259355 
L 404.263595 143.900254 
L 403.51388 143.526509 
L 401.32062 130.415747 
L 397.772389 124.604483 
" style="fill:none;stroke:#999999;"/>
    <path clip-path="url(#pd55b336bf2)" d="M 397.772389 124.604483 
L 394.588999 126.173672 
" style="fill:none;stroke:#999999;"/>
    <path clip-path="url(#pd55b336bf2)" d="M 397.772389 124.604483 
L 398.452511 124.268517 
" style="fill:none;stroke:#999999;"/>
    <path clip-path="url(#pd55b336bf2)" d="M 397.772389 124.604483 
L 401.32062 130.415747 
L 403.51388 143.526509 
L 404.263595 143.900254 
L 408.116562 143.259355 
L 409.561161 142.456545 
L 410.471153 138.657028 
" style="fill:none;stroke:#999999;"/>
    <path clip-path="url(#pd55b336bf2)" d="M 382.290928 113.242362 
L 378.523371 118.536859 
L 376.436611 120.583687 
" style="fill:none;stroke:#999999;"/>
    <path clip-path="url(#pd55b336bf2)" d="M 367.345127 73.308306 
L 368.734895 78.968453 
" style="fill:none;stroke:#999999;"/>
    <path clip-path="url(#pd55b336bf2)" d="M 367.345127 73.308306 
L 373.394518 73.644272 
" style="fill:none;stroke:#999999;"/>
    <path clip-path="url(#pd55b336bf2)" d="M 367.345127 73.308306 
L 366.565888 70.133496 
L 366.351834 68.859795 
" style="fill:none;stroke:#999999;"/>
    <path clip-path="url(#pd55b336bf2)" d="M 373.394518 73.644272 
L 367.345127 73.308306 
" style="fill:none;stroke:#999999;"/>
    <path clip-path="url(#pd55b336bf2)" d="M 373.394518 73.644272 
L 373.244785 67.382355 
L 372.797698 64.538114 
L 370.289157 60.213735 
" style="fill:none;stroke:#999999;"/>
    <path clip-path="url(#pd55b336bf2)" d="M 373.394518 73.644272 
L 373.465166 76.605898 
L 375.436991 79.018375 
L 376.367017 80.467481 
" style="fill:none;stroke:#999999;"/>
    <path clip-path="url(#pd55b336bf2)" d="M 347.431805 68.77614 
L 349.572342 69.257826 
L 356.921871 82.697808 
" style="fill:none;stroke:#999999;"/>
    <path clip-path="url(#pd55b336bf2)" d="M 354.869908 69.364418 
L 359.258536 74.233898 
L 361.538261 74.582007 
" style="fill:none;stroke:#999999;"/>
    <path clip-path="url(#pd55b336bf2)" d="M 361.538261 74.582007 
L 361.051104 78.842971 
" style="fill:none;stroke:#999999;"/>
    <path clip-path="url(#pd55b336bf2)" d="M 361.538261 74.582007 
L 363.228548 59.811655 
" style="fill:none;stroke:#999999;"/>
    <path clip-path="url(#pd55b336bf2)" d="M 361.538261 74.582007 
L 359.258536 74.233898 
L 354.869908 69.364418 
" style="fill:none;stroke:#999999;"/>
    <path clip-path="url(#pd55b336bf2)" d="M 366.351834 68.859795 
L 365.830935 65.74975 
L 364.39688 62.477794 
" style="fill:none;stroke:#999999;"/>
    <path clip-path="url(#pd55b336bf2)" d="M 366.351834 68.859795 
L 366.565888 70.133496 
L 367.345127 73.308306 
" style="fill:none;stroke:#999999;"/>
    <path clip-path="url(#pd55b336bf2)" d="M 366.351834 68.859795 
L 365.144486 69.043294 
L 364.074218 72.092622 
L 363.913941 79.316562 
L 361.051104 78.842971 
" style="fill:none;stroke:#999999;"/>
    <path clip-path="url(#pd55b336bf2)" d="M 364.081599 104.310259 
L 364.105851 105.086084 
" style="fill:none;stroke:#999999;"/>
    <path clip-path="url(#pd55b336bf2)" d="M 364.081599 104.310259 
L 364.048911 103.247042 
L 364.841859 99.193864 
" style="fill:none;stroke:#999999;"/>
    <path clip-path="url(#pd55b336bf2)" d="M 364.081599 104.310259 
L 367.07097 104.1443 
L 369.425561 103.769206 
L 371.120065 103.842066 
L 369.968604 109.061004 
" style="fill:none;stroke:#999999;"/>
    <path clip-path="url(#pd55b336bf2)" d="M 364.841859 99.193864 
L 367.611904 99.32879 
" style="fill:none;stroke:#999999;"/>
    <path clip-path="url(#pd55b336bf2)" d="M 364.841859 99.193864 
L 365.265748 97.025603 
L 365.516708 96.005562 
" style="fill:none;stroke:#999999;"/>
    <path clip-path="url(#pd55b336bf2)" d="M 364.841859 99.193864 
L 364.048911 103.247042 
L 364.081599 104.310259 
" style="fill:none;stroke:#999999;"/>
    <path clip-path="url(#pd55b336bf2)" d="M 373.586428 100.51479 
L 372.10176 99.969689 
L 368.6769 99.381411 
L 367.611904 99.32879 
" style="fill:none;stroke:#999999;"/>
    <path clip-path="url(#pd55b336bf2)" d="M 385.800143 101.177277 
L 386.542477 103.518243 
" style="fill:none;stroke:#999999;"/>
    <path clip-path="url(#pd55b336bf2)" d="M 385.800143 101.177277 
L 385.101042 98.968537 
L 384.494732 94.250174 
" style="fill:none;stroke:#999999;"/>
    <path clip-path="url(#pd55b336bf2)" d="M 385.800143 101.177277 
L 379.26676 102.607492 
L 377.138876 103.551975 
" style="fill:none;stroke:#999999;"/>
    <path clip-path="url(#pd55b336bf2)" d="M 374.926636 100.862899 
L 376.21834 103.516894 
" style="fill:none;stroke:#999999;"/>
    <path clip-path="url(#pd55b336bf2)" d="M 374.926636 100.862899 
L 373.978684 98.915916 
L 374.030352 96.878533 
" style="fill:none;stroke:#999999;"/>
    <path clip-path="url(#pd55b336bf2)" d="M 374.926636 100.862899 
L 380.889561 97.539671 
L 380.970754 95.876033 
L 384.494732 94.250174 
" style="fill:none;stroke:#999999;"/>
    <path clip-path="url(#pd55b336bf2)" d="M 384.494732 94.250174 
L 384.436737 93.798172 
" style="fill:none;stroke:#999999;"/>
    <path clip-path="url(#pd55b336bf2)" d="M 384.494732 94.250174 
L 385.101042 98.968537 
L 385.800143 101.177277 
" style="fill:none;stroke:#999999;"/>
    <path clip-path="url(#pd55b336bf2)" d="M 384.494732 94.250174 
L 380.970754 95.876033 
L 380.889561 97.539671 
L 374.926636 100.862899 
" style="fill:none;stroke:#999999;"/>
    <path clip-path="url(#pd55b336bf2)" d="M 398.452511 124.268517 
L 397.772389 124.604483 
" style="fill:none;stroke:#999999;"/>
    <path clip-path="url(#pd55b336bf2)" d="M 398.452511 124.268517 
L 400.991631 123.016403 
" style="fill:none;stroke:#999999;"/>
    <path clip-path="url(#pd55b336bf2)" d="M 398.452511 124.268517 
L 394.30008 124.549163 
" style="fill:none;stroke:#999999;"/>
    <path clip-path="url(#pd55b336bf2)" d="M 394.30008 124.549163 
L 394.588999 126.173672 
" style="fill:none;stroke:#999999;"/>
    <path clip-path="url(#pd55b336bf2)" d="M 394.30008 124.549163 
L 393.556691 120.365107 
L 393.123311 117.924295 
L 391.653406 110.402169 
" style="fill:none;stroke:#999999;"/>
    <path clip-path="url(#pd55b336bf2)" d="M 402.861174 93.676739 
L 396.541844 95.981275 
" style="fill:none;stroke:#999999;"/>
    <path clip-path="url(#pd55b336bf2)" d="M 396.541844 95.981275 
L 402.861174 93.676739 
" style="fill:none;stroke:#999999;"/>
    <path clip-path="url(#pd55b336bf2)" d="M 396.541844 95.981275 
L 396.648344 94.211046 
" style="fill:none;stroke:#999999;"/>
    <path clip-path="url(#pd55b336bf2)" d="M 396.541844 95.981275 
L 394.343312 96.782736 
L 389.020439 97.19561 
" style="fill:none;stroke:#999999;"/>
    <path clip-path="url(#pd55b336bf2)" d="M 396.648344 94.211046 
L 396.541844 95.981275 
" style="fill:none;stroke:#999999;"/>
    <path clip-path="url(#pd55b336bf2)" d="M 396.648344 94.211046 
L 395.49161 89.495381 
" style="fill:none;stroke:#999999;"/>
    <path clip-path="url(#pd55b336bf2)" d="M 396.648344 94.211046 
L 398.81946 91.606973 
L 402.058736 89.368551 
L 405.933847 87.632053 
L 410.041991 85.895555 
" style="fill:none;stroke:#999999;"/>
    <path clip-path="url(#pd55b336bf2)" d="M 410.041991 85.895555 
L 405.933847 87.632053 
L 402.058736 89.368551 
L 398.81946 91.606973 
L 396.648344 94.211046 
" style="fill:none;stroke:#999999;"/>
    <path clip-path="url(#pd55b336bf2)" d="M 375.663698 86.79821 
L 379.040053 87.437759 
" style="fill:none;stroke:#999999;"/>
    <path clip-path="url(#pd55b336bf2)" d="M 375.663698 86.79821 
L 375.610975 84.522008 
L 375.705876 84.037623 
" style="fill:none;stroke:#999999;"/>
    <path clip-path="url(#pd55b336bf2)" d="M 375.663698 86.79821 
L 375.680569 87.507921 
L 375.541382 89.348312 
L 375.106947 90.787972 
" style="fill:none;stroke:#999999;"/>
    <path clip-path="url(#pd55b336bf2)" d="M 384.045536 72.166832 
L 383.082821 69.628873 
L 381.079363 67.113852 
L 379.638981 66.501288 
" style="fill:none;stroke:#999999;"/>
    <path clip-path="url(#pd55b336bf2)" d="M 380.100831 73.35553 
L 379.588368 71.119806 
L 379.402784 68.464461 
L 379.638981 66.501288 
" style="fill:none;stroke:#999999;"/>
    <path clip-path="url(#pd55b336bf2)" d="M 379.638981 66.501288 
L 377.70828 65.679588 
" style="fill:none;stroke:#999999;"/>
    <path clip-path="url(#pd55b336bf2)" d="M 379.638981 66.501288 
L 381.079363 67.113852 
L 383.082821 69.628873 
L 384.045536 72.166832 
" style="fill:none;stroke:#999999;"/>
    <path clip-path="url(#pd55b336bf2)" d="M 379.638981 66.501288 
L 379.402784 68.464461 
L 379.588368 71.119806 
L 380.100831 73.35553 
" style="fill:none;stroke:#999999;"/>
    <path clip-path="url(#pd55b336bf2)" d="M 370.923937 39.632119 
L 369.01327 40.936853 
L 366.933891 43.213055 
" style="fill:none;stroke:#999999;"/>
    <path clip-path="url(#pd55b336bf2)" d="M 369.227324 84.122627 
L 368.820306 85.722849 
" style="fill:none;stroke:#999999;"/>
    <path clip-path="url(#pd55b336bf2)" d="M 369.227324 84.122627 
L 369.620635 82.576375 
L 368.734895 78.968453 
" style="fill:none;stroke:#999999;"/>
    <path clip-path="url(#pd55b336bf2)" d="M 369.227324 84.122627 
L 372.461328 83.929683 
L 373.719289 83.743485 
" style="fill:none;stroke:#999999;"/>
    <path clip-path="url(#pd55b336bf2)" d="M 373.719289 83.743485 
L 375.705876 84.037623 
" style="fill:none;stroke:#999999;"/>
    <path clip-path="url(#pd55b336bf2)" d="M 373.719289 83.743485 
L 372.461328 83.929683 
L 369.227324 84.122627 
" style="fill:none;stroke:#999999;"/>
    <path clip-path="url(#pd55b336bf2)" d="M 373.719289 83.743485 
L 372.646911 82.159453 
L 371.482796 81.926031 
L 368.734895 78.968453 
" style="fill:none;stroke:#999999;"/>
    <path clip-path="url(#pd55b336bf2)" d="M 375.705876 84.037623 
L 373.719289 83.743485 
" style="fill:none;stroke:#999999;"/>
    <path clip-path="url(#pd55b336bf2)" d="M 375.705876 84.037623 
L 376.044355 82.299776 
L 376.367017 80.467481 
" style="fill:none;stroke:#999999;"/>
    <path clip-path="url(#pd55b336bf2)" d="M 375.705876 84.037623 
L 375.610975 84.522008 
L 375.663698 86.79821 
" style="fill:none;stroke:#999999;"/>
    <path clip-path="url(#pd55b336bf2)" d="M 368.734895 78.968453 
L 367.345127 73.308306 
" style="fill:none;stroke:#999999;"/>
    <path clip-path="url(#pd55b336bf2)" d="M 368.734895 78.968453 
L 369.620635 82.576375 
L 369.227324 84.122627 
" style="fill:none;stroke:#999999;"/>
    <path clip-path="url(#pd55b336bf2)" d="M 368.734895 78.968453 
L 371.482796 81.926031 
L 372.646911 82.159453 
L 373.719289 83.743485 
" style="fill:none;stroke:#999999;"/>
    <path clip-path="url(#pd55b336bf2)" d="M 343.93946 96.04469 
L 349.307674 92.919804 
L 350.471789 91.848491 
L 350.348418 91.428871 
L 348.930181 86.624155 
" style="fill:none;stroke:#999999;"/>
    <path clip-path="url(#pd55b336bf2)" d="M 348.930181 86.624155 
L 356.921871 82.697808 
" style="fill:none;stroke:#999999;"/>
    <path clip-path="url(#pd55b336bf2)" d="M 348.930181 86.624155 
L 346.117958 88.005798 
L 337.576898 91.461253 
L 330.845277 96.31994 
L 324.170597 98.299304 
L 319.814657 101.070685 
L 312.744557 102.201365 
L 306.012937 105.991437 
L 300.017324 107.404113 
L 293.342643 111.477529 
L 291.701916 112.551541 
L 288.478457 112.891554 
L 285.309829 111.534198 
L 276.76877 106.443439 
L 265.172963 102.823374 
L 262.344923 101.014016 
L 260.194896 98.34383 
L 257.819216 95.063778 
L 252.05031 93.717217 
L 250.182876 91.727058 
L 249.335096 89.249816 
L 249.335096 77.756817 
L 248.090843 75.834121 
L 236.947396 69.228143 
L 232.704282 67.418785 
L 174.951955 8.307692 
" style="fill:none;stroke:#999999;"/>
    <path clip-path="url(#pd55b336bf2)" d="M 348.930181 86.624155 
L 350.348418 91.428871 
L 350.471789 91.848491 
L 349.307674 92.919804 
L 343.93946 96.04469 
" style="fill:none;stroke:#999999;"/>
    <path clip-path="url(#pd55b336bf2)" d="M 355.447747 86.513516 
L 361.182911 87.305532 
" style="fill:none;stroke:#999999;"/>
    <path clip-path="url(#pd55b336bf2)" d="M 355.447747 86.513516 
L 354.178187 94.443119 
L 354.008421 95.499589 
L 352.708282 97.620626 
L 350.869318 102.766705 
L 351.186708 103.445383 
L 352.735697 106.753769 
" style="fill:none;stroke:#999999;"/>
    <path clip-path="url(#pd55b336bf2)" d="M 355.447747 86.513516 
L 355.620678 85.431409 
L 356.921871 82.697808 
" style="fill:none;stroke:#999999;"/>
    <path clip-path="url(#pd55b336bf2)" d="M 368.820306 85.722849 
L 369.227324 84.122627 
" style="fill:none;stroke:#999999;"/>
    <path clip-path="url(#pd55b336bf2)" d="M 368.820306 85.722849 
L 368.404852 87.355454 
L 366.380304 93.448714 
" style="fill:none;stroke:#999999;"/>
    <path clip-path="url(#pd55b336bf2)" d="M 368.820306 85.722849 
L 366.265369 85.46649 
L 365.985939 85.979209 
L 364.634132 86.258506 
L 363.509032 86.687571 
" style="fill:none;stroke:#999999;"/>
    <path clip-path="url(#pd55b336bf2)" d="M 363.509032 86.687571 
L 364.634132 86.258506 
L 365.985939 85.979209 
L 366.265369 85.46649 
L 368.820306 85.722849 
" style="fill:none;stroke:#999999;"/>
    <path clip-path="url(#pd55b336bf2)" d="M 363.509032 86.687571 
L 361.699592 87.377043 
L 361.182911 87.305532 
" style="fill:none;stroke:#999999;"/>
    <path clip-path="url(#pd55b336bf2)" d="M 363.509032 86.687571 
L 362.351244 83.137667 
L 360.005088 81.16235 
" style="fill:none;stroke:#999999;"/>
    <path clip-path="url(#pd55b336bf2)" d="M 361.182911 87.305532 
L 355.447747 86.513516 
" style="fill:none;stroke:#999999;"/>
    <path clip-path="url(#pd55b336bf2)" d="M 361.182911 87.305532 
L 361.699592 87.377043 
L 363.509032 86.687571 
" style="fill:none;stroke:#999999;"/>
    <path clip-path="url(#pd55b336bf2)" d="M 361.182911 87.305532 
L 362.16566 88.866626 
L 364.169119 91.10235 
L 364.54134 92.127788 
L 366.380304 93.448714 
" style="fill:none;stroke:#999999;"/>
    <path clip-path="url(#pd55b336bf2)" d="M 367.611904 99.32879 
L 364.841859 99.193864 
" style="fill:none;stroke:#999999;"/>
    <path clip-path="url(#pd55b336bf2)" d="M 367.611904 99.32879 
L 368.208723 96.097312 
" style="fill:none;stroke:#999999;"/>
    <path clip-path="url(#pd55b336bf2)" d="M 367.611904 99.32879 
L 368.6769 99.381411 
L 372.10176 99.969689 
L 373.586428 100.51479 
" style="fill:none;stroke:#999999;"/>
    <path clip-path="url(#pd55b336bf2)" d="M 375.106947 90.787972 
L 375.541382 89.348312 
L 375.680569 87.507921 
L 375.663698 86.79821 
" style="fill:none;stroke:#999999;"/>
    <path clip-path="url(#pd55b336bf2)" d="M 375.106947 90.787972 
L 374.099946 94.123344 
L 374.030352 96.878533 
" style="fill:none;stroke:#999999;"/>
    <path clip-path="url(#pd55b336bf2)" d="M 375.106947 90.787972 
L 369.852614 89.145923 
L 368.408015 95.015205 
L 368.208723 96.097312 
" style="fill:none;stroke:#999999;"/>
    <path clip-path="url(#pd55b336bf2)" d="M 365.516708 96.005562 
L 366.380304 93.448714 
" style="fill:none;stroke:#999999;"/>
    <path clip-path="url(#pd55b336bf2)" d="M 365.516708 96.005562 
L 366.958144 96.054135 
" style="fill:none;stroke:#999999;"/>
    <path clip-path="url(#pd55b336bf2)" d="M 365.516708 96.005562 
L 365.265748 97.025603 
L 364.841859 99.193864 
" style="fill:none;stroke:#999999;"/>
    <path clip-path="url(#pd55b336bf2)" d="M 368.208723 96.097312 
L 367.611904 99.32879 
" style="fill:none;stroke:#999999;"/>
    <path clip-path="url(#pd55b336bf2)" d="M 368.208723 96.097312 
L 366.958144 96.054135 
" style="fill:none;stroke:#999999;"/>
    <path clip-path="url(#pd55b336bf2)" d="M 368.208723 96.097312 
L 368.408015 95.015205 
L 369.852614 89.145923 
L 375.106947 90.787972 
" style="fill:none;stroke:#999999;"/>
    <path clip-path="url(#pd55b336bf2)" d="M 368.208723 96.097312 
L 370.877541 96.553362 
L 372.554119 96.646461 
L 374.030352 96.878533 
" style="fill:none;stroke:#999999;"/>
    <path clip-path="url(#pd55b336bf2)" d="M 374.030352 96.878533 
L 374.099946 94.123344 
L 375.106947 90.787972 
" style="fill:none;stroke:#999999;"/>
    <path clip-path="url(#pd55b336bf2)" d="M 374.030352 96.878533 
L 373.978684 98.915916 
L 374.926636 100.862899 
" style="fill:none;stroke:#999999;"/>
    <path clip-path="url(#pd55b336bf2)" d="M 374.030352 96.878533 
L 372.554119 96.646461 
L 370.877541 96.553362 
L 368.208723 96.097312 
" style="fill:none;stroke:#999999;"/>
    <path clip-path="url(#pd55b336bf2)" d="M 366.958144 96.054135 
L 368.208723 96.097312 
" style="fill:none;stroke:#999999;"/>
    <path clip-path="url(#pd55b336bf2)" d="M 366.958144 96.054135 
L 365.516708 96.005562 
" style="fill:none;stroke:#999999;"/>
    <path clip-path="url(#pd55b336bf2)" d="M 366.958144 96.054135 
L 366.380304 93.448714 
" style="fill:none;stroke:#999999;"/>
    <path clip-path="url(#pd55b336bf2)" d="M 371.296158 116.533208 
L 375.76598 116.024537 
" style="fill:none;stroke:#999999;"/>
    <path clip-path="url(#pd55b336bf2)" d="M 371.296158 116.533208 
L 371.460653 119.185853 
" style="fill:none;stroke:#999999;"/>
    <path clip-path="url(#pd55b336bf2)" d="M 371.296158 116.533208 
L 371.175951 114.587574 
L 371.008293 113.852228 
" style="fill:none;stroke:#999999;"/>
    <path clip-path="url(#pd55b336bf2)" d="M 375.76598 116.024537 
L 376.436611 120.583687 
" style="fill:none;stroke:#999999;"/>
    <path clip-path="url(#pd55b336bf2)" d="M 375.76598 116.024537 
L 371.296158 116.533208 
" style="fill:none;stroke:#999999;"/>
    <path clip-path="url(#pd55b336bf2)" d="M 375.76598 116.024537 
L 375.305184 112.891554 
L 374.873914 111.388478 
" style="fill:none;stroke:#999999;"/>
    <path clip-path="url(#pd55b336bf2)" d="M 370.224835 126.830762 
L 368.174981 123.476501 
L 367.443191 120.41368 
" style="fill:none;stroke:#999999;"/>
    <path clip-path="url(#pd55b336bf2)" d="M 370.392493 111.146961 
L 369.968604 109.061004 
" style="fill:none;stroke:#999999;"/>
    <path clip-path="url(#pd55b336bf2)" d="M 370.392493 111.146961 
L 371.008293 113.852228 
" style="fill:none;stroke:#999999;"/>
    <path clip-path="url(#pd55b336bf2)" d="M 370.392493 111.146961 
L 374.873914 111.388478 
" style="fill:none;stroke:#999999;"/>
    <path clip-path="url(#pd55b336bf2)" d="M 374.873914 111.388478 
L 370.392493 111.146961 
" style="fill:none;stroke:#999999;"/>
    <path clip-path="url(#pd55b336bf2)" d="M 374.873914 111.388478 
L 375.305184 112.891554 
L 375.76598 116.024537 
" style="fill:none;stroke:#999999;"/>
    <path clip-path="url(#pd55b336bf2)" d="M 374.873914 111.388478 
L 373.438805 106.38677 
L 374.117872 104.407406 
L 376.21834 103.516894 
" style="fill:none;stroke:#999999;"/>
    <path clip-path="url(#pd55b336bf2)" d="M 365.533579 109.827384 
L 369.968604 109.061004 
" style="fill:none;stroke:#999999;"/>
    <path clip-path="url(#pd55b336bf2)" d="M 365.533579 109.827384 
L 365.491401 109.299823 
L 364.105851 105.086084 
" style="fill:none;stroke:#999999;"/>
    <path clip-path="url(#pd55b336bf2)" d="M 365.533579 109.827384 
L 365.746578 112.494872 
L 365.914236 112.898301 
" style="fill:none;stroke:#999999;"/>
    <path clip-path="url(#pd55b336bf2)" d="M 365.914236 112.898301 
L 367.038282 115.594123 
" style="fill:none;stroke:#999999;"/>
    <path clip-path="url(#pd55b336bf2)" d="M 365.914236 112.898301 
L 365.746578 112.494872 
L 365.533579 109.827384 
" style="fill:none;stroke:#999999;"/>
    <path clip-path="url(#pd55b336bf2)" d="M 365.914236 112.898301 
L 363.283379 113.973661 
L 356.186918 114.989654 
" style="fill:none;stroke:#999999;"/>
    <path clip-path="url(#pd55b336bf2)" d="M 395.49161 89.495381 
L 396.648344 94.211046 
" style="fill:none;stroke:#999999;"/>
    <path clip-path="url(#pd55b336bf2)" d="M 403.318806 122.303994 
L 400.991631 123.016403 
" style="fill:none;stroke:#999999;"/>
    <path clip-path="url(#pd55b336bf2)" d="M 403.318806 122.303994 
L 404.425981 121.96533 
" style="fill:none;stroke:#999999;"/>
    <path clip-path="url(#pd55b336bf2)" d="M 403.318806 122.303994 
L 404.05165 125.70413 
L 404.565168 125.822865 
L 408.666986 124.4817 
" style="fill:none;stroke:#999999;"/>
    <path clip-path="url(#pd55b336bf2)" d="M 408.666986 124.4817 
L 404.565168 125.822865 
L 404.05165 125.70413 
L 403.318806 122.303994 
" style="fill:none;stroke:#999999;"/>
    <path clip-path="url(#pd55b336bf2)" d="M 392.669897 127.119504 
L 382.337324 132.214311 
" style="fill:none;stroke:#999999;"/>
    <path clip-path="url(#pd55b336bf2)" d="M 392.669897 127.119504 
L 394.588999 126.173672 
" style="fill:none;stroke:#999999;"/>
    <path clip-path="url(#pd55b336bf2)" d="M 392.669897 127.119504 
L 394.781964 134.145102 
L 395.767877 136.235106 
L 396.67576 138.640837 
L 396.67576 141.087046 
L 396.556607 143.453649 
L 397.070125 145.543653 
L 398.647585 147.358408 
L 401.488278 149.882874 
L 402.828486 150.356464 
L 405.392913 149.804617 
L 412.61169 147.674135 
" style="fill:none;stroke:#999999;"/>
    <path clip-path="url(#pd55b336bf2)" d="M 412.61169 147.674135 
L 405.392913 149.804617 
L 402.828486 150.356464 
L 401.488278 149.882874 
L 398.647585 147.358408 
L 397.070125 145.543653 
L 396.556607 143.453649 
L 396.67576 141.087046 
L 396.67576 138.640837 
L 395.767877 136.235106 
L 394.781964 134.145102 
L 392.669897 127.119504 
" style="fill:none;stroke:#999999;"/>
    <path clip-path="url(#pd55b336bf2)" d="M 375.29464 43.941656 
L 374.032461 49.122815 
" style="fill:none;stroke:#999999;"/>
   </g>
  </g>
 </g>
 <defs>
  <clipPath id="pd55b336bf2">
   <rect height="432" width="388.044685" x="54.245649" y="0"/>
  </clipPath>
 </defs>
</svg>
