<?xml version="1.0" encoding="utf-8" standalone="no"?>
<!DOCTYPE svg PUBLIC "-//W3C//DTD SVG 1.1//EN"
  "http://www.w3.org/Graphics/SVG/1.1/DTD/svg11.dtd">
<!-- Created with matplotlib (http://matplotlib.org/) -->
<svg height="432pt" version="1.1" viewBox="0 0 1997.422255 432" width="1997.422255pt" xmlns="http://www.w3.org/2000/svg" xmlns:xlink="http://www.w3.org/1999/xlink">
 <defs>
  <style type="text/css">
*{stroke-linecap:butt;stroke-linejoin:round;}
  </style>
 </defs>
 <g id="figure_1">
  <g id="patch_1">
   <path d="M 0 432 
L 1997.422255 432 
L 1997.422255 0 
L 0 0 
z
" style="fill:none;opacity:0;"/>
  </g>
  <g id="axes_1">
   <g id="PathCollection_1">
    <defs>
     <path d="M 0 1.936492 
C 0.513564 1.936492 1.006162 1.732451 1.369306 1.369306 
C 1.732451 1.006162 1.936492 0.513564 1.936492 0 
C 1.936492 -0.513564 1.732451 -1.006162 1.369306 -1.369306 
C 1.006162 -1.732451 0.513564 -1.936492 0 -1.936492 
C -0.513564 -1.936492 -1.006162 -1.732451 -1.369306 -1.369306 
C -1.732451 -1.006162 -1.936492 -0.513564 -1.936492 0 
C -1.936492 0.513564 -1.732451 1.006162 -1.369306 1.369306 
C -1.006162 1.732451 -0.513564 1.936492 0 1.936492 
z
" id="C0_0_9702d9f8ce"/>
    </defs>
    <g clip-path="url(#p06bc4bc5e4)">
     <use style="fill:#66ccff;" x="1719.928116" xlink:href="#C0_0_9702d9f8ce" y="352.728816"/>
    </g>
    <g clip-path="url(#p06bc4bc5e4)">
     <use style="fill:#66ccff;" x="1705.748738" xlink:href="#C0_0_9702d9f8ce" y="363.876345"/>
    </g>
    <g clip-path="url(#p06bc4bc5e4)">
     <use style="fill:#66ccff;" x="1671.994173" xlink:href="#C0_0_9702d9f8ce" y="372.394224"/>
    </g>
    <g clip-path="url(#p06bc4bc5e4)">
     <use style="fill:#66ccff;" x="1685.182558" xlink:href="#C0_0_9702d9f8ce" y="389.316979"/>
    </g>
    <g clip-path="url(#p06bc4bc5e4)">
     <use style="fill:#66ccff;" x="1677.683152" xlink:href="#C0_0_9702d9f8ce" y="361.663512"/>
    </g>
    <g clip-path="url(#p06bc4bc5e4)">
     <use style="fill:#66ccff;" x="1713.337181" xlink:href="#C0_0_9702d9f8ce" y="353.670822"/>
    </g>
    <g clip-path="url(#p06bc4bc5e4)">
     <use style="fill:#66ccff;" x="1728.481492" xlink:href="#C0_0_9702d9f8ce" y="385.875"/>
    </g>
    <g clip-path="url(#p06bc4bc5e4)">
     <use style="fill:#66ccff;" x="1671.839262" xlink:href="#C0_0_9702d9f8ce" y="365.246282"/>
    </g>
    <g clip-path="url(#p06bc4bc5e4)">
     <use style="fill:#66ccff;" x="1713.81277" xlink:href="#C0_0_9702d9f8ce" y="365.374106"/>
    </g>
    <g clip-path="url(#p06bc4bc5e4)">
     <use style="fill:#66ccff;" x="1699.59937" xlink:href="#C0_0_9702d9f8ce" y="350.324248"/>
    </g>
    <g clip-path="url(#p06bc4bc5e4)">
     <use style="fill:#66ccff;" x="1677.219869" xlink:href="#C0_0_9702d9f8ce" y="344.593482"/>
    </g>
    <g clip-path="url(#p06bc4bc5e4)">
     <use style="fill:#66ccff;" x="1682.987751" xlink:href="#C0_0_9702d9f8ce" y="342.214849"/>
    </g>
    <g clip-path="url(#p06bc4bc5e4)">
     <use style="fill:#66ccff;" x="1673.633763" xlink:href="#C0_0_9702d9f8ce" y="353.909797"/>
    </g>
    <g clip-path="url(#p06bc4bc5e4)">
     <use style="fill:#66ccff;" x="1721.009594" xlink:href="#C0_0_9702d9f8ce" y="388.324955"/>
    </g>
    <g clip-path="url(#p06bc4bc5e4)">
     <use style="fill:#66ccff;" x="1716.82701" xlink:href="#C0_0_9702d9f8ce" y="363.474349"/>
    </g>
    <g clip-path="url(#p06bc4bc5e4)">
     <use style="fill:#66ccff;" x="1684.226312" xlink:href="#C0_0_9702d9f8ce" y="340.977367"/>
    </g>
    <g clip-path="url(#p06bc4bc5e4)">
     <use style="fill:#66ccff;" x="1692.98527" xlink:href="#C0_0_9702d9f8ce" y="376.603146"/>
    </g>
    <g clip-path="url(#p06bc4bc5e4)">
     <use style="fill:#66ccff;" x="1675.78007" xlink:href="#C0_0_9702d9f8ce" y="338.411629"/>
    </g>
    <g clip-path="url(#p06bc4bc5e4)">
     <use style="fill:#66ccff;" x="1739.535153" xlink:href="#C0_0_9702d9f8ce" y="348.682916"/>
    </g>
    <g clip-path="url(#p06bc4bc5e4)">
     <use style="fill:#66ccff;" x="1675.660629" xlink:href="#C0_0_9702d9f8ce" y="327.949532"/>
    </g>
    <g clip-path="url(#p06bc4bc5e4)">
     <use style="fill:#66ccff;" x="1709.107545" xlink:href="#C0_0_9702d9f8ce" y="369.010599"/>
    </g>
    <g clip-path="url(#p06bc4bc5e4)">
     <use style="fill:#66ccff;" x="1680.463579" xlink:href="#C0_0_9702d9f8ce" y="400.794256"/>
    </g>
    <g clip-path="url(#p06bc4bc5e4)">
     <use style="fill:#66ccff;" x="1595.590718" xlink:href="#C0_0_9702d9f8ce" y="8.307692"/>
    </g>
    <g clip-path="url(#p06bc4bc5e4)">
     <use style="fill:#66ccff;" x="1734.675017" xlink:href="#C0_0_9702d9f8ce" y="370.838109"/>
    </g>
    <g clip-path="url(#p06bc4bc5e4)">
     <use style="fill:#66ccff;" x="1646.231252" xlink:href="#C0_0_9702d9f8ce" y="324.099999"/>
    </g>
    <g clip-path="url(#p06bc4bc5e4)">
     <use style="fill:#66ccff;" x="1688.90041" xlink:href="#C0_0_9702d9f8ce" y="343.669076"/>
    </g>
    <g clip-path="url(#p06bc4bc5e4)">
     <use style="fill:#66ccff;" x="1696.98616" xlink:href="#C0_0_9702d9f8ce" y="351.915561"/>
    </g>
    <g clip-path="url(#p06bc4bc5e4)">
     <use style="fill:#66ccff;" x="1686.699812" xlink:href="#C0_0_9702d9f8ce" y="372.536868"/>
    </g>
    <g clip-path="url(#p06bc4bc5e4)">
     <use style="fill:#66ccff;" x="1682.592512" xlink:href="#C0_0_9702d9f8ce" y="395.616467"/>
    </g>
    <g clip-path="url(#p06bc4bc5e4)">
     <use style="fill:#66ccff;" x="1698.252951" xlink:href="#C0_0_9702d9f8ce" y="391.802132"/>
    </g>
    <g clip-path="url(#p06bc4bc5e4)">
     <use style="fill:#66ccff;" x="1699.566795" xlink:href="#C0_0_9702d9f8ce" y="394.979201"/>
    </g>
    <g clip-path="url(#p06bc4bc5e4)">
     <use style="fill:#66ccff;" x="1682.559214" xlink:href="#C0_0_9702d9f8ce" y="378.668704"/>
    </g>
    <g clip-path="url(#p06bc4bc5e4)">
     <use style="fill:#66ccff;" x="1711.382702" xlink:href="#C0_0_9702d9f8ce" y="391.257491"/>
    </g>
    <g clip-path="url(#p06bc4bc5e4)">
     <use style="fill:#66ccff;" x="1709.268246" xlink:href="#C0_0_9702d9f8ce" y="388.209173"/>
    </g>
    <g clip-path="url(#p06bc4bc5e4)">
     <use style="fill:#66ccff;" x="1679.54425" xlink:href="#C0_0_9702d9f8ce" y="387.134712"/>
    </g>
    <g clip-path="url(#p06bc4bc5e4)">
     <use style="fill:#66ccff;" x="1687.241999" xlink:href="#C0_0_9702d9f8ce" y="381.908758"/>
    </g>
    <g clip-path="url(#p06bc4bc5e4)">
     <use style="fill:#66ccff;" x="1712.511957" xlink:href="#C0_0_9702d9f8ce" y="351.457063"/>
    </g>
    <g clip-path="url(#p06bc4bc5e4)">
     <use style="fill:#66ccff;" x="1694.329517" xlink:href="#C0_0_9702d9f8ce" y="386.358507"/>
    </g>
    <g clip-path="url(#p06bc4bc5e4)">
     <use style="fill:#66ccff;" x="1695.010689" xlink:href="#C0_0_9702d9f8ce" y="386.586367"/>
    </g>
    <g clip-path="url(#p06bc4bc5e4)">
     <use style="fill:#66ccff;" x="1707.184193" xlink:href="#C0_0_9702d9f8ce" y="385.02562"/>
    </g>
    <g clip-path="url(#p06bc4bc5e4)">
     <use style="fill:#66ccff;" x="1652.576792" xlink:href="#C0_0_9702d9f8ce" y="383.869649"/>
    </g>
    <g clip-path="url(#p06bc4bc5e4)">
     <use style="fill:#66ccff;" x="1695.623816" xlink:href="#C0_0_9702d9f8ce" y="382.73035"/>
    </g>
    <g clip-path="url(#p06bc4bc5e4)">
     <use style="fill:#66ccff;" x="1677.704145" xlink:href="#C0_0_9702d9f8ce" y="382.576591"/>
    </g>
    <g clip-path="url(#p06bc4bc5e4)">
     <use style="fill:#66ccff;" x="1705.131267" xlink:href="#C0_0_9702d9f8ce" y="382.204235"/>
    </g>
    <g clip-path="url(#p06bc4bc5e4)">
     <use style="fill:#66ccff;" x="1660.792116" xlink:href="#C0_0_9702d9f8ce" y="382.182004"/>
    </g>
    <g clip-path="url(#p06bc4bc5e4)">
     <use style="fill:#66ccff;" x="1689.510642" xlink:href="#C0_0_9702d9f8ce" y="381.782787"/>
    </g>
    <g clip-path="url(#p06bc4bc5e4)">
     <use style="fill:#66ccff;" x="1663.77161" xlink:href="#C0_0_9702d9f8ce" y="381.809648"/>
    </g>
    <g clip-path="url(#p06bc4bc5e4)">
     <use style="fill:#66ccff;" x="1682.698923" xlink:href="#C0_0_9702d9f8ce" y="381.787418"/>
    </g>
    <g clip-path="url(#p06bc4bc5e4)">
     <use style="fill:#66ccff;" x="1668.678798" xlink:href="#C0_0_9702d9f8ce" y="381.10847"/>
    </g>
    <g clip-path="url(#p06bc4bc5e4)">
     <use style="fill:#66ccff;" x="1681.315587" xlink:href="#C0_0_9702d9f8ce" y="359.548862"/>
    </g>
    <g clip-path="url(#p06bc4bc5e4)">
     <use style="fill:#66ccff;" x="1687.68429" xlink:href="#C0_0_9702d9f8ce" y="381.21499"/>
    </g>
    <g clip-path="url(#p06bc4bc5e4)">
     <use style="fill:#66ccff;" x="1676.148525" xlink:href="#C0_0_9702d9f8ce" y="380.253533"/>
    </g>
    <g clip-path="url(#p06bc4bc5e4)">
     <use style="fill:#66ccff;" x="1673.738726" xlink:href="#C0_0_9702d9f8ce" y="379.749648"/>
    </g>
    <g clip-path="url(#p06bc4bc5e4)">
     <use style="fill:#66ccff;" x="1715.814301" xlink:href="#C0_0_9702d9f8ce" y="380.200736"/>
    </g>
    <g clip-path="url(#p06bc4bc5e4)">
     <use style="fill:#66ccff;" x="1344.269415" xlink:href="#C0_0_9702d9f8ce" y="295.05807"/>
    </g>
    <g clip-path="url(#p06bc4bc5e4)">
     <use style="fill:#66ccff;" x="1688.126582" xlink:href="#C0_0_9702d9f8ce" y="378.173155"/>
    </g>
    <g clip-path="url(#p06bc4bc5e4)">
     <use style="fill:#66ccff;" x="1662.349908" xlink:href="#C0_0_9702d9f8ce" y="377.944369"/>
    </g>
    <g clip-path="url(#p06bc4bc5e4)">
     <use style="fill:#66ccff;" x="1689.648179" xlink:href="#C0_0_9702d9f8ce" y="377.911024"/>
    </g>
    <g clip-path="url(#p06bc4bc5e4)">
     <use style="fill:#66ccff;" x="1702.469557" xlink:href="#C0_0_9702d9f8ce" y="371.950546"/>
    </g>
    <g clip-path="url(#p06bc4bc5e4)">
     <use style="fill:#66ccff;" x="1722.769348" xlink:href="#C0_0_9702d9f8ce" y="377.301545"/>
    </g>
    <g clip-path="url(#p06bc4bc5e4)">
     <use style="fill:#66ccff;" x="1702.633878" xlink:href="#C0_0_9702d9f8ce" y="377.799872"/>
    </g>
    <g clip-path="url(#p06bc4bc5e4)">
     <use style="fill:#66ccff;" x="1657.59401" xlink:href="#C0_0_9702d9f8ce" y="376.792103"/>
    </g>
    <g clip-path="url(#p06bc4bc5e4)">
     <use style="fill:#66ccff;" x="1713.308949" xlink:href="#C0_0_9702d9f8ce" y="376.242831"/>
    </g>
    <g clip-path="url(#p06bc4bc5e4)">
     <use style="fill:#66ccff;" x="1721.204318" xlink:href="#C0_0_9702d9f8ce" y="374.959962"/>
    </g>
    <g clip-path="url(#p06bc4bc5e4)">
     <use style="fill:#66ccff;" x="1661.208348" xlink:href="#C0_0_9702d9f8ce" y="374.841401"/>
    </g>
    <g clip-path="url(#p06bc4bc5e4)">
     <use style="fill:#66ccff;" x="1667.479328" xlink:href="#C0_0_9702d9f8ce" y="374.438478"/>
    </g>
    <g clip-path="url(#p06bc4bc5e4)">
     <use style="fill:#66ccff;" x="1731.200389" xlink:href="#C0_0_9702d9f8ce" y="353.279014"/>
    </g>
    <g clip-path="url(#p06bc4bc5e4)">
     <use style="fill:#66ccff;" x="1690.33659" xlink:href="#C0_0_9702d9f8ce" y="373.085213"/>
    </g>
    <g clip-path="url(#p06bc4bc5e4)">
     <use style="fill:#66ccff;" x="1702.228505" xlink:href="#C0_0_9702d9f8ce" y="351.960021"/>
    </g>
    <g clip-path="url(#p06bc4bc5e4)">
     <use style="fill:#66ccff;" x="1667.777567" xlink:href="#C0_0_9702d9f8ce" y="336.160819"/>
    </g>
    <g clip-path="url(#p06bc4bc5e4)">
     <use style="fill:#66ccff;" x="1667.232484" xlink:href="#C0_0_9702d9f8ce" y="373.066688"/>
    </g>
    <g clip-path="url(#p06bc4bc5e4)">
     <use style="fill:#66ccff;" x="1664.507073" xlink:href="#C0_0_9702d9f8ce" y="371.053927"/>
    </g>
    <g clip-path="url(#p06bc4bc5e4)">
     <use style="fill:#66ccff;" x="1700.668542" xlink:href="#C0_0_9702d9f8ce" y="372.900888"/>
    </g>
    <g clip-path="url(#p06bc4bc5e4)">
     <use style="fill:#66ccff;" x="1675.27842" xlink:href="#C0_0_9702d9f8ce" y="372.680438"/>
    </g>
    <g clip-path="url(#p06bc4bc5e4)">
     <use style="fill:#66ccff;" x="1691.461501" xlink:href="#C0_0_9702d9f8ce" y="369.254206"/>
    </g>
    <g clip-path="url(#p06bc4bc5e4)">
     <use style="fill:#66ccff;" x="1667.177469" xlink:href="#C0_0_9702d9f8ce" y="368.998558"/>
    </g>
    <g clip-path="url(#p06bc4bc5e4)">
     <use style="fill:#66ccff;" x="1712.686412" xlink:href="#C0_0_9702d9f8ce" y="370.770492"/>
    </g>
    <g clip-path="url(#p06bc4bc5e4)">
     <use style="fill:#66ccff;" x="1671.116829" xlink:href="#C0_0_9702d9f8ce" y="368.652137"/>
    </g>
    <g clip-path="url(#p06bc4bc5e4)">
     <use style="fill:#66ccff;" x="1695.90251" xlink:href="#C0_0_9702d9f8ce" y="367.852776"/>
    </g>
    <g clip-path="url(#p06bc4bc5e4)">
     <use style="fill:#66ccff;" x="1710.815904" xlink:href="#C0_0_9702d9f8ce" y="372.296967"/>
    </g>
    <g clip-path="url(#p06bc4bc5e4)">
     <use style="fill:#66ccff;" x="1670.584053" xlink:href="#C0_0_9702d9f8ce" y="366.376319"/>
    </g>
    <g clip-path="url(#p06bc4bc5e4)">
     <use style="fill:#66ccff;" x="1725.082148" xlink:href="#C0_0_9702d9f8ce" y="380.731483"/>
    </g>
    <g clip-path="url(#p06bc4bc5e4)">
     <use style="fill:#66ccff;" x="1664.341304" xlink:href="#C0_0_9702d9f8ce" y="364.981372"/>
    </g>
    <g clip-path="url(#p06bc4bc5e4)">
     <use style="fill:#66ccff;" x="1681.515378" xlink:href="#C0_0_9702d9f8ce" y="364.670149"/>
    </g>
    <g clip-path="url(#p06bc4bc5e4)">
     <use style="fill:#66ccff;" x="1697.206943" xlink:href="#C0_0_9702d9f8ce" y="363.240931"/>
    </g>
    <g clip-path="url(#p06bc4bc5e4)">
     <use style="fill:#66ccff;" x="1716.651831" xlink:href="#C0_0_9702d9f8ce" y="362.72871"/>
    </g>
    <g clip-path="url(#p06bc4bc5e4)">
     <use style="fill:#66ccff;" x="1683.684849" xlink:href="#C0_0_9702d9f8ce" y="351.741424"/>
    </g>
    <g clip-path="url(#p06bc4bc5e4)">
     <use style="fill:#66ccff;" x="1681.007213" xlink:href="#C0_0_9702d9f8ce" y="358.422531"/>
    </g>
    <g clip-path="url(#p06bc4bc5e4)">
     <use style="fill:#66ccff;" x="1695.521749" xlink:href="#C0_0_9702d9f8ce" y="360.765967"/>
    </g>
    <g clip-path="url(#p06bc4bc5e4)">
     <use style="fill:#66ccff;" x="248.227635" xlink:href="#C0_0_9702d9f8ce" y="189.408953"/>
    </g>
    <g clip-path="url(#p06bc4bc5e4)">
     <use style="fill:#66ccff;" x="1703.306364" xlink:href="#C0_0_9702d9f8ce" y="360.263008"/>
    </g>
    <g clip-path="url(#p06bc4bc5e4)">
     <use style="fill:#66ccff;" x="1701.084773" xlink:href="#C0_0_9702d9f8ce" y="357.045184"/>
    </g>
    <g clip-path="url(#p06bc4bc5e4)">
     <use style="fill:#66ccff;" x="1700.713422" xlink:href="#C0_0_9702d9f8ce" y="356.581128"/>
    </g>
    <g clip-path="url(#p06bc4bc5e4)">
     <use style="fill:#66ccff;" x="1689.150149" xlink:href="#C0_0_9702d9f8ce" y="356.55334"/>
    </g>
    <g clip-path="url(#p06bc4bc5e4)">
     <use style="fill:#66ccff;" x="1704.833028" xlink:href="#C0_0_9702d9f8ce" y="353.800498"/>
    </g>
    <g clip-path="url(#p06bc4bc5e4)">
     <use style="fill:#66ccff;" x="1683.626214" xlink:href="#C0_0_9702d9f8ce" y="350.942989"/>
    </g>
    <g clip-path="url(#p06bc4bc5e4)">
     <use style="fill:#66ccff;" x="1687.283984" xlink:href="#C0_0_9702d9f8ce" y="348.593996"/>
    </g>
    <g clip-path="url(#p06bc4bc5e4)">
     <use style="fill:#66ccff;" x="1693.625905" xlink:href="#C0_0_9702d9f8ce" y="346.608096"/>
    </g>
    <g clip-path="url(#p06bc4bc5e4)">
     <use style="fill:#66ccff;" x="1695.371181" xlink:href="#C0_0_9702d9f8ce" y="343.945101"/>
    </g>
    <g clip-path="url(#p06bc4bc5e4)">
     <use style="fill:#66ccff;" x="1676.718943" xlink:href="#C0_0_9702d9f8ce" y="342.444561"/>
    </g>
    <g clip-path="url(#p06bc4bc5e4)">
     <use style="fill:#66ccff;" x="1691.871941" xlink:href="#C0_0_9702d9f8ce" y="355.406632"/>
    </g>
    <g clip-path="url(#p06bc4bc5e4)">
     <use style="fill:#66ccff;" x="1678.733504" xlink:href="#C0_0_9702d9f8ce" y="339.776009"/>
    </g>
    <g clip-path="url(#p06bc4bc5e4)">
     <use style="fill:#66ccff;" x="1663.378542" xlink:href="#C0_0_9702d9f8ce" y="383.948381"/>
    </g>
    <g clip-path="url(#p06bc4bc5e4)">
     <use style="fill:#66ccff;" x="1673.584539" xlink:href="#C0_0_9702d9f8ce" y="337.793814"/>
    </g>
    <g clip-path="url(#p06bc4bc5e4)">
     <use style="fill:#66ccff;" x="1731.918479" xlink:href="#C0_0_9702d9f8ce" y="362.332271"/>
    </g>
    <g clip-path="url(#p06bc4bc5e4)">
     <use style="fill:#66ccff;" x="1713.938726" xlink:href="#C0_0_9702d9f8ce" y="356.176353"/>
    </g>
    <g clip-path="url(#p06bc4bc5e4)">
     <use style="fill:#66ccff;" x="1689.753142" xlink:href="#C0_0_9702d9f8ce" y="337.460361"/>
    </g>
    <g clip-path="url(#p06bc4bc5e4)">
     <use style="fill:#66ccff;" x="1749.19462" xlink:href="#C0_0_9702d9f8ce" y="409.331586"/>
    </g>
    <g clip-path="url(#p06bc4bc5e4)">
     <use style="fill:#66ccff;" x="1684.454334" xlink:href="#C0_0_9702d9f8ce" y="358.532756"/>
    </g>
    <g clip-path="url(#p06bc4bc5e4)">
     <use style="fill:#66ccff;" x="1665.381521" xlink:href="#C0_0_9702d9f8ce" y="335.39295"/>
    </g>
    <g clip-path="url(#p06bc4bc5e4)">
     <use style="fill:#66ccff;" x="1675.368905" xlink:href="#C0_0_9702d9f8ce" y="380.090511"/>
    </g>
    <g clip-path="url(#p06bc4bc5e4)">
     <use style="fill:#66ccff;" x="1681.846915" xlink:href="#C0_0_9702d9f8ce" y="373.155609"/>
    </g>
    <g clip-path="url(#p06bc4bc5e4)">
     <use style="fill:#66ccff;" x="1664.094461" xlink:href="#C0_0_9702d9f8ce" y="333.156035"/>
    </g>
    <g clip-path="url(#p06bc4bc5e4)">
     <use style="fill:#66ccff;" x="1669.379515" xlink:href="#C0_0_9702d9f8ce" y="330.558804"/>
    </g>
    <g clip-path="url(#p06bc4bc5e4)">
     <use style="fill:#66ccff;" x="1667.479328" xlink:href="#C0_0_9702d9f8ce" y="327.009379"/>
    </g>
    <g clip-path="url(#p06bc4bc5e4)">
     <use style="fill:#66ccff;" x="1659.965444" xlink:href="#C0_0_9702d9f8ce" y="325.980305"/>
    </g>
    <g clip-path="url(#p06bc4bc5e4)">
     <use style="fill:#66ccff;" x="1655.840771" xlink:href="#C0_0_9702d9f8ce" y="319.121356"/>
    </g>
    <g clip-path="url(#p06bc4bc5e4)">
     <use style="fill:#66ccff;" x="1699.479205" xlink:href="#C0_0_9702d9f8ce" y="366.578243"/>
    </g>
    <g clip-path="url(#p06bc4bc5e4)">
     <use style="fill:#66ccff;" x="1660.66037" xlink:href="#C0_0_9702d9f8ce" y="315.308873"/>
    </g>
    <g clip-path="url(#p06bc4bc5e4)">
     <use style="fill:#66ccff;" x="1704.005632" xlink:href="#C0_0_9702d9f8ce" y="409.941065"/>
    </g>
    <g clip-path="url(#p06bc4bc5e4)">
     <use style="fill:#66ccff;" x="1688.193903" xlink:href="#C0_0_9702d9f8ce" y="378.480673"/>
    </g>
    <g clip-path="url(#p06bc4bc5e4)">
     <use style="fill:#66ccff;" x="1719.181071" xlink:href="#C0_0_9702d9f8ce" y="372.33587"/>
    </g>
    <g clip-path="url(#p06bc4bc5e4)">
     <use style="fill:#66ccff;" x="1710.836896" xlink:href="#C0_0_9702d9f8ce" y="361.496785"/>
    </g>
   </g>
   <g id="LineCollection_1">
    <path clip-path="url(#p06bc4bc5e4)" d="M 1719.928116 352.728816 
L 1713.337181 353.670822 
" style="fill:none;stroke:#999999;"/>
    <path clip-path="url(#p06bc4bc5e4)" d="M 1705.748738 363.876345 
L 1699.479205 366.578243 
" style="fill:none;stroke:#999999;"/>
    <path clip-path="url(#p06bc4bc5e4)" d="M 1705.748738 363.876345 
L 1710.836896 361.496785 
" style="fill:none;stroke:#999999;"/>
    <path clip-path="url(#p06bc4bc5e4)" d="M 1705.748738 363.876345 
L 1703.306364 360.263008 
" style="fill:none;stroke:#999999;"/>
    <path clip-path="url(#p06bc4bc5e4)" d="M 1705.748738 363.876345 
L 1709.107545 369.010599 
" style="fill:none;stroke:#999999;"/>
    <path clip-path="url(#p06bc4bc5e4)" d="M 1671.994173 372.394224 
L 1667.232484 373.066688 
" style="fill:none;stroke:#999999;"/>
    <path clip-path="url(#p06bc4bc5e4)" d="M 1671.994173 372.394224 
L 1675.27842 372.680438 
" style="fill:none;stroke:#999999;"/>
    <path clip-path="url(#p06bc4bc5e4)" d="M 1671.994173 372.394224 
L 1671.116829 368.652137 
" style="fill:none;stroke:#999999;"/>
    <path clip-path="url(#p06bc4bc5e4)" d="M 1671.994173 372.394224 
L 1673.410084 379.443056 
L 1673.738726 379.749648 
" style="fill:none;stroke:#999999;"/>
    <path clip-path="url(#p06bc4bc5e4)" d="M 1685.182558 389.316979 
L 1687.241999 381.908758 
" style="fill:none;stroke:#999999;"/>
    <path clip-path="url(#p06bc4bc5e4)" d="M 1685.182558 389.316979 
L 1682.592512 395.616467 
" style="fill:none;stroke:#999999;"/>
    <path clip-path="url(#p06bc4bc5e4)" d="M 1685.182558 389.316979 
L 1679.54425 387.134712 
" style="fill:none;stroke:#999999;"/>
    <path clip-path="url(#p06bc4bc5e4)" d="M 1685.182558 389.316979 
L 1689.380343 389.084488 
L 1694.329517 386.358507 
" style="fill:none;stroke:#999999;"/>
    <path clip-path="url(#p06bc4bc5e4)" d="M 1677.683152 361.663512 
L 1673.633763 353.909797 
" style="fill:none;stroke:#999999;"/>
    <path clip-path="url(#p06bc4bc5e4)" d="M 1677.683152 361.663512 
L 1681.315587 359.548862 
" style="fill:none;stroke:#999999;"/>
    <path clip-path="url(#p06bc4bc5e4)" d="M 1677.683152 361.663512 
L 1673.923315 364.039367 
L 1671.839262 365.246282 
" style="fill:none;stroke:#999999;"/>
    <path clip-path="url(#p06bc4bc5e4)" d="M 1713.337181 353.670822 
L 1719.928116 352.728816 
" style="fill:none;stroke:#999999;"/>
    <path clip-path="url(#p06bc4bc5e4)" d="M 1713.337181 353.670822 
L 1712.511957 351.457063 
" style="fill:none;stroke:#999999;"/>
    <path clip-path="url(#p06bc4bc5e4)" d="M 1713.337181 353.670822 
L 1713.76427 354.991667 
L 1713.938726 356.176353 
" style="fill:none;stroke:#999999;"/>
    <path clip-path="url(#p06bc4bc5e4)" d="M 1728.481492 385.875 
L 1721.009594 388.324955 
" style="fill:none;stroke:#999999;"/>
    <path clip-path="url(#p06bc4bc5e4)" d="M 1728.481492 385.875 
L 1726.906328 383.492661 
L 1725.082148 380.731483 
" style="fill:none;stroke:#999999;"/>
    <path clip-path="url(#p06bc4bc5e4)" d="M 1728.481492 385.875 
L 1732.683621 392.347698 
L 1737.765988 398.817619 
L 1743.260968 404.168618 
L 1749.19462 409.331586 
" style="fill:none;stroke:#999999;"/>
    <path clip-path="url(#p06bc4bc5e4)" d="M 1671.839262 365.246282 
L 1670.584053 366.376319 
" style="fill:none;stroke:#999999;"/>
    <path clip-path="url(#p06bc4bc5e4)" d="M 1671.839262 365.246282 
L 1672.315576 360.553854 
L 1672.950419 356.216182 
L 1673.633763 353.909797 
" style="fill:none;stroke:#999999;"/>
    <path clip-path="url(#p06bc4bc5e4)" d="M 1671.839262 365.246282 
L 1673.923315 364.039367 
L 1677.683152 361.663512 
" style="fill:none;stroke:#999999;"/>
    <path clip-path="url(#p06bc4bc5e4)" d="M 1713.81277 365.374106 
L 1710.836896 361.496785 
" style="fill:none;stroke:#999999;"/>
    <path clip-path="url(#p06bc4bc5e4)" d="M 1713.81277 365.374106 
L 1719.181071 372.33587 
" style="fill:none;stroke:#999999;"/>
    <path clip-path="url(#p06bc4bc5e4)" d="M 1713.81277 365.374106 
L 1709.107545 369.010599 
" style="fill:none;stroke:#999999;"/>
    <path clip-path="url(#p06bc4bc5e4)" d="M 1713.81277 365.374106 
L 1715.492174 364.081048 
L 1716.82701 363.474349 
" style="fill:none;stroke:#999999;"/>
    <path clip-path="url(#p06bc4bc5e4)" d="M 1699.59937 350.324248 
L 1693.625905 346.608096 
" style="fill:none;stroke:#999999;"/>
    <path clip-path="url(#p06bc4bc5e4)" d="M 1699.59937 350.324248 
L 1702.228505 351.960021 
" style="fill:none;stroke:#999999;"/>
    <path clip-path="url(#p06bc4bc5e4)" d="M 1699.59937 350.324248 
L 1696.98616 351.915561 
" style="fill:none;stroke:#999999;"/>
    <path clip-path="url(#p06bc4bc5e4)" d="M 1677.219869 344.593482 
L 1681.007213 358.422531 
" style="fill:none;stroke:#999999;"/>
    <path clip-path="url(#p06bc4bc5e4)" d="M 1677.219869 344.593482 
L 1676.718943 342.444561 
" style="fill:none;stroke:#999999;"/>
    <path clip-path="url(#p06bc4bc5e4)" d="M 1677.219869 344.593482 
L 1673.633763 353.909797 
" style="fill:none;stroke:#999999;"/>
    <path clip-path="url(#p06bc4bc5e4)" d="M 1682.987751 342.214849 
L 1684.226312 340.977367 
" style="fill:none;stroke:#999999;"/>
    <path clip-path="url(#p06bc4bc5e4)" d="M 1682.987751 342.214849 
L 1687.283984 348.593996 
" style="fill:none;stroke:#999999;"/>
    <path clip-path="url(#p06bc4bc5e4)" d="M 1682.987751 342.214849 
L 1683.626214 350.942989 
" style="fill:none;stroke:#999999;"/>
    <path clip-path="url(#p06bc4bc5e4)" d="M 1682.987751 342.214849 
L 1679.998123 340.658734 
L 1678.733504 339.776009 
" style="fill:none;stroke:#999999;"/>
    <path clip-path="url(#p06bc4bc5e4)" d="M 1673.633763 353.909797 
L 1677.683152 361.663512 
" style="fill:none;stroke:#999999;"/>
    <path clip-path="url(#p06bc4bc5e4)" d="M 1673.633763 353.909797 
L 1667.777567 336.160819 
" style="fill:none;stroke:#999999;"/>
    <path clip-path="url(#p06bc4bc5e4)" d="M 1673.633763 353.909797 
L 1677.219869 344.593482 
" style="fill:none;stroke:#999999;"/>
    <path clip-path="url(#p06bc4bc5e4)" d="M 1673.633763 353.909797 
L 1672.950419 356.216182 
L 1672.315576 360.553854 
L 1671.839262 365.246282 
" style="fill:none;stroke:#999999;"/>
    <path clip-path="url(#p06bc4bc5e4)" d="M 1721.009594 388.324955 
L 1715.814301 380.200736 
" style="fill:none;stroke:#999999;"/>
    <path clip-path="url(#p06bc4bc5e4)" d="M 1721.009594 388.324955 
L 1728.481492 385.875 
" style="fill:none;stroke:#999999;"/>
    <path clip-path="url(#p06bc4bc5e4)" d="M 1721.009594 388.324955 
L 1711.382702 391.257491 
" style="fill:none;stroke:#999999;"/>
    <path clip-path="url(#p06bc4bc5e4)" d="M 1716.82701 363.474349 
L 1716.651831 362.72871 
" style="fill:none;stroke:#999999;"/>
    <path clip-path="url(#p06bc4bc5e4)" d="M 1716.82701 363.474349 
L 1715.492174 364.081048 
L 1713.81277 365.374106 
" style="fill:none;stroke:#999999;"/>
    <path clip-path="url(#p06bc4bc5e4)" d="M 1684.226312 340.977367 
L 1688.90041 343.669076 
" style="fill:none;stroke:#999999;"/>
    <path clip-path="url(#p06bc4bc5e4)" d="M 1684.226312 340.977367 
L 1682.987751 342.214849 
" style="fill:none;stroke:#999999;"/>
    <path clip-path="url(#p06bc4bc5e4)" d="M 1684.226312 340.977367 
L 1681.712997 337.723418 
L 1679.653556 334.567653 
L 1675.660629 327.949532 
" style="fill:none;stroke:#999999;"/>
    <path clip-path="url(#p06bc4bc5e4)" d="M 1684.226312 340.977367 
L 1685.349775 340.834723 
L 1687.356372 339.009992 
L 1689.073418 337.526125 
L 1689.753142 337.460361 
" style="fill:none;stroke:#999999;"/>
    <path clip-path="url(#p06bc4bc5e4)" d="M 1692.98527 376.603146 
L 1689.648179 377.911024 
" style="fill:none;stroke:#999999;"/>
    <path clip-path="url(#p06bc4bc5e4)" d="M 1692.98527 376.603146 
L 1695.623816 382.73035 
" style="fill:none;stroke:#999999;"/>
    <path clip-path="url(#p06bc4bc5e4)" d="M 1692.98527 376.603146 
L 1695.580383 375.587039 
L 1700.668542 372.900888 
" style="fill:none;stroke:#999999;"/>
    <path clip-path="url(#p06bc4bc5e4)" d="M 1675.78007 338.411629 
L 1678.733504 339.776009 
" style="fill:none;stroke:#999999;"/>
    <path clip-path="url(#p06bc4bc5e4)" d="M 1675.78007 338.411629 
L 1673.584539 337.793814 
" style="fill:none;stroke:#999999;"/>
    <path clip-path="url(#p06bc4bc5e4)" d="M 1675.78007 338.411629 
L 1676.718943 342.444561 
" style="fill:none;stroke:#999999;"/>
    <path clip-path="url(#p06bc4bc5e4)" d="M 1739.535153 348.682916 
L 1731.200389 353.279014 
" style="fill:none;stroke:#999999;"/>
    <path clip-path="url(#p06bc4bc5e4)" d="M 1675.660629 327.949532 
L 1669.157283 317.459647 
L 1665.904887 312.362443 
L 1645.006446 276.065126 
L 1633.884016 256.747066 
L 1612.554867 218.289713 
L 1603.929826 160.075252 
L 1602.044116 114.927529 
L 1606.393917 70.144752 
L 1595.590718 8.307692 
" style="fill:none;stroke:#999999;"/>
    <path clip-path="url(#p06bc4bc5e4)" d="M 1675.660629 327.949532 
L 1679.653556 334.567653 
L 1681.712997 337.723418 
L 1684.226312 340.977367 
" style="fill:none;stroke:#999999;"/>
    <path clip-path="url(#p06bc4bc5e4)" d="M 1675.660629 327.949532 
L 1670.031008 327.358579 
L 1667.479328 327.009379 
" style="fill:none;stroke:#999999;"/>
    <path clip-path="url(#p06bc4bc5e4)" d="M 1709.107545 369.010599 
L 1702.469557 371.950546 
" style="fill:none;stroke:#999999;"/>
    <path clip-path="url(#p06bc4bc5e4)" d="M 1709.107545 369.010599 
L 1713.81277 365.374106 
" style="fill:none;stroke:#999999;"/>
    <path clip-path="url(#p06bc4bc5e4)" d="M 1709.107545 369.010599 
L 1705.748738 363.876345 
" style="fill:none;stroke:#999999;"/>
    <path clip-path="url(#p06bc4bc5e4)" d="M 1709.107545 369.010599 
L 1712.686412 370.770492 
" style="fill:none;stroke:#999999;"/>
    <path clip-path="url(#p06bc4bc5e4)" d="M 1680.463579 400.794256 
L 1682.592512 395.616467 
" style="fill:none;stroke:#999999;"/>
    <path clip-path="url(#p06bc4bc5e4)" d="M 1680.463579 400.794256 
L 1687.062477 398.849111 
L 1699.566795 394.979201 
" style="fill:none;stroke:#999999;"/>
    <path clip-path="url(#p06bc4bc5e4)" d="M 1595.590718 8.307692 
L 1606.393917 70.144752 
L 1602.044116 114.927529 
L 1603.929826 160.075252 
L 1612.554867 218.289713 
L 1633.884016 256.747066 
L 1645.006446 276.065126 
L 1665.904887 312.362443 
L 1669.157283 317.459647 
L 1675.660629 327.949532 
" style="fill:none;stroke:#999999;"/>
    <path clip-path="url(#p06bc4bc5e4)" d="M 1734.675017 370.838109 
L 1725.082148 380.731483 
" style="fill:none;stroke:#999999;"/>
    <path clip-path="url(#p06bc4bc5e4)" d="M 1646.231252 324.099999 
L 1659.965444 325.980305 
" style="fill:none;stroke:#999999;"/>
    <path clip-path="url(#p06bc4bc5e4)" d="M 1646.231252 324.099999 
L 1639.797399 323.095934 
L 1533.67212 308.842658 
L 1390.897477 290.816729 
L 1344.269415 295.05807 
" style="fill:none;stroke:#999999;"/>
    <path clip-path="url(#p06bc4bc5e4)" d="M 1646.231252 324.099999 
L 1657.000428 332.162158 
L 1663.38361 334.752905 
L 1665.381521 335.39295 
" style="fill:none;stroke:#999999;"/>
    <path clip-path="url(#p06bc4bc5e4)" d="M 1688.90041 343.669076 
L 1684.226312 340.977367 
" style="fill:none;stroke:#999999;"/>
    <path clip-path="url(#p06bc4bc5e4)" d="M 1688.90041 343.669076 
L 1693.625905 346.608096 
" style="fill:none;stroke:#999999;"/>
    <path clip-path="url(#p06bc4bc5e4)" d="M 1688.90041 343.669076 
L 1696.98616 351.915561 
" style="fill:none;stroke:#999999;"/>
    <path clip-path="url(#p06bc4bc5e4)" d="M 1696.98616 351.915561 
L 1699.59937 350.324248 
" style="fill:none;stroke:#999999;"/>
    <path clip-path="url(#p06bc4bc5e4)" d="M 1696.98616 351.915561 
L 1691.871941 355.406632 
" style="fill:none;stroke:#999999;"/>
    <path clip-path="url(#p06bc4bc5e4)" d="M 1696.98616 351.915561 
L 1688.90041 343.669076 
" style="fill:none;stroke:#999999;"/>
    <path clip-path="url(#p06bc4bc5e4)" d="M 1696.98616 351.915561 
L 1700.713422 356.581128 
" style="fill:none;stroke:#999999;"/>
    <path clip-path="url(#p06bc4bc5e4)" d="M 1686.699812 372.536868 
L 1681.846915 373.155609 
" style="fill:none;stroke:#999999;"/>
    <path clip-path="url(#p06bc4bc5e4)" d="M 1686.699812 372.536868 
L 1685.054431 364.140329 
L 1684.454334 358.532756 
" style="fill:none;stroke:#999999;"/>
    <path clip-path="url(#p06bc4bc5e4)" d="M 1686.699812 372.536868 
L 1687.303529 374.42551 
L 1688.126582 378.173155 
" style="fill:none;stroke:#999999;"/>
    <path clip-path="url(#p06bc4bc5e4)" d="M 1682.592512 395.616467 
L 1685.182558 389.316979 
" style="fill:none;stroke:#999999;"/>
    <path clip-path="url(#p06bc4bc5e4)" d="M 1682.592512 395.616467 
L 1680.463579 400.794256 
" style="fill:none;stroke:#999999;"/>
    <path clip-path="url(#p06bc4bc5e4)" d="M 1682.592512 395.616467 
L 1679.54425 387.134712 
" style="fill:none;stroke:#999999;"/>
    <path clip-path="url(#p06bc4bc5e4)" d="M 1698.252951 391.802132 
L 1709.268246 388.209173 
" style="fill:none;stroke:#999999;"/>
    <path clip-path="url(#p06bc4bc5e4)" d="M 1698.252951 391.802132 
L 1699.566795 394.979201 
" style="fill:none;stroke:#999999;"/>
    <path clip-path="url(#p06bc4bc5e4)" d="M 1698.252951 391.802132 
L 1696.325256 388.602833 
L 1695.010689 386.586367 
" style="fill:none;stroke:#999999;"/>
    <path clip-path="url(#p06bc4bc5e4)" d="M 1699.566795 394.979201 
L 1698.252951 391.802132 
" style="fill:none;stroke:#999999;"/>
    <path clip-path="url(#p06bc4bc5e4)" d="M 1699.566795 394.979201 
L 1700.425318 397.251314 
L 1703.307087 405.979454 
L 1704.005632 409.941065 
" style="fill:none;stroke:#999999;"/>
    <path clip-path="url(#p06bc4bc5e4)" d="M 1699.566795 394.979201 
L 1709.047463 391.968858 
L 1711.382702 391.257491 
" style="fill:none;stroke:#999999;"/>
    <path clip-path="url(#p06bc4bc5e4)" d="M 1699.566795 394.979201 
L 1687.062477 398.849111 
L 1680.463579 400.794256 
" style="fill:none;stroke:#999999;"/>
    <path clip-path="url(#p06bc4bc5e4)" d="M 1682.559214 378.668704 
L 1682.698923 381.787418 
" style="fill:none;stroke:#999999;"/>
    <path clip-path="url(#p06bc4bc5e4)" d="M 1682.559214 378.668704 
L 1681.846915 373.155609 
" style="fill:none;stroke:#999999;"/>
    <path clip-path="url(#p06bc4bc5e4)" d="M 1682.559214 378.668704 
L 1676.148525 380.253533 
" style="fill:none;stroke:#999999;"/>
    <path clip-path="url(#p06bc4bc5e4)" d="M 1682.559214 378.668704 
L 1688.126582 378.173155 
" style="fill:none;stroke:#999999;"/>
    <path clip-path="url(#p06bc4bc5e4)" d="M 1711.382702 391.257491 
L 1709.268246 388.209173 
" style="fill:none;stroke:#999999;"/>
    <path clip-path="url(#p06bc4bc5e4)" d="M 1711.382702 391.257491 
L 1721.009594 388.324955 
" style="fill:none;stroke:#999999;"/>
    <path clip-path="url(#p06bc4bc5e4)" d="M 1711.382702 391.257491 
L 1709.047463 391.968858 
L 1699.566795 394.979201 
" style="fill:none;stroke:#999999;"/>
    <path clip-path="url(#p06bc4bc5e4)" d="M 1709.268246 388.209173 
L 1698.252951 391.802132 
" style="fill:none;stroke:#999999;"/>
    <path clip-path="url(#p06bc4bc5e4)" d="M 1709.268246 388.209173 
L 1707.184193 385.02562 
" style="fill:none;stroke:#999999;"/>
    <path clip-path="url(#p06bc4bc5e4)" d="M 1709.268246 388.209173 
L 1711.382702 391.257491 
" style="fill:none;stroke:#999999;"/>
    <path clip-path="url(#p06bc4bc5e4)" d="M 1679.54425 387.134712 
L 1685.182558 389.316979 
" style="fill:none;stroke:#999999;"/>
    <path clip-path="url(#p06bc4bc5e4)" d="M 1679.54425 387.134712 
L 1677.704145 382.576591 
" style="fill:none;stroke:#999999;"/>
    <path clip-path="url(#p06bc4bc5e4)" d="M 1679.54425 387.134712 
L 1682.592512 395.616467 
" style="fill:none;stroke:#999999;"/>
    <path clip-path="url(#p06bc4bc5e4)" d="M 1687.241999 381.908758 
L 1685.182558 389.316979 
" style="fill:none;stroke:#999999;"/>
    <path clip-path="url(#p06bc4bc5e4)" d="M 1687.241999 381.908758 
L 1689.510642 381.782787 
" style="fill:none;stroke:#999999;"/>
    <path clip-path="url(#p06bc4bc5e4)" d="M 1687.241999 381.908758 
L 1687.68429 381.21499 
" style="fill:none;stroke:#999999;"/>
    <path clip-path="url(#p06bc4bc5e4)" d="M 1712.511957 351.457063 
L 1713.337181 353.670822 
" style="fill:none;stroke:#999999;"/>
    <path clip-path="url(#p06bc4bc5e4)" d="M 1712.511957 351.457063 
L 1720.253862 350.529877 
L 1725.182767 351.111568 
L 1727.470955 352.302737 
L 1731.200389 353.279014 
" style="fill:none;stroke:#999999;"/>
    <path clip-path="url(#p06bc4bc5e4)" d="M 1712.511957 351.457063 
L 1705.894962 352.662126 
L 1702.228505 351.960021 
" style="fill:none;stroke:#999999;"/>
    <path clip-path="url(#p06bc4bc5e4)" d="M 1694.329517 386.358507 
L 1695.010689 386.586367 
" style="fill:none;stroke:#999999;"/>
    <path clip-path="url(#p06bc4bc5e4)" d="M 1694.329517 386.358507 
L 1689.380343 389.084488 
L 1685.182558 389.316979 
" style="fill:none;stroke:#999999;"/>
    <path clip-path="url(#p06bc4bc5e4)" d="M 1694.329517 386.358507 
L 1692.535016 385.469298 
L 1690.387986 383.978947 
L 1689.510642 381.782787 
" style="fill:none;stroke:#999999;"/>
    <path clip-path="url(#p06bc4bc5e4)" d="M 1695.010689 386.586367 
L 1694.329517 386.358507 
" style="fill:none;stroke:#999999;"/>
    <path clip-path="url(#p06bc4bc5e4)" d="M 1695.010689 386.586367 
L 1695.623816 382.73035 
" style="fill:none;stroke:#999999;"/>
    <path clip-path="url(#p06bc4bc5e4)" d="M 1695.010689 386.586367 
L 1696.325256 388.602833 
L 1698.252951 391.802132 
" style="fill:none;stroke:#999999;"/>
    <path clip-path="url(#p06bc4bc5e4)" d="M 1695.010689 386.586367 
L 1697.880153 387.638597 
L 1705.131267 382.204235 
" style="fill:none;stroke:#999999;"/>
    <path clip-path="url(#p06bc4bc5e4)" d="M 1707.184193 385.02562 
L 1715.814301 380.200736 
" style="fill:none;stroke:#999999;"/>
    <path clip-path="url(#p06bc4bc5e4)" d="M 1707.184193 385.02562 
L 1705.131267 382.204235 
" style="fill:none;stroke:#999999;"/>
    <path clip-path="url(#p06bc4bc5e4)" d="M 1707.184193 385.02562 
L 1709.268246 388.209173 
" style="fill:none;stroke:#999999;"/>
    <path clip-path="url(#p06bc4bc5e4)" d="M 1652.576792 383.869649 
L 1657.59401 376.792103 
" style="fill:none;stroke:#999999;"/>
    <path clip-path="url(#p06bc4bc5e4)" d="M 1695.623816 382.73035 
L 1692.98527 376.603146 
" style="fill:none;stroke:#999999;"/>
    <path clip-path="url(#p06bc4bc5e4)" d="M 1695.623816 382.73035 
L 1695.010689 386.586367 
" style="fill:none;stroke:#999999;"/>
    <path clip-path="url(#p06bc4bc5e4)" d="M 1695.623816 382.73035 
L 1702.633878 377.799872 
" style="fill:none;stroke:#999999;"/>
    <path clip-path="url(#p06bc4bc5e4)" d="M 1677.704145 382.576591 
L 1682.698923 381.787418 
" style="fill:none;stroke:#999999;"/>
    <path clip-path="url(#p06bc4bc5e4)" d="M 1677.704145 382.576591 
L 1676.148525 380.253533 
" style="fill:none;stroke:#999999;"/>
    <path clip-path="url(#p06bc4bc5e4)" d="M 1677.704145 382.576591 
L 1679.54425 387.134712 
" style="fill:none;stroke:#999999;"/>
    <path clip-path="url(#p06bc4bc5e4)" d="M 1705.131267 382.204235 
L 1702.633878 377.799872 
" style="fill:none;stroke:#999999;"/>
    <path clip-path="url(#p06bc4bc5e4)" d="M 1705.131267 382.204235 
L 1707.184193 385.02562 
" style="fill:none;stroke:#999999;"/>
    <path clip-path="url(#p06bc4bc5e4)" d="M 1705.131267 382.204235 
L 1713.308949 376.242831 
" style="fill:none;stroke:#999999;"/>
    <path clip-path="url(#p06bc4bc5e4)" d="M 1705.131267 382.204235 
L 1697.880153 387.638597 
L 1695.010689 386.586367 
" style="fill:none;stroke:#999999;"/>
    <path clip-path="url(#p06bc4bc5e4)" d="M 1660.792116 382.182004 
L 1663.77161 381.809648 
" style="fill:none;stroke:#999999;"/>
    <path clip-path="url(#p06bc4bc5e4)" d="M 1689.510642 381.782787 
L 1687.241999 381.908758 
" style="fill:none;stroke:#999999;"/>
    <path clip-path="url(#p06bc4bc5e4)" d="M 1689.510642 381.782787 
L 1689.648179 377.911024 
" style="fill:none;stroke:#999999;"/>
    <path clip-path="url(#p06bc4bc5e4)" d="M 1689.510642 381.782787 
L 1690.387986 383.978947 
L 1692.535016 385.469298 
L 1694.329517 386.358507 
" style="fill:none;stroke:#999999;"/>
    <path clip-path="url(#p06bc4bc5e4)" d="M 1663.77161 381.809648 
L 1662.349908 377.944369 
" style="fill:none;stroke:#999999;"/>
    <path clip-path="url(#p06bc4bc5e4)" d="M 1663.77161 381.809648 
L 1660.792116 382.182004 
" style="fill:none;stroke:#999999;"/>
    <path clip-path="url(#p06bc4bc5e4)" d="M 1663.77161 381.809648 
L 1668.678798 381.10847 
" style="fill:none;stroke:#999999;"/>
    <path clip-path="url(#p06bc4bc5e4)" d="M 1663.77161 381.809648 
L 1664.048856 383.151798 
L 1663.378542 383.948381 
" style="fill:none;stroke:#999999;"/>
    <path clip-path="url(#p06bc4bc5e4)" d="M 1682.698923 381.787418 
L 1682.559214 378.668704 
" style="fill:none;stroke:#999999;"/>
    <path clip-path="url(#p06bc4bc5e4)" d="M 1682.698923 381.787418 
L 1677.704145 382.576591 
" style="fill:none;stroke:#999999;"/>
    <path clip-path="url(#p06bc4bc5e4)" d="M 1682.698923 381.787418 
L 1686.31326 381.10847 
L 1687.68429 381.21499 
" style="fill:none;stroke:#999999;"/>
    <path clip-path="url(#p06bc4bc5e4)" d="M 1668.678798 381.10847 
L 1667.479328 374.438478 
" style="fill:none;stroke:#999999;"/>
    <path clip-path="url(#p06bc4bc5e4)" d="M 1668.678798 381.10847 
L 1663.77161 381.809648 
" style="fill:none;stroke:#999999;"/>
    <path clip-path="url(#p06bc4bc5e4)" d="M 1668.678798 381.10847 
L 1673.738726 379.749648 
" style="fill:none;stroke:#999999;"/>
    <path clip-path="url(#p06bc4bc5e4)" d="M 1681.315587 359.548862 
L 1681.515378 364.670149 
" style="fill:none;stroke:#999999;"/>
    <path clip-path="url(#p06bc4bc5e4)" d="M 1681.315587 359.548862 
L 1681.007213 358.422531 
" style="fill:none;stroke:#999999;"/>
    <path clip-path="url(#p06bc4bc5e4)" d="M 1681.315587 359.548862 
L 1684.454334 358.532756 
" style="fill:none;stroke:#999999;"/>
    <path clip-path="url(#p06bc4bc5e4)" d="M 1681.315587 359.548862 
L 1677.683152 361.663512 
" style="fill:none;stroke:#999999;"/>
    <path clip-path="url(#p06bc4bc5e4)" d="M 1687.68429 381.21499 
L 1688.193903 378.480673 
" style="fill:none;stroke:#999999;"/>
    <path clip-path="url(#p06bc4bc5e4)" d="M 1687.68429 381.21499 
L 1687.241999 381.908758 
" style="fill:none;stroke:#999999;"/>
    <path clip-path="url(#p06bc4bc5e4)" d="M 1687.68429 381.21499 
L 1686.31326 381.10847 
L 1682.698923 381.787418 
" style="fill:none;stroke:#999999;"/>
    <path clip-path="url(#p06bc4bc5e4)" d="M 1676.148525 380.253533 
L 1682.559214 378.668704 
" style="fill:none;stroke:#999999;"/>
    <path clip-path="url(#p06bc4bc5e4)" d="M 1676.148525 380.253533 
L 1675.368905 380.090511 
" style="fill:none;stroke:#999999;"/>
    <path clip-path="url(#p06bc4bc5e4)" d="M 1676.148525 380.253533 
L 1677.704145 382.576591 
" style="fill:none;stroke:#999999;"/>
    <path clip-path="url(#p06bc4bc5e4)" d="M 1673.738726 379.749648 
L 1668.678798 381.10847 
" style="fill:none;stroke:#999999;"/>
    <path clip-path="url(#p06bc4bc5e4)" d="M 1673.738726 379.749648 
L 1675.368905 380.090511 
" style="fill:none;stroke:#999999;"/>
    <path clip-path="url(#p06bc4bc5e4)" d="M 1673.738726 379.749648 
L 1673.410084 379.443056 
L 1671.994173 372.394224 
" style="fill:none;stroke:#999999;"/>
    <path clip-path="url(#p06bc4bc5e4)" d="M 1715.814301 380.200736 
L 1721.009594 388.324955 
" style="fill:none;stroke:#999999;"/>
    <path clip-path="url(#p06bc4bc5e4)" d="M 1715.814301 380.200736 
L 1707.184193 385.02562 
" style="fill:none;stroke:#999999;"/>
    <path clip-path="url(#p06bc4bc5e4)" d="M 1715.814301 380.200736 
L 1722.769348 377.301545 
" style="fill:none;stroke:#999999;"/>
    <path clip-path="url(#p06bc4bc5e4)" d="M 1715.814301 380.200736 
L 1715.427749 379.596815 
L 1713.308949 376.242831 
" style="fill:none;stroke:#999999;"/>
    <path clip-path="url(#p06bc4bc5e4)" d="M 1344.269415 295.05807 
L 1390.897477 290.816729 
L 1533.67212 308.842658 
L 1639.797399 323.095934 
L 1646.231252 324.099999 
" style="fill:none;stroke:#999999;"/>
    <path clip-path="url(#p06bc4bc5e4)" d="M 1344.269415 295.05807 
L 1343.186489 295.156253 
L 1334.089478 295.728682 
L 1328.147864 292.74057 
L 1324.325049 284.561701 
L 1319.176084 282.191404 
L 1296.806718 281.751431 
L 1261.933033 276.733885 
L 1067.021594 252.694682 
L 1016.278269 246.082118 
L 948.572967 231.519472 
L 883.338271 216.93089 
L 748.889705 188.378953 
L 739.401075 186.513467 
L 544.926135 180.993888 
L 475.69055 192.730518 
L 377.281841 208.048065 
L 357.443162 210.041375 
L 340.968357 209.402256 
L 303.737716 212.537643 
L 277.439124 195.459277 
L 248.227635 189.408953 
" style="fill:none;stroke:#999999;"/>
    <path clip-path="url(#p06bc4bc5e4)" d="M 1344.269415 295.05807 
L 1341.327563 297.549707 
L 1338.345897 297.57379 
L 1336.109829 297.669194 
L 1331.468305 299.015975 
L 1328.859439 299.954276 
L 1327.801125 300.675832 
L 1326.346848 303.0804 
L 1322.415451 310.88506 
L 1320.731704 315.394089 
L 1318.952405 322.10391 
L 1318.255308 323.860098 
L 1317.173106 331.580468 
L 1317.100718 333.131952 
L 1317.353352 334.18974 
L 1317.894091 335.416107 
L 1320.851868 338.663571 
L 1321.790018 339.685235 
L 1323.268907 341.260802 
L 1324.81946 343.112394 
L 1328.198535 349.594355 
L 1329.797588 352.793655 
L 1331.93738 357.326767 
L 1333.765179 359.768386 
L 1335.183986 360.934546 
L 1336.434128 361.559771 
L 1340.570383 362.029384 
L 1342.361265 362.341534 
L 1353.399 363.880976 
L 1358.941756 365.191633 
L 1363.197452 366.226265 
L 1365.001363 367.284979 
L 1374.475516 377.638703 
L 1381.256108 386.406672 
L 1387.688513 394.77635 
L 1390.009275 397.591251 
L 1392.870776 402.569894 
L 1394.325777 405.119886 
L 1396.201352 407.392926 
L 1398.762443 408.799913 
L 1399.628204 409.208394 
L 1401.599332 409.833618 
L 1403.414825 409.929949 
L 1405.375094 409.533511 
L 1407.407028 408.739706 
L 1409.029969 407.656909 
L 1411.410813 405.480201 
L 1413.093836 404.025047 
L 1413.706963 403.460029 
L 1424.094654 393.838976 
L 1431.452903 387.14027 
L 1433.448642 384.337409 
L 1434.062493 382.858174 
L 1435.805598 380.886168 
L 1437.608786 380.453605 
L 1439.172368 381.199243 
L 1443.488146 386.779029 
L 1444.029609 387.356088 
L 1446.361953 388.523174 
L 1447.239297 388.823282 
L 1448.393887 388.811241 
L 1449.583947 388.294388 
L 1450.329544 387.54875 
L 1451.39944 386.394631 
L 1453.214933 382.016204 
L 1453.996725 381.247409 
L 1459.827585 380.23686 
L 1462.052071 380.405439 
L 1470.011141 381.667931 
L 1471.550112 381.764262 
L 1478.22357 379.911743 
L 1494.250292 375.714863 
L 1504.397654 372.997219 
L 1510.457261 371.554107 
L 1515.939935 371.361445 
L 1523.682564 371.096535 
L 1525.867237 370.8131 
L 1529.648067 369.965573 
L 1534.035509 369.625636 
L 1539.944548 369.384808 
L 1548.02885 369.430195 
L 1552.713083 370.215663 
L 1563.134072 371.627282 
L 1564.793931 372.057992 
L 1569.28344 373.350124 
L 1572.649486 374.285645 
L 1580.233586 375.595376 
L 1586.490812 376.27525 
L 1600.636892 377.908245 
L 1604.734782 378.503829 
L 1607.608589 379.370808 
L 1609.869992 380.034009 
L 1612.794471 380.340601 
L 1617.266607 380.374873 
L 1622.265728 380.544378 
L 1625.445013 379.608857 
L 1628.607649 379.762616 
L 1633.283919 380.459162 
L 1637.160301 380.85097 
L 1640.22087 380.697211 
L 1645.424125 379.710745 
L 1649.215813 378.894711 
L 1657.275503 376.649459 
L 1657.59401 376.792103 
" style="fill:none;stroke:#999999;"/>
    <path clip-path="url(#p06bc4bc5e4)" d="M 1688.126582 378.173155 
L 1682.559214 378.668704 
" style="fill:none;stroke:#999999;"/>
    <path clip-path="url(#p06bc4bc5e4)" d="M 1688.126582 378.173155 
L 1688.193903 378.480673 
" style="fill:none;stroke:#999999;"/>
    <path clip-path="url(#p06bc4bc5e4)" d="M 1688.126582 378.173155 
L 1687.303529 374.42551 
L 1686.699812 372.536868 
" style="fill:none;stroke:#999999;"/>
    <path clip-path="url(#p06bc4bc5e4)" d="M 1662.349908 377.944369 
L 1661.208348 374.841401 
" style="fill:none;stroke:#999999;"/>
    <path clip-path="url(#p06bc4bc5e4)" d="M 1662.349908 377.944369 
L 1663.77161 381.809648 
" style="fill:none;stroke:#999999;"/>
    <path clip-path="url(#p06bc4bc5e4)" d="M 1662.349908 377.944369 
L 1664.866842 377.05516 
L 1667.479328 374.438478 
" style="fill:none;stroke:#999999;"/>
    <path clip-path="url(#p06bc4bc5e4)" d="M 1689.648179 377.911024 
L 1692.98527 376.603146 
" style="fill:none;stroke:#999999;"/>
    <path clip-path="url(#p06bc4bc5e4)" d="M 1689.648179 377.911024 
L 1688.193903 378.480673 
" style="fill:none;stroke:#999999;"/>
    <path clip-path="url(#p06bc4bc5e4)" d="M 1689.648179 377.911024 
L 1689.510642 381.782787 
" style="fill:none;stroke:#999999;"/>
    <path clip-path="url(#p06bc4bc5e4)" d="M 1689.648179 377.911024 
L 1689.872582 374.493127 
L 1690.33659 373.085213 
" style="fill:none;stroke:#999999;"/>
    <path clip-path="url(#p06bc4bc5e4)" d="M 1702.469557 371.950546 
L 1700.668542 372.900888 
" style="fill:none;stroke:#999999;"/>
    <path clip-path="url(#p06bc4bc5e4)" d="M 1702.469557 371.950546 
L 1709.107545 369.010599 
" style="fill:none;stroke:#999999;"/>
    <path clip-path="url(#p06bc4bc5e4)" d="M 1702.469557 371.950546 
L 1701.78187 370.741778 
L 1699.479205 366.578243 
" style="fill:none;stroke:#999999;"/>
    <path clip-path="url(#p06bc4bc5e4)" d="M 1722.769348 377.301545 
L 1721.204318 374.959962 
" style="fill:none;stroke:#999999;"/>
    <path clip-path="url(#p06bc4bc5e4)" d="M 1722.769348 377.301545 
L 1725.082148 380.731483 
" style="fill:none;stroke:#999999;"/>
    <path clip-path="url(#p06bc4bc5e4)" d="M 1722.769348 377.301545 
L 1715.814301 380.200736 
" style="fill:none;stroke:#999999;"/>
    <path clip-path="url(#p06bc4bc5e4)" d="M 1702.633878 377.799872 
L 1705.131267 382.204235 
" style="fill:none;stroke:#999999;"/>
    <path clip-path="url(#p06bc4bc5e4)" d="M 1702.633878 377.799872 
L 1695.623816 382.73035 
" style="fill:none;stroke:#999999;"/>
    <path clip-path="url(#p06bc4bc5e4)" d="M 1702.633878 377.799872 
L 1710.815904 372.296967 
" style="fill:none;stroke:#999999;"/>
    <path clip-path="url(#p06bc4bc5e4)" d="M 1657.59401 376.792103 
L 1661.208348 374.841401 
" style="fill:none;stroke:#999999;"/>
    <path clip-path="url(#p06bc4bc5e4)" d="M 1657.59401 376.792103 
L 1652.576792 383.869649 
" style="fill:none;stroke:#999999;"/>
    <path clip-path="url(#p06bc4bc5e4)" d="M 1657.59401 376.792103 
L 1657.275503 376.649459 
L 1649.215813 378.894711 
L 1645.424125 379.710745 
L 1640.22087 380.697211 
L 1637.160301 380.85097 
L 1633.283919 380.459162 
L 1628.607649 379.762616 
L 1625.445013 379.608857 
L 1622.265728 380.544378 
L 1617.266607 380.374873 
L 1612.794471 380.340601 
L 1609.869992 380.034009 
L 1607.608589 379.370808 
L 1604.734782 378.503829 
L 1600.636892 377.908245 
L 1586.490812 376.27525 
L 1580.233586 375.595376 
L 1572.649486 374.285645 
L 1569.28344 373.350124 
L 1564.793931 372.057992 
L 1563.134072 371.627282 
L 1552.713083 370.215663 
L 1548.02885 369.430195 
L 1539.944548 369.384808 
L 1534.035509 369.625636 
L 1529.648067 369.965573 
L 1525.867237 370.8131 
L 1523.682564 371.096535 
L 1515.939935 371.361445 
L 1510.457261 371.554107 
L 1504.397654 372.997219 
L 1494.250292 375.714863 
L 1478.22357 379.911743 
L 1471.550112 381.764262 
L 1470.011141 381.667931 
L 1462.052071 380.405439 
L 1459.827585 380.23686 
L 1453.996725 381.247409 
L 1453.214933 382.016204 
L 1451.39944 386.394631 
L 1450.329544 387.54875 
L 1449.583947 388.294388 
L 1448.393887 388.811241 
L 1447.239297 388.823282 
L 1446.361953 388.523174 
L 1444.029609 387.356088 
L 1443.488146 386.779029 
L 1439.172368 381.199243 
L 1437.608786 380.453605 
L 1435.805598 380.886168 
L 1434.062493 382.858174 
L 1433.448642 384.337409 
L 1431.452903 387.14027 
L 1424.094654 393.838976 
L 1413.706963 403.460029 
L 1413.093836 404.025047 
L 1411.410813 405.480201 
L 1409.029969 407.656909 
L 1407.407028 408.739706 
L 1405.375094 409.533511 
L 1403.414825 409.929949 
L 1401.599332 409.833618 
L 1399.628204 409.208394 
L 1398.762443 408.799913 
L 1396.201352 407.392926 
L 1394.325777 405.119886 
L 1392.870776 402.569894 
L 1390.009275 397.591251 
L 1387.688513 394.77635 
L 1381.256108 386.406672 
L 1374.475516 377.638703 
L 1365.001363 367.284979 
L 1363.197452 366.226265 
L 1358.941756 365.191633 
L 1353.399 363.880976 
L 1342.361265 362.341534 
L 1340.570383 362.029384 
L 1336.434128 361.559771 
L 1335.183986 360.934546 
L 1333.765179 359.768386 
L 1331.93738 357.326767 
L 1329.797588 352.793655 
L 1328.198535 349.594355 
L 1324.81946 343.112394 
L 1323.268907 341.260802 
L 1321.790018 339.685235 
L 1320.851868 338.663571 
L 1317.894091 335.416107 
L 1317.353352 334.18974 
L 1317.100718 333.131952 
L 1317.173106 331.580468 
L 1318.255308 323.860098 
L 1318.952405 322.10391 
L 1320.731704 315.394089 
L 1322.415451 310.88506 
L 1326.346848 303.0804 
L 1327.801125 300.675832 
L 1328.859439 299.954276 
L 1331.468305 299.015975 
L 1336.109829 297.669194 
L 1338.345897 297.57379 
L 1341.327563 297.549707 
L 1344.269415 295.05807 
" style="fill:none;stroke:#999999;"/>
    <path clip-path="url(#p06bc4bc5e4)" d="M 1657.59401 376.792103 
L 1658.869489 375.670403 
L 1661.385698 373.456643 
L 1664.507073 371.053927 
" style="fill:none;stroke:#999999;"/>
    <path clip-path="url(#p06bc4bc5e4)" d="M 1713.308949 376.242831 
L 1710.815904 372.296967 
" style="fill:none;stroke:#999999;"/>
    <path clip-path="url(#p06bc4bc5e4)" d="M 1713.308949 376.242831 
L 1705.131267 382.204235 
" style="fill:none;stroke:#999999;"/>
    <path clip-path="url(#p06bc4bc5e4)" d="M 1713.308949 376.242831 
L 1715.427749 379.596815 
L 1715.814301 380.200736 
" style="fill:none;stroke:#999999;"/>
    <path clip-path="url(#p06bc4bc5e4)" d="M 1721.204318 374.959962 
L 1719.181071 372.33587 
" style="fill:none;stroke:#999999;"/>
    <path clip-path="url(#p06bc4bc5e4)" d="M 1721.204318 374.959962 
L 1722.769348 377.301545 
" style="fill:none;stroke:#999999;"/>
    <path clip-path="url(#p06bc4bc5e4)" d="M 1721.204318 374.959962 
L 1712.686412 370.770492 
" style="fill:none;stroke:#999999;"/>
    <path clip-path="url(#p06bc4bc5e4)" d="M 1661.208348 374.841401 
L 1657.59401 376.792103 
" style="fill:none;stroke:#999999;"/>
    <path clip-path="url(#p06bc4bc5e4)" d="M 1661.208348 374.841401 
L 1662.349908 377.944369 
" style="fill:none;stroke:#999999;"/>
    <path clip-path="url(#p06bc4bc5e4)" d="M 1661.208348 374.841401 
L 1662.196445 374.28935 
L 1667.232484 373.066688 
" style="fill:none;stroke:#999999;"/>
    <path clip-path="url(#p06bc4bc5e4)" d="M 1667.479328 374.438478 
L 1668.678798 381.10847 
" style="fill:none;stroke:#999999;"/>
    <path clip-path="url(#p06bc4bc5e4)" d="M 1667.479328 374.438478 
L 1667.232484 373.066688 
" style="fill:none;stroke:#999999;"/>
    <path clip-path="url(#p06bc4bc5e4)" d="M 1667.479328 374.438478 
L 1664.866842 377.05516 
L 1662.349908 377.944369 
" style="fill:none;stroke:#999999;"/>
    <path clip-path="url(#p06bc4bc5e4)" d="M 1731.200389 353.279014 
L 1739.535153 348.682916 
" style="fill:none;stroke:#999999;"/>
    <path clip-path="url(#p06bc4bc5e4)" d="M 1731.200389 353.279014 
L 1726.555969 355.841047 
L 1719.27228 360.16853 
L 1716.651831 362.72871 
" style="fill:none;stroke:#999999;"/>
    <path clip-path="url(#p06bc4bc5e4)" d="M 1731.200389 353.279014 
L 1727.470955 352.302737 
L 1725.182767 351.111568 
L 1720.253862 350.529877 
L 1712.511957 351.457063 
" style="fill:none;stroke:#999999;"/>
    <path clip-path="url(#p06bc4bc5e4)" d="M 1690.33659 373.085213 
L 1700.668542 372.900888 
" style="fill:none;stroke:#999999;"/>
    <path clip-path="url(#p06bc4bc5e4)" d="M 1690.33659 373.085213 
L 1689.872582 374.493127 
L 1689.648179 377.911024 
" style="fill:none;stroke:#999999;"/>
    <path clip-path="url(#p06bc4bc5e4)" d="M 1690.33659 373.085213 
L 1690.519732 370.547263 
L 1691.461501 369.254206 
" style="fill:none;stroke:#999999;"/>
    <path clip-path="url(#p06bc4bc5e4)" d="M 1702.228505 351.960021 
L 1699.59937 350.324248 
" style="fill:none;stroke:#999999;"/>
    <path clip-path="url(#p06bc4bc5e4)" d="M 1702.228505 351.960021 
L 1704.499319 353.372566 
L 1704.833028 353.800498 
" style="fill:none;stroke:#999999;"/>
    <path clip-path="url(#p06bc4bc5e4)" d="M 1702.228505 351.960021 
L 1705.894962 352.662126 
L 1712.511957 351.457063 
" style="fill:none;stroke:#999999;"/>
    <path clip-path="url(#p06bc4bc5e4)" d="M 1667.777567 336.160819 
L 1673.584539 337.793814 
" style="fill:none;stroke:#999999;"/>
    <path clip-path="url(#p06bc4bc5e4)" d="M 1667.777567 336.160819 
L 1665.381521 335.39295 
" style="fill:none;stroke:#999999;"/>
    <path clip-path="url(#p06bc4bc5e4)" d="M 1667.777567 336.160819 
L 1673.633763 353.909797 
" style="fill:none;stroke:#999999;"/>
    <path clip-path="url(#p06bc4bc5e4)" d="M 1667.232484 373.066688 
L 1671.994173 372.394224 
" style="fill:none;stroke:#999999;"/>
    <path clip-path="url(#p06bc4bc5e4)" d="M 1667.232484 373.066688 
L 1667.479328 374.438478 
" style="fill:none;stroke:#999999;"/>
    <path clip-path="url(#p06bc4bc5e4)" d="M 1667.232484 373.066688 
L 1662.196445 374.28935 
L 1661.208348 374.841401 
" style="fill:none;stroke:#999999;"/>
    <path clip-path="url(#p06bc4bc5e4)" d="M 1664.507073 371.053927 
L 1667.177469 368.998558 
" style="fill:none;stroke:#999999;"/>
    <path clip-path="url(#p06bc4bc5e4)" d="M 1664.507073 371.053927 
L 1671.116829 368.652137 
" style="fill:none;stroke:#999999;"/>
    <path clip-path="url(#p06bc4bc5e4)" d="M 1664.507073 371.053927 
L 1661.385698 373.456643 
L 1658.869489 375.670403 
L 1657.59401 376.792103 
" style="fill:none;stroke:#999999;"/>
    <path clip-path="url(#p06bc4bc5e4)" d="M 1700.668542 372.900888 
L 1702.469557 371.950546 
" style="fill:none;stroke:#999999;"/>
    <path clip-path="url(#p06bc4bc5e4)" d="M 1700.668542 372.900888 
L 1690.33659 373.085213 
" style="fill:none;stroke:#999999;"/>
    <path clip-path="url(#p06bc4bc5e4)" d="M 1700.668542 372.900888 
L 1695.580383 375.587039 
L 1692.98527 376.603146 
" style="fill:none;stroke:#999999;"/>
    <path clip-path="url(#p06bc4bc5e4)" d="M 1675.27842 372.680438 
L 1671.994173 372.394224 
" style="fill:none;stroke:#999999;"/>
    <path clip-path="url(#p06bc4bc5e4)" d="M 1675.27842 372.680438 
L 1675.368905 380.090511 
" style="fill:none;stroke:#999999;"/>
    <path clip-path="url(#p06bc4bc5e4)" d="M 1675.27842 372.680438 
L 1676.413465 372.779548 
L 1681.846915 373.155609 
" style="fill:none;stroke:#999999;"/>
    <path clip-path="url(#p06bc4bc5e4)" d="M 1691.461501 369.254206 
L 1690.519732 370.547263 
L 1690.33659 373.085213 
" style="fill:none;stroke:#999999;"/>
    <path clip-path="url(#p06bc4bc5e4)" d="M 1691.461501 369.254206 
L 1693.017121 368.881849 
L 1695.90251 367.852776 
" style="fill:none;stroke:#999999;"/>
    <path clip-path="url(#p06bc4bc5e4)" d="M 1691.461501 369.254206 
L 1690.878053 367.222919 
L 1689.045187 364.505275 
L 1687.48088 361.960841 
L 1684.454334 358.532756 
" style="fill:none;stroke:#999999;"/>
    <path clip-path="url(#p06bc4bc5e4)" d="M 1667.177469 368.998558 
L 1664.341304 364.981372 
" style="fill:none;stroke:#999999;"/>
    <path clip-path="url(#p06bc4bc5e4)" d="M 1667.177469 368.998558 
L 1670.584053 366.376319 
" style="fill:none;stroke:#999999;"/>
    <path clip-path="url(#p06bc4bc5e4)" d="M 1667.177469 368.998558 
L 1664.507073 371.053927 
" style="fill:none;stroke:#999999;"/>
    <path clip-path="url(#p06bc4bc5e4)" d="M 1712.686412 370.770492 
L 1721.204318 374.959962 
" style="fill:none;stroke:#999999;"/>
    <path clip-path="url(#p06bc4bc5e4)" d="M 1712.686412 370.770492 
L 1710.815904 372.296967 
" style="fill:none;stroke:#999999;"/>
    <path clip-path="url(#p06bc4bc5e4)" d="M 1712.686412 370.770492 
L 1709.107545 369.010599 
" style="fill:none;stroke:#999999;"/>
    <path clip-path="url(#p06bc4bc5e4)" d="M 1671.116829 368.652137 
L 1670.584053 366.376319 
" style="fill:none;stroke:#999999;"/>
    <path clip-path="url(#p06bc4bc5e4)" d="M 1671.116829 368.652137 
L 1671.994173 372.394224 
" style="fill:none;stroke:#999999;"/>
    <path clip-path="url(#p06bc4bc5e4)" d="M 1671.116829 368.652137 
L 1664.507073 371.053927 
" style="fill:none;stroke:#999999;"/>
    <path clip-path="url(#p06bc4bc5e4)" d="M 1671.116829 368.652137 
L 1678.09866 365.726085 
L 1681.515378 364.670149 
" style="fill:none;stroke:#999999;"/>
    <path clip-path="url(#p06bc4bc5e4)" d="M 1695.90251 367.852776 
L 1699.479205 366.578243 
" style="fill:none;stroke:#999999;"/>
    <path clip-path="url(#p06bc4bc5e4)" d="M 1695.90251 367.852776 
L 1693.017121 368.881849 
L 1691.461501 369.254206 
" style="fill:none;stroke:#999999;"/>
    <path clip-path="url(#p06bc4bc5e4)" d="M 1695.90251 367.852776 
L 1692.330882 361.866363 
L 1689.150149 356.55334 
" style="fill:none;stroke:#999999;"/>
    <path clip-path="url(#p06bc4bc5e4)" d="M 1710.815904 372.296967 
L 1713.308949 376.242831 
" style="fill:none;stroke:#999999;"/>
    <path clip-path="url(#p06bc4bc5e4)" d="M 1710.815904 372.296967 
L 1712.686412 370.770492 
" style="fill:none;stroke:#999999;"/>
    <path clip-path="url(#p06bc4bc5e4)" d="M 1710.815904 372.296967 
L 1702.633878 377.799872 
" style="fill:none;stroke:#999999;"/>
    <path clip-path="url(#p06bc4bc5e4)" d="M 1670.584053 366.376319 
L 1671.839262 365.246282 
" style="fill:none;stroke:#999999;"/>
    <path clip-path="url(#p06bc4bc5e4)" d="M 1670.584053 366.376319 
L 1671.116829 368.652137 
" style="fill:none;stroke:#999999;"/>
    <path clip-path="url(#p06bc4bc5e4)" d="M 1670.584053 366.376319 
L 1667.177469 368.998558 
" style="fill:none;stroke:#999999;"/>
    <path clip-path="url(#p06bc4bc5e4)" d="M 1725.082148 380.731483 
L 1722.769348 377.301545 
" style="fill:none;stroke:#999999;"/>
    <path clip-path="url(#p06bc4bc5e4)" d="M 1725.082148 380.731483 
L 1734.675017 370.838109 
" style="fill:none;stroke:#999999;"/>
    <path clip-path="url(#p06bc4bc5e4)" d="M 1725.082148 380.731483 
L 1726.906328 383.492661 
L 1728.481492 385.875 
" style="fill:none;stroke:#999999;"/>
    <path clip-path="url(#p06bc4bc5e4)" d="M 1664.341304 364.981372 
L 1667.177469 368.998558 
" style="fill:none;stroke:#999999;"/>
    <path clip-path="url(#p06bc4bc5e4)" d="M 1681.515378 364.670149 
L 1681.846915 373.155609 
" style="fill:none;stroke:#999999;"/>
    <path clip-path="url(#p06bc4bc5e4)" d="M 1681.515378 364.670149 
L 1681.315587 359.548862 
" style="fill:none;stroke:#999999;"/>
    <path clip-path="url(#p06bc4bc5e4)" d="M 1681.515378 364.670149 
L 1678.09866 365.726085 
L 1671.116829 368.652137 
" style="fill:none;stroke:#999999;"/>
    <path clip-path="url(#p06bc4bc5e4)" d="M 1697.206943 363.240931 
L 1699.479205 366.578243 
" style="fill:none;stroke:#999999;"/>
    <path clip-path="url(#p06bc4bc5e4)" d="M 1697.206943 363.240931 
L 1695.521749 360.765967 
" style="fill:none;stroke:#999999;"/>
    <path clip-path="url(#p06bc4bc5e4)" d="M 1697.206943 363.240931 
L 1700.878467 361.692226 
L 1703.306364 360.263008 
" style="fill:none;stroke:#999999;"/>
    <path clip-path="url(#p06bc4bc5e4)" d="M 1716.651831 362.72871 
L 1716.82701 363.474349 
" style="fill:none;stroke:#999999;"/>
    <path clip-path="url(#p06bc4bc5e4)" d="M 1716.651831 362.72871 
L 1714.61483 359.780427 
L 1710.836896 361.496785 
" style="fill:none;stroke:#999999;"/>
    <path clip-path="url(#p06bc4bc5e4)" d="M 1716.651831 362.72871 
L 1719.27228 360.16853 
L 1726.555969 355.841047 
L 1731.200389 353.279014 
" style="fill:none;stroke:#999999;"/>
    <path clip-path="url(#p06bc4bc5e4)" d="M 1683.684849 351.741424 
L 1683.626214 350.942989 
" style="fill:none;stroke:#999999;"/>
    <path clip-path="url(#p06bc4bc5e4)" d="M 1683.684849 351.741424 
L 1681.007213 358.422531 
" style="fill:none;stroke:#999999;"/>
    <path clip-path="url(#p06bc4bc5e4)" d="M 1683.684849 351.741424 
L 1683.992498 355.951272 
L 1684.454334 358.532756 
" style="fill:none;stroke:#999999;"/>
    <path clip-path="url(#p06bc4bc5e4)" d="M 1681.007213 358.422531 
L 1681.315587 359.548862 
" style="fill:none;stroke:#999999;"/>
    <path clip-path="url(#p06bc4bc5e4)" d="M 1681.007213 358.422531 
L 1677.219869 344.593482 
" style="fill:none;stroke:#999999;"/>
    <path clip-path="url(#p06bc4bc5e4)" d="M 1681.007213 358.422531 
L 1683.684849 351.741424 
" style="fill:none;stroke:#999999;"/>
    <path clip-path="url(#p06bc4bc5e4)" d="M 1695.521749 360.765967 
L 1697.206943 363.240931 
" style="fill:none;stroke:#999999;"/>
    <path clip-path="url(#p06bc4bc5e4)" d="M 1695.521749 360.765967 
L 1691.871941 355.406632 
" style="fill:none;stroke:#999999;"/>
    <path clip-path="url(#p06bc4bc5e4)" d="M 1695.521749 360.765967 
L 1701.084773 357.045184 
" style="fill:none;stroke:#999999;"/>
    <path clip-path="url(#p06bc4bc5e4)" d="M 248.227635 189.408953 
L 277.439124 195.459277 
L 303.737716 212.537643 
L 340.968357 209.402256 
L 357.443162 210.041375 
L 377.281841 208.048065 
L 475.69055 192.730518 
L 544.926135 180.993888 
L 739.401075 186.513467 
L 748.889705 188.378953 
L 883.338271 216.93089 
L 948.572967 231.519472 
L 1016.278269 246.082118 
L 1067.021594 252.694682 
L 1261.933033 276.733885 
L 1296.806718 281.751431 
L 1319.176084 282.191404 
L 1324.325049 284.561701 
L 1328.147864 292.74057 
L 1334.089478 295.728682 
L 1343.186489 295.156253 
L 1344.269415 295.05807 
" style="fill:none;stroke:#999999;"/>
    <path clip-path="url(#p06bc4bc5e4)" d="M 1703.306364 360.263008 
L 1705.748738 363.876345 
" style="fill:none;stroke:#999999;"/>
    <path clip-path="url(#p06bc4bc5e4)" d="M 1703.306364 360.263008 
L 1700.878467 361.692226 
L 1697.206943 363.240931 
" style="fill:none;stroke:#999999;"/>
    <path clip-path="url(#p06bc4bc5e4)" d="M 1703.306364 360.263008 
L 1701.385184 357.421245 
L 1701.084773 357.045184 
" style="fill:none;stroke:#999999;"/>
    <path clip-path="url(#p06bc4bc5e4)" d="M 1701.084773 357.045184 
L 1695.521749 360.765967 
" style="fill:none;stroke:#999999;"/>
    <path clip-path="url(#p06bc4bc5e4)" d="M 1701.084773 357.045184 
L 1700.713422 356.581128 
" style="fill:none;stroke:#999999;"/>
    <path clip-path="url(#p06bc4bc5e4)" d="M 1701.084773 357.045184 
L 1701.385184 357.421245 
L 1703.306364 360.263008 
" style="fill:none;stroke:#999999;"/>
    <path clip-path="url(#p06bc4bc5e4)" d="M 1700.713422 356.581128 
L 1704.833028 353.800498 
" style="fill:none;stroke:#999999;"/>
    <path clip-path="url(#p06bc4bc5e4)" d="M 1700.713422 356.581128 
L 1696.98616 351.915561 
" style="fill:none;stroke:#999999;"/>
    <path clip-path="url(#p06bc4bc5e4)" d="M 1700.713422 356.581128 
L 1701.084773 357.045184 
" style="fill:none;stroke:#999999;"/>
    <path clip-path="url(#p06bc4bc5e4)" d="M 1689.150149 356.55334 
L 1691.871941 355.406632 
" style="fill:none;stroke:#999999;"/>
    <path clip-path="url(#p06bc4bc5e4)" d="M 1689.150149 356.55334 
L 1684.454334 358.532756 
" style="fill:none;stroke:#999999;"/>
    <path clip-path="url(#p06bc4bc5e4)" d="M 1689.150149 356.55334 
L 1692.330882 361.866363 
L 1695.90251 367.852776 
" style="fill:none;stroke:#999999;"/>
    <path clip-path="url(#p06bc4bc5e4)" d="M 1704.833028 353.800498 
L 1710.836896 361.496785 
" style="fill:none;stroke:#999999;"/>
    <path clip-path="url(#p06bc4bc5e4)" d="M 1704.833028 353.800498 
L 1700.713422 356.581128 
" style="fill:none;stroke:#999999;"/>
    <path clip-path="url(#p06bc4bc5e4)" d="M 1704.833028 353.800498 
L 1704.499319 353.372566 
L 1702.228505 351.960021 
" style="fill:none;stroke:#999999;"/>
    <path clip-path="url(#p06bc4bc5e4)" d="M 1683.626214 350.942989 
L 1687.283984 348.593996 
" style="fill:none;stroke:#999999;"/>
    <path clip-path="url(#p06bc4bc5e4)" d="M 1683.626214 350.942989 
L 1682.987751 342.214849 
" style="fill:none;stroke:#999999;"/>
    <path clip-path="url(#p06bc4bc5e4)" d="M 1683.626214 350.942989 
L 1683.684849 351.741424 
" style="fill:none;stroke:#999999;"/>
    <path clip-path="url(#p06bc4bc5e4)" d="M 1687.283984 348.593996 
L 1691.871941 355.406632 
" style="fill:none;stroke:#999999;"/>
    <path clip-path="url(#p06bc4bc5e4)" d="M 1687.283984 348.593996 
L 1682.987751 342.214849 
" style="fill:none;stroke:#999999;"/>
    <path clip-path="url(#p06bc4bc5e4)" d="M 1687.283984 348.593996 
L 1683.626214 350.942989 
" style="fill:none;stroke:#999999;"/>
    <path clip-path="url(#p06bc4bc5e4)" d="M 1693.625905 346.608096 
L 1688.90041 343.669076 
" style="fill:none;stroke:#999999;"/>
    <path clip-path="url(#p06bc4bc5e4)" d="M 1693.625905 346.608096 
L 1699.59937 350.324248 
" style="fill:none;stroke:#999999;"/>
    <path clip-path="url(#p06bc4bc5e4)" d="M 1693.625905 346.608096 
L 1695.371181 343.945101 
" style="fill:none;stroke:#999999;"/>
    <path clip-path="url(#p06bc4bc5e4)" d="M 1695.371181 343.945101 
L 1693.625905 346.608096 
" style="fill:none;stroke:#999999;"/>
    <path clip-path="url(#p06bc4bc5e4)" d="M 1676.718943 342.444561 
L 1677.219869 344.593482 
" style="fill:none;stroke:#999999;"/>
    <path clip-path="url(#p06bc4bc5e4)" d="M 1676.718943 342.444561 
L 1675.78007 338.411629 
" style="fill:none;stroke:#999999;"/>
    <path clip-path="url(#p06bc4bc5e4)" d="M 1676.718943 342.444561 
L 1678.733504 339.776009 
" style="fill:none;stroke:#999999;"/>
    <path clip-path="url(#p06bc4bc5e4)" d="M 1691.871941 355.406632 
L 1695.521749 360.765967 
" style="fill:none;stroke:#999999;"/>
    <path clip-path="url(#p06bc4bc5e4)" d="M 1691.871941 355.406632 
L 1687.283984 348.593996 
" style="fill:none;stroke:#999999;"/>
    <path clip-path="url(#p06bc4bc5e4)" d="M 1691.871941 355.406632 
L 1696.98616 351.915561 
" style="fill:none;stroke:#999999;"/>
    <path clip-path="url(#p06bc4bc5e4)" d="M 1691.871941 355.406632 
L 1689.150149 356.55334 
" style="fill:none;stroke:#999999;"/>
    <path clip-path="url(#p06bc4bc5e4)" d="M 1678.733504 339.776009 
L 1675.78007 338.411629 
" style="fill:none;stroke:#999999;"/>
    <path clip-path="url(#p06bc4bc5e4)" d="M 1678.733504 339.776009 
L 1676.718943 342.444561 
" style="fill:none;stroke:#999999;"/>
    <path clip-path="url(#p06bc4bc5e4)" d="M 1678.733504 339.776009 
L 1679.998123 340.658734 
L 1682.987751 342.214849 
" style="fill:none;stroke:#999999;"/>
    <path clip-path="url(#p06bc4bc5e4)" d="M 1663.378542 383.948381 
L 1664.048856 383.151798 
L 1663.77161 381.809648 
" style="fill:none;stroke:#999999;"/>
    <path clip-path="url(#p06bc4bc5e4)" d="M 1673.584539 337.793814 
L 1675.78007 338.411629 
" style="fill:none;stroke:#999999;"/>
    <path clip-path="url(#p06bc4bc5e4)" d="M 1673.584539 337.793814 
L 1667.777567 336.160819 
" style="fill:none;stroke:#999999;"/>
    <path clip-path="url(#p06bc4bc5e4)" d="M 1673.584539 337.793814 
L 1669.379515 330.558804 
" style="fill:none;stroke:#999999;"/>
    <path clip-path="url(#p06bc4bc5e4)" d="M 1731.918479 362.332271 
L 1719.181071 372.33587 
" style="fill:none;stroke:#999999;"/>
    <path clip-path="url(#p06bc4bc5e4)" d="M 1713.938726 356.176353 
L 1713.76427 354.991667 
L 1713.337181 353.670822 
" style="fill:none;stroke:#999999;"/>
    <path clip-path="url(#p06bc4bc5e4)" d="M 1689.753142 337.460361 
L 1689.073418 337.526125 
L 1687.356372 339.009992 
L 1685.349775 340.834723 
L 1684.226312 340.977367 
" style="fill:none;stroke:#999999;"/>
    <path clip-path="url(#p06bc4bc5e4)" d="M 1749.19462 409.331586 
L 1746.488029 423.692308 
L 1737.634242 420.972811 
L 1735.615338 419.57416 
L 1733.471203 419.198098 
L 1731.343717 420.195679 
L 1727.926276 419.807577 
L 1723.685782 416.866704 
L 1712.39324 417.243692 
L 1704.005632 409.941065 
" style="fill:none;stroke:#999999;"/>
    <path clip-path="url(#p06bc4bc5e4)" d="M 1749.19462 409.331586 
L 1743.260968 404.168618 
L 1737.765988 398.817619 
L 1732.683621 392.347698 
L 1728.481492 385.875 
" style="fill:none;stroke:#999999;"/>
    <path clip-path="url(#p06bc4bc5e4)" d="M 1684.454334 358.532756 
L 1689.150149 356.55334 
" style="fill:none;stroke:#999999;"/>
    <path clip-path="url(#p06bc4bc5e4)" d="M 1684.454334 358.532756 
L 1681.315587 359.548862 
" style="fill:none;stroke:#999999;"/>
    <path clip-path="url(#p06bc4bc5e4)" d="M 1684.454334 358.532756 
L 1687.48088 361.960841 
L 1689.045187 364.505275 
L 1690.878053 367.222919 
L 1691.461501 369.254206 
" style="fill:none;stroke:#999999;"/>
    <path clip-path="url(#p06bc4bc5e4)" d="M 1684.454334 358.532756 
L 1683.992498 355.951272 
L 1683.684849 351.741424 
" style="fill:none;stroke:#999999;"/>
    <path clip-path="url(#p06bc4bc5e4)" d="M 1684.454334 358.532756 
L 1685.054431 364.140329 
L 1686.699812 372.536868 
" style="fill:none;stroke:#999999;"/>
    <path clip-path="url(#p06bc4bc5e4)" d="M 1665.381521 335.39295 
L 1667.777567 336.160819 
" style="fill:none;stroke:#999999;"/>
    <path clip-path="url(#p06bc4bc5e4)" d="M 1665.381521 335.39295 
L 1664.094461 333.156035 
" style="fill:none;stroke:#999999;"/>
    <path clip-path="url(#p06bc4bc5e4)" d="M 1665.381521 335.39295 
L 1663.38361 334.752905 
L 1657.000428 332.162158 
L 1646.231252 324.099999 
" style="fill:none;stroke:#999999;"/>
    <path clip-path="url(#p06bc4bc5e4)" d="M 1675.368905 380.090511 
L 1673.738726 379.749648 
" style="fill:none;stroke:#999999;"/>
    <path clip-path="url(#p06bc4bc5e4)" d="M 1675.368905 380.090511 
L 1676.148525 380.253533 
" style="fill:none;stroke:#999999;"/>
    <path clip-path="url(#p06bc4bc5e4)" d="M 1675.368905 380.090511 
L 1675.27842 372.680438 
" style="fill:none;stroke:#999999;"/>
    <path clip-path="url(#p06bc4bc5e4)" d="M 1681.846915 373.155609 
L 1686.699812 372.536868 
" style="fill:none;stroke:#999999;"/>
    <path clip-path="url(#p06bc4bc5e4)" d="M 1681.846915 373.155609 
L 1682.559214 378.668704 
" style="fill:none;stroke:#999999;"/>
    <path clip-path="url(#p06bc4bc5e4)" d="M 1681.846915 373.155609 
L 1681.515378 364.670149 
" style="fill:none;stroke:#999999;"/>
    <path clip-path="url(#p06bc4bc5e4)" d="M 1681.846915 373.155609 
L 1676.413465 372.779548 
L 1675.27842 372.680438 
" style="fill:none;stroke:#999999;"/>
    <path clip-path="url(#p06bc4bc5e4)" d="M 1664.094461 333.156035 
L 1669.379515 330.558804 
" style="fill:none;stroke:#999999;"/>
    <path clip-path="url(#p06bc4bc5e4)" d="M 1664.094461 333.156035 
L 1665.381521 335.39295 
" style="fill:none;stroke:#999999;"/>
    <path clip-path="url(#p06bc4bc5e4)" d="M 1664.094461 333.156035 
L 1659.965444 325.980305 
" style="fill:none;stroke:#999999;"/>
    <path clip-path="url(#p06bc4bc5e4)" d="M 1669.379515 330.558804 
L 1664.094461 333.156035 
" style="fill:none;stroke:#999999;"/>
    <path clip-path="url(#p06bc4bc5e4)" d="M 1669.379515 330.558804 
L 1667.479328 327.009379 
" style="fill:none;stroke:#999999;"/>
    <path clip-path="url(#p06bc4bc5e4)" d="M 1669.379515 330.558804 
L 1673.584539 337.793814 
" style="fill:none;stroke:#999999;"/>
    <path clip-path="url(#p06bc4bc5e4)" d="M 1667.479328 327.009379 
L 1660.66037 315.308873 
" style="fill:none;stroke:#999999;"/>
    <path clip-path="url(#p06bc4bc5e4)" d="M 1667.479328 327.009379 
L 1669.379515 330.558804 
" style="fill:none;stroke:#999999;"/>
    <path clip-path="url(#p06bc4bc5e4)" d="M 1667.479328 327.009379 
L 1659.965444 325.980305 
" style="fill:none;stroke:#999999;"/>
    <path clip-path="url(#p06bc4bc5e4)" d="M 1667.479328 327.009379 
L 1670.031008 327.358579 
L 1675.660629 327.949532 
" style="fill:none;stroke:#999999;"/>
    <path clip-path="url(#p06bc4bc5e4)" d="M 1659.965444 325.980305 
L 1664.094461 333.156035 
" style="fill:none;stroke:#999999;"/>
    <path clip-path="url(#p06bc4bc5e4)" d="M 1659.965444 325.980305 
L 1655.840771 319.121356 
" style="fill:none;stroke:#999999;"/>
    <path clip-path="url(#p06bc4bc5e4)" d="M 1659.965444 325.980305 
L 1667.479328 327.009379 
" style="fill:none;stroke:#999999;"/>
    <path clip-path="url(#p06bc4bc5e4)" d="M 1659.965444 325.980305 
L 1646.231252 324.099999 
" style="fill:none;stroke:#999999;"/>
    <path clip-path="url(#p06bc4bc5e4)" d="M 1655.840771 319.121356 
L 1659.965444 325.980305 
" style="fill:none;stroke:#999999;"/>
    <path clip-path="url(#p06bc4bc5e4)" d="M 1699.479205 366.578243 
L 1695.90251 367.852776 
" style="fill:none;stroke:#999999;"/>
    <path clip-path="url(#p06bc4bc5e4)" d="M 1699.479205 366.578243 
L 1705.748738 363.876345 
" style="fill:none;stroke:#999999;"/>
    <path clip-path="url(#p06bc4bc5e4)" d="M 1699.479205 366.578243 
L 1697.206943 363.240931 
" style="fill:none;stroke:#999999;"/>
    <path clip-path="url(#p06bc4bc5e4)" d="M 1699.479205 366.578243 
L 1701.78187 370.741778 
L 1702.469557 371.950546 
" style="fill:none;stroke:#999999;"/>
    <path clip-path="url(#p06bc4bc5e4)" d="M 1660.66037 315.308873 
L 1667.479328 327.009379 
" style="fill:none;stroke:#999999;"/>
    <path clip-path="url(#p06bc4bc5e4)" d="M 1704.005632 409.941065 
L 1703.307087 405.979454 
L 1700.425318 397.251314 
L 1699.566795 394.979201 
" style="fill:none;stroke:#999999;"/>
    <path clip-path="url(#p06bc4bc5e4)" d="M 1704.005632 409.941065 
L 1712.39324 417.243692 
L 1723.685782 416.866704 
L 1727.926276 419.807577 
L 1731.343717 420.195679 
L 1733.471203 419.198098 
L 1735.615338 419.57416 
L 1737.634242 420.972811 
L 1746.488029 423.692308 
L 1749.19462 409.331586 
" style="fill:none;stroke:#999999;"/>
    <path clip-path="url(#p06bc4bc5e4)" d="M 1688.193903 378.480673 
L 1689.648179 377.911024 
" style="fill:none;stroke:#999999;"/>
    <path clip-path="url(#p06bc4bc5e4)" d="M 1688.193903 378.480673 
L 1687.68429 381.21499 
" style="fill:none;stroke:#999999;"/>
    <path clip-path="url(#p06bc4bc5e4)" d="M 1688.193903 378.480673 
L 1688.126582 378.173155 
" style="fill:none;stroke:#999999;"/>
    <path clip-path="url(#p06bc4bc5e4)" d="M 1719.181071 372.33587 
L 1713.81277 365.374106 
" style="fill:none;stroke:#999999;"/>
    <path clip-path="url(#p06bc4bc5e4)" d="M 1719.181071 372.33587 
L 1721.204318 374.959962 
" style="fill:none;stroke:#999999;"/>
    <path clip-path="url(#p06bc4bc5e4)" d="M 1719.181071 372.33587 
L 1731.918479 362.332271 
" style="fill:none;stroke:#999999;"/>
    <path clip-path="url(#p06bc4bc5e4)" d="M 1710.836896 361.496785 
L 1704.833028 353.800498 
" style="fill:none;stroke:#999999;"/>
    <path clip-path="url(#p06bc4bc5e4)" d="M 1710.836896 361.496785 
L 1713.81277 365.374106 
" style="fill:none;stroke:#999999;"/>
    <path clip-path="url(#p06bc4bc5e4)" d="M 1710.836896 361.496785 
L 1705.748738 363.876345 
" style="fill:none;stroke:#999999;"/>
    <path clip-path="url(#p06bc4bc5e4)" d="M 1710.836896 361.496785 
L 1714.61483 359.780427 
L 1716.651831 362.72871 
" style="fill:none;stroke:#999999;"/>
   </g>
  </g>
 </g>
 <defs>
  <clipPath id="p06bc4bc5e4">
   <rect height="432" width="1561.005664" x="218.208296" y="0"/>
  </clipPath>
 </defs>
</svg>
