<?xml version="1.0" encoding="utf-8" standalone="no"?>
<!DOCTYPE svg PUBLIC "-//W3C//DTD SVG 1.1//EN"
  "http://www.w3.org/Graphics/SVG/1.1/DTD/svg11.dtd">
<!-- Created with matplotlib (http://matplotlib.org/) -->
<svg height="432pt" version="1.1" viewBox="0 0 1132.108905 432" width="1132.108905pt" xmlns="http://www.w3.org/2000/svg" xmlns:xlink="http://www.w3.org/1999/xlink">
 <defs>
  <style type="text/css">
*{stroke-linecap:butt;stroke-linejoin:round;}
  </style>
 </defs>
 <g id="figure_1">
  <g id="patch_1">
   <path d="M 0 432 
L 1132.108905 432 
L 1132.108905 0 
L 0 0 
z
" style="fill:none;opacity:0;"/>
  </g>
  <g id="axes_1">
   <g id="PathCollection_1">
    <defs>
     <path d="M 0 1.936492 
C 0.513564 1.936492 1.006162 1.732451 1.369306 1.369306 
C 1.732451 1.006162 1.936492 0.513564 1.936492 0 
C 1.936492 -0.513564 1.732451 -1.006162 1.369306 -1.369306 
C 1.006162 -1.732451 0.513564 -1.936492 0 -1.936492 
C -0.513564 -1.936492 -1.006162 -1.732451 -1.369306 -1.369306 
C -1.732451 -1.006162 -1.936492 -0.513564 -1.936492 0 
C -1.936492 0.513564 -1.732451 1.006162 -1.369306 1.369306 
C -1.006162 1.732451 -0.513564 1.936492 0 1.936492 
z
" id="C0_0_39f23e9323"/>
    </defs>
    <g clip-path="url(#pfef19cfd14)">
     <use style="fill:#66ccff;" x="989.403059" xlink:href="#C0_0_39f23e9323" y="24.841255"/>
    </g>
    <g clip-path="url(#pfef19cfd14)">
     <use style="fill:#66ccff;" x="220.363539" xlink:href="#C0_0_39f23e9323" y="408.703938"/>
    </g>
    <g clip-path="url(#pfef19cfd14)">
     <use style="fill:#66ccff;" x="308.958211" xlink:href="#C0_0_39f23e9323" y="136.345311"/>
    </g>
    <g clip-path="url(#pfef19cfd14)">
     <use style="fill:#66ccff;" x="343.428863" xlink:href="#C0_0_39f23e9323" y="280.563306"/>
    </g>
    <g clip-path="url(#pfef19cfd14)">
     <use style="fill:#66ccff;" x="295.66901" xlink:href="#C0_0_39f23e9323" y="232.132549"/>
    </g>
    <g clip-path="url(#pfef19cfd14)">
     <use style="fill:#66ccff;" x="210.880247" xlink:href="#C0_0_39f23e9323" y="223.781149"/>
    </g>
    <g clip-path="url(#pfef19cfd14)">
     <use style="fill:#66ccff;" x="219.940025" xlink:href="#C0_0_39f23e9323" y="297.66344"/>
    </g>
    <g clip-path="url(#pfef19cfd14)">
     <use style="fill:#66ccff;" x="328.039259" xlink:href="#C0_0_39f23e9323" y="259.254361"/>
    </g>
    <g clip-path="url(#pfef19cfd14)">
     <use style="fill:#66ccff;" x="985.7574" xlink:href="#C0_0_39f23e9323" y="8.307692"/>
    </g>
    <g clip-path="url(#pfef19cfd14)">
     <use style="fill:#66ccff;" x="226.138218" xlink:href="#C0_0_39f23e9323" y="405.709207"/>
    </g>
    <g clip-path="url(#pfef19cfd14)">
     <use style="fill:#66ccff;" x="339.720249" xlink:href="#C0_0_39f23e9323" y="387.446499"/>
    </g>
    <g clip-path="url(#pfef19cfd14)">
     <use style="fill:#66ccff;" x="211.561304" xlink:href="#C0_0_39f23e9323" y="386.306"/>
    </g>
    <g clip-path="url(#pfef19cfd14)">
     <use style="fill:#66ccff;" x="223.986306" xlink:href="#C0_0_39f23e9323" y="382.516599"/>
    </g>
    <g clip-path="url(#pfef19cfd14)">
     <use style="fill:#66ccff;" x="334.970018" xlink:href="#C0_0_39f23e9323" y="372.244745"/>
    </g>
    <g clip-path="url(#pfef19cfd14)">
     <use style="fill:#66ccff;" x="326.419602" xlink:href="#C0_0_39f23e9323" y="348.588579"/>
    </g>
    <g clip-path="url(#pfef19cfd14)">
     <use style="fill:#66ccff;" x="356.884036" xlink:href="#C0_0_39f23e9323" y="338.405023"/>
    </g>
    <g clip-path="url(#pfef19cfd14)">
     <use style="fill:#66ccff;" x="406.698507" xlink:href="#C0_0_39f23e9323" y="289.172237"/>
    </g>
    <g clip-path="url(#pfef19cfd14)">
     <use style="fill:#66ccff;" x="194.025511" xlink:href="#C0_0_39f23e9323" y="219.292732"/>
    </g>
    <g clip-path="url(#pfef19cfd14)">
     <use style="fill:#66ccff;" x="180.621847" xlink:href="#C0_0_39f23e9323" y="200.70627"/>
    </g>
    <g clip-path="url(#pfef19cfd14)">
     <use style="fill:#66ccff;" x="359.144688" xlink:href="#C0_0_39f23e9323" y="259.636981"/>
    </g>
    <g clip-path="url(#pfef19cfd14)">
     <use style="fill:#66ccff;" x="300.711123" xlink:href="#C0_0_39f23e9323" y="256.031531"/>
    </g>
    <g clip-path="url(#pfef19cfd14)">
     <use style="fill:#66ccff;" x="225.188171" xlink:href="#C0_0_39f23e9323" y="215.672566"/>
    </g>
    <g clip-path="url(#pfef19cfd14)">
     <use style="fill:#66ccff;" x="224.999307" xlink:href="#C0_0_39f23e9323" y="198.984484"/>
    </g>
    <g clip-path="url(#pfef19cfd14)">
     <use style="fill:#66ccff;" x="280.273683" xlink:href="#C0_0_39f23e9323" y="161.929289"/>
    </g>
    <g clip-path="url(#pfef19cfd14)">
     <use style="fill:#66ccff;" x="167.126612" xlink:href="#C0_0_39f23e9323" y="140.487899"/>
    </g>
    <g clip-path="url(#pfef19cfd14)">
     <use style="fill:#66ccff;" x="142.705846" xlink:href="#C0_0_39f23e9323" y="138.898558"/>
    </g>
    <g clip-path="url(#pfef19cfd14)">
     <use style="fill:#66ccff;" x="165.953362" xlink:href="#C0_0_39f23e9323" y="122.092747"/>
    </g>
    <g clip-path="url(#pfef19cfd14)">
     <use style="fill:#66ccff;" x="191.799198" xlink:href="#C0_0_39f23e9323" y="281.409483"/>
    </g>
    <g clip-path="url(#pfef19cfd14)">
     <use style="fill:#66ccff;" x="219.630973" xlink:href="#C0_0_39f23e9323" y="280.39407"/>
    </g>
    <g clip-path="url(#pfef19cfd14)">
     <use style="fill:#66ccff;" x="289.413585" xlink:href="#C0_0_39f23e9323" y="202.840108"/>
    </g>
    <g clip-path="url(#pfef19cfd14)">
     <use style="fill:#66ccff;" x="323.598079" xlink:href="#C0_0_39f23e9323" y="158.2429"/>
    </g>
    <g clip-path="url(#pfef19cfd14)">
     <use style="fill:#66ccff;" x="310.938427" xlink:href="#C0_0_39f23e9323" y="152.8568"/>
    </g>
    <g clip-path="url(#pfef19cfd14)">
     <use style="fill:#66ccff;" x="340.246781" xlink:href="#C0_0_39f23e9323" y="142.356847"/>
    </g>
    <g clip-path="url(#pfef19cfd14)">
     <use style="fill:#66ccff;" x="302.948882" xlink:href="#C0_0_39f23e9323" y="382.089831"/>
    </g>
   </g>
   <g id="LineCollection_1">
    <path clip-path="url(#pfef19cfd14)" d="M 989.403059 24.841255 
L 985.7574 8.307692 
" style="fill:none;stroke:#999999;"/>
    <path clip-path="url(#pfef19cfd14)" d="M 989.403059 24.841255 
L 976.371401 36.466992 
L 943.875242 59.703748 
L 898.788109 88.760731 
L 871.454249 102.961788 
L 845.951803 118.89199 
L 759.978344 181.406076 
L 744.268242 191.310026 
L 722.85214 201.743757 
L 702.517717 210.028934 
L 667.989833 234.582783 
L 653.01802 245.325552 
L 622.18158 270.298811 
L 604.531324 282.167363 
L 572.876471 295.860715 
L 565.962882 297.082153 
L 554.018626 296.97914 
L 523.989153 290.246514 
L 514.093792 290.03313 
L 486.439435 293.263319 
L 450.06869 288.524728 
L 439.629628 288.848483 
L 406.698507 289.172237 
" style="fill:none;stroke:#999999;"/>
    <path clip-path="url(#pfef19cfd14)" d="M 220.363539 408.703938 
L 211.561304 386.306 
" style="fill:none;stroke:#999999;"/>
    <path clip-path="url(#pfef19cfd14)" d="M 220.363539 408.703938 
L 226.138218 405.709207 
" style="fill:none;stroke:#999999;"/>
    <path clip-path="url(#pfef19cfd14)" d="M 220.363539 408.703938 
L 224.919183 423.692308 
L 306.892146 398.211343 
L 302.948882 382.089831 
" style="fill:none;stroke:#999999;"/>
    <path clip-path="url(#pfef19cfd14)" d="M 308.958211 136.345311 
L 310.200138 140.635061 
L 311.505021 151.179162 
L 310.938427 152.8568 
" style="fill:none;stroke:#999999;"/>
    <path clip-path="url(#pfef19cfd14)" d="M 308.958211 136.345311 
L 319.334318 130.296985 
L 337.167715 125.322936 
L 355.487582 119.855896 
L 366.464622 114.477154 
L 396.700129 98.333568 
L 444.79765 86.928574 
L 485.90718 75.847334 
L 493.759369 74.87607 
L 505.663563 74.94965 
L 578.445115 82.84485 
L 622.994271 82.300353 
L 654.414474 81.123064 
L 665.712011 78.643397 
L 697.458435 67.451786 
L 746.093934 49.593772 
L 764.820146 45.613061 
L 863.275839 30.543753 
L 966.527549 8.984634 
L 985.7574 8.307692 
" style="fill:none;stroke:#999999;"/>
    <path clip-path="url(#pfef19cfd14)" d="M 308.958211 136.345311 
L 296.733519 143.423766 
L 290.386524 148.692137 
L 280.273683 161.929289 
" style="fill:none;stroke:#999999;"/>
    <path clip-path="url(#pfef19cfd14)" d="M 308.958211 136.345311 
L 315.551302 141.128051 
L 325.475279 141.878573 
L 340.246781 142.356847 
" style="fill:none;stroke:#999999;"/>
    <path clip-path="url(#pfef19cfd14)" d="M 343.428863 280.563306 
L 328.039259 259.254361 
" style="fill:none;stroke:#999999;"/>
    <path clip-path="url(#pfef19cfd14)" d="M 343.428863 280.563306 
L 406.698507 289.172237 
" style="fill:none;stroke:#999999;"/>
    <path clip-path="url(#pfef19cfd14)" d="M 343.428863 280.563306 
L 349.461084 297.943046 
L 356.884036 338.405023 
" style="fill:none;stroke:#999999;"/>
    <path clip-path="url(#pfef19cfd14)" d="M 295.66901 232.132549 
L 289.413585 202.840108 
" style="fill:none;stroke:#999999;"/>
    <path clip-path="url(#pfef19cfd14)" d="M 295.66901 232.132549 
L 300.711123 256.031531 
" style="fill:none;stroke:#999999;"/>
    <path clip-path="url(#pfef19cfd14)" d="M 295.66901 232.132549 
L 280.714367 232.132549 
L 270.595802 230.087008 
L 237.670405 217.283982 
L 225.188171 215.672566 
" style="fill:none;stroke:#999999;"/>
    <path clip-path="url(#pfef19cfd14)" d="M 210.880247 223.781149 
L 194.025511 219.292732 
" style="fill:none;stroke:#999999;"/>
    <path clip-path="url(#pfef19cfd14)" d="M 210.880247 223.781149 
L 221.078935 220.948296 
L 225.188171 215.672566 
" style="fill:none;stroke:#999999;"/>
    <path clip-path="url(#pfef19cfd14)" d="M 210.880247 223.781149 
L 214.686155 238.960829 
L 217.072716 262.984898 
L 219.630973 280.39407 
" style="fill:none;stroke:#999999;"/>
    <path clip-path="url(#pfef19cfd14)" d="M 219.940025 297.66344 
L 219.922855 282.366031 
L 219.630973 280.39407 
" style="fill:none;stroke:#999999;"/>
    <path clip-path="url(#pfef19cfd14)" d="M 219.940025 297.66344 
L 226.098156 296.368421 
L 235.713081 283.256356 
L 242.603778 270.122217 
L 253.580818 258.827594 
L 263.041218 253.809396 
L 273.056765 252.801342 
L 300.711123 256.031531 
" style="fill:none;stroke:#999999;"/>
    <path clip-path="url(#pfef19cfd14)" d="M 219.940025 297.66344 
L 219.522233 309.289176 
L 223.986306 382.516599 
" style="fill:none;stroke:#999999;"/>
    <path clip-path="url(#pfef19cfd14)" d="M 328.039259 259.254361 
L 300.711123 256.031531 
" style="fill:none;stroke:#999999;"/>
    <path clip-path="url(#pfef19cfd14)" d="M 328.039259 259.254361 
L 343.428863 280.563306 
" style="fill:none;stroke:#999999;"/>
    <path clip-path="url(#pfef19cfd14)" d="M 328.039259 259.254361 
L 346.662454 259.960735 
L 359.144688 259.636981 
" style="fill:none;stroke:#999999;"/>
    <path clip-path="url(#pfef19cfd14)" d="M 985.7574 8.307692 
L 989.403059 24.841255 
" style="fill:none;stroke:#999999;"/>
    <path clip-path="url(#pfef19cfd14)" d="M 985.7574 8.307692 
L 966.527549 8.984634 
L 863.275839 30.543753 
L 764.820146 45.613061 
L 746.093934 49.593772 
L 697.458435 67.451786 
L 665.712011 78.643397 
L 654.414474 81.123064 
L 622.994271 82.300353 
L 578.445115 82.84485 
L 505.663563 74.94965 
L 493.759369 74.87607 
L 485.90718 75.847334 
L 444.79765 86.928574 
L 396.700129 98.333568 
L 366.464622 114.477154 
L 355.487582 119.855896 
L 337.167715 125.322936 
L 319.334318 130.296985 
L 308.958211 136.345311 
" style="fill:none;stroke:#999999;"/>
    <path clip-path="url(#pfef19cfd14)" d="M 226.138218 405.709207 
L 302.948882 382.089831 
" style="fill:none;stroke:#999999;"/>
    <path clip-path="url(#pfef19cfd14)" d="M 226.138218 405.709207 
L 223.986306 382.516599 
" style="fill:none;stroke:#999999;"/>
    <path clip-path="url(#pfef19cfd14)" d="M 226.138218 405.709207 
L 220.363539 408.703938 
" style="fill:none;stroke:#999999;"/>
    <path clip-path="url(#pfef19cfd14)" d="M 339.720249 387.446499 
L 334.970018 372.244745 
" style="fill:none;stroke:#999999;"/>
    <path clip-path="url(#pfef19cfd14)" d="M 211.561304 386.306 
L 220.363539 408.703938 
" style="fill:none;stroke:#999999;"/>
    <path clip-path="url(#pfef19cfd14)" d="M 211.561304 386.306 
L 223.986306 382.516599 
" style="fill:none;stroke:#999999;"/>
    <path clip-path="url(#pfef19cfd14)" d="M 211.561304 386.306 
L 202.47291 360.545429 
L 199.31372 344.438633 
L 197.528091 319.053323 
L 197.053068 306.515187 
L 193.218544 293.697445 
L 191.799198 281.409483 
" style="fill:none;stroke:#999999;"/>
    <path clip-path="url(#pfef19cfd14)" d="M 223.986306 382.516599 
L 211.561304 386.306 
" style="fill:none;stroke:#999999;"/>
    <path clip-path="url(#pfef19cfd14)" d="M 223.986306 382.516599 
L 226.138218 405.709207 
" style="fill:none;stroke:#999999;"/>
    <path clip-path="url(#pfef19cfd14)" d="M 223.986306 382.516599 
L 314.732889 354.857647 
L 326.419602 348.588579 
" style="fill:none;stroke:#999999;"/>
    <path clip-path="url(#pfef19cfd14)" d="M 223.986306 382.516599 
L 219.522233 309.289176 
L 219.940025 297.66344 
" style="fill:none;stroke:#999999;"/>
    <path clip-path="url(#pfef19cfd14)" d="M 334.970018 372.244745 
L 302.948882 382.089831 
" style="fill:none;stroke:#999999;"/>
    <path clip-path="url(#pfef19cfd14)" d="M 334.970018 372.244745 
L 326.419602 348.588579 
" style="fill:none;stroke:#999999;"/>
    <path clip-path="url(#pfef19cfd14)" d="M 334.970018 372.244745 
L 339.720249 387.446499 
" style="fill:none;stroke:#999999;"/>
    <path clip-path="url(#pfef19cfd14)" d="M 326.419602 348.588579 
L 334.970018 372.244745 
" style="fill:none;stroke:#999999;"/>
    <path clip-path="url(#pfef19cfd14)" d="M 326.419602 348.588579 
L 314.732889 354.857647 
L 223.986306 382.516599 
" style="fill:none;stroke:#999999;"/>
    <path clip-path="url(#pfef19cfd14)" d="M 326.419602 348.588579 
L 339.640125 343.298134 
L 356.884036 338.405023 
" style="fill:none;stroke:#999999;"/>
    <path clip-path="url(#pfef19cfd14)" d="M 356.884036 338.405023 
L 339.640125 343.298134 
L 326.419602 348.588579 
" style="fill:none;stroke:#999999;"/>
    <path clip-path="url(#pfef19cfd14)" d="M 356.884036 338.405023 
L 398.697516 319.656684 
L 406.698507 289.172237 
" style="fill:none;stroke:#999999;"/>
    <path clip-path="url(#pfef19cfd14)" d="M 356.884036 338.405023 
L 349.461084 297.943046 
L 343.428863 280.563306 
" style="fill:none;stroke:#999999;"/>
    <path clip-path="url(#pfef19cfd14)" d="M 406.698507 289.172237 
L 343.428863 280.563306 
" style="fill:none;stroke:#999999;"/>
    <path clip-path="url(#pfef19cfd14)" d="M 406.698507 289.172237 
L 398.697516 319.656684 
L 356.884036 338.405023 
" style="fill:none;stroke:#999999;"/>
    <path clip-path="url(#pfef19cfd14)" d="M 406.698507 289.172237 
L 439.629628 288.848483 
L 450.06869 288.524728 
L 486.439435 293.263319 
L 514.093792 290.03313 
L 523.989153 290.246514 
L 554.018626 296.97914 
L 565.962882 297.082153 
L 572.876471 295.860715 
L 604.531324 282.167363 
L 622.18158 270.298811 
L 653.01802 245.325552 
L 667.989833 234.582783 
L 702.517717 210.028934 
L 722.85214 201.743757 
L 744.268242 191.310026 
L 759.978344 181.406076 
L 845.951803 118.89199 
L 871.454249 102.961788 
L 898.788109 88.760731 
L 943.875242 59.703748 
L 976.371401 36.466992 
L 989.403059 24.841255 
" style="fill:none;stroke:#999999;"/>
    <path clip-path="url(#pfef19cfd14)" d="M 194.025511 219.292732 
L 210.880247 223.781149 
" style="fill:none;stroke:#999999;"/>
    <path clip-path="url(#pfef19cfd14)" d="M 194.025511 219.292732 
L 190.093693 231.256939 
L 186.860102 250.829382 
L 189.904829 264.978933 
L 191.799198 281.409483 
" style="fill:none;stroke:#999999;"/>
    <path clip-path="url(#pfef19cfd14)" d="M 194.025511 219.292732 
L 190.68318 210.99284 
L 186.442311 205.040168 
L 180.621847 200.70627 
" style="fill:none;stroke:#999999;"/>
    <path clip-path="url(#pfef19cfd14)" d="M 180.621847 200.70627 
L 186.442311 205.040168 
L 190.68318 210.99284 
L 194.025511 219.292732 
" style="fill:none;stroke:#999999;"/>
    <path clip-path="url(#pfef19cfd14)" d="M 180.621847 200.70627 
L 180.364304 195.592418 
L 178.916342 166.498645 
L 175.15622 151.804597 
L 167.126612 140.487899 
" style="fill:none;stroke:#999999;"/>
    <path clip-path="url(#pfef19cfd14)" d="M 180.621847 200.70627 
L 189.698794 203.642137 
L 198.512476 202.840108 
L 217.358875 201.375854 
L 224.999307 198.984484 
" style="fill:none;stroke:#999999;"/>
    <path clip-path="url(#pfef19cfd14)" d="M 359.144688 259.636981 
L 346.662454 259.960735 
L 328.039259 259.254361 
" style="fill:none;stroke:#999999;"/>
    <path clip-path="url(#pfef19cfd14)" d="M 300.711123 256.031531 
L 328.039259 259.254361 
" style="fill:none;stroke:#999999;"/>
    <path clip-path="url(#pfef19cfd14)" d="M 300.711123 256.031531 
L 295.66901 232.132549 
" style="fill:none;stroke:#999999;"/>
    <path clip-path="url(#pfef19cfd14)" d="M 300.711123 256.031531 
L 273.056765 252.801342 
L 263.041218 253.809396 
L 253.580818 258.827594 
L 242.603778 270.122217 
L 235.713081 283.256356 
L 226.098156 296.368421 
L 219.940025 297.66344 
" style="fill:none;stroke:#999999;"/>
    <path clip-path="url(#pfef19cfd14)" d="M 225.188171 215.672566 
L 224.999307 198.984484 
" style="fill:none;stroke:#999999;"/>
    <path clip-path="url(#pfef19cfd14)" d="M 225.188171 215.672566 
L 221.078935 220.948296 
L 210.880247 223.781149 
" style="fill:none;stroke:#999999;"/>
    <path clip-path="url(#pfef19cfd14)" d="M 225.188171 215.672566 
L 237.670405 217.283982 
L 270.595802 230.087008 
L 280.714367 232.132549 
L 295.66901 232.132549 
" style="fill:none;stroke:#999999;"/>
    <path clip-path="url(#pfef19cfd14)" d="M 224.999307 198.984484 
L 225.188171 215.672566 
" style="fill:none;stroke:#999999;"/>
    <path clip-path="url(#pfef19cfd14)" d="M 224.999307 198.984484 
L 235.604341 193.782335 
L 249.173977 185.710542 
L 264.346101 171.075359 
L 273.325754 166.564867 
L 280.273683 161.929289 
" style="fill:none;stroke:#999999;"/>
    <path clip-path="url(#pfef19cfd14)" d="M 224.999307 198.984484 
L 217.358875 201.375854 
L 198.512476 202.840108 
L 189.698794 203.642137 
L 180.621847 200.70627 
" style="fill:none;stroke:#999999;"/>
    <path clip-path="url(#pfef19cfd14)" d="M 280.273683 161.929289 
L 289.413585 202.840108 
" style="fill:none;stroke:#999999;"/>
    <path clip-path="url(#pfef19cfd14)" d="M 280.273683 161.929289 
L 290.386524 148.692137 
L 296.733519 143.423766 
L 308.958211 136.345311 
" style="fill:none;stroke:#999999;"/>
    <path clip-path="url(#pfef19cfd14)" d="M 280.273683 161.929289 
L 273.325754 166.564867 
L 264.346101 171.075359 
L 249.173977 185.710542 
L 235.604341 193.782335 
L 224.999307 198.984484 
" style="fill:none;stroke:#999999;"/>
    <path clip-path="url(#pfef19cfd14)" d="M 167.126612 140.487899 
L 142.705846 138.898558 
" style="fill:none;stroke:#999999;"/>
    <path clip-path="url(#pfef19cfd14)" d="M 167.126612 140.487899 
L 165.953362 122.092747 
" style="fill:none;stroke:#999999;"/>
    <path clip-path="url(#pfef19cfd14)" d="M 167.126612 140.487899 
L 175.15622 151.804597 
L 178.916342 166.498645 
L 180.364304 195.592418 
L 180.621847 200.70627 
" style="fill:none;stroke:#999999;"/>
    <path clip-path="url(#pfef19cfd14)" d="M 142.705846 138.898558 
L 167.126612 140.487899 
" style="fill:none;stroke:#999999;"/>
    <path clip-path="url(#pfef19cfd14)" d="M 165.953362 122.092747 
L 167.126612 140.487899 
" style="fill:none;stroke:#999999;"/>
    <path clip-path="url(#pfef19cfd14)" d="M 191.799198 281.409483 
L 219.630973 280.39407 
" style="fill:none;stroke:#999999;"/>
    <path clip-path="url(#pfef19cfd14)" d="M 191.799198 281.409483 
L 193.218544 293.697445 
L 197.053068 306.515187 
L 197.528091 319.053323 
L 199.31372 344.438633 
L 202.47291 360.545429 
L 211.561304 386.306 
" style="fill:none;stroke:#999999;"/>
    <path clip-path="url(#pfef19cfd14)" d="M 191.799198 281.409483 
L 189.904829 264.978933 
L 186.860102 250.829382 
L 190.093693 231.256939 
L 194.025511 219.292732 
" style="fill:none;stroke:#999999;"/>
    <path clip-path="url(#pfef19cfd14)" d="M 219.630973 280.39407 
L 191.799198 281.409483 
" style="fill:none;stroke:#999999;"/>
    <path clip-path="url(#pfef19cfd14)" d="M 219.630973 280.39407 
L 217.072716 262.984898 
L 214.686155 238.960829 
L 210.880247 223.781149 
" style="fill:none;stroke:#999999;"/>
    <path clip-path="url(#pfef19cfd14)" d="M 219.630973 280.39407 
L 219.922855 282.366031 
L 219.940025 297.66344 
" style="fill:none;stroke:#999999;"/>
    <path clip-path="url(#pfef19cfd14)" d="M 289.413585 202.840108 
L 280.273683 161.929289 
" style="fill:none;stroke:#999999;"/>
    <path clip-path="url(#pfef19cfd14)" d="M 289.413585 202.840108 
L 295.66901 232.132549 
" style="fill:none;stroke:#999999;"/>
    <path clip-path="url(#pfef19cfd14)" d="M 289.413585 202.840108 
L 303.37812 175.166441 
L 310.938427 152.8568 
" style="fill:none;stroke:#999999;"/>
    <path clip-path="url(#pfef19cfd14)" d="M 323.598079 158.2429 
L 310.938427 152.8568 
" style="fill:none;stroke:#999999;"/>
    <path clip-path="url(#pfef19cfd14)" d="M 310.938427 152.8568 
L 323.598079 158.2429 
" style="fill:none;stroke:#999999;"/>
    <path clip-path="url(#pfef19cfd14)" d="M 310.938427 152.8568 
L 311.505021 151.179162 
L 310.200138 140.635061 
L 308.958211 136.345311 
" style="fill:none;stroke:#999999;"/>
    <path clip-path="url(#pfef19cfd14)" d="M 310.938427 152.8568 
L 303.37812 175.166441 
L 289.413585 202.840108 
" style="fill:none;stroke:#999999;"/>
    <path clip-path="url(#pfef19cfd14)" d="M 340.246781 142.356847 
L 325.475279 141.878573 
L 315.551302 141.128051 
L 308.958211 136.345311 
" style="fill:none;stroke:#999999;"/>
    <path clip-path="url(#pfef19cfd14)" d="M 302.948882 382.089831 
L 226.138218 405.709207 
" style="fill:none;stroke:#999999;"/>
    <path clip-path="url(#pfef19cfd14)" d="M 302.948882 382.089831 
L 334.970018 372.244745 
" style="fill:none;stroke:#999999;"/>
    <path clip-path="url(#pfef19cfd14)" d="M 302.948882 382.089831 
L 306.892146 398.211343 
L 224.919183 423.692308 
L 220.363539 408.703938 
" style="fill:none;stroke:#999999;"/>
   </g>
  </g>
 </g>
 <defs>
  <clipPath id="pfef19cfd14">
   <rect height="432" width="880.565102" x="125.771901" y="0"/>
  </clipPath>
 </defs>
</svg>
