<?xml version="1.0" encoding="utf-8" standalone="no"?>
<!DOCTYPE svg PUBLIC "-//W3C//DTD SVG 1.1//EN"
  "http://www.w3.org/Graphics/SVG/1.1/DTD/svg11.dtd">
<!-- Created with matplotlib (http://matplotlib.org/) -->
<svg height="432pt" version="1.1" viewBox="0 0 819.240947 432" width="819.240947pt" xmlns="http://www.w3.org/2000/svg" xmlns:xlink="http://www.w3.org/1999/xlink">
 <defs>
  <style type="text/css">
*{stroke-linecap:butt;stroke-linejoin:round;}
  </style>
 </defs>
 <g id="figure_1">
  <g id="patch_1">
   <path d="M 0 432 
L 819.240947 432 
L 819.240947 0 
L 0 0 
z
" style="fill:none;opacity:0;"/>
  </g>
  <g id="axes_1">
   <g id="PathCollection_1">
    <defs>
     <path d="M 0 1.936492 
C 0.513564 1.936492 1.006162 1.732451 1.369306 1.369306 
C 1.732451 1.006162 1.936492 0.513564 1.936492 0 
C 1.936492 -0.513564 1.732451 -1.006162 1.369306 -1.369306 
C 1.006162 -1.732451 0.513564 -1.936492 0 -1.936492 
C -0.513564 -1.936492 -1.006162 -1.732451 -1.369306 -1.369306 
C -1.732451 -1.006162 -1.936492 -0.513564 -1.936492 0 
C -1.936492 0.513564 -1.732451 1.006162 -1.369306 1.369306 
C -1.006162 1.732451 -0.513564 1.936492 0 1.936492 
z
" id="C0_0_1f215614a5"/>
    </defs>
    <g clip-path="url(#pfc6f5c1ce5)">
     <use style="fill:#66ccff;" x="615.25892" xlink:href="#C0_0_1f215614a5" y="238.133548"/>
    </g>
    <g clip-path="url(#pfc6f5c1ce5)">
     <use style="fill:#66ccff;" x="541.57581" xlink:href="#C0_0_1f215614a5" y="206.802285"/>
    </g>
    <g clip-path="url(#pfc6f5c1ce5)">
     <use style="fill:#66ccff;" x="548.799733" xlink:href="#C0_0_1f215614a5" y="211.459651"/>
    </g>
    <g clip-path="url(#pfc6f5c1ce5)">
     <use style="fill:#66ccff;" x="620.148261" xlink:href="#C0_0_1f215614a5" y="187.795576"/>
    </g>
    <g clip-path="url(#pfc6f5c1ce5)">
     <use style="fill:#66ccff;" x="612.580428" xlink:href="#C0_0_1f215614a5" y="242.158676"/>
    </g>
    <g clip-path="url(#pfc6f5c1ce5)">
     <use style="fill:#66ccff;" x="644.986185" xlink:href="#C0_0_1f215614a5" y="336.64498"/>
    </g>
    <g clip-path="url(#pfc6f5c1ce5)">
     <use style="fill:#66ccff;" x="301.932608" xlink:href="#C0_0_1f215614a5" y="103.142135"/>
    </g>
    <g clip-path="url(#pfc6f5c1ce5)">
     <use style="fill:#66ccff;" x="330.693649" xlink:href="#C0_0_1f215614a5" y="91.03182"/>
    </g>
    <g clip-path="url(#pfc6f5c1ce5)">
     <use style="fill:#66ccff;" x="311.035297" xlink:href="#C0_0_1f215614a5" y="88.681015"/>
    </g>
    <g clip-path="url(#pfc6f5c1ce5)">
     <use style="fill:#66ccff;" x="287.391959" xlink:href="#C0_0_1f215614a5" y="100.333743"/>
    </g>
    <g clip-path="url(#pfc6f5c1ce5)">
     <use style="fill:#66ccff;" x="303.352827" xlink:href="#C0_0_1f215614a5" y="92.157738"/>
    </g>
    <g clip-path="url(#pfc6f5c1ce5)">
     <use style="fill:#66ccff;" x="312.350888" xlink:href="#C0_0_1f215614a5" y="75.273623"/>
    </g>
    <g clip-path="url(#pfc6f5c1ce5)">
     <use style="fill:#66ccff;" x="322.750063" xlink:href="#C0_0_1f215614a5" y="94.3467"/>
    </g>
    <g clip-path="url(#pfc6f5c1ce5)">
     <use style="fill:#66ccff;" x="323.366917" xlink:href="#C0_0_1f215614a5" y="90.078224"/>
    </g>
    <g clip-path="url(#pfc6f5c1ce5)">
     <use style="fill:#66ccff;" x="333.055527" xlink:href="#C0_0_1f215614a5" y="95.063934"/>
    </g>
    <g clip-path="url(#pfc6f5c1ce5)">
     <use style="fill:#66ccff;" x="288.908619" xlink:href="#C0_0_1f215614a5" y="90.868812"/>
    </g>
    <g clip-path="url(#pfc6f5c1ce5)">
     <use style="fill:#66ccff;" x="303.846856" xlink:href="#C0_0_1f215614a5" y="88.061585"/>
    </g>
    <g clip-path="url(#pfc6f5c1ce5)">
     <use style="fill:#66ccff;" x="310.618602" xlink:href="#C0_0_1f215614a5" y="93.086883"/>
    </g>
    <g clip-path="url(#pfc6f5c1ce5)">
     <use style="fill:#66ccff;" x="289.373534" xlink:href="#C0_0_1f215614a5" y="86.62013"/>
    </g>
    <g clip-path="url(#pfc6f5c1ce5)">
     <use style="fill:#66ccff;" x="288.724837" xlink:href="#C0_0_1f215614a5" y="95.137288"/>
    </g>
    <g clip-path="url(#pfc6f5c1ce5)">
     <use style="fill:#66ccff;" x="302.65409" xlink:href="#C0_0_1f215614a5" y="96.49491"/>
    </g>
    <g clip-path="url(#pfc6f5c1ce5)">
     <use style="fill:#66ccff;" x="287.960593" xlink:href="#C0_0_1f215614a5" y="62.952563"/>
    </g>
    <g clip-path="url(#pfc6f5c1ce5)">
     <use style="fill:#66ccff;" x="322.07771" xlink:href="#C0_0_1f215614a5" y="98.553465"/>
    </g>
    <g clip-path="url(#pfc6f5c1ce5)">
     <use style="fill:#66ccff;" x="309.621446" xlink:href="#C0_0_1f215614a5" y="104.729132"/>
    </g>
    <g clip-path="url(#pfc6f5c1ce5)">
     <use style="fill:#66ccff;" x="310.209186" xlink:href="#C0_0_1f215614a5" y="97.300634"/>
    </g>
    <g clip-path="url(#pfc6f5c1ce5)">
     <use style="fill:#66ccff;" x="266.044992" xlink:href="#C0_0_1f215614a5" y="106.48263"/>
    </g>
    <g clip-path="url(#pfc6f5c1ce5)">
     <use style="fill:#66ccff;" x="225.146121" xlink:href="#C0_0_1f215614a5" y="423.692308"/>
    </g>
    <g clip-path="url(#pfc6f5c1ce5)">
     <use style="fill:#66ccff;" x="231.815968" xlink:href="#C0_0_1f215614a5" y="202.618806"/>
    </g>
    <g clip-path="url(#pfc6f5c1ce5)">
     <use style="fill:#66ccff;" x="305.489981" xlink:href="#C0_0_1f215614a5" y="71.682795"/>
    </g>
    <g clip-path="url(#pfc6f5c1ce5)">
     <use style="fill:#66ccff;" x="272.450993" xlink:href="#C0_0_1f215614a5" y="100.439698"/>
    </g>
    <g clip-path="url(#pfc6f5c1ce5)">
     <use style="fill:#66ccff;" x="228.67347" xlink:href="#C0_0_1f215614a5" y="210.848371"/>
    </g>
    <g clip-path="url(#pfc6f5c1ce5)">
     <use style="fill:#66ccff;" x="261.321238" xlink:href="#C0_0_1f215614a5" y="97.690688"/>
    </g>
    <g clip-path="url(#pfc6f5c1ce5)">
     <use style="fill:#66ccff;" x="265.752032" xlink:href="#C0_0_1f215614a5" y="99.358025"/>
    </g>
    <g clip-path="url(#pfc6f5c1ce5)">
     <use style="fill:#66ccff;" x="324.32859" xlink:href="#C0_0_1f215614a5" y="81.753183"/>
    </g>
    <g clip-path="url(#pfc6f5c1ce5)">
     <use style="fill:#66ccff;" x="126.556851" xlink:href="#C0_0_1f215614a5" y="399.232988"/>
    </g>
    <g clip-path="url(#pfc6f5c1ce5)">
     <use style="fill:#66ccff;" x="373.267488" xlink:href="#C0_0_1f215614a5" y="106.833097"/>
    </g>
    <g clip-path="url(#pfc6f5c1ce5)">
     <use style="fill:#66ccff;" x="711.707398" xlink:href="#C0_0_1f215614a5" y="31.234739"/>
    </g>
    <g clip-path="url(#pfc6f5c1ce5)">
     <use style="fill:#66ccff;" x="705.313225" xlink:href="#C0_0_1f215614a5" y="39.529507"/>
    </g>
    <g clip-path="url(#pfc6f5c1ce5)">
     <use style="fill:#66ccff;" x="693.539321" xlink:href="#C0_0_1f215614a5" y="36.751388"/>
    </g>
    <g clip-path="url(#pfc6f5c1ce5)">
     <use style="fill:#66ccff;" x="688.951129" xlink:href="#C0_0_1f215614a5" y="28.943315"/>
    </g>
    <g clip-path="url(#pfc6f5c1ce5)">
     <use style="fill:#66ccff;" x="713.610729" xlink:href="#C0_0_1f215614a5" y="26.208277"/>
    </g>
    <g clip-path="url(#pfc6f5c1ce5)">
     <use style="fill:#66ccff;" x="548.22837" xlink:href="#C0_0_1f215614a5" y="212.940693"/>
    </g>
    <g clip-path="url(#pfc6f5c1ce5)">
     <use style="fill:#66ccff;" x="680.283331" xlink:href="#C0_0_1f215614a5" y="8.307692"/>
    </g>
    <g clip-path="url(#pfc6f5c1ce5)">
     <use style="fill:#66ccff;" x="597.195472" xlink:href="#C0_0_1f215614a5" y="240.138544"/>
    </g>
    <g clip-path="url(#pfc6f5c1ce5)">
     <use style="fill:#66ccff;" x="624.329766" xlink:href="#C0_0_1f215614a5" y="238.594627"/>
    </g>
    <g clip-path="url(#pfc6f5c1ce5)">
     <use style="fill:#66ccff;" x="698.623362" xlink:href="#C0_0_1f215614a5" y="32.451476"/>
    </g>
    <g clip-path="url(#pfc6f5c1ce5)">
     <use style="fill:#66ccff;" x="716.581272" xlink:href="#C0_0_1f215614a5" y="45.33142"/>
    </g>
    <g clip-path="url(#pfc6f5c1ce5)">
     <use style="fill:#66ccff;" x="711.8466" xlink:href="#C0_0_1f215614a5" y="43.190196"/>
    </g>
    <g clip-path="url(#pfc6f5c1ce5)">
     <use style="fill:#66ccff;" x="712.788257" xlink:href="#C0_0_1f215614a5" y="25.204615"/>
    </g>
    <g clip-path="url(#pfc6f5c1ce5)">
     <use style="fill:#66ccff;" x="714.726161" xlink:href="#C0_0_1f215614a5" y="23.525634"/>
    </g>
    <g clip-path="url(#pfc6f5c1ce5)">
     <use style="fill:#66ccff;" x="698.108408" xlink:href="#C0_0_1f215614a5" y="35.358836"/>
    </g>
    <g clip-path="url(#pfc6f5c1ce5)">
     <use style="fill:#66ccff;" x="697.204962" xlink:href="#C0_0_1f215614a5" y="34.748721"/>
    </g>
   </g>
   <g id="LineCollection_1">
    <path clip-path="url(#pfc6f5c1ce5)" d="M 615.25892 238.133548 
L 612.580428 242.158676 
" style="fill:none;stroke:#999999;"/>
    <path clip-path="url(#pfc6f5c1ce5)" d="M 615.25892 238.133548 
L 624.329766 238.594627 
" style="fill:none;stroke:#999999;"/>
    <path clip-path="url(#pfc6f5c1ce5)" d="M 615.25892 238.133548 
L 616.271543 236.791062 
L 617.563479 232.97668 
L 618.109368 230.281229 
L 618.1494 228.580127 
L 617.800031 221.949202 
L 617.41336 214.597551 
L 617.51162 211.627316 
L 620.967094 188.941288 
L 620.148261 187.795576 
" style="fill:none;stroke:#999999;"/>
    <path clip-path="url(#pfc6f5c1ce5)" d="M 615.25892 238.133548 
L 613.955157 238.53641 
L 612.222871 238.996325 
L 610.685285 239.366585 
L 609.417004 239.485348 
L 607.512763 239.609933 
L 603.535966 239.776434 
L 600.24153 239.975536 
L 597.195472 240.138544 
" style="fill:none;stroke:#999999;"/>
    <path clip-path="url(#pfc6f5c1ce5)" d="M 541.57581 206.802285 
L 548.799733 211.459651 
" style="fill:none;stroke:#999999;"/>
    <path clip-path="url(#pfc6f5c1ce5)" d="M 541.57581 206.802285 
L 548.22837 212.940693 
" style="fill:none;stroke:#999999;"/>
    <path clip-path="url(#pfc6f5c1ce5)" d="M 541.57581 206.802285 
L 533.816005 200.625454 
L 524.151961 192.512323 
L 513.218725 183.532922 
L 498.772698 171.233984 
L 480.132427 150.303783 
L 474.476113 144.547279 
L 470.993345 141.539785 
L 462.0153 136.89057 
L 454.265504 134.539765 
L 447.585649 133.41734 
L 421.024538 129.676311 
L 416.409051 128.714565 
L 410.295101 125.918981 
L 374.764132 107.610877 
L 373.267488 106.833097 
" style="fill:none;stroke:#999999;"/>
    <path clip-path="url(#pfc6f5c1ce5)" d="M 548.799733 211.459651 
L 541.57581 206.802285 
" style="fill:none;stroke:#999999;"/>
    <path clip-path="url(#pfc6f5c1ce5)" d="M 548.799733 211.459651 
L 548.22837 212.940693 
" style="fill:none;stroke:#999999;"/>
    <path clip-path="url(#pfc6f5c1ce5)" d="M 548.799733 211.459651 
L 551.866716 213.195684 
L 554.990108 214.957332 
L 558.50472 216.751582 
L 562.604342 218.37351 
L 566.947794 220.14098 
L 571.096546 221.629008 
L 576.611839 222.998274 
L 581.101771 223.356891 
L 585.101314 223.062313 
L 589.413832 222.185564 
L 593.205937 220.992114 
L 597.35469 218.85904 
L 600.428951 216.618847 
L 603.405863 214.179552 
L 606.898639 210.084564 
L 611.642409 203.070571 
L 617.36514 193.697623 
L 620.148261 187.795576 
" style="fill:none;stroke:#999999;"/>
    <path clip-path="url(#pfc6f5c1ce5)" d="M 620.148261 187.795576 
L 621.455664 183.638877 
L 622.20899 179.845453 
L 629.511157 135.019474 
L 646.068863 98.243751 
L 662.053386 64.615242 
L 670.926803 37.626973 
L 673.741768 28.764006 
L 680.283331 8.307692 
" style="fill:none;stroke:#999999;"/>
    <path clip-path="url(#pfc6f5c1ce5)" d="M 620.148261 187.795576 
L 617.36514 193.697623 
L 611.642409 203.070571 
L 606.898639 210.084564 
L 603.405863 214.179552 
L 600.428951 216.618847 
L 597.35469 218.85904 
L 593.205937 220.992114 
L 589.413832 222.185564 
L 585.101314 223.062313 
L 581.101771 223.356891 
L 576.611839 222.998274 
L 571.096546 221.629008 
L 566.947794 220.14098 
L 562.604342 218.37351 
L 558.50472 216.751582 
L 554.990108 214.957332 
L 551.866716 213.195684 
L 548.799733 211.459651 
" style="fill:none;stroke:#999999;"/>
    <path clip-path="url(#pfc6f5c1ce5)" d="M 620.148261 187.795576 
L 620.967094 188.941288 
L 617.51162 211.627316 
L 617.41336 214.597551 
L 617.800031 221.949202 
L 618.1494 228.580127 
L 618.109368 230.281229 
L 617.563479 232.97668 
L 616.271543 236.791062 
L 615.25892 238.133548 
" style="fill:none;stroke:#999999;"/>
    <path clip-path="url(#pfc6f5c1ce5)" d="M 612.580428 242.158676 
L 615.25892 238.133548 
" style="fill:none;stroke:#999999;"/>
    <path clip-path="url(#pfc6f5c1ce5)" d="M 612.580428 242.158676 
L 612.304754 244.030937 
L 610.655261 247.202603 
L 609.932869 248.291262 
L 608.70189 249.645391 
L 608.40893 250.449951 
L 608.40893 251.060066 
L 608.31158 251.621279 
L 608.189665 252.280296 
L 608.189665 252.939313 
L 608.21423 253.281629 
L 608.45806 253.573879 
L 608.677325 253.965098 
L 608.970286 254.428506 
L 609.360596 255.063072 
L 609.702686 255.550931 
L 610.678916 256.405557 
L 612.118242 257.503531 
L 613.704958 258.601505 
L 614.558363 259.21162 
L 615.315329 259.72393 
L 616.632739 260.700813 
L 617.70723 261.529824 
L 618.14576 261.847689 
L 618.5852 262.311097 
L 619.146556 263.164559 
L 620.684141 265.898433 
L 620.855187 266.532999 
L 625.784559 281.444719 
L 628.12733 288.180434 
L 635.252994 302.041918 
L 637.058065 304.898048 
L 638.279035 306.924002 
L 640.889292 311.487056 
L 642.354093 314.684337 
L 643.476803 319.883122 
L 643.671503 320.809937 
L 643.817983 322.713636 
L 643.915334 323.812774 
L 644.086379 325.643119 
L 644.183729 327.083409 
L 644.354774 328.718144 
L 644.501254 330.450684 
L 644.794214 334.306983 
L 644.965259 335.820627 
L 644.986185 336.64498 
" style="fill:none;stroke:#999999;"/>
    <path clip-path="url(#pfc6f5c1ce5)" d="M 612.580428 242.158676 
L 607.540058 243.036589 
L 597.047172 242.987687 
L 597.195472 240.138544 
" style="fill:none;stroke:#999999;"/>
    <path clip-path="url(#pfc6f5c1ce5)" d="M 644.986185 336.64498 
L 644.965259 335.820627 
L 644.794214 334.306983 
L 644.501254 330.450684 
L 644.354774 328.718144 
L 644.183729 327.083409 
L 644.086379 325.643119 
L 643.915334 323.812774 
L 643.817983 322.713636 
L 643.671503 320.809937 
L 643.476803 319.883122 
L 642.354093 314.684337 
L 640.889292 311.487056 
L 638.279035 306.924002 
L 637.058065 304.898048 
L 635.252994 302.041918 
L 628.12733 288.180434 
L 625.784559 281.444719 
L 620.855187 266.532999 
L 620.684141 265.898433 
L 619.146556 263.164559 
L 618.5852 262.311097 
L 618.14576 261.847689 
L 617.70723 261.529824 
L 616.632739 260.700813 
L 615.315329 259.72393 
L 614.558363 259.21162 
L 613.704958 258.601505 
L 612.118242 257.503531 
L 610.678916 256.405557 
L 609.702686 255.550931 
L 609.360596 255.063072 
L 608.970286 254.428506 
L 608.677325 253.965098 
L 608.45806 253.573879 
L 608.21423 253.281629 
L 608.189665 252.939313 
L 608.189665 252.280296 
L 608.31158 251.621279 
L 608.40893 251.060066 
L 608.40893 250.449951 
L 608.70189 249.645391 
L 609.932869 248.291262 
L 610.655261 247.202603 
L 612.304754 244.030937 
L 612.580428 242.158676 
" style="fill:none;stroke:#999999;"/>
    <path clip-path="url(#pfc6f5c1ce5)" d="M 301.932608 103.142135 
L 287.391959 100.333743 
" style="fill:none;stroke:#999999;"/>
    <path clip-path="url(#pfc6f5c1ce5)" d="M 301.932608 103.142135 
L 302.65409 96.49491 
" style="fill:none;stroke:#999999;"/>
    <path clip-path="url(#pfc6f5c1ce5)" d="M 301.932608 103.142135 
L 303.541159 103.534518 
L 309.621446 104.729132 
" style="fill:none;stroke:#999999;"/>
    <path clip-path="url(#pfc6f5c1ce5)" d="M 330.693649 91.03182 
L 323.366917 90.078224 
" style="fill:none;stroke:#999999;"/>
    <path clip-path="url(#pfc6f5c1ce5)" d="M 311.035297 88.681015 
L 323.366917 90.078224 
" style="fill:none;stroke:#999999;"/>
    <path clip-path="url(#pfc6f5c1ce5)" d="M 311.035297 88.681015 
L 303.846856 88.061585 
" style="fill:none;stroke:#999999;"/>
    <path clip-path="url(#pfc6f5c1ce5)" d="M 311.035297 88.681015 
L 312.350888 75.273623 
" style="fill:none;stroke:#999999;"/>
    <path clip-path="url(#pfc6f5c1ce5)" d="M 311.035297 88.681015 
L 310.618602 93.086883 
" style="fill:none;stroke:#999999;"/>
    <path clip-path="url(#pfc6f5c1ce5)" d="M 287.391959 100.333743 
L 301.932608 103.142135 
" style="fill:none;stroke:#999999;"/>
    <path clip-path="url(#pfc6f5c1ce5)" d="M 287.391959 100.333743 
L 288.724837 95.137288 
" style="fill:none;stroke:#999999;"/>
    <path clip-path="url(#pfc6f5c1ce5)" d="M 287.391959 100.333743 
L 285.655124 100.968309 
L 279.50933 100.918243 
L 272.450993 100.439698 
" style="fill:none;stroke:#999999;"/>
    <path clip-path="url(#pfc6f5c1ce5)" d="M 303.352827 92.157738 
L 302.65409 96.49491 
" style="fill:none;stroke:#999999;"/>
    <path clip-path="url(#pfc6f5c1ce5)" d="M 303.352827 92.157738 
L 303.846856 88.061585 
" style="fill:none;stroke:#999999;"/>
    <path clip-path="url(#pfc6f5c1ce5)" d="M 303.352827 92.157738 
L 288.908619 90.868812 
" style="fill:none;stroke:#999999;"/>
    <path clip-path="url(#pfc6f5c1ce5)" d="M 303.352827 92.157738 
L 310.618602 93.086883 
" style="fill:none;stroke:#999999;"/>
    <path clip-path="url(#pfc6f5c1ce5)" d="M 312.350888 75.273623 
L 311.035297 88.681015 
" style="fill:none;stroke:#999999;"/>
    <path clip-path="url(#pfc6f5c1ce5)" d="M 312.350888 75.273623 
L 305.489981 71.682795 
" style="fill:none;stroke:#999999;"/>
    <path clip-path="url(#pfc6f5c1ce5)" d="M 312.350888 75.273623 
L 316.06202 77.215745 
L 324.32859 81.753183 
" style="fill:none;stroke:#999999;"/>
    <path clip-path="url(#pfc6f5c1ce5)" d="M 322.750063 94.3467 
L 310.618602 93.086883 
" style="fill:none;stroke:#999999;"/>
    <path clip-path="url(#pfc6f5c1ce5)" d="M 322.750063 94.3467 
L 333.055527 95.063934 
" style="fill:none;stroke:#999999;"/>
    <path clip-path="url(#pfc6f5c1ce5)" d="M 322.750063 94.3467 
L 323.366917 90.078224 
" style="fill:none;stroke:#999999;"/>
    <path clip-path="url(#pfc6f5c1ce5)" d="M 322.750063 94.3467 
L 322.07771 98.553465 
" style="fill:none;stroke:#999999;"/>
    <path clip-path="url(#pfc6f5c1ce5)" d="M 323.366917 90.078224 
L 330.693649 91.03182 
" style="fill:none;stroke:#999999;"/>
    <path clip-path="url(#pfc6f5c1ce5)" d="M 323.366917 90.078224 
L 311.035297 88.681015 
" style="fill:none;stroke:#999999;"/>
    <path clip-path="url(#pfc6f5c1ce5)" d="M 323.366917 90.078224 
L 322.750063 94.3467 
" style="fill:none;stroke:#999999;"/>
    <path clip-path="url(#pfc6f5c1ce5)" d="M 323.366917 90.078224 
L 324.040179 83.819889 
L 324.32859 81.753183 
" style="fill:none;stroke:#999999;"/>
    <path clip-path="url(#pfc6f5c1ce5)" d="M 333.055527 95.063934 
L 322.750063 94.3467 
" style="fill:none;stroke:#999999;"/>
    <path clip-path="url(#pfc6f5c1ce5)" d="M 288.908619 90.868812 
L 289.373534 86.62013 
" style="fill:none;stroke:#999999;"/>
    <path clip-path="url(#pfc6f5c1ce5)" d="M 288.908619 90.868812 
L 288.724837 95.137288 
" style="fill:none;stroke:#999999;"/>
    <path clip-path="url(#pfc6f5c1ce5)" d="M 288.908619 90.868812 
L 303.352827 92.157738 
" style="fill:none;stroke:#999999;"/>
    <path clip-path="url(#pfc6f5c1ce5)" d="M 303.846856 88.061585 
L 303.352827 92.157738 
" style="fill:none;stroke:#999999;"/>
    <path clip-path="url(#pfc6f5c1ce5)" d="M 303.846856 88.061585 
L 311.035297 88.681015 
" style="fill:none;stroke:#999999;"/>
    <path clip-path="url(#pfc6f5c1ce5)" d="M 303.846856 88.061585 
L 304.810349 77.963252 
L 305.489981 71.682795 
" style="fill:none;stroke:#999999;"/>
    <path clip-path="url(#pfc6f5c1ce5)" d="M 303.846856 88.061585 
L 296.031554 87.179014 
L 289.373534 86.62013 
" style="fill:none;stroke:#999999;"/>
    <path clip-path="url(#pfc6f5c1ce5)" d="M 310.618602 93.086883 
L 322.750063 94.3467 
" style="fill:none;stroke:#999999;"/>
    <path clip-path="url(#pfc6f5c1ce5)" d="M 310.618602 93.086883 
L 310.209186 97.300634 
" style="fill:none;stroke:#999999;"/>
    <path clip-path="url(#pfc6f5c1ce5)" d="M 310.618602 93.086883 
L 311.035297 88.681015 
" style="fill:none;stroke:#999999;"/>
    <path clip-path="url(#pfc6f5c1ce5)" d="M 310.618602 93.086883 
L 303.352827 92.157738 
" style="fill:none;stroke:#999999;"/>
    <path clip-path="url(#pfc6f5c1ce5)" d="M 289.373534 86.62013 
L 288.908619 90.868812 
" style="fill:none;stroke:#999999;"/>
    <path clip-path="url(#pfc6f5c1ce5)" d="M 289.373534 86.62013 
L 296.031554 87.179014 
L 303.846856 88.061585 
" style="fill:none;stroke:#999999;"/>
    <path clip-path="url(#pfc6f5c1ce5)" d="M 289.373534 86.62013 
L 289.765664 82.685821 
L 286.198283 73.331502 
L 285.881668 70.611601 
L 287.960593 62.952563 
" style="fill:none;stroke:#999999;"/>
    <path clip-path="url(#pfc6f5c1ce5)" d="M 288.724837 95.137288 
L 288.908619 90.868812 
" style="fill:none;stroke:#999999;"/>
    <path clip-path="url(#pfc6f5c1ce5)" d="M 288.724837 95.137288 
L 287.391959 100.333743 
" style="fill:none;stroke:#999999;"/>
    <path clip-path="url(#pfc6f5c1ce5)" d="M 288.724837 95.137288 
L 302.65409 96.49491 
" style="fill:none;stroke:#999999;"/>
    <path clip-path="url(#pfc6f5c1ce5)" d="M 288.724837 95.137288 
L 275.312358 93.403583 
L 274.928417 94.623813 
L 272.450993 100.439698 
" style="fill:none;stroke:#999999;"/>
    <path clip-path="url(#pfc6f5c1ce5)" d="M 302.65409 96.49491 
L 303.352827 92.157738 
" style="fill:none;stroke:#999999;"/>
    <path clip-path="url(#pfc6f5c1ce5)" d="M 302.65409 96.49491 
L 310.209186 97.300634 
" style="fill:none;stroke:#999999;"/>
    <path clip-path="url(#pfc6f5c1ce5)" d="M 302.65409 96.49491 
L 288.724837 95.137288 
" style="fill:none;stroke:#999999;"/>
    <path clip-path="url(#pfc6f5c1ce5)" d="M 302.65409 96.49491 
L 301.932608 103.142135 
" style="fill:none;stroke:#999999;"/>
    <path clip-path="url(#pfc6f5c1ce5)" d="M 287.960593 62.952563 
L 285.881668 70.611601 
L 286.198283 73.331502 
L 289.765664 82.685821 
L 289.373534 86.62013 
" style="fill:none;stroke:#999999;"/>
    <path clip-path="url(#pfc6f5c1ce5)" d="M 287.960593 62.952563 
L 291.081255 64.667638 
L 296.6848 67.584313 
L 305.489981 71.682795 
" style="fill:none;stroke:#999999;"/>
    <path clip-path="url(#pfc6f5c1ce5)" d="M 322.07771 98.553465 
L 322.750063 94.3467 
" style="fill:none;stroke:#999999;"/>
    <path clip-path="url(#pfc6f5c1ce5)" d="M 322.07771 98.553465 
L 310.209186 97.300634 
" style="fill:none;stroke:#999999;"/>
    <path clip-path="url(#pfc6f5c1ce5)" d="M 322.07771 98.553465 
L 321.654647 99.264878 
L 321.191551 102.26655 
L 309.621446 104.729132 
" style="fill:none;stroke:#999999;"/>
    <path clip-path="url(#pfc6f5c1ce5)" d="M 322.07771 98.553465 
L 331.360543 99.532676 
L 349.57684 106.007579 
L 368.12249 112.062154 
L 369.657346 112.080784 
L 370.134998 110.450706 
L 371.287733 108.45386 
L 373.267488 106.833097 
" style="fill:none;stroke:#999999;"/>
    <path clip-path="url(#pfc6f5c1ce5)" d="M 309.621446 104.729132 
L 310.209186 97.300634 
" style="fill:none;stroke:#999999;"/>
    <path clip-path="url(#pfc6f5c1ce5)" d="M 309.621446 104.729132 
L 303.541159 103.534518 
L 301.932608 103.142135 
" style="fill:none;stroke:#999999;"/>
    <path clip-path="url(#pfc6f5c1ce5)" d="M 309.621446 104.729132 
L 321.191551 102.26655 
L 321.654647 99.264878 
L 322.07771 98.553465 
" style="fill:none;stroke:#999999;"/>
    <path clip-path="url(#pfc6f5c1ce5)" d="M 310.209186 97.300634 
L 310.618602 93.086883 
" style="fill:none;stroke:#999999;"/>
    <path clip-path="url(#pfc6f5c1ce5)" d="M 310.209186 97.300634 
L 309.621446 104.729132 
" style="fill:none;stroke:#999999;"/>
    <path clip-path="url(#pfc6f5c1ce5)" d="M 310.209186 97.300634 
L 302.65409 96.49491 
" style="fill:none;stroke:#999999;"/>
    <path clip-path="url(#pfc6f5c1ce5)" d="M 310.209186 97.300634 
L 322.07771 98.553465 
" style="fill:none;stroke:#999999;"/>
    <path clip-path="url(#pfc6f5c1ce5)" d="M 266.044992 106.48263 
L 266.826523 105.164596 
L 267.070353 102.919746 
L 266.777393 100.625993 
L 265.752032 99.358025 
" style="fill:none;stroke:#999999;"/>
    <path clip-path="url(#pfc6f5c1ce5)" d="M 266.044992 106.48263 
L 260.246747 111.745453 
L 255.512985 114.575967 
L 250.085944 116.925608 
L 248.728501 118.137688 
L 247.508441 120.188093 
L 240.471029 132.931809 
L 239.602157 135.316381 
L 239.162716 137.610133 
L 238.860658 140.300926 
L 238.615918 142.790288 
L 237.639688 146.157563 
L 236.761717 149.329229 
L 236.419627 152.159743 
L 236.419627 154.502398 
L 236.088455 157.423731 
L 236.126667 158.894294 
L 237.015555 160.254245 
L 238.918886 161.962334 
L 239.738629 163.042842 
L 240.031589 164.507584 
L 239.651287 166.305327 
L 238.177388 169.63185 
L 237.796176 170.795027 
L 237.308515 173.284389 
L 236.322277 175.780737 
L 234.468076 179.196915 
L 233.793904 180.898018 
L 233.500944 182.118247 
L 233.540066 183.833322 
L 233.647424 186.022284 
L 233.403593 188.023787 
L 232.905925 191.056896 
L 232.320005 194.912031 
L 231.832345 198.913872 
L 231.929695 201.549941 
L 231.815968 202.618806 
" style="fill:none;stroke:#999999;"/>
    <path clip-path="url(#pfc6f5c1ce5)" d="M 266.044992 106.48263 
L 268.050222 105.326439 
L 271.228203 102.206004 
L 272.450993 100.439698 
" style="fill:none;stroke:#999999;"/>
    <path clip-path="url(#pfc6f5c1ce5)" d="M 225.146121 423.692308 
L 228.230391 422.659537 
L 230.719642 420.609132 
L 233.403593 418.510988 
L 238.772406 416.460583 
L 241.93492 414.709414 
L 244.717131 412.464564 
L 247.108123 411.244334 
L 248.973241 410.943934 
L 251.071273 410.260465 
L 252.340463 409.625899 
L 252.974604 408.551212 
L 252.965505 407.337968 
L 252.389593 406.159655 
L 250.144172 404.743816 
L 246.376632 401.773581 
L 244.326821 399.478664 
L 241.349 393.133003 
L 238.576796 385.022201 
L 237.845306 381.117 
L 237.884428 376.584219 
L 237.102897 373.02017 
L 235.688137 368.969426 
L 232.662095 355.691277 
L 227.05855 347.971694 
L 225.146121 345.391513 
L 224.804031 343.926772 
L 225.594659 342.162794 
L 225.69201 340.746955 
L 224.071631 338.411286 
L 222.36391 334.261574 
L 221.934477 330.837246 
L 222.1683 327.672566 
L 223.53484 324.304126 
L 225.253479 319.561763 
L 225.448179 316.584543 
L 225.713845 315.026654 
L 225.790269 314.58304 
L 226.804712 312.198468 
L 227.54712 310.238882 
L 227.54712 308.481891 
L 226.658232 306.244027 
L 225.83849 302.429644 
L 224.911389 294.668144 
L 224.471949 285.49197 
L 222.55861 278.275382 
L 222.080958 276.4136 
L 222.51039 274.614692 
L 223.6331 273.052146 
L 224.316371 270.270535 
L 225.340821 267.781173 
L 227.595341 265.089216 
L 228.816311 263.820083 
L 229.293963 260.459794 
L 229.977234 257.970432 
L 231.295554 255.627777 
L 235.882837 252.01599 
L 237.542338 250.210097 
L 239.592149 244.694612 
L 240.724867 240.831327 
L 241.115177 238.684281 
L 241.115177 235.170299 
L 239.992467 231.021751 
L 239.104488 227.758102 
L 237.347637 224.731978 
L 235.199566 222.048171 
L 233.540066 218.583091 
L 231.978825 216.923905 
L 229.830754 215.263554 
L 228.913661 213.841893 
L 228.67347 210.848371 
" style="fill:none;stroke:#999999;"/>
    <path clip-path="url(#pfc6f5c1ce5)" d="M 231.815968 202.618806 
L 233.208893 206.618319 
L 233.940384 208.228603 
L 235.297826 210.383799 
L 235.639916 211.896279 
L 234.760126 213.018704 
L 233.500944 213.109522 
L 231.239146 212.252567 
L 228.67347 210.848371 
" style="fill:none;stroke:#999999;"/>
    <path clip-path="url(#pfc6f5c1ce5)" d="M 231.815968 202.618806 
L 231.685865 203.843694 
L 230.329332 206.032655 
L 228.757173 208.431199 
L 228.474221 209.985595 
L 228.67347 210.848371 
" style="fill:none;stroke:#999999;"/>
    <path clip-path="url(#pfc6f5c1ce5)" d="M 231.815968 202.618806 
L 231.929695 201.549941 
L 231.832345 198.913872 
L 232.320005 194.912031 
L 232.905925 191.056896 
L 233.403593 188.023787 
L 233.647424 186.022284 
L 233.540066 183.833322 
L 233.500944 182.118247 
L 233.793904 180.898018 
L 234.468076 179.196915 
L 236.322277 175.780737 
L 237.308515 173.284389 
L 237.796176 170.795027 
L 238.177388 169.63185 
L 239.651287 166.305327 
L 240.031589 164.507584 
L 239.738629 163.042842 
L 238.918886 161.962334 
L 237.015555 160.254245 
L 236.126667 158.894294 
L 236.088455 157.423731 
L 236.419627 154.502398 
L 236.419627 152.159743 
L 236.761717 149.329229 
L 237.639688 146.157563 
L 238.615918 142.790288 
L 238.860658 140.300926 
L 239.162716 137.610133 
L 239.602157 135.316381 
L 240.471029 132.931809 
L 247.508441 120.188093 
L 248.728501 118.137688 
L 250.085944 116.925608 
L 255.512985 114.575967 
L 260.246747 111.745453 
L 266.044992 106.48263 
" style="fill:none;stroke:#999999;"/>
    <path clip-path="url(#pfc6f5c1ce5)" d="M 305.489981 71.682795 
L 312.350888 75.273623 
" style="fill:none;stroke:#999999;"/>
    <path clip-path="url(#pfc6f5c1ce5)" d="M 305.489981 71.682795 
L 304.810349 77.963252 
L 303.846856 88.061585 
" style="fill:none;stroke:#999999;"/>
    <path clip-path="url(#pfc6f5c1ce5)" d="M 305.489981 71.682795 
L 296.6848 67.584313 
L 291.081255 64.667638 
L 287.960593 62.952563 
" style="fill:none;stroke:#999999;"/>
    <path clip-path="url(#pfc6f5c1ce5)" d="M 272.450993 100.439698 
L 272.012463 100.41059 
L 269.031912 100.374495 
L 267.518891 99.984441 
L 265.752032 99.358025 
" style="fill:none;stroke:#999999;"/>
    <path clip-path="url(#pfc6f5c1ce5)" d="M 272.450993 100.439698 
L 279.50933 100.918243 
L 285.655124 100.968309 
L 287.391959 100.333743 
" style="fill:none;stroke:#999999;"/>
    <path clip-path="url(#pfc6f5c1ce5)" d="M 272.450993 100.439698 
L 271.228203 102.206004 
L 268.050222 105.326439 
L 266.044992 106.48263 
" style="fill:none;stroke:#999999;"/>
    <path clip-path="url(#pfc6f5c1ce5)" d="M 272.450993 100.439698 
L 274.928417 94.623813 
L 275.312358 93.403583 
L 288.724837 95.137288 
" style="fill:none;stroke:#999999;"/>
    <path clip-path="url(#pfc6f5c1ce5)" d="M 228.67347 210.848371 
L 200.976911 195.685153 
L 187.479819 200.45546 
L 177.699318 189.153198 
L 168.055289 182.983353 
L 163.858317 187.180804 
L 172.838182 209.729439 
L 171.549885 212.188528 
L 165.303102 214.238934 
L 164.638937 216.561795 
L 165.303102 221.462508 
L 156.809988 228.197058 
L 147.361569 231.106747 
L 143.534891 240.009302 
L 140.314149 244.206753 
L 128.912359 249.751346 
L 123.914751 261.288805 
L 126.765198 268.200336 
L 126.453132 271.246253 
L 115.227846 283.448551 
L 110.65967 292.604931 
L 109.663423 296.432122 
L 104.00165 306.389569 
L 101.854489 312.149566 
L 112.220911 339.269406 
L 122.275266 342.686748 
L 129.088863 348.954398 
L 129.289932 354.712066 
L 126.849811 383.513215 
L 126.06919 392.202695 
L 126.06919 396.2057 
L 126.556851 399.232988 
" style="fill:none;stroke:#999999;"/>
    <path clip-path="url(#pfc6f5c1ce5)" d="M 228.67347 210.848371 
L 231.239146 212.252567 
L 233.500944 213.109522 
L 234.760126 213.018704 
L 235.639916 211.896279 
L 235.297826 210.383799 
L 233.940384 208.228603 
L 233.208893 206.618319 
L 231.815968 202.618806 
" style="fill:none;stroke:#999999;"/>
    <path clip-path="url(#pfc6f5c1ce5)" d="M 228.67347 210.848371 
L 228.474221 209.985595 
L 228.757173 208.431199 
L 230.329332 206.032655 
L 231.685865 203.843694 
L 231.815968 202.618806 
" style="fill:none;stroke:#999999;"/>
    <path clip-path="url(#pfc6f5c1ce5)" d="M 228.67347 210.848371 
L 228.913661 213.841893 
L 229.830754 215.263554 
L 231.978825 216.923905 
L 233.540066 218.583091 
L 235.199566 222.048171 
L 237.347637 224.731978 
L 239.104488 227.758102 
L 239.992467 231.021751 
L 241.115177 235.170299 
L 241.115177 238.684281 
L 240.724867 240.831327 
L 239.592149 244.694612 
L 237.542338 250.210097 
L 235.882837 252.01599 
L 231.295554 255.627777 
L 229.977234 257.970432 
L 229.293963 260.459794 
L 228.816311 263.820083 
L 227.595341 265.089216 
L 225.340821 267.781173 
L 224.316371 270.270535 
L 223.6331 273.052146 
L 222.51039 274.614692 
L 222.080958 276.4136 
L 222.55861 278.275382 
L 224.471949 285.49197 
L 224.911389 294.668144 
L 225.83849 302.429644 
L 226.658232 306.244027 
L 227.54712 308.481891 
L 227.54712 310.238882 
L 226.804712 312.198468 
L 225.790269 314.58304 
L 225.713845 315.026654 
L 225.448179 316.584543 
L 225.253479 319.561763 
L 223.53484 324.304126 
L 222.1683 327.672566 
L 221.934477 330.837246 
L 222.36391 334.261574 
L 224.071631 338.411286 
L 225.69201 340.746955 
L 225.594659 342.162794 
L 224.804031 343.926772 
L 225.146121 345.391513 
L 227.05855 347.971694 
L 232.662095 355.691277 
L 235.688137 368.969426 
L 237.102897 373.02017 
L 237.884428 376.584219 
L 237.845306 381.117 
L 238.576796 385.022201 
L 241.349 393.133003 
L 244.326821 399.478664 
L 246.376632 401.773581 
L 250.144172 404.743816 
L 252.389593 406.159655 
L 252.965505 407.337968 
L 252.974604 408.551212 
L 252.340463 409.625899 
L 251.071273 410.260465 
L 248.973241 410.943934 
L 247.108123 411.244334 
L 244.717131 412.464564 
L 241.93492 414.709414 
L 238.772406 416.460583 
L 233.403593 418.510988 
L 230.719642 420.609132 
L 228.230391 422.659537 
L 225.146121 423.692308 
" style="fill:none;stroke:#999999;"/>
    <path clip-path="url(#pfc6f5c1ce5)" d="M 261.321238 97.690688 
L 263.654001 98.332241 
L 265.752032 99.358025 
" style="fill:none;stroke:#999999;"/>
    <path clip-path="url(#pfc6f5c1ce5)" d="M 265.752032 99.358025 
L 263.654001 98.332241 
L 261.321238 97.690688 
" style="fill:none;stroke:#999999;"/>
    <path clip-path="url(#pfc6f5c1ce5)" d="M 265.752032 99.358025 
L 267.518891 99.984441 
L 269.031912 100.374495 
L 272.012463 100.41059 
L 272.450993 100.439698 
" style="fill:none;stroke:#999999;"/>
    <path clip-path="url(#pfc6f5c1ce5)" d="M 265.752032 99.358025 
L 266.777393 100.625993 
L 267.070353 102.919746 
L 266.826523 105.164596 
L 266.044992 106.48263 
" style="fill:none;stroke:#999999;"/>
    <path clip-path="url(#pfc6f5c1ce5)" d="M 324.32859 81.753183 
L 324.040179 83.819889 
L 323.366917 90.078224 
" style="fill:none;stroke:#999999;"/>
    <path clip-path="url(#pfc6f5c1ce5)" d="M 324.32859 81.753183 
L 330.378854 84.733897 
L 344.388171 92.033154 
L 359.234516 99.535005 
L 373.267488 106.833097 
" style="fill:none;stroke:#999999;"/>
    <path clip-path="url(#pfc6f5c1ce5)" d="M 324.32859 81.753183 
L 316.06202 77.215745 
L 312.350888 75.273623 
" style="fill:none;stroke:#999999;"/>
    <path clip-path="url(#pfc6f5c1ce5)" d="M 126.556851 399.232988 
L 126.06919 396.2057 
L 126.06919 392.202695 
L 126.849811 383.513215 
L 129.289932 354.712066 
L 129.088863 348.954398 
L 122.275266 342.686748 
L 112.220911 339.269406 
L 101.854489 312.149566 
L 104.00165 306.389569 
L 109.663423 296.432122 
L 110.65967 292.604931 
L 115.227846 283.448551 
L 126.453132 271.246253 
L 126.765198 268.200336 
L 123.914751 261.288805 
L 128.912359 249.751346 
L 140.314149 244.206753 
L 143.534891 240.009302 
L 147.361569 231.106747 
L 156.809988 228.197058 
L 165.303102 221.462508 
L 164.638937 216.561795 
L 165.303102 214.238934 
L 171.549885 212.188528 
L 172.838182 209.729439 
L 163.858317 187.180804 
L 168.055289 182.983353 
L 177.699318 189.153198 
L 187.479819 200.45546 
L 200.976911 195.685153 
L 228.67347 210.848371 
" style="fill:none;stroke:#999999;"/>
    <path clip-path="url(#pfc6f5c1ce5)" d="M 373.267488 106.833097 
L 371.287733 108.45386 
L 370.134998 110.450706 
L 369.657346 112.080784 
L 368.12249 112.062154 
L 349.57684 106.007579 
L 331.360543 99.532676 
L 322.07771 98.553465 
" style="fill:none;stroke:#999999;"/>
    <path clip-path="url(#pfc6f5c1ce5)" d="M 373.267488 106.833097 
L 374.764132 107.610877 
L 410.295101 125.918981 
L 416.409051 128.714565 
L 421.024538 129.676311 
L 447.585649 133.41734 
L 454.265504 134.539765 
L 462.0153 136.89057 
L 470.993345 141.539785 
L 474.476113 144.547279 
L 480.132427 150.303783 
L 498.772698 171.233984 
L 513.218725 183.532922 
L 524.151961 192.512323 
L 533.816005 200.625454 
L 541.57581 206.802285 
" style="fill:none;stroke:#999999;"/>
    <path clip-path="url(#pfc6f5c1ce5)" d="M 373.267488 106.833097 
L 359.234516 99.535005 
L 344.388171 92.033154 
L 330.378854 84.733897 
L 324.32859 81.753183 
" style="fill:none;stroke:#999999;"/>
    <path clip-path="url(#pfc6f5c1ce5)" d="M 711.707398 31.234739 
L 713.610729 26.208277 
" style="fill:none;stroke:#999999;"/>
    <path clip-path="url(#pfc6f5c1ce5)" d="M 711.707398 31.234739 
L 711.8466 43.190196 
" style="fill:none;stroke:#999999;"/>
    <path clip-path="url(#pfc6f5c1ce5)" d="M 711.707398 31.234739 
L 709.950547 32.845023 
L 705.313225 39.529507 
" style="fill:none;stroke:#999999;"/>
    <path clip-path="url(#pfc6f5c1ce5)" d="M 705.313225 39.529507 
L 711.8466 43.190196 
" style="fill:none;stroke:#999999;"/>
    <path clip-path="url(#pfc6f5c1ce5)" d="M 705.313225 39.529507 
L 709.950547 32.845023 
L 711.707398 31.234739 
" style="fill:none;stroke:#999999;"/>
    <path clip-path="url(#pfc6f5c1ce5)" d="M 705.313225 39.529507 
L 704.239644 41.237596 
L 703.556374 42.116673 
L 702.678404 42.262216 
L 699.408532 40.554127 
L 697.992861 39.920726 
L 695.69922 40.359682 
L 693.258189 40.408585 
L 692.038128 39.627312 
L 693.002531 37.824911 
L 693.539321 36.751388 
" style="fill:none;stroke:#999999;"/>
    <path clip-path="url(#pfc6f5c1ce5)" d="M 705.313225 39.529507 
L 699.401253 36.645433 
L 698.108408 35.358836 
" style="fill:none;stroke:#999999;"/>
    <path clip-path="url(#pfc6f5c1ce5)" d="M 693.539321 36.751388 
L 697.204962 34.748721 
" style="fill:none;stroke:#999999;"/>
    <path clip-path="url(#pfc6f5c1ce5)" d="M 693.539321 36.751388 
L 693.002531 37.824911 
L 692.038128 39.627312 
L 693.258189 40.408585 
L 695.69922 40.359682 
L 697.992861 39.920726 
L 699.408532 40.554127 
L 702.678404 42.262216 
L 703.556374 42.116673 
L 704.239644 41.237596 
L 705.313225 39.529507 
" style="fill:none;stroke:#999999;"/>
    <path clip-path="url(#pfc6f5c1ce5)" d="M 693.539321 36.751388 
L 691.14742 32.066079 
L 688.951129 28.943315 
" style="fill:none;stroke:#999999;"/>
    <path clip-path="url(#pfc6f5c1ce5)" d="M 688.951129 28.943315 
L 688.01766 27.108313 
L 687.733798 26.550593 
L 687.636448 23.720079 
L 688.475296 16.937791 
L 688.026758 13.278266 
L 686.718445 11.277927 
L 684.219186 9.765448 
L 680.283331 8.307692 
" style="fill:none;stroke:#999999;"/>
    <path clip-path="url(#pfc6f5c1ce5)" d="M 688.951129 28.943315 
L 691.14742 32.066079 
L 693.539321 36.751388 
" style="fill:none;stroke:#999999;"/>
    <path clip-path="url(#pfc6f5c1ce5)" d="M 688.951129 28.943315 
L 700.621314 26.47724 
L 705.453336 25.16037 
L 712.62813 21.231882 
L 717.386458 18.499173 
L 714.726161 23.525634 
" style="fill:none;stroke:#999999;"/>
    <path clip-path="url(#pfc6f5c1ce5)" d="M 713.610729 26.208277 
L 711.707398 31.234739 
" style="fill:none;stroke:#999999;"/>
    <path clip-path="url(#pfc6f5c1ce5)" d="M 713.610729 26.208277 
L 712.788257 25.204615 
" style="fill:none;stroke:#999999;"/>
    <path clip-path="url(#pfc6f5c1ce5)" d="M 713.610729 26.208277 
L 714.970901 24.915858 
L 714.726161 23.525634 
" style="fill:none;stroke:#999999;"/>
    <path clip-path="url(#pfc6f5c1ce5)" d="M 548.22837 212.940693 
L 548.799733 211.459651 
" style="fill:none;stroke:#999999;"/>
    <path clip-path="url(#pfc6f5c1ce5)" d="M 548.22837 212.940693 
L 560.651881 223.307989 
L 577.63629 237.701577 
L 580.174671 239.122074 
L 582.929588 240.169981 
L 585.397003 240.563528 
L 588.868854 240.504147 
L 591.582829 240.390041 
L 595.775252 240.214226 
L 597.195472 240.138544 
" style="fill:none;stroke:#999999;"/>
    <path clip-path="url(#pfc6f5c1ce5)" d="M 680.283331 8.307692 
L 673.741768 28.764006 
L 670.926803 37.626973 
L 662.053386 64.615242 
L 646.068863 98.243751 
L 629.511157 135.019474 
L 622.20899 179.845453 
L 621.455664 183.638877 
L 620.148261 187.795576 
" style="fill:none;stroke:#999999;"/>
    <path clip-path="url(#pfc6f5c1ce5)" d="M 680.283331 8.307692 
L 684.219186 9.765448 
L 686.718445 11.277927 
L 688.026758 13.278266 
L 688.475296 16.937791 
L 687.636448 23.720079 
L 687.733798 26.550593 
L 688.01766 27.108313 
L 688.951129 28.943315 
" style="fill:none;stroke:#999999;"/>
    <path clip-path="url(#pfc6f5c1ce5)" d="M 597.195472 240.138544 
L 600.24153 239.975536 
L 603.535966 239.776434 
L 607.512763 239.609933 
L 609.417004 239.485348 
L 610.685285 239.366585 
L 612.222871 238.996325 
L 613.955157 238.53641 
L 615.25892 238.133548 
" style="fill:none;stroke:#999999;"/>
    <path clip-path="url(#pfc6f5c1ce5)" d="M 597.195472 240.138544 
L 595.775252 240.214226 
L 591.582829 240.390041 
L 588.868854 240.504147 
L 585.397003 240.563528 
L 582.929588 240.169981 
L 580.174671 239.122074 
L 577.63629 237.701577 
L 560.651881 223.307989 
L 548.22837 212.940693 
" style="fill:none;stroke:#999999;"/>
    <path clip-path="url(#pfc6f5c1ce5)" d="M 597.195472 240.138544 
L 597.047172 242.987687 
L 607.540058 243.036589 
L 612.580428 242.158676 
" style="fill:none;stroke:#999999;"/>
    <path clip-path="url(#pfc6f5c1ce5)" d="M 624.329766 238.594627 
L 615.25892 238.133548 
" style="fill:none;stroke:#999999;"/>
    <path clip-path="url(#pfc6f5c1ce5)" d="M 698.623362 32.451476 
L 696.720031 33.939504 
L 697.204962 34.748721 
" style="fill:none;stroke:#999999;"/>
    <path clip-path="url(#pfc6f5c1ce5)" d="M 716.581272 45.33142 
L 712.932918 43.681548 
L 711.8466 43.190196 
" style="fill:none;stroke:#999999;"/>
    <path clip-path="url(#pfc6f5c1ce5)" d="M 711.8466 43.190196 
L 705.313225 39.529507 
" style="fill:none;stroke:#999999;"/>
    <path clip-path="url(#pfc6f5c1ce5)" d="M 711.8466 43.190196 
L 711.707398 31.234739 
" style="fill:none;stroke:#999999;"/>
    <path clip-path="url(#pfc6f5c1ce5)" d="M 711.8466 43.190196 
L 712.932918 43.681548 
L 716.581272 45.33142 
" style="fill:none;stroke:#999999;"/>
    <path clip-path="url(#pfc6f5c1ce5)" d="M 712.788257 25.204615 
L 713.610729 26.208277 
" style="fill:none;stroke:#999999;"/>
    <path clip-path="url(#pfc6f5c1ce5)" d="M 712.788257 25.204615 
L 713.652581 24.648059 
L 714.726161 23.525634 
" style="fill:none;stroke:#999999;"/>
    <path clip-path="url(#pfc6f5c1ce5)" d="M 712.788257 25.204615 
L 710.016964 26.98955 
L 706.233957 29.136596 
L 704.477106 30.650239 
L 701.646674 33.113986 
L 698.108408 35.358836 
" style="fill:none;stroke:#999999;"/>
    <path clip-path="url(#pfc6f5c1ce5)" d="M 714.726161 23.525634 
L 717.386458 18.499173 
L 712.62813 21.231882 
L 705.453336 25.16037 
L 700.621314 26.47724 
L 688.951129 28.943315 
" style="fill:none;stroke:#999999;"/>
    <path clip-path="url(#pfc6f5c1ce5)" d="M 714.726161 23.525634 
L 713.652581 24.648059 
L 712.788257 25.204615 
" style="fill:none;stroke:#999999;"/>
    <path clip-path="url(#pfc6f5c1ce5)" d="M 714.726161 23.525634 
L 714.970901 24.915858 
L 713.610729 26.208277 
" style="fill:none;stroke:#999999;"/>
    <path clip-path="url(#pfc6f5c1ce5)" d="M 698.108408 35.358836 
L 697.204962 34.748721 
" style="fill:none;stroke:#999999;"/>
    <path clip-path="url(#pfc6f5c1ce5)" d="M 698.108408 35.358836 
L 699.401253 36.645433 
L 705.313225 39.529507 
" style="fill:none;stroke:#999999;"/>
    <path clip-path="url(#pfc6f5c1ce5)" d="M 698.108408 35.358836 
L 701.646674 33.113986 
L 704.477106 30.650239 
L 706.233957 29.136596 
L 710.016964 26.98955 
L 712.788257 25.204615 
" style="fill:none;stroke:#999999;"/>
    <path clip-path="url(#pfc6f5c1ce5)" d="M 697.204962 34.748721 
L 693.539321 36.751388 
" style="fill:none;stroke:#999999;"/>
    <path clip-path="url(#pfc6f5c1ce5)" d="M 697.204962 34.748721 
L 698.108408 35.358836 
" style="fill:none;stroke:#999999;"/>
    <path clip-path="url(#pfc6f5c1ce5)" d="M 697.204962 34.748721 
L 696.720031 33.939504 
L 698.623362 32.451476 
" style="fill:none;stroke:#999999;"/>
   </g>
  </g>
 </g>
 <defs>
  <clipPath id="pfc6f5c1ce5">
   <rect height="432" width="640.153247" x="89.54385" y="0"/>
  </clipPath>
 </defs>
</svg>
