<?xml version="1.0" encoding="utf-8" standalone="no"?>
<!DOCTYPE svg PUBLIC "-//W3C//DTD SVG 1.1//EN"
  "http://www.w3.org/Graphics/SVG/1.1/DTD/svg11.dtd">
<!-- Created with matplotlib (http://matplotlib.org/) -->
<svg height="432pt" version="1.1" viewBox="0 0 609.760444 432" width="609.760444pt" xmlns="http://www.w3.org/2000/svg" xmlns:xlink="http://www.w3.org/1999/xlink">
 <defs>
  <style type="text/css">
*{stroke-linecap:butt;stroke-linejoin:round;}
  </style>
 </defs>
 <g id="figure_1">
  <g id="patch_1">
   <path d="M 0 432 
L 609.760444 432 
L 609.760444 0 
L 0 0 
z
" style="fill:none;opacity:0;"/>
  </g>
  <g id="axes_1">
   <g id="PathCollection_1">
    <defs>
     <path d="M 0 1.936492 
C 0.513564 1.936492 1.006162 1.732451 1.369306 1.369306 
C 1.732451 1.006162 1.936492 0.513564 1.936492 0 
C 1.936492 -0.513564 1.732451 -1.006162 1.369306 -1.369306 
C 1.006162 -1.732451 0.513564 -1.936492 0 -1.936492 
C -0.513564 -1.936492 -1.006162 -1.732451 -1.369306 -1.369306 
C -1.732451 -1.006162 -1.936492 -0.513564 -1.936492 0 
C -1.936492 0.513564 -1.732451 1.006162 -1.369306 1.369306 
C -1.006162 1.732451 -0.513564 1.936492 0 1.936492 
z
" id="C0_0_9902047197"/>
    </defs>
    <g clip-path="url(#p677ba92c0d)">
     <use style="fill:#66ccff;" x="309.91603" xlink:href="#C0_0_9902047197" y="270.033804"/>
    </g>
    <g clip-path="url(#p677ba92c0d)">
     <use style="fill:#66ccff;" x="76.578767" xlink:href="#C0_0_9902047197" y="8.307692"/>
    </g>
    <g clip-path="url(#p677ba92c0d)">
     <use style="fill:#66ccff;" x="328.727268" xlink:href="#C0_0_9902047197" y="159.965392"/>
    </g>
    <g clip-path="url(#p677ba92c0d)">
     <use style="fill:#66ccff;" x="374.92601" xlink:href="#C0_0_9902047197" y="244.241184"/>
    </g>
    <g clip-path="url(#p677ba92c0d)">
     <use style="fill:#66ccff;" x="438.817621" xlink:href="#C0_0_9902047197" y="239.561885"/>
    </g>
    <g clip-path="url(#p677ba92c0d)">
     <use style="fill:#66ccff;" x="319.836853" xlink:href="#C0_0_9902047197" y="227.734553"/>
    </g>
    <g clip-path="url(#p677ba92c0d)">
     <use style="fill:#66ccff;" x="402.09361" xlink:href="#C0_0_9902047197" y="223.8943"/>
    </g>
    <g clip-path="url(#p677ba92c0d)">
     <use style="fill:#66ccff;" x="426.408738" xlink:href="#C0_0_9902047197" y="220.90923"/>
    </g>
    <g clip-path="url(#p677ba92c0d)">
     <use style="fill:#66ccff;" x="410.098125" xlink:href="#C0_0_9902047197" y="217.085113"/>
    </g>
    <g clip-path="url(#p677ba92c0d)">
     <use style="fill:#66ccff;" x="321.01177" xlink:href="#C0_0_9902047197" y="214.035501"/>
    </g>
    <g clip-path="url(#p677ba92c0d)">
     <use style="fill:#66ccff;" x="402.502004" xlink:href="#C0_0_9902047197" y="202.24044"/>
    </g>
    <g clip-path="url(#p677ba92c0d)">
     <use style="fill:#66ccff;" x="202.232058" xlink:href="#C0_0_9902047197" y="106.710127"/>
    </g>
    <g clip-path="url(#p677ba92c0d)">
     <use style="fill:#66ccff;" x="223.217207" xlink:href="#C0_0_9902047197" y="105.290202"/>
    </g>
    <g clip-path="url(#p677ba92c0d)">
     <use style="fill:#66ccff;" x="332.82377" xlink:href="#C0_0_9902047197" y="162.837514"/>
    </g>
    <g clip-path="url(#p677ba92c0d)">
     <use style="fill:#66ccff;" x="258.138002" xlink:href="#C0_0_9902047197" y="117.722616"/>
    </g>
    <g clip-path="url(#p677ba92c0d)">
     <use style="fill:#66ccff;" x="268.668274" xlink:href="#C0_0_9902047197" y="419.771378"/>
    </g>
    <g clip-path="url(#p677ba92c0d)">
     <use style="fill:#66ccff;" x="194.774162" xlink:href="#C0_0_9902047197" y="98.02922"/>
    </g>
    <g clip-path="url(#p677ba92c0d)">
     <use style="fill:#66ccff;" x="174.706328" xlink:href="#C0_0_9902047197" y="94.439068"/>
    </g>
    <g clip-path="url(#p677ba92c0d)">
     <use style="fill:#66ccff;" x="230.436349" xlink:href="#C0_0_9902047197" y="91.44593"/>
    </g>
    <g clip-path="url(#p677ba92c0d)">
     <use style="fill:#66ccff;" x="307.911759" xlink:href="#C0_0_9902047197" y="377.867447"/>
    </g>
    <g clip-path="url(#p677ba92c0d)">
     <use style="fill:#66ccff;" x="344.070302" xlink:href="#C0_0_9902047197" y="347.24224"/>
    </g>
    <g clip-path="url(#p677ba92c0d)">
     <use style="fill:#66ccff;" x="268.668274" xlink:href="#C0_0_9902047197" y="345.886857"/>
    </g>
    <g clip-path="url(#p677ba92c0d)">
     <use style="fill:#66ccff;" x="248.694685" xlink:href="#C0_0_9902047197" y="342.958261"/>
    </g>
    <g clip-path="url(#p677ba92c0d)">
     <use style="fill:#66ccff;" x="340.551834" xlink:href="#C0_0_9902047197" y="341.973995"/>
    </g>
    <g clip-path="url(#p677ba92c0d)">
     <use style="fill:#66ccff;" x="382.057191" xlink:href="#C0_0_9902047197" y="423.692308"/>
    </g>
    <g clip-path="url(#p677ba92c0d)">
     <use style="fill:#66ccff;" x="192.889268" xlink:href="#C0_0_9902047197" y="87.863846"/>
    </g>
    <g clip-path="url(#p677ba92c0d)">
     <use style="fill:#66ccff;" x="335.31183" xlink:href="#C0_0_9902047197" y="334.124067"/>
    </g>
    <g clip-path="url(#p677ba92c0d)">
     <use style="fill:#66ccff;" x="195.251668" xlink:href="#C0_0_9902047197" y="80.861033"/>
    </g>
    <g clip-path="url(#p677ba92c0d)">
     <use style="fill:#66ccff;" x="294.365657" xlink:href="#C0_0_9902047197" y="259.416635"/>
    </g>
    <g clip-path="url(#p677ba92c0d)">
     <use style="fill:#66ccff;" x="311.310851" xlink:href="#C0_0_9902047197" y="309.961134"/>
    </g>
    <g clip-path="url(#p677ba92c0d)">
     <use style="fill:#66ccff;" x="336.499313" xlink:href="#C0_0_9902047197" y="302.805034"/>
    </g>
    <g clip-path="url(#p677ba92c0d)">
     <use style="fill:#66ccff;" x="298.097747" xlink:href="#C0_0_9902047197" y="297.778821"/>
    </g>
    <g clip-path="url(#p677ba92c0d)">
     <use style="fill:#66ccff;" x="319.403327" xlink:href="#C0_0_9902047197" y="279.811926"/>
    </g>
   </g>
   <g id="LineCollection_1">
    <path clip-path="url(#p677ba92c0d)" d="M 309.91603 270.033804 
L 319.403327 279.811926 
" style="fill:none;stroke:#999999;"/>
    <path clip-path="url(#p677ba92c0d)" d="M 309.91603 270.033804 
L 294.365657 259.416635 
" style="fill:none;stroke:#999999;"/>
    <path clip-path="url(#p677ba92c0d)" d="M 309.91603 270.033804 
L 316.770759 263.426311 
L 319.836853 227.734553 
" style="fill:none;stroke:#999999;"/>
    <path clip-path="url(#p677ba92c0d)" d="M 76.578767 8.307692 
L 195.251668 80.861033 
" style="fill:none;stroke:#999999;"/>
    <path clip-path="url(#p677ba92c0d)" d="M 328.727268 159.965392 
L 258.138002 117.722616 
" style="fill:none;stroke:#999999;"/>
    <path clip-path="url(#p677ba92c0d)" d="M 328.727268 159.965392 
L 332.82377 162.837514 
" style="fill:none;stroke:#999999;"/>
    <path clip-path="url(#p677ba92c0d)" d="M 328.727268 159.965392 
L 321.01177 214.035501 
" style="fill:none;stroke:#999999;"/>
    <path clip-path="url(#p677ba92c0d)" d="M 374.92601 244.241184 
L 352.753378 235.455397 
L 319.836853 227.734553 
" style="fill:none;stroke:#999999;"/>
    <path clip-path="url(#p677ba92c0d)" d="M 374.92601 244.241184 
L 384.840551 237.649826 
L 402.09361 223.8943 
" style="fill:none;stroke:#999999;"/>
    <path clip-path="url(#p677ba92c0d)" d="M 374.92601 244.241184 
L 364.200966 258.279082 
L 355.869736 275.576353 
L 346.545795 284.144311 
L 336.499313 302.805034 
" style="fill:none;stroke:#999999;"/>
    <path clip-path="url(#p677ba92c0d)" d="M 438.817621 239.561885 
L 445.08175 245.435212 
L 467.430306 266.387178 
L 497.381265 293.059183 
L 516.236484 309.331849 
L 523.575003 315.802191 
L 533.181678 323.151917 
L 518.404112 307.16969 
L 499.47978 288.170122 
L 468.542393 258.351691 
L 448.575087 238.174231 
L 426.408738 220.90923 
" style="fill:none;stroke:#999999;"/>
    <path clip-path="url(#p677ba92c0d)" d="M 438.817621 239.561885 
L 435.154644 232.123413 
L 432.04457 227.976586 
L 426.408738 220.90923 
" style="fill:none;stroke:#999999;"/>
    <path clip-path="url(#p677ba92c0d)" d="M 438.817621 239.561885 
L 437.133782 241.949941 
L 427.055885 250.889016 
L 402.910397 265.257692 
L 386.637483 279.787722 
L 365.966483 316.657373 
L 356.466619 328.807415 
L 340.551834 341.973995 
" style="fill:none;stroke:#999999;"/>
    <path clip-path="url(#p677ba92c0d)" d="M 319.836853 227.734553 
L 321.01177 214.035501 
" style="fill:none;stroke:#999999;"/>
    <path clip-path="url(#p677ba92c0d)" d="M 319.836853 227.734553 
L 352.753378 235.455397 
L 374.92601 244.241184 
" style="fill:none;stroke:#999999;"/>
    <path clip-path="url(#p677ba92c0d)" d="M 319.836853 227.734553 
L 316.770759 263.426311 
L 309.91603 270.033804 
" style="fill:none;stroke:#999999;"/>
    <path clip-path="url(#p677ba92c0d)" d="M 402.09361 223.8943 
L 396.998114 221.038314 
L 327.5712 214.317873 
L 321.01177 214.035501 
" style="fill:none;stroke:#999999;"/>
    <path clip-path="url(#p677ba92c0d)" d="M 402.09361 223.8943 
L 407.99961 219.18273 
L 410.098125 217.085113 
" style="fill:none;stroke:#999999;"/>
    <path clip-path="url(#p677ba92c0d)" d="M 402.09361 223.8943 
L 384.840551 237.649826 
L 374.92601 244.241184 
" style="fill:none;stroke:#999999;"/>
    <path clip-path="url(#p677ba92c0d)" d="M 426.408738 220.90923 
L 402.502004 202.24044 
" style="fill:none;stroke:#999999;"/>
    <path clip-path="url(#p677ba92c0d)" d="M 426.408738 220.90923 
L 419.799044 217.85155 
L 415.652278 216.964097 
L 410.098125 217.085113 
" style="fill:none;stroke:#999999;"/>
    <path clip-path="url(#p677ba92c0d)" d="M 410.098125 217.085113 
L 435.028985 236.012072 
L 438.817621 239.561885 
" style="fill:none;stroke:#999999;"/>
    <path clip-path="url(#p677ba92c0d)" d="M 410.098125 217.085113 
L 409.576638 212.27673 
L 407.40901 208.622036 
L 402.502004 202.24044 
" style="fill:none;stroke:#999999;"/>
    <path clip-path="url(#p677ba92c0d)" d="M 410.098125 217.085113 
L 407.99961 219.18273 
L 402.09361 223.8943 
" style="fill:none;stroke:#999999;"/>
    <path clip-path="url(#p677ba92c0d)" d="M 321.01177 214.035501 
L 328.727268 159.965392 
" style="fill:none;stroke:#999999;"/>
    <path clip-path="url(#p677ba92c0d)" d="M 321.01177 214.035501 
L 319.836853 227.734553 
" style="fill:none;stroke:#999999;"/>
    <path clip-path="url(#p677ba92c0d)" d="M 321.01177 214.035501 
L 327.5712 214.317873 
L 396.998114 221.038314 
L 402.09361 223.8943 
" style="fill:none;stroke:#999999;"/>
    <path clip-path="url(#p677ba92c0d)" d="M 402.502004 202.24044 
L 387.052159 191.179545 
L 370.088117 180.844748 
L 344.459847 167.855659 
L 332.82377 162.837514 
" style="fill:none;stroke:#999999;"/>
    <path clip-path="url(#p677ba92c0d)" d="M 202.232058 106.710127 
L 194.28409 113.495111 
L 160.764398 134.8666 
L 156.994611 139.755661 
L 155.17883 144.079978 
L 154.48142 150.784285 
L 156.435426 155.390974 
L 168.863158 169.921005 
L 191.770898 197.85158 
L 199.530377 211.437683 
L 224.084258 234.955196 
L 252.652962 258.149998 
L 284.495098 285.241526 
L 298.097747 297.778821 
" style="fill:none;stroke:#999999;"/>
    <path clip-path="url(#p677ba92c0d)" d="M 202.232058 106.710127 
L 209.231296 109.065912 
L 216.60123 108.573779 
L 223.217207 105.290202 
" style="fill:none;stroke:#999999;"/>
    <path clip-path="url(#p677ba92c0d)" d="M 223.217207 105.290202 
L 228.073949 99.731517 
L 230.436349 91.44593 
" style="fill:none;stroke:#999999;"/>
    <path clip-path="url(#p677ba92c0d)" d="M 223.217207 105.290202 
L 233.068917 106.476162 
L 244.918615 111.115122 
L 258.138002 117.722616 
" style="fill:none;stroke:#999999;"/>
    <path clip-path="url(#p677ba92c0d)" d="M 332.82377 162.837514 
L 328.727268 159.965392 
" style="fill:none;stroke:#999999;"/>
    <path clip-path="url(#p677ba92c0d)" d="M 332.82377 162.837514 
L 343.479702 171.002084 
L 367.361304 186.363094 
L 397.808619 207.799125 
L 410.098125 217.085113 
" style="fill:none;stroke:#999999;"/>
    <path clip-path="url(#p677ba92c0d)" d="M 258.138002 117.722616 
L 328.727268 159.965392 
" style="fill:none;stroke:#999999;"/>
    <path clip-path="url(#p677ba92c0d)" d="M 258.138002 117.722616 
L 245.113387 107.662122 
L 237.705755 100.651241 
L 232.622826 94.729508 
L 230.436349 91.44593 
" style="fill:none;stroke:#999999;"/>
    <path clip-path="url(#p677ba92c0d)" d="M 268.668274 419.771378 
L 287.799945 398.68226 
L 307.911759 377.867447 
" style="fill:none;stroke:#999999;"/>
    <path clip-path="url(#p677ba92c0d)" d="M 194.774162 98.02922 
L 196.665339 101.845269 
L 202.232058 106.710127 
" style="fill:none;stroke:#999999;"/>
    <path clip-path="url(#p677ba92c0d)" d="M 174.706328 94.439068 
L 186.694251 95.165166 
L 194.774162 98.02922 
" style="fill:none;stroke:#999999;"/>
    <path clip-path="url(#p677ba92c0d)" d="M 230.436349 91.44593 
L 229.939994 85.362841 
L 226.660279 78.739213 
L 221.09356 73.882423 
L 214.094321 71.526638 
L 206.724387 72.018771 
L 200.108411 75.302348 
L 195.251668 80.861033 
" style="fill:none;stroke:#999999;"/>
    <path clip-path="url(#p677ba92c0d)" d="M 307.911759 377.867447 
L 344.070302 347.24224 
" style="fill:none;stroke:#999999;"/>
    <path clip-path="url(#p677ba92c0d)" d="M 307.911759 377.867447 
L 287.799945 398.68226 
L 268.668274 419.771378 
" style="fill:none;stroke:#999999;"/>
    <path clip-path="url(#p677ba92c0d)" d="M 307.911759 377.867447 
L 288.918315 358.319271 
L 268.668274 345.886857 
" style="fill:none;stroke:#999999;"/>
    <path clip-path="url(#p677ba92c0d)" d="M 344.070302 347.24224 
L 307.911759 377.867447 
" style="fill:none;stroke:#999999;"/>
    <path clip-path="url(#p677ba92c0d)" d="M 344.070302 347.24224 
L 340.551834 341.973995 
" style="fill:none;stroke:#999999;"/>
    <path clip-path="url(#p677ba92c0d)" d="M 344.070302 347.24224 
L 365.187393 378.875916 
L 382.057191 423.692308 
" style="fill:none;stroke:#999999;"/>
    <path clip-path="url(#p677ba92c0d)" d="M 268.668274 345.886857 
L 311.310851 309.961134 
" style="fill:none;stroke:#999999;"/>
    <path clip-path="url(#p677ba92c0d)" d="M 268.668274 345.886857 
L 248.694685 342.958261 
" style="fill:none;stroke:#999999;"/>
    <path clip-path="url(#p677ba92c0d)" d="M 268.668274 345.886857 
L 288.918315 358.319271 
L 307.911759 377.867447 
" style="fill:none;stroke:#999999;"/>
    <path clip-path="url(#p677ba92c0d)" d="M 248.694685 342.958261 
L 268.668274 345.886857 
" style="fill:none;stroke:#999999;"/>
    <path clip-path="url(#p677ba92c0d)" d="M 340.551834 341.973995 
L 344.070302 347.24224 
" style="fill:none;stroke:#999999;"/>
    <path clip-path="url(#p677ba92c0d)" d="M 340.551834 341.973995 
L 335.31183 334.124067 
" style="fill:none;stroke:#999999;"/>
    <path clip-path="url(#p677ba92c0d)" d="M 340.551834 341.973995 
L 356.466619 328.807415 
L 365.966483 316.657373 
L 386.637483 279.787722 
L 402.910397 265.257692 
L 427.055885 250.889016 
L 437.133782 241.949941 
L 438.817621 239.561885 
" style="fill:none;stroke:#999999;"/>
    <path clip-path="url(#p677ba92c0d)" d="M 382.057191 423.692308 
L 365.187393 378.875916 
L 344.070302 347.24224 
" style="fill:none;stroke:#999999;"/>
    <path clip-path="url(#p677ba92c0d)" d="M 192.889268 87.863846 
L 193.385624 95.229708 
L 194.774162 98.02922 
" style="fill:none;stroke:#999999;"/>
    <path clip-path="url(#p677ba92c0d)" d="M 192.889268 87.863846 
L 186.763364 90.695629 
L 174.706328 94.439068 
" style="fill:none;stroke:#999999;"/>
    <path clip-path="url(#p677ba92c0d)" d="M 335.31183 334.124067 
L 340.551834 341.973995 
" style="fill:none;stroke:#999999;"/>
    <path clip-path="url(#p677ba92c0d)" d="M 335.31183 334.124067 
L 340.319364 319.489156 
L 339.069051 310.679165 
L 336.499313 302.805034 
" style="fill:none;stroke:#999999;"/>
    <path clip-path="url(#p677ba92c0d)" d="M 335.31183 334.124067 
L 327.690576 326.580714 
L 320.571961 320.48149 
L 311.310851 309.961134 
" style="fill:none;stroke:#999999;"/>
    <path clip-path="url(#p677ba92c0d)" d="M 195.251668 80.861033 
L 192.889268 87.863846 
" style="fill:none;stroke:#999999;"/>
    <path clip-path="url(#p677ba92c0d)" d="M 195.251668 80.861033 
L 76.578767 8.307692 
" style="fill:none;stroke:#999999;"/>
    <path clip-path="url(#p677ba92c0d)" d="M 294.365657 259.416635 
L 309.91603 270.033804 
" style="fill:none;stroke:#999999;"/>
    <path clip-path="url(#p677ba92c0d)" d="M 311.310851 309.961134 
L 298.097747 297.778821 
" style="fill:none;stroke:#999999;"/>
    <path clip-path="url(#p677ba92c0d)" d="M 311.310851 309.961134 
L 268.668274 345.886857 
" style="fill:none;stroke:#999999;"/>
    <path clip-path="url(#p677ba92c0d)" d="M 311.310851 309.961134 
L 320.571961 320.48149 
L 327.690576 326.580714 
L 335.31183 334.124067 
" style="fill:none;stroke:#999999;"/>
    <path clip-path="url(#p677ba92c0d)" d="M 336.499313 302.805034 
L 319.403327 279.811926 
" style="fill:none;stroke:#999999;"/>
    <path clip-path="url(#p677ba92c0d)" d="M 336.499313 302.805034 
L 339.069051 310.679165 
L 340.319364 319.489156 
L 335.31183 334.124067 
" style="fill:none;stroke:#999999;"/>
    <path clip-path="url(#p677ba92c0d)" d="M 336.499313 302.805034 
L 346.545795 284.144311 
L 355.869736 275.576353 
L 364.200966 258.279082 
L 374.92601 244.241184 
" style="fill:none;stroke:#999999;"/>
    <path clip-path="url(#p677ba92c0d)" d="M 298.097747 297.778821 
L 311.310851 309.961134 
" style="fill:none;stroke:#999999;"/>
    <path clip-path="url(#p677ba92c0d)" d="M 298.097747 297.778821 
L 319.403327 279.811926 
" style="fill:none;stroke:#999999;"/>
    <path clip-path="url(#p677ba92c0d)" d="M 298.097747 297.778821 
L 284.495098 285.241526 
L 252.652962 258.149998 
L 224.084258 234.955196 
L 199.530377 211.437683 
L 191.770898 197.85158 
L 168.863158 169.921005 
L 156.435426 155.390974 
L 154.48142 150.784285 
L 155.17883 144.079978 
L 156.994611 139.755661 
L 160.764398 134.8666 
L 194.28409 113.495111 
L 202.232058 106.710127 
" style="fill:none;stroke:#999999;"/>
    <path clip-path="url(#p677ba92c0d)" d="M 319.403327 279.811926 
L 298.097747 297.778821 
" style="fill:none;stroke:#999999;"/>
    <path clip-path="url(#p677ba92c0d)" d="M 319.403327 279.811926 
L 309.91603 270.033804 
" style="fill:none;stroke:#999999;"/>
    <path clip-path="url(#p677ba92c0d)" d="M 319.403327 279.811926 
L 336.499313 302.805034 
" style="fill:none;stroke:#999999;"/>
   </g>
  </g>
 </g>
 <defs>
  <clipPath id="p677ba92c0d">
   <rect height="432" width="474.867028" x="67.446708" y="0"/>
  </clipPath>
 </defs>
</svg>
