<?xml version="1.0" encoding="utf-8" standalone="no"?>
<!DOCTYPE svg PUBLIC "-//W3C//DTD SVG 1.1//EN"
  "http://www.w3.org/Graphics/SVG/1.1/DTD/svg11.dtd">
<!-- Created with matplotlib (http://matplotlib.org/) -->
<svg height="432pt" version="1.1" viewBox="0 0 1677.251818 432" width="1677.251818pt" xmlns="http://www.w3.org/2000/svg" xmlns:xlink="http://www.w3.org/1999/xlink">
 <defs>
  <style type="text/css">
*{stroke-linecap:butt;stroke-linejoin:round;}
  </style>
 </defs>
 <g id="figure_1">
  <g id="patch_1">
   <path d="M 0 432 
L 1677.251818 432 
L 1677.251818 0 
L 0 0 
z
" style="fill:none;opacity:0;"/>
  </g>
  <g id="axes_1">
   <g id="PathCollection_1">
    <defs>
     <path d="M 0 1.936492 
C 0.513564 1.936492 1.006162 1.732451 1.369306 1.369306 
C 1.732451 1.006162 1.936492 0.513564 1.936492 0 
C 1.936492 -0.513564 1.732451 -1.006162 1.369306 -1.369306 
C 1.006162 -1.732451 0.513564 -1.936492 0 -1.936492 
C -0.513564 -1.936492 -1.006162 -1.732451 -1.369306 -1.369306 
C -1.732451 -1.006162 -1.936492 -0.513564 -1.936492 0 
C -1.936492 0.513564 -1.732451 1.006162 -1.369306 1.369306 
C -1.006162 1.732451 -0.513564 1.936492 0 1.936492 
z
" id="C0_0_5e0504f7e8"/>
    </defs>
    <g clip-path="url(#p6600ea9d20)">
     <use style="fill:#66ccff;" x="210.141861" xlink:href="#C0_0_5e0504f7e8" y="8.307692"/>
    </g>
    <g clip-path="url(#p6600ea9d20)">
     <use style="fill:#66ccff;" x="1131.231959" xlink:href="#C0_0_5e0504f7e8" y="423.692308"/>
    </g>
    <g clip-path="url(#p6600ea9d20)">
     <use style="fill:#66ccff;" x="1174.848431" xlink:href="#C0_0_5e0504f7e8" y="299.573963"/>
    </g>
    <g clip-path="url(#p6600ea9d20)">
     <use style="fill:#66ccff;" x="1225.302125" xlink:href="#C0_0_5e0504f7e8" y="265.324413"/>
    </g>
    <g clip-path="url(#p6600ea9d20)">
     <use style="fill:#66ccff;" x="1180.673121" xlink:href="#C0_0_5e0504f7e8" y="281.674777"/>
    </g>
    <g clip-path="url(#p6600ea9d20)">
     <use style="fill:#66ccff;" x="1181.331267" xlink:href="#C0_0_5e0504f7e8" y="281.651157"/>
    </g>
    <g clip-path="url(#p6600ea9d20)">
     <use style="fill:#66ccff;" x="1209.219299" xlink:href="#C0_0_5e0504f7e8" y="270.568981"/>
    </g>
    <g clip-path="url(#p6600ea9d20)">
     <use style="fill:#66ccff;" x="1183.792247" xlink:href="#C0_0_5e0504f7e8" y="289.903949"/>
    </g>
    <g clip-path="url(#p6600ea9d20)">
     <use style="fill:#66ccff;" x="1218.707516" xlink:href="#C0_0_5e0504f7e8" y="287.172421"/>
    </g>
    <g clip-path="url(#p6600ea9d20)">
     <use style="fill:#66ccff;" x="1204.287478" xlink:href="#C0_0_5e0504f7e8" y="290.784652"/>
    </g>
    <g clip-path="url(#p6600ea9d20)">
     <use style="fill:#66ccff;" x="251.34009" xlink:href="#C0_0_5e0504f7e8" y="50.955974"/>
    </g>
    <g clip-path="url(#p6600ea9d20)">
     <use style="fill:#66ccff;" x="249.712806" xlink:href="#C0_0_5e0504f7e8" y="53.817414"/>
    </g>
    <g clip-path="url(#p6600ea9d20)">
     <use style="fill:#66ccff;" x="247.878413" xlink:href="#C0_0_5e0504f7e8" y="51.257134"/>
    </g>
    <g clip-path="url(#p6600ea9d20)">
     <use style="fill:#66ccff;" x="1223.315853" xlink:href="#C0_0_5e0504f7e8" y="338.718837"/>
    </g>
    <g clip-path="url(#p6600ea9d20)">
     <use style="fill:#66ccff;" x="1203.242071" xlink:href="#C0_0_5e0504f7e8" y="290.70198"/>
    </g>
    <g clip-path="url(#p6600ea9d20)">
     <use style="fill:#66ccff;" x="1182.407576" xlink:href="#C0_0_5e0504f7e8" y="281.312879"/>
    </g>
    <g clip-path="url(#p6600ea9d20)">
     <use style="fill:#66ccff;" x="1221.376261" xlink:href="#C0_0_5e0504f7e8" y="256.492079"/>
    </g>
    <g clip-path="url(#p6600ea9d20)">
     <use style="fill:#66ccff;" x="1184.278788" xlink:href="#C0_0_5e0504f7e8" y="280.725744"/>
    </g>
    <g clip-path="url(#p6600ea9d20)">
     <use style="fill:#66ccff;" x="1271.954221" xlink:href="#C0_0_5e0504f7e8" y="163.026238"/>
    </g>
    <g clip-path="url(#p6600ea9d20)">
     <use style="fill:#66ccff;" x="1214.702096" xlink:href="#C0_0_5e0504f7e8" y="288.565179"/>
    </g>
    <g clip-path="url(#p6600ea9d20)">
     <use style="fill:#66ccff;" x="1230.821741" xlink:href="#C0_0_5e0504f7e8" y="263.935029"/>
    </g>
    <g clip-path="url(#p6600ea9d20)">
     <use style="fill:#66ccff;" x="1219.75358" xlink:href="#C0_0_5e0504f7e8" y="269.754922"/>
    </g>
    <g clip-path="url(#p6600ea9d20)">
     <use style="fill:#66ccff;" x="1467.109957" xlink:href="#C0_0_5e0504f7e8" y="149.425117"/>
    </g>
    <g clip-path="url(#p6600ea9d20)">
     <use style="fill:#66ccff;" x="1190.45655" xlink:href="#C0_0_5e0504f7e8" y="274.10782"/>
    </g>
    <g clip-path="url(#p6600ea9d20)">
     <use style="fill:#66ccff;" x="1203.065864" xlink:href="#C0_0_5e0504f7e8" y="281.991965"/>
    </g>
    <g clip-path="url(#p6600ea9d20)">
     <use style="fill:#66ccff;" x="1271.530799" xlink:href="#C0_0_5e0504f7e8" y="36.642024"/>
    </g>
    <g clip-path="url(#p6600ea9d20)">
     <use style="fill:#66ccff;" x="1199.543698" xlink:href="#C0_0_5e0504f7e8" y="254.199215"/>
    </g>
    <g clip-path="url(#p6600ea9d20)">
     <use style="fill:#66ccff;" x="1201.992186" xlink:href="#C0_0_5e0504f7e8" y="273.459947"/>
    </g>
    <g clip-path="url(#p6600ea9d20)">
     <use style="fill:#66ccff;" x="1199.15578" xlink:href="#C0_0_5e0504f7e8" y="262.206523"/>
    </g>
    <g clip-path="url(#p6600ea9d20)">
     <use style="fill:#66ccff;" x="1200.425391" xlink:href="#C0_0_5e0504f7e8" y="269.402303"/>
    </g>
    <g clip-path="url(#p6600ea9d20)">
     <use style="fill:#66ccff;" x="1223.457213" xlink:href="#C0_0_5e0504f7e8" y="252.788741"/>
    </g>
    <g clip-path="url(#p6600ea9d20)">
     <use style="fill:#66ccff;" x="1202.259783" xlink:href="#C0_0_5e0504f7e8" y="277.585921"/>
    </g>
    <g clip-path="url(#p6600ea9d20)">
     <use style="fill:#66ccff;" x="1229.20169" xlink:href="#C0_0_5e0504f7e8" y="302.608338"/>
    </g>
    <g clip-path="url(#p6600ea9d20)">
     <use style="fill:#66ccff;" x="1163.797364" xlink:href="#C0_0_5e0504f7e8" y="332.586818"/>
    </g>
    <g clip-path="url(#p6600ea9d20)">
     <use style="fill:#66ccff;" x="1219.914665" xlink:href="#C0_0_5e0504f7e8" y="255.142343"/>
    </g>
    <g clip-path="url(#p6600ea9d20)">
     <use style="fill:#66ccff;" x="1215.977623" xlink:href="#C0_0_5e0504f7e8" y="304.915543"/>
    </g>
    <g clip-path="url(#p6600ea9d20)">
     <use style="fill:#66ccff;" x="1204.894997" xlink:href="#C0_0_5e0504f7e8" y="266.755134"/>
    </g>
    <g clip-path="url(#p6600ea9d20)">
     <use style="fill:#66ccff;" x="1215.345119" xlink:href="#C0_0_5e0504f7e8" y="302.383945"/>
    </g>
    <g clip-path="url(#p6600ea9d20)">
     <use style="fill:#66ccff;" x="1182.014398" xlink:href="#C0_0_5e0504f7e8" y="283.864724"/>
    </g>
    <g clip-path="url(#p6600ea9d20)">
     <use style="fill:#66ccff;" x="1214.18268" xlink:href="#C0_0_5e0504f7e8" y="284.296639"/>
    </g>
    <g clip-path="url(#p6600ea9d20)">
     <use style="fill:#66ccff;" x="1200.319535" xlink:href="#C0_0_5e0504f7e8" y="245.028603"/>
    </g>
    <g clip-path="url(#p6600ea9d20)">
     <use style="fill:#66ccff;" x="1218.561553" xlink:href="#C0_0_5e0504f7e8" y="287.557095"/>
    </g>
    <g clip-path="url(#p6600ea9d20)">
     <use style="fill:#66ccff;" x="1203.176322" xlink:href="#C0_0_5e0504f7e8" y="264.463957"/>
    </g>
    <g clip-path="url(#p6600ea9d20)">
     <use style="fill:#66ccff;" x="1199.546328" xlink:href="#C0_0_5e0504f7e8" y="266.157875"/>
    </g>
    <g clip-path="url(#p6600ea9d20)">
     <use style="fill:#66ccff;" x="1183.02956" xlink:href="#C0_0_5e0504f7e8" y="287.313299"/>
    </g>
    <g clip-path="url(#p6600ea9d20)">
     <use style="fill:#66ccff;" x="1206.983838" xlink:href="#C0_0_5e0504f7e8" y="304.367213"/>
    </g>
    <g clip-path="url(#p6600ea9d20)">
     <use style="fill:#66ccff;" x="1213.898645" xlink:href="#C0_0_5e0504f7e8" y="281.959909"/>
    </g>
    <g clip-path="url(#p6600ea9d20)">
     <use style="fill:#66ccff;" x="1213.081387" xlink:href="#C0_0_5e0504f7e8" y="279.039418"/>
    </g>
    <g clip-path="url(#p6600ea9d20)">
     <use style="fill:#66ccff;" x="1211.580998" xlink:href="#C0_0_5e0504f7e8" y="274.92188"/>
    </g>
    <g clip-path="url(#p6600ea9d20)">
     <use style="fill:#66ccff;" x="1201.213719" xlink:href="#C0_0_5e0504f7e8" y="273.772073"/>
    </g>
    <g clip-path="url(#p6600ea9d20)">
     <use style="fill:#66ccff;" x="1208.863598" xlink:href="#C0_0_5e0504f7e8" y="257.634293"/>
    </g>
    <g clip-path="url(#p6600ea9d20)">
     <use style="fill:#66ccff;" x="1210.928769" xlink:href="#C0_0_5e0504f7e8" y="261.64807"/>
    </g>
    <g clip-path="url(#p6600ea9d20)">
     <use style="fill:#66ccff;" x="1212.324617" xlink:href="#C0_0_5e0504f7e8" y="268.559562"/>
    </g>
    <g clip-path="url(#p6600ea9d20)">
     <use style="fill:#66ccff;" x="1199.049925" xlink:href="#C0_0_5e0504f7e8" y="256.315769"/>
    </g>
    <g clip-path="url(#p6600ea9d20)">
     <use style="fill:#66ccff;" x="1213.686934" xlink:href="#C0_0_5e0504f7e8" y="273.847152"/>
    </g>
    <g clip-path="url(#p6600ea9d20)">
     <use style="fill:#66ccff;" x="1200.199215" xlink:href="#C0_0_5e0504f7e8" y="246.450043"/>
    </g>
    <g clip-path="url(#p6600ea9d20)">
     <use style="fill:#66ccff;" x="249.302533" xlink:href="#C0_0_5e0504f7e8" y="50.448136"/>
    </g>
    <g clip-path="url(#p6600ea9d20)">
     <use style="fill:#66ccff;" x="253.034438" xlink:href="#C0_0_5e0504f7e8" y="51.816431"/>
    </g>
    <g clip-path="url(#p6600ea9d20)">
     <use style="fill:#66ccff;" x="251.33483" xlink:href="#C0_0_5e0504f7e8" y="53.356817"/>
    </g>
    <g clip-path="url(#p6600ea9d20)">
     <use style="fill:#66ccff;" x="253.424986" xlink:href="#C0_0_5e0504f7e8" y="60.276745"/>
    </g>
    <g clip-path="url(#p6600ea9d20)">
     <use style="fill:#66ccff;" x="1043.436863" xlink:href="#C0_0_5e0504f7e8" y="331.097047"/>
    </g>
    <g clip-path="url(#p6600ea9d20)">
     <use style="fill:#66ccff;" x="1139.123136" xlink:href="#C0_0_5e0504f7e8" y="286.101911"/>
    </g>
    <g clip-path="url(#p6600ea9d20)">
     <use style="fill:#66ccff;" x="250.848289" xlink:href="#C0_0_5e0504f7e8" y="50.961036"/>
    </g>
    <g clip-path="url(#p6600ea9d20)">
     <use style="fill:#66ccff;" x="242.998534" xlink:href="#C0_0_5e0504f7e8" y="46.804693"/>
    </g>
    <g clip-path="url(#p6600ea9d20)">
     <use style="fill:#66ccff;" x="1211.995873" xlink:href="#C0_0_5e0504f7e8" y="268.772145"/>
    </g>
    <g clip-path="url(#p6600ea9d20)">
     <use style="fill:#66ccff;" x="1214.254346" xlink:href="#C0_0_5e0504f7e8" y="276.897556"/>
    </g>
    <g clip-path="url(#p6600ea9d20)">
     <use style="fill:#66ccff;" x="1209.704526" xlink:href="#C0_0_5e0504f7e8" y="285.346059"/>
    </g>
    <g clip-path="url(#p6600ea9d20)">
     <use style="fill:#66ccff;" x="1214.278016" xlink:href="#C0_0_5e0504f7e8" y="285.08033"/>
    </g>
    <g clip-path="url(#p6600ea9d20)">
     <use style="fill:#66ccff;" x="1190.936517" xlink:href="#C0_0_5e0504f7e8" y="289.660996"/>
    </g>
    <g clip-path="url(#p6600ea9d20)">
     <use style="fill:#66ccff;" x="1190.305985" xlink:href="#C0_0_5e0504f7e8" y="285.756041"/>
    </g>
    <g clip-path="url(#p6600ea9d20)">
     <use style="fill:#66ccff;" x="1196.302938" xlink:href="#C0_0_5e0504f7e8" y="287.083844"/>
    </g>
    <g clip-path="url(#p6600ea9d20)">
     <use style="fill:#66ccff;" x="1195.788124" xlink:href="#C0_0_5e0504f7e8" y="282.793371"/>
    </g>
    <g clip-path="url(#p6600ea9d20)">
     <use style="fill:#66ccff;" x="1196.145798" xlink:href="#C0_0_5e0504f7e8" y="282.765533"/>
    </g>
    <g clip-path="url(#p6600ea9d20)">
     <use style="fill:#66ccff;" x="1195.191125" xlink:href="#C0_0_5e0504f7e8" y="279.27984"/>
    </g>
    <g clip-path="url(#p6600ea9d20)">
     <use style="fill:#66ccff;" x="1191.361912" xlink:href="#C0_0_5e0504f7e8" y="285.529961"/>
    </g>
    <g clip-path="url(#p6600ea9d20)">
     <use style="fill:#66ccff;" x="1191.183075" xlink:href="#C0_0_5e0504f7e8" y="283.151895"/>
    </g>
    <g clip-path="url(#p6600ea9d20)">
     <use style="fill:#66ccff;" x="1190.802389" xlink:href="#C0_0_5e0504f7e8" y="280.330947"/>
    </g>
    <g clip-path="url(#p6600ea9d20)">
     <use style="fill:#66ccff;" x="1196.020218" xlink:href="#C0_0_5e0504f7e8" y="275.849823"/>
    </g>
    <g clip-path="url(#p6600ea9d20)">
     <use style="fill:#66ccff;" x="1194.093119" xlink:href="#C0_0_5e0504f7e8" y="272.004763"/>
    </g>
    <g clip-path="url(#p6600ea9d20)">
     <use style="fill:#66ccff;" x="1188.718808" xlink:href="#C0_0_5e0504f7e8" y="258.114293"/>
    </g>
    <g clip-path="url(#p6600ea9d20)">
     <use style="fill:#66ccff;" x="1206.548581" xlink:href="#C0_0_5e0504f7e8" y="265.170881"/>
    </g>
    <g clip-path="url(#p6600ea9d20)">
     <use style="fill:#66ccff;" x="1204.738515" xlink:href="#C0_0_5e0504f7e8" y="260.284837"/>
    </g>
    <g clip-path="url(#p6600ea9d20)">
     <use style="fill:#66ccff;" x="1202.172995" xlink:href="#C0_0_5e0504f7e8" y="261.628668"/>
    </g>
    <g clip-path="url(#p6600ea9d20)">
     <use style="fill:#66ccff;" x="1211.062897" xlink:href="#C0_0_5e0504f7e8" y="253.952888"/>
    </g>
    <g clip-path="url(#p6600ea9d20)">
     <use style="fill:#66ccff;" x="1212.28977" xlink:href="#C0_0_5e0504f7e8" y="255.85939"/>
    </g>
    <g clip-path="url(#p6600ea9d20)">
     <use style="fill:#66ccff;" x="1214.667906" xlink:href="#C0_0_5e0504f7e8" y="259.39148"/>
    </g>
    <g clip-path="url(#p6600ea9d20)">
     <use style="fill:#66ccff;" x="1216.967801" xlink:href="#C0_0_5e0504f7e8" y="264.964203"/>
    </g>
    <g clip-path="url(#p6600ea9d20)">
     <use style="fill:#66ccff;" x="1217.182142" xlink:href="#C0_0_5e0504f7e8" y="263.652428"/>
    </g>
    <g clip-path="url(#p6600ea9d20)">
     <use style="fill:#66ccff;" x="1221.975233" xlink:href="#C0_0_5e0504f7e8" y="256.963643"/>
    </g>
    <g clip-path="url(#p6600ea9d20)">
     <use style="fill:#66ccff;" x="1217.977046" xlink:href="#C0_0_5e0504f7e8" y="265.008069"/>
    </g>
    <g clip-path="url(#p6600ea9d20)">
     <use style="fill:#66ccff;" x="1198.657404" xlink:href="#C0_0_5e0504f7e8" y="266.572919"/>
    </g>
   </g>
   <g id="LineCollection_1">
    <path clip-path="url(#p6600ea9d20)" d="M 210.141861 8.307692 
L 218.042243 28.617001 
L 231.585848 38.772076 
L 240.382387 44.570036 
L 242.998534 46.804693 
" style="fill:none;stroke:#999999;"/>
    <path clip-path="url(#p6600ea9d20)" d="M 1131.231959 423.692308 
L 1159.014793 346.873773 
L 1159.642037 345.001014 
L 1163.797364 332.586818 
" style="fill:none;stroke:#999999;"/>
    <path clip-path="url(#p6600ea9d20)" d="M 1174.848431 299.573963 
L 1163.797364 332.586818 
" style="fill:none;stroke:#999999;"/>
    <path clip-path="url(#p6600ea9d20)" d="M 1174.848431 299.573963 
L 1178.074069 296.829781 
L 1181.779674 292.838781 
L 1183.792247 289.903949 
" style="fill:none;stroke:#999999;"/>
    <path clip-path="url(#p6600ea9d20)" d="M 1174.848431 299.573963 
L 1177.408033 291.708377 
L 1180.673121 281.674777 
" style="fill:none;stroke:#999999;"/>
    <path clip-path="url(#p6600ea9d20)" d="M 1225.302125 265.324413 
L 1230.821741 263.935029 
" style="fill:none;stroke:#999999;"/>
    <path clip-path="url(#p6600ea9d20)" d="M 1225.302125 265.324413 
L 1217.977046 265.008069 
" style="fill:none;stroke:#999999;"/>
    <path clip-path="url(#p6600ea9d20)" d="M 1225.302125 265.324413 
L 1219.75358 269.754922 
" style="fill:none;stroke:#999999;"/>
    <path clip-path="url(#p6600ea9d20)" d="M 1225.302125 265.324413 
L 1224.352054 267.540511 
L 1223.178437 270.47703 
L 1221.045545 277.01397 
L 1218.938294 282.520893 
L 1218.707516 287.172421 
" style="fill:none;stroke:#999999;"/>
    <path clip-path="url(#p6600ea9d20)" d="M 1180.673121 281.674777 
L 1181.331267 281.651157 
" style="fill:none;stroke:#999999;"/>
    <path clip-path="url(#p6600ea9d20)" d="M 1180.673121 281.674777 
L 1177.408033 291.708377 
L 1174.848431 299.573963 
" style="fill:none;stroke:#999999;"/>
    <path clip-path="url(#p6600ea9d20)" d="M 1180.673121 281.674777 
L 1172.836516 282.726728 
L 1165.820456 283.669012 
L 1155.731953 283.699381 
L 1139.123136 286.101911 
" style="fill:none;stroke:#999999;"/>
    <path clip-path="url(#p6600ea9d20)" d="M 1181.331267 281.651157 
L 1182.014398 283.864724 
" style="fill:none;stroke:#999999;"/>
    <path clip-path="url(#p6600ea9d20)" d="M 1181.331267 281.651157 
L 1182.407576 281.312879 
" style="fill:none;stroke:#999999;"/>
    <path clip-path="url(#p6600ea9d20)" d="M 1181.331267 281.651157 
L 1180.673121 281.674777 
" style="fill:none;stroke:#999999;"/>
    <path clip-path="url(#p6600ea9d20)" d="M 1209.219299 270.568981 
L 1211.995873 268.772145 
" style="fill:none;stroke:#999999;"/>
    <path clip-path="url(#p6600ea9d20)" d="M 1209.219299 270.568981 
L 1211.580998 274.92188 
" style="fill:none;stroke:#999999;"/>
    <path clip-path="url(#p6600ea9d20)" d="M 1209.219299 270.568981 
L 1207.525609 271.24638 
L 1201.992186 273.459947 
" style="fill:none;stroke:#999999;"/>
    <path clip-path="url(#p6600ea9d20)" d="M 1183.792247 289.903949 
L 1183.02956 287.313299 
" style="fill:none;stroke:#999999;"/>
    <path clip-path="url(#p6600ea9d20)" d="M 1183.792247 289.903949 
L 1185.714085 289.199555 
L 1190.936517 289.660996 
" style="fill:none;stroke:#999999;"/>
    <path clip-path="url(#p6600ea9d20)" d="M 1183.792247 289.903949 
L 1181.779674 292.838781 
L 1178.074069 296.829781 
L 1174.848431 299.573963 
" style="fill:none;stroke:#999999;"/>
    <path clip-path="url(#p6600ea9d20)" d="M 1218.707516 287.172421 
L 1218.561553 287.557095 
" style="fill:none;stroke:#999999;"/>
    <path clip-path="url(#p6600ea9d20)" d="M 1218.707516 287.172421 
L 1221.14877 290.680047 
L 1223.411188 293.65031 
L 1227.261441 299.580712 
L 1229.20169 302.608338 
" style="fill:none;stroke:#999999;"/>
    <path clip-path="url(#p6600ea9d20)" d="M 1218.707516 287.172421 
L 1218.938294 282.520893 
L 1221.045545 277.01397 
L 1223.178437 270.47703 
L 1224.352054 267.540511 
L 1225.302125 265.324413 
" style="fill:none;stroke:#999999;"/>
    <path clip-path="url(#p6600ea9d20)" d="M 1204.287478 290.784652 
L 1203.242071 290.70198 
" style="fill:none;stroke:#999999;"/>
    <path clip-path="url(#p6600ea9d20)" d="M 1204.287478 290.784652 
L 1203.065864 281.991965 
" style="fill:none;stroke:#999999;"/>
    <path clip-path="url(#p6600ea9d20)" d="M 1204.287478 290.784652 
L 1206.983838 304.367213 
" style="fill:none;stroke:#999999;"/>
    <path clip-path="url(#p6600ea9d20)" d="M 1204.287478 290.784652 
L 1207.626862 290.255724 
L 1214.702096 288.565179 
" style="fill:none;stroke:#999999;"/>
    <path clip-path="url(#p6600ea9d20)" d="M 251.34009 50.955974 
L 253.034438 51.816431 
" style="fill:none;stroke:#999999;"/>
    <path clip-path="url(#p6600ea9d20)" d="M 251.34009 50.955974 
L 250.848289 50.961036 
" style="fill:none;stroke:#999999;"/>
    <path clip-path="url(#p6600ea9d20)" d="M 249.712806 53.817414 
L 251.33483 53.356817 
" style="fill:none;stroke:#999999;"/>
    <path clip-path="url(#p6600ea9d20)" d="M 249.712806 53.817414 
L 251.253959 56.202229 
L 252.415741 58.478221 
L 253.424986 60.276745 
" style="fill:none;stroke:#999999;"/>
    <path clip-path="url(#p6600ea9d20)" d="M 249.712806 53.817414 
L 249.137504 53.034568 
L 248.694356 52.430561 
L 247.878413 51.257134 
" style="fill:none;stroke:#999999;"/>
    <path clip-path="url(#p6600ea9d20)" d="M 247.878413 51.257134 
L 242.998534 46.804693 
" style="fill:none;stroke:#999999;"/>
    <path clip-path="url(#p6600ea9d20)" d="M 247.878413 51.257134 
L 248.694356 52.430561 
L 249.137504 53.034568 
L 249.712806 53.817414 
" style="fill:none;stroke:#999999;"/>
    <path clip-path="url(#p6600ea9d20)" d="M 1223.315853 338.718837 
L 1218.096051 322.420775 
L 1218.801537 318.469423 
L 1217.390566 314.448054 
L 1217.249206 313.107597 
L 1217.368212 312.278353 
L 1217.531926 311.132765 
L 1215.977623 304.915543 
" style="fill:none;stroke:#999999;"/>
    <path clip-path="url(#p6600ea9d20)" d="M 1203.242071 290.70198 
L 1204.287478 290.784652 
" style="fill:none;stroke:#999999;"/>
    <path clip-path="url(#p6600ea9d20)" d="M 1203.242071 290.70198 
L 1198.340495 290.314775 
L 1190.936517 289.660996 
" style="fill:none;stroke:#999999;"/>
    <path clip-path="url(#p6600ea9d20)" d="M 1203.242071 290.70198 
L 1201.977063 289.22655 
L 1196.302938 287.083844 
" style="fill:none;stroke:#999999;"/>
    <path clip-path="url(#p6600ea9d20)" d="M 1182.407576 281.312879 
L 1184.278788 280.725744 
" style="fill:none;stroke:#999999;"/>
    <path clip-path="url(#p6600ea9d20)" d="M 1182.407576 281.312879 
L 1181.331267 281.651157 
" style="fill:none;stroke:#999999;"/>
    <path clip-path="url(#p6600ea9d20)" d="M 1182.407576 281.312879 
L 1188.71552 280.831192 
L 1190.802389 280.330947 
" style="fill:none;stroke:#999999;"/>
    <path clip-path="url(#p6600ea9d20)" d="M 1221.376261 256.492079 
L 1221.975233 256.963643 
" style="fill:none;stroke:#999999;"/>
    <path clip-path="url(#p6600ea9d20)" d="M 1221.376261 256.492079 
L 1219.914665 255.142343 
" style="fill:none;stroke:#999999;"/>
    <path clip-path="url(#p6600ea9d20)" d="M 1221.376261 256.492079 
L 1221.658324 255.151622 
L 1223.457213 252.788741 
" style="fill:none;stroke:#999999;"/>
    <path clip-path="url(#p6600ea9d20)" d="M 1184.278788 280.725744 
L 1190.45655 274.10782 
" style="fill:none;stroke:#999999;"/>
    <path clip-path="url(#p6600ea9d20)" d="M 1184.278788 280.725744 
L 1182.407576 281.312879 
" style="fill:none;stroke:#999999;"/>
    <path clip-path="url(#p6600ea9d20)" d="M 1184.278788 280.725744 
L 1186.564876 280.007853 
L 1192.786689 277.143039 
L 1196.020218 275.849823 
" style="fill:none;stroke:#999999;"/>
    <path clip-path="url(#p6600ea9d20)" d="M 1184.278788 280.725744 
L 1183.919142 277.233302 
L 1184.76533 276.104586 
L 1183.637079 271.307118 
L 1193.519131 265.511689 
L 1199.15578 262.206523 
" style="fill:none;stroke:#999999;"/>
    <path clip-path="url(#p6600ea9d20)" d="M 1271.954221 163.026238 
L 1267.580608 186.091538 
L 1261.937384 198.859197 
L 1256.75243 203.83213 
L 1238.905562 224.571667 
L 1238.411788 226.405621 
L 1231.393099 234.271207 
L 1228.218744 238.644351 
L 1223.457213 252.788741 
" style="fill:none;stroke:#999999;"/>
    <path clip-path="url(#p6600ea9d20)" d="M 1214.702096 288.565179 
L 1215.345119 302.383945 
" style="fill:none;stroke:#999999;"/>
    <path clip-path="url(#p6600ea9d20)" d="M 1214.702096 288.565179 
L 1214.278016 285.08033 
" style="fill:none;stroke:#999999;"/>
    <path clip-path="url(#p6600ea9d20)" d="M 1214.702096 288.565179 
L 1216.959911 288.025285 
L 1218.561553 287.557095 
" style="fill:none;stroke:#999999;"/>
    <path clip-path="url(#p6600ea9d20)" d="M 1214.702096 288.565179 
L 1207.626862 290.255724 
L 1204.287478 290.784652 
" style="fill:none;stroke:#999999;"/>
    <path clip-path="url(#p6600ea9d20)" d="M 1230.821741 263.935029 
L 1225.302125 265.324413 
" style="fill:none;stroke:#999999;"/>
    <path clip-path="url(#p6600ea9d20)" d="M 1230.821741 263.935029 
L 1221.975233 256.963643 
" style="fill:none;stroke:#999999;"/>
    <path clip-path="url(#p6600ea9d20)" d="M 1230.821741 263.935029 
L 1247.687636 262.241954 
L 1260.03264 254.961816 
L 1272.482842 244.598374 
L 1283.33206 237.945863 
L 1292.304805 225.222071 
L 1300.454375 219.709243 
L 1308.317938 219.478101 
L 1324.417201 212.511776 
L 1348.314278 207.186224 
L 1383.352497 190.322117 
L 1399.18482 179.137024 
L 1428.061057 166.373583 
L 1439.629567 159.964025 
L 1451.413076 155.691267 
L 1467.109957 149.425117 
" style="fill:none;stroke:#999999;"/>
    <path clip-path="url(#p6600ea9d20)" d="M 1219.75358 269.754922 
L 1213.686934 273.847152 
" style="fill:none;stroke:#999999;"/>
    <path clip-path="url(#p6600ea9d20)" d="M 1219.75358 269.754922 
L 1214.254346 276.897556 
" style="fill:none;stroke:#999999;"/>
    <path clip-path="url(#p6600ea9d20)" d="M 1219.75358 269.754922 
L 1225.302125 265.324413 
" style="fill:none;stroke:#999999;"/>
    <path clip-path="url(#p6600ea9d20)" d="M 1219.75358 269.754922 
L 1219.704268 268.131864 
L 1218.593113 265.804413 
L 1217.977046 265.008069 
" style="fill:none;stroke:#999999;"/>
    <path clip-path="url(#p6600ea9d20)" d="M 1467.109957 149.425117 
L 1451.413076 155.691267 
L 1439.629567 159.964025 
L 1428.061057 166.373583 
L 1399.18482 179.137024 
L 1383.352497 190.322117 
L 1348.314278 207.186224 
L 1324.417201 212.511776 
L 1308.317938 219.478101 
L 1300.454375 219.709243 
L 1292.304805 225.222071 
L 1283.33206 237.945863 
L 1272.482842 244.598374 
L 1260.03264 254.961816 
L 1247.687636 262.241954 
L 1230.821741 263.935029 
" style="fill:none;stroke:#999999;"/>
    <path clip-path="url(#p6600ea9d20)" d="M 1467.109957 149.425117 
L 1462.944767 135.977529 
L 1451.79968 129.875879 
L 1446.262311 127.513841 
L 1435.681349 119.261893 
L 1431.589798 114.95961 
L 1426.650087 105.543514 
L 1409.615875 93.483624 
L 1405.842549 89.428511 
L 1395.259614 74.583102 
L 1371.240244 75.675545 
L 1357.026 68.658605 
L 1352.652387 65.696778 
L 1344.857861 57.057624 
L 1333.606918 52.579875 
L 1312.020913 38.898614 
L 1302.427498 37.769898 
L 1299.852773 38.017068 
L 1280.700791 35.372429 
L 1271.530799 36.642024 
" style="fill:none;stroke:#999999;"/>
    <path clip-path="url(#p6600ea9d20)" d="M 1190.45655 274.10782 
L 1184.278788 280.725744 
" style="fill:none;stroke:#999999;"/>
    <path clip-path="url(#p6600ea9d20)" d="M 1190.45655 274.10782 
L 1194.093119 272.004763 
" style="fill:none;stroke:#999999;"/>
    <path clip-path="url(#p6600ea9d20)" d="M 1190.45655 274.10782 
L 1190.831976 273.70543 
L 1197.88617 266.93313 
L 1198.657404 266.572919 
" style="fill:none;stroke:#999999;"/>
    <path clip-path="url(#p6600ea9d20)" d="M 1203.065864 281.991965 
L 1202.259783 277.585921 
" style="fill:none;stroke:#999999;"/>
    <path clip-path="url(#p6600ea9d20)" d="M 1203.065864 281.991965 
L 1204.287478 290.784652 
" style="fill:none;stroke:#999999;"/>
    <path clip-path="url(#p6600ea9d20)" d="M 1203.065864 281.991965 
L 1213.081387 279.039418 
" style="fill:none;stroke:#999999;"/>
    <path clip-path="url(#p6600ea9d20)" d="M 1203.065864 281.991965 
L 1201.977063 282.312528 
L 1196.145798 282.765533 
" style="fill:none;stroke:#999999;"/>
    <path clip-path="url(#p6600ea9d20)" d="M 1271.530799 36.642024 
L 1280.700791 35.372429 
L 1299.852773 38.017068 
L 1302.427498 37.769898 
L 1312.020913 38.898614 
L 1333.606918 52.579875 
L 1344.857861 57.057624 
L 1352.652387 65.696778 
L 1357.026 68.658605 
L 1371.240244 75.675545 
L 1395.259614 74.583102 
L 1405.842549 89.428511 
L 1409.615875 93.483624 
L 1426.650087 105.543514 
L 1431.589798 114.95961 
L 1435.681349 119.261893 
L 1446.262311 127.513841 
L 1451.79968 129.875879 
L 1462.944767 135.977529 
L 1467.109957 149.425117 
" style="fill:none;stroke:#999999;"/>
    <path clip-path="url(#p6600ea9d20)" d="M 1199.543698 254.199215 
L 1199.049925 256.315769 
" style="fill:none;stroke:#999999;"/>
    <path clip-path="url(#p6600ea9d20)" d="M 1199.543698 254.199215 
L 1200.199215 246.450043 
" style="fill:none;stroke:#999999;"/>
    <path clip-path="url(#p6600ea9d20)" d="M 1199.543698 254.199215 
L 1202.172995 261.628668 
" style="fill:none;stroke:#999999;"/>
    <path clip-path="url(#p6600ea9d20)" d="M 1201.992186 273.459947 
L 1201.213719 273.772073 
" style="fill:none;stroke:#999999;"/>
    <path clip-path="url(#p6600ea9d20)" d="M 1201.992186 273.459947 
L 1200.425391 269.402303 
" style="fill:none;stroke:#999999;"/>
    <path clip-path="url(#p6600ea9d20)" d="M 1201.992186 273.459947 
L 1207.525609 271.24638 
L 1209.219299 270.568981 
" style="fill:none;stroke:#999999;"/>
    <path clip-path="url(#p6600ea9d20)" d="M 1199.15578 262.206523 
L 1199.049925 256.315769 
" style="fill:none;stroke:#999999;"/>
    <path clip-path="url(#p6600ea9d20)" d="M 1199.15578 262.206523 
L 1199.546328 266.157875 
" style="fill:none;stroke:#999999;"/>
    <path clip-path="url(#p6600ea9d20)" d="M 1199.15578 262.206523 
L 1202.172995 261.628668 
" style="fill:none;stroke:#999999;"/>
    <path clip-path="url(#p6600ea9d20)" d="M 1199.15578 262.206523 
L 1193.519131 265.511689 
L 1183.637079 271.307118 
L 1184.76533 276.104586 
L 1183.919142 277.233302 
L 1184.278788 280.725744 
" style="fill:none;stroke:#999999;"/>
    <path clip-path="url(#p6600ea9d20)" d="M 1200.425391 269.402303 
L 1201.992186 273.459947 
" style="fill:none;stroke:#999999;"/>
    <path clip-path="url(#p6600ea9d20)" d="M 1200.425391 269.402303 
L 1198.657404 266.572919 
" style="fill:none;stroke:#999999;"/>
    <path clip-path="url(#p6600ea9d20)" d="M 1200.425391 269.402303 
L 1204.894997 266.755134 
" style="fill:none;stroke:#999999;"/>
    <path clip-path="url(#p6600ea9d20)" d="M 1200.425391 269.402303 
L 1198.591655 269.402303 
L 1194.093119 272.004763 
" style="fill:none;stroke:#999999;"/>
    <path clip-path="url(#p6600ea9d20)" d="M 1223.457213 252.788741 
L 1219.914665 255.142343 
" style="fill:none;stroke:#999999;"/>
    <path clip-path="url(#p6600ea9d20)" d="M 1223.457213 252.788741 
L 1221.658324 255.151622 
L 1221.376261 256.492079 
" style="fill:none;stroke:#999999;"/>
    <path clip-path="url(#p6600ea9d20)" d="M 1223.457213 252.788741 
L 1228.218744 238.644351 
L 1231.393099 234.271207 
L 1238.411788 226.405621 
L 1238.905562 224.571667 
L 1256.75243 203.83213 
L 1261.937384 198.859197 
L 1267.580608 186.091538 
L 1271.954221 163.026238 
" style="fill:none;stroke:#999999;"/>
    <path clip-path="url(#p6600ea9d20)" d="M 1202.259783 277.585921 
L 1195.191125 279.27984 
" style="fill:none;stroke:#999999;"/>
    <path clip-path="url(#p6600ea9d20)" d="M 1202.259783 277.585921 
L 1201.213719 273.772073 
" style="fill:none;stroke:#999999;"/>
    <path clip-path="url(#p6600ea9d20)" d="M 1202.259783 277.585921 
L 1203.065864 281.991965 
" style="fill:none;stroke:#999999;"/>
    <path clip-path="url(#p6600ea9d20)" d="M 1202.259783 277.585921 
L 1207.056162 277.233302 
L 1211.580998 274.92188 
" style="fill:none;stroke:#999999;"/>
    <path clip-path="url(#p6600ea9d20)" d="M 1229.20169 302.608338 
L 1215.977623 304.915543 
" style="fill:none;stroke:#999999;"/>
    <path clip-path="url(#p6600ea9d20)" d="M 1229.20169 302.608338 
L 1227.261441 299.580712 
L 1223.411188 293.65031 
L 1221.14877 290.680047 
L 1218.707516 287.172421 
" style="fill:none;stroke:#999999;"/>
    <path clip-path="url(#p6600ea9d20)" d="M 1163.797364 332.586818 
L 1174.848431 299.573963 
" style="fill:none;stroke:#999999;"/>
    <path clip-path="url(#p6600ea9d20)" d="M 1163.797364 332.586818 
L 1165.754707 332.369173 
L 1175.207419 326.301266 
L 1200.178832 316.352868 
L 1207.867503 310.567563 
L 1207.44408 306.687915 
L 1206.983838 304.367213 
" style="fill:none;stroke:#999999;"/>
    <path clip-path="url(#p6600ea9d20)" d="M 1163.797364 332.586818 
L 1159.642037 345.001014 
L 1159.014793 346.873773 
L 1131.231959 423.692308 
" style="fill:none;stroke:#999999;"/>
    <path clip-path="url(#p6600ea9d20)" d="M 1219.914665 255.142343 
L 1221.376261 256.492079 
" style="fill:none;stroke:#999999;"/>
    <path clip-path="url(#p6600ea9d20)" d="M 1219.914665 255.142343 
L 1223.457213 252.788741 
" style="fill:none;stroke:#999999;"/>
    <path clip-path="url(#p6600ea9d20)" d="M 1219.914665 255.142343 
L 1215.379966 258.961252 
L 1214.667906 259.39148 
" style="fill:none;stroke:#999999;"/>
    <path clip-path="url(#p6600ea9d20)" d="M 1219.914665 255.142343 
L 1217.672629 253.070498 
L 1212.28977 255.85939 
" style="fill:none;stroke:#999999;"/>
    <path clip-path="url(#p6600ea9d20)" d="M 1215.977623 304.915543 
L 1215.345119 302.383945 
" style="fill:none;stroke:#999999;"/>
    <path clip-path="url(#p6600ea9d20)" d="M 1215.977623 304.915543 
L 1229.20169 302.608338 
" style="fill:none;stroke:#999999;"/>
    <path clip-path="url(#p6600ea9d20)" d="M 1215.977623 304.915543 
L 1217.531926 311.132765 
L 1217.368212 312.278353 
L 1217.249206 313.107597 
L 1217.390566 314.448054 
L 1218.801537 318.469423 
L 1218.096051 322.420775 
L 1223.315853 338.718837 
" style="fill:none;stroke:#999999;"/>
    <path clip-path="url(#p6600ea9d20)" d="M 1204.894997 266.755134 
L 1203.176322 264.463957 
" style="fill:none;stroke:#999999;"/>
    <path clip-path="url(#p6600ea9d20)" d="M 1204.894997 266.755134 
L 1206.548581 265.170881 
" style="fill:none;stroke:#999999;"/>
    <path clip-path="url(#p6600ea9d20)" d="M 1204.894997 266.755134 
L 1200.425391 269.402303 
" style="fill:none;stroke:#999999;"/>
    <path clip-path="url(#p6600ea9d20)" d="M 1215.345119 302.383945 
L 1214.702096 288.565179 
" style="fill:none;stroke:#999999;"/>
    <path clip-path="url(#p6600ea9d20)" d="M 1215.345119 302.383945 
L 1215.977623 304.915543 
" style="fill:none;stroke:#999999;"/>
    <path clip-path="url(#p6600ea9d20)" d="M 1215.345119 302.383945 
L 1213.228664 303.795263 
L 1208.643339 304.853118 
L 1206.983838 304.367213 
" style="fill:none;stroke:#999999;"/>
    <path clip-path="url(#p6600ea9d20)" d="M 1182.014398 283.864724 
L 1181.331267 281.651157 
" style="fill:none;stroke:#999999;"/>
    <path clip-path="url(#p6600ea9d20)" d="M 1182.014398 283.864724 
L 1183.02956 287.313299 
" style="fill:none;stroke:#999999;"/>
    <path clip-path="url(#p6600ea9d20)" d="M 1182.014398 283.864724 
L 1191.183075 283.151895 
" style="fill:none;stroke:#999999;"/>
    <path clip-path="url(#p6600ea9d20)" d="M 1214.18268 284.296639 
L 1218.561553 287.557095 
" style="fill:none;stroke:#999999;"/>
    <path clip-path="url(#p6600ea9d20)" d="M 1214.18268 284.296639 
L 1213.898645 281.959909 
" style="fill:none;stroke:#999999;"/>
    <path clip-path="url(#p6600ea9d20)" d="M 1214.18268 284.296639 
L 1214.278016 285.08033 
" style="fill:none;stroke:#999999;"/>
    <path clip-path="url(#p6600ea9d20)" d="M 1200.319535 245.028603 
L 1200.199215 246.450043 
" style="fill:none;stroke:#999999;"/>
    <path clip-path="url(#p6600ea9d20)" d="M 1218.561553 287.557095 
L 1218.707516 287.172421 
" style="fill:none;stroke:#999999;"/>
    <path clip-path="url(#p6600ea9d20)" d="M 1218.561553 287.557095 
L 1214.18268 284.296639 
" style="fill:none;stroke:#999999;"/>
    <path clip-path="url(#p6600ea9d20)" d="M 1218.561553 287.557095 
L 1216.959911 288.025285 
L 1214.702096 288.565179 
" style="fill:none;stroke:#999999;"/>
    <path clip-path="url(#p6600ea9d20)" d="M 1203.176322 264.463957 
L 1202.172995 261.628668 
" style="fill:none;stroke:#999999;"/>
    <path clip-path="url(#p6600ea9d20)" d="M 1203.176322 264.463957 
L 1204.894997 266.755134 
" style="fill:none;stroke:#999999;"/>
    <path clip-path="url(#p6600ea9d20)" d="M 1203.176322 264.463957 
L 1199.546328 266.157875 
" style="fill:none;stroke:#999999;"/>
    <path clip-path="url(#p6600ea9d20)" d="M 1199.546328 266.157875 
L 1199.15578 262.206523 
" style="fill:none;stroke:#999999;"/>
    <path clip-path="url(#p6600ea9d20)" d="M 1199.546328 266.157875 
L 1198.657404 266.572919 
" style="fill:none;stroke:#999999;"/>
    <path clip-path="url(#p6600ea9d20)" d="M 1199.546328 266.157875 
L 1203.176322 264.463957 
" style="fill:none;stroke:#999999;"/>
    <path clip-path="url(#p6600ea9d20)" d="M 1183.02956 287.313299 
L 1190.305985 285.756041 
" style="fill:none;stroke:#999999;"/>
    <path clip-path="url(#p6600ea9d20)" d="M 1183.02956 287.313299 
L 1182.014398 283.864724 
" style="fill:none;stroke:#999999;"/>
    <path clip-path="url(#p6600ea9d20)" d="M 1183.02956 287.313299 
L 1183.792247 289.903949 
" style="fill:none;stroke:#999999;"/>
    <path clip-path="url(#p6600ea9d20)" d="M 1206.983838 304.367213 
L 1204.287478 290.784652 
" style="fill:none;stroke:#999999;"/>
    <path clip-path="url(#p6600ea9d20)" d="M 1206.983838 304.367213 
L 1208.643339 304.853118 
L 1213.228664 303.795263 
L 1215.345119 302.383945 
" style="fill:none;stroke:#999999;"/>
    <path clip-path="url(#p6600ea9d20)" d="M 1206.983838 304.367213 
L 1207.44408 306.687915 
L 1207.867503 310.567563 
L 1200.178832 316.352868 
L 1175.207419 326.301266 
L 1165.754707 332.369173 
L 1163.797364 332.586818 
" style="fill:none;stroke:#999999;"/>
    <path clip-path="url(#p6600ea9d20)" d="M 1213.898645 281.959909 
L 1213.081387 279.039418 
" style="fill:none;stroke:#999999;"/>
    <path clip-path="url(#p6600ea9d20)" d="M 1213.898645 281.959909 
L 1214.18268 284.296639 
" style="fill:none;stroke:#999999;"/>
    <path clip-path="url(#p6600ea9d20)" d="M 1213.898645 281.959909 
L 1214.043292 278.538328 
L 1214.254346 276.897556 
" style="fill:none;stroke:#999999;"/>
    <path clip-path="url(#p6600ea9d20)" d="M 1213.081387 279.039418 
L 1213.898645 281.959909 
" style="fill:none;stroke:#999999;"/>
    <path clip-path="url(#p6600ea9d20)" d="M 1213.081387 279.039418 
L 1203.065864 281.991965 
" style="fill:none;stroke:#999999;"/>
    <path clip-path="url(#p6600ea9d20)" d="M 1213.081387 279.039418 
L 1212.417323 276.668944 
L 1211.580998 274.92188 
" style="fill:none;stroke:#999999;"/>
    <path clip-path="url(#p6600ea9d20)" d="M 1211.580998 274.92188 
L 1213.686934 273.847152 
" style="fill:none;stroke:#999999;"/>
    <path clip-path="url(#p6600ea9d20)" d="M 1211.580998 274.92188 
L 1209.219299 270.568981 
" style="fill:none;stroke:#999999;"/>
    <path clip-path="url(#p6600ea9d20)" d="M 1211.580998 274.92188 
L 1207.056162 277.233302 
L 1202.259783 277.585921 
" style="fill:none;stroke:#999999;"/>
    <path clip-path="url(#p6600ea9d20)" d="M 1211.580998 274.92188 
L 1212.417323 276.668944 
L 1213.081387 279.039418 
" style="fill:none;stroke:#999999;"/>
    <path clip-path="url(#p6600ea9d20)" d="M 1201.213719 273.772073 
L 1201.992186 273.459947 
" style="fill:none;stroke:#999999;"/>
    <path clip-path="url(#p6600ea9d20)" d="M 1201.213719 273.772073 
L 1196.020218 275.849823 
" style="fill:none;stroke:#999999;"/>
    <path clip-path="url(#p6600ea9d20)" d="M 1201.213719 273.772073 
L 1202.259783 277.585921 
" style="fill:none;stroke:#999999;"/>
    <path clip-path="url(#p6600ea9d20)" d="M 1208.863598 257.634293 
L 1212.28977 255.85939 
" style="fill:none;stroke:#999999;"/>
    <path clip-path="url(#p6600ea9d20)" d="M 1208.863598 257.634293 
L 1204.738515 260.284837 
" style="fill:none;stroke:#999999;"/>
    <path clip-path="url(#p6600ea9d20)" d="M 1208.863598 257.634293 
L 1210.928769 261.64807 
" style="fill:none;stroke:#999999;"/>
    <path clip-path="url(#p6600ea9d20)" d="M 1208.863598 257.634293 
L 1207.549936 255.081605 
L 1200.199215 246.450043 
" style="fill:none;stroke:#999999;"/>
    <path clip-path="url(#p6600ea9d20)" d="M 1210.928769 261.64807 
L 1208.863598 257.634293 
" style="fill:none;stroke:#999999;"/>
    <path clip-path="url(#p6600ea9d20)" d="M 1210.928769 261.64807 
L 1214.667906 259.39148 
" style="fill:none;stroke:#999999;"/>
    <path clip-path="url(#p6600ea9d20)" d="M 1210.928769 261.64807 
L 1211.289073 262.347402 
L 1212.324617 268.559562 
" style="fill:none;stroke:#999999;"/>
    <path clip-path="url(#p6600ea9d20)" d="M 1210.928769 261.64807 
L 1208.537484 263.264379 
L 1206.548581 265.170881 
" style="fill:none;stroke:#999999;"/>
    <path clip-path="url(#p6600ea9d20)" d="M 1212.324617 268.559562 
L 1211.995873 268.772145 
" style="fill:none;stroke:#999999;"/>
    <path clip-path="url(#p6600ea9d20)" d="M 1212.324617 268.559562 
L 1213.281921 267.939527 
L 1216.282698 264.934677 
L 1216.967801 264.964203 
" style="fill:none;stroke:#999999;"/>
    <path clip-path="url(#p6600ea9d20)" d="M 1212.324617 268.559562 
L 1211.289073 262.347402 
L 1210.928769 261.64807 
" style="fill:none;stroke:#999999;"/>
    <path clip-path="url(#p6600ea9d20)" d="M 1199.049925 256.315769 
L 1199.543698 254.199215 
" style="fill:none;stroke:#999999;"/>
    <path clip-path="url(#p6600ea9d20)" d="M 1199.049925 256.315769 
L 1199.15578 262.206523 
" style="fill:none;stroke:#999999;"/>
    <path clip-path="url(#p6600ea9d20)" d="M 1199.049925 256.315769 
L 1189.282933 257.533063 
L 1188.718808 258.114293 
" style="fill:none;stroke:#999999;"/>
    <path clip-path="url(#p6600ea9d20)" d="M 1213.686934 273.847152 
L 1211.580998 274.92188 
" style="fill:none;stroke:#999999;"/>
    <path clip-path="url(#p6600ea9d20)" d="M 1213.686934 273.847152 
L 1219.75358 269.754922 
" style="fill:none;stroke:#999999;"/>
    <path clip-path="url(#p6600ea9d20)" d="M 1213.686934 273.847152 
L 1211.995873 268.772145 
" style="fill:none;stroke:#999999;"/>
    <path clip-path="url(#p6600ea9d20)" d="M 1213.686934 273.847152 
L 1214.254346 276.897556 
" style="fill:none;stroke:#999999;"/>
    <path clip-path="url(#p6600ea9d20)" d="M 1200.199215 246.450043 
L 1200.319535 245.028603 
" style="fill:none;stroke:#999999;"/>
    <path clip-path="url(#p6600ea9d20)" d="M 1200.199215 246.450043 
L 1199.543698 254.199215 
" style="fill:none;stroke:#999999;"/>
    <path clip-path="url(#p6600ea9d20)" d="M 1200.199215 246.450043 
L 1207.549936 255.081605 
L 1208.863598 257.634293 
" style="fill:none;stroke:#999999;"/>
    <path clip-path="url(#p6600ea9d20)" d="M 249.302533 50.448136 
L 244.598203 47.750351 
L 242.998534 46.804693 
" style="fill:none;stroke:#999999;"/>
    <path clip-path="url(#p6600ea9d20)" d="M 249.302533 50.448136 
L 248.728546 50.772073 
L 247.878413 51.257134 
" style="fill:none;stroke:#999999;"/>
    <path clip-path="url(#p6600ea9d20)" d="M 253.034438 51.816431 
L 251.34009 50.955974 
" style="fill:none;stroke:#999999;"/>
    <path clip-path="url(#p6600ea9d20)" d="M 253.034438 51.816431 
L 254.352702 52.503953 
L 263.289286 56.446869 
L 367.325006 114.811139 
L 371.473758 116.607131 
L 373.842689 117.988923 
L 390.857834 125.738939 
L 402.957595 131.250079 
L 405.962317 132.413383 
L 461.493795 137.332327 
L 470.575026 136.345332 
L 480.743086 134.911238 
L 546.224995 142.568459 
L 550.436867 144.291903 
L 561.502398 147.651902 
L 602.133214 159.990176 
L 647.893756 173.39221 
L 672.926316 189.643031 
L 708.766671 201.713045 
L 716.5658 204.497719 
L 789.415525 234.579115 
L 796.497991 237.626988 
L 858.873925 257.223467 
L 876.081713 262.333061 
L 888.149257 266.114853 
L 929.064109 278.546764 
L 957.337429 287.107465 
L 968.422685 291.508447 
L 973.699688 292.053403 
L 979.140405 291.446022 
L 997.006997 287.579872 
L 1007.888432 285.639627 
L 1040.334832 280.972071 
L 1046.566508 279.36926 
L 1052.755447 278.553513 
L 1060.615722 277.795974 
L 1080.001113 278.857204 
L 1092.822138 277.256079 
L 1102.960611 276.867187 
L 1115.364131 279.12462 
L 1119.476064 280.480261 
L 1137.758847 286.29931 
L 1139.123136 286.101911 
" style="fill:none;stroke:#999999;"/>
    <path clip-path="url(#p6600ea9d20)" d="M 251.33483 53.356817 
L 253.034438 51.816431 
" style="fill:none;stroke:#999999;"/>
    <path clip-path="url(#p6600ea9d20)" d="M 251.33483 53.356817 
L 251.075122 52.056853 
L 250.848289 50.961036 
" style="fill:none;stroke:#999999;"/>
    <path clip-path="url(#p6600ea9d20)" d="M 253.424986 60.276745 
L 251.33483 53.356817 
" style="fill:none;stroke:#999999;"/>
    <path clip-path="url(#p6600ea9d20)" d="M 253.424986 60.276745 
L 252.415741 58.478221 
L 251.253959 56.202229 
L 249.712806 53.817414 
" style="fill:none;stroke:#999999;"/>
    <path clip-path="url(#p6600ea9d20)" d="M 1043.436863 331.097047 
L 1047.912387 328.141125 
L 1071.896252 318.897964 
L 1092.353349 305.210798 
L 1101.876412 299.496354 
L 1116.760637 292.441452 
L 1121.102034 291.164265 
L 1126.392843 288.625074 
L 1132.17677 287.637236 
L 1137.217077 287.362227 
L 1139.123136 286.101911 
" style="fill:none;stroke:#999999;"/>
    <path clip-path="url(#p6600ea9d20)" d="M 1139.123136 286.101911 
L 1137.758847 286.29931 
L 1119.476064 280.480261 
L 1115.364131 279.12462 
L 1102.960611 276.867187 
L 1092.822138 277.256079 
L 1080.001113 278.857204 
L 1060.615722 277.795974 
L 1052.755447 278.553513 
L 1046.566508 279.36926 
L 1040.334832 280.972071 
L 1007.888432 285.639627 
L 997.006997 287.579872 
L 979.140405 291.446022 
L 973.699688 292.053403 
L 968.422685 291.508447 
L 957.337429 287.107465 
L 929.064109 278.546764 
L 888.149257 266.114853 
L 876.081713 262.333061 
L 858.873925 257.223467 
L 796.497991 237.626988 
L 789.415525 234.579115 
L 716.5658 204.497719 
L 708.766671 201.713045 
L 672.926316 189.643031 
L 647.893756 173.39221 
L 602.133214 159.990176 
L 561.502398 147.651902 
L 550.436867 144.291903 
L 546.224995 142.568459 
L 480.743086 134.911238 
L 470.575026 136.345332 
L 461.493795 137.332327 
L 405.962317 132.413383 
L 402.957595 131.250079 
L 390.857834 125.738939 
L 373.842689 117.988923 
L 371.473758 116.607131 
L 367.325006 114.811139 
L 263.289286 56.446869 
L 254.352702 52.503953 
L 253.034438 51.816431 
" style="fill:none;stroke:#999999;"/>
    <path clip-path="url(#p6600ea9d20)" d="M 1139.123136 286.101911 
L 1155.731953 283.699381 
L 1165.820456 283.669012 
L 1172.836516 282.726728 
L 1180.673121 281.674777 
" style="fill:none;stroke:#999999;"/>
    <path clip-path="url(#p6600ea9d20)" d="M 1139.123136 286.101911 
L 1137.217077 287.362227 
L 1132.17677 287.637236 
L 1126.392843 288.625074 
L 1121.102034 291.164265 
L 1116.760637 292.441452 
L 1101.876412 299.496354 
L 1092.353349 305.210798 
L 1071.896252 318.897964 
L 1047.912387 328.141125 
L 1043.436863 331.097047 
" style="fill:none;stroke:#999999;"/>
    <path clip-path="url(#p6600ea9d20)" d="M 250.848289 50.961036 
L 249.302533 50.448136 
" style="fill:none;stroke:#999999;"/>
    <path clip-path="url(#p6600ea9d20)" d="M 242.998534 46.804693 
L 247.878413 51.257134 
" style="fill:none;stroke:#999999;"/>
    <path clip-path="url(#p6600ea9d20)" d="M 242.998534 46.804693 
L 240.382387 44.570036 
L 231.585848 38.772076 
L 218.042243 28.617001 
L 210.141861 8.307692 
" style="fill:none;stroke:#999999;"/>
    <path clip-path="url(#p6600ea9d20)" d="M 1211.995873 268.772145 
L 1212.324617 268.559562 
" style="fill:none;stroke:#999999;"/>
    <path clip-path="url(#p6600ea9d20)" d="M 1211.995873 268.772145 
L 1209.219299 270.568981 
" style="fill:none;stroke:#999999;"/>
    <path clip-path="url(#p6600ea9d20)" d="M 1211.995873 268.772145 
L 1213.686934 273.847152 
" style="fill:none;stroke:#999999;"/>
    <path clip-path="url(#p6600ea9d20)" d="M 1214.254346 276.897556 
L 1213.686934 273.847152 
" style="fill:none;stroke:#999999;"/>
    <path clip-path="url(#p6600ea9d20)" d="M 1214.254346 276.897556 
L 1219.75358 269.754922 
" style="fill:none;stroke:#999999;"/>
    <path clip-path="url(#p6600ea9d20)" d="M 1214.254346 276.897556 
L 1214.043292 278.538328 
L 1213.898645 281.959909 
" style="fill:none;stroke:#999999;"/>
    <path clip-path="url(#p6600ea9d20)" d="M 1209.704526 285.346059 
L 1214.278016 285.08033 
" style="fill:none;stroke:#999999;"/>
    <path clip-path="url(#p6600ea9d20)" d="M 1214.278016 285.08033 
L 1214.18268 284.296639 
" style="fill:none;stroke:#999999;"/>
    <path clip-path="url(#p6600ea9d20)" d="M 1214.278016 285.08033 
L 1214.702096 288.565179 
" style="fill:none;stroke:#999999;"/>
    <path clip-path="url(#p6600ea9d20)" d="M 1214.278016 285.08033 
L 1209.704526 285.346059 
" style="fill:none;stroke:#999999;"/>
    <path clip-path="url(#p6600ea9d20)" d="M 1190.936517 289.660996 
L 1190.305985 285.756041 
" style="fill:none;stroke:#999999;"/>
    <path clip-path="url(#p6600ea9d20)" d="M 1190.936517 289.660996 
L 1198.340495 290.314775 
L 1203.242071 290.70198 
" style="fill:none;stroke:#999999;"/>
    <path clip-path="url(#p6600ea9d20)" d="M 1190.936517 289.660996 
L 1185.714085 289.199555 
L 1183.792247 289.903949 
" style="fill:none;stroke:#999999;"/>
    <path clip-path="url(#p6600ea9d20)" d="M 1190.305985 285.756041 
L 1191.361912 285.529961 
" style="fill:none;stroke:#999999;"/>
    <path clip-path="url(#p6600ea9d20)" d="M 1190.305985 285.756041 
L 1183.02956 287.313299 
" style="fill:none;stroke:#999999;"/>
    <path clip-path="url(#p6600ea9d20)" d="M 1190.305985 285.756041 
L 1190.936517 289.660996 
" style="fill:none;stroke:#999999;"/>
    <path clip-path="url(#p6600ea9d20)" d="M 1196.302938 287.083844 
L 1195.788124 282.793371 
" style="fill:none;stroke:#999999;"/>
    <path clip-path="url(#p6600ea9d20)" d="M 1196.302938 287.083844 
L 1201.977063 289.22655 
L 1203.242071 290.70198 
" style="fill:none;stroke:#999999;"/>
    <path clip-path="url(#p6600ea9d20)" d="M 1196.302938 287.083844 
L 1191.889875 285.41692 
L 1191.361912 285.529961 
" style="fill:none;stroke:#999999;"/>
    <path clip-path="url(#p6600ea9d20)" d="M 1195.788124 282.793371 
L 1191.183075 283.151895 
" style="fill:none;stroke:#999999;"/>
    <path clip-path="url(#p6600ea9d20)" d="M 1195.788124 282.793371 
L 1196.145798 282.765533 
" style="fill:none;stroke:#999999;"/>
    <path clip-path="url(#p6600ea9d20)" d="M 1195.788124 282.793371 
L 1196.302938 287.083844 
" style="fill:none;stroke:#999999;"/>
    <path clip-path="url(#p6600ea9d20)" d="M 1196.145798 282.765533 
L 1195.788124 282.793371 
" style="fill:none;stroke:#999999;"/>
    <path clip-path="url(#p6600ea9d20)" d="M 1196.145798 282.765533 
L 1195.191125 279.27984 
" style="fill:none;stroke:#999999;"/>
    <path clip-path="url(#p6600ea9d20)" d="M 1196.145798 282.765533 
L 1201.977063 282.312528 
L 1203.065864 281.991965 
" style="fill:none;stroke:#999999;"/>
    <path clip-path="url(#p6600ea9d20)" d="M 1195.191125 279.27984 
L 1190.802389 280.330947 
" style="fill:none;stroke:#999999;"/>
    <path clip-path="url(#p6600ea9d20)" d="M 1195.191125 279.27984 
L 1202.259783 277.585921 
" style="fill:none;stroke:#999999;"/>
    <path clip-path="url(#p6600ea9d20)" d="M 1195.191125 279.27984 
L 1196.145798 282.765533 
" style="fill:none;stroke:#999999;"/>
    <path clip-path="url(#p6600ea9d20)" d="M 1191.361912 285.529961 
L 1190.305985 285.756041 
" style="fill:none;stroke:#999999;"/>
    <path clip-path="url(#p6600ea9d20)" d="M 1191.361912 285.529961 
L 1191.183075 283.151895 
" style="fill:none;stroke:#999999;"/>
    <path clip-path="url(#p6600ea9d20)" d="M 1191.361912 285.529961 
L 1191.889875 285.41692 
L 1196.302938 287.083844 
" style="fill:none;stroke:#999999;"/>
    <path clip-path="url(#p6600ea9d20)" d="M 1191.183075 283.151895 
L 1182.014398 283.864724 
" style="fill:none;stroke:#999999;"/>
    <path clip-path="url(#p6600ea9d20)" d="M 1191.183075 283.151895 
L 1195.788124 282.793371 
" style="fill:none;stroke:#999999;"/>
    <path clip-path="url(#p6600ea9d20)" d="M 1191.183075 283.151895 
L 1191.361912 285.529961 
" style="fill:none;stroke:#999999;"/>
    <path clip-path="url(#p6600ea9d20)" d="M 1191.183075 283.151895 
L 1190.802389 280.330947 
" style="fill:none;stroke:#999999;"/>
    <path clip-path="url(#p6600ea9d20)" d="M 1190.802389 280.330947 
L 1195.191125 279.27984 
" style="fill:none;stroke:#999999;"/>
    <path clip-path="url(#p6600ea9d20)" d="M 1190.802389 280.330947 
L 1191.183075 283.151895 
" style="fill:none;stroke:#999999;"/>
    <path clip-path="url(#p6600ea9d20)" d="M 1190.802389 280.330947 
L 1188.71552 280.831192 
L 1182.407576 281.312879 
" style="fill:none;stroke:#999999;"/>
    <path clip-path="url(#p6600ea9d20)" d="M 1196.020218 275.849823 
L 1201.213719 273.772073 
" style="fill:none;stroke:#999999;"/>
    <path clip-path="url(#p6600ea9d20)" d="M 1196.020218 275.849823 
L 1194.093119 272.004763 
" style="fill:none;stroke:#999999;"/>
    <path clip-path="url(#p6600ea9d20)" d="M 1196.020218 275.849823 
L 1192.786689 277.143039 
L 1186.564876 280.007853 
L 1184.278788 280.725744 
" style="fill:none;stroke:#999999;"/>
    <path clip-path="url(#p6600ea9d20)" d="M 1194.093119 272.004763 
L 1190.45655 274.10782 
" style="fill:none;stroke:#999999;"/>
    <path clip-path="url(#p6600ea9d20)" d="M 1194.093119 272.004763 
L 1196.020218 275.849823 
" style="fill:none;stroke:#999999;"/>
    <path clip-path="url(#p6600ea9d20)" d="M 1194.093119 272.004763 
L 1198.591655 269.402303 
L 1200.425391 269.402303 
" style="fill:none;stroke:#999999;"/>
    <path clip-path="url(#p6600ea9d20)" d="M 1188.718808 258.114293 
L 1189.282933 257.533063 
L 1199.049925 256.315769 
" style="fill:none;stroke:#999999;"/>
    <path clip-path="url(#p6600ea9d20)" d="M 1206.548581 265.170881 
L 1204.894997 266.755134 
" style="fill:none;stroke:#999999;"/>
    <path clip-path="url(#p6600ea9d20)" d="M 1206.548581 265.170881 
L 1204.738515 260.284837 
" style="fill:none;stroke:#999999;"/>
    <path clip-path="url(#p6600ea9d20)" d="M 1206.548581 265.170881 
L 1208.537484 263.264379 
L 1210.928769 261.64807 
" style="fill:none;stroke:#999999;"/>
    <path clip-path="url(#p6600ea9d20)" d="M 1204.738515 260.284837 
L 1208.863598 257.634293 
" style="fill:none;stroke:#999999;"/>
    <path clip-path="url(#p6600ea9d20)" d="M 1204.738515 260.284837 
L 1206.548581 265.170881 
" style="fill:none;stroke:#999999;"/>
    <path clip-path="url(#p6600ea9d20)" d="M 1204.738515 260.284837 
L 1204.16387 260.654327 
L 1202.172995 261.628668 
" style="fill:none;stroke:#999999;"/>
    <path clip-path="url(#p6600ea9d20)" d="M 1202.172995 261.628668 
L 1199.15578 262.206523 
" style="fill:none;stroke:#999999;"/>
    <path clip-path="url(#p6600ea9d20)" d="M 1202.172995 261.628668 
L 1199.543698 254.199215 
" style="fill:none;stroke:#999999;"/>
    <path clip-path="url(#p6600ea9d20)" d="M 1202.172995 261.628668 
L 1203.176322 264.463957 
" style="fill:none;stroke:#999999;"/>
    <path clip-path="url(#p6600ea9d20)" d="M 1202.172995 261.628668 
L 1204.16387 260.654327 
L 1204.738515 260.284837 
" style="fill:none;stroke:#999999;"/>
    <path clip-path="url(#p6600ea9d20)" d="M 1211.062897 253.952888 
L 1212.28977 255.85939 
" style="fill:none;stroke:#999999;"/>
    <path clip-path="url(#p6600ea9d20)" d="M 1212.28977 255.85939 
L 1208.863598 257.634293 
" style="fill:none;stroke:#999999;"/>
    <path clip-path="url(#p6600ea9d20)" d="M 1212.28977 255.85939 
L 1211.062897 253.952888 
" style="fill:none;stroke:#999999;"/>
    <path clip-path="url(#p6600ea9d20)" d="M 1212.28977 255.85939 
L 1214.667906 259.39148 
" style="fill:none;stroke:#999999;"/>
    <path clip-path="url(#p6600ea9d20)" d="M 1212.28977 255.85939 
L 1217.672629 253.070498 
L 1219.914665 255.142343 
" style="fill:none;stroke:#999999;"/>
    <path clip-path="url(#p6600ea9d20)" d="M 1214.667906 259.39148 
L 1210.928769 261.64807 
" style="fill:none;stroke:#999999;"/>
    <path clip-path="url(#p6600ea9d20)" d="M 1214.667906 259.39148 
L 1212.28977 255.85939 
" style="fill:none;stroke:#999999;"/>
    <path clip-path="url(#p6600ea9d20)" d="M 1214.667906 259.39148 
L 1217.182142 263.652428 
" style="fill:none;stroke:#999999;"/>
    <path clip-path="url(#p6600ea9d20)" d="M 1214.667906 259.39148 
L 1215.379966 258.961252 
L 1219.914665 255.142343 
" style="fill:none;stroke:#999999;"/>
    <path clip-path="url(#p6600ea9d20)" d="M 1216.967801 264.964203 
L 1217.977046 265.008069 
" style="fill:none;stroke:#999999;"/>
    <path clip-path="url(#p6600ea9d20)" d="M 1216.967801 264.964203 
L 1217.182142 263.652428 
" style="fill:none;stroke:#999999;"/>
    <path clip-path="url(#p6600ea9d20)" d="M 1216.967801 264.964203 
L 1216.282698 264.934677 
L 1213.281921 267.939527 
L 1212.324617 268.559562 
" style="fill:none;stroke:#999999;"/>
    <path clip-path="url(#p6600ea9d20)" d="M 1217.182142 263.652428 
L 1214.667906 259.39148 
" style="fill:none;stroke:#999999;"/>
    <path clip-path="url(#p6600ea9d20)" d="M 1217.182142 263.652428 
L 1216.967801 264.964203 
" style="fill:none;stroke:#999999;"/>
    <path clip-path="url(#p6600ea9d20)" d="M 1217.182142 263.652428 
L 1219.651012 260.759775 
L 1221.975233 256.963643 
" style="fill:none;stroke:#999999;"/>
    <path clip-path="url(#p6600ea9d20)" d="M 1221.975233 256.963643 
L 1230.821741 263.935029 
" style="fill:none;stroke:#999999;"/>
    <path clip-path="url(#p6600ea9d20)" d="M 1221.975233 256.963643 
L 1221.376261 256.492079 
" style="fill:none;stroke:#999999;"/>
    <path clip-path="url(#p6600ea9d20)" d="M 1221.975233 256.963643 
L 1219.651012 260.759775 
L 1217.182142 263.652428 
" style="fill:none;stroke:#999999;"/>
    <path clip-path="url(#p6600ea9d20)" d="M 1217.977046 265.008069 
L 1225.302125 265.324413 
" style="fill:none;stroke:#999999;"/>
    <path clip-path="url(#p6600ea9d20)" d="M 1217.977046 265.008069 
L 1216.967801 264.964203 
" style="fill:none;stroke:#999999;"/>
    <path clip-path="url(#p6600ea9d20)" d="M 1217.977046 265.008069 
L 1218.593113 265.804413 
L 1219.704268 268.131864 
L 1219.75358 269.754922 
" style="fill:none;stroke:#999999;"/>
    <path clip-path="url(#p6600ea9d20)" d="M 1198.657404 266.572919 
L 1200.425391 269.402303 
" style="fill:none;stroke:#999999;"/>
    <path clip-path="url(#p6600ea9d20)" d="M 1198.657404 266.572919 
L 1199.546328 266.157875 
" style="fill:none;stroke:#999999;"/>
    <path clip-path="url(#p6600ea9d20)" d="M 1198.657404 266.572919 
L 1197.88617 266.93313 
L 1190.831976 273.70543 
L 1190.45655 274.10782 
" style="fill:none;stroke:#999999;"/>
   </g>
  </g>
 </g>
 <defs>
  <clipPath id="p6600ea9d20">
   <rect height="432" width="1307.246819" x="185.002499" y="0"/>
  </clipPath>
 </defs>
</svg>
